<?xml version="1.0" encoding="utf-8" standalone="no"?>
<!DOCTYPE svg PUBLIC "-//W3C//DTD SVG 1.1//EN"
  "http://www.w3.org/Graphics/SVG/1.1/DTD/svg11.dtd">
<svg xmlns:xlink="http://www.w3.org/1999/xlink" width="216pt" height="180pt" viewBox="0 0 216 180" xmlns="http://www.w3.org/2000/svg" version="1.1">
 <metadata>
  <rdf:RDF xmlns:dc="http://purl.org/dc/elements/1.1/" xmlns:cc="http://creativecommons.org/ns#" xmlns:rdf="http://www.w3.org/1999/02/22-rdf-syntax-ns#">
   <cc:Work>
    <dc:type rdf:resource="http://purl.org/dc/dcmitype/StillImage"/>
    <dc:date>2024-08-24T23:20:06.359958</dc:date>
    <dc:format>image/svg+xml</dc:format>
    <dc:creator>
     <cc:Agent>
      <dc:title>Matplotlib v3.9.1, https://matplotlib.org/</dc:title>
     </cc:Agent>
    </dc:creator>
   </cc:Work>
  </rdf:RDF>
 </metadata>
 <defs>
  <style type="text/css">*{stroke-linejoin: round; stroke-linecap: butt}</style>
 </defs>
 <g id="figure_1">
  <g id="patch_1">
   <path d="M 0 180 
L 216 180 
L 216 0 
L 0 0 
z
" style="fill: #ffffff"/>
  </g>
  <g id="axes_1">
   <g id="patch_2">
    <path d="M 59.52 129.12 
L 198.319362 129.12 
L 198.319362 25.44 
L 59.52 25.44 
z
" style="fill: #ffffff"/>
   </g>
   <g id="matplotlib.axis_1">
    <g id="xtick_1">
     <g id="line2d_1">
      <defs>
       <path id="mf7846163af" d="M 0 0 
L 0 3.5 
" style="stroke: #000000; stroke-width: 0.8"/>
      </defs>
      <g>
       <use xlink:href="#mf7846163af" x="61.538084" y="129.12" style="stroke: #000000; stroke-width: 0.8"/>
      </g>
     </g>
     <g id="text_1">
      <!-- 0 -->
      <g transform="translate(58.356834 143.718437) scale(0.1 -0.1)">
       <defs>
        <path id="DejaVuSans-30" d="M 2034 4250 
Q 1547 4250 1301 3770 
Q 1056 3291 1056 2328 
Q 1056 1369 1301 889 
Q 1547 409 2034 409 
Q 2525 409 2770 889 
Q 3016 1369 3016 2328 
Q 3016 3291 2770 3770 
Q 2525 4250 2034 4250 
z
M 2034 4750 
Q 2819 4750 3233 4129 
Q 3647 3509 3647 2328 
Q 3647 1150 3233 529 
Q 2819 -91 2034 -91 
Q 1250 -91 836 529 
Q 422 1150 422 2328 
Q 422 3509 836 4129 
Q 1250 4750 2034 4750 
z
" transform="scale(0.015625)"/>
       </defs>
       <use xlink:href="#DejaVuSans-30"/>
      </g>
     </g>
    </g>
    <g id="xtick_2">
     <g id="line2d_2">
      <g>
       <use xlink:href="#mf7846163af" x="128.807565" y="129.12" style="stroke: #000000; stroke-width: 0.8"/>
      </g>
     </g>
     <g id="text_2">
      <!-- 150 -->
      <g transform="translate(119.263815 143.718437) scale(0.1 -0.1)">
       <defs>
        <path id="DejaVuSans-31" d="M 794 531 
L 1825 531 
L 1825 4091 
L 703 3866 
L 703 4441 
L 1819 4666 
L 2450 4666 
L 2450 531 
L 3481 531 
L 3481 0 
L 794 0 
L 794 531 
z
" transform="scale(0.015625)"/>
        <path id="DejaVuSans-35" d="M 691 4666 
L 3169 4666 
L 3169 4134 
L 1269 4134 
L 1269 2991 
Q 1406 3038 1543 3061 
Q 1681 3084 1819 3084 
Q 2600 3084 3056 2656 
Q 3513 2228 3513 1497 
Q 3513 744 3044 326 
Q 2575 -91 1722 -91 
Q 1428 -91 1123 -41 
Q 819 9 494 109 
L 494 744 
Q 775 591 1075 516 
Q 1375 441 1709 441 
Q 2250 441 2565 725 
Q 2881 1009 2881 1497 
Q 2881 1984 2565 2268 
Q 2250 2553 1709 2553 
Q 1456 2553 1204 2497 
Q 953 2441 691 2322 
L 691 4666 
z
" transform="scale(0.015625)"/>
       </defs>
       <use xlink:href="#DejaVuSans-31"/>
       <use xlink:href="#DejaVuSans-35" x="63.623047"/>
       <use xlink:href="#DejaVuSans-30" x="127.246094"/>
      </g>
     </g>
    </g>
    <g id="xtick_3">
     <g id="line2d_3">
      <g>
       <use xlink:href="#mf7846163af" x="196.077046" y="129.12" style="stroke: #000000; stroke-width: 0.8"/>
      </g>
     </g>
     <g id="text_3">
      <!-- 300 -->
      <g transform="translate(186.533296 143.718437) scale(0.1 -0.1)">
       <defs>
        <path id="DejaVuSans-33" d="M 2597 2516 
Q 3050 2419 3304 2112 
Q 3559 1806 3559 1356 
Q 3559 666 3084 287 
Q 2609 -91 1734 -91 
Q 1441 -91 1130 -33 
Q 819 25 488 141 
L 488 750 
Q 750 597 1062 519 
Q 1375 441 1716 441 
Q 2309 441 2620 675 
Q 2931 909 2931 1356 
Q 2931 1769 2642 2001 
Q 2353 2234 1838 2234 
L 1294 2234 
L 1294 2753 
L 1863 2753 
Q 2328 2753 2575 2939 
Q 2822 3125 2822 3475 
Q 2822 3834 2567 4026 
Q 2313 4219 1838 4219 
Q 1578 4219 1281 4162 
Q 984 4106 628 3988 
L 628 4550 
Q 988 4650 1302 4700 
Q 1616 4750 1894 4750 
Q 2613 4750 3031 4423 
Q 3450 4097 3450 3541 
Q 3450 3153 3228 2886 
Q 3006 2619 2597 2516 
z
" transform="scale(0.015625)"/>
       </defs>
       <use xlink:href="#DejaVuSans-33"/>
       <use xlink:href="#DejaVuSans-30" x="63.623047"/>
       <use xlink:href="#DejaVuSans-30" x="127.246094"/>
      </g>
     </g>
    </g>
    <g id="text_4">
     <!-- Frequency (Hz) -->
     <g transform="translate(91.214993 157.396563) scale(0.1 -0.1)">
      <defs>
       <path id="DejaVuSans-46" d="M 628 4666 
L 3309 4666 
L 3309 4134 
L 1259 4134 
L 1259 2759 
L 3109 2759 
L 3109 2228 
L 1259 2228 
L 1259 0 
L 628 0 
L 628 4666 
z
" transform="scale(0.015625)"/>
       <path id="DejaVuSans-72" d="M 2631 2963 
Q 2534 3019 2420 3045 
Q 2306 3072 2169 3072 
Q 1681 3072 1420 2755 
Q 1159 2438 1159 1844 
L 1159 0 
L 581 0 
L 581 3500 
L 1159 3500 
L 1159 2956 
Q 1341 3275 1631 3429 
Q 1922 3584 2338 3584 
Q 2397 3584 2469 3576 
Q 2541 3569 2628 3553 
L 2631 2963 
z
" transform="scale(0.015625)"/>
       <path id="DejaVuSans-65" d="M 3597 1894 
L 3597 1613 
L 953 1613 
Q 991 1019 1311 708 
Q 1631 397 2203 397 
Q 2534 397 2845 478 
Q 3156 559 3463 722 
L 3463 178 
Q 3153 47 2828 -22 
Q 2503 -91 2169 -91 
Q 1331 -91 842 396 
Q 353 884 353 1716 
Q 353 2575 817 3079 
Q 1281 3584 2069 3584 
Q 2775 3584 3186 3129 
Q 3597 2675 3597 1894 
z
M 3022 2063 
Q 3016 2534 2758 2815 
Q 2500 3097 2075 3097 
Q 1594 3097 1305 2825 
Q 1016 2553 972 2059 
L 3022 2063 
z
" transform="scale(0.015625)"/>
       <path id="DejaVuSans-71" d="M 947 1747 
Q 947 1113 1208 752 
Q 1469 391 1925 391 
Q 2381 391 2643 752 
Q 2906 1113 2906 1747 
Q 2906 2381 2643 2742 
Q 2381 3103 1925 3103 
Q 1469 3103 1208 2742 
Q 947 2381 947 1747 
z
M 2906 525 
Q 2725 213 2448 61 
Q 2172 -91 1784 -91 
Q 1150 -91 751 415 
Q 353 922 353 1747 
Q 353 2572 751 3078 
Q 1150 3584 1784 3584 
Q 2172 3584 2448 3432 
Q 2725 3281 2906 2969 
L 2906 3500 
L 3481 3500 
L 3481 -1331 
L 2906 -1331 
L 2906 525 
z
" transform="scale(0.015625)"/>
       <path id="DejaVuSans-75" d="M 544 1381 
L 544 3500 
L 1119 3500 
L 1119 1403 
Q 1119 906 1312 657 
Q 1506 409 1894 409 
Q 2359 409 2629 706 
Q 2900 1003 2900 1516 
L 2900 3500 
L 3475 3500 
L 3475 0 
L 2900 0 
L 2900 538 
Q 2691 219 2414 64 
Q 2138 -91 1772 -91 
Q 1169 -91 856 284 
Q 544 659 544 1381 
z
M 1991 3584 
L 1991 3584 
z
" transform="scale(0.015625)"/>
       <path id="DejaVuSans-6e" d="M 3513 2113 
L 3513 0 
L 2938 0 
L 2938 2094 
Q 2938 2591 2744 2837 
Q 2550 3084 2163 3084 
Q 1697 3084 1428 2787 
Q 1159 2491 1159 1978 
L 1159 0 
L 581 0 
L 581 3500 
L 1159 3500 
L 1159 2956 
Q 1366 3272 1645 3428 
Q 1925 3584 2291 3584 
Q 2894 3584 3203 3211 
Q 3513 2838 3513 2113 
z
" transform="scale(0.015625)"/>
       <path id="DejaVuSans-63" d="M 3122 3366 
L 3122 2828 
Q 2878 2963 2633 3030 
Q 2388 3097 2138 3097 
Q 1578 3097 1268 2742 
Q 959 2388 959 1747 
Q 959 1106 1268 751 
Q 1578 397 2138 397 
Q 2388 397 2633 464 
Q 2878 531 3122 666 
L 3122 134 
Q 2881 22 2623 -34 
Q 2366 -91 2075 -91 
Q 1284 -91 818 406 
Q 353 903 353 1747 
Q 353 2603 823 3093 
Q 1294 3584 2113 3584 
Q 2378 3584 2631 3529 
Q 2884 3475 3122 3366 
z
" transform="scale(0.015625)"/>
       <path id="DejaVuSans-79" d="M 2059 -325 
Q 1816 -950 1584 -1140 
Q 1353 -1331 966 -1331 
L 506 -1331 
L 506 -850 
L 844 -850 
Q 1081 -850 1212 -737 
Q 1344 -625 1503 -206 
L 1606 56 
L 191 3500 
L 800 3500 
L 1894 763 
L 2988 3500 
L 3597 3500 
L 2059 -325 
z
" transform="scale(0.015625)"/>
       <path id="DejaVuSans-20" transform="scale(0.015625)"/>
       <path id="DejaVuSans-28" d="M 1984 4856 
Q 1566 4138 1362 3434 
Q 1159 2731 1159 2009 
Q 1159 1288 1364 580 
Q 1569 -128 1984 -844 
L 1484 -844 
Q 1016 -109 783 600 
Q 550 1309 550 2009 
Q 550 2706 781 3412 
Q 1013 4119 1484 4856 
L 1984 4856 
z
" transform="scale(0.015625)"/>
       <path id="DejaVuSans-48" d="M 628 4666 
L 1259 4666 
L 1259 2753 
L 3553 2753 
L 3553 4666 
L 4184 4666 
L 4184 0 
L 3553 0 
L 3553 2222 
L 1259 2222 
L 1259 0 
L 628 0 
L 628 4666 
z
" transform="scale(0.015625)"/>
       <path id="DejaVuSans-7a" d="M 353 3500 
L 3084 3500 
L 3084 2975 
L 922 459 
L 3084 459 
L 3084 0 
L 275 0 
L 275 525 
L 2438 3041 
L 353 3041 
L 353 3500 
z
" transform="scale(0.015625)"/>
       <path id="DejaVuSans-29" d="M 513 4856 
L 1013 4856 
Q 1481 4119 1714 3412 
Q 1947 2706 1947 2009 
Q 1947 1309 1714 600 
Q 1481 -109 1013 -844 
L 513 -844 
Q 928 -128 1133 580 
Q 1338 1288 1338 2009 
Q 1338 2731 1133 3434 
Q 928 4138 513 4856 
z
" transform="scale(0.015625)"/>
      </defs>
      <use xlink:href="#DejaVuSans-46"/>
      <use xlink:href="#DejaVuSans-72" x="50.269531"/>
      <use xlink:href="#DejaVuSans-65" x="89.132812"/>
      <use xlink:href="#DejaVuSans-71" x="150.65625"/>
      <use xlink:href="#DejaVuSans-75" x="214.132812"/>
      <use xlink:href="#DejaVuSans-65" x="277.511719"/>
      <use xlink:href="#DejaVuSans-6e" x="339.035156"/>
      <use xlink:href="#DejaVuSans-63" x="402.414062"/>
      <use xlink:href="#DejaVuSans-79" x="457.394531"/>
      <use xlink:href="#DejaVuSans-20" x="516.574219"/>
      <use xlink:href="#DejaVuSans-28" x="548.361328"/>
      <use xlink:href="#DejaVuSans-48" x="587.375"/>
      <use xlink:href="#DejaVuSans-7a" x="662.570312"/>
      <use xlink:href="#DejaVuSans-29" x="715.060547"/>
     </g>
    </g>
   </g>
   <g id="matplotlib.axis_2">
    <g id="ytick_1">
     <g id="line2d_4">
      <defs>
       <path id="mc0d35f7c56" d="M 0 0 
L -3.5 0 
" style="stroke: #000000; stroke-width: 0.8"/>
      </defs>
      <g>
       <use xlink:href="#mc0d35f7c56" x="59.52" y="108.250488" style="stroke: #000000; stroke-width: 0.8"/>
      </g>
     </g>
     <g id="text_5">
      <!-- $\mathdefault{10^{-3}}$ -->
      <g transform="translate(29.02 112.049706) scale(0.1 -0.1)">
       <defs>
        <path id="DejaVuSans-2212" d="M 678 2272 
L 4684 2272 
L 4684 1741 
L 678 1741 
L 678 2272 
z
" transform="scale(0.015625)"/>
       </defs>
       <use xlink:href="#DejaVuSans-31" transform="translate(0 0.765625)"/>
       <use xlink:href="#DejaVuSans-30" transform="translate(63.623047 0.765625)"/>
       <use xlink:href="#DejaVuSans-2212" transform="translate(128.203125 39.046875) scale(0.7)"/>
       <use xlink:href="#DejaVuSans-33" transform="translate(186.855469 39.046875) scale(0.7)"/>
      </g>
     </g>
    </g>
    <g id="ytick_2">
     <g id="line2d_5">
      <g>
       <use xlink:href="#mc0d35f7c56" x="59.52" y="81.453165" style="stroke: #000000; stroke-width: 0.8"/>
      </g>
     </g>
     <g id="text_6">
      <!-- $\mathdefault{10^{0}}$ -->
      <g transform="translate(34.92 85.252384) scale(0.1 -0.1)">
       <use xlink:href="#DejaVuSans-31" transform="translate(0 0.765625)"/>
       <use xlink:href="#DejaVuSans-30" transform="translate(63.623047 0.765625)"/>
       <use xlink:href="#DejaVuSans-30" transform="translate(128.203125 39.046875) scale(0.7)"/>
      </g>
     </g>
    </g>
    <g id="ytick_3">
     <g id="line2d_6">
      <g>
       <use xlink:href="#mc0d35f7c56" x="59.52" y="54.655842" style="stroke: #000000; stroke-width: 0.8"/>
      </g>
     </g>
     <g id="text_7">
      <!-- $\mathdefault{10^{3}}$ -->
      <g transform="translate(34.92 58.455061) scale(0.1 -0.1)">
       <use xlink:href="#DejaVuSans-31" transform="translate(0 0.765625)"/>
       <use xlink:href="#DejaVuSans-30" transform="translate(63.623047 0.765625)"/>
       <use xlink:href="#DejaVuSans-33" transform="translate(128.203125 39.046875) scale(0.7)"/>
      </g>
     </g>
    </g>
    <g id="ytick_4">
     <g id="line2d_7">
      <g>
       <use xlink:href="#mc0d35f7c56" x="59.52" y="27.858519" style="stroke: #000000; stroke-width: 0.8"/>
      </g>
     </g>
     <g id="text_8">
      <!-- $\mathdefault{10^{6}}$ -->
      <g transform="translate(34.92 31.657738) scale(0.1 -0.1)">
       <defs>
        <path id="DejaVuSans-36" d="M 2113 2584 
Q 1688 2584 1439 2293 
Q 1191 2003 1191 1497 
Q 1191 994 1439 701 
Q 1688 409 2113 409 
Q 2538 409 2786 701 
Q 3034 994 3034 1497 
Q 3034 2003 2786 2293 
Q 2538 2584 2113 2584 
z
M 3366 4563 
L 3366 3988 
Q 3128 4100 2886 4159 
Q 2644 4219 2406 4219 
Q 1781 4219 1451 3797 
Q 1122 3375 1075 2522 
Q 1259 2794 1537 2939 
Q 1816 3084 2150 3084 
Q 2853 3084 3261 2657 
Q 3669 2231 3669 1497 
Q 3669 778 3244 343 
Q 2819 -91 2113 -91 
Q 1303 -91 875 529 
Q 447 1150 447 2328 
Q 447 3434 972 4092 
Q 1497 4750 2381 4750 
Q 2619 4750 2861 4703 
Q 3103 4656 3366 4563 
z
" transform="scale(0.015625)"/>
       </defs>
       <use xlink:href="#DejaVuSans-31" transform="translate(0 0.765625)"/>
       <use xlink:href="#DejaVuSans-30" transform="translate(63.623047 0.765625)"/>
       <use xlink:href="#DejaVuSans-36" transform="translate(128.203125 39.046875) scale(0.7)"/>
      </g>
     </g>
    </g>
    <g id="text_9">
     <!-- Log power (dB/Hz) -->
     <g transform="translate(22.940312 123.419844) rotate(-90) scale(0.1 -0.1)">
      <defs>
       <path id="DejaVuSans-4c" d="M 628 4666 
L 1259 4666 
L 1259 531 
L 3531 531 
L 3531 0 
L 628 0 
L 628 4666 
z
" transform="scale(0.015625)"/>
       <path id="DejaVuSans-6f" d="M 1959 3097 
Q 1497 3097 1228 2736 
Q 959 2375 959 1747 
Q 959 1119 1226 758 
Q 1494 397 1959 397 
Q 2419 397 2687 759 
Q 2956 1122 2956 1747 
Q 2956 2369 2687 2733 
Q 2419 3097 1959 3097 
z
M 1959 3584 
Q 2709 3584 3137 3096 
Q 3566 2609 3566 1747 
Q 3566 888 3137 398 
Q 2709 -91 1959 -91 
Q 1206 -91 779 398 
Q 353 888 353 1747 
Q 353 2609 779 3096 
Q 1206 3584 1959 3584 
z
" transform="scale(0.015625)"/>
       <path id="DejaVuSans-67" d="M 2906 1791 
Q 2906 2416 2648 2759 
Q 2391 3103 1925 3103 
Q 1463 3103 1205 2759 
Q 947 2416 947 1791 
Q 947 1169 1205 825 
Q 1463 481 1925 481 
Q 2391 481 2648 825 
Q 2906 1169 2906 1791 
z
M 3481 434 
Q 3481 -459 3084 -895 
Q 2688 -1331 1869 -1331 
Q 1566 -1331 1297 -1286 
Q 1028 -1241 775 -1147 
L 775 -588 
Q 1028 -725 1275 -790 
Q 1522 -856 1778 -856 
Q 2344 -856 2625 -561 
Q 2906 -266 2906 331 
L 2906 616 
Q 2728 306 2450 153 
Q 2172 0 1784 0 
Q 1141 0 747 490 
Q 353 981 353 1791 
Q 353 2603 747 3093 
Q 1141 3584 1784 3584 
Q 2172 3584 2450 3431 
Q 2728 3278 2906 2969 
L 2906 3500 
L 3481 3500 
L 3481 434 
z
" transform="scale(0.015625)"/>
       <path id="DejaVuSans-70" d="M 1159 525 
L 1159 -1331 
L 581 -1331 
L 581 3500 
L 1159 3500 
L 1159 2969 
Q 1341 3281 1617 3432 
Q 1894 3584 2278 3584 
Q 2916 3584 3314 3078 
Q 3713 2572 3713 1747 
Q 3713 922 3314 415 
Q 2916 -91 2278 -91 
Q 1894 -91 1617 61 
Q 1341 213 1159 525 
z
M 3116 1747 
Q 3116 2381 2855 2742 
Q 2594 3103 2138 3103 
Q 1681 3103 1420 2742 
Q 1159 2381 1159 1747 
Q 1159 1113 1420 752 
Q 1681 391 2138 391 
Q 2594 391 2855 752 
Q 3116 1113 3116 1747 
z
" transform="scale(0.015625)"/>
       <path id="DejaVuSans-77" d="M 269 3500 
L 844 3500 
L 1563 769 
L 2278 3500 
L 2956 3500 
L 3675 769 
L 4391 3500 
L 4966 3500 
L 4050 0 
L 3372 0 
L 2619 2869 
L 1863 0 
L 1184 0 
L 269 3500 
z
" transform="scale(0.015625)"/>
       <path id="DejaVuSans-64" d="M 2906 2969 
L 2906 4863 
L 3481 4863 
L 3481 0 
L 2906 0 
L 2906 525 
Q 2725 213 2448 61 
Q 2172 -91 1784 -91 
Q 1150 -91 751 415 
Q 353 922 353 1747 
Q 353 2572 751 3078 
Q 1150 3584 1784 3584 
Q 2172 3584 2448 3432 
Q 2725 3281 2906 2969 
z
M 947 1747 
Q 947 1113 1208 752 
Q 1469 391 1925 391 
Q 2381 391 2643 752 
Q 2906 1113 2906 1747 
Q 2906 2381 2643 2742 
Q 2381 3103 1925 3103 
Q 1469 3103 1208 2742 
Q 947 2381 947 1747 
z
" transform="scale(0.015625)"/>
       <path id="DejaVuSans-42" d="M 1259 2228 
L 1259 519 
L 2272 519 
Q 2781 519 3026 730 
Q 3272 941 3272 1375 
Q 3272 1813 3026 2020 
Q 2781 2228 2272 2228 
L 1259 2228 
z
M 1259 4147 
L 1259 2741 
L 2194 2741 
Q 2656 2741 2882 2914 
Q 3109 3088 3109 3444 
Q 3109 3797 2882 3972 
Q 2656 4147 2194 4147 
L 1259 4147 
z
M 628 4666 
L 2241 4666 
Q 2963 4666 3353 4366 
Q 3744 4066 3744 3513 
Q 3744 3084 3544 2831 
Q 3344 2578 2956 2516 
Q 3422 2416 3680 2098 
Q 3938 1781 3938 1306 
Q 3938 681 3513 340 
Q 3088 0 2303 0 
L 628 0 
L 628 4666 
z
" transform="scale(0.015625)"/>
       <path id="DejaVuSans-2f" d="M 1625 4666 
L 2156 4666 
L 531 -594 
L 0 -594 
L 1625 4666 
z
" transform="scale(0.015625)"/>
      </defs>
      <use xlink:href="#DejaVuSans-4c"/>
      <use xlink:href="#DejaVuSans-6f" x="53.962891"/>
      <use xlink:href="#DejaVuSans-67" x="115.144531"/>
      <use xlink:href="#DejaVuSans-20" x="178.621094"/>
      <use xlink:href="#DejaVuSans-70" x="210.408203"/>
      <use xlink:href="#DejaVuSans-6f" x="273.884766"/>
      <use xlink:href="#DejaVuSans-77" x="335.066406"/>
      <use xlink:href="#DejaVuSans-65" x="416.853516"/>
      <use xlink:href="#DejaVuSans-72" x="478.376953"/>
      <use xlink:href="#DejaVuSans-20" x="519.490234"/>
      <use xlink:href="#DejaVuSans-28" x="551.277344"/>
      <use xlink:href="#DejaVuSans-64" x="590.291016"/>
      <use xlink:href="#DejaVuSans-42" x="653.767578"/>
      <use xlink:href="#DejaVuSans-2f" x="722.371094"/>
      <use xlink:href="#DejaVuSans-48" x="756.0625"/>
      <use xlink:href="#DejaVuSans-7a" x="831.257812"/>
      <use xlink:href="#DejaVuSans-29" x="883.748047"/>
     </g>
    </g>
   </g>
   <g id="line2d_8">
    <path d="M 61.762316 69.423942 
L 61.986548 74.963897 
L 62.210779 66.648385 
L 62.435011 64.050297 
L 62.659242 69.908044 
L 62.883474 68.769451 
L 63.107706 61.047858 
L 63.331937 72.105063 
L 63.556169 69.374745 
L 64.004632 66.587395 
L 64.228864 72.402896 
L 64.453095 69.855036 
L 64.677327 63.840799 
L 64.901558 73.415923 
L 65.12579 64.81396 
L 65.574253 66.205092 
L 65.798485 74.150083 
L 66.022716 65.976602 
L 66.246948 63.685733 
L 66.47118 65.993109 
L 66.695411 66.431052 
L 66.919643 62.074227 
L 67.143874 74.45358 
L 67.368106 73.850299 
L 67.592338 67.875001 
L 67.816569 72.937683 
L 68.040801 73.103743 
L 68.265032 71.011144 
L 68.713496 68.8305 
L 68.937727 60.783807 
L 69.161959 69.462602 
L 69.386191 69.414404 
L 69.610422 62.105772 
L 69.834654 75.38384 
L 70.283117 67.395731 
L 70.507349 66.593932 
L 70.73158 78.497783 
L 70.955812 62.310846 
L 71.180043 65.692425 
L 71.404275 81.177194 
L 71.628507 55.728979 
L 71.852738 66.952922 
L 72.07697 72.041461 
L 72.301201 69.009348 
L 72.525433 80.34389 
L 72.749665 75.321817 
L 72.973896 66.886725 
L 73.198128 67.4386 
L 73.422359 67.547586 
L 73.646591 76.023935 
L 73.870823 78.205943 
L 74.095054 65.17758 
L 74.319286 60.837038 
L 74.543517 76.048299 
L 74.767749 77.501774 
L 75.216212 68.033488 
L 75.440444 75.368632 
L 75.664675 62.897304 
L 75.888907 73.474579 
L 76.113139 71.413333 
L 76.33737 74.035411 
L 76.561602 65.326786 
L 77.010065 71.725144 
L 77.234297 64.118605 
L 77.458528 63.520734 
L 77.68276 72.293313 
L 77.906991 65.020742 
L 78.355455 71.710076 
L 78.579686 62.273675 
L 79.028149 70.408397 
L 79.252381 66.894931 
L 79.476613 74.431881 
L 79.700844 88.547176 
L 79.925076 69.85085 
L 80.149307 62.149538 
L 80.373539 65.65754 
L 80.822002 78.895458 
L 81.046234 66.02476 
L 81.270465 70.238042 
L 81.494697 65.493336 
L 81.718929 74.706888 
L 81.94316 67.706488 
L 82.167392 65.668545 
L 82.391623 65.771736 
L 82.615855 68.456554 
L 82.840087 68.731562 
L 83.064318 70.40665 
L 83.512781 65.828133 
L 83.737013 66.404323 
L 84.185476 71.523771 
L 84.409708 77.185504 
L 84.633939 69.717317 
L 84.858171 72.157217 
L 85.082403 64.048309 
L 85.306634 65.697816 
L 85.530866 75.761037 
L 85.755097 69.074451 
L 85.979329 76.447201 
L 86.203561 66.604179 
L 86.427792 65.708194 
L 86.652024 67.569946 
L 86.876255 66.20873 
L 87.100487 62.572093 
L 87.324719 72.043677 
L 87.54895 76.051914 
L 87.773182 65.997108 
L 87.997414 64.407436 
L 88.221645 66.173674 
L 88.445877 70.42863 
L 88.670108 62.363564 
L 89.118572 70.816586 
L 89.342803 70.754554 
L 89.567035 68.750799 
L 89.791266 71.257845 
L 90.015498 70.031619 
L 90.463961 62.199132 
L 90.688193 71.181625 
L 91.136656 63.947414 
L 91.360888 65.662714 
L 91.585119 75.763106 
L 91.809351 75.065529 
L 92.033582 62.328574 
L 92.257814 66.540909 
L 92.482046 66.630228 
L 92.706277 63.978776 
L 92.930509 67.63103 
L 93.15474 78.484503 
L 93.378972 68.962389 
L 93.603204 80.132358 
L 93.827435 64.373785 
L 94.051667 62.839675 
L 94.275898 74.142911 
L 94.50013 69.737164 
L 94.724362 73.827635 
L 94.948593 71.958467 
L 95.397056 64.222842 
L 95.621288 66.142566 
L 95.84552 66.578973 
L 96.069751 68.790341 
L 96.293983 69.551205 
L 96.518214 66.078927 
L 96.742446 65.201191 
L 96.966678 63.487763 
L 97.190909 66.50402 
L 97.415141 74.314636 
L 97.639372 63.378466 
L 97.863604 69.168639 
L 98.087836 64.792436 
L 98.312067 75.194323 
L 98.76053 63.455639 
L 98.984762 59.636669 
L 99.208994 66.749725 
L 99.433225 78.244415 
L 99.881688 65.642198 
L 100.10592 65.741746 
L 100.330152 65.490963 
L 100.554383 59.289101 
L 100.778615 67.876782 
L 101.002846 68.647104 
L 101.227078 62.559914 
L 101.45131 70.609608 
L 101.675541 62.517033 
L 101.899773 63.134729 
L 102.124004 72.567735 
L 102.348236 63.512082 
L 102.572468 63.207583 
L 102.796699 64.150394 
L 103.245162 68.745125 
L 103.469394 60.548726 
L 103.693626 79.669277 
L 103.917857 65.739516 
L 104.142089 68.76796 
L 104.36632 75.716023 
L 104.814784 59.224748 
L 105.039015 63.637765 
L 105.263247 71.125456 
L 105.71171 63.104873 
L 105.935942 63.768862 
L 106.160173 67.161401 
L 106.384405 72.926422 
L 106.608637 71.701666 
L 106.832868 67.506214 
L 107.0571 70.481158 
L 107.281331 65.717348 
L 107.954026 68.10961 
L 108.178258 62.477217 
L 108.402489 74.980299 
L 108.626721 61.561283 
L 108.850953 64.420243 
L 109.075184 72.575687 
L 109.299416 72.408564 
L 109.523647 61.448663 
L 109.747879 63.527736 
L 109.972111 68.956177 
L 110.196342 59.590594 
L 110.644805 75.300596 
L 110.869037 63.140983 
L 111.3175 74.416565 
L 111.541732 63.709833 
L 111.765963 68.954898 
L 111.990195 78.094522 
L 112.214427 63.344385 
L 112.438658 63.954534 
L 112.66289 65.886507 
L 112.887121 65.489331 
L 113.111353 60.868802 
L 113.559816 70.687384 
L 113.784048 64.123822 
L 114.008279 60.956196 
L 114.232511 74.712548 
L 114.456743 66.748147 
L 114.680974 66.851787 
L 114.905206 63.085766 
L 115.353669 71.163781 
L 115.577901 66.245524 
L 115.802132 74.380188 
L 116.026364 63.824294 
L 116.474827 78.204937 
L 116.699059 67.446565 
L 116.92329 69.024397 
L 117.147522 65.712658 
L 117.371753 80.065535 
L 117.595985 30.152727 
L 117.820217 78.834337 
L 118.044448 65.548266 
L 118.26868 69.09528 
L 118.492911 67.483274 
L 118.717143 78.733712 
L 119.165606 64.306521 
L 119.389838 74.12424 
L 119.614069 66.81959 
L 119.838301 71.987361 
L 120.286764 63.885777 
L 120.510996 67.137401 
L 120.735227 67.866463 
L 120.959459 74.819174 
L 121.183691 61.757275 
L 121.407922 64.981265 
L 121.632154 71.339034 
L 122.080617 61.917436 
L 122.304849 66.175978 
L 122.52908 67.292185 
L 122.753312 65.346897 
L 122.977543 64.73093 
L 123.201775 80.966144 
L 123.650238 65.053623 
L 123.87447 76.577251 
L 124.322933 64.594687 
L 124.547165 76.686691 
L 124.771396 70.836505 
L 124.995628 61.56315 
L 125.219859 70.809218 
L 125.444091 65.236118 
L 125.668323 63.717919 
L 125.892554 75.160822 
L 126.116786 74.727792 
L 126.341018 66.239577 
L 126.565249 63.539927 
L 126.789481 77.04774 
L 127.013712 64.590141 
L 127.237944 71.621638 
L 127.686407 68.404171 
L 127.910639 68.417201 
L 128.13487 73.146392 
L 128.359102 70.154957 
L 128.583334 74.501742 
L 128.807565 75.197065 
L 129.256028 66.908452 
L 129.48026 65.840865 
L 129.928723 73.572254 
L 130.377186 62.388286 
L 130.82565 80.5927 
L 131.049881 72.154533 
L 131.274113 69.149644 
L 131.498344 82.276313 
L 131.722576 64.042561 
L 131.946808 72.094925 
L 132.395271 67.513122 
L 132.619502 66.494921 
L 132.843734 66.962502 
L 133.067966 75.70841 
L 133.292197 66.855959 
L 133.516429 65.9615 
L 133.74066 72.839501 
L 133.964892 67.193474 
L 134.189124 72.620318 
L 134.413355 71.912232 
L 134.637587 63.650955 
L 134.861818 70.249276 
L 135.08605 70.758266 
L 135.310282 69.907489 
L 135.758745 83.326513 
L 136.207208 64.222478 
L 136.655671 73.441501 
L 136.879903 80.499774 
L 137.104134 69.808893 
L 137.328366 73.678544 
L 137.552598 68.314993 
L 137.776829 77.524621 
L 138.001061 71.7702 
L 138.225292 69.311904 
L 138.673756 71.754741 
L 138.897987 76.218918 
L 139.34645 72.056874 
L 139.570682 71.684895 
L 139.794914 70.999131 
L 140.467608 81.15652 
L 140.69184 75.007731 
L 140.916072 81.33118 
L 141.140303 68.850022 
L 141.364535 70.117787 
L 141.588766 83.510241 
L 141.812998 74.629819 
L 142.03723 83.585973 
L 142.261461 73.508394 
L 142.485693 70.532135 
L 142.709924 73.084022 
L 142.934156 72.676104 
L 143.158388 68.262526 
L 143.382619 80.240226 
L 143.606851 81.851261 
L 143.831082 71.147992 
L 144.055314 71.586969 
L 144.279546 73.288201 
L 144.503777 77.044792 
L 144.728009 69.421109 
L 145.176472 76.393727 
L 145.400704 79.40169 
L 145.624935 76.96527 
L 145.849167 78.256392 
L 146.073399 77.102139 
L 146.29763 74.468873 
L 146.521862 70.02216 
L 146.746093 78.269824 
L 146.970325 73.988352 
L 147.194557 72.504483 
L 147.418788 72.884179 
L 147.64302 83.070151 
L 147.867251 80.806528 
L 148.091483 70.230905 
L 148.315715 74.473732 
L 148.539946 75.146303 
L 148.764178 72.622812 
L 148.988409 75.900202 
L 149.212641 86.154281 
L 149.436873 76.934873 
L 149.661104 85.699533 
L 149.885336 73.053322 
L 150.109567 71.847317 
L 150.333799 83.199531 
L 150.558031 78.096931 
L 150.782262 85.390278 
L 151.006494 82.939986 
L 151.454957 74.921792 
L 151.679189 75.169 
L 151.90342 76.187591 
L 152.127652 78.671814 
L 152.351883 79.587442 
L 152.576115 76.365557 
L 152.800347 74.838841 
L 153.024578 74.244599 
L 153.24881 76.608038 
L 153.473041 81.616424 
L 153.697273 73.69291 
L 153.921505 78.693381 
L 154.145736 74.917758 
L 154.369968 84.2226 
L 155.042663 69.752967 
L 155.491126 86.99515 
L 155.939589 76.302836 
L 156.388052 76.58113 
L 156.612284 69.588665 
L 156.836515 78.271281 
L 157.060747 79.626642 
L 157.284979 73.368881 
L 157.50921 79.346228 
L 157.733442 72.58534 
L 157.957673 73.771511 
L 158.181905 82.061504 
L 158.406137 73.707523 
L 158.630368 73.271689 
L 159.078831 76.042222 
L 159.303063 78.921334 
L 159.527295 71.203794 
L 159.751526 88.628365 
L 159.975758 76.017642 
L 160.199989 79.282882 
L 160.424221 84.837412 
L 160.872684 69.438582 
L 161.321147 80.311154 
L 161.545379 78.240648 
L 161.769611 73.283193 
L 161.993842 74.031387 
L 162.218074 77.194483 
L 162.442305 83.045204 
L 162.666537 81.699476 
L 162.890769 78.354233 
L 163.115 80.552509 
L 163.339232 75.89515 
L 163.563464 76.013077 
L 163.787695 77.571097 
L 164.011927 78.330456 
L 164.236158 72.32349 
L 164.46039 85.715105 
L 164.684622 71.343701 
L 164.908853 74.157601 
L 165.133085 82.800346 
L 165.357316 82.480365 
L 165.581548 71.232818 
L 165.80578 73.223007 
L 166.030011 78.284957 
L 166.254243 69.060029 
L 166.702706 84.081217 
L 166.926938 72.354049 
L 167.375401 84.052126 
L 167.599632 72.7567 
L 167.823864 78.409123 
L 168.048096 87.902132 
L 168.272327 72.458898 
L 168.496559 73.111761 
L 168.72079 74.740623 
L 168.945022 74.38351 
L 169.169254 69.805195 
L 169.617717 80.386014 
L 169.841948 73.257281 
L 170.06618 70.070613 
L 170.290412 82.652934 
L 170.514643 75.90845 
L 170.738875 75.263013 
L 170.963106 71.898581 
L 171.41157 79.381404 
L 171.635801 74.689575 
L 171.860033 81.313856 
L 172.084264 72.310903 
L 172.532728 86.440948 
L 172.756959 75.565456 
L 172.981191 76.819059 
L 173.205422 73.997428 
L 173.429654 87.124693 
L 173.653886 38.280275 
L 173.878117 87.124841 
L 174.102349 73.766761 
L 174.32658 76.458492 
L 174.550812 75.095468 
L 174.775044 87.775271 
L 175.223507 72.077766 
L 175.447738 82.644975 
L 175.67197 74.55517 
L 175.896202 78.709456 
L 176.344665 71.388591 
L 176.568896 74.795516 
L 176.793128 75.520818 
L 177.01736 82.368456 
L 177.241591 69.344288 
L 177.465823 72.588537 
L 177.690054 79.015381 
L 178.138518 69.26917 
L 178.362749 73.846314 
L 178.586981 74.57501 
L 178.811212 72.528159 
L 179.035444 71.729646 
L 179.259676 87.144019 
L 179.708139 72.024751 
L 179.93237 82.589324 
L 180.380834 71.617858 
L 180.605065 84.422974 
L 181.053528 68.024804 
L 181.27776 77.913767 
L 181.501992 72.287296 
L 181.726223 70.261744 
L 181.950455 82.026784 
L 182.174687 81.969188 
L 182.398918 72.947002 
L 182.62315 70.166805 
L 182.847381 84.424522 
L 183.071613 71.182655 
L 183.295845 77.566983 
L 183.968539 74.974438 
L 184.192771 79.704446 
L 184.417003 76.475798 
L 184.641234 80.650141 
L 184.865466 81.586659 
L 185.313929 73.058798 
L 185.538161 72.050037 
L 185.986624 79.76763 
L 186.435087 68.455031 
L 186.88355 84.455216 
L 187.107782 77.661453 
L 187.332013 74.989597 
L 187.556245 87.62084 
L 187.780477 69.954876 
L 188.004708 77.487955 
L 188.677403 72.313309 
L 188.901635 72.9784 
L 189.125866 80.887138 
L 189.350098 72.938548 
L 189.574329 71.625803 
L 189.798561 78.800013 
L 190.022793 72.530337 
L 190.247024 78.563621 
L 190.471256 77.720457 
L 190.695487 69.141019 
L 190.919719 75.93343 
L 191.143951 75.574109 
L 191.368182 75.76104 
L 191.816645 87.989623 
L 192.265109 69.67113 
L 192.713572 78.616723 
L 192.937803 84.822233 
L 193.162035 74.970883 
L 193.386267 79.202646 
L 193.610498 73.726669 
L 193.83473 81.922936 
L 194.058961 76.7449 
L 194.283193 74.655354 
L 194.731656 76.865363 
L 194.955888 80.285605 
L 195.180119 79.244884 
L 195.404351 77.150306 
L 195.628583 76.660876 
L 195.852814 75.6971 
L 195.852814 75.6971 
" clip-path="url(#pe8cde0c34e)" style="fill: none; stroke: #808080; stroke-width: 0.8; stroke-linecap: square"/>
   </g>
   <g id="line2d_9">
    <path d="M 61.762316 70.867605 
L 62.210779 66.799484 
L 62.435011 67.662811 
L 62.659242 69.650541 
L 62.883474 69.824988 
L 63.107706 64.06978 
L 63.331937 75.490036 
L 63.556169 67.210337 
L 63.7804 72.01273 
L 64.004632 65.207609 
L 64.228864 71.397148 
L 64.453095 66.356347 
L 64.677327 67.113169 
L 64.901558 75.771939 
L 65.12579 67.968192 
L 65.350022 72.058489 
L 65.574253 68.156933 
L 65.798485 72.126799 
L 66.022716 79.247453 
L 66.246948 66.078586 
L 66.47118 72.459699 
L 66.695411 73.623788 
L 66.919643 66.985873 
L 67.143874 77.08967 
L 67.368106 77.271073 
L 67.592338 93.648386 
L 67.816569 72.783759 
L 68.040801 77.166704 
L 68.489264 72.447412 
L 68.713496 74.453541 
L 68.937727 69.560539 
L 69.161959 71.854819 
L 69.386191 75.307603 
L 69.610422 69.501639 
L 69.834654 77.948255 
L 70.058885 76.819505 
L 70.283117 83.993594 
L 70.507349 71.643239 
L 70.73158 89.079271 
L 70.955812 68.337082 
L 71.404275 69.783929 
L 71.628507 54.918407 
L 71.852738 73.744707 
L 72.07697 80.209419 
L 72.301201 79.48402 
L 72.525433 79.920502 
L 72.749665 72.163262 
L 72.973896 73.625959 
L 73.198128 83.578802 
L 73.422359 78.586272 
L 73.646591 76.727537 
L 73.870823 77.171937 
L 74.095054 77.187914 
L 74.319286 73.100017 
L 74.543517 78.057843 
L 74.767749 80.205382 
L 74.991981 72.281323 
L 75.216212 85.148343 
L 75.440444 79.456496 
L 75.664675 80.381615 
L 75.888907 81.873304 
L 76.33737 70.908768 
L 76.561602 87.933384 
L 76.785833 76.854906 
L 77.010065 78.412483 
L 77.458528 73.887779 
L 77.68276 78.272811 
L 77.906991 78.633231 
L 78.131223 75.813257 
L 78.355455 82.507142 
L 78.803918 76.862163 
L 79.028149 77.500529 
L 79.252381 80.853147 
L 79.476613 79.749583 
L 79.700844 78.018319 
L 80.149307 84.056198 
L 80.373539 77.54715 
L 80.597771 90.045238 
L 80.822002 87.188064 
L 81.046234 79.909182 
L 81.270465 82.809687 
L 81.718929 83.946465 
L 81.94316 84.768242 
L 82.167392 94.954442 
L 82.391623 78.044542 
L 82.615855 89.877379 
L 82.840087 76.428624 
L 83.28855 84.882658 
L 83.512781 79.728833 
L 83.737013 88.718586 
L 83.961245 81.585948 
L 84.185476 80.677261 
L 84.409708 99.190628 
L 84.858171 76.224154 
L 85.082403 86.397051 
L 85.306634 81.942506 
L 85.530866 81.104104 
L 85.755097 82.783455 
L 85.979329 85.591881 
L 86.203561 80.759532 
L 86.427792 83.203367 
L 86.652024 91.840029 
L 86.876255 82.722207 
L 87.100487 89.485155 
L 87.324719 81.74818 
L 87.54895 90.175364 
L 87.773182 78.821291 
L 87.997414 83.586867 
L 88.221645 83.974337 
L 88.445877 89.343149 
L 88.670108 85.074052 
L 88.89434 89.634718 
L 89.118572 83.865023 
L 89.342803 88.833988 
L 89.567035 84.694657 
L 89.791266 97.926228 
L 90.015498 82.875378 
L 90.463961 88.616815 
L 90.688193 80.907199 
L 90.912424 82.21234 
L 91.360888 82.091777 
L 91.585119 88.457974 
L 91.809351 91.212195 
L 92.033582 84.211889 
L 92.482046 91.887574 
L 92.706277 89.975873 
L 92.930509 86.285227 
L 93.15474 96.373028 
L 93.378972 86.560678 
L 93.603204 87.755491 
L 93.827435 81.030116 
L 94.051667 87.723441 
L 94.275898 87.002101 
L 94.50013 90.717255 
L 94.724362 83.834867 
L 94.948593 87.283215 
L 95.172825 87.883024 
L 95.397056 81.220466 
L 95.621288 86.422759 
L 95.84552 101.796514 
L 96.069751 84.854956 
L 96.293983 89.241341 
L 96.518214 86.891625 
L 96.742446 87.690433 
L 96.966678 79.271623 
L 97.190909 93.847128 
L 97.415141 82.257507 
L 97.639372 82.451625 
L 97.863604 99.326898 
L 98.087836 102.405168 
L 98.312067 95.545562 
L 98.76053 88.848503 
L 98.984762 90.592323 
L 99.208994 88.276911 
L 99.433225 83.713027 
L 99.657457 93.450014 
L 99.881688 85.722383 
L 100.10592 91.154991 
L 100.330152 84.247572 
L 100.554383 99.557266 
L 100.778615 89.860146 
L 101.002846 91.898706 
L 101.45131 81.151243 
L 101.899773 88.020882 
L 102.124004 90.675977 
L 102.348236 91.401954 
L 102.572468 86.778489 
L 102.796699 99.544953 
L 103.020931 88.638306 
L 103.245162 85.703576 
L 103.469394 97.375144 
L 103.693626 89.721979 
L 103.917857 110.668621 
L 104.142089 94.126703 
L 104.36632 86.279265 
L 104.590552 103.672042 
L 104.814784 97.393833 
L 105.039015 103.351807 
L 105.263247 92.76751 
L 105.487478 93.985063 
L 105.71171 86.313465 
L 105.935942 89.808088 
L 106.160173 91.012521 
L 106.384405 93.666015 
L 106.608637 85.199426 
L 106.832868 99.392443 
L 107.0571 102.564886 
L 107.281331 92.39147 
L 107.505563 89.642703 
L 107.729795 93.664163 
L 107.954026 84.954795 
L 108.178258 83.821653 
L 108.402489 95.544718 
L 108.626721 89.109104 
L 109.075184 93.245555 
L 109.299416 90.375035 
L 109.523647 86.05791 
L 109.747879 92.526066 
L 109.972111 92.098262 
L 110.196342 90.651299 
L 110.420574 100.354247 
L 110.644805 101.778573 
L 110.869037 91.514827 
L 111.093269 104.538559 
L 111.541732 84.085651 
L 111.765963 97.636523 
L 111.990195 93.064032 
L 112.214427 102.249198 
L 112.66289 92.382909 
L 112.887121 92.922142 
L 113.111353 105.237648 
L 113.335585 88.392658 
L 113.559816 94.454705 
L 113.784048 96.375466 
L 114.008279 91.618015 
L 114.232511 93.839659 
L 114.456743 87.492002 
L 114.680974 89.340096 
L 114.905206 94.642233 
L 115.129437 86.201635 
L 115.353669 88.909274 
L 115.577901 101.879439 
L 115.802132 93.537074 
L 116.026364 90.123472 
L 116.250595 104.178789 
L 116.474827 92.826107 
L 116.699059 91.557056 
L 116.92329 89.414131 
L 117.147522 108.166416 
L 117.371753 90.943177 
L 117.820217 95.43792 
L 118.044448 90.107229 
L 118.26868 91.807473 
L 118.492911 90.406967 
L 118.717143 94.41146 
L 118.941375 88.722118 
L 119.165606 94.926115 
L 119.389838 93.396413 
L 119.614069 102.997807 
L 119.838301 93.716509 
L 120.062533 89.51066 
L 120.286764 97.54209 
L 120.510996 99.112962 
L 120.735227 96.799601 
L 120.959459 89.415613 
L 121.183691 87.500052 
L 121.407922 93.939065 
L 121.632154 96.537224 
L 121.856385 89.830312 
L 122.080617 102.213301 
L 122.304849 89.521491 
L 122.52908 93.436359 
L 122.753312 93.975166 
L 122.977543 96.945877 
L 123.201775 94.815274 
L 123.426007 97.053503 
L 123.650238 96.716952 
L 123.87447 97.591596 
L 124.098701 104.94968 
L 124.322933 103.081044 
L 124.547165 103.027789 
L 124.995628 86.639442 
L 125.219859 93.213999 
L 125.444091 94.324835 
L 125.668323 94.431795 
L 125.892554 99.947972 
L 126.116786 92.444742 
L 126.341018 97.681029 
L 126.565249 114.515841 
L 126.789481 102.020312 
L 127.237944 93.615532 
L 127.462176 100.57732 
L 127.686407 95.502425 
L 127.910639 93.125184 
L 128.359102 108.846337 
L 128.583334 92.54954 
L 128.807565 97.329105 
L 129.031797 104.83429 
L 129.256028 103.690572 
L 129.704492 100.238614 
L 129.928723 91.290978 
L 130.152955 96.03443 
L 130.377186 92.493394 
L 130.601418 97.698821 
L 130.82565 88.637833 
L 131.274113 102.982089 
L 131.498344 104.213376 
L 131.722576 102.37939 
L 131.946808 93.526353 
L 132.171039 103.137782 
L 132.395271 91.97484 
L 132.619502 94.812602 
L 132.843734 94.794463 
L 133.067966 105.779181 
L 133.292197 95.581871 
L 133.516429 98.787308 
L 133.964892 92.339403 
L 134.413355 105.691235 
L 134.637587 93.022913 
L 134.861818 106.753468 
L 135.08605 90.63474 
L 135.310282 94.745304 
L 135.534513 94.994447 
L 135.758745 92.119592 
L 135.982976 107.929399 
L 136.207208 98.951708 
L 136.43144 101.223142 
L 136.655671 95.990101 
L 136.879903 95.536613 
L 137.104134 106.575163 
L 137.328366 92.923288 
L 137.552598 106.056787 
L 138.001061 91.434977 
L 138.225292 101.504245 
L 138.449524 96.193046 
L 138.673756 105.190965 
L 138.897987 91.916951 
L 139.122219 97.772135 
L 139.34645 108.928517 
L 139.570682 98.21122 
L 139.794914 93.289528 
L 140.019145 99.004407 
L 140.243377 94.087844 
L 140.467608 98.622186 
L 140.69184 96.105432 
L 140.916072 95.879629 
L 141.140303 95.849374 
L 141.364535 97.85195 
L 141.588766 95.399739 
L 141.812998 107.822355 
L 142.03723 93.955793 
L 142.485693 109.615765 
L 142.934156 104.612366 
L 143.158388 99.056159 
L 143.382619 98.535155 
L 143.606851 100.888905 
L 143.831082 95.072482 
L 144.055314 95.484229 
L 144.279546 100.637755 
L 144.503777 94.393426 
L 144.728009 96.36068 
L 144.952241 95.87385 
L 145.176472 97.633579 
L 145.400704 93.778434 
L 145.849167 99.609339 
L 146.073399 108.420168 
L 146.29763 100.464142 
L 146.521862 99.080358 
L 146.746093 99.776926 
L 147.194557 107.571955 
L 147.418788 101.038074 
L 147.64302 111.198701 
L 147.867251 94.47634 
L 148.091483 94.843119 
L 148.315715 95.67958 
L 148.764178 104.889259 
L 149.212641 103.477317 
L 149.436873 97.006782 
L 149.661104 96.796956 
L 149.885336 97.160656 
L 150.109567 96.796387 
L 150.333799 93.93649 
L 150.782262 110.958721 
L 151.006494 95.19075 
L 151.230725 97.112387 
L 151.454957 95.964548 
L 151.679189 103.266183 
L 151.90342 104.811243 
L 152.127652 95.907553 
L 152.351883 99.205743 
L 152.576115 95.717599 
L 152.800347 97.558986 
L 153.024578 101.431151 
L 153.24881 98.490893 
L 153.473041 106.424572 
L 153.697273 97.273981 
L 153.921505 99.223516 
L 154.145736 96.802727 
L 154.369968 98.492817 
L 154.594199 109.195884 
L 154.818431 104.128461 
L 155.042663 102.060708 
L 155.266894 104.708775 
L 155.491126 109.118243 
L 155.715357 98.011841 
L 155.939589 103.809929 
L 156.163821 100.456164 
L 156.388052 100.307098 
L 156.612284 102.412206 
L 156.836515 109.03754 
L 157.060747 102.226799 
L 157.284979 111.50153 
L 157.733442 97.704294 
L 158.181905 108.217998 
L 158.406137 104.974852 
L 158.8546 96.821881 
L 159.303063 102.695167 
L 159.527295 95.943277 
L 159.751526 106.720939 
L 159.975758 106.89251 
L 160.199989 104.048689 
L 160.424221 104.507976 
L 160.648453 95.756543 
L 161.096916 104.179706 
L 161.321147 99.524413 
L 161.545379 101.933893 
L 161.769611 102.77955 
L 161.993842 100.103868 
L 162.218074 98.765924 
L 162.666537 107.052896 
L 162.890769 96.029141 
L 163.115 112.570153 
L 163.339232 111.595292 
L 163.787695 99.581176 
L 164.011927 100.682737 
L 164.236158 107.873889 
L 164.684622 99.019026 
L 164.908853 100.356404 
L 165.133085 108.867072 
L 165.581548 98.157537 
L 165.80578 102.742187 
L 166.030011 102.553458 
L 166.254243 103.853615 
L 166.478474 99.023069 
L 166.702706 106.374676 
L 166.926938 107.939714 
L 167.151169 111.169742 
L 167.599632 102.567902 
L 167.823864 102.524139 
L 168.272327 111.708213 
L 168.72079 96.80903 
L 168.945022 104.579754 
L 169.169254 107.965779 
L 169.393485 100.568538 
L 169.617717 97.297621 
L 169.841948 99.596124 
L 170.06618 99.66176 
L 170.290412 109.736545 
L 170.514643 109.217038 
L 170.738875 111.920761 
L 170.963106 112.13219 
L 171.187338 99.727831 
L 171.41157 106.397494 
L 171.860033 95.189785 
L 172.308496 110.115687 
L 172.532728 104.14015 
L 172.756959 104.975173 
L 172.981191 112.999861 
L 173.205422 100.321011 
L 173.653886 97.476116 
L 173.878117 108.553187 
L 174.32658 101.028689 
L 174.550812 102.737597 
L 174.775044 102.103546 
L 174.999275 103.741878 
L 175.223507 103.244776 
L 175.447738 101.245758 
L 175.67197 103.196701 
L 175.896202 96.918306 
L 176.120433 109.711622 
L 176.344665 100.761616 
L 176.568896 106.981823 
L 176.793128 104.756388 
L 177.01736 100.629749 
L 177.241591 103.637834 
L 177.465823 111.930484 
L 177.690054 104.74917 
L 177.914286 106.029761 
L 178.138518 116.200561 
L 178.362749 111.410687 
L 178.586981 100.804308 
L 178.811212 116.006618 
L 179.035444 106.176183 
L 179.259676 113.169562 
L 179.483907 104.873945 
L 179.708139 104.847192 
L 179.93237 99.087309 
L 180.156602 101.612364 
L 180.380834 107.024627 
L 180.605065 101.884644 
L 180.829297 102.499883 
L 181.053528 101.125442 
L 181.27776 105.072722 
L 181.501992 97.2953 
L 181.726223 106.080508 
L 181.950455 99.523128 
L 182.174687 104.5211 
L 182.398918 105.99929 
L 182.62315 96.975092 
L 182.847381 105.883151 
L 183.071613 100.13821 
L 183.520076 114.213578 
L 183.744308 113.306153 
L 184.192771 101.65198 
L 184.417003 117.689158 
L 184.641234 103.632942 
L 184.865466 103.921086 
L 185.089697 96.225068 
L 185.313929 108.564795 
L 185.538161 107.761155 
L 185.762392 106.018566 
L 185.986624 102.909651 
L 186.210855 107.115184 
L 186.435087 98.283331 
L 186.88355 108.619415 
L 187.107782 99.820264 
L 187.332013 103.579993 
L 187.556245 104.777764 
L 187.780477 117.911926 
L 188.22894 103.914565 
L 188.677403 108.092731 
L 188.901635 102.664867 
L 189.125866 100.88882 
L 189.350098 100.6993 
L 189.574329 100.282267 
L 189.798561 121.770383 
L 190.022793 101.79889 
L 190.247024 102.976865 
L 190.471256 102.581003 
L 190.695487 102.662789 
L 190.919719 103.760074 
L 191.368182 101.249895 
L 191.592414 101.963722 
L 192.040877 108.07858 
L 192.265109 115.178665 
L 192.48934 103.324088 
L 192.713572 111.351615 
L 192.937803 110.794383 
L 193.162035 100.796651 
L 193.386267 112.627794 
L 193.610498 103.589644 
L 193.83473 104.170228 
L 194.058961 109.861695 
L 194.283193 106.86529 
L 194.507425 107.509932 
L 194.731656 102.958278 
L 194.955888 107.121637 
L 195.180119 102.163912 
L 195.404351 103.67524 
L 195.628583 107.452321 
L 195.852814 105.557625 
L 195.852814 105.557625 
" clip-path="url(#pe8cde0c34e)" style="fill: none; stroke: #1e90ff; stroke-width: 0.8; stroke-linecap: square"/>
   </g>
   <g id="line2d_10">
    <path d="M 61.762316 70.593457 
L 62.210779 66.661408 
L 62.435011 67.320293 
L 62.659242 69.534115 
L 62.883474 69.642015 
L 63.107706 64.043369 
L 63.331937 75.222212 
L 63.556169 67.29473 
L 63.7804 71.389651 
L 64.004632 65.312814 
L 64.228864 71.683581 
L 64.453095 66.41341 
L 64.677327 67.283404 
L 64.901558 75.700545 
L 65.12579 68.217192 
L 65.350022 72.040575 
L 65.574253 68.123097 
L 66.022716 78.482537 
L 66.246948 66.235598 
L 66.47118 72.591877 
L 66.695411 73.428946 
L 66.919643 67.086077 
L 67.143874 77.457003 
L 67.368106 78.211938 
L 67.592338 89.098462 
L 67.816569 73.217004 
L 68.040801 76.83645 
L 68.265032 77.018962 
L 68.489264 72.772737 
L 68.713496 75.02129 
L 68.937727 69.234058 
L 69.386191 76.301723 
L 69.610422 69.781781 
L 69.834654 77.905097 
L 70.058885 77.47851 
L 70.283117 82.136508 
L 70.507349 71.559017 
L 70.73158 88.383178 
L 70.955812 69.106628 
L 71.404275 70.968407 
L 71.628507 55.832086 
L 71.852738 74.03531 
L 72.07697 80.214069 
L 72.301201 79.697967 
L 72.525433 81.964932 
L 72.749665 73.729838 
L 72.973896 74.916055 
L 73.198128 87.077083 
L 73.422359 79.371318 
L 73.646591 79.135448 
L 73.870823 78.56181 
L 74.095054 77.491616 
L 74.319286 73.415253 
L 74.543517 80.493289 
L 74.767749 81.53529 
L 74.991981 73.95661 
L 75.216212 86.078441 
L 75.440444 81.958808 
L 75.664675 82.81926 
L 75.888907 85.31439 
L 76.33737 72.900615 
L 76.561602 86.588589 
L 76.785833 79.960589 
L 77.010065 80.664161 
L 77.234297 77.048351 
L 77.458528 77.290607 
L 77.68276 81.57316 
L 77.906991 81.270617 
L 78.131223 77.502365 
L 78.355455 85.922906 
L 78.579686 81.249843 
L 78.803918 79.088864 
L 79.476613 83.644939 
L 79.700844 82.409212 
L 79.925076 83.264306 
L 80.149307 87.625152 
L 80.373539 79.675163 
L 80.597771 95.729306 
L 80.822002 97.434597 
L 81.046234 83.518632 
L 81.494697 86.239633 
L 81.718929 91.422967 
L 81.94316 87.397311 
L 82.167392 97.578973 
L 82.391623 81.527328 
L 82.615855 89.89931 
L 82.840087 80.581338 
L 83.064318 89.136382 
L 83.28855 87.82404 
L 83.512781 83.805169 
L 83.737013 90.752355 
L 83.961245 85.681866 
L 84.185476 84.73487 
L 84.409708 93.251438 
L 84.858171 81.782595 
L 85.082403 88.024247 
L 85.306634 84.948614 
L 85.530866 85.270022 
L 85.755097 87.816169 
L 85.979329 92.426821 
L 86.203561 86.066676 
L 86.427792 88.062151 
L 86.652024 98.96332 
L 86.876255 88.762157 
L 87.100487 106.846449 
L 87.324719 86.325512 
L 87.54895 103.949102 
L 87.773182 85.838973 
L 87.997414 91.581534 
L 88.221645 87.354355 
L 88.445877 88.226644 
L 88.670108 93.716457 
L 88.89434 92.30255 
L 89.118572 91.604423 
L 89.342803 97.061685 
L 89.567035 90.341722 
L 89.791266 100.985642 
L 90.015498 92.539169 
L 90.23973 91.089694 
L 90.463961 98.766747 
L 90.688193 88.025421 
L 90.912424 88.093602 
L 91.360888 92.205532 
L 91.585119 99.949022 
L 91.809351 92.154347 
L 92.033582 94.569302 
L 92.257814 98.850765 
L 92.482046 94.472937 
L 92.706277 95.180732 
L 92.930509 98.091621 
L 93.15474 98.306467 
L 93.378972 106.909574 
L 93.603204 93.670624 
L 93.827435 88.33156 
L 94.051667 91.575696 
L 94.275898 89.552126 
L 94.50013 113.879429 
L 94.724362 93.255767 
L 94.948593 91.915506 
L 95.172825 94.029795 
L 95.397056 89.709048 
L 95.621288 96.991453 
L 95.84552 97.463928 
L 96.069751 98.695642 
L 96.293983 94.956315 
L 96.518214 93.142288 
L 96.742446 96.046611 
L 96.966678 91.347513 
L 97.190909 99.583984 
L 97.639372 94.186837 
L 98.087836 99.189533 
L 98.312067 97.939325 
L 98.536299 101.964291 
L 98.76053 95.601169 
L 98.984762 100.110122 
L 99.208994 94.13212 
L 99.657457 103.850199 
L 99.881688 104.454938 
L 100.10592 93.587554 
L 100.330152 98.009748 
L 100.554383 97.926473 
L 100.778615 96.064344 
L 101.002846 100.852858 
L 101.227078 93.5782 
L 101.45131 103.055838 
L 101.675541 95.063264 
L 101.899773 100.389696 
L 102.124004 97.873398 
L 102.348236 99.87261 
L 102.572468 99.738481 
L 102.796699 96.276867 
L 103.020931 96.632075 
L 103.693626 104.473632 
L 103.917857 101.230347 
L 104.142089 101.841592 
L 104.36632 95.328293 
L 104.590552 104.280514 
L 104.814784 98.363357 
L 105.039015 101.473541 
L 105.263247 100.54416 
L 105.487478 98.926983 
L 105.71171 101.397423 
L 105.935942 96.47948 
L 106.160173 103.106865 
L 106.384405 101.494915 
L 106.608637 96.387398 
L 106.832868 98.541936 
L 107.0571 104.40418 
L 107.281331 101.129353 
L 107.505563 88.88555 
L 107.954026 101.79494 
L 108.178258 92.506354 
L 108.402489 99.56002 
L 108.626721 97.321305 
L 108.850953 98.513474 
L 109.075184 103.667344 
L 109.523647 94.210795 
L 109.747879 96.055789 
L 109.972111 100.366909 
L 110.196342 94.111621 
L 110.420574 99.235498 
L 110.644805 100.28171 
L 110.869037 96.819608 
L 111.093269 106.463112 
L 111.3175 105.486024 
L 111.541732 98.231035 
L 111.765963 106.434949 
L 111.990195 104.070035 
L 112.214427 94.881197 
L 112.438658 98.847584 
L 112.66289 97.731504 
L 112.887121 108.296782 
L 113.111353 94.071714 
L 113.559816 106.9 
L 114.008279 94.914222 
L 114.232511 104.363293 
L 114.456743 100.688649 
L 114.680974 103.305548 
L 114.905206 93.349976 
L 115.129437 99.115974 
L 115.353669 108.570107 
L 115.577901 98.339371 
L 115.802132 106.83939 
L 116.026364 98.497643 
L 116.250595 100.334334 
L 116.474827 97.700799 
L 116.699059 98.542785 
L 116.92329 103.838998 
L 117.147522 97.02288 
L 117.371753 115.571076 
L 117.595985 79.60054 
L 117.820217 104.46053 
L 118.044448 93.063763 
L 118.492911 107.92109 
L 118.717143 104.350121 
L 118.941375 107.131102 
L 119.165606 100.966556 
L 119.389838 104.510743 
L 119.614069 104.11259 
L 119.838301 101.608006 
L 120.062533 94.374398 
L 120.286764 99.641693 
L 120.510996 93.301673 
L 120.735227 101.433885 
L 120.959459 100.839774 
L 121.183691 93.734388 
L 121.407922 97.68727 
L 121.632154 105.444972 
L 121.856385 105.326437 
L 122.080617 106.350399 
L 122.304849 95.595203 
L 122.52908 100.345265 
L 122.753312 109.888948 
L 122.977543 99.454717 
L 123.201775 114.649118 
L 123.426007 100.437545 
L 123.650238 99.79419 
L 123.87447 94.712836 
L 124.322933 113.125464 
L 124.547165 99.620032 
L 124.771396 105.490896 
L 124.995628 101.594982 
L 125.219859 106.346638 
L 125.444091 107.109493 
L 125.668323 101.144201 
L 126.116786 110.62599 
L 126.341018 99.412022 
L 126.565249 94.646053 
L 127.013712 124.407273 
L 127.237944 103.414981 
L 127.462176 98.775174 
L 127.686407 86.802359 
L 127.910639 103.658876 
L 128.13487 100.935773 
L 128.359102 115.111828 
L 128.583334 112.03335 
L 128.807565 98.886953 
L 129.031797 100.685231 
L 129.256028 95.993827 
L 129.48026 102.432437 
L 129.928723 106.838035 
L 130.601418 95.08175 
L 131.049881 108.105093 
L 131.274113 101.546304 
L 131.498344 109.609878 
L 131.722576 100.837712 
L 131.946808 107.100383 
L 132.395271 92.421613 
L 132.619502 104.970163 
L 132.843734 94.764534 
L 133.067966 96.841361 
L 133.292197 97.021094 
L 133.516429 95.829096 
L 133.74066 105.191818 
L 133.964892 106.428795 
L 134.189124 97.405405 
L 134.413355 102.527867 
L 134.637587 92.361404 
L 134.861818 107.561842 
L 135.08605 97.696599 
L 135.310282 107.164891 
L 135.534513 95.940266 
L 135.758745 106.042205 
L 135.982976 106.647867 
L 136.207208 94.271236 
L 136.43144 94.386608 
L 136.879903 107.407946 
L 137.104134 108.592361 
L 137.328366 101.048629 
L 137.552598 99.960186 
L 137.776829 107.608244 
L 138.225292 112.700169 
L 138.449524 98.153918 
L 138.673756 96.013568 
L 138.897987 97.359448 
L 139.122219 107.325354 
L 139.34645 96.416736 
L 139.794914 102.370293 
L 140.019145 95.496329 
L 140.243377 98.716668 
L 140.467608 109.723261 
L 140.69184 101.803253 
L 141.140303 96.962175 
L 141.588766 100.367281 
L 141.812998 96.954037 
L 142.03723 102.409455 
L 142.261461 98.139421 
L 142.485693 100.206424 
L 142.709924 124.370774 
L 142.934156 104.14223 
L 143.382619 100.36204 
L 143.606851 100.909875 
L 143.831082 99.331603 
L 144.055314 99.308481 
L 144.279546 98.866796 
L 144.503777 96.439952 
L 144.728009 100.799578 
L 144.952241 114.765971 
L 145.176472 98.044368 
L 145.400704 101.679084 
L 145.624935 97.447088 
L 145.849167 99.315719 
L 146.073399 97.065171 
L 146.29763 99.86959 
L 146.746093 96.898623 
L 146.970325 100.704809 
L 147.194557 93.342035 
L 147.418788 95.861817 
L 147.64302 101.845024 
L 147.867251 98.394564 
L 148.091483 98.435044 
L 148.315715 108.674386 
L 148.539946 96.259492 
L 148.764178 97.181962 
L 148.988409 107.193991 
L 149.885336 92.250524 
L 150.109567 97.774929 
L 150.333799 93.136799 
L 150.558031 104.2821 
L 150.782262 97.759755 
L 151.006494 100.486618 
L 151.230725 97.856555 
L 151.454957 91.199523 
L 151.679189 102.926882 
L 151.90342 106.425899 
L 152.127652 94.599349 
L 152.351883 92.159856 
L 152.800347 96.146978 
L 153.024578 92.491512 
L 153.24881 94.933042 
L 153.697273 101.986056 
L 153.921505 100.512933 
L 154.145736 96.317195 
L 154.369968 101.024639 
L 154.594199 97.44017 
L 154.818431 96.405771 
L 155.042663 91.492873 
L 155.266894 94.945921 
L 155.491126 101.053222 
L 155.715357 100.659645 
L 155.939589 101.873984 
L 156.163821 91.422817 
L 156.388052 95.123379 
L 156.612284 90.042928 
L 156.836515 99.257704 
L 157.060747 99.574751 
L 157.284979 90.876912 
L 157.733442 101.286493 
L 157.957673 92.669274 
L 158.181905 105.818828 
L 158.406137 94.677336 
L 158.8546 91.915918 
L 159.078831 99.531663 
L 159.303063 93.530647 
L 159.527295 92.136555 
L 159.751526 101.089483 
L 160.199989 94.107902 
L 160.648453 97.961565 
L 160.872684 91.160951 
L 161.096916 94.161861 
L 161.321147 94.384067 
L 161.545379 95.434812 
L 161.769611 94.320678 
L 162.218074 100.437439 
L 162.442305 99.383756 
L 162.666537 97.280583 
L 162.890769 99.10973 
L 163.115 103.625487 
L 163.339232 101.744721 
L 163.563464 86.543282 
L 163.787695 102.105092 
L 164.011927 92.262238 
L 164.236158 94.647279 
L 164.46039 102.692101 
L 164.684622 98.949051 
L 164.908853 93.113564 
L 165.357316 102.174015 
L 165.581548 92.158188 
L 165.80578 102.990178 
L 166.030011 104.115222 
L 166.254243 90.497085 
L 166.478474 100.645253 
L 166.702706 99.961206 
L 166.926938 95.204136 
L 167.151169 100.599979 
L 167.823864 96.402685 
L 168.048096 101.571801 
L 168.272327 95.945506 
L 168.496559 100.992388 
L 168.72079 102.374266 
L 168.945022 96.675526 
L 169.169254 105.900801 
L 169.393485 106.799813 
L 169.617717 97.199616 
L 170.290412 110.122324 
L 170.514643 99.506944 
L 170.738875 98.643535 
L 171.187338 103.395984 
L 171.41157 96.705053 
L 171.635801 101.379508 
L 171.860033 96.253928 
L 172.308496 109.128723 
L 172.532728 99.997672 
L 172.756959 103.094514 
L 173.205422 99.721302 
L 173.429654 98.716034 
L 173.653886 83.862217 
L 173.878117 105.540168 
L 174.32658 99.683683 
L 174.550812 99.133699 
L 174.775044 107.544076 
L 174.999275 96.260578 
L 175.447738 111.133243 
L 175.67197 97.007093 
L 175.896202 96.334582 
L 176.120433 101.47957 
L 176.344665 93.874326 
L 176.568896 92.220742 
L 176.793128 98.867079 
L 177.01736 96.203313 
L 177.241591 91.57969 
L 177.465823 92.050452 
L 177.690054 100.81392 
L 177.914286 96.172971 
L 178.138518 97.147896 
L 178.362749 92.917247 
L 178.586981 94.303998 
L 178.811212 102.423517 
L 179.035444 103.331379 
L 179.259676 103.460766 
L 179.483907 96.915503 
L 179.708139 95.20339 
L 179.93237 96.199366 
L 180.156602 100.584976 
L 180.380834 97.20972 
L 180.605065 101.627444 
L 180.829297 99.495436 
L 181.053528 93.620982 
L 181.27776 100.500117 
L 181.501992 94.660836 
L 181.726223 103.068536 
L 181.950455 103.333981 
L 182.174687 97.09028 
L 182.398918 93.948107 
L 182.847381 107.227356 
L 183.071613 92.824449 
L 183.295845 107.133438 
L 183.744308 85.650546 
L 184.192771 112.400602 
L 184.417003 102.843501 
L 184.641234 100.851142 
L 184.865466 93.669274 
L 185.089697 98.683616 
L 185.313929 97.980149 
L 185.538161 96.309259 
L 185.986624 102.189824 
L 186.210855 97.00866 
L 186.435087 95.662821 
L 186.659319 100.158543 
L 186.88355 98.69126 
L 187.107782 104.957503 
L 187.332013 97.081049 
L 187.556245 106.634543 
L 187.780477 97.25048 
L 188.004708 97.290447 
L 188.22894 104.086456 
L 188.453171 95.066751 
L 188.677403 94.254802 
L 188.901635 102.818199 
L 189.125866 99.734655 
L 189.350098 92.249401 
L 189.574329 93.431235 
L 190.022793 96.894556 
L 190.247024 93.625312 
L 190.695487 99.671714 
L 190.919719 94.077101 
L 191.143951 109.928122 
L 191.592414 93.069226 
L 191.816645 95.655155 
L 192.040877 96.729008 
L 192.265109 92.694867 
L 192.48934 95.889665 
L 192.713572 116.471961 
L 193.162035 92.92795 
L 193.386267 99.307986 
L 193.610498 111.275435 
L 193.83473 97.907764 
L 194.058961 102.521121 
L 194.283193 91.493825 
L 194.507425 100.684768 
L 194.955888 96.168663 
L 195.180119 111.235259 
L 195.404351 94.729464 
L 195.628583 96.91428 
L 195.852814 96.835475 
L 195.852814 96.835475 
" clip-path="url(#pe8cde0c34e)" style="fill: none; stroke: #ff0000; stroke-width: 0.8; stroke-linecap: square"/>
   </g>
   <g id="patch_3">
    <path d="M 59.52 129.12 
L 59.52 25.44 
" style="fill: none; stroke: #000000; stroke-width: 0.8; stroke-linejoin: miter; stroke-linecap: square"/>
   </g>
   <g id="patch_4">
    <path d="M 198.319362 129.12 
L 198.319362 25.44 
" style="fill: none; stroke: #000000; stroke-width: 0.8; stroke-linejoin: miter; stroke-linecap: square"/>
   </g>
   <g id="patch_5">
    <path d="M 59.52 129.12 
L 198.319362 129.12 
" style="fill: none; stroke: #000000; stroke-width: 0.8; stroke-linejoin: miter; stroke-linecap: square"/>
   </g>
   <g id="patch_6">
    <path d="M 59.52 25.44 
L 198.319362 25.44 
" style="fill: none; stroke: #000000; stroke-width: 0.8; stroke-linejoin: miter; stroke-linecap: square"/>
   </g>
   <g id="text_10">
    <!-- Frequency Domain Plot -->
    <g transform="translate(59.520306 19.44) scale(0.12 -0.12)">
     <defs>
      <path id="DejaVuSans-44" d="M 1259 4147 
L 1259 519 
L 2022 519 
Q 2988 519 3436 956 
Q 3884 1394 3884 2338 
Q 3884 3275 3436 3711 
Q 2988 4147 2022 4147 
L 1259 4147 
z
M 628 4666 
L 1925 4666 
Q 3281 4666 3915 4102 
Q 4550 3538 4550 2338 
Q 4550 1131 3912 565 
Q 3275 0 1925 0 
L 628 0 
L 628 4666 
z
" transform="scale(0.015625)"/>
      <path id="DejaVuSans-6d" d="M 3328 2828 
Q 3544 3216 3844 3400 
Q 4144 3584 4550 3584 
Q 5097 3584 5394 3201 
Q 5691 2819 5691 2113 
L 5691 0 
L 5113 0 
L 5113 2094 
Q 5113 2597 4934 2840 
Q 4756 3084 4391 3084 
Q 3944 3084 3684 2787 
Q 3425 2491 3425 1978 
L 3425 0 
L 2847 0 
L 2847 2094 
Q 2847 2600 2669 2842 
Q 2491 3084 2119 3084 
Q 1678 3084 1418 2786 
Q 1159 2488 1159 1978 
L 1159 0 
L 581 0 
L 581 3500 
L 1159 3500 
L 1159 2956 
Q 1356 3278 1631 3431 
Q 1906 3584 2284 3584 
Q 2666 3584 2933 3390 
Q 3200 3197 3328 2828 
z
" transform="scale(0.015625)"/>
      <path id="DejaVuSans-61" d="M 2194 1759 
Q 1497 1759 1228 1600 
Q 959 1441 959 1056 
Q 959 750 1161 570 
Q 1363 391 1709 391 
Q 2188 391 2477 730 
Q 2766 1069 2766 1631 
L 2766 1759 
L 2194 1759 
z
M 3341 1997 
L 3341 0 
L 2766 0 
L 2766 531 
Q 2569 213 2275 61 
Q 1981 -91 1556 -91 
Q 1019 -91 701 211 
Q 384 513 384 1019 
Q 384 1609 779 1909 
Q 1175 2209 1959 2209 
L 2766 2209 
L 2766 2266 
Q 2766 2663 2505 2880 
Q 2244 3097 1772 3097 
Q 1472 3097 1187 3025 
Q 903 2953 641 2809 
L 641 3341 
Q 956 3463 1253 3523 
Q 1550 3584 1831 3584 
Q 2591 3584 2966 3190 
Q 3341 2797 3341 1997 
z
" transform="scale(0.015625)"/>
      <path id="DejaVuSans-69" d="M 603 3500 
L 1178 3500 
L 1178 0 
L 603 0 
L 603 3500 
z
M 603 4863 
L 1178 4863 
L 1178 4134 
L 603 4134 
L 603 4863 
z
" transform="scale(0.015625)"/>
      <path id="DejaVuSans-50" d="M 1259 4147 
L 1259 2394 
L 2053 2394 
Q 2494 2394 2734 2622 
Q 2975 2850 2975 3272 
Q 2975 3691 2734 3919 
Q 2494 4147 2053 4147 
L 1259 4147 
z
M 628 4666 
L 2053 4666 
Q 2838 4666 3239 4311 
Q 3641 3956 3641 3272 
Q 3641 2581 3239 2228 
Q 2838 1875 2053 1875 
L 1259 1875 
L 1259 0 
L 628 0 
L 628 4666 
z
" transform="scale(0.015625)"/>
      <path id="DejaVuSans-6c" d="M 603 4863 
L 1178 4863 
L 1178 0 
L 603 0 
L 603 4863 
z
" transform="scale(0.015625)"/>
      <path id="DejaVuSans-74" d="M 1172 4494 
L 1172 3500 
L 2356 3500 
L 2356 3053 
L 1172 3053 
L 1172 1153 
Q 1172 725 1289 603 
Q 1406 481 1766 481 
L 2356 481 
L 2356 0 
L 1766 0 
Q 1100 0 847 248 
Q 594 497 594 1153 
L 594 3053 
L 172 3053 
L 172 3500 
L 594 3500 
L 594 4494 
L 1172 4494 
z
" transform="scale(0.015625)"/>
     </defs>
     <use xlink:href="#DejaVuSans-46"/>
     <use xlink:href="#DejaVuSans-72" x="50.269531"/>
     <use xlink:href="#DejaVuSans-65" x="89.132812"/>
     <use xlink:href="#DejaVuSans-71" x="150.65625"/>
     <use xlink:href="#DejaVuSans-75" x="214.132812"/>
     <use xlink:href="#DejaVuSans-65" x="277.511719"/>
     <use xlink:href="#DejaVuSans-6e" x="339.035156"/>
     <use xlink:href="#DejaVuSans-63" x="402.414062"/>
     <use xlink:href="#DejaVuSans-79" x="457.394531"/>
     <use xlink:href="#DejaVuSans-20" x="516.574219"/>
     <use xlink:href="#DejaVuSans-44" x="548.361328"/>
     <use xlink:href="#DejaVuSans-6f" x="625.363281"/>
     <use xlink:href="#DejaVuSans-6d" x="686.544922"/>
     <use xlink:href="#DejaVuSans-61" x="783.957031"/>
     <use xlink:href="#DejaVuSans-69" x="845.236328"/>
     <use xlink:href="#DejaVuSans-6e" x="873.019531"/>
     <use xlink:href="#DejaVuSans-20" x="936.398438"/>
     <use xlink:href="#DejaVuSans-50" x="968.185547"/>
     <use xlink:href="#DejaVuSans-6c" x="1028.488281"/>
     <use xlink:href="#DejaVuSans-6f" x="1056.271484"/>
     <use xlink:href="#DejaVuSans-74" x="1117.453125"/>
    </g>
   </g>
   <g id="legend_1">
    <g id="patch_7">
     <path d="M 19.980191 158.724 
L 50.848316 158.724 
Q 51.448316 158.724 51.448316 158.124 
L 51.448316 145.213687 
Q 51.448316 144.613687 50.848316 144.613687 
L 19.980191 144.613687 
Q 19.380191 144.613687 19.380191 145.213687 
L 19.380191 158.124 
Q 19.380191 158.724 19.980191 158.724 
z
" style="fill: #ffffff; opacity: 0.8; stroke: #cccccc; stroke-linejoin: miter"/>
    </g>
    <g id="line2d_11">
     <path d="M 20.580191 147.043219 
L 23.580191 147.043219 
L 26.580191 147.043219 
" style="fill: none; stroke: #808080; stroke-width: 0.8; stroke-linecap: square"/>
    </g>
    <g id="text_11">
     <!-- Contaminated -->
     <g transform="translate(28.980191 148.093219) scale(0.03 -0.03)">
      <defs>
       <path id="DejaVuSans-43" d="M 4122 4306 
L 4122 3641 
Q 3803 3938 3442 4084 
Q 3081 4231 2675 4231 
Q 1875 4231 1450 3742 
Q 1025 3253 1025 2328 
Q 1025 1406 1450 917 
Q 1875 428 2675 428 
Q 3081 428 3442 575 
Q 3803 722 4122 1019 
L 4122 359 
Q 3791 134 3420 21 
Q 3050 -91 2638 -91 
Q 1578 -91 968 557 
Q 359 1206 359 2328 
Q 359 3453 968 4101 
Q 1578 4750 2638 4750 
Q 3056 4750 3426 4639 
Q 3797 4528 4122 4306 
z
" transform="scale(0.015625)"/>
      </defs>
      <use xlink:href="#DejaVuSans-43"/>
      <use xlink:href="#DejaVuSans-6f" x="69.824219"/>
      <use xlink:href="#DejaVuSans-6e" x="131.005859"/>
      <use xlink:href="#DejaVuSans-74" x="194.384766"/>
      <use xlink:href="#DejaVuSans-61" x="233.59375"/>
      <use xlink:href="#DejaVuSans-6d" x="294.873047"/>
      <use xlink:href="#DejaVuSans-69" x="392.285156"/>
      <use xlink:href="#DejaVuSans-6e" x="420.068359"/>
      <use xlink:href="#DejaVuSans-61" x="483.447266"/>
      <use xlink:href="#DejaVuSans-74" x="544.726562"/>
      <use xlink:href="#DejaVuSans-65" x="583.935547"/>
      <use xlink:href="#DejaVuSans-64" x="645.458984"/>
     </g>
    </g>
    <g id="line2d_12">
     <path d="M 20.580191 151.446656 
L 23.580191 151.446656 
L 26.580191 151.446656 
" style="fill: none; stroke: #1e90ff; stroke-width: 0.8; stroke-linecap: square"/>
    </g>
    <g id="text_12">
     <!-- Clean -->
     <g transform="translate(28.980191 152.496656) scale(0.03 -0.03)">
      <use xlink:href="#DejaVuSans-43"/>
      <use xlink:href="#DejaVuSans-6c" x="69.824219"/>
      <use xlink:href="#DejaVuSans-65" x="97.607422"/>
      <use xlink:href="#DejaVuSans-61" x="159.130859"/>
      <use xlink:href="#DejaVuSans-6e" x="220.410156"/>
     </g>
    </g>
    <g id="line2d_13">
     <path d="M 20.580191 155.850094 
L 23.580191 155.850094 
L 26.580191 155.850094 
" style="fill: none; stroke: #ff0000; stroke-width: 0.8; stroke-linecap: square"/>
    </g>
    <g id="text_13">
     <!-- SACed -->
     <g transform="translate(28.980191 156.900094) scale(0.03 -0.03)">
      <defs>
       <path id="DejaVuSans-53" d="M 3425 4513 
L 3425 3897 
Q 3066 4069 2747 4153 
Q 2428 4238 2131 4238 
Q 1616 4238 1336 4038 
Q 1056 3838 1056 3469 
Q 1056 3159 1242 3001 
Q 1428 2844 1947 2747 
L 2328 2669 
Q 3034 2534 3370 2195 
Q 3706 1856 3706 1288 
Q 3706 609 3251 259 
Q 2797 -91 1919 -91 
Q 1588 -91 1214 -16 
Q 841 59 441 206 
L 441 856 
Q 825 641 1194 531 
Q 1563 422 1919 422 
Q 2459 422 2753 634 
Q 3047 847 3047 1241 
Q 3047 1584 2836 1778 
Q 2625 1972 2144 2069 
L 1759 2144 
Q 1053 2284 737 2584 
Q 422 2884 422 3419 
Q 422 4038 858 4394 
Q 1294 4750 2059 4750 
Q 2388 4750 2728 4690 
Q 3069 4631 3425 4513 
z
" transform="scale(0.015625)"/>
       <path id="DejaVuSans-41" d="M 2188 4044 
L 1331 1722 
L 3047 1722 
L 2188 4044 
z
M 1831 4666 
L 2547 4666 
L 4325 0 
L 3669 0 
L 3244 1197 
L 1141 1197 
L 716 0 
L 50 0 
L 1831 4666 
z
" transform="scale(0.015625)"/>
      </defs>
      <use xlink:href="#DejaVuSans-53"/>
      <use xlink:href="#DejaVuSans-41" x="65.351562"/>
      <use xlink:href="#DejaVuSans-43" x="132.009766"/>
      <use xlink:href="#DejaVuSans-65" x="201.833984"/>
      <use xlink:href="#DejaVuSans-64" x="263.357422"/>
     </g>
    </g>
   </g>
  </g>
 </g>
 <defs>
  <clipPath id="pe8cde0c34e">
   <rect x="59.52" y="25.44" width="138.799362" height="103.68"/>
  </clipPath>
 </defs>
</svg>
