<?xml version="1.0" encoding="utf-8" standalone="no"?>
<!DOCTYPE svg PUBLIC "-//W3C//DTD SVG 1.1//EN"
  "http://www.w3.org/Graphics/SVG/1.1/DTD/svg11.dtd">
<svg xmlns:xlink="http://www.w3.org/1999/xlink" width="216pt" height="180pt" viewBox="0 0 216 180" xmlns="http://www.w3.org/2000/svg" version="1.1">
 <metadata>
  <rdf:RDF xmlns:dc="http://purl.org/dc/elements/1.1/" xmlns:cc="http://creativecommons.org/ns#" xmlns:rdf="http://www.w3.org/1999/02/22-rdf-syntax-ns#">
   <cc:Work>
    <dc:type rdf:resource="http://purl.org/dc/dcmitype/StillImage"/>
    <dc:date>2024-08-24T23:20:06.065189</dc:date>
    <dc:format>image/svg+xml</dc:format>
    <dc:creator>
     <cc:Agent>
      <dc:title>Matplotlib v3.9.1, https://matplotlib.org/</dc:title>
     </cc:Agent>
    </dc:creator>
   </cc:Work>
  </rdf:RDF>
 </metadata>
 <defs>
  <style type="text/css">*{stroke-linejoin: round; stroke-linecap: butt}</style>
 </defs>
 <g id="figure_1">
  <g id="patch_1">
   <path d="M 0 180 
L 216 180 
L 216 0 
L 0 0 
z
" style="fill: #ffffff"/>
  </g>
  <g id="axes_1">
   <g id="patch_2">
    <path d="M 59.52 129.12 
L 197.379952 129.12 
L 197.379952 25.44 
L 59.52 25.44 
z
" style="fill: #ffffff"/>
   </g>
   <g id="matplotlib.axis_1">
    <g id="xtick_1">
     <g id="line2d_1">
      <defs>
       <path id="mbd1b0993fd" d="M 0 0 
L 0 3.5 
" style="stroke: #000000; stroke-width: 0.8"/>
      </defs>
      <g>
       <use xlink:href="#mbd1b0993fd" x="62.104874" y="129.12" style="stroke: #000000; stroke-width: 0.8"/>
      </g>
     </g>
     <g id="text_1">
      <!-- 1.00 -->
      <g transform="translate(50.972062 143.718437) scale(0.1 -0.1)">
       <defs>
        <path id="DejaVuSans-31" d="M 794 531 
L 1825 531 
L 1825 4091 
L 703 3866 
L 703 4441 
L 1819 4666 
L 2450 4666 
L 2450 531 
L 3481 531 
L 3481 0 
L 794 0 
L 794 531 
z
" transform="scale(0.015625)"/>
        <path id="DejaVuSans-2e" d="M 684 794 
L 1344 794 
L 1344 0 
L 684 0 
L 684 794 
z
" transform="scale(0.015625)"/>
        <path id="DejaVuSans-30" d="M 2034 4250 
Q 1547 4250 1301 3770 
Q 1056 3291 1056 2328 
Q 1056 1369 1301 889 
Q 1547 409 2034 409 
Q 2525 409 2770 889 
Q 3016 1369 3016 2328 
Q 3016 3291 2770 3770 
Q 2525 4250 2034 4250 
z
M 2034 4750 
Q 2819 4750 3233 4129 
Q 3647 3509 3647 2328 
Q 3647 1150 3233 529 
Q 2819 -91 2034 -91 
Q 1250 -91 836 529 
Q 422 1150 422 2328 
Q 422 3509 836 4129 
Q 1250 4750 2034 4750 
z
" transform="scale(0.015625)"/>
       </defs>
       <use xlink:href="#DejaVuSans-31"/>
       <use xlink:href="#DejaVuSans-2e" x="63.623047"/>
       <use xlink:href="#DejaVuSans-30" x="95.410156"/>
       <use xlink:href="#DejaVuSans-30" x="159.033203"/>
      </g>
     </g>
    </g>
    <g id="xtick_2">
     <g id="line2d_2">
      <g>
       <use xlink:href="#mbd1b0993fd" x="128.367127" y="129.12" style="stroke: #000000; stroke-width: 0.8"/>
      </g>
     </g>
     <g id="text_2">
      <!-- 1.25 -->
      <g transform="translate(117.234315 143.718437) scale(0.1 -0.1)">
       <defs>
        <path id="DejaVuSans-32" d="M 1228 531 
L 3431 531 
L 3431 0 
L 469 0 
L 469 531 
Q 828 903 1448 1529 
Q 2069 2156 2228 2338 
Q 2531 2678 2651 2914 
Q 2772 3150 2772 3378 
Q 2772 3750 2511 3984 
Q 2250 4219 1831 4219 
Q 1534 4219 1204 4116 
Q 875 4013 500 3803 
L 500 4441 
Q 881 4594 1212 4672 
Q 1544 4750 1819 4750 
Q 2544 4750 2975 4387 
Q 3406 4025 3406 3419 
Q 3406 3131 3298 2873 
Q 3191 2616 2906 2266 
Q 2828 2175 2409 1742 
Q 1991 1309 1228 531 
z
" transform="scale(0.015625)"/>
        <path id="DejaVuSans-35" d="M 691 4666 
L 3169 4666 
L 3169 4134 
L 1269 4134 
L 1269 2991 
Q 1406 3038 1543 3061 
Q 1681 3084 1819 3084 
Q 2600 3084 3056 2656 
Q 3513 2228 3513 1497 
Q 3513 744 3044 326 
Q 2575 -91 1722 -91 
Q 1428 -91 1123 -41 
Q 819 9 494 109 
L 494 744 
Q 775 591 1075 516 
Q 1375 441 1709 441 
Q 2250 441 2565 725 
Q 2881 1009 2881 1497 
Q 2881 1984 2565 2268 
Q 2250 2553 1709 2553 
Q 1456 2553 1204 2497 
Q 953 2441 691 2322 
L 691 4666 
z
" transform="scale(0.015625)"/>
       </defs>
       <use xlink:href="#DejaVuSans-31"/>
       <use xlink:href="#DejaVuSans-2e" x="63.623047"/>
       <use xlink:href="#DejaVuSans-32" x="95.410156"/>
       <use xlink:href="#DejaVuSans-35" x="159.033203"/>
      </g>
     </g>
    </g>
    <g id="xtick_3">
     <g id="line2d_3">
      <g>
       <use xlink:href="#mbd1b0993fd" x="194.629381" y="129.12" style="stroke: #000000; stroke-width: 0.8"/>
      </g>
     </g>
     <g id="text_3">
      <!-- 1.50 -->
      <g transform="translate(183.496568 143.718437) scale(0.1 -0.1)">
       <use xlink:href="#DejaVuSans-31"/>
       <use xlink:href="#DejaVuSans-2e" x="63.623047"/>
       <use xlink:href="#DejaVuSans-35" x="95.410156"/>
       <use xlink:href="#DejaVuSans-30" x="159.033203"/>
      </g>
     </g>
    </g>
    <g id="text_4">
     <!-- Time (s) -->
     <g transform="translate(108.12107 157.396563) scale(0.1 -0.1)">
      <defs>
       <path id="DejaVuSans-54" d="M -19 4666 
L 3928 4666 
L 3928 4134 
L 2272 4134 
L 2272 0 
L 1638 0 
L 1638 4134 
L -19 4134 
L -19 4666 
z
" transform="scale(0.015625)"/>
       <path id="DejaVuSans-69" d="M 603 3500 
L 1178 3500 
L 1178 0 
L 603 0 
L 603 3500 
z
M 603 4863 
L 1178 4863 
L 1178 4134 
L 603 4134 
L 603 4863 
z
" transform="scale(0.015625)"/>
       <path id="DejaVuSans-6d" d="M 3328 2828 
Q 3544 3216 3844 3400 
Q 4144 3584 4550 3584 
Q 5097 3584 5394 3201 
Q 5691 2819 5691 2113 
L 5691 0 
L 5113 0 
L 5113 2094 
Q 5113 2597 4934 2840 
Q 4756 3084 4391 3084 
Q 3944 3084 3684 2787 
Q 3425 2491 3425 1978 
L 3425 0 
L 2847 0 
L 2847 2094 
Q 2847 2600 2669 2842 
Q 2491 3084 2119 3084 
Q 1678 3084 1418 2786 
Q 1159 2488 1159 1978 
L 1159 0 
L 581 0 
L 581 3500 
L 1159 3500 
L 1159 2956 
Q 1356 3278 1631 3431 
Q 1906 3584 2284 3584 
Q 2666 3584 2933 3390 
Q 3200 3197 3328 2828 
z
" transform="scale(0.015625)"/>
       <path id="DejaVuSans-65" d="M 3597 1894 
L 3597 1613 
L 953 1613 
Q 991 1019 1311 708 
Q 1631 397 2203 397 
Q 2534 397 2845 478 
Q 3156 559 3463 722 
L 3463 178 
Q 3153 47 2828 -22 
Q 2503 -91 2169 -91 
Q 1331 -91 842 396 
Q 353 884 353 1716 
Q 353 2575 817 3079 
Q 1281 3584 2069 3584 
Q 2775 3584 3186 3129 
Q 3597 2675 3597 1894 
z
M 3022 2063 
Q 3016 2534 2758 2815 
Q 2500 3097 2075 3097 
Q 1594 3097 1305 2825 
Q 1016 2553 972 2059 
L 3022 2063 
z
" transform="scale(0.015625)"/>
       <path id="DejaVuSans-20" transform="scale(0.015625)"/>
       <path id="DejaVuSans-28" d="M 1984 4856 
Q 1566 4138 1362 3434 
Q 1159 2731 1159 2009 
Q 1159 1288 1364 580 
Q 1569 -128 1984 -844 
L 1484 -844 
Q 1016 -109 783 600 
Q 550 1309 550 2009 
Q 550 2706 781 3412 
Q 1013 4119 1484 4856 
L 1984 4856 
z
" transform="scale(0.015625)"/>
       <path id="DejaVuSans-73" d="M 2834 3397 
L 2834 2853 
Q 2591 2978 2328 3040 
Q 2066 3103 1784 3103 
Q 1356 3103 1142 2972 
Q 928 2841 928 2578 
Q 928 2378 1081 2264 
Q 1234 2150 1697 2047 
L 1894 2003 
Q 2506 1872 2764 1633 
Q 3022 1394 3022 966 
Q 3022 478 2636 193 
Q 2250 -91 1575 -91 
Q 1294 -91 989 -36 
Q 684 19 347 128 
L 347 722 
Q 666 556 975 473 
Q 1284 391 1588 391 
Q 1994 391 2212 530 
Q 2431 669 2431 922 
Q 2431 1156 2273 1281 
Q 2116 1406 1581 1522 
L 1381 1569 
Q 847 1681 609 1914 
Q 372 2147 372 2553 
Q 372 3047 722 3315 
Q 1072 3584 1716 3584 
Q 2034 3584 2315 3537 
Q 2597 3491 2834 3397 
z
" transform="scale(0.015625)"/>
       <path id="DejaVuSans-29" d="M 513 4856 
L 1013 4856 
Q 1481 4119 1714 3412 
Q 1947 2706 1947 2009 
Q 1947 1309 1714 600 
Q 1481 -109 1013 -844 
L 513 -844 
Q 928 -128 1133 580 
Q 1338 1288 1338 2009 
Q 1338 2731 1133 3434 
Q 928 4138 513 4856 
z
" transform="scale(0.015625)"/>
      </defs>
      <use xlink:href="#DejaVuSans-54"/>
      <use xlink:href="#DejaVuSans-69" x="57.958984"/>
      <use xlink:href="#DejaVuSans-6d" x="85.742188"/>
      <use xlink:href="#DejaVuSans-65" x="183.154297"/>
      <use xlink:href="#DejaVuSans-20" x="244.677734"/>
      <use xlink:href="#DejaVuSans-28" x="276.464844"/>
      <use xlink:href="#DejaVuSans-73" x="315.478516"/>
      <use xlink:href="#DejaVuSans-29" x="367.578125"/>
     </g>
    </g>
   </g>
   <g id="matplotlib.axis_2">
    <g id="ytick_1">
     <g id="line2d_4">
      <defs>
       <path id="m645318092c" d="M 0 0 
L -3.5 0 
" style="stroke: #000000; stroke-width: 0.8"/>
      </defs>
      <g>
       <use xlink:href="#m645318092c" x="59.52" y="114.481864" style="stroke: #000000; stroke-width: 0.8"/>
      </g>
     </g>
     <g id="text_5">
      <!-- −40 -->
      <g transform="translate(31.415312 118.281082) scale(0.1 -0.1)">
       <defs>
        <path id="DejaVuSans-2212" d="M 678 2272 
L 4684 2272 
L 4684 1741 
L 678 1741 
L 678 2272 
z
" transform="scale(0.015625)"/>
        <path id="DejaVuSans-34" d="M 2419 4116 
L 825 1625 
L 2419 1625 
L 2419 4116 
z
M 2253 4666 
L 3047 4666 
L 3047 1625 
L 3713 1625 
L 3713 1100 
L 3047 1100 
L 3047 0 
L 2419 0 
L 2419 1100 
L 313 1100 
L 313 1709 
L 2253 4666 
z
" transform="scale(0.015625)"/>
       </defs>
       <use xlink:href="#DejaVuSans-2212"/>
       <use xlink:href="#DejaVuSans-34" x="83.789062"/>
       <use xlink:href="#DejaVuSans-30" x="147.412109"/>
      </g>
     </g>
    </g>
    <g id="ytick_2">
     <g id="line2d_5">
      <g>
       <use xlink:href="#m645318092c" x="59.52" y="85.397742" style="stroke: #000000; stroke-width: 0.8"/>
      </g>
     </g>
     <g id="text_6">
      <!-- −20 -->
      <g transform="translate(31.415312 89.19696) scale(0.1 -0.1)">
       <use xlink:href="#DejaVuSans-2212"/>
       <use xlink:href="#DejaVuSans-32" x="83.789062"/>
       <use xlink:href="#DejaVuSans-30" x="147.412109"/>
      </g>
     </g>
    </g>
    <g id="ytick_3">
     <g id="line2d_6">
      <g>
       <use xlink:href="#m645318092c" x="59.52" y="56.313619" style="stroke: #000000; stroke-width: 0.8"/>
      </g>
     </g>
     <g id="text_7">
      <!-- 0 -->
      <g transform="translate(46.1575 60.112838) scale(0.1 -0.1)">
       <use xlink:href="#DejaVuSans-30"/>
      </g>
     </g>
    </g>
    <g id="ytick_4">
     <g id="line2d_7">
      <g>
       <use xlink:href="#m645318092c" x="59.52" y="27.229497" style="stroke: #000000; stroke-width: 0.8"/>
      </g>
     </g>
     <g id="text_8">
      <!-- 20 -->
      <g transform="translate(39.795 31.028716) scale(0.1 -0.1)">
       <use xlink:href="#DejaVuSans-32"/>
       <use xlink:href="#DejaVuSans-30" x="63.623047"/>
      </g>
     </g>
    </g>
    <g id="text_9">
     <!-- Amplitude (mV) -->
     <g transform="translate(25.335625 116.683906) rotate(-90) scale(0.1 -0.1)">
      <defs>
       <path id="DejaVuSans-41" d="M 2188 4044 
L 1331 1722 
L 3047 1722 
L 2188 4044 
z
M 1831 4666 
L 2547 4666 
L 4325 0 
L 3669 0 
L 3244 1197 
L 1141 1197 
L 716 0 
L 50 0 
L 1831 4666 
z
" transform="scale(0.015625)"/>
       <path id="DejaVuSans-70" d="M 1159 525 
L 1159 -1331 
L 581 -1331 
L 581 3500 
L 1159 3500 
L 1159 2969 
Q 1341 3281 1617 3432 
Q 1894 3584 2278 3584 
Q 2916 3584 3314 3078 
Q 3713 2572 3713 1747 
Q 3713 922 3314 415 
Q 2916 -91 2278 -91 
Q 1894 -91 1617 61 
Q 1341 213 1159 525 
z
M 3116 1747 
Q 3116 2381 2855 2742 
Q 2594 3103 2138 3103 
Q 1681 3103 1420 2742 
Q 1159 2381 1159 1747 
Q 1159 1113 1420 752 
Q 1681 391 2138 391 
Q 2594 391 2855 752 
Q 3116 1113 3116 1747 
z
" transform="scale(0.015625)"/>
       <path id="DejaVuSans-6c" d="M 603 4863 
L 1178 4863 
L 1178 0 
L 603 0 
L 603 4863 
z
" transform="scale(0.015625)"/>
       <path id="DejaVuSans-74" d="M 1172 4494 
L 1172 3500 
L 2356 3500 
L 2356 3053 
L 1172 3053 
L 1172 1153 
Q 1172 725 1289 603 
Q 1406 481 1766 481 
L 2356 481 
L 2356 0 
L 1766 0 
Q 1100 0 847 248 
Q 594 497 594 1153 
L 594 3053 
L 172 3053 
L 172 3500 
L 594 3500 
L 594 4494 
L 1172 4494 
z
" transform="scale(0.015625)"/>
       <path id="DejaVuSans-75" d="M 544 1381 
L 544 3500 
L 1119 3500 
L 1119 1403 
Q 1119 906 1312 657 
Q 1506 409 1894 409 
Q 2359 409 2629 706 
Q 2900 1003 2900 1516 
L 2900 3500 
L 3475 3500 
L 3475 0 
L 2900 0 
L 2900 538 
Q 2691 219 2414 64 
Q 2138 -91 1772 -91 
Q 1169 -91 856 284 
Q 544 659 544 1381 
z
M 1991 3584 
L 1991 3584 
z
" transform="scale(0.015625)"/>
       <path id="DejaVuSans-64" d="M 2906 2969 
L 2906 4863 
L 3481 4863 
L 3481 0 
L 2906 0 
L 2906 525 
Q 2725 213 2448 61 
Q 2172 -91 1784 -91 
Q 1150 -91 751 415 
Q 353 922 353 1747 
Q 353 2572 751 3078 
Q 1150 3584 1784 3584 
Q 2172 3584 2448 3432 
Q 2725 3281 2906 2969 
z
M 947 1747 
Q 947 1113 1208 752 
Q 1469 391 1925 391 
Q 2381 391 2643 752 
Q 2906 1113 2906 1747 
Q 2906 2381 2643 2742 
Q 2381 3103 1925 3103 
Q 1469 3103 1208 2742 
Q 947 2381 947 1747 
z
" transform="scale(0.015625)"/>
       <path id="DejaVuSans-56" d="M 1831 0 
L 50 4666 
L 709 4666 
L 2188 738 
L 3669 4666 
L 4325 4666 
L 2547 0 
L 1831 0 
z
" transform="scale(0.015625)"/>
      </defs>
      <use xlink:href="#DejaVuSans-41"/>
      <use xlink:href="#DejaVuSans-6d" x="68.408203"/>
      <use xlink:href="#DejaVuSans-70" x="165.820312"/>
      <use xlink:href="#DejaVuSans-6c" x="229.296875"/>
      <use xlink:href="#DejaVuSans-69" x="257.080078"/>
      <use xlink:href="#DejaVuSans-74" x="284.863281"/>
      <use xlink:href="#DejaVuSans-75" x="324.072266"/>
      <use xlink:href="#DejaVuSans-64" x="387.451172"/>
      <use xlink:href="#DejaVuSans-65" x="450.927734"/>
      <use xlink:href="#DejaVuSans-20" x="512.451172"/>
      <use xlink:href="#DejaVuSans-28" x="544.238281"/>
      <use xlink:href="#DejaVuSans-6d" x="583.251953"/>
      <use xlink:href="#DejaVuSans-56" x="680.664062"/>
      <use xlink:href="#DejaVuSans-29" x="749.072266"/>
     </g>
    </g>
   </g>
   <g id="line2d_8">
    <path d="M 62.171153 57.128456 
L 62.436268 38.012647 
L 62.568826 38.739217 
L 62.833941 43.294562 
L 63.231614 55.264633 
L 64.02696 104.048406 
L 64.159518 105.440953 
L 64.424633 47.07542 
L 64.557191 42.209949 
L 64.689748 42.60001 
L 64.954863 46.054762 
L 65.352536 56.162308 
L 66.147882 98.234137 
L 66.28044 99.230708 
L 66.545555 44.571364 
L 66.678113 39.258236 
L 66.810671 39.681622 
L 67.075786 43.378013 
L 67.473459 54.001475 
L 68.268805 98.993639 
L 68.401362 100.142125 
L 68.666478 37.404086 
L 68.799035 30.152727 
L 68.931593 30.761576 
L 69.196708 36.040413 
L 69.594381 51.289216 
L 70.389727 115.438945 
L 70.522285 117.35726 
L 70.7874 40.705884 
L 70.919958 35.214577 
L 71.052515 35.905763 
L 71.317631 40.459496 
L 71.715303 52.965382 
L 72.510649 103.91571 
L 72.643207 105.466386 
L 72.908322 41.622187 
L 73.04088 35.533706 
L 73.173438 36.418559 
L 73.438553 41.643203 
L 73.836226 55.841199 
L 74.631572 113.120638 
L 74.764129 114.830076 
L 75.029245 47.810176 
L 75.161802 43.011623 
L 75.29436 43.587544 
L 75.559475 47.544744 
L 75.957148 58.192595 
L 76.752494 101.714011 
L 76.885052 102.919912 
L 77.150167 48.12229 
L 77.282725 42.804241 
L 77.415282 43.269803 
L 77.680398 46.996527 
L 78.07807 57.893263 
L 78.873416 104.56809 
L 79.005974 105.847402 
L 79.271089 42.518171 
L 79.403647 35.136308 
L 79.536205 35.792752 
L 79.80132 41.175912 
L 80.198993 56.28556 
L 80.994339 120.585817 
L 81.126896 122.342699 
L 81.392012 41.579351 
L 81.524569 34.617027 
L 81.657127 35.218413 
L 81.922242 40.184286 
L 82.319915 54.601811 
L 83.115261 115.567399 
L 83.247819 117.299339 
L 83.512934 43.085591 
L 83.645492 37.433532 
L 83.778049 38.109349 
L 84.043165 42.736586 
L 84.440837 55.702771 
L 85.236183 107.600401 
L 85.368741 109.034201 
L 85.633856 46.295478 
L 85.766414 41.054539 
L 85.898972 41.47792 
L 86.164087 45.205724 
L 86.56176 55.802099 
L 87.357106 101.062986 
L 87.489663 102.335881 
L 87.754779 43.361731 
L 87.887336 37.371717 
L 88.019894 38.091014 
L 88.285009 42.835232 
L 88.682682 55.716708 
L 89.478028 109.980143 
L 89.610586 111.541051 
L 89.875701 46.102681 
L 90.008259 40.927952 
L 90.140816 41.486777 
L 90.405932 45.476273 
L 90.803604 56.875742 
L 91.59895 103.19715 
L 91.731508 104.338109 
L 91.996623 46.096083 
L 92.129181 40.606781 
L 92.261739 40.964012 
L 92.526854 44.565014 
L 92.924527 55.54508 
L 93.719873 101.787024 
L 93.85243 102.817925 
L 94.117546 44.313374 
L 94.250103 39.502156 
L 94.382661 39.986584 
L 94.647776 43.698009 
L 95.045449 54.106128 
L 95.840795 96.757996 
L 95.973353 97.892545 
L 96.238468 43.601012 
L 96.371026 38.530247 
L 96.503583 39.106121 
L 96.768699 43.19593 
L 97.166371 54.94346 
L 97.961717 102.092439 
L 98.094275 103.567384 
L 98.35939 47.601633 
L 98.491948 43.167946 
L 98.624506 43.812824 
L 98.889621 47.421817 
L 99.287294 57.172644 
L 100.08264 98.443658 
L 100.215197 99.595647 
L 100.480313 43.365 
L 100.61287 36.671816 
L 100.745428 37.427873 
L 101.010543 42.607606 
L 101.408216 56.872172 
L 102.203562 116.774861 
L 102.33612 118.453415 
L 102.601235 41.515207 
L 102.733793 34.273014 
L 102.86635 34.948115 
L 103.131466 40.348754 
L 103.529138 55.545415 
L 104.324484 120.055569 
L 104.457042 121.787681 
L 104.722157 44.057849 
L 104.854715 38.324968 
L 104.987273 38.886411 
L 105.252388 43.209076 
L 105.650061 55.588248 
L 106.445407 106.432519 
L 106.577964 107.790992 
L 106.84308 41.546454 
L 106.975637 34.777093 
L 107.108195 35.362293 
L 107.37331 40.340929 
L 107.770983 54.812771 
L 108.566329 114.636567 
L 108.698887 116.32824 
L 108.964002 41.628933 
L 109.09656 34.746439 
L 109.229117 35.423443 
L 109.494233 40.483233 
L 109.891906 55.092399 
L 110.687251 116.425975 
L 110.819809 118.223319 
L 111.084924 46.39825 
L 111.217482 41.612681 
L 111.35004 42.152755 
L 111.615155 45.955019 
L 112.012828 56.809993 
L 112.808174 100.347295 
L 112.940731 101.506399 
L 113.205847 42.549732 
L 113.338404 35.31487 
L 113.470962 35.910321 
L 113.736077 40.994345 
L 114.13375 56.153251 
L 114.929096 119.331125 
L 115.061654 121.056714 
L 115.326769 42.52933 
L 115.459327 35.708049 
L 115.591884 36.182553 
L 115.857 40.914305 
L 116.254673 54.643306 
L 117.050018 113.112225 
L 117.182576 114.641264 
L 117.447691 38.390938 
L 117.580249 30.925308 
L 117.712807 31.570227 
L 117.977922 36.966428 
L 118.375595 52.621994 
L 119.170941 117.994735 
L 119.303498 119.889599 
L 119.568614 40.782818 
L 119.701171 34.596477 
L 119.833729 35.092118 
L 120.098844 39.604881 
L 120.496517 52.716882 
L 121.291863 107.988689 
L 121.424421 109.749852 
L 121.689536 41.845339 
L 121.822094 35.802233 
L 121.954651 36.596938 
L 122.219767 41.589532 
L 122.61744 55.247502 
L 123.412785 111.662845 
L 123.545343 113.304213 
L 123.810458 46.973087 
L 123.943016 42.10591 
L 124.075574 42.649393 
L 124.340689 46.448056 
L 124.738362 56.745687 
L 125.533708 99.714757 
L 125.666265 100.889276 
L 125.931381 43.231902 
L 126.063938 37.170051 
L 126.196496 37.728972 
L 126.461611 42.23733 
L 126.859284 54.595978 
L 127.65463 107.863647 
L 127.787188 109.299718 
L 128.052303 44.470522 
L 128.184861 39.64972 
L 128.317418 39.962481 
L 128.582534 43.272613 
L 128.980207 52.867357 
L 129.775552 94.465586 
L 129.90811 95.652048 
L 130.173225 41.67516 
L 130.305783 36.725989 
L 130.438341 37.352378 
L 130.703456 41.48537 
L 131.101129 52.727748 
L 131.896475 97.560699 
L 132.029032 98.854733 
L 132.294148 39.394195 
L 132.426705 32.727026 
L 132.559263 33.333097 
L 132.824378 38.665299 
L 133.222051 53.412643 
L 134.017397 113.740778 
L 134.149955 115.581444 
L 134.41507 40.601432 
L 134.547628 33.852695 
L 134.680185 34.779849 
L 134.945301 40.333825 
L 135.342974 55.171064 
L 136.138319 117.37595 
L 136.270877 119.284051 
L 136.535992 43.421897 
L 136.66855 37.007183 
L 136.801108 37.648961 
L 137.066223 42.474169 
L 137.463896 56.39681 
L 138.259242 114.434206 
L 138.391799 115.9377 
L 138.656915 44.945057 
L 138.789472 39.094672 
L 138.92203 39.284674 
L 139.187145 42.955354 
L 139.584818 54.232831 
L 140.380164 102.881036 
L 140.512722 104.183429 
L 140.777837 39.825998 
L 140.910395 33.362624 
L 141.042952 33.908292 
L 141.308068 38.671269 
L 141.705741 52.049391 
L 142.501086 107.794845 
L 142.633644 109.40141 
L 142.898759 40.004002 
L 143.031317 34.381252 
L 143.163875 35.160154 
L 143.42899 39.966689 
L 143.826663 53.295588 
L 144.622009 105.957435 
L 144.754566 107.396409 
L 145.019682 44.516445 
L 145.152239 39.69841 
L 145.284797 40.227655 
L 145.549912 44.138794 
L 145.947585 54.714996 
L 146.742931 97.763267 
L 146.875489 98.996892 
L 147.140604 39.175647 
L 147.273162 31.90348 
L 147.405719 32.750698 
L 147.670835 38.678574 
L 148.068508 54.924354 
L 148.863853 120.405288 
L 148.996411 122.203387 
L 149.261526 41.13051 
L 149.394084 34.222541 
L 149.526642 34.666326 
L 149.791757 39.355665 
L 150.18943 53.42686 
L 150.984776 112.992028 
L 151.117333 114.676386 
L 151.382449 38.428601 
L 151.515006 31.017806 
L 151.647564 31.858531 
L 151.912679 37.558335 
L 152.310352 53.466922 
L 153.105698 119.775003 
L 153.238256 121.656558 
L 153.503371 42.860382 
L 153.635929 37.596438 
L 153.768486 38.27145 
L 154.033602 42.636161 
L 154.431275 54.44999 
L 155.22662 102.789479 
L 155.359178 104.081848 
L 155.624293 45.005263 
L 155.756851 40.374018 
L 155.889409 40.799799 
L 156.154524 44.183363 
L 156.552197 54.079761 
L 157.347543 95.715016 
L 157.4801 96.95248 
L 157.745216 40.716183 
L 157.877773 33.879438 
L 158.010331 34.633988 
L 158.275446 39.986248 
L 158.673119 55.058434 
L 159.468465 116.423466 
L 159.601023 118.207837 
L 159.866138 40.399572 
L 159.998696 32.939625 
L 160.131253 33.641093 
L 160.396369 39.370444 
L 160.794042 55.244575 
L 161.589387 121.66419 
L 161.721945 123.513563 
L 161.98706 45.142485 
L 162.119618 39.885266 
L 162.252176 40.356715 
L 162.517291 44.165812 
L 162.914964 54.969314 
L 163.71031 100.338639 
L 163.842867 101.664809 
L 164.107983 39.207002 
L 164.24054 31.927785 
L 164.373098 32.783622 
L 164.638213 38.539596 
L 165.035886 54.564115 
L 165.831232 120.971366 
L 165.96379 122.95137 
L 166.228905 41.003546 
L 166.361463 34.132371 
L 166.49402 34.816377 
L 166.759136 39.957006 
L 167.156809 54.767649 
L 167.952154 116.25816 
L 168.084712 118.104918 
L 168.349827 45.950538 
L 168.482385 41.102475 
L 168.614943 41.808633 
L 168.880058 45.833369 
L 169.277731 56.684426 
L 170.073077 101.619297 
L 170.205634 102.954254 
L 170.47075 45.391144 
L 170.603307 39.939214 
L 170.735865 40.561846 
L 171.00098 44.811531 
L 171.398653 56.905247 
L 172.193999 106.487292 
L 172.326557 107.786029 
L 172.591672 46.060287 
L 172.72423 40.732408 
L 172.856787 41.097825 
L 173.121903 44.690129 
L 173.519576 55.531637 
L 174.314922 102.578229 
L 174.447479 103.791915 
L 174.712594 39.323249 
L 174.845152 31.703602 
L 174.97771 32.215725 
L 175.242825 37.574121 
L 175.640498 53.332261 
L 176.435844 119.854533 
L 176.568401 121.744703 
L 176.833517 40.865502 
L 176.966074 34.615996 
L 177.098632 35.344915 
L 177.363747 40.34259 
L 177.76142 53.993236 
L 178.556766 110.463965 
L 178.689324 112.143715 
L 178.954439 40.205625 
L 179.086997 33.097436 
L 179.219554 33.895816 
L 179.48467 39.589397 
L 179.882343 55.218281 
L 180.677689 119.556383 
L 180.810246 121.546759 
L 181.075361 41.147115 
L 181.207919 33.888482 
L 181.340477 34.768297 
L 181.605592 40.766765 
L 182.003265 56.805398 
L 182.798611 121.947313 
L 182.931169 123.702521 
L 183.196284 40.954756 
L 183.328841 33.482604 
L 183.461399 34.234076 
L 183.726514 39.874723 
L 184.124187 55.776139 
L 184.919533 122.585574 
L 185.052091 124.407273 
L 185.317206 44.326358 
L 185.449764 38.424051 
L 185.582321 38.94202 
L 185.847437 43.366303 
L 186.24511 55.494381 
L 187.040456 106.702386 
L 187.173013 107.994106 
L 187.438128 40.534993 
L 187.570686 33.406409 
L 187.703244 34.065216 
L 187.968359 39.191957 
L 188.366032 53.886142 
L 189.161378 115.798872 
L 189.293936 117.290661 
L 189.559051 38.93093 
L 189.691608 31.859009 
L 189.824166 32.513131 
L 190.089281 37.799822 
L 190.486954 53.100723 
L 191.2823 115.743531 
L 191.414858 117.515854 
L 191.679973 38.999396 
L 191.812531 31.949478 
L 191.945088 32.920317 
L 192.210204 38.953405 
L 192.607877 55.356711 
L 193.403223 120.484902 
L 193.53578 122.37908 
L 193.800895 43.188505 
L 193.933453 36.817733 
L 194.066011 37.630154 
L 194.331126 42.828808 
L 194.596241 51.687563 
L 194.596241 51.687563 
" clip-path="url(#p43c3bf4e92)" style="fill: none; stroke: #808080; stroke-width: 0.7; stroke-linecap: square"/>
   </g>
   <g id="line2d_9">
    <path d="M 62.171153 55.110007 
L 63.364172 56.720321 
L 64.424633 57.939349 
L 65.617652 57.312495 
L 66.412998 56.351468 
L 66.678113 56.185891 
L 67.208343 55.693741 
L 67.473459 55.353528 
L 68.799035 53.666036 
L 69.329266 53.335233 
L 69.461823 53.318153 
L 69.726939 53.1017 
L 70.522285 53.13799 
L 71.185073 53.770543 
L 73.173438 56.459905 
L 73.968783 57.613067 
L 74.631572 58.238675 
L 75.82459 59.378053 
L 76.089706 59.568784 
L 76.752494 60.116167 
L 77.017609 60.130712 
L 77.54784 59.682352 
L 78.608301 59.04529 
L 79.138532 59.166873 
L 79.536205 58.907107 
L 79.80132 58.742532 
L 80.861781 57.347564 
L 81.789685 56.903891 
L 82.319915 56.397376 
L 82.717588 56.244722 
L 83.115261 55.877774 
L 83.380376 56.014272 
L 83.910607 56.373608 
L 84.971068 57.670723 
L 85.633856 57.823478 
L 86.031529 57.503676 
L 86.429202 57.239753 
L 86.959433 56.903491 
L 87.489663 56.93974 
L 87.887336 57.114985 
L 88.285009 57.3837 
L 89.34547 57.456405 
L 89.875701 57.732012 
L 90.273374 57.716829 
L 91.466393 58.667893 
L 91.59895 58.676379 
L 92.129181 57.988767 
L 93.587315 55.927021 
L 93.984988 55.199121 
L 94.382661 55.142957 
L 95.57568 55.430979 
L 95.840795 55.253225 
L 96.10591 55.228999 
L 96.636141 55.496824 
L 96.901256 55.801036 
L 97.564044 56.878035 
L 98.094275 57.583314 
L 98.624506 58.341069 
L 99.022179 58.431859 
L 99.287294 58.369435 
L 99.950082 58.529043 
L 100.215197 58.672132 
L 101.010543 58.956109 
L 101.275659 58.814687 
L 101.938447 58.105996 
L 102.33612 57.859178 
L 102.733793 57.912752 
L 103.264023 57.692235 
L 103.661696 57.380945 
L 104.324484 57.287719 
L 105.11983 56.991611 
L 105.384946 57.072029 
L 105.650061 57.081025 
L 106.047734 56.729508 
L 106.710522 56.741485 
L 107.240753 56.327751 
L 107.505868 56.413175 
L 108.698887 57.052265 
L 108.831444 57.008181 
L 108.964002 57.090202 
L 109.759348 56.851874 
L 110.157021 56.991472 
L 110.554694 57.179312 
L 110.952367 57.30401 
L 111.217482 57.306158 
L 111.747713 57.640538 
L 112.277943 58.290598 
L 112.410501 58.355981 
L 112.675616 58.670609 
L 113.205847 58.609493 
L 113.868635 57.996445 
L 114.663981 57.915706 
L 115.061654 57.814929 
L 115.857 56.89362 
L 116.917461 55.682835 
L 118.11048 54.506685 
L 118.375595 54.536474 
L 119.170941 54.352029 
L 119.568614 54.553418 
L 120.098844 54.235559 
L 120.36396 54.267455 
L 120.629075 54.380968 
L 121.291863 55.270465 
L 121.822094 56.067401 
L 122.352324 56.690488 
L 122.61744 56.866129 
L 123.280228 57.785026 
L 124.473247 58.321683 
L 124.87092 57.892511 
L 125.40115 57.05401 
L 125.666265 56.835455 
L 126.329054 56.798596 
L 126.594169 56.59956 
L 127.1244 55.856382 
L 128.317418 55.081021 
L 128.847649 54.323042 
L 129.642995 53.088706 
L 130.305783 52.990709 
L 130.836014 53.67009 
L 131.101129 54.02685 
L 132.824378 54.769756 
L 133.089494 55.11498 
L 133.752282 55.433149 
L 134.41507 56.180596 
L 134.680185 56.559424 
L 134.945301 56.886027 
L 135.740646 57.1257 
L 136.138319 57.733959 
L 136.535992 58.16257 
L 136.801108 58.256328 
L 137.463896 58.094379 
L 137.596454 58.143302 
L 137.994126 58.004898 
L 138.524357 57.746258 
L 138.789472 57.350464 
L 139.319703 56.16818 
L 140.512722 54.323427 
L 141.17551 53.880355 
L 141.573183 53.777476 
L 141.838298 53.538267 
L 142.368529 53.06249 
L 142.633644 53.031824 
L 142.898759 53.173314 
L 143.561548 54.281105 
L 144.091778 55.160813 
L 144.622009 55.541128 
L 145.284797 55.595958 
L 145.68247 55.880098 
L 146.212701 55.968596 
L 146.477816 55.755671 
L 146.875489 55.707081 
L 147.273162 55.957194 
L 147.803392 56.557094 
L 148.068508 56.845581 
L 148.466181 56.827287 
L 149.128969 56.435041 
L 150.056872 55.157639 
L 150.852218 55.188423 
L 151.117333 55.142926 
L 151.515006 55.36816 
L 151.780122 55.524607 
L 152.44291 55.345121 
L 152.97314 55.031523 
L 153.238256 55.15116 
L 153.503371 55.199465 
L 153.901044 55.680106 
L 154.431275 55.870987 
L 154.828948 55.627841 
L 155.094063 55.629015 
L 155.756851 55.354683 
L 156.552197 55.276303 
L 157.214985 55.817659 
L 157.745216 56.199652 
L 158.010331 56.279779 
L 159.070792 57.176736 
L 159.335907 57.111362 
L 160.528926 57.342662 
L 161.324272 56.793522 
L 162.384733 56.53745 
L 163.047522 56.189771 
L 163.577752 55.8665 
L 165.035886 56.505072 
L 165.566117 56.425049 
L 165.831232 56.448452 
L 166.096347 56.577273 
L 166.361463 56.482991 
L 167.554482 56.631026 
L 167.952154 56.913162 
L 169.145173 58.150038 
L 169.410289 57.945145 
L 170.073077 57.808424 
L 170.868423 58.197306 
L 171.133538 58.218794 
L 171.531211 58.439472 
L 172.061442 58.344128 
L 172.856787 57.888101 
L 173.917249 56.618484 
L 174.314922 56.599116 
L 174.845152 56.090746 
L 175.242825 55.544581 
L 175.773056 55.137914 
L 176.038171 54.953691 
L 176.303286 54.953548 
L 176.568401 55.138827 
L 176.966074 55.06373 
L 177.76142 55.626445 
L 178.026536 55.766846 
L 180.0149 57.168907 
L 180.545131 57.174902 
L 182.003265 58.72641 
L 182.931169 58.014676 
L 183.859072 57.816502 
L 184.256745 57.711021 
L 184.654418 57.761598 
L 185.052091 57.664597 
L 185.714879 57.280667 
L 186.112552 57.13419 
L 186.510225 56.828957 
L 187.040456 56.607739 
L 187.570686 56.156337 
L 187.968359 55.955981 
L 188.763705 55.506736 
L 189.02882 55.490196 
L 189.161378 55.393634 
L 189.559051 54.758642 
L 189.956724 54.641981 
L 190.221839 54.67621 
L 190.75207 55.098358 
L 191.149743 55.076224 
L 191.679973 55.443191 
L 192.342761 56.724336 
L 192.740434 57.418087 
L 193.00555 57.536334 
L 193.800895 57.758523 
L 194.066011 57.998949 
L 194.596241 58.510016 
L 194.596241 58.510016 
" clip-path="url(#p43c3bf4e92)" style="fill: none; stroke: #1e90ff; stroke-linecap: square"/>
   </g>
   <g id="line2d_10">
    <path d="M 62.171153 55.364915 
L 62.701384 56.161149 
L 62.833941 55.964622 
L 63.099056 56.622693 
L 63.231614 56.744431 
L 63.364172 56.342544 
L 63.761845 57.452835 
L 63.894402 57.137578 
L 64.424633 57.5345 
L 64.557191 57.470744 
L 64.689748 57.570381 
L 64.822306 57.492071 
L 65.087421 57.545966 
L 65.219979 57.238 
L 65.485094 57.476444 
L 65.750209 56.509176 
L 65.882767 56.590153 
L 66.147882 56.747687 
L 66.678113 56.141587 
L 66.943228 55.687262 
L 67.075786 55.800537 
L 67.738574 54.764014 
L 67.871132 54.505208 
L 68.003689 54.744768 
L 68.136247 54.178546 
L 68.268805 54.420227 
L 68.799035 54.107507 
L 68.931593 53.861553 
L 69.064151 53.929757 
L 69.196708 53.656939 
L 69.329266 53.743135 
L 69.726939 53.230468 
L 69.859496 53.508949 
L 69.992054 53.343612 
L 70.124612 53.66201 
L 70.7874 53.869066 
L 70.919958 54.032443 
L 71.052515 53.919212 
L 71.317631 54.379277 
L 71.450188 54.300053 
L 71.715303 54.534846 
L 71.847861 54.474292 
L 72.112976 54.843604 
L 72.378092 55.55928 
L 72.775765 55.927408 
L 73.836226 57.580016 
L 73.968783 57.36201 
L 74.366456 58.356376 
L 74.499014 58.212637 
L 74.764129 58.590165 
L 75.426918 59.196878 
L 75.559475 59.016963 
L 75.82459 59.02688 
L 76.089706 59.315897 
L 76.222263 59.309512 
L 76.354821 59.147517 
L 76.487379 59.644815 
L 76.619936 59.173252 
L 76.752494 59.568825 
L 77.017609 59.552215 
L 77.150167 59.64229 
L 77.945513 59.185725 
L 78.210628 59.259787 
L 78.343186 59.253509 
L 78.608301 58.862894 
L 78.740859 58.776044 
L 78.873416 59.131633 
L 79.138532 59.114355 
L 79.271089 58.835632 
L 79.536205 58.791816 
L 79.80132 58.374383 
L 79.933877 58.436946 
L 80.33155 58.225815 
L 80.464108 58.201041 
L 80.596666 57.837079 
L 80.729223 57.899984 
L 80.861781 57.378698 
L 80.994339 57.621543 
L 81.126896 57.586747 
L 81.259454 57.297103 
L 81.392012 57.365025 
L 81.657127 57.166458 
L 81.922242 56.837776 
L 82.0548 56.862933 
L 82.187357 56.55251 
L 82.452473 56.527103 
L 82.58503 56.837523 
L 82.717588 56.494478 
L 82.982703 57.029535 
L 83.247819 56.705552 
L 83.380376 56.457951 
L 83.645492 56.731672 
L 83.778049 56.737131 
L 83.910607 56.862341 
L 84.043165 56.829563 
L 84.175722 56.982117 
L 84.30828 56.944328 
L 84.573395 57.619596 
L 84.83851 57.120318 
L 84.971068 57.805208 
L 85.103626 57.341848 
L 85.368741 57.350767 
L 85.633856 57.565422 
L 85.766414 57.474582 
L 85.898972 57.609709 
L 86.031529 57.450692 
L 86.164087 57.583647 
L 86.694317 57.200557 
L 86.826875 57.450903 
L 86.959433 57.258209 
L 87.09199 57.365445 
L 87.224548 57.307432 
L 87.489663 57.416341 
L 87.622221 57.23131 
L 88.019894 57.501306 
L 88.152452 57.496126 
L 88.285009 56.853501 
L 88.550124 57.337889 
L 88.81524 57.537865 
L 88.947797 57.867754 
L 89.080355 57.572579 
L 89.212913 57.825319 
L 89.34547 57.556582 
L 89.610586 57.962383 
L 89.743143 57.854252 
L 89.875701 58.080537 
L 90.273374 58.182337 
L 90.405932 57.923773 
L 90.803604 58.242686 
L 90.936162 58.230255 
L 91.201277 57.913894 
L 91.333835 58.367168 
L 91.466393 57.731755 
L 91.59895 58.006092 
L 91.731508 57.945856 
L 91.864066 58.127703 
L 92.261739 57.66768 
L 92.394296 57.587256 
L 92.526854 57.274376 
L 92.659412 57.280852 
L 92.924527 57.060064 
L 93.189642 56.430063 
L 93.3222 56.127928 
L 93.587315 56.294873 
L 93.719873 56.346028 
L 93.85243 56.229795 
L 93.984988 55.72132 
L 94.117546 55.857983 
L 94.515219 55.619318 
L 94.647776 55.171808 
L 94.780334 55.387325 
L 94.912892 55.26448 
L 95.045449 55.301805 
L 95.310564 55.246712 
L 95.443122 55.196394 
L 95.57568 55.9 
L 95.708237 55.336504 
L 95.973353 55.74488 
L 96.10591 55.55532 
L 96.371026 55.861838 
L 96.503583 55.854825 
L 96.636141 56.281466 
L 96.768699 55.470389 
L 97.033814 56.086474 
L 97.298929 56.792358 
L 97.431487 56.787016 
L 97.564044 56.620497 
L 97.696602 57.156642 
L 97.82916 57.031166 
L 98.094275 57.473002 
L 98.491948 57.880943 
L 99.022179 58.277371 
L 99.154736 58.105562 
L 99.419851 58.347272 
L 99.552409 58.298121 
L 99.684967 58.061698 
L 99.950082 58.264409 
L 100.215197 58.729124 
L 100.347755 58.75878 
L 100.480313 58.517978 
L 100.61287 58.616959 
L 101.010543 58.355014 
L 101.143101 58.941033 
L 101.408216 58.29432 
L 101.673331 58.395441 
L 101.805889 58.122766 
L 101.938447 58.232458 
L 102.071004 57.795162 
L 102.203562 58.315721 
L 102.33612 58.337926 
L 102.468677 57.988812 
L 102.601235 58.174347 
L 102.998908 58.071672 
L 103.131466 57.395512 
L 103.264023 57.709089 
L 103.661696 57.398123 
L 103.794254 57.667557 
L 103.926811 57.311288 
L 104.059369 57.354085 
L 104.191927 57.616703 
L 104.722157 57.285999 
L 105.11983 57.108758 
L 105.252388 57.357991 
L 105.517503 57.19435 
L 105.650061 57.390581 
L 105.915176 56.713291 
L 106.180291 57.116015 
L 106.445407 56.887437 
L 107.240753 56.737468 
L 107.37331 56.894166 
L 107.505868 56.683047 
L 108.036098 56.875793 
L 108.168656 56.757364 
L 108.301214 57.199347 
L 108.433771 56.457782 
L 108.698887 56.918906 
L 108.831444 56.913386 
L 109.09656 57.070064 
L 109.361675 57.179754 
L 109.494233 56.829495 
L 109.62679 57.061395 
L 109.759348 56.951999 
L 109.891906 57.104516 
L 110.024463 57.077478 
L 110.157021 57.493797 
L 110.289578 57.006902 
L 110.422136 57.193751 
L 110.554694 57.780092 
L 110.819809 57.57927 
L 110.952367 57.43329 
L 111.084924 57.661693 
L 111.482597 57.648224 
L 111.615155 58.319129 
L 111.88027 57.90481 
L 112.012828 58.333386 
L 112.145385 58.375385 
L 112.277943 57.798568 
L 112.410501 57.994365 
L 112.543058 58.391021 
L 112.675616 57.936598 
L 113.073289 58.496565 
L 113.338404 58.396593 
L 113.470962 58.470144 
L 113.736077 58.158258 
L 113.868635 58.377468 
L 114.001193 58.067396 
L 114.266308 58.152515 
L 114.796538 57.224518 
L 114.929096 57.585977 
L 115.459327 57.353053 
L 115.724442 56.911519 
L 115.857 57.177719 
L 116.519788 55.956363 
L 116.652345 55.723026 
L 116.917461 55.844216 
L 117.845364 54.990232 
L 117.977922 55.15888 
L 118.11048 55.033182 
L 118.243037 54.748325 
L 118.508153 54.978847 
L 118.773268 54.562962 
L 118.905825 54.934995 
L 119.170941 54.579364 
L 119.303498 54.551434 
L 119.701171 54.756577 
L 119.833729 54.605075 
L 120.098844 54.998649 
L 120.36396 54.607388 
L 120.629075 54.962626 
L 120.761632 55.208214 
L 120.89419 55.119443 
L 121.159305 55.670796 
L 121.291863 55.579255 
L 121.556978 55.722184 
L 122.087209 56.401303 
L 122.219767 56.431587 
L 122.484882 56.787913 
L 122.749997 56.984485 
L 122.882555 57.379355 
L 123.015112 57.096284 
L 123.280228 57.575152 
L 123.677901 57.978 
L 123.943016 57.876541 
L 124.075574 58.047976 
L 124.208131 57.844669 
L 124.340689 58.148296 
L 125.136035 57.445566 
L 125.268592 57.586136 
L 125.40115 57.37543 
L 125.533708 57.431957 
L 126.063938 57.001803 
L 126.329054 56.963946 
L 126.461611 55.965487 
L 126.726727 56.427116 
L 126.991842 55.762543 
L 127.1244 56.17482 
L 127.256957 55.906441 
L 127.389515 56.069937 
L 127.522072 55.503998 
L 127.65463 55.575827 
L 128.582534 54.598005 
L 128.715091 54.63174 
L 128.980207 54.158941 
L 129.112764 53.725513 
L 129.245322 54.059365 
L 129.377879 53.640351 
L 129.510437 53.635586 
L 129.642995 54.341998 
L 130.040668 53.585555 
L 130.305783 53.748517 
L 130.438341 53.544003 
L 131.233687 53.980102 
L 131.366244 53.815445 
L 131.498802 53.930523 
L 131.631359 54.334832 
L 131.763917 53.839318 
L 132.029032 54.461392 
L 132.294148 54.687044 
L 132.426705 54.784068 
L 132.559263 54.73901 
L 132.824378 54.865184 
L 132.956936 54.872842 
L 133.222051 55.219254 
L 133.619724 55.264045 
L 133.752282 55.639653 
L 133.884839 55.399448 
L 134.149955 56.08302 
L 134.282512 56.109343 
L 134.680185 56.528612 
L 134.812743 56.433744 
L 134.945301 56.510905 
L 135.210416 56.915947 
L 135.608089 57.592875 
L 135.740646 57.412878 
L 136.270877 57.747706 
L 136.66855 58.077939 
L 136.801108 58.198917 
L 136.933665 58.08447 
L 137.198781 58.174391 
L 137.331338 58.059915 
L 137.596454 58.304351 
L 137.729011 58.121125 
L 137.861569 57.646331 
L 137.994126 57.785497 
L 138.259242 57.483215 
L 138.391799 57.310512 
L 138.524357 57.446094 
L 138.92203 56.867695 
L 139.054588 56.575791 
L 139.187145 56.837897 
L 139.452261 56.04092 
L 139.584818 55.963974 
L 139.982491 55.046123 
L 140.115049 55.05447 
L 140.247606 55.254301 
L 140.777837 54.478505 
L 140.910395 54.394925 
L 141.042952 54.1442 
L 141.308068 54.220742 
L 141.970856 53.641481 
L 142.103414 53.613473 
L 142.368529 53.951654 
L 142.633644 53.984886 
L 142.766202 53.781228 
L 143.031317 54.125061 
L 143.163875 53.968594 
L 143.296432 54.279307 
L 143.42899 54.138632 
L 143.959221 54.811677 
L 144.224336 54.465015 
L 144.356893 55.010663 
L 144.489451 55.044277 
L 144.887124 55.468761 
L 145.019682 55.535275 
L 145.152239 55.444275 
L 145.284797 55.523749 
L 145.417355 55.354373 
L 145.549912 56.144196 
L 145.815028 55.831257 
L 145.947585 55.835214 
L 146.080143 56.060099 
L 146.345258 55.509032 
L 146.742931 56.142256 
L 147.405719 56.322854 
L 147.538277 56.127586 
L 147.670835 56.233517 
L 147.803392 56.613128 
L 147.93595 56.5061 
L 148.201065 56.661355 
L 148.333623 56.042436 
L 148.466181 55.96273 
L 148.598738 56.437571 
L 148.731296 55.550856 
L 148.863853 56.149788 
L 149.261526 56.2635 
L 149.394084 56.211988 
L 149.659199 55.706331 
L 149.791757 56.074773 
L 150.056872 55.351879 
L 150.321988 55.625017 
L 150.587103 55.107676 
L 150.852218 55.555038 
L 150.984776 55.449375 
L 151.780122 55.312945 
L 152.045237 55.59048 
L 152.310352 55.396419 
L 152.575468 55.674041 
L 152.708025 55.33623 
L 152.97314 55.742132 
L 153.238256 55.540899 
L 153.768486 55.5974 
L 154.298717 55.896024 
L 154.431275 55.994806 
L 154.69639 55.331307 
L 155.094063 55.878879 
L 155.491736 55.396682 
L 155.624293 55.592107 
L 156.021966 55.411423 
L 156.154524 55.758372 
L 156.419639 55.369964 
L 156.684755 55.618936 
L 156.817312 55.685142 
L 156.94987 55.498897 
L 157.082428 55.776719 
L 157.214985 55.69607 
L 157.4801 56.121307 
L 157.745216 56.2641 
L 158.010331 56.4173 
L 158.142889 56.176488 
L 158.408004 56.83057 
L 158.540562 56.520623 
L 158.673119 56.560575 
L 158.805677 57.174875 
L 159.070792 56.450022 
L 159.20335 56.8772 
L 159.335907 56.344981 
L 159.601023 57.082856 
L 159.866138 57.234548 
L 160.131253 57.270217 
L 160.263811 57.366014 
L 160.396369 56.850074 
L 160.528926 57.195964 
L 160.661484 57.181255 
L 160.794042 57.329932 
L 161.324272 56.870464 
L 161.45683 57.258504 
L 161.854503 56.836528 
L 161.98706 56.874811 
L 162.252176 56.662533 
L 162.384733 56.559384 
L 162.517291 57.082456 
L 162.782406 56.443684 
L 162.914964 56.475789 
L 163.312637 56.086796 
L 163.577752 56.490725 
L 163.975425 56.322062 
L 164.24054 56.348727 
L 164.373098 56.478346 
L 164.505656 56.227741 
L 164.770771 56.547396 
L 165.035886 56.618684 
L 165.168444 56.432826 
L 165.433559 56.53446 
L 165.566117 56.930575 
L 165.698675 56.085555 
L 165.96379 56.629977 
L 166.096347 56.574334 
L 166.361463 56.749983 
L 166.49402 56.72144 
L 166.626578 56.864971 
L 166.759136 56.5081 
L 167.156809 56.934109 
L 167.289366 56.683998 
L 167.421924 56.992061 
L 167.554482 56.920218 
L 167.819597 57.66702 
L 167.952154 57.328876 
L 168.349827 57.39466 
L 168.7475 57.683638 
L 168.880058 58.032646 
L 169.012616 57.939923 
L 169.145173 58.00535 
L 169.410289 57.720037 
L 169.542846 58.138058 
L 169.675404 58.044269 
L 169.807962 58.380745 
L 169.940519 58.235414 
L 170.205634 58.293336 
L 170.338192 58.150224 
L 170.603307 58.349897 
L 170.868423 58.334288 
L 171.00098 57.993562 
L 171.266096 58.31678 
L 171.398653 58.368084 
L 171.663769 58.107231 
L 171.796326 57.856488 
L 171.928884 58.193889 
L 172.061442 57.705207 
L 172.193999 58.075323 
L 172.326557 58.034401 
L 172.459114 58.126295 
L 172.856787 57.733278 
L 172.989345 57.45908 
L 173.25446 57.455192 
L 173.387018 57.176799 
L 173.519576 57.251578 
L 174.049806 56.69922 
L 174.182364 56.249368 
L 174.314922 56.491465 
L 174.712594 56.234433 
L 175.110267 55.931692 
L 175.375383 55.62696 
L 175.905613 55.445612 
L 176.170729 55.272042 
L 176.435844 55.547256 
L 176.568401 55.543342 
L 176.700959 55.351565 
L 176.966074 55.513759 
L 177.23119 55.3412 
L 177.363747 55.782222 
L 177.628863 55.614792 
L 178.026536 55.781236 
L 178.159093 55.68977 
L 178.424209 56.248956 
L 178.689324 56.342929 
L 179.086997 56.540241 
L 179.219554 56.615928 
L 179.352112 56.561109 
L 179.48467 57.18216 
L 179.617227 57.037225 
L 180.147458 57.460425 
L 180.280016 57.197807 
L 180.412573 57.239872 
L 180.677689 57.73394 
L 181.340477 58.190756 
L 181.473034 57.968835 
L 181.605592 58.547259 
L 181.73815 58.391455 
L 182.003265 58.777374 
L 182.135823 58.532422 
L 182.26838 57.827804 
L 182.533496 58.435656 
L 182.666053 58.037305 
L 182.931169 58.238721 
L 183.196284 58.135156 
L 183.328841 58.086268 
L 183.461399 58.252522 
L 183.726514 57.759373 
L 183.859072 57.996735 
L 183.99163 57.781147 
L 184.124187 57.798888 
L 184.256745 57.696308 
L 184.389303 57.939061 
L 184.52186 57.62513 
L 184.786976 57.919328 
L 185.052091 57.601336 
L 185.184648 57.658609 
L 185.449764 57.38488 
L 185.582321 57.442817 
L 185.714879 57.232216 
L 185.847437 57.584338 
L 186.642783 56.606775 
L 186.77534 56.769879 
L 187.040456 56.651409 
L 187.835801 55.930038 
L 187.968359 56.292134 
L 188.233474 55.947039 
L 188.366032 55.851976 
L 188.631147 55.244566 
L 188.763705 55.271145 
L 188.896263 55.514065 
L 189.02882 55.201495 
L 189.293936 55.433057 
L 189.559051 55.21251 
L 189.691608 55.189047 
L 189.824166 54.956227 
L 189.956724 54.951598 
L 190.089281 55.424487 
L 190.354397 55.015403 
L 190.619512 55.35224 
L 190.884627 54.980427 
L 191.2823 55.698663 
L 191.547415 55.821963 
L 192.077646 56.195035 
L 192.342761 56.822078 
L 192.607877 57.131912 
L 192.740434 57.285141 
L 192.872992 56.946743 
L 193.00555 57.068987 
L 193.138107 57.638946 
L 193.270665 57.41784 
L 193.668338 57.937393 
L 193.933453 58.010648 
L 194.066011 58.311957 
L 194.198568 58.331534 
L 194.331126 57.956487 
L 194.596241 58.453048 
L 194.596241 58.453048 
" clip-path="url(#p43c3bf4e92)" style="fill: none; stroke: #ff0000; stroke-width: 0.8; stroke-linecap: square"/>
   </g>
   <g id="patch_3">
    <path d="M 59.52 129.12 
L 59.52 25.44 
" style="fill: none; stroke: #000000; stroke-width: 0.8; stroke-linejoin: miter; stroke-linecap: square"/>
   </g>
   <g id="patch_4">
    <path d="M 197.379952 129.12 
L 197.379952 25.44 
" style="fill: none; stroke: #000000; stroke-width: 0.8; stroke-linejoin: miter; stroke-linecap: square"/>
   </g>
   <g id="patch_5">
    <path d="M 59.52 129.12 
L 197.379952 129.12 
" style="fill: none; stroke: #000000; stroke-width: 0.8; stroke-linejoin: miter; stroke-linecap: square"/>
   </g>
   <g id="patch_6">
    <path d="M 59.52 25.44 
L 197.379952 25.44 
" style="fill: none; stroke: #000000; stroke-width: 0.8; stroke-linejoin: miter; stroke-linecap: square"/>
   </g>
   <g id="text_10">
    <!-- Time Domain Plot -->
    <g transform="translate(75.365913 19.44) scale(0.12 -0.12)">
     <defs>
      <path id="DejaVuSans-44" d="M 1259 4147 
L 1259 519 
L 2022 519 
Q 2988 519 3436 956 
Q 3884 1394 3884 2338 
Q 3884 3275 3436 3711 
Q 2988 4147 2022 4147 
L 1259 4147 
z
M 628 4666 
L 1925 4666 
Q 3281 4666 3915 4102 
Q 4550 3538 4550 2338 
Q 4550 1131 3912 565 
Q 3275 0 1925 0 
L 628 0 
L 628 4666 
z
" transform="scale(0.015625)"/>
      <path id="DejaVuSans-6f" d="M 1959 3097 
Q 1497 3097 1228 2736 
Q 959 2375 959 1747 
Q 959 1119 1226 758 
Q 1494 397 1959 397 
Q 2419 397 2687 759 
Q 2956 1122 2956 1747 
Q 2956 2369 2687 2733 
Q 2419 3097 1959 3097 
z
M 1959 3584 
Q 2709 3584 3137 3096 
Q 3566 2609 3566 1747 
Q 3566 888 3137 398 
Q 2709 -91 1959 -91 
Q 1206 -91 779 398 
Q 353 888 353 1747 
Q 353 2609 779 3096 
Q 1206 3584 1959 3584 
z
" transform="scale(0.015625)"/>
      <path id="DejaVuSans-61" d="M 2194 1759 
Q 1497 1759 1228 1600 
Q 959 1441 959 1056 
Q 959 750 1161 570 
Q 1363 391 1709 391 
Q 2188 391 2477 730 
Q 2766 1069 2766 1631 
L 2766 1759 
L 2194 1759 
z
M 3341 1997 
L 3341 0 
L 2766 0 
L 2766 531 
Q 2569 213 2275 61 
Q 1981 -91 1556 -91 
Q 1019 -91 701 211 
Q 384 513 384 1019 
Q 384 1609 779 1909 
Q 1175 2209 1959 2209 
L 2766 2209 
L 2766 2266 
Q 2766 2663 2505 2880 
Q 2244 3097 1772 3097 
Q 1472 3097 1187 3025 
Q 903 2953 641 2809 
L 641 3341 
Q 956 3463 1253 3523 
Q 1550 3584 1831 3584 
Q 2591 3584 2966 3190 
Q 3341 2797 3341 1997 
z
" transform="scale(0.015625)"/>
      <path id="DejaVuSans-6e" d="M 3513 2113 
L 3513 0 
L 2938 0 
L 2938 2094 
Q 2938 2591 2744 2837 
Q 2550 3084 2163 3084 
Q 1697 3084 1428 2787 
Q 1159 2491 1159 1978 
L 1159 0 
L 581 0 
L 581 3500 
L 1159 3500 
L 1159 2956 
Q 1366 3272 1645 3428 
Q 1925 3584 2291 3584 
Q 2894 3584 3203 3211 
Q 3513 2838 3513 2113 
z
" transform="scale(0.015625)"/>
      <path id="DejaVuSans-50" d="M 1259 4147 
L 1259 2394 
L 2053 2394 
Q 2494 2394 2734 2622 
Q 2975 2850 2975 3272 
Q 2975 3691 2734 3919 
Q 2494 4147 2053 4147 
L 1259 4147 
z
M 628 4666 
L 2053 4666 
Q 2838 4666 3239 4311 
Q 3641 3956 3641 3272 
Q 3641 2581 3239 2228 
Q 2838 1875 2053 1875 
L 1259 1875 
L 1259 0 
L 628 0 
L 628 4666 
z
" transform="scale(0.015625)"/>
     </defs>
     <use xlink:href="#DejaVuSans-54"/>
     <use xlink:href="#DejaVuSans-69" x="57.958984"/>
     <use xlink:href="#DejaVuSans-6d" x="85.742188"/>
     <use xlink:href="#DejaVuSans-65" x="183.154297"/>
     <use xlink:href="#DejaVuSans-20" x="244.677734"/>
     <use xlink:href="#DejaVuSans-44" x="276.464844"/>
     <use xlink:href="#DejaVuSans-6f" x="353.466797"/>
     <use xlink:href="#DejaVuSans-6d" x="414.648438"/>
     <use xlink:href="#DejaVuSans-61" x="512.060547"/>
     <use xlink:href="#DejaVuSans-69" x="573.339844"/>
     <use xlink:href="#DejaVuSans-6e" x="601.123047"/>
     <use xlink:href="#DejaVuSans-20" x="664.501953"/>
     <use xlink:href="#DejaVuSans-50" x="696.289062"/>
     <use xlink:href="#DejaVuSans-6c" x="756.591797"/>
     <use xlink:href="#DejaVuSans-6f" x="784.375"/>
     <use xlink:href="#DejaVuSans-74" x="845.556641"/>
    </g>
   </g>
   <g id="patch_7">
    <path d="M 140.386792 57.900675 
L 169.403661 57.900675 
L 169.403661 52.760274 
L 140.386792 52.760274 
L 140.386792 57.900675 
z
" clip-path="url(#p43c3bf4e92)" style="fill: none; opacity: 0.8; stroke: #000000; stroke-width: 1.2; stroke-linejoin: miter"/>
   </g>
   <g id="patch_8">
    <path d="M 100.877986 66.912 
Q 120.632389 59.836137 140.386792 52.760274 
" style="fill: none; opacity: 0.8; stroke: #000000; stroke-linecap: round"/>
   </g>
   <g id="patch_9">
    <path d="M 183.593957 66.912 
Q 176.498809 59.836137 169.403661 52.760274 
" style="fill: none; opacity: 0.8; stroke: #000000; stroke-linecap: round"/>
   </g>
   <g id="axes_2">
    <g id="patch_10">
     <path d="M 100.877986 108.384 
L 183.593957 108.384 
L 183.593957 66.912 
L 100.877986 66.912 
z
" style="fill: #ffffff"/>
    </g>
    <g id="matplotlib.axis_3">
     <g id="xtick_4">
      <g id="line2d_11">
       <g>
        <use xlink:href="#mbd1b0993fd" x="101.022018" y="108.384" style="stroke: #000000; stroke-width: 0.8"/>
       </g>
      </g>
      <g id="text_11">
       <!-- 1.3 -->
       <g transform="translate(93.070456 122.982438) scale(0.1 -0.1)">
        <defs>
         <path id="DejaVuSans-33" d="M 2597 2516 
Q 3050 2419 3304 2112 
Q 3559 1806 3559 1356 
Q 3559 666 3084 287 
Q 2609 -91 1734 -91 
Q 1441 -91 1130 -33 
Q 819 25 488 141 
L 488 750 
Q 750 597 1062 519 
Q 1375 441 1716 441 
Q 2309 441 2620 675 
Q 2931 909 2931 1356 
Q 2931 1769 2642 2001 
Q 2353 2234 1838 2234 
L 1294 2234 
L 1294 2753 
L 1863 2753 
Q 2328 2753 2575 2939 
Q 2822 3125 2822 3475 
Q 2822 3834 2567 4026 
Q 2313 4219 1838 4219 
Q 1578 4219 1281 4162 
Q 984 4106 628 3988 
L 628 4550 
Q 988 4650 1302 4700 
Q 1616 4750 1894 4750 
Q 2613 4750 3031 4423 
Q 3450 4097 3450 3541 
Q 3450 3153 3228 2886 
Q 3006 2619 2597 2516 
z
" transform="scale(0.015625)"/>
        </defs>
        <use xlink:href="#DejaVuSans-31"/>
        <use xlink:href="#DejaVuSans-2e" x="63.623047"/>
        <use xlink:href="#DejaVuSans-33" x="95.410156"/>
       </g>
      </g>
     </g>
     <g id="xtick_5">
      <g id="line2d_12">
       <g>
        <use xlink:href="#mbd1b0993fd" x="183.305891" y="108.384" style="stroke: #000000; stroke-width: 0.8"/>
       </g>
      </g>
      <g id="text_12">
       <!-- 1.4 -->
       <g transform="translate(175.354329 122.982438) scale(0.1 -0.1)">
        <use xlink:href="#DejaVuSans-31"/>
        <use xlink:href="#DejaVuSans-2e" x="63.623047"/>
        <use xlink:href="#DejaVuSans-34" x="95.410156"/>
       </g>
      </g>
     </g>
    </g>
    <g id="matplotlib.axis_4">
     <g id="ytick_5">
      <g id="line2d_13">
       <g>
        <use xlink:href="#m645318092c" x="100.877986" y="95.407228" style="stroke: #000000; stroke-width: 0.8"/>
       </g>
      </g>
      <g id="text_13">
       <!-- 0 -->
       <g transform="translate(87.515486 99.206447) scale(0.1 -0.1)">
        <use xlink:href="#DejaVuSans-30"/>
       </g>
      </g>
     </g>
     <g id="ytick_6">
      <g id="line2d_14">
       <g>
        <use xlink:href="#m645318092c" x="100.877986" y="72.453306" style="stroke: #000000; stroke-width: 0.8"/>
       </g>
      </g>
      <g id="text_14">
       <!-- 2 -->
       <g transform="translate(87.515486 76.252525) scale(0.1 -0.1)">
        <use xlink:href="#DejaVuSans-32"/>
       </g>
      </g>
     </g>
    </g>
    <g id="line2d_15">
     <path d="M 101.289508 74.763276 
L 102.524075 71.0605 
L 102.935597 70.201576 
L 103.758641 69.207392 
L 104.581686 69.932085 
L 104.993208 70.62315 
L 106.639297 76.820225 
L 107.462341 81.527547 
L 108.285386 85.308156 
L 109.519953 88.022513 
L 109.931475 88.424014 
L 110.342997 89.310532 
L 110.754519 89.277464 
L 111.166042 88.970317 
L 111.577564 89.061379 
L 112.400608 89.743265 
L 113.223653 91.499707 
L 114.046697 92.351618 
L 114.45822 92.782014 
L 114.869742 92.675475 
L 115.281264 92.684216 
L 115.692786 91.502409 
L 116.515831 90.664637 
L 116.927353 90.391865 
L 117.338875 90.620273 
L 117.750398 90.995757 
L 118.984964 93.509265 
L 119.396487 95.039886 
L 120.219531 97.328794 
L 120.631053 98.711206 
L 121.042576 99.605607 
L 121.86562 99.742468 
L 122.277142 99.46122 
L 122.688665 98.951677 
L 123.100187 97.881833 
L 123.511709 97.180156 
L 123.923231 96.942686 
L 124.334754 96.36552 
L 125.157798 93.091359 
L 126.392365 88.338509 
L 126.803887 86.778189 
L 127.215409 86.283942 
L 127.626931 86.36484 
L 128.861498 85.980109 
L 129.27302 86.072887 
L 129.684543 86.526896 
L 130.096065 85.949677 
L 130.507587 86.167824 
L 130.919109 86.569915 
L 131.330632 87.542716 
L 131.742154 87.945423 
L 132.153676 88.73806 
L 132.565198 89.180146 
L 132.976721 88.99925 
L 133.388243 89.01111 
L 134.62281 87.763595 
L 135.034332 87.140285 
L 135.857376 85.201959 
L 136.268899 85.288604 
L 136.680421 85.989559 
L 137.091943 86.232809 
L 137.503465 86.136467 
L 137.914988 86.614038 
L 138.32651 88.09626 
L 139.149554 90.407377 
L 140.384121 91.962018 
L 140.795643 91.913861 
L 141.618688 90.143357 
L 142.03021 89.994895 
L 142.441732 90.122414 
L 142.853255 90.004155 
L 144.087821 88.167907 
L 144.499343 88.159737 
L 146.145432 86.794683 
L 146.556955 86.247715 
L 147.379999 87.220464 
L 147.791521 87.871724 
L 149.026088 90.576067 
L 150.672177 94.108126 
L 151.083699 94.507767 
L 151.495222 94.541561 
L 151.906744 95.140148 
L 152.318266 96.00785 
L 152.729788 96.37922 
L 153.964355 99.573751 
L 154.7874 102.336694 
L 155.198922 102.219165 
L 155.610444 101.518763 
L 156.433489 101.991055 
L 156.845011 102.682499 
L 157.256533 102.99095 
L 157.668055 103.514054 
L 158.079578 103.712636 
L 158.4911 103.387975 
L 158.902622 103.757319 
L 159.314144 103.74278 
L 159.725667 103.528695 
L 160.137189 102.662925 
L 160.548711 102.367768 
L 161.371756 99.960604 
L 161.783278 99.328344 
L 162.606322 99.032176 
L 163.017845 99.307115 
L 163.429367 99.250789 
L 164.252411 98.78294 
L 164.663933 97.737051 
L 165.8985 96.792228 
L 166.310022 96.136185 
L 166.721545 95.894307 
L 167.133067 95.339706 
L 167.956111 93.596467 
L 168.779156 92.249011 
L 169.190678 91.878446 
L 170.013723 92.850222 
L 170.425245 93.012252 
L 170.836767 93.414431 
L 171.248289 94.735599 
L 171.659812 95.659412 
L 172.071334 96.241539 
L 172.894378 96.741645 
L 173.305901 97.339341 
L 174.540467 95.957229 
L 175.363512 96.286661 
L 175.775034 96.089048 
L 176.186556 96.471362 
L 176.598079 97.521364 
L 177.009601 97.488051 
L 177.421123 96.918708 
L 177.832645 96.74395 
L 178.244168 96.779525 
L 178.65569 96.628136 
L 179.067212 96.300362 
L 179.478734 96.459321 
L 179.890257 97.371403 
L 180.713301 97.136118 
L 181.536346 97.912284 
L 181.947868 98.4134 
L 183.182434 101.30713 
L 183.182434 101.30713 
" clip-path="url(#p95366eaac3)" style="fill: none; stroke: #1e90ff; stroke-linecap: square"/>
    </g>
    <g id="line2d_16">
     <path d="M 101.289508 75.098073 
L 101.70103 74.610202 
L 102.524075 74.096994 
L 102.935597 76.542727 
L 103.347119 76.765999 
L 104.170164 77.028277 
L 104.581686 75.420953 
L 105.40473 78.134577 
L 105.816253 76.899694 
L 106.227775 79.351925 
L 106.639297 78.241677 
L 107.873864 83.168072 
L 108.285386 83.553523 
L 108.696908 81.217208 
L 109.10843 80.817579 
L 109.519953 85.123964 
L 109.931475 85.389255 
L 110.342997 86.756173 
L 110.754519 87.01028 
L 111.166042 88.739394 
L 111.577564 89.264341 
L 111.989086 88.546146 
L 112.400608 89.17337 
L 112.812131 87.836613 
L 113.223653 94.070097 
L 114.046697 91.600299 
L 114.45822 91.631531 
L 114.869742 93.406384 
L 115.281264 89.875834 
L 115.692786 89.057225 
L 116.104309 90.888233 
L 116.515831 91.477942 
L 116.927353 94.054782 
L 117.338875 94.389366 
L 117.750398 94.007907 
L 118.573442 95.403293 
L 118.984964 95.48011 
L 119.396487 93.939007 
L 119.808009 94.775043 
L 120.219531 97.771023 
L 120.631053 96.926331 
L 121.042576 98.052013 
L 121.454098 98.151642 
L 121.86562 93.266982 
L 122.277142 92.637923 
L 122.688665 96.385485 
L 123.100187 89.387311 
L 123.511709 94.114232 
L 123.923231 94.47566 
L 124.334754 95.097291 
L 124.746276 95.011673 
L 125.157798 94.605124 
L 125.980842 90.614352 
L 126.392365 93.522194 
L 127.215409 87.816934 
L 127.626931 89.50483 
L 128.038454 89.972602 
L 128.449976 88.216056 
L 128.861498 85.889617 
L 129.27302 87.21759 
L 129.684543 89.420312 
L 130.096065 88.586392 
L 130.507587 88.404251 
L 130.919109 88.965789 
L 131.330632 88.061725 
L 131.742154 88.287556 
L 132.565198 87.509652 
L 132.976721 89.177045 
L 133.388243 89.70003 
L 133.799765 88.626447 
L 134.211287 88.168455 
L 134.62281 89.009717 
L 135.034332 90.359514 
L 135.445854 87.693425 
L 135.857376 88.802896 
L 136.268899 90.896903 
L 136.680421 89.724793 
L 137.091943 89.308726 
L 137.503465 89.225036 
L 137.914988 89.669699 
L 138.32651 89.792813 
L 138.738032 89.754647 
L 139.149554 90.130233 
L 139.561077 90.248897 
L 139.972599 90.968369 
L 140.384121 92.111462 
L 140.795643 92.891074 
L 141.207166 89.002034 
L 141.618688 87.654572 
L 142.441732 91.318938 
L 142.853255 91.976144 
L 143.264777 90.197783 
L 143.676299 89.610941 
L 144.087821 88.170525 
L 144.499343 89.712874 
L 144.910866 89.392145 
L 145.73391 88.28687 
L 146.145432 91.025077 
L 146.968477 87.959662 
L 147.379999 89.52237 
L 148.203044 90.44713 
L 148.614566 88.977234 
L 149.026088 91.169873 
L 149.43761 90.533375 
L 149.849133 92.760016 
L 150.260655 93.889447 
L 150.672177 94.039741 
L 151.495222 95.7269 
L 151.906744 96.225503 
L 152.318266 94.324952 
L 152.729788 98.328045 
L 153.141311 99.487135 
L 153.552833 97.040955 
L 153.964355 97.356262 
L 154.375877 102.204475 
L 154.7874 100.26325 
L 155.198922 96.483752 
L 155.610444 99.855145 
L 156.021966 95.65474 
L 156.433489 100.550648 
L 157.256533 102.480562 
L 157.668055 102.675432 
L 158.079578 102.695658 
L 158.4911 102.956939 
L 158.902622 103.712995 
L 159.314144 99.641063 
L 159.725667 102.370911 
L 160.137189 102.254826 
L 160.548711 103.428227 
L 161.371756 101.24929 
L 161.783278 100.028418 
L 162.1948 99.801984 
L 162.606322 102.864493 
L 163.429367 100.038376 
L 163.840889 99.534157 
L 164.252411 99.83629 
L 164.663933 98.450266 
L 165.075456 98.160941 
L 165.486978 97.346863 
L 165.8985 101.47508 
L 166.310022 98.506813 
L 166.721545 96.433729 
L 167.133067 96.687112 
L 167.544589 95.54144 
L 167.956111 95.027056 
L 168.367634 93.617081 
L 168.779156 94.988758 
L 169.190678 96.804987 
L 170.013723 95.363292 
L 171.248289 95.684305 
L 171.659812 96.707296 
L 172.071334 94.729454 
L 172.482856 96.6535 
L 172.894378 97.252255 
L 173.305901 97.292713 
L 173.717423 97.814878 
L 174.128945 96.348033 
L 174.95199 97.150162 
L 175.363512 100.276393 
L 175.775034 93.607285 
L 176.186556 97.154926 
L 176.598079 97.904003 
L 177.009601 97.464851 
L 177.421123 98.505229 
L 177.832645 98.85112 
L 178.244168 98.625854 
L 178.65569 99.758636 
L 179.067212 96.942117 
L 179.478734 98.453638 
L 179.890257 98.977048 
L 180.301779 100.304291 
L 180.713301 98.330347 
L 181.124823 100.761664 
L 181.536346 100.194661 
L 181.947868 102.552992 
L 182.35939 106.088608 
L 182.770912 103.419888 
L 183.182434 103.424602 
L 183.182434 103.424602 
" clip-path="url(#p95366eaac3)" style="fill: none; stroke: #ff0000; stroke-width: 0.8; stroke-linecap: square"/>
    </g>
    <g id="line2d_17">
     <path d="M 101.289508 61.752865 
L 101.856791 181 
M 104.491367 181 
L 104.581686 87.254671 
L 104.882919 -1 
M 107.071258 -1 
L 107.873864 71.588167 
L 108.42348 181 
M 111.085255 181 
L 111.166042 103.430387 
L 111.613288 -1 
M 113.216602 -1 
L 113.223653 -0.679563 
L 114.046697 51.72581 
L 114.45822 82.790488 
L 115.054702 181 
M 117.662689 181 
L 117.750398 112.939889 
L 118.057282 -1 
M 120.2733 -1 
L 121.042576 84.442794 
L 121.452032 181 
M 124.281374 181 
L 124.334754 116.251443 
L 124.677758 -1 
M 126.874543 -1 
L 127.626931 72.624192 
L 128.11923 181 
M 130.852661 181 
L 130.919109 108.784677 
L 131.211471 -1 
M 133.536447 -1 
L 134.211287 72.940373 
L 134.659493 181 
M 137.439859 181 
L 137.503465 102.366994 
L 137.879453 -1 
M 139.736673 -1 
L 140.384121 46.362083 
L 140.795643 80.698997 
L 141.34957 181 
M 143.999908 181 
L 144.087821 101.834723 
L 144.579944 -1 
M 146.128571 -1 
L 146.145432 -0.327809 
L 146.968477 48.299151 
L 147.379999 77.777057 
L 148.028109 181 
M 150.581425 181 
L 150.672177 114.474699 
L 151.006436 -1 
M 153.119512 -1 
L 153.552833 41.084085 
L 153.964355 85.500986 
L 154.391599 181 
M 157.20653 181 
L 157.256533 125.275034 
L 157.590787 -1 
M 159.736709 -1 
L 160.548711 86.970061 
L 160.946998 181 
M 163.787159 181 
L 163.840889 114.208551 
L 164.334156 -1 
M 165.886648 -1 
L 165.8985 -0.46633 
L 166.721545 53.029914 
L 167.133067 84.797628 
L 167.697426 181 
M 170.345145 181 
L 170.425245 115.181741 
L 170.734135 -1 
M 172.964268 -1 
L 173.717423 81.599696 
L 174.135323 181 
M 176.958005 181 
L 177.009601 117.878456 
L 177.350985 -1 
M 179.469172 -1 
L 179.890257 40.084214 
L 180.301779 83.206039 
L 180.74316 181 
L 180.74316 181 
" clip-path="url(#p95366eaac3)" style="fill: none; stroke: #808080; stroke-width: 0.2; stroke-linecap: square"/>
    </g>
    <g id="patch_11">
     <path d="M 100.877986 108.384 
L 100.877986 66.912 
" style="fill: none; stroke: #000000; stroke-width: 0.8; stroke-linejoin: miter; stroke-linecap: square"/>
    </g>
    <g id="patch_12">
     <path d="M 183.593957 108.384 
L 183.593957 66.912 
" style="fill: none; stroke: #000000; stroke-width: 0.8; stroke-linejoin: miter; stroke-linecap: square"/>
    </g>
    <g id="patch_13">
     <path d="M 100.877986 108.384 
L 183.593957 108.384 
" style="fill: none; stroke: #000000; stroke-width: 0.8; stroke-linejoin: miter; stroke-linecap: square"/>
    </g>
    <g id="patch_14">
     <path d="M 100.877986 66.912 
L 183.593957 66.912 
" style="fill: none; stroke: #000000; stroke-width: 0.8; stroke-linejoin: miter; stroke-linecap: square"/>
    </g>
   </g>
   <g id="legend_1">
    <g id="patch_15">
     <path d="M 20.262014 158.724 
L 51.130139 158.724 
Q 51.730139 158.724 51.730139 158.124 
L 51.730139 145.213687 
Q 51.730139 144.613687 51.130139 144.613687 
L 20.262014 144.613687 
Q 19.662014 144.613687 19.662014 145.213687 
L 19.662014 158.124 
Q 19.662014 158.724 20.262014 158.724 
z
" style="fill: #ffffff; opacity: 0.8; stroke: #cccccc; stroke-linejoin: miter"/>
    </g>
    <g id="line2d_18">
     <path d="M 20.862014 147.043219 
L 23.862014 147.043219 
L 26.862014 147.043219 
" style="fill: none; stroke: #808080; stroke-width: 0.7; stroke-linecap: square"/>
    </g>
    <g id="text_15">
     <!-- Contaminated -->
     <g transform="translate(29.262014 148.093219) scale(0.03 -0.03)">
      <defs>
       <path id="DejaVuSans-43" d="M 4122 4306 
L 4122 3641 
Q 3803 3938 3442 4084 
Q 3081 4231 2675 4231 
Q 1875 4231 1450 3742 
Q 1025 3253 1025 2328 
Q 1025 1406 1450 917 
Q 1875 428 2675 428 
Q 3081 428 3442 575 
Q 3803 722 4122 1019 
L 4122 359 
Q 3791 134 3420 21 
Q 3050 -91 2638 -91 
Q 1578 -91 968 557 
Q 359 1206 359 2328 
Q 359 3453 968 4101 
Q 1578 4750 2638 4750 
Q 3056 4750 3426 4639 
Q 3797 4528 4122 4306 
z
" transform="scale(0.015625)"/>
      </defs>
      <use xlink:href="#DejaVuSans-43"/>
      <use xlink:href="#DejaVuSans-6f" x="69.824219"/>
      <use xlink:href="#DejaVuSans-6e" x="131.005859"/>
      <use xlink:href="#DejaVuSans-74" x="194.384766"/>
      <use xlink:href="#DejaVuSans-61" x="233.59375"/>
      <use xlink:href="#DejaVuSans-6d" x="294.873047"/>
      <use xlink:href="#DejaVuSans-69" x="392.285156"/>
      <use xlink:href="#DejaVuSans-6e" x="420.068359"/>
      <use xlink:href="#DejaVuSans-61" x="483.447266"/>
      <use xlink:href="#DejaVuSans-74" x="544.726562"/>
      <use xlink:href="#DejaVuSans-65" x="583.935547"/>
      <use xlink:href="#DejaVuSans-64" x="645.458984"/>
     </g>
    </g>
    <g id="line2d_19">
     <path d="M 20.862014 151.446656 
L 23.862014 151.446656 
L 26.862014 151.446656 
" style="fill: none; stroke: #1e90ff; stroke-linecap: square"/>
    </g>
    <g id="text_16">
     <!-- Clean -->
     <g transform="translate(29.262014 152.496656) scale(0.03 -0.03)">
      <use xlink:href="#DejaVuSans-43"/>
      <use xlink:href="#DejaVuSans-6c" x="69.824219"/>
      <use xlink:href="#DejaVuSans-65" x="97.607422"/>
      <use xlink:href="#DejaVuSans-61" x="159.130859"/>
      <use xlink:href="#DejaVuSans-6e" x="220.410156"/>
     </g>
    </g>
    <g id="line2d_20">
     <path d="M 20.862014 155.850094 
L 23.862014 155.850094 
L 26.862014 155.850094 
" style="fill: none; stroke: #ff0000; stroke-width: 0.8; stroke-linecap: square"/>
    </g>
    <g id="text_17">
     <!-- SACed -->
     <g transform="translate(29.262014 156.900094) scale(0.03 -0.03)">
      <defs>
       <path id="DejaVuSans-53" d="M 3425 4513 
L 3425 3897 
Q 3066 4069 2747 4153 
Q 2428 4238 2131 4238 
Q 1616 4238 1336 4038 
Q 1056 3838 1056 3469 
Q 1056 3159 1242 3001 
Q 1428 2844 1947 2747 
L 2328 2669 
Q 3034 2534 3370 2195 
Q 3706 1856 3706 1288 
Q 3706 609 3251 259 
Q 2797 -91 1919 -91 
Q 1588 -91 1214 -16 
Q 841 59 441 206 
L 441 856 
Q 825 641 1194 531 
Q 1563 422 1919 422 
Q 2459 422 2753 634 
Q 3047 847 3047 1241 
Q 3047 1584 2836 1778 
Q 2625 1972 2144 2069 
L 1759 2144 
Q 1053 2284 737 2584 
Q 422 2884 422 3419 
Q 422 4038 858 4394 
Q 1294 4750 2059 4750 
Q 2388 4750 2728 4690 
Q 3069 4631 3425 4513 
z
" transform="scale(0.015625)"/>
      </defs>
      <use xlink:href="#DejaVuSans-53"/>
      <use xlink:href="#DejaVuSans-41" x="65.351562"/>
      <use xlink:href="#DejaVuSans-43" x="132.009766"/>
      <use xlink:href="#DejaVuSans-65" x="201.833984"/>
      <use xlink:href="#DejaVuSans-64" x="263.357422"/>
     </g>
    </g>
   </g>
  </g>
 </g>
 <defs>
  <clipPath id="p43c3bf4e92">
   <rect x="59.52" y="25.44" width="137.859952" height="103.68"/>
  </clipPath>
  <clipPath id="p95366eaac3">
   <rect x="100.877986" y="66.912" width="82.715971" height="41.472"/>
  </clipPath>
 </defs>
</svg>
