<?xml version="1.0" encoding="utf-8" standalone="no"?>
<!DOCTYPE svg PUBLIC "-//W3C//DTD SVG 1.1//EN"
  "http://www.w3.org/Graphics/SVG/1.1/DTD/svg11.dtd">
<svg xmlns:xlink="http://www.w3.org/1999/xlink" width="216pt" height="180pt" viewBox="0 0 216 180" xmlns="http://www.w3.org/2000/svg" version="1.1">
 <metadata>
  <rdf:RDF xmlns:dc="http://purl.org/dc/elements/1.1/" xmlns:cc="http://creativecommons.org/ns#" xmlns:rdf="http://www.w3.org/1999/02/22-rdf-syntax-ns#">
   <cc:Work>
    <dc:type rdf:resource="http://purl.org/dc/dcmitype/StillImage"/>
    <dc:date>2024-09-11T18:45:59.702272</dc:date>
    <dc:format>image/svg+xml</dc:format>
    <dc:creator>
     <cc:Agent>
      <dc:title>Matplotlib v3.9.1, https://matplotlib.org/</dc:title>
     </cc:Agent>
    </dc:creator>
   </cc:Work>
  </rdf:RDF>
 </metadata>
 <defs>
  <style type="text/css">*{stroke-linejoin: round; stroke-linecap: butt}</style>
 </defs>
 <g id="figure_1">
  <g id="patch_1">
   <path d="M 0 180 
L 216 180 
L 216 0 
L 0 0 
z
" style="fill: #ffffff"/>
  </g>
  <g id="axes_1">
   <g id="patch_2">
    <path d="M 59.52 129.12 
L 195.75 129.12 
L 195.75 26.88 
L 59.52 26.88 
z
" style="fill: #ffffff"/>
   </g>
   <g id="matplotlib.axis_1">
    <g id="xtick_1">
     <g id="line2d_1">
      <defs>
       <path id="m98c6a33eb2" d="M 0 0 
L 0 3.5 
" style="stroke: #000000; stroke-width: 0.8"/>
      </defs>
      <g>
       <use xlink:href="#m98c6a33eb2" x="59.52" y="129.12" style="stroke: #000000; stroke-width: 0.8"/>
      </g>
     </g>
     <g id="text_1">
      <!-- 0 -->
      <g transform="translate(56.33875 143.718437) scale(0.1 -0.1)">
       <defs>
        <path id="DejaVuSans-30" d="M 2034 4250 
Q 1547 4250 1301 3770 
Q 1056 3291 1056 2328 
Q 1056 1369 1301 889 
Q 1547 409 2034 409 
Q 2525 409 2770 889 
Q 3016 1369 3016 2328 
Q 3016 3291 2770 3770 
Q 2525 4250 2034 4250 
z
M 2034 4750 
Q 2819 4750 3233 4129 
Q 3647 3509 3647 2328 
Q 3647 1150 3233 529 
Q 2819 -91 2034 -91 
Q 1250 -91 836 529 
Q 422 1150 422 2328 
Q 422 3509 836 4129 
Q 1250 4750 2034 4750 
z
" transform="scale(0.015625)"/>
       </defs>
       <use xlink:href="#DejaVuSans-30"/>
      </g>
     </g>
    </g>
    <g id="xtick_2">
     <g id="line2d_2">
      <g>
       <use xlink:href="#m98c6a33eb2" x="127.635" y="129.12" style="stroke: #000000; stroke-width: 0.8"/>
      </g>
     </g>
     <g id="text_2">
      <!-- 150 -->
      <g transform="translate(118.09125 143.718437) scale(0.1 -0.1)">
       <defs>
        <path id="DejaVuSans-31" d="M 794 531 
L 1825 531 
L 1825 4091 
L 703 3866 
L 703 4441 
L 1819 4666 
L 2450 4666 
L 2450 531 
L 3481 531 
L 3481 0 
L 794 0 
L 794 531 
z
" transform="scale(0.015625)"/>
        <path id="DejaVuSans-35" d="M 691 4666 
L 3169 4666 
L 3169 4134 
L 1269 4134 
L 1269 2991 
Q 1406 3038 1543 3061 
Q 1681 3084 1819 3084 
Q 2600 3084 3056 2656 
Q 3513 2228 3513 1497 
Q 3513 744 3044 326 
Q 2575 -91 1722 -91 
Q 1428 -91 1123 -41 
Q 819 9 494 109 
L 494 744 
Q 775 591 1075 516 
Q 1375 441 1709 441 
Q 2250 441 2565 725 
Q 2881 1009 2881 1497 
Q 2881 1984 2565 2268 
Q 2250 2553 1709 2553 
Q 1456 2553 1204 2497 
Q 953 2441 691 2322 
L 691 4666 
z
" transform="scale(0.015625)"/>
       </defs>
       <use xlink:href="#DejaVuSans-31"/>
       <use xlink:href="#DejaVuSans-35" x="63.623047"/>
       <use xlink:href="#DejaVuSans-30" x="127.246094"/>
      </g>
     </g>
    </g>
    <g id="xtick_3">
     <g id="line2d_3">
      <g>
       <use xlink:href="#m98c6a33eb2" x="195.75" y="129.12" style="stroke: #000000; stroke-width: 0.8"/>
      </g>
     </g>
     <g id="text_3">
      <!-- 300 -->
      <g transform="translate(186.20625 143.718437) scale(0.1 -0.1)">
       <defs>
        <path id="DejaVuSans-33" d="M 2597 2516 
Q 3050 2419 3304 2112 
Q 3559 1806 3559 1356 
Q 3559 666 3084 287 
Q 2609 -91 1734 -91 
Q 1441 -91 1130 -33 
Q 819 25 488 141 
L 488 750 
Q 750 597 1062 519 
Q 1375 441 1716 441 
Q 2309 441 2620 675 
Q 2931 909 2931 1356 
Q 2931 1769 2642 2001 
Q 2353 2234 1838 2234 
L 1294 2234 
L 1294 2753 
L 1863 2753 
Q 2328 2753 2575 2939 
Q 2822 3125 2822 3475 
Q 2822 3834 2567 4026 
Q 2313 4219 1838 4219 
Q 1578 4219 1281 4162 
Q 984 4106 628 3988 
L 628 4550 
Q 988 4650 1302 4700 
Q 1616 4750 1894 4750 
Q 2613 4750 3031 4423 
Q 3450 4097 3450 3541 
Q 3450 3153 3228 2886 
Q 3006 2619 2597 2516 
z
" transform="scale(0.015625)"/>
       </defs>
       <use xlink:href="#DejaVuSans-33"/>
       <use xlink:href="#DejaVuSans-30" x="63.623047"/>
       <use xlink:href="#DejaVuSans-30" x="127.246094"/>
      </g>
     </g>
    </g>
    <g id="text_4">
     <!-- Frequency (Hz) -->
     <g transform="translate(89.930312 157.396563) scale(0.1 -0.1)">
      <defs>
       <path id="DejaVuSans-46" d="M 628 4666 
L 3309 4666 
L 3309 4134 
L 1259 4134 
L 1259 2759 
L 3109 2759 
L 3109 2228 
L 1259 2228 
L 1259 0 
L 628 0 
L 628 4666 
z
" transform="scale(0.015625)"/>
       <path id="DejaVuSans-72" d="M 2631 2963 
Q 2534 3019 2420 3045 
Q 2306 3072 2169 3072 
Q 1681 3072 1420 2755 
Q 1159 2438 1159 1844 
L 1159 0 
L 581 0 
L 581 3500 
L 1159 3500 
L 1159 2956 
Q 1341 3275 1631 3429 
Q 1922 3584 2338 3584 
Q 2397 3584 2469 3576 
Q 2541 3569 2628 3553 
L 2631 2963 
z
" transform="scale(0.015625)"/>
       <path id="DejaVuSans-65" d="M 3597 1894 
L 3597 1613 
L 953 1613 
Q 991 1019 1311 708 
Q 1631 397 2203 397 
Q 2534 397 2845 478 
Q 3156 559 3463 722 
L 3463 178 
Q 3153 47 2828 -22 
Q 2503 -91 2169 -91 
Q 1331 -91 842 396 
Q 353 884 353 1716 
Q 353 2575 817 3079 
Q 1281 3584 2069 3584 
Q 2775 3584 3186 3129 
Q 3597 2675 3597 1894 
z
M 3022 2063 
Q 3016 2534 2758 2815 
Q 2500 3097 2075 3097 
Q 1594 3097 1305 2825 
Q 1016 2553 972 2059 
L 3022 2063 
z
" transform="scale(0.015625)"/>
       <path id="DejaVuSans-71" d="M 947 1747 
Q 947 1113 1208 752 
Q 1469 391 1925 391 
Q 2381 391 2643 752 
Q 2906 1113 2906 1747 
Q 2906 2381 2643 2742 
Q 2381 3103 1925 3103 
Q 1469 3103 1208 2742 
Q 947 2381 947 1747 
z
M 2906 525 
Q 2725 213 2448 61 
Q 2172 -91 1784 -91 
Q 1150 -91 751 415 
Q 353 922 353 1747 
Q 353 2572 751 3078 
Q 1150 3584 1784 3584 
Q 2172 3584 2448 3432 
Q 2725 3281 2906 2969 
L 2906 3500 
L 3481 3500 
L 3481 -1331 
L 2906 -1331 
L 2906 525 
z
" transform="scale(0.015625)"/>
       <path id="DejaVuSans-75" d="M 544 1381 
L 544 3500 
L 1119 3500 
L 1119 1403 
Q 1119 906 1312 657 
Q 1506 409 1894 409 
Q 2359 409 2629 706 
Q 2900 1003 2900 1516 
L 2900 3500 
L 3475 3500 
L 3475 0 
L 2900 0 
L 2900 538 
Q 2691 219 2414 64 
Q 2138 -91 1772 -91 
Q 1169 -91 856 284 
Q 544 659 544 1381 
z
M 1991 3584 
L 1991 3584 
z
" transform="scale(0.015625)"/>
       <path id="DejaVuSans-6e" d="M 3513 2113 
L 3513 0 
L 2938 0 
L 2938 2094 
Q 2938 2591 2744 2837 
Q 2550 3084 2163 3084 
Q 1697 3084 1428 2787 
Q 1159 2491 1159 1978 
L 1159 0 
L 581 0 
L 581 3500 
L 1159 3500 
L 1159 2956 
Q 1366 3272 1645 3428 
Q 1925 3584 2291 3584 
Q 2894 3584 3203 3211 
Q 3513 2838 3513 2113 
z
" transform="scale(0.015625)"/>
       <path id="DejaVuSans-63" d="M 3122 3366 
L 3122 2828 
Q 2878 2963 2633 3030 
Q 2388 3097 2138 3097 
Q 1578 3097 1268 2742 
Q 959 2388 959 1747 
Q 959 1106 1268 751 
Q 1578 397 2138 397 
Q 2388 397 2633 464 
Q 2878 531 3122 666 
L 3122 134 
Q 2881 22 2623 -34 
Q 2366 -91 2075 -91 
Q 1284 -91 818 406 
Q 353 903 353 1747 
Q 353 2603 823 3093 
Q 1294 3584 2113 3584 
Q 2378 3584 2631 3529 
Q 2884 3475 3122 3366 
z
" transform="scale(0.015625)"/>
       <path id="DejaVuSans-79" d="M 2059 -325 
Q 1816 -950 1584 -1140 
Q 1353 -1331 966 -1331 
L 506 -1331 
L 506 -850 
L 844 -850 
Q 1081 -850 1212 -737 
Q 1344 -625 1503 -206 
L 1606 56 
L 191 3500 
L 800 3500 
L 1894 763 
L 2988 3500 
L 3597 3500 
L 2059 -325 
z
" transform="scale(0.015625)"/>
       <path id="DejaVuSans-20" transform="scale(0.015625)"/>
       <path id="DejaVuSans-28" d="M 1984 4856 
Q 1566 4138 1362 3434 
Q 1159 2731 1159 2009 
Q 1159 1288 1364 580 
Q 1569 -128 1984 -844 
L 1484 -844 
Q 1016 -109 783 600 
Q 550 1309 550 2009 
Q 550 2706 781 3412 
Q 1013 4119 1484 4856 
L 1984 4856 
z
" transform="scale(0.015625)"/>
       <path id="DejaVuSans-48" d="M 628 4666 
L 1259 4666 
L 1259 2753 
L 3553 2753 
L 3553 4666 
L 4184 4666 
L 4184 0 
L 3553 0 
L 3553 2222 
L 1259 2222 
L 1259 0 
L 628 0 
L 628 4666 
z
" transform="scale(0.015625)"/>
       <path id="DejaVuSans-7a" d="M 353 3500 
L 3084 3500 
L 3084 2975 
L 922 459 
L 3084 459 
L 3084 0 
L 275 0 
L 275 525 
L 2438 3041 
L 353 3041 
L 353 3500 
z
" transform="scale(0.015625)"/>
       <path id="DejaVuSans-29" d="M 513 4856 
L 1013 4856 
Q 1481 4119 1714 3412 
Q 1947 2706 1947 2009 
Q 1947 1309 1714 600 
Q 1481 -109 1013 -844 
L 513 -844 
Q 928 -128 1133 580 
Q 1338 1288 1338 2009 
Q 1338 2731 1133 3434 
Q 928 4138 513 4856 
z
" transform="scale(0.015625)"/>
      </defs>
      <use xlink:href="#DejaVuSans-46"/>
      <use xlink:href="#DejaVuSans-72" x="50.269531"/>
      <use xlink:href="#DejaVuSans-65" x="89.132812"/>
      <use xlink:href="#DejaVuSans-71" x="150.65625"/>
      <use xlink:href="#DejaVuSans-75" x="214.132812"/>
      <use xlink:href="#DejaVuSans-65" x="277.511719"/>
      <use xlink:href="#DejaVuSans-6e" x="339.035156"/>
      <use xlink:href="#DejaVuSans-63" x="402.414062"/>
      <use xlink:href="#DejaVuSans-79" x="457.394531"/>
      <use xlink:href="#DejaVuSans-20" x="516.574219"/>
      <use xlink:href="#DejaVuSans-28" x="548.361328"/>
      <use xlink:href="#DejaVuSans-48" x="587.375"/>
      <use xlink:href="#DejaVuSans-7a" x="662.570312"/>
      <use xlink:href="#DejaVuSans-29" x="715.060547"/>
     </g>
    </g>
   </g>
   <g id="matplotlib.axis_2">
    <g id="ytick_1">
     <g id="line2d_4">
      <defs>
       <path id="m39349e80e6" d="M 0 0 
L -3.5 0 
" style="stroke: #000000; stroke-width: 0.8"/>
      </defs>
      <g>
       <use xlink:href="#m39349e80e6" x="59.52" y="109.700682" style="stroke: #000000; stroke-width: 0.8"/>
      </g>
     </g>
     <g id="text_5">
      <!-- $\mathdefault{10^{-3}}$ -->
      <g transform="translate(29.02 113.4999) scale(0.1 -0.1)">
       <defs>
        <path id="DejaVuSans-2212" d="M 678 2272 
L 4684 2272 
L 4684 1741 
L 678 1741 
L 678 2272 
z
" transform="scale(0.015625)"/>
       </defs>
       <use xlink:href="#DejaVuSans-31" transform="translate(0 0.765625)"/>
       <use xlink:href="#DejaVuSans-30" transform="translate(63.623047 0.765625)"/>
       <use xlink:href="#DejaVuSans-2212" transform="translate(128.203125 39.046875) scale(0.7)"/>
       <use xlink:href="#DejaVuSans-33" transform="translate(186.855469 39.046875) scale(0.7)"/>
      </g>
     </g>
    </g>
    <g id="ytick_2">
     <g id="line2d_5">
      <g>
       <use xlink:href="#m39349e80e6" x="59.52" y="82.668302" style="stroke: #000000; stroke-width: 0.8"/>
      </g>
     </g>
     <g id="text_6">
      <!-- $\mathdefault{10^{0}}$ -->
      <g transform="translate(34.92 86.467521) scale(0.1 -0.1)">
       <use xlink:href="#DejaVuSans-31" transform="translate(0 0.765625)"/>
       <use xlink:href="#DejaVuSans-30" transform="translate(63.623047 0.765625)"/>
       <use xlink:href="#DejaVuSans-30" transform="translate(128.203125 39.046875) scale(0.7)"/>
      </g>
     </g>
    </g>
    <g id="ytick_3">
     <g id="line2d_6">
      <g>
       <use xlink:href="#m39349e80e6" x="59.52" y="55.635922" style="stroke: #000000; stroke-width: 0.8"/>
      </g>
     </g>
     <g id="text_7">
      <!-- $\mathdefault{10^{3}}$ -->
      <g transform="translate(34.92 59.435141) scale(0.1 -0.1)">
       <use xlink:href="#DejaVuSans-31" transform="translate(0 0.765625)"/>
       <use xlink:href="#DejaVuSans-30" transform="translate(63.623047 0.765625)"/>
       <use xlink:href="#DejaVuSans-33" transform="translate(128.203125 39.046875) scale(0.7)"/>
      </g>
     </g>
    </g>
    <g id="ytick_4">
     <g id="line2d_7">
      <g>
       <use xlink:href="#m39349e80e6" x="59.52" y="28.603542" style="stroke: #000000; stroke-width: 0.8"/>
      </g>
     </g>
     <g id="text_8">
      <!-- $\mathdefault{10^{6}}$ -->
      <g transform="translate(34.92 32.402761) scale(0.1 -0.1)">
       <defs>
        <path id="DejaVuSans-36" d="M 2113 2584 
Q 1688 2584 1439 2293 
Q 1191 2003 1191 1497 
Q 1191 994 1439 701 
Q 1688 409 2113 409 
Q 2538 409 2786 701 
Q 3034 994 3034 1497 
Q 3034 2003 2786 2293 
Q 2538 2584 2113 2584 
z
M 3366 4563 
L 3366 3988 
Q 3128 4100 2886 4159 
Q 2644 4219 2406 4219 
Q 1781 4219 1451 3797 
Q 1122 3375 1075 2522 
Q 1259 2794 1537 2939 
Q 1816 3084 2150 3084 
Q 2853 3084 3261 2657 
Q 3669 2231 3669 1497 
Q 3669 778 3244 343 
Q 2819 -91 2113 -91 
Q 1303 -91 875 529 
Q 447 1150 447 2328 
Q 447 3434 972 4092 
Q 1497 4750 2381 4750 
Q 2619 4750 2861 4703 
Q 3103 4656 3366 4563 
z
" transform="scale(0.015625)"/>
       </defs>
       <use xlink:href="#DejaVuSans-31" transform="translate(0 0.765625)"/>
       <use xlink:href="#DejaVuSans-30" transform="translate(63.623047 0.765625)"/>
       <use xlink:href="#DejaVuSans-36" transform="translate(128.203125 39.046875) scale(0.7)"/>
      </g>
     </g>
    </g>
    <g id="text_9">
     <!-- Log power (dB/Hz) -->
     <g transform="translate(22.940312 124.139844) rotate(-90) scale(0.1 -0.1)">
      <defs>
       <path id="DejaVuSans-4c" d="M 628 4666 
L 1259 4666 
L 1259 531 
L 3531 531 
L 3531 0 
L 628 0 
L 628 4666 
z
" transform="scale(0.015625)"/>
       <path id="DejaVuSans-6f" d="M 1959 3097 
Q 1497 3097 1228 2736 
Q 959 2375 959 1747 
Q 959 1119 1226 758 
Q 1494 397 1959 397 
Q 2419 397 2687 759 
Q 2956 1122 2956 1747 
Q 2956 2369 2687 2733 
Q 2419 3097 1959 3097 
z
M 1959 3584 
Q 2709 3584 3137 3096 
Q 3566 2609 3566 1747 
Q 3566 888 3137 398 
Q 2709 -91 1959 -91 
Q 1206 -91 779 398 
Q 353 888 353 1747 
Q 353 2609 779 3096 
Q 1206 3584 1959 3584 
z
" transform="scale(0.015625)"/>
       <path id="DejaVuSans-67" d="M 2906 1791 
Q 2906 2416 2648 2759 
Q 2391 3103 1925 3103 
Q 1463 3103 1205 2759 
Q 947 2416 947 1791 
Q 947 1169 1205 825 
Q 1463 481 1925 481 
Q 2391 481 2648 825 
Q 2906 1169 2906 1791 
z
M 3481 434 
Q 3481 -459 3084 -895 
Q 2688 -1331 1869 -1331 
Q 1566 -1331 1297 -1286 
Q 1028 -1241 775 -1147 
L 775 -588 
Q 1028 -725 1275 -790 
Q 1522 -856 1778 -856 
Q 2344 -856 2625 -561 
Q 2906 -266 2906 331 
L 2906 616 
Q 2728 306 2450 153 
Q 2172 0 1784 0 
Q 1141 0 747 490 
Q 353 981 353 1791 
Q 353 2603 747 3093 
Q 1141 3584 1784 3584 
Q 2172 3584 2450 3431 
Q 2728 3278 2906 2969 
L 2906 3500 
L 3481 3500 
L 3481 434 
z
" transform="scale(0.015625)"/>
       <path id="DejaVuSans-70" d="M 1159 525 
L 1159 -1331 
L 581 -1331 
L 581 3500 
L 1159 3500 
L 1159 2969 
Q 1341 3281 1617 3432 
Q 1894 3584 2278 3584 
Q 2916 3584 3314 3078 
Q 3713 2572 3713 1747 
Q 3713 922 3314 415 
Q 2916 -91 2278 -91 
Q 1894 -91 1617 61 
Q 1341 213 1159 525 
z
M 3116 1747 
Q 3116 2381 2855 2742 
Q 2594 3103 2138 3103 
Q 1681 3103 1420 2742 
Q 1159 2381 1159 1747 
Q 1159 1113 1420 752 
Q 1681 391 2138 391 
Q 2594 391 2855 752 
Q 3116 1113 3116 1747 
z
" transform="scale(0.015625)"/>
       <path id="DejaVuSans-77" d="M 269 3500 
L 844 3500 
L 1563 769 
L 2278 3500 
L 2956 3500 
L 3675 769 
L 4391 3500 
L 4966 3500 
L 4050 0 
L 3372 0 
L 2619 2869 
L 1863 0 
L 1184 0 
L 269 3500 
z
" transform="scale(0.015625)"/>
       <path id="DejaVuSans-64" d="M 2906 2969 
L 2906 4863 
L 3481 4863 
L 3481 0 
L 2906 0 
L 2906 525 
Q 2725 213 2448 61 
Q 2172 -91 1784 -91 
Q 1150 -91 751 415 
Q 353 922 353 1747 
Q 353 2572 751 3078 
Q 1150 3584 1784 3584 
Q 2172 3584 2448 3432 
Q 2725 3281 2906 2969 
z
M 947 1747 
Q 947 1113 1208 752 
Q 1469 391 1925 391 
Q 2381 391 2643 752 
Q 2906 1113 2906 1747 
Q 2906 2381 2643 2742 
Q 2381 3103 1925 3103 
Q 1469 3103 1208 2742 
Q 947 2381 947 1747 
z
" transform="scale(0.015625)"/>
       <path id="DejaVuSans-42" d="M 1259 2228 
L 1259 519 
L 2272 519 
Q 2781 519 3026 730 
Q 3272 941 3272 1375 
Q 3272 1813 3026 2020 
Q 2781 2228 2272 2228 
L 1259 2228 
z
M 1259 4147 
L 1259 2741 
L 2194 2741 
Q 2656 2741 2882 2914 
Q 3109 3088 3109 3444 
Q 3109 3797 2882 3972 
Q 2656 4147 2194 4147 
L 1259 4147 
z
M 628 4666 
L 2241 4666 
Q 2963 4666 3353 4366 
Q 3744 4066 3744 3513 
Q 3744 3084 3544 2831 
Q 3344 2578 2956 2516 
Q 3422 2416 3680 2098 
Q 3938 1781 3938 1306 
Q 3938 681 3513 340 
Q 3088 0 2303 0 
L 628 0 
L 628 4666 
z
" transform="scale(0.015625)"/>
       <path id="DejaVuSans-2f" d="M 1625 4666 
L 2156 4666 
L 531 -594 
L 0 -594 
L 1625 4666 
z
" transform="scale(0.015625)"/>
      </defs>
      <use xlink:href="#DejaVuSans-4c"/>
      <use xlink:href="#DejaVuSans-6f" x="53.962891"/>
      <use xlink:href="#DejaVuSans-67" x="115.144531"/>
      <use xlink:href="#DejaVuSans-20" x="178.621094"/>
      <use xlink:href="#DejaVuSans-70" x="210.408203"/>
      <use xlink:href="#DejaVuSans-6f" x="273.884766"/>
      <use xlink:href="#DejaVuSans-77" x="335.066406"/>
      <use xlink:href="#DejaVuSans-65" x="416.853516"/>
      <use xlink:href="#DejaVuSans-72" x="478.376953"/>
      <use xlink:href="#DejaVuSans-20" x="519.490234"/>
      <use xlink:href="#DejaVuSans-28" x="551.277344"/>
      <use xlink:href="#DejaVuSans-64" x="590.291016"/>
      <use xlink:href="#DejaVuSans-42" x="653.767578"/>
      <use xlink:href="#DejaVuSans-2f" x="722.371094"/>
      <use xlink:href="#DejaVuSans-48" x="756.0625"/>
      <use xlink:href="#DejaVuSans-7a" x="831.257812"/>
      <use xlink:href="#DejaVuSans-29" x="883.748047"/>
     </g>
    </g>
   </g>
   <g id="line2d_8">
    <path d="M 59.74705 45.11511 
L 60.4282 54.061168 
L 60.65525 68.341121 
L 60.8823 59.015181 
L 61.10935 55.471074 
L 61.3364 63.377175 
L 61.56345 60.79569 
L 62.01755 65.519612 
L 62.2446 61.758358 
L 62.47165 61.838706 
L 62.6987 65.876789 
L 62.92575 76.645982 
L 63.1528 67.611491 
L 63.37985 63.202198 
L 63.6069 63.962056 
L 63.83395 68.093663 
L 64.061 68.619669 
L 64.28805 66.567868 
L 64.5151 63.453564 
L 64.74215 64.228565 
L 64.9692 67.135655 
L 65.19625 60.317699 
L 65.4233 57.426418 
L 65.65035 65.694968 
L 65.8774 63.4709 
L 66.10445 66.723191 
L 66.3315 73.731381 
L 66.7856 67.308522 
L 67.01265 68.049028 
L 67.46675 76.485574 
L 67.92085 67.696942 
L 68.1479 68.425651 
L 68.602 76.362818 
L 68.82905 78.178893 
L 69.0561 70.33428 
L 69.28315 70.073051 
L 69.73725 77.192622 
L 69.9643 72.149163 
L 70.19135 71.414453 
L 70.4184 71.583657 
L 70.64545 70.997441 
L 70.8725 73.924879 
L 71.09955 71.67227 
L 71.3266 71.713515 
L 71.55365 70.663113 
L 71.7807 71.512556 
L 72.00775 92.198552 
L 72.2348 73.731796 
L 72.46185 74.506419 
L 72.6889 70.183243 
L 72.91595 71.815202 
L 73.143 80.646935 
L 73.37005 72.730753 
L 73.5971 70.218855 
L 73.82415 70.029673 
L 74.0512 82.555481 
L 74.27825 81.499619 
L 74.5053 73.365086 
L 74.73235 73.522997 
L 74.9594 69.991563 
L 75.18645 72.221463 
L 75.4135 81.459122 
L 75.8676 71.784093 
L 76.09465 70.310181 
L 76.54875 87.814429 
L 76.7758 71.927701 
L 77.00285 78.045782 
L 77.2299 75.773988 
L 77.45695 75.762127 
L 77.684 81.160701 
L 77.91105 78.325232 
L 78.1381 72.534645 
L 78.36515 71.85653 
L 78.5922 75.118118 
L 78.81925 96.073915 
L 79.0463 77.009549 
L 79.27335 75.577392 
L 79.5004 75.270833 
L 79.72745 76.291786 
L 79.9545 84.951261 
L 80.18155 74.449351 
L 80.4086 71.552585 
L 80.63565 73.045541 
L 80.8627 75.598669 
L 81.08975 84.755292 
L 81.3168 80.300474 
L 81.54385 73.62439 
L 81.7709 72.526981 
L 81.99795 75.34872 
L 82.225 85.376523 
L 82.45205 73.683148 
L 82.6791 72.572781 
L 82.90615 77.349021 
L 83.1332 74.523086 
L 83.36025 87.548484 
L 83.5873 73.59279 
L 83.81435 73.450166 
L 84.0414 71.065068 
L 84.4955 81.955993 
L 84.72255 76.88944 
L 84.9496 75.554053 
L 85.17665 72.047396 
L 85.4037 73.959799 
L 85.63075 92.446531 
L 85.8578 76.159828 
L 86.08485 73.941501 
L 86.3119 73.482732 
L 86.766 84.250882 
L 87.2201 74.359311 
L 87.44715 72.001485 
L 87.6742 75.187038 
L 87.90125 90.065827 
L 88.1283 77.051563 
L 88.35535 72.738716 
L 88.5824 75.692496 
L 88.80945 74.121549 
L 89.0365 87.841723 
L 89.26355 74.445286 
L 89.4906 74.25986 
L 89.71765 73.396354 
L 89.9447 73.132528 
L 90.17175 87.56207 
L 90.3988 75.954469 
L 90.62585 73.71283 
L 90.8529 74.342171 
L 91.07995 76.05018 
L 91.307 87.036607 
L 91.53405 74.424705 
L 91.98815 72.690255 
L 92.2152 74.39433 
L 92.44225 88.731604 
L 92.6693 74.669882 
L 92.89635 72.887758 
L 93.1234 72.80004 
L 93.35045 74.639456 
L 93.5775 92.656353 
L 93.80455 73.843963 
L 94.25865 71.518106 
L 94.4857 74.411255 
L 94.71275 100.058421 
L 94.9398 74.19901 
L 95.16685 71.65716 
L 95.3939 71.306681 
L 95.62095 73.405443 
L 95.848 86.59435 
L 96.07505 73.425154 
L 96.3021 70.993288 
L 96.52915 70.903476 
L 96.7562 74.578683 
L 96.98325 88.884722 
L 97.2103 73.849359 
L 97.43735 71.726161 
L 97.6644 72.572347 
L 97.89145 74.780373 
L 98.1185 95.560838 
L 98.34555 74.25227 
L 98.5726 70.819719 
L 98.79965 71.623019 
L 99.0267 72.934017 
L 99.25375 93.109691 
L 99.4808 73.463343 
L 99.70785 71.534873 
L 99.9349 70.797503 
L 100.16195 72.777454 
L 100.389 94.001315 
L 100.61605 73.419357 
L 100.8431 70.245316 
L 101.07015 70.634127 
L 101.2972 71.943457 
L 101.52425 82.82935 
L 101.7513 72.085217 
L 101.97835 70.195971 
L 102.2054 69.960781 
L 102.43245 72.104947 
L 102.6595 95.696681 
L 102.88655 70.935446 
L 103.34065 68.764632 
L 103.5677 72.142068 
L 103.79475 90.146731 
L 104.0218 72.304471 
L 104.24885 68.959367 
L 104.4759 68.072038 
L 104.70295 70.712897 
L 104.93 85.368037 
L 105.15705 69.923056 
L 105.3841 68.441862 
L 105.61115 67.699333 
L 105.8382 70.431148 
L 106.06525 102.096078 
L 106.2923 70.197578 
L 106.51935 67.845905 
L 106.7464 67.924051 
L 106.97345 70.075139 
L 107.2005 103.527415 
L 107.42755 68.155493 
L 107.6546 66.449246 
L 107.88165 66.103985 
L 108.1087 68.942778 
L 108.33575 108.409911 
L 108.5628 68.049879 
L 108.78985 65.459476 
L 109.0169 64.932318 
L 109.24395 68.346663 
L 109.471 95.877337 
L 109.69805 67.367337 
L 109.9251 64.395042 
L 110.15215 63.741209 
L 110.3792 65.990732 
L 110.60625 93.938458 
L 110.8333 65.706565 
L 111.06035 63.105052 
L 111.2874 62.724193 
L 111.51445 65.183144 
L 111.7415 100.602374 
L 111.96855 64.091007 
L 112.1956 61.156371 
L 112.42265 60.725002 
L 112.6497 62.817365 
L 112.87675 93.417381 
L 113.1038 62.139211 
L 113.33085 58.953732 
L 113.5579 58.260639 
L 113.78495 60.334461 
L 114.012 100.58003 
L 114.23905 58.731717 
L 114.4661 55.112604 
L 114.69315 54.035608 
L 114.9202 55.417323 
L 115.14725 101.897309 
L 115.3743 52.359604 
L 115.8284 44.442594 
L 116.05545 41.623892 
L 116.2825 31.527273 
L 116.50955 41.674814 
L 116.96365 47.705331 
L 117.1907 52.589839 
L 117.41775 89.930924 
L 117.6448 55.807843 
L 117.87185 54.408705 
L 118.0989 55.583417 
L 118.32595 59.091981 
L 118.553 95.027668 
L 118.78005 60.767295 
L 119.0071 58.792137 
L 119.23415 59.531328 
L 119.4612 62.735598 
L 119.68825 103.2636 
L 119.9153 63.395975 
L 120.14235 61.518578 
L 120.3694 62.093424 
L 120.59645 65.074142 
L 120.8235 92.610261 
L 121.05055 65.866102 
L 121.2776 63.849229 
L 121.50465 63.970374 
L 121.7317 67.075517 
L 121.95875 90.930322 
L 122.1858 67.696755 
L 122.41285 65.492643 
L 122.6399 66.29272 
L 122.86695 68.854945 
L 123.094 99.45132 
L 123.32105 69.556126 
L 123.5481 67.062603 
L 123.77515 67.220143 
L 124.0022 70.562626 
L 124.22925 94.614858 
L 124.4563 70.254442 
L 124.68335 68.791631 
L 124.9104 69.177115 
L 125.13745 71.531351 
L 125.3645 90.879301 
L 125.59155 70.912035 
L 125.8186 69.171908 
L 126.04565 69.340826 
L 126.2727 72.215528 
L 126.49975 90.034449 
L 126.7268 72.516666 
L 126.95385 70.391283 
L 127.1809 71.246401 
L 127.40795 74.030404 
L 127.635 90.109012 
L 127.86205 74.673664 
L 128.0891 72.257658 
L 128.31615 71.571283 
L 128.5432 75.00284 
L 128.77025 90.258267 
L 128.9973 74.312398 
L 129.22435 72.38109 
L 129.4514 72.577974 
L 129.67845 75.620163 
L 129.9055 102.28738 
L 130.13255 76.073785 
L 130.3596 73.577801 
L 130.58665 73.876569 
L 130.8137 76.305818 
L 131.04075 95.327874 
L 131.2678 75.525085 
L 131.49485 73.760607 
L 131.7219 73.672276 
L 131.94895 77.210365 
L 132.176 89.569343 
L 132.40305 75.724989 
L 132.6301 74.486877 
L 132.85715 75.57174 
L 133.0842 78.112574 
L 133.31125 89.346891 
L 133.76535 74.078957 
L 133.9924 75.619169 
L 134.21945 78.015242 
L 134.4465 85.616938 
L 134.67355 77.855199 
L 134.9006 75.876982 
L 135.12765 75.056137 
L 135.3547 79.359927 
L 135.58175 88.252335 
L 135.8088 78.47869 
L 136.03585 79.119856 
L 136.48995 77.628339 
L 136.717 89.764062 
L 136.94405 77.159653 
L 137.1711 76.123712 
L 137.39815 76.581104 
L 137.6252 81.999431 
L 137.85225 92.257652 
L 138.0793 80.34823 
L 138.30635 77.765093 
L 138.5334 78.0248 
L 138.76045 77.480995 
L 138.9875 92.141893 
L 139.21455 82.098355 
L 139.4416 79.417778 
L 139.66865 80.780792 
L 139.8957 83.808916 
L 140.12275 94.036986 
L 140.57685 79.002722 
L 140.8039 80.283623 
L 141.03095 83.02707 
L 141.258 87.725173 
L 141.48505 79.637034 
L 141.7121 79.731456 
L 141.93915 79.050321 
L 142.1662 82.68804 
L 142.39325 92.123403 
L 142.6203 82.715525 
L 142.84735 79.540345 
L 143.0744 82.399083 
L 143.30145 82.637612 
L 143.5285 91.051364 
L 143.75555 80.980351 
L 143.9826 79.605051 
L 144.20965 82.946915 
L 144.4367 84.558106 
L 144.66375 97.816711 
L 144.8908 81.795288 
L 145.11785 81.615583 
L 145.3449 79.745657 
L 145.57195 82.793093 
L 145.799 96.407716 
L 146.2531 83.035011 
L 146.48015 84.65717 
L 146.7072 84.792913 
L 146.93425 90.259298 
L 147.1613 84.528794 
L 147.38835 82.40926 
L 147.6154 84.244955 
L 147.84245 89.972782 
L 148.0695 89.04128 
L 148.29655 87.265386 
L 148.5236 83.810066 
L 148.75065 85.153437 
L 149.20475 86.151219 
L 149.4318 86.512138 
L 149.65885 82.919845 
L 150.11295 86.665119 
L 150.34 98.454588 
L 150.7941 82.042431 
L 151.2482 87.78859 
L 151.47525 88.198501 
L 151.7023 89.378469 
L 151.92935 88.87861 
L 152.38345 93.524002 
L 152.6105 91.083455 
L 152.83755 87.395643 
L 153.0646 88.913168 
L 153.29165 89.23118 
L 153.5187 98.324314 
L 153.74575 89.363738 
L 154.4269 91.547967 
L 154.65395 92.172785 
L 154.881 90.158723 
L 155.10805 93.254777 
L 155.3351 88.462422 
L 155.56215 87.386102 
L 155.7892 100.177057 
L 156.01625 93.813283 
L 156.2433 97.45133 
L 156.47035 87.550602 
L 156.6974 90.75247 
L 156.92445 95.945797 
L 157.1515 95.520483 
L 157.37855 83.495316 
L 157.6056 83.449542 
L 157.83265 86.728933 
L 158.0597 82.157239 
L 158.28675 94.157814 
L 158.5138 85.363199 
L 158.74085 87.858203 
L 158.9679 94.097073 
L 159.19495 89.831824 
L 159.422 92.696988 
L 159.8761 84.069473 
L 160.10315 82.801095 
L 160.3302 91.146456 
L 160.55725 93.203074 
L 160.7843 85.92369 
L 161.2384 85.268809 
L 161.46545 86.786129 
L 161.6925 90.627804 
L 162.1466 80.078124 
L 162.37365 82.672756 
L 162.6007 87.017625 
L 162.82775 97.457689 
L 163.28185 80.247889 
L 163.5089 79.407398 
L 163.73595 87.515331 
L 163.963 90.80404 
L 164.19005 83.203789 
L 164.4171 80.286994 
L 164.64415 80.017115 
L 164.8712 82.456416 
L 165.09825 97.359899 
L 165.55235 77.098198 
L 165.7794 77.813102 
L 166.00645 81.219803 
L 166.2335 95.749555 
L 166.46055 79.193461 
L 166.6876 75.762124 
L 166.91465 76.272765 
L 167.1417 78.592599 
L 167.36875 96.357761 
L 167.5958 76.741674 
L 167.82285 74.535638 
L 168.0499 74.347169 
L 168.27695 77.175846 
L 168.504 103.767454 
L 168.73105 75.630195 
L 168.9581 72.329006 
L 169.18515 71.646135 
L 169.4122 73.180097 
L 169.63925 94.952279 
L 169.8663 72.878589 
L 170.09335 69.357378 
L 170.3204 68.452809 
L 170.54745 70.662556 
L 170.7745 89.87117 
L 171.00155 68.778709 
L 171.2286 64.939769 
L 171.45565 63.894329 
L 171.6827 65.13917 
L 171.90975 87.234187 
L 172.1368 61.908003 
L 172.5909 53.795694 
L 172.81795 50.92058 
L 173.045 40.717079 
L 173.27205 50.771204 
L 173.72615 56.72135 
L 173.9532 61.579237 
L 174.18025 87.841172 
L 174.4073 64.522546 
L 174.63435 63.058901 
L 174.8614 64.094577 
L 175.08845 67.645554 
L 175.3155 91.436946 
L 175.54255 69.255965 
L 175.7696 67.141581 
L 175.99665 67.723841 
L 176.2237 70.91485 
L 176.45075 94.606494 
L 176.6778 71.823794 
L 176.90485 69.411872 
L 177.1319 69.499555 
L 177.35895 73.077367 
L 177.586 86.496225 
L 177.81305 73.680032 
L 178.0401 72.311487 
L 178.26715 71.847255 
L 178.4942 74.906995 
L 178.72125 91.818772 
L 178.9483 76.058362 
L 179.17535 73.000077 
L 179.4024 72.882477 
L 179.62945 77.025204 
L 179.8565 89.901569 
L 180.08355 76.185765 
L 180.3106 73.229344 
L 180.53765 74.61645 
L 180.7647 77.266051 
L 180.99175 95.884741 
L 181.2188 76.916862 
L 181.44585 74.929962 
L 181.6729 74.403698 
L 181.89995 76.859569 
L 182.127 98.399909 
L 182.35405 78.073206 
L 182.5811 75.932914 
L 182.80815 76.724123 
L 183.0352 78.575697 
L 183.26225 92.70093 
L 183.4893 80.635735 
L 183.71635 76.050829 
L 183.9434 76.280776 
L 184.17045 80.78604 
L 184.3975 89.498579 
L 184.62455 81.309584 
L 184.8516 78.167631 
L 185.07865 77.741794 
L 185.3057 80.340588 
L 185.53275 103.08965 
L 185.7598 80.377757 
L 185.98685 78.310193 
L 186.2139 77.837595 
L 186.44095 80.662747 
L 186.668 93.360459 
L 186.89505 80.057236 
L 187.1221 77.683604 
L 187.34915 77.543295 
L 187.5762 82.723894 
L 187.80325 92.612648 
L 188.25735 78.565515 
L 188.4844 80.363036 
L 188.71145 80.910756 
L 188.9385 101.340319 
L 189.16555 82.756251 
L 189.3926 80.316372 
L 189.61965 79.337786 
L 189.8467 82.077513 
L 190.07375 86.758759 
L 190.3008 81.460303 
L 190.52785 79.845674 
L 190.7549 80.564736 
L 191.209 89.798316 
L 191.43605 80.878121 
L 191.6631 81.685362 
L 191.89015 81.654746 
L 192.34425 91.465228 
L 192.5713 87.808542 
L 192.79835 79.157107 
L 193.0254 83.657772 
L 193.25245 83.541529 
L 193.4795 92.565334 
L 193.70655 84.730536 
L 194.16065 81.594014 
L 194.61475 90.167562 
L 195.06885 80.530315 
L 195.2959 81.275379 
L 195.52295 84.080068 
L 195.52295 84.080068 
" clip-path="url(#p8cfe7ee56e)" style="fill: none; stroke: #808080; stroke-width: 0.5; stroke-linecap: square"/>
   </g>
   <g id="line2d_9">
    <path d="M 59.74705 78.568349 
L 59.9741 64.800695 
L 60.20115 71.216154 
L 60.4282 64.839856 
L 60.8823 71.540001 
L 61.10935 65.848671 
L 61.3364 65.060488 
L 61.56345 62.86104 
L 61.7905 63.6776 
L 62.2446 78.048453 
L 62.47165 81.967374 
L 62.6987 71.136667 
L 62.92575 76.837903 
L 63.1528 74.604738 
L 63.37985 73.478883 
L 63.6069 77.866277 
L 63.83395 79.024961 
L 64.061 68.661208 
L 64.28805 74.187471 
L 64.5151 72.627598 
L 64.74215 71.992416 
L 64.9692 76.660462 
L 65.19625 60.33369 
L 65.4233 57.843373 
L 65.65035 76.849852 
L 65.8774 70.04554 
L 66.10445 74.231816 
L 66.3315 74.010634 
L 66.55855 83.410044 
L 66.7856 75.647186 
L 67.01265 79.028198 
L 67.2397 70.684818 
L 67.46675 78.145504 
L 67.6938 75.54078 
L 68.1479 81.652347 
L 68.37495 73.573369 
L 68.602 75.775795 
L 68.82905 73.856378 
L 69.0561 76.037714 
L 69.5102 89.91698 
L 69.73725 77.324583 
L 69.9643 87.119101 
L 70.19135 78.13387 
L 70.4184 94.410182 
L 70.8725 74.516454 
L 71.3266 83.0474 
L 71.55365 82.45972 
L 71.7807 75.114452 
L 72.00775 92.483135 
L 72.2348 87.15994 
L 72.46185 73.455216 
L 72.6889 82.797907 
L 72.91595 80.315619 
L 73.143 81.840155 
L 73.5971 76.601509 
L 73.82415 74.853393 
L 74.0512 74.897676 
L 74.27825 83.847862 
L 74.73235 90.913372 
L 74.9594 78.941186 
L 75.18645 78.689745 
L 75.64055 86.468765 
L 75.8676 85.350156 
L 76.09465 77.282189 
L 76.54875 89.981514 
L 76.7758 78.453417 
L 77.00285 75.634754 
L 77.2299 83.252445 
L 77.45695 84.146893 
L 77.684 81.756902 
L 77.91105 84.846692 
L 78.1381 80.750837 
L 78.36515 85.863011 
L 78.81925 97.983345 
L 79.27335 80.316846 
L 79.5004 79.705128 
L 79.72745 85.880941 
L 79.9545 85.317662 
L 80.18155 86.759909 
L 80.4086 81.072994 
L 80.63565 79.54975 
L 80.8627 96.282336 
L 81.08975 83.931274 
L 81.3168 84.988451 
L 81.54385 91.670759 
L 81.7709 90.190226 
L 82.45205 82.385748 
L 82.6791 96.404645 
L 82.90615 79.198016 
L 83.1332 81.521604 
L 83.36025 90.396975 
L 83.5873 85.745896 
L 83.81435 91.991811 
L 84.0414 82.54111 
L 84.26845 87.649597 
L 84.4955 86.685148 
L 84.72255 94.346913 
L 84.9496 82.842198 
L 85.17665 84.090967 
L 85.63075 89.047238 
L 85.8578 86.835239 
L 86.08485 89.74009 
L 86.3119 85.497276 
L 86.766 83.811347 
L 87.2201 88.645475 
L 87.44715 84.387764 
L 87.6742 93.623967 
L 87.90125 90.992085 
L 88.1283 85.612094 
L 88.35535 84.389349 
L 88.5824 87.394286 
L 88.80945 85.649963 
L 89.0365 88.864636 
L 89.26355 87.40512 
L 89.4906 86.768352 
L 89.71765 96.567718 
L 89.9447 82.954289 
L 90.17175 90.524954 
L 90.3988 91.402318 
L 90.62585 89.74065 
L 90.8529 90.696379 
L 91.07995 90.14004 
L 91.307 85.806776 
L 91.53405 106.74649 
L 91.7611 87.387227 
L 91.98815 90.183637 
L 92.2152 88.752194 
L 92.44225 95.811801 
L 92.6693 87.773443 
L 92.89635 88.598622 
L 93.1234 90.603977 
L 93.35045 87.947415 
L 93.5775 105.045686 
L 93.80455 83.468049 
L 94.0316 87.568913 
L 94.25865 87.643873 
L 94.4857 88.663078 
L 94.71275 93.921581 
L 94.9398 85.660502 
L 95.3939 102.319631 
L 95.62095 91.274761 
L 96.07505 85.528753 
L 96.3021 90.573775 
L 96.52915 92.534009 
L 96.7562 97.883522 
L 96.98325 88.344923 
L 97.2103 93.306466 
L 97.89145 91.244059 
L 98.1185 96.725872 
L 98.34555 97.129952 
L 98.5726 89.040747 
L 98.79965 97.126857 
L 99.0267 95.43427 
L 99.25375 92.21348 
L 99.4808 94.6368 
L 99.70785 89.313561 
L 99.9349 92.665861 
L 100.16195 90.389589 
L 100.389 97.85981 
L 100.61605 97.179764 
L 100.8431 101.863779 
L 101.07015 86.952714 
L 101.2972 96.181279 
L 101.52425 87.60695 
L 101.97835 101.060071 
L 102.2054 91.280143 
L 102.43245 99.091166 
L 102.88655 89.006555 
L 103.5677 100.08523 
L 103.79475 92.470429 
L 104.0218 96.862815 
L 104.24885 92.74794 
L 104.4759 93.498298 
L 104.70295 95.844223 
L 104.93 89.684375 
L 105.15705 91.781241 
L 105.3841 98.878269 
L 105.61115 93.265596 
L 105.8382 106.064256 
L 106.2923 97.383751 
L 106.51935 87.500871 
L 106.7464 88.931866 
L 106.97345 89.054313 
L 107.2005 100.362948 
L 107.42755 89.708152 
L 107.6546 92.210186 
L 107.88165 97.728781 
L 108.1087 95.985171 
L 108.33575 106.472968 
L 108.5628 94.269712 
L 108.78985 89.700087 
L 109.0169 95.975455 
L 109.24395 89.370701 
L 109.9251 102.359141 
L 110.15215 85.520377 
L 110.3792 86.749687 
L 110.60625 93.136552 
L 110.8333 89.672332 
L 111.06035 101.432357 
L 111.2874 98.993857 
L 111.51445 92.623091 
L 111.7415 92.806547 
L 111.96855 99.657583 
L 112.1956 97.470124 
L 112.42265 99.903916 
L 112.6497 104.196518 
L 112.87675 90.802325 
L 113.1038 89.213033 
L 113.33085 92.430733 
L 113.78495 91.550543 
L 114.012 102.300206 
L 114.4661 93.194143 
L 114.69315 89.978048 
L 114.9202 89.393233 
L 115.14725 95.892112 
L 115.3743 98.323427 
L 115.60135 102.669394 
L 115.8284 97.681512 
L 116.05545 98.166747 
L 116.2825 93.413494 
L 116.50955 99.278036 
L 116.7366 91.280444 
L 116.96365 101.823301 
L 117.1907 90.943096 
L 117.6448 93.89897 
L 117.87185 91.326121 
L 118.0989 98.642836 
L 118.553 96.817341 
L 119.0071 93.333624 
L 119.23415 95.618403 
L 119.4612 94.125668 
L 119.68825 100.537731 
L 119.9153 94.213716 
L 120.14235 95.442766 
L 120.3694 97.845937 
L 120.8235 100.652701 
L 121.2776 115.254818 
L 121.50465 104.741529 
L 121.7317 100.163695 
L 121.95875 104.349135 
L 122.41285 94.701738 
L 122.6399 108.294411 
L 123.094 101.411569 
L 123.32105 92.878966 
L 123.5481 97.443342 
L 123.77515 106.476402 
L 124.22925 97.174334 
L 124.4563 111.406088 
L 124.9104 94.575898 
L 125.3645 108.793521 
L 125.59155 94.227214 
L 126.04565 99.263066 
L 126.49975 98.017036 
L 126.7268 98.044898 
L 126.95385 97.119303 
L 127.1809 107.350663 
L 127.40795 94.113397 
L 127.635 104.823063 
L 127.86205 96.054194 
L 128.0891 96.732246 
L 128.31615 103.093827 
L 128.5432 96.403567 
L 128.77025 95.225153 
L 128.9973 93.326446 
L 129.22435 100.999595 
L 129.4514 101.94331 
L 129.67845 106.95442 
L 129.9055 99.102622 
L 130.3596 99.726802 
L 130.58665 106.176006 
L 130.8137 107.985861 
L 131.04075 104.594265 
L 131.2678 106.838393 
L 131.49485 95.112489 
L 131.7219 102.82608 
L 131.94895 104.421982 
L 132.176 94.725352 
L 132.40305 98.592449 
L 132.85715 113.376041 
L 133.0842 104.881573 
L 133.31125 102.588154 
L 133.5383 109.457059 
L 133.76535 108.978846 
L 133.9924 93.611782 
L 134.21945 96.62574 
L 134.4465 104.851435 
L 134.67355 94.531579 
L 134.9006 99.103668 
L 135.12765 94.978499 
L 135.3547 107.901972 
L 135.58175 95.301447 
L 135.8088 107.828919 
L 136.2629 96.631507 
L 136.48995 97.044177 
L 136.717 100.319846 
L 136.94405 96.627815 
L 137.1711 102.303481 
L 137.6252 92.52507 
L 137.85225 101.618671 
L 138.0793 95.622145 
L 138.30635 99.261821 
L 138.5334 94.460647 
L 138.76045 101.222869 
L 138.9875 93.824839 
L 139.21455 95.938625 
L 139.4416 96.498635 
L 139.66865 110.062196 
L 139.8957 100.039239 
L 140.12275 100.15043 
L 140.3498 97.227956 
L 140.57685 103.874574 
L 140.8039 99.622463 
L 141.03095 100.331923 
L 141.258 99.567509 
L 141.48505 95.022004 
L 141.7121 103.000492 
L 141.93915 98.274158 
L 142.39325 103.53786 
L 142.6203 103.11305 
L 143.0744 97.482009 
L 143.30145 93.879497 
L 143.5285 99.146074 
L 143.75555 100.795565 
L 143.9826 99.783493 
L 144.20965 96.243798 
L 144.4367 105.444435 
L 144.66375 99.332351 
L 144.8908 99.166056 
L 145.3449 100.096583 
L 145.57195 100.926098 
L 145.799 95.958572 
L 146.02605 96.381901 
L 146.48015 113.911926 
L 146.7072 100.195786 
L 146.93425 96.579404 
L 147.1613 105.119028 
L 147.38835 102.184027 
L 147.6154 101.805863 
L 147.84245 98.226722 
L 148.0695 100.185753 
L 148.29655 108.701403 
L 148.5236 106.60459 
L 148.75065 101.241691 
L 148.9777 98.597287 
L 149.20475 105.594335 
L 149.4318 101.310115 
L 149.65885 107.827358 
L 150.11295 94.983772 
L 150.34 110.648398 
L 150.56705 102.452651 
L 150.7941 105.786961 
L 151.02115 112.541186 
L 151.2482 100.873841 
L 151.47525 98.575403 
L 151.7023 104.963242 
L 151.92935 105.223594 
L 152.1564 102.243438 
L 152.38345 107.836556 
L 152.6105 98.457981 
L 152.83755 103.705171 
L 153.0646 102.538564 
L 153.29165 98.508838 
L 153.5187 101.146063 
L 153.74575 102.203853 
L 153.9728 104.937667 
L 154.19985 113.520847 
L 154.4269 99.382129 
L 154.65395 108.011468 
L 155.10805 104.920232 
L 155.3351 108.347794 
L 155.56215 98.701227 
L 155.7892 102.532736 
L 156.01625 103.577771 
L 156.2433 102.011329 
L 156.47035 105.517449 
L 156.6974 101.79588 
L 157.1515 106.499559 
L 157.37855 105.181607 
L 157.6056 105.985523 
L 157.83265 100.856871 
L 158.0597 105.40064 
L 158.28675 99.378885 
L 158.5138 105.467501 
L 158.74085 105.383883 
L 158.9679 103.895945 
L 159.422 99.509383 
L 159.64905 103.347378 
L 159.8761 98.182656 
L 160.10315 101.803823 
L 160.3302 99.175146 
L 160.55725 102.215217 
L 160.7843 107.449481 
L 161.01135 104.901168 
L 161.2384 109.316569 
L 161.46545 106.122027 
L 161.6925 111.808744 
L 162.1466 105.637036 
L 162.37365 105.143627 
L 162.6007 107.677773 
L 162.82775 101.627566 
L 163.0548 102.805551 
L 163.28185 102.576161 
L 163.5089 107.910887 
L 163.73595 108.388421 
L 163.963 112.658811 
L 164.4171 100.081067 
L 164.64415 109.075594 
L 164.8712 100.41912 
L 165.09825 104.299561 
L 165.3253 104.724041 
L 165.55235 106.904208 
L 165.7794 100.213504 
L 166.00645 104.160008 
L 166.2335 103.403535 
L 166.46055 106.101028 
L 166.6876 97.708393 
L 166.91465 106.822932 
L 167.1417 102.83371 
L 167.36875 105.943968 
L 167.5958 106.666694 
L 168.0499 97.450613 
L 168.27695 101.307077 
L 168.504 109.501441 
L 168.73105 104.615429 
L 168.9581 115.196629 
L 169.18515 101.336794 
L 169.4122 101.690721 
L 169.63925 98.208304 
L 169.8663 98.851441 
L 170.09335 106.928635 
L 170.3204 103.657457 
L 170.54745 103.728651 
L 170.7745 105.713857 
L 171.00155 105.744241 
L 171.2286 107.153797 
L 171.45565 104.910571 
L 171.6827 105.547768 
L 172.1368 103.411507 
L 172.36385 103.942352 
L 172.5909 102.438923 
L 172.81795 103.341959 
L 173.045 104.989377 
L 173.27205 107.65907 
L 173.4991 100.07096 
L 173.9532 103.433971 
L 174.4073 115.330953 
L 174.63435 99.949207 
L 174.8614 108.293396 
L 175.08845 108.422003 
L 175.3155 100.298708 
L 175.54255 118.166666 
L 175.7696 104.869724 
L 175.99665 100.619571 
L 176.2237 103.404921 
L 176.45075 101.860736 
L 176.6778 112.365227 
L 176.90485 103.045845 
L 177.1319 109.574965 
L 177.35895 102.221206 
L 177.586 106.620913 
L 178.0401 99.207149 
L 178.26715 106.973143 
L 178.4942 104.648513 
L 178.72125 110.511819 
L 178.9483 103.0585 
L 179.17535 102.261717 
L 179.4024 112.140327 
L 179.62945 99.925617 
L 179.8565 110.965187 
L 180.08355 111.638775 
L 180.3106 115.952452 
L 180.53765 106.54994 
L 180.7647 114.776635 
L 180.99175 101.123778 
L 181.2188 104.662454 
L 181.44585 104.938882 
L 181.6729 105.633547 
L 181.89995 107.092533 
L 182.127 117.888914 
L 182.35405 103.259835 
L 182.5811 101.757431 
L 182.80815 104.833633 
L 183.0352 101.14766 
L 183.26225 108.204726 
L 183.4893 100.180795 
L 183.9434 107.178611 
L 184.17045 115.463874 
L 184.62455 108.633067 
L 184.8516 101.453347 
L 185.07865 104.326324 
L 185.3057 100.414911 
L 185.53275 101.209141 
L 185.7598 113.575835 
L 185.98685 110.964397 
L 186.2139 117.243582 
L 186.44095 106.707006 
L 186.668 103.819895 
L 186.89505 108.354144 
L 187.1221 105.35963 
L 187.34915 110.7113 
L 187.5762 103.78278 
L 187.80325 104.234224 
L 188.0303 109.613664 
L 188.25735 104.631214 
L 188.4844 105.08205 
L 188.71145 112.437903 
L 189.16555 104.872237 
L 189.3926 105.969272 
L 189.61965 102.378482 
L 189.8467 105.394414 
L 190.07375 114.747255 
L 190.52785 103.463425 
L 190.7549 105.715431 
L 190.98195 103.305042 
L 191.209 105.555407 
L 191.43605 106.672415 
L 191.89015 101.814987 
L 192.1172 100.781717 
L 192.34425 116.547501 
L 192.5713 104.755734 
L 193.25245 112.481224 
L 193.4795 117.598789 
L 193.9336 103.471719 
L 194.16065 109.041876 
L 194.3877 109.374106 
L 194.61475 105.950503 
L 194.8418 122.668188 
L 195.06885 121.288321 
L 195.2959 105.669114 
L 195.52295 111.886755 
L 195.52295 111.886755 
" clip-path="url(#p8cfe7ee56e)" style="fill: none; stroke: #0000ff; stroke-width: 0.5; stroke-linecap: square"/>
   </g>
   <g id="line2d_10">
    <path d="M 59.74705 90.648195 
L 59.9741 85.643849 
L 60.20115 85.449469 
L 60.4282 93.677774 
L 60.65525 91.69582 
L 60.8823 96.064431 
L 61.10935 94.069102 
L 61.3364 85.792295 
L 61.56345 87.100746 
L 61.7905 90.369497 
L 62.01755 88.137848 
L 62.2446 97.527334 
L 62.47165 91.852827 
L 62.6987 90.721594 
L 62.92575 87.365742 
L 63.1528 91.856698 
L 63.37985 93.52712 
L 63.6069 100.013421 
L 63.83395 88.727133 
L 64.061 86.270008 
L 64.5151 92.966763 
L 64.74215 99.656488 
L 64.9692 102.445972 
L 65.19625 88.753346 
L 65.4233 94.150629 
L 65.65035 88.655423 
L 66.10445 100.030726 
L 66.3315 98.535163 
L 66.55855 90.914974 
L 66.7856 89.953402 
L 67.01265 93.814114 
L 67.2397 94.098207 
L 67.46675 90.501249 
L 67.6938 91.029082 
L 67.92085 101.082409 
L 68.1479 91.735945 
L 68.37495 95.303172 
L 68.82905 96.13802 
L 69.0561 91.524206 
L 69.28315 98.584315 
L 69.5102 92.361449 
L 69.73725 105.314626 
L 69.9643 92.534574 
L 70.19135 99.699205 
L 70.4184 91.173559 
L 70.64545 112.604642 
L 70.8725 97.427886 
L 71.09955 99.889727 
L 71.3266 92.767746 
L 71.55365 101.149214 
L 71.7807 92.244825 
L 72.00775 105.489286 
L 72.2348 91.365964 
L 72.46185 96.646527 
L 72.6889 89.574501 
L 72.91595 100.497431 
L 73.143 98.755382 
L 73.37005 102.459621 
L 73.5971 99.325087 
L 73.82415 91.944794 
L 74.0512 102.618561 
L 74.27825 93.819356 
L 74.5053 96.555021 
L 74.73235 88.556548 
L 74.9594 88.677366 
L 75.18645 83.102202 
L 75.4135 93.050772 
L 75.64055 97.982589 
L 76.09465 89.25621 
L 76.3217 86.263611 
L 76.54875 96.363898 
L 76.7758 88.684768 
L 77.00285 88.342914 
L 77.45695 91.645459 
L 77.684 84.086187 
L 77.91105 93.346937 
L 78.1381 90.03014 
L 78.36515 106.776534 
L 78.5922 101.68106 
L 78.81925 86.05891 
L 79.0463 95.171051 
L 79.27335 82.974313 
L 79.5004 90.994769 
L 79.72745 85.562932 
L 79.9545 97.582321 
L 80.18155 81.951112 
L 80.4086 94.810315 
L 80.63565 87.744118 
L 80.8627 91.352317 
L 81.08975 86.298285 
L 81.3168 97.029662 
L 81.54385 93.997395 
L 81.7709 84.829229 
L 81.99795 91.0656 
L 82.225 93.724297 
L 82.6791 96.11052 
L 82.90615 90.219844 
L 83.1332 90.343097 
L 83.36025 99.872156 
L 83.81435 92.110875 
L 84.0414 94.966256 
L 84.26845 92.156483 
L 84.4955 91.110877 
L 84.72255 99.060093 
L 84.9496 99.224701 
L 85.17665 91.535786 
L 85.4037 92.809112 
L 85.63075 94.994307 
L 85.8578 92.53759 
L 86.08485 96.858528 
L 86.3119 107.166942 
L 86.53895 92.466101 
L 86.766 92.571622 
L 86.99305 101.686547 
L 87.2201 94.928757 
L 87.44715 95.645087 
L 87.6742 98.886126 
L 87.90125 94.324039 
L 88.1283 92.198728 
L 88.35535 104.296392 
L 88.80945 95.190388 
L 89.0365 95.933951 
L 89.26355 97.84589 
L 89.4906 93.08424 
L 89.71765 100.046147 
L 89.9447 100.811581 
L 90.17175 95.652719 
L 90.3988 96.122782 
L 90.62585 119.529263 
L 90.8529 94.96483 
L 91.07995 97.213621 
L 91.307 102.227347 
L 91.53405 99.792793 
L 91.7611 95.65275 
L 91.98815 105.766212 
L 92.2152 98.580218 
L 92.44225 98.800899 
L 92.6693 98.723808 
L 92.89635 101.146859 
L 93.1234 96.465836 
L 93.35045 102.411466 
L 93.5775 98.578909 
L 93.80455 102.435701 
L 94.0316 99.498845 
L 94.25865 99.910023 
L 94.4857 99.725261 
L 94.71275 102.800651 
L 94.9398 97.757388 
L 95.3939 102.075714 
L 95.62095 96.918501 
L 95.848 98.670553 
L 96.07505 104.779363 
L 96.3021 95.605119 
L 96.52915 95.293536 
L 96.7562 106.854666 
L 96.98325 97.308466 
L 97.2103 95.421499 
L 97.43735 107.984049 
L 97.6644 95.067076 
L 97.89145 94.197219 
L 98.1185 102.102859 
L 98.34555 99.320773 
L 98.5726 92.899884 
L 98.79965 97.84728 
L 99.0267 99.437471 
L 99.25375 93.858723 
L 99.4808 97.012221 
L 99.70785 103.072848 
L 99.9349 93.0578 
L 100.16195 93.558565 
L 100.389 102.075165 
L 100.61605 93.506236 
L 100.8431 93.30008 
L 101.07015 101.729436 
L 101.2972 93.403356 
L 101.52425 91.991121 
L 101.7513 99.03627 
L 102.2054 92.059996 
L 102.43245 95.715136 
L 102.6595 95.049302 
L 102.88655 91.114694 
L 103.34065 97.821195 
L 103.5677 91.667492 
L 103.79475 93.03754 
L 104.0218 98.495407 
L 104.24885 91.780666 
L 104.4759 92.997221 
L 104.70295 99.425637 
L 104.93 92.982905 
L 105.15705 92.0427 
L 105.3841 98.646706 
L 105.8382 91.643539 
L 106.06525 97.019159 
L 106.2923 95.228207 
L 106.51935 91.36039 
L 106.97345 97.412755 
L 107.2005 92.031047 
L 107.42755 93.86584 
L 107.6546 99.081223 
L 107.88165 92.025251 
L 108.1087 93.142011 
L 108.33575 107.399894 
L 108.5628 93.539731 
L 108.78985 92.515682 
L 109.0169 100.972671 
L 109.24395 94.276774 
L 109.471 92.944109 
L 109.69805 99.536166 
L 109.9251 97.140628 
L 110.15215 92.834789 
L 110.3792 96.879619 
L 110.60625 98.029582 
L 110.8333 93.261943 
L 111.06035 96.033386 
L 111.2874 102.614615 
L 111.51445 93.3197 
L 111.7415 95.8391 
L 111.96855 110.97958 
L 112.1956 95.095693 
L 112.42265 95.466241 
L 112.6497 124.472727 
L 112.87675 95.977134 
L 113.1038 95.047513 
L 113.33085 104.637465 
L 113.78495 95.407743 
L 114.012 101.769394 
L 114.23905 100.831743 
L 114.4661 96.891379 
L 114.9202 102.551725 
L 115.14725 97.728063 
L 115.3743 98.058943 
L 115.60135 102.140064 
L 115.8284 99.782048 
L 116.05545 99.268689 
L 116.2825 99.603105 
L 116.7366 101.020886 
L 116.96365 99.427329 
L 117.1907 99.590871 
L 117.41775 102.713142 
L 117.6448 97.156206 
L 117.87185 98.271278 
L 118.0989 106.940925 
L 118.32595 97.453595 
L 118.553 96.497415 
L 118.78005 107.073589 
L 119.0071 98.595636 
L 119.23415 95.598542 
L 119.4612 103.516115 
L 119.9153 94.481999 
L 120.14235 99.162208 
L 120.3694 99.000092 
L 120.59645 94.446897 
L 120.8235 97.099054 
L 121.05055 102.16528 
L 121.2776 93.244494 
L 121.50465 95.06226 
L 121.7317 108.079082 
L 121.95875 93.801523 
L 122.1858 93.386432 
L 122.41285 103.891853 
L 122.6399 94.215385 
L 122.86695 93.354494 
L 123.094 102.751334 
L 123.32105 94.951263 
L 123.5481 92.177694 
L 123.77515 98.184117 
L 124.0022 95.806737 
L 124.22925 91.957944 
L 124.68335 97.692149 
L 124.9104 91.501325 
L 125.13745 93.651721 
L 125.3645 99.717912 
L 125.59155 92.565138 
L 125.8186 92.672691 
L 126.04565 100.06078 
L 126.2727 92.534773 
L 126.49975 92.126066 
L 126.7268 99.656934 
L 126.95385 93.62264 
L 127.1809 91.519263 
L 127.40795 97.35946 
L 127.86205 91.380478 
L 128.0891 95.285716 
L 128.31615 96.601449 
L 128.5432 91.327774 
L 128.77025 94.10378 
L 128.9973 98.802734 
L 129.22435 92.102054 
L 129.4514 92.803681 
L 129.67845 100.321612 
L 129.9055 92.314349 
L 130.13255 92.226378 
L 130.3596 101.091939 
L 130.58665 93.300693 
L 130.8137 92.128431 
L 131.04075 99.027586 
L 131.49485 92.128144 
L 131.7219 98.100207 
L 131.94895 96.579658 
L 132.176 92.408544 
L 132.6301 99.837687 
L 132.85715 92.637587 
L 133.0842 95.498041 
L 133.31125 105.377161 
L 133.5383 93.246672 
L 133.76535 94.694906 
L 133.9924 110.547082 
L 134.21945 95.051783 
L 134.4465 94.519515 
L 134.67355 105.164323 
L 134.9006 96.819665 
L 135.12765 94.071723 
L 135.3547 103.031158 
L 135.8088 95.090557 
L 136.03585 100.43473 
L 136.2629 102.513945 
L 136.48995 96.245715 
L 136.717 98.895099 
L 136.94405 103.811074 
L 137.1711 97.137355 
L 137.39815 97.536021 
L 137.6252 102.315751 
L 137.85225 99.188359 
L 138.0793 98.821564 
L 138.30635 100.866119 
L 138.5334 99.534451 
L 138.76045 99.251234 
L 139.21455 99.479354 
L 139.4416 100.829192 
L 139.66865 98.801299 
L 139.8957 99.200903 
L 140.12275 103.195862 
L 140.57685 96.976474 
L 140.8039 103.480252 
L 141.258 95.70278 
L 141.48505 101.652077 
L 141.7121 101.695639 
L 141.93915 94.988231 
L 142.39325 101.857346 
L 142.6203 94.944771 
L 142.84735 96.204956 
L 143.0744 106.805325 
L 143.30145 94.536078 
L 143.5285 95.537563 
L 143.75555 110.703148 
L 143.9826 95.162557 
L 144.20965 93.438784 
L 144.4367 102.684939 
L 144.66375 94.943445 
L 144.8908 93.09432 
L 145.11785 98.948127 
L 145.3449 96.774798 
L 145.57195 92.572976 
L 145.799 96.226679 
L 146.02605 97.53588 
L 146.2531 92.335831 
L 146.48015 94.709393 
L 146.7072 100.649425 
L 146.93425 92.528468 
L 147.1613 93.33304 
L 147.38835 100.369562 
L 147.6154 92.870413 
L 147.84245 92.57936 
L 148.0695 100.721609 
L 148.29655 93.143543 
L 148.5236 91.464871 
L 148.75065 98.528195 
L 149.20475 91.196703 
L 149.4318 95.499215 
L 149.65885 96.182263 
L 149.8859 91.581315 
L 150.34 97.471126 
L 150.56705 91.465667 
L 150.7941 93.244527 
L 151.02115 98.779763 
L 151.2482 92.154303 
L 151.47525 92.543717 
L 151.7023 100.653688 
L 151.92935 92.909711 
L 152.1564 91.715665 
L 152.38345 99.581427 
L 152.6105 94.187743 
L 152.83755 91.776456 
L 153.0646 96.982284 
L 153.29165 95.668387 
L 153.5187 91.781252 
L 153.74575 95.881412 
L 153.9728 97.52119 
L 154.19985 92.140882 
L 154.4269 94.453345 
L 154.65395 101.080503 
L 154.881 93.049883 
L 155.10805 94.001531 
L 155.3351 104.225301 
L 155.56215 94.244288 
L 155.7892 93.595912 
L 156.01625 104.500565 
L 156.2433 94.644892 
L 156.47035 93.970043 
L 156.6974 100.88618 
L 157.1515 93.595536 
L 157.37855 99.93314 
L 157.6056 100.468934 
L 157.83265 94.240437 
L 158.0597 97.351607 
L 158.28675 104.162798 
L 158.5138 95.590035 
L 158.74085 97.602979 
L 158.9679 107.009721 
L 159.19495 96.729249 
L 159.422 97.022658 
L 159.64905 107.014101 
L 159.8761 98.184098 
L 160.10315 96.785873 
L 160.3302 102.687137 
L 160.55725 99.480127 
L 160.7843 98.72803 
L 161.01135 100.949985 
L 161.2384 100.371246 
L 161.46545 98.926625 
L 161.6925 100.148319 
L 161.91955 99.779751 
L 162.1466 100.258002 
L 162.6007 98.06932 
L 162.82775 102.190856 
L 163.0548 101.04598 
L 163.28185 97.349897 
L 163.73595 102.230183 
L 163.963 96.256946 
L 164.19005 98.133475 
L 164.4171 105.305452 
L 164.64415 95.832625 
L 164.8712 96.540861 
L 165.09825 112.129365 
L 165.3253 95.744505 
L 165.55235 95.33612 
L 165.7794 106.350692 
L 166.00645 96.019582 
L 166.2335 94.126606 
L 166.46055 102.163818 
L 166.91465 93.158208 
L 167.1417 98.603348 
L 167.36875 97.946207 
L 167.5958 92.487615 
L 167.82285 95.761528 
L 168.0499 101.178068 
L 168.27695 92.784028 
L 168.504 94.21308 
L 168.73105 102.281565 
L 168.9581 93.14263 
L 169.18515 92.915316 
L 169.4122 102.359495 
L 169.63925 93.915964 
L 169.8663 92.186538 
L 170.09335 98.731738 
L 170.54745 91.696862 
L 170.7745 96.170669 
L 171.00155 95.740803 
L 171.2286 91.213962 
L 171.6827 97.224161 
L 171.90975 91.615857 
L 172.1368 93.420194 
L 172.36385 99.425135 
L 172.5909 91.789798 
L 172.81795 92.380666 
L 173.045 99.599671 
L 173.27205 92.356936 
L 173.4991 91.420243 
L 173.72615 99.408131 
L 173.9532 93.78252 
L 174.18025 91.369342 
L 174.4073 97.002101 
L 174.8614 91.411603 
L 175.08845 95.368336 
L 175.3155 96.604112 
L 175.54255 91.684943 
L 175.99665 98.542741 
L 176.2237 91.984773 
L 176.45075 93.935111 
L 176.6778 101.337855 
L 176.90485 92.803377 
L 177.1319 93.157064 
L 177.35895 102.209889 
L 177.586 94.146376 
L 177.81305 92.61396 
L 178.0401 101.102313 
L 178.4942 92.568539 
L 178.72125 98.723989 
L 178.9483 98.276248 
L 179.17535 93.467625 
L 179.4024 96.91819 
L 179.62945 102.489016 
L 179.8565 94.425601 
L 180.08355 95.92954 
L 180.3106 109.173087 
L 180.53765 94.629774 
L 180.7647 95.865859 
L 180.99175 117.656816 
L 181.2188 96.582615 
L 181.44585 95.673825 
L 181.6729 106.737123 
L 181.89995 97.786289 
L 182.127 96.397886 
L 182.35405 103.276747 
L 182.80815 97.648252 
L 183.26225 101.44441 
L 183.4893 98.10007 
L 183.71635 100.049118 
L 183.9434 100.525785 
L 184.3975 99.483139 
L 184.62455 99.784805 
L 184.8516 99.587045 
L 185.07865 100.614761 
L 185.3057 98.128721 
L 185.53275 98.956325 
L 185.7598 103.927311 
L 185.98685 96.970083 
L 186.2139 98.122762 
L 186.44095 107.88657 
L 186.668 97.08961 
L 186.89505 96.798572 
L 187.1221 106.845861 
L 187.34915 97.355314 
L 187.5762 95.112452 
L 187.80325 104.133329 
L 188.25735 94.311821 
L 188.4844 99.906268 
L 188.71145 100.040899 
L 188.9385 94.088206 
L 189.3926 101.89374 
L 189.61965 93.416706 
L 189.8467 95.223183 
L 190.07375 103.720401 
L 190.3008 93.431643 
L 190.52785 93.632991 
L 190.7549 104.657884 
L 190.98195 93.666597 
L 191.209 92.854382 
L 191.43605 102.017526 
L 191.6631 94.302219 
L 191.89015 92.330235 
L 192.1172 97.5996 
L 192.34425 95.749161 
L 192.5713 91.780886 
L 192.79835 95.671009 
L 193.0254 97.041787 
L 193.25245 91.415908 
L 193.4795 94.472088 
L 193.70655 99.509504 
L 193.9336 91.892226 
L 194.16065 93.283636 
L 194.3877 99.989334 
L 194.61475 92.182406 
L 194.8418 92.233808 
L 195.06885 99.178911 
L 195.2959 93.283562 
L 195.52295 91.462452 
L 195.52295 91.462452 
" clip-path="url(#p8cfe7ee56e)" style="fill: none; stroke: #ff0000; stroke-width: 0.4; stroke-linecap: square"/>
   </g>
   <g id="patch_3">
    <path d="M 59.52 129.12 
L 59.52 26.88 
" style="fill: none; stroke: #000000; stroke-width: 0.8; stroke-linejoin: miter; stroke-linecap: square"/>
   </g>
   <g id="patch_4">
    <path d="M 195.75 129.12 
L 195.75 26.88 
" style="fill: none; stroke: #000000; stroke-width: 0.8; stroke-linejoin: miter; stroke-linecap: square"/>
   </g>
   <g id="patch_5">
    <path d="M 59.52 129.12 
L 195.75 129.12 
" style="fill: none; stroke: #000000; stroke-width: 0.8; stroke-linejoin: miter; stroke-linecap: square"/>
   </g>
   <g id="patch_6">
    <path d="M 59.52 26.88 
L 195.75 26.88 
" style="fill: none; stroke: #000000; stroke-width: 0.8; stroke-linejoin: miter; stroke-linecap: square"/>
   </g>
   <g id="text_10">
    <!-- Frequency Domain Plot -->
    <g transform="translate(58.235625 20.88) scale(0.12 -0.12)">
     <defs>
      <path id="DejaVuSans-44" d="M 1259 4147 
L 1259 519 
L 2022 519 
Q 2988 519 3436 956 
Q 3884 1394 3884 2338 
Q 3884 3275 3436 3711 
Q 2988 4147 2022 4147 
L 1259 4147 
z
M 628 4666 
L 1925 4666 
Q 3281 4666 3915 4102 
Q 4550 3538 4550 2338 
Q 4550 1131 3912 565 
Q 3275 0 1925 0 
L 628 0 
L 628 4666 
z
" transform="scale(0.015625)"/>
      <path id="DejaVuSans-6d" d="M 3328 2828 
Q 3544 3216 3844 3400 
Q 4144 3584 4550 3584 
Q 5097 3584 5394 3201 
Q 5691 2819 5691 2113 
L 5691 0 
L 5113 0 
L 5113 2094 
Q 5113 2597 4934 2840 
Q 4756 3084 4391 3084 
Q 3944 3084 3684 2787 
Q 3425 2491 3425 1978 
L 3425 0 
L 2847 0 
L 2847 2094 
Q 2847 2600 2669 2842 
Q 2491 3084 2119 3084 
Q 1678 3084 1418 2786 
Q 1159 2488 1159 1978 
L 1159 0 
L 581 0 
L 581 3500 
L 1159 3500 
L 1159 2956 
Q 1356 3278 1631 3431 
Q 1906 3584 2284 3584 
Q 2666 3584 2933 3390 
Q 3200 3197 3328 2828 
z
" transform="scale(0.015625)"/>
      <path id="DejaVuSans-61" d="M 2194 1759 
Q 1497 1759 1228 1600 
Q 959 1441 959 1056 
Q 959 750 1161 570 
Q 1363 391 1709 391 
Q 2188 391 2477 730 
Q 2766 1069 2766 1631 
L 2766 1759 
L 2194 1759 
z
M 3341 1997 
L 3341 0 
L 2766 0 
L 2766 531 
Q 2569 213 2275 61 
Q 1981 -91 1556 -91 
Q 1019 -91 701 211 
Q 384 513 384 1019 
Q 384 1609 779 1909 
Q 1175 2209 1959 2209 
L 2766 2209 
L 2766 2266 
Q 2766 2663 2505 2880 
Q 2244 3097 1772 3097 
Q 1472 3097 1187 3025 
Q 903 2953 641 2809 
L 641 3341 
Q 956 3463 1253 3523 
Q 1550 3584 1831 3584 
Q 2591 3584 2966 3190 
Q 3341 2797 3341 1997 
z
" transform="scale(0.015625)"/>
      <path id="DejaVuSans-69" d="M 603 3500 
L 1178 3500 
L 1178 0 
L 603 0 
L 603 3500 
z
M 603 4863 
L 1178 4863 
L 1178 4134 
L 603 4134 
L 603 4863 
z
" transform="scale(0.015625)"/>
      <path id="DejaVuSans-50" d="M 1259 4147 
L 1259 2394 
L 2053 2394 
Q 2494 2394 2734 2622 
Q 2975 2850 2975 3272 
Q 2975 3691 2734 3919 
Q 2494 4147 2053 4147 
L 1259 4147 
z
M 628 4666 
L 2053 4666 
Q 2838 4666 3239 4311 
Q 3641 3956 3641 3272 
Q 3641 2581 3239 2228 
Q 2838 1875 2053 1875 
L 1259 1875 
L 1259 0 
L 628 0 
L 628 4666 
z
" transform="scale(0.015625)"/>
      <path id="DejaVuSans-6c" d="M 603 4863 
L 1178 4863 
L 1178 0 
L 603 0 
L 603 4863 
z
" transform="scale(0.015625)"/>
      <path id="DejaVuSans-74" d="M 1172 4494 
L 1172 3500 
L 2356 3500 
L 2356 3053 
L 1172 3053 
L 1172 1153 
Q 1172 725 1289 603 
Q 1406 481 1766 481 
L 2356 481 
L 2356 0 
L 1766 0 
Q 1100 0 847 248 
Q 594 497 594 1153 
L 594 3053 
L 172 3053 
L 172 3500 
L 594 3500 
L 594 4494 
L 1172 4494 
z
" transform="scale(0.015625)"/>
     </defs>
     <use xlink:href="#DejaVuSans-46"/>
     <use xlink:href="#DejaVuSans-72" x="50.269531"/>
     <use xlink:href="#DejaVuSans-65" x="89.132812"/>
     <use xlink:href="#DejaVuSans-71" x="150.65625"/>
     <use xlink:href="#DejaVuSans-75" x="214.132812"/>
     <use xlink:href="#DejaVuSans-65" x="277.511719"/>
     <use xlink:href="#DejaVuSans-6e" x="339.035156"/>
     <use xlink:href="#DejaVuSans-63" x="402.414062"/>
     <use xlink:href="#DejaVuSans-79" x="457.394531"/>
     <use xlink:href="#DejaVuSans-20" x="516.574219"/>
     <use xlink:href="#DejaVuSans-44" x="548.361328"/>
     <use xlink:href="#DejaVuSans-6f" x="625.363281"/>
     <use xlink:href="#DejaVuSans-6d" x="686.544922"/>
     <use xlink:href="#DejaVuSans-61" x="783.957031"/>
     <use xlink:href="#DejaVuSans-69" x="845.236328"/>
     <use xlink:href="#DejaVuSans-6e" x="873.019531"/>
     <use xlink:href="#DejaVuSans-20" x="936.398438"/>
     <use xlink:href="#DejaVuSans-50" x="968.185547"/>
     <use xlink:href="#DejaVuSans-6c" x="1028.488281"/>
     <use xlink:href="#DejaVuSans-6f" x="1056.271484"/>
     <use xlink:href="#DejaVuSans-74" x="1117.453125"/>
    </g>
   </g>
   <g id="legend_1">
    <g id="patch_7">
     <path d="M 20.751 158.292 
L 51.619125 158.292 
Q 52.219125 158.292 52.219125 157.692 
L 52.219125 144.781688 
Q 52.219125 144.181688 51.619125 144.181688 
L 20.751 144.181688 
Q 20.151 144.181688 20.151 144.781688 
L 20.151 157.692 
Q 20.151 158.292 20.751 158.292 
z
" style="fill: #ffffff; opacity: 0.8; stroke: #cccccc; stroke-linejoin: miter"/>
    </g>
    <g id="line2d_11">
     <path d="M 21.351 146.611219 
L 24.351 146.611219 
L 27.351 146.611219 
" style="fill: none; stroke: #808080; stroke-width: 0.5; stroke-linecap: square"/>
    </g>
    <g id="text_11">
     <!-- Contaminated -->
     <g transform="translate(29.751 147.661219) scale(0.03 -0.03)">
      <defs>
       <path id="DejaVuSans-43" d="M 4122 4306 
L 4122 3641 
Q 3803 3938 3442 4084 
Q 3081 4231 2675 4231 
Q 1875 4231 1450 3742 
Q 1025 3253 1025 2328 
Q 1025 1406 1450 917 
Q 1875 428 2675 428 
Q 3081 428 3442 575 
Q 3803 722 4122 1019 
L 4122 359 
Q 3791 134 3420 21 
Q 3050 -91 2638 -91 
Q 1578 -91 968 557 
Q 359 1206 359 2328 
Q 359 3453 968 4101 
Q 1578 4750 2638 4750 
Q 3056 4750 3426 4639 
Q 3797 4528 4122 4306 
z
" transform="scale(0.015625)"/>
      </defs>
      <use xlink:href="#DejaVuSans-43"/>
      <use xlink:href="#DejaVuSans-6f" x="69.824219"/>
      <use xlink:href="#DejaVuSans-6e" x="131.005859"/>
      <use xlink:href="#DejaVuSans-74" x="194.384766"/>
      <use xlink:href="#DejaVuSans-61" x="233.59375"/>
      <use xlink:href="#DejaVuSans-6d" x="294.873047"/>
      <use xlink:href="#DejaVuSans-69" x="392.285156"/>
      <use xlink:href="#DejaVuSans-6e" x="420.068359"/>
      <use xlink:href="#DejaVuSans-61" x="483.447266"/>
      <use xlink:href="#DejaVuSans-74" x="544.726562"/>
      <use xlink:href="#DejaVuSans-65" x="583.935547"/>
      <use xlink:href="#DejaVuSans-64" x="645.458984"/>
     </g>
    </g>
    <g id="line2d_12">
     <path d="M 21.351 151.014656 
L 24.351 151.014656 
L 27.351 151.014656 
" style="fill: none; stroke: #0000ff; stroke-width: 0.5; stroke-linecap: square"/>
    </g>
    <g id="text_12">
     <!-- Clean -->
     <g transform="translate(29.751 152.064656) scale(0.03 -0.03)">
      <use xlink:href="#DejaVuSans-43"/>
      <use xlink:href="#DejaVuSans-6c" x="69.824219"/>
      <use xlink:href="#DejaVuSans-65" x="97.607422"/>
      <use xlink:href="#DejaVuSans-61" x="159.130859"/>
      <use xlink:href="#DejaVuSans-6e" x="220.410156"/>
     </g>
    </g>
    <g id="line2d_13">
     <path d="M 21.351 155.418094 
L 24.351 155.418094 
L 27.351 155.418094 
" style="fill: none; stroke: #ff0000; stroke-width: 0.4; stroke-linecap: square"/>
    </g>
    <g id="text_13">
     <!-- SACed -->
     <g transform="translate(29.751 156.468094) scale(0.03 -0.03)">
      <defs>
       <path id="DejaVuSans-53" d="M 3425 4513 
L 3425 3897 
Q 3066 4069 2747 4153 
Q 2428 4238 2131 4238 
Q 1616 4238 1336 4038 
Q 1056 3838 1056 3469 
Q 1056 3159 1242 3001 
Q 1428 2844 1947 2747 
L 2328 2669 
Q 3034 2534 3370 2195 
Q 3706 1856 3706 1288 
Q 3706 609 3251 259 
Q 2797 -91 1919 -91 
Q 1588 -91 1214 -16 
Q 841 59 441 206 
L 441 856 
Q 825 641 1194 531 
Q 1563 422 1919 422 
Q 2459 422 2753 634 
Q 3047 847 3047 1241 
Q 3047 1584 2836 1778 
Q 2625 1972 2144 2069 
L 1759 2144 
Q 1053 2284 737 2584 
Q 422 2884 422 3419 
Q 422 4038 858 4394 
Q 1294 4750 2059 4750 
Q 2388 4750 2728 4690 
Q 3069 4631 3425 4513 
z
" transform="scale(0.015625)"/>
       <path id="DejaVuSans-41" d="M 2188 4044 
L 1331 1722 
L 3047 1722 
L 2188 4044 
z
M 1831 4666 
L 2547 4666 
L 4325 0 
L 3669 0 
L 3244 1197 
L 1141 1197 
L 716 0 
L 50 0 
L 1831 4666 
z
" transform="scale(0.015625)"/>
      </defs>
      <use xlink:href="#DejaVuSans-53"/>
      <use xlink:href="#DejaVuSans-41" x="65.351562"/>
      <use xlink:href="#DejaVuSans-43" x="132.009766"/>
      <use xlink:href="#DejaVuSans-65" x="201.833984"/>
      <use xlink:href="#DejaVuSans-64" x="263.357422"/>
     </g>
    </g>
   </g>
  </g>
 </g>
 <defs>
  <clipPath id="p8cfe7ee56e">
   <rect x="59.52" y="26.88" width="136.23" height="102.24"/>
  </clipPath>
 </defs>
</svg>
