<?xml version="1.0" encoding="utf-8" standalone="no"?>
<!DOCTYPE svg PUBLIC "-//W3C//DTD SVG 1.1//EN"
  "http://www.w3.org/Graphics/SVG/1.1/DTD/svg11.dtd">
<svg xmlns:xlink="http://www.w3.org/1999/xlink" width="216pt" height="180pt" viewBox="0 0 216 180" xmlns="http://www.w3.org/2000/svg" version="1.1">
 <metadata>
  <rdf:RDF xmlns:dc="http://purl.org/dc/elements/1.1/" xmlns:cc="http://creativecommons.org/ns#" xmlns:rdf="http://www.w3.org/1999/02/22-rdf-syntax-ns#">
   <cc:Work>
    <dc:type rdf:resource="http://purl.org/dc/dcmitype/StillImage"/>
    <dc:date>2024-09-11T18:45:59.502328</dc:date>
    <dc:format>image/svg+xml</dc:format>
    <dc:creator>
     <cc:Agent>
      <dc:title>Matplotlib v3.9.1, https://matplotlib.org/</dc:title>
     </cc:Agent>
    </dc:creator>
   </cc:Work>
  </rdf:RDF>
 </metadata>
 <defs>
  <style type="text/css">*{stroke-linejoin: round; stroke-linecap: butt}</style>
 </defs>
 <g id="figure_1">
  <g id="patch_1">
   <path d="M 0 180 
L 216 180 
L 216 0 
L 0 0 
z
" style="fill: #ffffff"/>
  </g>
  <g id="axes_1">
   <g id="patch_2">
    <path d="M 59.52 129.12 
L 197.325 129.12 
L 197.325 26.88 
L 59.52 26.88 
z
" style="fill: #ffffff"/>
   </g>
   <g id="line2d_1">
    <path d="M 59.52 63.266279 
L 59.62338 62.321522 
L 59.657839 63.03642 
L 59.726759 62.421036 
L 59.761219 62.643849 
L 59.795679 62.175771 
L 59.830139 61.974629 
L 59.899059 62.150437 
L 59.933518 62.045543 
L 60.036898 62.58205 
L 60.071358 62.577711 
L 60.140278 60.856592 
L 60.209197 61.217084 
L 60.243657 61.887882 
L 60.278117 60.852424 
L 60.312577 61.845256 
L 60.347037 61.015829 
L 60.415956 61.254364 
L 60.484876 61.15553 
L 60.519336 62.026771 
L 60.588256 61.298321 
L 60.622716 61.482345 
L 60.657176 61.246836 
L 60.691635 60.191638 
L 60.760555 60.805779 
L 60.932854 61.525268 
L 61.001774 61.378362 
L 61.036234 62.090815 
L 61.070694 61.356994 
L 61.105154 61.782374 
L 61.139614 62.310681 
L 61.174074 60.835569 
L 61.242993 61.919484 
L 61.277453 62.695908 
L 61.311913 61.671012 
L 61.346373 62.541203 
L 61.380833 62.418761 
L 61.415293 61.50291 
L 61.484212 62.137126 
L 61.553132 62.059954 
L 61.622052 62.573816 
L 61.759891 61.78222 
L 61.863271 61.459481 
L 62.00111 62.620086 
L 62.03557 62.565567 
L 62.10449 62.29973 
L 62.242329 62.958205 
L 62.380169 62.088106 
L 62.483548 63.3906 
L 62.655848 61.809322 
L 62.690308 63.079352 
L 62.759227 62.90114 
L 62.793687 62.25013 
L 62.828147 62.361885 
L 62.862607 63.288225 
L 62.931527 62.203498 
L 62.965986 62.805618 
L 63.034906 62.177912 
L 63.069366 62.781863 
L 63.103826 62.617212 
L 63.138286 63.396037 
L 63.207206 62.981165 
L 63.241665 62.636734 
L 63.276125 63.084947 
L 63.310585 63.938549 
L 63.413965 63.929088 
L 63.448425 63.733129 
L 63.517344 64.727718 
L 63.551804 63.731028 
L 63.586264 63.823229 
L 63.655184 64.051502 
L 63.724104 63.007171 
L 63.793023 64.376493 
L 63.861943 63.796175 
L 63.896403 64.143697 
L 63.930863 63.062127 
L 64.034242 63.285422 
L 64.275461 62.034268 
L 64.309921 62.082738 
L 64.344381 61.178475 
L 64.413301 61.801171 
L 64.447761 61.561733 
L 64.482221 61.954165 
L 64.51668 61.913537 
L 64.55114 62.312672 
L 64.62006 62.023654 
L 64.65452 61.2782 
L 64.72344 62.071834 
L 64.792359 62.706497 
L 64.826819 62.145109 
L 64.895739 62.187947 
L 64.930199 61.755759 
L 64.964659 62.55729 
L 65.033578 62.175726 
L 65.102498 62.408911 
L 65.171418 61.672033 
L 65.205878 62.56651 
L 65.309257 62.482197 
L 65.343717 62.977538 
L 65.378177 62.153918 
L 65.412637 62.467276 
L 65.447097 62.841682 
L 65.481557 62.082832 
L 65.791695 63.572589 
L 65.860615 63.718827 
L 65.929535 62.582232 
L 65.963995 64.107721 
L 66.032914 63.236914 
L 66.101834 63.349143 
L 66.239674 62.124823 
L 66.274134 62.978139 
L 66.308593 61.794121 
L 66.343053 62.166366 
L 66.377513 62.203887 
L 66.411973 62.619822 
L 66.480893 62.24234 
L 66.515353 62.176711 
L 66.687652 63.110768 
L 66.997791 60.484 
L 67.10117 61.749028 
L 67.13563 60.847987 
L 67.17009 62.02481 
L 67.20455 61.147365 
L 67.376849 63.135809 
L 67.411309 63.235293 
L 67.480229 63.11846 
L 67.583608 62.39583 
L 67.618068 62.625127 
L 67.652528 63.43628 
L 67.755908 63.271737 
L 67.824827 63.984677 
L 67.859287 63.819077 
L 67.893747 63.297569 
L 67.928207 64.072231 
L 67.962667 63.814868 
L 67.997127 63.748553 
L 68.031587 62.994404 
L 68.066047 64.053788 
L 68.100506 64.07128 
L 68.169426 64.963497 
L 68.238346 64.439552 
L 68.272806 63.770145 
L 68.341725 63.897482 
L 68.376185 63.958782 
L 68.410645 64.700856 
L 68.445105 63.913272 
L 68.514025 64.653858 
L 68.582944 64.731634 
L 68.755244 63.583831 
L 68.893083 64.272447 
L 68.962003 64.148047 
L 68.996463 63.299091 
L 69.065383 63.50571 
L 69.134302 64.435539 
L 69.168762 63.026951 
L 69.203222 64.497835 
L 69.237682 64.917167 
L 69.272142 64.439063 
L 69.306602 64.541615 
L 69.409981 64.635613 
L 69.478901 64.050562 
L 69.513361 65.048069 
L 69.582281 64.791718 
L 69.72012 63.701629 
L 69.75458 64.390552 
L 69.857959 64.070931 
L 69.892419 63.845901 
L 69.926879 63.908238 
L 70.030259 64.452076 
L 70.064719 64.279064 
L 70.133638 64.254735 
L 70.168098 63.696284 
L 70.202558 64.386467 
L 70.237018 63.965414 
L 70.271478 63.913787 
L 70.305938 64.200877 
L 70.340398 63.772728 
L 70.478237 64.122174 
L 70.581617 62.575542 
L 70.616077 63.110667 
L 70.650536 63.253202 
L 70.684996 62.436811 
L 70.788376 62.573555 
L 70.857296 63.466142 
L 70.891755 63.092734 
L 70.926215 62.422855 
L 70.960675 63.242471 
L 71.029595 63.72076 
L 71.064055 62.705604 
L 71.132974 63.346511 
L 71.167434 63.823172 
L 71.201894 63.392317 
L 71.339734 62.658042 
L 71.408653 62.542593 
L 71.443113 63.05298 
L 71.580953 62.068623 
L 71.718792 62.500745 
L 71.787712 61.703079 
L 71.822172 62.751746 
L 71.891092 62.320924 
L 71.925551 62.374149 
L 71.960011 61.927824 
L 71.994471 62.754102 
L 72.028931 62.645532 
L 72.063391 62.996027 
L 72.132311 62.680277 
L 72.16677 62.753703 
L 72.23569 63.380608 
L 72.27015 62.762187 
L 72.442449 63.209718 
L 72.476909 63.268396 
L 72.545829 64.308875 
L 72.580289 63.213385 
L 72.683668 63.894805 
L 72.718128 63.27264 
L 72.787048 63.612702 
L 72.821508 63.643938 
L 72.855968 63.510254 
L 72.890428 64.299083 
L 72.959347 64.081881 
L 73.028267 64.20533 
L 73.062727 63.586426 
L 73.097187 63.759523 
L 73.166107 64.931153 
L 73.200566 63.654646 
L 73.235026 64.352639 
L 73.269486 63.946042 
L 73.303946 74.147485 
L 73.338406 53.670676 
L 73.372866 45.654728 
L 73.441785 48.860233 
L 73.614085 77.837364 
L 73.820844 104.704211 
L 73.924224 46.227628 
L 73.993143 48.830449 
L 74.372202 105.426075 
L 74.475581 46.798323 
L 74.544501 50.306259 
L 74.7168 78.702581 
L 74.92356 103.924573 
L 75.026939 46.249455 
L 75.095859 49.917545 
L 75.268158 78.778927 
L 75.474917 103.445044 
L 75.578297 45.871602 
L 75.647217 47.674871 
L 76.026275 102.501101 
L 76.129655 44.54251 
L 76.198575 48.247273 
L 76.405334 83.425726 
L 76.577633 102.00839 
L 76.681013 43.365371 
L 76.749932 46.534199 
L 77.128991 100.691868 
L 77.232371 43.31198 
L 77.30129 45.396386 
L 77.680349 101.081376 
L 77.783728 43.097489 
L 77.852648 45.965311 
L 78.231707 102.55987 
L 78.335086 43.917825 
L 78.404006 47.269741 
L 78.748605 101.939341 
L 78.783065 101.471109 
L 78.886444 44.676892 
L 78.955364 48.199701 
L 79.127663 77.56088 
L 79.334422 102.853349 
L 79.437802 44.865478 
L 79.506722 47.839369 
L 79.644561 70.062915 
L 79.88578 103.061072 
L 79.98916 43.371836 
L 80.05808 47.12167 
L 80.230379 76.010497 
L 80.437138 101.718405 
L 80.540518 43.855238 
L 80.609437 46.748207 
L 80.781737 76.423956 
L 80.988496 102.580211 
L 81.091875 43.59378 
L 81.160795 47.123302 
L 81.298635 69.402933 
L 81.539854 101.979204 
L 81.677693 44.055127 
L 81.712153 45.712491 
L 82.091212 101.713572 
L 82.194591 43.32118 
L 82.263511 47.31324 
L 82.40135 69.475449 
L 82.642569 102.163801 
L 82.745949 43.866638 
L 82.814869 46.831081 
L 82.987168 76.588431 
L 83.193927 102.75455 
L 83.297307 45.268327 
L 83.366227 48.007541 
L 83.745285 103.868407 
L 83.883125 46.123862 
L 83.917584 48.884685 
L 84.055424 70.394765 
L 84.296643 103.234665 
L 84.400023 44.883135 
L 84.468942 47.502458 
L 84.848001 103.739537 
L 84.95138 44.899319 
L 85.0203 48.446689 
L 85.261519 90.509477 
L 85.399359 104.009256 
L 85.502738 45.871159 
L 85.571658 48.727004 
L 85.950716 103.451111 
L 86.088556 44.779514 
L 86.123016 48.203361 
L 86.260855 69.717396 
L 86.502074 101.806051 
L 86.605454 43.790952 
L 86.674374 47.74781 
L 86.846673 77.035414 
L 87.053432 102.711054 
L 87.156812 43.632227 
L 87.225731 47.862777 
L 87.329111 62.981421 
L 87.60479 102.115657 
L 87.70817 43.453989 
L 87.777089 46.464143 
L 88.156148 101.036662 
L 88.259527 42.469688 
L 88.328447 45.751454 
L 88.500746 74.184238 
L 88.707506 100.976301 
L 88.810885 43.041675 
L 88.879805 46.664865 
L 89.052104 76.529487 
L 89.258863 102.519598 
L 89.362243 45.184261 
L 89.431163 48.502878 
L 89.637922 83.92129 
L 89.810221 103.084182 
L 89.913601 44.553445 
L 89.982521 48.059114 
L 90.15482 77.675964 
L 90.361579 102.83077 
L 90.464959 45.517697 
L 90.533878 48.537974 
L 90.706178 77.115347 
L 90.912937 102.074248 
L 91.016317 42.839387 
L 91.085236 47.221212 
L 91.223076 67.985601 
L 91.464295 101.332327 
L 91.602134 43.016021 
L 91.636594 45.872048 
L 91.808893 75.521567 
L 92.015653 100.586284 
L 92.119032 41.587659 
L 92.187952 45.627022 
L 92.291332 60.486093 
L 92.567011 99.618268 
L 92.67039 42.001471 
L 92.73931 45.117472 
L 92.877149 66.729589 
L 93.118368 100.079818 
L 93.221748 41.670033 
L 93.290668 45.460745 
L 93.497427 81.392811 
L 93.669726 99.326917 
L 93.773106 40.995378 
L 93.842026 44.572497 
L 94.221084 99.53873 
L 94.324464 41.901446 
L 94.393383 45.216882 
L 94.772442 101.168634 
L 94.875821 42.728219 
L 94.944741 46.802836 
L 95.117041 75.422534 
L 95.3238 102.112576 
L 95.427179 43.347722 
L 95.496099 46.633835 
L 95.875158 102.147124 
L 95.978537 44.705349 
L 96.047457 47.485664 
L 96.426515 103.651458 
L 96.529895 45.256946 
L 96.598815 47.216759 
L 96.771114 76.863188 
L 96.977873 102.510915 
L 97.081253 44.205296 
L 97.150173 47.233661 
L 97.529231 101.610794 
L 97.632611 42.93291 
L 97.70153 46.524756 
L 97.942749 88.674421 
L 98.080589 100.944505 
L 98.183968 43.043184 
L 98.252888 45.914267 
L 98.631947 100.622713 
L 98.735326 42.813811 
L 98.804246 46.182829 
L 99.183305 102.308951 
L 99.286684 44.573651 
L 99.355604 47.981887 
L 99.527903 77.527022 
L 99.734662 102.949001 
L 99.838042 44.723803 
L 99.906962 48.317034 
L 100.148181 90.962084 
L 100.28602 104.043272 
L 100.3894 45.874463 
L 100.45832 49.063272 
L 100.837378 104.689078 
L 100.940758 44.925705 
L 101.009677 49.341736 
L 101.181977 78.281895 
L 101.388736 104.079195 
L 101.492116 45.477448 
L 101.561035 48.28 
L 101.767794 84.826405 
L 101.940094 102.903235 
L 102.043473 44.82069 
L 102.112393 48.118529 
L 102.250233 70.269827 
L 102.491452 102.664085 
L 102.594831 45.198248 
L 102.663751 47.950518 
L 103.042809 101.408738 
L 103.146189 43.79219 
L 103.215109 47.103539 
L 103.387408 75.369963 
L 103.594167 101.160257 
L 103.697547 42.74126 
L 103.766467 47.124382 
L 103.938766 77.016213 
L 104.145525 102.968878 
L 104.248905 44.434772 
L 104.317824 47.884706 
L 104.490124 77.425831 
L 104.696883 102.449834 
L 104.800263 44.258321 
L 104.869182 47.977697 
L 105.041482 77.594753 
L 105.213781 102.830193 
L 105.248241 102.822233 
L 105.35162 45.187133 
L 105.42054 48.774798 
L 105.799599 102.384851 
L 105.902978 43.755324 
L 105.971898 47.774207 
L 106.144197 77.197166 
L 106.350956 103.53139 
L 106.454336 45.40103 
L 106.523256 48.529679 
L 106.902314 103.243874 
L 107.005694 45.562657 
L 107.074614 48.636043 
L 107.177993 63.440778 
L 107.453672 103.629146 
L 107.557052 45.149787 
L 107.625971 48.689045 
L 108.00503 101.7515 
L 108.10841 43.686775 
L 108.177329 47.134663 
L 108.315169 69.5043 
L 108.556388 102.096892 
L 108.659767 43.229352 
L 108.728687 45.958926 
L 109.107746 100.731872 
L 109.211125 43.018307 
L 109.280045 46.012705 
L 109.521264 87.302422 
L 109.659104 100.672499 
L 109.762483 43.112045 
L 109.831403 46.212944 
L 110.072622 89.027001 
L 110.210461 101.781224 
L 110.313841 43.146121 
L 110.382761 46.334601 
L 110.55506 75.651653 
L 110.761819 103.096569 
L 110.865199 44.429499 
L 110.934119 48.417953 
L 111.071958 69.785984 
L 111.313177 102.888222 
L 111.416557 44.918971 
L 111.485476 48.933147 
L 111.623316 71.173291 
L 111.864535 104.009125 
L 111.967914 46.152068 
L 112.036834 48.590976 
L 112.209134 78.675672 
L 112.415893 103.966815 
L 112.519272 45.567449 
L 112.588192 48.359684 
L 112.794951 84.494391 
L 112.967251 104.12508 
L 113.07063 44.89006 
L 113.13955 47.766227 
L 113.518608 103.037276 
L 113.621988 44.24816 
L 113.690908 47.559387 
L 114.069966 102.500192 
L 114.173346 44.529995 
L 114.242266 48.758485 
L 114.345645 63.326876 
L 114.621324 102.626659 
L 114.724704 44.226388 
L 114.793623 48.455341 
L 114.931463 69.85125 
L 115.172682 102.914261 
L 115.276062 44.057296 
L 115.344981 48.417478 
L 115.482821 70.303045 
L 115.72404 104.224808 
L 115.827419 46.41392 
L 115.896339 50.211273 
L 116.068638 78.962048 
L 116.275398 105.212309 
L 116.378777 46.892266 
L 116.447697 50.25241 
L 116.585536 72.361524 
L 116.826755 105.628008 
L 116.930135 47.290173 
L 116.999055 51.888057 
L 117.102434 66.55134 
L 117.378113 106.287044 
L 117.481493 47.320417 
L 117.550413 51.371437 
L 117.757172 87.038185 
L 117.929471 106.121967 
L 118.032851 47.021854 
L 118.10177 50.31743 
L 118.23961 72.223882 
L 118.480829 105.184638 
L 118.584209 45.771926 
L 118.653128 49.071802 
L 118.859887 83.864862 
L 118.997727 101.798155 
L 119.032187 101.739674 
L 119.135566 44.154846 
L 119.204486 47.517202 
L 119.376785 76.67679 
L 119.583545 102.219058 
L 119.686924 44.299759 
L 119.755844 47.13376 
L 120.134902 101.593121 
L 120.238282 43.992099 
L 120.307202 47.436383 
L 120.445041 69.313719 
L 120.68626 101.978435 
L 120.78964 43.652347 
L 120.85856 46.631335 
L 121.099779 89.997825 
L 121.237618 103.398184 
L 121.340998 44.204776 
L 121.409917 47.750957 
L 121.788976 102.384131 
L 121.892356 44.067708 
L 121.961275 47.609188 
L 122.340334 102.522836 
L 122.478173 44.366262 
L 122.512633 48.175005 
L 122.891692 102.662865 
L 122.995071 43.887716 
L 123.063991 47.726509 
L 123.44305 103.322389 
L 123.546429 44.191686 
L 123.615349 47.485507 
L 123.994407 101.060223 
L 124.097787 43.636682 
L 124.166707 46.862414 
L 124.339006 75.76971 
L 124.545765 101.434866 
L 124.649145 42.773338 
L 124.718065 45.866887 
L 125.097123 100.65071 
L 125.200503 42.168385 
L 125.269422 45.057594 
L 125.476182 80.893453 
L 125.648481 99.573966 
L 125.78632 42.036433 
L 125.82078 45.427387 
L 125.99308 74.455625 
L 126.199839 100.042904 
L 126.303218 42.341604 
L 126.372138 45.969055 
L 126.613357 88.501225 
L 126.751197 102.018136 
L 126.854576 43.883169 
L 126.923496 47.25129 
L 127.164715 89.821621 
L 127.302554 103.468634 
L 127.405934 45.052298 
L 127.474854 48.50053 
L 127.612693 70.720105 
L 127.853912 103.641464 
L 127.957292 45.83251 
L 128.026212 49.000596 
L 128.198511 77.108567 
L 128.40527 104.08636 
L 128.50865 36.233605 
L 128.577569 40.882189 
L 128.818788 104.362398 
L 128.956628 123.633196 
L 129.060008 36.022398 
L 129.128927 40.122554 
L 129.301227 84.425621 
L 129.507986 121.520922 
L 129.611365 34.096232 
L 129.680285 38.562283 
L 130.059344 120.419449 
L 130.162723 33.199701 
L 130.231643 38.488597 
L 130.403942 81.844351 
L 130.610701 120.889032 
L 130.714081 33.545684 
L 130.783001 39.43274 
L 130.92084 72.037545 
L 131.162059 120.924849 
L 131.265439 34.191476 
L 131.334359 39.503299 
L 131.506658 83.394243 
L 131.713417 121.488884 
L 131.816797 34.899026 
L 131.885716 40.000437 
L 132.023556 73.2936 
L 132.264775 122.626174 
L 132.368155 36.311812 
L 132.437074 40.868388 
L 132.609374 85.637694 
L 132.816133 123.285845 
L 132.919512 36.23558 
L 132.988432 42.115717 
L 133.126272 75.842695 
L 133.367491 123.62037 
L 133.47087 36.805569 
L 133.53979 41.948964 
L 133.712089 85.590527 
L 133.918848 123.058678 
L 134.022228 36.681254 
L 134.091148 41.29314 
L 134.470206 122.280897 
L 134.573586 35.546598 
L 134.642506 40.339089 
L 134.814805 84.002824 
L 135.021564 122.002927 
L 135.124944 33.72002 
L 135.193863 38.800624 
L 135.572922 120.398705 
L 135.710761 33.588308 
L 135.745221 37.802788 
L 135.95198 92.231744 
L 136.12428 120.816433 
L 136.227659 33.575316 
L 136.296579 38.072119 
L 136.675638 121.621982 
L 136.779017 33.446494 
L 136.847937 38.960319 
L 137.020236 82.301707 
L 137.226995 120.925272 
L 137.330375 34.029778 
L 137.399295 39.22131 
L 137.606054 93.443713 
L 137.778353 121.46103 
L 137.881733 34.778655 
L 137.950653 39.472147 
L 138.329711 123.869429 
L 138.433091 36.747422 
L 138.502011 40.956749 
L 138.67431 85.834439 
L 138.881069 123.241905 
L 138.984449 35.977819 
L 139.053368 41.025759 
L 139.260128 95.728928 
L 139.432427 122.537902 
L 139.535806 35.615425 
L 139.604726 40.671436 
L 139.777026 84.009217 
L 139.983785 121.878306 
L 140.087164 34.30377 
L 140.156084 39.417021 
L 140.362843 92.462441 
L 140.535143 120.924746 
L 140.638522 32.875425 
L 140.707442 37.690831 
L 140.914201 92.140353 
L 141.0865 120.895428 
L 141.18988 33.13411 
L 141.2588 36.881286 
L 141.637858 119.275242 
L 141.741238 31.527273 
L 141.810158 37.568085 
L 142.051377 100.149013 
L 142.189216 119.756503 
L 142.292596 32.095872 
L 142.361515 37.783645 
L 142.602734 101.952165 
L 142.740574 120.876308 
L 142.843953 34.548053 
L 142.912873 40.034973 
L 143.119632 94.802775 
L 143.291932 122.984895 
L 143.395311 35.865047 
L 143.464231 41.476711 
L 143.63653 84.800264 
L 143.84329 123.673409 
L 143.946669 36.333424 
L 144.015589 41.374579 
L 144.222348 96.157622 
L 144.394647 123.346926 
L 144.498027 36.0677 
L 144.566947 40.759977 
L 144.773706 94.476701 
L 144.946005 122.436739 
L 145.049385 36.141303 
L 145.118305 41.316104 
L 145.290604 84.803666 
L 145.497363 122.782536 
L 145.600743 35.936778 
L 145.669662 39.861317 
L 145.910881 102.995566 
L 146.048721 120.966936 
L 146.152101 33.206523 
L 146.22102 37.976878 
L 146.427779 92.195225 
L 146.600079 120.884945 
L 146.703458 33.264938 
L 146.772378 38.164035 
L 146.979137 91.910467 
L 147.151437 120.103598 
L 147.254816 32.139103 
L 147.323736 37.049941 
L 147.702794 120.847499 
L 147.806174 32.857182 
L 147.875094 37.406344 
L 148.254152 122.148331 
L 148.357532 34.072725 
L 148.426452 39.11045 
L 148.633211 92.789051 
L 148.80551 121.170095 
L 148.90889 34.034813 
L 148.977809 38.549908 
L 149.184569 93.016588 
L 149.356868 121.04604 
L 149.460248 34.232865 
L 149.529167 38.838899 
L 149.735926 93.302145 
L 149.908226 122.343671 
L 150.011605 33.759872 
L 150.080525 39.400842 
L 150.287284 93.684083 
L 150.459584 121.567857 
L 150.562963 34.607691 
L 150.631883 39.485191 
L 150.804182 82.890974 
L 151.010941 121.126173 
L 151.114321 33.629504 
L 151.183241 38.099161 
L 151.35554 81.698377 
L 151.562299 120.151407 
L 151.665679 32.475745 
L 151.734599 36.869786 
L 151.975818 99.444392 
L 152.113657 118.645641 
L 152.217037 32.490338 
L 152.285956 37.52799 
L 152.492716 90.348061 
L 152.665015 118.898192 
L 152.768395 32.336249 
L 152.837314 38.119313 
L 153.009614 82.396824 
L 153.216373 120.943129 
L 153.319752 33.793957 
L 153.388672 38.38564 
L 153.629891 102.753918 
L 153.767731 122.260125 
L 153.87111 34.792988 
L 153.94003 39.605302 
L 154.319089 122.823623 
L 154.422468 36.178603 
L 154.491388 40.801541 
L 154.629227 73.479807 
L 154.870446 123.232434 
L 154.973826 35.937123 
L 155.042746 41.231401 
L 155.215045 85.591566 
L 155.421804 123.264106 
L 155.525184 36.495637 
L 155.594104 41.107526 
L 155.766403 84.935511 
L 155.973162 122.385781 
L 156.076542 35.566544 
L 156.145461 40.733515 
L 156.317761 83.485698 
L 156.52452 121.905771 
L 156.627899 34.527058 
L 156.696819 40.481152 
L 156.834659 73.307115 
L 157.075878 122.471533 
L 157.179257 34.380662 
L 157.248177 39.633324 
L 157.454936 93.552134 
L 157.627236 121.49436 
L 157.730615 34.715124 
L 157.799535 39.942425 
L 157.971834 82.972212 
L 158.178593 121.750392 
L 158.281973 34.918841 
L 158.350893 39.372645 
L 158.557652 94.64072 
L 158.729951 122.14525 
L 158.833331 34.861397 
L 158.902251 40.503722 
L 159.07455 84.827131 
L 159.281309 123.825947 
L 159.384689 36.350118 
L 159.453608 41.001948 
L 159.694827 104.075756 
L 159.832667 123.261146 
L 159.936047 37.104071 
L 160.004966 41.65181 
L 160.246185 105.646657 
L 160.384025 124.472727 
L 160.487404 37.047423 
L 160.556324 42.536886 
L 160.728623 85.474494 
L 160.935383 123.832372 
L 161.038762 35.94987 
L 161.107682 41.499895 
L 161.245521 74.188607 
L 161.48674 121.971603 
L 161.59012 34.40284 
L 161.65904 39.545543 
L 161.796879 72.114739 
L 162.038098 120.778615 
L 162.141478 33.801353 
L 162.210398 37.865447 
L 162.382697 81.183518 
L 162.589456 119.714887 
L 162.692836 32.166234 
L 162.761755 38.262291 
L 162.934055 81.464049 
L 163.140814 119.738366 
L 163.244194 33.086801 
L 163.313113 38.268796 
L 163.485413 82.104754 
L 163.692172 120.472167 
L 163.795551 32.929344 
L 163.864471 38.282837 
L 164.24353 120.803977 
L 164.346909 34.087126 
L 164.415829 39.050712 
L 164.622588 93.500786 
L 164.794887 122.516198 
L 164.898267 35.318337 
L 164.967187 40.121276 
L 165.105026 73.233829 
L 165.346245 121.65386 
L 165.449625 34.147019 
L 165.518545 38.887499 
L 165.690844 81.835674 
L 165.897603 119.884962 
L 166.000983 33.324628 
L 166.069902 38.742827 
L 166.207742 71.828137 
L 166.448961 120.584722 
L 166.552341 33.238721 
L 166.62126 38.710254 
L 166.79356 83.183253 
L 167.000319 121.237316 
L 167.103698 33.898103 
L 167.172618 38.003898 
L 167.344917 82.145673 
L 167.551677 119.959399 
L 167.655056 33.135276 
L 167.723976 38.254337 
L 167.896275 80.812432 
L 168.103035 121.309263 
L 168.206414 32.981706 
L 168.275334 37.912244 
L 168.447633 81.699113 
L 168.654392 119.619924 
L 168.757772 32.162618 
L 168.826692 38.002012 
L 168.998991 81.632933 
L 169.20575 120.616943 
L 169.30913 32.918572 
L 169.37805 38.616194 
L 169.550349 81.822287 
L 169.757108 120.968331 
L 169.860488 33.518684 
L 169.929407 39.36626 
L 170.101707 83.507492 
L 170.308466 121.707734 
L 170.411845 34.761124 
L 170.480765 39.411471 
L 170.687524 94.061836 
L 170.859824 122.351942 
L 170.963203 34.686335 
L 171.032123 40.698613 
L 171.204422 84.290824 
L 171.411182 122.374309 
L 171.514561 35.763442 
L 171.583481 40.476471 
L 171.79024 94.568542 
L 171.962539 123.463184 
L 172.065919 36.09454 
L 172.134839 41.33527 
L 172.307138 84.927822 
L 172.513897 123.864364 
L 172.617277 35.837319 
L 172.686197 41.124043 
L 172.858496 84.438701 
L 173.065255 123.728168 
L 173.168635 35.440652 
L 173.237554 40.69079 
L 173.409854 84.447628 
L 173.616613 122.722044 
L 173.719992 34.823537 
L 173.788912 40.617231 
L 173.995671 95.167234 
L 174.167971 122.002704 
L 174.27135 35.085197 
L 174.34027 40.575101 
L 174.512569 84.035798 
L 174.719329 122.365563 
L 174.822708 35.139988 
L 174.891628 40.897391 
L 175.029467 73.236848 
L 175.270686 122.929941 
L 175.374066 35.588583 
L 175.442986 41.157647 
L 175.615285 84.877942 
L 175.822044 124.17818 
L 175.925424 35.488518 
L 175.994344 40.86166 
L 176.235563 104.829341 
L 176.373402 123.772216 
L 176.476782 35.647655 
L 176.545701 40.501524 
L 176.92476 123.982109 
L 177.02814 35.914456 
L 177.097059 41.208874 
L 177.303818 94.995438 
L 177.476118 123.547896 
L 177.579497 35.418551 
L 177.648417 40.232848 
L 177.889636 103.555286 
L 178.027476 121.838968 
L 178.130855 35.352736 
L 178.199775 39.875576 
L 178.406534 93.291531 
L 178.578833 121.483597 
L 178.682213 34.175016 
L 178.751133 38.670676 
L 178.923432 82.779672 
L 179.130191 121.5227 
L 179.233571 34.350516 
L 179.302491 39.326116 
L 179.50925 92.989513 
L 179.681549 121.262786 
L 179.784929 34.277522 
L 179.853848 37.888745 
L 180.232907 121.81883 
L 180.336287 34.486583 
L 180.405206 39.654019 
L 180.611965 94.259868 
L 180.784265 123.405864 
L 180.887644 35.964377 
L 180.956564 40.60014 
L 181.128863 83.886611 
L 181.335623 122.707422 
L 181.439002 36.043422 
L 181.507922 40.692534 
L 181.680221 85.050365 
L 181.88698 123.135164 
L 181.99036 36.195517 
L 182.05928 40.009568 
L 182.266039 93.978849 
L 182.438338 122.469241 
L 182.541718 34.905374 
L 182.610638 40.286473 
L 182.782937 83.668938 
L 182.989696 122.2978 
L 183.093076 35.490741 
L 183.161995 40.274095 
L 183.334295 83.370885 
L 183.541054 122.161112 
L 183.575514 63.343218 
L 183.678893 63.815794 
L 183.713353 63.94723 
L 183.747813 63.223258 
L 183.816733 63.459891 
L 183.851193 63.482179 
L 183.885653 62.597303 
L 183.954572 63.059697 
L 184.023492 62.789431 
L 184.161332 63.518238 
L 184.264711 62.224868 
L 184.299171 62.662275 
L 184.333631 63.131286 
L 184.368091 62.611793 
L 184.50593 61.691927 
L 184.54039 62.531037 
L 184.60931 62.38468 
L 184.67823 61.528933 
L 184.747149 61.61058 
L 184.781609 61.632084 
L 184.850529 62.425932 
L 184.884989 61.828758 
L 184.919449 61.597879 
L 185.022828 62.364145 
L 185.057288 61.822447 
L 185.126208 62.111176 
L 185.160668 61.988199 
L 185.264047 62.621118 
L 185.298507 62.335908 
L 185.470806 63.872407 
L 185.505266 63.385658 
L 185.608646 62.495384 
L 185.780945 64.264901 
L 185.815405 63.459865 
L 185.884325 64.354852 
L 185.918785 64.306928 
L 185.953245 64.402472 
L 185.987704 64.405832 
L 186.056624 64.030539 
L 186.091084 64.266032 
L 186.160004 64.857675 
L 186.228923 64.667667 
L 186.263383 64.626403 
L 186.297843 64.293966 
L 186.332303 64.995533 
L 186.366763 64.600038 
L 186.401223 65.314942 
L 186.435683 64.295582 
L 186.470143 64.743396 
L 186.539062 65.100976 
L 186.573522 64.700411 
L 186.607982 64.811514 
L 186.642442 65.81775 
L 186.711362 65.505508 
L 186.745821 65.343741 
L 186.814741 65.270703 
L 186.849201 65.887977 
L 186.918121 65.043095 
L 186.987041 65.394931 
L 187.09042 65.628824 
L 187.12488 66.020139 
L 187.15934 65.093409 
L 187.1938 65.405614 
L 187.22826 66.458637 
L 187.297179 66.27569 
L 187.331639 65.511788 
L 187.366099 66.293876 
L 187.400559 66.007008 
L 187.435019 66.376625 
L 187.469479 65.904544 
L 187.538398 66.03216 
L 187.676238 64.548806 
L 187.710698 65.366192 
L 187.779617 65.238883 
L 187.814077 64.820851 
L 187.848537 65.486183 
L 187.882997 65.251369 
L 187.951917 66.0302 
L 187.986377 64.892448 
L 188.089756 65.117846 
L 188.124216 64.519273 
L 188.193136 64.722554 
L 188.296515 65.337897 
L 188.330975 65.204122 
L 188.434355 64.513963 
L 188.606654 65.70572 
L 188.744494 63.730823 
L 188.778953 63.989715 
L 188.813413 63.902152 
L 188.847873 63.952209 
L 188.882333 64.279898 
L 188.916793 64.180605 
L 189.054632 63.334592 
L 189.089092 63.680559 
L 189.123552 63.547392 
L 189.226932 62.081278 
L 189.261392 63.431523 
L 189.364771 63.157662 
L 189.537071 62.825668 
L 189.57153 63.399085 
L 189.64045 62.959724 
L 189.77829 62.016049 
L 189.812749 63.123861 
L 189.881669 63.059372 
L 189.950589 63.512282 
L 189.985049 61.962674 
L 190.019509 62.746415 
L 190.088428 62.358229 
L 190.122888 62.537958 
L 190.191808 62.41068 
L 190.295188 61.424639 
L 190.329647 61.812605 
L 190.364107 62.304015 
L 190.398567 62.122858 
L 190.433027 61.574489 
L 190.501947 61.589335 
L 190.570866 62.54767 
L 190.605326 62.192999 
L 190.743166 61.352205 
L 190.949925 62.808665 
L 191.087764 62.066882 
L 191.122224 62.908049 
L 191.191144 62.334989 
L 191.225604 61.825275 
L 191.294524 62.415408 
L 191.328983 62.436866 
L 191.397903 63.559593 
L 191.466823 63.55578 
L 191.501283 62.553361 
L 191.535743 63.900832 
L 191.570203 63.064002 
L 191.604662 63.352135 
L 191.639122 63.124584 
L 191.673582 62.845986 
L 191.742502 64.441849 
L 191.811422 64.34328 
L 191.949261 63.401324 
L 191.983721 64.381429 
L 192.052641 63.820097 
L 192.15602 64.57859 
L 192.19048 63.70426 
L 192.2594 64.708463 
L 192.362779 63.782717 
L 192.397239 64.300854 
L 192.431699 63.826152 
L 192.466159 63.567767 
L 192.500619 64.133773 
L 192.535079 63.934679 
L 192.603998 64.892013 
L 192.638458 64.058253 
L 192.707378 63.9434 
L 192.776298 64.962498 
L 192.845218 63.868175 
L 192.914137 64.376596 
L 192.948597 65.081649 
L 193.017517 65.05317 
L 193.120896 64.004645 
L 193.155356 64.063882 
L 193.258736 64.697879 
L 193.362116 64.715691 
L 193.396575 64.174384 
L 193.431035 64.222848 
L 193.499955 63.805301 
L 193.534415 64.738098 
L 193.568875 63.472041 
L 193.603335 64.326803 
L 193.637794 63.691118 
L 193.672254 64.172665 
L 193.706714 64.733422 
L 193.741174 64.610339 
L 193.810094 63.648896 
L 193.844554 63.798046 
L 193.879014 64.241701 
L 193.913473 63.886467 
L 193.947933 62.996713 
L 193.982393 63.629804 
L 194.016853 64.144628 
L 194.051313 64.070349 
L 194.085773 63.477715 
L 194.120233 64.187704 
L 194.154692 64.057707 
L 194.361452 62.545807 
L 194.430371 63.902594 
L 194.464831 63.198118 
L 194.499291 62.457819 
L 194.533751 63.508285 
L 194.568211 62.944781 
L 194.602671 63.406333 
L 194.637131 63.375501 
L 194.67159 62.539874 
L 194.70605 63.164078 
L 194.74051 63.617468 
L 194.77497 63.059488 
L 194.80943 62.263347 
L 194.84389 63.193397 
L 194.87835 62.886738 
L 194.912809 62.862433 
L 194.947269 63.324386 
L 195.016189 63.041428 
L 195.050649 62.916633 
L 195.085109 63.486349 
L 195.119569 62.58611 
L 195.154029 63.452037 
L 195.188488 62.831307 
L 195.257408 63.359142 
L 195.326328 63.515598 
L 195.360788 63.06692 
L 195.395248 63.230237 
L 195.429707 63.140486 
L 195.567547 62.399123 
L 195.602007 62.851706 
L 195.636467 62.202225 
L 195.670926 62.490994 
L 195.808766 61.433601 
L 195.843226 62.031778 
L 195.981065 62.887211 
L 196.118905 61.870601 
L 196.153365 61.897793 
L 196.187824 62.221594 
L 196.222284 61.721691 
L 196.256744 61.722797 
L 196.429044 63.136032 
L 196.463503 62.88644 
L 196.497963 63.0659 
L 196.601343 63.742885 
L 196.635803 63.512454 
L 196.670263 63.285069 
L 196.704722 63.653381 
L 196.739182 63.600447 
L 196.773642 64.398541 
L 196.842562 64.007631 
L 196.877022 63.611424 
L 196.911482 64.343415 
L 196.945941 64.772985 
L 197.014861 64.592878 
L 197.049321 64.453969 
L 197.152701 65.273078 
L 197.29054 64.702057 
L 197.29054 64.702057 
" clip-path="url(#pb225ef5992)" style="fill: none; stroke: #808080; stroke-width: 0.3; stroke-linecap: square"/>
   </g>
   <g id="matplotlib.axis_1">
    <g id="xtick_1">
     <g id="line2d_2">
      <defs>
       <path id="m65ef7dc01b" d="M 0 0 
L 0 3.5 
" style="stroke: #000000; stroke-width: 0.8"/>
      </defs>
      <g>
       <use xlink:href="#m65ef7dc01b" x="59.52" y="129.12" style="stroke: #000000; stroke-width: 0.8"/>
      </g>
     </g>
     <g id="text_1">
      <!-- 0.0 -->
      <g transform="translate(51.568437 143.718437) scale(0.1 -0.1)">
       <defs>
        <path id="DejaVuSans-30" d="M 2034 4250 
Q 1547 4250 1301 3770 
Q 1056 3291 1056 2328 
Q 1056 1369 1301 889 
Q 1547 409 2034 409 
Q 2525 409 2770 889 
Q 3016 1369 3016 2328 
Q 3016 3291 2770 3770 
Q 2525 4250 2034 4250 
z
M 2034 4750 
Q 2819 4750 3233 4129 
Q 3647 3509 3647 2328 
Q 3647 1150 3233 529 
Q 2819 -91 2034 -91 
Q 1250 -91 836 529 
Q 422 1150 422 2328 
Q 422 3509 836 4129 
Q 1250 4750 2034 4750 
z
" transform="scale(0.015625)"/>
        <path id="DejaVuSans-2e" d="M 684 794 
L 1344 794 
L 1344 0 
L 684 0 
L 684 794 
z
" transform="scale(0.015625)"/>
       </defs>
       <use xlink:href="#DejaVuSans-30"/>
       <use xlink:href="#DejaVuSans-2e" x="63.623047"/>
       <use xlink:href="#DejaVuSans-30" x="95.410156"/>
      </g>
     </g>
    </g>
    <g id="xtick_2">
     <g id="line2d_3">
      <g>
       <use xlink:href="#m65ef7dc01b" x="93.97125" y="129.12" style="stroke: #000000; stroke-width: 0.8"/>
      </g>
     </g>
     <g id="text_2">
      <!-- 0.5 -->
      <g transform="translate(86.019688 143.718437) scale(0.1 -0.1)">
       <defs>
        <path id="DejaVuSans-35" d="M 691 4666 
L 3169 4666 
L 3169 4134 
L 1269 4134 
L 1269 2991 
Q 1406 3038 1543 3061 
Q 1681 3084 1819 3084 
Q 2600 3084 3056 2656 
Q 3513 2228 3513 1497 
Q 3513 744 3044 326 
Q 2575 -91 1722 -91 
Q 1428 -91 1123 -41 
Q 819 9 494 109 
L 494 744 
Q 775 591 1075 516 
Q 1375 441 1709 441 
Q 2250 441 2565 725 
Q 2881 1009 2881 1497 
Q 2881 1984 2565 2268 
Q 2250 2553 1709 2553 
Q 1456 2553 1204 2497 
Q 953 2441 691 2322 
L 691 4666 
z
" transform="scale(0.015625)"/>
       </defs>
       <use xlink:href="#DejaVuSans-30"/>
       <use xlink:href="#DejaVuSans-2e" x="63.623047"/>
       <use xlink:href="#DejaVuSans-35" x="95.410156"/>
      </g>
     </g>
    </g>
    <g id="xtick_3">
     <g id="line2d_4">
      <g>
       <use xlink:href="#m65ef7dc01b" x="128.4225" y="129.12" style="stroke: #000000; stroke-width: 0.8"/>
      </g>
     </g>
     <g id="text_3">
      <!-- 1.0 -->
      <g transform="translate(120.470938 143.718437) scale(0.1 -0.1)">
       <defs>
        <path id="DejaVuSans-31" d="M 794 531 
L 1825 531 
L 1825 4091 
L 703 3866 
L 703 4441 
L 1819 4666 
L 2450 4666 
L 2450 531 
L 3481 531 
L 3481 0 
L 794 0 
L 794 531 
z
" transform="scale(0.015625)"/>
       </defs>
       <use xlink:href="#DejaVuSans-31"/>
       <use xlink:href="#DejaVuSans-2e" x="63.623047"/>
       <use xlink:href="#DejaVuSans-30" x="95.410156"/>
      </g>
     </g>
    </g>
    <g id="xtick_4">
     <g id="line2d_5">
      <g>
       <use xlink:href="#m65ef7dc01b" x="162.87375" y="129.12" style="stroke: #000000; stroke-width: 0.8"/>
      </g>
     </g>
     <g id="text_4">
      <!-- 1.5 -->
      <g transform="translate(154.922188 143.718437) scale(0.1 -0.1)">
       <use xlink:href="#DejaVuSans-31"/>
       <use xlink:href="#DejaVuSans-2e" x="63.623047"/>
       <use xlink:href="#DejaVuSans-35" x="95.410156"/>
      </g>
     </g>
    </g>
    <g id="xtick_5">
     <g id="line2d_6">
      <g>
       <use xlink:href="#m65ef7dc01b" x="197.325" y="129.12" style="stroke: #000000; stroke-width: 0.8"/>
      </g>
     </g>
     <g id="text_5">
      <!-- 2.0 -->
      <g transform="translate(189.373437 143.718437) scale(0.1 -0.1)">
       <defs>
        <path id="DejaVuSans-32" d="M 1228 531 
L 3431 531 
L 3431 0 
L 469 0 
L 469 531 
Q 828 903 1448 1529 
Q 2069 2156 2228 2338 
Q 2531 2678 2651 2914 
Q 2772 3150 2772 3378 
Q 2772 3750 2511 3984 
Q 2250 4219 1831 4219 
Q 1534 4219 1204 4116 
Q 875 4013 500 3803 
L 500 4441 
Q 881 4594 1212 4672 
Q 1544 4750 1819 4750 
Q 2544 4750 2975 4387 
Q 3406 4025 3406 3419 
Q 3406 3131 3298 2873 
Q 3191 2616 2906 2266 
Q 2828 2175 2409 1742 
Q 1991 1309 1228 531 
z
" transform="scale(0.015625)"/>
       </defs>
       <use xlink:href="#DejaVuSans-32"/>
       <use xlink:href="#DejaVuSans-2e" x="63.623047"/>
       <use xlink:href="#DejaVuSans-30" x="95.410156"/>
      </g>
     </g>
    </g>
    <g id="text_6">
     <!-- Time (s) -->
     <g transform="translate(108.093594 157.396563) scale(0.1 -0.1)">
      <defs>
       <path id="DejaVuSans-54" d="M -19 4666 
L 3928 4666 
L 3928 4134 
L 2272 4134 
L 2272 0 
L 1638 0 
L 1638 4134 
L -19 4134 
L -19 4666 
z
" transform="scale(0.015625)"/>
       <path id="DejaVuSans-69" d="M 603 3500 
L 1178 3500 
L 1178 0 
L 603 0 
L 603 3500 
z
M 603 4863 
L 1178 4863 
L 1178 4134 
L 603 4134 
L 603 4863 
z
" transform="scale(0.015625)"/>
       <path id="DejaVuSans-6d" d="M 3328 2828 
Q 3544 3216 3844 3400 
Q 4144 3584 4550 3584 
Q 5097 3584 5394 3201 
Q 5691 2819 5691 2113 
L 5691 0 
L 5113 0 
L 5113 2094 
Q 5113 2597 4934 2840 
Q 4756 3084 4391 3084 
Q 3944 3084 3684 2787 
Q 3425 2491 3425 1978 
L 3425 0 
L 2847 0 
L 2847 2094 
Q 2847 2600 2669 2842 
Q 2491 3084 2119 3084 
Q 1678 3084 1418 2786 
Q 1159 2488 1159 1978 
L 1159 0 
L 581 0 
L 581 3500 
L 1159 3500 
L 1159 2956 
Q 1356 3278 1631 3431 
Q 1906 3584 2284 3584 
Q 2666 3584 2933 3390 
Q 3200 3197 3328 2828 
z
" transform="scale(0.015625)"/>
       <path id="DejaVuSans-65" d="M 3597 1894 
L 3597 1613 
L 953 1613 
Q 991 1019 1311 708 
Q 1631 397 2203 397 
Q 2534 397 2845 478 
Q 3156 559 3463 722 
L 3463 178 
Q 3153 47 2828 -22 
Q 2503 -91 2169 -91 
Q 1331 -91 842 396 
Q 353 884 353 1716 
Q 353 2575 817 3079 
Q 1281 3584 2069 3584 
Q 2775 3584 3186 3129 
Q 3597 2675 3597 1894 
z
M 3022 2063 
Q 3016 2534 2758 2815 
Q 2500 3097 2075 3097 
Q 1594 3097 1305 2825 
Q 1016 2553 972 2059 
L 3022 2063 
z
" transform="scale(0.015625)"/>
       <path id="DejaVuSans-20" transform="scale(0.015625)"/>
       <path id="DejaVuSans-28" d="M 1984 4856 
Q 1566 4138 1362 3434 
Q 1159 2731 1159 2009 
Q 1159 1288 1364 580 
Q 1569 -128 1984 -844 
L 1484 -844 
Q 1016 -109 783 600 
Q 550 1309 550 2009 
Q 550 2706 781 3412 
Q 1013 4119 1484 4856 
L 1984 4856 
z
" transform="scale(0.015625)"/>
       <path id="DejaVuSans-73" d="M 2834 3397 
L 2834 2853 
Q 2591 2978 2328 3040 
Q 2066 3103 1784 3103 
Q 1356 3103 1142 2972 
Q 928 2841 928 2578 
Q 928 2378 1081 2264 
Q 1234 2150 1697 2047 
L 1894 2003 
Q 2506 1872 2764 1633 
Q 3022 1394 3022 966 
Q 3022 478 2636 193 
Q 2250 -91 1575 -91 
Q 1294 -91 989 -36 
Q 684 19 347 128 
L 347 722 
Q 666 556 975 473 
Q 1284 391 1588 391 
Q 1994 391 2212 530 
Q 2431 669 2431 922 
Q 2431 1156 2273 1281 
Q 2116 1406 1581 1522 
L 1381 1569 
Q 847 1681 609 1914 
Q 372 2147 372 2553 
Q 372 3047 722 3315 
Q 1072 3584 1716 3584 
Q 2034 3584 2315 3537 
Q 2597 3491 2834 3397 
z
" transform="scale(0.015625)"/>
       <path id="DejaVuSans-29" d="M 513 4856 
L 1013 4856 
Q 1481 4119 1714 3412 
Q 1947 2706 1947 2009 
Q 1947 1309 1714 600 
Q 1481 -109 1013 -844 
L 513 -844 
Q 928 -128 1133 580 
Q 1338 1288 1338 2009 
Q 1338 2731 1133 3434 
Q 928 4138 513 4856 
z
" transform="scale(0.015625)"/>
      </defs>
      <use xlink:href="#DejaVuSans-54"/>
      <use xlink:href="#DejaVuSans-69" x="57.958984"/>
      <use xlink:href="#DejaVuSans-6d" x="85.742188"/>
      <use xlink:href="#DejaVuSans-65" x="183.154297"/>
      <use xlink:href="#DejaVuSans-20" x="244.677734"/>
      <use xlink:href="#DejaVuSans-28" x="276.464844"/>
      <use xlink:href="#DejaVuSans-73" x="315.478516"/>
      <use xlink:href="#DejaVuSans-29" x="367.578125"/>
     </g>
    </g>
   </g>
   <g id="matplotlib.axis_2">
    <g id="ytick_1">
     <g id="line2d_7">
      <defs>
       <path id="mb50cd13a52" d="M 0 0 
L -3.5 0 
" style="stroke: #000000; stroke-width: 0.8"/>
      </defs>
      <g>
       <use xlink:href="#mb50cd13a52" x="59.52" y="113.300492" style="stroke: #000000; stroke-width: 0.8"/>
      </g>
     </g>
     <g id="text_7">
      <!-- −40 -->
      <g transform="translate(31.415312 117.09971) scale(0.1 -0.1)">
       <defs>
        <path id="DejaVuSans-2212" d="M 678 2272 
L 4684 2272 
L 4684 1741 
L 678 1741 
L 678 2272 
z
" transform="scale(0.015625)"/>
        <path id="DejaVuSans-34" d="M 2419 4116 
L 825 1625 
L 2419 1625 
L 2419 4116 
z
M 2253 4666 
L 3047 4666 
L 3047 1625 
L 3713 1625 
L 3713 1100 
L 3047 1100 
L 3047 0 
L 2419 0 
L 2419 1100 
L 313 1100 
L 313 1709 
L 2253 4666 
z
" transform="scale(0.015625)"/>
       </defs>
       <use xlink:href="#DejaVuSans-2212"/>
       <use xlink:href="#DejaVuSans-34" x="83.789062"/>
       <use xlink:href="#DejaVuSans-30" x="147.412109"/>
      </g>
     </g>
    </g>
    <g id="ytick_2">
     <g id="line2d_8">
      <g>
       <use xlink:href="#mb50cd13a52" x="59.52" y="88.259082" style="stroke: #000000; stroke-width: 0.8"/>
      </g>
     </g>
     <g id="text_8">
      <!-- −20 -->
      <g transform="translate(31.415312 92.058301) scale(0.1 -0.1)">
       <use xlink:href="#DejaVuSans-2212"/>
       <use xlink:href="#DejaVuSans-32" x="83.789062"/>
       <use xlink:href="#DejaVuSans-30" x="147.412109"/>
      </g>
     </g>
    </g>
    <g id="ytick_3">
     <g id="line2d_9">
      <g>
       <use xlink:href="#mb50cd13a52" x="59.52" y="63.217673" style="stroke: #000000; stroke-width: 0.8"/>
      </g>
     </g>
     <g id="text_9">
      <!-- 0 -->
      <g transform="translate(46.1575 67.016891) scale(0.1 -0.1)">
       <use xlink:href="#DejaVuSans-30"/>
      </g>
     </g>
    </g>
    <g id="ytick_4">
     <g id="line2d_10">
      <g>
       <use xlink:href="#mb50cd13a52" x="59.52" y="38.176263" style="stroke: #000000; stroke-width: 0.8"/>
      </g>
     </g>
     <g id="text_10">
      <!-- 20 -->
      <g transform="translate(39.795 41.975482) scale(0.1 -0.1)">
       <use xlink:href="#DejaVuSans-32"/>
       <use xlink:href="#DejaVuSans-30" x="63.623047"/>
      </g>
     </g>
    </g>
    <g id="text_11">
     <!-- Amplitude (mV) -->
     <g transform="translate(25.335625 117.403906) rotate(-90) scale(0.1 -0.1)">
      <defs>
       <path id="DejaVuSans-41" d="M 2188 4044 
L 1331 1722 
L 3047 1722 
L 2188 4044 
z
M 1831 4666 
L 2547 4666 
L 4325 0 
L 3669 0 
L 3244 1197 
L 1141 1197 
L 716 0 
L 50 0 
L 1831 4666 
z
" transform="scale(0.015625)"/>
       <path id="DejaVuSans-70" d="M 1159 525 
L 1159 -1331 
L 581 -1331 
L 581 3500 
L 1159 3500 
L 1159 2969 
Q 1341 3281 1617 3432 
Q 1894 3584 2278 3584 
Q 2916 3584 3314 3078 
Q 3713 2572 3713 1747 
Q 3713 922 3314 415 
Q 2916 -91 2278 -91 
Q 1894 -91 1617 61 
Q 1341 213 1159 525 
z
M 3116 1747 
Q 3116 2381 2855 2742 
Q 2594 3103 2138 3103 
Q 1681 3103 1420 2742 
Q 1159 2381 1159 1747 
Q 1159 1113 1420 752 
Q 1681 391 2138 391 
Q 2594 391 2855 752 
Q 3116 1113 3116 1747 
z
" transform="scale(0.015625)"/>
       <path id="DejaVuSans-6c" d="M 603 4863 
L 1178 4863 
L 1178 0 
L 603 0 
L 603 4863 
z
" transform="scale(0.015625)"/>
       <path id="DejaVuSans-74" d="M 1172 4494 
L 1172 3500 
L 2356 3500 
L 2356 3053 
L 1172 3053 
L 1172 1153 
Q 1172 725 1289 603 
Q 1406 481 1766 481 
L 2356 481 
L 2356 0 
L 1766 0 
Q 1100 0 847 248 
Q 594 497 594 1153 
L 594 3053 
L 172 3053 
L 172 3500 
L 594 3500 
L 594 4494 
L 1172 4494 
z
" transform="scale(0.015625)"/>
       <path id="DejaVuSans-75" d="M 544 1381 
L 544 3500 
L 1119 3500 
L 1119 1403 
Q 1119 906 1312 657 
Q 1506 409 1894 409 
Q 2359 409 2629 706 
Q 2900 1003 2900 1516 
L 2900 3500 
L 3475 3500 
L 3475 0 
L 2900 0 
L 2900 538 
Q 2691 219 2414 64 
Q 2138 -91 1772 -91 
Q 1169 -91 856 284 
Q 544 659 544 1381 
z
M 1991 3584 
L 1991 3584 
z
" transform="scale(0.015625)"/>
       <path id="DejaVuSans-64" d="M 2906 2969 
L 2906 4863 
L 3481 4863 
L 3481 0 
L 2906 0 
L 2906 525 
Q 2725 213 2448 61 
Q 2172 -91 1784 -91 
Q 1150 -91 751 415 
Q 353 922 353 1747 
Q 353 2572 751 3078 
Q 1150 3584 1784 3584 
Q 2172 3584 2448 3432 
Q 2725 3281 2906 2969 
z
M 947 1747 
Q 947 1113 1208 752 
Q 1469 391 1925 391 
Q 2381 391 2643 752 
Q 2906 1113 2906 1747 
Q 2906 2381 2643 2742 
Q 2381 3103 1925 3103 
Q 1469 3103 1208 2742 
Q 947 2381 947 1747 
z
" transform="scale(0.015625)"/>
       <path id="DejaVuSans-56" d="M 1831 0 
L 50 4666 
L 709 4666 
L 2188 738 
L 3669 4666 
L 4325 4666 
L 2547 0 
L 1831 0 
z
" transform="scale(0.015625)"/>
      </defs>
      <use xlink:href="#DejaVuSans-41"/>
      <use xlink:href="#DejaVuSans-6d" x="68.408203"/>
      <use xlink:href="#DejaVuSans-70" x="165.820312"/>
      <use xlink:href="#DejaVuSans-6c" x="229.296875"/>
      <use xlink:href="#DejaVuSans-69" x="257.080078"/>
      <use xlink:href="#DejaVuSans-74" x="284.863281"/>
      <use xlink:href="#DejaVuSans-75" x="324.072266"/>
      <use xlink:href="#DejaVuSans-64" x="387.451172"/>
      <use xlink:href="#DejaVuSans-65" x="450.927734"/>
      <use xlink:href="#DejaVuSans-20" x="512.451172"/>
      <use xlink:href="#DejaVuSans-28" x="544.238281"/>
      <use xlink:href="#DejaVuSans-6d" x="583.251953"/>
      <use xlink:href="#DejaVuSans-56" x="680.664062"/>
      <use xlink:href="#DejaVuSans-29" x="749.072266"/>
     </g>
    </g>
   </g>
   <g id="line2d_11">
    <path d="M 59.52 62.928092 
L 59.657839 62.578373 
L 59.899059 62.292253 
L 60.002438 62.192615 
L 60.691635 60.93137 
L 60.795015 61.077141 
L 61.174074 61.735726 
L 61.587592 62.206115 
L 61.622052 62.140629 
L 61.828811 61.970932 
L 61.96665 62.169131 
L 62.380169 62.783697 
L 62.483548 62.691536 
L 62.690308 62.650969 
L 63.207206 63.040337 
L 63.482884 63.911772 
L 63.620724 63.993237 
L 64.172082 62.622201 
L 64.447761 61.721876 
L 64.757899 62.003498 
L 64.895739 62.149544 
L 65.171418 61.949207 
L 65.791695 63.138938 
L 65.826155 63.117821 
L 65.895075 63.115364 
L 66.032914 63.161506 
L 66.136294 62.870829 
L 66.274134 62.657341 
L 66.653192 62.487556 
L 66.894411 61.824557 
L 67.032251 61.569371 
L 67.13563 61.724357 
L 67.307929 62.23938 
L 67.480229 62.736771 
L 67.514689 62.721248 
L 67.583608 62.691586 
L 67.618068 62.731023 
L 67.859287 63.444752 
L 68.203886 64.276497 
L 68.410645 64.267477 
L 68.548485 64.234638 
L 68.686324 64.18017 
L 68.789704 64.035772 
L 68.927543 63.698846 
L 68.996463 63.80244 
L 69.306602 64.475111 
L 69.995799 64.166913 
L 70.030259 64.232875 
L 70.099179 64.14155 
L 70.340398 63.880954 
L 70.581617 63.306632 
L 70.926215 62.871159 
L 70.995135 62.991552 
L 71.098515 63.150053 
L 71.132974 63.110059 
L 71.236354 63.052705 
L 71.649872 62.136428 
L 71.891092 62.227975 
L 72.511369 63.395908 
L 72.614749 63.380523 
L 72.683668 63.262572 
L 72.718128 63.295587 
L 73.131647 64.470792 
L 73.303946 64.524972 
L 73.372866 64.619183 
L 73.441785 64.672408 
L 73.476245 64.635745 
L 73.683005 64.37503 
L 73.751924 64.465826 
L 74.544501 66.186652 
L 74.78572 65.652851 
L 75.095859 64.9531 
L 75.233698 64.942351 
L 75.337078 64.759633 
L 75.853976 63.817797 
L 75.922896 63.83037 
L 75.957356 63.780826 
L 76.095195 63.434603 
L 76.129655 63.452597 
L 76.336414 63.492782 
L 76.956692 61.909362 
L 77.128991 61.902005 
L 77.37021 61.653899 
L 77.47359 61.459904 
L 77.50805 61.507272 
L 77.783728 61.681178 
L 78.059407 62.595827 
L 78.714145 63.557996 
L 78.783065 63.456099 
L 78.851984 63.362989 
L 78.886444 63.409094 
L 79.127663 64.074129 
L 79.162123 64.019545 
L 79.472262 63.406373 
L 79.98916 63.085784 
L 80.195919 62.669647 
L 80.299299 62.682259 
L 80.437138 62.437009 
L 80.471598 62.468502 
L 80.540518 62.514562 
L 80.574977 62.478813 
L 80.712817 62.397955 
L 81.022956 62.906135 
L 81.470934 62.944115 
L 81.781073 62.532328 
L 81.815533 62.574814 
L 81.953372 62.765613 
L 81.987832 62.752484 
L 82.263511 62.674202 
L 82.36689 62.722009 
L 82.43581 62.596128 
L 82.47027 62.670029 
L 82.642569 62.7199 
L 82.883788 62.727117 
L 83.193927 63.358695 
L 83.435146 64.046999 
L 83.572986 64.221709 
L 83.779745 64.519455 
L 83.883125 64.503946 
L 84.365563 63.756734 
L 84.400023 63.831793 
L 84.503402 63.912591 
L 84.537862 63.842214 
L 84.710161 63.631121 
L 84.744621 63.667133 
L 84.882461 63.730906 
L 85.468278 64.803436 
L 85.881797 64.037298 
L 86.260855 63.032977 
L 86.433155 63.186176 
L 86.502074 63.149736 
L 86.536534 63.217809 
L 86.812213 63.601475 
L 86.915593 63.473858 
L 87.053432 63.262683 
L 87.225731 63.098734 
L 87.811549 62.262945 
L 88.018308 61.700561 
L 88.087228 61.656225 
L 88.293987 61.236233 
L 88.569666 60.856644 
L 88.673046 61.134048 
L 89.155484 62.933471 
L 89.500083 63.706845 
L 89.569002 63.738091 
L 89.603462 63.669687 
L 89.706842 63.618868 
L 89.775761 63.74419 
L 89.810221 63.688803 
L 89.844681 63.66525 
L 89.982521 63.806921 
L 90.05144 63.787787 
L 90.0859 63.831343 
L 90.464959 64.163245 
L 90.637258 63.766183 
L 91.085236 62.500842 
L 91.533215 61.724151 
L 91.602134 61.620363 
L 91.636594 61.655222 
L 91.774434 61.869777 
L 91.808893 61.846361 
L 92.498091 60.258343 
L 92.532551 60.207559 
L 92.60147 60.274194 
L 92.842689 60.86793 
L 93.118368 60.794078 
L 93.256208 61.023622 
L 93.290668 60.97708 
L 93.600806 60.313976 
L 93.738646 60.378845 
L 94.014325 60.908923 
L 94.117704 60.683983 
L 94.152164 60.790415 
L 94.669062 62.206817 
L 94.806902 62.239253 
L 95.048121 62.661029 
L 95.22042 62.624005 
L 95.35826 62.363851 
L 95.392719 62.39086 
L 95.565019 62.724533 
L 95.806238 63.177451 
L 95.875158 63.237409 
L 96.150836 63.534611 
L 96.254216 63.535972 
L 96.392056 63.584496 
L 96.495435 63.47119 
L 96.667734 63.292746 
L 96.977873 63.197838 
L 97.081253 63.372073 
L 97.115713 63.318892 
L 97.288012 63.028811 
L 97.460311 62.610888 
L 97.529231 62.601385 
L 97.87383 61.841947 
L 97.942749 61.929243 
L 98.115049 62.180212 
L 98.183968 62.230193 
L 98.218428 62.183969 
L 98.597487 61.917133 
L 98.838706 62.094407 
L 99.011005 62.262384 
L 99.045465 62.240252 
L 99.079925 62.298779 
L 99.286684 63.144761 
L 99.562363 63.888821 
L 99.631283 63.942201 
L 99.665743 63.915947 
L 99.803582 63.914442 
L 99.872502 64.048997 
L 99.941422 63.961906 
L 100.010341 64.132581 
L 100.217101 64.837857 
L 100.25156 64.82134 
L 100.45832 64.999583 
L 100.733998 65.134871 
L 101.009677 64.666841 
L 101.078597 64.77676 
L 101.250896 64.866195 
L 101.423196 64.519331 
L 101.664415 63.88019 
L 101.698875 63.923264 
L 101.974554 63.866062 
L 102.146853 63.670991 
L 102.319152 63.546649 
L 102.353612 63.596633 
L 102.491452 63.63921 
L 102.560371 63.551833 
L 102.594831 63.582047 
L 102.698211 63.56559 
L 102.97389 62.955201 
L 103.111729 62.680658 
L 103.594167 62.147155 
L 103.766467 62.524808 
L 103.973226 63.480973 
L 104.042146 63.41439 
L 104.317824 63.530268 
L 104.386744 63.586429 
L 104.421204 63.490571 
L 104.696883 63.437805 
L 104.765803 63.48478 
L 105.110401 64.268778 
L 105.144861 64.223122 
L 105.317161 64.019683 
L 105.35162 64.047146 
L 105.42054 64.027155 
L 105.902978 63.035364 
L 106.006358 62.98358 
L 106.040818 63.050126 
L 106.144197 63.091532 
L 106.385416 63.921239 
L 106.626635 64.456013 
L 106.695555 64.539175 
L 106.730015 64.513679 
L 106.833395 64.353632 
L 107.040154 64.173504 
L 107.212453 64.16226 
L 107.350293 64.400114 
L 107.488132 64.671293 
L 107.832731 63.728788 
L 108.453008 62.343154 
L 108.521928 62.37538 
L 108.590848 62.31708 
L 108.832067 61.921908 
L 109.004366 61.733523 
L 109.107746 61.66472 
L 109.142206 61.699513 
L 109.211125 61.81149 
L 109.280045 61.70785 
L 109.486804 61.511535 
L 109.521264 61.48873 
L 109.555724 61.554028 
L 109.796943 61.997952 
L 110.210461 62.542074 
L 110.348301 62.363641 
L 110.382761 62.442625 
L 110.899659 63.983601 
L 110.968578 63.921454 
L 111.382097 64.118075 
L 111.657776 64.545452 
L 111.761155 64.63714 
L 111.933455 64.853621 
L 112.278053 65.175553 
L 112.312513 65.142381 
L 112.553732 64.712702 
L 112.588192 64.72805 
L 112.726032 64.644059 
L 112.967251 64.243614 
L 113.03617 64.159754 
L 113.311849 63.116797 
L 113.518608 63.10085 
L 113.863207 63.239631 
L 113.966587 63.104265 
L 114.001047 63.145203 
L 114.242266 63.583496 
L 114.276725 63.538648 
L 114.483485 63.187905 
L 114.517944 63.209817 
L 114.828083 63.508128 
L 115.379441 63.504753 
L 115.517281 63.824495 
L 115.965259 65.771866 
L 115.999719 65.727366 
L 116.172018 65.451721 
L 116.275398 65.521813 
L 116.447697 65.675038 
L 116.551077 65.904481 
L 116.792296 66.545844 
L 116.826755 66.427665 
L 116.895675 66.261634 
L 116.930135 66.293471 
L 117.136894 66.776862 
L 117.205814 66.709344 
L 117.240274 66.677849 
L 117.274734 66.720362 
L 117.481493 67.137634 
L 117.515953 67.110085 
L 118.584209 65.104321 
L 118.756508 64.450396 
L 119.101107 63.184311 
L 119.307866 62.976513 
L 119.549085 62.969851 
L 119.790304 63.083484 
L 120.169362 62.620764 
L 120.203822 62.698302 
L 120.272742 62.820697 
L 120.341662 62.748945 
L 120.68626 62.54121 
L 120.72072 62.491182 
L 120.75518 62.581821 
L 120.89302 62.827504 
L 121.134239 63.347718 
L 121.272078 63.660715 
L 121.306538 63.630281 
L 121.409917 63.544642 
L 121.444377 63.58963 
L 121.513297 63.68947 
L 121.547757 63.667613 
L 121.685596 63.544903 
L 121.788976 63.59765 
L 121.823436 63.545552 
L 121.892356 63.42894 
L 121.961275 63.507004 
L 122.133575 63.649481 
L 122.478173 63.45668 
L 122.547093 63.626861 
L 122.616013 63.589211 
L 122.684932 63.613024 
L 122.857232 63.795174 
L 123.063991 63.980025 
L 123.23629 64.109601 
L 123.27075 64.059826 
L 123.37413 63.938521 
L 123.511969 63.735976 
L 123.615349 63.63312 
L 123.925488 62.681816 
L 124.132247 62.214527 
L 124.270086 62.038468 
L 124.442386 61.905646 
L 124.752524 62.008604 
L 125.028203 61.64373 
L 125.614021 60.627301 
L 125.648481 60.66004 
L 125.717401 60.574416 
L 125.82078 60.612135 
L 126.199839 61.440932 
L 126.337678 61.479404 
L 126.820116 63.111633 
L 126.992416 63.102901 
L 127.199175 63.550743 
L 127.371474 64.032816 
L 127.405934 63.939121 
L 127.509314 64.000765 
L 127.750533 64.403516 
L 127.888372 64.40115 
L 128.33635 64.390006 
L 128.784329 64.893334 
L 128.887708 64.822949 
L 129.025548 64.522617 
L 129.611365 62.570881 
L 129.955964 61.972164 
L 130.128263 61.919151 
L 130.369482 61.79355 
L 130.679621 62.241528 
L 130.748541 62.18344 
L 130.85192 62.076928 
L 130.88638 62.132496 
L 131.472198 63.027605 
L 131.575578 62.946209 
L 131.610038 62.992766 
L 132.058016 63.521798 
L 132.747213 65.026872 
L 132.781673 65.006485 
L 132.850593 64.951311 
L 132.885053 64.984023 
L 133.333031 65.752837 
L 133.47087 65.489954 
L 133.849929 64.959632 
L 133.884389 64.979481 
L 134.332367 64.603479 
L 134.539126 64.079375 
L 134.573586 64.102834 
L 134.676965 63.9905 
L 135.193863 62.716906 
L 135.641842 61.777026 
L 135.848601 61.449519 
L 136.503338 62.53716 
L 136.537798 62.515691 
L 136.951317 61.84136 
L 137.020236 61.990443 
L 137.674974 63.482845 
L 137.778353 63.516528 
L 137.985113 63.989044 
L 138.260791 64.497723 
L 138.881069 64.711985 
L 139.087828 64.413078 
L 139.156748 64.515253 
L 139.225668 64.580535 
L 139.260128 64.532495 
L 139.880405 63.467742 
L 139.983785 63.123761 
L 140.087164 62.83077 
L 140.121624 62.870286 
L 140.293923 62.583104 
L 140.569602 61.727666 
L 141.12096 61.304407 
L 141.29326 61.12309 
L 141.741238 60.291917 
L 141.775698 60.383623 
L 142.154756 60.826849 
L 142.327056 61.227237 
L 142.602734 62.362144 
L 143.567611 65.033862 
L 143.84329 64.740185 
L 143.877749 64.775234 
L 144.015589 65.055983 
L 144.084509 64.999452 
L 144.153428 64.948557 
L 144.566947 64.303113 
L 144.670326 64.20182 
L 144.704786 64.230309 
L 145.049385 64.686478 
L 145.187224 64.936335 
L 145.221684 64.910326 
L 145.669662 63.836753 
L 146.35886 61.375016 
L 146.841298 61.685861 
L 147.392656 60.899946 
L 147.978473 62.218733 
L 148.150773 62.362862 
L 148.529831 62.87059 
L 148.702131 62.804179 
L 149.046729 62.218386 
L 149.184569 62.251633 
L 149.356868 62.148523 
L 149.425788 62.174881 
L 149.667007 62.426792 
L 149.873766 62.563522 
L 149.977146 62.701301 
L 150.011605 62.676518 
L 150.080525 62.59709 
L 150.114985 62.692144 
L 150.356204 63.171759 
L 150.494044 63.287582 
L 150.528503 63.219609 
L 150.907562 62.198599 
L 151.769059 60.728339 
L 151.906898 60.500494 
L 151.941358 60.515176 
L 152.044737 60.546087 
L 152.079197 60.503005 
L 152.148117 60.484378 
L 152.182577 60.608578 
L 152.251497 60.5175 
L 152.285956 60.474144 
L 152.320416 60.565317 
L 152.389336 60.524257 
L 152.492716 60.384265 
L 152.527176 60.465825 
L 152.768395 60.979581 
L 152.975154 61.573625 
L 153.044074 61.636951 
L 153.664351 62.879169 
L 153.733271 62.89776 
L 154.112329 63.426112 
L 154.215709 63.498104 
L 154.491388 64.404913 
L 154.560308 64.287924 
L 154.698147 64.311972 
L 155.146125 64.792954 
L 155.249505 64.702499 
L 155.352884 64.587439 
L 155.387344 64.661343 
L 155.559644 64.877204 
L 155.628563 65.001386 
L 155.697483 64.943109 
L 155.766403 64.831781 
L 156.4556 63.200316 
L 156.52452 63.289897 
L 156.903578 63.655924 
L 157.041418 63.344001 
L 157.213717 63.071198 
L 157.317097 63.028022 
L 157.420476 63.223303 
L 157.454936 63.205013 
L 157.833995 62.9964 
L 157.868455 63.068818 
L 157.937374 62.987613 
L 158.040754 62.89552 
L 158.075214 62.942712 
L 158.626572 63.560539 
L 158.798871 63.737208 
L 159.04009 64.21118 
L 159.246849 64.645373 
L 159.419149 64.542025 
L 159.798207 64.883266 
L 159.901587 64.837867 
L 160.004966 64.90664 
L 160.211725 65.294415 
L 160.384025 65.721557 
L 160.452944 65.69105 
L 161.245521 64.22904 
L 161.762419 62.203435 
L 161.831339 62.266599 
L 161.900259 62.329678 
L 161.934719 62.301761 
L 162.107018 61.955414 
L 162.451617 60.729314 
L 162.589456 60.779576 
L 162.899595 61.316958 
L 163.175274 61.233842 
L 163.519872 61.568482 
L 163.692172 61.54607 
L 164.07123 62.319984 
L 164.277989 62.372102 
L 164.450289 62.535159 
L 164.588128 62.6455 
L 164.967187 63.261495 
L 165.001647 63.241412 
L 165.105026 63.080847 
L 165.621924 62.389145 
L 165.897603 61.634405 
L 166.000983 61.608653 
L 166.069902 61.676681 
L 166.138822 61.615237 
L 166.276662 61.816368 
L 166.414501 62.117017 
L 166.448961 62.085269 
L 166.5868 62.123877 
L 166.82802 62.491051 
L 167.551677 61.269709 
L 167.586137 61.296156 
L 168.068575 61.222557 
L 168.206414 61.394015 
L 168.240874 61.366912 
L 168.585473 60.826364 
L 168.619932 60.905258 
L 168.792232 61.097646 
L 168.861152 61.152842 
L 168.930071 61.25632 
L 168.964531 61.203362 
L 169.067911 61.247779 
L 169.412509 61.911344 
L 169.481429 61.983658 
L 169.653728 62.077937 
L 169.929407 62.495396 
L 170.170626 63.011001 
L 170.377386 62.711034 
L 170.411845 62.741657 
L 170.790904 63.282899 
L 170.963203 63.561213 
L 170.997663 63.478557 
L 171.066583 63.529558 
L 172.031459 64.834151 
L 172.065919 64.799977 
L 172.272678 64.575829 
L 172.307138 64.632553 
L 172.444977 64.830402 
L 172.617277 64.441377 
L 172.824036 64.15487 
L 173.065255 64.045863 
L 173.168635 64.253127 
L 173.203095 64.211625 
L 173.306474 64.124141 
L 174.064591 63.682923 
L 174.167971 63.494378 
L 174.202431 63.531658 
L 174.47811 63.999649 
L 174.581489 63.890486 
L 174.753788 63.735865 
L 174.926088 63.929607 
L 175.167307 64.492907 
L 175.270686 64.389154 
L 175.305146 64.42805 
L 175.615285 64.76622 
L 175.787584 64.670342 
L 175.822044 64.760362 
L 175.890964 64.738272 
L 176.201103 64.35457 
L 176.338942 64.355927 
L 176.511242 64.1507 
L 176.718001 64.503254 
L 176.752461 64.580512 
L 176.82138 64.464106 
L 177.131519 64.399746 
L 177.269359 64.609771 
L 177.303818 64.570141 
L 177.441658 64.265748 
L 177.510578 64.377022 
L 177.613957 64.527777 
L 177.648417 64.501031 
L 177.820716 64.148309 
L 178.268695 62.901765 
L 178.578833 62.631437 
L 178.682213 62.492088 
L 178.751133 62.537852 
L 178.992352 62.439111 
L 179.199111 62.825191 
L 179.233571 62.797946 
L 179.47479 62.690004 
L 179.716009 62.272449 
L 179.784929 62.40022 
L 180.129527 62.908857 
L 180.336287 63.096128 
L 180.749805 63.969588 
L 180.956564 64.145774 
L 181.059944 64.110501 
L 181.404542 64.523451 
L 181.507922 64.432581 
L 181.542382 64.470872 
L 181.783601 64.409571 
L 182.369419 63.674952 
L 182.438338 63.632345 
L 182.541718 63.55952 
L 182.576178 63.600817 
L 182.748477 63.66262 
L 182.886317 63.433099 
L 182.955236 63.354592 
L 182.989696 63.373316 
L 183.161995 63.442711 
L 183.506594 63.428287 
L 183.644434 63.563505 
L 183.678893 63.518539 
L 183.920113 62.911008 
L 183.954572 62.952831 
L 184.092412 62.995177 
L 184.333631 62.710736 
L 184.712689 61.826501 
L 185.229587 62.214266 
L 186.160004 64.522958 
L 186.366763 64.584516 
L 186.470143 64.662387 
L 186.745821 65.34535 
L 186.918121 65.684471 
L 187.12488 65.672192 
L 187.297179 65.921421 
L 187.400559 65.709636 
L 187.469479 65.750135 
L 188.124216 64.766653 
L 188.227596 64.86703 
L 188.503275 65.10688 
L 188.675574 64.7586 
L 189.192472 63.109721 
L 189.295851 62.918507 
L 189.364771 62.955891 
L 189.502611 62.960266 
L 190.088428 62.607154 
L 190.467487 61.946646 
L 190.501947 61.973413 
L 190.674246 62.081679 
L 190.708706 61.976526 
L 190.743166 61.917434 
L 190.777626 61.975 
L 191.018845 62.352268 
L 191.191144 62.290197 
L 191.845881 63.994788 
L 191.949261 63.999117 
L 192.087101 63.820316 
L 192.32832 64.106651 
L 192.431699 64.024797 
L 192.741838 64.633411 
L 192.845218 64.681095 
L 193.017517 64.598425 
L 193.258736 64.408132 
L 193.362116 64.423515 
L 193.637794 64.046722 
L 194.085773 63.671959 
L 194.326992 63.028229 
L 194.361452 63.050157 
L 194.533751 63.066588 
L 194.67159 63.09309 
L 194.84389 63.070542 
L 195.016189 63.021211 
L 195.154029 63.21414 
L 195.188488 63.154171 
L 195.291868 63.197487 
L 195.774306 61.92337 
L 195.808766 62.019521 
L 195.877686 62.142889 
L 195.946605 62.261839 
L 196.015525 62.210124 
L 196.222284 62.174818 
L 196.325664 62.406254 
L 196.429044 62.86248 
L 196.670263 63.860637 
L 196.842562 63.864368 
L 196.980401 64.376414 
L 197.152701 64.80318 
L 197.29054 64.837387 
L 197.29054 64.837387 
" clip-path="url(#pb225ef5992)" style="fill: none; stroke: #0000ff; stroke-width: 0.4; stroke-linecap: square"/>
   </g>
   <g id="patch_3">
    <path d="M 59.52 129.12 
L 59.52 26.88 
" style="fill: none; stroke: #000000; stroke-width: 0.8; stroke-linejoin: miter; stroke-linecap: square"/>
   </g>
   <g id="patch_4">
    <path d="M 197.325 129.12 
L 197.325 26.88 
" style="fill: none; stroke: #000000; stroke-width: 0.8; stroke-linejoin: miter; stroke-linecap: square"/>
   </g>
   <g id="patch_5">
    <path d="M 59.52 129.12 
L 197.325 129.12 
" style="fill: none; stroke: #000000; stroke-width: 0.8; stroke-linejoin: miter; stroke-linecap: square"/>
   </g>
   <g id="patch_6">
    <path d="M 59.52 26.88 
L 197.325 26.88 
" style="fill: none; stroke: #000000; stroke-width: 0.8; stroke-linejoin: miter; stroke-linecap: square"/>
   </g>
   <g id="line2d_12">
    <path d="M 59.52 63.225532 
L 59.899059 62.398004 
L 60.140278 62.309088 
L 60.415956 62.662565 
L 60.932854 63.172785 
L 61.242993 63.089748 
L 61.553132 62.958134 
L 62.276789 63.2056 
L 62.655848 63.200431 
L 62.897067 63.10729 
L 64.103162 63.257654 
L 64.447761 63.209814 
L 64.55114 63.174901 
L 64.5856 63.209703 
L 64.757899 63.208368 
L 64.999119 63.266702 
L 65.205878 63.233551 
L 65.343717 63.257929 
L 65.481557 63.218181 
L 65.688316 63.232776 
L 67.928207 63.280666 
L 68.410645 63.262312 
L 68.651864 63.234175 
L 70.030259 63.270635 
L 70.271478 63.242483 
L 70.960675 63.215707 
L 71.374194 63.241207 
L 71.512033 63.270709 
L 71.718792 63.237037 
L 71.960011 63.265975 
L 72.132311 63.200062 
L 72.649209 63.198512 
L 73.441785 63.301318 
L 73.924224 63.13034 
L 75.199239 63.237574 
L 77.990488 63.218769 
L 78.507386 63.169522 
L 78.920904 63.239464 
L 79.679021 63.29523 
L 79.98916 63.251566 
L 80.195919 63.197344 
L 80.540518 63.216873 
L 80.712817 63.196141 
L 80.919576 63.213691 
L 81.574314 63.220676 
L 81.849992 63.224792 
L 82.711489 63.226494 
L 83.297307 63.28317 
L 83.435146 63.246235 
L 83.469606 72.050876 
L 83.538526 63.205879 
L 83.710825 63.180336 
L 84.089884 63.158571 
L 84.434482 63.232908 
L 84.813541 63.273051 
L 84.848001 72.05506 
L 84.91692 63.280091 
L 85.502738 63.179382 
L 85.675038 63.201981 
L 86.502074 63.256678 
L 86.812213 63.204878 
L 87.156812 63.259614 
L 87.398031 63.28596 
L 88.569666 63.275553 
L 89.052104 63.250031 
L 90.22374 63.273704 
L 90.706178 63.239332 
L 92.946069 63.29036 
L 93.152828 63.294107 
L 93.325128 63.269496 
L 93.566347 63.221102 
L 94.737982 63.200285 
L 94.875821 63.158271 
L 95.1515 63.174579 
L 95.496099 63.195385 
L 96.598815 63.211265 
L 97.046793 63.33263 
L 97.288012 63.304915 
L 97.80491 63.16691 
L 98.080589 63.15744 
L 98.528567 63.241043 
L 98.976545 63.239074 
L 99.217764 63.217543 
L 99.734662 63.276763 
L 99.975881 63.298686 
L 100.28602 63.303786 
L 103.146189 63.217869 
L 103.387408 63.161295 
L 104.903642 63.268946 
L 105.144861 63.252148 
L 106.006358 63.225321 
L 106.213117 63.201506 
L 106.798935 63.268701 
L 106.971234 63.286681 
L 107.419212 63.231061 
L 107.625971 63.194419 
L 107.763811 63.197049 
L 108.177329 63.195806 
L 108.590848 63.239726 
L 108.832067 63.20204 
L 108.969906 63.219354 
L 109.142206 63.141204 
L 109.314505 63.136628 
L 109.693563 63.150022 
L 109.969242 63.159046 
L 110.210461 63.156551 
L 110.348301 63.131084 
L 111.175338 63.236186 
L 111.451017 63.254251 
L 111.795615 63.186518 
L 112.002374 63.21714 
L 112.450353 63.258265 
L 112.588192 63.294486 
L 113.656448 63.210946 
L 114.001047 63.279484 
L 114.173346 63.276064 
L 114.517944 63.271365 
L 114.793623 63.220923 
L 118.13623 63.242478 
L 118.377449 63.248087 
L 118.618668 63.201209 
L 118.928807 63.149799 
L 119.686924 63.322387 
L 120.065983 63.238904 
L 120.307202 63.143031 
L 120.75518 63.186118 
L 121.306538 63.310809 
L 122.202494 63.07878 
L 122.926152 63.333831 
L 123.684269 63.130045 
L 124.132247 63.342381 
L 124.339006 63.343741 
L 124.924824 63.084845 
L 125.269422 63.15448 
L 125.510641 63.290927 
L 125.648481 63.332264 
L 126.027539 63.180502 
L 126.303218 63.039915 
L 126.751197 63.11734 
L 127.233635 63.293976 
L 127.405934 63.293145 
L 127.440394 72.050536 
L 127.509314 63.250742 
L 127.853912 63.080821 
L 128.060671 63.07669 
L 128.47419 63.292064 
L 128.680949 63.359895 
L 128.991088 63.332279 
L 129.439066 63.167906 
L 129.714745 63.185124 
L 130.507322 63.352416 
L 130.679621 63.239967 
L 131.196519 63.124181 
L 131.334359 63.188806 
L 131.437738 63.196802 
L 131.610038 63.241825 
L 131.920176 63.30705 
L 132.643833 63.154443 
L 132.953972 63.222685 
L 133.333031 63.370164 
L 133.57425 63.347885 
L 134.228987 63.134958 
L 134.814805 63.356513 
L 134.987104 63.431165 
L 135.435083 63.286986 
L 135.848601 63.130749 
L 136.951317 63.309109 
L 137.158076 63.235819 
L 137.364835 63.156179 
L 137.537134 63.118386 
L 137.812813 63.241001 
L 137.985113 63.311199 
L 138.398631 63.36093 
L 138.63985 63.288433 
L 138.846609 63.197773 
L 139.087828 63.179078 
L 139.432427 63.290411 
L 139.880405 63.453852 
L 140.087164 63.362416 
L 140.362843 63.27685 
L 140.604062 63.190267 
L 141.568938 63.318359 
L 141.810158 63.211521 
L 141.947997 63.20695 
L 142.327056 63.126171 
L 142.981793 63.297214 
L 144.153428 63.122594 
L 144.360188 63.20496 
L 144.498027 63.187106 
L 144.911545 63.319164 
L 145.221684 63.291418 
L 145.393983 63.236239 
L 145.910881 63.047259 
L 146.18656 63.155972 
L 146.35886 63.221872 
L 146.634539 63.312228 
L 146.910218 63.324926 
L 147.116977 63.290026 
L 147.323736 63.178192 
L 147.427116 63.171456 
L 147.599415 63.124428 
L 147.840634 63.177584 
L 148.83997 63.244441 
L 149.219029 63.184959 
L 150.183905 63.293262 
L 150.425124 63.326293 
L 151.010941 63.224309 
L 151.49338 63.179864 
L 151.769059 63.275556 
L 151.941358 63.280107 
L 152.492716 63.207363 
L 152.871774 63.114837 
L 153.492052 63.255882 
L 153.698811 63.397798 
L 154.215709 63.356939 
L 154.525848 63.212178 
L 155.180585 63.287978 
L 155.387344 63.359454 
L 155.731943 63.436526 
L 156.869119 63.203641 
L 157.317097 63.327332 
L 157.489396 63.293565 
L 157.833995 63.280651 
L 158.075214 63.174286 
L 158.281973 63.107475 
L 158.661032 63.147127 
L 159.453608 63.330979 
L 159.763747 63.177901 
L 160.073886 63.142172 
L 160.625244 63.282427 
L 160.797543 63.322168 
L 161.004302 63.367782 
L 161.176602 63.31852 
L 162.072558 63.195778 
L 163.726632 63.19948 
L 164.17461 63.158553 
L 164.553668 63.281436 
L 165.070566 63.326902 
L 165.449625 63.176366 
L 165.621924 63.139518 
L 165.966523 63.14836 
L 166.311122 63.268117 
L 166.448961 63.317493 
L 166.72464 63.39613 
L 168.309794 63.262642 
L 168.482093 63.336774 
L 168.619932 63.317526 
L 169.998327 63.110838 
L 170.584145 63.386908 
L 171.066583 63.291864 
L 171.652401 63.122195 
L 172.617277 63.264745 
L 174.167971 63.214588 
L 174.719329 63.379162 
L 175.167307 63.304861 
L 175.442986 63.180529 
L 175.856504 63.175762 
L 176.132183 63.312047 
L 176.718001 63.32659 
L 177.269359 63.244281 
L 177.579497 63.253192 
L 178.130855 63.229204 
L 178.303155 63.17213 
L 179.612629 63.212326 
L 179.888308 63.129605 
L 180.405206 63.282994 
L 181.163323 63.276544 
L 181.335623 63.188404 
L 181.680221 63.186698 
L 181.852521 63.186691 
L 182.02482 63.19997 
L 182.438338 63.180038 
L 183.851193 63.113081 
L 184.161332 63.070038 
L 185.126208 63.335003 
L 185.470806 63.067907 
L 185.712026 63.025151 
L 185.849865 63.030917 
L 186.056624 63.11808 
L 186.470143 63.344892 
L 188.262056 63.161795 
L 188.537734 63.090486 
L 189.054632 63.332288 
L 189.57153 63.263443 
L 190.260728 63.094129 
L 191.053305 63.355046 
L 191.328983 63.205592 
L 191.949261 63.131207 
L 192.741838 63.192176 
L 193.258736 63.229452 
L 193.741174 63.329128 
L 194.84389 63.18625 
L 195.360788 63.391978 
L 195.739846 63.313291 
L 196.497963 63.120919 
L 196.877022 63.32637 
L 196.980401 63.339969 
L 197.014861 63.391705 
L 197.083781 63.345701 
L 197.29054 63.307733 
L 197.29054 63.307733 
" clip-path="url(#pb225ef5992)" style="fill: none; stroke: #ff0000; stroke-width: 0.2; stroke-linecap: square"/>
   </g>
   <g id="text_12">
    <!-- Time Domain Plot -->
    <g transform="translate(75.338438 20.88) scale(0.12 -0.12)">
     <defs>
      <path id="DejaVuSans-44" d="M 1259 4147 
L 1259 519 
L 2022 519 
Q 2988 519 3436 956 
Q 3884 1394 3884 2338 
Q 3884 3275 3436 3711 
Q 2988 4147 2022 4147 
L 1259 4147 
z
M 628 4666 
L 1925 4666 
Q 3281 4666 3915 4102 
Q 4550 3538 4550 2338 
Q 4550 1131 3912 565 
Q 3275 0 1925 0 
L 628 0 
L 628 4666 
z
" transform="scale(0.015625)"/>
      <path id="DejaVuSans-6f" d="M 1959 3097 
Q 1497 3097 1228 2736 
Q 959 2375 959 1747 
Q 959 1119 1226 758 
Q 1494 397 1959 397 
Q 2419 397 2687 759 
Q 2956 1122 2956 1747 
Q 2956 2369 2687 2733 
Q 2419 3097 1959 3097 
z
M 1959 3584 
Q 2709 3584 3137 3096 
Q 3566 2609 3566 1747 
Q 3566 888 3137 398 
Q 2709 -91 1959 -91 
Q 1206 -91 779 398 
Q 353 888 353 1747 
Q 353 2609 779 3096 
Q 1206 3584 1959 3584 
z
" transform="scale(0.015625)"/>
      <path id="DejaVuSans-61" d="M 2194 1759 
Q 1497 1759 1228 1600 
Q 959 1441 959 1056 
Q 959 750 1161 570 
Q 1363 391 1709 391 
Q 2188 391 2477 730 
Q 2766 1069 2766 1631 
L 2766 1759 
L 2194 1759 
z
M 3341 1997 
L 3341 0 
L 2766 0 
L 2766 531 
Q 2569 213 2275 61 
Q 1981 -91 1556 -91 
Q 1019 -91 701 211 
Q 384 513 384 1019 
Q 384 1609 779 1909 
Q 1175 2209 1959 2209 
L 2766 2209 
L 2766 2266 
Q 2766 2663 2505 2880 
Q 2244 3097 1772 3097 
Q 1472 3097 1187 3025 
Q 903 2953 641 2809 
L 641 3341 
Q 956 3463 1253 3523 
Q 1550 3584 1831 3584 
Q 2591 3584 2966 3190 
Q 3341 2797 3341 1997 
z
" transform="scale(0.015625)"/>
      <path id="DejaVuSans-6e" d="M 3513 2113 
L 3513 0 
L 2938 0 
L 2938 2094 
Q 2938 2591 2744 2837 
Q 2550 3084 2163 3084 
Q 1697 3084 1428 2787 
Q 1159 2491 1159 1978 
L 1159 0 
L 581 0 
L 581 3500 
L 1159 3500 
L 1159 2956 
Q 1366 3272 1645 3428 
Q 1925 3584 2291 3584 
Q 2894 3584 3203 3211 
Q 3513 2838 3513 2113 
z
" transform="scale(0.015625)"/>
      <path id="DejaVuSans-50" d="M 1259 4147 
L 1259 2394 
L 2053 2394 
Q 2494 2394 2734 2622 
Q 2975 2850 2975 3272 
Q 2975 3691 2734 3919 
Q 2494 4147 2053 4147 
L 1259 4147 
z
M 628 4666 
L 2053 4666 
Q 2838 4666 3239 4311 
Q 3641 3956 3641 3272 
Q 3641 2581 3239 2228 
Q 2838 1875 2053 1875 
L 1259 1875 
L 1259 0 
L 628 0 
L 628 4666 
z
" transform="scale(0.015625)"/>
     </defs>
     <use xlink:href="#DejaVuSans-54"/>
     <use xlink:href="#DejaVuSans-69" x="57.958984"/>
     <use xlink:href="#DejaVuSans-6d" x="85.742188"/>
     <use xlink:href="#DejaVuSans-65" x="183.154297"/>
     <use xlink:href="#DejaVuSans-20" x="244.677734"/>
     <use xlink:href="#DejaVuSans-44" x="276.464844"/>
     <use xlink:href="#DejaVuSans-6f" x="353.466797"/>
     <use xlink:href="#DejaVuSans-6d" x="414.648438"/>
     <use xlink:href="#DejaVuSans-61" x="512.060547"/>
     <use xlink:href="#DejaVuSans-69" x="573.339844"/>
     <use xlink:href="#DejaVuSans-6e" x="601.123047"/>
     <use xlink:href="#DejaVuSans-20" x="664.501953"/>
     <use xlink:href="#DejaVuSans-50" x="696.289062"/>
     <use xlink:href="#DejaVuSans-6c" x="756.591797"/>
     <use xlink:href="#DejaVuSans-6f" x="784.375"/>
     <use xlink:href="#DejaVuSans-74" x="845.556641"/>
    </g>
   </g>
   <g id="patch_7">
    <path d="M 73.303946 75.738377 
L 80.195919 75.738377 
L 80.195919 53.827144 
L 73.303946 53.827144 
L 73.303946 75.738377 
z
" clip-path="url(#pb225ef5992)" style="fill: none; stroke: #000000; stroke-width: 1.2; stroke-linejoin: miter"/>
   </g>
   <g id="legend_1">
    <g id="patch_8">
     <path d="M 20.2785 158.292 
L 51.146625 158.292 
Q 51.746625 158.292 51.746625 157.692 
L 51.746625 144.781688 
Q 51.746625 144.181688 51.146625 144.181688 
L 20.2785 144.181688 
Q 19.6785 144.181688 19.6785 144.781688 
L 19.6785 157.692 
Q 19.6785 158.292 20.2785 158.292 
z
" style="fill: #ffffff; opacity: 0.8; stroke: #cccccc; stroke-linejoin: miter"/>
    </g>
    <g id="line2d_13">
     <path d="M 20.8785 146.611219 
L 23.8785 146.611219 
L 26.8785 146.611219 
" style="fill: none; stroke: #808080; stroke-width: 0.3; stroke-linecap: square"/>
    </g>
    <g id="text_13">
     <!-- Contaminated -->
     <g transform="translate(29.2785 147.661219) scale(0.03 -0.03)">
      <defs>
       <path id="DejaVuSans-43" d="M 4122 4306 
L 4122 3641 
Q 3803 3938 3442 4084 
Q 3081 4231 2675 4231 
Q 1875 4231 1450 3742 
Q 1025 3253 1025 2328 
Q 1025 1406 1450 917 
Q 1875 428 2675 428 
Q 3081 428 3442 575 
Q 3803 722 4122 1019 
L 4122 359 
Q 3791 134 3420 21 
Q 3050 -91 2638 -91 
Q 1578 -91 968 557 
Q 359 1206 359 2328 
Q 359 3453 968 4101 
Q 1578 4750 2638 4750 
Q 3056 4750 3426 4639 
Q 3797 4528 4122 4306 
z
" transform="scale(0.015625)"/>
      </defs>
      <use xlink:href="#DejaVuSans-43"/>
      <use xlink:href="#DejaVuSans-6f" x="69.824219"/>
      <use xlink:href="#DejaVuSans-6e" x="131.005859"/>
      <use xlink:href="#DejaVuSans-74" x="194.384766"/>
      <use xlink:href="#DejaVuSans-61" x="233.59375"/>
      <use xlink:href="#DejaVuSans-6d" x="294.873047"/>
      <use xlink:href="#DejaVuSans-69" x="392.285156"/>
      <use xlink:href="#DejaVuSans-6e" x="420.068359"/>
      <use xlink:href="#DejaVuSans-61" x="483.447266"/>
      <use xlink:href="#DejaVuSans-74" x="544.726562"/>
      <use xlink:href="#DejaVuSans-65" x="583.935547"/>
      <use xlink:href="#DejaVuSans-64" x="645.458984"/>
     </g>
    </g>
    <g id="line2d_14">
     <path d="M 20.8785 151.014656 
L 23.8785 151.014656 
L 26.8785 151.014656 
" style="fill: none; stroke: #0000ff; stroke-width: 0.4; stroke-linecap: square"/>
    </g>
    <g id="text_14">
     <!-- Clean -->
     <g transform="translate(29.2785 152.064656) scale(0.03 -0.03)">
      <use xlink:href="#DejaVuSans-43"/>
      <use xlink:href="#DejaVuSans-6c" x="69.824219"/>
      <use xlink:href="#DejaVuSans-65" x="97.607422"/>
      <use xlink:href="#DejaVuSans-61" x="159.130859"/>
      <use xlink:href="#DejaVuSans-6e" x="220.410156"/>
     </g>
    </g>
    <g id="line2d_15">
     <path d="M 20.8785 155.418094 
L 23.8785 155.418094 
L 26.8785 155.418094 
" style="fill: none; stroke: #ff0000; stroke-width: 0.2; stroke-linecap: square"/>
    </g>
    <g id="text_15">
     <!-- SACed -->
     <g transform="translate(29.2785 156.468094) scale(0.03 -0.03)">
      <defs>
       <path id="DejaVuSans-53" d="M 3425 4513 
L 3425 3897 
Q 3066 4069 2747 4153 
Q 2428 4238 2131 4238 
Q 1616 4238 1336 4038 
Q 1056 3838 1056 3469 
Q 1056 3159 1242 3001 
Q 1428 2844 1947 2747 
L 2328 2669 
Q 3034 2534 3370 2195 
Q 3706 1856 3706 1288 
Q 3706 609 3251 259 
Q 2797 -91 1919 -91 
Q 1588 -91 1214 -16 
Q 841 59 441 206 
L 441 856 
Q 825 641 1194 531 
Q 1563 422 1919 422 
Q 2459 422 2753 634 
Q 3047 847 3047 1241 
Q 3047 1584 2836 1778 
Q 2625 1972 2144 2069 
L 1759 2144 
Q 1053 2284 737 2584 
Q 422 2884 422 3419 
Q 422 4038 858 4394 
Q 1294 4750 2059 4750 
Q 2388 4750 2728 4690 
Q 3069 4631 3425 4513 
z
" transform="scale(0.015625)"/>
      </defs>
      <use xlink:href="#DejaVuSans-53"/>
      <use xlink:href="#DejaVuSans-41" x="65.351562"/>
      <use xlink:href="#DejaVuSans-43" x="132.009766"/>
      <use xlink:href="#DejaVuSans-65" x="201.833984"/>
      <use xlink:href="#DejaVuSans-64" x="263.357422"/>
     </g>
    </g>
   </g>
  </g>
 </g>
 <defs>
  <clipPath id="pb225ef5992">
   <rect x="59.52" y="26.88" width="137.805" height="102.24"/>
  </clipPath>
 </defs>
</svg>
