<?xml version="1.0" encoding="utf-8" standalone="no"?>
<!DOCTYPE svg PUBLIC "-//W3C//DTD SVG 1.1//EN"
  "http://www.w3.org/Graphics/SVG/1.1/DTD/svg11.dtd">
<svg xmlns:xlink="http://www.w3.org/1999/xlink" width="216pt" height="180pt" viewBox="0 0 216 180" xmlns="http://www.w3.org/2000/svg" version="1.1">
 <metadata>
  <rdf:RDF xmlns:dc="http://purl.org/dc/elements/1.1/" xmlns:cc="http://creativecommons.org/ns#" xmlns:rdf="http://www.w3.org/1999/02/22-rdf-syntax-ns#">
   <cc:Work>
    <dc:type rdf:resource="http://purl.org/dc/dcmitype/StillImage"/>
    <dc:date>2024-08-24T19:55:24.659916</dc:date>
    <dc:format>image/svg+xml</dc:format>
    <dc:creator>
     <cc:Agent>
      <dc:title>Matplotlib v3.9.1, https://matplotlib.org/</dc:title>
     </cc:Agent>
    </dc:creator>
   </cc:Work>
  </rdf:RDF>
 </metadata>
 <defs>
  <style type="text/css">*{stroke-linejoin: round; stroke-linecap: butt}</style>
 </defs>
 <g id="figure_1">
  <g id="patch_1">
   <path d="M 0 180 
L 216 180 
L 216 0 
L 0 0 
z
" style="fill: #ffffff"/>
  </g>
  <g id="axes_1">
   <g id="patch_2">
    <path d="M 59.52 129.12 
L 197.469952 129.12 
L 197.469952 26.88 
L 59.52 26.88 
z
" style="fill: #ffffff"/>
   </g>
   <g id="matplotlib.axis_1">
    <g id="xtick_1">
     <g id="line2d_1">
      <defs>
       <path id="m67f1453e04" d="M 0 0 
L 0 3.5 
" style="stroke: #000000; stroke-width: 0.8"/>
      </defs>
      <g>
       <use xlink:href="#m67f1453e04" x="62.106562" y="129.12" style="stroke: #000000; stroke-width: 0.8"/>
      </g>
     </g>
     <g id="text_1">
      <!-- 1.00 -->
      <g transform="translate(50.973749 143.718437) scale(0.1 -0.1)">
       <defs>
        <path id="DejaVuSans-31" d="M 794 531 
L 1825 531 
L 1825 4091 
L 703 3866 
L 703 4441 
L 1819 4666 
L 2450 4666 
L 2450 531 
L 3481 531 
L 3481 0 
L 794 0 
L 794 531 
z
" transform="scale(0.015625)"/>
        <path id="DejaVuSans-2e" d="M 684 794 
L 1344 794 
L 1344 0 
L 684 0 
L 684 794 
z
" transform="scale(0.015625)"/>
        <path id="DejaVuSans-30" d="M 2034 4250 
Q 1547 4250 1301 3770 
Q 1056 3291 1056 2328 
Q 1056 1369 1301 889 
Q 1547 409 2034 409 
Q 2525 409 2770 889 
Q 3016 1369 3016 2328 
Q 3016 3291 2770 3770 
Q 2525 4250 2034 4250 
z
M 2034 4750 
Q 2819 4750 3233 4129 
Q 3647 3509 3647 2328 
Q 3647 1150 3233 529 
Q 2819 -91 2034 -91 
Q 1250 -91 836 529 
Q 422 1150 422 2328 
Q 422 3509 836 4129 
Q 1250 4750 2034 4750 
z
" transform="scale(0.015625)"/>
       </defs>
       <use xlink:href="#DejaVuSans-31"/>
       <use xlink:href="#DejaVuSans-2e" x="63.623047"/>
       <use xlink:href="#DejaVuSans-30" x="95.410156"/>
       <use xlink:href="#DejaVuSans-30" x="159.033203"/>
      </g>
     </g>
    </g>
    <g id="xtick_2">
     <g id="line2d_2">
      <g>
       <use xlink:href="#m67f1453e04" x="128.412073" y="129.12" style="stroke: #000000; stroke-width: 0.8"/>
      </g>
     </g>
     <g id="text_2">
      <!-- 1.25 -->
      <g transform="translate(117.279261 143.718437) scale(0.1 -0.1)">
       <defs>
        <path id="DejaVuSans-32" d="M 1228 531 
L 3431 531 
L 3431 0 
L 469 0 
L 469 531 
Q 828 903 1448 1529 
Q 2069 2156 2228 2338 
Q 2531 2678 2651 2914 
Q 2772 3150 2772 3378 
Q 2772 3750 2511 3984 
Q 2250 4219 1831 4219 
Q 1534 4219 1204 4116 
Q 875 4013 500 3803 
L 500 4441 
Q 881 4594 1212 4672 
Q 1544 4750 1819 4750 
Q 2544 4750 2975 4387 
Q 3406 4025 3406 3419 
Q 3406 3131 3298 2873 
Q 3191 2616 2906 2266 
Q 2828 2175 2409 1742 
Q 1991 1309 1228 531 
z
" transform="scale(0.015625)"/>
        <path id="DejaVuSans-35" d="M 691 4666 
L 3169 4666 
L 3169 4134 
L 1269 4134 
L 1269 2991 
Q 1406 3038 1543 3061 
Q 1681 3084 1819 3084 
Q 2600 3084 3056 2656 
Q 3513 2228 3513 1497 
Q 3513 744 3044 326 
Q 2575 -91 1722 -91 
Q 1428 -91 1123 -41 
Q 819 9 494 109 
L 494 744 
Q 775 591 1075 516 
Q 1375 441 1709 441 
Q 2250 441 2565 725 
Q 2881 1009 2881 1497 
Q 2881 1984 2565 2268 
Q 2250 2553 1709 2553 
Q 1456 2553 1204 2497 
Q 953 2441 691 2322 
L 691 4666 
z
" transform="scale(0.015625)"/>
       </defs>
       <use xlink:href="#DejaVuSans-31"/>
       <use xlink:href="#DejaVuSans-2e" x="63.623047"/>
       <use xlink:href="#DejaVuSans-32" x="95.410156"/>
       <use xlink:href="#DejaVuSans-35" x="159.033203"/>
      </g>
     </g>
    </g>
    <g id="xtick_3">
     <g id="line2d_3">
      <g>
       <use xlink:href="#m67f1453e04" x="194.717585" y="129.12" style="stroke: #000000; stroke-width: 0.8"/>
      </g>
     </g>
     <g id="text_3">
      <!-- 1.50 -->
      <g transform="translate(183.584773 143.718437) scale(0.1 -0.1)">
       <use xlink:href="#DejaVuSans-31"/>
       <use xlink:href="#DejaVuSans-2e" x="63.623047"/>
       <use xlink:href="#DejaVuSans-35" x="95.410156"/>
       <use xlink:href="#DejaVuSans-30" x="159.033203"/>
      </g>
     </g>
    </g>
    <g id="text_4">
     <!-- Time (s) -->
     <g transform="translate(108.16607 157.396563) scale(0.1 -0.1)">
      <defs>
       <path id="DejaVuSans-54" d="M -19 4666 
L 3928 4666 
L 3928 4134 
L 2272 4134 
L 2272 0 
L 1638 0 
L 1638 4134 
L -19 4134 
L -19 4666 
z
" transform="scale(0.015625)"/>
       <path id="DejaVuSans-69" d="M 603 3500 
L 1178 3500 
L 1178 0 
L 603 0 
L 603 3500 
z
M 603 4863 
L 1178 4863 
L 1178 4134 
L 603 4134 
L 603 4863 
z
" transform="scale(0.015625)"/>
       <path id="DejaVuSans-6d" d="M 3328 2828 
Q 3544 3216 3844 3400 
Q 4144 3584 4550 3584 
Q 5097 3584 5394 3201 
Q 5691 2819 5691 2113 
L 5691 0 
L 5113 0 
L 5113 2094 
Q 5113 2597 4934 2840 
Q 4756 3084 4391 3084 
Q 3944 3084 3684 2787 
Q 3425 2491 3425 1978 
L 3425 0 
L 2847 0 
L 2847 2094 
Q 2847 2600 2669 2842 
Q 2491 3084 2119 3084 
Q 1678 3084 1418 2786 
Q 1159 2488 1159 1978 
L 1159 0 
L 581 0 
L 581 3500 
L 1159 3500 
L 1159 2956 
Q 1356 3278 1631 3431 
Q 1906 3584 2284 3584 
Q 2666 3584 2933 3390 
Q 3200 3197 3328 2828 
z
" transform="scale(0.015625)"/>
       <path id="DejaVuSans-65" d="M 3597 1894 
L 3597 1613 
L 953 1613 
Q 991 1019 1311 708 
Q 1631 397 2203 397 
Q 2534 397 2845 478 
Q 3156 559 3463 722 
L 3463 178 
Q 3153 47 2828 -22 
Q 2503 -91 2169 -91 
Q 1331 -91 842 396 
Q 353 884 353 1716 
Q 353 2575 817 3079 
Q 1281 3584 2069 3584 
Q 2775 3584 3186 3129 
Q 3597 2675 3597 1894 
z
M 3022 2063 
Q 3016 2534 2758 2815 
Q 2500 3097 2075 3097 
Q 1594 3097 1305 2825 
Q 1016 2553 972 2059 
L 3022 2063 
z
" transform="scale(0.015625)"/>
       <path id="DejaVuSans-20" transform="scale(0.015625)"/>
       <path id="DejaVuSans-28" d="M 1984 4856 
Q 1566 4138 1362 3434 
Q 1159 2731 1159 2009 
Q 1159 1288 1364 580 
Q 1569 -128 1984 -844 
L 1484 -844 
Q 1016 -109 783 600 
Q 550 1309 550 2009 
Q 550 2706 781 3412 
Q 1013 4119 1484 4856 
L 1984 4856 
z
" transform="scale(0.015625)"/>
       <path id="DejaVuSans-73" d="M 2834 3397 
L 2834 2853 
Q 2591 2978 2328 3040 
Q 2066 3103 1784 3103 
Q 1356 3103 1142 2972 
Q 928 2841 928 2578 
Q 928 2378 1081 2264 
Q 1234 2150 1697 2047 
L 1894 2003 
Q 2506 1872 2764 1633 
Q 3022 1394 3022 966 
Q 3022 478 2636 193 
Q 2250 -91 1575 -91 
Q 1294 -91 989 -36 
Q 684 19 347 128 
L 347 722 
Q 666 556 975 473 
Q 1284 391 1588 391 
Q 1994 391 2212 530 
Q 2431 669 2431 922 
Q 2431 1156 2273 1281 
Q 2116 1406 1581 1522 
L 1381 1569 
Q 847 1681 609 1914 
Q 372 2147 372 2553 
Q 372 3047 722 3315 
Q 1072 3584 1716 3584 
Q 2034 3584 2315 3537 
Q 2597 3491 2834 3397 
z
" transform="scale(0.015625)"/>
       <path id="DejaVuSans-29" d="M 513 4856 
L 1013 4856 
Q 1481 4119 1714 3412 
Q 1947 2706 1947 2009 
Q 1947 1309 1714 600 
Q 1481 -109 1013 -844 
L 513 -844 
Q 928 -128 1133 580 
Q 1338 1288 1338 2009 
Q 1338 2731 1133 3434 
Q 928 4138 513 4856 
z
" transform="scale(0.015625)"/>
      </defs>
      <use xlink:href="#DejaVuSans-54"/>
      <use xlink:href="#DejaVuSans-69" x="57.958984"/>
      <use xlink:href="#DejaVuSans-6d" x="85.742188"/>
      <use xlink:href="#DejaVuSans-65" x="183.154297"/>
      <use xlink:href="#DejaVuSans-20" x="244.677734"/>
      <use xlink:href="#DejaVuSans-28" x="276.464844"/>
      <use xlink:href="#DejaVuSans-73" x="315.478516"/>
      <use xlink:href="#DejaVuSans-29" x="367.578125"/>
     </g>
    </g>
   </g>
   <g id="matplotlib.axis_2">
    <g id="ytick_1">
     <g id="line2d_4">
      <defs>
       <path id="m5a0b55ad03" d="M 0 0 
L -3.5 0 
" style="stroke: #000000; stroke-width: 0.8"/>
      </defs>
      <g>
       <use xlink:href="#m5a0b55ad03" x="59.52" y="114.831986" style="stroke: #000000; stroke-width: 0.8"/>
      </g>
     </g>
     <g id="text_5">
      <!-- −40 -->
      <g transform="translate(31.415312 118.631205) scale(0.1 -0.1)">
       <defs>
        <path id="DejaVuSans-2212" d="M 678 2272 
L 4684 2272 
L 4684 1741 
L 678 1741 
L 678 2272 
z
" transform="scale(0.015625)"/>
        <path id="DejaVuSans-34" d="M 2419 4116 
L 825 1625 
L 2419 1625 
L 2419 4116 
z
M 2253 4666 
L 3047 4666 
L 3047 1625 
L 3713 1625 
L 3713 1100 
L 3047 1100 
L 3047 0 
L 2419 0 
L 2419 1100 
L 313 1100 
L 313 1709 
L 2253 4666 
z
" transform="scale(0.015625)"/>
       </defs>
       <use xlink:href="#DejaVuSans-2212"/>
       <use xlink:href="#DejaVuSans-34" x="83.789062"/>
       <use xlink:href="#DejaVuSans-30" x="147.412109"/>
      </g>
     </g>
    </g>
    <g id="ytick_2">
     <g id="line2d_5">
      <g>
       <use xlink:href="#m5a0b55ad03" x="59.52" y="86.081484" style="stroke: #000000; stroke-width: 0.8"/>
      </g>
     </g>
     <g id="text_6">
      <!-- −20 -->
      <g transform="translate(31.415312 89.880702) scale(0.1 -0.1)">
       <use xlink:href="#DejaVuSans-2212"/>
       <use xlink:href="#DejaVuSans-32" x="83.789062"/>
       <use xlink:href="#DejaVuSans-30" x="147.412109"/>
      </g>
     </g>
    </g>
    <g id="ytick_3">
     <g id="line2d_6">
      <g>
       <use xlink:href="#m5a0b55ad03" x="59.52" y="57.330981" style="stroke: #000000; stroke-width: 0.8"/>
      </g>
     </g>
     <g id="text_7">
      <!-- 0 -->
      <g transform="translate(46.1575 61.1302) scale(0.1 -0.1)">
       <use xlink:href="#DejaVuSans-30"/>
      </g>
     </g>
    </g>
    <g id="ytick_4">
     <g id="line2d_7">
      <g>
       <use xlink:href="#m5a0b55ad03" x="59.52" y="28.580479" style="stroke: #000000; stroke-width: 0.8"/>
      </g>
     </g>
     <g id="text_8">
      <!-- 20 -->
      <g transform="translate(39.795 32.379697) scale(0.1 -0.1)">
       <use xlink:href="#DejaVuSans-32"/>
       <use xlink:href="#DejaVuSans-30" x="63.623047"/>
      </g>
     </g>
    </g>
    <g id="text_9">
     <!-- Amplitude (mV) -->
     <g transform="translate(25.335625 117.403906) rotate(-90) scale(0.1 -0.1)">
      <defs>
       <path id="DejaVuSans-41" d="M 2188 4044 
L 1331 1722 
L 3047 1722 
L 2188 4044 
z
M 1831 4666 
L 2547 4666 
L 4325 0 
L 3669 0 
L 3244 1197 
L 1141 1197 
L 716 0 
L 50 0 
L 1831 4666 
z
" transform="scale(0.015625)"/>
       <path id="DejaVuSans-70" d="M 1159 525 
L 1159 -1331 
L 581 -1331 
L 581 3500 
L 1159 3500 
L 1159 2969 
Q 1341 3281 1617 3432 
Q 1894 3584 2278 3584 
Q 2916 3584 3314 3078 
Q 3713 2572 3713 1747 
Q 3713 922 3314 415 
Q 2916 -91 2278 -91 
Q 1894 -91 1617 61 
Q 1341 213 1159 525 
z
M 3116 1747 
Q 3116 2381 2855 2742 
Q 2594 3103 2138 3103 
Q 1681 3103 1420 2742 
Q 1159 2381 1159 1747 
Q 1159 1113 1420 752 
Q 1681 391 2138 391 
Q 2594 391 2855 752 
Q 3116 1113 3116 1747 
z
" transform="scale(0.015625)"/>
       <path id="DejaVuSans-6c" d="M 603 4863 
L 1178 4863 
L 1178 0 
L 603 0 
L 603 4863 
z
" transform="scale(0.015625)"/>
       <path id="DejaVuSans-74" d="M 1172 4494 
L 1172 3500 
L 2356 3500 
L 2356 3053 
L 1172 3053 
L 1172 1153 
Q 1172 725 1289 603 
Q 1406 481 1766 481 
L 2356 481 
L 2356 0 
L 1766 0 
Q 1100 0 847 248 
Q 594 497 594 1153 
L 594 3053 
L 172 3053 
L 172 3500 
L 594 3500 
L 594 4494 
L 1172 4494 
z
" transform="scale(0.015625)"/>
       <path id="DejaVuSans-75" d="M 544 1381 
L 544 3500 
L 1119 3500 
L 1119 1403 
Q 1119 906 1312 657 
Q 1506 409 1894 409 
Q 2359 409 2629 706 
Q 2900 1003 2900 1516 
L 2900 3500 
L 3475 3500 
L 3475 0 
L 2900 0 
L 2900 538 
Q 2691 219 2414 64 
Q 2138 -91 1772 -91 
Q 1169 -91 856 284 
Q 544 659 544 1381 
z
M 1991 3584 
L 1991 3584 
z
" transform="scale(0.015625)"/>
       <path id="DejaVuSans-64" d="M 2906 2969 
L 2906 4863 
L 3481 4863 
L 3481 0 
L 2906 0 
L 2906 525 
Q 2725 213 2448 61 
Q 2172 -91 1784 -91 
Q 1150 -91 751 415 
Q 353 922 353 1747 
Q 353 2572 751 3078 
Q 1150 3584 1784 3584 
Q 2172 3584 2448 3432 
Q 2725 3281 2906 2969 
z
M 947 1747 
Q 947 1113 1208 752 
Q 1469 391 1925 391 
Q 2381 391 2643 752 
Q 2906 1113 2906 1747 
Q 2906 2381 2643 2742 
Q 2381 3103 1925 3103 
Q 1469 3103 1208 2742 
Q 947 2381 947 1747 
z
" transform="scale(0.015625)"/>
       <path id="DejaVuSans-56" d="M 1831 0 
L 50 4666 
L 709 4666 
L 2188 738 
L 3669 4666 
L 4325 4666 
L 2547 0 
L 1831 0 
z
" transform="scale(0.015625)"/>
      </defs>
      <use xlink:href="#DejaVuSans-41"/>
      <use xlink:href="#DejaVuSans-6d" x="68.408203"/>
      <use xlink:href="#DejaVuSans-70" x="165.820312"/>
      <use xlink:href="#DejaVuSans-6c" x="229.296875"/>
      <use xlink:href="#DejaVuSans-69" x="257.080078"/>
      <use xlink:href="#DejaVuSans-74" x="284.863281"/>
      <use xlink:href="#DejaVuSans-75" x="324.072266"/>
      <use xlink:href="#DejaVuSans-64" x="387.451172"/>
      <use xlink:href="#DejaVuSans-65" x="450.927734"/>
      <use xlink:href="#DejaVuSans-20" x="512.451172"/>
      <use xlink:href="#DejaVuSans-28" x="544.238281"/>
      <use xlink:href="#DejaVuSans-6d" x="583.251953"/>
      <use xlink:href="#DejaVuSans-56" x="680.664062"/>
      <use xlink:href="#DejaVuSans-29" x="749.072266"/>
     </g>
    </g>
   </g>
   <g id="line2d_8">
    <path d="M 62.172884 58.988095 
L 62.438172 33.002546 
L 62.570816 33.824659 
L 62.836105 39.425314 
L 63.234037 55.172687 
L 64.029902 119.54646 
L 64.162546 121.269602 
L 64.427835 41.036245 
L 64.560479 33.840565 
L 64.693123 34.674523 
L 64.958412 40.528499 
L 65.356344 56.286924 
L 66.152209 120.97732 
L 66.284853 122.732194 
L 66.550142 46.294986 
L 66.682786 40.950913 
L 66.81543 41.370739 
L 67.080719 45.087481 
L 67.478651 56.200456 
L 68.274516 102.105052 
L 68.40716 103.141379 
L 68.672449 40.251049 
L 68.805093 33.220608 
L 68.937737 33.694812 
L 69.203025 38.542419 
L 69.600958 52.469201 
L 70.396823 111.51717 
L 70.529467 113.11033 
L 70.794756 42.628627 
L 70.9274 37.972861 
L 71.060044 38.450458 
L 71.325332 41.996776 
L 71.723265 51.776955 
L 72.51913 93.594269 
L 72.651774 94.798519 
L 72.917063 42.366793 
L 73.049707 37.449515 
L 73.182351 38.129569 
L 73.447639 42.263948 
L 73.845572 53.42903 
L 74.641437 99.393844 
L 74.774081 100.618735 
L 75.03937 39.414106 
L 75.172014 32.442021 
L 75.304658 33.245098 
L 75.569946 39.042863 
L 75.967879 54.812677 
L 76.763744 118.663346 
L 76.896388 120.615432 
L 77.161677 48.145161 
L 77.294321 43.874673 
L 77.426965 44.540127 
L 77.692253 48.427866 
L 78.090186 58.542341 
L 78.886051 98.755477 
L 79.018695 99.808895 
L 79.283983 43.039365 
L 79.416628 35.760882 
L 79.549272 36.393019 
L 79.81456 41.624773 
L 80.212493 56.690117 
L 81.008358 120.546309 
L 81.141002 122.282487 
L 81.40629 46.849383 
L 81.538935 41.611072 
L 81.671579 42.012711 
L 81.936867 45.411739 
L 82.3348 55.75196 
L 83.130665 101.371388 
L 83.263309 102.638399 
L 83.528597 40.809941 
L 83.661242 33.54272 
L 83.793886 34.144587 
L 84.059174 39.503508 
L 84.457107 55.053771 
L 85.252972 119.515137 
L 85.385616 121.343842 
L 85.650904 41.605212 
L 85.783549 34.760778 
L 85.916193 35.540624 
L 86.181481 41.121337 
L 86.579414 56.397918 
L 87.375279 118.922348 
L 87.507923 120.810038 
L 87.773211 44.451755 
L 87.905855 37.894878 
L 88.0385 38.628315 
L 88.303788 43.766279 
L 88.701721 58.152918 
L 89.497586 117.582183 
L 89.63023 119.222669 
L 89.895518 45.897541 
L 90.028162 39.827415 
L 90.160807 40.316678 
L 90.426095 44.726077 
L 90.824028 57.17175 
L 91.619893 109.848857 
L 91.752537 111.228175 
L 92.017825 42.320501 
L 92.150469 35.438687 
L 92.283114 36.05153 
L 92.548402 41.149055 
L 92.946335 55.30922 
L 93.7422 114.773852 
L 93.874844 116.298972 
L 94.140132 40.370423 
L 94.272776 33.442478 
L 94.405421 33.905594 
L 94.670709 38.737987 
L 95.068641 53.19472 
L 95.864507 114.32902 
L 95.997151 116.097655 
L 96.262439 40.415751 
L 96.395083 33.785468 
L 96.527727 34.592815 
L 96.793016 40.070072 
L 97.190948 54.602111 
L 97.986814 115.401447 
L 98.119458 117.140592 
L 98.384746 40.311704 
L 98.51739 33.072229 
L 98.650034 33.894522 
L 98.915323 39.682157 
L 99.313255 55.939903 
L 100.10912 122.490267 
L 100.241765 124.249769 
L 100.507053 45.867874 
L 100.639697 40.310248 
L 100.772341 40.788424 
L 101.03763 44.792811 
L 101.435562 56.882373 
L 102.231427 105.932103 
L 102.364072 107.113288 
L 102.62936 42.094703 
L 102.762004 35.079453 
L 102.894648 35.474096 
L 103.159937 40.32831 
L 103.557869 54.537762 
L 104.353734 115.267411 
L 104.486379 117.035708 
L 104.751667 44.178871 
L 104.884311 38.824656 
L 105.016955 39.351186 
L 105.282244 43.447295 
L 105.680176 54.669474 
L 106.476041 102.29166 
L 106.608686 103.526424 
L 106.873974 45.031848 
L 107.006618 40.168566 
L 107.139262 40.555929 
L 107.404551 44.089785 
L 107.802483 54.573127 
L 108.598348 97.780188 
L 108.730992 99.010383 
L 108.996281 44.710157 
L 109.128925 39.708247 
L 109.261569 40.34673 
L 109.526858 44.581056 
L 109.92479 55.537775 
L 110.720655 101.008003 
L 110.853299 102.411864 
L 111.118588 48.136469 
L 111.251232 43.859422 
L 111.383876 44.39544 
L 111.649165 47.833907 
L 112.047097 57.390678 
L 112.842962 97.659946 
L 112.975606 98.808148 
L 113.240895 42.123005 
L 113.373539 34.800102 
L 113.506183 35.532789 
L 113.771471 41.145903 
L 114.169404 56.839282 
L 114.965269 122.110851 
L 115.097913 123.851737 
L 115.363202 44.41365 
L 115.495846 38.204582 
L 115.62849 38.724192 
L 115.893778 43.21227 
L 116.291711 56.096398 
L 117.087576 109.323767 
L 117.22022 110.815024 
L 117.485509 41.410692 
L 117.618153 34.648545 
L 117.750797 35.215102 
L 118.016085 40.079999 
L 118.414018 53.989087 
L 119.209883 113.290666 
L 119.342527 115.051927 
L 119.607816 41.552598 
L 119.74046 35.264528 
L 119.873104 35.90218 
L 120.138392 40.758892 
L 120.536325 54.441042 
L 121.33219 110.607889 
L 121.464834 112.272246 
L 121.730123 44.369258 
L 121.862767 38.961213 
L 121.995411 39.616015 
L 122.260699 44.044579 
L 122.658632 56.180921 
L 123.454497 105.519849 
L 123.587141 106.933209 
L 123.85243 44.049073 
L 123.985074 37.781863 
L 124.117718 38.443428 
L 124.383006 43.12511 
L 124.780939 56.65146 
L 125.576804 113.121663 
L 125.709448 114.697578 
L 125.974736 46.722249 
L 126.107381 41.522745 
L 126.240025 42.060273 
L 126.505313 46.006763 
L 126.903246 57.056272 
L 127.699111 103.313852 
L 127.831755 104.443349 
L 128.097043 44.206629 
L 128.229688 38.006928 
L 128.362332 38.321916 
L 128.62762 42.357431 
L 129.025553 54.920997 
L 129.821418 107.689322 
L 129.954062 109.045475 
L 130.21935 43.969597 
L 130.351995 38.9206 
L 130.484639 39.345718 
L 130.749927 43.182808 
L 131.14786 53.997903 
L 131.943725 99.159408 
L 132.076369 100.510916 
L 132.341657 41.851716 
L 132.474301 35.82007 
L 132.606946 36.457076 
L 132.872234 41.084681 
L 133.270167 54.458281 
L 134.066032 110.098693 
L 134.198676 111.660982 
L 134.463964 46.696326 
L 134.596608 42.040061 
L 134.729253 42.638681 
L 134.994541 46.422133 
L 135.392474 56.906018 
L 136.188339 99.89136 
L 136.320983 101.105758 
L 136.586271 43.027324 
L 136.718915 36.262213 
L 136.85156 37.012115 
L 137.116848 42.307804 
L 137.514781 56.85809 
L 138.310646 117.521106 
L 138.44329 119.108765 
L 138.708578 45.061209 
L 138.841222 39.306541 
L 138.973867 39.728921 
L 139.239155 43.719708 
L 139.637087 55.541616 
L 140.432953 104.977125 
L 140.565597 106.32014 
L 140.830885 41.252956 
L 140.963529 34.510575 
L 141.096173 35.016533 
L 141.361462 40.024053 
L 141.759394 54.342016 
L 142.55526 114.088245 
L 142.687904 115.796331 
L 142.953192 39.828848 
L 143.085836 32.910552 
L 143.21848 33.527377 
L 143.483769 38.652335 
L 143.881701 53.250326 
L 144.677566 115.199203 
L 144.810211 117.164501 
L 145.075499 43.772168 
L 145.208143 38.314316 
L 145.340787 38.941894 
L 145.606076 43.276712 
L 146.004008 55.70271 
L 146.799873 105.910334 
L 146.932518 107.300476 
L 147.197806 44.180696 
L 147.33045 38.134959 
L 147.463094 38.721729 
L 147.728383 43.277446 
L 148.126315 56.288422 
L 148.92218 110.171913 
L 149.054825 111.725655 
L 149.320113 45.162601 
L 149.452757 39.070791 
L 149.585401 39.57736 
L 149.85069 44.038949 
L 150.248622 56.539915 
L 151.044487 109.559391 
L 151.177132 110.751701 
L 151.44242 45.699672 
L 151.575064 40.702599 
L 151.707708 41.100252 
L 151.972997 44.766459 
L 152.370929 55.267023 
L 153.166794 98.696693 
L 153.299438 99.799816 
L 153.564727 39.008293 
L 153.697371 31.527273 
L 153.830015 32.23981 
L 154.095304 37.81989 
L 154.493236 53.814771 
L 155.289101 120.198946 
L 155.421745 122.207189 
L 155.687034 44.594041 
L 155.819678 39.360878 
L 155.952322 40.172812 
L 156.217611 44.754652 
L 156.615543 56.985436 
L 157.411408 106.341011 
L 157.544052 107.622835 
L 157.809341 47.777363 
L 157.941985 42.765069 
L 158.074629 43.111167 
L 158.339917 46.822393 
L 158.73785 57.585456 
L 159.533715 101.898396 
L 159.666359 103.122359 
L 159.931648 43.945067 
L 160.064292 37.230538 
L 160.196936 37.918798 
L 160.462224 42.920102 
L 160.860157 57.348575 
L 161.656022 117.164488 
L 161.788666 118.734052 
L 162.053955 43.038403 
L 162.186599 36.074521 
L 162.319243 36.642274 
L 162.584531 41.507597 
L 162.982464 55.569868 
L 163.778329 114.91031 
L 163.910973 116.460822 
L 164.176262 40.642229 
L 164.308906 33.71838 
L 164.44155 34.302702 
L 164.706838 39.19754 
L 165.104771 53.492498 
L 165.900636 113.561885 
L 166.03328 115.120217 
L 166.298569 39.615414 
L 166.431213 33.192942 
L 166.563857 33.937451 
L 166.829145 38.961775 
L 167.227078 52.977803 
L 168.022943 112.306759 
L 168.155587 114.155662 
L 168.420876 42.02651 
L 168.55352 35.953095 
L 168.686164 36.827367 
L 168.951452 41.946242 
L 169.349385 55.767986 
L 170.14525 113.180081 
L 170.277894 114.855398 
L 170.543182 41.841373 
L 170.675827 34.516378 
L 170.808471 35.381811 
L 171.073759 41.18611 
L 171.471692 57.136792 
L 172.267557 122.692724 
L 172.400201 124.472727 
L 172.665489 46.863923 
L 172.798134 41.767148 
L 172.930778 42.148762 
L 173.196066 45.904001 
L 173.593999 56.801578 
L 174.389864 101.316739 
L 174.522508 102.37916 
L 174.787796 44.888537 
L 174.920441 39.129155 
L 175.053085 39.426842 
L 175.318373 43.258682 
L 175.716306 54.605819 
L 176.512171 103.271527 
L 176.644815 104.571957 
L 176.910103 38.84495 
L 177.042748 31.660499 
L 177.175392 32.421167 
L 177.44068 37.889753 
L 177.838613 53.353309 
L 178.634478 118.010289 
L 178.767122 119.845732 
L 179.03241 42.605591 
L 179.165054 36.940583 
L 179.297699 37.55167 
L 179.562987 42.015268 
L 179.96092 54.441759 
L 180.756785 106.751606 
L 180.889429 108.325317 
L 181.154717 45.773291 
L 181.287361 40.463028 
L 181.420006 41.119901 
L 181.685294 45.375816 
L 182.083227 57.272599 
L 182.879092 106.3046 
L 183.011736 107.829257 
L 183.277024 44.507282 
L 183.409668 37.872582 
L 183.542313 38.459213 
L 183.807601 43.400893 
L 184.205533 57.614481 
L 185.001399 117.298812 
L 185.134043 119.026341 
L 185.399331 47.217175 
L 185.531975 41.705689 
L 185.664619 42.171347 
L 185.929908 46.045246 
L 186.32784 57.424748 
L 187.123706 105.077472 
L 187.25635 106.366091 
L 187.521638 45.41665 
L 187.654282 39.79605 
L 187.786926 40.15248 
L 188.052215 44.07516 
L 188.450147 55.59279 
L 189.246012 103.436917 
L 189.378657 104.834478 
L 189.643945 40.959485 
L 189.776589 33.958986 
L 189.909233 34.586922 
L 190.174522 39.981759 
L 190.572454 54.88802 
L 191.368319 117.178279 
L 191.500964 118.911923 
L 191.766252 46.827095 
L 191.898896 42.186374 
L 192.03154 42.698802 
L 192.296829 46.408592 
L 192.694761 56.602257 
L 193.490626 99.425173 
L 193.623271 100.701235 
L 193.888559 45.691899 
L 194.021203 39.94714 
L 194.153847 40.543147 
L 194.419136 44.959121 
L 194.684424 52.654093 
L 194.684424 52.654093 
" clip-path="url(#p013721c484)" style="fill: none; stroke: #808080; stroke-width: 0.7; stroke-linecap: square"/>
   </g>
   <g id="line2d_9">
    <path d="M 62.172884 56.287506 
L 62.70346 56.524066 
L 63.897258 57.49266 
L 64.162546 57.461671 
L 64.560479 57.466284 
L 65.488988 58.189925 
L 66.682786 58.223983 
L 67.743939 57.289518 
L 68.937737 55.000999 
L 69.203025 54.734854 
L 70.662112 53.069986 
L 71.325332 53.116745 
L 71.723265 52.982274 
L 72.51913 53.526063 
L 72.784418 53.723792 
L 73.580284 54.596042 
L 74.11086 55.009162 
L 74.641437 55.293196 
L 74.906725 55.300101 
L 75.172014 55.371443 
L 75.437302 55.678633 
L 76.365811 57.27425 
L 77.294321 58.58995 
L 78.090186 59.717685 
L 78.355474 59.799174 
L 79.151339 59.455486 
L 79.416628 59.0943 
L 80.345137 58.605087 
L 81.008358 58.591801 
L 81.40629 58.403662 
L 81.804223 57.937796 
L 82.3348 57.082577 
L 82.600088 56.970583 
L 82.998021 57.151022 
L 83.661242 57.06472 
L 84.059174 56.836458 
L 84.589751 56.896536 
L 84.855039 56.85426 
L 85.120328 56.992376 
L 86.048837 57.583218 
L 86.712058 58.264147 
L 87.10999 58.581423 
L 87.507923 59.179881 
L 88.0385 59.80898 
L 88.303788 59.863318 
L 89.099653 59.751387 
L 89.497586 59.580268 
L 90.028162 59.39552 
L 90.956672 58.585004 
L 91.487248 58.006012 
L 92.283114 57.38704 
L 92.681046 57.344749 
L 93.211623 56.906695 
L 93.476911 56.694984 
L 94.272776 55.606818 
L 94.803353 54.951615 
L 95.068641 54.965039 
L 96.395083 55.856772 
L 97.058304 56.397323 
L 97.190948 56.364999 
L 97.456237 56.492691 
L 97.854169 56.651887 
L 98.252102 56.950154 
L 99.047967 57.592569 
L 99.578544 58.118255 
L 100.10912 58.429085 
L 100.374409 58.376994 
L 100.772341 58.241568 
L 101.03763 58.056981 
L 101.833495 58.407315 
L 102.098783 58.309916 
L 102.762004 57.342606 
L 103.159937 56.733638 
L 103.557869 56.315973 
L 105.149599 56.207782 
L 105.414888 56.189801 
L 105.81282 56.027708 
L 106.608686 56.104842 
L 107.139262 55.83205 
L 107.404551 55.699445 
L 108.200416 55.891568 
L 108.465704 55.830525 
L 108.730992 55.980231 
L 109.128925 55.993765 
L 110.985944 58.099727 
L 111.383876 58.632228 
L 111.649165 58.653686 
L 112.312385 58.501688 
L 113.506183 58.773973 
L 114.169404 58.753816 
L 114.699981 58.509082 
L 114.965269 58.466335 
L 116.424355 57.530895 
L 117.087576 56.69161 
L 117.352864 56.645015 
L 118.944595 55.3034 
L 119.209883 55.42907 
L 119.74046 55.729324 
L 120.138392 55.839042 
L 120.934257 56.190131 
L 121.199546 56.159799 
L 122.128055 57.034807 
L 122.791276 57.72109 
L 124.117718 58.403763 
L 124.383006 58.294714 
L 124.648295 58.20141 
L 125.178871 58.546412 
L 126.107381 58.496672 
L 126.637957 58.496252 
L 126.903246 58.41202 
L 127.301178 58.612832 
L 128.229688 57.618237 
L 128.760264 56.66505 
L 130.086706 55.422426 
L 131.14786 55.316649 
L 131.545792 55.330411 
L 132.076369 55.417201 
L 132.606946 55.741716 
L 133.004878 55.766492 
L 133.270167 56.046888 
L 133.933388 57.261691 
L 134.198676 57.339535 
L 134.861897 57.881284 
L 135.790406 58.368601 
L 136.055694 58.392642 
L 136.586271 58.520937 
L 137.116848 58.769112 
L 138.045357 58.395691 
L 139.637087 56.997998 
L 140.300308 56.656169 
L 140.565597 56.520047 
L 140.963529 56.562259 
L 141.228818 56.341346 
L 141.892039 55.951402 
L 142.157327 55.701391 
L 142.820548 55.475238 
L 143.21848 55.215342 
L 143.881701 55.036911 
L 144.544922 55.649216 
L 145.340787 56.541213 
L 145.606076 56.651973 
L 145.871364 56.94893 
L 146.269297 57.416262 
L 146.799873 57.715709 
L 147.197806 57.648195 
L 147.463094 57.549208 
L 147.861027 57.637281 
L 148.258959 58.0337 
L 148.789536 58.570695 
L 149.320113 58.751655 
L 151.044487 57.536175 
L 151.44242 56.85018 
L 151.972997 56.613401 
L 152.370929 56.551141 
L 152.901506 56.249308 
L 153.830015 55.555185 
L 153.962659 55.480669 
L 154.891169 55.95932 
L 155.421745 56.53187 
L 156.482899 58.279883 
L 157.411408 59.080891 
L 158.339917 58.661402 
L 158.73785 58.868714 
L 159.135783 59.118214 
L 160.32958 59.196891 
L 160.727513 59.096704 
L 160.992801 59.100933 
L 161.523378 58.812066 
L 161.788666 58.662485 
L 162.584531 57.741645 
L 162.982464 57.329514 
L 163.778329 56.414717 
L 165.370059 55.074037 
L 166.298569 54.379536 
L 166.829145 54.648029 
L 167.359722 54.781903 
L 168.420876 56.364424 
L 168.951452 57.179668 
L 169.482029 57.466501 
L 170.012606 58.026154 
L 170.277894 58.394086 
L 170.941115 58.961668 
L 171.339048 59.101872 
L 171.73698 58.965666 
L 172.002268 58.665102 
L 172.267557 58.366531 
L 173.32871 57.991626 
L 173.726643 58.141014 
L 174.124575 57.971699 
L 174.389864 57.906679 
L 176.246882 55.492676 
L 176.910103 55.181706 
L 177.573324 55.255154 
L 177.971257 55.220723 
L 178.767122 55.513177 
L 179.562987 55.667027 
L 179.96092 55.921505 
L 180.889429 57.726309 
L 181.55265 58.458228 
L 181.817938 58.555227 
L 183.011736 59.293913 
L 183.277024 59.591779 
L 183.542313 59.547245 
L 183.940245 59.405775 
L 184.470822 59.424556 
L 184.868754 59.562189 
L 185.531975 59.412976 
L 185.929908 59.093436 
L 187.123706 58.061372 
L 187.388994 57.864858 
L 187.919571 57.18188 
L 188.184859 57.056806 
L 188.582792 56.949704 
L 188.84808 56.760137 
L 189.378657 56.604015 
L 189.643945 56.599107 
L 189.909233 56.451016 
L 190.837743 56.856552 
L 191.368319 57.304836 
L 191.633608 57.407756 
L 192.03154 57.65324 
L 193.092694 58.224908 
L 193.357982 58.433935 
L 194.684424 58.726182 
L 194.684424 58.726182 
" clip-path="url(#p013721c484)" style="fill: none; stroke: #1e90ff; stroke-linecap: square"/>
   </g>
   <g id="line2d_10">
    <path d="M 62.172884 55.943154 
L 63.366681 58.295374 
L 64.427835 60.254625 
L 65.091056 61.085073 
L 65.621632 61.432093 
L 66.019565 61.488781 
L 66.417498 61.371226 
L 66.948074 60.962235 
L 67.611295 60.112438 
L 68.672449 58.268983 
L 70.396823 55.264598 
L 71.192688 54.32204 
L 71.855909 53.88283 
L 72.386486 53.787553 
L 72.917063 53.926489 
L 73.447639 54.289989 
L 74.11086 55.0189 
L 75.172014 56.60088 
L 76.6311 58.774679 
L 77.426965 59.543806 
L 77.957542 59.801998 
L 78.488118 59.840602 
L 79.018695 59.666722 
L 79.681916 59.188196 
L 80.610425 58.176445 
L 82.3348 56.21466 
L 82.998021 55.787531 
L 83.528597 55.669325 
L 84.059174 55.764927 
L 84.722395 56.164391 
L 85.51826 56.949417 
L 87.375279 58.906962 
L 88.0385 59.252645 
L 88.569076 59.305971 
L 89.099653 59.152717 
L 89.762874 58.695731 
L 90.691383 57.696158 
L 92.681046 55.414327 
L 93.344267 54.973686 
L 94.007488 54.799743 
L 94.538065 54.864595 
L 95.201286 55.189001 
L 95.997151 55.875408 
L 97.323593 57.403752 
L 98.51739 58.670971 
L 99.313255 59.22069 
L 99.976476 59.438278 
L 100.639697 59.440967 
L 101.435562 59.215804 
L 102.762004 58.546328 
L 107.802483 55.8632 
L 108.863637 55.508193 
L 109.659502 55.474924 
L 110.322723 55.645543 
L 111.118588 56.097645 
L 112.047097 56.904581 
L 114.03676 58.747481 
L 114.699981 59.064829 
L 115.363202 59.120996 
L 116.026423 58.910273 
L 116.822288 58.369298 
L 119.342527 56.338959 
L 120.005748 56.139798 
L 120.668969 56.160684 
L 121.464834 56.453355 
L 122.393343 57.06284 
L 124.51565 58.550978 
L 125.311516 58.787059 
L 125.974736 58.75895 
L 126.637957 58.522601 
L 127.433822 58.006055 
L 130.617283 55.622802 
L 131.280504 55.515759 
L 131.943725 55.621003 
L 132.73959 56.000769 
L 133.800743 56.801495 
L 135.790406 58.340357 
L 136.586271 58.686141 
L 137.382136 58.784783 
L 138.178001 58.626826 
L 139.106511 58.172176 
L 141.892039 56.574631 
L 142.687904 56.455664 
L 143.483769 56.556438 
L 144.412278 56.908376 
L 147.463094 58.304683 
L 148.126315 58.29669 
L 148.789536 58.096249 
L 149.585401 57.626266 
L 151.972997 55.996954 
L 152.636218 55.90986 
L 153.299438 56.075654 
L 154.095304 56.546709 
L 156.084966 57.892197 
L 156.880831 58.085463 
L 157.676697 58.046116 
L 159.931648 57.766363 
L 161.25809 57.980557 
L 162.186599 58.060946 
L 162.84982 57.932127 
L 163.513041 57.594858 
L 164.44155 56.817863 
L 165.900636 55.513054 
L 166.563857 55.235514 
L 167.094434 55.270426 
L 167.62501 55.56055 
L 168.288231 56.260488 
L 169.216741 57.670991 
L 170.410538 59.483805 
L 171.073759 60.102111 
L 171.604336 60.270546 
L 172.002268 60.186755 
L 172.532845 59.804438 
L 173.196066 58.965768 
L 175.716306 55.251452 
L 176.246882 54.938622 
L 176.777459 54.869082 
L 177.308036 55.016897 
L 177.971257 55.432378 
L 179.430343 56.715252 
L 180.756785 57.743804 
L 181.950582 58.405186 
L 183.14438 58.818984 
L 184.072889 58.893136 
L 184.868754 58.710102 
L 185.664619 58.280562 
L 186.858417 57.322417 
L 188.052215 56.413108 
L 188.84808 56.07493 
L 189.511301 56.017414 
L 190.307166 56.19435 
L 191.500964 56.754242 
L 193.092694 57.475489 
L 194.286491 57.769708 
L 194.684424 57.822551 
L 194.684424 57.822551 
" clip-path="url(#p013721c484)" style="fill: none; stroke: #ff0000; stroke-width: 0.8; stroke-linecap: square"/>
   </g>
   <g id="patch_3">
    <path d="M 59.52 129.12 
L 59.52 26.88 
" style="fill: none; stroke: #000000; stroke-width: 0.8; stroke-linejoin: miter; stroke-linecap: square"/>
   </g>
   <g id="patch_4">
    <path d="M 197.469952 129.12 
L 197.469952 26.88 
" style="fill: none; stroke: #000000; stroke-width: 0.8; stroke-linejoin: miter; stroke-linecap: square"/>
   </g>
   <g id="patch_5">
    <path d="M 59.52 129.12 
L 197.469952 129.12 
" style="fill: none; stroke: #000000; stroke-width: 0.8; stroke-linejoin: miter; stroke-linecap: square"/>
   </g>
   <g id="patch_6">
    <path d="M 59.52 26.88 
L 197.469952 26.88 
" style="fill: none; stroke: #000000; stroke-width: 0.8; stroke-linejoin: miter; stroke-linecap: square"/>
   </g>
   <g id="text_10">
    <!-- Time Domain Plot -->
    <g transform="translate(75.410913 20.88) scale(0.12 -0.12)">
     <defs>
      <path id="DejaVuSans-44" d="M 1259 4147 
L 1259 519 
L 2022 519 
Q 2988 519 3436 956 
Q 3884 1394 3884 2338 
Q 3884 3275 3436 3711 
Q 2988 4147 2022 4147 
L 1259 4147 
z
M 628 4666 
L 1925 4666 
Q 3281 4666 3915 4102 
Q 4550 3538 4550 2338 
Q 4550 1131 3912 565 
Q 3275 0 1925 0 
L 628 0 
L 628 4666 
z
" transform="scale(0.015625)"/>
      <path id="DejaVuSans-6f" d="M 1959 3097 
Q 1497 3097 1228 2736 
Q 959 2375 959 1747 
Q 959 1119 1226 758 
Q 1494 397 1959 397 
Q 2419 397 2687 759 
Q 2956 1122 2956 1747 
Q 2956 2369 2687 2733 
Q 2419 3097 1959 3097 
z
M 1959 3584 
Q 2709 3584 3137 3096 
Q 3566 2609 3566 1747 
Q 3566 888 3137 398 
Q 2709 -91 1959 -91 
Q 1206 -91 779 398 
Q 353 888 353 1747 
Q 353 2609 779 3096 
Q 1206 3584 1959 3584 
z
" transform="scale(0.015625)"/>
      <path id="DejaVuSans-61" d="M 2194 1759 
Q 1497 1759 1228 1600 
Q 959 1441 959 1056 
Q 959 750 1161 570 
Q 1363 391 1709 391 
Q 2188 391 2477 730 
Q 2766 1069 2766 1631 
L 2766 1759 
L 2194 1759 
z
M 3341 1997 
L 3341 0 
L 2766 0 
L 2766 531 
Q 2569 213 2275 61 
Q 1981 -91 1556 -91 
Q 1019 -91 701 211 
Q 384 513 384 1019 
Q 384 1609 779 1909 
Q 1175 2209 1959 2209 
L 2766 2209 
L 2766 2266 
Q 2766 2663 2505 2880 
Q 2244 3097 1772 3097 
Q 1472 3097 1187 3025 
Q 903 2953 641 2809 
L 641 3341 
Q 956 3463 1253 3523 
Q 1550 3584 1831 3584 
Q 2591 3584 2966 3190 
Q 3341 2797 3341 1997 
z
" transform="scale(0.015625)"/>
      <path id="DejaVuSans-6e" d="M 3513 2113 
L 3513 0 
L 2938 0 
L 2938 2094 
Q 2938 2591 2744 2837 
Q 2550 3084 2163 3084 
Q 1697 3084 1428 2787 
Q 1159 2491 1159 1978 
L 1159 0 
L 581 0 
L 581 3500 
L 1159 3500 
L 1159 2956 
Q 1366 3272 1645 3428 
Q 1925 3584 2291 3584 
Q 2894 3584 3203 3211 
Q 3513 2838 3513 2113 
z
" transform="scale(0.015625)"/>
      <path id="DejaVuSans-50" d="M 1259 4147 
L 1259 2394 
L 2053 2394 
Q 2494 2394 2734 2622 
Q 2975 2850 2975 3272 
Q 2975 3691 2734 3919 
Q 2494 4147 2053 4147 
L 1259 4147 
z
M 628 4666 
L 2053 4666 
Q 2838 4666 3239 4311 
Q 3641 3956 3641 3272 
Q 3641 2581 3239 2228 
Q 2838 1875 2053 1875 
L 1259 1875 
L 1259 0 
L 628 0 
L 628 4666 
z
" transform="scale(0.015625)"/>
     </defs>
     <use xlink:href="#DejaVuSans-54"/>
     <use xlink:href="#DejaVuSans-69" x="57.958984"/>
     <use xlink:href="#DejaVuSans-6d" x="85.742188"/>
     <use xlink:href="#DejaVuSans-65" x="183.154297"/>
     <use xlink:href="#DejaVuSans-20" x="244.677734"/>
     <use xlink:href="#DejaVuSans-44" x="276.464844"/>
     <use xlink:href="#DejaVuSans-6f" x="353.466797"/>
     <use xlink:href="#DejaVuSans-6d" x="414.648438"/>
     <use xlink:href="#DejaVuSans-61" x="512.060547"/>
     <use xlink:href="#DejaVuSans-69" x="573.339844"/>
     <use xlink:href="#DejaVuSans-6e" x="601.123047"/>
     <use xlink:href="#DejaVuSans-20" x="664.501953"/>
     <use xlink:href="#DejaVuSans-50" x="696.289062"/>
     <use xlink:href="#DejaVuSans-6c" x="756.591797"/>
     <use xlink:href="#DejaVuSans-6f" x="784.375"/>
     <use xlink:href="#DejaVuSans-74" x="845.556641"/>
    </g>
   </g>
   <g id="patch_7">
    <path d="M 140.439585 59.48805 
L 169.475397 59.48805 
L 169.475397 54.136274 
L 140.439585 54.136274 
L 140.439585 59.48805 
z
" clip-path="url(#p013721c484)" style="fill: none; opacity: 0.8; stroke: #000000; stroke-width: 1.2; stroke-linejoin: miter"/>
   </g>
   <g id="patch_8">
    <path d="M 100.904986 67.776 
Q 120.672285 60.956137 140.439585 54.136274 
" style="fill: none; opacity: 0.8; stroke: #000000; stroke-linecap: round"/>
   </g>
   <g id="patch_9">
    <path d="M 183.674957 67.776 
Q 176.575177 60.956137 169.475397 54.136274 
" style="fill: none; opacity: 0.8; stroke: #000000; stroke-linecap: round"/>
   </g>
   <g id="axes_2">
    <g id="patch_10">
     <path d="M 100.904986 108.672 
L 183.674957 108.672 
L 183.674957 67.776 
L 100.904986 67.776 
z
" style="fill: #ffffff"/>
    </g>
    <g id="matplotlib.axis_3">
     <g id="xtick_4">
      <g id="line2d_11">
       <g>
        <use xlink:href="#m67f1453e04" x="101.049112" y="108.672" style="stroke: #000000; stroke-width: 0.8"/>
       </g>
      </g>
      <g id="text_11">
       <!-- 1.3 -->
       <g transform="translate(93.09755 123.270437) scale(0.1 -0.1)">
        <defs>
         <path id="DejaVuSans-33" d="M 2597 2516 
Q 3050 2419 3304 2112 
Q 3559 1806 3559 1356 
Q 3559 666 3084 287 
Q 2609 -91 1734 -91 
Q 1441 -91 1130 -33 
Q 819 25 488 141 
L 488 750 
Q 750 597 1062 519 
Q 1375 441 1716 441 
Q 2309 441 2620 675 
Q 2931 909 2931 1356 
Q 2931 1769 2642 2001 
Q 2353 2234 1838 2234 
L 1294 2234 
L 1294 2753 
L 1863 2753 
Q 2328 2753 2575 2939 
Q 2822 3125 2822 3475 
Q 2822 3834 2567 4026 
Q 2313 4219 1838 4219 
Q 1578 4219 1281 4162 
Q 984 4106 628 3988 
L 628 4550 
Q 988 4650 1302 4700 
Q 1616 4750 1894 4750 
Q 2613 4750 3031 4423 
Q 3450 4097 3450 3541 
Q 3450 3153 3228 2886 
Q 3006 2619 2597 2516 
z
" transform="scale(0.015625)"/>
        </defs>
        <use xlink:href="#DejaVuSans-31"/>
        <use xlink:href="#DejaVuSans-2e" x="63.623047"/>
        <use xlink:href="#DejaVuSans-33" x="95.410156"/>
       </g>
      </g>
     </g>
     <g id="xtick_5">
      <g id="line2d_12">
       <g>
        <use xlink:href="#m67f1453e04" x="183.386703" y="108.672" style="stroke: #000000; stroke-width: 0.8"/>
       </g>
      </g>
      <g id="text_12">
       <!-- 1.4 -->
       <g transform="translate(175.435141 123.270437) scale(0.1 -0.1)">
        <use xlink:href="#DejaVuSans-31"/>
        <use xlink:href="#DejaVuSans-2e" x="63.623047"/>
        <use xlink:href="#DejaVuSans-34" x="95.410156"/>
       </g>
      </g>
     </g>
    </g>
    <g id="matplotlib.axis_4">
     <g id="ytick_5">
      <g id="line2d_13">
       <g>
        <use xlink:href="#m5a0b55ad03" x="100.904986" y="92.124114" style="stroke: #000000; stroke-width: 0.8"/>
       </g>
      </g>
      <g id="text_13">
       <!-- 0 -->
       <g transform="translate(87.542486 95.923333) scale(0.1 -0.1)">
        <use xlink:href="#DejaVuSans-30"/>
       </g>
      </g>
     </g>
     <g id="ytick_6">
      <g id="line2d_14">
       <g>
        <use xlink:href="#m5a0b55ad03" x="100.904986" y="70.511539" style="stroke: #000000; stroke-width: 0.8"/>
       </g>
      </g>
      <g id="text_14">
       <!-- 2 -->
       <g transform="translate(87.542486 74.310758) scale(0.1 -0.1)">
        <use xlink:href="#DejaVuSans-32"/>
       </g>
      </g>
     </g>
    </g>
    <g id="line2d_15">
     <path d="M 101.316776 82.895558 
L 102.140358 80.496731 
L 102.552149 79.874016 
L 102.96394 79.628886 
L 103.375731 79.009967 
L 103.787522 78.638053 
L 104.199313 78.879069 
L 104.611104 78.173959 
L 105.022895 77.176009 
L 105.846476 76.220248 
L 106.670058 75.615664 
L 107.081849 74.980453 
L 107.49364 74.818641 
L 107.905431 74.878931 
L 108.317222 75.656655 
L 109.140804 77.694648 
L 109.552595 78.453347 
L 110.376176 80.676028 
L 110.787967 82.669853 
L 111.199758 84.073472 
L 112.435131 86.1872 
L 112.846922 86.390417 
L 113.670504 87.810554 
L 114.905876 91.916037 
L 116.141249 94.472313 
L 116.55304 94.669616 
L 116.964831 95.016224 
L 117.376622 95.095722 
L 117.788413 95.045954 
L 118.611994 93.791387 
L 119.435576 93.759899 
L 120.259158 94.426658 
L 121.08274 95.945811 
L 121.906322 98.540201 
L 123.141694 101.443396 
L 123.553485 101.769307 
L 124.377067 102.810629 
L 124.788858 102.803727 
L 126.024231 100.826966 
L 126.436021 100.73714 
L 126.847812 100.042017 
L 127.671394 97.941589 
L 128.906767 95.664624 
L 129.730349 94.843156 
L 130.14214 93.666612 
L 130.965721 89.545032 
L 131.377512 88.509791 
L 132.612885 86.909053 
L 133.024676 86.729862 
L 133.436467 86.818869 
L 133.848258 86.714103 
L 134.671839 85.871054 
L 135.08363 84.999844 
L 135.495421 84.795385 
L 136.730794 82.186469 
L 137.966167 79.758567 
L 138.377958 78.914141 
L 138.789748 78.774947 
L 139.201539 78.214789 
L 140.025121 79.069861 
L 140.436912 80.016957 
L 140.848703 80.129801 
L 141.672285 80.820904 
L 143.319448 84.759281 
L 143.731239 86.116967 
L 144.554821 89.176882 
L 147.025567 99.257279 
L 147.437357 100.213611 
L 148.67273 104.199588 
L 149.084521 104.870032 
L 149.496312 105.200643 
L 149.908103 105.278684 
L 150.319894 104.745009 
L 150.731685 104.670885 
L 151.555266 103.403304 
L 152.378848 101.55388 
L 152.790639 102.125266 
L 153.20243 102.500845 
L 154.437803 104.622349 
L 154.849594 105.524212 
L 155.673175 105.667629 
L 156.496757 106.469465 
L 156.908548 106.490883 
L 157.73213 106.172391 
L 158.555712 106.510742 
L 158.967503 106.150691 
L 159.791084 104.979619 
L 160.202875 105.397558 
L 161.026457 105.429344 
L 161.438248 104.695316 
L 161.850039 104.62985 
L 162.26183 104.163836 
L 162.673621 103.257848 
L 163.085412 102.901126 
L 163.497203 102.133408 
L 164.732575 97.944408 
L 165.144366 97.177499 
L 165.967948 95.211193 
L 166.79153 93.491809 
L 168.438693 88.323231 
L 169.262275 85.942935 
L 169.674066 85.236295 
L 172.556602 78.711009 
L 172.968393 78.143728 
L 174.203766 75.829094 
L 175.439139 73.805121 
L 177.086302 69.982034 
L 177.498093 69.937258 
L 178.321675 71.426161 
L 179.968839 72.188506 
L 180.38063 72.181441 
L 180.79242 72.961963 
L 181.204211 74.292976 
L 182.439584 79.379633 
L 182.851375 80.502626 
L 183.263166 82.238913 
L 183.263166 82.238913 
" clip-path="url(#p6af07f0f80)" style="fill: none; stroke: #1e90ff; stroke-linecap: square"/>
    </g>
    <g id="line2d_16">
     <path d="M 101.316776 86.747347 
L 102.552149 85.95485 
L 103.375731 85.655804 
L 104.199313 85.544106 
L 105.022895 85.618541 
L 105.846476 85.874003 
L 106.670058 86.301648 
L 107.905431 87.237976 
L 109.140804 88.477981 
L 110.787967 90.483507 
L 116.141249 97.420809 
L 117.376622 98.544319 
L 118.200203 99.089215 
L 119.023785 99.443711 
L 119.847367 99.588739 
L 120.670949 99.509936 
L 121.494531 99.198575 
L 122.318112 98.652488 
L 123.141694 97.87685 
L 124.377067 96.313828 
L 125.61244 94.343851 
L 127.671394 90.487643 
L 130.14214 85.829314 
L 131.377512 83.898042 
L 132.612885 82.449067 
L 133.436467 81.813762 
L 134.260049 81.473308 
L 135.08363 81.441138 
L 135.907212 81.718543 
L 136.730794 82.294408 
L 137.554376 83.145531 
L 138.789748 84.860404 
L 140.436912 87.713535 
L 143.731239 93.656758 
L 144.966612 95.416532 
L 146.201985 96.724459 
L 147.025567 97.318908 
L 147.849148 97.690321 
L 148.67273 97.850877 
L 149.496312 97.823265 
L 150.731685 97.49999 
L 152.378848 96.754423 
L 154.437803 95.798234 
L 155.673175 95.432761 
L 156.908548 95.319752 
L 158.143921 95.479599 
L 159.379294 95.877941 
L 163.497203 97.558925 
L 164.320784 97.638792 
L 165.144366 97.533305 
L 165.967948 97.209442 
L 166.79153 96.643096 
L 167.615112 95.820813 
L 168.438693 94.74111 
L 169.674066 92.66723 
L 170.909439 90.13545 
L 173.380184 84.361878 
L 175.027348 80.69701 
L 176.262721 78.458233 
L 177.086302 77.339563 
L 177.909884 76.591202 
L 178.733466 76.262833 
L 179.145257 76.268218 
L 179.557048 76.391293 
L 180.38063 76.998575 
L 181.204211 78.090447 
L 182.027793 79.65571 
L 182.851375 81.666121 
L 183.263166 82.824886 
L 183.263166 82.824886 
" clip-path="url(#p6af07f0f80)" style="fill: none; stroke: #ff0000; stroke-width: 0.8; stroke-linecap: square"/>
    </g>
    <g id="line2d_17">
     <path d="M 101.316776 69.655205 
L 101.842871 181 
M 104.531984 181 
L 104.611104 97.610698 
L 104.907386 -1 
M 107.260039 -1 
L 107.905431 61.448659 
L 108.447335 181 
M 111.124162 181 
L 111.199758 99.84597 
L 111.578495 -1 
M 113.452985 -1 
L 114.082294 44.939021 
L 114.494085 79.883932 
L 115.053702 181 
M 117.70847 181 
L 117.788413 111.919128 
L 118.180315 -1 
M 120.031882 -1 
L 120.670949 47.762482 
L 121.08274 84.286895 
L 121.588718 181 
M 124.310993 181 
L 124.377067 119.836098 
L 124.803703 -1 
M 126.539245 -1 
L 127.259603 51.102708 
L 127.671394 86.177441 
L 128.17722 181 
M 130.883947 181 
L 130.965721 103.515292 
L 131.439868 -1 
M 133.048532 -1 
L 133.848258 47.46442 
L 134.260049 76.608751 
L 134.914316 181 
M 137.448561 181 
L 137.554376 101.330286 
L 137.841145 -1 
M 140.214542 -1 
L 140.848703 65.691756 
L 141.344573 181 
M 144.075916 181 
L 144.14303 103.344224 
L 144.544723 -1 
M 146.223654 -1 
L 147.025567 55.803419 
L 147.437357 89.526555 
L 147.957047 181 
M 150.658629 181 
L 150.731685 118.63179 
L 151.143476 20.30683 
L 151.376337 -1 
M 152.465181 -1 
L 152.790639 13.128047 
L 153.614221 63.952191 
L 154.026012 94.037077 
L 154.571718 181 
M 157.246773 181 
L 157.320339 125.459202 
L 157.70907 -1 
M 159.58417 -1 
L 160.202875 51.701121 
L 160.614666 92.256368 
L 161.044203 181 
M 163.850984 181 
L 163.908993 119.887118 
L 164.277178 -1 
M 166.317111 -1 
L 166.79153 39.707364 
L 167.203321 78.885319 
L 167.692736 181 
M 170.423441 181 
L 170.497648 102.828096 
L 170.811661 -1 
M 173.107105 -1 
L 173.791975 63.269139 
L 174.33898 181 
M 176.999331 181 
L 177.086302 88.479721 
L 177.370772 -1 
M 179.725604 -1 
L 180.38063 59.400029 
L 180.954518 181 
L 180.954518 181 
" clip-path="url(#p6af07f0f80)" style="fill: none; stroke: #808080; stroke-width: 0.2; stroke-linecap: square"/>
    </g>
    <g id="patch_11">
     <path d="M 100.904986 108.672 
L 100.904986 67.776 
" style="fill: none; stroke: #000000; stroke-width: 0.8; stroke-linejoin: miter; stroke-linecap: square"/>
    </g>
    <g id="patch_12">
     <path d="M 183.674957 108.672 
L 183.674957 67.776 
" style="fill: none; stroke: #000000; stroke-width: 0.8; stroke-linejoin: miter; stroke-linecap: square"/>
    </g>
    <g id="patch_13">
     <path d="M 100.904986 108.672 
L 183.674957 108.672 
" style="fill: none; stroke: #000000; stroke-width: 0.8; stroke-linejoin: miter; stroke-linecap: square"/>
    </g>
    <g id="patch_14">
     <path d="M 100.904986 67.776 
L 183.674957 67.776 
" style="fill: none; stroke: #000000; stroke-width: 0.8; stroke-linejoin: miter; stroke-linecap: square"/>
    </g>
   </g>
   <g id="legend_1">
    <g id="patch_15">
     <path d="M 20.235014 158.292 
L 51.103139 158.292 
Q 51.703139 158.292 51.703139 157.692 
L 51.703139 144.781688 
Q 51.703139 144.181688 51.103139 144.181688 
L 20.235014 144.181688 
Q 19.635014 144.181688 19.635014 144.781688 
L 19.635014 157.692 
Q 19.635014 158.292 20.235014 158.292 
z
" style="fill: #ffffff; opacity: 0.8; stroke: #cccccc; stroke-linejoin: miter"/>
    </g>
    <g id="line2d_18">
     <path d="M 20.835014 146.611219 
L 23.835014 146.611219 
L 26.835014 146.611219 
" style="fill: none; stroke: #808080; stroke-width: 0.7; stroke-linecap: square"/>
    </g>
    <g id="text_15">
     <!-- Contaminated -->
     <g transform="translate(29.235014 147.661219) scale(0.03 -0.03)">
      <defs>
       <path id="DejaVuSans-43" d="M 4122 4306 
L 4122 3641 
Q 3803 3938 3442 4084 
Q 3081 4231 2675 4231 
Q 1875 4231 1450 3742 
Q 1025 3253 1025 2328 
Q 1025 1406 1450 917 
Q 1875 428 2675 428 
Q 3081 428 3442 575 
Q 3803 722 4122 1019 
L 4122 359 
Q 3791 134 3420 21 
Q 3050 -91 2638 -91 
Q 1578 -91 968 557 
Q 359 1206 359 2328 
Q 359 3453 968 4101 
Q 1578 4750 2638 4750 
Q 3056 4750 3426 4639 
Q 3797 4528 4122 4306 
z
" transform="scale(0.015625)"/>
      </defs>
      <use xlink:href="#DejaVuSans-43"/>
      <use xlink:href="#DejaVuSans-6f" x="69.824219"/>
      <use xlink:href="#DejaVuSans-6e" x="131.005859"/>
      <use xlink:href="#DejaVuSans-74" x="194.384766"/>
      <use xlink:href="#DejaVuSans-61" x="233.59375"/>
      <use xlink:href="#DejaVuSans-6d" x="294.873047"/>
      <use xlink:href="#DejaVuSans-69" x="392.285156"/>
      <use xlink:href="#DejaVuSans-6e" x="420.068359"/>
      <use xlink:href="#DejaVuSans-61" x="483.447266"/>
      <use xlink:href="#DejaVuSans-74" x="544.726562"/>
      <use xlink:href="#DejaVuSans-65" x="583.935547"/>
      <use xlink:href="#DejaVuSans-64" x="645.458984"/>
     </g>
    </g>
    <g id="line2d_19">
     <path d="M 20.835014 151.014656 
L 23.835014 151.014656 
L 26.835014 151.014656 
" style="fill: none; stroke: #1e90ff; stroke-linecap: square"/>
    </g>
    <g id="text_16">
     <!-- Clean -->
     <g transform="translate(29.235014 152.064656) scale(0.03 -0.03)">
      <use xlink:href="#DejaVuSans-43"/>
      <use xlink:href="#DejaVuSans-6c" x="69.824219"/>
      <use xlink:href="#DejaVuSans-65" x="97.607422"/>
      <use xlink:href="#DejaVuSans-61" x="159.130859"/>
      <use xlink:href="#DejaVuSans-6e" x="220.410156"/>
     </g>
    </g>
    <g id="line2d_20">
     <path d="M 20.835014 155.418094 
L 23.835014 155.418094 
L 26.835014 155.418094 
" style="fill: none; stroke: #ff0000; stroke-width: 0.8; stroke-linecap: square"/>
    </g>
    <g id="text_17">
     <!-- SACed -->
     <g transform="translate(29.235014 156.468094) scale(0.03 -0.03)">
      <defs>
       <path id="DejaVuSans-53" d="M 3425 4513 
L 3425 3897 
Q 3066 4069 2747 4153 
Q 2428 4238 2131 4238 
Q 1616 4238 1336 4038 
Q 1056 3838 1056 3469 
Q 1056 3159 1242 3001 
Q 1428 2844 1947 2747 
L 2328 2669 
Q 3034 2534 3370 2195 
Q 3706 1856 3706 1288 
Q 3706 609 3251 259 
Q 2797 -91 1919 -91 
Q 1588 -91 1214 -16 
Q 841 59 441 206 
L 441 856 
Q 825 641 1194 531 
Q 1563 422 1919 422 
Q 2459 422 2753 634 
Q 3047 847 3047 1241 
Q 3047 1584 2836 1778 
Q 2625 1972 2144 2069 
L 1759 2144 
Q 1053 2284 737 2584 
Q 422 2884 422 3419 
Q 422 4038 858 4394 
Q 1294 4750 2059 4750 
Q 2388 4750 2728 4690 
Q 3069 4631 3425 4513 
z
" transform="scale(0.015625)"/>
      </defs>
      <use xlink:href="#DejaVuSans-53"/>
      <use xlink:href="#DejaVuSans-41" x="65.351562"/>
      <use xlink:href="#DejaVuSans-43" x="132.009766"/>
      <use xlink:href="#DejaVuSans-65" x="201.833984"/>
      <use xlink:href="#DejaVuSans-64" x="263.357422"/>
     </g>
    </g>
   </g>
  </g>
 </g>
 <defs>
  <clipPath id="p013721c484">
   <rect x="59.52" y="26.88" width="137.949952" height="102.24"/>
  </clipPath>
  <clipPath id="p6af07f0f80">
   <rect x="100.904986" y="67.776" width="82.769971" height="40.896"/>
  </clipPath>
 </defs>
</svg>
