<?xml version="1.0" encoding="utf-8" standalone="no"?>
<!DOCTYPE svg PUBLIC "-//W3C//DTD SVG 1.1//EN"
  "http://www.w3.org/Graphics/SVG/1.1/DTD/svg11.dtd">
<svg xmlns:xlink="http://www.w3.org/1999/xlink" width="216pt" height="180pt" viewBox="0 0 216 180" xmlns="http://www.w3.org/2000/svg" version="1.1">
 <metadata>
  <rdf:RDF xmlns:dc="http://purl.org/dc/elements/1.1/" xmlns:cc="http://creativecommons.org/ns#" xmlns:rdf="http://www.w3.org/1999/02/22-rdf-syntax-ns#">
   <cc:Work>
    <dc:type rdf:resource="http://purl.org/dc/dcmitype/StillImage"/>
    <dc:date>2024-08-26T02:52:51.273866</dc:date>
    <dc:format>image/svg+xml</dc:format>
    <dc:creator>
     <cc:Agent>
      <dc:title>Matplotlib v3.9.1, https://matplotlib.org/</dc:title>
     </cc:Agent>
    </dc:creator>
   </cc:Work>
  </rdf:RDF>
 </metadata>
 <defs>
  <style type="text/css">*{stroke-linejoin: round; stroke-linecap: butt}</style>
 </defs>
 <g id="figure_1">
  <g id="patch_1">
   <path d="M 0 180 
L 216 180 
L 216 0 
L 0 0 
z
" style="fill: #ffffff"/>
  </g>
  <g id="axes_1">
   <g id="patch_2">
    <path d="M 59.52 129.12 
L 194.165487 129.12 
L 194.165487 25.44 
L 59.52 25.44 
z
" style="fill: #ffffff"/>
   </g>
   <g id="line2d_1">
    <path d="M 59.587289 72.535401 
L 59.856445 45.623606 
L 59.991024 46.242822 
L 60.26018 51.587551 
L 60.663915 68.208921 
L 61.336806 94.469495 
L 61.605962 97.287787 
L 62.009697 38.70769 
L 62.144275 39.531934 
L 62.413431 47.195168 
L 62.951744 77.340981 
L 63.490057 103.570117 
L 63.759213 107.55882 
L 64.02837 50.31225 
L 64.162948 42.096282 
L 64.297526 43.035557 
L 64.566682 49.847078 
L 65.104995 75.619247 
L 65.643308 99.058655 
L 65.912464 102.999651 
L 66.316199 42.909257 
L 66.450777 43.802187 
L 66.719934 51.466954 
L 67.258246 80.905705 
L 67.796559 107.628802 
L 68.065716 111.678766 
L 68.334872 53.715897 
L 68.46945 43.362639 
L 68.604028 44.537616 
L 68.873185 52.861199 
L 69.411498 84.272746 
L 69.94981 111.303914 
L 70.218967 114.750622 
L 70.488123 52.826372 
L 70.622701 41.832877 
L 70.75728 42.547437 
L 71.026436 50.109374 
L 71.430171 72.633152 
L 71.968483 103.938235 
L 72.23764 111.582428 
L 72.372218 112.418592 
L 72.641374 48.632088 
L 72.775953 36.970136 
L 72.910531 37.956169 
L 73.179687 46.432861 
L 73.583422 70.786029 
L 74.121735 104.925737 
L 74.390891 113.481258 
L 74.525469 114.544514 
L 74.794625 51.899592 
L 74.929204 44.32935 
L 75.063782 44.875573 
L 75.332938 50.259926 
L 75.736673 66.455463 
L 76.409564 92.80009 
L 76.67872 96.082428 
L 77.082455 36.253808 
L 77.217033 37.469718 
L 77.486189 46.032297 
L 77.889924 70.3159 
L 78.562815 110.212332 
L 78.831971 115.36884 
L 79.101128 50.462506 
L 79.235706 39.387706 
L 79.370284 40.679418 
L 79.639441 49.624537 
L 80.177753 83.808898 
L 80.716066 114.23543 
L 80.985223 118.754087 
L 81.254379 51.391381 
L 81.388957 39.215986 
L 81.523535 40.459029 
L 81.792692 49.720394 
L 82.331005 86.22284 
L 82.869317 118.124497 
L 83.138474 122.499385 
L 83.40763 56.120906 
L 83.542208 47.779393 
L 83.676787 48.552472 
L 83.945943 54.944959 
L 84.484256 79.115742 
L 85.022569 100.359576 
L 85.291725 103.350858 
L 85.69546 39.678759 
L 85.830038 40.965202 
L 86.099194 49.553093 
L 86.502929 73.360396 
L 87.17582 111.53577 
L 87.444976 115.697782 
L 87.714133 49.334525 
L 87.848711 37.693538 
L 87.983289 38.858927 
L 88.252445 47.729337 
L 88.790758 81.367281 
L 89.329071 110.632424 
L 89.598227 114.422685 
L 89.867384 47.405821 
L 90.001962 36.485901 
L 90.13654 37.433694 
L 90.405696 45.683219 
L 90.944009 78.135052 
L 91.482322 107.06494 
L 91.751478 111.83379 
L 92.020635 49.232985 
L 92.155213 38.271463 
L 92.289791 39.397662 
L 92.558948 47.567092 
L 92.962682 71.093071 
L 93.635573 108.537113 
L 93.90473 113.072327 
L 94.173886 53.747037 
L 94.308464 46.376146 
L 94.443042 47.322756 
L 94.712199 53.720422 
L 95.250512 77.422992 
L 95.788824 98.179166 
L 96.057981 101.079615 
L 96.461715 41.966662 
L 96.596294 43.212319 
L 96.86545 51.833091 
L 97.403763 83.8476 
L 97.942076 111.941671 
L 98.211232 116.217664 
L 98.480388 55.307397 
L 98.614967 45.421719 
L 98.749545 46.256113 
L 99.018701 53.261431 
L 99.557014 81.338526 
L 100.095327 105.832833 
L 100.364483 109.404226 
L 100.63364 54.714114 
L 100.768218 46.754936 
L 100.902796 47.234927 
L 101.171952 52.448908 
L 101.575687 68.375673 
L 102.114 90.748507 
L 102.383156 96.484497 
L 102.517734 97.200838 
L 102.921469 41.456203 
L 103.056047 42.155819 
L 103.325204 48.972019 
L 103.863516 75.253808 
L 104.401829 98.236679 
L 104.670985 101.635 
L 105.07472 32.799609 
L 105.209298 33.878638 
L 105.478455 43.180159 
L 105.882189 69.884996 
L 106.55508 112.1322 
L 106.824237 116.958102 
L 107.093393 47.903169 
L 107.227971 37.692483 
L 107.362549 38.726283 
L 107.631706 46.870075 
L 108.170019 77.965182 
L 108.708331 105.122464 
L 108.977488 109.441339 
L 109.246644 52.334066 
L 109.381222 43.844836 
L 109.515801 44.943707 
L 109.784957 52.051705 
L 110.32327 78.808772 
L 110.861583 101.955562 
L 111.130739 105.386883 
L 111.399895 53.386751 
L 111.534474 43.888008 
L 111.669052 44.672523 
L 111.938208 52.103129 
L 112.341943 72.97308 
L 112.880256 101.717983 
L 113.149412 108.839141 
L 113.28399 109.695569 
L 113.687725 39.179448 
L 113.822303 40.277254 
L 114.091459 48.861845 
L 114.629772 82.490833 
L 115.168085 111.845786 
L 115.437241 115.902076 
L 115.706398 49.684303 
L 115.840976 39.217156 
L 115.975554 40.030627 
L 116.244711 47.355073 
L 116.783023 77.315628 
L 117.321336 102.983925 
L 117.590493 106.99665 
L 117.859649 47.644656 
L 117.994227 37.190437 
L 118.128805 38.109131 
L 118.397962 45.851127 
L 118.936274 76.390056 
L 119.474587 103.810618 
L 119.743744 108.115044 
L 120.0129 47.311111 
L 120.147478 36.382573 
L 120.282056 37.651923 
L 120.551213 46.537879 
L 121.089526 79.637883 
L 121.627838 109.213388 
L 121.896995 113.714365 
L 122.166151 51.631849 
L 122.300729 43.169955 
L 122.435308 44.035792 
L 122.704464 50.612577 
L 123.242777 76.791401 
L 123.78109 99.479412 
L 124.050246 103.145407 
L 124.453981 37.59787 
L 124.588559 38.772292 
L 124.857715 47.653047 
L 125.26145 73.088334 
L 125.934341 113.719351 
L 126.203497 118.067441 
L 126.472654 51.399779 
L 126.607232 40.953994 
L 126.74181 41.915946 
L 127.010966 49.940885 
L 127.414701 72.333142 
L 128.087592 108.113424 
L 128.356748 112.043729 
L 128.625905 49.328983 
L 128.760483 38.220614 
L 128.895061 39.219457 
L 129.164218 47.382629 
L 129.567952 70.082 
L 130.240843 107.628386 
L 130.51 111.711707 
L 130.779156 51.212262 
L 130.913734 42.813819 
L 131.048312 43.692697 
L 131.317469 50.07182 
L 131.721203 68.283071 
L 132.394094 97.0229 
L 132.663251 99.919238 
L 132.932407 50.571767 
L 133.066985 42.360626 
L 133.201563 43.089868 
L 133.47072 49.341409 
L 134.009033 74.127733 
L 134.547345 95.742859 
L 134.816502 98.936597 
L 135.085658 51.95357 
L 135.220236 44.129111 
L 135.354815 44.952841 
L 135.623971 50.962516 
L 136.027706 68.387519 
L 136.566018 92.431205 
L 136.835175 98.862219 
L 136.969753 99.896746 
L 137.373488 42.79329 
L 137.508066 43.925259 
L 137.777222 51.311379 
L 138.315535 79.639367 
L 138.853848 104.326935 
L 139.123004 107.915495 
L 139.526739 38.636305 
L 139.661317 39.820804 
L 139.930473 48.577857 
L 140.334208 73.508119 
L 140.872521 108.134465 
L 141.141677 117.283974 
L 141.276255 118.47908 
L 141.545412 53.738883 
L 141.67999 44.793715 
L 141.814568 45.519833 
L 142.083725 51.641806 
L 142.487459 69.59581 
L 143.16035 99.278134 
L 143.429507 102.846844 
L 143.833241 36.476602 
L 143.967819 37.280522 
L 144.236976 45.268648 
L 144.775289 77.822127 
L 145.313601 106.780241 
L 145.582758 111.074825 
L 145.851914 46.602293 
L 145.986492 35.936845 
L 146.121071 36.752002 
L 146.390227 44.384556 
L 146.793962 66.707276 
L 147.466852 103.366409 
L 147.736009 107.769553 
L 148.139743 33.123144 
L 148.274322 34.329241 
L 148.543478 43.705206 
L 148.947213 69.271126 
L 149.620104 110.489034 
L 149.88926 115.225787 
L 150.158416 47.158998 
L 150.292995 36.560669 
L 150.427573 37.998712 
L 150.696729 46.740669 
L 151.235042 79.810067 
L 151.773355 108.273902 
L 152.042511 112.705468 
L 152.311668 50.518369 
L 152.446246 40.509793 
L 152.580824 41.568045 
L 152.84998 49.259878 
L 153.388293 79.188565 
L 153.926606 106.145298 
L 154.195762 110.292733 
L 154.464919 51.227932 
L 154.599497 40.782395 
L 154.734075 41.877839 
L 155.003232 49.780773 
L 155.541544 80.438532 
L 156.079857 107.366554 
L 156.349014 111.046075 
L 156.61817 53.333296 
L 156.752748 45.161737 
L 156.887326 46.007604 
L 157.156483 51.910337 
L 157.560217 68.397651 
L 158.09853 91.359632 
L 158.367687 97.046817 
L 158.502265 97.542792 
L 158.771421 49.784174 
L 158.905999 41.324097 
L 159.040578 41.743857 
L 159.309734 47.650425 
L 159.713469 64.862279 
L 160.251781 89.026037 
L 160.520938 94.909534 
L 160.655516 95.757842 
L 161.059251 30.152727 
L 161.193829 31.230295 
L 161.462985 40.546432 
L 161.86672 67.423738 
L 162.405032 104.615225 
L 162.674189 114.326908 
L 162.808767 115.825457 
L 163.077923 45.979296 
L 163.212502 35.677585 
L 163.34708 36.733589 
L 163.616236 44.584986 
L 164.019971 66.939737 
L 164.692862 103.611743 
L 164.962018 107.811073 
L 165.231175 47.127107 
L 165.365753 36.189247 
L 165.500331 37.433518 
L 165.769487 46.228467 
L 166.173222 70.216846 
L 166.846113 108.767288 
L 167.115269 113.52997 
L 167.384426 49.558892 
L 167.519004 38.527049 
L 167.653582 39.94797 
L 167.922739 48.68902 
L 168.326473 73.7788 
L 168.864786 108.158323 
L 169.133942 116.645658 
L 169.268521 117.671031 
L 169.537677 52.858158 
L 169.672255 42.634715 
L 169.806833 43.71381 
L 170.07599 51.582846 
L 170.614303 81.670073 
L 171.152615 107.387163 
L 171.421772 110.801046 
L 171.825506 34.847797 
L 171.960085 35.832476 
L 172.229241 44.955246 
L 172.632976 71.325745 
L 173.171288 108.198382 
L 173.440445 117.58548 
L 173.575023 118.861773 
L 173.844179 49.812753 
L 173.978758 40.553984 
L 174.113336 41.395332 
L 174.382492 48.504566 
L 174.786227 68.832876 
L 175.459118 101.417368 
L 175.728274 105.077731 
L 175.997431 51.523996 
L 176.132009 42.17169 
L 176.266587 43.152065 
L 176.535743 50.487144 
L 177.074056 79.121991 
L 177.612369 104.534775 
L 177.881525 108.557359 
L 178.150682 55.437305 
L 178.28526 47.135825 
L 178.419838 47.838139 
L 178.688994 53.999946 
L 179.092729 71.553441 
L 179.76562 101.027738 
L 180.034776 104.757567 
L 180.438511 39.34713 
L 180.573089 40.445594 
L 180.842246 49.585737 
L 181.24598 76.48634 
L 181.784293 113.669361 
L 182.053449 123.032586 
L 182.188028 124.407273 
L 182.457184 58.202532 
L 182.591762 49.798553 
L 182.72634 50.514439 
L 182.995497 56.636752 
L 183.399231 74.408999 
L 183.937544 98.936306 
L 184.206701 105.067778 
L 184.341279 105.861056 
L 184.610435 56.541492 
L 184.745013 47.887405 
L 184.879592 48.597474 
L 185.148748 54.860269 
L 185.687061 79.349641 
L 186.225374 100.285001 
L 186.49453 102.899828 
L 186.763686 53.095163 
L 186.898265 44.750346 
L 187.032843 45.145185 
L 187.301999 50.780365 
L 187.705734 66.889559 
L 188.378625 94.157438 
L 188.647781 97.539235 
L 189.051516 32.859855 
L 189.186094 34.101645 
L 189.45525 43.726872 
L 189.993563 81.366787 
L 190.531876 115.150474 
L 190.801032 120.738445 
L 191.070189 53.308868 
L 191.204767 45.190821 
L 191.339345 45.935811 
L 191.608501 52.082124 
L 192.012236 69.639721 
L 192.550549 93.834801 
L 192.819705 99.71517 
L 192.954283 100.573731 
L 193.22344 52.546288 
L 193.358018 43.975447 
L 193.492596 44.982141 
L 193.761753 51.784659 
L 194.030909 63.71703 
L 194.030909 63.71703 
" clip-path="url(#pe93d130e8b)" style="fill: none; stroke: #808080; stroke-width: 0.9; stroke-linecap: square"/>
   </g>
   <g id="matplotlib.axis_1">
    <g id="xtick_1">
     <g id="line2d_2">
      <defs>
       <path id="m5c70263833" d="M 0 0 
L 0 3.5 
" style="stroke: #000000; stroke-width: 0.8"/>
      </defs>
      <g>
       <use xlink:href="#m5c70263833" x="59.52" y="129.12" style="stroke: #000000; stroke-width: 0.8"/>
      </g>
     </g>
     <g id="text_1">
      <!-- 1.00 -->
      <g transform="translate(48.387187 143.718437) scale(0.1 -0.1)">
       <defs>
        <path id="DejaVuSans-31" d="M 794 531 
L 1825 531 
L 1825 4091 
L 703 3866 
L 703 4441 
L 1819 4666 
L 2450 4666 
L 2450 531 
L 3481 531 
L 3481 0 
L 794 0 
L 794 531 
z
" transform="scale(0.015625)"/>
        <path id="DejaVuSans-2e" d="M 684 794 
L 1344 794 
L 1344 0 
L 684 0 
L 684 794 
z
" transform="scale(0.015625)"/>
        <path id="DejaVuSans-30" d="M 2034 4250 
Q 1547 4250 1301 3770 
Q 1056 3291 1056 2328 
Q 1056 1369 1301 889 
Q 1547 409 2034 409 
Q 2525 409 2770 889 
Q 3016 1369 3016 2328 
Q 3016 3291 2770 3770 
Q 2525 4250 2034 4250 
z
M 2034 4750 
Q 2819 4750 3233 4129 
Q 3647 3509 3647 2328 
Q 3647 1150 3233 529 
Q 2819 -91 2034 -91 
Q 1250 -91 836 529 
Q 422 1150 422 2328 
Q 422 3509 836 4129 
Q 1250 4750 2034 4750 
z
" transform="scale(0.015625)"/>
       </defs>
       <use xlink:href="#DejaVuSans-31"/>
       <use xlink:href="#DejaVuSans-2e" x="63.623047"/>
       <use xlink:href="#DejaVuSans-30" x="95.410156"/>
       <use xlink:href="#DejaVuSans-30" x="159.033203"/>
      </g>
     </g>
    </g>
    <g id="xtick_2">
     <g id="line2d_3">
      <g>
       <use xlink:href="#m5c70263833" x="126.792277" y="129.12" style="stroke: #000000; stroke-width: 0.8"/>
      </g>
     </g>
     <g id="text_2">
      <!-- 1.25 -->
      <g transform="translate(115.659464 143.718437) scale(0.1 -0.1)">
       <defs>
        <path id="DejaVuSans-32" d="M 1228 531 
L 3431 531 
L 3431 0 
L 469 0 
L 469 531 
Q 828 903 1448 1529 
Q 2069 2156 2228 2338 
Q 2531 2678 2651 2914 
Q 2772 3150 2772 3378 
Q 2772 3750 2511 3984 
Q 2250 4219 1831 4219 
Q 1534 4219 1204 4116 
Q 875 4013 500 3803 
L 500 4441 
Q 881 4594 1212 4672 
Q 1544 4750 1819 4750 
Q 2544 4750 2975 4387 
Q 3406 4025 3406 3419 
Q 3406 3131 3298 2873 
Q 3191 2616 2906 2266 
Q 2828 2175 2409 1742 
Q 1991 1309 1228 531 
z
" transform="scale(0.015625)"/>
        <path id="DejaVuSans-35" d="M 691 4666 
L 3169 4666 
L 3169 4134 
L 1269 4134 
L 1269 2991 
Q 1406 3038 1543 3061 
Q 1681 3084 1819 3084 
Q 2600 3084 3056 2656 
Q 3513 2228 3513 1497 
Q 3513 744 3044 326 
Q 2575 -91 1722 -91 
Q 1428 -91 1123 -41 
Q 819 9 494 109 
L 494 744 
Q 775 591 1075 516 
Q 1375 441 1709 441 
Q 2250 441 2565 725 
Q 2881 1009 2881 1497 
Q 2881 1984 2565 2268 
Q 2250 2553 1709 2553 
Q 1456 2553 1204 2497 
Q 953 2441 691 2322 
L 691 4666 
z
" transform="scale(0.015625)"/>
       </defs>
       <use xlink:href="#DejaVuSans-31"/>
       <use xlink:href="#DejaVuSans-2e" x="63.623047"/>
       <use xlink:href="#DejaVuSans-32" x="95.410156"/>
       <use xlink:href="#DejaVuSans-35" x="159.033203"/>
      </g>
     </g>
    </g>
    <g id="xtick_3">
     <g id="line2d_4">
      <g>
       <use xlink:href="#m5c70263833" x="194.064554" y="129.12" style="stroke: #000000; stroke-width: 0.8"/>
      </g>
     </g>
     <g id="text_3">
      <!-- 1.50 -->
      <g transform="translate(182.931741 143.718437) scale(0.1 -0.1)">
       <use xlink:href="#DejaVuSans-31"/>
       <use xlink:href="#DejaVuSans-2e" x="63.623047"/>
       <use xlink:href="#DejaVuSans-35" x="95.410156"/>
       <use xlink:href="#DejaVuSans-30" x="159.033203"/>
      </g>
     </g>
    </g>
    <g id="text_4">
     <!-- Time (s) -->
     <g transform="translate(106.513837 157.396563) scale(0.1 -0.1)">
      <defs>
       <path id="DejaVuSans-54" d="M -19 4666 
L 3928 4666 
L 3928 4134 
L 2272 4134 
L 2272 0 
L 1638 0 
L 1638 4134 
L -19 4134 
L -19 4666 
z
" transform="scale(0.015625)"/>
       <path id="DejaVuSans-69" d="M 603 3500 
L 1178 3500 
L 1178 0 
L 603 0 
L 603 3500 
z
M 603 4863 
L 1178 4863 
L 1178 4134 
L 603 4134 
L 603 4863 
z
" transform="scale(0.015625)"/>
       <path id="DejaVuSans-6d" d="M 3328 2828 
Q 3544 3216 3844 3400 
Q 4144 3584 4550 3584 
Q 5097 3584 5394 3201 
Q 5691 2819 5691 2113 
L 5691 0 
L 5113 0 
L 5113 2094 
Q 5113 2597 4934 2840 
Q 4756 3084 4391 3084 
Q 3944 3084 3684 2787 
Q 3425 2491 3425 1978 
L 3425 0 
L 2847 0 
L 2847 2094 
Q 2847 2600 2669 2842 
Q 2491 3084 2119 3084 
Q 1678 3084 1418 2786 
Q 1159 2488 1159 1978 
L 1159 0 
L 581 0 
L 581 3500 
L 1159 3500 
L 1159 2956 
Q 1356 3278 1631 3431 
Q 1906 3584 2284 3584 
Q 2666 3584 2933 3390 
Q 3200 3197 3328 2828 
z
" transform="scale(0.015625)"/>
       <path id="DejaVuSans-65" d="M 3597 1894 
L 3597 1613 
L 953 1613 
Q 991 1019 1311 708 
Q 1631 397 2203 397 
Q 2534 397 2845 478 
Q 3156 559 3463 722 
L 3463 178 
Q 3153 47 2828 -22 
Q 2503 -91 2169 -91 
Q 1331 -91 842 396 
Q 353 884 353 1716 
Q 353 2575 817 3079 
Q 1281 3584 2069 3584 
Q 2775 3584 3186 3129 
Q 3597 2675 3597 1894 
z
M 3022 2063 
Q 3016 2534 2758 2815 
Q 2500 3097 2075 3097 
Q 1594 3097 1305 2825 
Q 1016 2553 972 2059 
L 3022 2063 
z
" transform="scale(0.015625)"/>
       <path id="DejaVuSans-20" transform="scale(0.015625)"/>
       <path id="DejaVuSans-28" d="M 1984 4856 
Q 1566 4138 1362 3434 
Q 1159 2731 1159 2009 
Q 1159 1288 1364 580 
Q 1569 -128 1984 -844 
L 1484 -844 
Q 1016 -109 783 600 
Q 550 1309 550 2009 
Q 550 2706 781 3412 
Q 1013 4119 1484 4856 
L 1984 4856 
z
" transform="scale(0.015625)"/>
       <path id="DejaVuSans-73" d="M 2834 3397 
L 2834 2853 
Q 2591 2978 2328 3040 
Q 2066 3103 1784 3103 
Q 1356 3103 1142 2972 
Q 928 2841 928 2578 
Q 928 2378 1081 2264 
Q 1234 2150 1697 2047 
L 1894 2003 
Q 2506 1872 2764 1633 
Q 3022 1394 3022 966 
Q 3022 478 2636 193 
Q 2250 -91 1575 -91 
Q 1294 -91 989 -36 
Q 684 19 347 128 
L 347 722 
Q 666 556 975 473 
Q 1284 391 1588 391 
Q 1994 391 2212 530 
Q 2431 669 2431 922 
Q 2431 1156 2273 1281 
Q 2116 1406 1581 1522 
L 1381 1569 
Q 847 1681 609 1914 
Q 372 2147 372 2553 
Q 372 3047 722 3315 
Q 1072 3584 1716 3584 
Q 2034 3584 2315 3537 
Q 2597 3491 2834 3397 
z
" transform="scale(0.015625)"/>
       <path id="DejaVuSans-29" d="M 513 4856 
L 1013 4856 
Q 1481 4119 1714 3412 
Q 1947 2706 1947 2009 
Q 1947 1309 1714 600 
Q 1481 -109 1013 -844 
L 513 -844 
Q 928 -128 1133 580 
Q 1338 1288 1338 2009 
Q 1338 2731 1133 3434 
Q 928 4138 513 4856 
z
" transform="scale(0.015625)"/>
      </defs>
      <use xlink:href="#DejaVuSans-54"/>
      <use xlink:href="#DejaVuSans-69" x="57.958984"/>
      <use xlink:href="#DejaVuSans-6d" x="85.742188"/>
      <use xlink:href="#DejaVuSans-65" x="183.154297"/>
      <use xlink:href="#DejaVuSans-20" x="244.677734"/>
      <use xlink:href="#DejaVuSans-28" x="276.464844"/>
      <use xlink:href="#DejaVuSans-73" x="315.478516"/>
      <use xlink:href="#DejaVuSans-29" x="367.578125"/>
     </g>
    </g>
   </g>
   <g id="matplotlib.axis_2">
    <g id="ytick_1">
     <g id="line2d_5">
      <defs>
       <path id="m28ff59a0cb" d="M 0 0 
L -3.5 0 
" style="stroke: #000000; stroke-width: 0.8"/>
      </defs>
      <g>
       <use xlink:href="#m28ff59a0cb" x="59.52" y="127.864156" style="stroke: #000000; stroke-width: 0.8"/>
      </g>
     </g>
     <g id="text_5">
      <!-- −30 -->
      <g transform="translate(31.415312 131.663375) scale(0.1 -0.1)">
       <defs>
        <path id="DejaVuSans-2212" d="M 678 2272 
L 4684 2272 
L 4684 1741 
L 678 1741 
L 678 2272 
z
" transform="scale(0.015625)"/>
        <path id="DejaVuSans-33" d="M 2597 2516 
Q 3050 2419 3304 2112 
Q 3559 1806 3559 1356 
Q 3559 666 3084 287 
Q 2609 -91 1734 -91 
Q 1441 -91 1130 -33 
Q 819 25 488 141 
L 488 750 
Q 750 597 1062 519 
Q 1375 441 1716 441 
Q 2309 441 2620 675 
Q 2931 909 2931 1356 
Q 2931 1769 2642 2001 
Q 2353 2234 1838 2234 
L 1294 2234 
L 1294 2753 
L 1863 2753 
Q 2328 2753 2575 2939 
Q 2822 3125 2822 3475 
Q 2822 3834 2567 4026 
Q 2313 4219 1838 4219 
Q 1578 4219 1281 4162 
Q 984 4106 628 3988 
L 628 4550 
Q 988 4650 1302 4700 
Q 1616 4750 1894 4750 
Q 2613 4750 3031 4423 
Q 3450 4097 3450 3541 
Q 3450 3153 3228 2886 
Q 3006 2619 2597 2516 
z
" transform="scale(0.015625)"/>
       </defs>
       <use xlink:href="#DejaVuSans-2212"/>
       <use xlink:href="#DejaVuSans-33" x="83.789062"/>
       <use xlink:href="#DejaVuSans-30" x="147.412109"/>
      </g>
     </g>
    </g>
    <g id="ytick_2">
     <g id="line2d_6">
      <g>
       <use xlink:href="#m28ff59a0cb" x="59.52" y="106.166108" style="stroke: #000000; stroke-width: 0.8"/>
      </g>
     </g>
     <g id="text_6">
      <!-- −20 -->
      <g transform="translate(31.415312 109.965327) scale(0.1 -0.1)">
       <use xlink:href="#DejaVuSans-2212"/>
       <use xlink:href="#DejaVuSans-32" x="83.789062"/>
       <use xlink:href="#DejaVuSans-30" x="147.412109"/>
      </g>
     </g>
    </g>
    <g id="ytick_3">
     <g id="line2d_7">
      <g>
       <use xlink:href="#m28ff59a0cb" x="59.52" y="84.468061" style="stroke: #000000; stroke-width: 0.8"/>
      </g>
     </g>
     <g id="text_7">
      <!-- −10 -->
      <g transform="translate(31.415312 88.267279) scale(0.1 -0.1)">
       <use xlink:href="#DejaVuSans-2212"/>
       <use xlink:href="#DejaVuSans-31" x="83.789062"/>
       <use xlink:href="#DejaVuSans-30" x="147.412109"/>
      </g>
     </g>
    </g>
    <g id="ytick_4">
     <g id="line2d_8">
      <g>
       <use xlink:href="#m28ff59a0cb" x="59.52" y="62.770013" style="stroke: #000000; stroke-width: 0.8"/>
      </g>
     </g>
     <g id="text_8">
      <!-- 0 -->
      <g transform="translate(46.1575 66.569232) scale(0.1 -0.1)">
       <use xlink:href="#DejaVuSans-30"/>
      </g>
     </g>
    </g>
    <g id="ytick_5">
     <g id="line2d_9">
      <g>
       <use xlink:href="#m28ff59a0cb" x="59.52" y="41.071965" style="stroke: #000000; stroke-width: 0.8"/>
      </g>
     </g>
     <g id="text_9">
      <!-- 10 -->
      <g transform="translate(39.795 44.871184) scale(0.1 -0.1)">
       <use xlink:href="#DejaVuSans-31"/>
       <use xlink:href="#DejaVuSans-30" x="63.623047"/>
      </g>
     </g>
    </g>
    <g id="text_10">
     <!-- Amplitude (mV) -->
     <g transform="translate(25.335625 116.683906) rotate(-90) scale(0.1 -0.1)">
      <defs>
       <path id="DejaVuSans-41" d="M 2188 4044 
L 1331 1722 
L 3047 1722 
L 2188 4044 
z
M 1831 4666 
L 2547 4666 
L 4325 0 
L 3669 0 
L 3244 1197 
L 1141 1197 
L 716 0 
L 50 0 
L 1831 4666 
z
" transform="scale(0.015625)"/>
       <path id="DejaVuSans-70" d="M 1159 525 
L 1159 -1331 
L 581 -1331 
L 581 3500 
L 1159 3500 
L 1159 2969 
Q 1341 3281 1617 3432 
Q 1894 3584 2278 3584 
Q 2916 3584 3314 3078 
Q 3713 2572 3713 1747 
Q 3713 922 3314 415 
Q 2916 -91 2278 -91 
Q 1894 -91 1617 61 
Q 1341 213 1159 525 
z
M 3116 1747 
Q 3116 2381 2855 2742 
Q 2594 3103 2138 3103 
Q 1681 3103 1420 2742 
Q 1159 2381 1159 1747 
Q 1159 1113 1420 752 
Q 1681 391 2138 391 
Q 2594 391 2855 752 
Q 3116 1113 3116 1747 
z
" transform="scale(0.015625)"/>
       <path id="DejaVuSans-6c" d="M 603 4863 
L 1178 4863 
L 1178 0 
L 603 0 
L 603 4863 
z
" transform="scale(0.015625)"/>
       <path id="DejaVuSans-74" d="M 1172 4494 
L 1172 3500 
L 2356 3500 
L 2356 3053 
L 1172 3053 
L 1172 1153 
Q 1172 725 1289 603 
Q 1406 481 1766 481 
L 2356 481 
L 2356 0 
L 1766 0 
Q 1100 0 847 248 
Q 594 497 594 1153 
L 594 3053 
L 172 3053 
L 172 3500 
L 594 3500 
L 594 4494 
L 1172 4494 
z
" transform="scale(0.015625)"/>
       <path id="DejaVuSans-75" d="M 544 1381 
L 544 3500 
L 1119 3500 
L 1119 1403 
Q 1119 906 1312 657 
Q 1506 409 1894 409 
Q 2359 409 2629 706 
Q 2900 1003 2900 1516 
L 2900 3500 
L 3475 3500 
L 3475 0 
L 2900 0 
L 2900 538 
Q 2691 219 2414 64 
Q 2138 -91 1772 -91 
Q 1169 -91 856 284 
Q 544 659 544 1381 
z
M 1991 3584 
L 1991 3584 
z
" transform="scale(0.015625)"/>
       <path id="DejaVuSans-64" d="M 2906 2969 
L 2906 4863 
L 3481 4863 
L 3481 0 
L 2906 0 
L 2906 525 
Q 2725 213 2448 61 
Q 2172 -91 1784 -91 
Q 1150 -91 751 415 
Q 353 922 353 1747 
Q 353 2572 751 3078 
Q 1150 3584 1784 3584 
Q 2172 3584 2448 3432 
Q 2725 3281 2906 2969 
z
M 947 1747 
Q 947 1113 1208 752 
Q 1469 391 1925 391 
Q 2381 391 2643 752 
Q 2906 1113 2906 1747 
Q 2906 2381 2643 2742 
Q 2381 3103 1925 3103 
Q 1469 3103 1208 2742 
Q 947 2381 947 1747 
z
" transform="scale(0.015625)"/>
       <path id="DejaVuSans-56" d="M 1831 0 
L 50 4666 
L 709 4666 
L 2188 738 
L 3669 4666 
L 4325 4666 
L 2547 0 
L 1831 0 
z
" transform="scale(0.015625)"/>
      </defs>
      <use xlink:href="#DejaVuSans-41"/>
      <use xlink:href="#DejaVuSans-6d" x="68.408203"/>
      <use xlink:href="#DejaVuSans-70" x="165.820312"/>
      <use xlink:href="#DejaVuSans-6c" x="229.296875"/>
      <use xlink:href="#DejaVuSans-69" x="257.080078"/>
      <use xlink:href="#DejaVuSans-74" x="284.863281"/>
      <use xlink:href="#DejaVuSans-75" x="324.072266"/>
      <use xlink:href="#DejaVuSans-64" x="387.451172"/>
      <use xlink:href="#DejaVuSans-65" x="450.927734"/>
      <use xlink:href="#DejaVuSans-20" x="512.451172"/>
      <use xlink:href="#DejaVuSans-28" x="544.238281"/>
      <use xlink:href="#DejaVuSans-6d" x="583.251953"/>
      <use xlink:href="#DejaVuSans-56" x="680.664062"/>
      <use xlink:href="#DejaVuSans-29" x="749.072266"/>
     </g>
    </g>
   </g>
   <g id="line2d_10">
    <path d="M 59.587289 63.371702 
L 60.394758 62.062591 
L 60.663915 62.231635 
L 60.933071 62.079948 
L 61.471384 61.858426 
L 61.74054 61.685194 
L 61.875118 61.663056 
L 62.413431 61.229302 
L 62.682588 61.174622 
L 63.893791 60.491906 
L 64.297526 60.818859 
L 65.643308 63.961638 
L 66.047043 64.884099 
L 66.316199 64.919085 
L 66.450777 64.833116 
L 66.854512 65.043644 
L 67.258246 65.167429 
L 68.46945 66.78556 
L 69.276919 67.5262 
L 69.680654 67.414712 
L 69.94981 67.132564 
L 70.353545 66.180373 
L 71.295592 64.431848 
L 71.833905 64.332002 
L 72.23764 63.768237 
L 72.506796 63.248906 
L 72.775953 62.822614 
L 73.718 61.797024 
L 74.525469 61.259079 
L 74.794625 61.25183 
L 74.929204 61.280802 
L 75.467516 60.506043 
L 75.871251 60.618372 
L 76.005829 60.555217 
L 76.544142 60.997868 
L 76.813298 61.150744 
L 77.082455 61.334388 
L 77.351611 61.440158 
L 77.755346 61.494482 
L 78.15908 61.995152 
L 78.697393 63.275012 
L 79.370284 65.053841 
L 79.639441 65.314548 
L 80.44691 65.8537 
L 80.716066 66.130218 
L 80.985223 66.176716 
L 81.254379 66.356783 
L 81.792692 66.40479 
L 82.196426 66.790567 
L 82.465583 66.857105 
L 82.734739 67.10353 
L 83.542208 66.422761 
L 83.811365 66.347971 
L 84.080521 66.418301 
L 84.484256 65.784675 
L 85.560881 64.682991 
L 85.964616 65.074682 
L 86.233772 64.88838 
L 86.502929 64.661611 
L 87.041242 64.209845 
L 87.444976 63.890452 
L 87.848711 63.430284 
L 88.387024 63.465783 
L 88.65618 63.199122 
L 89.598227 61.375787 
L 90.001962 60.520763 
L 90.271118 60.351934 
L 91.078587 61.14109 
L 92.020635 62.63411 
L 92.289791 62.607625 
L 92.424369 62.643778 
L 92.693526 62.486046 
L 92.828104 62.478053 
L 92.962682 62.686743 
L 93.231839 62.652215 
L 94.039308 63.067976 
L 95.654246 65.600153 
L 96.327137 65.557428 
L 96.596294 65.894962 
L 96.86545 66.434089 
L 97.672919 67.090745 
L 97.807497 67.253803 
L 98.076654 67.152231 
L 98.34581 67.326464 
L 98.480388 67.335803 
L 98.749545 67.088606 
L 100.229905 64.539697 
L 100.63364 64.24981 
L 100.902796 63.750192 
L 101.441109 62.628014 
L 101.844843 62.034171 
L 101.979422 62.000616 
L 102.248578 61.657913 
L 102.786891 61.537732 
L 103.190625 61.187095 
L 103.59436 61.270216 
L 104.536407 60.563595 
L 104.805564 60.48197 
L 105.613033 60.026713 
L 106.016767 60.323697 
L 106.285924 60.284924 
L 106.824237 60.378685 
L 107.497128 60.61654 
L 108.03544 61.479884 
L 108.304597 61.722114 
L 108.573753 61.914621 
L 110.32327 64.811834 
L 110.727004 65.00514 
L 111.399895 65.2617 
L 111.534474 65.412013 
L 111.669052 65.239238 
L 112.072786 65.385069 
L 112.611099 65.670669 
L 112.880256 65.639157 
L 113.014834 65.659584 
L 113.28399 65.331697 
L 113.418568 65.312857 
L 113.822303 64.9874 
L 113.956881 64.95642 
L 115.168085 63.077991 
L 116.379289 61.291232 
L 116.513867 61.193594 
L 116.648445 61.250485 
L 117.455914 60.067438 
L 117.725071 60.257377 
L 117.859649 60.336169 
L 118.263383 60.02133 
L 118.397962 60.000445 
L 118.667118 60.130901 
L 119.070853 59.867064 
L 120.551213 61.93921 
L 120.685791 62.038218 
L 120.954947 61.833311 
L 121.224104 61.714033 
L 122.435308 62.276305 
L 122.569886 62.177268 
L 122.97362 62.85541 
L 123.242777 63.141304 
L 123.646511 63.280405 
L 124.050246 63.799317 
L 124.319402 63.726649 
L 124.453981 63.558127 
L 124.992293 63.704661 
L 125.665184 64.59965 
L 125.934341 64.763048 
L 126.472654 64.474634 
L 126.607232 64.652894 
L 126.876388 64.562844 
L 127.280123 64.342766 
L 127.683857 63.90506 
L 127.818436 63.892273 
L 128.760483 62.535684 
L 129.298796 62.167407 
L 129.567952 61.667095 
L 129.70253 61.66631 
L 129.971687 61.971739 
L 130.51 61.595078 
L 131.048312 61.937874 
L 131.855782 61.513953 
L 132.124938 61.258946 
L 132.259516 61.231481 
L 132.663251 60.563092 
L 132.932407 60.551579 
L 133.336142 60.347925 
L 133.605298 60.730126 
L 134.143611 61.45114 
L 134.278189 61.702347 
L 135.623971 61.804506 
L 136.027706 62.287209 
L 136.296862 62.719417 
L 136.566018 62.884604 
L 136.969753 63.565141 
L 138.315535 64.600584 
L 139.257582 64.56396 
L 139.661317 64.803574 
L 139.795895 64.862342 
L 140.19963 64.449651 
L 140.603364 64.438963 
L 140.872521 64.308846 
L 141.410834 64.7175 
L 141.67999 64.699949 
L 141.949146 64.24505 
L 142.891194 61.986761 
L 143.294928 61.737932 
L 143.429507 61.817416 
L 144.909867 59.867136 
L 145.582758 59.786623 
L 146.524805 58.591233 
L 146.793962 58.616813 
L 147.332274 59.014192 
L 147.736009 59.585202 
L 148.005165 59.752145 
L 148.4089 59.91782 
L 148.543478 60.106978 
L 149.216369 59.950326 
L 150.023838 60.377221 
L 150.292995 60.762481 
L 150.831307 61.924091 
L 151.100464 62.380013 
L 151.36962 62.566703 
L 151.773355 62.633705 
L 152.042511 62.822277 
L 152.311668 62.907962 
L 152.84998 63.072595 
L 153.388293 63.130661 
L 153.792028 63.633161 
L 154.195762 64.006197 
L 154.330341 64.10296 
L 154.599497 63.858514 
L 154.734075 63.927637 
L 154.868653 63.86892 
L 155.13781 63.995848 
L 155.272388 63.851718 
L 155.676123 63.896347 
L 156.214435 63.761495 
L 156.483592 63.420731 
L 156.752748 63.208274 
L 156.887326 63.251511 
L 157.156483 63.01038 
L 158.09853 61.109785 
L 158.502265 60.34645 
L 158.771421 59.798045 
L 159.175156 58.933255 
L 159.713469 58.580726 
L 160.117203 58.669131 
L 160.38636 58.471243 
L 160.520938 58.305766 
L 160.790094 58.34873 
L 161.059251 58.107257 
L 161.462985 57.74067 
L 161.732142 57.66199 
L 162.135876 57.888256 
L 162.405032 57.757471 
L 162.674189 57.952154 
L 163.077923 58.693942 
L 164.019971 58.964027 
L 164.423705 59.596765 
L 164.82744 60.272124 
L 165.096596 60.394763 
L 165.365753 60.706943 
L 166.846113 62.531396 
L 167.922739 64.227162 
L 168.057317 64.363655 
L 168.59563 65.582743 
L 168.864786 65.813763 
L 168.999364 65.852063 
L 169.403099 65.505141 
L 170.345146 65.642315 
L 170.614303 65.237935 
L 171.55635 63.271042 
L 171.690928 63.133735 
L 172.094663 62.321367 
L 172.767554 61.579754 
L 173.03671 61.494189 
L 173.305867 61.187717 
L 173.575023 61.249406 
L 174.113336 60.871429 
L 174.247914 60.875393 
L 174.651649 61.408985 
L 175.189961 62.578336 
L 175.459118 62.97946 
L 175.728274 63.066397 
L 175.997431 63.110896 
L 176.535743 63.404967 
L 178.28526 65.663832 
L 178.958151 65.113532 
L 179.227307 65.191923 
L 179.76562 66.0873 
L 180.034776 66.568849 
L 180.438511 66.549849 
L 180.842246 66.317553 
L 181.111402 66.74944 
L 181.649715 67.887857 
L 181.918871 68.161638 
L 182.053449 68.173976 
L 182.457184 68.530782 
L 182.72634 68.402361 
L 183.53381 67.823367 
L 183.802966 67.459247 
L 183.937544 67.55671 
L 185.148748 66.587467 
L 185.552483 66.121019 
L 186.629108 63.215254 
L 187.436577 61.36442 
L 187.840312 60.691982 
L 188.109468 60.676616 
L 188.244047 60.632167 
L 188.647781 61.043186 
L 189.320672 60.797522 
L 190.26272 61.730037 
L 190.397298 61.964074 
L 190.801032 63.136646 
L 191.070189 63.336512 
L 191.339345 63.303102 
L 191.608501 63.261588 
L 192.146814 63.451731 
L 192.281392 63.59588 
L 192.550549 63.368512 
L 192.819705 63.061056 
L 193.22344 63.120715 
L 193.358018 63.142183 
L 194.030909 63.950469 
L 194.030909 63.950469 
" clip-path="url(#pe93d130e8b)" style="fill: none; stroke: #1e90ff; stroke-linecap: square"/>
   </g>
   <g id="patch_3">
    <path d="M 59.52 129.12 
L 59.52 25.44 
" style="fill: none; stroke: #000000; stroke-width: 0.8; stroke-linejoin: miter; stroke-linecap: square"/>
   </g>
   <g id="patch_4">
    <path d="M 194.165487 129.12 
L 194.165487 25.44 
" style="fill: none; stroke: #000000; stroke-width: 0.8; stroke-linejoin: miter; stroke-linecap: square"/>
   </g>
   <g id="patch_5">
    <path d="M 59.52 129.12 
L 194.165487 129.12 
" style="fill: none; stroke: #000000; stroke-width: 0.8; stroke-linejoin: miter; stroke-linecap: square"/>
   </g>
   <g id="patch_6">
    <path d="M 59.52 25.44 
L 194.165487 25.44 
" style="fill: none; stroke: #000000; stroke-width: 0.8; stroke-linejoin: miter; stroke-linecap: square"/>
   </g>
   <g id="line2d_11">
    <path d="M 59.587289 63.369192 
L 60.394758 62.101823 
L 60.798493 62.163668 
L 61.875118 61.672737 
L 62.278853 61.260059 
L 63.086322 61.039107 
L 63.2209 60.948593 
L 63.624635 60.397438 
L 63.893791 60.487408 
L 64.566682 61.395528 
L 65.374152 63.019741 
L 66.047043 64.89226 
L 66.316199 64.994827 
L 66.585355 64.985658 
L 66.854512 65.026873 
L 67.123668 65.045468 
L 67.392825 65.341263 
L 67.931137 66.193997 
L 68.200294 66.478041 
L 69.007763 67.397344 
L 69.411498 67.497475 
L 69.815232 67.2547 
L 70.488123 65.918937 
L 71.161014 64.519094 
L 71.564749 64.295515 
L 71.968483 64.096182 
L 72.775953 62.843459 
L 73.045109 62.659231 
L 73.448844 61.896666 
L 75.063782 61.057666 
L 75.467516 60.525576 
L 76.140407 60.633152 
L 76.409564 60.847423 
L 76.813298 61.233378 
L 77.082455 61.309548 
L 77.351611 61.453973 
L 77.755346 61.47585 
L 78.15908 62.138464 
L 79.504862 65.230885 
L 80.177753 65.652362 
L 81.119801 66.347683 
L 81.92727 66.505657 
L 82.869317 67.028067 
L 83.40763 66.444278 
L 84.080521 66.347101 
L 84.753412 65.389391 
L 85.560881 64.762285 
L 85.964616 65.113775 
L 86.233772 64.849742 
L 86.906663 64.239638 
L 87.983289 63.613793 
L 88.252445 63.637722 
L 88.521602 63.379267 
L 89.463649 61.566618 
L 89.867384 60.728972 
L 90.13654 60.484788 
L 90.405696 60.521976 
L 90.809431 60.726386 
L 91.751478 62.31675 
L 92.020635 62.69623 
L 92.424369 62.664846 
L 92.693526 62.463144 
L 93.635573 62.716359 
L 94.039308 63.074704 
L 95.115933 64.892172 
L 95.788824 65.60897 
L 96.057981 65.46724 
L 96.461715 65.693833 
L 97.000028 66.511182 
L 97.403763 66.871966 
L 97.942076 67.238324 
L 98.480388 67.300251 
L 99.153279 66.424723 
L 99.82617 65.271063 
L 100.364483 64.609619 
L 100.63364 64.214863 
L 101.710265 62.261251 
L 103.190625 61.182343 
L 103.59436 61.271554 
L 104.536407 60.548445 
L 105.07472 60.334614 
L 105.478455 60.027005 
L 105.747611 60.189061 
L 106.016767 60.345851 
L 106.420502 60.318499 
L 107.093393 60.458529 
L 107.362549 60.504507 
L 107.631706 60.841082 
L 108.170019 61.729533 
L 108.573753 62.055965 
L 109.650379 63.852009 
L 110.457848 64.97179 
L 110.996161 65.133692 
L 111.265317 65.16863 
L 111.534474 65.277662 
L 111.80363 65.208597 
L 112.207365 65.435973 
L 112.745677 65.760252 
L 113.014834 65.689406 
L 114.360616 64.413671 
L 115.840976 61.898173 
L 116.244711 61.232383 
L 116.783023 61.134828 
L 117.455914 60.247703 
L 117.725071 60.322123 
L 117.994227 60.169391 
L 118.263383 59.945522 
L 118.53254 60.061016 
L 118.667118 60.14002 
L 119.070853 59.998979 
L 119.743744 60.847404 
L 119.878322 60.93344 
L 120.551213 61.953375 
L 120.685791 62.030648 
L 121.358682 61.839751 
L 121.762417 62.111486 
L 122.166151 62.179072 
L 122.435308 62.241532 
L 122.569886 62.195646 
L 122.839042 62.625416 
L 123.108199 63.055887 
L 123.377355 63.106782 
L 123.646511 63.160497 
L 124.184824 63.806427 
L 124.992293 63.725543 
L 125.934341 64.704316 
L 126.338075 64.47676 
L 126.876388 64.557633 
L 127.280123 64.277536 
L 127.683857 63.844899 
L 127.818436 63.800538 
L 128.895061 62.413041 
L 129.164218 62.330232 
L 129.567952 61.677551 
L 129.70253 61.74333 
L 129.971687 62.086332 
L 130.240843 61.92756 
L 130.644578 61.718941 
L 131.182891 61.860664 
L 131.586625 61.70006 
L 131.855782 61.557141 
L 132.663251 60.769915 
L 133.201563 60.350428 
L 133.336142 60.328385 
L 134.009033 61.217732 
L 134.278189 61.733181 
L 134.412767 61.760858 
L 134.681924 61.610598 
L 135.758549 61.926924 
L 137.777222 64.303706 
L 138.046379 64.391443 
L 138.450113 64.659939 
L 139.930473 64.580251 
L 140.19963 64.392953 
L 140.468786 64.603114 
L 140.872521 64.538311 
L 141.276255 64.84443 
L 141.814568 64.47576 
L 142.218303 63.461382 
L 142.756616 62.201816 
L 143.16035 61.715418 
L 143.564085 61.655913 
L 143.833241 61.341059 
L 144.371554 60.445634 
L 144.64071 60.20308 
L 144.909867 59.87951 
L 145.582758 59.732247 
L 146.793962 58.598707 
L 148.139743 59.825546 
L 148.812634 60.091851 
L 149.216369 59.946723 
L 150.023838 60.364744 
L 150.292995 60.826443 
L 150.831307 61.939785 
L 151.235042 62.538329 
L 152.177089 62.906412 
L 152.715402 63.135828 
L 153.388293 63.13139 
L 154.061184 63.913989 
L 154.464919 64.043262 
L 154.868653 64.023521 
L 155.13781 63.985498 
L 155.406966 63.897655 
L 155.945279 63.950891 
L 156.079857 63.928792 
L 156.752748 63.315456 
L 157.021905 63.234658 
L 157.291061 62.735576 
L 157.963952 61.295246 
L 158.367687 60.680529 
L 159.175156 58.929797 
L 159.57889 58.651857 
L 159.848047 58.586868 
L 160.117203 58.727557 
L 160.520938 58.371489 
L 160.924672 58.271188 
L 161.462985 57.754406 
L 161.732142 57.665503 
L 162.135876 58.002733 
L 162.405032 57.780994 
L 162.674189 58.06593 
L 163.212502 58.719047 
L 163.750814 58.73043 
L 163.885393 58.768761 
L 164.289127 59.428025 
L 164.82744 60.374073 
L 165.365753 60.67671 
L 165.634909 60.990109 
L 166.3078 61.857096 
L 166.846113 62.530448 
L 167.384426 63.528863 
L 167.78816 64.201177 
L 168.057317 64.349436 
L 168.730208 65.75669 
L 168.999364 65.828671 
L 169.537677 65.517214 
L 170.345146 65.646594 
L 170.748881 64.993706 
L 172.498397 61.755625 
L 173.440445 61.024593 
L 173.844179 61.137071 
L 174.247914 60.999708 
L 174.51707 61.220303 
L 175.055383 62.308865 
L 175.459118 62.938909 
L 176.670321 63.580418 
L 176.939478 63.865563 
L 177.746947 65.193244 
L 178.150682 65.638612 
L 178.419838 65.543957 
L 179.227307 65.14311 
L 179.900198 66.1764 
L 180.303933 66.645488 
L 180.842246 66.422067 
L 180.976824 66.501481 
L 181.380558 67.405839 
L 181.784293 68.072738 
L 182.457184 68.534084 
L 182.860919 68.339734 
L 183.802966 67.498041 
L 184.072122 67.444432 
L 185.148748 66.616267 
L 185.552483 66.122177 
L 187.032843 62.190437 
L 187.840312 60.650388 
L 188.378625 60.634145 
L 188.782359 61.03052 
L 189.45525 61.010735 
L 190.26272 61.598559 
L 191.070189 63.392424 
L 191.339345 63.342913 
L 191.608501 63.276888 
L 192.012236 63.351082 
L 192.281392 63.552422 
L 192.550549 63.278788 
L 192.819705 62.947179 
L 193.358018 63.13198 
L 193.761753 63.578692 
L 194.030909 63.96266 
L 194.030909 63.96266 
" clip-path="url(#pe93d130e8b)" style="fill: none; stroke: #ff0000; stroke-width: 0.8; stroke-linecap: square"/>
   </g>
   <g id="text_11">
    <!-- Time Domain Plot -->
    <g transform="translate(73.758681 19.44) scale(0.12 -0.12)">
     <defs>
      <path id="DejaVuSans-44" d="M 1259 4147 
L 1259 519 
L 2022 519 
Q 2988 519 3436 956 
Q 3884 1394 3884 2338 
Q 3884 3275 3436 3711 
Q 2988 4147 2022 4147 
L 1259 4147 
z
M 628 4666 
L 1925 4666 
Q 3281 4666 3915 4102 
Q 4550 3538 4550 2338 
Q 4550 1131 3912 565 
Q 3275 0 1925 0 
L 628 0 
L 628 4666 
z
" transform="scale(0.015625)"/>
      <path id="DejaVuSans-6f" d="M 1959 3097 
Q 1497 3097 1228 2736 
Q 959 2375 959 1747 
Q 959 1119 1226 758 
Q 1494 397 1959 397 
Q 2419 397 2687 759 
Q 2956 1122 2956 1747 
Q 2956 2369 2687 2733 
Q 2419 3097 1959 3097 
z
M 1959 3584 
Q 2709 3584 3137 3096 
Q 3566 2609 3566 1747 
Q 3566 888 3137 398 
Q 2709 -91 1959 -91 
Q 1206 -91 779 398 
Q 353 888 353 1747 
Q 353 2609 779 3096 
Q 1206 3584 1959 3584 
z
" transform="scale(0.015625)"/>
      <path id="DejaVuSans-61" d="M 2194 1759 
Q 1497 1759 1228 1600 
Q 959 1441 959 1056 
Q 959 750 1161 570 
Q 1363 391 1709 391 
Q 2188 391 2477 730 
Q 2766 1069 2766 1631 
L 2766 1759 
L 2194 1759 
z
M 3341 1997 
L 3341 0 
L 2766 0 
L 2766 531 
Q 2569 213 2275 61 
Q 1981 -91 1556 -91 
Q 1019 -91 701 211 
Q 384 513 384 1019 
Q 384 1609 779 1909 
Q 1175 2209 1959 2209 
L 2766 2209 
L 2766 2266 
Q 2766 2663 2505 2880 
Q 2244 3097 1772 3097 
Q 1472 3097 1187 3025 
Q 903 2953 641 2809 
L 641 3341 
Q 956 3463 1253 3523 
Q 1550 3584 1831 3584 
Q 2591 3584 2966 3190 
Q 3341 2797 3341 1997 
z
" transform="scale(0.015625)"/>
      <path id="DejaVuSans-6e" d="M 3513 2113 
L 3513 0 
L 2938 0 
L 2938 2094 
Q 2938 2591 2744 2837 
Q 2550 3084 2163 3084 
Q 1697 3084 1428 2787 
Q 1159 2491 1159 1978 
L 1159 0 
L 581 0 
L 581 3500 
L 1159 3500 
L 1159 2956 
Q 1366 3272 1645 3428 
Q 1925 3584 2291 3584 
Q 2894 3584 3203 3211 
Q 3513 2838 3513 2113 
z
" transform="scale(0.015625)"/>
      <path id="DejaVuSans-50" d="M 1259 4147 
L 1259 2394 
L 2053 2394 
Q 2494 2394 2734 2622 
Q 2975 2850 2975 3272 
Q 2975 3691 2734 3919 
Q 2494 4147 2053 4147 
L 1259 4147 
z
M 628 4666 
L 2053 4666 
Q 2838 4666 3239 4311 
Q 3641 3956 3641 3272 
Q 3641 2581 3239 2228 
Q 2838 1875 2053 1875 
L 1259 1875 
L 1259 0 
L 628 0 
L 628 4666 
z
" transform="scale(0.015625)"/>
     </defs>
     <use xlink:href="#DejaVuSans-54"/>
     <use xlink:href="#DejaVuSans-69" x="57.958984"/>
     <use xlink:href="#DejaVuSans-6d" x="85.742188"/>
     <use xlink:href="#DejaVuSans-65" x="183.154297"/>
     <use xlink:href="#DejaVuSans-20" x="244.677734"/>
     <use xlink:href="#DejaVuSans-44" x="276.464844"/>
     <use xlink:href="#DejaVuSans-6f" x="353.466797"/>
     <use xlink:href="#DejaVuSans-6d" x="414.648438"/>
     <use xlink:href="#DejaVuSans-61" x="512.060547"/>
     <use xlink:href="#DejaVuSans-69" x="573.339844"/>
     <use xlink:href="#DejaVuSans-6e" x="601.123047"/>
     <use xlink:href="#DejaVuSans-20" x="664.501953"/>
     <use xlink:href="#DejaVuSans-50" x="696.289062"/>
     <use xlink:href="#DejaVuSans-6c" x="756.591797"/>
     <use xlink:href="#DejaVuSans-6f" x="784.375"/>
     <use xlink:href="#DejaVuSans-74" x="845.556641"/>
    </g>
   </g>
   <g id="patch_7">
    <path d="M 140.334208 84.468061 
L 167.249848 84.468061 
L 167.249848 46.496477 
L 140.334208 46.496477 
L 140.334208 84.468061 
z
" clip-path="url(#pe93d130e8b)" style="fill: none; stroke: #000000; stroke-width: 1.2; stroke-linejoin: miter"/>
   </g>
   <g id="legend_1">
    <g id="patch_8">
     <path d="M 21.226354 158.724 
L 52.094479 158.724 
Q 52.694479 158.724 52.694479 158.124 
L 52.694479 145.213687 
Q 52.694479 144.613687 52.094479 144.613687 
L 21.226354 144.613687 
Q 20.626354 144.613687 20.626354 145.213687 
L 20.626354 158.124 
Q 20.626354 158.724 21.226354 158.724 
z
" style="fill: #ffffff; opacity: 0.8; stroke: #cccccc; stroke-linejoin: miter"/>
    </g>
    <g id="line2d_12">
     <path d="M 21.826354 147.043219 
L 24.826354 147.043219 
L 27.826354 147.043219 
" style="fill: none; stroke: #808080; stroke-width: 0.9; stroke-linecap: square"/>
    </g>
    <g id="text_12">
     <!-- Contaminated -->
     <g transform="translate(30.226354 148.093219) scale(0.03 -0.03)">
      <defs>
       <path id="DejaVuSans-43" d="M 4122 4306 
L 4122 3641 
Q 3803 3938 3442 4084 
Q 3081 4231 2675 4231 
Q 1875 4231 1450 3742 
Q 1025 3253 1025 2328 
Q 1025 1406 1450 917 
Q 1875 428 2675 428 
Q 3081 428 3442 575 
Q 3803 722 4122 1019 
L 4122 359 
Q 3791 134 3420 21 
Q 3050 -91 2638 -91 
Q 1578 -91 968 557 
Q 359 1206 359 2328 
Q 359 3453 968 4101 
Q 1578 4750 2638 4750 
Q 3056 4750 3426 4639 
Q 3797 4528 4122 4306 
z
" transform="scale(0.015625)"/>
      </defs>
      <use xlink:href="#DejaVuSans-43"/>
      <use xlink:href="#DejaVuSans-6f" x="69.824219"/>
      <use xlink:href="#DejaVuSans-6e" x="131.005859"/>
      <use xlink:href="#DejaVuSans-74" x="194.384766"/>
      <use xlink:href="#DejaVuSans-61" x="233.59375"/>
      <use xlink:href="#DejaVuSans-6d" x="294.873047"/>
      <use xlink:href="#DejaVuSans-69" x="392.285156"/>
      <use xlink:href="#DejaVuSans-6e" x="420.068359"/>
      <use xlink:href="#DejaVuSans-61" x="483.447266"/>
      <use xlink:href="#DejaVuSans-74" x="544.726562"/>
      <use xlink:href="#DejaVuSans-65" x="583.935547"/>
      <use xlink:href="#DejaVuSans-64" x="645.458984"/>
     </g>
    </g>
    <g id="line2d_13">
     <path d="M 21.826354 151.446656 
L 24.826354 151.446656 
L 27.826354 151.446656 
" style="fill: none; stroke: #1e90ff; stroke-linecap: square"/>
    </g>
    <g id="text_13">
     <!-- Clean -->
     <g transform="translate(30.226354 152.496656) scale(0.03 -0.03)">
      <use xlink:href="#DejaVuSans-43"/>
      <use xlink:href="#DejaVuSans-6c" x="69.824219"/>
      <use xlink:href="#DejaVuSans-65" x="97.607422"/>
      <use xlink:href="#DejaVuSans-61" x="159.130859"/>
      <use xlink:href="#DejaVuSans-6e" x="220.410156"/>
     </g>
    </g>
    <g id="line2d_14">
     <path d="M 21.826354 155.850094 
L 24.826354 155.850094 
L 27.826354 155.850094 
" style="fill: none; stroke: #ff0000; stroke-width: 0.8; stroke-linecap: square"/>
    </g>
    <g id="text_14">
     <!-- SACed -->
     <g transform="translate(30.226354 156.900094) scale(0.03 -0.03)">
      <defs>
       <path id="DejaVuSans-53" d="M 3425 4513 
L 3425 3897 
Q 3066 4069 2747 4153 
Q 2428 4238 2131 4238 
Q 1616 4238 1336 4038 
Q 1056 3838 1056 3469 
Q 1056 3159 1242 3001 
Q 1428 2844 1947 2747 
L 2328 2669 
Q 3034 2534 3370 2195 
Q 3706 1856 3706 1288 
Q 3706 609 3251 259 
Q 2797 -91 1919 -91 
Q 1588 -91 1214 -16 
Q 841 59 441 206 
L 441 856 
Q 825 641 1194 531 
Q 1563 422 1919 422 
Q 2459 422 2753 634 
Q 3047 847 3047 1241 
Q 3047 1584 2836 1778 
Q 2625 1972 2144 2069 
L 1759 2144 
Q 1053 2284 737 2584 
Q 422 2884 422 3419 
Q 422 4038 858 4394 
Q 1294 4750 2059 4750 
Q 2388 4750 2728 4690 
Q 3069 4631 3425 4513 
z
" transform="scale(0.015625)"/>
      </defs>
      <use xlink:href="#DejaVuSans-53"/>
      <use xlink:href="#DejaVuSans-41" x="65.351562"/>
      <use xlink:href="#DejaVuSans-43" x="132.009766"/>
      <use xlink:href="#DejaVuSans-65" x="201.833984"/>
      <use xlink:href="#DejaVuSans-64" x="263.357422"/>
     </g>
    </g>
   </g>
  </g>
 </g>
 <defs>
  <clipPath id="pe93d130e8b">
   <rect x="59.52" y="25.44" width="134.645487" height="103.68"/>
  </clipPath>
 </defs>
</svg>
