<?xml version="1.0" encoding="utf-8" standalone="no"?>
<!DOCTYPE svg PUBLIC "-//W3C//DTD SVG 1.1//EN"
  "http://www.w3.org/Graphics/SVG/1.1/DTD/svg11.dtd">
<svg xmlns:xlink="http://www.w3.org/1999/xlink" width="216pt" height="180pt" viewBox="0 0 216 180" xmlns="http://www.w3.org/2000/svg" version="1.1">
 <metadata>
  <rdf:RDF xmlns:dc="http://purl.org/dc/elements/1.1/" xmlns:cc="http://creativecommons.org/ns#" xmlns:rdf="http://www.w3.org/1999/02/22-rdf-syntax-ns#">
   <cc:Work>
    <dc:type rdf:resource="http://purl.org/dc/dcmitype/StillImage"/>
    <dc:date>2024-08-25T20:03:00.720421</dc:date>
    <dc:format>image/svg+xml</dc:format>
    <dc:creator>
     <cc:Agent>
      <dc:title>Matplotlib v3.9.1, https://matplotlib.org/</dc:title>
     </cc:Agent>
    </dc:creator>
   </cc:Work>
  </rdf:RDF>
 </metadata>
 <defs>
  <style type="text/css">*{stroke-linejoin: round; stroke-linecap: butt}</style>
 </defs>
 <g id="figure_1">
  <g id="patch_1">
   <path d="M 0 180 
L 216 180 
L 216 0 
L 0 0 
z
" style="fill: #ffffff"/>
  </g>
  <g id="axes_1">
   <g id="patch_2">
    <path d="M 59.52 129.12 
L 198.319362 129.12 
L 198.319362 25.44 
L 59.52 25.44 
z
" style="fill: #ffffff"/>
   </g>
   <g id="matplotlib.axis_1">
    <g id="xtick_1">
     <g id="line2d_1">
      <defs>
       <path id="mff62248c44" d="M 0 0 
L 0 3.5 
" style="stroke: #000000; stroke-width: 0.8"/>
      </defs>
      <g>
       <use xlink:href="#mff62248c44" x="61.538084" y="129.12" style="stroke: #000000; stroke-width: 0.8"/>
      </g>
     </g>
     <g id="text_1">
      <!-- 0 -->
      <g transform="translate(58.356834 143.718437) scale(0.1 -0.1)">
       <defs>
        <path id="DejaVuSans-30" d="M 2034 4250 
Q 1547 4250 1301 3770 
Q 1056 3291 1056 2328 
Q 1056 1369 1301 889 
Q 1547 409 2034 409 
Q 2525 409 2770 889 
Q 3016 1369 3016 2328 
Q 3016 3291 2770 3770 
Q 2525 4250 2034 4250 
z
M 2034 4750 
Q 2819 4750 3233 4129 
Q 3647 3509 3647 2328 
Q 3647 1150 3233 529 
Q 2819 -91 2034 -91 
Q 1250 -91 836 529 
Q 422 1150 422 2328 
Q 422 3509 836 4129 
Q 1250 4750 2034 4750 
z
" transform="scale(0.015625)"/>
       </defs>
       <use xlink:href="#DejaVuSans-30"/>
      </g>
     </g>
    </g>
    <g id="xtick_2">
     <g id="line2d_2">
      <g>
       <use xlink:href="#mff62248c44" x="128.807565" y="129.12" style="stroke: #000000; stroke-width: 0.8"/>
      </g>
     </g>
     <g id="text_2">
      <!-- 150 -->
      <g transform="translate(119.263815 143.718437) scale(0.1 -0.1)">
       <defs>
        <path id="DejaVuSans-31" d="M 794 531 
L 1825 531 
L 1825 4091 
L 703 3866 
L 703 4441 
L 1819 4666 
L 2450 4666 
L 2450 531 
L 3481 531 
L 3481 0 
L 794 0 
L 794 531 
z
" transform="scale(0.015625)"/>
        <path id="DejaVuSans-35" d="M 691 4666 
L 3169 4666 
L 3169 4134 
L 1269 4134 
L 1269 2991 
Q 1406 3038 1543 3061 
Q 1681 3084 1819 3084 
Q 2600 3084 3056 2656 
Q 3513 2228 3513 1497 
Q 3513 744 3044 326 
Q 2575 -91 1722 -91 
Q 1428 -91 1123 -41 
Q 819 9 494 109 
L 494 744 
Q 775 591 1075 516 
Q 1375 441 1709 441 
Q 2250 441 2565 725 
Q 2881 1009 2881 1497 
Q 2881 1984 2565 2268 
Q 2250 2553 1709 2553 
Q 1456 2553 1204 2497 
Q 953 2441 691 2322 
L 691 4666 
z
" transform="scale(0.015625)"/>
       </defs>
       <use xlink:href="#DejaVuSans-31"/>
       <use xlink:href="#DejaVuSans-35" x="63.623047"/>
       <use xlink:href="#DejaVuSans-30" x="127.246094"/>
      </g>
     </g>
    </g>
    <g id="xtick_3">
     <g id="line2d_3">
      <g>
       <use xlink:href="#mff62248c44" x="196.077046" y="129.12" style="stroke: #000000; stroke-width: 0.8"/>
      </g>
     </g>
     <g id="text_3">
      <!-- 300 -->
      <g transform="translate(186.533296 143.718437) scale(0.1 -0.1)">
       <defs>
        <path id="DejaVuSans-33" d="M 2597 2516 
Q 3050 2419 3304 2112 
Q 3559 1806 3559 1356 
Q 3559 666 3084 287 
Q 2609 -91 1734 -91 
Q 1441 -91 1130 -33 
Q 819 25 488 141 
L 488 750 
Q 750 597 1062 519 
Q 1375 441 1716 441 
Q 2309 441 2620 675 
Q 2931 909 2931 1356 
Q 2931 1769 2642 2001 
Q 2353 2234 1838 2234 
L 1294 2234 
L 1294 2753 
L 1863 2753 
Q 2328 2753 2575 2939 
Q 2822 3125 2822 3475 
Q 2822 3834 2567 4026 
Q 2313 4219 1838 4219 
Q 1578 4219 1281 4162 
Q 984 4106 628 3988 
L 628 4550 
Q 988 4650 1302 4700 
Q 1616 4750 1894 4750 
Q 2613 4750 3031 4423 
Q 3450 4097 3450 3541 
Q 3450 3153 3228 2886 
Q 3006 2619 2597 2516 
z
" transform="scale(0.015625)"/>
       </defs>
       <use xlink:href="#DejaVuSans-33"/>
       <use xlink:href="#DejaVuSans-30" x="63.623047"/>
       <use xlink:href="#DejaVuSans-30" x="127.246094"/>
      </g>
     </g>
    </g>
    <g id="text_4">
     <!-- Frequency (Hz) -->
     <g transform="translate(91.214993 157.396563) scale(0.1 -0.1)">
      <defs>
       <path id="DejaVuSans-46" d="M 628 4666 
L 3309 4666 
L 3309 4134 
L 1259 4134 
L 1259 2759 
L 3109 2759 
L 3109 2228 
L 1259 2228 
L 1259 0 
L 628 0 
L 628 4666 
z
" transform="scale(0.015625)"/>
       <path id="DejaVuSans-72" d="M 2631 2963 
Q 2534 3019 2420 3045 
Q 2306 3072 2169 3072 
Q 1681 3072 1420 2755 
Q 1159 2438 1159 1844 
L 1159 0 
L 581 0 
L 581 3500 
L 1159 3500 
L 1159 2956 
Q 1341 3275 1631 3429 
Q 1922 3584 2338 3584 
Q 2397 3584 2469 3576 
Q 2541 3569 2628 3553 
L 2631 2963 
z
" transform="scale(0.015625)"/>
       <path id="DejaVuSans-65" d="M 3597 1894 
L 3597 1613 
L 953 1613 
Q 991 1019 1311 708 
Q 1631 397 2203 397 
Q 2534 397 2845 478 
Q 3156 559 3463 722 
L 3463 178 
Q 3153 47 2828 -22 
Q 2503 -91 2169 -91 
Q 1331 -91 842 396 
Q 353 884 353 1716 
Q 353 2575 817 3079 
Q 1281 3584 2069 3584 
Q 2775 3584 3186 3129 
Q 3597 2675 3597 1894 
z
M 3022 2063 
Q 3016 2534 2758 2815 
Q 2500 3097 2075 3097 
Q 1594 3097 1305 2825 
Q 1016 2553 972 2059 
L 3022 2063 
z
" transform="scale(0.015625)"/>
       <path id="DejaVuSans-71" d="M 947 1747 
Q 947 1113 1208 752 
Q 1469 391 1925 391 
Q 2381 391 2643 752 
Q 2906 1113 2906 1747 
Q 2906 2381 2643 2742 
Q 2381 3103 1925 3103 
Q 1469 3103 1208 2742 
Q 947 2381 947 1747 
z
M 2906 525 
Q 2725 213 2448 61 
Q 2172 -91 1784 -91 
Q 1150 -91 751 415 
Q 353 922 353 1747 
Q 353 2572 751 3078 
Q 1150 3584 1784 3584 
Q 2172 3584 2448 3432 
Q 2725 3281 2906 2969 
L 2906 3500 
L 3481 3500 
L 3481 -1331 
L 2906 -1331 
L 2906 525 
z
" transform="scale(0.015625)"/>
       <path id="DejaVuSans-75" d="M 544 1381 
L 544 3500 
L 1119 3500 
L 1119 1403 
Q 1119 906 1312 657 
Q 1506 409 1894 409 
Q 2359 409 2629 706 
Q 2900 1003 2900 1516 
L 2900 3500 
L 3475 3500 
L 3475 0 
L 2900 0 
L 2900 538 
Q 2691 219 2414 64 
Q 2138 -91 1772 -91 
Q 1169 -91 856 284 
Q 544 659 544 1381 
z
M 1991 3584 
L 1991 3584 
z
" transform="scale(0.015625)"/>
       <path id="DejaVuSans-6e" d="M 3513 2113 
L 3513 0 
L 2938 0 
L 2938 2094 
Q 2938 2591 2744 2837 
Q 2550 3084 2163 3084 
Q 1697 3084 1428 2787 
Q 1159 2491 1159 1978 
L 1159 0 
L 581 0 
L 581 3500 
L 1159 3500 
L 1159 2956 
Q 1366 3272 1645 3428 
Q 1925 3584 2291 3584 
Q 2894 3584 3203 3211 
Q 3513 2838 3513 2113 
z
" transform="scale(0.015625)"/>
       <path id="DejaVuSans-63" d="M 3122 3366 
L 3122 2828 
Q 2878 2963 2633 3030 
Q 2388 3097 2138 3097 
Q 1578 3097 1268 2742 
Q 959 2388 959 1747 
Q 959 1106 1268 751 
Q 1578 397 2138 397 
Q 2388 397 2633 464 
Q 2878 531 3122 666 
L 3122 134 
Q 2881 22 2623 -34 
Q 2366 -91 2075 -91 
Q 1284 -91 818 406 
Q 353 903 353 1747 
Q 353 2603 823 3093 
Q 1294 3584 2113 3584 
Q 2378 3584 2631 3529 
Q 2884 3475 3122 3366 
z
" transform="scale(0.015625)"/>
       <path id="DejaVuSans-79" d="M 2059 -325 
Q 1816 -950 1584 -1140 
Q 1353 -1331 966 -1331 
L 506 -1331 
L 506 -850 
L 844 -850 
Q 1081 -850 1212 -737 
Q 1344 -625 1503 -206 
L 1606 56 
L 191 3500 
L 800 3500 
L 1894 763 
L 2988 3500 
L 3597 3500 
L 2059 -325 
z
" transform="scale(0.015625)"/>
       <path id="DejaVuSans-20" transform="scale(0.015625)"/>
       <path id="DejaVuSans-28" d="M 1984 4856 
Q 1566 4138 1362 3434 
Q 1159 2731 1159 2009 
Q 1159 1288 1364 580 
Q 1569 -128 1984 -844 
L 1484 -844 
Q 1016 -109 783 600 
Q 550 1309 550 2009 
Q 550 2706 781 3412 
Q 1013 4119 1484 4856 
L 1984 4856 
z
" transform="scale(0.015625)"/>
       <path id="DejaVuSans-48" d="M 628 4666 
L 1259 4666 
L 1259 2753 
L 3553 2753 
L 3553 4666 
L 4184 4666 
L 4184 0 
L 3553 0 
L 3553 2222 
L 1259 2222 
L 1259 0 
L 628 0 
L 628 4666 
z
" transform="scale(0.015625)"/>
       <path id="DejaVuSans-7a" d="M 353 3500 
L 3084 3500 
L 3084 2975 
L 922 459 
L 3084 459 
L 3084 0 
L 275 0 
L 275 525 
L 2438 3041 
L 353 3041 
L 353 3500 
z
" transform="scale(0.015625)"/>
       <path id="DejaVuSans-29" d="M 513 4856 
L 1013 4856 
Q 1481 4119 1714 3412 
Q 1947 2706 1947 2009 
Q 1947 1309 1714 600 
Q 1481 -109 1013 -844 
L 513 -844 
Q 928 -128 1133 580 
Q 1338 1288 1338 2009 
Q 1338 2731 1133 3434 
Q 928 4138 513 4856 
z
" transform="scale(0.015625)"/>
      </defs>
      <use xlink:href="#DejaVuSans-46"/>
      <use xlink:href="#DejaVuSans-72" x="50.269531"/>
      <use xlink:href="#DejaVuSans-65" x="89.132812"/>
      <use xlink:href="#DejaVuSans-71" x="150.65625"/>
      <use xlink:href="#DejaVuSans-75" x="214.132812"/>
      <use xlink:href="#DejaVuSans-65" x="277.511719"/>
      <use xlink:href="#DejaVuSans-6e" x="339.035156"/>
      <use xlink:href="#DejaVuSans-63" x="402.414062"/>
      <use xlink:href="#DejaVuSans-79" x="457.394531"/>
      <use xlink:href="#DejaVuSans-20" x="516.574219"/>
      <use xlink:href="#DejaVuSans-28" x="548.361328"/>
      <use xlink:href="#DejaVuSans-48" x="587.375"/>
      <use xlink:href="#DejaVuSans-7a" x="662.570312"/>
      <use xlink:href="#DejaVuSans-29" x="715.060547"/>
     </g>
    </g>
   </g>
   <g id="matplotlib.axis_2">
    <g id="ytick_1">
     <g id="line2d_4">
      <defs>
       <path id="m453bf14c4f" d="M 0 0 
L -3.5 0 
" style="stroke: #000000; stroke-width: 0.8"/>
      </defs>
      <g>
       <use xlink:href="#m453bf14c4f" x="59.52" y="111.553217" style="stroke: #000000; stroke-width: 0.8"/>
      </g>
     </g>
     <g id="text_5">
      <!-- $\mathdefault{10^{-4}}$ -->
      <g transform="translate(29.02 115.352436) scale(0.1 -0.1)">
       <defs>
        <path id="DejaVuSans-2212" d="M 678 2272 
L 4684 2272 
L 4684 1741 
L 678 1741 
L 678 2272 
z
" transform="scale(0.015625)"/>
        <path id="DejaVuSans-34" d="M 2419 4116 
L 825 1625 
L 2419 1625 
L 2419 4116 
z
M 2253 4666 
L 3047 4666 
L 3047 1625 
L 3713 1625 
L 3713 1100 
L 3047 1100 
L 3047 0 
L 2419 0 
L 2419 1100 
L 313 1100 
L 313 1709 
L 2253 4666 
z
" transform="scale(0.015625)"/>
       </defs>
       <use xlink:href="#DejaVuSans-31" transform="translate(0 0.684375)"/>
       <use xlink:href="#DejaVuSans-30" transform="translate(63.623047 0.684375)"/>
       <use xlink:href="#DejaVuSans-2212" transform="translate(128.203125 38.965625) scale(0.7)"/>
       <use xlink:href="#DejaVuSans-34" transform="translate(186.855469 38.965625) scale(0.7)"/>
      </g>
     </g>
    </g>
    <g id="ytick_2">
     <g id="line2d_5">
      <g>
       <use xlink:href="#m453bf14c4f" x="59.52" y="85.343541" style="stroke: #000000; stroke-width: 0.8"/>
      </g>
     </g>
     <g id="text_6">
      <!-- $\mathdefault{10^{-1}}$ -->
      <g transform="translate(29.02 89.14276) scale(0.1 -0.1)">
       <use xlink:href="#DejaVuSans-31" transform="translate(0 0.684375)"/>
       <use xlink:href="#DejaVuSans-30" transform="translate(63.623047 0.684375)"/>
       <use xlink:href="#DejaVuSans-2212" transform="translate(128.203125 38.965625) scale(0.7)"/>
       <use xlink:href="#DejaVuSans-31" transform="translate(186.855469 38.965625) scale(0.7)"/>
      </g>
     </g>
    </g>
    <g id="ytick_3">
     <g id="line2d_6">
      <g>
       <use xlink:href="#m453bf14c4f" x="59.52" y="59.133865" style="stroke: #000000; stroke-width: 0.8"/>
      </g>
     </g>
     <g id="text_7">
      <!-- $\mathdefault{10^{2}}$ -->
      <g transform="translate(34.92 62.933084) scale(0.1 -0.1)">
       <defs>
        <path id="DejaVuSans-32" d="M 1228 531 
L 3431 531 
L 3431 0 
L 469 0 
L 469 531 
Q 828 903 1448 1529 
Q 2069 2156 2228 2338 
Q 2531 2678 2651 2914 
Q 2772 3150 2772 3378 
Q 2772 3750 2511 3984 
Q 2250 4219 1831 4219 
Q 1534 4219 1204 4116 
Q 875 4013 500 3803 
L 500 4441 
Q 881 4594 1212 4672 
Q 1544 4750 1819 4750 
Q 2544 4750 2975 4387 
Q 3406 4025 3406 3419 
Q 3406 3131 3298 2873 
Q 3191 2616 2906 2266 
Q 2828 2175 2409 1742 
Q 1991 1309 1228 531 
z
" transform="scale(0.015625)"/>
       </defs>
       <use xlink:href="#DejaVuSans-31" transform="translate(0 0.765625)"/>
       <use xlink:href="#DejaVuSans-30" transform="translate(63.623047 0.765625)"/>
       <use xlink:href="#DejaVuSans-32" transform="translate(128.203125 39.046875) scale(0.7)"/>
      </g>
     </g>
    </g>
    <g id="ytick_4">
     <g id="line2d_7">
      <g>
       <use xlink:href="#m453bf14c4f" x="59.52" y="32.924189" style="stroke: #000000; stroke-width: 0.8"/>
      </g>
     </g>
     <g id="text_8">
      <!-- $\mathdefault{10^{5}}$ -->
      <g transform="translate(34.92 36.723408) scale(0.1 -0.1)">
       <use xlink:href="#DejaVuSans-31" transform="translate(0 0.684375)"/>
       <use xlink:href="#DejaVuSans-30" transform="translate(63.623047 0.684375)"/>
       <use xlink:href="#DejaVuSans-35" transform="translate(128.203125 38.965625) scale(0.7)"/>
      </g>
     </g>
    </g>
    <g id="text_9">
     <!-- Log power (dB/Hz) -->
     <g transform="translate(22.940312 123.419844) rotate(-90) scale(0.1 -0.1)">
      <defs>
       <path id="DejaVuSans-4c" d="M 628 4666 
L 1259 4666 
L 1259 531 
L 3531 531 
L 3531 0 
L 628 0 
L 628 4666 
z
" transform="scale(0.015625)"/>
       <path id="DejaVuSans-6f" d="M 1959 3097 
Q 1497 3097 1228 2736 
Q 959 2375 959 1747 
Q 959 1119 1226 758 
Q 1494 397 1959 397 
Q 2419 397 2687 759 
Q 2956 1122 2956 1747 
Q 2956 2369 2687 2733 
Q 2419 3097 1959 3097 
z
M 1959 3584 
Q 2709 3584 3137 3096 
Q 3566 2609 3566 1747 
Q 3566 888 3137 398 
Q 2709 -91 1959 -91 
Q 1206 -91 779 398 
Q 353 888 353 1747 
Q 353 2609 779 3096 
Q 1206 3584 1959 3584 
z
" transform="scale(0.015625)"/>
       <path id="DejaVuSans-67" d="M 2906 1791 
Q 2906 2416 2648 2759 
Q 2391 3103 1925 3103 
Q 1463 3103 1205 2759 
Q 947 2416 947 1791 
Q 947 1169 1205 825 
Q 1463 481 1925 481 
Q 2391 481 2648 825 
Q 2906 1169 2906 1791 
z
M 3481 434 
Q 3481 -459 3084 -895 
Q 2688 -1331 1869 -1331 
Q 1566 -1331 1297 -1286 
Q 1028 -1241 775 -1147 
L 775 -588 
Q 1028 -725 1275 -790 
Q 1522 -856 1778 -856 
Q 2344 -856 2625 -561 
Q 2906 -266 2906 331 
L 2906 616 
Q 2728 306 2450 153 
Q 2172 0 1784 0 
Q 1141 0 747 490 
Q 353 981 353 1791 
Q 353 2603 747 3093 
Q 1141 3584 1784 3584 
Q 2172 3584 2450 3431 
Q 2728 3278 2906 2969 
L 2906 3500 
L 3481 3500 
L 3481 434 
z
" transform="scale(0.015625)"/>
       <path id="DejaVuSans-70" d="M 1159 525 
L 1159 -1331 
L 581 -1331 
L 581 3500 
L 1159 3500 
L 1159 2969 
Q 1341 3281 1617 3432 
Q 1894 3584 2278 3584 
Q 2916 3584 3314 3078 
Q 3713 2572 3713 1747 
Q 3713 922 3314 415 
Q 2916 -91 2278 -91 
Q 1894 -91 1617 61 
Q 1341 213 1159 525 
z
M 3116 1747 
Q 3116 2381 2855 2742 
Q 2594 3103 2138 3103 
Q 1681 3103 1420 2742 
Q 1159 2381 1159 1747 
Q 1159 1113 1420 752 
Q 1681 391 2138 391 
Q 2594 391 2855 752 
Q 3116 1113 3116 1747 
z
" transform="scale(0.015625)"/>
       <path id="DejaVuSans-77" d="M 269 3500 
L 844 3500 
L 1563 769 
L 2278 3500 
L 2956 3500 
L 3675 769 
L 4391 3500 
L 4966 3500 
L 4050 0 
L 3372 0 
L 2619 2869 
L 1863 0 
L 1184 0 
L 269 3500 
z
" transform="scale(0.015625)"/>
       <path id="DejaVuSans-64" d="M 2906 2969 
L 2906 4863 
L 3481 4863 
L 3481 0 
L 2906 0 
L 2906 525 
Q 2725 213 2448 61 
Q 2172 -91 1784 -91 
Q 1150 -91 751 415 
Q 353 922 353 1747 
Q 353 2572 751 3078 
Q 1150 3584 1784 3584 
Q 2172 3584 2448 3432 
Q 2725 3281 2906 2969 
z
M 947 1747 
Q 947 1113 1208 752 
Q 1469 391 1925 391 
Q 2381 391 2643 752 
Q 2906 1113 2906 1747 
Q 2906 2381 2643 2742 
Q 2381 3103 1925 3103 
Q 1469 3103 1208 2742 
Q 947 2381 947 1747 
z
" transform="scale(0.015625)"/>
       <path id="DejaVuSans-42" d="M 1259 2228 
L 1259 519 
L 2272 519 
Q 2781 519 3026 730 
Q 3272 941 3272 1375 
Q 3272 1813 3026 2020 
Q 2781 2228 2272 2228 
L 1259 2228 
z
M 1259 4147 
L 1259 2741 
L 2194 2741 
Q 2656 2741 2882 2914 
Q 3109 3088 3109 3444 
Q 3109 3797 2882 3972 
Q 2656 4147 2194 4147 
L 1259 4147 
z
M 628 4666 
L 2241 4666 
Q 2963 4666 3353 4366 
Q 3744 4066 3744 3513 
Q 3744 3084 3544 2831 
Q 3344 2578 2956 2516 
Q 3422 2416 3680 2098 
Q 3938 1781 3938 1306 
Q 3938 681 3513 340 
Q 3088 0 2303 0 
L 628 0 
L 628 4666 
z
" transform="scale(0.015625)"/>
       <path id="DejaVuSans-2f" d="M 1625 4666 
L 2156 4666 
L 531 -594 
L 0 -594 
L 1625 4666 
z
" transform="scale(0.015625)"/>
      </defs>
      <use xlink:href="#DejaVuSans-4c"/>
      <use xlink:href="#DejaVuSans-6f" x="53.962891"/>
      <use xlink:href="#DejaVuSans-67" x="115.144531"/>
      <use xlink:href="#DejaVuSans-20" x="178.621094"/>
      <use xlink:href="#DejaVuSans-70" x="210.408203"/>
      <use xlink:href="#DejaVuSans-6f" x="273.884766"/>
      <use xlink:href="#DejaVuSans-77" x="335.066406"/>
      <use xlink:href="#DejaVuSans-65" x="416.853516"/>
      <use xlink:href="#DejaVuSans-72" x="478.376953"/>
      <use xlink:href="#DejaVuSans-20" x="519.490234"/>
      <use xlink:href="#DejaVuSans-28" x="551.277344"/>
      <use xlink:href="#DejaVuSans-64" x="590.291016"/>
      <use xlink:href="#DejaVuSans-42" x="653.767578"/>
      <use xlink:href="#DejaVuSans-2f" x="722.371094"/>
      <use xlink:href="#DejaVuSans-48" x="756.0625"/>
      <use xlink:href="#DejaVuSans-7a" x="831.257812"/>
      <use xlink:href="#DejaVuSans-29" x="883.748047"/>
     </g>
    </g>
   </g>
   <g id="line2d_8">
    <path d="M 61.762316 60.954105 
L 61.986548 61.778772 
L 62.210779 67.984326 
L 62.435011 60.709786 
L 62.659242 62.006221 
L 62.883474 57.933225 
L 63.107706 67.674092 
L 63.331937 57.625 
L 63.7804 65.230624 
L 64.004632 59.975414 
L 64.453095 69.631205 
L 64.677327 61.554828 
L 64.901558 67.741049 
L 65.12579 69.160169 
L 65.350022 63.377699 
L 65.574253 68.204077 
L 65.798485 80.914798 
L 66.022716 62.759817 
L 66.246948 66.619698 
L 66.47118 61.093646 
L 66.695411 73.343696 
L 66.919643 66.495977 
L 67.143874 66.669193 
L 67.368106 69.632934 
L 67.592338 63.442896 
L 67.816569 63.093787 
L 68.040801 78.272503 
L 68.489264 64.742647 
L 68.713496 64.161553 
L 68.937727 65.410424 
L 69.161959 67.293542 
L 69.386191 63.432515 
L 69.610422 69.63762 
L 69.834654 67.11526 
L 70.058885 51.346457 
L 70.283117 68.971011 
L 70.507349 70.623097 
L 70.73158 64.759592 
L 70.955812 69.35174 
L 71.180043 61.22962 
L 71.404275 71.871002 
L 71.628507 65.600292 
L 71.852738 71.653869 
L 72.07697 63.474188 
L 72.525433 76.90502 
L 72.749665 72.853038 
L 72.973896 74.333711 
L 73.198128 67.813236 
L 73.422359 66.33643 
L 73.646591 64.083178 
L 73.870823 68.688607 
L 74.095054 67.631427 
L 74.319286 71.920622 
L 74.543517 63.060152 
L 74.767749 64.736001 
L 74.991981 71.968286 
L 75.216212 72.112874 
L 75.440444 74.643718 
L 75.664675 67.610069 
L 75.888907 73.697426 
L 76.113139 63.521052 
L 76.33737 68.13364 
L 76.561602 66.546938 
L 76.785833 71.382059 
L 77.010065 71.814892 
L 77.234297 71.911004 
L 77.458528 60.599754 
L 77.68276 73.165616 
L 77.906991 71.657362 
L 78.355455 65.251712 
L 78.803918 69.927109 
L 79.028149 69.298742 
L 79.252381 63.178701 
L 79.476613 79.773836 
L 79.700844 66.753225 
L 79.925076 60.707663 
L 80.149307 66.775628 
L 80.822002 61.775548 
L 81.046234 75.726453 
L 81.270465 63.163479 
L 81.494697 73.398687 
L 81.718929 64.509299 
L 81.94316 63.969674 
L 82.167392 71.769634 
L 82.391623 64.557647 
L 82.615855 65.766986 
L 82.840087 76.171869 
L 83.064318 71.457306 
L 83.28855 62.758413 
L 83.512781 68.947617 
L 83.737013 67.01974 
L 83.961245 75.796585 
L 84.185476 61.612278 
L 84.633939 67.796663 
L 84.858171 78.943367 
L 85.082403 64.331864 
L 85.530866 75.8111 
L 85.755097 77.274276 
L 85.979329 62.297067 
L 86.427792 65.857538 
L 86.652024 64.993736 
L 86.876255 82.17884 
L 87.100487 68.709782 
L 87.54895 63.39815 
L 87.773182 73.16105 
L 88.221645 62.895877 
L 88.445877 73.286309 
L 88.670108 68.793708 
L 88.89434 69.826486 
L 89.118572 66.297621 
L 89.342803 72.206599 
L 89.567035 71.17011 
L 89.791266 76.42237 
L 90.015498 67.325662 
L 90.23973 69.770252 
L 90.463961 67.101664 
L 90.688193 73.016936 
L 90.912424 60.823984 
L 91.136656 67.096043 
L 91.360888 79.749526 
L 91.585119 65.880771 
L 91.809351 64.421209 
L 92.033582 69.97638 
L 92.257814 78.938578 
L 92.482046 64.224437 
L 92.706277 66.096291 
L 92.930509 62.675144 
L 93.15474 62.076908 
L 93.603204 82.533976 
L 93.827435 68.272929 
L 94.051667 63.324335 
L 94.275898 68.954936 
L 94.50013 64.129695 
L 94.724362 62.188256 
L 94.948593 61.370371 
L 95.172825 70.792096 
L 95.397056 68.543317 
L 95.621288 72.596919 
L 95.84552 63.588701 
L 96.293983 76.67344 
L 96.518214 64.225614 
L 96.742446 66.066572 
L 96.966678 70.306056 
L 97.190909 62.783355 
L 97.415141 63.411221 
L 97.639372 68.997493 
L 97.863604 61.245257 
L 98.087836 71.829045 
L 98.312067 61.219499 
L 98.536299 63.901537 
L 98.76053 63.174792 
L 98.984762 65.182272 
L 99.208994 59.753669 
L 99.657457 79.621903 
L 99.881688 62.801253 
L 100.10592 69.887357 
L 100.330152 71.462837 
L 100.554383 63.483696 
L 100.778615 62.092347 
L 101.002846 69.17819 
L 101.227078 69.697422 
L 101.45131 75.050126 
L 101.675541 57.466181 
L 101.899773 68.360701 
L 102.124004 70.349787 
L 102.348236 68.887998 
L 102.572468 63.839693 
L 102.796699 71.943516 
L 103.020931 63.176903 
L 103.245162 76.799333 
L 103.469394 63.778471 
L 104.142089 75.950509 
L 104.36632 63.605996 
L 104.590552 62.445744 
L 104.814784 68.60982 
L 105.039015 70.788912 
L 105.263247 63.882223 
L 105.487478 66.406382 
L 105.71171 65.629423 
L 105.935942 72.377275 
L 106.384405 63.402986 
L 106.608637 65.123154 
L 106.832868 64.431394 
L 107.0571 63.057034 
L 107.281331 66.406541 
L 107.505563 64.905231 
L 107.729795 67.396782 
L 107.954026 57.633954 
L 108.178258 66.196968 
L 108.402489 69.104678 
L 108.626721 65.952565 
L 109.075184 64.28245 
L 109.299416 66.312953 
L 109.523647 73.099377 
L 109.747879 70.995727 
L 109.972111 66.71778 
L 110.196342 65.337439 
L 110.420574 65.159109 
L 110.869037 69.28146 
L 111.093269 69.965812 
L 111.541732 63.218881 
L 111.765963 75.266622 
L 111.990195 67.422012 
L 112.214427 64.039024 
L 112.438658 82.346369 
L 112.66289 65.290657 
L 112.887121 77.926486 
L 113.111353 62.085016 
L 113.335585 67.772419 
L 113.559816 64.558277 
L 113.784048 65.349611 
L 114.008279 72.135307 
L 114.232511 69.495448 
L 114.456743 74.263746 
L 114.680974 71.809112 
L 114.905206 64.156822 
L 115.129437 64.368836 
L 115.353669 66.535568 
L 115.802132 61.057705 
L 116.026364 66.685276 
L 116.250595 65.579907 
L 116.474827 66.268505 
L 116.699059 74.703006 
L 116.92329 64.025354 
L 117.147522 59.935375 
L 117.371753 77.434753 
L 117.595985 30.152727 
L 117.820217 84.972186 
L 118.044448 60.180635 
L 118.26868 64.377201 
L 118.492911 78.889989 
L 118.717143 66.770645 
L 118.941375 66.661279 
L 119.165606 67.925162 
L 119.389838 61.307535 
L 119.838301 66.973521 
L 120.062533 64.67832 
L 120.286764 64.679881 
L 120.510996 71.034999 
L 120.735227 73.762428 
L 120.959459 70.16715 
L 121.183691 72.376993 
L 121.407922 65.446793 
L 121.632154 66.658121 
L 121.856385 69.156682 
L 122.080617 63.430024 
L 122.304849 78.854115 
L 122.52908 66.572202 
L 122.753312 86.942867 
L 122.977543 64.533356 
L 123.426007 74.598086 
L 123.650238 64.198636 
L 123.87447 67.065558 
L 124.098701 71.535053 
L 124.322933 71.01299 
L 124.547165 69.248853 
L 124.771396 66.086023 
L 124.995628 66.687102 
L 125.219859 68.137392 
L 125.444091 71.434161 
L 125.668323 76.536118 
L 125.892554 68.397649 
L 126.116786 66.306428 
L 126.565249 68.103245 
L 126.789481 71.171334 
L 127.013712 68.498916 
L 127.237944 59.65866 
L 127.462176 69.47438 
L 127.686407 67.323925 
L 127.910639 68.908947 
L 128.13487 66.172291 
L 128.359102 67.802085 
L 128.583334 67.474391 
L 128.807565 65.86077 
L 129.031797 73.13989 
L 129.256028 74.434457 
L 129.48026 68.384219 
L 129.704492 69.767924 
L 129.928723 68.145914 
L 130.152955 76.374175 
L 130.601418 65.110746 
L 130.82565 67.11671 
L 131.049881 75.453191 
L 131.274113 75.780729 
L 131.722576 66.673822 
L 131.946808 79.605423 
L 132.171039 66.231592 
L 132.395271 72.831443 
L 132.619502 67.284022 
L 132.843734 73.213354 
L 133.067966 74.03306 
L 133.292197 72.080752 
L 133.516429 61.18593 
L 133.74066 77.656935 
L 134.189124 71.744399 
L 134.413355 65.880454 
L 134.637587 68.318424 
L 134.861818 76.549142 
L 135.08605 74.165891 
L 135.310282 67.553774 
L 135.534513 80.363789 
L 135.758745 76.449681 
L 135.982976 64.17306 
L 136.207208 71.906647 
L 136.43144 67.285908 
L 136.655671 68.271269 
L 136.879903 66.357924 
L 137.104134 76.593217 
L 137.328366 66.171265 
L 137.552598 75.858545 
L 137.776829 69.954993 
L 138.001061 67.883105 
L 138.225292 75.82521 
L 138.449524 71.237813 
L 138.673756 70.358853 
L 138.897987 84.441217 
L 139.34645 69.289224 
L 139.570682 78.272916 
L 139.794914 73.699364 
L 140.019145 77.493828 
L 140.243377 67.096684 
L 140.467608 67.801417 
L 140.69184 70.123193 
L 140.916072 75.968084 
L 141.140303 69.518134 
L 141.364535 75.700088 
L 141.588766 87.734669 
L 141.812998 81.49084 
L 142.03723 68.232919 
L 142.485693 71.663383 
L 142.709924 70.340907 
L 142.934156 84.941829 
L 143.158388 75.577113 
L 143.382619 72.811215 
L 143.606851 71.495695 
L 143.831082 81.754287 
L 144.279546 68.490637 
L 144.503777 81.184955 
L 144.728009 76.074328 
L 144.952241 76.566221 
L 145.176472 74.8977 
L 145.400704 82.463982 
L 145.624935 76.864628 
L 145.849167 92.308512 
L 146.073399 77.81832 
L 146.29763 78.077349 
L 146.521862 76.714522 
L 146.746093 83.037002 
L 146.970325 70.701164 
L 147.418788 82.96019 
L 147.64302 73.703956 
L 147.867251 74.339654 
L 148.315715 86.564034 
L 148.539946 74.133119 
L 148.764178 74.875756 
L 148.988409 73.564379 
L 149.212641 71.326396 
L 149.436873 93.024778 
L 150.109567 74.582482 
L 150.333799 84.582063 
L 150.558031 75.554267 
L 150.782262 74.075335 
L 151.006494 74.311902 
L 151.230725 82.535342 
L 151.454957 79.351776 
L 151.679189 83.724689 
L 151.90342 76.473142 
L 152.127652 86.865961 
L 152.351883 90.432421 
L 152.576115 78.994161 
L 152.800347 79.586069 
L 153.024578 82.436164 
L 153.24881 76.473643 
L 153.473041 78.940118 
L 153.697273 83.99565 
L 153.921505 75.998534 
L 154.145736 93.061342 
L 154.369968 76.591976 
L 154.594199 78.61638 
L 154.818431 78.485099 
L 155.042663 83.860538 
L 155.266894 77.029889 
L 155.491126 90.229909 
L 155.715357 87.287311 
L 155.939589 80.844537 
L 156.388052 89.158293 
L 156.612284 79.514208 
L 156.836515 77.674845 
L 157.284979 90.879287 
L 157.50921 87.127978 
L 157.733442 73.679423 
L 157.957673 86.241323 
L 158.181905 85.401715 
L 158.406137 87.645499 
L 158.630368 81.062968 
L 158.8546 93.365599 
L 159.078831 79.821688 
L 159.303063 98.068423 
L 159.527295 81.09825 
L 159.975758 87.524817 
L 160.199989 87.797645 
L 160.424221 78.669704 
L 160.648453 79.132121 
L 161.096916 88.2557 
L 161.321147 81.137396 
L 161.545379 82.180096 
L 161.769611 80.904828 
L 161.993842 88.646852 
L 162.442305 77.768422 
L 162.666537 79.417309 
L 162.890769 79.315561 
L 163.115 78.056106 
L 163.339232 81.025536 
L 163.563464 79.222035 
L 163.787695 81.359648 
L 164.011927 71.735538 
L 164.46039 85.710867 
L 164.684622 78.40073 
L 164.908853 78.794829 
L 165.133085 78.85897 
L 165.357316 78.087111 
L 165.581548 85.109281 
L 165.80578 82.973876 
L 166.254243 76.990501 
L 166.478474 77.145969 
L 166.702706 81.711354 
L 166.926938 79.928338 
L 167.151169 81.675881 
L 167.599632 74.044773 
L 167.823864 83.60363 
L 168.272327 74.584152 
L 168.496559 98.403001 
L 168.72079 76.186101 
L 168.945022 88.80613 
L 169.169254 73.094212 
L 169.393485 78.765305 
L 169.617717 75.067444 
L 169.841948 74.600266 
L 170.06618 82.732451 
L 170.290412 80.594713 
L 170.514643 85.817884 
L 170.963106 74.733478 
L 171.187338 73.087989 
L 171.41157 77.16519 
L 171.860033 70.659343 
L 172.084264 75.944402 
L 172.308496 76.23024 
L 172.532728 75.500717 
L 172.756959 83.867241 
L 172.981191 73.450661 
L 173.205422 69.040414 
L 173.429654 86.825402 
L 173.653886 39.060314 
L 173.878117 87.868089 
L 174.102349 68.704606 
L 174.32658 73.368049 
L 174.550812 85.22549 
L 174.775044 75.182449 
L 174.999275 74.735592 
L 175.223507 75.458548 
L 175.447738 70.127762 
L 175.896202 75.702331 
L 176.120433 72.211613 
L 176.344665 72.660348 
L 176.793128 84.193435 
L 177.01736 78.278247 
L 177.241591 79.23417 
L 177.465823 73.154705 
L 177.690054 73.395505 
L 177.914286 76.474298 
L 178.138518 70.919685 
L 178.362749 90.639295 
L 178.586981 73.505961 
L 178.811212 89.981361 
L 179.035444 71.590982 
L 179.259676 75.373798 
L 179.483907 82.10741 
L 179.708139 71.077345 
L 179.93237 73.946669 
L 180.156602 78.985222 
L 180.380834 77.315451 
L 180.605065 76.545807 
L 180.829297 73.111131 
L 181.27776 75.089666 
L 181.726223 81.90011 
L 181.950455 74.014209 
L 182.174687 72.485189 
L 182.398918 73.99101 
L 182.62315 74.680196 
L 182.847381 78.40523 
L 183.071613 74.325143 
L 183.295845 65.982257 
L 183.520076 76.145679 
L 183.744308 73.311188 
L 183.968539 74.839088 
L 184.192771 71.975792 
L 184.641234 73.613253 
L 184.865466 71.918923 
L 185.313929 81.422628 
L 185.538161 74.181648 
L 185.762392 74.847979 
L 185.986624 73.100853 
L 186.210855 80.868833 
L 186.435087 77.423551 
L 186.659319 70.551033 
L 186.88355 72.28618 
L 187.107782 83.413322 
L 187.332013 81.243633 
L 187.780477 72.314228 
L 188.004708 86.417815 
L 188.22894 71.150969 
L 188.453171 80.243661 
L 188.677403 72.722908 
L 188.901635 77.058436 
L 189.125866 78.565356 
L 189.350098 77.481259 
L 189.574329 65.852973 
L 189.798561 82.844766 
L 190.247024 77.500737 
L 190.471256 70.494081 
L 190.695487 72.696129 
L 190.919719 80.818721 
L 191.143951 78.534163 
L 191.368182 72.167011 
L 191.592414 85.595549 
L 191.816645 81.261158 
L 192.040877 68.505838 
L 192.265109 76.193374 
L 192.48934 71.31919 
L 192.713572 72.624475 
L 192.937803 69.557269 
L 193.162035 82.513411 
L 193.386267 70.152067 
L 193.610498 79.396957 
L 193.83473 73.850924 
L 194.058961 71.763668 
L 194.283193 78.415603 
L 194.507425 75.324537 
L 194.731656 73.802275 
L 194.955888 87.801868 
L 195.404351 72.819184 
L 195.628583 80.44721 
L 195.852814 76.773912 
L 195.852814 76.773912 
" clip-path="url(#pfced64776b)" style="fill: none; stroke: #808080; stroke-width: 0.8; stroke-linecap: square"/>
   </g>
   <g id="line2d_9">
    <path d="M 61.762316 61.321162 
L 61.986548 67.805965 
L 62.210779 65.293362 
L 62.435011 61.39575 
L 62.659242 64.017257 
L 62.883474 58.077691 
L 63.107706 69.292315 
L 63.331937 61.292371 
L 63.556169 65.10352 
L 63.7804 64.259144 
L 64.004632 62.919971 
L 64.228864 67.585751 
L 64.453095 69.083759 
L 64.677327 61.879309 
L 64.901558 70.803843 
L 65.350022 64.67619 
L 65.574253 73.417725 
L 65.798485 72.985848 
L 66.246948 66.799308 
L 66.47118 62.443041 
L 66.695411 72.359905 
L 66.919643 66.640188 
L 67.143874 72.881326 
L 67.368106 67.355328 
L 67.592338 68.288211 
L 67.816569 63.417394 
L 68.040801 70.803678 
L 68.265032 66.770347 
L 68.489264 67.187538 
L 68.937727 72.685176 
L 69.161959 71.615561 
L 69.386191 64.29745 
L 69.610422 72.842296 
L 69.834654 75.736245 
L 70.058885 50.50184 
L 70.283117 65.478532 
L 70.507349 72.11461 
L 70.73158 67.463942 
L 70.955812 71.002606 
L 71.180043 69.601336 
L 71.404275 72.723575 
L 71.628507 71.48307 
L 71.852738 65.531423 
L 72.07697 70.52562 
L 72.301201 81.780356 
L 72.525433 69.595946 
L 72.749665 69.615475 
L 72.973896 68.475901 
L 73.198128 66.351238 
L 73.422359 70.392389 
L 73.646591 68.990506 
L 73.870823 76.036913 
L 74.095054 68.797652 
L 74.319286 85.391937 
L 74.543517 74.307705 
L 74.767749 76.319534 
L 74.991981 73.740544 
L 75.216212 75.983259 
L 75.440444 74.769562 
L 75.664675 72.129691 
L 75.888907 71.337756 
L 76.113139 73.562305 
L 76.33737 68.348188 
L 76.561602 94.539776 
L 76.785833 77.984122 
L 77.010065 85.564991 
L 77.234297 76.36779 
L 77.68276 73.263431 
L 77.906991 75.314904 
L 78.131223 75.314657 
L 78.355455 77.925729 
L 78.579686 75.360615 
L 78.803918 74.256416 
L 79.028149 74.824528 
L 79.252381 73.2611 
L 79.476613 75.537273 
L 79.700844 70.310845 
L 79.925076 68.870889 
L 80.149307 73.14045 
L 80.373539 81.171988 
L 80.597771 73.437776 
L 80.822002 73.00328 
L 81.046234 84.64771 
L 81.270465 84.317633 
L 81.494697 82.747534 
L 81.718929 74.445781 
L 81.94316 73.35016 
L 82.167392 75.849095 
L 82.391623 71.761725 
L 82.615855 86.772921 
L 82.840087 79.611832 
L 83.064318 81.677366 
L 83.28855 73.935705 
L 83.512781 73.970033 
L 83.961245 80.225212 
L 84.185476 80.467061 
L 84.409708 74.816382 
L 84.633939 73.753382 
L 84.858171 75.427735 
L 85.082403 83.388591 
L 85.306634 82.007051 
L 85.530866 84.677484 
L 85.755097 85.329764 
L 85.979329 73.167046 
L 86.203561 87.879812 
L 86.427792 78.612733 
L 86.652024 81.018675 
L 86.876255 82.016585 
L 87.100487 84.385866 
L 87.324719 79.394552 
L 87.773182 76.717259 
L 87.997414 87.260362 
L 88.221645 77.841909 
L 88.445877 87.040922 
L 88.670108 88.266603 
L 88.89434 81.208416 
L 89.342803 78.249166 
L 89.567035 82.684748 
L 89.791266 80.44271 
L 90.015498 87.361613 
L 90.463961 81.641189 
L 90.688193 80.98412 
L 90.912424 76.500912 
L 91.136656 91.757872 
L 91.585119 74.080961 
L 91.809351 88.026995 
L 92.033582 81.453072 
L 92.482046 86.941224 
L 92.706277 76.219327 
L 92.930509 81.166114 
L 93.15474 78.636134 
L 93.378972 78.712875 
L 93.603204 76.293123 
L 93.827435 82.445333 
L 94.051667 81.500427 
L 94.275898 75.975152 
L 94.50013 81.83618 
L 94.948593 77.754676 
L 95.172825 84.7843 
L 95.397056 85.705829 
L 95.621288 80.001031 
L 95.84552 86.200963 
L 96.069751 83.60784 
L 96.293983 85.334537 
L 96.518214 82.435615 
L 96.742446 83.597253 
L 96.966678 79.472133 
L 97.190909 92.011997 
L 97.415141 76.987417 
L 97.639372 81.433643 
L 97.863604 81.633772 
L 98.087836 87.266225 
L 98.312067 83.238741 
L 98.536299 84.458429 
L 98.76053 80.849018 
L 98.984762 75.28495 
L 99.208994 90.130754 
L 99.433225 81.477924 
L 99.657457 84.3876 
L 99.881688 82.341258 
L 100.10592 86.425473 
L 100.330152 81.812133 
L 100.554383 85.232566 
L 100.778615 92.025408 
L 101.002846 83.103401 
L 101.227078 82.093052 
L 101.45131 83.832631 
L 101.675541 83.537431 
L 101.899773 102.951668 
L 102.124004 90.884525 
L 102.348236 88.238435 
L 102.572468 77.646073 
L 103.245162 87.741431 
L 103.469394 86.822079 
L 103.693626 79.637297 
L 103.917857 81.536648 
L 104.36632 92.473125 
L 104.590552 87.068543 
L 105.039015 84.4978 
L 105.263247 78.604293 
L 105.487478 96.534011 
L 105.71171 93.095966 
L 106.160173 84.111365 
L 106.384405 87.711073 
L 106.608637 85.491555 
L 106.832868 79.133149 
L 107.0571 80.834802 
L 107.281331 85.96536 
L 107.505563 94.592442 
L 107.729795 90.871094 
L 107.954026 96.616685 
L 108.178258 84.018661 
L 108.402489 83.253115 
L 108.626721 87.082826 
L 108.850953 87.950991 
L 109.075184 96.435973 
L 109.299416 88.490018 
L 109.523647 85.059617 
L 109.747879 86.101255 
L 109.972111 86.492387 
L 110.196342 87.471402 
L 110.420574 81.022607 
L 110.644805 87.536105 
L 110.869037 86.502166 
L 111.093269 92.826637 
L 111.3175 80.854554 
L 111.541732 81.824351 
L 111.990195 88.515093 
L 112.214427 80.131919 
L 112.438658 88.882274 
L 112.66289 84.845153 
L 112.887121 86.002875 
L 113.111353 85.883433 
L 113.335585 90.491239 
L 113.559816 83.902472 
L 113.784048 82.633087 
L 114.008279 87.754937 
L 114.456743 91.883565 
L 114.680974 83.148283 
L 114.905206 85.142748 
L 115.129437 79.511859 
L 115.577901 88.009071 
L 115.802132 81.42791 
L 116.026364 87.557932 
L 116.250595 83.029678 
L 116.474827 93.105008 
L 116.699059 90.739403 
L 116.92329 83.68569 
L 117.147522 99.392928 
L 117.371753 85.6204 
L 117.595985 80.755494 
L 117.820217 86.647052 
L 118.044448 87.137736 
L 118.26868 91.78064 
L 118.492911 84.125774 
L 118.717143 91.152128 
L 118.941375 92.22001 
L 119.165606 82.986347 
L 119.389838 83.019901 
L 119.614069 89.30693 
L 119.838301 89.726924 
L 120.062533 85.691581 
L 120.286764 87.403068 
L 120.510996 83.150084 
L 120.735227 85.043285 
L 120.959459 89.78012 
L 121.183691 98.872496 
L 121.632154 85.699343 
L 121.856385 93.426752 
L 122.080617 91.868143 
L 122.304849 88.00514 
L 122.52908 89.765112 
L 122.753312 95.186682 
L 122.977543 88.702437 
L 123.201775 87.964643 
L 123.426007 92.66782 
L 123.650238 89.570029 
L 123.87447 90.790373 
L 124.098701 89.853895 
L 124.322933 95.001389 
L 124.547165 94.728672 
L 124.995628 85.649449 
L 125.219859 89.31746 
L 125.444091 88.680854 
L 125.668323 98.036989 
L 125.892554 88.074419 
L 126.116786 94.683354 
L 126.341018 90.761031 
L 126.565249 95.107003 
L 126.789481 86.164853 
L 127.013712 86.33744 
L 127.237944 88.609355 
L 127.462176 101.406875 
L 127.686407 97.204173 
L 127.910639 90.80728 
L 128.13487 97.111443 
L 128.359102 92.388697 
L 128.583334 85.057795 
L 128.807565 90.599891 
L 129.031797 83.977115 
L 129.256028 87.216534 
L 129.48026 92.357553 
L 129.704492 85.303103 
L 129.928723 88.659965 
L 130.152955 87.522954 
L 130.377186 87.64385 
L 130.601418 100.951629 
L 130.82565 88.987223 
L 131.049881 85.578452 
L 131.274113 99.223414 
L 131.498344 90.873588 
L 131.722576 92.547284 
L 131.946808 90.162657 
L 132.171039 91.167302 
L 132.395271 84.991121 
L 132.619502 91.233031 
L 132.843734 87.361423 
L 133.067966 87.771163 
L 133.292197 107.877857 
L 133.516429 93.435894 
L 133.74066 89.547636 
L 133.964892 97.612014 
L 134.189124 88.530284 
L 134.413355 87.306831 
L 134.637587 88.524654 
L 134.861818 86.232361 
L 135.08605 97.557935 
L 135.534513 91.754686 
L 135.758745 100.17024 
L 135.982976 93.044333 
L 136.207208 90.872011 
L 136.43144 95.401894 
L 136.879903 83.67581 
L 137.328366 105.426804 
L 137.552598 101.287583 
L 137.776829 95.037341 
L 138.001061 101.50271 
L 138.225292 91.360125 
L 138.449524 94.191053 
L 138.673756 100.211109 
L 139.122219 92.860744 
L 139.34645 93.762689 
L 139.570682 91.658688 
L 139.794914 100.141296 
L 140.019145 99.835369 
L 140.243377 89.316735 
L 140.467608 87.844822 
L 140.69184 96.594617 
L 140.916072 90.745911 
L 141.364535 100.906762 
L 141.588766 90.963458 
L 141.812998 96.879037 
L 142.261461 92.137924 
L 142.485693 92.782354 
L 142.709924 88.037826 
L 143.158388 103.548465 
L 143.382619 85.679999 
L 143.606851 91.947277 
L 143.831082 92.022173 
L 144.055314 100.99598 
L 144.279546 85.982774 
L 144.728009 103.599495 
L 145.176472 92.826463 
L 145.400704 92.699683 
L 145.624935 86.060538 
L 145.849167 88.315271 
L 146.073399 84.940622 
L 146.521862 98.420244 
L 146.746093 90.685962 
L 146.970325 100.30132 
L 147.194557 90.953143 
L 147.418788 91.754508 
L 147.64302 100.001289 
L 147.867251 93.138416 
L 148.091483 96.239065 
L 148.315715 96.160231 
L 148.539946 95.383277 
L 148.764178 95.586489 
L 148.988409 93.847133 
L 149.212641 86.368228 
L 149.661104 95.544406 
L 149.885336 90.382183 
L 150.109567 93.412497 
L 150.333799 93.812884 
L 150.558031 96.67951 
L 150.782262 97.267165 
L 151.006494 90.040432 
L 151.230725 95.752322 
L 151.454957 93.1226 
L 151.679189 96.854805 
L 151.90342 95.597915 
L 152.127652 91.707981 
L 152.351883 97.710842 
L 152.576115 98.441288 
L 152.800347 93.910729 
L 153.024578 92.340702 
L 153.24881 94.002442 
L 153.473041 99.790434 
L 153.697273 97.308355 
L 153.921505 101.666504 
L 154.145736 92.400007 
L 154.369968 91.341446 
L 154.818431 95.184867 
L 155.042663 104.39405 
L 155.266894 87.654715 
L 155.491126 93.554782 
L 155.715357 88.344117 
L 155.939589 91.507461 
L 156.163821 99.019412 
L 156.388052 96.615406 
L 156.612284 92.989641 
L 156.836515 92.459938 
L 157.060747 98.357032 
L 157.50921 93.400567 
L 157.733442 92.735101 
L 157.957673 100.578992 
L 158.406137 92.387492 
L 158.630368 96.789906 
L 158.8546 89.554154 
L 159.078831 99.975318 
L 159.303063 90.973515 
L 159.751526 100.021765 
L 159.975758 92.876816 
L 160.199989 95.459193 
L 160.648453 90.554508 
L 160.872684 107.92228 
L 161.321147 96.694328 
L 161.545379 100.463235 
L 161.769611 96.393719 
L 162.218074 97.654266 
L 162.442305 92.564461 
L 162.666537 94.718334 
L 162.890769 104.560505 
L 163.115 92.569462 
L 163.339232 109.624319 
L 163.563464 96.98545 
L 163.787695 100.859675 
L 164.011927 91.198299 
L 164.236158 95.332257 
L 164.46039 93.326493 
L 164.684622 93.485009 
L 164.908853 95.815584 
L 165.133085 88.659235 
L 165.357316 95.360496 
L 165.581548 93.09315 
L 165.80578 103.114056 
L 166.030011 101.344416 
L 166.254243 92.626467 
L 166.478474 98.646039 
L 166.702706 89.060933 
L 166.926938 93.109718 
L 167.151169 107.782052 
L 167.375401 96.597818 
L 167.599632 95.450082 
L 167.823864 93.716243 
L 168.048096 94.702914 
L 168.496559 103.560507 
L 168.72079 98.650777 
L 168.945022 97.383575 
L 169.169254 109.19216 
L 169.393485 95.842673 
L 169.617717 92.234708 
L 170.06618 101.77833 
L 170.290412 90.543333 
L 170.514643 100.775115 
L 170.738875 102.158369 
L 170.963106 95.067191 
L 171.187338 94.653729 
L 171.41157 91.906262 
L 171.635801 103.687913 
L 171.860033 95.833562 
L 172.084264 96.852045 
L 172.308496 95.636958 
L 172.532728 112.478923 
L 172.756959 96.495876 
L 172.981191 95.038857 
L 173.205422 102.78306 
L 173.429654 92.743912 
L 173.653886 94.077094 
L 174.102349 100.612574 
L 174.32658 99.621348 
L 174.550812 101.242116 
L 174.999275 97.215121 
L 175.223507 104.028157 
L 175.447738 95.539928 
L 175.67197 97.732765 
L 175.896202 96.94187 
L 176.120433 104.39436 
L 176.344665 98.934994 
L 176.568896 96.648892 
L 176.793128 102.270634 
L 177.01736 94.089643 
L 177.241591 94.242921 
L 177.465823 95.653842 
L 177.690054 95.59128 
L 177.914286 109.815446 
L 178.138518 92.737019 
L 178.586981 101.882171 
L 178.811212 96.436974 
L 179.035444 103.083198 
L 179.259676 97.920507 
L 179.483907 105.278794 
L 179.708139 94.582634 
L 179.93237 100.415903 
L 180.156602 98.502648 
L 180.380834 93.928433 
L 180.829297 99.9479 
L 181.053528 95.076952 
L 181.27776 101.669835 
L 181.501992 101.568469 
L 181.726223 96.472048 
L 181.950455 95.852827 
L 182.174687 108.19918 
L 182.398918 92.469139 
L 182.847381 97.454892 
L 183.071613 97.069078 
L 183.295845 100.514806 
L 183.520076 94.143795 
L 183.744308 106.356601 
L 183.968539 97.339396 
L 184.192771 98.670557 
L 184.417003 93.114459 
L 185.089697 102.012946 
L 185.313929 121.529297 
L 185.538161 115.163139 
L 185.762392 101.27194 
L 185.986624 101.607682 
L 186.210855 96.053973 
L 186.435087 98.622159 
L 186.659319 110.231701 
L 187.107782 100.629721 
L 187.332013 108.514087 
L 187.556245 92.321975 
L 188.004708 98.625862 
L 188.22894 97.63611 
L 188.453171 93.171766 
L 188.677403 99.48627 
L 188.901635 93.144326 
L 189.125866 96.946627 
L 189.350098 95.935522 
L 189.574329 106.945152 
L 189.798561 98.069711 
L 190.022793 94.972301 
L 190.247024 100.107874 
L 190.471256 98.185617 
L 190.695487 106.194292 
L 190.919719 93.765371 
L 191.143951 97.011349 
L 191.368182 97.871876 
L 191.592414 94.660353 
L 191.816645 100.543964 
L 192.040877 100.048639 
L 192.48934 107.67431 
L 192.937803 96.077383 
L 193.162035 93.259021 
L 193.386267 100.000269 
L 193.610498 96.614528 
L 193.83473 102.355002 
L 194.058961 99.381583 
L 194.283193 101.596763 
L 194.507425 109.855773 
L 194.955888 96.650972 
L 195.180119 97.788672 
L 195.404351 102.191449 
L 195.628583 95.546905 
L 195.852814 97.74909 
L 195.852814 97.74909 
" clip-path="url(#pfced64776b)" style="fill: none; stroke: #1e90ff; stroke-width: 0.8; stroke-linecap: square"/>
   </g>
   <g id="line2d_10">
    <path d="M 61.762316 61.377483 
L 61.986548 67.810124 
L 62.435011 61.338936 
L 62.659242 63.97956 
L 62.883474 58.080118 
L 63.107706 69.392836 
L 63.331937 61.363781 
L 63.556169 65.119415 
L 64.004632 62.862534 
L 64.228864 67.590914 
L 64.453095 68.916428 
L 64.677327 61.835973 
L 64.901558 70.71533 
L 65.350022 64.575193 
L 65.574253 73.217693 
L 65.798485 73.240421 
L 66.47118 62.350478 
L 66.695411 72.481477 
L 66.919643 66.671029 
L 67.143874 72.756771 
L 67.368106 67.374206 
L 67.592338 68.288192 
L 67.816569 63.435481 
L 68.040801 70.75169 
L 68.265032 66.693525 
L 68.489264 67.298418 
L 68.937727 72.763408 
L 69.161959 71.45673 
L 69.386191 64.303368 
L 69.610422 73.082649 
L 69.834654 75.459615 
L 70.058885 50.484739 
L 70.283117 65.553479 
L 70.507349 72.225586 
L 70.73158 67.481324 
L 70.955812 71.118054 
L 71.180043 69.556325 
L 71.404275 72.591901 
L 71.628507 71.425848 
L 71.852738 65.461412 
L 72.07697 70.856026 
L 72.301201 81.568324 
L 72.525433 69.400104 
L 72.749665 69.625715 
L 72.973896 68.422679 
L 73.198128 66.325347 
L 73.422359 70.529723 
L 73.646591 68.901055 
L 73.870823 75.952742 
L 74.095054 68.799986 
L 74.319286 85.321024 
L 74.543517 74.024574 
L 74.767749 76.127895 
L 74.991981 73.788581 
L 75.216212 76.184662 
L 75.888907 71.077542 
L 76.113139 73.56272 
L 76.33737 68.265592 
L 76.561602 95.176985 
L 76.785833 77.243091 
L 77.010065 86.128603 
L 77.234297 76.344421 
L 77.68276 73.408141 
L 77.906991 75.153602 
L 78.131223 75.427313 
L 78.355455 77.566376 
L 78.579686 75.343441 
L 78.803918 74.261913 
L 79.028149 74.924801 
L 79.252381 73.03115 
L 79.476613 75.448193 
L 79.700844 70.290864 
L 79.925076 68.833552 
L 80.149307 73.188899 
L 80.373539 81.511913 
L 80.597771 73.336395 
L 80.822002 73.075849 
L 81.046234 83.697615 
L 81.270465 84.683146 
L 81.494697 82.949767 
L 81.718929 74.183405 
L 81.94316 73.259738 
L 82.167392 75.594379 
L 82.391623 71.759594 
L 82.615855 86.630427 
L 82.840087 80.00976 
L 83.064318 82.11493 
L 83.28855 73.9467 
L 83.512781 73.948531 
L 83.961245 80.548851 
L 84.185476 80.603482 
L 84.409708 74.848607 
L 84.633939 73.764279 
L 84.858171 75.383173 
L 85.082403 83.416993 
L 85.306634 81.838214 
L 85.530866 84.655097 
L 85.755097 85.449574 
L 85.979329 73.21062 
L 86.203561 87.026668 
L 86.427792 78.187331 
L 86.652024 80.879868 
L 87.100487 84.028745 
L 87.324719 79.459097 
L 87.54895 78.197321 
L 87.773182 76.249756 
L 87.997414 87.088829 
L 88.221645 77.828899 
L 88.445877 87.612934 
L 88.670108 88.181942 
L 88.89434 80.968226 
L 89.342803 78.418797 
L 89.567035 82.232114 
L 89.791266 79.962225 
L 90.015498 87.394331 
L 90.463961 81.605706 
L 90.688193 80.595104 
L 90.912424 76.512831 
L 91.136656 90.824111 
L 91.585119 73.936329 
L 91.809351 87.763716 
L 92.033582 80.890878 
L 92.257814 84.34706 
L 92.482046 86.028694 
L 92.706277 76.146542 
L 92.930509 81.002146 
L 93.15474 78.874175 
L 93.378972 78.776936 
L 93.603204 76.380034 
L 93.827435 82.311907 
L 94.051667 81.394186 
L 94.275898 75.836715 
L 94.50013 81.544901 
L 94.948593 77.852873 
L 95.172825 85.011295 
L 95.397056 85.482533 
L 95.621288 80.033852 
L 95.84552 85.629471 
L 96.069751 84.373353 
L 96.293983 86.476897 
L 96.518214 82.045871 
L 96.742446 83.88033 
L 96.966678 80.534957 
L 97.190909 92.661955 
L 97.415141 76.464515 
L 97.639372 81.725643 
L 97.863604 81.187605 
L 98.087836 88.991658 
L 98.312067 81.927686 
L 98.536299 84.993389 
L 98.984762 75.666629 
L 99.208994 91.396958 
L 99.433225 81.670257 
L 99.657457 84.050095 
L 99.881688 81.283645 
L 100.10592 87.241833 
L 100.330152 82.130974 
L 100.554383 85.019958 
L 100.778615 89.960134 
L 101.002846 83.96642 
L 101.227078 81.833957 
L 101.45131 83.000807 
L 101.675541 83.492802 
L 101.899773 104.301701 
L 102.124004 92.066313 
L 102.348236 93.130499 
L 102.572468 77.709288 
L 103.020931 84.007659 
L 103.245162 87.49052 
L 103.469394 88.37949 
L 103.693626 79.617451 
L 103.917857 80.928489 
L 104.36632 91.35539 
L 105.039015 84.812839 
L 105.263247 78.750714 
L 105.487478 94.201136 
L 105.71171 93.280995 
L 105.935942 86.760475 
L 106.160173 84.827669 
L 106.608637 88.731396 
L 106.832868 79.728118 
L 107.281331 86.249941 
L 107.729795 96.754619 
L 107.954026 97.106049 
L 108.178258 85.522104 
L 108.402489 83.674891 
L 108.626721 87.090657 
L 108.850953 87.949023 
L 109.075184 103.047961 
L 109.523647 85.519019 
L 109.747879 87.472455 
L 109.972111 85.032535 
L 110.196342 88.91668 
L 110.420574 81.466817 
L 110.644805 87.527203 
L 110.869037 85.622701 
L 111.093269 96.984162 
L 111.3175 81.486639 
L 111.541732 82.901558 
L 111.765963 86.721004 
L 111.990195 86.741751 
L 112.214427 80.842551 
L 112.438658 90.72246 
L 112.66289 87.932557 
L 112.887121 88.836558 
L 113.111353 85.14992 
L 113.335585 87.460508 
L 113.559816 84.461529 
L 113.784048 83.987464 
L 114.008279 88.727989 
L 114.232511 97.942126 
L 114.456743 92.524073 
L 114.680974 83.156287 
L 114.905206 85.488479 
L 115.129437 80.285128 
L 115.353669 86.63085 
L 115.577901 89.723723 
L 115.802132 82.947389 
L 116.026364 90.038639 
L 116.250595 84.268126 
L 116.474827 94.081009 
L 116.92329 85.248463 
L 117.147522 97.110586 
L 117.595985 81.440115 
L 117.820217 83.566693 
L 118.26868 93.559389 
L 118.492911 85.25566 
L 118.941375 96.463635 
L 119.165606 83.774569 
L 119.614069 87.759817 
L 119.838301 87.886955 
L 120.286764 86.715946 
L 120.510996 84.846923 
L 120.735227 85.799631 
L 120.959459 90.005328 
L 121.183691 97.169389 
L 121.407922 94.437487 
L 121.632154 85.077332 
L 121.856385 95.948245 
L 122.304849 90.152467 
L 122.52908 92.576698 
L 122.753312 91.594477 
L 122.977543 89.702315 
L 123.201775 89.134448 
L 123.426007 92.021637 
L 123.650238 92.781044 
L 123.87447 91.938671 
L 124.098701 91.845488 
L 124.322933 93.562174 
L 124.547165 93.213481 
L 124.771396 90.838204 
L 124.995628 86.335041 
L 125.219859 91.51707 
L 125.444091 88.546956 
L 125.668323 92.784118 
L 125.892554 90.247676 
L 126.116786 96.037627 
L 126.341018 94.340289 
L 126.565249 95.425217 
L 126.789481 86.728339 
L 127.013712 90.07551 
L 127.237944 89.861108 
L 127.686407 97.941365 
L 127.910639 93.057393 
L 128.13487 95.215937 
L 128.583334 85.393335 
L 128.807565 90.601772 
L 129.031797 84.548537 
L 129.256028 88.136008 
L 129.48026 98.557275 
L 129.704492 86.685356 
L 129.928723 88.049432 
L 130.152955 87.521323 
L 130.377186 88.29936 
L 130.601418 93.998261 
L 131.049881 85.073258 
L 131.274113 102.604253 
L 131.498344 94.810684 
L 131.722576 90.998942 
L 131.946808 91.062632 
L 132.171039 90.575061 
L 132.395271 83.961232 
L 132.619502 92.068498 
L 132.843734 88.548442 
L 133.067966 87.25134 
L 133.292197 110.326678 
L 133.516429 93.090852 
L 133.74066 90.294025 
L 133.964892 100.747383 
L 134.189124 89.33216 
L 134.413355 86.799776 
L 134.637587 89.077839 
L 134.861818 86.788604 
L 135.08605 102.775462 
L 135.534513 91.436807 
L 135.758745 99.495882 
L 136.207208 90.634576 
L 136.43144 97.091125 
L 136.879903 82.950002 
L 137.104134 98.305688 
L 137.328366 101.474999 
L 137.776829 95.310222 
L 138.001061 104.911942 
L 138.225292 92.959522 
L 138.449524 94.714022 
L 138.673756 101.7823 
L 138.897987 94.816464 
L 139.122219 91.566004 
L 139.570682 93.404839 
L 140.019145 103.527238 
L 140.243377 88.626384 
L 140.467608 88.050267 
L 140.69184 95.542958 
L 140.916072 90.305225 
L 141.364535 100.196425 
L 141.588766 90.368593 
L 141.812998 95.852703 
L 142.03723 94.796223 
L 142.261461 92.360472 
L 142.485693 93.006325 
L 142.709924 88.469713 
L 142.934156 95.962743 
L 143.158388 124.407273 
L 143.382619 85.786226 
L 143.606851 90.797977 
L 143.831082 91.455295 
L 144.055314 102.464461 
L 144.279546 85.62901 
L 144.728009 103.944411 
L 145.624935 86.215548 
L 145.849167 88.079979 
L 146.073399 84.683306 
L 146.521862 98.031704 
L 146.746093 90.828131 
L 146.970325 98.676733 
L 147.194557 90.555495 
L 147.418788 91.660298 
L 147.64302 101.583753 
L 147.867251 93.080974 
L 148.315715 96.532871 
L 148.539946 94.973723 
L 148.764178 96.304896 
L 148.988409 92.973141 
L 149.212641 86.006552 
L 149.661104 95.330964 
L 149.885336 90.026283 
L 150.109567 93.189884 
L 150.333799 93.422298 
L 150.558031 96.057978 
L 150.782262 96.415266 
L 151.006494 89.869708 
L 151.230725 95.134754 
L 151.454957 92.896474 
L 151.679189 97.062517 
L 152.127652 91.840612 
L 152.351883 98.356753 
L 152.576115 99.100073 
L 152.800347 93.42454 
L 153.024578 91.303899 
L 153.473041 97.712459 
L 153.697273 97.199324 
L 153.921505 99.500421 
L 154.145736 92.431215 
L 154.369968 91.592585 
L 154.594199 92.589274 
L 154.818431 94.989439 
L 155.042663 103.101496 
L 155.266894 87.755124 
L 155.491126 93.422722 
L 155.715357 88.424166 
L 155.939589 92.029137 
L 156.163821 99.665794 
L 156.836515 92.215703 
L 157.060747 97.599801 
L 157.50921 93.001783 
L 157.733442 92.294837 
L 157.957673 100.793441 
L 158.406137 91.885772 
L 158.630368 96.946584 
L 158.8546 90.115373 
L 159.078831 99.931384 
L 159.303063 90.520287 
L 159.751526 100.642175 
L 159.975758 93.432391 
L 160.199989 95.227527 
L 160.424221 93.782879 
L 160.648453 91.517817 
L 160.872684 104.092614 
L 161.096916 102.959307 
L 161.321147 95.955124 
L 161.545379 101.149086 
L 161.769611 97.475811 
L 161.993842 97.301176 
L 162.218074 98.067387 
L 162.442305 92.638367 
L 162.666537 96.695551 
L 162.890769 102.880028 
L 163.115 92.254009 
L 163.339232 107.236998 
L 163.563464 97.325786 
L 163.787695 103.38147 
L 164.011927 91.283592 
L 164.236158 97.847569 
L 164.46039 93.12966 
L 164.684622 93.701966 
L 164.908853 96.513201 
L 165.133085 89.197879 
L 165.357316 93.956862 
L 165.581548 93.433133 
L 165.80578 106.447947 
L 166.254243 92.973944 
L 166.478474 98.217082 
L 166.702706 89.949654 
L 166.926938 93.585083 
L 167.151169 106.783559 
L 167.375401 97.908057 
L 167.599632 94.957993 
L 167.823864 93.565248 
L 168.272327 101.998215 
L 168.496559 101.048959 
L 168.72079 103.6099 
L 168.945022 101.281915 
L 169.169254 112.057493 
L 169.393485 95.057092 
L 169.617717 93.197892 
L 169.841948 94.600807 
L 170.06618 100.601704 
L 170.290412 92.244932 
L 170.514643 100.111354 
L 170.738875 99.082989 
L 171.187338 93.528698 
L 171.41157 94.243973 
L 171.635801 102.392391 
L 171.860033 105.295819 
L 172.084264 95.069474 
L 172.308496 94.0072 
L 172.532728 106.999051 
L 172.756959 95.328279 
L 172.981191 93.401257 
L 173.205422 106.641114 
L 173.429654 95.25696 
L 173.653886 94.18962 
L 173.878117 104.909409 
L 174.102349 99.273032 
L 174.550812 106.189303 
L 174.775044 98.486666 
L 174.999275 101.291379 
L 175.223507 112.561309 
L 175.447738 92.870297 
L 175.67197 98.862225 
L 175.896202 94.064576 
L 176.120433 99.864167 
L 176.344665 99.01716 
L 176.568896 94.346264 
L 176.793128 99.130306 
L 177.01736 95.211237 
L 177.241591 95.439231 
L 177.465823 96.979579 
L 177.690054 95.010015 
L 177.914286 102.948856 
L 178.138518 93.262878 
L 178.586981 97.400626 
L 178.811212 93.816892 
L 179.259676 103.653264 
L 179.483907 102.253123 
L 179.708139 96.162042 
L 179.93237 100.67297 
L 180.156602 96.476396 
L 180.380834 95.044393 
L 180.829297 103.102544 
L 181.053528 95.525367 
L 181.501992 105.488222 
L 181.950455 94.690542 
L 182.174687 101.2337 
L 182.398918 94.859155 
L 182.62315 96.619784 
L 182.847381 97.412565 
L 183.071613 101.14066 
L 183.295845 100.783757 
L 183.520076 96.292679 
L 183.744308 103.641456 
L 183.968539 99.552355 
L 184.192771 107.387088 
L 184.417003 94.186527 
L 185.313929 109.635636 
L 185.538161 101.622335 
L 185.762392 99.785729 
L 185.986624 103.116398 
L 186.210855 95.599646 
L 186.88355 104.09985 
L 187.107782 100.335473 
L 187.332013 116.337873 
L 187.556245 93.894351 
L 188.004708 98.682544 
L 188.22894 98.466061 
L 188.453171 94.710328 
L 188.677403 97.926263 
L 188.901635 95.526595 
L 189.125866 98.174416 
L 189.350098 95.918155 
L 189.574329 107.377834 
L 189.798561 96.497926 
L 190.022793 96.393271 
L 190.247024 99.754617 
L 190.471256 100.132854 
L 190.695487 104.456791 
L 190.919719 93.0483 
L 191.143951 98.186424 
L 191.368182 99.555617 
L 191.592414 94.836383 
L 192.040877 102.8872 
L 192.265109 109.79984 
L 192.48934 102.89514 
L 192.713572 103.159793 
L 193.162035 92.831208 
L 193.386267 98.880979 
L 193.610498 98.067284 
L 193.83473 102.123295 
L 194.283193 97.268513 
L 194.507425 115.009079 
L 194.731656 100.682665 
L 194.955888 98.504483 
L 195.180119 98.01126 
L 195.404351 101.037661 
L 195.628583 95.988577 
L 195.852814 97.766774 
L 195.852814 97.766774 
" clip-path="url(#pfced64776b)" style="fill: none; stroke: #ff0000; stroke-width: 0.8; stroke-linecap: square"/>
   </g>
   <g id="patch_3">
    <path d="M 59.52 129.12 
L 59.52 25.44 
" style="fill: none; stroke: #000000; stroke-width: 0.8; stroke-linejoin: miter; stroke-linecap: square"/>
   </g>
   <g id="patch_4">
    <path d="M 198.319362 129.12 
L 198.319362 25.44 
" style="fill: none; stroke: #000000; stroke-width: 0.8; stroke-linejoin: miter; stroke-linecap: square"/>
   </g>
   <g id="patch_5">
    <path d="M 59.52 129.12 
L 198.319362 129.12 
" style="fill: none; stroke: #000000; stroke-width: 0.8; stroke-linejoin: miter; stroke-linecap: square"/>
   </g>
   <g id="patch_6">
    <path d="M 59.52 25.44 
L 198.319362 25.44 
" style="fill: none; stroke: #000000; stroke-width: 0.8; stroke-linejoin: miter; stroke-linecap: square"/>
   </g>
   <g id="text_10">
    <!-- Frequency Domain Plot -->
    <g transform="translate(59.520306 19.44) scale(0.12 -0.12)">
     <defs>
      <path id="DejaVuSans-44" d="M 1259 4147 
L 1259 519 
L 2022 519 
Q 2988 519 3436 956 
Q 3884 1394 3884 2338 
Q 3884 3275 3436 3711 
Q 2988 4147 2022 4147 
L 1259 4147 
z
M 628 4666 
L 1925 4666 
Q 3281 4666 3915 4102 
Q 4550 3538 4550 2338 
Q 4550 1131 3912 565 
Q 3275 0 1925 0 
L 628 0 
L 628 4666 
z
" transform="scale(0.015625)"/>
      <path id="DejaVuSans-6d" d="M 3328 2828 
Q 3544 3216 3844 3400 
Q 4144 3584 4550 3584 
Q 5097 3584 5394 3201 
Q 5691 2819 5691 2113 
L 5691 0 
L 5113 0 
L 5113 2094 
Q 5113 2597 4934 2840 
Q 4756 3084 4391 3084 
Q 3944 3084 3684 2787 
Q 3425 2491 3425 1978 
L 3425 0 
L 2847 0 
L 2847 2094 
Q 2847 2600 2669 2842 
Q 2491 3084 2119 3084 
Q 1678 3084 1418 2786 
Q 1159 2488 1159 1978 
L 1159 0 
L 581 0 
L 581 3500 
L 1159 3500 
L 1159 2956 
Q 1356 3278 1631 3431 
Q 1906 3584 2284 3584 
Q 2666 3584 2933 3390 
Q 3200 3197 3328 2828 
z
" transform="scale(0.015625)"/>
      <path id="DejaVuSans-61" d="M 2194 1759 
Q 1497 1759 1228 1600 
Q 959 1441 959 1056 
Q 959 750 1161 570 
Q 1363 391 1709 391 
Q 2188 391 2477 730 
Q 2766 1069 2766 1631 
L 2766 1759 
L 2194 1759 
z
M 3341 1997 
L 3341 0 
L 2766 0 
L 2766 531 
Q 2569 213 2275 61 
Q 1981 -91 1556 -91 
Q 1019 -91 701 211 
Q 384 513 384 1019 
Q 384 1609 779 1909 
Q 1175 2209 1959 2209 
L 2766 2209 
L 2766 2266 
Q 2766 2663 2505 2880 
Q 2244 3097 1772 3097 
Q 1472 3097 1187 3025 
Q 903 2953 641 2809 
L 641 3341 
Q 956 3463 1253 3523 
Q 1550 3584 1831 3584 
Q 2591 3584 2966 3190 
Q 3341 2797 3341 1997 
z
" transform="scale(0.015625)"/>
      <path id="DejaVuSans-69" d="M 603 3500 
L 1178 3500 
L 1178 0 
L 603 0 
L 603 3500 
z
M 603 4863 
L 1178 4863 
L 1178 4134 
L 603 4134 
L 603 4863 
z
" transform="scale(0.015625)"/>
      <path id="DejaVuSans-50" d="M 1259 4147 
L 1259 2394 
L 2053 2394 
Q 2494 2394 2734 2622 
Q 2975 2850 2975 3272 
Q 2975 3691 2734 3919 
Q 2494 4147 2053 4147 
L 1259 4147 
z
M 628 4666 
L 2053 4666 
Q 2838 4666 3239 4311 
Q 3641 3956 3641 3272 
Q 3641 2581 3239 2228 
Q 2838 1875 2053 1875 
L 1259 1875 
L 1259 0 
L 628 0 
L 628 4666 
z
" transform="scale(0.015625)"/>
      <path id="DejaVuSans-6c" d="M 603 4863 
L 1178 4863 
L 1178 0 
L 603 0 
L 603 4863 
z
" transform="scale(0.015625)"/>
      <path id="DejaVuSans-74" d="M 1172 4494 
L 1172 3500 
L 2356 3500 
L 2356 3053 
L 1172 3053 
L 1172 1153 
Q 1172 725 1289 603 
Q 1406 481 1766 481 
L 2356 481 
L 2356 0 
L 1766 0 
Q 1100 0 847 248 
Q 594 497 594 1153 
L 594 3053 
L 172 3053 
L 172 3500 
L 594 3500 
L 594 4494 
L 1172 4494 
z
" transform="scale(0.015625)"/>
     </defs>
     <use xlink:href="#DejaVuSans-46"/>
     <use xlink:href="#DejaVuSans-72" x="50.269531"/>
     <use xlink:href="#DejaVuSans-65" x="89.132812"/>
     <use xlink:href="#DejaVuSans-71" x="150.65625"/>
     <use xlink:href="#DejaVuSans-75" x="214.132812"/>
     <use xlink:href="#DejaVuSans-65" x="277.511719"/>
     <use xlink:href="#DejaVuSans-6e" x="339.035156"/>
     <use xlink:href="#DejaVuSans-63" x="402.414062"/>
     <use xlink:href="#DejaVuSans-79" x="457.394531"/>
     <use xlink:href="#DejaVuSans-20" x="516.574219"/>
     <use xlink:href="#DejaVuSans-44" x="548.361328"/>
     <use xlink:href="#DejaVuSans-6f" x="625.363281"/>
     <use xlink:href="#DejaVuSans-6d" x="686.544922"/>
     <use xlink:href="#DejaVuSans-61" x="783.957031"/>
     <use xlink:href="#DejaVuSans-69" x="845.236328"/>
     <use xlink:href="#DejaVuSans-6e" x="873.019531"/>
     <use xlink:href="#DejaVuSans-20" x="936.398438"/>
     <use xlink:href="#DejaVuSans-50" x="968.185547"/>
     <use xlink:href="#DejaVuSans-6c" x="1028.488281"/>
     <use xlink:href="#DejaVuSans-6f" x="1056.271484"/>
     <use xlink:href="#DejaVuSans-74" x="1117.453125"/>
    </g>
   </g>
   <g id="legend_1">
    <g id="patch_7">
     <path d="M 19.980191 158.724 
L 50.848316 158.724 
Q 51.448316 158.724 51.448316 158.124 
L 51.448316 145.213687 
Q 51.448316 144.613687 50.848316 144.613687 
L 19.980191 144.613687 
Q 19.380191 144.613687 19.380191 145.213687 
L 19.380191 158.124 
Q 19.380191 158.724 19.980191 158.724 
z
" style="fill: #ffffff; opacity: 0.8; stroke: #cccccc; stroke-linejoin: miter"/>
    </g>
    <g id="line2d_11">
     <path d="M 20.580191 147.043219 
L 23.580191 147.043219 
L 26.580191 147.043219 
" style="fill: none; stroke: #808080; stroke-width: 0.8; stroke-linecap: square"/>
    </g>
    <g id="text_11">
     <!-- Contaminated -->
     <g transform="translate(28.980191 148.093219) scale(0.03 -0.03)">
      <defs>
       <path id="DejaVuSans-43" d="M 4122 4306 
L 4122 3641 
Q 3803 3938 3442 4084 
Q 3081 4231 2675 4231 
Q 1875 4231 1450 3742 
Q 1025 3253 1025 2328 
Q 1025 1406 1450 917 
Q 1875 428 2675 428 
Q 3081 428 3442 575 
Q 3803 722 4122 1019 
L 4122 359 
Q 3791 134 3420 21 
Q 3050 -91 2638 -91 
Q 1578 -91 968 557 
Q 359 1206 359 2328 
Q 359 3453 968 4101 
Q 1578 4750 2638 4750 
Q 3056 4750 3426 4639 
Q 3797 4528 4122 4306 
z
" transform="scale(0.015625)"/>
      </defs>
      <use xlink:href="#DejaVuSans-43"/>
      <use xlink:href="#DejaVuSans-6f" x="69.824219"/>
      <use xlink:href="#DejaVuSans-6e" x="131.005859"/>
      <use xlink:href="#DejaVuSans-74" x="194.384766"/>
      <use xlink:href="#DejaVuSans-61" x="233.59375"/>
      <use xlink:href="#DejaVuSans-6d" x="294.873047"/>
      <use xlink:href="#DejaVuSans-69" x="392.285156"/>
      <use xlink:href="#DejaVuSans-6e" x="420.068359"/>
      <use xlink:href="#DejaVuSans-61" x="483.447266"/>
      <use xlink:href="#DejaVuSans-74" x="544.726562"/>
      <use xlink:href="#DejaVuSans-65" x="583.935547"/>
      <use xlink:href="#DejaVuSans-64" x="645.458984"/>
     </g>
    </g>
    <g id="line2d_12">
     <path d="M 20.580191 151.446656 
L 23.580191 151.446656 
L 26.580191 151.446656 
" style="fill: none; stroke: #1e90ff; stroke-width: 0.8; stroke-linecap: square"/>
    </g>
    <g id="text_12">
     <!-- Clean -->
     <g transform="translate(28.980191 152.496656) scale(0.03 -0.03)">
      <use xlink:href="#DejaVuSans-43"/>
      <use xlink:href="#DejaVuSans-6c" x="69.824219"/>
      <use xlink:href="#DejaVuSans-65" x="97.607422"/>
      <use xlink:href="#DejaVuSans-61" x="159.130859"/>
      <use xlink:href="#DejaVuSans-6e" x="220.410156"/>
     </g>
    </g>
    <g id="line2d_13">
     <path d="M 20.580191 155.850094 
L 23.580191 155.850094 
L 26.580191 155.850094 
" style="fill: none; stroke: #ff0000; stroke-width: 0.8; stroke-linecap: square"/>
    </g>
    <g id="text_13">
     <!-- SACed -->
     <g transform="translate(28.980191 156.900094) scale(0.03 -0.03)">
      <defs>
       <path id="DejaVuSans-53" d="M 3425 4513 
L 3425 3897 
Q 3066 4069 2747 4153 
Q 2428 4238 2131 4238 
Q 1616 4238 1336 4038 
Q 1056 3838 1056 3469 
Q 1056 3159 1242 3001 
Q 1428 2844 1947 2747 
L 2328 2669 
Q 3034 2534 3370 2195 
Q 3706 1856 3706 1288 
Q 3706 609 3251 259 
Q 2797 -91 1919 -91 
Q 1588 -91 1214 -16 
Q 841 59 441 206 
L 441 856 
Q 825 641 1194 531 
Q 1563 422 1919 422 
Q 2459 422 2753 634 
Q 3047 847 3047 1241 
Q 3047 1584 2836 1778 
Q 2625 1972 2144 2069 
L 1759 2144 
Q 1053 2284 737 2584 
Q 422 2884 422 3419 
Q 422 4038 858 4394 
Q 1294 4750 2059 4750 
Q 2388 4750 2728 4690 
Q 3069 4631 3425 4513 
z
" transform="scale(0.015625)"/>
       <path id="DejaVuSans-41" d="M 2188 4044 
L 1331 1722 
L 3047 1722 
L 2188 4044 
z
M 1831 4666 
L 2547 4666 
L 4325 0 
L 3669 0 
L 3244 1197 
L 1141 1197 
L 716 0 
L 50 0 
L 1831 4666 
z
" transform="scale(0.015625)"/>
      </defs>
      <use xlink:href="#DejaVuSans-53"/>
      <use xlink:href="#DejaVuSans-41" x="65.351562"/>
      <use xlink:href="#DejaVuSans-43" x="132.009766"/>
      <use xlink:href="#DejaVuSans-65" x="201.833984"/>
      <use xlink:href="#DejaVuSans-64" x="263.357422"/>
     </g>
    </g>
   </g>
  </g>
 </g>
 <defs>
  <clipPath id="pfced64776b">
   <rect x="59.52" y="25.44" width="138.799362" height="103.68"/>
  </clipPath>
 </defs>
</svg>
