<?xml version="1.0" encoding="utf-8" standalone="no"?>
<!DOCTYPE svg PUBLIC "-//W3C//DTD SVG 1.1//EN"
  "http://www.w3.org/Graphics/SVG/1.1/DTD/svg11.dtd">
<svg xmlns:xlink="http://www.w3.org/1999/xlink" width="216pt" height="180pt" viewBox="0 0 216 180" xmlns="http://www.w3.org/2000/svg" version="1.1">
 <metadata>
  <rdf:RDF xmlns:dc="http://purl.org/dc/elements/1.1/" xmlns:cc="http://creativecommons.org/ns#" xmlns:rdf="http://www.w3.org/1999/02/22-rdf-syntax-ns#">
   <cc:Work>
    <dc:type rdf:resource="http://purl.org/dc/dcmitype/StillImage"/>
    <dc:date>2024-08-26T02:52:51.637942</dc:date>
    <dc:format>image/svg+xml</dc:format>
    <dc:creator>
     <cc:Agent>
      <dc:title>Matplotlib v3.9.1, https://matplotlib.org/</dc:title>
     </cc:Agent>
    </dc:creator>
   </cc:Work>
  </rdf:RDF>
 </metadata>
 <defs>
  <style type="text/css">*{stroke-linejoin: round; stroke-linecap: butt}</style>
 </defs>
 <g id="figure_1">
  <g id="patch_1">
   <path d="M 0 180 
L 216 180 
L 216 0 
L 0 0 
z
" style="fill: #ffffff"/>
  </g>
  <g id="axes_1">
   <g id="patch_2">
    <path d="M 59.52 129.12 
L 198.319362 129.12 
L 198.319362 25.44 
L 59.52 25.44 
z
" style="fill: #ffffff"/>
   </g>
   <g id="matplotlib.axis_1">
    <g id="xtick_1">
     <g id="line2d_1">
      <defs>
       <path id="mae705d6a16" d="M 0 0 
L 0 3.5 
" style="stroke: #000000; stroke-width: 0.8"/>
      </defs>
      <g>
       <use xlink:href="#mae705d6a16" x="61.538084" y="129.12" style="stroke: #000000; stroke-width: 0.8"/>
      </g>
     </g>
     <g id="text_1">
      <!-- 0 -->
      <g transform="translate(58.356834 143.718437) scale(0.1 -0.1)">
       <defs>
        <path id="DejaVuSans-30" d="M 2034 4250 
Q 1547 4250 1301 3770 
Q 1056 3291 1056 2328 
Q 1056 1369 1301 889 
Q 1547 409 2034 409 
Q 2525 409 2770 889 
Q 3016 1369 3016 2328 
Q 3016 3291 2770 3770 
Q 2525 4250 2034 4250 
z
M 2034 4750 
Q 2819 4750 3233 4129 
Q 3647 3509 3647 2328 
Q 3647 1150 3233 529 
Q 2819 -91 2034 -91 
Q 1250 -91 836 529 
Q 422 1150 422 2328 
Q 422 3509 836 4129 
Q 1250 4750 2034 4750 
z
" transform="scale(0.015625)"/>
       </defs>
       <use xlink:href="#DejaVuSans-30"/>
      </g>
     </g>
    </g>
    <g id="xtick_2">
     <g id="line2d_2">
      <g>
       <use xlink:href="#mae705d6a16" x="128.807565" y="129.12" style="stroke: #000000; stroke-width: 0.8"/>
      </g>
     </g>
     <g id="text_2">
      <!-- 150 -->
      <g transform="translate(119.263815 143.718437) scale(0.1 -0.1)">
       <defs>
        <path id="DejaVuSans-31" d="M 794 531 
L 1825 531 
L 1825 4091 
L 703 3866 
L 703 4441 
L 1819 4666 
L 2450 4666 
L 2450 531 
L 3481 531 
L 3481 0 
L 794 0 
L 794 531 
z
" transform="scale(0.015625)"/>
        <path id="DejaVuSans-35" d="M 691 4666 
L 3169 4666 
L 3169 4134 
L 1269 4134 
L 1269 2991 
Q 1406 3038 1543 3061 
Q 1681 3084 1819 3084 
Q 2600 3084 3056 2656 
Q 3513 2228 3513 1497 
Q 3513 744 3044 326 
Q 2575 -91 1722 -91 
Q 1428 -91 1123 -41 
Q 819 9 494 109 
L 494 744 
Q 775 591 1075 516 
Q 1375 441 1709 441 
Q 2250 441 2565 725 
Q 2881 1009 2881 1497 
Q 2881 1984 2565 2268 
Q 2250 2553 1709 2553 
Q 1456 2553 1204 2497 
Q 953 2441 691 2322 
L 691 4666 
z
" transform="scale(0.015625)"/>
       </defs>
       <use xlink:href="#DejaVuSans-31"/>
       <use xlink:href="#DejaVuSans-35" x="63.623047"/>
       <use xlink:href="#DejaVuSans-30" x="127.246094"/>
      </g>
     </g>
    </g>
    <g id="xtick_3">
     <g id="line2d_3">
      <g>
       <use xlink:href="#mae705d6a16" x="196.077046" y="129.12" style="stroke: #000000; stroke-width: 0.8"/>
      </g>
     </g>
     <g id="text_3">
      <!-- 300 -->
      <g transform="translate(186.533296 143.718437) scale(0.1 -0.1)">
       <defs>
        <path id="DejaVuSans-33" d="M 2597 2516 
Q 3050 2419 3304 2112 
Q 3559 1806 3559 1356 
Q 3559 666 3084 287 
Q 2609 -91 1734 -91 
Q 1441 -91 1130 -33 
Q 819 25 488 141 
L 488 750 
Q 750 597 1062 519 
Q 1375 441 1716 441 
Q 2309 441 2620 675 
Q 2931 909 2931 1356 
Q 2931 1769 2642 2001 
Q 2353 2234 1838 2234 
L 1294 2234 
L 1294 2753 
L 1863 2753 
Q 2328 2753 2575 2939 
Q 2822 3125 2822 3475 
Q 2822 3834 2567 4026 
Q 2313 4219 1838 4219 
Q 1578 4219 1281 4162 
Q 984 4106 628 3988 
L 628 4550 
Q 988 4650 1302 4700 
Q 1616 4750 1894 4750 
Q 2613 4750 3031 4423 
Q 3450 4097 3450 3541 
Q 3450 3153 3228 2886 
Q 3006 2619 2597 2516 
z
" transform="scale(0.015625)"/>
       </defs>
       <use xlink:href="#DejaVuSans-33"/>
       <use xlink:href="#DejaVuSans-30" x="63.623047"/>
       <use xlink:href="#DejaVuSans-30" x="127.246094"/>
      </g>
     </g>
    </g>
    <g id="text_4">
     <!-- Frequency (Hz) -->
     <g transform="translate(91.214993 157.396563) scale(0.1 -0.1)">
      <defs>
       <path id="DejaVuSans-46" d="M 628 4666 
L 3309 4666 
L 3309 4134 
L 1259 4134 
L 1259 2759 
L 3109 2759 
L 3109 2228 
L 1259 2228 
L 1259 0 
L 628 0 
L 628 4666 
z
" transform="scale(0.015625)"/>
       <path id="DejaVuSans-72" d="M 2631 2963 
Q 2534 3019 2420 3045 
Q 2306 3072 2169 3072 
Q 1681 3072 1420 2755 
Q 1159 2438 1159 1844 
L 1159 0 
L 581 0 
L 581 3500 
L 1159 3500 
L 1159 2956 
Q 1341 3275 1631 3429 
Q 1922 3584 2338 3584 
Q 2397 3584 2469 3576 
Q 2541 3569 2628 3553 
L 2631 2963 
z
" transform="scale(0.015625)"/>
       <path id="DejaVuSans-65" d="M 3597 1894 
L 3597 1613 
L 953 1613 
Q 991 1019 1311 708 
Q 1631 397 2203 397 
Q 2534 397 2845 478 
Q 3156 559 3463 722 
L 3463 178 
Q 3153 47 2828 -22 
Q 2503 -91 2169 -91 
Q 1331 -91 842 396 
Q 353 884 353 1716 
Q 353 2575 817 3079 
Q 1281 3584 2069 3584 
Q 2775 3584 3186 3129 
Q 3597 2675 3597 1894 
z
M 3022 2063 
Q 3016 2534 2758 2815 
Q 2500 3097 2075 3097 
Q 1594 3097 1305 2825 
Q 1016 2553 972 2059 
L 3022 2063 
z
" transform="scale(0.015625)"/>
       <path id="DejaVuSans-71" d="M 947 1747 
Q 947 1113 1208 752 
Q 1469 391 1925 391 
Q 2381 391 2643 752 
Q 2906 1113 2906 1747 
Q 2906 2381 2643 2742 
Q 2381 3103 1925 3103 
Q 1469 3103 1208 2742 
Q 947 2381 947 1747 
z
M 2906 525 
Q 2725 213 2448 61 
Q 2172 -91 1784 -91 
Q 1150 -91 751 415 
Q 353 922 353 1747 
Q 353 2572 751 3078 
Q 1150 3584 1784 3584 
Q 2172 3584 2448 3432 
Q 2725 3281 2906 2969 
L 2906 3500 
L 3481 3500 
L 3481 -1331 
L 2906 -1331 
L 2906 525 
z
" transform="scale(0.015625)"/>
       <path id="DejaVuSans-75" d="M 544 1381 
L 544 3500 
L 1119 3500 
L 1119 1403 
Q 1119 906 1312 657 
Q 1506 409 1894 409 
Q 2359 409 2629 706 
Q 2900 1003 2900 1516 
L 2900 3500 
L 3475 3500 
L 3475 0 
L 2900 0 
L 2900 538 
Q 2691 219 2414 64 
Q 2138 -91 1772 -91 
Q 1169 -91 856 284 
Q 544 659 544 1381 
z
M 1991 3584 
L 1991 3584 
z
" transform="scale(0.015625)"/>
       <path id="DejaVuSans-6e" d="M 3513 2113 
L 3513 0 
L 2938 0 
L 2938 2094 
Q 2938 2591 2744 2837 
Q 2550 3084 2163 3084 
Q 1697 3084 1428 2787 
Q 1159 2491 1159 1978 
L 1159 0 
L 581 0 
L 581 3500 
L 1159 3500 
L 1159 2956 
Q 1366 3272 1645 3428 
Q 1925 3584 2291 3584 
Q 2894 3584 3203 3211 
Q 3513 2838 3513 2113 
z
" transform="scale(0.015625)"/>
       <path id="DejaVuSans-63" d="M 3122 3366 
L 3122 2828 
Q 2878 2963 2633 3030 
Q 2388 3097 2138 3097 
Q 1578 3097 1268 2742 
Q 959 2388 959 1747 
Q 959 1106 1268 751 
Q 1578 397 2138 397 
Q 2388 397 2633 464 
Q 2878 531 3122 666 
L 3122 134 
Q 2881 22 2623 -34 
Q 2366 -91 2075 -91 
Q 1284 -91 818 406 
Q 353 903 353 1747 
Q 353 2603 823 3093 
Q 1294 3584 2113 3584 
Q 2378 3584 2631 3529 
Q 2884 3475 3122 3366 
z
" transform="scale(0.015625)"/>
       <path id="DejaVuSans-79" d="M 2059 -325 
Q 1816 -950 1584 -1140 
Q 1353 -1331 966 -1331 
L 506 -1331 
L 506 -850 
L 844 -850 
Q 1081 -850 1212 -737 
Q 1344 -625 1503 -206 
L 1606 56 
L 191 3500 
L 800 3500 
L 1894 763 
L 2988 3500 
L 3597 3500 
L 2059 -325 
z
" transform="scale(0.015625)"/>
       <path id="DejaVuSans-20" transform="scale(0.015625)"/>
       <path id="DejaVuSans-28" d="M 1984 4856 
Q 1566 4138 1362 3434 
Q 1159 2731 1159 2009 
Q 1159 1288 1364 580 
Q 1569 -128 1984 -844 
L 1484 -844 
Q 1016 -109 783 600 
Q 550 1309 550 2009 
Q 550 2706 781 3412 
Q 1013 4119 1484 4856 
L 1984 4856 
z
" transform="scale(0.015625)"/>
       <path id="DejaVuSans-48" d="M 628 4666 
L 1259 4666 
L 1259 2753 
L 3553 2753 
L 3553 4666 
L 4184 4666 
L 4184 0 
L 3553 0 
L 3553 2222 
L 1259 2222 
L 1259 0 
L 628 0 
L 628 4666 
z
" transform="scale(0.015625)"/>
       <path id="DejaVuSans-7a" d="M 353 3500 
L 3084 3500 
L 3084 2975 
L 922 459 
L 3084 459 
L 3084 0 
L 275 0 
L 275 525 
L 2438 3041 
L 353 3041 
L 353 3500 
z
" transform="scale(0.015625)"/>
       <path id="DejaVuSans-29" d="M 513 4856 
L 1013 4856 
Q 1481 4119 1714 3412 
Q 1947 2706 1947 2009 
Q 1947 1309 1714 600 
Q 1481 -109 1013 -844 
L 513 -844 
Q 928 -128 1133 580 
Q 1338 1288 1338 2009 
Q 1338 2731 1133 3434 
Q 928 4138 513 4856 
z
" transform="scale(0.015625)"/>
      </defs>
      <use xlink:href="#DejaVuSans-46"/>
      <use xlink:href="#DejaVuSans-72" x="50.269531"/>
      <use xlink:href="#DejaVuSans-65" x="89.132812"/>
      <use xlink:href="#DejaVuSans-71" x="150.65625"/>
      <use xlink:href="#DejaVuSans-75" x="214.132812"/>
      <use xlink:href="#DejaVuSans-65" x="277.511719"/>
      <use xlink:href="#DejaVuSans-6e" x="339.035156"/>
      <use xlink:href="#DejaVuSans-63" x="402.414062"/>
      <use xlink:href="#DejaVuSans-79" x="457.394531"/>
      <use xlink:href="#DejaVuSans-20" x="516.574219"/>
      <use xlink:href="#DejaVuSans-28" x="548.361328"/>
      <use xlink:href="#DejaVuSans-48" x="587.375"/>
      <use xlink:href="#DejaVuSans-7a" x="662.570312"/>
      <use xlink:href="#DejaVuSans-29" x="715.060547"/>
     </g>
    </g>
   </g>
   <g id="matplotlib.axis_2">
    <g id="ytick_1">
     <g id="line2d_4">
      <defs>
       <path id="m292dfdc12c" d="M 0 0 
L -3.5 0 
" style="stroke: #000000; stroke-width: 0.8"/>
      </defs>
      <g>
       <use xlink:href="#m292dfdc12c" x="59.52" y="110.71057" style="stroke: #000000; stroke-width: 0.8"/>
      </g>
     </g>
     <g id="text_5">
      <!-- $\mathdefault{10^{-4}}$ -->
      <g transform="translate(29.02 114.509789) scale(0.1 -0.1)">
       <defs>
        <path id="DejaVuSans-2212" d="M 678 2272 
L 4684 2272 
L 4684 1741 
L 678 1741 
L 678 2272 
z
" transform="scale(0.015625)"/>
        <path id="DejaVuSans-34" d="M 2419 4116 
L 825 1625 
L 2419 1625 
L 2419 4116 
z
M 2253 4666 
L 3047 4666 
L 3047 1625 
L 3713 1625 
L 3713 1100 
L 3047 1100 
L 3047 0 
L 2419 0 
L 2419 1100 
L 313 1100 
L 313 1709 
L 2253 4666 
z
" transform="scale(0.015625)"/>
       </defs>
       <use xlink:href="#DejaVuSans-31" transform="translate(0 0.684375)"/>
       <use xlink:href="#DejaVuSans-30" transform="translate(63.623047 0.684375)"/>
       <use xlink:href="#DejaVuSans-2212" transform="translate(128.203125 38.965625) scale(0.7)"/>
       <use xlink:href="#DejaVuSans-34" transform="translate(186.855469 38.965625) scale(0.7)"/>
      </g>
     </g>
    </g>
    <g id="ytick_2">
     <g id="line2d_5">
      <g>
       <use xlink:href="#m292dfdc12c" x="59.52" y="84.83546" style="stroke: #000000; stroke-width: 0.8"/>
      </g>
     </g>
     <g id="text_6">
      <!-- $\mathdefault{10^{-1}}$ -->
      <g transform="translate(29.02 88.634679) scale(0.1 -0.1)">
       <use xlink:href="#DejaVuSans-31" transform="translate(0 0.684375)"/>
       <use xlink:href="#DejaVuSans-30" transform="translate(63.623047 0.684375)"/>
       <use xlink:href="#DejaVuSans-2212" transform="translate(128.203125 38.965625) scale(0.7)"/>
       <use xlink:href="#DejaVuSans-31" transform="translate(186.855469 38.965625) scale(0.7)"/>
      </g>
     </g>
    </g>
    <g id="ytick_3">
     <g id="line2d_6">
      <g>
       <use xlink:href="#m292dfdc12c" x="59.52" y="58.960349" style="stroke: #000000; stroke-width: 0.8"/>
      </g>
     </g>
     <g id="text_7">
      <!-- $\mathdefault{10^{2}}$ -->
      <g transform="translate(34.92 62.759568) scale(0.1 -0.1)">
       <defs>
        <path id="DejaVuSans-32" d="M 1228 531 
L 3431 531 
L 3431 0 
L 469 0 
L 469 531 
Q 828 903 1448 1529 
Q 2069 2156 2228 2338 
Q 2531 2678 2651 2914 
Q 2772 3150 2772 3378 
Q 2772 3750 2511 3984 
Q 2250 4219 1831 4219 
Q 1534 4219 1204 4116 
Q 875 4013 500 3803 
L 500 4441 
Q 881 4594 1212 4672 
Q 1544 4750 1819 4750 
Q 2544 4750 2975 4387 
Q 3406 4025 3406 3419 
Q 3406 3131 3298 2873 
Q 3191 2616 2906 2266 
Q 2828 2175 2409 1742 
Q 1991 1309 1228 531 
z
" transform="scale(0.015625)"/>
       </defs>
       <use xlink:href="#DejaVuSans-31" transform="translate(0 0.765625)"/>
       <use xlink:href="#DejaVuSans-30" transform="translate(63.623047 0.765625)"/>
       <use xlink:href="#DejaVuSans-32" transform="translate(128.203125 39.046875) scale(0.7)"/>
      </g>
     </g>
    </g>
    <g id="ytick_4">
     <g id="line2d_7">
      <g>
       <use xlink:href="#m292dfdc12c" x="59.52" y="33.085239" style="stroke: #000000; stroke-width: 0.8"/>
      </g>
     </g>
     <g id="text_8">
      <!-- $\mathdefault{10^{5}}$ -->
      <g transform="translate(34.92 36.884458) scale(0.1 -0.1)">
       <use xlink:href="#DejaVuSans-31" transform="translate(0 0.684375)"/>
       <use xlink:href="#DejaVuSans-30" transform="translate(63.623047 0.684375)"/>
       <use xlink:href="#DejaVuSans-35" transform="translate(128.203125 38.965625) scale(0.7)"/>
      </g>
     </g>
    </g>
    <g id="text_9">
     <!-- Log power (dB/Hz) -->
     <g transform="translate(22.940312 123.419844) rotate(-90) scale(0.1 -0.1)">
      <defs>
       <path id="DejaVuSans-4c" d="M 628 4666 
L 1259 4666 
L 1259 531 
L 3531 531 
L 3531 0 
L 628 0 
L 628 4666 
z
" transform="scale(0.015625)"/>
       <path id="DejaVuSans-6f" d="M 1959 3097 
Q 1497 3097 1228 2736 
Q 959 2375 959 1747 
Q 959 1119 1226 758 
Q 1494 397 1959 397 
Q 2419 397 2687 759 
Q 2956 1122 2956 1747 
Q 2956 2369 2687 2733 
Q 2419 3097 1959 3097 
z
M 1959 3584 
Q 2709 3584 3137 3096 
Q 3566 2609 3566 1747 
Q 3566 888 3137 398 
Q 2709 -91 1959 -91 
Q 1206 -91 779 398 
Q 353 888 353 1747 
Q 353 2609 779 3096 
Q 1206 3584 1959 3584 
z
" transform="scale(0.015625)"/>
       <path id="DejaVuSans-67" d="M 2906 1791 
Q 2906 2416 2648 2759 
Q 2391 3103 1925 3103 
Q 1463 3103 1205 2759 
Q 947 2416 947 1791 
Q 947 1169 1205 825 
Q 1463 481 1925 481 
Q 2391 481 2648 825 
Q 2906 1169 2906 1791 
z
M 3481 434 
Q 3481 -459 3084 -895 
Q 2688 -1331 1869 -1331 
Q 1566 -1331 1297 -1286 
Q 1028 -1241 775 -1147 
L 775 -588 
Q 1028 -725 1275 -790 
Q 1522 -856 1778 -856 
Q 2344 -856 2625 -561 
Q 2906 -266 2906 331 
L 2906 616 
Q 2728 306 2450 153 
Q 2172 0 1784 0 
Q 1141 0 747 490 
Q 353 981 353 1791 
Q 353 2603 747 3093 
Q 1141 3584 1784 3584 
Q 2172 3584 2450 3431 
Q 2728 3278 2906 2969 
L 2906 3500 
L 3481 3500 
L 3481 434 
z
" transform="scale(0.015625)"/>
       <path id="DejaVuSans-70" d="M 1159 525 
L 1159 -1331 
L 581 -1331 
L 581 3500 
L 1159 3500 
L 1159 2969 
Q 1341 3281 1617 3432 
Q 1894 3584 2278 3584 
Q 2916 3584 3314 3078 
Q 3713 2572 3713 1747 
Q 3713 922 3314 415 
Q 2916 -91 2278 -91 
Q 1894 -91 1617 61 
Q 1341 213 1159 525 
z
M 3116 1747 
Q 3116 2381 2855 2742 
Q 2594 3103 2138 3103 
Q 1681 3103 1420 2742 
Q 1159 2381 1159 1747 
Q 1159 1113 1420 752 
Q 1681 391 2138 391 
Q 2594 391 2855 752 
Q 3116 1113 3116 1747 
z
" transform="scale(0.015625)"/>
       <path id="DejaVuSans-77" d="M 269 3500 
L 844 3500 
L 1563 769 
L 2278 3500 
L 2956 3500 
L 3675 769 
L 4391 3500 
L 4966 3500 
L 4050 0 
L 3372 0 
L 2619 2869 
L 1863 0 
L 1184 0 
L 269 3500 
z
" transform="scale(0.015625)"/>
       <path id="DejaVuSans-64" d="M 2906 2969 
L 2906 4863 
L 3481 4863 
L 3481 0 
L 2906 0 
L 2906 525 
Q 2725 213 2448 61 
Q 2172 -91 1784 -91 
Q 1150 -91 751 415 
Q 353 922 353 1747 
Q 353 2572 751 3078 
Q 1150 3584 1784 3584 
Q 2172 3584 2448 3432 
Q 2725 3281 2906 2969 
z
M 947 1747 
Q 947 1113 1208 752 
Q 1469 391 1925 391 
Q 2381 391 2643 752 
Q 2906 1113 2906 1747 
Q 2906 2381 2643 2742 
Q 2381 3103 1925 3103 
Q 1469 3103 1208 2742 
Q 947 2381 947 1747 
z
" transform="scale(0.015625)"/>
       <path id="DejaVuSans-42" d="M 1259 2228 
L 1259 519 
L 2272 519 
Q 2781 519 3026 730 
Q 3272 941 3272 1375 
Q 3272 1813 3026 2020 
Q 2781 2228 2272 2228 
L 1259 2228 
z
M 1259 4147 
L 1259 2741 
L 2194 2741 
Q 2656 2741 2882 2914 
Q 3109 3088 3109 3444 
Q 3109 3797 2882 3972 
Q 2656 4147 2194 4147 
L 1259 4147 
z
M 628 4666 
L 2241 4666 
Q 2963 4666 3353 4366 
Q 3744 4066 3744 3513 
Q 3744 3084 3544 2831 
Q 3344 2578 2956 2516 
Q 3422 2416 3680 2098 
Q 3938 1781 3938 1306 
Q 3938 681 3513 340 
Q 3088 0 2303 0 
L 628 0 
L 628 4666 
z
" transform="scale(0.015625)"/>
       <path id="DejaVuSans-2f" d="M 1625 4666 
L 2156 4666 
L 531 -594 
L 0 -594 
L 1625 4666 
z
" transform="scale(0.015625)"/>
      </defs>
      <use xlink:href="#DejaVuSans-4c"/>
      <use xlink:href="#DejaVuSans-6f" x="53.962891"/>
      <use xlink:href="#DejaVuSans-67" x="115.144531"/>
      <use xlink:href="#DejaVuSans-20" x="178.621094"/>
      <use xlink:href="#DejaVuSans-70" x="210.408203"/>
      <use xlink:href="#DejaVuSans-6f" x="273.884766"/>
      <use xlink:href="#DejaVuSans-77" x="335.066406"/>
      <use xlink:href="#DejaVuSans-65" x="416.853516"/>
      <use xlink:href="#DejaVuSans-72" x="478.376953"/>
      <use xlink:href="#DejaVuSans-20" x="519.490234"/>
      <use xlink:href="#DejaVuSans-28" x="551.277344"/>
      <use xlink:href="#DejaVuSans-64" x="590.291016"/>
      <use xlink:href="#DejaVuSans-42" x="653.767578"/>
      <use xlink:href="#DejaVuSans-2f" x="722.371094"/>
      <use xlink:href="#DejaVuSans-48" x="756.0625"/>
      <use xlink:href="#DejaVuSans-7a" x="831.257812"/>
      <use xlink:href="#DejaVuSans-29" x="883.748047"/>
     </g>
    </g>
   </g>
   <g id="line2d_8">
    <path d="M 61.762316 61.10099 
L 61.986548 62.154824 
L 62.435011 73.791359 
L 62.659242 58.639172 
L 62.883474 73.636362 
L 63.107706 59.809376 
L 63.331937 64.917753 
L 63.556169 62.256136 
L 63.7804 64.342819 
L 64.004632 70.140643 
L 64.228864 64.356628 
L 64.453095 65.041626 
L 64.677327 59.908867 
L 64.901558 69.695651 
L 65.12579 62.172333 
L 65.350022 71.976669 
L 65.574253 63.442373 
L 65.798485 60.837939 
L 66.246948 71.652919 
L 66.47118 61.433567 
L 66.695411 67.669629 
L 66.919643 65.954859 
L 67.143874 75.652491 
L 67.368106 67.910826 
L 67.592338 64.456326 
L 67.816569 67.151595 
L 68.040801 62.052812 
L 68.265032 65.955696 
L 68.489264 63.610426 
L 68.713496 63.139332 
L 68.937727 81.054403 
L 69.161959 69.705304 
L 69.386191 74.150541 
L 69.610422 63.208738 
L 69.834654 66.870036 
L 70.058885 50.388134 
L 70.283117 61.782481 
L 70.507349 61.625154 
L 70.73158 72.837524 
L 70.955812 64.592531 
L 71.180043 62.254992 
L 71.404275 72.891257 
L 71.628507 61.957627 
L 71.852738 76.199434 
L 72.07697 68.62834 
L 72.301201 78.313682 
L 72.525433 68.784169 
L 72.749665 71.678938 
L 72.973896 72.40903 
L 73.198128 65.806556 
L 73.422359 63.646403 
L 73.870823 66.865929 
L 74.095054 63.140249 
L 74.543517 76.833656 
L 74.767749 63.469975 
L 74.991981 88.347697 
L 75.440444 69.354685 
L 76.113139 62.643096 
L 76.33737 66.916001 
L 76.561602 64.340978 
L 76.785833 71.528615 
L 77.234297 61.082116 
L 77.458528 69.249862 
L 77.68276 67.921229 
L 77.906991 68.379319 
L 78.131223 74.207682 
L 78.355455 73.029381 
L 78.579686 61.213555 
L 78.803918 72.556091 
L 79.028149 60.82222 
L 79.252381 73.929633 
L 79.700844 69.925723 
L 79.925076 63.181916 
L 80.149307 69.452222 
L 80.373539 71.697633 
L 80.597771 62.130367 
L 81.046234 75.289946 
L 81.270465 73.398325 
L 81.494697 61.333971 
L 81.718929 71.390148 
L 81.94316 64.13877 
L 82.167392 66.024047 
L 82.391623 65.68671 
L 82.615855 62.888043 
L 82.840087 74.778013 
L 83.064318 66.822093 
L 83.28855 69.252473 
L 83.512781 64.038078 
L 83.737013 77.100591 
L 84.185476 65.767385 
L 84.409708 67.739484 
L 84.633939 64.297447 
L 84.858171 72.708375 
L 85.082403 60.43569 
L 85.306634 69.225275 
L 85.530866 72.96506 
L 85.755097 71.955681 
L 86.203561 64.929133 
L 86.427792 71.267958 
L 86.652024 64.637384 
L 86.876255 67.417892 
L 87.324719 57.885531 
L 87.54895 70.349237 
L 87.773182 63.614203 
L 87.997414 75.96305 
L 88.221645 67.958146 
L 88.445877 67.187088 
L 88.670108 62.59645 
L 88.89434 71.917697 
L 89.118572 71.050717 
L 89.342803 63.240571 
L 89.567035 79.552754 
L 89.791266 62.236022 
L 90.015498 68.14606 
L 90.23973 69.641038 
L 90.463961 61.420955 
L 90.688193 67.359371 
L 90.912424 67.198464 
L 91.136656 71.801723 
L 91.360888 63.103797 
L 91.585119 69.683768 
L 91.809351 57.535323 
L 92.033582 61.941696 
L 92.257814 64.14764 
L 92.482046 64.62637 
L 92.706277 68.783334 
L 92.930509 67.08247 
L 93.15474 70.834815 
L 93.378972 68.650493 
L 93.603204 72.861952 
L 94.051667 61.064846 
L 94.275898 74.393698 
L 94.50013 62.541776 
L 94.724362 69.440917 
L 94.948593 65.445364 
L 95.397056 77.117408 
L 95.621288 62.936481 
L 95.84552 68.15327 
L 96.069751 63.508151 
L 96.293983 78.336467 
L 96.518214 62.768293 
L 96.966678 69.799491 
L 97.190909 63.149525 
L 97.415141 68.058538 
L 97.639372 59.903308 
L 98.087836 74.911653 
L 98.536299 61.211108 
L 98.76053 77.542184 
L 98.984762 65.759585 
L 99.208994 61.094544 
L 99.433225 70.269344 
L 99.657457 72.345443 
L 99.881688 73.285615 
L 100.10592 59.107151 
L 100.330152 67.763022 
L 100.554383 59.831707 
L 100.778615 75.251999 
L 101.002846 70.208805 
L 101.227078 69.961743 
L 101.45131 66.564526 
L 101.675541 72.661883 
L 101.899773 58.765602 
L 102.124004 67.146022 
L 102.348236 69.692627 
L 102.572468 62.915142 
L 102.796699 67.883633 
L 103.020931 59.077324 
L 103.245162 63.031458 
L 103.469394 70.693736 
L 103.693626 65.372274 
L 104.142089 75.719693 
L 104.36632 59.400555 
L 104.590552 82.559466 
L 104.814784 68.935802 
L 105.039015 64.345953 
L 105.263247 66.304025 
L 105.487478 66.650704 
L 105.71171 62.936571 
L 105.935942 65.130216 
L 106.160173 65.799398 
L 106.384405 82.125952 
L 106.608637 69.44199 
L 106.832868 70.692677 
L 107.0571 60.423962 
L 107.281331 74.762957 
L 107.505563 62.487803 
L 107.729795 69.480449 
L 107.954026 63.342015 
L 108.178258 66.762643 
L 108.402489 72.349448 
L 108.626721 62.790258 
L 108.850953 62.620796 
L 109.075184 78.236327 
L 109.299416 70.150943 
L 109.747879 64.351285 
L 109.972111 77.655381 
L 110.196342 69.256236 
L 110.420574 66.897349 
L 110.644805 71.077362 
L 110.869037 61.337131 
L 111.093269 61.455242 
L 111.3175 71.180029 
L 111.765963 60.013991 
L 111.990195 77.913153 
L 112.214427 66.19214 
L 112.438658 74.461889 
L 112.66289 61.227214 
L 113.111353 79.109409 
L 113.335585 59.164226 
L 113.559816 74.533246 
L 114.008279 61.832004 
L 114.232511 68.950615 
L 114.456743 63.103133 
L 114.680974 72.614179 
L 114.905206 70.652851 
L 115.129437 84.536414 
L 115.353669 66.927554 
L 115.577901 75.085722 
L 115.802132 64.107671 
L 116.026364 69.871112 
L 116.250595 68.45678 
L 116.474827 64.18943 
L 116.699059 74.462779 
L 116.92329 63.438684 
L 117.147522 68.249492 
L 117.371753 67.723033 
L 117.595985 30.152727 
L 117.820217 68.303967 
L 118.044448 68.496285 
L 118.26868 63.905609 
L 118.492911 74.007881 
L 118.717143 64.798456 
L 118.941375 69.04249 
L 119.165606 70.296982 
L 119.389838 64.593901 
L 119.614069 73.599362 
L 119.838301 67.886575 
L 120.062533 81.715433 
L 120.286764 71.291116 
L 120.510996 72.727404 
L 120.735227 63.914681 
L 120.959459 68.538155 
L 121.183691 62.683223 
L 121.407922 70.496062 
L 121.632154 74.059675 
L 121.856385 60.237116 
L 122.080617 80.338209 
L 122.52908 62.560251 
L 122.753312 80.571396 
L 122.977543 67.22199 
L 123.201775 75.036742 
L 123.426007 60.954595 
L 123.87447 74.439789 
L 124.098701 62.800643 
L 124.322933 62.992655 
L 124.547165 73.925699 
L 124.771396 68.628702 
L 124.995628 70.345146 
L 125.219859 75.019863 
L 125.444091 66.787543 
L 125.892554 71.757652 
L 126.116786 80.469304 
L 126.341018 64.407582 
L 126.565249 64.661322 
L 126.789481 76.005707 
L 127.013712 68.441968 
L 127.237944 64.805414 
L 127.462176 72.380777 
L 127.686407 65.325439 
L 127.910639 76.682115 
L 128.13487 62.558036 
L 128.359102 72.963598 
L 128.583334 71.27928 
L 128.807565 80.806237 
L 129.031797 68.467509 
L 129.256028 68.079829 
L 129.48026 65.676518 
L 129.704492 69.179134 
L 129.928723 68.978161 
L 130.152955 67.043248 
L 130.601418 79.843549 
L 130.82565 62.554191 
L 131.049881 78.415208 
L 131.274113 74.709481 
L 131.498344 67.938995 
L 131.722576 75.301985 
L 132.171039 62.438033 
L 132.395271 69.697707 
L 132.619502 66.153017 
L 132.843734 72.845945 
L 133.067966 70.006554 
L 133.292197 62.489084 
L 133.516429 76.852489 
L 133.74066 68.968135 
L 133.964892 74.213541 
L 134.189124 73.176229 
L 134.413355 83.195477 
L 134.637587 63.573718 
L 134.861818 73.129028 
L 135.08605 63.611356 
L 135.310282 76.312402 
L 135.534513 74.281333 
L 135.758745 75.822266 
L 135.982976 65.532186 
L 136.207208 70.812222 
L 136.43144 82.778463 
L 136.655671 65.478281 
L 137.104134 75.163961 
L 137.328366 73.551665 
L 137.552598 65.476007 
L 137.776829 72.051341 
L 138.001061 68.185946 
L 138.225292 73.741375 
L 138.673756 67.781427 
L 138.897987 78.186957 
L 139.122219 69.451628 
L 139.34645 73.345116 
L 139.570682 69.120007 
L 139.794914 85.465261 
L 140.243377 70.14922 
L 140.467608 74.577115 
L 140.69184 68.462815 
L 140.916072 78.669665 
L 141.140303 66.370303 
L 141.588766 80.691589 
L 141.812998 78.787403 
L 142.03723 74.669901 
L 142.261461 73.282481 
L 142.485693 78.05297 
L 142.709924 72.081063 
L 143.158388 68.793576 
L 143.382619 64.762613 
L 143.606851 79.037069 
L 143.831082 70.915176 
L 144.055314 81.499094 
L 144.279546 75.067442 
L 144.503777 73.553847 
L 144.728009 69.860864 
L 144.952241 78.80401 
L 145.176472 76.574115 
L 145.400704 70.272558 
L 145.624935 82.335747 
L 145.849167 71.035379 
L 146.29763 80.647853 
L 146.521862 71.088 
L 146.746093 75.214611 
L 146.970325 76.237626 
L 147.194557 81.645361 
L 147.418788 72.492309 
L 147.64302 80.460022 
L 147.867251 67.280876 
L 148.315715 73.915412 
L 148.539946 75.760737 
L 148.764178 80.563401 
L 148.988409 76.969535 
L 149.212641 79.036174 
L 149.436873 83.02429 
L 149.661104 82.375549 
L 149.885336 78.282455 
L 150.109567 71.619135 
L 150.333799 82.086758 
L 150.558031 74.121433 
L 150.782262 80.023043 
L 151.006494 75.509035 
L 151.454957 88.097771 
L 151.679189 76.250017 
L 151.90342 80.238937 
L 152.127652 78.062384 
L 152.351883 87.274964 
L 152.576115 76.355724 
L 153.024578 80.993905 
L 153.24881 78.163052 
L 153.473041 81.658562 
L 153.697273 75.327427 
L 154.145736 89.481943 
L 154.594199 76.86313 
L 154.818431 90.296404 
L 155.042663 80.716102 
L 155.266894 76.823724 
L 155.491126 89.966718 
L 155.715357 88.050459 
L 155.939589 87.269296 
L 156.163821 75.086833 
L 156.388052 86.417074 
L 156.612284 76.224176 
L 156.836515 87.901577 
L 157.060747 92.054933 
L 157.284979 87.932136 
L 157.50921 81.488937 
L 157.733442 91.928677 
L 157.957673 75.710289 
L 158.406137 86.754531 
L 158.630368 79.556162 
L 158.8546 83.519308 
L 159.078831 75.197481 
L 159.303063 78.132696 
L 159.527295 91.815936 
L 159.751526 80.788422 
L 160.199989 92.143688 
L 160.424221 76.828487 
L 160.648453 91.486404 
L 161.096916 79.896004 
L 161.321147 81.745103 
L 161.545379 82.127802 
L 161.769611 77.271337 
L 162.218074 80.874288 
L 162.442305 99.066606 
L 162.666537 86.67881 
L 162.890769 87.638244 
L 163.115 74.512059 
L 163.339232 87.197561 
L 163.563464 76.591801 
L 163.787695 82.788423 
L 164.011927 76.326446 
L 164.236158 79.027933 
L 164.46039 87.046673 
L 164.684622 76.497123 
L 164.908853 75.905515 
L 165.133085 89.006762 
L 165.357316 80.847832 
L 165.581548 79.313962 
L 165.80578 76.577312 
L 166.030011 87.101061 
L 166.478474 78.616901 
L 166.702706 81.126064 
L 166.926938 73.215496 
L 167.151169 73.22924 
L 167.375401 81.597231 
L 167.823864 71.179144 
L 168.048096 86.656149 
L 168.272327 77.372405 
L 168.496559 86.727109 
L 168.72079 71.816313 
L 168.945022 83.241491 
L 169.169254 86.742793 
L 169.393485 69.55265 
L 169.617717 86.081269 
L 170.06618 71.828159 
L 170.290412 78.602409 
L 170.514643 73.350877 
L 170.738875 80.487325 
L 170.963106 81.105567 
L 171.187338 96.187296 
L 171.41157 77.927164 
L 171.635801 82.571568 
L 171.860033 73.631981 
L 172.084264 79.267448 
L 172.308496 78.124149 
L 172.532728 73.929864 
L 172.756959 84.337123 
L 172.981191 72.687359 
L 173.205422 76.575202 
L 173.429654 76.034666 
L 173.653886 38.946726 
L 173.878117 76.346053 
L 174.102349 75.753634 
L 174.32658 72.254009 
L 174.550812 84.510717 
L 174.775044 72.828192 
L 174.999275 77.989021 
L 175.223507 79.286105 
L 175.447738 72.987404 
L 175.67197 84.535575 
L 175.896202 76.302103 
L 176.120433 90.889333 
L 176.344665 79.403035 
L 176.568896 79.89077 
L 176.793128 71.404489 
L 177.01736 76.210908 
L 177.241591 70.090086 
L 177.690054 81.724185 
L 177.914286 67.479471 
L 178.138518 86.280213 
L 178.586981 69.386468 
L 178.811212 87.395684 
L 179.035444 74.339715 
L 179.259676 81.556891 
L 179.483907 67.994657 
L 179.93237 79.67128 
L 180.156602 69.441247 
L 180.380834 69.953497 
L 180.605065 78.837419 
L 180.829297 75.000727 
L 181.053528 77.169124 
L 181.27776 83.94555 
L 181.501992 72.715925 
L 181.950455 78.920459 
L 182.174687 85.890155 
L 182.398918 70.210859 
L 182.62315 70.819001 
L 182.847381 84.098635 
L 183.071613 74.121419 
L 183.295845 71.192255 
L 183.520076 78.668704 
L 183.744308 70.708512 
L 183.968539 86.47425 
L 184.192771 68.69014 
L 184.417003 79.975888 
L 184.641234 76.805928 
L 184.865466 90.292461 
L 185.089697 73.907147 
L 185.313929 73.949734 
L 185.538161 71.049047 
L 185.762392 75.841381 
L 186.210855 72.678899 
L 186.435087 76.803709 
L 186.659319 88.986491 
L 186.88355 68.075902 
L 187.107782 84.810506 
L 187.556245 74.154425 
L 187.780477 80.077525 
L 188.22894 67.682045 
L 188.453171 75.194135 
L 188.677403 71.433091 
L 188.901635 78.179863 
L 189.125866 74.278376 
L 189.350098 67.621931 
L 189.574329 81.345285 
L 189.798561 74.134434 
L 190.022793 78.971363 
L 190.247024 78.2062 
L 190.471256 85.3809 
L 190.695487 68.073862 
L 190.919719 77.151046 
L 191.143951 67.860157 
L 191.368182 80.880658 
L 191.592414 78.697439 
L 191.816645 80.018421 
L 192.040877 69.604926 
L 192.265109 74.914872 
L 192.48934 87.57297 
L 192.713572 69.723511 
L 193.162035 80.657405 
L 193.386267 78.131388 
L 193.610498 69.355871 
L 193.83473 76.132325 
L 194.058961 72.104514 
L 194.283193 77.266602 
L 194.731656 71.739306 
L 194.955888 82.716947 
L 195.180119 72.620406 
L 195.404351 76.992335 
L 195.628583 72.481939 
L 195.852814 85.038445 
L 195.852814 85.038445 
" clip-path="url(#pb792ebd3fd)" style="fill: none; stroke: #808080; stroke-width: 0.8; stroke-linecap: square"/>
   </g>
   <g id="line2d_9">
    <path d="M 61.762316 60.957989 
L 61.986548 64.494201 
L 62.210779 62.262927 
L 62.435011 70.49856 
L 62.659242 57.425978 
L 62.883474 67.744525 
L 63.107706 60.889803 
L 63.331937 60.952593 
L 63.556169 61.800838 
L 64.004632 71.028159 
L 64.228864 62.75178 
L 64.453095 65.857677 
L 64.677327 63.361346 
L 64.901558 79.07106 
L 65.12579 67.963422 
L 65.350022 77.530805 
L 65.574253 63.060374 
L 65.798485 61.479005 
L 66.022716 66.370611 
L 66.246948 68.240241 
L 66.47118 67.041309 
L 66.695411 66.785706 
L 66.919643 70.033661 
L 67.143874 75.863267 
L 67.368106 64.985425 
L 67.592338 68.974619 
L 67.816569 69.922411 
L 68.040801 69.662727 
L 68.265032 69.871887 
L 68.489264 64.841667 
L 68.713496 64.895115 
L 68.937727 72.893298 
L 69.161959 71.780781 
L 69.386191 71.354582 
L 69.610422 65.51626 
L 69.834654 64.443276 
L 70.058885 50.510626 
L 70.283117 64.666013 
L 70.73158 70.653483 
L 70.955812 70.135611 
L 71.180043 69.036646 
L 71.404275 72.397234 
L 71.628507 67.456147 
L 71.852738 77.020569 
L 72.07697 68.709819 
L 72.301201 76.9904 
L 72.525433 67.397112 
L 72.749665 71.813014 
L 73.198128 75.145162 
L 73.422359 73.960298 
L 73.646591 69.716407 
L 73.870823 70.132413 
L 74.095054 69.874436 
L 74.319286 72.011989 
L 74.543517 82.604894 
L 74.767749 76.172075 
L 74.991981 76.974445 
L 75.216212 75.450717 
L 75.440444 72.399978 
L 75.664675 70.951999 
L 75.888907 75.020225 
L 76.113139 74.66432 
L 76.33737 70.818535 
L 76.561602 72.415594 
L 76.785833 73.182386 
L 77.010065 75.782522 
L 77.234297 75.504124 
L 77.458528 73.064994 
L 77.68276 78.336391 
L 77.906991 75.025439 
L 78.131223 80.528203 
L 78.355455 70.772311 
L 78.579686 80.317729 
L 78.803918 71.602404 
L 79.028149 82.759788 
L 79.252381 85.57053 
L 79.476613 83.250769 
L 79.700844 76.419676 
L 79.925076 84.976773 
L 80.149307 77.580283 
L 80.373539 74.043458 
L 80.597771 75.718997 
L 80.822002 81.958363 
L 81.046234 82.937708 
L 81.270465 74.905746 
L 81.494697 74.891722 
L 81.94316 80.277301 
L 82.167392 72.461659 
L 82.391623 75.042265 
L 82.615855 76.216253 
L 82.840087 101.722765 
L 83.064318 74.437303 
L 83.28855 83.65853 
L 83.512781 74.317143 
L 83.737013 90.420611 
L 83.961245 75.812807 
L 84.185476 87.310857 
L 84.409708 79.61925 
L 84.633939 79.084631 
L 84.858171 77.139233 
L 85.082403 76.446931 
L 85.306634 84.701743 
L 85.755097 78.05566 
L 85.979329 75.652588 
L 86.203561 76.45043 
L 86.427792 81.221712 
L 86.876255 74.092193 
L 87.100487 74.63402 
L 87.324719 83.807468 
L 87.54895 80.151685 
L 87.773182 82.471327 
L 87.997414 82.298292 
L 88.445877 78.052798 
L 88.670108 79.051681 
L 89.118572 72.076843 
L 89.342803 82.516299 
L 89.567035 79.94937 
L 89.791266 80.502387 
L 90.015498 84.938775 
L 90.23973 81.172713 
L 90.463961 83.259111 
L 90.688193 80.888717 
L 90.912424 83.221261 
L 91.136656 82.929044 
L 91.360888 79.251587 
L 91.585119 79.474445 
L 92.033582 96.991432 
L 92.482046 78.201584 
L 92.706277 78.194148 
L 92.930509 78.866638 
L 93.15474 78.040041 
L 93.378972 73.448572 
L 93.827435 85.5533 
L 94.051667 79.981253 
L 94.275898 86.510886 
L 94.50013 78.542062 
L 94.724362 80.531956 
L 94.948593 79.650669 
L 95.172825 80.336026 
L 95.397056 89.631052 
L 95.621288 87.794235 
L 95.84552 80.614172 
L 96.069751 88.948843 
L 96.293983 78.729813 
L 96.518214 95.112848 
L 96.742446 83.137306 
L 96.966678 77.336268 
L 97.415141 84.509675 
L 97.639372 78.314568 
L 97.863604 80.542635 
L 98.087836 77.748733 
L 98.312067 83.8272 
L 98.536299 98.967992 
L 98.76053 82.541475 
L 98.984762 87.716281 
L 99.208994 78.127716 
L 99.433225 82.426447 
L 99.657457 78.681782 
L 99.881688 83.896493 
L 100.10592 83.951063 
L 100.330152 86.698337 
L 100.554383 80.699794 
L 101.002846 87.202933 
L 101.45131 79.881681 
L 101.675541 84.121222 
L 101.899773 82.727877 
L 102.124004 80.24435 
L 102.348236 80.162606 
L 102.572468 85.926805 
L 102.796699 75.367515 
L 103.020931 93.567176 
L 103.245162 80.902462 
L 103.469394 89.718869 
L 103.693626 82.876424 
L 103.917857 83.33415 
L 104.142089 87.092078 
L 104.36632 83.575137 
L 104.590552 82.239911 
L 105.039015 88.129505 
L 105.263247 86.641163 
L 105.487478 90.931432 
L 105.71171 84.714428 
L 105.935942 88.609906 
L 106.160173 87.250391 
L 106.384405 97.745598 
L 106.608637 87.942048 
L 106.832868 90.488405 
L 107.0571 88.542831 
L 107.281331 87.81 
L 107.729795 91.990931 
L 107.954026 80.451564 
L 108.178258 86.735913 
L 108.402489 80.450738 
L 108.626721 90.681775 
L 108.850953 81.7943 
L 109.075184 91.076808 
L 109.523647 85.675913 
L 109.747879 90.143307 
L 109.972111 90.133289 
L 110.196342 85.162986 
L 110.420574 90.375102 
L 110.644805 85.192851 
L 110.869037 84.953095 
L 111.093269 91.742633 
L 111.3175 90.662833 
L 111.541732 84.37222 
L 111.765963 83.58944 
L 111.990195 79.940833 
L 112.214427 84.919049 
L 112.438658 81.268507 
L 112.66289 93.8647 
L 112.887121 86.69097 
L 113.111353 99.873759 
L 113.335585 89.522305 
L 113.559816 88.493575 
L 113.784048 88.728965 
L 114.008279 88.096461 
L 114.232511 83.257221 
L 114.456743 89.64475 
L 114.680974 82.68414 
L 114.905206 94.463503 
L 115.129437 95.690345 
L 115.353669 83.47747 
L 115.577901 87.75231 
L 115.802132 85.247272 
L 116.026364 89.794279 
L 116.250595 88.110083 
L 116.699059 96.457759 
L 117.147522 85.266389 
L 117.371753 87.025549 
L 117.595985 89.929864 
L 117.820217 86.895713 
L 118.044448 87.033788 
L 118.26868 86.810308 
L 118.492911 88.922227 
L 118.717143 88.862324 
L 118.941375 88.639328 
L 119.389838 97.153782 
L 119.614069 89.287766 
L 119.838301 88.555402 
L 120.062533 89.623575 
L 120.286764 87.52594 
L 120.510996 101.119221 
L 120.735227 101.793214 
L 120.959459 94.922686 
L 121.183691 83.545808 
L 121.407922 83.611175 
L 121.632154 95.495998 
L 121.856385 84.971328 
L 122.080617 87.936681 
L 122.304849 93.992065 
L 122.52908 83.281371 
L 122.753312 93.648167 
L 122.977543 94.257186 
L 123.201775 94.166266 
L 123.426007 88.559758 
L 123.650238 86.389538 
L 123.87447 85.713715 
L 124.098701 102.08759 
L 124.322933 91.660701 
L 124.547165 90.495833 
L 124.995628 102.04918 
L 125.219859 81.251518 
L 125.444091 86.95094 
L 125.668323 99.115458 
L 126.116786 84.161668 
L 126.341018 88.509724 
L 126.565249 88.360231 
L 126.789481 90.51189 
L 127.237944 86.642325 
L 127.462176 90.433502 
L 127.686407 86.425252 
L 127.910639 86.424479 
L 128.13487 86.869921 
L 128.359102 90.515766 
L 128.583334 89.134313 
L 128.807565 89.071991 
L 129.031797 84.405802 
L 129.256028 89.693165 
L 129.48026 87.800988 
L 129.704492 88.174856 
L 129.928723 87.772177 
L 130.377186 100.633185 
L 130.601418 93.287248 
L 130.82565 95.155015 
L 131.049881 94.0368 
L 131.274113 94.450945 
L 131.498344 87.726026 
L 131.722576 84.698234 
L 131.946808 95.660418 
L 132.171039 93.667149 
L 132.395271 86.302919 
L 132.619502 85.605583 
L 132.843734 93.29045 
L 133.067966 86.228125 
L 133.292197 87.113407 
L 133.516429 101.397476 
L 133.74066 88.172222 
L 133.964892 92.689287 
L 134.189124 86.297507 
L 134.413355 89.89921 
L 134.637587 86.023909 
L 134.861818 91.248322 
L 135.08605 92.024044 
L 135.310282 98.118921 
L 135.534513 97.904226 
L 135.758745 91.303035 
L 135.982976 91.704668 
L 136.207208 97.624164 
L 136.43144 94.062118 
L 136.655671 88.286619 
L 136.879903 93.045901 
L 137.104134 89.149634 
L 137.328366 89.477177 
L 137.552598 97.445225 
L 137.776829 92.602355 
L 138.001061 91.594379 
L 138.225292 89.413071 
L 138.449524 86.123845 
L 138.673756 92.653678 
L 138.897987 93.799571 
L 139.122219 90.538462 
L 139.34645 94.046014 
L 139.570682 88.834283 
L 139.794914 92.612271 
L 140.019145 90.11696 
L 140.243377 96.066707 
L 140.467608 90.369735 
L 140.69184 94.484189 
L 140.916072 85.447392 
L 141.140303 89.358395 
L 141.364535 88.834833 
L 141.588766 94.266279 
L 142.03723 91.006789 
L 142.261461 91.904918 
L 142.485693 88.444975 
L 142.709924 91.386399 
L 142.934156 89.544632 
L 143.158388 98.051991 
L 143.382619 93.158071 
L 143.606851 100.630715 
L 143.831082 92.565248 
L 144.055314 93.252411 
L 144.279546 90.764242 
L 144.503777 93.279001 
L 144.728009 89.235223 
L 144.952241 97.847475 
L 145.176472 89.479247 
L 145.400704 92.201275 
L 145.624935 90.967351 
L 145.849167 99.828265 
L 146.073399 93.26504 
L 146.521862 87.123399 
L 146.746093 102.763551 
L 146.970325 101.253014 
L 147.194557 91.915799 
L 147.418788 89.698134 
L 147.867251 95.858387 
L 148.091483 88.421195 
L 148.315715 90.032486 
L 148.539946 108.133521 
L 148.764178 94.968146 
L 149.212641 103.045032 
L 149.885336 90.38444 
L 150.109567 93.677096 
L 150.333799 90.750178 
L 150.558031 101.864253 
L 150.782262 91.029717 
L 151.006494 89.593278 
L 151.230725 89.970815 
L 151.90342 96.048953 
L 152.127652 90.880719 
L 152.351883 92.944557 
L 152.576115 93.857755 
L 152.800347 93.9621 
L 153.024578 91.204732 
L 153.24881 97.108657 
L 153.473041 112.036647 
L 153.697273 98.432026 
L 153.921505 102.915213 
L 154.145736 86.825349 
L 154.369968 91.629843 
L 154.594199 99.188284 
L 154.818431 92.79144 
L 155.042663 92.959159 
L 155.266894 95.338069 
L 155.491126 96.090953 
L 155.715357 93.636469 
L 155.939589 94.045088 
L 156.163821 94.173399 
L 156.388052 96.971451 
L 156.612284 102.594145 
L 156.836515 92.244894 
L 157.060747 90.1079 
L 157.284979 90.296428 
L 157.50921 96.328378 
L 157.733442 95.858075 
L 157.957673 103.168871 
L 158.181905 92.695932 
L 158.406137 91.64923 
L 158.630368 91.646413 
L 158.8546 106.405738 
L 159.078831 95.101051 
L 159.303063 89.800988 
L 159.751526 95.698284 
L 159.975758 97.864434 
L 160.199989 95.352939 
L 160.424221 88.491647 
L 160.872684 104.088275 
L 161.096916 94.449113 
L 161.321147 96.516932 
L 161.545379 102.262824 
L 161.769611 96.190187 
L 161.993842 94.17133 
L 162.218074 95.643328 
L 162.442305 95.027575 
L 162.666537 91.170007 
L 162.890769 95.354915 
L 163.115 117.592955 
L 163.339232 94.821228 
L 163.563464 102.335309 
L 163.787695 92.953396 
L 164.011927 92.430576 
L 164.236158 98.774051 
L 164.46039 101.01127 
L 164.684622 92.382917 
L 164.908853 90.402016 
L 165.133085 102.469694 
L 165.357316 91.915557 
L 165.581548 93.272363 
L 165.80578 99.468267 
L 166.030011 99.835525 
L 166.254243 91.766897 
L 166.478474 89.628712 
L 166.702706 89.605237 
L 166.926938 102.900137 
L 167.151169 99.256908 
L 167.375401 92.958214 
L 167.823864 103.123531 
L 168.048096 96.170574 
L 168.272327 96.813035 
L 168.496559 96.095127 
L 168.72079 92.737197 
L 168.945022 92.289773 
L 169.169254 95.202534 
L 169.393485 109.692762 
L 169.617717 93.356275 
L 169.841948 90.510403 
L 170.06618 96.896558 
L 170.290412 89.974935 
L 170.514643 102.726267 
L 170.738875 92.737673 
L 170.963106 98.324305 
L 171.187338 99.993755 
L 171.41157 96.193538 
L 171.635801 94.999462 
L 171.860033 103.162186 
L 172.308496 99.00867 
L 172.532728 91.810799 
L 172.756959 101.390566 
L 172.981191 98.175588 
L 173.205422 99.289975 
L 173.429654 95.763822 
L 173.653886 109.266065 
L 173.878117 105.917595 
L 174.102349 90.800217 
L 174.32658 101.737116 
L 174.550812 98.978079 
L 174.775044 100.977189 
L 174.999275 97.108839 
L 175.223507 98.449751 
L 175.447738 94.143905 
L 175.67197 93.015838 
L 175.896202 96.134811 
L 176.120433 95.250534 
L 176.344665 104.961788 
L 176.568896 96.317666 
L 176.793128 92.971043 
L 177.01736 96.864911 
L 177.241591 92.296834 
L 177.465823 90.985421 
L 177.690054 104.909201 
L 178.138518 101.748387 
L 178.362749 94.667687 
L 178.811212 104.336041 
L 179.259676 95.1958 
L 179.483907 97.022081 
L 179.708139 91.628435 
L 179.93237 99.529543 
L 180.156602 95.46668 
L 180.380834 95.371577 
L 180.605065 91.198597 
L 181.053528 100.689372 
L 181.27776 94.594539 
L 181.501992 105.929104 
L 181.726223 103.738482 
L 181.950455 93.052433 
L 182.174687 102.827103 
L 182.398918 91.799458 
L 182.62315 111.930979 
L 182.847381 95.768556 
L 183.071613 95.689677 
L 183.295845 96.239996 
L 183.520076 96.350692 
L 183.744308 94.447349 
L 183.968539 93.990588 
L 184.192771 99.420253 
L 184.417003 98.927233 
L 184.641234 96.791296 
L 184.865466 96.542287 
L 185.089697 96.121395 
L 185.538161 98.801399 
L 185.762392 92.18982 
L 185.986624 94.623468 
L 186.210855 103.307358 
L 186.435087 91.175 
L 186.88355 94.082174 
L 187.107782 101.76947 
L 187.332013 99.449181 
L 187.556245 91.735056 
L 187.780477 96.630863 
L 188.004708 97.589623 
L 188.22894 95.416676 
L 188.453171 95.727912 
L 188.677403 94.675237 
L 188.901635 98.652523 
L 189.125866 94.403637 
L 189.350098 101.665873 
L 189.574329 95.750733 
L 189.798561 104.521176 
L 190.022793 97.374771 
L 190.247024 96.725794 
L 190.471256 94.894538 
L 190.695487 104.553489 
L 190.919719 93.714204 
L 191.143951 105.983137 
L 191.368182 94.34526 
L 191.592414 104.872405 
L 191.816645 98.857687 
L 192.040877 100.344523 
L 192.265109 103.798068 
L 192.48934 103.595338 
L 192.713572 95.440706 
L 192.937803 94.321693 
L 193.386267 110.14702 
L 193.83473 92.512721 
L 194.058961 93.515218 
L 194.283193 99.27773 
L 194.507425 94.628578 
L 194.731656 118.500253 
L 194.955888 105.893367 
L 195.180119 108.172635 
L 195.404351 121.254185 
L 195.628583 96.153526 
L 195.852814 96.643218 
L 195.852814 96.643218 
" clip-path="url(#pb792ebd3fd)" style="fill: none; stroke: #1e90ff; stroke-width: 0.8; stroke-linecap: square"/>
   </g>
   <g id="line2d_10">
    <path d="M 61.762316 60.950595 
L 61.986548 64.458121 
L 62.210779 62.213733 
L 62.435011 70.080446 
L 62.659242 57.477455 
L 62.883474 67.720867 
L 63.107706 60.937681 
L 63.331937 60.999063 
L 63.556169 61.800877 
L 64.004632 71.161188 
L 64.228864 62.808872 
L 64.453095 65.92343 
L 64.677327 63.465191 
L 64.901558 78.864616 
L 65.12579 67.609667 
L 65.350022 78.014249 
L 65.574253 63.12354 
L 65.798485 61.523192 
L 66.022716 66.331114 
L 66.246948 68.352864 
L 66.47118 67.176641 
L 66.695411 66.615454 
L 66.919643 69.900414 
L 67.143874 75.979315 
L 67.368106 64.971251 
L 67.592338 68.802739 
L 67.816569 69.965394 
L 68.265032 69.800321 
L 68.489264 64.870788 
L 68.713496 64.92684 
L 68.937727 73.052991 
L 69.386191 71.453701 
L 69.610422 65.551181 
L 69.834654 64.485923 
L 70.058885 50.535801 
L 70.283117 64.612563 
L 70.73158 70.601438 
L 71.180043 68.835084 
L 71.404275 72.764136 
L 71.628507 67.452117 
L 71.852738 77.079806 
L 72.07697 68.679914 
L 72.301201 76.449361 
L 72.525433 67.435414 
L 72.749665 71.914348 
L 73.198128 75.182364 
L 73.422359 73.769479 
L 73.646591 69.692055 
L 73.870823 69.943833 
L 74.095054 69.997636 
L 74.319286 72.065454 
L 74.543517 83.448978 
L 74.767749 76.416232 
L 74.991981 76.842025 
L 75.216212 75.21816 
L 75.664675 70.844014 
L 75.888907 74.733889 
L 76.113139 74.690037 
L 76.33737 70.735396 
L 77.010065 75.918019 
L 77.234297 75.450802 
L 77.458528 72.972636 
L 77.68276 78.355072 
L 77.906991 74.604558 
L 78.131223 80.030796 
L 78.355455 70.828073 
L 78.579686 80.145988 
L 78.803918 71.541882 
L 79.028149 83.084176 
L 79.252381 84.420948 
L 79.476613 83.468149 
L 79.700844 76.579613 
L 79.925076 86.217389 
L 80.149307 77.711025 
L 80.373539 73.534132 
L 80.597771 75.897125 
L 80.822002 81.359332 
L 81.046234 82.878142 
L 81.270465 74.720824 
L 81.494697 74.876067 
L 81.94316 80.704455 
L 82.167392 72.237764 
L 82.391623 75.044339 
L 82.615855 76.218765 
L 82.840087 94.91873 
L 83.064318 74.454954 
L 83.28855 84.152643 
L 83.512781 74.483942 
L 83.737013 89.557212 
L 83.961245 75.631892 
L 84.185476 88.136896 
L 84.409708 79.528193 
L 84.633939 79.113995 
L 84.858171 76.780568 
L 85.082403 76.190725 
L 85.306634 84.869444 
L 85.530866 80.601638 
L 85.755097 78.810622 
L 85.979329 75.53767 
L 86.203561 76.448846 
L 86.427792 81.366038 
L 86.876255 74.189686 
L 87.100487 74.449318 
L 87.324719 83.124865 
L 87.54895 79.275995 
L 87.773182 82.180232 
L 87.997414 83.20286 
L 88.445877 77.598644 
L 88.670108 79.356863 
L 89.118572 71.975409 
L 89.342803 82.252076 
L 89.567035 79.821027 
L 90.015498 83.760571 
L 90.23973 80.895357 
L 90.463961 82.976855 
L 90.688193 80.757554 
L 90.912424 83.195671 
L 91.136656 82.067744 
L 91.360888 79.204318 
L 91.585119 78.483921 
L 92.033582 95.584605 
L 92.482046 78.607358 
L 92.706277 78.302226 
L 92.930509 79.175012 
L 93.15474 77.625251 
L 93.378972 72.911471 
L 93.827435 85.741027 
L 94.051667 79.761882 
L 94.275898 85.464977 
L 94.50013 78.262146 
L 94.724362 80.487532 
L 94.948593 78.918843 
L 95.172825 81.236832 
L 95.397056 91.525954 
L 95.621288 89.124262 
L 95.84552 81.169919 
L 96.069751 87.089502 
L 96.293983 78.817083 
L 96.518214 91.987284 
L 96.966678 76.905462 
L 97.190909 80.95405 
L 97.415141 82.341299 
L 97.639372 78.785605 
L 97.863604 80.555514 
L 98.087836 77.57846 
L 98.536299 89.87905 
L 98.76053 84.607517 
L 98.984762 88.243634 
L 99.208994 78.202329 
L 99.433225 82.727297 
L 99.657457 79.130651 
L 99.881688 85.25993 
L 100.10592 83.466936 
L 100.330152 85.721712 
L 100.554383 81.935912 
L 101.002846 86.737187 
L 101.45131 80.051338 
L 101.675541 84.542126 
L 101.899773 83.557274 
L 102.124004 79.480044 
L 102.348236 81.348143 
L 102.572468 87.078621 
L 102.796699 75.633023 
L 103.020931 103.577366 
L 103.245162 81.759201 
L 103.469394 85.510798 
L 103.693626 84.011555 
L 103.917857 83.447975 
L 104.142089 86.286733 
L 104.590552 81.917523 
L 104.814784 87.34871 
L 105.039015 86.46697 
L 105.263247 91.2488 
L 105.487478 90.054003 
L 105.71171 86.446922 
L 105.935942 87.01535 
L 106.160173 95.295137 
L 106.384405 98.896822 
L 106.608637 88.867494 
L 106.832868 91.405608 
L 107.0571 88.66713 
L 107.281331 91.757846 
L 107.505563 87.985477 
L 107.729795 90.290629 
L 107.954026 81.694433 
L 108.178258 87.893422 
L 108.402489 82.008217 
L 108.626721 89.720577 
L 108.850953 82.326187 
L 109.075184 93.084738 
L 109.523647 87.103722 
L 109.747879 88.125628 
L 109.972111 88.366509 
L 110.196342 85.508014 
L 110.420574 96.525456 
L 110.644805 88.041756 
L 110.869037 86.905586 
L 111.3175 93.956711 
L 111.541732 83.385567 
L 111.765963 83.837517 
L 111.990195 81.795805 
L 112.214427 84.957314 
L 112.438658 82.884816 
L 112.66289 97.645892 
L 112.887121 88.030312 
L 113.111353 102.147318 
L 113.784048 86.65326 
L 114.008279 87.159595 
L 114.232511 83.804774 
L 114.456743 95.290791 
L 114.680974 83.281892 
L 114.905206 91.50448 
L 115.129437 93.741347 
L 115.353669 84.345442 
L 115.577901 86.623702 
L 115.802132 85.859209 
L 116.026364 94.553556 
L 116.250595 89.161064 
L 116.474827 87.870646 
L 116.699059 95.368104 
L 116.92329 95.440895 
L 117.147522 86.253298 
L 117.371753 86.201892 
L 117.595985 88.975063 
L 117.820217 87.489852 
L 118.044448 89.023907 
L 118.26868 86.153852 
L 118.492911 104.319053 
L 118.941375 88.08986 
L 119.165606 95.645078 
L 119.389838 92.878187 
L 119.614069 92.605436 
L 119.838301 91.925048 
L 120.062533 89.15807 
L 120.286764 90.655074 
L 120.510996 97.63368 
L 121.183691 89.918256 
L 121.407922 84.646774 
L 121.632154 89.939783 
L 121.856385 86.829037 
L 122.080617 88.712974 
L 122.304849 96.409765 
L 122.52908 85.984177 
L 122.977543 94.047038 
L 123.201775 92.536715 
L 123.87447 85.516376 
L 124.098701 100.568158 
L 124.322933 91.252878 
L 124.547165 87.093299 
L 124.771396 95.609969 
L 124.995628 98.438549 
L 125.219859 82.353042 
L 125.444091 88.143969 
L 125.668323 99.374168 
L 126.116786 83.912796 
L 126.341018 89.941699 
L 126.565249 91.354588 
L 126.789481 94.975868 
L 127.237944 84.765796 
L 127.462176 99.859523 
L 127.686407 87.15787 
L 127.910639 88.029196 
L 128.13487 87.139792 
L 128.359102 95.006047 
L 128.807565 88.123138 
L 129.031797 87.455129 
L 129.256028 91.43042 
L 129.704492 87.43345 
L 129.928723 88.287497 
L 130.152955 97.035018 
L 130.377186 101.331299 
L 130.601418 94.224628 
L 131.049881 95.920821 
L 131.274113 94.063802 
L 131.498344 85.444369 
L 131.722576 87.091686 
L 131.946808 95.595684 
L 132.171039 94.63498 
L 132.395271 85.407828 
L 132.619502 85.439539 
L 132.843734 96.910815 
L 133.067966 87.24964 
L 133.292197 88.195475 
L 133.516429 97.410601 
L 133.74066 88.074256 
L 133.964892 94.611144 
L 134.189124 87.960424 
L 134.413355 87.504339 
L 134.637587 86.443392 
L 134.861818 89.685802 
L 135.08605 89.899387 
L 135.310282 91.760404 
L 135.534513 97.609894 
L 135.758745 91.858474 
L 136.207208 94.077292 
L 136.43144 104.578093 
L 136.655671 89.76654 
L 136.879903 94.12928 
L 137.104134 87.926407 
L 137.552598 92.472281 
L 137.776829 103.727373 
L 138.001061 93.088975 
L 138.225292 89.328896 
L 138.449524 87.566497 
L 138.673756 94.189109 
L 139.122219 89.611729 
L 139.34645 91.544258 
L 139.570682 89.143394 
L 139.794914 91.430816 
L 140.019145 87.390993 
L 140.243377 98.654834 
L 140.467608 89.385739 
L 140.69184 93.067775 
L 140.916072 85.620651 
L 141.140303 89.165602 
L 141.364535 88.875919 
L 141.588766 91.980614 
L 141.812998 97.421272 
L 142.03723 90.188792 
L 142.261461 91.960982 
L 142.485693 88.20884 
L 142.709924 93.112282 
L 142.934156 88.481976 
L 143.158388 96.585816 
L 143.382619 94.339621 
L 143.606851 97.176945 
L 143.831082 91.150681 
L 144.055314 95.903236 
L 144.279546 90.854111 
L 144.503777 91.812617 
L 144.728009 89.800953 
L 144.952241 95.243503 
L 145.176472 88.444439 
L 145.400704 93.000581 
L 145.624935 91.198375 
L 145.849167 115.856625 
L 146.073399 92.882091 
L 146.521862 87.155274 
L 146.746093 100.337519 
L 146.970325 100.420347 
L 147.194557 91.170299 
L 147.418788 89.062332 
L 147.64302 95.440374 
L 147.867251 95.916177 
L 148.091483 87.244657 
L 148.315715 89.570579 
L 148.539946 102.063174 
L 148.764178 94.028846 
L 148.988409 101.178892 
L 149.212641 104.010162 
L 149.661104 92.678522 
L 149.885336 89.455198 
L 150.109567 91.654208 
L 150.333799 92.424749 
L 150.558031 97.50219 
L 150.782262 91.298784 
L 151.006494 88.731707 
L 151.230725 87.675492 
L 151.90342 94.677171 
L 152.127652 91.10969 
L 152.351883 90.935285 
L 152.576115 94.317206 
L 152.800347 93.919576 
L 153.024578 88.770112 
L 153.24881 96.767441 
L 153.473041 98.561146 
L 153.697273 95.990426 
L 153.921505 99.101161 
L 154.145736 85.539037 
L 154.369968 90.28276 
L 154.594199 102.84119 
L 154.818431 90.552436 
L 155.042663 94.462853 
L 155.266894 93.097631 
L 155.491126 94.821289 
L 155.715357 94.393458 
L 155.939589 92.308723 
L 156.163821 93.200284 
L 156.388052 93.108343 
L 156.612284 124.407273 
L 156.836515 94.412211 
L 157.060747 88.862381 
L 157.284979 90.314854 
L 157.733442 95.81923 
L 157.957673 103.985751 
L 158.181905 94.205431 
L 158.630368 91.154768 
L 158.8546 104.868673 
L 159.303063 89.842451 
L 159.527295 95.280804 
L 159.751526 93.818036 
L 159.975758 97.255312 
L 160.199989 94.288662 
L 160.424221 89.001023 
L 160.872684 98.211318 
L 161.096916 93.112359 
L 161.321147 101.425443 
L 161.545379 101.77653 
L 161.769611 96.116592 
L 161.993842 93.496387 
L 162.218074 98.766632 
L 162.442305 96.544548 
L 162.666537 91.666176 
L 162.890769 93.537255 
L 163.115 108.532093 
L 163.339232 95.351399 
L 163.563464 96.988081 
L 164.011927 93.054665 
L 164.236158 97.563985 
L 164.46039 123.852821 
L 164.684622 92.304997 
L 164.908853 91.098703 
L 165.133085 99.345946 
L 165.357316 92.570691 
L 165.581548 94.54385 
L 165.80578 98.93238 
L 166.030011 98.844652 
L 166.478474 89.176614 
L 166.702706 89.632584 
L 166.926938 106.378142 
L 167.151169 95.891493 
L 167.375401 95.354182 
L 167.599632 101.865034 
L 167.823864 98.62668 
L 168.048096 100.602798 
L 168.272327 96.396387 
L 168.496559 98.886181 
L 168.945022 93.058252 
L 169.169254 93.896645 
L 169.393485 110.363834 
L 169.617717 94.324401 
L 169.841948 92.173459 
L 170.06618 102.209621 
L 170.290412 90.0727 
L 170.514643 102.12794 
L 170.738875 93.461433 
L 170.963106 96.205205 
L 171.187338 102.812252 
L 171.41157 94.400345 
L 171.635801 94.54962 
L 171.860033 102.895795 
L 172.308496 98.748938 
L 172.532728 92.889129 
L 172.756959 97.244849 
L 173.429654 95.34788 
L 173.653886 90.300728 
L 173.878117 105.208423 
L 174.102349 89.834017 
L 174.32658 99.109208 
L 174.550812 93.592714 
L 174.775044 94.818873 
L 175.223507 98.935882 
L 175.447738 93.649798 
L 175.67197 91.874004 
L 175.896202 96.813246 
L 176.120433 96.178978 
L 176.344665 102.680309 
L 176.793128 92.60025 
L 177.241591 98.002731 
L 177.465823 92.733337 
L 177.914286 107.934626 
L 178.138518 102.411148 
L 178.362749 92.934827 
L 178.811212 98.690349 
L 179.259676 94.943193 
L 179.483907 96.246361 
L 179.708139 92.198133 
L 179.93237 102.054384 
L 180.156602 95.442545 
L 180.380834 95.862659 
L 180.605065 92.819086 
L 180.829297 100.223337 
L 181.053528 112.766695 
L 181.27776 93.684983 
L 181.501992 102.561789 
L 181.726223 102.286058 
L 181.950455 94.638091 
L 182.174687 104.186815 
L 182.398918 90.483995 
L 182.62315 97.234985 
L 182.847381 92.602377 
L 183.295845 98.71841 
L 183.520076 97.349786 
L 183.968539 91.886074 
L 184.192771 99.660818 
L 184.417003 96.38328 
L 184.865466 98.318127 
L 185.089697 104.005581 
L 185.313929 100.158649 
L 185.538161 102.4613 
L 185.762392 93.109869 
L 185.986624 93.431187 
L 186.210855 103.74015 
L 186.435087 92.471136 
L 186.659319 93.096082 
L 186.88355 94.759648 
L 187.107782 98.915717 
L 187.332013 99.346361 
L 187.556245 93.982895 
L 187.780477 106.706299 
L 188.004708 94.989977 
L 188.22894 96.060779 
L 188.453171 98.521389 
L 188.677403 95.192795 
L 188.901635 98.915229 
L 189.125866 93.461564 
L 189.350098 101.257373 
L 189.574329 94.850098 
L 189.798561 107.836337 
L 190.022793 100.379403 
L 190.247024 101.838015 
L 190.471256 96.645513 
L 190.695487 98.207018 
L 190.919719 95.946788 
L 191.143951 113.307959 
L 191.368182 96.72911 
L 191.592414 100.713632 
L 191.816645 99.118086 
L 192.040877 99.524981 
L 192.265109 103.251825 
L 192.48934 110.814798 
L 192.713572 96.25144 
L 192.937803 95.060971 
L 193.162035 104.983118 
L 193.386267 107.998557 
L 193.610498 102.580481 
L 193.83473 93.970995 
L 194.058961 94.27607 
L 194.283193 98.319856 
L 194.507425 96.13245 
L 194.731656 117.886171 
L 194.955888 105.1964 
L 195.180119 108.851108 
L 195.404351 107.451158 
L 195.628583 97.050953 
L 195.852814 99.316204 
L 195.852814 99.316204 
" clip-path="url(#pb792ebd3fd)" style="fill: none; stroke: #ff0000; stroke-width: 0.8; stroke-linecap: square"/>
   </g>
   <g id="patch_3">
    <path d="M 59.52 129.12 
L 59.52 25.44 
" style="fill: none; stroke: #000000; stroke-width: 0.8; stroke-linejoin: miter; stroke-linecap: square"/>
   </g>
   <g id="patch_4">
    <path d="M 198.319362 129.12 
L 198.319362 25.44 
" style="fill: none; stroke: #000000; stroke-width: 0.8; stroke-linejoin: miter; stroke-linecap: square"/>
   </g>
   <g id="patch_5">
    <path d="M 59.52 129.12 
L 198.319362 129.12 
" style="fill: none; stroke: #000000; stroke-width: 0.8; stroke-linejoin: miter; stroke-linecap: square"/>
   </g>
   <g id="patch_6">
    <path d="M 59.52 25.44 
L 198.319362 25.44 
" style="fill: none; stroke: #000000; stroke-width: 0.8; stroke-linejoin: miter; stroke-linecap: square"/>
   </g>
   <g id="text_10">
    <!-- Frequency Domain Plot -->
    <g transform="translate(59.520306 19.44) scale(0.12 -0.12)">
     <defs>
      <path id="DejaVuSans-44" d="M 1259 4147 
L 1259 519 
L 2022 519 
Q 2988 519 3436 956 
Q 3884 1394 3884 2338 
Q 3884 3275 3436 3711 
Q 2988 4147 2022 4147 
L 1259 4147 
z
M 628 4666 
L 1925 4666 
Q 3281 4666 3915 4102 
Q 4550 3538 4550 2338 
Q 4550 1131 3912 565 
Q 3275 0 1925 0 
L 628 0 
L 628 4666 
z
" transform="scale(0.015625)"/>
      <path id="DejaVuSans-6d" d="M 3328 2828 
Q 3544 3216 3844 3400 
Q 4144 3584 4550 3584 
Q 5097 3584 5394 3201 
Q 5691 2819 5691 2113 
L 5691 0 
L 5113 0 
L 5113 2094 
Q 5113 2597 4934 2840 
Q 4756 3084 4391 3084 
Q 3944 3084 3684 2787 
Q 3425 2491 3425 1978 
L 3425 0 
L 2847 0 
L 2847 2094 
Q 2847 2600 2669 2842 
Q 2491 3084 2119 3084 
Q 1678 3084 1418 2786 
Q 1159 2488 1159 1978 
L 1159 0 
L 581 0 
L 581 3500 
L 1159 3500 
L 1159 2956 
Q 1356 3278 1631 3431 
Q 1906 3584 2284 3584 
Q 2666 3584 2933 3390 
Q 3200 3197 3328 2828 
z
" transform="scale(0.015625)"/>
      <path id="DejaVuSans-61" d="M 2194 1759 
Q 1497 1759 1228 1600 
Q 959 1441 959 1056 
Q 959 750 1161 570 
Q 1363 391 1709 391 
Q 2188 391 2477 730 
Q 2766 1069 2766 1631 
L 2766 1759 
L 2194 1759 
z
M 3341 1997 
L 3341 0 
L 2766 0 
L 2766 531 
Q 2569 213 2275 61 
Q 1981 -91 1556 -91 
Q 1019 -91 701 211 
Q 384 513 384 1019 
Q 384 1609 779 1909 
Q 1175 2209 1959 2209 
L 2766 2209 
L 2766 2266 
Q 2766 2663 2505 2880 
Q 2244 3097 1772 3097 
Q 1472 3097 1187 3025 
Q 903 2953 641 2809 
L 641 3341 
Q 956 3463 1253 3523 
Q 1550 3584 1831 3584 
Q 2591 3584 2966 3190 
Q 3341 2797 3341 1997 
z
" transform="scale(0.015625)"/>
      <path id="DejaVuSans-69" d="M 603 3500 
L 1178 3500 
L 1178 0 
L 603 0 
L 603 3500 
z
M 603 4863 
L 1178 4863 
L 1178 4134 
L 603 4134 
L 603 4863 
z
" transform="scale(0.015625)"/>
      <path id="DejaVuSans-50" d="M 1259 4147 
L 1259 2394 
L 2053 2394 
Q 2494 2394 2734 2622 
Q 2975 2850 2975 3272 
Q 2975 3691 2734 3919 
Q 2494 4147 2053 4147 
L 1259 4147 
z
M 628 4666 
L 2053 4666 
Q 2838 4666 3239 4311 
Q 3641 3956 3641 3272 
Q 3641 2581 3239 2228 
Q 2838 1875 2053 1875 
L 1259 1875 
L 1259 0 
L 628 0 
L 628 4666 
z
" transform="scale(0.015625)"/>
      <path id="DejaVuSans-6c" d="M 603 4863 
L 1178 4863 
L 1178 0 
L 603 0 
L 603 4863 
z
" transform="scale(0.015625)"/>
      <path id="DejaVuSans-74" d="M 1172 4494 
L 1172 3500 
L 2356 3500 
L 2356 3053 
L 1172 3053 
L 1172 1153 
Q 1172 725 1289 603 
Q 1406 481 1766 481 
L 2356 481 
L 2356 0 
L 1766 0 
Q 1100 0 847 248 
Q 594 497 594 1153 
L 594 3053 
L 172 3053 
L 172 3500 
L 594 3500 
L 594 4494 
L 1172 4494 
z
" transform="scale(0.015625)"/>
     </defs>
     <use xlink:href="#DejaVuSans-46"/>
     <use xlink:href="#DejaVuSans-72" x="50.269531"/>
     <use xlink:href="#DejaVuSans-65" x="89.132812"/>
     <use xlink:href="#DejaVuSans-71" x="150.65625"/>
     <use xlink:href="#DejaVuSans-75" x="214.132812"/>
     <use xlink:href="#DejaVuSans-65" x="277.511719"/>
     <use xlink:href="#DejaVuSans-6e" x="339.035156"/>
     <use xlink:href="#DejaVuSans-63" x="402.414062"/>
     <use xlink:href="#DejaVuSans-79" x="457.394531"/>
     <use xlink:href="#DejaVuSans-20" x="516.574219"/>
     <use xlink:href="#DejaVuSans-44" x="548.361328"/>
     <use xlink:href="#DejaVuSans-6f" x="625.363281"/>
     <use xlink:href="#DejaVuSans-6d" x="686.544922"/>
     <use xlink:href="#DejaVuSans-61" x="783.957031"/>
     <use xlink:href="#DejaVuSans-69" x="845.236328"/>
     <use xlink:href="#DejaVuSans-6e" x="873.019531"/>
     <use xlink:href="#DejaVuSans-20" x="936.398438"/>
     <use xlink:href="#DejaVuSans-50" x="968.185547"/>
     <use xlink:href="#DejaVuSans-6c" x="1028.488281"/>
     <use xlink:href="#DejaVuSans-6f" x="1056.271484"/>
     <use xlink:href="#DejaVuSans-74" x="1117.453125"/>
    </g>
   </g>
   <g id="legend_1">
    <g id="patch_7">
     <path d="M 19.980191 158.724 
L 50.848316 158.724 
Q 51.448316 158.724 51.448316 158.124 
L 51.448316 145.213687 
Q 51.448316 144.613687 50.848316 144.613687 
L 19.980191 144.613687 
Q 19.380191 144.613687 19.380191 145.213687 
L 19.380191 158.124 
Q 19.380191 158.724 19.980191 158.724 
z
" style="fill: #ffffff; opacity: 0.8; stroke: #cccccc; stroke-linejoin: miter"/>
    </g>
    <g id="line2d_11">
     <path d="M 20.580191 147.043219 
L 23.580191 147.043219 
L 26.580191 147.043219 
" style="fill: none; stroke: #808080; stroke-width: 0.8; stroke-linecap: square"/>
    </g>
    <g id="text_11">
     <!-- Contaminated -->
     <g transform="translate(28.980191 148.093219) scale(0.03 -0.03)">
      <defs>
       <path id="DejaVuSans-43" d="M 4122 4306 
L 4122 3641 
Q 3803 3938 3442 4084 
Q 3081 4231 2675 4231 
Q 1875 4231 1450 3742 
Q 1025 3253 1025 2328 
Q 1025 1406 1450 917 
Q 1875 428 2675 428 
Q 3081 428 3442 575 
Q 3803 722 4122 1019 
L 4122 359 
Q 3791 134 3420 21 
Q 3050 -91 2638 -91 
Q 1578 -91 968 557 
Q 359 1206 359 2328 
Q 359 3453 968 4101 
Q 1578 4750 2638 4750 
Q 3056 4750 3426 4639 
Q 3797 4528 4122 4306 
z
" transform="scale(0.015625)"/>
      </defs>
      <use xlink:href="#DejaVuSans-43"/>
      <use xlink:href="#DejaVuSans-6f" x="69.824219"/>
      <use xlink:href="#DejaVuSans-6e" x="131.005859"/>
      <use xlink:href="#DejaVuSans-74" x="194.384766"/>
      <use xlink:href="#DejaVuSans-61" x="233.59375"/>
      <use xlink:href="#DejaVuSans-6d" x="294.873047"/>
      <use xlink:href="#DejaVuSans-69" x="392.285156"/>
      <use xlink:href="#DejaVuSans-6e" x="420.068359"/>
      <use xlink:href="#DejaVuSans-61" x="483.447266"/>
      <use xlink:href="#DejaVuSans-74" x="544.726562"/>
      <use xlink:href="#DejaVuSans-65" x="583.935547"/>
      <use xlink:href="#DejaVuSans-64" x="645.458984"/>
     </g>
    </g>
    <g id="line2d_12">
     <path d="M 20.580191 151.446656 
L 23.580191 151.446656 
L 26.580191 151.446656 
" style="fill: none; stroke: #1e90ff; stroke-width: 0.8; stroke-linecap: square"/>
    </g>
    <g id="text_12">
     <!-- Clean -->
     <g transform="translate(28.980191 152.496656) scale(0.03 -0.03)">
      <use xlink:href="#DejaVuSans-43"/>
      <use xlink:href="#DejaVuSans-6c" x="69.824219"/>
      <use xlink:href="#DejaVuSans-65" x="97.607422"/>
      <use xlink:href="#DejaVuSans-61" x="159.130859"/>
      <use xlink:href="#DejaVuSans-6e" x="220.410156"/>
     </g>
    </g>
    <g id="line2d_13">
     <path d="M 20.580191 155.850094 
L 23.580191 155.850094 
L 26.580191 155.850094 
" style="fill: none; stroke: #ff0000; stroke-width: 0.8; stroke-linecap: square"/>
    </g>
    <g id="text_13">
     <!-- SACed -->
     <g transform="translate(28.980191 156.900094) scale(0.03 -0.03)">
      <defs>
       <path id="DejaVuSans-53" d="M 3425 4513 
L 3425 3897 
Q 3066 4069 2747 4153 
Q 2428 4238 2131 4238 
Q 1616 4238 1336 4038 
Q 1056 3838 1056 3469 
Q 1056 3159 1242 3001 
Q 1428 2844 1947 2747 
L 2328 2669 
Q 3034 2534 3370 2195 
Q 3706 1856 3706 1288 
Q 3706 609 3251 259 
Q 2797 -91 1919 -91 
Q 1588 -91 1214 -16 
Q 841 59 441 206 
L 441 856 
Q 825 641 1194 531 
Q 1563 422 1919 422 
Q 2459 422 2753 634 
Q 3047 847 3047 1241 
Q 3047 1584 2836 1778 
Q 2625 1972 2144 2069 
L 1759 2144 
Q 1053 2284 737 2584 
Q 422 2884 422 3419 
Q 422 4038 858 4394 
Q 1294 4750 2059 4750 
Q 2388 4750 2728 4690 
Q 3069 4631 3425 4513 
z
" transform="scale(0.015625)"/>
       <path id="DejaVuSans-41" d="M 2188 4044 
L 1331 1722 
L 3047 1722 
L 2188 4044 
z
M 1831 4666 
L 2547 4666 
L 4325 0 
L 3669 0 
L 3244 1197 
L 1141 1197 
L 716 0 
L 50 0 
L 1831 4666 
z
" transform="scale(0.015625)"/>
      </defs>
      <use xlink:href="#DejaVuSans-53"/>
      <use xlink:href="#DejaVuSans-41" x="65.351562"/>
      <use xlink:href="#DejaVuSans-43" x="132.009766"/>
      <use xlink:href="#DejaVuSans-65" x="201.833984"/>
      <use xlink:href="#DejaVuSans-64" x="263.357422"/>
     </g>
    </g>
   </g>
  </g>
 </g>
 <defs>
  <clipPath id="pb792ebd3fd">
   <rect x="59.52" y="25.44" width="138.799362" height="103.68"/>
  </clipPath>
 </defs>
</svg>
