<?xml version="1.0" encoding="utf-8" standalone="no"?>
<!DOCTYPE svg PUBLIC "-//W3C//DTD SVG 1.1//EN"
  "http://www.w3.org/Graphics/SVG/1.1/DTD/svg11.dtd">
<svg xmlns:xlink="http://www.w3.org/1999/xlink" width="216pt" height="180pt" viewBox="0 0 216 180" xmlns="http://www.w3.org/2000/svg" version="1.1">
 <metadata>
  <rdf:RDF xmlns:dc="http://purl.org/dc/elements/1.1/" xmlns:cc="http://creativecommons.org/ns#" xmlns:rdf="http://www.w3.org/1999/02/22-rdf-syntax-ns#">
   <cc:Work>
    <dc:type rdf:resource="http://purl.org/dc/dcmitype/StillImage"/>
    <dc:date>2024-08-25T20:03:00.104193</dc:date>
    <dc:format>image/svg+xml</dc:format>
    <dc:creator>
     <cc:Agent>
      <dc:title>Matplotlib v3.9.1, https://matplotlib.org/</dc:title>
     </cc:Agent>
    </dc:creator>
   </cc:Work>
  </rdf:RDF>
 </metadata>
 <defs>
  <style type="text/css">*{stroke-linejoin: round; stroke-linecap: butt}</style>
 </defs>
 <g id="figure_1">
  <g id="patch_1">
   <path d="M 0 180 
L 216 180 
L 216 0 
L 0 0 
z
" style="fill: #ffffff"/>
  </g>
  <g id="axes_1">
   <g id="patch_2">
    <path d="M 59.52 129.12 
L 197.379952 129.12 
L 197.379952 25.44 
L 59.52 25.44 
z
" style="fill: #ffffff"/>
   </g>
   <g id="matplotlib.axis_1">
    <g id="xtick_1">
     <g id="line2d_1">
      <defs>
       <path id="m6337c543df" d="M 0 0 
L 0 3.5 
" style="stroke: #000000; stroke-width: 0.8"/>
      </defs>
      <g>
       <use xlink:href="#m6337c543df" x="62.104874" y="129.12" style="stroke: #000000; stroke-width: 0.8"/>
      </g>
     </g>
     <g id="text_1">
      <!-- 1.00 -->
      <g transform="translate(50.972062 143.718437) scale(0.1 -0.1)">
       <defs>
        <path id="DejaVuSans-31" d="M 794 531 
L 1825 531 
L 1825 4091 
L 703 3866 
L 703 4441 
L 1819 4666 
L 2450 4666 
L 2450 531 
L 3481 531 
L 3481 0 
L 794 0 
L 794 531 
z
" transform="scale(0.015625)"/>
        <path id="DejaVuSans-2e" d="M 684 794 
L 1344 794 
L 1344 0 
L 684 0 
L 684 794 
z
" transform="scale(0.015625)"/>
        <path id="DejaVuSans-30" d="M 2034 4250 
Q 1547 4250 1301 3770 
Q 1056 3291 1056 2328 
Q 1056 1369 1301 889 
Q 1547 409 2034 409 
Q 2525 409 2770 889 
Q 3016 1369 3016 2328 
Q 3016 3291 2770 3770 
Q 2525 4250 2034 4250 
z
M 2034 4750 
Q 2819 4750 3233 4129 
Q 3647 3509 3647 2328 
Q 3647 1150 3233 529 
Q 2819 -91 2034 -91 
Q 1250 -91 836 529 
Q 422 1150 422 2328 
Q 422 3509 836 4129 
Q 1250 4750 2034 4750 
z
" transform="scale(0.015625)"/>
       </defs>
       <use xlink:href="#DejaVuSans-31"/>
       <use xlink:href="#DejaVuSans-2e" x="63.623047"/>
       <use xlink:href="#DejaVuSans-30" x="95.410156"/>
       <use xlink:href="#DejaVuSans-30" x="159.033203"/>
      </g>
     </g>
    </g>
    <g id="xtick_2">
     <g id="line2d_2">
      <g>
       <use xlink:href="#m6337c543df" x="128.367127" y="129.12" style="stroke: #000000; stroke-width: 0.8"/>
      </g>
     </g>
     <g id="text_2">
      <!-- 1.25 -->
      <g transform="translate(117.234315 143.718437) scale(0.1 -0.1)">
       <defs>
        <path id="DejaVuSans-32" d="M 1228 531 
L 3431 531 
L 3431 0 
L 469 0 
L 469 531 
Q 828 903 1448 1529 
Q 2069 2156 2228 2338 
Q 2531 2678 2651 2914 
Q 2772 3150 2772 3378 
Q 2772 3750 2511 3984 
Q 2250 4219 1831 4219 
Q 1534 4219 1204 4116 
Q 875 4013 500 3803 
L 500 4441 
Q 881 4594 1212 4672 
Q 1544 4750 1819 4750 
Q 2544 4750 2975 4387 
Q 3406 4025 3406 3419 
Q 3406 3131 3298 2873 
Q 3191 2616 2906 2266 
Q 2828 2175 2409 1742 
Q 1991 1309 1228 531 
z
" transform="scale(0.015625)"/>
        <path id="DejaVuSans-35" d="M 691 4666 
L 3169 4666 
L 3169 4134 
L 1269 4134 
L 1269 2991 
Q 1406 3038 1543 3061 
Q 1681 3084 1819 3084 
Q 2600 3084 3056 2656 
Q 3513 2228 3513 1497 
Q 3513 744 3044 326 
Q 2575 -91 1722 -91 
Q 1428 -91 1123 -41 
Q 819 9 494 109 
L 494 744 
Q 775 591 1075 516 
Q 1375 441 1709 441 
Q 2250 441 2565 725 
Q 2881 1009 2881 1497 
Q 2881 1984 2565 2268 
Q 2250 2553 1709 2553 
Q 1456 2553 1204 2497 
Q 953 2441 691 2322 
L 691 4666 
z
" transform="scale(0.015625)"/>
       </defs>
       <use xlink:href="#DejaVuSans-31"/>
       <use xlink:href="#DejaVuSans-2e" x="63.623047"/>
       <use xlink:href="#DejaVuSans-32" x="95.410156"/>
       <use xlink:href="#DejaVuSans-35" x="159.033203"/>
      </g>
     </g>
    </g>
    <g id="xtick_3">
     <g id="line2d_3">
      <g>
       <use xlink:href="#m6337c543df" x="194.629381" y="129.12" style="stroke: #000000; stroke-width: 0.8"/>
      </g>
     </g>
     <g id="text_3">
      <!-- 1.50 -->
      <g transform="translate(183.496568 143.718437) scale(0.1 -0.1)">
       <use xlink:href="#DejaVuSans-31"/>
       <use xlink:href="#DejaVuSans-2e" x="63.623047"/>
       <use xlink:href="#DejaVuSans-35" x="95.410156"/>
       <use xlink:href="#DejaVuSans-30" x="159.033203"/>
      </g>
     </g>
    </g>
    <g id="text_4">
     <!-- Time (s) -->
     <g transform="translate(108.12107 157.396563) scale(0.1 -0.1)">
      <defs>
       <path id="DejaVuSans-54" d="M -19 4666 
L 3928 4666 
L 3928 4134 
L 2272 4134 
L 2272 0 
L 1638 0 
L 1638 4134 
L -19 4134 
L -19 4666 
z
" transform="scale(0.015625)"/>
       <path id="DejaVuSans-69" d="M 603 3500 
L 1178 3500 
L 1178 0 
L 603 0 
L 603 3500 
z
M 603 4863 
L 1178 4863 
L 1178 4134 
L 603 4134 
L 603 4863 
z
" transform="scale(0.015625)"/>
       <path id="DejaVuSans-6d" d="M 3328 2828 
Q 3544 3216 3844 3400 
Q 4144 3584 4550 3584 
Q 5097 3584 5394 3201 
Q 5691 2819 5691 2113 
L 5691 0 
L 5113 0 
L 5113 2094 
Q 5113 2597 4934 2840 
Q 4756 3084 4391 3084 
Q 3944 3084 3684 2787 
Q 3425 2491 3425 1978 
L 3425 0 
L 2847 0 
L 2847 2094 
Q 2847 2600 2669 2842 
Q 2491 3084 2119 3084 
Q 1678 3084 1418 2786 
Q 1159 2488 1159 1978 
L 1159 0 
L 581 0 
L 581 3500 
L 1159 3500 
L 1159 2956 
Q 1356 3278 1631 3431 
Q 1906 3584 2284 3584 
Q 2666 3584 2933 3390 
Q 3200 3197 3328 2828 
z
" transform="scale(0.015625)"/>
       <path id="DejaVuSans-65" d="M 3597 1894 
L 3597 1613 
L 953 1613 
Q 991 1019 1311 708 
Q 1631 397 2203 397 
Q 2534 397 2845 478 
Q 3156 559 3463 722 
L 3463 178 
Q 3153 47 2828 -22 
Q 2503 -91 2169 -91 
Q 1331 -91 842 396 
Q 353 884 353 1716 
Q 353 2575 817 3079 
Q 1281 3584 2069 3584 
Q 2775 3584 3186 3129 
Q 3597 2675 3597 1894 
z
M 3022 2063 
Q 3016 2534 2758 2815 
Q 2500 3097 2075 3097 
Q 1594 3097 1305 2825 
Q 1016 2553 972 2059 
L 3022 2063 
z
" transform="scale(0.015625)"/>
       <path id="DejaVuSans-20" transform="scale(0.015625)"/>
       <path id="DejaVuSans-28" d="M 1984 4856 
Q 1566 4138 1362 3434 
Q 1159 2731 1159 2009 
Q 1159 1288 1364 580 
Q 1569 -128 1984 -844 
L 1484 -844 
Q 1016 -109 783 600 
Q 550 1309 550 2009 
Q 550 2706 781 3412 
Q 1013 4119 1484 4856 
L 1984 4856 
z
" transform="scale(0.015625)"/>
       <path id="DejaVuSans-73" d="M 2834 3397 
L 2834 2853 
Q 2591 2978 2328 3040 
Q 2066 3103 1784 3103 
Q 1356 3103 1142 2972 
Q 928 2841 928 2578 
Q 928 2378 1081 2264 
Q 1234 2150 1697 2047 
L 1894 2003 
Q 2506 1872 2764 1633 
Q 3022 1394 3022 966 
Q 3022 478 2636 193 
Q 2250 -91 1575 -91 
Q 1294 -91 989 -36 
Q 684 19 347 128 
L 347 722 
Q 666 556 975 473 
Q 1284 391 1588 391 
Q 1994 391 2212 530 
Q 2431 669 2431 922 
Q 2431 1156 2273 1281 
Q 2116 1406 1581 1522 
L 1381 1569 
Q 847 1681 609 1914 
Q 372 2147 372 2553 
Q 372 3047 722 3315 
Q 1072 3584 1716 3584 
Q 2034 3584 2315 3537 
Q 2597 3491 2834 3397 
z
" transform="scale(0.015625)"/>
       <path id="DejaVuSans-29" d="M 513 4856 
L 1013 4856 
Q 1481 4119 1714 3412 
Q 1947 2706 1947 2009 
Q 1947 1309 1714 600 
Q 1481 -109 1013 -844 
L 513 -844 
Q 928 -128 1133 580 
Q 1338 1288 1338 2009 
Q 1338 2731 1133 3434 
Q 928 4138 513 4856 
z
" transform="scale(0.015625)"/>
      </defs>
      <use xlink:href="#DejaVuSans-54"/>
      <use xlink:href="#DejaVuSans-69" x="57.958984"/>
      <use xlink:href="#DejaVuSans-6d" x="85.742188"/>
      <use xlink:href="#DejaVuSans-65" x="183.154297"/>
      <use xlink:href="#DejaVuSans-20" x="244.677734"/>
      <use xlink:href="#DejaVuSans-28" x="276.464844"/>
      <use xlink:href="#DejaVuSans-73" x="315.478516"/>
      <use xlink:href="#DejaVuSans-29" x="367.578125"/>
     </g>
    </g>
   </g>
   <g id="matplotlib.axis_2">
    <g id="ytick_1">
     <g id="line2d_4">
      <defs>
       <path id="m3575e5d54e" d="M 0 0 
L -3.5 0 
" style="stroke: #000000; stroke-width: 0.8"/>
      </defs>
      <g>
       <use xlink:href="#m3575e5d54e" x="59.52" y="108.103303" style="stroke: #000000; stroke-width: 0.8"/>
      </g>
     </g>
     <g id="text_5">
      <!-- −20 -->
      <g transform="translate(31.415312 111.902522) scale(0.1 -0.1)">
       <defs>
        <path id="DejaVuSans-2212" d="M 678 2272 
L 4684 2272 
L 4684 1741 
L 678 1741 
L 678 2272 
z
" transform="scale(0.015625)"/>
       </defs>
       <use xlink:href="#DejaVuSans-2212"/>
       <use xlink:href="#DejaVuSans-32" x="83.789062"/>
       <use xlink:href="#DejaVuSans-30" x="147.412109"/>
      </g>
     </g>
    </g>
    <g id="ytick_2">
     <g id="line2d_5">
      <g>
       <use xlink:href="#m3575e5d54e" x="59.52" y="85.16925" style="stroke: #000000; stroke-width: 0.8"/>
      </g>
     </g>
     <g id="text_6">
      <!-- −10 -->
      <g transform="translate(31.415312 88.968469) scale(0.1 -0.1)">
       <use xlink:href="#DejaVuSans-2212"/>
       <use xlink:href="#DejaVuSans-31" x="83.789062"/>
       <use xlink:href="#DejaVuSans-30" x="147.412109"/>
      </g>
     </g>
    </g>
    <g id="ytick_3">
     <g id="line2d_6">
      <g>
       <use xlink:href="#m3575e5d54e" x="59.52" y="62.235197" style="stroke: #000000; stroke-width: 0.8"/>
      </g>
     </g>
     <g id="text_7">
      <!-- 0 -->
      <g transform="translate(46.1575 66.034415) scale(0.1 -0.1)">
       <use xlink:href="#DejaVuSans-30"/>
      </g>
     </g>
    </g>
    <g id="ytick_4">
     <g id="line2d_7">
      <g>
       <use xlink:href="#m3575e5d54e" x="59.52" y="39.301143" style="stroke: #000000; stroke-width: 0.8"/>
      </g>
     </g>
     <g id="text_8">
      <!-- 10 -->
      <g transform="translate(39.795 43.100362) scale(0.1 -0.1)">
       <use xlink:href="#DejaVuSans-31"/>
       <use xlink:href="#DejaVuSans-30" x="63.623047"/>
      </g>
     </g>
    </g>
    <g id="text_9">
     <!-- Amplitude (mV) -->
     <g transform="translate(25.335625 116.683906) rotate(-90) scale(0.1 -0.1)">
      <defs>
       <path id="DejaVuSans-41" d="M 2188 4044 
L 1331 1722 
L 3047 1722 
L 2188 4044 
z
M 1831 4666 
L 2547 4666 
L 4325 0 
L 3669 0 
L 3244 1197 
L 1141 1197 
L 716 0 
L 50 0 
L 1831 4666 
z
" transform="scale(0.015625)"/>
       <path id="DejaVuSans-70" d="M 1159 525 
L 1159 -1331 
L 581 -1331 
L 581 3500 
L 1159 3500 
L 1159 2969 
Q 1341 3281 1617 3432 
Q 1894 3584 2278 3584 
Q 2916 3584 3314 3078 
Q 3713 2572 3713 1747 
Q 3713 922 3314 415 
Q 2916 -91 2278 -91 
Q 1894 -91 1617 61 
Q 1341 213 1159 525 
z
M 3116 1747 
Q 3116 2381 2855 2742 
Q 2594 3103 2138 3103 
Q 1681 3103 1420 2742 
Q 1159 2381 1159 1747 
Q 1159 1113 1420 752 
Q 1681 391 2138 391 
Q 2594 391 2855 752 
Q 3116 1113 3116 1747 
z
" transform="scale(0.015625)"/>
       <path id="DejaVuSans-6c" d="M 603 4863 
L 1178 4863 
L 1178 0 
L 603 0 
L 603 4863 
z
" transform="scale(0.015625)"/>
       <path id="DejaVuSans-74" d="M 1172 4494 
L 1172 3500 
L 2356 3500 
L 2356 3053 
L 1172 3053 
L 1172 1153 
Q 1172 725 1289 603 
Q 1406 481 1766 481 
L 2356 481 
L 2356 0 
L 1766 0 
Q 1100 0 847 248 
Q 594 497 594 1153 
L 594 3053 
L 172 3053 
L 172 3500 
L 594 3500 
L 594 4494 
L 1172 4494 
z
" transform="scale(0.015625)"/>
       <path id="DejaVuSans-75" d="M 544 1381 
L 544 3500 
L 1119 3500 
L 1119 1403 
Q 1119 906 1312 657 
Q 1506 409 1894 409 
Q 2359 409 2629 706 
Q 2900 1003 2900 1516 
L 2900 3500 
L 3475 3500 
L 3475 0 
L 2900 0 
L 2900 538 
Q 2691 219 2414 64 
Q 2138 -91 1772 -91 
Q 1169 -91 856 284 
Q 544 659 544 1381 
z
M 1991 3584 
L 1991 3584 
z
" transform="scale(0.015625)"/>
       <path id="DejaVuSans-64" d="M 2906 2969 
L 2906 4863 
L 3481 4863 
L 3481 0 
L 2906 0 
L 2906 525 
Q 2725 213 2448 61 
Q 2172 -91 1784 -91 
Q 1150 -91 751 415 
Q 353 922 353 1747 
Q 353 2572 751 3078 
Q 1150 3584 1784 3584 
Q 2172 3584 2448 3432 
Q 2725 3281 2906 2969 
z
M 947 1747 
Q 947 1113 1208 752 
Q 1469 391 1925 391 
Q 2381 391 2643 752 
Q 2906 1113 2906 1747 
Q 2906 2381 2643 2742 
Q 2381 3103 1925 3103 
Q 1469 3103 1208 2742 
Q 947 2381 947 1747 
z
" transform="scale(0.015625)"/>
       <path id="DejaVuSans-56" d="M 1831 0 
L 50 4666 
L 709 4666 
L 2188 738 
L 3669 4666 
L 4325 4666 
L 2547 0 
L 1831 0 
z
" transform="scale(0.015625)"/>
      </defs>
      <use xlink:href="#DejaVuSans-41"/>
      <use xlink:href="#DejaVuSans-6d" x="68.408203"/>
      <use xlink:href="#DejaVuSans-70" x="165.820312"/>
      <use xlink:href="#DejaVuSans-6c" x="229.296875"/>
      <use xlink:href="#DejaVuSans-69" x="257.080078"/>
      <use xlink:href="#DejaVuSans-74" x="284.863281"/>
      <use xlink:href="#DejaVuSans-75" x="324.072266"/>
      <use xlink:href="#DejaVuSans-64" x="387.451172"/>
      <use xlink:href="#DejaVuSans-65" x="450.927734"/>
      <use xlink:href="#DejaVuSans-20" x="512.451172"/>
      <use xlink:href="#DejaVuSans-28" x="544.238281"/>
      <use xlink:href="#DejaVuSans-6d" x="583.251953"/>
      <use xlink:href="#DejaVuSans-56" x="680.664062"/>
      <use xlink:href="#DejaVuSans-29" x="749.072266"/>
     </g>
    </g>
   </g>
   <g id="line2d_8">
    <path d="M 62.171153 69.410136 
L 62.436268 42.245332 
L 62.568826 43.199086 
L 62.833941 49.674252 
L 63.231614 66.952301 
L 63.761845 90.437624 
L 64.02696 96.044162 
L 64.159518 96.691679 
L 64.557191 37.294277 
L 64.689748 38.279737 
L 64.954863 45.890388 
L 65.352536 67.593558 
L 65.882767 98.349591 
L 66.147882 105.956113 
L 66.28044 106.879961 
L 66.545555 48.031028 
L 66.678113 37.861209 
L 66.810671 38.799213 
L 67.075786 46.604017 
L 67.606016 76.632529 
L 68.136247 102.97283 
L 68.401362 107.428099 
L 68.799035 36.052156 
L 68.931593 37.467074 
L 69.196708 46.680528 
L 69.726939 81.637313 
L 70.257169 111.502266 
L 70.522285 115.790993 
L 70.7874 49.306846 
L 70.919958 38.936118 
L 71.052515 40.11334 
L 71.317631 48.163353 
L 71.847861 79.078531 
L 72.378092 106.047352 
L 72.643207 109.934468 
L 72.908322 48.460751 
L 73.04088 37.378277 
L 73.173438 38.5769 
L 73.438553 47.175799 
L 73.968783 79.465768 
L 74.499014 108.070856 
L 74.764129 112.158055 
L 75.029245 47.012275 
L 75.161802 36.001416 
L 75.29436 37.060524 
L 75.559475 45.424913 
L 76.089706 77.078461 
L 76.619936 105.083991 
L 76.885052 109.002831 
L 77.282725 30.152727 
L 77.415282 31.536575 
L 77.680398 41.148401 
L 78.210628 78.121913 
L 78.740859 110.466528 
L 79.005974 115.109983 
L 79.271089 43.424388 
L 79.403647 32.305661 
L 79.536205 33.719923 
L 79.80132 42.52876 
L 80.198993 67.017908 
L 80.861781 106.236349 
L 81.126896 111.046425 
L 81.392012 49.637698 
L 81.524569 41.40373 
L 81.657127 42.201889 
L 81.922242 48.536702 
L 82.319915 65.797099 
L 82.982703 94.27424 
L 83.247819 97.41038 
L 83.645492 33.072142 
L 83.778049 34.222377 
L 84.043165 43.359215 
L 84.440837 68.998322 
L 84.971068 104.951921 
L 85.236183 114.414199 
L 85.368741 115.95588 
L 85.633856 50.92653 
L 85.766414 41.994283 
L 85.898972 43.133789 
L 86.164087 50.33593 
L 86.694317 77.905839 
L 87.224548 101.529512 
L 87.489663 105.102041 
L 87.754779 51.734194 
L 87.887336 42.389785 
L 88.019894 43.225641 
L 88.285009 49.952655 
L 88.81524 76.376376 
L 89.34547 99.063506 
L 89.610586 102.207008 
L 90.008259 33.683037 
L 90.140816 34.885886 
L 90.405932 43.586433 
L 90.803604 67.606042 
L 91.466393 107.23769 
L 91.731508 111.491636 
L 91.996623 43.19557 
L 92.129181 31.168149 
L 92.261739 32.188654 
L 92.526854 41.247097 
L 92.924527 66.917204 
L 93.587315 109.330449 
L 93.85243 114.574196 
L 94.117546 47.67661 
L 94.250103 37.672786 
L 94.382661 38.791945 
L 94.647776 46.2384 
L 95.178007 76.387971 
L 95.708237 103.045559 
L 95.973353 106.918402 
L 96.371026 34.573508 
L 96.503583 35.956058 
L 96.768699 44.983524 
L 97.298929 79.654193 
L 97.82916 110.669581 
L 98.094275 115.667114 
L 98.35939 50.576776 
L 98.491948 40.822073 
L 98.624506 42.125438 
L 98.889621 50.560498 
L 99.419851 81.521968 
L 99.950082 108.165393 
L 100.215197 112.043861 
L 100.61287 39.915107 
L 100.745428 41.123008 
L 101.010543 50.125421 
L 101.540774 84.643387 
L 102.071004 114.173816 
L 102.33612 118.65746 
L 102.601235 51.113488 
L 102.733793 39.73119 
L 102.86635 40.7861 
L 103.131466 49.265732 
L 103.661696 81.732245 
L 104.191927 110.307654 
L 104.457042 114.237182 
L 104.854715 34.026413 
L 104.987273 35.284937 
L 105.252388 44.904245 
L 105.782618 82.068307 
L 106.312849 114.642077 
L 106.577964 119.178762 
L 106.84308 49.271698 
L 106.975637 40.004137 
L 107.108195 40.928807 
L 107.37331 48.034012 
L 107.903541 76.103074 
L 108.433771 100.850034 
L 108.698887 104.506638 
L 109.09656 35.719907 
L 109.229117 37.057557 
L 109.494233 46.284181 
L 109.891906 72.374435 
L 110.554694 115.02931 
L 110.819809 120.107021 
L 111.084924 49.911646 
L 111.217482 37.70045 
L 111.35004 39.152507 
L 111.615155 48.755031 
L 112.012828 75.643484 
L 112.543058 113.138534 
L 112.808174 122.782452 
L 112.940731 124.086189 
L 113.205847 54.586137 
L 113.338404 44.456183 
L 113.470962 45.470098 
L 113.736077 53.256491 
L 114.266308 83.197494 
L 114.796538 109.397052 
L 115.061654 113.106934 
L 115.326769 54.52259 
L 115.459327 45.485226 
L 115.591884 46.088703 
L 115.857 52.313818 
L 116.38723 77.661293 
L 116.917461 99.722232 
L 117.182576 103.042077 
L 117.580249 39.210298 
L 117.712807 40.332777 
L 117.977922 48.654815 
L 118.508153 80.247894 
L 119.038383 107.416957 
L 119.303498 111.523669 
L 119.568614 48.831563 
L 119.701171 38.240304 
L 119.833729 39.250122 
L 120.098844 47.46144 
L 120.629075 78.586249 
L 121.159305 105.965218 
L 121.424421 110.274435 
L 121.689536 47.843856 
L 121.822094 36.480561 
L 121.954651 37.694579 
L 122.219767 46.428795 
L 122.749997 80.980918 
L 123.280228 111.017169 
L 123.545343 116.000222 
L 123.810458 49.393611 
L 123.943016 37.234941 
L 124.075574 38.763951 
L 124.340689 48.750102 
L 124.87092 86.718423 
L 125.40115 119.765683 
L 125.666265 124.407273 
L 125.931381 54.69824 
L 126.063938 45.214802 
L 126.196496 46.295611 
L 126.461611 53.664374 
L 126.991842 81.63647 
L 127.522072 105.837806 
L 127.787188 109.080012 
L 128.052303 53.022968 
L 128.184861 43.125923 
L 128.317418 43.957723 
L 128.582534 51.265983 
L 129.112764 80.261585 
L 129.642995 106.519986 
L 129.90811 110.443224 
L 130.173225 52.375472 
L 130.305783 42.40279 
L 130.438341 43.437012 
L 130.703456 51.077373 
L 131.233687 79.13983 
L 131.763917 104.129619 
L 132.029032 107.594426 
L 132.294148 49.892702 
L 132.426705 40.29157 
L 132.559263 41.089096 
L 132.824378 48.247377 
L 133.354609 76.72158 
L 133.884839 100.720331 
L 134.149955 104.25802 
L 134.547628 32.818359 
L 134.680185 34.087536 
L 134.945301 43.104587 
L 135.342974 69.034339 
L 136.005762 111.729487 
L 136.270877 116.97477 
L 136.535992 46.785022 
L 136.66855 35.715101 
L 136.801108 36.752484 
L 137.066223 45.237851 
L 137.596454 78.471974 
L 138.126684 107.761263 
L 138.391799 112.657999 
L 138.656915 52.568015 
L 138.789472 45.014497 
L 138.92203 46.099885 
L 139.187145 52.590956 
L 139.717376 77.53199 
L 140.247606 99.212658 
L 140.512722 102.577731 
L 140.910395 46.523778 
L 141.042952 47.425219 
L 141.308068 54.128831 
L 141.705741 73.6375 
L 142.368529 104.412856 
L 142.633644 107.406004 
L 142.898759 55.146455 
L 143.031317 46.606713 
L 143.163875 47.1259 
L 143.42899 53.111691 
L 143.959221 77.377353 
L 144.489451 98.338231 
L 144.754566 101.641532 
L 145.152239 40.301072 
L 145.284797 41.276515 
L 145.549912 48.945924 
L 146.080143 78.962284 
L 146.610373 105.055614 
L 146.875489 108.844077 
L 147.273162 33.581235 
L 147.405719 34.695316 
L 147.670835 44.14667 
L 148.201065 80.764294 
L 148.731296 113.301383 
L 148.996411 118.444871 
L 149.261526 46.972188 
L 149.394084 35.445945 
L 149.526642 36.614606 
L 149.791757 45.563522 
L 150.18943 70.486406 
L 150.719661 105.167168 
L 150.984776 113.956081 
L 151.117333 115.238439 
L 151.382449 51.797371 
L 151.515006 43.229072 
L 151.647564 44.26961 
L 151.912679 51.460915 
L 152.44291 77.880467 
L 152.97314 101.702039 
L 153.238256 105.399857 
L 153.503371 53.224233 
L 153.635929 43.912918 
L 153.768486 45.120127 
L 154.033602 52.308814 
L 154.431275 72.475961 
L 154.961505 100.589127 
L 155.22662 107.592916 
L 155.359178 108.32524 
L 155.756851 39.295317 
L 155.889409 40.525472 
L 156.154524 49.286557 
L 156.684755 82.388494 
L 157.214985 112.150201 
L 157.4801 116.700179 
L 157.877773 37.05865 
L 158.010331 38.195509 
L 158.275446 47.794203 
L 158.805677 85.020517 
L 159.335907 116.616462 
L 159.601023 120.771613 
L 159.866138 46.824481 
L 159.998696 33.891742 
L 160.131253 34.945922 
L 160.396369 44.060884 
L 160.794042 70.657006 
L 161.45683 113.871756 
L 161.721945 119.159222 
L 161.98706 46.925015 
L 162.119618 35.215281 
L 162.252176 36.225831 
L 162.517291 44.905642 
L 162.914964 69.461183 
L 163.577752 109.334303 
L 163.842867 113.972044 
L 164.107983 48.394686 
L 164.24054 38.430009 
L 164.373098 39.8578 
L 164.638213 48.331515 
L 165.168444 78.668443 
L 165.698675 105.534675 
L 165.96379 109.67176 
L 166.228905 49.497254 
L 166.361463 39.024633 
L 166.49402 40.392474 
L 166.759136 49.012581 
L 167.289366 81.293627 
L 167.819597 109.754578 
L 168.084712 114.447419 
L 168.349827 54.168042 
L 168.482385 44.66505 
L 168.614943 45.7068 
L 168.880058 53.181648 
L 169.410289 81.447779 
L 169.940519 106.599017 
L 170.205634 110.537915 
L 170.603307 38.147657 
L 170.735865 39.231604 
L 171.00098 48.22725 
L 171.398653 74.343275 
L 172.061442 116.987683 
L 172.326557 121.691995 
L 172.591672 48.175546 
L 172.72423 35.449374 
L 172.856787 36.592473 
L 173.121903 45.825466 
L 173.519576 72.092858 
L 174.049806 109.217617 
L 174.314922 118.414122 
L 174.447479 119.510833 
L 174.712594 46.61444 
L 174.845152 34.803776 
L 174.97771 35.875111 
L 175.242825 44.743761 
L 175.773056 78.472793 
L 176.303286 107.928965 
L 176.568401 112.278155 
L 176.833517 46.082422 
L 176.966074 35.957669 
L 177.098632 36.97145 
L 177.363747 44.412494 
L 177.893978 73.928873 
L 178.424209 100.011647 
L 178.689324 104.299471 
L 178.954439 47.833577 
L 179.086997 39.052926 
L 179.219554 40.471559 
L 179.48467 48.047638 
L 180.0149 75.548076 
L 180.545131 100.506702 
L 180.810246 104.458901 
L 181.075361 52.452535 
L 181.207919 44.352981 
L 181.340477 45.307011 
L 181.605592 51.523156 
L 182.003265 69.262127 
L 182.666053 98.077719 
L 182.931169 101.405035 
L 183.328841 43.13545 
L 183.461399 44.081405 
L 183.726514 51.293063 
L 184.256745 78.651656 
L 184.786976 101.938901 
L 185.052091 105.476103 
L 185.449764 35.456892 
L 185.582321 36.482575 
L 185.847437 45.421949 
L 186.24511 71.117899 
L 186.77534 106.450116 
L 187.040456 115.086793 
L 187.173013 116.085482 
L 187.438128 45.410628 
L 187.570686 33.098106 
L 187.703244 33.933746 
L 187.968359 42.798824 
L 188.49859 78.718525 
L 189.02882 109.746122 
L 189.293936 114.624376 
L 189.559051 48.668909 
L 189.691608 40.722633 
L 189.824166 41.710001 
L 190.089281 47.781774 
L 190.486954 65.227918 
L 191.017185 89.558435 
L 191.2823 95.833512 
L 191.414858 96.80097 
L 191.679973 48.123885 
L 191.812531 39.125034 
L 191.945088 40.072089 
L 192.210204 47.395986 
L 192.740434 74.828267 
L 193.270665 98.590802 
L 193.53578 101.98269 
L 193.933453 33.407436 
L 194.066011 34.79862 
L 194.331126 44.584985 
L 194.596241 61.388586 
L 194.596241 61.388586 
" clip-path="url(#p2635948ee2)" style="fill: none; stroke: #808080; stroke-width: 0.7; stroke-linecap: square"/>
   </g>
   <g id="line2d_9">
    <path d="M 62.171153 59.979077 
L 62.436268 60.020757 
L 63.099056 60.6924 
L 63.496729 60.958427 
L 63.629287 60.913694 
L 64.159518 60.054135 
L 64.424633 59.855962 
L 64.822306 59.804681 
L 65.352536 59.77937 
L 65.882767 60.501896 
L 66.015325 60.533153 
L 66.28044 60.341021 
L 66.545555 60.36885 
L 66.810671 60.167595 
L 67.075786 60.359015 
L 67.340901 60.503402 
L 67.738574 60.596042 
L 68.003689 60.640807 
L 68.268805 61.043841 
L 68.931593 62.316867 
L 69.594381 63.056171 
L 69.859496 63.011113 
L 70.7874 62.04024 
L 70.919958 62.0161 
L 71.450188 62.496835 
L 71.715303 62.610926 
L 73.04088 62.354254 
L 73.438553 62.537992 
L 73.703668 62.185727 
L 74.233899 61.235267 
L 74.366456 61.168759 
L 74.764129 60.679208 
L 75.029245 60.610324 
L 75.426918 60.641242 
L 75.559475 60.584894 
L 75.957148 59.802914 
L 76.354821 58.913312 
L 77.017609 58.06944 
L 77.282725 58.213466 
L 77.54784 58.387578 
L 77.945513 58.449705 
L 78.343186 57.929614 
L 78.608301 57.682527 
L 79.138532 57.1989 
L 79.403647 57.314449 
L 79.668762 57.77649 
L 80.994339 59.226491 
L 81.392012 59.819118 
L 81.922242 59.887605 
L 82.319915 59.410445 
L 82.717588 59.415949 
L 82.982703 59.472635 
L 83.645492 59.386247 
L 83.910607 59.416538 
L 84.175722 59.551399 
L 84.30828 59.618809 
L 84.971068 60.84387 
L 85.103626 60.962244 
L 85.633856 62.229676 
L 86.031529 62.822988 
L 86.694317 63.256055 
L 87.09199 63.199382 
L 87.357106 62.796671 
L 87.887336 62.988549 
L 88.285009 62.622517 
L 88.682682 61.991264 
L 89.610586 59.750184 
L 90.008259 59.462425 
L 90.273374 59.547624 
L 90.538489 59.229473 
L 90.803604 58.684369 
L 91.333835 58.582216 
L 91.466393 58.622476 
L 91.864066 58.091645 
L 92.261739 57.624563 
L 92.791969 57.541955 
L 93.189642 58.138444 
L 93.984988 59.978122 
L 94.382661 60.52136 
L 94.780334 60.179451 
L 95.443122 59.956319 
L 95.708237 60.160517 
L 96.10591 60.098633 
L 96.371026 60.362445 
L 96.768699 60.845751 
L 97.033814 61.10577 
L 97.564044 61.276076 
L 99.154736 65.088543 
L 99.684967 65.557733 
L 100.215197 65.260523 
L 100.61287 65.80227 
L 101.540774 66.132595 
L 101.673331 66.062788 
L 102.203562 65.217847 
L 102.33612 65.300531 
L 102.998908 64.647773 
L 103.264023 64.600159 
L 103.926811 63.290434 
L 104.191927 63.114252 
L 104.722157 62.245592 
L 105.252388 62.284954 
L 105.384946 62.292113 
L 105.650061 62.002067 
L 106.975637 60.680589 
L 107.37331 60.751658 
L 107.903541 61.318238 
L 108.168656 61.85249 
L 108.433771 61.858026 
L 108.566329 61.789878 
L 108.698887 61.889691 
L 109.09656 62.514365 
L 109.361675 62.808427 
L 109.62679 62.8248 
L 109.891906 63.101468 
L 110.289578 63.986922 
L 110.687251 64.726983 
L 111.615155 65.769648 
L 111.88027 65.811624 
L 112.410501 66.660549 
L 113.338404 67.318453 
L 114.001193 67.201834 
L 114.266308 66.849673 
L 114.531423 66.454145 
L 115.061654 65.98472 
L 115.857 64.226927 
L 116.122115 64.019536 
L 116.38723 63.811767 
L 116.784903 63.260076 
L 117.182576 63.121141 
L 117.447691 63.256873 
L 117.712807 63.439376 
L 118.11048 63.476481 
L 118.508153 62.956313 
L 119.170941 61.653402 
L 119.303498 61.681087 
L 119.568614 61.888974 
L 120.36396 61.89816 
L 120.629075 61.662798 
L 121.026748 61.49939 
L 121.291863 61.343337 
L 121.689536 61.783365 
L 121.822094 61.746697 
L 122.219767 61.969459 
L 122.61744 62.910187 
L 123.015112 62.893789 
L 123.412785 63.622229 
L 123.677901 64.342717 
L 124.075574 65.492802 
L 124.738362 66.548431 
L 125.136035 67.000622 
L 125.40115 67.013789 
L 125.533708 66.953839 
L 125.931381 66.432626 
L 126.196496 66.618878 
L 126.461611 66.746625 
L 126.726727 66.666181 
L 126.991842 66.427765 
L 127.389515 65.877232 
L 127.65463 65.479514 
L 127.919745 65.156707 
L 128.184861 65.191946 
L 128.715091 64.755312 
L 129.112764 64.483127 
L 129.245322 64.574969 
L 129.510437 64.867522 
L 129.90811 64.962181 
L 130.173225 64.682911 
L 130.703456 64.7985 
L 130.968571 64.199233 
L 131.366244 62.808318 
L 132.029032 61.614802 
L 132.426705 61.448486 
L 132.691821 61.21223 
L 132.824378 61.260547 
L 133.222051 61.624706 
L 133.487167 61.470624 
L 134.017397 60.677583 
L 134.149955 60.650768 
L 134.547628 60.320517 
L 134.680185 60.366521 
L 134.945301 60.02058 
L 135.342974 59.516454 
L 135.608089 59.364934 
L 135.740646 59.432016 
L 136.535992 60.405374 
L 137.066223 60.422698 
L 137.861569 60.991422 
L 138.126684 61.204878 
L 138.789472 62.58268 
L 139.849934 65.285505 
L 140.247606 66.082276 
L 141.042952 66.586042 
L 141.440625 66.432746 
L 141.705741 66.697715 
L 142.368529 66.597174 
L 142.766202 65.744657 
L 143.163875 64.790157 
L 143.561548 64.492294 
L 143.694105 64.559867 
L 144.622009 63.512273 
L 144.887124 63.475637 
L 145.815028 62.766809 
L 147.008046 61.345039 
L 147.273162 61.439903 
L 147.538277 61.242739 
L 147.670835 61.281943 
L 148.598738 60.745988 
L 148.731296 60.765029 
L 148.996411 61.024412 
L 150.18943 61.546742 
L 150.321988 61.728767 
L 150.587103 61.772234 
L 150.852218 61.838561 
L 151.117333 61.996504 
L 151.780122 63.316375 
L 152.045237 63.745605 
L 152.310352 63.852491 
L 152.44291 63.756167 
L 152.708025 63.998134 
L 153.768486 65.377928 
L 153.901044 65.43842 
L 154.431275 65.138866 
L 154.69639 65.318663 
L 155.22662 64.838308 
L 155.624293 64.384685 
L 155.756851 64.329227 
L 156.287082 64.695011 
L 156.419639 64.697289 
L 156.684755 64.487828 
L 156.94987 64.654155 
L 157.4801 65.101925 
L 158.275446 65.045813 
L 158.540562 65.181335 
L 158.673119 65.132708 
L 159.070792 64.539584 
L 159.866138 62.344128 
L 160.263811 61.567766 
L 160.794042 60.921761 
L 161.059157 60.841054 
L 161.45683 60.823297 
L 161.721945 61.17905 
L 161.98706 61.20255 
L 162.914964 60.505096 
L 163.842867 60.632297 
L 163.975425 60.728834 
L 164.770771 62.523767 
L 165.433559 62.12494 
L 165.698675 62.330661 
L 166.228905 62.550537 
L 166.361463 62.684435 
L 167.024251 64.020167 
L 168.482385 66.172416 
L 168.880058 66.410372 
L 169.675404 65.937123 
L 170.338192 66.263333 
L 170.603307 66.119975 
L 170.868423 65.715004 
L 171.398653 64.662678 
L 171.663769 64.42568 
L 171.796326 64.254761 
L 172.061442 64.237004 
L 172.856787 63.639694 
L 173.121903 63.235978 
L 173.519576 62.296728 
L 173.784691 62.066668 
L 174.447479 61.168047 
L 174.97771 60.706284 
L 175.110267 60.785835 
L 175.242825 60.727787 
L 175.905613 59.660537 
L 176.303286 58.922312 
L 176.568401 58.715541 
L 176.833517 58.298978 
L 176.966074 58.100856 
L 177.23119 58.104123 
L 177.363747 58.032299 
L 177.76142 58.174011 
L 178.026536 58.13583 
L 178.556766 58.411605 
L 179.086997 59.506787 
L 179.48467 60.628373 
L 180.147458 61.089859 
L 180.810246 62.300741 
L 181.340477 62.613316 
L 181.473034 62.711212 
L 181.73815 62.698239 
L 182.26838 63.374289 
L 182.798611 64.056944 
L 183.063726 64.030438 
L 183.328841 63.803511 
L 183.593957 63.908371 
L 183.99163 64.076399 
L 184.256745 63.872819 
L 184.389303 63.699691 
L 184.654418 63.048626 
L 185.317206 62.489123 
L 185.979994 61.781246 
L 186.642783 61.631771 
L 187.438128 60.499028 
L 187.570686 60.446672 
L 187.968359 59.620346 
L 188.631147 58.886216 
L 189.02882 58.171724 
L 189.161378 58.121077 
L 189.426493 58.395034 
L 189.824166 59.096267 
L 189.956724 59.124993 
L 190.354397 58.837198 
L 190.884627 59.080877 
L 191.149743 59.092504 
L 192.077646 59.474742 
L 192.607877 60.424756 
L 193.00555 60.499775 
L 193.270665 60.686498 
L 193.668338 60.527032 
L 194.331126 61.564016 
L 194.596241 61.724793 
L 194.596241 61.724793 
" clip-path="url(#p2635948ee2)" style="fill: none; stroke: #1e90ff; stroke-linecap: square"/>
   </g>
   <g id="line2d_10">
    <path d="M 62.171153 59.947257 
L 62.436268 60.010738 
L 63.099056 60.699814 
L 63.496729 60.93126 
L 63.629287 60.873581 
L 64.159518 59.989176 
L 64.557191 59.836974 
L 65.352536 59.790141 
L 65.882767 60.606147 
L 66.015325 60.638949 
L 66.810671 60.125678 
L 67.075786 60.331249 
L 67.340901 60.48999 
L 67.738574 60.650784 
L 68.003689 60.710724 
L 68.268805 61.121985 
L 68.931593 62.353741 
L 69.594381 63.052687 
L 69.859496 63.002345 
L 70.7874 62.034237 
L 70.919958 62.00957 
L 71.450188 62.504173 
L 71.715303 62.619197 
L 73.04088 62.324231 
L 73.438553 62.512708 
L 73.703668 62.184421 
L 74.233899 61.296032 
L 74.366456 61.243051 
L 74.896687 60.61082 
L 75.29436 60.523178 
L 75.559475 60.532088 
L 75.957148 59.830414 
L 76.354821 59.01237 
L 77.150167 58.08747 
L 77.680398 58.3968 
L 77.945513 58.444758 
L 78.343186 57.942715 
L 78.608301 57.698542 
L 79.138532 57.181308 
L 79.403647 57.291902 
L 79.80132 57.915316 
L 79.933877 57.931145 
L 80.596666 58.715155 
L 81.126896 59.484086 
L 81.392012 59.781516 
L 81.922242 59.855657 
L 82.319915 59.448332 
L 82.58503 59.365303 
L 82.850146 59.60306 
L 83.247819 59.515422 
L 83.512934 59.40654 
L 83.910607 59.44307 
L 84.175722 59.554044 
L 84.30828 59.610515 
L 84.971068 60.822057 
L 85.103626 60.925126 
L 85.633856 62.18696 
L 86.164087 62.906897 
L 86.56176 63.39826 
L 86.826875 63.3445 
L 87.09199 63.335122 
L 87.357106 62.969423 
L 87.754779 63.039086 
L 88.81524 61.698192 
L 89.743143 59.548047 
L 90.008259 59.523828 
L 90.273374 59.595778 
L 90.538489 59.249284 
L 90.803604 58.661686 
L 91.731508 58.241507 
L 92.394296 57.576335 
L 92.924527 57.715158 
L 93.189642 58.164385 
L 93.984988 60.000432 
L 94.382661 60.448041 
L 94.647776 60.18841 
L 95.443122 60.052354 
L 95.708237 60.290953 
L 96.238468 60.165111 
L 97.298929 61.260209 
L 97.564044 61.357422 
L 98.226833 62.899987 
L 98.35939 63.071692 
L 99.154736 65.111256 
L 99.684967 65.72647 
L 100.347755 65.48477 
L 100.61287 65.838083 
L 101.540774 66.149557 
L 101.673331 66.071982 
L 102.203562 65.198311 
L 102.33612 65.266203 
L 102.86635 64.765572 
L 103.264023 64.632019 
L 103.794254 63.444738 
L 104.059369 63.15972 
L 104.324484 62.793853 
L 104.722157 62.251592 
L 105.11983 62.298076 
L 105.384946 62.316216 
L 105.650061 62.014264 
L 106.975637 60.613894 
L 107.37331 60.718834 
L 107.903541 61.361196 
L 108.168656 61.923067 
L 108.433771 61.96281 
L 108.566329 61.900548 
L 108.831444 62.159586 
L 109.361675 62.78405 
L 109.62679 62.79748 
L 109.891906 63.119618 
L 111.35004 65.62843 
L 111.747713 65.783105 
L 111.88027 65.822196 
L 112.410501 66.659741 
L 113.470962 67.406663 
L 114.13375 67.107711 
L 114.663981 66.293364 
L 115.061654 65.882845 
L 115.989557 64.187913 
L 116.917461 63.204779 
L 117.182576 63.120138 
L 117.977922 63.489609 
L 118.243037 63.340548 
L 118.508153 63.052682 
L 119.170941 61.892803 
L 119.701171 61.867525 
L 119.966287 61.87793 
L 120.231402 62.076573 
L 120.629075 61.730143 
L 121.026748 61.641599 
L 121.159305 61.498503 
L 121.291863 61.51928 
L 121.556978 61.702712 
L 121.689536 61.748957 
L 121.822094 61.670025 
L 122.219767 61.928774 
L 122.61744 62.954948 
L 123.14767 63.239096 
L 124.605804 66.473846 
L 124.87092 66.75019 
L 125.136035 67.051146 
L 125.40115 67.041177 
L 125.533708 66.985157 
L 125.931381 66.420711 
L 126.196496 66.597632 
L 126.461611 66.74544 
L 126.726727 66.707249 
L 126.991842 66.492647 
L 127.389515 65.991525 
L 127.65463 65.609643 
L 127.919745 65.181396 
L 128.184861 65.182263 
L 128.582534 64.825286 
L 129.112764 64.510411 
L 129.245322 64.60068 
L 129.510437 64.887479 
L 129.90811 64.966731 
L 130.173225 64.686096 
L 130.703456 64.80846 
L 130.968571 64.216442 
L 131.366244 62.858603 
L 132.16159 61.577154 
L 132.426705 61.411859 
L 132.691821 61.18421 
L 132.824378 61.242168 
L 133.089494 61.583225 
L 133.354609 61.60174 
L 133.619724 61.255829 
L 133.884839 60.843466 
L 134.41507 60.400943 
L 134.945301 60.031885 
L 135.342974 59.526541 
L 135.608089 59.377149 
L 135.873204 59.649901 
L 136.270877 60.311207 
L 136.66855 60.447299 
L 136.933665 60.409408 
L 137.331338 60.672039 
L 137.596454 60.790594 
L 138.126684 61.120168 
L 138.524357 61.947724 
L 140.247606 66.020715 
L 140.512722 66.280679 
L 141.042952 66.6743 
L 141.440625 66.470493 
L 141.705741 66.708219 
L 142.368529 66.544727 
L 142.766202 65.719045 
L 143.163875 64.842565 
L 143.561548 64.510602 
L 143.694105 64.564586 
L 144.622009 63.426808 
L 144.887124 63.47098 
L 145.549912 63.078554 
L 145.68247 63.031432 
L 145.947585 62.625207 
L 146.212701 62.432065 
L 146.610373 61.797696 
L 147.405719 61.239333 
L 147.803392 61.17603 
L 148.068508 61.075706 
L 148.333623 60.833175 
L 148.466181 60.780507 
L 148.996411 61.184906 
L 149.394084 61.146778 
L 149.659199 61.286532 
L 151.249891 62.347485 
L 151.647564 63.095857 
L 152.310352 63.878891 
L 152.44291 63.791201 
L 152.708025 64.055424 
L 153.238256 64.770508 
L 153.370813 64.76797 
L 153.901044 65.463356 
L 154.431275 65.166098 
L 154.69639 65.345478 
L 155.22662 64.840559 
L 155.491736 64.437928 
L 155.756851 64.35073 
L 156.287082 64.707158 
L 156.552197 64.600903 
L 156.817312 64.520742 
L 157.4801 65.087384 
L 158.275446 65.074651 
L 158.540562 65.201919 
L 158.673119 65.159798 
L 159.070792 64.556788 
L 159.866138 62.326477 
L 160.263811 61.55126 
L 160.794042 60.917489 
L 161.059157 60.860574 
L 161.45683 60.861209 
L 161.721945 61.212289 
L 161.98706 61.196065 
L 162.782406 60.420709 
L 163.180079 60.618361 
L 163.71031 60.586397 
L 163.975425 60.728279 
L 164.770771 62.530474 
L 165.433559 62.130788 
L 165.698675 62.33413 
L 166.228905 62.554439 
L 166.361463 62.689296 
L 167.024251 64.032794 
L 167.421924 64.585012 
L 167.687039 64.903546 
L 168.349827 66.006965 
L 168.880058 66.392641 
L 169.675404 66.030123 
L 170.205634 66.311231 
L 170.603307 66.102741 
L 170.868423 65.704419 
L 171.398653 64.690342 
L 171.663769 64.475732 
L 171.928884 64.326488 
L 172.193999 64.221414 
L 173.121903 63.236668 
L 173.519576 62.309731 
L 173.784691 62.108945 
L 174.580037 61.048684 
L 175.110267 60.794756 
L 175.242825 60.737743 
L 175.905613 59.652044 
L 176.303286 58.912889 
L 176.568401 58.69964 
L 177.098632 58.178974 
L 177.496305 58.104696 
L 177.76142 58.146171 
L 178.026536 58.057927 
L 178.556766 58.258753 
L 178.954439 59.130179 
L 179.48467 60.640411 
L 180.147458 61.063418 
L 180.810246 62.253784 
L 181.207919 62.50331 
L 181.473034 62.750126 
L 181.73815 62.714182 
L 182.135823 63.045968 
L 182.533496 63.782062 
L 182.931169 64.006821 
L 183.461399 63.911414 
L 183.99163 64.088338 
L 184.256745 63.829659 
L 184.52186 63.249491 
L 184.786976 62.821981 
L 185.184648 62.720469 
L 185.582321 62.155177 
L 185.714879 62.114136 
L 186.112552 61.756967 
L 186.377667 61.799882 
L 186.642783 61.690366 
L 187.703244 59.945091 
L 187.968359 59.546498 
L 188.631147 58.994907 
L 189.02882 58.368527 
L 189.161378 58.324713 
L 189.293936 58.459095 
L 189.426493 58.37647 
L 189.824166 59.096418 
L 189.956724 59.127633 
L 190.354397 58.83843 
L 190.884627 59.046735 
L 191.149743 59.067637 
L 191.945088 59.266685 
L 192.210204 59.750945 
L 192.607877 60.441373 
L 193.403223 60.640112 
L 193.668338 60.492475 
L 194.331126 61.575807 
L 194.596241 61.720025 
L 194.596241 61.720025 
" clip-path="url(#p2635948ee2)" style="fill: none; stroke: #ff0000; stroke-width: 0.8; stroke-linecap: square"/>
   </g>
   <g id="patch_3">
    <path d="M 59.52 129.12 
L 59.52 25.44 
" style="fill: none; stroke: #000000; stroke-width: 0.8; stroke-linejoin: miter; stroke-linecap: square"/>
   </g>
   <g id="patch_4">
    <path d="M 197.379952 129.12 
L 197.379952 25.44 
" style="fill: none; stroke: #000000; stroke-width: 0.8; stroke-linejoin: miter; stroke-linecap: square"/>
   </g>
   <g id="patch_5">
    <path d="M 59.52 129.12 
L 197.379952 129.12 
" style="fill: none; stroke: #000000; stroke-width: 0.8; stroke-linejoin: miter; stroke-linecap: square"/>
   </g>
   <g id="patch_6">
    <path d="M 59.52 25.44 
L 197.379952 25.44 
" style="fill: none; stroke: #000000; stroke-width: 0.8; stroke-linejoin: miter; stroke-linecap: square"/>
   </g>
   <g id="text_10">
    <!-- Time Domain Plot -->
    <g transform="translate(75.365913 19.44) scale(0.12 -0.12)">
     <defs>
      <path id="DejaVuSans-44" d="M 1259 4147 
L 1259 519 
L 2022 519 
Q 2988 519 3436 956 
Q 3884 1394 3884 2338 
Q 3884 3275 3436 3711 
Q 2988 4147 2022 4147 
L 1259 4147 
z
M 628 4666 
L 1925 4666 
Q 3281 4666 3915 4102 
Q 4550 3538 4550 2338 
Q 4550 1131 3912 565 
Q 3275 0 1925 0 
L 628 0 
L 628 4666 
z
" transform="scale(0.015625)"/>
      <path id="DejaVuSans-6f" d="M 1959 3097 
Q 1497 3097 1228 2736 
Q 959 2375 959 1747 
Q 959 1119 1226 758 
Q 1494 397 1959 397 
Q 2419 397 2687 759 
Q 2956 1122 2956 1747 
Q 2956 2369 2687 2733 
Q 2419 3097 1959 3097 
z
M 1959 3584 
Q 2709 3584 3137 3096 
Q 3566 2609 3566 1747 
Q 3566 888 3137 398 
Q 2709 -91 1959 -91 
Q 1206 -91 779 398 
Q 353 888 353 1747 
Q 353 2609 779 3096 
Q 1206 3584 1959 3584 
z
" transform="scale(0.015625)"/>
      <path id="DejaVuSans-61" d="M 2194 1759 
Q 1497 1759 1228 1600 
Q 959 1441 959 1056 
Q 959 750 1161 570 
Q 1363 391 1709 391 
Q 2188 391 2477 730 
Q 2766 1069 2766 1631 
L 2766 1759 
L 2194 1759 
z
M 3341 1997 
L 3341 0 
L 2766 0 
L 2766 531 
Q 2569 213 2275 61 
Q 1981 -91 1556 -91 
Q 1019 -91 701 211 
Q 384 513 384 1019 
Q 384 1609 779 1909 
Q 1175 2209 1959 2209 
L 2766 2209 
L 2766 2266 
Q 2766 2663 2505 2880 
Q 2244 3097 1772 3097 
Q 1472 3097 1187 3025 
Q 903 2953 641 2809 
L 641 3341 
Q 956 3463 1253 3523 
Q 1550 3584 1831 3584 
Q 2591 3584 2966 3190 
Q 3341 2797 3341 1997 
z
" transform="scale(0.015625)"/>
      <path id="DejaVuSans-6e" d="M 3513 2113 
L 3513 0 
L 2938 0 
L 2938 2094 
Q 2938 2591 2744 2837 
Q 2550 3084 2163 3084 
Q 1697 3084 1428 2787 
Q 1159 2491 1159 1978 
L 1159 0 
L 581 0 
L 581 3500 
L 1159 3500 
L 1159 2956 
Q 1366 3272 1645 3428 
Q 1925 3584 2291 3584 
Q 2894 3584 3203 3211 
Q 3513 2838 3513 2113 
z
" transform="scale(0.015625)"/>
      <path id="DejaVuSans-50" d="M 1259 4147 
L 1259 2394 
L 2053 2394 
Q 2494 2394 2734 2622 
Q 2975 2850 2975 3272 
Q 2975 3691 2734 3919 
Q 2494 4147 2053 4147 
L 1259 4147 
z
M 628 4666 
L 2053 4666 
Q 2838 4666 3239 4311 
Q 3641 3956 3641 3272 
Q 3641 2581 3239 2228 
Q 2838 1875 2053 1875 
L 1259 1875 
L 1259 0 
L 628 0 
L 628 4666 
z
" transform="scale(0.015625)"/>
     </defs>
     <use xlink:href="#DejaVuSans-54"/>
     <use xlink:href="#DejaVuSans-69" x="57.958984"/>
     <use xlink:href="#DejaVuSans-6d" x="85.742188"/>
     <use xlink:href="#DejaVuSans-65" x="183.154297"/>
     <use xlink:href="#DejaVuSans-20" x="244.677734"/>
     <use xlink:href="#DejaVuSans-44" x="276.464844"/>
     <use xlink:href="#DejaVuSans-6f" x="353.466797"/>
     <use xlink:href="#DejaVuSans-6d" x="414.648438"/>
     <use xlink:href="#DejaVuSans-61" x="512.060547"/>
     <use xlink:href="#DejaVuSans-69" x="573.339844"/>
     <use xlink:href="#DejaVuSans-6e" x="601.123047"/>
     <use xlink:href="#DejaVuSans-20" x="664.501953"/>
     <use xlink:href="#DejaVuSans-50" x="696.289062"/>
     <use xlink:href="#DejaVuSans-6c" x="756.591797"/>
     <use xlink:href="#DejaVuSans-6f" x="784.375"/>
     <use xlink:href="#DejaVuSans-74" x="845.556641"/>
    </g>
   </g>
   <g id="patch_7">
    <path d="M 140.386792 67.039274 
L 169.403661 67.039274 
L 169.403661 60.10554 
L 140.386792 60.10554 
L 140.386792 67.039274 
z
" clip-path="url(#p2635948ee2)" style="fill: none; opacity: 0.8; stroke: #000000; stroke-width: 1.2; stroke-linejoin: miter"/>
   </g>
   <g id="patch_8">
    <path d="M 100.877986 66.912 
Q 120.632389 63.50877 140.386792 60.10554 
" style="fill: none; opacity: 0.8; stroke: #000000; stroke-linecap: round"/>
   </g>
   <g id="patch_9">
    <path d="M 183.593957 66.912 
Q 176.498809 63.50877 169.403661 60.10554 
" style="fill: none; opacity: 0.8; stroke: #000000; stroke-linecap: round"/>
   </g>
   <g id="axes_2">
    <g id="patch_10">
     <path d="M 100.877986 108.384 
L 183.593957 108.384 
L 183.593957 66.912 
L 100.877986 66.912 
z
" style="fill: #ffffff"/>
    </g>
    <g id="matplotlib.axis_3">
     <g id="xtick_4">
      <g id="line2d_11">
       <g>
        <use xlink:href="#m6337c543df" x="101.022018" y="108.384" style="stroke: #000000; stroke-width: 0.8"/>
       </g>
      </g>
      <g id="text_11">
       <!-- 1.3 -->
       <g transform="translate(93.070456 122.982438) scale(0.1 -0.1)">
        <defs>
         <path id="DejaVuSans-33" d="M 2597 2516 
Q 3050 2419 3304 2112 
Q 3559 1806 3559 1356 
Q 3559 666 3084 287 
Q 2609 -91 1734 -91 
Q 1441 -91 1130 -33 
Q 819 25 488 141 
L 488 750 
Q 750 597 1062 519 
Q 1375 441 1716 441 
Q 2309 441 2620 675 
Q 2931 909 2931 1356 
Q 2931 1769 2642 2001 
Q 2353 2234 1838 2234 
L 1294 2234 
L 1294 2753 
L 1863 2753 
Q 2328 2753 2575 2939 
Q 2822 3125 2822 3475 
Q 2822 3834 2567 4026 
Q 2313 4219 1838 4219 
Q 1578 4219 1281 4162 
Q 984 4106 628 3988 
L 628 4550 
Q 988 4650 1302 4700 
Q 1616 4750 1894 4750 
Q 2613 4750 3031 4423 
Q 3450 4097 3450 3541 
Q 3450 3153 3228 2886 
Q 3006 2619 2597 2516 
z
" transform="scale(0.015625)"/>
        </defs>
        <use xlink:href="#DejaVuSans-31"/>
        <use xlink:href="#DejaVuSans-2e" x="63.623047"/>
        <use xlink:href="#DejaVuSans-33" x="95.410156"/>
       </g>
      </g>
     </g>
     <g id="xtick_5">
      <g id="line2d_12">
       <g>
        <use xlink:href="#m6337c543df" x="183.305891" y="108.384" style="stroke: #000000; stroke-width: 0.8"/>
       </g>
      </g>
      <g id="text_12">
       <!-- 1.4 -->
       <g transform="translate(175.354329 122.982438) scale(0.1 -0.1)">
        <defs>
         <path id="DejaVuSans-34" d="M 2419 4116 
L 825 1625 
L 2419 1625 
L 2419 4116 
z
M 2253 4666 
L 3047 4666 
L 3047 1625 
L 3713 1625 
L 3713 1100 
L 3047 1100 
L 3047 0 
L 2419 0 
L 2419 1100 
L 313 1100 
L 313 1709 
L 2253 4666 
z
" transform="scale(0.015625)"/>
        </defs>
        <use xlink:href="#DejaVuSans-31"/>
        <use xlink:href="#DejaVuSans-2e" x="63.623047"/>
        <use xlink:href="#DejaVuSans-34" x="95.410156"/>
       </g>
      </g>
     </g>
    </g>
    <g id="matplotlib.axis_4">
     <g id="ytick_5">
      <g id="line2d_13">
       <g>
        <use xlink:href="#m3575e5d54e" x="100.877986" y="106.311894" style="stroke: #000000; stroke-width: 0.8"/>
       </g>
      </g>
      <g id="text_13">
       <!-- −2 -->
       <g transform="translate(79.135798 110.111113) scale(0.1 -0.1)">
        <use xlink:href="#DejaVuSans-2212"/>
        <use xlink:href="#DejaVuSans-32" x="83.789062"/>
       </g>
      </g>
     </g>
     <g id="ytick_6">
      <g id="line2d_14">
       <g>
        <use xlink:href="#m3575e5d54e" x="100.877986" y="79.967811" style="stroke: #000000; stroke-width: 0.8"/>
       </g>
      </g>
      <g id="text_14">
       <!-- 0 -->
       <g transform="translate(87.515486 83.76703) scale(0.1 -0.1)">
        <use xlink:href="#DejaVuSans-30"/>
       </g>
      </g>
     </g>
    </g>
    <g id="line2d_15">
     <path d="M 101.289508 105.598031 
L 101.70103 105.545118 
L 102.112552 105.166191 
L 102.524075 105.64424 
L 102.935597 105.749592 
L 103.347119 105.020579 
L 103.758641 103.755716 
L 104.581686 100.124198 
L 104.993208 97.832019 
L 105.816253 94.642078 
L 106.227775 94.054423 
L 106.639297 92.874004 
L 107.050819 92.931322 
L 107.462341 93.319424 
L 107.873864 92.342102 
L 108.696908 89.964615 
L 109.10843 89.440537 
L 109.519953 87.70166 
L 109.931475 87.095233 
L 110.754519 87.453083 
L 111.166042 87.092209 
L 112.812131 85.157046 
L 113.635175 84.535495 
L 114.046697 83.021099 
L 114.45822 82.104319 
L 114.869742 81.659395 
L 115.281264 80.789014 
L 116.104309 77.677619 
L 117.750398 74.855241 
L 118.16192 75.432114 
L 118.573442 75.400087 
L 118.984964 74.682447 
L 119.396487 74.267689 
L 119.808009 74.492857 
L 120.219531 73.996934 
L 120.631053 73.707344 
L 121.042576 73.050745 
L 121.454098 71.976211 
L 122.277142 70.906962 
L 122.688665 71.414625 
L 123.100187 71.523986 
L 123.511709 72.492944 
L 123.923231 73.013737 
L 124.334754 73.338976 
L 124.746276 74.157438 
L 125.157798 74.466297 
L 125.56932 74.580001 
L 126.392365 75.468717 
L 126.803887 75.279999 
L 127.215409 75.5614 
L 127.626931 76.013713 
L 128.038454 77.059162 
L 128.449976 76.953465 
L 128.861498 77.30881 
L 129.27302 77.860426 
L 129.684543 77.689757 
L 130.096065 77.83017 
L 130.507587 78.596896 
L 131.742154 84.255708 
L 132.565198 86.177496 
L 132.976721 87.866098 
L 133.388243 88.642757 
L 133.799765 89.035392 
L 134.211287 89.256646 
L 134.62281 88.703415 
L 135.034332 89.180186 
L 135.857376 91.152665 
L 136.268899 92.700237 
L 136.680421 93.217381 
L 137.091943 94.048968 
L 137.503465 94.59704 
L 137.914988 95.39253 
L 138.32651 96.49993 
L 138.738032 98.017906 
L 139.149554 98.365338 
L 139.561077 97.85131 
L 139.972599 96.906436 
L 140.384121 96.41049 
L 140.795643 96.644872 
L 141.207166 97.315477 
L 141.618688 97.677522 
L 142.03021 97.1404 
L 142.441732 96.14717 
L 143.264777 94.918632 
L 144.087821 92.662247 
L 144.910866 91.994754 
L 146.145432 94.034569 
L 146.968477 94.108698 
L 147.791521 92.90567 
L 148.203044 93.109149 
L 149.849133 96.231833 
L 150.260655 96.432701 
L 151.083699 96.30036 
L 151.495222 96.458723 
L 151.906744 95.823602 
L 152.318266 95.906995 
L 152.729788 96.110425 
L 153.141311 96.646246 
L 153.552833 96.888787 
L 153.964355 96.609501 
L 154.375877 95.644813 
L 154.7874 95.095905 
L 155.198922 93.20293 
L 156.433489 86.159335 
L 157.668055 80.593451 
L 158.079578 78.743119 
L 158.4911 77.612088 
L 159.314144 74.959474 
L 159.725667 73.690952 
L 160.548711 72.424172 
L 160.960233 71.991168 
L 161.783278 71.930532 
L 162.1948 71.298925 
L 162.606322 71.858649 
L 163.429367 73.901893 
L 163.840889 74.148168 
L 164.252411 74.036867 
L 165.075456 72.607525 
L 165.486978 72.377178 
L 165.8985 71.857861 
L 166.310022 70.391609 
L 166.721545 69.566302 
L 167.133067 70.031079 
L 167.544589 70.096561 
L 167.956111 70.508763 
L 168.779156 70.099511 
L 169.6022 70.315468 
L 170.425245 71.316106 
L 171.248289 74.826168 
L 172.071334 79.311994 
L 172.482856 81.046164 
L 172.894378 81.6252 
L 173.717423 80.576022 
L 174.540467 79.911189 
L 174.95199 79.334558 
L 175.363512 80.134214 
L 176.598079 81.208609 
L 177.421123 81.778953 
L 177.832645 82.547985 
L 179.067212 87.606744 
L 179.478734 88.630065 
L 180.301779 91.429798 
L 181.536346 93.956982 
L 181.947868 95.104909 
L 183.182434 99.760791 
L 183.182434 99.760791 
" clip-path="url(#p82a28b142f)" style="fill: none; stroke: #1e90ff; stroke-linecap: square"/>
    </g>
    <g id="line2d_16">
     <path d="M 101.289508 105.658361 
L 101.70103 105.551012 
L 102.112552 105.122335 
L 102.524075 105.554477 
L 102.935597 105.528777 
L 103.347119 104.719349 
L 103.758641 103.442769 
L 105.816253 94.943082 
L 106.227775 94.302254 
L 106.639297 93.030842 
L 107.050819 93.036474 
L 107.462341 93.346526 
L 107.873864 92.335898 
L 108.696908 89.745949 
L 109.10843 89.130822 
L 109.519953 87.341925 
L 109.931475 86.670768 
L 111.166042 87.065463 
L 111.989086 85.904622 
L 112.400608 85.635897 
L 112.812131 85.116251 
L 113.635175 84.540943 
L 114.046697 83.079892 
L 114.45822 82.207813 
L 114.869742 81.87678 
L 115.281264 81.098516 
L 116.104309 78.097856 
L 117.338875 76.043057 
L 117.750398 75.03349 
L 118.16192 75.13624 
L 118.573442 74.931797 
L 118.984964 74.248124 
L 119.396487 73.935967 
L 119.808009 74.262654 
L 120.219531 73.884551 
L 120.631053 73.742588 
L 121.042576 73.308342 
L 121.454098 72.380937 
L 122.277142 71.612887 
L 122.688665 72.246495 
L 123.100187 72.422793 
L 123.511709 73.419053 
L 123.923231 73.935527 
L 124.334754 73.673676 
L 124.746276 73.755663 
L 125.157798 73.71654 
L 125.56932 73.868393 
L 126.392365 75.056876 
L 126.803887 75.047255 
L 127.215409 75.559484 
L 127.626931 76.299289 
L 128.038454 77.657222 
L 128.449976 77.83252 
L 129.27302 79.178175 
L 129.684543 79.159434 
L 130.096065 79.352104 
L 130.507587 80.100445 
L 130.919109 80.612731 
L 131.742154 83.90539 
L 132.565198 85.935861 
L 132.976721 87.688069 
L 133.388243 88.6019 
L 133.799765 89.107855 
L 134.211287 89.408276 
L 134.62281 88.904634 
L 135.034332 89.446561 
L 135.857376 91.550703 
L 136.268899 93.185606 
L 136.680421 93.730055 
L 137.091943 94.529226 
L 137.503465 94.514647 
L 138.32651 96.652282 
L 138.738032 98.193615 
L 139.149554 98.508558 
L 139.561077 97.977176 
L 139.972599 97.024669 
L 140.384121 96.503927 
L 140.795643 96.801273 
L 141.207166 97.492582 
L 141.618688 97.831532 
L 142.03021 97.295814 
L 142.441732 96.253745 
L 143.264777 94.931561 
L 144.087821 92.619072 
L 144.910866 92.118255 
L 146.145432 94.145916 
L 146.968477 94.131751 
L 147.791521 92.990068 
L 148.203044 93.094709 
L 149.849133 96.159408 
L 150.260655 96.349186 
L 151.083699 96.38212 
L 151.495222 96.657204 
L 151.906744 95.983565 
L 152.318266 96.057003 
L 152.729788 96.276055 
L 153.141311 96.805404 
L 153.552833 97.007014 
L 153.964355 96.765091 
L 154.375877 95.786482 
L 154.7874 95.183786 
L 155.198922 93.301737 
L 156.845011 84.028556 
L 157.256533 81.876226 
L 157.668055 80.492073 
L 158.079578 78.665551 
L 158.4911 77.531565 
L 159.314144 74.920419 
L 159.725667 73.705703 
L 160.548711 72.399636 
L 160.960233 72.027296 
L 161.783278 72.076395 
L 162.1948 71.490002 
L 162.606322 72.07639 
L 163.429367 74.092798 
L 163.840889 74.143799 
L 164.252411 73.999622 
L 165.075456 72.466805 
L 165.486978 72.260428 
L 165.8985 71.772563 
L 166.310022 70.332085 
L 166.721545 69.546408 
L 167.133067 70.143341 
L 167.544589 70.221941 
L 167.956111 70.68161 
L 168.779156 70.285066 
L 169.6022 70.498024 
L 170.425245 71.312918 
L 171.659812 77.160754 
L 172.482856 81.097863 
L 172.894378 81.663719 
L 173.717423 80.684751 
L 174.540467 79.972921 
L 174.95199 79.368145 
L 175.363512 80.162526 
L 176.598079 81.180794 
L 177.009601 81.420108 
L 177.421123 81.801363 
L 177.832645 82.575906 
L 179.067212 87.681218 
L 179.478734 88.695982 
L 180.301779 91.606072 
L 181.947868 95.293322 
L 183.182434 99.799841 
L 183.182434 99.799841 
" clip-path="url(#p82a28b142f)" style="fill: none; stroke: #ff0000; stroke-width: 0.8; stroke-linecap: square"/>
    </g>
    <g id="line2d_17">
     <path d="M 101.289508 145.456286 
L 101.634136 181 
M 104.52648 181 
L 104.581686 156.457638 
L 104.993208 39.254031 
L 105.33095 -1 
M 105.996009 -1 
L 106.227775 6.493018 
L 106.639297 27.56748 
L 107.462341 92.026269 
L 108.441858 181 
M 111.100168 181 
L 111.679188 -1 
M 113.15377 -1 
L 113.223653 3.641638 
L 114.046697 81.413556 
L 114.913727 181 
M 117.703858 181 
L 118.13368 -1 
M 120.023896 -1 
L 120.631053 71.758586 
L 121.415841 181 
M 124.287249 181 
L 124.334754 152.05447 
L 124.729031 -1 
M 126.541541 -1 
L 127.215409 73.754461 
L 128.022626 181 
M 130.850951 181 
L 130.919109 140.626867 
L 131.506397 -1 
M 132.668314 -1 
L 133.388243 50.19574 
L 134.734641 181 
M 137.450285 181 
L 137.914988 28.213859 
L 138.139789 -1 
M 139.166869 -1 
L 139.561077 22.956203 
L 140.384121 94.927469 
L 141.176622 181 
M 144.059598 181 
L 144.588214 -1 
M 146.056823 -1 
L 146.145432 5.598046 
L 146.968477 92.357542 
L 147.67624 181 
M 150.674145 181 
L 151.131817 -1 
M 152.747823 -1 
L 153.552833 94.926804 
L 154.165917 181 
M 157.234456 181 
L 157.256533 167.668966 
L 157.65044 -1 
M 159.53641 -1 
L 160.137189 71.079778 
L 160.914904 181 
M 163.79552 181 
L 163.840889 153.008273 
L 164.234605 -1 
M 166.091489 -1 
L 166.721545 67.75604 
L 167.580035 181 
M 170.355717 181 
L 170.425245 141.129255 
L 170.847378 -1 
M 172.467234 -1 
L 172.894378 37.032819 
L 174.187423 181 
M 176.952788 181 
L 177.421123 6.808169 
L 177.474544 -1 
M 178.997973 -1 
L 179.067212 4.024482 
L 179.890257 88.56465 
L 180.64525 181 
L 180.64525 181 
" clip-path="url(#p82a28b142f)" style="fill: none; stroke: #808080; stroke-width: 0.2; stroke-linecap: square"/>
    </g>
    <g id="patch_11">
     <path d="M 100.877986 108.384 
L 100.877986 66.912 
" style="fill: none; stroke: #000000; stroke-width: 0.8; stroke-linejoin: miter; stroke-linecap: square"/>
    </g>
    <g id="patch_12">
     <path d="M 183.593957 108.384 
L 183.593957 66.912 
" style="fill: none; stroke: #000000; stroke-width: 0.8; stroke-linejoin: miter; stroke-linecap: square"/>
    </g>
    <g id="patch_13">
     <path d="M 100.877986 108.384 
L 183.593957 108.384 
" style="fill: none; stroke: #000000; stroke-width: 0.8; stroke-linejoin: miter; stroke-linecap: square"/>
    </g>
    <g id="patch_14">
     <path d="M 100.877986 66.912 
L 183.593957 66.912 
" style="fill: none; stroke: #000000; stroke-width: 0.8; stroke-linejoin: miter; stroke-linecap: square"/>
    </g>
   </g>
   <g id="legend_1">
    <g id="patch_15">
     <path d="M 20.262014 158.724 
L 51.130139 158.724 
Q 51.730139 158.724 51.730139 158.124 
L 51.730139 145.213687 
Q 51.730139 144.613687 51.130139 144.613687 
L 20.262014 144.613687 
Q 19.662014 144.613687 19.662014 145.213687 
L 19.662014 158.124 
Q 19.662014 158.724 20.262014 158.724 
z
" style="fill: #ffffff; opacity: 0.8; stroke: #cccccc; stroke-linejoin: miter"/>
    </g>
    <g id="line2d_18">
     <path d="M 20.862014 147.043219 
L 23.862014 147.043219 
L 26.862014 147.043219 
" style="fill: none; stroke: #808080; stroke-width: 0.7; stroke-linecap: square"/>
    </g>
    <g id="text_15">
     <!-- Contaminated -->
     <g transform="translate(29.262014 148.093219) scale(0.03 -0.03)">
      <defs>
       <path id="DejaVuSans-43" d="M 4122 4306 
L 4122 3641 
Q 3803 3938 3442 4084 
Q 3081 4231 2675 4231 
Q 1875 4231 1450 3742 
Q 1025 3253 1025 2328 
Q 1025 1406 1450 917 
Q 1875 428 2675 428 
Q 3081 428 3442 575 
Q 3803 722 4122 1019 
L 4122 359 
Q 3791 134 3420 21 
Q 3050 -91 2638 -91 
Q 1578 -91 968 557 
Q 359 1206 359 2328 
Q 359 3453 968 4101 
Q 1578 4750 2638 4750 
Q 3056 4750 3426 4639 
Q 3797 4528 4122 4306 
z
" transform="scale(0.015625)"/>
      </defs>
      <use xlink:href="#DejaVuSans-43"/>
      <use xlink:href="#DejaVuSans-6f" x="69.824219"/>
      <use xlink:href="#DejaVuSans-6e" x="131.005859"/>
      <use xlink:href="#DejaVuSans-74" x="194.384766"/>
      <use xlink:href="#DejaVuSans-61" x="233.59375"/>
      <use xlink:href="#DejaVuSans-6d" x="294.873047"/>
      <use xlink:href="#DejaVuSans-69" x="392.285156"/>
      <use xlink:href="#DejaVuSans-6e" x="420.068359"/>
      <use xlink:href="#DejaVuSans-61" x="483.447266"/>
      <use xlink:href="#DejaVuSans-74" x="544.726562"/>
      <use xlink:href="#DejaVuSans-65" x="583.935547"/>
      <use xlink:href="#DejaVuSans-64" x="645.458984"/>
     </g>
    </g>
    <g id="line2d_19">
     <path d="M 20.862014 151.446656 
L 23.862014 151.446656 
L 26.862014 151.446656 
" style="fill: none; stroke: #1e90ff; stroke-linecap: square"/>
    </g>
    <g id="text_16">
     <!-- Clean -->
     <g transform="translate(29.262014 152.496656) scale(0.03 -0.03)">
      <use xlink:href="#DejaVuSans-43"/>
      <use xlink:href="#DejaVuSans-6c" x="69.824219"/>
      <use xlink:href="#DejaVuSans-65" x="97.607422"/>
      <use xlink:href="#DejaVuSans-61" x="159.130859"/>
      <use xlink:href="#DejaVuSans-6e" x="220.410156"/>
     </g>
    </g>
    <g id="line2d_20">
     <path d="M 20.862014 155.850094 
L 23.862014 155.850094 
L 26.862014 155.850094 
" style="fill: none; stroke: #ff0000; stroke-width: 0.8; stroke-linecap: square"/>
    </g>
    <g id="text_17">
     <!-- SACed -->
     <g transform="translate(29.262014 156.900094) scale(0.03 -0.03)">
      <defs>
       <path id="DejaVuSans-53" d="M 3425 4513 
L 3425 3897 
Q 3066 4069 2747 4153 
Q 2428 4238 2131 4238 
Q 1616 4238 1336 4038 
Q 1056 3838 1056 3469 
Q 1056 3159 1242 3001 
Q 1428 2844 1947 2747 
L 2328 2669 
Q 3034 2534 3370 2195 
Q 3706 1856 3706 1288 
Q 3706 609 3251 259 
Q 2797 -91 1919 -91 
Q 1588 -91 1214 -16 
Q 841 59 441 206 
L 441 856 
Q 825 641 1194 531 
Q 1563 422 1919 422 
Q 2459 422 2753 634 
Q 3047 847 3047 1241 
Q 3047 1584 2836 1778 
Q 2625 1972 2144 2069 
L 1759 2144 
Q 1053 2284 737 2584 
Q 422 2884 422 3419 
Q 422 4038 858 4394 
Q 1294 4750 2059 4750 
Q 2388 4750 2728 4690 
Q 3069 4631 3425 4513 
z
" transform="scale(0.015625)"/>
      </defs>
      <use xlink:href="#DejaVuSans-53"/>
      <use xlink:href="#DejaVuSans-41" x="65.351562"/>
      <use xlink:href="#DejaVuSans-43" x="132.009766"/>
      <use xlink:href="#DejaVuSans-65" x="201.833984"/>
      <use xlink:href="#DejaVuSans-64" x="263.357422"/>
     </g>
    </g>
   </g>
  </g>
 </g>
 <defs>
  <clipPath id="p2635948ee2">
   <rect x="59.52" y="25.44" width="137.859952" height="103.68"/>
  </clipPath>
  <clipPath id="p82a28b142f">
   <rect x="100.877986" y="66.912" width="82.715971" height="41.472"/>
  </clipPath>
 </defs>
</svg>
