<?xml version="1.0" encoding="utf-8" standalone="no"?>
<!DOCTYPE svg PUBLIC "-//W3C//DTD SVG 1.1//EN"
  "http://www.w3.org/Graphics/SVG/1.1/DTD/svg11.dtd">
<svg xmlns:xlink="http://www.w3.org/1999/xlink" width="216pt" height="180pt" viewBox="0 0 216 180" xmlns="http://www.w3.org/2000/svg" version="1.1">
 <metadata>
  <rdf:RDF xmlns:dc="http://purl.org/dc/elements/1.1/" xmlns:cc="http://creativecommons.org/ns#" xmlns:rdf="http://www.w3.org/1999/02/22-rdf-syntax-ns#">
   <cc:Work>
    <dc:type rdf:resource="http://purl.org/dc/dcmitype/StillImage"/>
    <dc:date>2024-08-26T02:52:51.447197</dc:date>
    <dc:format>image/svg+xml</dc:format>
    <dc:creator>
     <cc:Agent>
      <dc:title>Matplotlib v3.9.1, https://matplotlib.org/</dc:title>
     </cc:Agent>
    </dc:creator>
   </cc:Work>
  </rdf:RDF>
 </metadata>
 <defs>
  <style type="text/css">*{stroke-linejoin: round; stroke-linecap: butt}</style>
 </defs>
 <g id="figure_1">
  <g id="patch_1">
   <path d="M 0 180 
L 216 180 
L 216 0 
L 0 0 
z
" style="fill: #ffffff"/>
  </g>
  <g id="axes_1">
   <g id="patch_2">
    <path d="M 53.03 138.04 
L 191.427985 138.04 
L 191.427985 25.44 
L 53.03 25.44 
z
" style="fill: #ffffff"/>
   </g>
   <g id="matplotlib.axis_1">
    <g id="xtick_1">
     <g id="line2d_1">
      <defs>
       <path id="mcaecea3550" d="M 0 0 
L 0 3.5 
" style="stroke: #000000; stroke-width: 0.8"/>
      </defs>
      <g>
       <use xlink:href="#mcaecea3550" x="53.270992" y="138.04" style="stroke: #000000; stroke-width: 0.8"/>
      </g>
     </g>
     <g id="text_1">
      <!-- 1.30 -->
      <g transform="translate(42.138179 152.638438) scale(0.1 -0.1)">
       <defs>
        <path id="DejaVuSans-31" d="M 794 531 
L 1825 531 
L 1825 4091 
L 703 3866 
L 703 4441 
L 1819 4666 
L 2450 4666 
L 2450 531 
L 3481 531 
L 3481 0 
L 794 0 
L 794 531 
z
" transform="scale(0.015625)"/>
        <path id="DejaVuSans-2e" d="M 684 794 
L 1344 794 
L 1344 0 
L 684 0 
L 684 794 
z
" transform="scale(0.015625)"/>
        <path id="DejaVuSans-33" d="M 2597 2516 
Q 3050 2419 3304 2112 
Q 3559 1806 3559 1356 
Q 3559 666 3084 287 
Q 2609 -91 1734 -91 
Q 1441 -91 1130 -33 
Q 819 25 488 141 
L 488 750 
Q 750 597 1062 519 
Q 1375 441 1716 441 
Q 2309 441 2620 675 
Q 2931 909 2931 1356 
Q 2931 1769 2642 2001 
Q 2353 2234 1838 2234 
L 1294 2234 
L 1294 2753 
L 1863 2753 
Q 2328 2753 2575 2939 
Q 2822 3125 2822 3475 
Q 2822 3834 2567 4026 
Q 2313 4219 1838 4219 
Q 1578 4219 1281 4162 
Q 984 4106 628 3988 
L 628 4550 
Q 988 4650 1302 4700 
Q 1616 4750 1894 4750 
Q 2613 4750 3031 4423 
Q 3450 4097 3450 3541 
Q 3450 3153 3228 2886 
Q 3006 2619 2597 2516 
z
" transform="scale(0.015625)"/>
        <path id="DejaVuSans-30" d="M 2034 4250 
Q 1547 4250 1301 3770 
Q 1056 3291 1056 2328 
Q 1056 1369 1301 889 
Q 1547 409 2034 409 
Q 2525 409 2770 889 
Q 3016 1369 3016 2328 
Q 3016 3291 2770 3770 
Q 2525 4250 2034 4250 
z
M 2034 4750 
Q 2819 4750 3233 4129 
Q 3647 3509 3647 2328 
Q 3647 1150 3233 529 
Q 2819 -91 2034 -91 
Q 1250 -91 836 529 
Q 422 1150 422 2328 
Q 422 3509 836 4129 
Q 1250 4750 2034 4750 
z
" transform="scale(0.015625)"/>
       </defs>
       <use xlink:href="#DejaVuSans-31"/>
       <use xlink:href="#DejaVuSans-2e" x="63.623047"/>
       <use xlink:href="#DejaVuSans-33" x="95.410156"/>
       <use xlink:href="#DejaVuSans-30" x="159.033203"/>
      </g>
     </g>
    </g>
    <g id="xtick_2">
     <g id="line2d_2">
      <g>
       <use xlink:href="#mcaecea3550" x="122.108497" y="138.04" style="stroke: #000000; stroke-width: 0.8"/>
      </g>
     </g>
     <g id="text_2">
      <!-- 1.35 -->
      <g transform="translate(110.975684 152.638438) scale(0.1 -0.1)">
       <defs>
        <path id="DejaVuSans-35" d="M 691 4666 
L 3169 4666 
L 3169 4134 
L 1269 4134 
L 1269 2991 
Q 1406 3038 1543 3061 
Q 1681 3084 1819 3084 
Q 2600 3084 3056 2656 
Q 3513 2228 3513 1497 
Q 3513 744 3044 326 
Q 2575 -91 1722 -91 
Q 1428 -91 1123 -41 
Q 819 9 494 109 
L 494 744 
Q 775 591 1075 516 
Q 1375 441 1709 441 
Q 2250 441 2565 725 
Q 2881 1009 2881 1497 
Q 2881 1984 2565 2268 
Q 2250 2553 1709 2553 
Q 1456 2553 1204 2497 
Q 953 2441 691 2322 
L 691 4666 
z
" transform="scale(0.015625)"/>
       </defs>
       <use xlink:href="#DejaVuSans-31"/>
       <use xlink:href="#DejaVuSans-2e" x="63.623047"/>
       <use xlink:href="#DejaVuSans-33" x="95.410156"/>
       <use xlink:href="#DejaVuSans-35" x="159.033203"/>
      </g>
     </g>
    </g>
    <g id="xtick_3">
     <g id="line2d_3">
      <g>
       <use xlink:href="#mcaecea3550" x="190.946002" y="138.04" style="stroke: #000000; stroke-width: 0.8"/>
      </g>
     </g>
     <g id="text_3">
      <!-- 1.40 -->
      <g transform="translate(179.81319 152.638438) scale(0.1 -0.1)">
       <defs>
        <path id="DejaVuSans-34" d="M 2419 4116 
L 825 1625 
L 2419 1625 
L 2419 4116 
z
M 2253 4666 
L 3047 4666 
L 3047 1625 
L 3713 1625 
L 3713 1100 
L 3047 1100 
L 3047 0 
L 2419 0 
L 2419 1100 
L 313 1100 
L 313 1709 
L 2253 4666 
z
" transform="scale(0.015625)"/>
       </defs>
       <use xlink:href="#DejaVuSans-31"/>
       <use xlink:href="#DejaVuSans-2e" x="63.623047"/>
       <use xlink:href="#DejaVuSans-34" x="95.410156"/>
       <use xlink:href="#DejaVuSans-30" x="159.033203"/>
      </g>
     </g>
    </g>
    <g id="text_4">
     <!-- Time (s) -->
     <g transform="translate(101.900086 166.316563) scale(0.1 -0.1)">
      <defs>
       <path id="DejaVuSans-54" d="M -19 4666 
L 3928 4666 
L 3928 4134 
L 2272 4134 
L 2272 0 
L 1638 0 
L 1638 4134 
L -19 4134 
L -19 4666 
z
" transform="scale(0.015625)"/>
       <path id="DejaVuSans-69" d="M 603 3500 
L 1178 3500 
L 1178 0 
L 603 0 
L 603 3500 
z
M 603 4863 
L 1178 4863 
L 1178 4134 
L 603 4134 
L 603 4863 
z
" transform="scale(0.015625)"/>
       <path id="DejaVuSans-6d" d="M 3328 2828 
Q 3544 3216 3844 3400 
Q 4144 3584 4550 3584 
Q 5097 3584 5394 3201 
Q 5691 2819 5691 2113 
L 5691 0 
L 5113 0 
L 5113 2094 
Q 5113 2597 4934 2840 
Q 4756 3084 4391 3084 
Q 3944 3084 3684 2787 
Q 3425 2491 3425 1978 
L 3425 0 
L 2847 0 
L 2847 2094 
Q 2847 2600 2669 2842 
Q 2491 3084 2119 3084 
Q 1678 3084 1418 2786 
Q 1159 2488 1159 1978 
L 1159 0 
L 581 0 
L 581 3500 
L 1159 3500 
L 1159 2956 
Q 1356 3278 1631 3431 
Q 1906 3584 2284 3584 
Q 2666 3584 2933 3390 
Q 3200 3197 3328 2828 
z
" transform="scale(0.015625)"/>
       <path id="DejaVuSans-65" d="M 3597 1894 
L 3597 1613 
L 953 1613 
Q 991 1019 1311 708 
Q 1631 397 2203 397 
Q 2534 397 2845 478 
Q 3156 559 3463 722 
L 3463 178 
Q 3153 47 2828 -22 
Q 2503 -91 2169 -91 
Q 1331 -91 842 396 
Q 353 884 353 1716 
Q 353 2575 817 3079 
Q 1281 3584 2069 3584 
Q 2775 3584 3186 3129 
Q 3597 2675 3597 1894 
z
M 3022 2063 
Q 3016 2534 2758 2815 
Q 2500 3097 2075 3097 
Q 1594 3097 1305 2825 
Q 1016 2553 972 2059 
L 3022 2063 
z
" transform="scale(0.015625)"/>
       <path id="DejaVuSans-20" transform="scale(0.015625)"/>
       <path id="DejaVuSans-28" d="M 1984 4856 
Q 1566 4138 1362 3434 
Q 1159 2731 1159 2009 
Q 1159 1288 1364 580 
Q 1569 -128 1984 -844 
L 1484 -844 
Q 1016 -109 783 600 
Q 550 1309 550 2009 
Q 550 2706 781 3412 
Q 1013 4119 1484 4856 
L 1984 4856 
z
" transform="scale(0.015625)"/>
       <path id="DejaVuSans-73" d="M 2834 3397 
L 2834 2853 
Q 2591 2978 2328 3040 
Q 2066 3103 1784 3103 
Q 1356 3103 1142 2972 
Q 928 2841 928 2578 
Q 928 2378 1081 2264 
Q 1234 2150 1697 2047 
L 1894 2003 
Q 2506 1872 2764 1633 
Q 3022 1394 3022 966 
Q 3022 478 2636 193 
Q 2250 -91 1575 -91 
Q 1294 -91 989 -36 
Q 684 19 347 128 
L 347 722 
Q 666 556 975 473 
Q 1284 391 1588 391 
Q 1994 391 2212 530 
Q 2431 669 2431 922 
Q 2431 1156 2273 1281 
Q 2116 1406 1581 1522 
L 1381 1569 
Q 847 1681 609 1914 
Q 372 2147 372 2553 
Q 372 3047 722 3315 
Q 1072 3584 1716 3584 
Q 2034 3584 2315 3537 
Q 2597 3491 2834 3397 
z
" transform="scale(0.015625)"/>
       <path id="DejaVuSans-29" d="M 513 4856 
L 1013 4856 
Q 1481 4119 1714 3412 
Q 1947 2706 1947 2009 
Q 1947 1309 1714 600 
Q 1481 -109 1013 -844 
L 513 -844 
Q 928 -128 1133 580 
Q 1338 1288 1338 2009 
Q 1338 2731 1133 3434 
Q 928 4138 513 4856 
z
" transform="scale(0.015625)"/>
      </defs>
      <use xlink:href="#DejaVuSans-54"/>
      <use xlink:href="#DejaVuSans-69" x="57.958984"/>
      <use xlink:href="#DejaVuSans-6d" x="85.742188"/>
      <use xlink:href="#DejaVuSans-65" x="183.154297"/>
      <use xlink:href="#DejaVuSans-20" x="244.677734"/>
      <use xlink:href="#DejaVuSans-28" x="276.464844"/>
      <use xlink:href="#DejaVuSans-73" x="315.478516"/>
      <use xlink:href="#DejaVuSans-29" x="367.578125"/>
     </g>
    </g>
   </g>
   <g id="matplotlib.axis_2">
    <g id="ytick_1">
     <g id="line2d_4">
      <defs>
       <path id="m94ff5f8c44" d="M 0 0 
L -3.5 0 
" style="stroke: #000000; stroke-width: 0.8"/>
      </defs>
      <g>
       <use xlink:href="#m94ff5f8c44" x="53.03" y="134.996757" style="stroke: #000000; stroke-width: 0.8"/>
      </g>
     </g>
     <g id="text_5">
      <!-- −10 -->
      <g transform="translate(24.925313 138.795976) scale(0.1 -0.1)">
       <defs>
        <path id="DejaVuSans-2212" d="M 678 2272 
L 4684 2272 
L 4684 1741 
L 678 1741 
L 678 2272 
z
" transform="scale(0.015625)"/>
       </defs>
       <use xlink:href="#DejaVuSans-2212"/>
       <use xlink:href="#DejaVuSans-31" x="83.789062"/>
       <use xlink:href="#DejaVuSans-30" x="147.412109"/>
      </g>
     </g>
    </g>
    <g id="ytick_2">
     <g id="line2d_5">
      <g>
       <use xlink:href="#m94ff5f8c44" x="53.03" y="104.564324" style="stroke: #000000; stroke-width: 0.8"/>
      </g>
     </g>
     <g id="text_6">
      <!-- −5 -->
      <g transform="translate(31.287813 108.363543) scale(0.1 -0.1)">
       <use xlink:href="#DejaVuSans-2212"/>
       <use xlink:href="#DejaVuSans-35" x="83.789062"/>
      </g>
     </g>
    </g>
    <g id="ytick_3">
     <g id="line2d_6">
      <g>
       <use xlink:href="#m94ff5f8c44" x="53.03" y="74.131892" style="stroke: #000000; stroke-width: 0.8"/>
      </g>
     </g>
     <g id="text_7">
      <!-- 0 -->
      <g transform="translate(39.6675 77.931111) scale(0.1 -0.1)">
       <use xlink:href="#DejaVuSans-30"/>
      </g>
     </g>
    </g>
    <g id="ytick_4">
     <g id="line2d_7">
      <g>
       <use xlink:href="#m94ff5f8c44" x="53.03" y="43.699459" style="stroke: #000000; stroke-width: 0.8"/>
      </g>
     </g>
     <g id="text_8">
      <!-- 5 -->
      <g transform="translate(39.6675 47.498678) scale(0.1 -0.1)">
       <use xlink:href="#DejaVuSans-35"/>
      </g>
     </g>
    </g>
    <g id="text_9">
     <!-- Amplitude (mV) -->
     <g transform="translate(18.845625 121.143906) rotate(-90) scale(0.1 -0.1)">
      <defs>
       <path id="DejaVuSans-41" d="M 2188 4044 
L 1331 1722 
L 3047 1722 
L 2188 4044 
z
M 1831 4666 
L 2547 4666 
L 4325 0 
L 3669 0 
L 3244 1197 
L 1141 1197 
L 716 0 
L 50 0 
L 1831 4666 
z
" transform="scale(0.015625)"/>
       <path id="DejaVuSans-70" d="M 1159 525 
L 1159 -1331 
L 581 -1331 
L 581 3500 
L 1159 3500 
L 1159 2969 
Q 1341 3281 1617 3432 
Q 1894 3584 2278 3584 
Q 2916 3584 3314 3078 
Q 3713 2572 3713 1747 
Q 3713 922 3314 415 
Q 2916 -91 2278 -91 
Q 1894 -91 1617 61 
Q 1341 213 1159 525 
z
M 3116 1747 
Q 3116 2381 2855 2742 
Q 2594 3103 2138 3103 
Q 1681 3103 1420 2742 
Q 1159 2381 1159 1747 
Q 1159 1113 1420 752 
Q 1681 391 2138 391 
Q 2594 391 2855 752 
Q 3116 1113 3116 1747 
z
" transform="scale(0.015625)"/>
       <path id="DejaVuSans-6c" d="M 603 4863 
L 1178 4863 
L 1178 0 
L 603 0 
L 603 4863 
z
" transform="scale(0.015625)"/>
       <path id="DejaVuSans-74" d="M 1172 4494 
L 1172 3500 
L 2356 3500 
L 2356 3053 
L 1172 3053 
L 1172 1153 
Q 1172 725 1289 603 
Q 1406 481 1766 481 
L 2356 481 
L 2356 0 
L 1766 0 
Q 1100 0 847 248 
Q 594 497 594 1153 
L 594 3053 
L 172 3053 
L 172 3500 
L 594 3500 
L 594 4494 
L 1172 4494 
z
" transform="scale(0.015625)"/>
       <path id="DejaVuSans-75" d="M 544 1381 
L 544 3500 
L 1119 3500 
L 1119 1403 
Q 1119 906 1312 657 
Q 1506 409 1894 409 
Q 2359 409 2629 706 
Q 2900 1003 2900 1516 
L 2900 3500 
L 3475 3500 
L 3475 0 
L 2900 0 
L 2900 538 
Q 2691 219 2414 64 
Q 2138 -91 1772 -91 
Q 1169 -91 856 284 
Q 544 659 544 1381 
z
M 1991 3584 
L 1991 3584 
z
" transform="scale(0.015625)"/>
       <path id="DejaVuSans-64" d="M 2906 2969 
L 2906 4863 
L 3481 4863 
L 3481 0 
L 2906 0 
L 2906 525 
Q 2725 213 2448 61 
Q 2172 -91 1784 -91 
Q 1150 -91 751 415 
Q 353 922 353 1747 
Q 353 2572 751 3078 
Q 1150 3584 1784 3584 
Q 2172 3584 2448 3432 
Q 2725 3281 2906 2969 
z
M 947 1747 
Q 947 1113 1208 752 
Q 1469 391 1925 391 
Q 2381 391 2643 752 
Q 2906 1113 2906 1747 
Q 2906 2381 2643 2742 
Q 2381 3103 1925 3103 
Q 1469 3103 1208 2742 
Q 947 2381 947 1747 
z
" transform="scale(0.015625)"/>
       <path id="DejaVuSans-56" d="M 1831 0 
L 50 4666 
L 709 4666 
L 2188 738 
L 3669 4666 
L 4325 4666 
L 2547 0 
L 1831 0 
z
" transform="scale(0.015625)"/>
      </defs>
      <use xlink:href="#DejaVuSans-41"/>
      <use xlink:href="#DejaVuSans-6d" x="68.408203"/>
      <use xlink:href="#DejaVuSans-70" x="165.820312"/>
      <use xlink:href="#DejaVuSans-6c" x="229.296875"/>
      <use xlink:href="#DejaVuSans-69" x="257.080078"/>
      <use xlink:href="#DejaVuSans-74" x="284.863281"/>
      <use xlink:href="#DejaVuSans-75" x="324.072266"/>
      <use xlink:href="#DejaVuSans-64" x="387.451172"/>
      <use xlink:href="#DejaVuSans-65" x="450.927734"/>
      <use xlink:href="#DejaVuSans-20" x="512.451172"/>
      <use xlink:href="#DejaVuSans-28" x="544.238281"/>
      <use xlink:href="#DejaVuSans-6d" x="583.251953"/>
      <use xlink:href="#DejaVuSans-56" x="680.664062"/>
      <use xlink:href="#DejaVuSans-29" x="749.072266"/>
     </g>
    </g>
   </g>
   <g id="line2d_8">
    <path d="M 53.718547 78.871621 
L 54.407094 78.990292 
L 55.095642 78.81344 
L 55.784189 78.49543 
L 56.472736 78.448449 
L 57.84983 79.145089 
L 58.538378 79.2356 
L 59.226925 79.594758 
L 60.604019 79.545526 
L 61.292566 79.098896 
L 61.981113 78.269496 
L 64.046755 75.150903 
L 64.735302 73.954308 
L 66.800944 71.934804 
L 68.178038 71.238731 
L 68.866585 71.236819 
L 69.555133 71.459778 
L 70.24368 70.944679 
L 70.932227 70.655157 
L 71.620774 70.176922 
L 72.309321 69.327582 
L 73.686416 67.971746 
L 74.374963 67.744096 
L 75.06351 67.224125 
L 75.752057 66.959899 
L 77.129152 65.989078 
L 77.817699 65.984418 
L 78.506246 66.128824 
L 79.88334 65.802993 
L 80.571888 65.76323 
L 81.260435 65.238112 
L 81.948982 64.958881 
L 85.391718 62.41006 
L 86.080265 62.291774 
L 87.457359 62.751784 
L 89.523001 63.596496 
L 90.211548 64.34366 
L 90.900095 64.854401 
L 92.27719 65.528231 
L 93.654284 65.770683 
L 94.342831 65.827085 
L 95.031379 66.131248 
L 95.719926 66.661855 
L 96.408473 66.52778 
L 97.09702 66.696812 
L 98.474115 66.222842 
L 99.162662 66.22243 
L 100.539756 66.614242 
L 101.228303 66.927206 
L 102.605398 67.100335 
L 103.982492 67.796047 
L 104.671039 68.500595 
L 106.048134 70.353404 
L 106.736681 70.924774 
L 108.113775 72.551316 
L 108.802322 73.03791 
L 109.49087 73.386817 
L 110.179417 73.561592 
L 110.867964 73.557234 
L 111.556511 73.413197 
L 112.245058 73.749537 
L 112.933605 73.87482 
L 114.3107 74.571162 
L 114.999247 74.518852 
L 117.064889 74.999779 
L 119.819077 74.889042 
L 120.507625 75.143541 
L 121.884719 76.275109 
L 122.573266 76.553096 
L 123.950361 77.561637 
L 124.638908 77.599493 
L 125.327455 77.870921 
L 126.704549 77.185229 
L 127.393096 77.379127 
L 128.081644 77.214419 
L 128.770191 77.510315 
L 129.458738 77.570462 
L 130.147285 77.166166 
L 131.52438 77.407625 
L 132.901474 77.188303 
L 133.590021 77.383712 
L 134.967116 76.913084 
L 135.655663 76.132124 
L 136.34421 75.95721 
L 137.032757 75.58966 
L 137.721304 75.361253 
L 138.409851 75.482536 
L 139.098399 75.233471 
L 139.786946 74.806141 
L 143.918229 69.838361 
L 144.606776 69.474812 
L 145.295323 68.937937 
L 147.360965 66.719663 
L 149.426607 63.801553 
L 150.803701 63.036438 
L 152.180795 62.537453 
L 152.869342 62.380588 
L 153.55789 62.505637 
L 154.246437 62.3977 
L 154.934984 62.628572 
L 155.623531 62.439128 
L 157.000626 61.6093 
L 158.37772 61.729818 
L 159.066267 61.514838 
L 161.131909 60.245615 
L 162.509003 59.872276 
L 163.19755 59.803454 
L 163.886097 60.048357 
L 164.574645 60.453757 
L 165.263192 60.438151 
L 165.951739 60.141994 
L 166.640286 60.071288 
L 167.328833 60.256701 
L 168.017381 60.617391 
L 168.705928 61.333409 
L 169.394475 61.789636 
L 170.083022 62.698166 
L 171.460117 62.868346 
L 172.148664 62.815576 
L 174.214305 62.924635 
L 176.279947 64.574028 
L 176.968494 65.230662 
L 178.345588 66.785873 
L 179.034136 67.125102 
L 179.722683 67.231792 
L 180.41123 67.469115 
L 181.099777 68.195444 
L 181.788324 68.344805 
L 183.165419 69.295112 
L 183.853966 70.033009 
L 184.542513 70.248696 
L 185.919608 71.219664 
L 187.296702 71.860714 
L 187.985249 72.493148 
L 189.362344 73.462551 
L 190.739438 74.764972 
L 190.739438 74.764972 
" clip-path="url(#p703e5d83da)" style="fill: none; stroke: #1e90ff; stroke-linecap: square"/>
   </g>
   <g id="line2d_9">
    <path d="M 53.718547 78.995569 
L 54.407094 79.273897 
L 55.095642 79.202403 
L 55.784189 78.968843 
L 56.472736 79.092118 
L 57.84983 79.850034 
L 58.538378 79.950809 
L 59.226925 79.680273 
L 60.604019 79.352768 
L 61.292566 78.916656 
L 61.981113 78.127736 
L 65.423849 73.207522 
L 66.800944 71.937933 
L 67.489491 71.454283 
L 68.178038 71.173663 
L 68.866585 71.183495 
L 69.555133 71.32388 
L 70.932227 70.709671 
L 71.620774 70.123556 
L 73.686416 68.006584 
L 77.129152 66.023786 
L 79.194793 65.859798 
L 80.571888 65.610701 
L 81.260435 65.218543 
L 81.948982 64.997237 
L 82.637529 64.579146 
L 85.391718 62.445632 
L 86.080265 62.292378 
L 86.768812 62.431026 
L 88.145907 63.096961 
L 88.834454 63.313919 
L 89.523001 63.679685 
L 90.900095 65.023171 
L 92.27719 65.551799 
L 96.408473 66.664497 
L 97.09702 66.619422 
L 99.162662 66.212324 
L 100.539756 66.552915 
L 101.228303 66.841173 
L 102.605398 67.015312 
L 103.982492 67.824385 
L 106.736681 71.12165 
L 108.802322 73.091247 
L 109.49087 73.482 
L 110.179417 73.592296 
L 111.556511 73.49588 
L 112.245058 73.633963 
L 116.376341 75.087074 
L 117.753436 75.124722 
L 119.13053 74.811749 
L 119.819077 74.843539 
L 120.507625 75.145587 
L 122.573266 76.562117 
L 123.950361 77.340843 
L 124.638908 77.509221 
L 125.327455 77.829081 
L 126.704549 77.575391 
L 128.081644 77.64809 
L 128.770191 77.695104 
L 129.458738 77.541431 
L 130.147285 77.263517 
L 134.278568 77.382366 
L 134.967116 76.944084 
L 135.655663 76.224167 
L 137.032757 75.650172 
L 138.409851 75.627426 
L 139.098399 75.435262 
L 139.786946 74.890874 
L 143.229682 70.786228 
L 143.918229 69.995047 
L 145.295323 69.008851 
L 147.360965 66.746743 
L 149.426607 64.005367 
L 150.115154 63.359762 
L 151.492248 62.738432 
L 152.869342 62.322198 
L 153.55789 62.397817 
L 154.246437 62.656583 
L 154.934984 62.792461 
L 156.312078 61.981146 
L 157.000626 61.793659 
L 158.37772 61.767564 
L 159.066267 61.512307 
L 161.131909 60.223125 
L 163.19755 59.81331 
L 165.263192 60.759268 
L 166.640286 60.13727 
L 167.328833 60.399738 
L 170.083022 62.512281 
L 170.771569 62.768589 
L 172.837211 62.733977 
L 174.214305 62.908041 
L 174.902853 63.394656 
L 176.279947 64.757332 
L 178.345588 66.979051 
L 179.034136 67.411076 
L 180.41123 67.681342 
L 182.476872 68.599787 
L 185.919608 71.201514 
L 187.985249 72.421201 
L 189.362344 73.459893 
L 190.739438 74.694906 
L 190.739438 74.694906 
" clip-path="url(#p703e5d83da)" style="fill: none; stroke: #ff0000; stroke-width: 0.8; stroke-linecap: square"/>
   </g>
   <g id="line2d_10">
    <path d="M 53.718547 104.25319 
L 55.095642 157.530984 
L 55.779109 181 
M 58.819073 181 
L 59.226925 109.22093 
L 59.915472 48.798807 
L 60.604019 23.706852 
L 61.292566 25.743673 
L 61.981113 32.220303 
L 62.669661 42.916328 
L 63.358208 57.246639 
L 64.735302 93.278833 
L 66.800944 150.110546 
L 67.489491 165.184042 
L 68.178038 176.54027 
L 68.59845 181 
M 69.603775 181 
L 70.932227 32.145842 
L 71.620774 0.376645 
L 72.309321 2.631708 
L 72.997868 11.15456 
L 73.686416 25.039079 
L 74.374963 44.089199 
L 75.752057 91.116223 
L 77.817699 163.706799 
L 78.43077 181 
M 80.751757 181 
L 81.260435 100.030652 
L 81.948982 28.780068 
L 82.634366 -1 
M 82.67891 -1 
L 83.326076 1.149165 
L 84.014624 9.307443 
L 84.703171 22.559126 
L 85.391718 40.186705 
L 86.768812 85.17625 
L 88.834454 155.009611 
L 89.878576 181 
M 91.728744 181 
L 92.965737 24.398392 
L 93.488883 -1 
M 94.659899 -1 
L 95.031379 4.444345 
L 95.719926 20.653491 
L 96.408473 41.178246 
L 97.785567 92.368067 
L 99.851209 171.112632 
L 100.177202 181 
M 102.840735 181 
L 103.293945 103.439133 
L 103.982492 30.341671 
L 104.671039 0.61246 
L 105.359586 4.646292 
L 106.048134 14.367232 
L 106.736681 29.168224 
L 107.425228 48.752123 
L 108.802322 96.532484 
L 110.179417 146.426873 
L 111.326761 181 
M 113.837414 181 
L 114.3107 107.993344 
L 114.999247 39.764993 
L 115.687794 11.690087 
L 116.376341 14.658574 
L 117.064889 23.050298 
L 117.753436 36.234818 
L 118.441983 53.646397 
L 119.819077 96.689622 
L 121.884719 164.467525 
L 122.52873 181 
M 124.830073 181 
L 125.327455 112.214792 
L 126.016002 41.755375 
L 126.704549 12.454759 
L 127.393096 15.527573 
L 128.081644 23.832317 
L 128.770191 37.695973 
L 130.147285 76.377789 
L 132.901474 167.812818 
L 133.403881 181 
M 135.839841 181 
L 136.34421 102.815625 
L 137.032757 47.6611 
L 137.721304 24.739183 
L 138.409851 27.111913 
L 139.098399 33.486326 
L 139.786946 43.669579 
L 140.475493 56.818608 
L 141.852587 89.917895 
L 143.918229 140.710707 
L 144.606776 154.3282 
L 145.295323 164.40191 
L 145.983871 170.281234 
L 146.672418 171.672488 
L 147.360965 93.733096 
L 148.049512 37.705513 
L 148.738059 13.974278 
L 149.426607 15.151742 
L 150.115154 21.381361 
L 150.803701 31.720166 
L 151.492248 45.486812 
L 152.869342 80.000876 
L 154.934984 133.909974 
L 155.623531 147.782267 
L 156.312078 158.088444 
L 157.000626 164.285976 
L 157.689173 166.665551 
L 158.37772 103.334158 
L 159.066267 18.252809 
L 159.438481 -1 
M 161.277211 -1 
L 161.820456 11.792862 
L 162.509003 33.297957 
L 163.886097 87.185987 
L 165.263192 144.601874 
L 166.305004 181 
M 168.933639 181 
L 169.394475 96.088686 
L 170.083022 27.032506 
L 170.750967 -1 
M 170.972558 -1 
L 171.460117 1.097515 
L 172.148664 9.503139 
L 172.837211 23.121349 
L 173.525758 41.012442 
L 174.902853 85.828321 
L 176.968494 155.736904 
L 177.974364 181 
M 179.861622 181 
L 180.41123 103.958463 
L 181.099777 30.252215 
L 181.788324 -0.42941 
L 182.476872 3.060876 
L 183.165419 12.578203 
L 183.853966 27.731451 
L 184.542513 46.941525 
L 185.919608 95.020891 
L 187.985249 168.779013 
L 188.417834 181 
L 188.417834 181 
" clip-path="url(#p703e5d83da)" style="fill: none; stroke: #808080; stroke-width: 0.2; stroke-linecap: square"/>
   </g>
   <g id="patch_3">
    <path d="M 53.03 138.04 
L 53.03 25.44 
" style="fill: none; stroke: #000000; stroke-width: 0.8; stroke-linejoin: miter; stroke-linecap: square"/>
   </g>
   <g id="patch_4">
    <path d="M 191.427985 138.04 
L 191.427985 25.44 
" style="fill: none; stroke: #000000; stroke-width: 0.8; stroke-linejoin: miter; stroke-linecap: square"/>
   </g>
   <g id="patch_5">
    <path d="M 53.03 138.04 
L 191.427985 138.04 
" style="fill: none; stroke: #000000; stroke-width: 0.8; stroke-linejoin: miter; stroke-linecap: square"/>
   </g>
   <g id="patch_6">
    <path d="M 53.03 25.44 
L 191.427985 25.44 
" style="fill: none; stroke: #000000; stroke-width: 0.8; stroke-linejoin: miter; stroke-linecap: square"/>
   </g>
   <g id="text_10">
    <!-- Zoom-in Time Domain Plot -->
    <g transform="translate(42.307118 19.44) scale(0.12 -0.12)">
     <defs>
      <path id="DejaVuSans-5a" d="M 359 4666 
L 4025 4666 
L 4025 4184 
L 1075 531 
L 4097 531 
L 4097 0 
L 288 0 
L 288 481 
L 3238 4134 
L 359 4134 
L 359 4666 
z
" transform="scale(0.015625)"/>
      <path id="DejaVuSans-6f" d="M 1959 3097 
Q 1497 3097 1228 2736 
Q 959 2375 959 1747 
Q 959 1119 1226 758 
Q 1494 397 1959 397 
Q 2419 397 2687 759 
Q 2956 1122 2956 1747 
Q 2956 2369 2687 2733 
Q 2419 3097 1959 3097 
z
M 1959 3584 
Q 2709 3584 3137 3096 
Q 3566 2609 3566 1747 
Q 3566 888 3137 398 
Q 2709 -91 1959 -91 
Q 1206 -91 779 398 
Q 353 888 353 1747 
Q 353 2609 779 3096 
Q 1206 3584 1959 3584 
z
" transform="scale(0.015625)"/>
      <path id="DejaVuSans-2d" d="M 313 2009 
L 1997 2009 
L 1997 1497 
L 313 1497 
L 313 2009 
z
" transform="scale(0.015625)"/>
      <path id="DejaVuSans-6e" d="M 3513 2113 
L 3513 0 
L 2938 0 
L 2938 2094 
Q 2938 2591 2744 2837 
Q 2550 3084 2163 3084 
Q 1697 3084 1428 2787 
Q 1159 2491 1159 1978 
L 1159 0 
L 581 0 
L 581 3500 
L 1159 3500 
L 1159 2956 
Q 1366 3272 1645 3428 
Q 1925 3584 2291 3584 
Q 2894 3584 3203 3211 
Q 3513 2838 3513 2113 
z
" transform="scale(0.015625)"/>
      <path id="DejaVuSans-44" d="M 1259 4147 
L 1259 519 
L 2022 519 
Q 2988 519 3436 956 
Q 3884 1394 3884 2338 
Q 3884 3275 3436 3711 
Q 2988 4147 2022 4147 
L 1259 4147 
z
M 628 4666 
L 1925 4666 
Q 3281 4666 3915 4102 
Q 4550 3538 4550 2338 
Q 4550 1131 3912 565 
Q 3275 0 1925 0 
L 628 0 
L 628 4666 
z
" transform="scale(0.015625)"/>
      <path id="DejaVuSans-61" d="M 2194 1759 
Q 1497 1759 1228 1600 
Q 959 1441 959 1056 
Q 959 750 1161 570 
Q 1363 391 1709 391 
Q 2188 391 2477 730 
Q 2766 1069 2766 1631 
L 2766 1759 
L 2194 1759 
z
M 3341 1997 
L 3341 0 
L 2766 0 
L 2766 531 
Q 2569 213 2275 61 
Q 1981 -91 1556 -91 
Q 1019 -91 701 211 
Q 384 513 384 1019 
Q 384 1609 779 1909 
Q 1175 2209 1959 2209 
L 2766 2209 
L 2766 2266 
Q 2766 2663 2505 2880 
Q 2244 3097 1772 3097 
Q 1472 3097 1187 3025 
Q 903 2953 641 2809 
L 641 3341 
Q 956 3463 1253 3523 
Q 1550 3584 1831 3584 
Q 2591 3584 2966 3190 
Q 3341 2797 3341 1997 
z
" transform="scale(0.015625)"/>
      <path id="DejaVuSans-50" d="M 1259 4147 
L 1259 2394 
L 2053 2394 
Q 2494 2394 2734 2622 
Q 2975 2850 2975 3272 
Q 2975 3691 2734 3919 
Q 2494 4147 2053 4147 
L 1259 4147 
z
M 628 4666 
L 2053 4666 
Q 2838 4666 3239 4311 
Q 3641 3956 3641 3272 
Q 3641 2581 3239 2228 
Q 2838 1875 2053 1875 
L 1259 1875 
L 1259 0 
L 628 0 
L 628 4666 
z
" transform="scale(0.015625)"/>
     </defs>
     <use xlink:href="#DejaVuSans-5a"/>
     <use xlink:href="#DejaVuSans-6f" x="68.505859"/>
     <use xlink:href="#DejaVuSans-6f" x="129.6875"/>
     <use xlink:href="#DejaVuSans-6d" x="190.869141"/>
     <use xlink:href="#DejaVuSans-2d" x="288.28125"/>
     <use xlink:href="#DejaVuSans-69" x="324.365234"/>
     <use xlink:href="#DejaVuSans-6e" x="352.148438"/>
     <use xlink:href="#DejaVuSans-20" x="415.527344"/>
     <use xlink:href="#DejaVuSans-54" x="447.314453"/>
     <use xlink:href="#DejaVuSans-69" x="505.273438"/>
     <use xlink:href="#DejaVuSans-6d" x="533.056641"/>
     <use xlink:href="#DejaVuSans-65" x="630.46875"/>
     <use xlink:href="#DejaVuSans-20" x="691.992188"/>
     <use xlink:href="#DejaVuSans-44" x="723.779297"/>
     <use xlink:href="#DejaVuSans-6f" x="800.78125"/>
     <use xlink:href="#DejaVuSans-6d" x="861.962891"/>
     <use xlink:href="#DejaVuSans-61" x="959.375"/>
     <use xlink:href="#DejaVuSans-69" x="1020.654297"/>
     <use xlink:href="#DejaVuSans-6e" x="1048.4375"/>
     <use xlink:href="#DejaVuSans-20" x="1111.816406"/>
     <use xlink:href="#DejaVuSans-50" x="1143.603516"/>
     <use xlink:href="#DejaVuSans-6c" x="1203.90625"/>
     <use xlink:href="#DejaVuSans-6f" x="1231.689453"/>
     <use xlink:href="#DejaVuSans-74" x="1292.871094"/>
    </g>
   </g>
  </g>
 </g>
 <defs>
  <clipPath id="p703e5d83da">
   <rect x="53.03" y="25.44" width="138.397985" height="112.6"/>
  </clipPath>
 </defs>
</svg>
