<?xml version="1.0" encoding="utf-8" standalone="no"?>
<!DOCTYPE svg PUBLIC "-//W3C//DTD SVG 1.1//EN"
  "http://www.w3.org/Graphics/SVG/1.1/DTD/svg11.dtd">
<svg xmlns:xlink="http://www.w3.org/1999/xlink" width="216pt" height="180pt" viewBox="0 0 216 180" xmlns="http://www.w3.org/2000/svg" version="1.1">
 <metadata>
  <rdf:RDF xmlns:dc="http://purl.org/dc/elements/1.1/" xmlns:cc="http://creativecommons.org/ns#" xmlns:rdf="http://www.w3.org/1999/02/22-rdf-syntax-ns#">
   <cc:Work>
    <dc:type rdf:resource="http://purl.org/dc/dcmitype/StillImage"/>
    <dc:date>2024-08-24T00:22:26.063069</dc:date>
    <dc:format>image/svg+xml</dc:format>
    <dc:creator>
     <cc:Agent>
      <dc:title>Matplotlib v3.9.1, https://matplotlib.org/</dc:title>
     </cc:Agent>
    </dc:creator>
   </cc:Work>
  </rdf:RDF>
 </metadata>
 <defs>
  <style type="text/css">*{stroke-linejoin: round; stroke-linecap: butt}</style>
 </defs>
 <g id="figure_1">
  <g id="patch_1">
   <path d="M 0 180 
L 216 180 
L 216 0 
L 0 0 
z
" style="fill: #ffffff"/>
  </g>
  <g id="axes_1">
   <g id="patch_2">
    <path d="M 59.52 129.12 
L 198.454362 129.12 
L 198.454362 26.88 
L 59.52 26.88 
z
" style="fill: #ffffff"/>
   </g>
   <g id="matplotlib.axis_1">
    <g id="xtick_1">
     <g id="line2d_1">
      <defs>
       <path id="m625d9912f7" d="M 0 0 
L 0 3.5 
" style="stroke: #000000; stroke-width: 0.8"/>
      </defs>
      <g>
       <use xlink:href="#m625d9912f7" x="61.540047" y="129.12" style="stroke: #000000; stroke-width: 0.8"/>
      </g>
     </g>
     <g id="text_1">
      <!-- 0 -->
      <g transform="translate(58.358797 143.718437) scale(0.1 -0.1)">
       <defs>
        <path id="DejaVuSans-30" d="M 2034 4250 
Q 1547 4250 1301 3770 
Q 1056 3291 1056 2328 
Q 1056 1369 1301 889 
Q 1547 409 2034 409 
Q 2525 409 2770 889 
Q 3016 1369 3016 2328 
Q 3016 3291 2770 3770 
Q 2525 4250 2034 4250 
z
M 2034 4750 
Q 2819 4750 3233 4129 
Q 3647 3509 3647 2328 
Q 3647 1150 3233 529 
Q 2819 -91 2034 -91 
Q 1250 -91 836 529 
Q 422 1150 422 2328 
Q 422 3509 836 4129 
Q 1250 4750 2034 4750 
z
" transform="scale(0.015625)"/>
       </defs>
       <use xlink:href="#DejaVuSans-30"/>
      </g>
     </g>
    </g>
    <g id="xtick_2">
     <g id="line2d_2">
      <g>
       <use xlink:href="#m625d9912f7" x="128.874956" y="129.12" style="stroke: #000000; stroke-width: 0.8"/>
      </g>
     </g>
     <g id="text_2">
      <!-- 150 -->
      <g transform="translate(119.331206 143.718437) scale(0.1 -0.1)">
       <defs>
        <path id="DejaVuSans-31" d="M 794 531 
L 1825 531 
L 1825 4091 
L 703 3866 
L 703 4441 
L 1819 4666 
L 2450 4666 
L 2450 531 
L 3481 531 
L 3481 0 
L 794 0 
L 794 531 
z
" transform="scale(0.015625)"/>
        <path id="DejaVuSans-35" d="M 691 4666 
L 3169 4666 
L 3169 4134 
L 1269 4134 
L 1269 2991 
Q 1406 3038 1543 3061 
Q 1681 3084 1819 3084 
Q 2600 3084 3056 2656 
Q 3513 2228 3513 1497 
Q 3513 744 3044 326 
Q 2575 -91 1722 -91 
Q 1428 -91 1123 -41 
Q 819 9 494 109 
L 494 744 
Q 775 591 1075 516 
Q 1375 441 1709 441 
Q 2250 441 2565 725 
Q 2881 1009 2881 1497 
Q 2881 1984 2565 2268 
Q 2250 2553 1709 2553 
Q 1456 2553 1204 2497 
Q 953 2441 691 2322 
L 691 4666 
z
" transform="scale(0.015625)"/>
       </defs>
       <use xlink:href="#DejaVuSans-31"/>
       <use xlink:href="#DejaVuSans-35" x="63.623047"/>
       <use xlink:href="#DejaVuSans-30" x="127.246094"/>
      </g>
     </g>
    </g>
    <g id="xtick_3">
     <g id="line2d_3">
      <g>
       <use xlink:href="#m625d9912f7" x="196.209865" y="129.12" style="stroke: #000000; stroke-width: 0.8"/>
      </g>
     </g>
     <g id="text_3">
      <!-- 300 -->
      <g transform="translate(186.666115 143.718437) scale(0.1 -0.1)">
       <defs>
        <path id="DejaVuSans-33" d="M 2597 2516 
Q 3050 2419 3304 2112 
Q 3559 1806 3559 1356 
Q 3559 666 3084 287 
Q 2609 -91 1734 -91 
Q 1441 -91 1130 -33 
Q 819 25 488 141 
L 488 750 
Q 750 597 1062 519 
Q 1375 441 1716 441 
Q 2309 441 2620 675 
Q 2931 909 2931 1356 
Q 2931 1769 2642 2001 
Q 2353 2234 1838 2234 
L 1294 2234 
L 1294 2753 
L 1863 2753 
Q 2328 2753 2575 2939 
Q 2822 3125 2822 3475 
Q 2822 3834 2567 4026 
Q 2313 4219 1838 4219 
Q 1578 4219 1281 4162 
Q 984 4106 628 3988 
L 628 4550 
Q 988 4650 1302 4700 
Q 1616 4750 1894 4750 
Q 2613 4750 3031 4423 
Q 3450 4097 3450 3541 
Q 3450 3153 3228 2886 
Q 3006 2619 2597 2516 
z
" transform="scale(0.015625)"/>
       </defs>
       <use xlink:href="#DejaVuSans-33"/>
       <use xlink:href="#DejaVuSans-30" x="63.623047"/>
       <use xlink:href="#DejaVuSans-30" x="127.246094"/>
      </g>
     </g>
    </g>
    <g id="text_4">
     <!-- Frequency (Hz) -->
     <g transform="translate(91.282493 157.396563) scale(0.1 -0.1)">
      <defs>
       <path id="DejaVuSans-46" d="M 628 4666 
L 3309 4666 
L 3309 4134 
L 1259 4134 
L 1259 2759 
L 3109 2759 
L 3109 2228 
L 1259 2228 
L 1259 0 
L 628 0 
L 628 4666 
z
" transform="scale(0.015625)"/>
       <path id="DejaVuSans-72" d="M 2631 2963 
Q 2534 3019 2420 3045 
Q 2306 3072 2169 3072 
Q 1681 3072 1420 2755 
Q 1159 2438 1159 1844 
L 1159 0 
L 581 0 
L 581 3500 
L 1159 3500 
L 1159 2956 
Q 1341 3275 1631 3429 
Q 1922 3584 2338 3584 
Q 2397 3584 2469 3576 
Q 2541 3569 2628 3553 
L 2631 2963 
z
" transform="scale(0.015625)"/>
       <path id="DejaVuSans-65" d="M 3597 1894 
L 3597 1613 
L 953 1613 
Q 991 1019 1311 708 
Q 1631 397 2203 397 
Q 2534 397 2845 478 
Q 3156 559 3463 722 
L 3463 178 
Q 3153 47 2828 -22 
Q 2503 -91 2169 -91 
Q 1331 -91 842 396 
Q 353 884 353 1716 
Q 353 2575 817 3079 
Q 1281 3584 2069 3584 
Q 2775 3584 3186 3129 
Q 3597 2675 3597 1894 
z
M 3022 2063 
Q 3016 2534 2758 2815 
Q 2500 3097 2075 3097 
Q 1594 3097 1305 2825 
Q 1016 2553 972 2059 
L 3022 2063 
z
" transform="scale(0.015625)"/>
       <path id="DejaVuSans-71" d="M 947 1747 
Q 947 1113 1208 752 
Q 1469 391 1925 391 
Q 2381 391 2643 752 
Q 2906 1113 2906 1747 
Q 2906 2381 2643 2742 
Q 2381 3103 1925 3103 
Q 1469 3103 1208 2742 
Q 947 2381 947 1747 
z
M 2906 525 
Q 2725 213 2448 61 
Q 2172 -91 1784 -91 
Q 1150 -91 751 415 
Q 353 922 353 1747 
Q 353 2572 751 3078 
Q 1150 3584 1784 3584 
Q 2172 3584 2448 3432 
Q 2725 3281 2906 2969 
L 2906 3500 
L 3481 3500 
L 3481 -1331 
L 2906 -1331 
L 2906 525 
z
" transform="scale(0.015625)"/>
       <path id="DejaVuSans-75" d="M 544 1381 
L 544 3500 
L 1119 3500 
L 1119 1403 
Q 1119 906 1312 657 
Q 1506 409 1894 409 
Q 2359 409 2629 706 
Q 2900 1003 2900 1516 
L 2900 3500 
L 3475 3500 
L 3475 0 
L 2900 0 
L 2900 538 
Q 2691 219 2414 64 
Q 2138 -91 1772 -91 
Q 1169 -91 856 284 
Q 544 659 544 1381 
z
M 1991 3584 
L 1991 3584 
z
" transform="scale(0.015625)"/>
       <path id="DejaVuSans-6e" d="M 3513 2113 
L 3513 0 
L 2938 0 
L 2938 2094 
Q 2938 2591 2744 2837 
Q 2550 3084 2163 3084 
Q 1697 3084 1428 2787 
Q 1159 2491 1159 1978 
L 1159 0 
L 581 0 
L 581 3500 
L 1159 3500 
L 1159 2956 
Q 1366 3272 1645 3428 
Q 1925 3584 2291 3584 
Q 2894 3584 3203 3211 
Q 3513 2838 3513 2113 
z
" transform="scale(0.015625)"/>
       <path id="DejaVuSans-63" d="M 3122 3366 
L 3122 2828 
Q 2878 2963 2633 3030 
Q 2388 3097 2138 3097 
Q 1578 3097 1268 2742 
Q 959 2388 959 1747 
Q 959 1106 1268 751 
Q 1578 397 2138 397 
Q 2388 397 2633 464 
Q 2878 531 3122 666 
L 3122 134 
Q 2881 22 2623 -34 
Q 2366 -91 2075 -91 
Q 1284 -91 818 406 
Q 353 903 353 1747 
Q 353 2603 823 3093 
Q 1294 3584 2113 3584 
Q 2378 3584 2631 3529 
Q 2884 3475 3122 3366 
z
" transform="scale(0.015625)"/>
       <path id="DejaVuSans-79" d="M 2059 -325 
Q 1816 -950 1584 -1140 
Q 1353 -1331 966 -1331 
L 506 -1331 
L 506 -850 
L 844 -850 
Q 1081 -850 1212 -737 
Q 1344 -625 1503 -206 
L 1606 56 
L 191 3500 
L 800 3500 
L 1894 763 
L 2988 3500 
L 3597 3500 
L 2059 -325 
z
" transform="scale(0.015625)"/>
       <path id="DejaVuSans-20" transform="scale(0.015625)"/>
       <path id="DejaVuSans-28" d="M 1984 4856 
Q 1566 4138 1362 3434 
Q 1159 2731 1159 2009 
Q 1159 1288 1364 580 
Q 1569 -128 1984 -844 
L 1484 -844 
Q 1016 -109 783 600 
Q 550 1309 550 2009 
Q 550 2706 781 3412 
Q 1013 4119 1484 4856 
L 1984 4856 
z
" transform="scale(0.015625)"/>
       <path id="DejaVuSans-48" d="M 628 4666 
L 1259 4666 
L 1259 2753 
L 3553 2753 
L 3553 4666 
L 4184 4666 
L 4184 0 
L 3553 0 
L 3553 2222 
L 1259 2222 
L 1259 0 
L 628 0 
L 628 4666 
z
" transform="scale(0.015625)"/>
       <path id="DejaVuSans-7a" d="M 353 3500 
L 3084 3500 
L 3084 2975 
L 922 459 
L 3084 459 
L 3084 0 
L 275 0 
L 275 525 
L 2438 3041 
L 353 3041 
L 353 3500 
z
" transform="scale(0.015625)"/>
       <path id="DejaVuSans-29" d="M 513 4856 
L 1013 4856 
Q 1481 4119 1714 3412 
Q 1947 2706 1947 2009 
Q 1947 1309 1714 600 
Q 1481 -109 1013 -844 
L 513 -844 
Q 928 -128 1133 580 
Q 1338 1288 1338 2009 
Q 1338 2731 1133 3434 
Q 928 4138 513 4856 
z
" transform="scale(0.015625)"/>
      </defs>
      <use xlink:href="#DejaVuSans-46"/>
      <use xlink:href="#DejaVuSans-72" x="50.269531"/>
      <use xlink:href="#DejaVuSans-65" x="89.132812"/>
      <use xlink:href="#DejaVuSans-71" x="150.65625"/>
      <use xlink:href="#DejaVuSans-75" x="214.132812"/>
      <use xlink:href="#DejaVuSans-65" x="277.511719"/>
      <use xlink:href="#DejaVuSans-6e" x="339.035156"/>
      <use xlink:href="#DejaVuSans-63" x="402.414062"/>
      <use xlink:href="#DejaVuSans-79" x="457.394531"/>
      <use xlink:href="#DejaVuSans-20" x="516.574219"/>
      <use xlink:href="#DejaVuSans-28" x="548.361328"/>
      <use xlink:href="#DejaVuSans-48" x="587.375"/>
      <use xlink:href="#DejaVuSans-7a" x="662.570312"/>
      <use xlink:href="#DejaVuSans-29" x="715.060547"/>
     </g>
    </g>
   </g>
   <g id="matplotlib.axis_2">
    <g id="ytick_1">
     <g id="line2d_4">
      <defs>
       <path id="m0d78316193" d="M 0 0 
L -3.5 0 
" style="stroke: #000000; stroke-width: 0.8"/>
      </defs>
      <g>
       <use xlink:href="#m0d78316193" x="59.52" y="110.18855" style="stroke: #000000; stroke-width: 0.8"/>
      </g>
     </g>
     <g id="text_5">
      <!-- $\mathdefault{10^{-3}}$ -->
      <g transform="translate(29.02 113.987769) scale(0.1 -0.1)">
       <defs>
        <path id="DejaVuSans-2212" d="M 678 2272 
L 4684 2272 
L 4684 1741 
L 678 1741 
L 678 2272 
z
" transform="scale(0.015625)"/>
       </defs>
       <use xlink:href="#DejaVuSans-31" transform="translate(0 0.765625)"/>
       <use xlink:href="#DejaVuSans-30" transform="translate(63.623047 0.765625)"/>
       <use xlink:href="#DejaVuSans-2212" transform="translate(128.203125 39.046875) scale(0.7)"/>
       <use xlink:href="#DejaVuSans-33" transform="translate(186.855469 39.046875) scale(0.7)"/>
      </g>
     </g>
    </g>
    <g id="ytick_2">
     <g id="line2d_5">
      <g>
       <use xlink:href="#m0d78316193" x="59.52" y="83.19787" style="stroke: #000000; stroke-width: 0.8"/>
      </g>
     </g>
     <g id="text_6">
      <!-- $\mathdefault{10^{0}}$ -->
      <g transform="translate(34.92 86.997089) scale(0.1 -0.1)">
       <use xlink:href="#DejaVuSans-31" transform="translate(0 0.765625)"/>
       <use xlink:href="#DejaVuSans-30" transform="translate(63.623047 0.765625)"/>
       <use xlink:href="#DejaVuSans-30" transform="translate(128.203125 39.046875) scale(0.7)"/>
      </g>
     </g>
    </g>
    <g id="ytick_3">
     <g id="line2d_6">
      <g>
       <use xlink:href="#m0d78316193" x="59.52" y="56.207191" style="stroke: #000000; stroke-width: 0.8"/>
      </g>
     </g>
     <g id="text_7">
      <!-- $\mathdefault{10^{3}}$ -->
      <g transform="translate(34.92 60.006409) scale(0.1 -0.1)">
       <use xlink:href="#DejaVuSans-31" transform="translate(0 0.765625)"/>
       <use xlink:href="#DejaVuSans-30" transform="translate(63.623047 0.765625)"/>
       <use xlink:href="#DejaVuSans-33" transform="translate(128.203125 39.046875) scale(0.7)"/>
      </g>
     </g>
    </g>
    <g id="ytick_4">
     <g id="line2d_7">
      <g>
       <use xlink:href="#m0d78316193" x="59.52" y="29.216511" style="stroke: #000000; stroke-width: 0.8"/>
      </g>
     </g>
     <g id="text_8">
      <!-- $\mathdefault{10^{6}}$ -->
      <g transform="translate(34.92 33.01573) scale(0.1 -0.1)">
       <defs>
        <path id="DejaVuSans-36" d="M 2113 2584 
Q 1688 2584 1439 2293 
Q 1191 2003 1191 1497 
Q 1191 994 1439 701 
Q 1688 409 2113 409 
Q 2538 409 2786 701 
Q 3034 994 3034 1497 
Q 3034 2003 2786 2293 
Q 2538 2584 2113 2584 
z
M 3366 4563 
L 3366 3988 
Q 3128 4100 2886 4159 
Q 2644 4219 2406 4219 
Q 1781 4219 1451 3797 
Q 1122 3375 1075 2522 
Q 1259 2794 1537 2939 
Q 1816 3084 2150 3084 
Q 2853 3084 3261 2657 
Q 3669 2231 3669 1497 
Q 3669 778 3244 343 
Q 2819 -91 2113 -91 
Q 1303 -91 875 529 
Q 447 1150 447 2328 
Q 447 3434 972 4092 
Q 1497 4750 2381 4750 
Q 2619 4750 2861 4703 
Q 3103 4656 3366 4563 
z
" transform="scale(0.015625)"/>
       </defs>
       <use xlink:href="#DejaVuSans-31" transform="translate(0 0.765625)"/>
       <use xlink:href="#DejaVuSans-30" transform="translate(63.623047 0.765625)"/>
       <use xlink:href="#DejaVuSans-36" transform="translate(128.203125 39.046875) scale(0.7)"/>
      </g>
     </g>
    </g>
    <g id="text_9">
     <!-- Log power (dB/Hz) -->
     <g transform="translate(22.940312 124.139844) rotate(-90) scale(0.1 -0.1)">
      <defs>
       <path id="DejaVuSans-4c" d="M 628 4666 
L 1259 4666 
L 1259 531 
L 3531 531 
L 3531 0 
L 628 0 
L 628 4666 
z
" transform="scale(0.015625)"/>
       <path id="DejaVuSans-6f" d="M 1959 3097 
Q 1497 3097 1228 2736 
Q 959 2375 959 1747 
Q 959 1119 1226 758 
Q 1494 397 1959 397 
Q 2419 397 2687 759 
Q 2956 1122 2956 1747 
Q 2956 2369 2687 2733 
Q 2419 3097 1959 3097 
z
M 1959 3584 
Q 2709 3584 3137 3096 
Q 3566 2609 3566 1747 
Q 3566 888 3137 398 
Q 2709 -91 1959 -91 
Q 1206 -91 779 398 
Q 353 888 353 1747 
Q 353 2609 779 3096 
Q 1206 3584 1959 3584 
z
" transform="scale(0.015625)"/>
       <path id="DejaVuSans-67" d="M 2906 1791 
Q 2906 2416 2648 2759 
Q 2391 3103 1925 3103 
Q 1463 3103 1205 2759 
Q 947 2416 947 1791 
Q 947 1169 1205 825 
Q 1463 481 1925 481 
Q 2391 481 2648 825 
Q 2906 1169 2906 1791 
z
M 3481 434 
Q 3481 -459 3084 -895 
Q 2688 -1331 1869 -1331 
Q 1566 -1331 1297 -1286 
Q 1028 -1241 775 -1147 
L 775 -588 
Q 1028 -725 1275 -790 
Q 1522 -856 1778 -856 
Q 2344 -856 2625 -561 
Q 2906 -266 2906 331 
L 2906 616 
Q 2728 306 2450 153 
Q 2172 0 1784 0 
Q 1141 0 747 490 
Q 353 981 353 1791 
Q 353 2603 747 3093 
Q 1141 3584 1784 3584 
Q 2172 3584 2450 3431 
Q 2728 3278 2906 2969 
L 2906 3500 
L 3481 3500 
L 3481 434 
z
" transform="scale(0.015625)"/>
       <path id="DejaVuSans-70" d="M 1159 525 
L 1159 -1331 
L 581 -1331 
L 581 3500 
L 1159 3500 
L 1159 2969 
Q 1341 3281 1617 3432 
Q 1894 3584 2278 3584 
Q 2916 3584 3314 3078 
Q 3713 2572 3713 1747 
Q 3713 922 3314 415 
Q 2916 -91 2278 -91 
Q 1894 -91 1617 61 
Q 1341 213 1159 525 
z
M 3116 1747 
Q 3116 2381 2855 2742 
Q 2594 3103 2138 3103 
Q 1681 3103 1420 2742 
Q 1159 2381 1159 1747 
Q 1159 1113 1420 752 
Q 1681 391 2138 391 
Q 2594 391 2855 752 
Q 3116 1113 3116 1747 
z
" transform="scale(0.015625)"/>
       <path id="DejaVuSans-77" d="M 269 3500 
L 844 3500 
L 1563 769 
L 2278 3500 
L 2956 3500 
L 3675 769 
L 4391 3500 
L 4966 3500 
L 4050 0 
L 3372 0 
L 2619 2869 
L 1863 0 
L 1184 0 
L 269 3500 
z
" transform="scale(0.015625)"/>
       <path id="DejaVuSans-64" d="M 2906 2969 
L 2906 4863 
L 3481 4863 
L 3481 0 
L 2906 0 
L 2906 525 
Q 2725 213 2448 61 
Q 2172 -91 1784 -91 
Q 1150 -91 751 415 
Q 353 922 353 1747 
Q 353 2572 751 3078 
Q 1150 3584 1784 3584 
Q 2172 3584 2448 3432 
Q 2725 3281 2906 2969 
z
M 947 1747 
Q 947 1113 1208 752 
Q 1469 391 1925 391 
Q 2381 391 2643 752 
Q 2906 1113 2906 1747 
Q 2906 2381 2643 2742 
Q 2381 3103 1925 3103 
Q 1469 3103 1208 2742 
Q 947 2381 947 1747 
z
" transform="scale(0.015625)"/>
       <path id="DejaVuSans-42" d="M 1259 2228 
L 1259 519 
L 2272 519 
Q 2781 519 3026 730 
Q 3272 941 3272 1375 
Q 3272 1813 3026 2020 
Q 2781 2228 2272 2228 
L 1259 2228 
z
M 1259 4147 
L 1259 2741 
L 2194 2741 
Q 2656 2741 2882 2914 
Q 3109 3088 3109 3444 
Q 3109 3797 2882 3972 
Q 2656 4147 2194 4147 
L 1259 4147 
z
M 628 4666 
L 2241 4666 
Q 2963 4666 3353 4366 
Q 3744 4066 3744 3513 
Q 3744 3084 3544 2831 
Q 3344 2578 2956 2516 
Q 3422 2416 3680 2098 
Q 3938 1781 3938 1306 
Q 3938 681 3513 340 
Q 3088 0 2303 0 
L 628 0 
L 628 4666 
z
" transform="scale(0.015625)"/>
       <path id="DejaVuSans-2f" d="M 1625 4666 
L 2156 4666 
L 531 -594 
L 0 -594 
L 1625 4666 
z
" transform="scale(0.015625)"/>
      </defs>
      <use xlink:href="#DejaVuSans-4c"/>
      <use xlink:href="#DejaVuSans-6f" x="53.962891"/>
      <use xlink:href="#DejaVuSans-67" x="115.144531"/>
      <use xlink:href="#DejaVuSans-20" x="178.621094"/>
      <use xlink:href="#DejaVuSans-70" x="210.408203"/>
      <use xlink:href="#DejaVuSans-6f" x="273.884766"/>
      <use xlink:href="#DejaVuSans-77" x="335.066406"/>
      <use xlink:href="#DejaVuSans-65" x="416.853516"/>
      <use xlink:href="#DejaVuSans-72" x="478.376953"/>
      <use xlink:href="#DejaVuSans-20" x="519.490234"/>
      <use xlink:href="#DejaVuSans-28" x="551.277344"/>
      <use xlink:href="#DejaVuSans-64" x="590.291016"/>
      <use xlink:href="#DejaVuSans-42" x="653.767578"/>
      <use xlink:href="#DejaVuSans-2f" x="722.371094"/>
      <use xlink:href="#DejaVuSans-48" x="756.0625"/>
      <use xlink:href="#DejaVuSans-7a" x="831.257812"/>
      <use xlink:href="#DejaVuSans-29" x="883.748047"/>
     </g>
    </g>
   </g>
   <g id="line2d_8">
    <path d="M 61.764497 71.08185 
L 61.988947 76.66178 
L 62.213396 68.286266 
L 62.437846 65.669432 
L 62.662296 71.569446 
L 62.886745 70.422635 
L 63.111195 62.645328 
L 63.335645 73.782317 
L 63.560095 71.032297 
L 64.008994 68.224836 
L 64.233444 74.082299 
L 64.457893 71.516055 
L 64.682343 65.458421 
L 64.906793 75.102636 
L 65.131242 66.438605 
L 65.580142 67.839774 
L 65.804591 75.842092 
L 66.029041 67.609636 
L 66.253491 65.302237 
L 66.477941 67.626262 
L 66.70239 68.067366 
L 66.92684 63.679104 
L 67.15129 76.147777 
L 67.375739 75.540146 
L 67.600189 69.521733 
L 67.824639 74.620943 
L 68.049088 74.788202 
L 68.273538 72.680505 
L 68.722438 70.484127 
L 68.946887 62.379372 
L 69.171337 71.120788 
L 69.395787 71.072242 
L 69.620236 63.710876 
L 69.844686 77.084752 
L 70.293585 69.039004 
L 70.518035 68.231421 
L 70.742485 80.221163 
L 70.966935 63.91743 
L 71.191384 67.323407 
L 71.415834 82.919907 
L 71.640284 57.288071 
L 71.864733 68.593001 
L 72.089183 73.718256 
L 72.313633 70.664264 
L 72.538082 82.080593 
L 72.762532 77.022282 
L 72.986982 68.526326 
L 73.211431 69.082183 
L 73.435881 69.191955 
L 73.660331 77.729466 
L 73.884781 79.927218 
L 74.10923 66.804848 
L 74.33368 62.432987 
L 74.55813 77.754008 
L 74.782579 79.217965 
L 75.231479 69.681364 
L 75.455928 77.069435 
L 75.680378 64.508118 
L 75.904828 75.161716 
L 76.129278 73.085596 
L 76.353727 75.726594 
L 76.578177 66.955131 
L 77.027076 73.399658 
L 77.251526 65.738233 
L 77.475976 65.136047 
L 77.700425 73.971927 
L 77.924875 66.646879 
L 78.373774 73.384479 
L 78.598224 63.87999 
L 79.047124 72.073409 
L 79.271573 68.534591 
L 79.496023 76.125928 
L 79.720473 90.343069 
L 79.944922 71.511839 
L 80.169372 63.754958 
L 80.393822 67.288272 
L 80.842721 80.621708 
L 81.067171 67.658142 
L 81.291621 71.901824 
L 81.51607 67.122883 
L 81.74052 76.402912 
L 81.96497 69.352004 
L 82.189419 67.299356 
L 82.413869 67.403292 
L 82.638319 70.107482 
L 82.862768 70.384475 
L 83.087218 72.071647 
L 83.536117 67.460096 
L 83.760567 68.040443 
L 84.209467 73.196831 
L 84.433916 78.899413 
L 84.658366 71.377341 
L 84.882816 73.834847 
L 85.107265 65.66743 
L 85.331715 67.328839 
L 85.556165 77.464669 
L 85.780614 70.729838 
L 86.005064 78.155786 
L 86.229514 68.241742 
L 86.453964 67.339292 
L 86.678413 69.214475 
L 86.902863 67.843439 
L 87.127313 64.180561 
L 87.351762 73.720489 
L 87.576212 77.757646 
L 87.800662 67.630291 
L 88.025111 66.029148 
L 88.249561 67.80813 
L 88.474011 72.093787 
L 88.69846 63.970528 
L 89.14736 72.484543 
L 89.37181 72.422061 
L 89.596259 70.40385 
L 89.820709 72.928985 
L 90.045159 71.693912 
L 90.494058 63.804909 
L 90.718508 72.852214 
L 91.167407 65.565807 
L 91.391857 67.293484 
L 91.616307 77.466756 
L 91.840756 76.764148 
L 92.065206 63.935286 
L 92.289656 68.178014 
L 92.514105 68.267977 
L 92.738555 65.597395 
L 92.963005 69.276002 
L 93.187454 80.207789 
L 93.411904 70.616966 
L 93.636354 81.867532 
L 93.860804 65.995254 
L 94.085253 64.450074 
L 94.309703 75.834871 
L 94.534153 71.397331 
L 94.758602 75.517317 
L 94.983052 73.634663 
L 95.431951 65.843222 
L 95.656401 67.776798 
L 95.880851 68.216354 
L 96.1053 70.443676 
L 96.32975 71.210032 
L 96.5542 67.712699 
L 96.77865 66.82863 
L 97.003099 65.102838 
L 97.227549 68.14086 
L 97.451999 76.007831 
L 97.676448 64.992754 
L 97.900898 70.824706 
L 98.125348 66.416925 
L 98.349797 76.893868 
L 98.798697 65.070482 
L 99.023147 61.223956 
L 99.247596 68.388337 
L 99.472046 79.965967 
L 99.920945 67.272819 
L 100.145395 67.373085 
L 100.369845 67.120494 
L 100.594294 60.873881 
L 100.818744 69.523526 
L 101.043194 70.299406 
L 101.267643 64.168295 
L 101.492093 72.276071 
L 101.716543 64.125105 
L 101.940993 64.747258 
L 102.165442 74.248328 
L 102.389892 65.127333 
L 102.614342 64.820637 
L 102.838791 65.770251 
L 103.287691 70.398134 
L 103.51214 62.142595 
L 103.73659 81.401113 
L 103.96104 67.370838 
L 104.18549 70.421135 
L 104.409939 77.419333 
L 104.858839 60.809064 
L 105.083288 65.253923 
L 105.307738 72.795641 
L 105.756637 64.717185 
L 105.981087 65.385966 
L 106.205537 68.802983 
L 106.429986 74.609603 
L 106.654436 73.376008 
L 106.878886 69.150284 
L 107.103336 72.146695 
L 107.327785 67.348512 
L 108.001134 69.758034 
L 108.225584 64.085001 
L 108.450034 76.6783 
L 108.674483 63.162458 
L 108.898933 66.042048 
L 109.123383 74.256338 
L 109.347833 74.08801 
L 109.572282 63.049025 
L 109.796732 65.1431 
L 110.021182 70.61071 
L 110.245631 61.177549 
L 110.694531 77.000904 
L 110.91898 64.753556 
L 111.36788 76.110499 
L 111.592329 65.32651 
L 111.816779 70.609422 
L 112.041229 79.81499 
L 112.265679 64.958426 
L 112.490128 65.572977 
L 112.714578 67.518891 
L 112.939028 67.118849 
L 113.163477 62.46498 
L 113.612377 72.354409 
L 113.836826 65.743487 
L 114.061276 62.553005 
L 114.285726 76.408616 
L 114.510176 68.386748 
L 114.734625 68.491136 
L 114.959075 64.697941 
L 115.407974 72.834243 
L 115.632424 67.880498 
L 115.856874 76.073858 
L 116.081323 65.441799 
L 116.530223 79.926211 
L 116.754673 69.090205 
L 116.979122 70.679423 
L 117.203572 67.343787 
L 117.428022 81.800228 
L 117.652471 31.527273 
L 117.876921 80.560146 
L 118.101371 67.178209 
L 118.32582 70.750817 
L 118.55027 69.127179 
L 118.77472 80.458797 
L 119.223619 65.927505 
L 119.448069 75.816063 
L 119.672519 68.458706 
L 119.896968 73.663767 
L 120.345868 65.503724 
L 120.570317 68.778811 
L 120.794767 69.513133 
L 121.019217 76.516014 
L 121.243666 63.359864 
L 121.468116 66.607117 
L 121.692566 73.010761 
L 122.141465 63.52118 
L 122.365915 67.81045 
L 122.590365 68.934712 
L 122.814814 66.975387 
L 123.039264 66.354976 
L 123.263714 82.707334 
L 123.712613 66.679998 
L 123.937063 78.286777 
L 124.385962 66.217748 
L 124.610412 78.397004 
L 124.834862 72.504607 
L 125.059311 63.164338 
L 125.283761 72.477122 
L 125.508211 66.86381 
L 125.73266 65.334655 
L 125.95711 76.860124 
L 126.18156 76.423972 
L 126.406009 67.874508 
L 126.630459 65.155379 
L 126.854909 78.760657 
L 127.079359 66.213172 
L 127.303808 73.295404 
L 127.752708 70.054723 
L 127.977157 70.067844 
L 128.201607 74.831161 
L 128.426057 71.818139 
L 128.650506 76.196287 
L 128.874956 76.896627 
L 129.323855 68.548211 
L 129.548305 67.47292 
L 129.997205 75.260095 
L 130.446104 63.995428 
L 130.895003 82.331197 
L 131.119453 73.832145 
L 131.343903 70.805573 
L 131.568352 84.026958 
L 131.792802 65.661639 
L 132.017252 73.772104 
L 132.466151 69.157243 
L 132.690601 68.131694 
L 132.915051 68.60265 
L 133.1395 77.411667 
L 133.36395 68.495338 
L 133.5884 67.594425 
L 133.812849 74.522053 
L 134.037299 68.835289 
L 134.261749 74.301289 
L 134.486198 73.588094 
L 134.710648 65.267208 
L 134.935098 71.913141 
L 135.159548 72.425803 
L 135.383997 71.568887 
L 135.832897 85.084734 
L 136.281796 65.842855 
L 136.730695 75.128399 
L 136.955145 82.237597 
L 137.179595 71.469579 
L 137.404045 75.367151 
L 137.628494 69.9649 
L 137.852944 79.240984 
L 138.077394 73.445038 
L 138.301843 70.969003 
L 138.750743 73.429468 
L 138.975192 77.925854 
L 139.424092 73.733781 
L 139.648542 73.359117 
L 139.872991 72.668407 
L 140.54634 82.89909 
L 140.77079 76.705929 
L 140.99524 83.075008 
L 141.219689 70.503789 
L 141.444139 71.780702 
L 141.668589 85.269792 
L 141.893038 76.325291 
L 142.117488 85.346065 
L 142.341938 75.195773 
L 142.566388 72.198039 
L 142.790837 74.768341 
L 143.015287 74.357477 
L 143.239737 69.912054 
L 143.464186 81.976181 
L 143.688636 83.59884 
L 143.913086 72.81834 
L 144.137535 73.260485 
L 144.361985 74.973992 
L 144.586435 78.757687 
L 144.810885 71.078996 
L 145.259784 78.101929 
L 145.484234 81.131592 
L 145.708683 78.677593 
L 145.933133 79.97803 
L 146.157583 78.81545 
L 146.382032 76.163183 
L 146.606482 71.684385 
L 146.830932 79.991562 
L 147.055381 75.679194 
L 147.279831 74.184619 
L 147.504281 74.567055 
L 147.728731 84.82652 
L 147.95318 82.546573 
L 148.17763 71.894636 
L 148.40208 76.168079 
L 148.626529 76.845501 
L 148.850979 74.303801 
L 149.075429 77.604842 
L 149.299878 87.932909 
L 149.524328 78.646975 
L 149.748778 87.474875 
L 149.973228 74.737419 
L 150.197677 73.52271 
L 150.422127 84.956836 
L 150.646577 79.817422 
L 150.871026 87.163389 
L 151.095476 84.695414 
L 151.319926 79.326869 
L 151.544375 76.61937 
L 151.768825 76.868362 
L 151.993275 77.894303 
L 152.217724 80.396447 
L 152.442174 81.318686 
L 152.666624 78.073554 
L 152.891074 76.535821 
L 153.115523 75.937291 
L 153.339973 78.317779 
L 153.564423 83.362303 
L 153.788872 75.38162 
L 154.013322 80.418173 
L 154.237772 76.615307 
L 154.462221 85.987287 
L 155.135571 71.41325 
L 155.58447 88.779848 
L 156.033369 78.010379 
L 156.482269 78.29068 
L 156.706718 71.247761 
L 156.931168 79.993024 
L 157.155618 81.358173 
L 157.380067 75.055254 
L 157.604517 81.075727 
L 157.828967 74.26606 
L 158.053417 75.46079 
L 158.277866 83.810598 
L 158.502316 75.396339 
L 158.726766 74.957363 
L 159.175665 77.747885 
L 159.400115 80.647769 
L 159.624564 72.874545 
L 159.849014 90.424837 
L 160.073464 77.723128 
L 160.297914 81.011928 
L 160.522363 86.606539 
L 160.971263 71.096595 
L 161.420162 82.047618 
L 161.644612 79.962172 
L 161.869061 74.968948 
L 162.093511 75.722541 
L 162.317961 78.90846 
L 162.542411 84.801407 
L 162.76686 83.445952 
L 162.99131 80.076578 
L 163.21576 82.290714 
L 163.440209 77.599751 
L 163.664659 77.718531 
L 163.889109 79.287788 
L 164.113558 80.052626 
L 164.338008 74.00232 
L 164.562458 87.490559 
L 164.786907 73.015462 
L 165.011357 75.849665 
L 165.235807 84.554773 
L 165.460257 84.232486 
L 165.684706 72.903779 
L 165.909156 74.908327 
L 166.133606 80.006803 
L 166.358055 70.715311 
L 166.806955 85.844887 
L 167.031404 74.033098 
L 167.480304 85.815589 
L 167.704754 74.438656 
L 167.929203 80.131863 
L 168.153653 89.69337 
L 168.378103 74.138706 
L 168.602552 74.79628 
L 168.827002 76.436895 
L 169.051452 76.077203 
L 169.275901 71.465855 
L 169.724801 82.123024 
L 169.94925 74.942848 
L 170.1737 71.733188 
L 170.39815 84.406304 
L 170.6226 77.613147 
L 170.847049 76.963053 
L 171.071499 73.574346 
L 171.520398 81.111159 
L 171.744848 76.385477 
L 171.969298 83.057557 
L 172.193747 73.989644 
L 172.642647 88.221655 
L 172.867097 77.267677 
L 173.091546 78.530328 
L 173.315996 75.688333 
L 173.540446 88.910325 
L 173.764895 39.713465 
L 173.989345 88.910468 
L 174.213795 75.456007 
L 174.438244 78.167157 
L 174.662694 76.794298 
L 174.887144 89.565596 
L 175.336043 73.754822 
L 175.560493 84.398285 
L 175.784943 76.250103 
L 176.009392 80.434363 
L 176.458292 73.060675 
L 176.682741 76.492182 
L 176.907191 77.222718 
L 177.131641 84.119769 
L 177.35609 71.001622 
L 177.58054 74.269278 
L 177.80499 80.742498 
L 178.253889 70.925961 
L 178.478339 75.536131 
L 178.702789 76.270087 
L 178.927238 74.208464 
L 179.151688 73.40419 
L 179.376138 88.929787 
L 179.825037 73.701425 
L 180.049487 84.342232 
L 180.498386 73.291598 
L 180.722836 86.189109 
L 181.171735 69.672617 
L 181.396185 79.632935 
L 181.620635 73.965865 
L 181.845084 71.925697 
L 182.069534 83.775628 
L 182.293984 83.71762 
L 182.518433 74.630332 
L 182.742883 71.830073 
L 182.967333 86.190672 
L 183.191783 72.853254 
L 183.416232 79.283653 
L 184.089581 76.672395 
L 184.314031 81.43653 
L 184.538481 78.184586 
L 184.76293 82.389053 
L 184.98738 83.332323 
L 185.43628 74.742935 
L 185.660729 73.726893 
L 186.109629 81.500174 
L 186.558528 70.105948 
L 187.007427 86.221584 
L 187.231877 79.378799 
L 187.456327 76.687665 
L 187.680776 89.410042 
L 187.905226 71.616615 
L 188.129676 79.20405 
L 188.803025 73.992066 
L 189.027475 74.661955 
L 189.251924 82.627766 
L 189.476374 74.621816 
L 189.700824 73.299599 
L 189.925273 80.525575 
L 190.149723 74.21066 
L 190.374173 80.287478 
L 190.598623 79.438227 
L 190.823072 70.796887 
L 191.047522 77.638312 
L 191.271972 77.276393 
L 191.496421 77.464672 
L 191.945321 89.781488 
L 192.39422 71.330821 
L 192.843119 80.340961 
L 193.067569 86.591245 
L 193.292019 76.668818 
L 193.516469 80.931112 
L 193.740918 75.415624 
L 193.965368 83.671034 
L 194.189818 78.455635 
L 194.414267 76.351011 
L 194.863167 78.576965 
L 195.087616 82.021881 
L 195.312066 80.973651 
L 195.536516 78.863964 
L 195.760966 78.371002 
L 195.985415 77.400271 
L 195.985415 77.400271 
" clip-path="url(#pa549629568)" style="fill: none; stroke: #808080; stroke-width: 0.8; stroke-linecap: square"/>
   </g>
   <g id="line2d_9">
    <path d="M 61.764497 72.53593 
L 62.213396 68.438456 
L 62.437846 69.308012 
L 62.662296 71.310084 
L 62.886745 71.48579 
L 63.111195 65.689055 
L 63.335645 77.191715 
L 63.560095 68.852273 
L 63.784544 73.689318 
L 64.008994 66.835094 
L 64.233444 73.069293 
L 64.457893 67.992121 
L 64.682343 68.754404 
L 64.906793 77.475652 
L 65.131242 69.615596 
L 65.355692 73.735407 
L 65.580142 69.805699 
L 65.804591 73.80421 
L 66.029041 80.976243 
L 66.253491 67.712356 
L 66.477941 74.139512 
L 66.70239 75.312001 
L 66.92684 68.626189 
L 67.15129 78.802891 
L 67.375739 78.985602 
L 67.600189 95.481089 
L 67.824639 74.46591 
L 68.049088 78.880479 
L 68.497988 74.127136 
L 68.722438 76.14774 
L 68.946887 71.219433 
L 69.171337 73.530267 
L 69.395787 77.007965 
L 69.620236 71.160107 
L 69.844686 79.66767 
L 70.069136 78.530776 
L 70.293585 85.756629 
L 70.518035 73.31716 
L 70.742485 90.879 
L 70.966935 69.987147 
L 71.415834 71.444435 
L 71.640284 56.47165 
L 71.864733 75.433792 
L 72.089183 81.94515 
L 72.313633 81.214518 
L 72.538082 81.654148 
L 72.762532 73.840935 
L 72.986982 75.314187 
L 73.211431 85.338846 
L 73.435881 80.310292 
L 73.660331 78.438145 
L 73.884781 78.885751 
L 74.10923 78.901844 
L 74.33368 74.78445 
L 74.55813 79.77805 
L 74.782579 81.941085 
L 75.007029 73.959848 
L 75.231479 86.91971 
L 75.455928 81.186795 
L 75.680378 82.118588 
L 75.904828 83.621041 
L 76.353727 72.57739 
L 76.578177 89.724845 
L 76.802627 78.566434 
L 77.027076 80.135249 
L 77.475976 75.577896 
L 77.700425 79.994568 
L 77.924875 80.35759 
L 78.149325 77.517268 
L 78.373774 84.259451 
L 78.822674 78.573742 
L 79.047124 79.216714 
L 79.271573 82.593523 
L 79.496023 81.481997 
L 79.720473 79.73824 
L 80.169372 85.819686 
L 80.393822 79.263672 
L 80.618271 91.851944 
L 80.842721 88.974152 
L 81.067171 81.642746 
L 81.291621 84.56418 
L 81.74052 85.709159 
L 81.96497 86.536867 
L 82.189419 96.796559 
L 82.413869 79.764652 
L 82.638319 91.682872 
L 82.862768 78.137075 
L 83.311668 86.652108 
L 83.536117 81.461097 
L 83.760567 90.515714 
L 83.985017 83.331612 
L 84.209467 82.416366 
L 84.433916 101.06332 
L 84.882816 77.931129 
L 85.107265 88.17743 
L 85.331715 83.690743 
L 85.556165 82.846292 
L 85.780614 84.53776 
L 86.005064 87.36645 
L 86.229514 82.499232 
L 86.453964 84.9607 
L 86.678413 93.659679 
L 86.902863 84.476067 
L 87.127313 91.287817 
L 87.351762 83.495014 
L 87.576212 91.983005 
L 87.800662 80.547006 
L 88.025111 85.346969 
L 88.249561 85.737234 
L 88.474011 91.144783 
L 88.69846 86.844884 
L 88.92291 91.438452 
L 89.14736 85.627133 
L 89.37181 90.63195 
L 89.596259 86.462752 
L 89.820709 99.789787 
L 90.045159 84.630345 
L 90.494058 90.413211 
L 90.718508 82.647966 
L 90.942957 83.962523 
L 91.391857 83.841091 
L 91.616307 90.253223 
L 91.840756 93.027318 
L 92.065206 85.976501 
L 92.514105 93.707571 
L 92.738555 91.782069 
L 92.963005 88.064801 
L 93.187454 98.225387 
L 93.411904 88.342238 
L 93.636354 89.545671 
L 93.860804 82.771768 
L 94.085253 89.51339 
L 94.309703 88.786843 
L 94.534153 92.528811 
L 94.758602 85.596759 
L 94.983052 89.069986 
L 95.207502 89.674121 
L 95.431951 82.963492 
L 95.656401 88.203323 
L 95.880851 103.688008 
L 96.1053 86.624204 
L 96.32975 91.042246 
L 96.5542 88.675574 
L 96.77865 89.480143 
L 97.003099 81.000586 
L 97.227549 95.681261 
L 97.451999 84.008015 
L 97.676448 84.203535 
L 97.900898 101.200577 
L 98.125348 104.301061 
L 98.349797 97.391956 
L 98.798697 90.646574 
L 99.023147 92.402969 
L 99.247596 90.070855 
L 99.472046 85.474041 
L 99.696496 95.281286 
L 99.920945 87.497894 
L 100.145395 92.969698 
L 100.369845 86.012443 
L 100.594294 101.432604 
L 100.818744 91.66551 
L 101.043194 93.718777 
L 101.492093 82.89377 
L 101.940993 89.812977 
L 102.165442 92.487226 
L 102.389892 93.218447 
L 102.614342 88.561619 
L 102.838791 101.420207 
L 103.063241 90.434854 
L 103.287691 87.478952 
L 103.51214 99.234734 
L 103.73659 91.526344 
L 103.96104 112.624154 
L 104.18549 95.962856 
L 104.409939 88.058791 
L 104.634389 105.57707 
L 104.858839 99.253564 
L 105.083288 105.254505 
L 105.307738 94.59385 
L 105.532188 95.820191 
L 105.756637 88.093238 
L 105.981087 91.61308 
L 106.205537 92.8262 
L 106.429986 95.498848 
L 106.654436 86.971161 
L 106.878886 101.266575 
L 107.103336 104.461917 
L 107.327785 94.215098 
L 107.552235 91.446503 
L 107.776685 95.496976 
L 108.001134 86.724766 
L 108.225584 85.583448 
L 108.450034 97.391108 
L 108.674483 90.909051 
L 109.123383 95.075351 
L 109.347833 92.184117 
L 109.572282 87.835842 
L 109.796732 94.350666 
L 110.021182 93.919783 
L 110.245631 92.462378 
L 110.470081 102.23535 
L 110.694531 103.669929 
L 110.91898 93.332133 
L 111.14343 106.449867 
L 111.592329 85.849352 
L 111.816779 99.498003 
L 112.041229 94.892516 
L 112.265679 104.14396 
L 112.714578 94.20648 
L 112.939028 94.749602 
L 113.163477 107.153968 
L 113.387927 90.187439 
L 113.612377 96.293223 
L 113.836826 98.227846 
L 114.061276 93.436067 
L 114.285726 95.67374 
L 114.510176 89.280282 
L 114.734625 91.141713 
L 114.959075 96.482105 
L 115.183525 87.980602 
L 115.407974 90.707782 
L 115.632424 103.771514 
L 115.856874 95.368976 
L 116.081323 91.930738 
L 116.305773 106.087476 
L 116.530223 94.652882 
L 116.754673 93.374664 
L 116.979122 91.216276 
L 117.203572 110.103921 
L 117.428022 92.756359 
L 117.876921 97.283531 
L 118.101371 91.914383 
L 118.32582 93.626892 
L 118.55027 92.216279 
L 118.77472 96.249669 
L 118.999169 90.519271 
L 119.223619 96.768037 
L 119.448069 95.227295 
L 119.672519 104.897975 
L 119.896968 95.549701 
L 120.121418 91.313504 
L 120.345868 99.40289 
L 120.570317 100.985093 
L 120.794767 98.655047 
L 121.019217 91.21777 
L 121.243666 89.28839 
L 121.468116 95.773856 
L 121.692566 98.39078 
L 121.917016 91.635459 
L 122.141465 104.107804 
L 122.365915 91.324414 
L 122.590365 95.267524 
L 122.814814 95.81023 
L 123.039264 98.802365 
L 123.263714 96.656391 
L 123.488163 98.910771 
L 123.712613 98.571793 
L 123.937063 99.452752 
L 124.161512 106.863936 
L 124.385962 104.981814 
L 124.610412 104.928163 
L 125.059311 88.421569 
L 125.283761 95.043568 
L 125.508211 96.162411 
L 125.73266 96.270143 
L 125.95711 101.826139 
L 126.18156 94.268755 
L 126.406009 99.542824 
L 126.630459 116.499162 
L 126.854909 103.913416 
L 127.303808 95.447995 
L 127.528258 102.460012 
L 127.752708 97.348501 
L 127.977157 94.954106 
L 128.426057 110.788698 
L 128.650506 94.374312 
L 128.874956 99.188365 
L 129.099406 106.7477 
L 129.323855 105.59574 
L 129.772755 102.118862 
L 129.997205 93.10667 
L 130.221654 97.884346 
L 130.446104 94.317766 
L 130.670554 99.560743 
L 130.895003 90.434379 
L 131.343903 104.882122 
L 131.568352 106.122301 
L 131.792802 104.275097 
L 132.017252 95.358176 
L 132.241702 105.038954 
L 132.466151 93.795461 
L 132.690601 96.653696 
L 132.915051 96.635434 
L 133.1395 107.699445 
L 133.36395 97.428535 
L 133.5884 100.657075 
L 134.037299 94.162648 
L 134.486198 107.610848 
L 134.710648 94.8511 
L 134.935098 108.680743 
L 135.159548 92.445694 
L 135.383997 96.585917 
L 135.608447 96.836863 
L 135.832897 93.94126 
L 136.057346 109.86516 
L 136.281796 100.822691 
L 136.506246 103.11051 
L 136.730695 97.839705 
L 136.955145 97.382936 
L 137.179595 108.50113 
L 137.404045 94.750755 
L 137.628494 107.979001 
L 138.077394 93.251703 
L 138.301843 103.393622 
L 138.526293 98.044115 
L 138.750743 107.106976 
L 138.975192 93.737156 
L 139.199642 99.634596 
L 139.424092 110.871418 
L 139.648542 100.076845 
L 139.872991 95.119637 
L 140.097441 100.875743 
L 140.321891 95.923723 
L 140.54634 100.49078 
L 140.77079 97.955854 
L 140.99524 97.728433 
L 141.219689 97.697954 
L 141.444139 99.714981 
L 141.668589 97.245082 
L 141.893038 109.757369 
L 142.117488 95.790714 
L 142.566388 111.5637 
L 143.015287 106.524177 
L 143.239737 100.927868 
L 143.464186 100.403111 
L 143.688636 102.773845 
L 143.913086 96.915463 
L 144.137535 97.330169 
L 144.361985 102.52088 
L 144.586435 96.231503 
L 144.810885 98.212953 
L 145.035334 97.722612 
L 145.259784 99.495034 
L 145.484234 95.612079 
L 145.933133 101.485032 
L 146.157583 110.359451 
L 146.382032 102.346026 
L 146.606482 100.952263 
L 146.830932 101.653847 
L 147.279831 109.505128 
L 147.504281 102.924094 
L 147.728731 113.158118 
L 147.95318 96.315017 
L 148.17763 96.684449 
L 148.40208 97.526935 
L 148.850979 106.803066 
L 149.299878 105.380947 
L 149.524328 98.863716 
L 149.748778 98.652365 
L 149.973228 99.018696 
L 150.197677 98.651807 
L 150.422127 95.771275 
L 150.871026 112.916316 
L 151.095476 97.034582 
L 151.319926 98.970078 
L 151.544375 97.813966 
L 151.768825 105.168286 
L 151.993275 106.724491 
L 152.217724 97.756553 
L 152.442174 101.078549 
L 152.666624 97.565221 
L 152.891074 99.419899 
L 153.115523 103.320004 
L 153.339973 100.358534 
L 153.564423 108.34944 
L 153.788872 99.132833 
L 154.013322 101.096427 
L 154.237772 98.65819 
L 154.462221 100.360475 
L 154.686671 111.140771 
L 154.911121 106.036761 
L 155.135571 103.95411 
L 155.36002 106.621269 
L 155.58447 111.062601 
L 155.80892 99.876033 
L 156.033369 105.715947 
L 156.257819 102.33799 
L 156.482269 102.187838 
L 156.706718 104.308173 
L 156.931168 110.981268 
L 157.155618 104.121414 
L 157.380067 113.463128 
L 157.828967 99.566253 
L 158.277866 110.155814 
L 158.502316 106.889295 
L 158.951215 98.677473 
L 159.400115 104.593154 
L 159.624564 97.792541 
L 159.849014 108.647961 
L 160.073464 108.820832 
L 160.297914 105.956461 
L 160.522363 106.41903 
L 160.746813 97.604448 
L 161.195712 106.088393 
L 161.420162 101.399497 
L 161.644612 103.826374 
L 161.869061 104.678131 
L 162.093511 101.983149 
L 162.317961 100.635547 
L 162.76686 108.982282 
L 162.99131 97.879017 
L 163.21576 114.539338 
L 163.440209 113.557525 
L 163.889109 101.45668 
L 164.113558 102.56621 
L 164.338008 109.809182 
L 164.786907 100.890482 
L 165.011357 102.237503 
L 165.235807 110.809618 
L 165.684706 100.022782 
L 165.909156 104.640503 
L 166.133606 104.450424 
L 166.358055 105.75996 
L 166.582505 100.894547 
L 166.806955 108.299202 
L 167.031404 109.875554 
L 167.255854 113.128882 
L 167.704754 104.464983 
L 167.929203 104.420889 
L 168.378103 113.671224 
L 168.827002 98.664527 
L 169.051452 106.491323 
L 169.275901 109.901796 
L 169.500351 102.451172 
L 169.724801 99.156643 
L 169.94925 101.471732 
L 170.1737 101.537846 
L 170.39815 111.685311 
L 170.6226 111.16205 
L 170.847049 113.885286 
L 171.071499 114.098293 
L 171.295949 101.604402 
L 171.520398 108.322218 
L 171.969298 97.03361 
L 172.418197 112.0672 
L 172.642647 106.048548 
L 172.867097 106.889612 
L 173.091546 114.972257 
L 173.315996 102.201884 
L 173.764895 99.336446 
L 173.989345 110.493437 
L 174.438244 102.914636 
L 174.662694 104.635878 
L 174.887144 103.997258 
L 175.111593 105.647415 
L 175.336043 105.146718 
L 175.560493 103.133258 
L 175.784943 105.098294 
L 176.009392 98.774615 
L 176.233842 111.660274 
L 176.458292 102.645624 
L 176.682741 108.91075 
L 176.907191 106.669237 
L 177.131641 102.512819 
L 177.35609 105.542612 
L 177.58054 113.895089 
L 177.80499 106.66199 
L 178.02944 107.951794 
L 178.253889 118.195857 
L 178.478339 113.371519 
L 178.702789 102.688641 
L 178.927238 118.000742 
L 179.151688 108.099298 
L 179.376138 115.143144 
L 179.600587 106.787652 
L 179.825037 106.760654 
L 180.049487 100.959249 
L 180.273936 103.502531 
L 180.498386 108.953833 
L 180.722836 103.776784 
L 180.947286 104.396446 
L 181.171735 103.012114 
L 181.396185 106.987903 
L 181.620635 99.154311 
L 181.845084 108.002948 
L 182.069534 101.398212 
L 182.293984 106.432239 
L 182.518433 107.921082 
L 182.742883 98.831804 
L 182.967333 107.804128 
L 183.191783 102.017727 
L 183.640682 116.194694 
L 183.865132 115.280745 
L 184.314031 103.542429 
L 184.538481 119.69536 
L 184.76293 105.537713 
L 184.98738 105.827925 
L 185.21183 98.076354 
L 185.43628 110.5051 
L 185.660729 109.695687 
L 185.885179 107.940489 
L 186.109629 104.809178 
L 186.334078 109.045078 
L 186.558528 100.14948 
L 187.007427 110.560087 
L 187.231877 101.697488 
L 187.456327 105.484352 
L 187.680776 106.690795 
L 187.905226 119.919556 
L 188.354126 105.821373 
L 188.803025 110.029635 
L 189.027475 104.562628 
L 189.251924 102.773751 
L 189.476374 102.58288 
L 189.700824 102.162831 
L 189.925273 123.805648 
L 190.149723 103.690408 
L 190.374173 104.876862 
L 190.598623 104.47815 
L 190.823072 104.560537 
L 191.047522 105.665722 
L 191.496421 103.137465 
L 191.720871 103.856409 
L 192.16977 110.015373 
L 192.39422 117.166639 
L 192.61867 105.226596 
L 192.843119 113.312091 
L 193.067569 112.750825 
L 193.292019 102.680928 
L 193.516469 114.597388 
L 193.740918 105.494098 
L 193.965368 106.078815 
L 194.189818 111.811405 
L 194.414267 108.793335 
L 194.638717 109.442657 
L 194.863167 104.858132 
L 195.087616 109.051547 
L 195.312066 104.058065 
L 195.536516 105.580292 
L 195.760966 109.38465 
L 195.985415 107.476269 
L 195.985415 107.476269 
" clip-path="url(#pa549629568)" style="fill: none; stroke: #1e90ff; stroke-width: 0.8; stroke-linecap: square"/>
   </g>
   <g id="line2d_10">
    <path d="M 61.764497 72.399965 
L 62.213396 68.355307 
L 62.437846 69.057512 
L 62.662296 71.229846 
L 62.886745 71.317341 
L 63.111195 65.697143 
L 63.335645 77.895421 
L 63.560095 68.808618 
L 63.784544 73.305123 
L 64.008994 66.804936 
L 64.233444 72.818805 
L 64.457893 67.975511 
L 64.682343 68.849506 
L 64.906793 77.512422 
L 65.131242 69.382708 
L 65.355692 73.754974 
L 65.580142 69.794355 
L 65.804591 73.420361 
L 66.029041 81.487264 
L 66.253491 67.784059 
L 66.477941 74.271827 
L 66.70239 75.607495 
L 66.92684 68.635565 
L 67.15129 79.032002 
L 67.375739 78.724042 
L 67.600189 92.097343 
L 67.824639 74.775702 
L 68.049088 79.168913 
L 68.497988 74.29825 
L 68.722438 76.171481 
L 68.946887 71.024523 
L 69.395787 77.407658 
L 69.620236 71.08493 
L 69.844686 79.517772 
L 70.069136 78.255763 
L 70.293585 85.402918 
L 70.518035 73.287212 
L 70.742485 91.383516 
L 70.966935 70.051494 
L 71.191384 71.226359 
L 71.415834 71.691178 
L 71.640284 56.643082 
L 71.864733 75.428931 
L 72.089183 81.760487 
L 72.538082 82.497038 
L 72.762532 74.200361 
L 72.986982 75.502836 
L 73.211431 84.572325 
L 73.435881 80.108007 
L 73.660331 78.535967 
L 73.884781 79.197541 
L 74.10923 79.359239 
L 74.33368 75.373183 
L 74.55813 80.31533 
L 74.782579 81.387741 
L 75.007029 74.67793 
L 75.231479 85.887274 
L 75.455928 81.671102 
L 75.680378 82.689376 
L 75.904828 84.251616 
L 76.353727 72.720574 
L 76.578177 92.23633 
L 76.802627 78.874499 
L 77.027076 80.196913 
L 77.251526 78.625507 
L 77.475976 75.749161 
L 77.700425 80.955353 
L 77.924875 81.691459 
L 78.149325 77.803581 
L 78.373774 85.12627 
L 78.822674 78.953416 
L 79.047124 79.280994 
L 79.271573 84.18111 
L 79.720473 80.793321 
L 79.944922 83.042771 
L 80.169372 87.002523 
L 80.393822 79.662745 
L 80.618271 95.485802 
L 81.067171 82.688703 
L 81.74052 86.551753 
L 81.96497 90.16944 
L 82.189419 100.196345 
L 82.413869 80.050024 
L 82.638319 89.902824 
L 82.862768 78.934642 
L 83.311668 87.411021 
L 83.536117 81.919582 
L 83.760567 86.694576 
L 84.209467 83.447972 
L 84.433916 98.288586 
L 84.882816 79.347204 
L 85.107265 89.345175 
L 85.331715 83.787596 
L 85.556165 83.622325 
L 86.005064 88.654284 
L 86.229514 83.420689 
L 86.453964 86.725685 
L 86.678413 94.783851 
L 86.902863 86.719044 
L 87.127313 92.73491 
L 87.351762 84.293139 
L 87.576212 94.27133 
L 87.800662 81.824009 
L 88.025111 87.960839 
L 88.249561 86.102301 
L 88.474011 90.857398 
L 88.69846 87.964157 
L 88.92291 90.353421 
L 89.14736 85.861985 
L 89.37181 90.397367 
L 89.596259 86.973481 
L 89.820709 106.997751 
L 90.045159 88.081138 
L 90.269608 86.84903 
L 90.494058 94.866743 
L 90.718508 83.552139 
L 90.942957 85.727878 
L 91.167407 85.792507 
L 91.391857 85.220013 
L 91.616307 90.497742 
L 91.840756 92.83574 
L 92.065206 88.408055 
L 92.289656 93.79764 
L 92.514105 94.231263 
L 92.738555 92.942889 
L 92.963005 89.989286 
L 93.187454 96.355204 
L 93.411904 89.122969 
L 93.636354 88.746628 
L 93.860804 83.594998 
L 94.085253 89.442933 
L 94.309703 88.678123 
L 94.534153 92.806858 
L 94.758602 89.443465 
L 94.983052 88.256594 
L 95.207502 92.287777 
L 95.431951 83.306382 
L 95.880851 96.539771 
L 96.1053 91.039371 
L 96.32975 93.988189 
L 96.5542 89.565235 
L 96.77865 89.404516 
L 97.003099 84.132436 
L 97.227549 105.270982 
L 97.451999 85.477771 
L 97.676448 85.735864 
L 97.900898 94.383615 
L 98.125348 107.433679 
L 98.349797 105.906125 
L 98.798697 90.990632 
L 99.023147 91.39942 
L 99.247596 94.717806 
L 99.472046 88.162083 
L 99.696496 92.384501 
L 99.920945 92.348199 
L 100.145395 94.533122 
L 100.369845 90.590913 
L 100.594294 105.837418 
L 100.818744 90.684588 
L 101.043194 94.461571 
L 101.267643 94.004152 
L 101.492093 85.380947 
L 101.716543 89.795122 
L 101.940993 90.478354 
L 102.165442 94.695569 
L 102.389892 105.508895 
L 102.614342 93.145324 
L 102.838791 102.418067 
L 103.287691 95.241788 
L 103.51214 113.012043 
L 103.73659 91.47403 
L 103.96104 103.499181 
L 104.409939 89.297489 
L 104.634389 105.808558 
L 104.858839 110.078795 
L 105.083288 107.64718 
L 105.307738 96.324917 
L 105.532188 103.266522 
L 105.756637 91.076721 
L 105.981087 91.746064 
L 106.429986 105.266699 
L 106.654436 88.433259 
L 106.878886 100.599493 
L 107.103336 103.488931 
L 107.327785 98.438613 
L 107.552235 90.510874 
L 107.776685 96.817421 
L 108.001134 94.99567 
L 108.225584 89.592355 
L 108.450034 102.228897 
L 108.674483 94.397494 
L 108.898933 92.425085 
L 109.123383 101.415374 
L 109.347833 100.5772 
L 109.572282 97.46525 
L 109.796732 102.344853 
L 110.021182 99.583073 
L 110.245631 94.009776 
L 110.694531 101.350605 
L 110.91898 96.240196 
L 111.14343 107.137038 
L 111.36788 100.8792 
L 111.592329 89.917061 
L 111.816779 101.69281 
L 112.041229 101.441839 
L 112.265679 102.183525 
L 112.490128 103.690661 
L 112.714578 95.334442 
L 112.939028 95.620645 
L 113.163477 98.297877 
L 113.387927 90.748772 
L 113.612377 100.373566 
L 113.836826 99.58591 
L 114.061276 94.993552 
L 114.285726 98.139602 
L 114.510176 95.423945 
L 114.734625 96.752541 
L 114.959075 96.426985 
L 115.183525 93.039791 
L 115.407974 105.428871 
L 115.632424 102.815047 
L 115.856874 95.840783 
L 116.081323 106.242751 
L 116.305773 97.589719 
L 116.530223 100.576784 
L 116.754673 93.00199 
L 116.979122 98.940601 
L 117.203572 111.367031 
L 117.428022 97.257772 
L 117.652471 74.965484 
L 117.876921 96.235015 
L 118.101371 100.013005 
L 118.55027 93.644828 
L 118.77472 100.321583 
L 118.999169 94.131554 
L 119.223619 101.41076 
L 119.448069 98.747624 
L 119.672519 106.564201 
L 119.896968 97.691061 
L 120.121418 95.586241 
L 120.345868 100.625676 
L 120.570317 93.849742 
L 120.794767 98.99955 
L 121.019217 92.71803 
L 121.243666 100.991768 
L 121.468116 102.587419 
L 121.692566 95.357764 
L 121.917016 94.942686 
L 122.141465 102.899012 
L 122.365915 92.378976 
L 122.590365 114.656704 
L 122.814814 96.772795 
L 123.039264 101.792597 
L 123.263714 98.896242 
L 123.488163 101.635095 
L 123.712613 101.968001 
L 123.937063 97.145841 
L 124.385962 106.537856 
L 124.610412 100.715188 
L 124.834862 99.477574 
L 125.283761 100.402734 
L 125.508211 101.598357 
L 125.73266 96.639318 
L 125.95711 103.077752 
L 126.18156 103.377954 
L 126.406009 95.572638 
L 126.630459 98.247785 
L 127.079359 124.472727 
L 127.303808 94.336282 
L 127.528258 94.75352 
L 127.752708 83.044644 
L 128.201607 109.440646 
L 128.426057 106.443793 
L 128.650506 94.214466 
L 128.874956 98.374859 
L 129.099406 94.15348 
L 129.323855 99.437506 
L 129.548305 99.281305 
L 129.772755 100.317399 
L 129.997205 99.426347 
L 130.221654 103.087275 
L 130.446104 95.71722 
L 130.670554 109.214852 
L 130.895003 93.97565 
L 131.119453 95.116433 
L 131.343903 102.371745 
L 131.568352 115.784654 
L 132.017252 103.216251 
L 132.241702 99.82003 
L 132.466151 94.477193 
L 132.690601 110.443929 
L 132.915051 99.990185 
L 133.1395 107.131842 
L 133.36395 93.723581 
L 133.5884 103.080018 
L 133.812849 93.734914 
L 134.261749 100.976301 
L 134.486198 98.652963 
L 134.710648 98.489509 
L 134.935098 92.548698 
L 135.383997 95.581608 
L 135.608447 95.270821 
L 135.832897 93.765674 
L 136.057346 106.359012 
L 136.506246 98.219853 
L 136.730695 102.396427 
L 136.955145 113.600507 
L 137.179595 98.521381 
L 137.404045 112.292261 
L 137.628494 96.611825 
L 137.852944 98.112491 
L 138.077394 97.265311 
L 138.301843 101.157417 
L 138.526293 101.731863 
L 138.750743 98.662786 
L 138.975192 102.387745 
L 139.199642 111.231667 
L 139.424092 102.54569 
L 139.648542 105.116099 
L 139.872991 95.948444 
L 140.097441 102.774572 
L 140.321891 96.450259 
L 140.77079 104.607508 
L 140.99524 98.886494 
L 141.219689 98.388556 
L 141.444139 102.862655 
L 141.668589 111.91386 
L 141.893038 102.539627 
L 142.117488 99.108247 
L 142.341938 123.217093 
L 142.566388 104.708765 
L 143.015287 100.097884 
L 143.239737 104.639745 
L 143.464186 101.448042 
L 143.688636 107.967386 
L 144.137535 94.853062 
L 144.586435 108.014244 
L 144.810885 98.967806 
L 145.259784 109.494677 
L 145.484234 108.30805 
L 145.708683 106.420047 
L 146.157583 98.619551 
L 146.382032 106.568463 
L 146.606482 100.093576 
L 146.830932 104.714947 
L 147.055381 102.772824 
L 147.279831 96.470301 
L 147.504281 100.350028 
L 147.728731 101.103363 
L 147.95318 96.474438 
L 148.17763 106.032012 
L 148.40208 101.688792 
L 148.626529 117.599645 
L 148.850979 100.938122 
L 149.075429 104.016017 
L 149.299878 97.605059 
L 149.524328 102.540014 
L 149.748778 100.529417 
L 149.973228 101.510587 
L 150.197677 99.704307 
L 150.422127 99.81728 
L 150.646577 105.706705 
L 150.871026 97.959567 
L 151.095476 106.886641 
L 151.319926 99.933344 
L 151.544375 110.196548 
L 151.768825 103.936002 
L 151.993275 102.557278 
L 152.217724 98.786716 
L 152.442174 111.514822 
L 152.666624 106.730551 
L 152.891074 98.599248 
L 153.115523 99.311483 
L 153.339973 103.058135 
L 153.564423 102.668366 
L 153.788872 99.248294 
L 154.013322 99.435315 
L 154.237772 100.455288 
L 154.462221 100.847815 
L 154.686671 103.513654 
L 154.911121 97.761387 
L 155.135571 100.755516 
L 155.36002 99.193553 
L 155.58447 100.168758 
L 155.80892 106.699819 
L 156.033369 97.773973 
L 156.257819 97.449938 
L 156.482269 97.366413 
L 156.931168 104.347241 
L 157.155618 98.76168 
L 157.380067 96.871943 
L 157.604517 98.063328 
L 157.828967 95.740668 
L 158.053417 97.220586 
L 158.277866 97.214958 
L 158.502316 111.079363 
L 158.726766 99.41388 
L 158.951215 96.54877 
L 159.175665 107.80221 
L 159.400115 104.813326 
L 159.624564 97.117826 
L 159.849014 103.692016 
L 160.073464 105.402937 
L 160.522363 101.138064 
L 160.746813 103.278692 
L 160.971263 101.905437 
L 161.195712 106.871336 
L 161.420162 100.781478 
L 161.644612 102.403834 
L 161.869061 99.094937 
L 162.093511 116.659719 
L 162.317961 100.603629 
L 162.542411 102.976276 
L 162.76686 99.471602 
L 162.99131 101.581694 
L 163.21576 98.392452 
L 163.440209 99.547335 
L 163.664659 87.047839 
L 163.889109 98.278566 
L 164.113558 96.598412 
L 164.338008 106.037818 
L 164.562458 102.297212 
L 164.786907 103.158716 
L 165.011357 98.618996 
L 165.235807 98.298989 
L 165.684706 104.775475 
L 165.909156 104.137154 
L 166.133606 111.928507 
L 166.358055 110.728673 
L 166.582505 103.444008 
L 166.806955 103.054131 
L 167.031404 99.453101 
L 167.255854 101.30125 
L 167.480304 101.982326 
L 167.704754 105.309343 
L 167.929203 101.786785 
L 168.153653 104.246208 
L 168.378103 105.396242 
L 168.602552 105.33094 
L 168.827002 105.511033 
L 169.051452 103.012059 
L 169.275901 110.259287 
L 169.500351 101.340216 
L 169.724801 104.401311 
L 169.94925 98.816702 
L 170.1737 98.652474 
L 170.39815 98.169379 
L 170.6226 102.276575 
L 170.847049 102.18202 
L 171.071499 99.802366 
L 171.295949 109.322339 
L 171.520398 101.668833 
L 171.744848 112.541567 
L 171.969298 111.637254 
L 172.193747 100.258841 
L 172.418197 106.382512 
L 172.642647 120.864749 
L 172.867097 99.972753 
L 173.091546 100.806236 
L 173.315996 103.624511 
L 173.540446 102.367257 
L 173.764895 82.235357 
L 173.989345 103.199503 
L 174.213795 104.18076 
L 174.438244 100.400858 
L 174.662694 105.18163 
L 174.887144 103.278947 
L 175.111593 104.286479 
L 175.336043 98.067979 
L 175.560493 115.81527 
L 175.784943 112.728473 
L 176.009392 115.674783 
L 176.233842 100.935056 
L 176.458292 109.224598 
L 176.682741 99.941617 
L 176.907191 103.919068 
L 177.131641 96.160772 
L 177.35609 104.716911 
L 177.58054 103.643259 
L 177.80499 107.192835 
L 178.02944 98.996079 
L 178.253889 106.186952 
L 178.702789 98.82157 
L 178.927238 105.468609 
L 179.151688 97.723145 
L 179.376138 109.706784 
L 179.600587 102.488539 
L 179.825037 108.185689 
L 180.049487 99.797773 
L 180.273936 105.599122 
L 180.498386 107.143722 
L 180.722836 102.762272 
L 180.947286 108.85714 
L 181.171735 99.020382 
L 181.396185 104.486666 
L 181.620635 102.61119 
L 181.845084 104.852162 
L 182.069534 103.845363 
L 182.293984 104.467634 
L 182.518433 103.954289 
L 182.742883 101.838598 
L 182.967333 106.387361 
L 183.191783 99.425057 
L 183.416232 99.147531 
L 183.640682 101.672779 
L 183.865132 86.475922 
L 184.089581 104.622823 
L 184.314031 107.952734 
L 184.538481 103.323834 
L 184.76293 103.086597 
L 184.98738 97.99244 
L 185.21183 100.590343 
L 185.43628 104.925226 
L 185.660729 101.298777 
L 185.885179 103.754817 
L 186.109629 104.070034 
L 186.334078 111.289356 
L 186.558528 107.322424 
L 186.782978 97.182734 
L 187.007427 100.398121 
L 187.231877 99.313957 
L 187.456327 101.039497 
L 187.680776 110.351212 
L 187.905226 107.930254 
L 188.129676 103.628361 
L 188.354126 103.28037 
L 188.578575 104.840703 
L 188.803025 111.737652 
L 189.476374 99.798065 
L 189.700824 99.817827 
L 190.149723 101.19332 
L 190.374173 112.607094 
L 190.598623 98.460063 
L 190.823072 103.87137 
L 191.047522 103.879253 
L 191.271972 102.135656 
L 191.496421 106.788667 
L 191.720871 105.105516 
L 192.16977 105.410741 
L 192.39422 99.204176 
L 192.843119 106.990043 
L 193.292019 102.033347 
L 193.516469 104.624934 
L 193.740918 100.573628 
L 193.965368 105.312125 
L 194.189818 98.140497 
L 194.638717 108.345581 
L 194.863167 104.105208 
L 195.087616 106.190578 
L 195.536516 121.682076 
L 195.760966 106.385518 
L 195.985415 100.895875 
L 195.985415 100.895875 
" clip-path="url(#pa549629568)" style="fill: none; stroke: #ff0000; stroke-width: 0.8; stroke-linecap: square"/>
   </g>
   <g id="patch_3">
    <path d="M 59.52 129.12 
L 59.52 26.88 
" style="fill: none; stroke: #000000; stroke-width: 0.8; stroke-linejoin: miter; stroke-linecap: square"/>
   </g>
   <g id="patch_4">
    <path d="M 198.454362 129.12 
L 198.454362 26.88 
" style="fill: none; stroke: #000000; stroke-width: 0.8; stroke-linejoin: miter; stroke-linecap: square"/>
   </g>
   <g id="patch_5">
    <path d="M 59.52 129.12 
L 198.454362 129.12 
" style="fill: none; stroke: #000000; stroke-width: 0.8; stroke-linejoin: miter; stroke-linecap: square"/>
   </g>
   <g id="patch_6">
    <path d="M 59.52 26.88 
L 198.454362 26.88 
" style="fill: none; stroke: #000000; stroke-width: 0.8; stroke-linejoin: miter; stroke-linecap: square"/>
   </g>
   <g id="text_10">
    <!-- Frequency Domain Plot -->
    <g transform="translate(59.587806 20.88) scale(0.12 -0.12)">
     <defs>
      <path id="DejaVuSans-44" d="M 1259 4147 
L 1259 519 
L 2022 519 
Q 2988 519 3436 956 
Q 3884 1394 3884 2338 
Q 3884 3275 3436 3711 
Q 2988 4147 2022 4147 
L 1259 4147 
z
M 628 4666 
L 1925 4666 
Q 3281 4666 3915 4102 
Q 4550 3538 4550 2338 
Q 4550 1131 3912 565 
Q 3275 0 1925 0 
L 628 0 
L 628 4666 
z
" transform="scale(0.015625)"/>
      <path id="DejaVuSans-6d" d="M 3328 2828 
Q 3544 3216 3844 3400 
Q 4144 3584 4550 3584 
Q 5097 3584 5394 3201 
Q 5691 2819 5691 2113 
L 5691 0 
L 5113 0 
L 5113 2094 
Q 5113 2597 4934 2840 
Q 4756 3084 4391 3084 
Q 3944 3084 3684 2787 
Q 3425 2491 3425 1978 
L 3425 0 
L 2847 0 
L 2847 2094 
Q 2847 2600 2669 2842 
Q 2491 3084 2119 3084 
Q 1678 3084 1418 2786 
Q 1159 2488 1159 1978 
L 1159 0 
L 581 0 
L 581 3500 
L 1159 3500 
L 1159 2956 
Q 1356 3278 1631 3431 
Q 1906 3584 2284 3584 
Q 2666 3584 2933 3390 
Q 3200 3197 3328 2828 
z
" transform="scale(0.015625)"/>
      <path id="DejaVuSans-61" d="M 2194 1759 
Q 1497 1759 1228 1600 
Q 959 1441 959 1056 
Q 959 750 1161 570 
Q 1363 391 1709 391 
Q 2188 391 2477 730 
Q 2766 1069 2766 1631 
L 2766 1759 
L 2194 1759 
z
M 3341 1997 
L 3341 0 
L 2766 0 
L 2766 531 
Q 2569 213 2275 61 
Q 1981 -91 1556 -91 
Q 1019 -91 701 211 
Q 384 513 384 1019 
Q 384 1609 779 1909 
Q 1175 2209 1959 2209 
L 2766 2209 
L 2766 2266 
Q 2766 2663 2505 2880 
Q 2244 3097 1772 3097 
Q 1472 3097 1187 3025 
Q 903 2953 641 2809 
L 641 3341 
Q 956 3463 1253 3523 
Q 1550 3584 1831 3584 
Q 2591 3584 2966 3190 
Q 3341 2797 3341 1997 
z
" transform="scale(0.015625)"/>
      <path id="DejaVuSans-69" d="M 603 3500 
L 1178 3500 
L 1178 0 
L 603 0 
L 603 3500 
z
M 603 4863 
L 1178 4863 
L 1178 4134 
L 603 4134 
L 603 4863 
z
" transform="scale(0.015625)"/>
      <path id="DejaVuSans-50" d="M 1259 4147 
L 1259 2394 
L 2053 2394 
Q 2494 2394 2734 2622 
Q 2975 2850 2975 3272 
Q 2975 3691 2734 3919 
Q 2494 4147 2053 4147 
L 1259 4147 
z
M 628 4666 
L 2053 4666 
Q 2838 4666 3239 4311 
Q 3641 3956 3641 3272 
Q 3641 2581 3239 2228 
Q 2838 1875 2053 1875 
L 1259 1875 
L 1259 0 
L 628 0 
L 628 4666 
z
" transform="scale(0.015625)"/>
      <path id="DejaVuSans-6c" d="M 603 4863 
L 1178 4863 
L 1178 0 
L 603 0 
L 603 4863 
z
" transform="scale(0.015625)"/>
      <path id="DejaVuSans-74" d="M 1172 4494 
L 1172 3500 
L 2356 3500 
L 2356 3053 
L 1172 3053 
L 1172 1153 
Q 1172 725 1289 603 
Q 1406 481 1766 481 
L 2356 481 
L 2356 0 
L 1766 0 
Q 1100 0 847 248 
Q 594 497 594 1153 
L 594 3053 
L 172 3053 
L 172 3500 
L 594 3500 
L 594 4494 
L 1172 4494 
z
" transform="scale(0.015625)"/>
     </defs>
     <use xlink:href="#DejaVuSans-46"/>
     <use xlink:href="#DejaVuSans-72" x="50.269531"/>
     <use xlink:href="#DejaVuSans-65" x="89.132812"/>
     <use xlink:href="#DejaVuSans-71" x="150.65625"/>
     <use xlink:href="#DejaVuSans-75" x="214.132812"/>
     <use xlink:href="#DejaVuSans-65" x="277.511719"/>
     <use xlink:href="#DejaVuSans-6e" x="339.035156"/>
     <use xlink:href="#DejaVuSans-63" x="402.414062"/>
     <use xlink:href="#DejaVuSans-79" x="457.394531"/>
     <use xlink:href="#DejaVuSans-20" x="516.574219"/>
     <use xlink:href="#DejaVuSans-44" x="548.361328"/>
     <use xlink:href="#DejaVuSans-6f" x="625.363281"/>
     <use xlink:href="#DejaVuSans-6d" x="686.544922"/>
     <use xlink:href="#DejaVuSans-61" x="783.957031"/>
     <use xlink:href="#DejaVuSans-69" x="845.236328"/>
     <use xlink:href="#DejaVuSans-6e" x="873.019531"/>
     <use xlink:href="#DejaVuSans-20" x="936.398438"/>
     <use xlink:href="#DejaVuSans-50" x="968.185547"/>
     <use xlink:href="#DejaVuSans-6c" x="1028.488281"/>
     <use xlink:href="#DejaVuSans-6f" x="1056.271484"/>
     <use xlink:href="#DejaVuSans-74" x="1117.453125"/>
    </g>
   </g>
   <g id="legend_1">
    <g id="patch_7">
     <path d="M 19.939691 158.292 
L 50.807816 158.292 
Q 51.407816 158.292 51.407816 157.692 
L 51.407816 144.781688 
Q 51.407816 144.181688 50.807816 144.181688 
L 19.939691 144.181688 
Q 19.339691 144.181688 19.339691 144.781688 
L 19.339691 157.692 
Q 19.339691 158.292 19.939691 158.292 
z
" style="fill: #ffffff; opacity: 0.8; stroke: #cccccc; stroke-linejoin: miter"/>
    </g>
    <g id="line2d_11">
     <path d="M 20.539691 146.611219 
L 23.539691 146.611219 
L 26.539691 146.611219 
" style="fill: none; stroke: #808080; stroke-width: 0.8; stroke-linecap: square"/>
    </g>
    <g id="text_11">
     <!-- Contaminated -->
     <g transform="translate(28.939691 147.661219) scale(0.03 -0.03)">
      <defs>
       <path id="DejaVuSans-43" d="M 4122 4306 
L 4122 3641 
Q 3803 3938 3442 4084 
Q 3081 4231 2675 4231 
Q 1875 4231 1450 3742 
Q 1025 3253 1025 2328 
Q 1025 1406 1450 917 
Q 1875 428 2675 428 
Q 3081 428 3442 575 
Q 3803 722 4122 1019 
L 4122 359 
Q 3791 134 3420 21 
Q 3050 -91 2638 -91 
Q 1578 -91 968 557 
Q 359 1206 359 2328 
Q 359 3453 968 4101 
Q 1578 4750 2638 4750 
Q 3056 4750 3426 4639 
Q 3797 4528 4122 4306 
z
" transform="scale(0.015625)"/>
      </defs>
      <use xlink:href="#DejaVuSans-43"/>
      <use xlink:href="#DejaVuSans-6f" x="69.824219"/>
      <use xlink:href="#DejaVuSans-6e" x="131.005859"/>
      <use xlink:href="#DejaVuSans-74" x="194.384766"/>
      <use xlink:href="#DejaVuSans-61" x="233.59375"/>
      <use xlink:href="#DejaVuSans-6d" x="294.873047"/>
      <use xlink:href="#DejaVuSans-69" x="392.285156"/>
      <use xlink:href="#DejaVuSans-6e" x="420.068359"/>
      <use xlink:href="#DejaVuSans-61" x="483.447266"/>
      <use xlink:href="#DejaVuSans-74" x="544.726562"/>
      <use xlink:href="#DejaVuSans-65" x="583.935547"/>
      <use xlink:href="#DejaVuSans-64" x="645.458984"/>
     </g>
    </g>
    <g id="line2d_12">
     <path d="M 20.539691 151.014656 
L 23.539691 151.014656 
L 26.539691 151.014656 
" style="fill: none; stroke: #1e90ff; stroke-width: 0.8; stroke-linecap: square"/>
    </g>
    <g id="text_12">
     <!-- Clean -->
     <g transform="translate(28.939691 152.064656) scale(0.03 -0.03)">
      <use xlink:href="#DejaVuSans-43"/>
      <use xlink:href="#DejaVuSans-6c" x="69.824219"/>
      <use xlink:href="#DejaVuSans-65" x="97.607422"/>
      <use xlink:href="#DejaVuSans-61" x="159.130859"/>
      <use xlink:href="#DejaVuSans-6e" x="220.410156"/>
     </g>
    </g>
    <g id="line2d_13">
     <path d="M 20.539691 155.418094 
L 23.539691 155.418094 
L 26.539691 155.418094 
" style="fill: none; stroke: #ff0000; stroke-width: 0.8; stroke-linecap: square"/>
    </g>
    <g id="text_13">
     <!-- SACed -->
     <g transform="translate(28.939691 156.468094) scale(0.03 -0.03)">
      <defs>
       <path id="DejaVuSans-53" d="M 3425 4513 
L 3425 3897 
Q 3066 4069 2747 4153 
Q 2428 4238 2131 4238 
Q 1616 4238 1336 4038 
Q 1056 3838 1056 3469 
Q 1056 3159 1242 3001 
Q 1428 2844 1947 2747 
L 2328 2669 
Q 3034 2534 3370 2195 
Q 3706 1856 3706 1288 
Q 3706 609 3251 259 
Q 2797 -91 1919 -91 
Q 1588 -91 1214 -16 
Q 841 59 441 206 
L 441 856 
Q 825 641 1194 531 
Q 1563 422 1919 422 
Q 2459 422 2753 634 
Q 3047 847 3047 1241 
Q 3047 1584 2836 1778 
Q 2625 1972 2144 2069 
L 1759 2144 
Q 1053 2284 737 2584 
Q 422 2884 422 3419 
Q 422 4038 858 4394 
Q 1294 4750 2059 4750 
Q 2388 4750 2728 4690 
Q 3069 4631 3425 4513 
z
" transform="scale(0.015625)"/>
       <path id="DejaVuSans-41" d="M 2188 4044 
L 1331 1722 
L 3047 1722 
L 2188 4044 
z
M 1831 4666 
L 2547 4666 
L 4325 0 
L 3669 0 
L 3244 1197 
L 1141 1197 
L 716 0 
L 50 0 
L 1831 4666 
z
" transform="scale(0.015625)"/>
      </defs>
      <use xlink:href="#DejaVuSans-53"/>
      <use xlink:href="#DejaVuSans-41" x="65.351562"/>
      <use xlink:href="#DejaVuSans-43" x="132.009766"/>
      <use xlink:href="#DejaVuSans-65" x="201.833984"/>
      <use xlink:href="#DejaVuSans-64" x="263.357422"/>
     </g>
    </g>
   </g>
  </g>
 </g>
 <defs>
  <clipPath id="pa549629568">
   <rect x="59.52" y="26.88" width="138.934362" height="102.24"/>
  </clipPath>
 </defs>
</svg>
