<?xml version="1.0" encoding="utf-8" standalone="no"?>
<!DOCTYPE svg PUBLIC "-//W3C//DTD SVG 1.1//EN"
  "http://www.w3.org/Graphics/SVG/1.1/DTD/svg11.dtd">
<svg xmlns:xlink="http://www.w3.org/1999/xlink" width="216pt" height="180pt" viewBox="0 0 216 180" xmlns="http://www.w3.org/2000/svg" version="1.1">
 <metadata>
  <rdf:RDF xmlns:dc="http://purl.org/dc/elements/1.1/" xmlns:cc="http://creativecommons.org/ns#" xmlns:rdf="http://www.w3.org/1999/02/22-rdf-syntax-ns#">
   <cc:Work>
    <dc:type rdf:resource="http://purl.org/dc/dcmitype/StillImage"/>
    <dc:date>2024-08-24T17:08:35.644964</dc:date>
    <dc:format>image/svg+xml</dc:format>
    <dc:creator>
     <cc:Agent>
      <dc:title>Matplotlib v3.9.1, https://matplotlib.org/</dc:title>
     </cc:Agent>
    </dc:creator>
   </cc:Work>
  </rdf:RDF>
 </metadata>
 <defs>
  <style type="text/css">*{stroke-linejoin: round; stroke-linecap: butt}</style>
 </defs>
 <g id="figure_1">
  <g id="patch_1">
   <path d="M 0 180 
L 216 180 
L 216 0 
L 0 0 
z
" style="fill: #ffffff"/>
  </g>
  <g id="axes_1">
   <g id="patch_2">
    <path d="M 59.52 129.12 
L 198.454362 129.12 
L 198.454362 26.88 
L 59.52 26.88 
z
" style="fill: #ffffff"/>
   </g>
   <g id="matplotlib.axis_1">
    <g id="xtick_1">
     <g id="line2d_1">
      <defs>
       <path id="m437d62c006" d="M 0 0 
L 0 3.5 
" style="stroke: #000000; stroke-width: 0.8"/>
      </defs>
      <g>
       <use xlink:href="#m437d62c006" x="61.540047" y="129.12" style="stroke: #000000; stroke-width: 0.8"/>
      </g>
     </g>
     <g id="text_1">
      <!-- 0 -->
      <g transform="translate(58.358797 143.718437) scale(0.1 -0.1)">
       <defs>
        <path id="DejaVuSans-30" d="M 2034 4250 
Q 1547 4250 1301 3770 
Q 1056 3291 1056 2328 
Q 1056 1369 1301 889 
Q 1547 409 2034 409 
Q 2525 409 2770 889 
Q 3016 1369 3016 2328 
Q 3016 3291 2770 3770 
Q 2525 4250 2034 4250 
z
M 2034 4750 
Q 2819 4750 3233 4129 
Q 3647 3509 3647 2328 
Q 3647 1150 3233 529 
Q 2819 -91 2034 -91 
Q 1250 -91 836 529 
Q 422 1150 422 2328 
Q 422 3509 836 4129 
Q 1250 4750 2034 4750 
z
" transform="scale(0.015625)"/>
       </defs>
       <use xlink:href="#DejaVuSans-30"/>
      </g>
     </g>
    </g>
    <g id="xtick_2">
     <g id="line2d_2">
      <g>
       <use xlink:href="#m437d62c006" x="128.874956" y="129.12" style="stroke: #000000; stroke-width: 0.8"/>
      </g>
     </g>
     <g id="text_2">
      <!-- 150 -->
      <g transform="translate(119.331206 143.718437) scale(0.1 -0.1)">
       <defs>
        <path id="DejaVuSans-31" d="M 794 531 
L 1825 531 
L 1825 4091 
L 703 3866 
L 703 4441 
L 1819 4666 
L 2450 4666 
L 2450 531 
L 3481 531 
L 3481 0 
L 794 0 
L 794 531 
z
" transform="scale(0.015625)"/>
        <path id="DejaVuSans-35" d="M 691 4666 
L 3169 4666 
L 3169 4134 
L 1269 4134 
L 1269 2991 
Q 1406 3038 1543 3061 
Q 1681 3084 1819 3084 
Q 2600 3084 3056 2656 
Q 3513 2228 3513 1497 
Q 3513 744 3044 326 
Q 2575 -91 1722 -91 
Q 1428 -91 1123 -41 
Q 819 9 494 109 
L 494 744 
Q 775 591 1075 516 
Q 1375 441 1709 441 
Q 2250 441 2565 725 
Q 2881 1009 2881 1497 
Q 2881 1984 2565 2268 
Q 2250 2553 1709 2553 
Q 1456 2553 1204 2497 
Q 953 2441 691 2322 
L 691 4666 
z
" transform="scale(0.015625)"/>
       </defs>
       <use xlink:href="#DejaVuSans-31"/>
       <use xlink:href="#DejaVuSans-35" x="63.623047"/>
       <use xlink:href="#DejaVuSans-30" x="127.246094"/>
      </g>
     </g>
    </g>
    <g id="xtick_3">
     <g id="line2d_3">
      <g>
       <use xlink:href="#m437d62c006" x="196.209865" y="129.12" style="stroke: #000000; stroke-width: 0.8"/>
      </g>
     </g>
     <g id="text_3">
      <!-- 300 -->
      <g transform="translate(186.666115 143.718437) scale(0.1 -0.1)">
       <defs>
        <path id="DejaVuSans-33" d="M 2597 2516 
Q 3050 2419 3304 2112 
Q 3559 1806 3559 1356 
Q 3559 666 3084 287 
Q 2609 -91 1734 -91 
Q 1441 -91 1130 -33 
Q 819 25 488 141 
L 488 750 
Q 750 597 1062 519 
Q 1375 441 1716 441 
Q 2309 441 2620 675 
Q 2931 909 2931 1356 
Q 2931 1769 2642 2001 
Q 2353 2234 1838 2234 
L 1294 2234 
L 1294 2753 
L 1863 2753 
Q 2328 2753 2575 2939 
Q 2822 3125 2822 3475 
Q 2822 3834 2567 4026 
Q 2313 4219 1838 4219 
Q 1578 4219 1281 4162 
Q 984 4106 628 3988 
L 628 4550 
Q 988 4650 1302 4700 
Q 1616 4750 1894 4750 
Q 2613 4750 3031 4423 
Q 3450 4097 3450 3541 
Q 3450 3153 3228 2886 
Q 3006 2619 2597 2516 
z
" transform="scale(0.015625)"/>
       </defs>
       <use xlink:href="#DejaVuSans-33"/>
       <use xlink:href="#DejaVuSans-30" x="63.623047"/>
       <use xlink:href="#DejaVuSans-30" x="127.246094"/>
      </g>
     </g>
    </g>
    <g id="text_4">
     <!-- Frequency (Hz) -->
     <g transform="translate(91.282493 157.396563) scale(0.1 -0.1)">
      <defs>
       <path id="DejaVuSans-46" d="M 628 4666 
L 3309 4666 
L 3309 4134 
L 1259 4134 
L 1259 2759 
L 3109 2759 
L 3109 2228 
L 1259 2228 
L 1259 0 
L 628 0 
L 628 4666 
z
" transform="scale(0.015625)"/>
       <path id="DejaVuSans-72" d="M 2631 2963 
Q 2534 3019 2420 3045 
Q 2306 3072 2169 3072 
Q 1681 3072 1420 2755 
Q 1159 2438 1159 1844 
L 1159 0 
L 581 0 
L 581 3500 
L 1159 3500 
L 1159 2956 
Q 1341 3275 1631 3429 
Q 1922 3584 2338 3584 
Q 2397 3584 2469 3576 
Q 2541 3569 2628 3553 
L 2631 2963 
z
" transform="scale(0.015625)"/>
       <path id="DejaVuSans-65" d="M 3597 1894 
L 3597 1613 
L 953 1613 
Q 991 1019 1311 708 
Q 1631 397 2203 397 
Q 2534 397 2845 478 
Q 3156 559 3463 722 
L 3463 178 
Q 3153 47 2828 -22 
Q 2503 -91 2169 -91 
Q 1331 -91 842 396 
Q 353 884 353 1716 
Q 353 2575 817 3079 
Q 1281 3584 2069 3584 
Q 2775 3584 3186 3129 
Q 3597 2675 3597 1894 
z
M 3022 2063 
Q 3016 2534 2758 2815 
Q 2500 3097 2075 3097 
Q 1594 3097 1305 2825 
Q 1016 2553 972 2059 
L 3022 2063 
z
" transform="scale(0.015625)"/>
       <path id="DejaVuSans-71" d="M 947 1747 
Q 947 1113 1208 752 
Q 1469 391 1925 391 
Q 2381 391 2643 752 
Q 2906 1113 2906 1747 
Q 2906 2381 2643 2742 
Q 2381 3103 1925 3103 
Q 1469 3103 1208 2742 
Q 947 2381 947 1747 
z
M 2906 525 
Q 2725 213 2448 61 
Q 2172 -91 1784 -91 
Q 1150 -91 751 415 
Q 353 922 353 1747 
Q 353 2572 751 3078 
Q 1150 3584 1784 3584 
Q 2172 3584 2448 3432 
Q 2725 3281 2906 2969 
L 2906 3500 
L 3481 3500 
L 3481 -1331 
L 2906 -1331 
L 2906 525 
z
" transform="scale(0.015625)"/>
       <path id="DejaVuSans-75" d="M 544 1381 
L 544 3500 
L 1119 3500 
L 1119 1403 
Q 1119 906 1312 657 
Q 1506 409 1894 409 
Q 2359 409 2629 706 
Q 2900 1003 2900 1516 
L 2900 3500 
L 3475 3500 
L 3475 0 
L 2900 0 
L 2900 538 
Q 2691 219 2414 64 
Q 2138 -91 1772 -91 
Q 1169 -91 856 284 
Q 544 659 544 1381 
z
M 1991 3584 
L 1991 3584 
z
" transform="scale(0.015625)"/>
       <path id="DejaVuSans-6e" d="M 3513 2113 
L 3513 0 
L 2938 0 
L 2938 2094 
Q 2938 2591 2744 2837 
Q 2550 3084 2163 3084 
Q 1697 3084 1428 2787 
Q 1159 2491 1159 1978 
L 1159 0 
L 581 0 
L 581 3500 
L 1159 3500 
L 1159 2956 
Q 1366 3272 1645 3428 
Q 1925 3584 2291 3584 
Q 2894 3584 3203 3211 
Q 3513 2838 3513 2113 
z
" transform="scale(0.015625)"/>
       <path id="DejaVuSans-63" d="M 3122 3366 
L 3122 2828 
Q 2878 2963 2633 3030 
Q 2388 3097 2138 3097 
Q 1578 3097 1268 2742 
Q 959 2388 959 1747 
Q 959 1106 1268 751 
Q 1578 397 2138 397 
Q 2388 397 2633 464 
Q 2878 531 3122 666 
L 3122 134 
Q 2881 22 2623 -34 
Q 2366 -91 2075 -91 
Q 1284 -91 818 406 
Q 353 903 353 1747 
Q 353 2603 823 3093 
Q 1294 3584 2113 3584 
Q 2378 3584 2631 3529 
Q 2884 3475 3122 3366 
z
" transform="scale(0.015625)"/>
       <path id="DejaVuSans-79" d="M 2059 -325 
Q 1816 -950 1584 -1140 
Q 1353 -1331 966 -1331 
L 506 -1331 
L 506 -850 
L 844 -850 
Q 1081 -850 1212 -737 
Q 1344 -625 1503 -206 
L 1606 56 
L 191 3500 
L 800 3500 
L 1894 763 
L 2988 3500 
L 3597 3500 
L 2059 -325 
z
" transform="scale(0.015625)"/>
       <path id="DejaVuSans-20" transform="scale(0.015625)"/>
       <path id="DejaVuSans-28" d="M 1984 4856 
Q 1566 4138 1362 3434 
Q 1159 2731 1159 2009 
Q 1159 1288 1364 580 
Q 1569 -128 1984 -844 
L 1484 -844 
Q 1016 -109 783 600 
Q 550 1309 550 2009 
Q 550 2706 781 3412 
Q 1013 4119 1484 4856 
L 1984 4856 
z
" transform="scale(0.015625)"/>
       <path id="DejaVuSans-48" d="M 628 4666 
L 1259 4666 
L 1259 2753 
L 3553 2753 
L 3553 4666 
L 4184 4666 
L 4184 0 
L 3553 0 
L 3553 2222 
L 1259 2222 
L 1259 0 
L 628 0 
L 628 4666 
z
" transform="scale(0.015625)"/>
       <path id="DejaVuSans-7a" d="M 353 3500 
L 3084 3500 
L 3084 2975 
L 922 459 
L 3084 459 
L 3084 0 
L 275 0 
L 275 525 
L 2438 3041 
L 353 3041 
L 353 3500 
z
" transform="scale(0.015625)"/>
       <path id="DejaVuSans-29" d="M 513 4856 
L 1013 4856 
Q 1481 4119 1714 3412 
Q 1947 2706 1947 2009 
Q 1947 1309 1714 600 
Q 1481 -109 1013 -844 
L 513 -844 
Q 928 -128 1133 580 
Q 1338 1288 1338 2009 
Q 1338 2731 1133 3434 
Q 928 4138 513 4856 
z
" transform="scale(0.015625)"/>
      </defs>
      <use xlink:href="#DejaVuSans-46"/>
      <use xlink:href="#DejaVuSans-72" x="50.269531"/>
      <use xlink:href="#DejaVuSans-65" x="89.132812"/>
      <use xlink:href="#DejaVuSans-71" x="150.65625"/>
      <use xlink:href="#DejaVuSans-75" x="214.132812"/>
      <use xlink:href="#DejaVuSans-65" x="277.511719"/>
      <use xlink:href="#DejaVuSans-6e" x="339.035156"/>
      <use xlink:href="#DejaVuSans-63" x="402.414062"/>
      <use xlink:href="#DejaVuSans-79" x="457.394531"/>
      <use xlink:href="#DejaVuSans-20" x="516.574219"/>
      <use xlink:href="#DejaVuSans-28" x="548.361328"/>
      <use xlink:href="#DejaVuSans-48" x="587.375"/>
      <use xlink:href="#DejaVuSans-7a" x="662.570312"/>
      <use xlink:href="#DejaVuSans-29" x="715.060547"/>
     </g>
    </g>
   </g>
   <g id="matplotlib.axis_2">
    <g id="ytick_1">
     <g id="line2d_4">
      <defs>
       <path id="m65ed621619" d="M 0 0 
L -3.5 0 
" style="stroke: #000000; stroke-width: 0.8"/>
      </defs>
      <g>
       <use xlink:href="#m65ed621619" x="59.52" y="108.649253" style="stroke: #000000; stroke-width: 0.8"/>
      </g>
     </g>
     <g id="text_5">
      <!-- $\mathdefault{10^{-4}}$ -->
      <g transform="translate(29.02 112.448472) scale(0.1 -0.1)">
       <defs>
        <path id="DejaVuSans-2212" d="M 678 2272 
L 4684 2272 
L 4684 1741 
L 678 1741 
L 678 2272 
z
" transform="scale(0.015625)"/>
        <path id="DejaVuSans-34" d="M 2419 4116 
L 825 1625 
L 2419 1625 
L 2419 4116 
z
M 2253 4666 
L 3047 4666 
L 3047 1625 
L 3713 1625 
L 3713 1100 
L 3047 1100 
L 3047 0 
L 2419 0 
L 2419 1100 
L 313 1100 
L 313 1709 
L 2253 4666 
z
" transform="scale(0.015625)"/>
       </defs>
       <use xlink:href="#DejaVuSans-31" transform="translate(0 0.684375)"/>
       <use xlink:href="#DejaVuSans-30" transform="translate(63.623047 0.684375)"/>
       <use xlink:href="#DejaVuSans-2212" transform="translate(128.203125 38.965625) scale(0.7)"/>
       <use xlink:href="#DejaVuSans-34" transform="translate(186.855469 38.965625) scale(0.7)"/>
      </g>
     </g>
    </g>
    <g id="ytick_2">
     <g id="line2d_5">
      <g>
       <use xlink:href="#m65ed621619" x="59.52" y="84.902754" style="stroke: #000000; stroke-width: 0.8"/>
      </g>
     </g>
     <g id="text_6">
      <!-- $\mathdefault{10^{-1}}$ -->
      <g transform="translate(29.02 88.701973) scale(0.1 -0.1)">
       <use xlink:href="#DejaVuSans-31" transform="translate(0 0.684375)"/>
       <use xlink:href="#DejaVuSans-30" transform="translate(63.623047 0.684375)"/>
       <use xlink:href="#DejaVuSans-2212" transform="translate(128.203125 38.965625) scale(0.7)"/>
       <use xlink:href="#DejaVuSans-31" transform="translate(186.855469 38.965625) scale(0.7)"/>
      </g>
     </g>
    </g>
    <g id="ytick_3">
     <g id="line2d_6">
      <g>
       <use xlink:href="#m65ed621619" x="59.52" y="61.156255" style="stroke: #000000; stroke-width: 0.8"/>
      </g>
     </g>
     <g id="text_7">
      <!-- $\mathdefault{10^{2}}$ -->
      <g transform="translate(34.92 64.955474) scale(0.1 -0.1)">
       <defs>
        <path id="DejaVuSans-32" d="M 1228 531 
L 3431 531 
L 3431 0 
L 469 0 
L 469 531 
Q 828 903 1448 1529 
Q 2069 2156 2228 2338 
Q 2531 2678 2651 2914 
Q 2772 3150 2772 3378 
Q 2772 3750 2511 3984 
Q 2250 4219 1831 4219 
Q 1534 4219 1204 4116 
Q 875 4013 500 3803 
L 500 4441 
Q 881 4594 1212 4672 
Q 1544 4750 1819 4750 
Q 2544 4750 2975 4387 
Q 3406 4025 3406 3419 
Q 3406 3131 3298 2873 
Q 3191 2616 2906 2266 
Q 2828 2175 2409 1742 
Q 1991 1309 1228 531 
z
" transform="scale(0.015625)"/>
       </defs>
       <use xlink:href="#DejaVuSans-31" transform="translate(0 0.765625)"/>
       <use xlink:href="#DejaVuSans-30" transform="translate(63.623047 0.765625)"/>
       <use xlink:href="#DejaVuSans-32" transform="translate(128.203125 39.046875) scale(0.7)"/>
      </g>
     </g>
    </g>
    <g id="ytick_4">
     <g id="line2d_7">
      <g>
       <use xlink:href="#m65ed621619" x="59.52" y="37.409756" style="stroke: #000000; stroke-width: 0.8"/>
      </g>
     </g>
     <g id="text_8">
      <!-- $\mathdefault{10^{5}}$ -->
      <g transform="translate(34.92 41.208974) scale(0.1 -0.1)">
       <use xlink:href="#DejaVuSans-31" transform="translate(0 0.684375)"/>
       <use xlink:href="#DejaVuSans-30" transform="translate(63.623047 0.684375)"/>
       <use xlink:href="#DejaVuSans-35" transform="translate(128.203125 38.965625) scale(0.7)"/>
      </g>
     </g>
    </g>
    <g id="text_9">
     <!-- Log power (dB/Hz) -->
     <g transform="translate(22.940312 124.139844) rotate(-90) scale(0.1 -0.1)">
      <defs>
       <path id="DejaVuSans-4c" d="M 628 4666 
L 1259 4666 
L 1259 531 
L 3531 531 
L 3531 0 
L 628 0 
L 628 4666 
z
" transform="scale(0.015625)"/>
       <path id="DejaVuSans-6f" d="M 1959 3097 
Q 1497 3097 1228 2736 
Q 959 2375 959 1747 
Q 959 1119 1226 758 
Q 1494 397 1959 397 
Q 2419 397 2687 759 
Q 2956 1122 2956 1747 
Q 2956 2369 2687 2733 
Q 2419 3097 1959 3097 
z
M 1959 3584 
Q 2709 3584 3137 3096 
Q 3566 2609 3566 1747 
Q 3566 888 3137 398 
Q 2709 -91 1959 -91 
Q 1206 -91 779 398 
Q 353 888 353 1747 
Q 353 2609 779 3096 
Q 1206 3584 1959 3584 
z
" transform="scale(0.015625)"/>
       <path id="DejaVuSans-67" d="M 2906 1791 
Q 2906 2416 2648 2759 
Q 2391 3103 1925 3103 
Q 1463 3103 1205 2759 
Q 947 2416 947 1791 
Q 947 1169 1205 825 
Q 1463 481 1925 481 
Q 2391 481 2648 825 
Q 2906 1169 2906 1791 
z
M 3481 434 
Q 3481 -459 3084 -895 
Q 2688 -1331 1869 -1331 
Q 1566 -1331 1297 -1286 
Q 1028 -1241 775 -1147 
L 775 -588 
Q 1028 -725 1275 -790 
Q 1522 -856 1778 -856 
Q 2344 -856 2625 -561 
Q 2906 -266 2906 331 
L 2906 616 
Q 2728 306 2450 153 
Q 2172 0 1784 0 
Q 1141 0 747 490 
Q 353 981 353 1791 
Q 353 2603 747 3093 
Q 1141 3584 1784 3584 
Q 2172 3584 2450 3431 
Q 2728 3278 2906 2969 
L 2906 3500 
L 3481 3500 
L 3481 434 
z
" transform="scale(0.015625)"/>
       <path id="DejaVuSans-70" d="M 1159 525 
L 1159 -1331 
L 581 -1331 
L 581 3500 
L 1159 3500 
L 1159 2969 
Q 1341 3281 1617 3432 
Q 1894 3584 2278 3584 
Q 2916 3584 3314 3078 
Q 3713 2572 3713 1747 
Q 3713 922 3314 415 
Q 2916 -91 2278 -91 
Q 1894 -91 1617 61 
Q 1341 213 1159 525 
z
M 3116 1747 
Q 3116 2381 2855 2742 
Q 2594 3103 2138 3103 
Q 1681 3103 1420 2742 
Q 1159 2381 1159 1747 
Q 1159 1113 1420 752 
Q 1681 391 2138 391 
Q 2594 391 2855 752 
Q 3116 1113 3116 1747 
z
" transform="scale(0.015625)"/>
       <path id="DejaVuSans-77" d="M 269 3500 
L 844 3500 
L 1563 769 
L 2278 3500 
L 2956 3500 
L 3675 769 
L 4391 3500 
L 4966 3500 
L 4050 0 
L 3372 0 
L 2619 2869 
L 1863 0 
L 1184 0 
L 269 3500 
z
" transform="scale(0.015625)"/>
       <path id="DejaVuSans-64" d="M 2906 2969 
L 2906 4863 
L 3481 4863 
L 3481 0 
L 2906 0 
L 2906 525 
Q 2725 213 2448 61 
Q 2172 -91 1784 -91 
Q 1150 -91 751 415 
Q 353 922 353 1747 
Q 353 2572 751 3078 
Q 1150 3584 1784 3584 
Q 2172 3584 2448 3432 
Q 2725 3281 2906 2969 
z
M 947 1747 
Q 947 1113 1208 752 
Q 1469 391 1925 391 
Q 2381 391 2643 752 
Q 2906 1113 2906 1747 
Q 2906 2381 2643 2742 
Q 2381 3103 1925 3103 
Q 1469 3103 1208 2742 
Q 947 2381 947 1747 
z
" transform="scale(0.015625)"/>
       <path id="DejaVuSans-42" d="M 1259 2228 
L 1259 519 
L 2272 519 
Q 2781 519 3026 730 
Q 3272 941 3272 1375 
Q 3272 1813 3026 2020 
Q 2781 2228 2272 2228 
L 1259 2228 
z
M 1259 4147 
L 1259 2741 
L 2194 2741 
Q 2656 2741 2882 2914 
Q 3109 3088 3109 3444 
Q 3109 3797 2882 3972 
Q 2656 4147 2194 4147 
L 1259 4147 
z
M 628 4666 
L 2241 4666 
Q 2963 4666 3353 4366 
Q 3744 4066 3744 3513 
Q 3744 3084 3544 2831 
Q 3344 2578 2956 2516 
Q 3422 2416 3680 2098 
Q 3938 1781 3938 1306 
Q 3938 681 3513 340 
Q 3088 0 2303 0 
L 628 0 
L 628 4666 
z
" transform="scale(0.015625)"/>
       <path id="DejaVuSans-2f" d="M 1625 4666 
L 2156 4666 
L 531 -594 
L 0 -594 
L 1625 4666 
z
" transform="scale(0.015625)"/>
      </defs>
      <use xlink:href="#DejaVuSans-4c"/>
      <use xlink:href="#DejaVuSans-6f" x="53.962891"/>
      <use xlink:href="#DejaVuSans-67" x="115.144531"/>
      <use xlink:href="#DejaVuSans-20" x="178.621094"/>
      <use xlink:href="#DejaVuSans-70" x="210.408203"/>
      <use xlink:href="#DejaVuSans-6f" x="273.884766"/>
      <use xlink:href="#DejaVuSans-77" x="335.066406"/>
      <use xlink:href="#DejaVuSans-65" x="416.853516"/>
      <use xlink:href="#DejaVuSans-72" x="478.376953"/>
      <use xlink:href="#DejaVuSans-20" x="519.490234"/>
      <use xlink:href="#DejaVuSans-28" x="551.277344"/>
      <use xlink:href="#DejaVuSans-64" x="590.291016"/>
      <use xlink:href="#DejaVuSans-42" x="653.767578"/>
      <use xlink:href="#DejaVuSans-2f" x="722.371094"/>
      <use xlink:href="#DejaVuSans-48" x="756.0625"/>
      <use xlink:href="#DejaVuSans-7a" x="831.257812"/>
      <use xlink:href="#DejaVuSans-29" x="883.748047"/>
     </g>
    </g>
   </g>
   <g id="line2d_8">
    <path d="M 61.764497 66.327535 
L 61.988947 71.236778 
L 62.213396 63.86797 
L 62.437846 61.565669 
L 62.662296 66.756524 
L 62.886745 65.747555 
L 63.111195 58.905052 
L 63.335645 68.703416 
L 63.560095 66.283938 
L 64.008994 63.813924 
L 64.233444 68.967341 
L 64.457893 66.70955 
L 64.682343 61.380021 
L 64.906793 69.865038 
L 65.131242 62.242391 
L 65.580142 63.475145 
L 65.804591 70.515614 
L 66.029041 63.272668 
L 66.253491 61.242611 
L 66.477941 63.287296 
L 66.70239 63.675381 
L 66.92684 59.814572 
L 67.15129 70.784556 
L 67.375739 70.24996 
L 67.600189 64.954938 
L 67.824639 69.441242 
L 68.049088 69.588397 
L 68.273538 67.734038 
L 68.722438 65.801657 
L 68.946887 58.671063 
L 69.171337 66.361793 
L 69.395787 66.319082 
L 69.620236 59.842525 
L 69.844686 71.60891 
L 70.293585 64.530232 
L 70.518035 63.819717 
L 70.742485 74.368336 
L 70.966935 60.024252 
L 71.191384 63.020844 
L 71.415834 76.742701 
L 71.640284 54.191718 
L 71.864733 64.137836 
L 72.089183 68.647055 
L 72.313633 65.960142 
L 72.538082 76.00427 
L 72.762532 71.553949 
L 72.986982 64.079175 
L 73.211431 64.568221 
L 73.435881 64.664799 
L 73.660331 72.176132 
L 73.884781 74.109722 
L 74.10923 62.564613 
L 74.33368 58.718234 
L 74.55813 72.197724 
L 74.782579 73.485719 
L 75.231479 65.095382 
L 75.455928 71.595434 
L 75.680378 60.543942 
L 75.904828 69.917016 
L 76.129278 68.090438 
L 76.353727 70.413997 
L 76.578177 62.696833 
L 77.027076 68.366751 
L 77.251526 61.626201 
L 77.475976 61.096396 
L 77.700425 68.870236 
L 77.924875 62.425632 
L 78.373774 68.353396 
L 78.598224 59.991312 
L 79.047124 67.199912 
L 79.271573 64.086447 
L 79.496023 70.765333 
L 79.720473 83.273626 
L 79.944922 66.705841 
L 80.169372 59.881308 
L 80.393822 62.989931 
L 80.842721 74.720737 
L 81.067171 63.315344 
L 81.291621 67.048951 
L 81.51607 62.844421 
L 81.74052 71.009025 
L 81.96497 64.805611 
L 82.189419 62.999683 
L 82.413869 63.091126 
L 82.638319 65.470282 
L 82.862768 65.713982 
L 83.087218 67.198362 
L 83.536117 63.141102 
L 83.760567 63.651694 
L 84.209467 68.188303 
L 84.433916 73.205455 
L 84.658366 66.587509 
L 84.882816 68.749632 
L 85.107265 61.563908 
L 85.331715 63.025622 
L 85.556165 71.943162 
L 85.780614 66.017833 
L 86.005064 72.55121 
L 86.229514 63.828798 
L 86.453964 63.034819 
L 86.678413 64.684612 
L 86.902863 63.47837 
L 87.127313 60.255755 
L 87.351762 68.64902 
L 87.576212 72.200925 
L 87.800662 63.29084 
L 88.025111 61.882149 
L 88.249561 63.447304 
L 88.474011 67.217841 
L 88.69846 60.070968 
L 89.14736 67.56163 
L 89.37181 67.506658 
L 89.596259 65.731029 
L 89.820709 67.952651 
L 90.045159 66.86603 
L 90.494058 59.925256 
L 90.718508 67.885108 
L 91.167407 61.4745 
L 91.391857 62.994517 
L 91.616307 71.944999 
L 91.840756 71.326841 
L 92.065206 60.039962 
L 92.289656 63.77273 
L 92.514105 63.85188 
L 92.738555 61.502291 
L 92.963005 64.738743 
L 93.187454 74.356569 
L 93.411904 65.918529 
L 93.636354 75.816818 
L 93.860804 61.852329 
L 94.085253 60.492874 
L 94.309703 70.50926 
L 94.534153 66.605097 
L 94.758602 70.229876 
L 94.983052 68.573509 
L 95.431951 61.718571 
L 95.656401 63.419738 
L 95.880851 63.806461 
L 96.1053 65.766068 
L 96.32975 66.44031 
L 96.5542 63.363344 
L 96.77865 62.585536 
L 97.003099 61.067179 
L 97.227549 63.740041 
L 97.451999 70.661432 
L 97.676448 60.970326 
L 97.900898 66.101299 
L 98.125348 62.223317 
L 98.349797 71.44097 
L 98.798697 61.038712 
L 99.023147 57.654524 
L 99.247596 63.957772 
L 99.472046 74.143814 
L 99.920945 62.976336 
L 100.145395 63.06455 
L 100.369845 62.842319 
L 100.594294 57.346527 
L 100.818744 64.956516 
L 101.043194 65.639138 
L 101.267643 60.244964 
L 101.492093 67.378215 
L 101.716543 60.206965 
L 101.940993 60.754337 
L 102.165442 69.113414 
L 102.389892 61.088729 
L 102.614342 60.818897 
L 102.838791 61.654371 
L 103.287691 65.726 
L 103.51214 58.462745 
L 103.73659 75.406461 
L 103.96104 63.062574 
L 104.18549 65.746235 
L 104.409939 71.903276 
L 104.858839 57.2895 
L 105.083288 61.200104 
L 105.307738 67.835335 
L 105.756637 60.72788 
L 105.981087 61.316275 
L 106.205537 64.322579 
L 106.429986 69.431265 
L 106.654436 68.345944 
L 106.878886 64.628136 
L 107.103336 67.26439 
L 107.327785 63.04293 
L 108.001134 65.162837 
L 108.225584 60.171682 
L 108.450034 71.251313 
L 108.674483 59.360025 
L 108.898933 61.893498 
L 109.123383 69.120461 
L 109.347833 68.972366 
L 109.572282 59.260226 
L 109.796732 61.102601 
L 110.021182 65.913024 
L 110.245631 57.613695 
L 110.694531 71.535141 
L 110.91898 60.759879 
L 111.36788 70.751759 
L 111.592329 61.263966 
L 111.816779 65.911891 
L 112.041229 74.010984 
L 112.265679 60.940124 
L 112.490128 61.480809 
L 112.714578 63.192831 
L 112.939028 62.840872 
L 113.163477 58.746382 
L 113.612377 67.447137 
L 113.836826 61.630824 
L 114.061276 58.823826 
L 114.285726 71.014044 
L 114.510176 63.956375 
L 114.734625 64.048215 
L 114.959075 60.710948 
L 115.407974 67.869297 
L 115.632424 63.510974 
L 115.856874 70.719522 
L 116.081323 61.365397 
L 116.530223 74.108836 
L 116.754673 64.575278 
L 116.979122 65.973478 
L 117.203572 63.038774 
L 117.428022 75.757603 
L 117.652471 31.527273 
L 117.876921 74.666575 
L 118.101371 62.893098 
L 118.32582 66.036291 
L 118.55027 64.607809 
L 118.77472 74.577407 
L 119.223619 61.792723 
L 119.448069 70.492713 
L 119.672519 64.019683 
L 119.896968 68.599115 
L 120.345868 61.419879 
L 120.570317 64.301313 
L 120.794767 64.947372 
L 121.019217 71.108533 
L 121.243666 59.533703 
L 121.468116 62.390649 
L 121.692566 68.024598 
L 122.141465 59.67563 
L 122.365915 63.449345 
L 122.590365 64.438475 
L 122.814814 62.714654 
L 123.039264 62.168814 
L 123.263714 76.555678 
L 123.712613 62.454769 
L 123.937063 72.666456 
L 124.385962 62.048081 
L 124.610412 72.763435 
L 124.834862 67.579282 
L 125.059311 59.361679 
L 125.283761 67.555101 
L 125.508211 62.616488 
L 125.73266 61.271132 
L 125.95711 71.411282 
L 126.18156 71.027553 
L 126.406009 63.505704 
L 126.630459 61.113404 
L 126.854909 73.083378 
L 127.079359 62.044054 
L 127.303808 68.275028 
L 127.752708 65.423865 
L 127.977157 65.435409 
L 128.201607 69.626193 
L 128.426057 66.975325 
L 128.650506 70.827236 
L 128.874956 71.443397 
L 129.323855 64.09843 
L 129.548305 63.152385 
L 129.997205 70.003571 
L 130.446104 60.092875 
L 130.895003 76.224752 
L 131.119453 68.747254 
L 131.343903 66.084465 
L 131.568352 77.716689 
L 131.792802 61.558814 
L 132.017252 68.694431 
L 132.466151 64.634259 
L 132.690601 63.731977 
L 132.915051 64.146326 
L 133.1395 71.896531 
L 133.36395 64.051912 
L 133.5884 63.259286 
L 133.812849 69.354239 
L 134.037299 64.351002 
L 134.261749 69.160009 
L 134.486198 68.532538 
L 134.710648 61.211791 
L 134.935098 67.058908 
L 135.159548 67.50995 
L 135.383997 66.756032 
L 135.832897 78.647324 
L 136.281796 61.718248 
L 136.730695 69.887704 
L 136.955145 76.142402 
L 137.179595 66.668661 
L 137.404045 70.097758 
L 137.628494 65.344839 
L 137.852944 73.505971 
L 138.077394 68.406676 
L 138.301843 66.228252 
L 138.750743 68.392978 
L 138.975192 72.348915 
L 139.424092 68.660714 
L 139.648542 68.331083 
L 139.872991 67.723394 
L 140.54634 76.724386 
L 140.77079 71.27562 
L 140.99524 76.87916 
L 141.219689 65.818955 
L 141.444139 66.942388 
L 141.668589 78.810139 
L 141.893038 70.940734 
L 142.117488 78.877244 
L 142.341938 69.946979 
L 142.566388 67.309562 
L 142.790837 69.570923 
L 143.015287 69.209443 
L 143.239737 65.298345 
L 143.464186 75.912408 
L 143.688636 77.340029 
L 143.913086 67.855306 
L 144.137535 68.244306 
L 144.361985 69.751856 
L 144.586435 73.080765 
L 144.810885 66.325024 
L 145.259784 72.503826 
L 145.484234 75.169335 
L 145.708683 73.010298 
L 145.933133 74.154427 
L 146.157583 73.131585 
L 146.382032 70.79811 
L 146.606482 66.857648 
L 146.830932 74.166333 
L 147.055381 70.372295 
L 147.279831 69.057363 
L 147.504281 69.393831 
L 147.728731 78.420146 
L 147.95318 76.414241 
L 148.17763 67.042627 
L 148.40208 70.802418 
L 148.626529 71.398416 
L 148.850979 69.16222 
L 149.075429 72.066487 
L 149.299878 81.153159 
L 149.524328 72.98336 
L 149.748778 80.750179 
L 149.973228 69.543718 
L 150.197677 68.475013 
L 150.422127 78.534799 
L 150.646577 74.013123 
L 150.871026 80.476132 
L 151.095476 78.304799 
L 151.319926 73.581533 
L 151.544375 71.199466 
L 151.768825 71.41853 
L 151.993275 72.321156 
L 152.217724 74.522551 
L 152.442174 75.333941 
L 152.666624 72.478862 
L 152.891074 71.125959 
L 153.115523 70.59937 
L 153.339973 72.693732 
L 153.564423 77.131923 
L 153.788872 70.110488 
L 154.013322 74.541667 
L 154.237772 71.195891 
L 154.462221 79.441393 
L 155.135571 66.619102 
L 155.58447 81.898299 
L 156.033369 72.423281 
L 156.482269 72.66989 
L 156.706718 66.473505 
L 156.931168 74.167619 
L 157.155618 75.368682 
L 157.380067 69.823351 
L 157.604517 75.120185 
L 157.828967 69.129015 
L 158.053417 70.180143 
L 158.277866 77.526335 
L 158.502316 70.123439 
L 158.726766 69.737226 
L 159.175665 72.192338 
L 159.400115 74.743665 
L 159.624564 67.904754 
L 159.849014 83.345566 
L 160.073464 72.170556 
L 160.297914 75.064054 
L 160.522363 79.986214 
L 160.971263 66.340508 
L 161.420162 75.975258 
L 161.644612 74.140475 
L 161.869061 69.747418 
L 162.093511 70.410432 
L 162.317961 73.213416 
L 162.542411 78.398052 
L 162.76686 77.205518 
L 162.99131 74.24113 
L 163.21576 76.189135 
L 163.440209 72.062008 
L 163.664659 72.166511 
L 163.889109 73.547149 
L 164.113558 74.220057 
L 164.338008 68.896975 
L 164.562458 80.763977 
L 164.786907 68.028734 
L 165.011357 70.522276 
L 165.235807 78.181062 
L 165.460257 77.897513 
L 165.684706 67.930475 
L 165.909156 69.694084 
L 166.133606 74.179742 
L 166.358055 66.005053 
L 166.806955 79.31611 
L 167.031404 68.924054 
L 167.480304 79.290332 
L 167.704754 69.280865 
L 167.929203 74.28977 
L 168.153653 82.702019 
L 168.378103 69.016968 
L 168.602552 69.595504 
L 168.827002 71.038923 
L 169.051452 70.722465 
L 169.275901 66.665384 
L 169.724801 76.041601 
L 169.94925 69.724455 
L 170.1737 66.900585 
L 170.39815 78.050438 
L 170.6226 72.073794 
L 170.847049 71.501839 
L 171.071499 68.520442 
L 171.520398 75.151358 
L 171.744848 70.993686 
L 171.969298 76.863806 
L 172.193747 68.885823 
L 172.642647 81.407199 
L 172.867097 71.769849 
L 173.091546 72.880734 
L 173.315996 70.380336 
L 173.540446 82.013093 
L 173.764895 38.729515 
L 173.989345 82.013219 
L 174.213795 70.175934 
L 174.438244 72.561214 
L 174.662694 71.353368 
L 174.887144 82.589603 
L 175.336043 68.679225 
L 175.560493 78.043383 
L 175.784943 70.874583 
L 176.009392 74.555911 
L 176.458292 68.068512 
L 176.682741 71.087565 
L 176.907191 71.730293 
L 177.131641 77.798344 
L 177.35609 66.256951 
L 177.58054 69.131846 
L 177.80499 74.827009 
L 178.253889 66.190383 
L 178.478339 70.246428 
L 178.702789 70.892165 
L 178.927238 69.078342 
L 179.151688 68.370738 
L 179.376138 82.030216 
L 179.825037 68.632247 
L 180.049487 77.994068 
L 180.498386 68.271679 
L 180.722836 79.618957 
L 181.171735 65.087687 
L 181.396185 73.850811 
L 181.620635 68.864902 
L 181.845084 67.069955 
L 182.069534 77.495567 
L 182.293984 77.444532 
L 182.518433 69.449503 
L 182.742883 66.985825 
L 182.967333 79.620332 
L 183.191783 67.886023 
L 183.416232 73.543511 
L 184.089581 71.246117 
L 184.314031 75.437621 
L 184.538481 72.576548 
L 184.76293 76.275654 
L 184.98738 77.105546 
L 185.43628 69.548571 
L 185.660729 68.654654 
L 186.109629 75.493615 
L 186.558528 65.468933 
L 187.007427 79.647528 
L 187.231877 73.627222 
L 187.456327 71.259551 
L 187.680776 82.452746 
L 187.905226 66.798023 
L 188.129676 73.473476 
L 188.803025 68.887954 
L 189.027475 69.477324 
L 189.251924 76.485674 
L 189.476374 69.442011 
L 189.700824 68.278719 
L 189.925273 74.636159 
L 190.149723 69.080273 
L 190.374173 74.42668 
L 190.598623 73.679507 
L 190.823072 66.076824 
L 191.047522 72.095935 
L 191.271972 71.777517 
L 191.496421 71.943165 
L 191.945321 82.779545 
L 192.39422 66.546581 
L 192.843119 74.473735 
L 193.067569 79.972758 
L 193.292019 71.24297 
L 193.516469 74.992952 
L 193.740918 70.140405 
L 193.965368 77.403545 
L 194.189818 72.815018 
L 194.414267 70.963363 
L 194.863167 72.921765 
L 195.087616 75.952614 
L 195.312066 75.030378 
L 195.536516 73.174268 
L 195.760966 72.740558 
L 195.985415 71.886505 
L 195.985415 71.886505 
" clip-path="url(#pc47c221b74)" style="fill: none; stroke: #808080; stroke-width: 0.8; stroke-linecap: square"/>
   </g>
   <g id="line2d_9">
    <path d="M 61.764497 67.60684 
L 62.213396 64.001867 
L 62.437846 64.766906 
L 62.662296 66.528336 
L 62.886745 66.682923 
L 63.111195 61.582935 
L 63.335645 71.703017 
L 63.560095 64.365945 
L 63.784544 68.621595 
L 64.008994 62.591224 
L 64.233444 68.076095 
L 64.457893 63.60918 
L 64.682343 64.279839 
L 64.906793 71.952825 
L 65.131242 65.037519 
L 65.355692 68.662144 
L 65.580142 65.204773 
L 65.804591 68.722677 
L 66.029041 75.032658 
L 66.253491 63.363042 
L 66.477941 69.017677 
L 66.70239 70.049237 
L 66.92684 64.167036 
L 67.15129 73.120535 
L 67.375739 73.281285 
L 67.600189 87.794075 
L 67.824639 69.304844 
L 68.049088 73.188797 
L 68.497988 69.006789 
L 68.722438 70.784524 
L 68.946887 66.448581 
L 69.171337 68.481662 
L 69.395787 71.541353 
L 69.620236 66.396386 
L 69.844686 73.881371 
L 70.069136 72.881128 
L 70.293585 79.23846 
L 70.518035 68.294169 
L 70.742485 83.745141 
L 70.966935 65.364411 
L 71.415834 66.646539 
L 71.640284 53.473427 
L 71.864733 70.156389 
L 72.089183 75.885107 
L 72.313633 75.242294 
L 72.538082 75.629082 
L 72.762532 68.754988 
L 72.986982 70.05116 
L 73.211431 78.870893 
L 73.435881 74.446753 
L 73.660331 72.79963 
L 73.884781 73.193436 
L 74.10923 73.207595 
L 74.33368 69.585097 
L 74.55813 73.978483 
L 74.782579 75.88153 
L 75.007029 68.859609 
L 75.231479 80.261742 
L 75.455928 75.217903 
L 75.680378 76.037698 
L 75.904828 77.359562 
L 76.353727 67.643317 
L 76.578177 82.729711 
L 76.802627 72.912499 
L 77.027076 74.292748 
L 77.475976 70.283173 
L 77.700425 74.168978 
L 77.924875 74.488365 
L 78.149325 71.989439 
L 78.373774 77.921237 
L 78.822674 72.918929 
L 79.047124 73.484618 
L 79.271573 76.455548 
L 79.496023 75.477623 
L 79.720473 73.943459 
L 80.169372 79.293937 
L 80.393822 73.525932 
L 80.618271 84.60114 
L 80.842721 82.069248 
L 81.067171 75.61905 
L 81.291621 78.189339 
L 81.74052 79.196695 
L 81.96497 79.924916 
L 82.189419 88.951431 
L 82.413869 73.966696 
L 82.638319 84.45239 
L 82.862768 72.534748 
L 83.311668 80.026305 
L 83.536117 75.459235 
L 83.760567 83.42552 
L 83.985017 77.10492 
L 84.209467 76.299684 
L 84.433916 92.705343 
L 84.882816 72.353556 
L 85.107265 81.368289 
L 85.331715 77.420886 
L 85.556165 76.677934 
L 85.780614 78.166094 
L 86.005064 80.654786 
L 86.229514 76.372589 
L 86.453964 78.538198 
L 86.678413 86.191592 
L 86.902863 78.111817 
L 87.127313 84.104819 
L 87.351762 77.248683 
L 87.576212 84.716448 
L 87.800662 74.655014 
L 88.025111 78.878039 
L 88.249561 79.221396 
L 88.474011 83.978977 
L 88.69846 80.19591 
L 88.92291 84.237348 
L 89.14736 79.124528 
L 89.37181 83.527785 
L 89.596259 79.859709 
L 89.820709 91.584884 
L 90.045159 78.247551 
L 90.494058 83.335338 
L 90.718508 76.503447 
L 90.942957 77.659999 
L 91.391857 77.553162 
L 91.616307 83.19458 
L 91.840756 85.635239 
L 92.065206 79.431904 
L 92.514105 86.233727 
L 92.738555 84.539664 
L 92.963005 81.269197 
L 93.187454 90.208518 
L 93.411904 81.513288 
L 93.636354 82.572073 
L 93.860804 76.612368 
L 94.085253 82.543672 
L 94.309703 81.904453 
L 94.534153 85.19665 
L 94.758602 79.097805 
L 94.983052 82.153563 
L 95.207502 82.685084 
L 95.431951 76.781047 
L 95.656401 81.39107 
L 95.880851 95.014553 
L 96.1053 80.001755 
L 96.32975 83.888765 
L 96.5542 81.806558 
L 96.77865 82.514421 
L 97.003099 75.054076 
L 97.227549 87.970187 
L 97.451999 77.700023 
L 97.676448 77.872042 
L 97.900898 92.826102 
L 98.125348 95.553919 
L 98.349797 89.475263 
L 98.798697 83.540651 
L 99.023147 85.085933 
L 99.247596 83.034132 
L 99.472046 78.989837 
L 99.696496 87.618288 
L 99.920945 80.770431 
L 100.145395 85.584544 
L 100.369845 79.463526 
L 100.594294 93.03024 
L 100.818744 84.437115 
L 101.043194 86.243587 
L 101.492093 76.719706 
L 101.940993 82.807249 
L 102.165442 85.160064 
L 102.389892 85.803395 
L 102.614342 81.7063 
L 102.838791 93.019333 
L 103.063241 83.354379 
L 103.287691 80.753766 
L 103.51214 91.096546 
L 103.73659 84.314676 
L 103.96104 102.876607 
L 104.18549 88.217936 
L 104.409939 81.26391 
L 104.634389 96.676556 
L 104.858839 91.113113 
L 105.083288 96.392762 
L 105.307738 87.013479 
L 105.532188 88.092419 
L 105.756637 81.294216 
L 105.981087 84.390986 
L 106.205537 85.458294 
L 106.429986 87.8097 
L 106.654436 80.307009 
L 106.878886 92.884167 
L 107.103336 95.695441 
L 107.327785 86.680251 
L 107.552235 84.244431 
L 107.776685 87.808053 
L 108.001134 80.09023 
L 108.225584 79.086094 
L 108.450034 89.474517 
L 108.674483 83.771579 
L 109.123383 87.437106 
L 109.347833 84.893387 
L 109.572282 81.067758 
L 109.796732 86.799525 
L 110.021182 86.420432 
L 110.245631 85.138203 
L 110.470081 93.736499 
L 110.694531 94.998646 
L 110.91898 85.903416 
L 111.14343 97.444447 
L 111.592329 79.320038 
L 111.816779 91.328171 
L 112.041229 87.276246 
L 112.265679 95.415701 
L 112.714578 86.672669 
L 112.939028 87.15051 
L 113.163477 98.063917 
L 113.387927 83.136703 
L 113.612377 88.508594 
L 113.836826 90.210682 
L 114.061276 85.994857 
L 114.285726 87.963571 
L 114.510176 82.338582 
L 114.734625 83.976276 
L 114.959075 88.674772 
L 115.183525 81.195119 
L 115.407974 83.594502 
L 115.632424 95.088022 
L 115.856874 87.695438 
L 116.081323 84.670463 
L 116.305773 97.125614 
L 116.530223 87.065416 
L 116.754673 85.940835 
L 116.979122 84.041877 
L 117.203572 100.659296 
L 117.428022 85.396848 
L 117.876921 89.379871 
L 118.101371 84.656074 
L 118.32582 86.162746 
L 118.55027 84.921684 
L 118.77472 88.470275 
L 118.999169 83.428649 
L 119.223619 88.926337 
L 119.448069 87.570786 
L 119.672519 96.079086 
L 119.896968 87.85444 
L 120.121418 84.127418 
L 120.345868 91.24449 
L 120.570317 92.636518 
L 120.794767 90.586535 
L 121.019217 84.043191 
L 121.243666 82.345716 
L 121.468116 88.051652 
L 121.692566 90.354032 
L 121.917016 84.410676 
L 122.141465 95.383891 
L 122.365915 84.137017 
L 122.590365 87.60618 
L 122.814814 88.083655 
L 123.039264 90.716146 
L 123.263714 88.82811 
L 123.488163 90.811522 
L 123.712613 90.513288 
L 123.937063 91.288358 
L 124.161512 97.808745 
L 124.385962 96.152848 
L 124.610412 96.105645 
L 125.059311 81.583084 
L 125.283761 87.409143 
L 125.508211 88.393505 
L 125.73266 88.488287 
L 125.95711 93.376473 
L 126.18156 86.727459 
L 126.406009 91.367605 
L 126.630459 106.285853 
L 126.854909 95.212868 
L 127.303808 87.764959 
L 127.528258 93.934157 
L 127.752708 89.437031 
L 127.977157 87.330434 
L 128.426057 101.261766 
L 128.650506 86.820328 
L 128.874956 91.05575 
L 129.099406 97.706481 
L 129.323855 96.692982 
L 129.772755 93.634013 
L 129.997205 85.705053 
L 130.221654 89.90847 
L 130.446104 86.770579 
L 130.670554 91.38337 
L 130.895003 83.353961 
L 131.343903 96.065138 
L 131.568352 97.156253 
L 131.792802 95.531076 
L 132.017252 87.685936 
L 132.241702 96.20312 
L 132.466151 86.311053 
L 132.690601 88.825739 
L 132.915051 88.809672 
L 133.1395 98.54383 
L 133.36395 89.507445 
L 133.5884 92.347926 
L 134.037299 86.634106 
L 134.486198 98.465882 
L 134.710648 87.239808 
L 134.935098 99.407179 
L 135.159548 85.123524 
L 135.383997 88.766107 
L 135.608447 88.98689 
L 135.832897 86.439328 
L 136.057346 100.449233 
L 136.281796 92.493636 
L 136.506246 94.506468 
L 136.730695 89.869194 
L 136.955145 89.467327 
L 137.179595 99.249156 
L 137.404045 87.151525 
L 137.628494 98.789784 
L 138.077394 85.832653 
L 138.301843 94.75555 
L 138.526293 90.049035 
L 138.750743 98.022573 
L 138.975192 86.259757 
L 139.199642 91.448346 
L 139.424092 101.334543 
L 139.648542 91.837438 
L 139.872991 87.476068 
L 140.097441 92.540312 
L 140.321891 88.183506 
L 140.54634 92.20162 
L 140.77079 89.971383 
L 140.99524 89.771297 
L 141.219689 89.744481 
L 141.444139 91.519069 
L 141.668589 89.346042 
L 141.893038 100.354399 
L 142.117488 88.066484 
L 142.566388 101.943615 
L 143.015287 97.509825 
L 143.239737 92.586172 
L 143.464186 92.124488 
L 143.688636 94.210269 
L 143.913086 89.056043 
L 144.137535 89.420903 
L 144.361985 93.987709 
L 144.586435 88.454292 
L 144.810885 90.197579 
L 145.035334 89.766175 
L 145.259784 91.325559 
L 145.484234 87.90932 
L 145.933133 93.076366 
L 146.157583 100.884113 
L 146.382032 93.833872 
L 146.606482 92.607634 
L 146.830932 93.22489 
L 147.279831 100.132476 
L 147.504281 94.342458 
L 147.728731 103.34639 
L 147.95318 88.527768 
L 148.17763 88.852795 
L 148.40208 89.594018 
L 148.850979 97.755192 
L 149.299878 96.504007 
L 149.524328 90.770123 
L 149.748778 90.584175 
L 149.973228 90.906475 
L 150.197677 90.583684 
L 150.422127 88.049382 
L 150.871026 103.133652 
L 151.095476 89.160844 
L 151.319926 90.863701 
L 151.544375 89.846549 
L 151.768825 96.316907 
L 151.993275 97.686062 
L 152.217724 89.796037 
L 152.442174 92.718741 
L 152.666624 89.627702 
L 152.891074 91.259454 
L 153.115523 94.690781 
L 153.339973 92.08527 
L 153.564423 99.115698 
L 153.788872 91.006893 
L 154.013322 92.73447 
L 154.237772 90.589301 
L 154.462221 92.086977 
L 154.686671 101.571521 
L 154.911121 97.080994 
L 155.135571 95.24867 
L 155.36002 97.595246 
L 155.58447 101.502747 
L 155.80892 91.660763 
L 156.033369 96.798741 
L 156.257819 93.826802 
L 156.482269 93.694698 
L 156.706718 95.560176 
L 156.931168 101.431189 
L 157.155618 95.395865 
L 157.380067 103.614739 
L 157.828967 91.388218 
L 158.277866 100.704952 
L 158.502316 97.831057 
L 158.951215 90.606265 
L 159.400115 95.810903 
L 159.624564 89.827699 
L 159.849014 99.378338 
L 160.073464 99.53043 
L 160.297914 97.010346 
L 160.522363 97.417315 
L 160.746813 89.662214 
L 161.195712 97.12642 
L 161.420162 93.001112 
L 161.644612 95.136288 
L 161.869061 95.885667 
L 162.093511 93.514611 
L 162.317961 92.328986 
L 162.76686 99.672475 
L 162.99131 89.903781 
L 163.21576 104.561592 
L 163.440209 103.69779 
L 163.889109 93.051422 
L 164.113558 94.02759 
L 164.338008 100.399984 
L 164.786907 92.553279 
L 165.011357 93.738393 
L 165.235807 101.280172 
L 165.684706 91.789873 
L 165.909156 95.852561 
L 166.133606 95.685329 
L 166.358055 96.837463 
L 166.582505 92.556856 
L 166.806955 99.071498 
L 167.031404 100.458379 
L 167.255854 103.320669 
L 167.704754 95.698138 
L 167.929203 95.659344 
L 168.378103 103.797823 
L 168.827002 90.594876 
L 169.051452 97.480919 
L 169.275901 100.481466 
L 169.500351 93.92638 
L 169.724801 91.027841 
L 169.94925 93.064665 
L 170.1737 93.122832 
L 170.39815 102.050609 
L 170.6226 101.590242 
L 170.847049 103.986155 
L 171.071499 104.17356 
L 171.295949 93.181388 
L 171.520398 99.091747 
L 171.969298 89.159988 
L 172.418197 102.386597 
L 172.642647 97.091364 
L 172.867097 97.831335 
L 173.091546 104.942476 
L 173.315996 93.707055 
L 173.764895 91.186032 
L 173.989345 101.001994 
L 174.438244 94.334137 
L 174.662694 95.848492 
L 174.887144 95.286632 
L 175.111593 96.738446 
L 175.336043 96.297931 
L 175.560493 94.526481 
L 175.784943 96.255327 
L 176.009392 90.691731 
L 176.233842 102.028582 
L 176.458292 94.097459 
L 176.682741 99.609541 
L 176.907191 97.637449 
L 177.131641 93.980617 
L 177.35609 96.64624 
L 177.58054 103.99478 
L 177.80499 97.631073 
L 178.02944 98.765847 
L 178.253889 107.778612 
L 178.478339 103.534141 
L 178.702789 94.135306 
L 178.927238 107.606949 
L 179.151688 98.895622 
L 179.376138 105.092824 
L 179.600587 97.741631 
L 179.825037 97.717878 
L 180.049487 92.61378 
L 180.273936 94.851369 
L 180.498386 99.647445 
L 180.722836 95.092658 
L 180.947286 95.637839 
L 181.171735 94.419898 
L 181.396185 97.917812 
L 181.620635 91.02579 
L 181.845084 98.810853 
L 182.069534 92.999982 
L 182.293984 97.428937 
L 182.518433 98.738827 
L 182.742883 90.742046 
L 182.967333 98.635931 
L 183.191783 93.545033 
L 183.640682 106.017981 
L 183.865132 105.213885 
L 184.314031 94.886471 
L 184.538481 109.097879 
L 184.76293 96.641929 
L 184.98738 96.897259 
L 185.21183 90.077399 
L 185.43628 101.012256 
L 185.660729 100.30013 
L 185.885179 98.755901 
L 186.109629 96.000962 
L 186.334078 99.727722 
L 186.558528 91.901342 
L 187.007427 101.060633 
L 187.231877 93.263286 
L 187.456327 96.594983 
L 187.680776 97.656416 
L 187.905226 109.295128 
L 188.354126 96.891495 
L 188.803025 100.59394 
L 189.027475 95.784046 
L 189.251924 94.210186 
L 189.476374 94.042257 
L 189.700824 93.672697 
L 189.925273 112.714126 
L 190.149723 95.016664 
L 190.374173 96.060511 
L 190.598623 95.709722 
L 190.823072 95.782207 
L 191.047522 96.754553 
L 191.496421 94.530183 
L 191.720871 95.162713 
L 192.16977 100.581391 
L 192.39422 106.873101 
L 192.61867 96.368208 
L 192.843119 103.481856 
L 193.067569 102.988053 
L 193.292019 94.12852 
L 193.516469 104.612665 
L 193.740918 96.603557 
L 193.965368 97.117994 
L 194.189818 102.161547 
L 194.414267 99.506239 
L 194.638717 100.077514 
L 194.863167 96.044032 
L 195.087616 99.733414 
L 195.312066 95.34013 
L 195.536516 96.679391 
L 195.760966 100.026479 
L 195.985415 98.347479 
L 195.985415 98.347479 
" clip-path="url(#pc47c221b74)" style="fill: none; stroke: #1e90ff; stroke-width: 0.8; stroke-linecap: square"/>
   </g>
   <g id="line2d_10">
    <path d="M 61.764497 67.384676 
L 62.213396 63.943675 
L 62.437846 64.475376 
L 62.662296 66.47988 
L 62.886745 66.430947 
L 63.111195 61.580729 
L 63.335645 72.150706 
L 63.560095 64.2723 
L 63.784544 68.393233 
L 64.008994 62.524646 
L 64.233444 67.709706 
L 64.457893 63.622899 
L 64.682343 64.341084 
L 64.906793 72.157603 
L 65.131242 64.839904 
L 65.355692 68.5799 
L 65.580142 65.145833 
L 65.804591 68.452173 
L 66.029041 75.167613 
L 66.253491 63.336731 
L 66.477941 69.05624 
L 66.70239 70.288307 
L 66.92684 64.128944 
L 67.15129 73.298097 
L 67.375739 73.287915 
L 67.600189 84.071731 
L 67.824639 69.588966 
L 68.049088 73.23912 
L 68.273538 71.655175 
L 68.497988 69.127942 
L 68.722438 70.888683 
L 68.946887 66.272562 
L 69.395787 71.770812 
L 69.620236 66.33687 
L 69.844686 73.76333 
L 70.069136 72.662346 
L 70.293585 78.866059 
L 70.518035 68.261466 
L 70.742485 82.989741 
L 70.966935 65.393629 
L 71.415834 66.868124 
L 71.640284 53.579836 
L 71.864733 70.086766 
L 72.089183 75.809249 
L 72.313633 75.823737 
L 72.538082 76.141686 
L 72.762532 69.03638 
L 72.986982 70.085297 
L 73.211431 79.033205 
L 73.435881 74.089869 
L 73.660331 72.723904 
L 73.884781 73.518491 
L 74.10923 73.673431 
L 74.33368 69.915885 
L 74.55813 74.163058 
L 74.782579 75.212984 
L 75.007029 69.434708 
L 75.231479 78.782156 
L 75.455928 75.650756 
L 75.904828 77.433873 
L 76.353727 67.65194 
L 76.578177 85.034615 
L 76.802627 73.339017 
L 77.027076 73.840189 
L 77.251526 72.832472 
L 77.475976 70.477079 
L 77.700425 75.192281 
L 77.924875 75.22293 
L 78.149325 71.960534 
L 78.373774 78.5185 
L 78.822674 73.393454 
L 79.047124 73.543354 
L 79.271573 77.711368 
L 79.496023 76.68985 
L 79.720473 74.571681 
L 79.944922 76.33523 
L 80.169372 80.07904 
L 80.393822 73.753608 
L 80.618271 87.037133 
L 81.067171 75.828694 
L 81.291621 77.22983 
L 81.51607 79.404478 
L 81.74052 79.13591 
L 81.96497 81.617544 
L 82.189419 99.097903 
L 82.413869 74.107768 
L 82.638319 83.515777 
L 82.862768 73.465866 
L 83.311668 81.196003 
L 83.536117 76.037592 
L 83.760567 80.288096 
L 83.985017 78.071554 
L 84.209467 77.139229 
L 84.433916 90.30008 
L 84.658366 78.892557 
L 84.882816 73.687933 
L 85.107265 81.71694 
L 85.331715 77.23696 
L 85.556165 77.128267 
L 85.780614 78.814399 
L 86.005064 81.646109 
L 86.229514 77.111747 
L 86.453964 80.862863 
L 86.678413 87.388101 
L 86.902863 79.888741 
L 87.127313 87.700951 
L 87.351762 77.750887 
L 87.576212 88.179527 
L 87.800662 75.680638 
L 88.025111 81.499729 
L 88.249561 79.206836 
L 88.474011 84.283845 
L 88.69846 81.171497 
L 88.92291 84.049557 
L 89.14736 79.746523 
L 89.37181 83.683425 
L 89.596259 80.301315 
L 89.820709 89.989468 
L 90.045159 81.436815 
L 90.269608 80.09925 
L 90.494058 85.497156 
L 90.718508 77.267515 
L 90.942957 79.034848 
L 91.167407 78.878938 
L 91.391857 80.288065 
L 91.616307 84.234367 
L 91.840756 84.095052 
L 92.065206 81.372778 
L 92.289656 86.704847 
L 92.738555 85.605276 
L 92.963005 83.499838 
L 93.187454 87.864104 
L 93.411904 82.379171 
L 93.636354 82.331844 
L 93.860804 77.589381 
L 94.085253 81.231189 
L 94.309703 81.643254 
L 94.534153 85.004973 
L 94.758602 82.545882 
L 94.983052 81.375769 
L 95.207502 85.259194 
L 95.431951 77.076946 
L 95.656401 82.029607 
L 95.880851 92.308819 
L 96.1053 83.383372 
L 96.32975 87.945791 
L 96.5542 81.820292 
L 96.77865 83.645601 
L 97.003099 77.014739 
L 97.227549 97.18364 
L 97.451999 79.749656 
L 97.676448 80.655542 
L 98.125348 94.276311 
L 98.349797 94.324267 
L 98.798697 82.304501 
L 99.023147 85.163897 
L 99.247596 85.330487 
L 99.472046 81.68813 
L 99.696496 84.854154 
L 100.145395 85.779728 
L 100.369845 82.019567 
L 100.594294 95.68446 
L 100.818744 86.267712 
L 101.267643 84.409114 
L 101.492093 79.031544 
L 101.716543 83.133793 
L 101.940993 81.641545 
L 102.389892 90.864754 
L 102.614342 85.557264 
L 102.838791 89.94488 
L 103.063241 89.830687 
L 103.287691 87.719225 
L 103.51214 96.924374 
L 103.73659 84.49974 
L 103.96104 96.330278 
L 104.409939 81.508738 
L 104.634389 92.257295 
L 104.858839 91.882269 
L 105.083288 99.747029 
L 105.307738 89.632668 
L 105.532188 94.789536 
L 105.756637 84.11928 
L 105.981087 84.009726 
L 106.429986 95.302018 
L 106.654436 82.36163 
L 106.878886 93.626484 
L 107.103336 92.676908 
L 107.327785 89.193986 
L 107.552235 79.994187 
L 107.776685 89.631912 
L 108.225584 82.816281 
L 108.450034 94.480329 
L 108.674483 86.354765 
L 108.898933 86.711521 
L 109.123383 94.113434 
L 109.347833 87.120674 
L 109.572282 87.955419 
L 110.021182 93.272957 
L 110.470081 87.512134 
L 110.694531 95.516317 
L 110.91898 88.548582 
L 111.14343 89.437972 
L 111.36788 92.242028 
L 111.592329 83.559233 
L 111.816779 93.796696 
L 112.041229 94.243546 
L 112.265679 99.188494 
L 112.490128 89.226947 
L 112.714578 90.326328 
L 112.939028 88.570456 
L 113.163477 93.771285 
L 113.387927 82.207567 
L 113.612377 90.11893 
L 113.836826 88.987415 
L 114.061276 84.265702 
L 114.285726 87.655026 
L 114.510176 86.565316 
L 114.734625 94.391503 
L 114.959075 87.559818 
L 115.183525 84.164696 
L 115.407974 105.892449 
L 115.632424 89.566126 
L 115.856874 86.616013 
L 116.081323 99.247026 
L 116.305773 90.654122 
L 116.530223 92.147959 
L 116.754673 85.576735 
L 116.979122 90.414834 
L 117.203572 90.997568 
L 117.428022 87.678433 
L 117.652471 67.02787 
L 117.876921 91.477039 
L 118.101371 87.702355 
L 118.32582 89.563241 
L 118.55027 85.558831 
L 118.77472 93.232282 
L 118.999169 85.615622 
L 119.223619 90.990371 
L 119.448069 89.657552 
L 119.672519 94.639155 
L 119.896968 89.05677 
L 120.121418 87.878658 
L 120.345868 90.924245 
L 120.570317 87.718097 
L 120.794767 88.784699 
L 121.019217 85.185106 
L 121.243666 87.946709 
L 121.468116 92.109873 
L 121.692566 86.778351 
L 121.917016 87.955455 
L 122.141465 88.35586 
L 122.365915 85.814454 
L 122.590365 104.12741 
L 122.814814 93.499143 
L 123.039264 109.185842 
L 123.263714 92.27133 
L 123.488163 98.502698 
L 123.712613 88.799179 
L 123.937063 90.279645 
L 124.161512 94.764537 
L 124.385962 93.695887 
L 124.610412 99.068488 
L 125.059311 89.29596 
L 125.283761 94.893592 
L 125.508211 90.731096 
L 125.73266 96.348954 
L 125.95711 97.54958 
L 126.406009 88.184955 
L 126.630459 99.630369 
L 126.854909 105.136703 
L 127.079359 103.54886 
L 127.303808 87.466156 
L 127.528258 88.408759 
L 127.752708 77.336116 
L 127.977157 91.122714 
L 128.426057 101.669821 
L 128.650506 88.707407 
L 128.874956 89.881598 
L 129.099406 89.19563 
L 129.323855 92.070674 
L 129.548305 92.596037 
L 129.772755 90.303043 
L 129.997205 94.779727 
L 130.221654 93.366082 
L 130.446104 88.143549 
L 130.670554 97.896995 
L 130.895003 89.73426 
L 131.119453 88.634419 
L 131.343903 90.625124 
L 131.568352 97.845782 
L 131.792802 94.460857 
L 132.241702 92.907526 
L 132.466151 85.304377 
L 132.915051 102.694865 
L 133.1395 100.778916 
L 133.36395 86.252931 
L 133.5884 89.989468 
L 133.812849 86.108382 
L 134.037299 90.73757 
L 134.261749 90.480834 
L 134.486198 91.811011 
L 134.710648 90.142008 
L 134.935098 86.180378 
L 135.159548 87.870897 
L 135.383997 87.530219 
L 135.608447 86.501134 
L 135.832897 88.073761 
L 136.057346 93.946913 
L 136.281796 89.477406 
L 136.506246 94.246614 
L 136.730695 91.981901 
L 136.955145 95.336453 
L 137.179595 93.207469 
L 137.404045 96.083616 
L 137.628494 88.237973 
L 137.852944 87.62562 
L 138.077394 91.88938 
L 138.301843 91.597011 
L 138.526293 93.499069 
L 138.750743 93.330143 
L 138.975192 98.683917 
L 139.199642 98.274911 
L 139.424092 92.330365 
L 139.648542 94.516707 
L 139.872991 92.259946 
L 140.097441 93.248835 
L 140.321891 91.064476 
L 140.54634 91.293156 
L 140.77079 95.691257 
L 140.99524 91.12089 
L 141.219689 96.49569 
L 141.444139 96.408876 
L 141.668589 95.445394 
L 141.893038 89.526219 
L 142.117488 90.159381 
L 142.341938 110.595873 
L 142.790837 91.766273 
L 143.239737 95.532685 
L 143.464186 92.773389 
L 143.688636 99.794805 
L 144.137535 88.171684 
L 144.361985 92.993902 
L 144.586435 103.52914 
L 144.810885 90.252383 
L 145.035334 94.920057 
L 145.259784 95.578187 
L 145.484234 93.332461 
L 145.708683 99.817443 
L 145.933133 96.288334 
L 146.157583 90.741236 
L 146.382032 92.391969 
L 146.606482 92.989946 
L 146.830932 95.378439 
L 147.055381 99.043344 
L 147.279831 89.436339 
L 147.504281 94.333568 
L 147.95318 91.179513 
L 148.17763 90.922788 
L 148.40208 91.048642 
L 148.626529 97.211091 
L 148.850979 95.775425 
L 149.075429 97.158872 
L 149.299878 91.140636 
L 149.524328 100.329957 
L 149.973228 93.471784 
L 150.197677 92.954995 
L 150.422127 91.173127 
L 150.646577 98.862231 
L 150.871026 91.367345 
L 151.095476 102.423572 
L 151.319926 89.853464 
L 151.544375 97.465945 
L 151.768825 95.740281 
L 151.993275 100.362765 
L 152.217724 91.008642 
L 152.442174 98.328174 
L 152.891074 90.30742 
L 153.115523 90.126897 
L 153.339973 93.241456 
L 153.564423 93.247541 
L 153.788872 88.875813 
L 154.013322 98.307167 
L 154.237772 91.743462 
L 154.462221 91.865307 
L 154.686671 94.237522 
L 154.911121 93.476271 
L 155.135571 96.613056 
L 155.36002 90.028377 
L 155.58447 96.219464 
L 155.80892 95.570718 
L 156.257819 87.981265 
L 156.482269 89.772063 
L 156.706718 96.620855 
L 157.380067 87.665012 
L 157.604517 88.590556 
L 157.828967 87.318476 
L 158.053417 90.037728 
L 158.277866 88.282411 
L 158.502316 103.001223 
L 158.726766 91.023941 
L 158.951215 89.001922 
L 159.175665 101.501761 
L 159.624564 89.438213 
L 159.849014 94.522193 
L 160.073464 95.194908 
L 160.297914 91.018046 
L 160.522363 96.849525 
L 160.746813 91.806039 
L 160.971263 92.777158 
L 161.195712 91.72455 
L 161.420162 96.899836 
L 161.644612 91.04488 
L 161.869061 92.127314 
L 162.093511 103.927348 
L 162.317961 90.833737 
L 162.542411 92.444327 
L 162.76686 91.453507 
L 162.99131 92.894354 
L 163.21576 92.329651 
L 163.440209 94.165797 
L 163.664659 78.57207 
L 163.889109 91.639416 
L 164.113558 86.186537 
L 164.338008 97.187548 
L 164.562458 92.091208 
L 164.786907 90.995889 
L 165.011357 93.30064 
L 165.235807 89.262575 
L 165.460257 92.655486 
L 165.684706 104.853548 
L 165.909156 92.020616 
L 166.133606 104.306508 
L 166.358055 100.217717 
L 166.582505 93.108381 
L 166.806955 92.853371 
L 167.031404 91.893445 
L 167.255854 92.584039 
L 167.480304 95.965546 
L 167.704754 94.464671 
L 167.929203 95.198526 
L 168.153653 93.166268 
L 168.378103 94.576846 
L 168.602552 97.184698 
L 168.827002 95.657463 
L 169.051452 101.215883 
L 169.500351 91.013689 
L 169.724801 93.783935 
L 169.94925 91.545583 
L 170.1737 93.186149 
L 170.39815 90.63416 
L 170.6226 90.622863 
L 170.847049 98.177818 
L 171.071499 92.067318 
L 171.295949 98.237105 
L 171.520398 92.020611 
L 171.744848 103.908102 
L 171.969298 102.503073 
L 172.193747 92.271961 
L 172.418197 97.908272 
L 172.642647 124.472727 
L 172.867097 90.926707 
L 173.091546 91.353952 
L 173.315996 95.783872 
L 173.540446 90.737411 
L 173.764895 75.22713 
L 173.989345 103.310678 
L 174.438244 93.346836 
L 174.662694 98.756557 
L 174.887144 94.328232 
L 175.111593 92.423622 
L 175.336043 91.525536 
L 175.560493 102.388806 
L 176.233842 93.569954 
L 176.458292 98.99566 
L 176.682741 93.757457 
L 176.907191 107.285413 
L 177.131641 88.161851 
L 177.58054 94.46814 
L 177.80499 99.532541 
L 178.02944 95.178591 
L 178.253889 93.400976 
L 178.478339 90.614741 
L 178.702789 90.264683 
L 178.927238 102.597632 
L 179.151688 90.632109 
L 179.376138 103.160683 
L 179.600587 95.932238 
L 179.825037 96.953311 
L 180.049487 92.230139 
L 180.273936 98.746458 
L 180.498386 101.254467 
L 180.722836 96.074077 
L 180.947286 93.808329 
L 181.171735 88.632553 
L 181.396185 93.636877 
L 181.620635 92.275699 
L 181.845084 92.529807 
L 182.069534 93.952559 
L 182.293984 96.279328 
L 182.742883 90.243493 
L 182.967333 97.990708 
L 183.191783 90.094291 
L 183.416232 94.552526 
L 183.640682 93.894407 
L 183.865132 81.719679 
L 184.089581 103.276622 
L 184.76293 93.159392 
L 184.98738 92.24163 
L 185.21183 92.560163 
L 185.43628 94.861538 
L 185.660729 94.023046 
L 185.885179 95.037974 
L 186.109629 94.309533 
L 186.334078 98.697591 
L 186.558528 97.551538 
L 186.782978 93.701083 
L 187.007427 92.239138 
L 187.231877 91.951279 
L 187.456327 96.635264 
L 187.680776 96.080078 
L 187.905226 92.973366 
L 188.129676 96.887486 
L 188.354126 98.245256 
L 188.578575 94.54381 
L 188.803025 103.792503 
L 189.476374 88.873431 
L 189.700824 93.986696 
L 189.925273 93.899162 
L 190.149723 90.720129 
L 190.374173 99.704513 
L 190.598623 88.496727 
L 190.823072 98.453561 
L 191.047522 99.232809 
L 191.271972 90.712529 
L 191.496421 101.244129 
L 191.720871 102.47078 
L 191.945321 92.589021 
L 192.16977 96.453445 
L 192.39422 92.999502 
L 192.843119 102.337434 
L 193.067569 94.854674 
L 193.292019 91.640034 
L 193.516469 93.480601 
L 193.740918 96.821769 
L 193.965368 102.789074 
L 194.189818 89.901205 
L 194.414267 103.307195 
L 194.638717 94.795204 
L 194.863167 95.498739 
L 195.087616 97.735106 
L 195.312066 94.56642 
L 195.536516 121.806325 
L 195.760966 96.922995 
L 195.985415 92.959422 
L 195.985415 92.959422 
" clip-path="url(#pc47c221b74)" style="fill: none; stroke: #ff0000; stroke-width: 0.8; stroke-linecap: square"/>
   </g>
   <g id="patch_3">
    <path d="M 59.52 129.12 
L 59.52 26.88 
" style="fill: none; stroke: #000000; stroke-width: 0.8; stroke-linejoin: miter; stroke-linecap: square"/>
   </g>
   <g id="patch_4">
    <path d="M 198.454362 129.12 
L 198.454362 26.88 
" style="fill: none; stroke: #000000; stroke-width: 0.8; stroke-linejoin: miter; stroke-linecap: square"/>
   </g>
   <g id="patch_5">
    <path d="M 59.52 129.12 
L 198.454362 129.12 
" style="fill: none; stroke: #000000; stroke-width: 0.8; stroke-linejoin: miter; stroke-linecap: square"/>
   </g>
   <g id="patch_6">
    <path d="M 59.52 26.88 
L 198.454362 26.88 
" style="fill: none; stroke: #000000; stroke-width: 0.8; stroke-linejoin: miter; stroke-linecap: square"/>
   </g>
   <g id="text_10">
    <!-- Frequency Domain Plot -->
    <g transform="translate(59.587806 20.88) scale(0.12 -0.12)">
     <defs>
      <path id="DejaVuSans-44" d="M 1259 4147 
L 1259 519 
L 2022 519 
Q 2988 519 3436 956 
Q 3884 1394 3884 2338 
Q 3884 3275 3436 3711 
Q 2988 4147 2022 4147 
L 1259 4147 
z
M 628 4666 
L 1925 4666 
Q 3281 4666 3915 4102 
Q 4550 3538 4550 2338 
Q 4550 1131 3912 565 
Q 3275 0 1925 0 
L 628 0 
L 628 4666 
z
" transform="scale(0.015625)"/>
      <path id="DejaVuSans-6d" d="M 3328 2828 
Q 3544 3216 3844 3400 
Q 4144 3584 4550 3584 
Q 5097 3584 5394 3201 
Q 5691 2819 5691 2113 
L 5691 0 
L 5113 0 
L 5113 2094 
Q 5113 2597 4934 2840 
Q 4756 3084 4391 3084 
Q 3944 3084 3684 2787 
Q 3425 2491 3425 1978 
L 3425 0 
L 2847 0 
L 2847 2094 
Q 2847 2600 2669 2842 
Q 2491 3084 2119 3084 
Q 1678 3084 1418 2786 
Q 1159 2488 1159 1978 
L 1159 0 
L 581 0 
L 581 3500 
L 1159 3500 
L 1159 2956 
Q 1356 3278 1631 3431 
Q 1906 3584 2284 3584 
Q 2666 3584 2933 3390 
Q 3200 3197 3328 2828 
z
" transform="scale(0.015625)"/>
      <path id="DejaVuSans-61" d="M 2194 1759 
Q 1497 1759 1228 1600 
Q 959 1441 959 1056 
Q 959 750 1161 570 
Q 1363 391 1709 391 
Q 2188 391 2477 730 
Q 2766 1069 2766 1631 
L 2766 1759 
L 2194 1759 
z
M 3341 1997 
L 3341 0 
L 2766 0 
L 2766 531 
Q 2569 213 2275 61 
Q 1981 -91 1556 -91 
Q 1019 -91 701 211 
Q 384 513 384 1019 
Q 384 1609 779 1909 
Q 1175 2209 1959 2209 
L 2766 2209 
L 2766 2266 
Q 2766 2663 2505 2880 
Q 2244 3097 1772 3097 
Q 1472 3097 1187 3025 
Q 903 2953 641 2809 
L 641 3341 
Q 956 3463 1253 3523 
Q 1550 3584 1831 3584 
Q 2591 3584 2966 3190 
Q 3341 2797 3341 1997 
z
" transform="scale(0.015625)"/>
      <path id="DejaVuSans-69" d="M 603 3500 
L 1178 3500 
L 1178 0 
L 603 0 
L 603 3500 
z
M 603 4863 
L 1178 4863 
L 1178 4134 
L 603 4134 
L 603 4863 
z
" transform="scale(0.015625)"/>
      <path id="DejaVuSans-50" d="M 1259 4147 
L 1259 2394 
L 2053 2394 
Q 2494 2394 2734 2622 
Q 2975 2850 2975 3272 
Q 2975 3691 2734 3919 
Q 2494 4147 2053 4147 
L 1259 4147 
z
M 628 4666 
L 2053 4666 
Q 2838 4666 3239 4311 
Q 3641 3956 3641 3272 
Q 3641 2581 3239 2228 
Q 2838 1875 2053 1875 
L 1259 1875 
L 1259 0 
L 628 0 
L 628 4666 
z
" transform="scale(0.015625)"/>
      <path id="DejaVuSans-6c" d="M 603 4863 
L 1178 4863 
L 1178 0 
L 603 0 
L 603 4863 
z
" transform="scale(0.015625)"/>
      <path id="DejaVuSans-74" d="M 1172 4494 
L 1172 3500 
L 2356 3500 
L 2356 3053 
L 1172 3053 
L 1172 1153 
Q 1172 725 1289 603 
Q 1406 481 1766 481 
L 2356 481 
L 2356 0 
L 1766 0 
Q 1100 0 847 248 
Q 594 497 594 1153 
L 594 3053 
L 172 3053 
L 172 3500 
L 594 3500 
L 594 4494 
L 1172 4494 
z
" transform="scale(0.015625)"/>
     </defs>
     <use xlink:href="#DejaVuSans-46"/>
     <use xlink:href="#DejaVuSans-72" x="50.269531"/>
     <use xlink:href="#DejaVuSans-65" x="89.132812"/>
     <use xlink:href="#DejaVuSans-71" x="150.65625"/>
     <use xlink:href="#DejaVuSans-75" x="214.132812"/>
     <use xlink:href="#DejaVuSans-65" x="277.511719"/>
     <use xlink:href="#DejaVuSans-6e" x="339.035156"/>
     <use xlink:href="#DejaVuSans-63" x="402.414062"/>
     <use xlink:href="#DejaVuSans-79" x="457.394531"/>
     <use xlink:href="#DejaVuSans-20" x="516.574219"/>
     <use xlink:href="#DejaVuSans-44" x="548.361328"/>
     <use xlink:href="#DejaVuSans-6f" x="625.363281"/>
     <use xlink:href="#DejaVuSans-6d" x="686.544922"/>
     <use xlink:href="#DejaVuSans-61" x="783.957031"/>
     <use xlink:href="#DejaVuSans-69" x="845.236328"/>
     <use xlink:href="#DejaVuSans-6e" x="873.019531"/>
     <use xlink:href="#DejaVuSans-20" x="936.398438"/>
     <use xlink:href="#DejaVuSans-50" x="968.185547"/>
     <use xlink:href="#DejaVuSans-6c" x="1028.488281"/>
     <use xlink:href="#DejaVuSans-6f" x="1056.271484"/>
     <use xlink:href="#DejaVuSans-74" x="1117.453125"/>
    </g>
   </g>
   <g id="legend_1">
    <g id="patch_7">
     <path d="M 19.939691 158.292 
L 50.807816 158.292 
Q 51.407816 158.292 51.407816 157.692 
L 51.407816 144.781688 
Q 51.407816 144.181688 50.807816 144.181688 
L 19.939691 144.181688 
Q 19.339691 144.181688 19.339691 144.781688 
L 19.339691 157.692 
Q 19.339691 158.292 19.939691 158.292 
z
" style="fill: #ffffff; opacity: 0.8; stroke: #cccccc; stroke-linejoin: miter"/>
    </g>
    <g id="line2d_11">
     <path d="M 20.539691 146.611219 
L 23.539691 146.611219 
L 26.539691 146.611219 
" style="fill: none; stroke: #808080; stroke-width: 0.8; stroke-linecap: square"/>
    </g>
    <g id="text_11">
     <!-- Contaminated -->
     <g transform="translate(28.939691 147.661219) scale(0.03 -0.03)">
      <defs>
       <path id="DejaVuSans-43" d="M 4122 4306 
L 4122 3641 
Q 3803 3938 3442 4084 
Q 3081 4231 2675 4231 
Q 1875 4231 1450 3742 
Q 1025 3253 1025 2328 
Q 1025 1406 1450 917 
Q 1875 428 2675 428 
Q 3081 428 3442 575 
Q 3803 722 4122 1019 
L 4122 359 
Q 3791 134 3420 21 
Q 3050 -91 2638 -91 
Q 1578 -91 968 557 
Q 359 1206 359 2328 
Q 359 3453 968 4101 
Q 1578 4750 2638 4750 
Q 3056 4750 3426 4639 
Q 3797 4528 4122 4306 
z
" transform="scale(0.015625)"/>
      </defs>
      <use xlink:href="#DejaVuSans-43"/>
      <use xlink:href="#DejaVuSans-6f" x="69.824219"/>
      <use xlink:href="#DejaVuSans-6e" x="131.005859"/>
      <use xlink:href="#DejaVuSans-74" x="194.384766"/>
      <use xlink:href="#DejaVuSans-61" x="233.59375"/>
      <use xlink:href="#DejaVuSans-6d" x="294.873047"/>
      <use xlink:href="#DejaVuSans-69" x="392.285156"/>
      <use xlink:href="#DejaVuSans-6e" x="420.068359"/>
      <use xlink:href="#DejaVuSans-61" x="483.447266"/>
      <use xlink:href="#DejaVuSans-74" x="544.726562"/>
      <use xlink:href="#DejaVuSans-65" x="583.935547"/>
      <use xlink:href="#DejaVuSans-64" x="645.458984"/>
     </g>
    </g>
    <g id="line2d_12">
     <path d="M 20.539691 151.014656 
L 23.539691 151.014656 
L 26.539691 151.014656 
" style="fill: none; stroke: #1e90ff; stroke-width: 0.8; stroke-linecap: square"/>
    </g>
    <g id="text_12">
     <!-- Clean -->
     <g transform="translate(28.939691 152.064656) scale(0.03 -0.03)">
      <use xlink:href="#DejaVuSans-43"/>
      <use xlink:href="#DejaVuSans-6c" x="69.824219"/>
      <use xlink:href="#DejaVuSans-65" x="97.607422"/>
      <use xlink:href="#DejaVuSans-61" x="159.130859"/>
      <use xlink:href="#DejaVuSans-6e" x="220.410156"/>
     </g>
    </g>
    <g id="line2d_13">
     <path d="M 20.539691 155.418094 
L 23.539691 155.418094 
L 26.539691 155.418094 
" style="fill: none; stroke: #ff0000; stroke-width: 0.8; stroke-linecap: square"/>
    </g>
    <g id="text_13">
     <!-- SACed -->
     <g transform="translate(28.939691 156.468094) scale(0.03 -0.03)">
      <defs>
       <path id="DejaVuSans-53" d="M 3425 4513 
L 3425 3897 
Q 3066 4069 2747 4153 
Q 2428 4238 2131 4238 
Q 1616 4238 1336 4038 
Q 1056 3838 1056 3469 
Q 1056 3159 1242 3001 
Q 1428 2844 1947 2747 
L 2328 2669 
Q 3034 2534 3370 2195 
Q 3706 1856 3706 1288 
Q 3706 609 3251 259 
Q 2797 -91 1919 -91 
Q 1588 -91 1214 -16 
Q 841 59 441 206 
L 441 856 
Q 825 641 1194 531 
Q 1563 422 1919 422 
Q 2459 422 2753 634 
Q 3047 847 3047 1241 
Q 3047 1584 2836 1778 
Q 2625 1972 2144 2069 
L 1759 2144 
Q 1053 2284 737 2584 
Q 422 2884 422 3419 
Q 422 4038 858 4394 
Q 1294 4750 2059 4750 
Q 2388 4750 2728 4690 
Q 3069 4631 3425 4513 
z
" transform="scale(0.015625)"/>
       <path id="DejaVuSans-41" d="M 2188 4044 
L 1331 1722 
L 3047 1722 
L 2188 4044 
z
M 1831 4666 
L 2547 4666 
L 4325 0 
L 3669 0 
L 3244 1197 
L 1141 1197 
L 716 0 
L 50 0 
L 1831 4666 
z
" transform="scale(0.015625)"/>
      </defs>
      <use xlink:href="#DejaVuSans-53"/>
      <use xlink:href="#DejaVuSans-41" x="65.351562"/>
      <use xlink:href="#DejaVuSans-43" x="132.009766"/>
      <use xlink:href="#DejaVuSans-65" x="201.833984"/>
      <use xlink:href="#DejaVuSans-64" x="263.357422"/>
     </g>
    </g>
   </g>
  </g>
 </g>
 <defs>
  <clipPath id="pc47c221b74">
   <rect x="59.52" y="26.88" width="138.934362" height="102.24"/>
  </clipPath>
 </defs>
</svg>
