<?xml version="1.0" encoding="utf-8" standalone="no"?>
<!DOCTYPE svg PUBLIC "-//W3C//DTD SVG 1.1//EN"
  "http://www.w3.org/Graphics/SVG/1.1/DTD/svg11.dtd">
<svg xmlns:xlink="http://www.w3.org/1999/xlink" width="216pt" height="180pt" viewBox="0 0 216 180" xmlns="http://www.w3.org/2000/svg" version="1.1">
 <metadata>
  <rdf:RDF xmlns:dc="http://purl.org/dc/elements/1.1/" xmlns:cc="http://creativecommons.org/ns#" xmlns:rdf="http://www.w3.org/1999/02/22-rdf-syntax-ns#">
   <cc:Work>
    <dc:type rdf:resource="http://purl.org/dc/dcmitype/StillImage"/>
    <dc:date>2024-08-24T17:08:35.497934</dc:date>
    <dc:format>image/svg+xml</dc:format>
    <dc:creator>
     <cc:Agent>
      <dc:title>Matplotlib v3.9.1, https://matplotlib.org/</dc:title>
     </cc:Agent>
    </dc:creator>
   </cc:Work>
  </rdf:RDF>
 </metadata>
 <defs>
  <style type="text/css">*{stroke-linejoin: round; stroke-linecap: butt}</style>
 </defs>
 <g id="figure_1">
  <g id="patch_1">
   <path d="M 0 180 
L 216 180 
L 216 0 
L 0 0 
z
" style="fill: #ffffff"/>
  </g>
  <g id="axes_1">
   <g id="patch_2">
    <path d="M 59.52 129.12 
L 197.469952 129.12 
L 197.469952 26.88 
L 59.52 26.88 
z
" style="fill: #ffffff"/>
   </g>
   <g id="matplotlib.axis_1">
    <g id="xtick_1">
     <g id="line2d_1">
      <defs>
       <path id="m3dd0bdc627" d="M 0 0 
L 0 3.5 
" style="stroke: #000000; stroke-width: 0.8"/>
      </defs>
      <g>
       <use xlink:href="#m3dd0bdc627" x="62.106562" y="129.12" style="stroke: #000000; stroke-width: 0.8"/>
      </g>
     </g>
     <g id="text_1">
      <!-- 1.00 -->
      <g transform="translate(50.973749 143.718437) scale(0.1 -0.1)">
       <defs>
        <path id="DejaVuSans-31" d="M 794 531 
L 1825 531 
L 1825 4091 
L 703 3866 
L 703 4441 
L 1819 4666 
L 2450 4666 
L 2450 531 
L 3481 531 
L 3481 0 
L 794 0 
L 794 531 
z
" transform="scale(0.015625)"/>
        <path id="DejaVuSans-2e" d="M 684 794 
L 1344 794 
L 1344 0 
L 684 0 
L 684 794 
z
" transform="scale(0.015625)"/>
        <path id="DejaVuSans-30" d="M 2034 4250 
Q 1547 4250 1301 3770 
Q 1056 3291 1056 2328 
Q 1056 1369 1301 889 
Q 1547 409 2034 409 
Q 2525 409 2770 889 
Q 3016 1369 3016 2328 
Q 3016 3291 2770 3770 
Q 2525 4250 2034 4250 
z
M 2034 4750 
Q 2819 4750 3233 4129 
Q 3647 3509 3647 2328 
Q 3647 1150 3233 529 
Q 2819 -91 2034 -91 
Q 1250 -91 836 529 
Q 422 1150 422 2328 
Q 422 3509 836 4129 
Q 1250 4750 2034 4750 
z
" transform="scale(0.015625)"/>
       </defs>
       <use xlink:href="#DejaVuSans-31"/>
       <use xlink:href="#DejaVuSans-2e" x="63.623047"/>
       <use xlink:href="#DejaVuSans-30" x="95.410156"/>
       <use xlink:href="#DejaVuSans-30" x="159.033203"/>
      </g>
     </g>
    </g>
    <g id="xtick_2">
     <g id="line2d_2">
      <g>
       <use xlink:href="#m3dd0bdc627" x="128.412073" y="129.12" style="stroke: #000000; stroke-width: 0.8"/>
      </g>
     </g>
     <g id="text_2">
      <!-- 1.25 -->
      <g transform="translate(117.279261 143.718437) scale(0.1 -0.1)">
       <defs>
        <path id="DejaVuSans-32" d="M 1228 531 
L 3431 531 
L 3431 0 
L 469 0 
L 469 531 
Q 828 903 1448 1529 
Q 2069 2156 2228 2338 
Q 2531 2678 2651 2914 
Q 2772 3150 2772 3378 
Q 2772 3750 2511 3984 
Q 2250 4219 1831 4219 
Q 1534 4219 1204 4116 
Q 875 4013 500 3803 
L 500 4441 
Q 881 4594 1212 4672 
Q 1544 4750 1819 4750 
Q 2544 4750 2975 4387 
Q 3406 4025 3406 3419 
Q 3406 3131 3298 2873 
Q 3191 2616 2906 2266 
Q 2828 2175 2409 1742 
Q 1991 1309 1228 531 
z
" transform="scale(0.015625)"/>
        <path id="DejaVuSans-35" d="M 691 4666 
L 3169 4666 
L 3169 4134 
L 1269 4134 
L 1269 2991 
Q 1406 3038 1543 3061 
Q 1681 3084 1819 3084 
Q 2600 3084 3056 2656 
Q 3513 2228 3513 1497 
Q 3513 744 3044 326 
Q 2575 -91 1722 -91 
Q 1428 -91 1123 -41 
Q 819 9 494 109 
L 494 744 
Q 775 591 1075 516 
Q 1375 441 1709 441 
Q 2250 441 2565 725 
Q 2881 1009 2881 1497 
Q 2881 1984 2565 2268 
Q 2250 2553 1709 2553 
Q 1456 2553 1204 2497 
Q 953 2441 691 2322 
L 691 4666 
z
" transform="scale(0.015625)"/>
       </defs>
       <use xlink:href="#DejaVuSans-31"/>
       <use xlink:href="#DejaVuSans-2e" x="63.623047"/>
       <use xlink:href="#DejaVuSans-32" x="95.410156"/>
       <use xlink:href="#DejaVuSans-35" x="159.033203"/>
      </g>
     </g>
    </g>
    <g id="xtick_3">
     <g id="line2d_3">
      <g>
       <use xlink:href="#m3dd0bdc627" x="194.717585" y="129.12" style="stroke: #000000; stroke-width: 0.8"/>
      </g>
     </g>
     <g id="text_3">
      <!-- 1.50 -->
      <g transform="translate(183.584773 143.718437) scale(0.1 -0.1)">
       <use xlink:href="#DejaVuSans-31"/>
       <use xlink:href="#DejaVuSans-2e" x="63.623047"/>
       <use xlink:href="#DejaVuSans-35" x="95.410156"/>
       <use xlink:href="#DejaVuSans-30" x="159.033203"/>
      </g>
     </g>
    </g>
    <g id="text_4">
     <!-- Time (s) -->
     <g transform="translate(108.16607 157.396563) scale(0.1 -0.1)">
      <defs>
       <path id="DejaVuSans-54" d="M -19 4666 
L 3928 4666 
L 3928 4134 
L 2272 4134 
L 2272 0 
L 1638 0 
L 1638 4134 
L -19 4134 
L -19 4666 
z
" transform="scale(0.015625)"/>
       <path id="DejaVuSans-69" d="M 603 3500 
L 1178 3500 
L 1178 0 
L 603 0 
L 603 3500 
z
M 603 4863 
L 1178 4863 
L 1178 4134 
L 603 4134 
L 603 4863 
z
" transform="scale(0.015625)"/>
       <path id="DejaVuSans-6d" d="M 3328 2828 
Q 3544 3216 3844 3400 
Q 4144 3584 4550 3584 
Q 5097 3584 5394 3201 
Q 5691 2819 5691 2113 
L 5691 0 
L 5113 0 
L 5113 2094 
Q 5113 2597 4934 2840 
Q 4756 3084 4391 3084 
Q 3944 3084 3684 2787 
Q 3425 2491 3425 1978 
L 3425 0 
L 2847 0 
L 2847 2094 
Q 2847 2600 2669 2842 
Q 2491 3084 2119 3084 
Q 1678 3084 1418 2786 
Q 1159 2488 1159 1978 
L 1159 0 
L 581 0 
L 581 3500 
L 1159 3500 
L 1159 2956 
Q 1356 3278 1631 3431 
Q 1906 3584 2284 3584 
Q 2666 3584 2933 3390 
Q 3200 3197 3328 2828 
z
" transform="scale(0.015625)"/>
       <path id="DejaVuSans-65" d="M 3597 1894 
L 3597 1613 
L 953 1613 
Q 991 1019 1311 708 
Q 1631 397 2203 397 
Q 2534 397 2845 478 
Q 3156 559 3463 722 
L 3463 178 
Q 3153 47 2828 -22 
Q 2503 -91 2169 -91 
Q 1331 -91 842 396 
Q 353 884 353 1716 
Q 353 2575 817 3079 
Q 1281 3584 2069 3584 
Q 2775 3584 3186 3129 
Q 3597 2675 3597 1894 
z
M 3022 2063 
Q 3016 2534 2758 2815 
Q 2500 3097 2075 3097 
Q 1594 3097 1305 2825 
Q 1016 2553 972 2059 
L 3022 2063 
z
" transform="scale(0.015625)"/>
       <path id="DejaVuSans-20" transform="scale(0.015625)"/>
       <path id="DejaVuSans-28" d="M 1984 4856 
Q 1566 4138 1362 3434 
Q 1159 2731 1159 2009 
Q 1159 1288 1364 580 
Q 1569 -128 1984 -844 
L 1484 -844 
Q 1016 -109 783 600 
Q 550 1309 550 2009 
Q 550 2706 781 3412 
Q 1013 4119 1484 4856 
L 1984 4856 
z
" transform="scale(0.015625)"/>
       <path id="DejaVuSans-73" d="M 2834 3397 
L 2834 2853 
Q 2591 2978 2328 3040 
Q 2066 3103 1784 3103 
Q 1356 3103 1142 2972 
Q 928 2841 928 2578 
Q 928 2378 1081 2264 
Q 1234 2150 1697 2047 
L 1894 2003 
Q 2506 1872 2764 1633 
Q 3022 1394 3022 966 
Q 3022 478 2636 193 
Q 2250 -91 1575 -91 
Q 1294 -91 989 -36 
Q 684 19 347 128 
L 347 722 
Q 666 556 975 473 
Q 1284 391 1588 391 
Q 1994 391 2212 530 
Q 2431 669 2431 922 
Q 2431 1156 2273 1281 
Q 2116 1406 1581 1522 
L 1381 1569 
Q 847 1681 609 1914 
Q 372 2147 372 2553 
Q 372 3047 722 3315 
Q 1072 3584 1716 3584 
Q 2034 3584 2315 3537 
Q 2597 3491 2834 3397 
z
" transform="scale(0.015625)"/>
       <path id="DejaVuSans-29" d="M 513 4856 
L 1013 4856 
Q 1481 4119 1714 3412 
Q 1947 2706 1947 2009 
Q 1947 1309 1714 600 
Q 1481 -109 1013 -844 
L 513 -844 
Q 928 -128 1133 580 
Q 1338 1288 1338 2009 
Q 1338 2731 1133 3434 
Q 928 4138 513 4856 
z
" transform="scale(0.015625)"/>
      </defs>
      <use xlink:href="#DejaVuSans-54"/>
      <use xlink:href="#DejaVuSans-69" x="57.958984"/>
      <use xlink:href="#DejaVuSans-6d" x="85.742188"/>
      <use xlink:href="#DejaVuSans-65" x="183.154297"/>
      <use xlink:href="#DejaVuSans-20" x="244.677734"/>
      <use xlink:href="#DejaVuSans-28" x="276.464844"/>
      <use xlink:href="#DejaVuSans-73" x="315.478516"/>
      <use xlink:href="#DejaVuSans-29" x="367.578125"/>
     </g>
    </g>
   </g>
   <g id="matplotlib.axis_2">
    <g id="ytick_1">
     <g id="line2d_4">
      <defs>
       <path id="mee4fd51ffd" d="M 0 0 
L -3.5 0 
" style="stroke: #000000; stroke-width: 0.8"/>
      </defs>
      <g>
       <use xlink:href="#mee4fd51ffd" x="59.52" y="114.685171" style="stroke: #000000; stroke-width: 0.8"/>
      </g>
     </g>
     <g id="text_5">
      <!-- −40 -->
      <g transform="translate(31.415312 118.484389) scale(0.1 -0.1)">
       <defs>
        <path id="DejaVuSans-2212" d="M 678 2272 
L 4684 2272 
L 4684 1741 
L 678 1741 
L 678 2272 
z
" transform="scale(0.015625)"/>
        <path id="DejaVuSans-34" d="M 2419 4116 
L 825 1625 
L 2419 1625 
L 2419 4116 
z
M 2253 4666 
L 3047 4666 
L 3047 1625 
L 3713 1625 
L 3713 1100 
L 3047 1100 
L 3047 0 
L 2419 0 
L 2419 1100 
L 313 1100 
L 313 1709 
L 2253 4666 
z
" transform="scale(0.015625)"/>
       </defs>
       <use xlink:href="#DejaVuSans-2212"/>
       <use xlink:href="#DejaVuSans-34" x="83.789062"/>
       <use xlink:href="#DejaVuSans-30" x="147.412109"/>
      </g>
     </g>
    </g>
    <g id="ytick_2">
     <g id="line2d_5">
      <g>
       <use xlink:href="#mee4fd51ffd" x="59.52" y="86.004995" style="stroke: #000000; stroke-width: 0.8"/>
      </g>
     </g>
     <g id="text_6">
      <!-- −20 -->
      <g transform="translate(31.415312 89.804214) scale(0.1 -0.1)">
       <use xlink:href="#DejaVuSans-2212"/>
       <use xlink:href="#DejaVuSans-32" x="83.789062"/>
       <use xlink:href="#DejaVuSans-30" x="147.412109"/>
      </g>
     </g>
    </g>
    <g id="ytick_3">
     <g id="line2d_6">
      <g>
       <use xlink:href="#mee4fd51ffd" x="59.52" y="57.324819" style="stroke: #000000; stroke-width: 0.8"/>
      </g>
     </g>
     <g id="text_7">
      <!-- 0 -->
      <g transform="translate(46.1575 61.124038) scale(0.1 -0.1)">
       <use xlink:href="#DejaVuSans-30"/>
      </g>
     </g>
    </g>
    <g id="ytick_4">
     <g id="line2d_7">
      <g>
       <use xlink:href="#mee4fd51ffd" x="59.52" y="28.644643" style="stroke: #000000; stroke-width: 0.8"/>
      </g>
     </g>
     <g id="text_8">
      <!-- 20 -->
      <g transform="translate(39.795 32.443862) scale(0.1 -0.1)">
       <use xlink:href="#DejaVuSans-32"/>
       <use xlink:href="#DejaVuSans-30" x="63.623047"/>
      </g>
     </g>
    </g>
    <g id="text_9">
     <!-- Amplitude (mV) -->
     <g transform="translate(25.335625 117.403906) rotate(-90) scale(0.1 -0.1)">
      <defs>
       <path id="DejaVuSans-41" d="M 2188 4044 
L 1331 1722 
L 3047 1722 
L 2188 4044 
z
M 1831 4666 
L 2547 4666 
L 4325 0 
L 3669 0 
L 3244 1197 
L 1141 1197 
L 716 0 
L 50 0 
L 1831 4666 
z
" transform="scale(0.015625)"/>
       <path id="DejaVuSans-70" d="M 1159 525 
L 1159 -1331 
L 581 -1331 
L 581 3500 
L 1159 3500 
L 1159 2969 
Q 1341 3281 1617 3432 
Q 1894 3584 2278 3584 
Q 2916 3584 3314 3078 
Q 3713 2572 3713 1747 
Q 3713 922 3314 415 
Q 2916 -91 2278 -91 
Q 1894 -91 1617 61 
Q 1341 213 1159 525 
z
M 3116 1747 
Q 3116 2381 2855 2742 
Q 2594 3103 2138 3103 
Q 1681 3103 1420 2742 
Q 1159 2381 1159 1747 
Q 1159 1113 1420 752 
Q 1681 391 2138 391 
Q 2594 391 2855 752 
Q 3116 1113 3116 1747 
z
" transform="scale(0.015625)"/>
       <path id="DejaVuSans-6c" d="M 603 4863 
L 1178 4863 
L 1178 0 
L 603 0 
L 603 4863 
z
" transform="scale(0.015625)"/>
       <path id="DejaVuSans-74" d="M 1172 4494 
L 1172 3500 
L 2356 3500 
L 2356 3053 
L 1172 3053 
L 1172 1153 
Q 1172 725 1289 603 
Q 1406 481 1766 481 
L 2356 481 
L 2356 0 
L 1766 0 
Q 1100 0 847 248 
Q 594 497 594 1153 
L 594 3053 
L 172 3053 
L 172 3500 
L 594 3500 
L 594 4494 
L 1172 4494 
z
" transform="scale(0.015625)"/>
       <path id="DejaVuSans-75" d="M 544 1381 
L 544 3500 
L 1119 3500 
L 1119 1403 
Q 1119 906 1312 657 
Q 1506 409 1894 409 
Q 2359 409 2629 706 
Q 2900 1003 2900 1516 
L 2900 3500 
L 3475 3500 
L 3475 0 
L 2900 0 
L 2900 538 
Q 2691 219 2414 64 
Q 2138 -91 1772 -91 
Q 1169 -91 856 284 
Q 544 659 544 1381 
z
M 1991 3584 
L 1991 3584 
z
" transform="scale(0.015625)"/>
       <path id="DejaVuSans-64" d="M 2906 2969 
L 2906 4863 
L 3481 4863 
L 3481 0 
L 2906 0 
L 2906 525 
Q 2725 213 2448 61 
Q 2172 -91 1784 -91 
Q 1150 -91 751 415 
Q 353 922 353 1747 
Q 353 2572 751 3078 
Q 1150 3584 1784 3584 
Q 2172 3584 2448 3432 
Q 2725 3281 2906 2969 
z
M 947 1747 
Q 947 1113 1208 752 
Q 1469 391 1925 391 
Q 2381 391 2643 752 
Q 2906 1113 2906 1747 
Q 2906 2381 2643 2742 
Q 2381 3103 1925 3103 
Q 1469 3103 1208 2742 
Q 947 2381 947 1747 
z
" transform="scale(0.015625)"/>
       <path id="DejaVuSans-56" d="M 1831 0 
L 50 4666 
L 709 4666 
L 2188 738 
L 3669 4666 
L 4325 4666 
L 2547 0 
L 1831 0 
z
" transform="scale(0.015625)"/>
      </defs>
      <use xlink:href="#DejaVuSans-41"/>
      <use xlink:href="#DejaVuSans-6d" x="68.408203"/>
      <use xlink:href="#DejaVuSans-70" x="165.820312"/>
      <use xlink:href="#DejaVuSans-6c" x="229.296875"/>
      <use xlink:href="#DejaVuSans-69" x="257.080078"/>
      <use xlink:href="#DejaVuSans-74" x="284.863281"/>
      <use xlink:href="#DejaVuSans-75" x="324.072266"/>
      <use xlink:href="#DejaVuSans-64" x="387.451172"/>
      <use xlink:href="#DejaVuSans-65" x="450.927734"/>
      <use xlink:href="#DejaVuSans-20" x="512.451172"/>
      <use xlink:href="#DejaVuSans-28" x="544.238281"/>
      <use xlink:href="#DejaVuSans-6d" x="583.251953"/>
      <use xlink:href="#DejaVuSans-56" x="680.664062"/>
      <use xlink:href="#DejaVuSans-29" x="749.072266"/>
     </g>
    </g>
   </g>
   <g id="line2d_8">
    <path d="M 62.172884 58.128339 
L 62.438172 39.278025 
L 62.570816 39.994504 
L 62.836105 44.486583 
L 63.234037 56.290403 
L 64.029902 104.396623 
L 64.162546 105.769829 
L 64.427835 48.214929 
L 64.560479 43.417032 
L 64.693123 43.801676 
L 64.958412 47.208444 
L 65.356344 57.17561 
L 66.152209 98.663108 
L 66.284853 99.645836 
L 66.550142 45.74565 
L 66.682786 40.506316 
L 66.81543 40.923821 
L 67.080719 44.568874 
L 67.478651 55.044788 
L 68.274516 99.412059 
L 68.40716 100.544595 
L 68.672449 38.677917 
L 68.805093 31.527273 
L 68.937737 32.127664 
L 69.203025 37.333185 
L 69.600958 52.370199 
L 70.396823 115.628962 
L 70.529467 117.52063 
L 70.794756 41.933858 
L 70.9274 36.518819 
L 71.060044 37.200405 
L 71.325332 41.690892 
L 71.723265 54.023085 
L 72.51913 104.26577 
L 72.651774 105.794906 
L 72.917063 42.837435 
L 73.049707 36.833517 
L 73.182351 37.706079 
L 73.447639 42.85816 
L 73.845572 56.858959 
L 74.641437 113.342851 
L 74.774081 115.028548 
L 75.03937 48.939479 
L 75.172014 44.207573 
L 75.304658 44.775495 
L 75.569946 48.677734 
L 75.967879 59.177698 
L 76.763744 102.09465 
L 76.896388 103.283801 
L 77.161677 49.24726 
L 77.294321 44.00307 
L 77.426965 44.462168 
L 77.692253 48.137131 
L 78.090186 58.882522 
L 78.886051 104.909089 
L 79.018695 106.17063 
L 79.283983 43.720975 
L 79.416628 36.441637 
L 79.549272 37.088963 
L 79.81456 42.397358 
L 80.212493 57.29715 
L 81.008358 120.704348 
L 81.141002 122.436829 
L 81.40629 42.795193 
L 81.538935 35.929569 
L 81.671579 36.522603 
L 81.936867 41.419505 
L 82.3348 55.636786 
L 83.130665 115.755631 
L 83.263309 117.463515 
L 83.528597 44.280514 
L 83.661242 38.706956 
L 83.793886 39.373385 
L 84.059174 43.936356 
L 84.457107 56.722454 
L 85.252972 107.899284 
L 85.385616 109.313169 
L 85.650904 47.445819 
L 85.783549 42.277671 
L 85.916193 42.695172 
L 86.181481 46.3712 
L 86.579414 56.820404 
L 87.375279 101.452666 
L 87.507923 102.707883 
L 87.773211 44.552818 
L 87.905855 38.646 
L 88.0385 39.355305 
L 88.303788 44.033631 
L 88.701721 56.736198 
L 89.497586 110.245975 
L 89.63023 111.785203 
L 89.895518 47.2557 
L 90.028162 42.152842 
L 90.160807 42.703906 
L 90.426095 46.637991 
L 90.824028 57.879134 
L 91.619893 103.55719 
L 91.752537 104.682301 
L 92.017825 47.249192 
L 92.150469 41.836131 
L 92.283114 42.188401 
L 92.548402 45.73939 
L 92.946335 56.566954 
L 93.7422 102.166649 
L 93.874844 103.18323 
L 94.140132 45.491244 
L 94.272776 40.746848 
L 94.405421 41.224548 
L 94.670709 44.884425 
L 95.068641 55.147986 
L 95.864507 97.207468 
L 95.997151 98.326261 
L 96.262439 44.788776 
L 96.395083 39.78844 
L 96.527727 40.356314 
L 96.793016 44.389319 
L 97.190948 55.97369 
L 97.986814 102.46782 
L 98.119458 103.922281 
L 98.384746 48.733834 
L 98.51739 44.361724 
L 98.650034 44.997646 
L 98.915323 48.556514 
L 99.313255 58.171913 
L 100.10912 98.869718 
L 100.241765 100.005707 
L 100.507053 44.556041 
L 100.639697 37.955817 
L 100.772341 38.701376 
L 101.03763 43.809169 
L 101.435562 57.875614 
L 102.231427 116.946321 
L 102.364072 118.60156 
L 102.62936 42.731941 
L 102.762004 35.590331 
L 102.894648 36.256057 
L 103.159937 41.581687 
L 103.557869 56.567284 
L 104.353734 120.181462 
L 104.486379 121.889518 
L 104.751667 45.239267 
L 104.884311 39.586011 
L 105.016955 40.139656 
L 105.282244 44.402283 
L 105.680176 56.609521 
L 106.476041 106.747623 
L 106.608686 108.08723 
L 106.873974 42.762754 
L 107.006618 36.087411 
L 107.139262 36.664483 
L 107.404551 41.573972 
L 107.802483 55.844817 
L 108.598348 114.837725 
L 108.730992 116.505902 
L 108.996281 42.844087 
L 109.128925 36.057182 
L 109.261569 36.724784 
L 109.526858 41.714299 
L 109.92479 56.12056 
L 110.720655 116.602279 
L 110.853299 118.374661 
L 111.118588 47.547164 
L 111.251232 42.828062 
L 111.383876 43.360634 
L 111.649165 47.110088 
L 112.047097 57.814299 
L 112.842962 100.746916 
L 112.975606 101.889919 
L 113.240895 43.752096 
L 113.373539 36.617721 
L 113.506183 37.2049 
L 113.771471 42.218313 
L 114.169404 57.166677 
L 114.965269 119.467083 
L 115.097913 121.168703 
L 115.363202 43.731978 
L 115.495846 37.005438 
L 115.62849 37.473351 
L 115.893778 42.139384 
L 116.291711 55.677705 
L 117.087576 113.334553 
L 117.22022 114.842357 
L 117.485509 39.651066 
L 117.618153 32.289124 
L 117.750797 32.925085 
L 118.016085 38.24634 
L 118.414018 53.684467 
L 119.209883 118.149253 
L 119.342527 120.017799 
L 119.607816 42.009725 
L 119.74046 35.909302 
L 119.873104 36.398061 
L 120.138392 40.848147 
L 120.536325 53.778037 
L 121.33219 108.282181 
L 121.464834 110.018881 
L 121.730123 43.057487 
L 121.862767 37.098314 
L 121.995411 37.88198 
L 122.260699 42.805234 
L 122.658632 56.273508 
L 123.454497 111.905303 
L 123.587141 113.523876 
L 123.85243 48.114017 
L 123.985074 43.314439 
L 124.117718 43.850375 
L 124.383006 47.596278 
L 124.780939 57.750885 
L 125.576804 100.123164 
L 125.709448 101.281368 
L 125.974736 44.424792 
L 126.107381 38.447132 
L 126.240025 38.998294 
L 126.505313 43.444035 
L 126.903246 55.631034 
L 127.699111 108.158872 
L 127.831755 109.575 
L 128.097043 45.64621 
L 128.229688 40.892362 
L 128.362332 41.200779 
L 128.62762 44.464937 
L 129.025553 53.926421 
L 129.821418 94.946896 
L 129.954062 96.116881 
L 130.21935 42.889671 
L 130.351995 38.009238 
L 130.484639 38.626929 
L 130.749927 42.702518 
L 131.14786 53.788751 
L 131.943725 97.999023 
L 132.076369 99.275082 
L 132.341657 40.640387 
L 132.474301 34.065818 
L 132.606946 34.663471 
L 132.872234 39.921615 
L 133.270167 54.464134 
L 134.066032 113.954378 
L 134.198676 115.769481 
L 134.463964 41.830856 
L 134.596608 35.175854 
L 134.729253 36.090129 
L 134.994541 41.566965 
L 135.392474 56.198133 
L 136.188339 117.539062 
L 136.320983 119.42066 
L 136.586271 44.612148 
L 136.718915 38.286527 
L 136.85156 38.919392 
L 137.116848 43.677583 
L 137.514781 57.406854 
L 138.310646 114.638176 
L 138.44329 116.120789 
L 138.708578 46.114153 
L 138.841222 40.345023 
L 138.973867 40.532387 
L 139.239155 44.152085 
L 139.637087 55.27293 
L 140.432953 103.245465 
L 140.565597 104.529769 
L 140.830885 41.066193 
L 140.963529 34.692587 
L 141.096173 35.230677 
L 141.361462 39.9275 
L 141.759394 53.119817 
L 142.55526 108.091026 
L 142.687904 109.675281 
L 142.953192 41.241726 
L 143.085836 35.697067 
L 143.21848 36.465154 
L 143.483769 41.204928 
L 143.881701 54.348705 
L 144.677566 106.279137 
L 144.810211 107.698123 
L 145.075499 45.691495 
L 145.208143 40.940378 
L 145.340787 41.462272 
L 145.606076 45.319089 
L 146.004008 55.748399 
L 146.799873 98.198778 
L 146.932518 99.415267 
L 147.197806 40.424875 
L 147.33045 33.25371 
L 147.463094 34.089159 
L 147.728383 39.934705 
L 148.126315 55.954849 
L 148.92218 120.526322 
L 149.054825 122.299451 
L 149.320113 42.352587 
L 149.452757 35.540561 
L 149.585401 35.978182 
L 149.85069 40.602392 
L 150.248622 54.478154 
L 151.044487 113.216027 
L 151.177132 114.876993 
L 151.44242 39.688206 
L 151.575064 32.380337 
L 151.707708 33.209386 
L 151.972997 38.830026 
L 152.370929 54.517659 
L 153.166794 119.904793 
L 153.299438 121.760217 
L 153.564727 44.058432 
L 153.697371 38.867599 
L 153.830015 39.533236 
L 154.095304 43.837326 
L 154.493236 55.487074 
L 155.289101 103.15518 
L 155.421745 104.429599 
L 155.687034 46.173523 
L 155.819678 41.606601 
L 155.952322 42.026469 
L 156.217611 45.363039 
L 156.615543 55.121987 
L 157.411408 96.178975 
L 157.544052 97.399251 
L 157.809341 41.944015 
L 157.941985 35.202226 
L 158.074629 35.946294 
L 158.339917 41.224217 
L 158.73785 56.087067 
L 159.533715 116.599808 
L 159.666359 118.359396 
L 159.931648 41.631801 
L 160.064292 34.275465 
L 160.196936 34.967187 
L 160.462224 40.616964 
L 160.860157 56.270622 
L 161.656022 121.76774 
L 161.788666 123.591431 
L 162.053955 46.30884 
L 162.186599 41.124637 
L 162.319243 41.589537 
L 162.584531 45.345731 
L 162.982464 55.999184 
L 163.778329 100.738379 
L 163.910973 102.046132 
L 164.176262 40.455794 
L 164.308906 33.277678 
L 164.44155 34.121629 
L 164.706838 39.797658 
L 165.104771 55.599612 
L 165.900636 121.084539 
L 166.03328 123.037049 
L 166.298569 42.227386 
L 166.431213 35.451643 
L 166.563857 36.126151 
L 166.829145 41.195381 
L 167.227078 55.80032 
L 168.022943 116.436796 
L 168.155587 118.257906 
L 168.420876 47.10567 
L 168.55352 42.324941 
L 168.686164 43.021291 
L 168.951452 46.990128 
L 169.349385 57.690476 
L 170.14525 102.001252 
L 170.277894 103.317667 
L 170.543182 46.554046 
L 170.675827 41.177836 
L 170.808471 41.79182 
L 171.073759 45.982483 
L 171.471692 57.908229 
L 172.267557 106.801635 
L 172.400201 108.082333 
L 172.665489 47.213894 
L 172.798134 41.960013 
L 172.930778 42.320354 
L 173.196066 45.862766 
L 173.593999 56.553698 
L 174.389864 102.946862 
L 174.522508 104.143692 
L 174.787796 40.570428 
L 174.920441 33.056606 
L 175.053085 33.561619 
L 175.318373 38.845593 
L 175.716306 54.384869 
L 176.512171 119.983221 
L 176.644815 121.847134 
L 176.910103 42.091259 
L 177.042748 35.928552 
L 177.175392 36.647345 
L 177.44068 41.575611 
L 177.838613 55.036662 
L 178.634478 110.723077 
L 178.767122 112.379496 
L 179.03241 41.440548 
L 179.165054 34.431084 
L 179.297699 35.218375 
L 179.562987 40.832877 
L 179.96092 56.244694 
L 180.756785 119.689213 
L 180.889429 121.651945 
L 181.154717 42.368961 
L 181.287361 35.211142 
L 181.420006 36.078737 
L 181.685294 41.993894 
L 182.083227 57.809767 
L 182.879092 122.046934 
L 183.011736 123.777762 
L 183.277024 42.179272 
L 183.409668 34.810903 
L 183.542313 35.551938 
L 183.807601 41.11424 
L 184.205533 56.794803 
L 185.001399 122.676329 
L 185.134043 124.472727 
L 185.399331 45.504048 
L 185.531975 39.683717 
L 185.664619 40.194491 
L 185.929908 44.557327 
L 186.32784 56.516959 
L 187.123706 107.013743 
L 187.25635 108.287522 
L 187.521638 41.765341 
L 187.654282 34.735766 
L 187.786926 35.385422 
L 188.052215 40.440958 
L 188.450147 54.931057 
L 189.246012 115.983888 
L 189.378657 117.454955 
L 189.643945 40.183556 
L 189.776589 33.209857 
L 189.909233 33.854893 
L 190.174522 39.068159 
L 190.572454 54.156547 
L 191.368319 115.929316 
L 191.500964 117.677022 
L 191.766252 40.251069 
L 191.898896 33.299067 
L 192.03154 34.256425 
L 192.296829 40.205718 
L 192.694761 56.381202 
L 193.490626 120.604833 
L 193.623271 122.472701 
L 193.888559 44.381998 
L 194.021203 38.099707 
L 194.153847 38.900848 
L 194.419136 44.027297 
L 194.684424 52.763014 
L 194.684424 52.763014 
" clip-path="url(#pe0905a1686)" style="fill: none; stroke: #808080; stroke-width: 0.7; stroke-linecap: square"/>
   </g>
   <g id="line2d_9">
    <path d="M 62.172884 56.137924 
L 63.366681 57.725872 
L 64.427835 58.927968 
L 65.621632 58.309821 
L 66.417498 57.362142 
L 66.682786 57.198865 
L 67.213363 56.71355 
L 67.478651 56.378062 
L 68.805093 54.714008 
L 69.33567 54.387799 
L 69.468314 54.370957 
L 69.733602 54.15751 
L 70.529467 54.193296 
L 71.192688 54.817063 
L 73.182351 57.469073 
L 73.978216 58.606219 
L 74.641437 59.223138 
L 75.835235 60.346691 
L 76.100523 60.534773 
L 76.763744 61.074553 
L 77.029032 61.088897 
L 77.559609 60.646764 
L 78.620763 60.01855 
L 79.151339 60.138444 
L 79.549272 59.882286 
L 79.81456 59.719996 
L 80.875714 58.344404 
L 81.804223 57.906893 
L 82.3348 57.407413 
L 82.732732 57.256879 
L 83.130665 56.895027 
L 83.395953 57.029629 
L 83.92653 57.383974 
L 84.987683 58.663074 
L 85.650904 58.813707 
L 86.048837 58.498347 
L 86.446769 58.23809 
L 86.977346 57.906498 
L 87.507923 57.942244 
L 87.905855 58.115054 
L 88.303788 58.380037 
L 89.364942 58.451733 
L 89.895518 58.723511 
L 90.293451 58.708539 
L 91.487248 59.646395 
L 91.619893 59.654762 
L 92.150469 58.9767 
L 93.609555 56.94359 
L 94.007488 56.225799 
L 94.405421 56.170416 
L 95.599218 56.454437 
L 95.864507 56.279153 
L 96.129795 56.255263 
L 96.660372 56.519369 
L 96.92566 56.819354 
L 97.588881 57.881396 
L 98.119458 58.576878 
L 98.650034 59.32411 
L 99.047967 59.413639 
L 99.313255 59.352082 
L 99.976476 59.509474 
L 100.241765 59.650575 
L 101.03763 59.930607 
L 101.302918 59.79115 
L 101.966139 59.092302 
L 102.364072 58.848912 
L 102.762004 58.901742 
L 103.292581 58.684288 
L 103.690513 58.37732 
L 104.353734 58.285389 
L 105.149599 57.993395 
L 105.414888 58.072695 
L 105.680176 58.081567 
L 106.078109 57.734931 
L 106.74133 57.746742 
L 107.271906 57.338754 
L 107.537195 57.422991 
L 108.730992 58.053205 
L 108.863637 58.009735 
L 108.996281 58.090615 
L 109.792146 57.855598 
L 110.190078 57.993256 
L 110.588011 58.178488 
L 111.118588 58.280422 
L 111.51652 58.440123 
L 111.781809 58.633308 
L 112.312385 59.27434 
L 112.577674 59.526467 
L 112.842962 59.656592 
L 113.373539 59.451528 
L 114.03676 58.988924 
L 114.699981 58.904655 
L 115.097913 58.805277 
L 115.893778 57.896764 
L 116.954932 56.702795 
L 118.14873 55.542981 
L 118.414018 55.572356 
L 119.209883 55.390473 
L 119.607816 55.589065 
L 120.138392 55.27562 
L 120.403681 55.307073 
L 120.668969 55.419011 
L 121.33219 56.296153 
L 121.862767 57.08202 
L 122.393343 57.696453 
L 122.658632 57.869655 
L 123.321853 58.77579 
L 124.51565 59.304993 
L 124.913583 58.881781 
L 125.44416 58.054926 
L 125.709448 57.839407 
L 126.372669 57.80306 
L 126.637957 57.606788 
L 127.168534 56.873932 
L 128.362332 56.10934 
L 128.892909 55.361888 
L 129.688774 54.144696 
L 130.351995 54.048061 
L 130.882571 54.718005 
L 131.14786 55.06981 
L 132.872234 55.802398 
L 133.137522 56.142828 
L 133.800743 56.456577 
L 134.463964 57.193643 
L 134.729253 57.567209 
L 134.994541 57.889276 
L 135.790406 58.125621 
L 136.188339 58.725433 
L 136.586271 59.14809 
L 136.85156 59.240545 
L 137.514781 59.080845 
L 137.647425 59.129089 
L 138.045357 58.992608 
L 138.575934 58.73756 
L 138.841222 58.347263 
L 139.371799 57.1814 
L 140.565597 55.362268 
L 141.228818 54.92535 
L 141.62675 54.823899 
L 141.892039 54.588014 
L 142.422615 54.118844 
L 142.687904 54.088604 
L 142.953192 54.22813 
L 143.616413 55.320535 
L 144.14699 56.188023 
L 144.677566 56.563057 
L 145.340787 56.617126 
L 145.73872 56.897318 
L 146.269297 56.984588 
L 146.534585 56.77462 
L 146.932518 56.726705 
L 147.33045 56.973344 
L 147.861027 57.564913 
L 148.126315 57.849393 
L 148.524248 57.831352 
L 149.187469 57.444554 
L 150.115978 56.184895 
L 150.911843 56.21525 
L 151.177132 56.170386 
L 151.575064 56.392491 
L 151.840352 56.546766 
L 152.503573 56.369772 
L 153.03415 56.06053 
L 153.299438 56.178505 
L 153.564727 56.226139 
L 153.962659 56.700104 
L 154.493236 56.888334 
L 154.891169 56.648566 
L 155.156457 56.649723 
L 155.819678 56.379202 
L 156.615543 56.301909 
L 157.278764 56.835747 
L 157.809341 57.212434 
L 158.074629 57.291448 
L 159.135783 58.175948 
L 159.401071 58.111483 
L 160.594869 58.33957 
L 161.390734 57.798056 
L 162.451887 57.545541 
L 163.115108 57.202691 
L 163.645685 56.883909 
L 165.104771 57.513613 
L 165.635348 57.434702 
L 165.900636 57.457779 
L 166.165924 57.584811 
L 166.563857 57.496283 
L 166.961789 57.456274 
L 167.227078 57.560724 
L 167.492366 57.582371 
L 168.022943 57.916035 
L 169.216741 59.135732 
L 169.482029 58.933684 
L 170.14525 58.798862 
L 170.941115 59.182343 
L 171.206403 59.203533 
L 171.604336 59.421146 
L 172.134913 59.327126 
L 172.930778 58.877433 
L 173.991931 57.62545 
L 174.389864 57.606351 
L 174.920441 57.105042 
L 175.318373 56.566462 
L 175.84895 56.165443 
L 176.114238 55.983779 
L 176.379527 55.983637 
L 176.644815 56.166343 
L 177.042748 56.09229 
L 177.838613 56.647189 
L 178.103901 56.78564 
L 180.093564 58.168228 
L 180.62414 58.174139 
L 182.083227 59.704098 
L 183.011736 59.00225 
L 183.940245 58.806828 
L 184.338178 58.702812 
L 184.73611 58.752687 
L 185.134043 58.657034 
L 185.797264 58.278435 
L 186.195196 58.133993 
L 186.593129 57.832999 
L 187.123706 57.614854 
L 187.654282 57.169722 
L 188.052215 56.972149 
L 188.84808 56.529142 
L 189.113368 56.512832 
L 189.246012 56.417612 
L 189.643945 55.791439 
L 190.041878 55.676398 
L 190.307166 55.710151 
L 190.837743 56.126436 
L 191.235675 56.10461 
L 191.766252 56.466479 
L 192.429473 57.729831 
L 192.827405 58.413947 
L 193.092694 58.530552 
L 193.888559 58.749655 
L 194.153847 58.986742 
L 194.684424 59.49071 
L 194.684424 59.49071 
" clip-path="url(#pe0905a1686)" style="fill: none; stroke: #1e90ff; stroke-linecap: square"/>
   </g>
   <g id="line2d_10">
    <path d="M 62.172884 56.297699 
L 62.438172 56.678229 
L 62.570816 56.607896 
L 62.836105 56.999473 
L 62.968749 57.148647 
L 63.234037 57.778959 
L 63.63197 57.825196 
L 63.764614 58.054124 
L 64.029902 58.825486 
L 64.162546 58.821026 
L 64.295191 58.954183 
L 64.693123 58.746697 
L 64.958412 58.475264 
L 65.091056 58.401671 
L 65.356344 58.087385 
L 65.754277 58.244689 
L 65.886921 57.940838 
L 66.019565 57.987046 
L 66.417498 57.579402 
L 66.682786 57.302431 
L 66.948074 56.587861 
L 67.080719 56.532508 
L 67.346007 56.290624 
L 67.876584 56.172653 
L 68.009228 56.019174 
L 68.274516 55.274308 
L 68.539805 55.08763 
L 69.203025 54.180441 
L 69.33567 54.035793 
L 69.468314 54.243547 
L 69.733602 54.261362 
L 69.998891 54.49605 
L 70.131535 54.010399 
L 70.396823 54.421129 
L 70.662112 54.42221 
L 70.9274 54.673305 
L 71.192688 54.725747 
L 71.457977 54.820991 
L 71.723265 55.447409 
L 71.855909 55.463663 
L 72.121198 55.745073 
L 72.51913 56.625072 
L 72.651774 56.702309 
L 73.314995 57.782235 
L 73.447639 57.672781 
L 73.712928 58.222732 
L 73.845572 58.457322 
L 73.978216 58.436689 
L 74.243504 58.701284 
L 74.376149 58.794046 
L 74.641437 59.600669 
L 74.774081 59.585934 
L 75.172014 60.003688 
L 75.437302 59.797454 
L 75.702591 60.072357 
L 75.967879 60.12627 
L 76.233167 60.35921 
L 76.498456 60.317467 
L 76.763744 60.980945 
L 76.896388 60.862631 
L 77.029032 61.157145 
L 77.426965 60.768786 
L 77.559609 60.285329 
L 77.824897 60.221021 
L 78.090186 60.059268 
L 78.355474 60.17945 
L 78.620763 60.219383 
L 79.416628 60.089724 
L 79.681916 59.43982 
L 79.81456 59.368918 
L 80.079849 58.989336 
L 80.610425 59.2397 
L 81.141002 58.50238 
L 81.40629 58.299473 
L 82.202156 57.13823 
L 82.3348 57.077464 
L 82.732732 57.459455 
L 82.865376 57.257677 
L 83.130665 57.280071 
L 83.528597 57.278738 
L 83.661242 57.425594 
L 83.793886 57.377582 
L 83.92653 57.632687 
L 84.059174 57.446235 
L 84.324463 57.647237 
L 84.855039 58.345255 
L 84.987683 58.415879 
L 85.252972 58.917942 
L 85.783549 58.910679 
L 86.048837 58.331891 
L 86.314125 58.213553 
L 86.579414 58.127045 
L 86.844702 58.192733 
L 87.10999 58.122945 
L 87.375279 58.118843 
L 87.640567 58.2002 
L 87.905855 58.197133 
L 88.0385 57.987363 
L 88.171144 58.297833 
L 88.303788 58.22234 
L 88.569076 57.982695 
L 88.834365 58.359301 
L 89.232297 58.417397 
L 89.364942 58.715084 
L 89.895518 58.896191 
L 90.028162 59.096766 
L 90.293451 58.770554 
L 90.558739 58.805951 
L 90.824028 59.073124 
L 91.22196 59.180069 
L 91.354604 59.226925 
L 91.487248 59.512917 
L 91.885181 59.513116 
L 92.283114 58.883022 
L 92.548402 58.03642 
L 93.211623 57.865027 
L 93.344267 57.674327 
L 93.476911 57.157201 
L 93.609555 57.148558 
L 94.007488 56.525478 
L 94.272776 56.455609 
L 94.405421 56.094912 
L 94.538065 56.189654 
L 94.935997 55.998626 
L 95.068641 56.16156 
L 95.201286 56.1118 
L 95.33393 56.193939 
L 95.466574 56.411905 
L 95.599218 56.300503 
L 95.864507 56.527549 
L 96.262439 56.474593 
L 96.527727 56.61618 
L 96.660372 56.649526 
L 96.793016 56.525373 
L 97.721525 57.76326 
L 97.986814 58.668828 
L 98.119458 58.692094 
L 98.51739 59.120684 
L 98.650034 59.103929 
L 98.915323 59.258681 
L 99.047967 59.309048 
L 99.313255 59.146725 
L 99.4459 59.324386 
L 99.711188 59.34356 
L 100.507053 59.961774 
L 100.772341 59.751907 
L 101.170274 59.495731 
L 101.700851 59.753921 
L 101.966139 59.494285 
L 102.231427 59.184331 
L 102.62936 58.99554 
L 102.894648 58.692013 
L 103.159937 58.424227 
L 103.292581 58.445505 
L 103.557869 58.289814 
L 103.823158 58.49855 
L 104.884311 58.350177 
L 105.282244 57.68717 
L 105.414888 57.703677 
L 105.680176 58.138676 
L 105.945465 58.25776 
L 106.476041 57.932875 
L 107.006618 57.832427 
L 107.271906 57.37518 
L 107.404551 57.264472 
L 108.863637 58.128555 
L 109.128925 58.03329 
L 109.526858 57.732247 
L 109.92479 57.694588 
L 110.057434 57.78693 
L 110.190078 58.028537 
L 110.455367 57.896901 
L 110.720655 58.360514 
L 111.118588 58.457713 
L 111.251232 58.63313 
L 111.383876 58.57346 
L 111.51652 58.665326 
L 111.649165 58.39317 
L 112.047097 58.829136 
L 112.577674 59.432755 
L 112.842962 59.703782 
L 113.108251 59.661371 
L 113.240895 59.722894 
L 113.373539 59.650583 
L 113.771471 58.81169 
L 114.567337 59.086576 
L 114.965269 58.92582 
L 115.230558 58.837254 
L 115.495846 58.480509 
L 115.893778 57.541544 
L 116.026423 57.523536 
L 116.291711 57.30661 
L 116.689644 57.386925 
L 116.822288 57.226889 
L 117.087576 56.689402 
L 118.281374 55.221434 
L 118.546662 55.417888 
L 118.81195 55.821177 
L 118.944595 55.553285 
L 119.209883 55.747906 
L 119.873104 55.39605 
L 120.005748 55.109075 
L 120.536325 55.22362 
L 120.801613 55.615423 
L 120.934257 55.582852 
L 121.33219 56.500526 
L 121.597478 56.782971 
L 121.995411 57.077943 
L 122.128055 57.419862 
L 122.260699 57.403875 
L 123.189209 58.304772 
L 123.454497 59.081016 
L 123.587141 59.093315 
L 123.985074 59.333332 
L 124.250362 59.028649 
L 124.383006 59.072472 
L 124.648295 58.868703 
L 124.913583 58.998159 
L 125.44416 58.474684 
L 125.709448 58.159258 
L 125.974736 58.030147 
L 126.107381 57.868134 
L 126.372669 57.453805 
L 126.770602 57.213829 
L 127.03589 57.260181 
L 127.168534 57.301185 
L 127.301178 57.164266 
L 127.433822 56.676456 
L 127.566467 56.786863 
L 128.097043 56.328466 
L 128.229688 56.217722 
L 128.62762 55.292158 
L 128.892909 55.218252 
L 129.158197 55.06057 
L 129.423485 55.269783 
L 129.556129 54.446079 
L 129.688774 54.563357 
L 129.954062 54.32825 
L 130.086706 54.296621 
L 130.484639 54.636773 
L 130.617283 54.357804 
L 130.749927 54.40584 
L 130.882571 54.272022 
L 131.413148 55.22084 
L 132.209013 55.74427 
L 132.341657 55.679505 
L 132.474301 55.90694 
L 132.606946 55.871927 
L 132.73959 55.600455 
L 132.872234 55.630892 
L 133.270167 56.159439 
L 133.535455 56.435515 
L 133.668099 56.394049 
L 133.933388 56.839315 
L 134.596608 57.333438 
L 134.729253 57.347703 
L 134.861897 57.692396 
L 135.259829 57.574303 
L 135.525118 58.110833 
L 135.657762 58.304356 
L 135.790406 58.162865 
L 136.188339 58.888812 
L 136.586271 59.190461 
L 136.984204 59.019393 
L 137.249492 58.840026 
L 137.514781 58.929695 
L 137.912713 59.15873 
L 138.045357 58.961171 
L 138.178001 59.044037 
L 138.708578 58.684245 
L 138.973867 57.958684 
L 139.239155 57.017387 
L 140.03502 56.588691 
L 140.432953 55.645016 
L 140.963529 55.270591 
L 141.228818 54.687382 
L 141.361462 54.669564 
L 141.494106 54.499813 
L 141.892039 54.651268 
L 142.157327 54.849933 
L 142.289971 54.315725 
L 142.55526 54.331429 
L 142.820548 54.313528 
L 143.21848 54.695268 
L 143.351125 54.965346 
L 143.616413 54.977144 
L 143.881701 55.642744 
L 144.014346 55.595808 
L 144.412278 56.035693 
L 144.677566 56.616536 
L 145.075499 56.694535 
L 145.208143 56.77847 
L 145.340787 56.567601 
L 145.473432 56.720827 
L 145.871364 56.550334 
L 146.269297 56.931083 
L 146.534585 57.190957 
L 146.799873 56.953468 
L 147.065162 56.956989 
L 147.33045 57.069782 
L 147.861027 57.26381 
L 147.993671 57.352 
L 148.126315 57.686467 
L 148.258959 57.601275 
L 148.524248 57.993165 
L 149.187469 57.624964 
L 150.115978 55.93562 
L 150.381266 56.126215 
L 151.044487 56.446011 
L 151.177132 56.353612 
L 151.309776 56.449949 
L 151.972997 56.164836 
L 152.238285 56.046134 
L 152.768862 56.57052 
L 152.901506 56.174528 
L 153.166794 56.321506 
L 153.564727 56.389138 
L 153.697371 56.515959 
L 153.830015 56.423931 
L 153.962659 56.602119 
L 154.227948 56.330638 
L 154.62588 56.906034 
L 154.891169 56.934119 
L 155.023813 56.569413 
L 155.156457 56.755059 
L 155.819678 56.467027 
L 156.084966 56.208517 
L 156.482899 56.059257 
L 156.880831 56.442813 
L 157.013476 56.491378 
L 157.278764 56.883664 
L 157.544052 57.163177 
L 158.074629 57.451382 
L 158.472562 57.479536 
L 158.605206 57.36479 
L 158.870494 57.535924 
L 159.003138 57.873708 
L 159.135783 57.901136 
L 159.401071 58.318999 
L 159.666359 58.38375 
L 160.064292 58.348315 
L 160.462224 57.904669 
L 161.25809 58.361374 
L 161.523378 57.98375 
L 162.053955 57.853884 
L 162.186599 57.778714 
L 162.451887 57.412915 
L 162.84982 57.149398 
L 163.247752 57.377426 
L 163.513041 57.43804 
L 163.778329 57.152175 
L 164.574194 57.202114 
L 164.706838 57.030718 
L 164.972127 57.230086 
L 165.104771 57.538049 
L 165.237415 57.526196 
L 165.502703 57.713658 
L 165.635348 57.796768 
L 166.03328 57.690163 
L 166.431213 57.650864 
L 166.696501 57.428217 
L 166.829145 57.212166 
L 167.359722 57.616432 
L 167.492366 57.890202 
L 167.757655 57.711003 
L 168.022943 58.222103 
L 168.420876 58.469196 
L 168.55352 58.675733 
L 168.686164 58.613769 
L 169.614673 59.122157 
L 169.879962 58.891106 
L 170.012606 59.049217 
L 170.277894 59.00709 
L 170.675827 59.180983 
L 170.941115 59.120343 
L 171.206403 58.953458 
L 171.73698 59.307289 
L 171.869624 59.331874 
L 172.002268 59.232176 
L 172.134913 59.433565 
L 172.798134 59.038991 
L 173.196066 58.023318 
L 173.32871 58.058507 
L 173.461355 57.918099 
L 173.726643 57.980026 
L 173.991931 57.93628 
L 174.124575 58.041762 
L 174.389864 57.713551 
L 174.655152 57.570965 
L 174.920441 57.32483 
L 175.185729 56.41032 
L 175.318373 56.232185 
L 175.84895 56.357491 
L 175.981594 56.562078 
L 176.114238 56.5046 
L 176.379527 56.220253 
L 177.042748 56.400677 
L 177.175392 56.235911 
L 177.308036 56.389874 
L 177.573324 56.250472 
L 177.838613 56.476186 
L 178.236545 56.832918 
L 178.501834 57.259317 
L 178.899766 57.51815 
L 179.828275 57.751301 
L 180.226208 58.279328 
L 180.358852 58.230835 
L 180.62414 58.624732 
L 181.154717 58.911928 
L 181.287361 59.081172 
L 181.55265 59.011062 
L 181.950582 59.381697 
L 182.215871 59.745269 
L 182.348515 59.642801 
L 182.481159 59.814624 
L 183.14438 59.156689 
L 183.277024 59.141053 
L 183.940245 58.536241 
L 184.205533 58.537974 
L 184.470822 58.693087 
L 184.603466 58.841868 
L 184.73611 58.735751 
L 185.001399 58.812109 
L 185.399331 58.742908 
L 185.531975 58.641458 
L 185.664619 58.218923 
L 186.062552 58.009661 
L 186.195196 57.967696 
L 186.460485 58.096647 
L 186.991061 57.861352 
L 187.654282 57.333539 
L 187.919571 56.812812 
L 188.317503 56.594244 
L 188.980724 56.705592 
L 189.113368 56.43936 
L 189.246012 56.422608 
L 189.643945 56.085077 
L 189.776589 56.058318 
L 190.174522 55.603527 
L 190.43981 55.454339 
L 191.103031 56.330873 
L 191.633608 56.534166 
L 191.766252 56.65334 
L 192.164185 57.281782 
L 192.296829 57.206949 
L 193.092694 58.409239 
L 193.225338 58.516543 
L 193.357982 58.816992 
L 193.755915 58.846428 
L 194.021203 59.119944 
L 194.153847 58.900826 
L 194.286491 59.177337 
L 194.55178 59.075237 
L 194.684424 59.383043 
L 194.684424 59.383043 
" clip-path="url(#pe0905a1686)" style="fill: none; stroke: #ff0000; stroke-width: 0.8; stroke-linecap: square"/>
   </g>
   <g id="patch_3">
    <path d="M 59.52 129.12 
L 59.52 26.88 
" style="fill: none; stroke: #000000; stroke-width: 0.8; stroke-linejoin: miter; stroke-linecap: square"/>
   </g>
   <g id="patch_4">
    <path d="M 197.469952 129.12 
L 197.469952 26.88 
" style="fill: none; stroke: #000000; stroke-width: 0.8; stroke-linejoin: miter; stroke-linecap: square"/>
   </g>
   <g id="patch_5">
    <path d="M 59.52 129.12 
L 197.469952 129.12 
" style="fill: none; stroke: #000000; stroke-width: 0.8; stroke-linejoin: miter; stroke-linecap: square"/>
   </g>
   <g id="patch_6">
    <path d="M 59.52 26.88 
L 197.469952 26.88 
" style="fill: none; stroke: #000000; stroke-width: 0.8; stroke-linejoin: miter; stroke-linecap: square"/>
   </g>
   <g id="text_10">
    <!-- Time Domain Plot -->
    <g transform="translate(75.410913 20.88) scale(0.12 -0.12)">
     <defs>
      <path id="DejaVuSans-44" d="M 1259 4147 
L 1259 519 
L 2022 519 
Q 2988 519 3436 956 
Q 3884 1394 3884 2338 
Q 3884 3275 3436 3711 
Q 2988 4147 2022 4147 
L 1259 4147 
z
M 628 4666 
L 1925 4666 
Q 3281 4666 3915 4102 
Q 4550 3538 4550 2338 
Q 4550 1131 3912 565 
Q 3275 0 1925 0 
L 628 0 
L 628 4666 
z
" transform="scale(0.015625)"/>
      <path id="DejaVuSans-6f" d="M 1959 3097 
Q 1497 3097 1228 2736 
Q 959 2375 959 1747 
Q 959 1119 1226 758 
Q 1494 397 1959 397 
Q 2419 397 2687 759 
Q 2956 1122 2956 1747 
Q 2956 2369 2687 2733 
Q 2419 3097 1959 3097 
z
M 1959 3584 
Q 2709 3584 3137 3096 
Q 3566 2609 3566 1747 
Q 3566 888 3137 398 
Q 2709 -91 1959 -91 
Q 1206 -91 779 398 
Q 353 888 353 1747 
Q 353 2609 779 3096 
Q 1206 3584 1959 3584 
z
" transform="scale(0.015625)"/>
      <path id="DejaVuSans-61" d="M 2194 1759 
Q 1497 1759 1228 1600 
Q 959 1441 959 1056 
Q 959 750 1161 570 
Q 1363 391 1709 391 
Q 2188 391 2477 730 
Q 2766 1069 2766 1631 
L 2766 1759 
L 2194 1759 
z
M 3341 1997 
L 3341 0 
L 2766 0 
L 2766 531 
Q 2569 213 2275 61 
Q 1981 -91 1556 -91 
Q 1019 -91 701 211 
Q 384 513 384 1019 
Q 384 1609 779 1909 
Q 1175 2209 1959 2209 
L 2766 2209 
L 2766 2266 
Q 2766 2663 2505 2880 
Q 2244 3097 1772 3097 
Q 1472 3097 1187 3025 
Q 903 2953 641 2809 
L 641 3341 
Q 956 3463 1253 3523 
Q 1550 3584 1831 3584 
Q 2591 3584 2966 3190 
Q 3341 2797 3341 1997 
z
" transform="scale(0.015625)"/>
      <path id="DejaVuSans-6e" d="M 3513 2113 
L 3513 0 
L 2938 0 
L 2938 2094 
Q 2938 2591 2744 2837 
Q 2550 3084 2163 3084 
Q 1697 3084 1428 2787 
Q 1159 2491 1159 1978 
L 1159 0 
L 581 0 
L 581 3500 
L 1159 3500 
L 1159 2956 
Q 1366 3272 1645 3428 
Q 1925 3584 2291 3584 
Q 2894 3584 3203 3211 
Q 3513 2838 3513 2113 
z
" transform="scale(0.015625)"/>
      <path id="DejaVuSans-50" d="M 1259 4147 
L 1259 2394 
L 2053 2394 
Q 2494 2394 2734 2622 
Q 2975 2850 2975 3272 
Q 2975 3691 2734 3919 
Q 2494 4147 2053 4147 
L 1259 4147 
z
M 628 4666 
L 2053 4666 
Q 2838 4666 3239 4311 
Q 3641 3956 3641 3272 
Q 3641 2581 3239 2228 
Q 2838 1875 2053 1875 
L 1259 1875 
L 1259 0 
L 628 0 
L 628 4666 
z
" transform="scale(0.015625)"/>
     </defs>
     <use xlink:href="#DejaVuSans-54"/>
     <use xlink:href="#DejaVuSans-69" x="57.958984"/>
     <use xlink:href="#DejaVuSans-6d" x="85.742188"/>
     <use xlink:href="#DejaVuSans-65" x="183.154297"/>
     <use xlink:href="#DejaVuSans-20" x="244.677734"/>
     <use xlink:href="#DejaVuSans-44" x="276.464844"/>
     <use xlink:href="#DejaVuSans-6f" x="353.466797"/>
     <use xlink:href="#DejaVuSans-6d" x="414.648438"/>
     <use xlink:href="#DejaVuSans-61" x="512.060547"/>
     <use xlink:href="#DejaVuSans-69" x="573.339844"/>
     <use xlink:href="#DejaVuSans-6e" x="601.123047"/>
     <use xlink:href="#DejaVuSans-20" x="664.501953"/>
     <use xlink:href="#DejaVuSans-50" x="696.289062"/>
     <use xlink:href="#DejaVuSans-6c" x="756.591797"/>
     <use xlink:href="#DejaVuSans-6f" x="784.375"/>
     <use xlink:href="#DejaVuSans-74" x="845.556641"/>
    </g>
   </g>
   <g id="patch_7">
    <path d="M 140.439585 58.628538 
L 169.475397 58.628538 
L 169.475397 53.833268 
L 140.439585 53.833268 
L 140.439585 58.628538 
z
" clip-path="url(#pe0905a1686)" style="fill: none; opacity: 0.8; stroke: #000000; stroke-width: 1.2; stroke-linejoin: miter"/>
   </g>
   <g id="patch_8">
    <path d="M 100.904986 67.776 
Q 120.672285 60.804634 140.439585 53.833268 
" style="fill: none; opacity: 0.8; stroke: #000000; stroke-linecap: round"/>
   </g>
   <g id="patch_9">
    <path d="M 183.674957 67.776 
Q 176.575177 60.804634 169.475397 53.833268 
" style="fill: none; opacity: 0.8; stroke: #000000; stroke-linecap: round"/>
   </g>
   <g id="axes_2">
    <g id="patch_10">
     <path d="M 100.904986 108.672 
L 183.674957 108.672 
L 183.674957 67.776 
L 100.904986 67.776 
z
" style="fill: #ffffff"/>
    </g>
    <g id="matplotlib.axis_3">
     <g id="xtick_4">
      <g id="line2d_11">
       <g>
        <use xlink:href="#m3dd0bdc627" x="101.049112" y="108.672" style="stroke: #000000; stroke-width: 0.8"/>
       </g>
      </g>
      <g id="text_11">
       <!-- 1.3 -->
       <g transform="translate(93.09755 123.270437) scale(0.1 -0.1)">
        <defs>
         <path id="DejaVuSans-33" d="M 2597 2516 
Q 3050 2419 3304 2112 
Q 3559 1806 3559 1356 
Q 3559 666 3084 287 
Q 2609 -91 1734 -91 
Q 1441 -91 1130 -33 
Q 819 25 488 141 
L 488 750 
Q 750 597 1062 519 
Q 1375 441 1716 441 
Q 2309 441 2620 675 
Q 2931 909 2931 1356 
Q 2931 1769 2642 2001 
Q 2353 2234 1838 2234 
L 1294 2234 
L 1294 2753 
L 1863 2753 
Q 2328 2753 2575 2939 
Q 2822 3125 2822 3475 
Q 2822 3834 2567 4026 
Q 2313 4219 1838 4219 
Q 1578 4219 1281 4162 
Q 984 4106 628 3988 
L 628 4550 
Q 988 4650 1302 4700 
Q 1616 4750 1894 4750 
Q 2613 4750 3031 4423 
Q 3450 4097 3450 3541 
Q 3450 3153 3228 2886 
Q 3006 2619 2597 2516 
z
" transform="scale(0.015625)"/>
        </defs>
        <use xlink:href="#DejaVuSans-31"/>
        <use xlink:href="#DejaVuSans-2e" x="63.623047"/>
        <use xlink:href="#DejaVuSans-33" x="95.410156"/>
       </g>
      </g>
     </g>
     <g id="xtick_5">
      <g id="line2d_12">
       <g>
        <use xlink:href="#m3dd0bdc627" x="183.386703" y="108.672" style="stroke: #000000; stroke-width: 0.8"/>
       </g>
      </g>
      <g id="text_12">
       <!-- 1.4 -->
       <g transform="translate(175.435141 123.270437) scale(0.1 -0.1)">
        <use xlink:href="#DejaVuSans-31"/>
        <use xlink:href="#DejaVuSans-2e" x="63.623047"/>
        <use xlink:href="#DejaVuSans-34" x="95.410156"/>
       </g>
      </g>
     </g>
    </g>
    <g id="matplotlib.axis_4">
     <g id="ytick_5">
      <g id="line2d_13">
       <g>
        <use xlink:href="#mee4fd51ffd" x="100.904986" y="97.292993" style="stroke: #000000; stroke-width: 0.8"/>
       </g>
      </g>
      <g id="text_13">
       <!-- 0 -->
       <g transform="translate(87.542486 101.092211) scale(0.1 -0.1)">
        <use xlink:href="#DejaVuSans-30"/>
       </g>
      </g>
     </g>
     <g id="ytick_6">
      <g id="line2d_14">
       <g>
        <use xlink:href="#mee4fd51ffd" x="100.904986" y="73.516004" style="stroke: #000000; stroke-width: 0.8"/>
       </g>
      </g>
      <g id="text_14">
       <!-- 2 -->
       <g transform="translate(87.542486 77.315223) scale(0.1 -0.1)">
        <use xlink:href="#DejaVuSans-32"/>
       </g>
      </g>
     </g>
    </g>
    <g id="line2d_15">
     <path d="M 101.316776 75.908801 
L 102.552149 72.073257 
L 102.96394 71.183536 
L 103.787522 70.153699 
L 104.611104 70.904376 
L 105.022895 71.620225 
L 106.670058 78.03951 
L 107.49364 82.91562 
L 108.317222 86.831793 
L 109.552595 89.643483 
L 109.964385 90.05938 
L 110.376176 90.977688 
L 110.787967 90.943433 
L 111.199758 90.625273 
L 111.611549 90.719596 
L 112.435131 91.425935 
L 113.258713 93.245358 
L 114.082294 94.127816 
L 114.494085 94.573645 
L 114.905876 94.463288 
L 115.317667 94.472343 
L 115.729458 93.248159 
L 116.55304 92.380343 
L 116.964831 92.097789 
L 117.376622 92.334391 
L 117.788413 92.723335 
L 119.023785 95.326971 
L 119.435576 96.91248 
L 120.259158 99.283462 
L 120.670949 100.715443 
L 121.08274 101.641916 
L 121.906322 101.783681 
L 122.318112 101.492349 
L 122.729903 100.964533 
L 123.141694 99.856327 
L 123.553485 99.129492 
L 123.965276 98.883506 
L 124.377067 98.285645 
L 125.200649 94.894085 
L 126.436021 89.97081 
L 126.847812 88.354539 
L 127.259603 87.842572 
L 127.671394 87.926371 
L 128.906767 87.527845 
L 129.318558 87.623948 
L 129.730349 88.094232 
L 130.14214 87.496319 
L 130.55393 87.722291 
L 130.965721 88.138794 
L 131.377512 89.146483 
L 131.789303 89.563625 
L 132.201094 90.384684 
L 132.612885 90.842625 
L 133.024676 90.655244 
L 133.436467 90.667528 
L 134.671839 89.375282 
L 135.08363 88.729617 
L 135.907212 86.721792 
L 136.319003 86.811542 
L 136.730794 87.537632 
L 137.142585 87.789602 
L 137.554376 87.689809 
L 137.966167 88.184503 
L 138.377958 89.719875 
L 139.201539 92.113862 
L 140.436912 93.724249 
L 140.848703 93.674362 
L 141.672285 91.840376 
L 142.084076 91.686591 
L 142.495867 91.818682 
L 142.907658 91.696179 
L 144.14303 89.794092 
L 144.554821 89.785624 
L 146.201985 88.371627 
L 146.613776 87.805042 
L 147.437357 88.812671 
L 147.849148 89.487286 
L 149.084521 92.288597 
L 150.731685 95.947311 
L 151.143476 96.361277 
L 151.555266 96.396283 
L 151.967057 97.016333 
L 152.378848 97.915154 
L 152.790639 98.29984 
L 154.026012 101.608913 
L 154.849594 104.470931 
L 155.261385 104.349187 
L 155.673175 103.623671 
L 156.496757 104.112895 
L 156.908548 104.829133 
L 157.320339 105.148644 
L 157.73213 105.690509 
L 158.143921 105.89621 
L 158.555712 105.559908 
L 158.967503 105.942499 
L 159.379294 105.927434 
L 159.791084 105.705673 
L 160.202875 104.808862 
L 160.614666 104.503117 
L 161.438248 102.00964 
L 161.850039 101.354709 
L 162.673621 101.047923 
L 163.085412 101.332718 
L 163.497203 101.274377 
L 164.320784 100.789746 
L 164.732575 99.706358 
L 165.967948 98.727652 
L 166.379739 98.048088 
L 166.79153 97.797535 
L 167.203321 97.223049 
L 168.026902 95.417301 
L 168.850484 94.021532 
L 169.262275 93.637676 
L 170.085857 94.644296 
L 170.497648 94.812138 
L 170.909439 95.22874 
L 171.32123 96.597279 
L 171.733021 97.554218 
L 172.144811 98.157219 
L 172.968393 98.675261 
L 173.380184 99.294388 
L 174.615557 97.862717 
L 175.439139 98.203962 
L 175.85093 97.999262 
L 176.262721 98.395284 
L 176.674511 99.482936 
L 177.086302 99.44843 
L 177.498093 98.858668 
L 177.909884 98.677647 
L 178.321675 98.714498 
L 178.733466 98.557682 
L 179.145257 98.21815 
L 179.557048 98.382809 
L 179.968839 99.327595 
L 180.79242 99.083876 
L 181.616002 99.887873 
L 182.027793 100.406957 
L 183.263166 103.404447 
L 183.263166 103.404447 
" clip-path="url(#pb0053c06a5)" style="fill: none; stroke: #1e90ff; stroke-linecap: square"/>
    </g>
    <g id="line2d_16">
     <path d="M 101.316776 74.255098 
L 102.552149 76.775219 
L 102.96394 72.346427 
L 103.375731 72.855111 
L 104.199313 72.080585 
L 104.611104 72.328212 
L 105.022895 73.258566 
L 105.434685 75.222963 
L 105.846476 75.492983 
L 106.258267 77.732039 
L 106.670058 77.351477 
L 107.081849 77.829848 
L 107.905431 83.347933 
L 108.317222 82.958818 
L 108.729013 84.367714 
L 109.140804 86.717416 
L 109.552595 86.605636 
L 109.964385 90.216091 
L 110.376176 91.421052 
L 110.787967 91.474155 
L 111.611549 92.067693 
L 112.02334 92.763547 
L 112.435131 91.015357 
L 112.846922 92.285664 
L 113.258713 91.680844 
L 113.670504 91.439834 
L 114.082294 90.872208 
L 114.494085 92.272669 
L 115.729458 94.633719 
L 116.141249 96.183221 
L 116.55304 94.491638 
L 116.964831 94.214343 
L 117.376622 94.151942 
L 117.788413 94.243537 
L 118.200203 95.36058 
L 118.611994 95.178636 
L 119.023785 95.441644 
L 119.435576 96.196216 
L 119.847367 95.542478 
L 120.259158 96.787204 
L 120.670949 97.518335 
L 121.08274 100.291197 
L 121.494531 99.584916 
L 122.318112 102.833842 
L 122.729903 102.292609 
L 123.141694 101.367639 
L 123.553485 101.109705 
L 124.377067 99.781313 
L 125.61244 93.302612 
L 126.436021 88.346209 
L 126.847812 87.785186 
L 127.259603 85.775991 
L 127.671394 86.170141 
L 128.083185 87.356096 
L 128.906767 88.761407 
L 129.318558 90.546555 
L 129.730349 89.426737 
L 130.14214 90.007332 
L 130.55393 89.241307 
L 130.965721 90.039979 
L 131.377512 89.628827 
L 131.789303 89.056904 
L 132.201094 87.928005 
L 132.612885 88.200016 
L 133.024676 87.676279 
L 133.436467 86.576377 
L 133.848258 86.69219 
L 134.671839 89.014899 
L 135.08363 91.340469 
L 135.495421 91.039555 
L 135.907212 87.756625 
L 136.319003 88.786937 
L 136.730794 88.975135 
L 137.142585 88.920807 
L 137.966167 89.535828 
L 138.377958 90.587229 
L 138.789748 89.824274 
L 139.201539 91.301522 
L 139.61333 89.398373 
L 140.025121 89.050842 
L 140.848703 93.855937 
L 141.260494 93.821103 
L 142.084076 94.053935 
L 142.495867 91.030382 
L 142.907658 92.569458 
L 143.731239 91.64543 
L 144.14303 91.150175 
L 144.554821 90.26549 
L 144.966612 90.181559 
L 145.378403 88.486076 
L 147.025567 86.800991 
L 147.437357 88.156917 
L 147.849148 88.735416 
L 148.260939 89.980814 
L 148.67273 90.383438 
L 149.084521 92.953248 
L 149.496312 93.635646 
L 149.908103 95.327683 
L 150.731685 96.752698 
L 151.143476 97.613152 
L 151.555266 97.498815 
L 151.967057 98.342247 
L 152.378848 98.402203 
L 152.790639 97.716998 
L 153.20243 98.575653 
L 153.614221 97.624369 
L 154.437803 99.043137 
L 154.849594 101.843492 
L 155.261385 102.070888 
L 155.673175 104.345358 
L 156.084966 105.535136 
L 156.496757 106.294301 
L 156.908548 106.071947 
L 157.320339 106.055182 
L 157.73213 105.787211 
L 158.143921 105.778176 
L 158.967503 103.04297 
L 159.379294 102.100174 
L 159.791084 102.565839 
L 160.202875 102.041022 
L 160.614666 103.849906 
L 161.438248 104.947226 
L 161.850039 105.886437 
L 162.26183 103.308021 
L 162.673621 102.75579 
L 163.497203 102.549792 
L 164.320784 101.67915 
L 164.732575 101.055957 
L 165.144366 98.92847 
L 165.967948 97.188056 
L 166.379739 95.652802 
L 166.79153 95.838681 
L 167.203321 96.615224 
L 167.615112 96.838474 
L 168.026902 97.729124 
L 168.438693 97.787973 
L 168.850484 98.23164 
L 169.262275 96.148175 
L 169.674066 95.861706 
L 170.497648 96.230089 
L 170.909439 96.573463 
L 171.733021 96.463627 
L 172.144811 96.275718 
L 172.556602 94.854782 
L 172.968393 95.403804 
L 173.380184 96.507622 
L 173.791975 99.060752 
L 174.203766 98.962488 
L 174.615557 100.359377 
L 175.027348 100.516615 
L 175.439139 101.205636 
L 175.85093 100.602813 
L 176.262721 100.587339 
L 176.674511 100.32184 
L 177.086302 100.521367 
L 177.498093 99.954927 
L 177.909884 99.996029 
L 178.321675 99.553258 
L 179.145257 96.359056 
L 180.79242 99.710575 
L 181.204211 101.980235 
L 181.616002 100.547661 
L 182.027793 100.494605 
L 182.439584 103.719912 
L 182.851375 104.731824 
L 183.263166 105.191334 
L 183.263166 105.191334 
" clip-path="url(#pb0053c06a5)" style="fill: none; stroke: #ff0000; stroke-width: 0.8; stroke-linecap: square"/>
    </g>
    <g id="line2d_17">
     <path d="M 101.316776 62.431881 
L 101.864449 181 
M 104.525337 181 
L 104.611104 88.848106 
L 104.907353 -1 
M 107.119831 -1 
L 107.905431 72.619841 
L 108.434168 181 
M 111.123904 181 
L 111.199758 105.603837 
L 111.630871 -1 
M 113.279152 -1 
L 114.082294 52.045278 
L 114.494085 84.223853 
L 115.06524 181 
M 117.706815 181 
L 117.788413 115.454328 
L 118.091409 -1 
M 120.327229 -1 
L 121.08274 85.935404 
L 121.472166 181 
M 124.327599 181 
L 124.377067 118.884631 
L 124.715856 -1 
M 126.934983 -1 
L 127.671394 73.693021 
L 128.145275 181 
M 130.903634 181 
L 130.965721 111.150114 
L 131.254232 -1 
M 133.599449 -1 
L 134.260049 74.020532 
L 134.691716 181 
M 137.4946 181 
L 137.554376 104.502313 
L 137.925089 -1 
M 139.812139 -1 
L 140.436912 46.489221 
L 140.848703 82.057367 
L 141.379825 181 
M 144.060375 181 
L 144.14303 103.950965 
L 144.618386 -1 
M 146.217957 -1 
L 147.025567 48.495754 
L 147.437357 79.030651 
L 148.059047 181 
M 150.647403 181 
L 150.731685 117.044173 
L 151.061769 -1 
M 153.198844 -1 
L 153.614221 41.021959 
L 154.026012 87.031543 
L 154.435062 181 
M 157.274599 181 
L 157.320339 128.231778 
L 157.650794 -1 
M 159.81694 -1 
L 160.614666 88.553287 
L 160.992938 181 
M 163.859079 181 
L 163.908993 116.768479 
L 164.387529 -1 
M 165.984634 -1 
L 166.79153 53.396142 
L 167.203321 86.302956 
L 167.743418 181 
M 170.423321 181 
L 170.497648 117.77657 
L 170.802705 -1 
M 173.052711 -1 
L 173.791975 82.990351 
L 174.191222 181 
M 177.038585 181 
L 177.086302 120.569979 
L 177.423551 -1 
M 179.5646 -1 
L 180.38063 84.654301 
L 180.804116 181 
L 180.804116 181 
" clip-path="url(#pb0053c06a5)" style="fill: none; stroke: #808080; stroke-width: 0.2; stroke-linecap: square"/>
    </g>
    <g id="patch_11">
     <path d="M 100.904986 108.672 
L 100.904986 67.776 
" style="fill: none; stroke: #000000; stroke-width: 0.8; stroke-linejoin: miter; stroke-linecap: square"/>
    </g>
    <g id="patch_12">
     <path d="M 183.674957 108.672 
L 183.674957 67.776 
" style="fill: none; stroke: #000000; stroke-width: 0.8; stroke-linejoin: miter; stroke-linecap: square"/>
    </g>
    <g id="patch_13">
     <path d="M 100.904986 108.672 
L 183.674957 108.672 
" style="fill: none; stroke: #000000; stroke-width: 0.8; stroke-linejoin: miter; stroke-linecap: square"/>
    </g>
    <g id="patch_14">
     <path d="M 100.904986 67.776 
L 183.674957 67.776 
" style="fill: none; stroke: #000000; stroke-width: 0.8; stroke-linejoin: miter; stroke-linecap: square"/>
    </g>
   </g>
   <g id="legend_1">
    <g id="patch_15">
     <path d="M 20.235014 158.292 
L 51.103139 158.292 
Q 51.703139 158.292 51.703139 157.692 
L 51.703139 144.781688 
Q 51.703139 144.181688 51.103139 144.181688 
L 20.235014 144.181688 
Q 19.635014 144.181688 19.635014 144.781688 
L 19.635014 157.692 
Q 19.635014 158.292 20.235014 158.292 
z
" style="fill: #ffffff; opacity: 0.8; stroke: #cccccc; stroke-linejoin: miter"/>
    </g>
    <g id="line2d_18">
     <path d="M 20.835014 146.611219 
L 23.835014 146.611219 
L 26.835014 146.611219 
" style="fill: none; stroke: #808080; stroke-width: 0.7; stroke-linecap: square"/>
    </g>
    <g id="text_15">
     <!-- Contaminated -->
     <g transform="translate(29.235014 147.661219) scale(0.03 -0.03)">
      <defs>
       <path id="DejaVuSans-43" d="M 4122 4306 
L 4122 3641 
Q 3803 3938 3442 4084 
Q 3081 4231 2675 4231 
Q 1875 4231 1450 3742 
Q 1025 3253 1025 2328 
Q 1025 1406 1450 917 
Q 1875 428 2675 428 
Q 3081 428 3442 575 
Q 3803 722 4122 1019 
L 4122 359 
Q 3791 134 3420 21 
Q 3050 -91 2638 -91 
Q 1578 -91 968 557 
Q 359 1206 359 2328 
Q 359 3453 968 4101 
Q 1578 4750 2638 4750 
Q 3056 4750 3426 4639 
Q 3797 4528 4122 4306 
z
" transform="scale(0.015625)"/>
      </defs>
      <use xlink:href="#DejaVuSans-43"/>
      <use xlink:href="#DejaVuSans-6f" x="69.824219"/>
      <use xlink:href="#DejaVuSans-6e" x="131.005859"/>
      <use xlink:href="#DejaVuSans-74" x="194.384766"/>
      <use xlink:href="#DejaVuSans-61" x="233.59375"/>
      <use xlink:href="#DejaVuSans-6d" x="294.873047"/>
      <use xlink:href="#DejaVuSans-69" x="392.285156"/>
      <use xlink:href="#DejaVuSans-6e" x="420.068359"/>
      <use xlink:href="#DejaVuSans-61" x="483.447266"/>
      <use xlink:href="#DejaVuSans-74" x="544.726562"/>
      <use xlink:href="#DejaVuSans-65" x="583.935547"/>
      <use xlink:href="#DejaVuSans-64" x="645.458984"/>
     </g>
    </g>
    <g id="line2d_19">
     <path d="M 20.835014 151.014656 
L 23.835014 151.014656 
L 26.835014 151.014656 
" style="fill: none; stroke: #1e90ff; stroke-linecap: square"/>
    </g>
    <g id="text_16">
     <!-- Clean -->
     <g transform="translate(29.235014 152.064656) scale(0.03 -0.03)">
      <use xlink:href="#DejaVuSans-43"/>
      <use xlink:href="#DejaVuSans-6c" x="69.824219"/>
      <use xlink:href="#DejaVuSans-65" x="97.607422"/>
      <use xlink:href="#DejaVuSans-61" x="159.130859"/>
      <use xlink:href="#DejaVuSans-6e" x="220.410156"/>
     </g>
    </g>
    <g id="line2d_20">
     <path d="M 20.835014 155.418094 
L 23.835014 155.418094 
L 26.835014 155.418094 
" style="fill: none; stroke: #ff0000; stroke-width: 0.8; stroke-linecap: square"/>
    </g>
    <g id="text_17">
     <!-- SACed -->
     <g transform="translate(29.235014 156.468094) scale(0.03 -0.03)">
      <defs>
       <path id="DejaVuSans-53" d="M 3425 4513 
L 3425 3897 
Q 3066 4069 2747 4153 
Q 2428 4238 2131 4238 
Q 1616 4238 1336 4038 
Q 1056 3838 1056 3469 
Q 1056 3159 1242 3001 
Q 1428 2844 1947 2747 
L 2328 2669 
Q 3034 2534 3370 2195 
Q 3706 1856 3706 1288 
Q 3706 609 3251 259 
Q 2797 -91 1919 -91 
Q 1588 -91 1214 -16 
Q 841 59 441 206 
L 441 856 
Q 825 641 1194 531 
Q 1563 422 1919 422 
Q 2459 422 2753 634 
Q 3047 847 3047 1241 
Q 3047 1584 2836 1778 
Q 2625 1972 2144 2069 
L 1759 2144 
Q 1053 2284 737 2584 
Q 422 2884 422 3419 
Q 422 4038 858 4394 
Q 1294 4750 2059 4750 
Q 2388 4750 2728 4690 
Q 3069 4631 3425 4513 
z
" transform="scale(0.015625)"/>
      </defs>
      <use xlink:href="#DejaVuSans-53"/>
      <use xlink:href="#DejaVuSans-41" x="65.351562"/>
      <use xlink:href="#DejaVuSans-43" x="132.009766"/>
      <use xlink:href="#DejaVuSans-65" x="201.833984"/>
      <use xlink:href="#DejaVuSans-64" x="263.357422"/>
     </g>
    </g>
   </g>
  </g>
 </g>
 <defs>
  <clipPath id="pe0905a1686">
   <rect x="59.52" y="26.88" width="137.949952" height="102.24"/>
  </clipPath>
  <clipPath id="pb0053c06a5">
   <rect x="100.904986" y="67.776" width="82.769971" height="40.896"/>
  </clipPath>
 </defs>
</svg>
