<?xml version="1.0" encoding="utf-8" standalone="no"?>
<!DOCTYPE svg PUBLIC "-//W3C//DTD SVG 1.1//EN"
  "http://www.w3.org/Graphics/SVG/1.1/DTD/svg11.dtd">
<svg xmlns:xlink="http://www.w3.org/1999/xlink" width="216pt" height="180pt" viewBox="0 0 216 180" xmlns="http://www.w3.org/2000/svg" version="1.1">
 <metadata>
  <rdf:RDF xmlns:dc="http://purl.org/dc/elements/1.1/" xmlns:cc="http://creativecommons.org/ns#" xmlns:rdf="http://www.w3.org/1999/02/22-rdf-syntax-ns#">
   <cc:Work>
    <dc:type rdf:resource="http://purl.org/dc/dcmitype/StillImage"/>
    <dc:date>2024-08-26T02:53:42.342690</dc:date>
    <dc:format>image/svg+xml</dc:format>
    <dc:creator>
     <cc:Agent>
      <dc:title>Matplotlib v3.9.1, https://matplotlib.org/</dc:title>
     </cc:Agent>
    </dc:creator>
   </cc:Work>
  </rdf:RDF>
 </metadata>
 <defs>
  <style type="text/css">*{stroke-linejoin: round; stroke-linecap: butt}</style>
 </defs>
 <g id="figure_1">
  <g id="patch_1">
   <path d="M 0 180 
L 216 180 
L 216 0 
L 0 0 
z
" style="fill: #ffffff"/>
  </g>
  <g id="axes_1">
   <g id="patch_2">
    <path d="M 59.52 129.12 
L 194.255487 129.12 
L 194.255487 26.88 
L 59.52 26.88 
z
" style="fill: #ffffff"/>
   </g>
   <g id="line2d_1">
    <path d="M 59.587334 73.321298 
L 59.85667 46.783279 
L 59.991339 47.393893 
L 60.260675 52.664391 
L 60.664679 69.054908 
L 61.33802 94.950752 
L 61.607356 97.729901 
L 62.011361 39.963417 
L 62.146029 40.776213 
L 62.415365 48.333013 
L 62.954038 78.060134 
L 63.492711 103.924976 
L 63.762047 107.858281 
L 64.031383 51.406802 
L 64.166051 43.304945 
L 64.300719 44.231174 
L 64.570056 50.948091 
L 65.108728 76.362313 
L 65.647401 99.476174 
L 65.916737 103.362433 
L 66.320742 44.106629 
L 66.45541 44.987156 
L 66.724746 52.545469 
L 67.263419 81.575348 
L 67.802091 107.92729 
L 68.071428 111.921005 
L 68.340764 54.763176 
L 68.475432 44.553714 
L 68.6101 45.712371 
L 68.879437 53.920349 
L 69.418109 84.895625 
L 69.956782 111.55136 
L 70.226118 114.950197 
L 70.495454 53.886006 
L 70.630123 43.045198 
L 70.764791 43.749833 
L 71.034127 51.206744 
L 71.438132 73.417692 
L 71.976804 104.287982 
L 72.24614 111.826005 
L 72.380809 112.650556 
L 72.650145 49.749976 
L 72.784813 38.249995 
L 72.919481 39.222333 
L 73.188818 47.581294 
L 73.592822 71.596223 
L 74.131495 105.261768 
L 74.400831 113.698463 
L 74.535499 114.746952 
L 74.804835 52.972098 
L 74.939504 45.506998 
L 75.074172 46.045634 
L 75.343508 51.355205 
L 75.747512 67.325804 
L 76.420853 93.304534 
L 76.69019 96.541284 
L 77.094194 37.543617 
L 77.228862 38.742638 
L 77.498198 47.186293 
L 77.902203 71.132624 
L 78.575544 110.474938 
L 78.84488 115.559828 
L 79.114216 51.554971 
L 79.248884 40.633988 
L 79.383553 41.907759 
L 79.652889 50.72864 
L 80.191562 84.438218 
L 80.730234 114.442161 
L 80.99957 118.898058 
L 81.268907 52.470945 
L 81.403575 40.464653 
L 81.538243 41.690432 
L 81.807579 50.823166 
L 82.346252 86.818634 
L 82.884925 118.277212 
L 83.154261 122.591338 
L 83.423597 57.134783 
L 83.558265 48.909124 
L 83.692933 49.671466 
L 83.96227 55.975168 
L 84.500942 79.810246 
L 85.039615 100.759027 
L 85.308951 103.708763 
L 85.712956 40.920999 
L 85.847624 42.189574 
L 86.11696 50.658189 
L 86.520965 74.134835 
L 87.194305 111.779996 
L 87.463642 115.884202 
L 87.732978 50.442656 
L 87.867646 38.96335 
L 88.002314 40.112553 
L 88.271651 48.859763 
L 88.810323 82.030513 
L 89.348996 110.889196 
L 89.618332 114.626814 
L 89.887669 48.54074 
L 90.022337 37.772486 
L 90.157005 38.707115 
L 90.426341 46.842064 
L 90.965014 78.843176 
L 91.503686 107.371261 
L 91.773023 112.073876 
L 92.042359 50.342527 
L 92.177027 39.533248 
L 92.311695 40.643806 
L 92.581032 48.699771 
L 92.985036 71.899001 
L 93.658377 108.822986 
L 93.927713 113.295211 
L 94.197049 54.793883 
L 94.331718 47.525366 
L 94.466386 48.458829 
L 94.735722 54.767639 
L 95.274395 78.141006 
L 95.813067 98.6089 
L 96.082404 101.469065 
L 96.486408 43.177125 
L 96.621076 44.405481 
L 96.890413 52.90652 
L 97.429085 84.476383 
L 97.967758 112.180259 
L 98.237094 116.396863 
L 98.50643 56.332572 
L 98.641098 46.584195 
L 98.775767 47.407 
L 99.045103 54.315023 
L 99.583776 82.002158 
L 100.122448 106.156265 
L 100.391784 109.678056 
L 100.661121 55.74753 
L 100.795789 47.898896 
L 100.930457 48.37222 
L 101.199793 53.513785 
L 101.603798 69.219344 
L 102.14247 91.281445 
L 102.411807 96.937768 
L 102.546475 97.644159 
L 102.950479 42.673755 
L 103.085148 43.363655 
L 103.354484 50.085186 
L 103.893156 76.00195 
L 104.431829 98.665614 
L 104.701165 102.016737 
L 105.10517 34.137392 
L 105.239838 35.201435 
L 105.509174 44.373768 
L 105.913179 70.707704 
L 106.58652 112.368141 
L 106.855856 117.127017 
L 107.125192 49.03118 
L 107.25986 38.96231 
L 107.394528 39.981751 
L 107.663865 48.012435 
L 108.202537 78.675665 
L 108.74121 105.455763 
L 109.010546 109.714654 
L 109.279883 53.400538 
L 109.414551 45.029213 
L 109.549219 46.112822 
L 109.818555 53.122098 
L 110.357228 79.507539 
L 110.8959 102.332845 
L 111.165237 105.71651 
L 111.434573 54.438601 
L 111.569241 45.071785 
L 111.703909 45.845405 
L 111.973246 53.172808 
L 112.37725 73.752898 
L 112.915923 102.098566 
L 113.185259 109.12082 
L 113.319927 109.965353 
L 113.723932 40.428622 
L 113.8586 41.511181 
L 114.127936 49.976542 
L 114.666609 83.13846 
L 115.205281 112.085705 
L 115.474618 116.085658 
L 115.743954 50.787576 
L 115.878622 40.465806 
L 116.01329 41.267979 
L 116.282627 48.490697 
L 116.821299 78.035133 
L 117.359972 103.346927 
L 117.629308 107.303919 
L 117.898644 48.776258 
L 118.033313 38.467236 
L 118.167981 39.373171 
L 118.437317 47.00764 
L 118.97599 77.122416 
L 119.514662 104.162137 
L 119.783999 108.40678 
L 120.053335 48.447345 
L 120.188003 37.670593 
L 120.322671 38.922312 
L 120.592007 47.684853 
L 121.13068 80.325135 
L 121.669353 109.489868 
L 121.938689 113.928332 
L 122.208025 52.708073 
L 122.342693 44.363706 
L 122.477362 45.217517 
L 122.746698 51.702958 
L 123.285371 77.518187 
L 123.824043 99.891087 
L 124.093379 103.506165 
L 124.497384 38.86901 
L 124.632052 40.027121 
L 124.901388 48.784533 
L 125.305393 73.866551 
L 125.978734 113.933249 
L 126.24807 118.220949 
L 126.517406 52.479227 
L 126.652074 42.178522 
L 126.786743 43.127113 
L 127.056079 51.040595 
L 127.460083 73.121848 
L 128.133424 108.405182 
L 128.40276 112.2809 
L 128.672097 50.437192 
L 128.806765 39.483106 
L 128.941433 40.468076 
L 129.210769 48.51787 
L 129.614774 70.901972 
L 130.288114 107.926881 
L 130.557451 111.953489 
L 130.826787 52.294314 
L 130.961455 44.012516 
L 131.096123 44.879187 
L 131.36546 51.169712 
L 131.769464 69.128028 
L 132.308137 93.736148 
L 132.577473 99.724062 
L 132.712141 100.324804 
L 132.981478 51.662715 
L 133.116146 43.565617 
L 133.250814 44.284731 
L 133.52015 50.449445 
L 134.058823 74.891515 
L 134.597495 96.20643 
L 134.866832 99.355811 
L 135.136168 53.025326 
L 135.270836 45.30954 
L 135.405504 46.121829 
L 135.674841 52.048037 
L 136.078845 69.231026 
L 136.617518 92.940771 
L 136.886854 99.282466 
L 137.021522 100.302624 
L 137.425527 43.992272 
L 137.560195 45.108519 
L 137.829531 52.392055 
L 138.368204 80.326598 
L 138.906876 104.671283 
L 139.176213 108.210002 
L 139.580217 39.893023 
L 139.714885 41.06107 
L 139.984222 49.696497 
L 140.388226 74.280506 
L 140.926899 108.425931 
L 141.196235 117.448364 
L 141.330903 118.62687 
L 141.600239 54.785843 
L 141.734908 45.964913 
L 141.869576 46.680946 
L 142.138912 52.717892 
L 142.542916 70.422535 
L 143.216257 99.692605 
L 143.485594 103.211749 
L 143.889598 37.763316 
L 144.024266 38.55607 
L 144.293602 46.43325 
L 144.832275 78.534597 
L 145.370948 107.090515 
L 145.640284 111.325452 
L 145.90962 47.748373 
L 146.044288 37.231056 
L 146.178957 38.034891 
L 146.448293 45.561437 
L 146.852297 67.57412 
L 147.525638 103.724098 
L 147.794974 108.066087 
L 148.198979 34.456433 
L 148.333647 35.645779 
L 148.602983 44.891522 
L 149.006988 70.102361 
L 149.680329 110.747797 
L 149.949665 115.418762 
L 150.219001 48.297345 
L 150.353669 37.846216 
L 150.488337 39.264286 
L 150.757674 47.884827 
L 151.296346 80.494927 
L 151.835019 108.563431 
L 152.104355 112.933448 
L 152.373692 51.610059 
L 152.50836 41.74049 
L 152.643028 42.784044 
L 152.912364 50.369047 
L 153.451037 79.882057 
L 153.989709 106.464391 
L 154.259046 110.554223 
L 154.528382 52.309766 
L 154.66305 42.009306 
L 154.797718 43.089536 
L 155.067055 50.882707 
L 155.605727 81.114664 
L 156.1444 107.668686 
L 156.413736 111.297101 
L 156.683073 54.385889 
L 156.817741 46.327823 
L 156.952409 47.161943 
L 157.221745 52.982693 
L 157.62575 69.241017 
L 158.164422 91.884082 
L 158.433759 97.492277 
L 158.568427 97.981365 
L 158.837763 50.886061 
L 158.972431 42.543484 
L 159.107099 42.957415 
L 159.376436 48.781947 
L 159.78044 65.754747 
L 160.319113 89.582897 
L 160.588449 95.38468 
L 160.723117 96.221205 
L 161.127122 31.527273 
L 161.26179 32.589875 
L 161.531126 41.77662 
L 161.93513 68.280631 
L 162.473803 104.955569 
L 162.743139 114.532368 
L 162.877808 116.010103 
L 163.147144 47.134028 
L 163.281812 36.975396 
L 163.41648 38.016734 
L 163.685816 45.759083 
L 164.089821 67.803351 
L 164.763162 103.966024 
L 165.032498 108.10703 
L 165.301834 48.265898 
L 165.436502 37.479952 
L 165.571171 38.706942 
L 165.840507 47.379738 
L 166.244511 71.034946 
L 166.917852 109.049965 
L 167.187188 113.746498 
L 167.456525 50.663907 
L 167.591193 39.785285 
L 167.725861 41.18647 
L 167.995197 49.806117 
L 168.399202 74.547428 
L 168.937874 108.449457 
L 169.207211 116.818913 
L 169.341879 117.830045 
L 169.611215 53.91735 
L 169.745883 43.835899 
L 169.880552 44.900007 
L 170.149888 52.659751 
L 170.68856 82.329099 
L 171.227233 107.689008 
L 171.496569 111.055476 
L 171.900574 36.157133 
L 172.035242 37.128136 
L 172.304578 46.124201 
L 172.708583 72.128443 
L 173.247255 108.48896 
L 173.516592 117.745681 
L 173.65126 119.004248 
L 173.920596 50.914242 
L 174.055264 41.784068 
L 174.189932 42.61373 
L 174.459269 49.624225 
L 174.863273 69.670197 
L 175.536614 101.802126 
L 175.80595 105.411651 
L 176.075287 52.601718 
L 176.209955 43.379306 
L 176.344623 44.346064 
L 176.613959 51.579267 
L 177.152632 79.816407 
L 177.691304 104.876236 
L 177.960641 108.842951 
L 178.229977 56.460676 
L 178.364645 48.274494 
L 178.499313 48.967053 
L 178.76865 55.04328 
L 179.172654 72.352977 
L 179.845995 101.417908 
L 180.115331 105.095934 
L 180.519336 40.593975 
L 180.654004 41.677183 
L 180.92334 50.69038 
L 181.327345 77.217363 
L 181.866017 113.883953 
L 182.135353 123.117134 
L 182.270022 124.472727 
L 182.539358 59.187497 
L 182.674026 50.90024 
L 182.808694 51.606183 
L 183.078031 57.643463 
L 183.482035 75.168874 
L 184.020708 99.355524 
L 184.290044 105.401837 
L 184.424712 106.184097 
L 184.694048 57.549527 
L 184.828717 49.015635 
L 184.963385 49.715843 
L 185.232721 55.891654 
L 185.771394 80.040896 
L 186.310066 100.685487 
L 186.579403 103.263997 
L 186.848739 54.151064 
L 186.983407 45.922147 
L 187.118075 46.311502 
L 187.387411 51.868415 
L 187.791416 67.753871 
L 188.464757 94.643029 
L 188.734093 97.977856 
L 189.138097 34.196801 
L 189.272766 35.421344 
L 189.542102 44.912888 
L 190.080775 82.030026 
L 190.619447 115.344495 
L 190.888783 120.854856 
L 191.15812 54.3618 
L 191.292788 46.356504 
L 191.427456 47.091147 
L 191.696792 53.152094 
L 192.100797 70.465836 
L 192.639469 94.324873 
L 192.908806 100.123571 
L 193.043474 100.970207 
L 193.31281 53.609812 
L 193.447478 45.15801 
L 193.582146 46.150722 
L 193.851483 52.858761 
L 194.120819 64.625405 
L 194.120819 64.625405 
" clip-path="url(#p7bde614e18)" style="fill: none; stroke: #808080; stroke-width: 0.9; stroke-linecap: square"/>
   </g>
   <g id="matplotlib.axis_1">
    <g id="xtick_1">
     <g id="line2d_2">
      <defs>
       <path id="mcf0cff27b7" d="M 0 0 
L 0 3.5 
" style="stroke: #000000; stroke-width: 0.8"/>
      </defs>
      <g>
       <use xlink:href="#mcf0cff27b7" x="59.52" y="129.12" style="stroke: #000000; stroke-width: 0.8"/>
      </g>
     </g>
     <g id="text_1">
      <!-- 1.00 -->
      <g transform="translate(48.387187 143.718437) scale(0.1 -0.1)">
       <defs>
        <path id="DejaVuSans-31" d="M 794 531 
L 1825 531 
L 1825 4091 
L 703 3866 
L 703 4441 
L 1819 4666 
L 2450 4666 
L 2450 531 
L 3481 531 
L 3481 0 
L 794 0 
L 794 531 
z
" transform="scale(0.015625)"/>
        <path id="DejaVuSans-2e" d="M 684 794 
L 1344 794 
L 1344 0 
L 684 0 
L 684 794 
z
" transform="scale(0.015625)"/>
        <path id="DejaVuSans-30" d="M 2034 4250 
Q 1547 4250 1301 3770 
Q 1056 3291 1056 2328 
Q 1056 1369 1301 889 
Q 1547 409 2034 409 
Q 2525 409 2770 889 
Q 3016 1369 3016 2328 
Q 3016 3291 2770 3770 
Q 2525 4250 2034 4250 
z
M 2034 4750 
Q 2819 4750 3233 4129 
Q 3647 3509 3647 2328 
Q 3647 1150 3233 529 
Q 2819 -91 2034 -91 
Q 1250 -91 836 529 
Q 422 1150 422 2328 
Q 422 3509 836 4129 
Q 1250 4750 2034 4750 
z
" transform="scale(0.015625)"/>
       </defs>
       <use xlink:href="#DejaVuSans-31"/>
       <use xlink:href="#DejaVuSans-2e" x="63.623047"/>
       <use xlink:href="#DejaVuSans-30" x="95.410156"/>
       <use xlink:href="#DejaVuSans-30" x="159.033203"/>
      </g>
     </g>
    </g>
    <g id="xtick_2">
     <g id="line2d_3">
      <g>
       <use xlink:href="#mcf0cff27b7" x="126.837243" y="129.12" style="stroke: #000000; stroke-width: 0.8"/>
      </g>
     </g>
     <g id="text_2">
      <!-- 1.25 -->
      <g transform="translate(115.704431 143.718437) scale(0.1 -0.1)">
       <defs>
        <path id="DejaVuSans-32" d="M 1228 531 
L 3431 531 
L 3431 0 
L 469 0 
L 469 531 
Q 828 903 1448 1529 
Q 2069 2156 2228 2338 
Q 2531 2678 2651 2914 
Q 2772 3150 2772 3378 
Q 2772 3750 2511 3984 
Q 2250 4219 1831 4219 
Q 1534 4219 1204 4116 
Q 875 4013 500 3803 
L 500 4441 
Q 881 4594 1212 4672 
Q 1544 4750 1819 4750 
Q 2544 4750 2975 4387 
Q 3406 4025 3406 3419 
Q 3406 3131 3298 2873 
Q 3191 2616 2906 2266 
Q 2828 2175 2409 1742 
Q 1991 1309 1228 531 
z
" transform="scale(0.015625)"/>
        <path id="DejaVuSans-35" d="M 691 4666 
L 3169 4666 
L 3169 4134 
L 1269 4134 
L 1269 2991 
Q 1406 3038 1543 3061 
Q 1681 3084 1819 3084 
Q 2600 3084 3056 2656 
Q 3513 2228 3513 1497 
Q 3513 744 3044 326 
Q 2575 -91 1722 -91 
Q 1428 -91 1123 -41 
Q 819 9 494 109 
L 494 744 
Q 775 591 1075 516 
Q 1375 441 1709 441 
Q 2250 441 2565 725 
Q 2881 1009 2881 1497 
Q 2881 1984 2565 2268 
Q 2250 2553 1709 2553 
Q 1456 2553 1204 2497 
Q 953 2441 691 2322 
L 691 4666 
z
" transform="scale(0.015625)"/>
       </defs>
       <use xlink:href="#DejaVuSans-31"/>
       <use xlink:href="#DejaVuSans-2e" x="63.623047"/>
       <use xlink:href="#DejaVuSans-32" x="95.410156"/>
       <use xlink:href="#DejaVuSans-35" x="159.033203"/>
      </g>
     </g>
    </g>
    <g id="xtick_3">
     <g id="line2d_4">
      <g>
       <use xlink:href="#mcf0cff27b7" x="194.154486" y="129.12" style="stroke: #000000; stroke-width: 0.8"/>
      </g>
     </g>
     <g id="text_3">
      <!-- 1.50 -->
      <g transform="translate(183.021674 143.718437) scale(0.1 -0.1)">
       <use xlink:href="#DejaVuSans-31"/>
       <use xlink:href="#DejaVuSans-2e" x="63.623047"/>
       <use xlink:href="#DejaVuSans-35" x="95.410156"/>
       <use xlink:href="#DejaVuSans-30" x="159.033203"/>
      </g>
     </g>
    </g>
    <g id="text_4">
     <!-- Time (s) -->
     <g transform="translate(106.558837 157.396563) scale(0.1 -0.1)">
      <defs>
       <path id="DejaVuSans-54" d="M -19 4666 
L 3928 4666 
L 3928 4134 
L 2272 4134 
L 2272 0 
L 1638 0 
L 1638 4134 
L -19 4134 
L -19 4666 
z
" transform="scale(0.015625)"/>
       <path id="DejaVuSans-69" d="M 603 3500 
L 1178 3500 
L 1178 0 
L 603 0 
L 603 3500 
z
M 603 4863 
L 1178 4863 
L 1178 4134 
L 603 4134 
L 603 4863 
z
" transform="scale(0.015625)"/>
       <path id="DejaVuSans-6d" d="M 3328 2828 
Q 3544 3216 3844 3400 
Q 4144 3584 4550 3584 
Q 5097 3584 5394 3201 
Q 5691 2819 5691 2113 
L 5691 0 
L 5113 0 
L 5113 2094 
Q 5113 2597 4934 2840 
Q 4756 3084 4391 3084 
Q 3944 3084 3684 2787 
Q 3425 2491 3425 1978 
L 3425 0 
L 2847 0 
L 2847 2094 
Q 2847 2600 2669 2842 
Q 2491 3084 2119 3084 
Q 1678 3084 1418 2786 
Q 1159 2488 1159 1978 
L 1159 0 
L 581 0 
L 581 3500 
L 1159 3500 
L 1159 2956 
Q 1356 3278 1631 3431 
Q 1906 3584 2284 3584 
Q 2666 3584 2933 3390 
Q 3200 3197 3328 2828 
z
" transform="scale(0.015625)"/>
       <path id="DejaVuSans-65" d="M 3597 1894 
L 3597 1613 
L 953 1613 
Q 991 1019 1311 708 
Q 1631 397 2203 397 
Q 2534 397 2845 478 
Q 3156 559 3463 722 
L 3463 178 
Q 3153 47 2828 -22 
Q 2503 -91 2169 -91 
Q 1331 -91 842 396 
Q 353 884 353 1716 
Q 353 2575 817 3079 
Q 1281 3584 2069 3584 
Q 2775 3584 3186 3129 
Q 3597 2675 3597 1894 
z
M 3022 2063 
Q 3016 2534 2758 2815 
Q 2500 3097 2075 3097 
Q 1594 3097 1305 2825 
Q 1016 2553 972 2059 
L 3022 2063 
z
" transform="scale(0.015625)"/>
       <path id="DejaVuSans-20" transform="scale(0.015625)"/>
       <path id="DejaVuSans-28" d="M 1984 4856 
Q 1566 4138 1362 3434 
Q 1159 2731 1159 2009 
Q 1159 1288 1364 580 
Q 1569 -128 1984 -844 
L 1484 -844 
Q 1016 -109 783 600 
Q 550 1309 550 2009 
Q 550 2706 781 3412 
Q 1013 4119 1484 4856 
L 1984 4856 
z
" transform="scale(0.015625)"/>
       <path id="DejaVuSans-73" d="M 2834 3397 
L 2834 2853 
Q 2591 2978 2328 3040 
Q 2066 3103 1784 3103 
Q 1356 3103 1142 2972 
Q 928 2841 928 2578 
Q 928 2378 1081 2264 
Q 1234 2150 1697 2047 
L 1894 2003 
Q 2506 1872 2764 1633 
Q 3022 1394 3022 966 
Q 3022 478 2636 193 
Q 2250 -91 1575 -91 
Q 1294 -91 989 -36 
Q 684 19 347 128 
L 347 722 
Q 666 556 975 473 
Q 1284 391 1588 391 
Q 1994 391 2212 530 
Q 2431 669 2431 922 
Q 2431 1156 2273 1281 
Q 2116 1406 1581 1522 
L 1381 1569 
Q 847 1681 609 1914 
Q 372 2147 372 2553 
Q 372 3047 722 3315 
Q 1072 3584 1716 3584 
Q 2034 3584 2315 3537 
Q 2597 3491 2834 3397 
z
" transform="scale(0.015625)"/>
       <path id="DejaVuSans-29" d="M 513 4856 
L 1013 4856 
Q 1481 4119 1714 3412 
Q 1947 2706 1947 2009 
Q 1947 1309 1714 600 
Q 1481 -109 1013 -844 
L 513 -844 
Q 928 -128 1133 580 
Q 1338 1288 1338 2009 
Q 1338 2731 1133 3434 
Q 928 4138 513 4856 
z
" transform="scale(0.015625)"/>
      </defs>
      <use xlink:href="#DejaVuSans-54"/>
      <use xlink:href="#DejaVuSans-69" x="57.958984"/>
      <use xlink:href="#DejaVuSans-6d" x="85.742188"/>
      <use xlink:href="#DejaVuSans-65" x="183.154297"/>
      <use xlink:href="#DejaVuSans-20" x="244.677734"/>
      <use xlink:href="#DejaVuSans-28" x="276.464844"/>
      <use xlink:href="#DejaVuSans-73" x="315.478516"/>
      <use xlink:href="#DejaVuSans-29" x="367.578125"/>
     </g>
    </g>
   </g>
   <g id="matplotlib.axis_2">
    <g id="ytick_1">
     <g id="line2d_5">
      <defs>
       <path id="m1587071fe3" d="M 0 0 
L -3.5 0 
" style="stroke: #000000; stroke-width: 0.8"/>
      </defs>
      <g>
       <use xlink:href="#m1587071fe3" x="59.52" y="127.881599" style="stroke: #000000; stroke-width: 0.8"/>
      </g>
     </g>
     <g id="text_5">
      <!-- −30 -->
      <g transform="translate(31.415312 131.680817) scale(0.1 -0.1)">
       <defs>
        <path id="DejaVuSans-2212" d="M 678 2272 
L 4684 2272 
L 4684 1741 
L 678 1741 
L 678 2272 
z
" transform="scale(0.015625)"/>
        <path id="DejaVuSans-33" d="M 2597 2516 
Q 3050 2419 3304 2112 
Q 3559 1806 3559 1356 
Q 3559 666 3084 287 
Q 2609 -91 1734 -91 
Q 1441 -91 1130 -33 
Q 819 25 488 141 
L 488 750 
Q 750 597 1062 519 
Q 1375 441 1716 441 
Q 2309 441 2620 675 
Q 2931 909 2931 1356 
Q 2931 1769 2642 2001 
Q 2353 2234 1838 2234 
L 1294 2234 
L 1294 2753 
L 1863 2753 
Q 2328 2753 2575 2939 
Q 2822 3125 2822 3475 
Q 2822 3834 2567 4026 
Q 2313 4219 1838 4219 
Q 1578 4219 1281 4162 
Q 984 4106 628 3988 
L 628 4550 
Q 988 4650 1302 4700 
Q 1616 4750 1894 4750 
Q 2613 4750 3031 4423 
Q 3450 4097 3450 3541 
Q 3450 3153 3228 2886 
Q 3006 2619 2597 2516 
z
" transform="scale(0.015625)"/>
       </defs>
       <use xlink:href="#DejaVuSans-2212"/>
       <use xlink:href="#DejaVuSans-33" x="83.789062"/>
       <use xlink:href="#DejaVuSans-30" x="147.412109"/>
      </g>
     </g>
    </g>
    <g id="ytick_2">
     <g id="line2d_6">
      <g>
       <use xlink:href="#m1587071fe3" x="59.52" y="106.484913" style="stroke: #000000; stroke-width: 0.8"/>
      </g>
     </g>
     <g id="text_6">
      <!-- −20 -->
      <g transform="translate(31.415312 110.284131) scale(0.1 -0.1)">
       <use xlink:href="#DejaVuSans-2212"/>
       <use xlink:href="#DejaVuSans-32" x="83.789062"/>
       <use xlink:href="#DejaVuSans-30" x="147.412109"/>
      </g>
     </g>
    </g>
    <g id="ytick_3">
     <g id="line2d_7">
      <g>
       <use xlink:href="#m1587071fe3" x="59.52" y="85.088226" style="stroke: #000000; stroke-width: 0.8"/>
      </g>
     </g>
     <g id="text_7">
      <!-- −10 -->
      <g transform="translate(31.415312 88.887445) scale(0.1 -0.1)">
       <use xlink:href="#DejaVuSans-2212"/>
       <use xlink:href="#DejaVuSans-31" x="83.789062"/>
       <use xlink:href="#DejaVuSans-30" x="147.412109"/>
      </g>
     </g>
    </g>
    <g id="ytick_4">
     <g id="line2d_8">
      <g>
       <use xlink:href="#m1587071fe3" x="59.52" y="63.69154" style="stroke: #000000; stroke-width: 0.8"/>
      </g>
     </g>
     <g id="text_8">
      <!-- 0 -->
      <g transform="translate(46.1575 67.490759) scale(0.1 -0.1)">
       <use xlink:href="#DejaVuSans-30"/>
      </g>
     </g>
    </g>
    <g id="ytick_5">
     <g id="line2d_9">
      <g>
       <use xlink:href="#m1587071fe3" x="59.52" y="42.294854" style="stroke: #000000; stroke-width: 0.8"/>
      </g>
     </g>
     <g id="text_9">
      <!-- 10 -->
      <g transform="translate(39.795 46.094073) scale(0.1 -0.1)">
       <use xlink:href="#DejaVuSans-31"/>
       <use xlink:href="#DejaVuSans-30" x="63.623047"/>
      </g>
     </g>
    </g>
    <g id="text_10">
     <!-- Amplitude (mV) -->
     <g transform="translate(25.335625 117.403906) rotate(-90) scale(0.1 -0.1)">
      <defs>
       <path id="DejaVuSans-41" d="M 2188 4044 
L 1331 1722 
L 3047 1722 
L 2188 4044 
z
M 1831 4666 
L 2547 4666 
L 4325 0 
L 3669 0 
L 3244 1197 
L 1141 1197 
L 716 0 
L 50 0 
L 1831 4666 
z
" transform="scale(0.015625)"/>
       <path id="DejaVuSans-70" d="M 1159 525 
L 1159 -1331 
L 581 -1331 
L 581 3500 
L 1159 3500 
L 1159 2969 
Q 1341 3281 1617 3432 
Q 1894 3584 2278 3584 
Q 2916 3584 3314 3078 
Q 3713 2572 3713 1747 
Q 3713 922 3314 415 
Q 2916 -91 2278 -91 
Q 1894 -91 1617 61 
Q 1341 213 1159 525 
z
M 3116 1747 
Q 3116 2381 2855 2742 
Q 2594 3103 2138 3103 
Q 1681 3103 1420 2742 
Q 1159 2381 1159 1747 
Q 1159 1113 1420 752 
Q 1681 391 2138 391 
Q 2594 391 2855 752 
Q 3116 1113 3116 1747 
z
" transform="scale(0.015625)"/>
       <path id="DejaVuSans-6c" d="M 603 4863 
L 1178 4863 
L 1178 0 
L 603 0 
L 603 4863 
z
" transform="scale(0.015625)"/>
       <path id="DejaVuSans-74" d="M 1172 4494 
L 1172 3500 
L 2356 3500 
L 2356 3053 
L 1172 3053 
L 1172 1153 
Q 1172 725 1289 603 
Q 1406 481 1766 481 
L 2356 481 
L 2356 0 
L 1766 0 
Q 1100 0 847 248 
Q 594 497 594 1153 
L 594 3053 
L 172 3053 
L 172 3500 
L 594 3500 
L 594 4494 
L 1172 4494 
z
" transform="scale(0.015625)"/>
       <path id="DejaVuSans-75" d="M 544 1381 
L 544 3500 
L 1119 3500 
L 1119 1403 
Q 1119 906 1312 657 
Q 1506 409 1894 409 
Q 2359 409 2629 706 
Q 2900 1003 2900 1516 
L 2900 3500 
L 3475 3500 
L 3475 0 
L 2900 0 
L 2900 538 
Q 2691 219 2414 64 
Q 2138 -91 1772 -91 
Q 1169 -91 856 284 
Q 544 659 544 1381 
z
M 1991 3584 
L 1991 3584 
z
" transform="scale(0.015625)"/>
       <path id="DejaVuSans-64" d="M 2906 2969 
L 2906 4863 
L 3481 4863 
L 3481 0 
L 2906 0 
L 2906 525 
Q 2725 213 2448 61 
Q 2172 -91 1784 -91 
Q 1150 -91 751 415 
Q 353 922 353 1747 
Q 353 2572 751 3078 
Q 1150 3584 1784 3584 
Q 2172 3584 2448 3432 
Q 2725 3281 2906 2969 
z
M 947 1747 
Q 947 1113 1208 752 
Q 1469 391 1925 391 
Q 2381 391 2643 752 
Q 2906 1113 2906 1747 
Q 2906 2381 2643 2742 
Q 2381 3103 1925 3103 
Q 1469 3103 1208 2742 
Q 947 2381 947 1747 
z
" transform="scale(0.015625)"/>
       <path id="DejaVuSans-56" d="M 1831 0 
L 50 4666 
L 709 4666 
L 2188 738 
L 3669 4666 
L 4325 4666 
L 2547 0 
L 1831 0 
z
" transform="scale(0.015625)"/>
      </defs>
      <use xlink:href="#DejaVuSans-41"/>
      <use xlink:href="#DejaVuSans-6d" x="68.408203"/>
      <use xlink:href="#DejaVuSans-70" x="165.820312"/>
      <use xlink:href="#DejaVuSans-6c" x="229.296875"/>
      <use xlink:href="#DejaVuSans-69" x="257.080078"/>
      <use xlink:href="#DejaVuSans-74" x="284.863281"/>
      <use xlink:href="#DejaVuSans-75" x="324.072266"/>
      <use xlink:href="#DejaVuSans-64" x="387.451172"/>
      <use xlink:href="#DejaVuSans-65" x="450.927734"/>
      <use xlink:href="#DejaVuSans-20" x="512.451172"/>
      <use xlink:href="#DejaVuSans-28" x="544.238281"/>
      <use xlink:href="#DejaVuSans-6d" x="583.251953"/>
      <use xlink:href="#DejaVuSans-56" x="680.664062"/>
      <use xlink:href="#DejaVuSans-29" x="749.072266"/>
     </g>
    </g>
   </g>
   <g id="line2d_10">
    <path d="M 59.587334 64.284873 
L 60.395343 62.993944 
L 60.664679 63.16064 
L 60.934016 63.01106 
L 61.472688 62.792614 
L 61.742025 62.621789 
L 61.876693 62.599958 
L 62.415365 62.172228 
L 62.684702 62.118308 
L 63.896715 61.445074 
L 64.300719 61.767486 
L 65.647401 64.866615 
L 66.051405 65.776264 
L 66.320742 65.810764 
L 66.45541 65.725989 
L 66.859414 65.933593 
L 67.263419 66.055659 
L 68.475432 67.651316 
L 69.283441 68.38167 
L 69.687446 68.271729 
L 69.956782 67.993501 
L 70.360786 67.054534 
L 71.303463 65.330295 
L 71.842136 65.231835 
L 72.24614 64.6759 
L 72.515477 64.163782 
L 72.784813 63.743411 
L 73.72749 62.732065 
L 74.535499 62.201592 
L 74.804835 62.194444 
L 74.939504 62.223013 
L 75.478176 61.459015 
L 75.882181 61.569783 
L 76.016849 61.507506 
L 76.555521 61.944008 
L 76.824858 62.094762 
L 77.094194 62.275855 
L 77.36353 62.380156 
L 77.767535 62.433725 
L 78.171539 62.927442 
L 78.710212 64.189526 
L 79.383553 65.943649 
L 79.652889 66.200735 
L 80.460898 66.732399 
L 80.730234 67.005076 
L 80.99957 67.050929 
L 81.268907 67.228494 
L 81.807579 67.275835 
L 82.211584 67.656253 
L 82.48092 67.721868 
L 82.750256 67.96487 
L 83.558265 67.293556 
L 83.827602 67.219805 
L 84.096938 67.289158 
L 84.500942 66.664333 
L 85.578288 65.577949 
L 85.982292 65.964201 
L 86.251628 65.780486 
L 86.520965 65.556866 
L 87.059637 65.111375 
L 87.463642 64.796418 
L 87.867646 64.342641 
L 88.406319 64.377647 
L 88.675655 64.114689 
L 89.618332 62.316679 
L 90.022337 61.47353 
L 90.291673 61.307046 
L 91.099682 62.085241 
L 92.042359 63.557525 
L 92.311695 63.531408 
L 92.446363 63.567059 
L 92.7157 63.411517 
L 92.850368 63.403636 
L 92.985036 63.609427 
L 93.254372 63.575378 
L 94.062381 63.985365 
L 95.678399 66.482373 
L 96.35174 66.440242 
L 96.621076 66.773087 
L 96.890413 67.304727 
L 97.967758 68.03569 
L 98.102426 68.012894 
L 98.371762 68.184708 
L 98.50643 68.193917 
L 98.775767 67.950153 
L 100.257116 65.436646 
L 100.661121 65.150785 
L 100.930457 64.658106 
L 101.46913 63.551513 
L 101.873134 62.965919 
L 102.007802 62.93283 
L 102.277139 62.594886 
L 102.815811 62.476375 
L 103.219816 62.130607 
L 103.62382 62.212575 
L 104.566497 61.515767 
L 104.835834 61.435276 
L 105.643842 60.986342 
L 106.047847 61.279201 
L 106.317183 61.240967 
L 106.855856 61.333425 
L 107.529197 61.567977 
L 108.067869 62.41933 
L 108.337206 62.658196 
L 108.606542 62.848029 
L 110.357228 65.705003 
L 110.761232 65.895624 
L 111.434573 66.148621 
L 111.569241 66.296846 
L 111.703909 66.126471 
L 112.107914 66.270276 
L 112.646586 66.55191 
L 112.915923 66.520836 
L 113.050591 66.540978 
L 113.319927 66.217646 
L 113.454595 66.199067 
L 113.8586 65.878131 
L 113.993268 65.847581 
L 115.205281 63.995241 
L 116.417295 62.233298 
L 116.551963 62.137017 
L 116.686631 62.193117 
L 117.49464 61.026501 
L 117.763976 61.213803 
L 117.898644 61.2915 
L 118.302649 60.981033 
L 118.571985 61.051881 
L 118.841321 61.024757 
L 119.110658 60.828911 
L 120.592007 62.872277 
L 120.726676 62.969909 
L 120.996012 62.767848 
L 121.265348 62.650227 
L 122.477362 63.20469 
L 122.61203 63.107028 
L 123.016034 63.775752 
L 123.285371 64.057674 
L 123.689375 64.194844 
L 124.093379 64.706548 
L 124.362716 64.63489 
L 124.497384 64.468708 
L 125.036057 64.613208 
L 125.709397 65.495766 
L 125.978734 65.656894 
L 126.517406 65.372486 
L 126.652074 65.54827 
L 126.921411 65.459471 
L 127.325415 65.24245 
L 127.72942 64.810824 
L 127.864088 64.798214 
L 128.806765 63.460466 
L 129.345437 63.097304 
L 129.614774 62.603941 
L 129.749442 62.603167 
L 130.018778 62.904354 
L 130.557451 62.532924 
L 131.096123 62.870959 
L 131.904132 62.452926 
L 132.173469 62.201461 
L 132.308137 62.174377 
L 132.712141 61.515271 
L 132.981478 61.503919 
L 133.385482 61.303093 
L 133.654818 61.679985 
L 134.193491 62.390985 
L 134.328159 62.638703 
L 135.674841 62.739443 
L 136.078845 63.215442 
L 136.348181 63.641648 
L 136.617518 63.80454 
L 137.021522 64.475625 
L 138.368204 65.496687 
L 139.310881 65.460571 
L 139.714885 65.696858 
L 139.849553 65.75481 
L 140.253558 65.34785 
L 140.657562 65.337311 
L 140.926899 65.209001 
L 141.465571 65.611979 
L 141.734908 65.594672 
L 142.004244 65.146091 
L 142.946921 62.919167 
L 143.350925 62.673795 
L 143.485594 62.752175 
L 144.966943 60.828982 
L 145.640284 60.749586 
L 146.582961 59.570799 
L 146.852297 59.596024 
L 147.39097 59.987884 
L 147.794974 60.550963 
L 148.064311 60.715588 
L 148.468315 60.878961 
L 148.602983 61.065493 
L 149.276324 60.911015 
L 150.084333 61.331982 
L 150.353669 61.711891 
L 150.892342 62.857368 
L 151.161678 63.306957 
L 151.431015 63.491055 
L 151.835019 63.557126 
L 152.104355 63.743078 
L 152.373692 63.827574 
L 152.912364 63.98992 
L 153.451037 64.04718 
L 153.855041 64.542701 
L 154.259046 64.910555 
L 154.393714 65.005974 
L 154.66305 64.764923 
L 154.797718 64.833087 
L 154.932387 64.775185 
L 155.201723 64.90035 
L 155.336391 64.758221 
L 155.740395 64.802231 
L 156.279068 64.669252 
L 156.548404 64.33322 
L 156.817741 64.123715 
L 156.952409 64.166352 
L 157.221745 63.928569 
L 158.164422 62.054371 
L 158.568427 61.301638 
L 158.837763 60.76085 
L 159.241767 59.908071 
L 159.78044 59.560438 
L 160.184445 59.647616 
L 160.453781 59.452476 
L 160.588449 59.289297 
L 160.857785 59.331664 
L 161.127122 59.093545 
L 161.531126 58.732049 
L 161.800462 58.654462 
L 162.204467 58.877586 
L 162.473803 58.748618 
L 162.743139 58.940597 
L 163.147144 59.672081 
L 164.089821 59.938415 
L 164.493825 60.562365 
L 164.89783 61.228345 
L 165.167166 61.34928 
L 165.436502 61.657124 
L 166.917852 63.456237 
L 167.995197 65.128451 
L 168.129866 65.263049 
L 168.668538 66.465205 
L 168.937874 66.693016 
L 169.072543 66.730785 
L 169.476547 66.388681 
L 170.419224 66.523949 
L 170.68856 66.125186 
L 171.631238 64.185611 
L 171.765906 64.050211 
L 172.16991 63.249125 
L 172.843251 62.517813 
L 173.112587 62.433436 
L 173.381924 62.131221 
L 173.65126 62.192054 
L 174.189932 61.819326 
L 174.324601 61.823235 
L 174.728605 62.349416 
L 175.267278 63.502526 
L 175.536614 63.898079 
L 175.80595 63.983808 
L 176.075287 64.027689 
L 176.613959 64.317676 
L 178.364645 66.545168 
L 179.037986 66.002511 
L 179.307322 66.079813 
L 179.845995 66.962755 
L 180.115331 67.437615 
L 180.519336 67.418879 
L 180.92334 67.189809 
L 181.192676 67.615698 
L 181.731349 68.738304 
L 182.000685 69.008282 
L 182.135353 69.020449 
L 182.539358 69.372299 
L 182.808694 69.245661 
L 183.616703 68.674709 
L 183.886039 68.315646 
L 184.020708 68.411756 
L 185.232721 67.455975 
L 185.636725 66.996005 
L 186.714071 64.130598 
L 187.52208 62.30547 
L 187.926084 61.642371 
L 188.19542 61.627219 
L 188.330089 61.583387 
L 188.734093 61.988697 
L 189.407434 61.746445 
L 190.350111 62.666008 
L 190.484779 62.896796 
L 190.888783 64.053082 
L 191.15812 64.250172 
L 191.427456 64.217225 
L 191.696792 64.176289 
L 192.235465 64.36379 
L 192.370133 64.505938 
L 192.639469 64.281727 
L 192.908806 63.978541 
L 193.716815 64.322464 
L 194.120819 64.855601 
L 194.120819 64.855601 
" clip-path="url(#p7bde614e18)" style="fill: none; stroke: #1e90ff; stroke-linecap: square"/>
   </g>
   <g id="patch_3">
    <path d="M 59.52 129.12 
L 59.52 26.88 
" style="fill: none; stroke: #000000; stroke-width: 0.8; stroke-linejoin: miter; stroke-linecap: square"/>
   </g>
   <g id="patch_4">
    <path d="M 194.255487 129.12 
L 194.255487 26.88 
" style="fill: none; stroke: #000000; stroke-width: 0.8; stroke-linejoin: miter; stroke-linecap: square"/>
   </g>
   <g id="patch_5">
    <path d="M 59.52 129.12 
L 194.255487 129.12 
" style="fill: none; stroke: #000000; stroke-width: 0.8; stroke-linejoin: miter; stroke-linecap: square"/>
   </g>
   <g id="patch_6">
    <path d="M 59.52 26.88 
L 194.255487 26.88 
" style="fill: none; stroke: #000000; stroke-width: 0.8; stroke-linejoin: miter; stroke-linecap: square"/>
   </g>
   <g id="line2d_11">
    <path d="M 59.587334 64.468839 
L 60.395343 63.179463 
L 60.799347 62.892479 
L 61.472688 62.567161 
L 61.876693 62.535728 
L 62.684702 62.135277 
L 63.088706 61.788374 
L 63.627379 61.354373 
L 63.896715 61.42597 
L 64.435388 62.102614 
L 65.378065 63.939005 
L 65.916737 65.417355 
L 66.186074 65.717668 
L 67.532755 66.333971 
L 69.014105 68.359759 
L 69.283441 68.365442 
L 69.822114 67.901319 
L 70.226118 67.348685 
L 71.438132 65.255314 
L 72.24614 64.67795 
L 72.650145 64.142593 
L 73.862158 62.340043 
L 74.266163 62.14415 
L 74.670167 62.187486 
L 75.612844 61.49407 
L 76.151517 61.729895 
L 76.959526 62.188802 
L 77.36353 62.305631 
L 77.902203 62.599212 
L 78.306207 63.190112 
L 79.518221 66.052211 
L 79.922225 66.559583 
L 80.595566 67.116431 
L 81.134239 67.252118 
L 82.211584 67.5018 
L 82.750256 67.710796 
L 83.423597 67.474978 
L 83.827602 67.244609 
L 84.096938 67.146113 
L 84.500942 66.512596 
L 84.904947 65.977742 
L 85.308951 65.795328 
L 86.11696 65.778175 
L 86.386297 65.583307 
L 86.924969 65.127081 
L 87.732978 64.813903 
L 88.136983 64.501789 
L 88.406319 64.406481 
L 88.675655 64.031475 
L 89.753 62.063523 
L 90.157005 61.604321 
L 90.426341 61.516155 
L 90.830346 61.645676 
L 91.099682 61.855486 
L 91.503686 62.575303 
L 91.907691 63.283589 
L 92.177027 63.431071 
L 92.7157 63.557951 
L 93.119704 63.589634 
L 93.793045 63.803362 
L 94.197049 64.264359 
L 95.678399 66.364875 
L 96.621076 66.974189 
L 97.159749 67.504711 
L 97.83309 67.881133 
L 98.237094 68.307287 
L 98.50643 68.265786 
L 99.179771 67.368188 
L 100.257116 65.709792 
L 100.526453 65.323786 
L 101.738466 63.178293 
L 102.14247 62.833911 
L 103.893156 61.92402 
L 104.297161 61.501659 
L 105.643842 61.113253 
L 106.58652 61.180605 
L 107.529197 61.683073 
L 108.202537 62.5386 
L 108.606542 62.965297 
L 110.491896 65.67778 
L 111.299905 66.246437 
L 113.185259 66.561858 
L 113.723932 66.128641 
L 114.262604 65.586838 
L 115.339949 63.772797 
L 115.743954 63.231121 
L 116.417295 62.146119 
L 117.49464 61.291812 
L 117.898644 61.190087 
L 118.302649 61.026899 
L 119.245326 61.138132 
L 120.322671 62.398543 
L 120.726676 62.832212 
L 120.996012 62.841899 
L 121.265348 62.768504 
L 122.342693 63.288295 
L 122.881366 63.384329 
L 123.958711 64.701359 
L 124.228048 64.861041 
L 125.305393 64.822481 
L 125.709397 64.940825 
L 126.786743 65.492578 
L 127.056079 65.502715 
L 127.460083 65.116252 
L 128.133424 64.376315 
L 128.672097 63.783407 
L 129.076101 63.245925 
L 129.480106 62.909188 
L 129.749442 62.621234 
L 130.288114 62.581484 
L 130.692119 62.70422 
L 131.096123 62.783317 
L 131.634796 62.665666 
L 132.173469 62.296586 
L 132.981478 61.69863 
L 133.385482 61.565682 
L 133.654818 61.649148 
L 135.136168 62.705422 
L 135.944177 62.984582 
L 136.48285 63.5728 
L 137.425527 64.802791 
L 138.098867 65.345898 
L 139.984222 65.570272 
L 140.388226 65.389763 
L 140.657562 65.495636 
L 141.196235 65.920693 
L 141.330903 65.890924 
L 141.734908 65.292928 
L 142.27358 64.418696 
L 142.812253 63.449073 
L 143.75493 62.481616 
L 144.562939 61.265411 
L 145.236279 60.795693 
L 145.640284 60.591091 
L 146.852297 59.608109 
L 147.256302 59.828829 
L 148.198979 60.665493 
L 149.006988 61.026687 
L 149.410992 60.904636 
L 149.814997 61.085722 
L 150.084333 61.417098 
L 151.161678 63.168444 
L 152.104355 63.834069 
L 152.912364 64.044643 
L 153.451037 64.128629 
L 154.528382 64.999127 
L 155.471059 64.79914 
L 156.279068 64.395859 
L 156.952409 64.093918 
L 157.221745 63.888868 
L 157.62575 63.04003 
L 158.164422 62.014012 
L 158.837763 60.862015 
L 159.376436 59.912316 
L 159.915108 59.403203 
L 160.319113 59.315067 
L 160.588449 59.211297 
L 160.992453 59.018332 
L 162.204467 58.839457 
L 163.281812 59.383326 
L 164.089821 60.065742 
L 165.032498 61.592433 
L 165.705839 61.913566 
L 166.37918 62.676502 
L 166.648516 63.029859 
L 167.725861 65.055998 
L 169.476547 66.728451 
L 169.745883 66.676637 
L 170.284556 66.550858 
L 170.553892 66.192328 
L 171.361901 64.766164 
L 171.631238 64.416969 
L 172.573915 62.721605 
L 173.112587 62.315513 
L 173.516592 62.176858 
L 173.785928 62.129032 
L 174.459269 62.192966 
L 174.997941 62.85679 
L 176.209955 64.24336 
L 176.883295 64.64213 
L 177.2873 64.899312 
L 178.229977 66.182796 
L 179.172654 66.347572 
L 179.576659 66.764154 
L 180.115331 67.343424 
L 180.384667 67.482462 
L 180.788672 67.516298 
L 181.058008 67.505892 
L 181.327345 67.892435 
L 181.731349 68.544099 
L 182.808694 69.245905 
L 183.212699 69.100301 
L 184.424712 68.136136 
L 184.694048 67.98553 
L 185.636725 66.790858 
L 187.387411 62.561906 
L 188.060752 61.601775 
L 188.330089 61.537136 
L 189.003429 61.772273 
L 189.407434 61.930576 
L 189.67677 62.075575 
L 190.484779 63.022828 
L 191.023452 63.877497 
L 191.83146 64.270716 
L 192.639469 64.398067 
L 193.043474 64.111039 
L 193.447478 64.080882 
L 193.986151 64.700831 
L 194.120819 64.88674 
L 194.120819 64.88674 
" clip-path="url(#p7bde614e18)" style="fill: none; stroke: #ff0000; stroke-width: 0.8; stroke-linecap: square"/>
   </g>
   <g id="text_11">
    <!-- Time Domain Plot -->
    <g transform="translate(73.803681 20.88) scale(0.12 -0.12)">
     <defs>
      <path id="DejaVuSans-44" d="M 1259 4147 
L 1259 519 
L 2022 519 
Q 2988 519 3436 956 
Q 3884 1394 3884 2338 
Q 3884 3275 3436 3711 
Q 2988 4147 2022 4147 
L 1259 4147 
z
M 628 4666 
L 1925 4666 
Q 3281 4666 3915 4102 
Q 4550 3538 4550 2338 
Q 4550 1131 3912 565 
Q 3275 0 1925 0 
L 628 0 
L 628 4666 
z
" transform="scale(0.015625)"/>
      <path id="DejaVuSans-6f" d="M 1959 3097 
Q 1497 3097 1228 2736 
Q 959 2375 959 1747 
Q 959 1119 1226 758 
Q 1494 397 1959 397 
Q 2419 397 2687 759 
Q 2956 1122 2956 1747 
Q 2956 2369 2687 2733 
Q 2419 3097 1959 3097 
z
M 1959 3584 
Q 2709 3584 3137 3096 
Q 3566 2609 3566 1747 
Q 3566 888 3137 398 
Q 2709 -91 1959 -91 
Q 1206 -91 779 398 
Q 353 888 353 1747 
Q 353 2609 779 3096 
Q 1206 3584 1959 3584 
z
" transform="scale(0.015625)"/>
      <path id="DejaVuSans-61" d="M 2194 1759 
Q 1497 1759 1228 1600 
Q 959 1441 959 1056 
Q 959 750 1161 570 
Q 1363 391 1709 391 
Q 2188 391 2477 730 
Q 2766 1069 2766 1631 
L 2766 1759 
L 2194 1759 
z
M 3341 1997 
L 3341 0 
L 2766 0 
L 2766 531 
Q 2569 213 2275 61 
Q 1981 -91 1556 -91 
Q 1019 -91 701 211 
Q 384 513 384 1019 
Q 384 1609 779 1909 
Q 1175 2209 1959 2209 
L 2766 2209 
L 2766 2266 
Q 2766 2663 2505 2880 
Q 2244 3097 1772 3097 
Q 1472 3097 1187 3025 
Q 903 2953 641 2809 
L 641 3341 
Q 956 3463 1253 3523 
Q 1550 3584 1831 3584 
Q 2591 3584 2966 3190 
Q 3341 2797 3341 1997 
z
" transform="scale(0.015625)"/>
      <path id="DejaVuSans-6e" d="M 3513 2113 
L 3513 0 
L 2938 0 
L 2938 2094 
Q 2938 2591 2744 2837 
Q 2550 3084 2163 3084 
Q 1697 3084 1428 2787 
Q 1159 2491 1159 1978 
L 1159 0 
L 581 0 
L 581 3500 
L 1159 3500 
L 1159 2956 
Q 1366 3272 1645 3428 
Q 1925 3584 2291 3584 
Q 2894 3584 3203 3211 
Q 3513 2838 3513 2113 
z
" transform="scale(0.015625)"/>
      <path id="DejaVuSans-50" d="M 1259 4147 
L 1259 2394 
L 2053 2394 
Q 2494 2394 2734 2622 
Q 2975 2850 2975 3272 
Q 2975 3691 2734 3919 
Q 2494 4147 2053 4147 
L 1259 4147 
z
M 628 4666 
L 2053 4666 
Q 2838 4666 3239 4311 
Q 3641 3956 3641 3272 
Q 3641 2581 3239 2228 
Q 2838 1875 2053 1875 
L 1259 1875 
L 1259 0 
L 628 0 
L 628 4666 
z
" transform="scale(0.015625)"/>
     </defs>
     <use xlink:href="#DejaVuSans-54"/>
     <use xlink:href="#DejaVuSans-69" x="57.958984"/>
     <use xlink:href="#DejaVuSans-6d" x="85.742188"/>
     <use xlink:href="#DejaVuSans-65" x="183.154297"/>
     <use xlink:href="#DejaVuSans-20" x="244.677734"/>
     <use xlink:href="#DejaVuSans-44" x="276.464844"/>
     <use xlink:href="#DejaVuSans-6f" x="353.466797"/>
     <use xlink:href="#DejaVuSans-6d" x="414.648438"/>
     <use xlink:href="#DejaVuSans-61" x="512.060547"/>
     <use xlink:href="#DejaVuSans-69" x="573.339844"/>
     <use xlink:href="#DejaVuSans-6e" x="601.123047"/>
     <use xlink:href="#DejaVuSans-20" x="664.501953"/>
     <use xlink:href="#DejaVuSans-50" x="696.289062"/>
     <use xlink:href="#DejaVuSans-6c" x="756.591797"/>
     <use xlink:href="#DejaVuSans-6f" x="784.375"/>
     <use xlink:href="#DejaVuSans-74" x="845.556641"/>
    </g>
   </g>
   <g id="patch_7">
    <path d="M 140.388226 85.088226 
L 167.321857 85.088226 
L 167.321857 47.644026 
L 140.388226 47.644026 
L 140.388226 85.088226 
z
" clip-path="url(#p7bde614e18)" style="fill: none; stroke: #000000; stroke-width: 1.2; stroke-linejoin: miter"/>
   </g>
   <g id="legend_1">
    <g id="patch_8">
     <path d="M 21.199354 158.292 
L 52.067479 158.292 
Q 52.667479 158.292 52.667479 157.692 
L 52.667479 144.781688 
Q 52.667479 144.181688 52.067479 144.181688 
L 21.199354 144.181688 
Q 20.599354 144.181688 20.599354 144.781688 
L 20.599354 157.692 
Q 20.599354 158.292 21.199354 158.292 
z
" style="fill: #ffffff; opacity: 0.8; stroke: #cccccc; stroke-linejoin: miter"/>
    </g>
    <g id="line2d_12">
     <path d="M 21.799354 146.611219 
L 24.799354 146.611219 
L 27.799354 146.611219 
" style="fill: none; stroke: #808080; stroke-width: 0.9; stroke-linecap: square"/>
    </g>
    <g id="text_12">
     <!-- Contaminated -->
     <g transform="translate(30.199354 147.661219) scale(0.03 -0.03)">
      <defs>
       <path id="DejaVuSans-43" d="M 4122 4306 
L 4122 3641 
Q 3803 3938 3442 4084 
Q 3081 4231 2675 4231 
Q 1875 4231 1450 3742 
Q 1025 3253 1025 2328 
Q 1025 1406 1450 917 
Q 1875 428 2675 428 
Q 3081 428 3442 575 
Q 3803 722 4122 1019 
L 4122 359 
Q 3791 134 3420 21 
Q 3050 -91 2638 -91 
Q 1578 -91 968 557 
Q 359 1206 359 2328 
Q 359 3453 968 4101 
Q 1578 4750 2638 4750 
Q 3056 4750 3426 4639 
Q 3797 4528 4122 4306 
z
" transform="scale(0.015625)"/>
      </defs>
      <use xlink:href="#DejaVuSans-43"/>
      <use xlink:href="#DejaVuSans-6f" x="69.824219"/>
      <use xlink:href="#DejaVuSans-6e" x="131.005859"/>
      <use xlink:href="#DejaVuSans-74" x="194.384766"/>
      <use xlink:href="#DejaVuSans-61" x="233.59375"/>
      <use xlink:href="#DejaVuSans-6d" x="294.873047"/>
      <use xlink:href="#DejaVuSans-69" x="392.285156"/>
      <use xlink:href="#DejaVuSans-6e" x="420.068359"/>
      <use xlink:href="#DejaVuSans-61" x="483.447266"/>
      <use xlink:href="#DejaVuSans-74" x="544.726562"/>
      <use xlink:href="#DejaVuSans-65" x="583.935547"/>
      <use xlink:href="#DejaVuSans-64" x="645.458984"/>
     </g>
    </g>
    <g id="line2d_13">
     <path d="M 21.799354 151.014656 
L 24.799354 151.014656 
L 27.799354 151.014656 
" style="fill: none; stroke: #1e90ff; stroke-linecap: square"/>
    </g>
    <g id="text_13">
     <!-- Clean -->
     <g transform="translate(30.199354 152.064656) scale(0.03 -0.03)">
      <use xlink:href="#DejaVuSans-43"/>
      <use xlink:href="#DejaVuSans-6c" x="69.824219"/>
      <use xlink:href="#DejaVuSans-65" x="97.607422"/>
      <use xlink:href="#DejaVuSans-61" x="159.130859"/>
      <use xlink:href="#DejaVuSans-6e" x="220.410156"/>
     </g>
    </g>
    <g id="line2d_14">
     <path d="M 21.799354 155.418094 
L 24.799354 155.418094 
L 27.799354 155.418094 
" style="fill: none; stroke: #ff0000; stroke-width: 0.8; stroke-linecap: square"/>
    </g>
    <g id="text_14">
     <!-- SACed -->
     <g transform="translate(30.199354 156.468094) scale(0.03 -0.03)">
      <defs>
       <path id="DejaVuSans-53" d="M 3425 4513 
L 3425 3897 
Q 3066 4069 2747 4153 
Q 2428 4238 2131 4238 
Q 1616 4238 1336 4038 
Q 1056 3838 1056 3469 
Q 1056 3159 1242 3001 
Q 1428 2844 1947 2747 
L 2328 2669 
Q 3034 2534 3370 2195 
Q 3706 1856 3706 1288 
Q 3706 609 3251 259 
Q 2797 -91 1919 -91 
Q 1588 -91 1214 -16 
Q 841 59 441 206 
L 441 856 
Q 825 641 1194 531 
Q 1563 422 1919 422 
Q 2459 422 2753 634 
Q 3047 847 3047 1241 
Q 3047 1584 2836 1778 
Q 2625 1972 2144 2069 
L 1759 2144 
Q 1053 2284 737 2584 
Q 422 2884 422 3419 
Q 422 4038 858 4394 
Q 1294 4750 2059 4750 
Q 2388 4750 2728 4690 
Q 3069 4631 3425 4513 
z
" transform="scale(0.015625)"/>
      </defs>
      <use xlink:href="#DejaVuSans-53"/>
      <use xlink:href="#DejaVuSans-41" x="65.351562"/>
      <use xlink:href="#DejaVuSans-43" x="132.009766"/>
      <use xlink:href="#DejaVuSans-65" x="201.833984"/>
      <use xlink:href="#DejaVuSans-64" x="263.357422"/>
     </g>
    </g>
   </g>
  </g>
 </g>
 <defs>
  <clipPath id="p7bde614e18">
   <rect x="59.52" y="26.88" width="134.735487" height="102.24"/>
  </clipPath>
 </defs>
</svg>
