<?xml version="1.0" encoding="utf-8" standalone="no"?>
<!DOCTYPE svg PUBLIC "-//W3C//DTD SVG 1.1//EN"
  "http://www.w3.org/Graphics/SVG/1.1/DTD/svg11.dtd">
<svg xmlns:xlink="http://www.w3.org/1999/xlink" width="216pt" height="180pt" viewBox="0 0 216 180" xmlns="http://www.w3.org/2000/svg" version="1.1">
 <metadata>
  <rdf:RDF xmlns:dc="http://purl.org/dc/elements/1.1/" xmlns:cc="http://creativecommons.org/ns#" xmlns:rdf="http://www.w3.org/1999/02/22-rdf-syntax-ns#">
   <cc:Work>
    <dc:type rdf:resource="http://purl.org/dc/dcmitype/StillImage"/>
    <dc:date>2024-08-26T02:53:42.428764</dc:date>
    <dc:format>image/svg+xml</dc:format>
    <dc:creator>
     <cc:Agent>
      <dc:title>Matplotlib v3.9.1, https://matplotlib.org/</dc:title>
     </cc:Agent>
    </dc:creator>
   </cc:Work>
  </rdf:RDF>
 </metadata>
 <defs>
  <style type="text/css">*{stroke-linejoin: round; stroke-linecap: butt}</style>
 </defs>
 <g id="figure_1">
  <g id="patch_1">
   <path d="M 0 180 
L 216 180 
L 216 0 
L 0 0 
z
" style="fill: #ffffff"/>
  </g>
  <g id="axes_1">
   <g id="patch_2">
    <path d="M 52.94 138.04 
L 191.562985 138.04 
L 191.562985 26.88 
L 52.94 26.88 
z
" style="fill: #ffffff"/>
   </g>
   <g id="matplotlib.axis_1">
    <g id="xtick_1">
     <g id="line2d_1">
      <defs>
       <path id="m12451f8cf4" d="M 0 0 
L 0 3.5 
" style="stroke: #000000; stroke-width: 0.8"/>
      </defs>
      <g>
       <use xlink:href="#m12451f8cf4" x="53.181383" y="138.04" style="stroke: #000000; stroke-width: 0.8"/>
      </g>
     </g>
     <g id="text_1">
      <!-- 1.30 -->
      <g transform="translate(42.048571 152.638438) scale(0.1 -0.1)">
       <defs>
        <path id="DejaVuSans-31" d="M 794 531 
L 1825 531 
L 1825 4091 
L 703 3866 
L 703 4441 
L 1819 4666 
L 2450 4666 
L 2450 531 
L 3481 531 
L 3481 0 
L 794 0 
L 794 531 
z
" transform="scale(0.015625)"/>
        <path id="DejaVuSans-2e" d="M 684 794 
L 1344 794 
L 1344 0 
L 684 0 
L 684 794 
z
" transform="scale(0.015625)"/>
        <path id="DejaVuSans-33" d="M 2597 2516 
Q 3050 2419 3304 2112 
Q 3559 1806 3559 1356 
Q 3559 666 3084 287 
Q 2609 -91 1734 -91 
Q 1441 -91 1130 -33 
Q 819 25 488 141 
L 488 750 
Q 750 597 1062 519 
Q 1375 441 1716 441 
Q 2309 441 2620 675 
Q 2931 909 2931 1356 
Q 2931 1769 2642 2001 
Q 2353 2234 1838 2234 
L 1294 2234 
L 1294 2753 
L 1863 2753 
Q 2328 2753 2575 2939 
Q 2822 3125 2822 3475 
Q 2822 3834 2567 4026 
Q 2313 4219 1838 4219 
Q 1578 4219 1281 4162 
Q 984 4106 628 3988 
L 628 4550 
Q 988 4650 1302 4700 
Q 1616 4750 1894 4750 
Q 2613 4750 3031 4423 
Q 3450 4097 3450 3541 
Q 3450 3153 3228 2886 
Q 3006 2619 2597 2516 
z
" transform="scale(0.015625)"/>
        <path id="DejaVuSans-30" d="M 2034 4250 
Q 1547 4250 1301 3770 
Q 1056 3291 1056 2328 
Q 1056 1369 1301 889 
Q 1547 409 2034 409 
Q 2525 409 2770 889 
Q 3016 1369 3016 2328 
Q 3016 3291 2770 3770 
Q 2525 4250 2034 4250 
z
M 2034 4750 
Q 2819 4750 3233 4129 
Q 3647 3509 3647 2328 
Q 3647 1150 3233 529 
Q 2819 -91 2034 -91 
Q 1250 -91 836 529 
Q 422 1150 422 2328 
Q 422 3509 836 4129 
Q 1250 4750 2034 4750 
z
" transform="scale(0.015625)"/>
       </defs>
       <use xlink:href="#DejaVuSans-31"/>
       <use xlink:href="#DejaVuSans-2e" x="63.623047"/>
       <use xlink:href="#DejaVuSans-33" x="95.410156"/>
       <use xlink:href="#DejaVuSans-30" x="159.033203"/>
      </g>
     </g>
    </g>
    <g id="xtick_2">
     <g id="line2d_2">
      <g>
       <use xlink:href="#m12451f8cf4" x="122.130801" y="138.04" style="stroke: #000000; stroke-width: 0.8"/>
      </g>
     </g>
     <g id="text_2">
      <!-- 1.35 -->
      <g transform="translate(110.997988 152.638438) scale(0.1 -0.1)">
       <defs>
        <path id="DejaVuSans-35" d="M 691 4666 
L 3169 4666 
L 3169 4134 
L 1269 4134 
L 1269 2991 
Q 1406 3038 1543 3061 
Q 1681 3084 1819 3084 
Q 2600 3084 3056 2656 
Q 3513 2228 3513 1497 
Q 3513 744 3044 326 
Q 2575 -91 1722 -91 
Q 1428 -91 1123 -41 
Q 819 9 494 109 
L 494 744 
Q 775 591 1075 516 
Q 1375 441 1709 441 
Q 2250 441 2565 725 
Q 2881 1009 2881 1497 
Q 2881 1984 2565 2268 
Q 2250 2553 1709 2553 
Q 1456 2553 1204 2497 
Q 953 2441 691 2322 
L 691 4666 
z
" transform="scale(0.015625)"/>
       </defs>
       <use xlink:href="#DejaVuSans-31"/>
       <use xlink:href="#DejaVuSans-2e" x="63.623047"/>
       <use xlink:href="#DejaVuSans-33" x="95.410156"/>
       <use xlink:href="#DejaVuSans-35" x="159.033203"/>
      </g>
     </g>
    </g>
    <g id="xtick_3">
     <g id="line2d_3">
      <g>
       <use xlink:href="#m12451f8cf4" x="191.080218" y="138.04" style="stroke: #000000; stroke-width: 0.8"/>
      </g>
     </g>
     <g id="text_3">
      <!-- 1.40 -->
      <g transform="translate(179.947406 152.638438) scale(0.1 -0.1)">
       <defs>
        <path id="DejaVuSans-34" d="M 2419 4116 
L 825 1625 
L 2419 1625 
L 2419 4116 
z
M 2253 4666 
L 3047 4666 
L 3047 1625 
L 3713 1625 
L 3713 1100 
L 3047 1100 
L 3047 0 
L 2419 0 
L 2419 1100 
L 313 1100 
L 313 1709 
L 2253 4666 
z
" transform="scale(0.015625)"/>
       </defs>
       <use xlink:href="#DejaVuSans-31"/>
       <use xlink:href="#DejaVuSans-2e" x="63.623047"/>
       <use xlink:href="#DejaVuSans-34" x="95.410156"/>
       <use xlink:href="#DejaVuSans-30" x="159.033203"/>
      </g>
     </g>
    </g>
    <g id="text_4">
     <!-- Time (s) -->
     <g transform="translate(101.922586 166.316563) scale(0.1 -0.1)">
      <defs>
       <path id="DejaVuSans-54" d="M -19 4666 
L 3928 4666 
L 3928 4134 
L 2272 4134 
L 2272 0 
L 1638 0 
L 1638 4134 
L -19 4134 
L -19 4666 
z
" transform="scale(0.015625)"/>
       <path id="DejaVuSans-69" d="M 603 3500 
L 1178 3500 
L 1178 0 
L 603 0 
L 603 3500 
z
M 603 4863 
L 1178 4863 
L 1178 4134 
L 603 4134 
L 603 4863 
z
" transform="scale(0.015625)"/>
       <path id="DejaVuSans-6d" d="M 3328 2828 
Q 3544 3216 3844 3400 
Q 4144 3584 4550 3584 
Q 5097 3584 5394 3201 
Q 5691 2819 5691 2113 
L 5691 0 
L 5113 0 
L 5113 2094 
Q 5113 2597 4934 2840 
Q 4756 3084 4391 3084 
Q 3944 3084 3684 2787 
Q 3425 2491 3425 1978 
L 3425 0 
L 2847 0 
L 2847 2094 
Q 2847 2600 2669 2842 
Q 2491 3084 2119 3084 
Q 1678 3084 1418 2786 
Q 1159 2488 1159 1978 
L 1159 0 
L 581 0 
L 581 3500 
L 1159 3500 
L 1159 2956 
Q 1356 3278 1631 3431 
Q 1906 3584 2284 3584 
Q 2666 3584 2933 3390 
Q 3200 3197 3328 2828 
z
" transform="scale(0.015625)"/>
       <path id="DejaVuSans-65" d="M 3597 1894 
L 3597 1613 
L 953 1613 
Q 991 1019 1311 708 
Q 1631 397 2203 397 
Q 2534 397 2845 478 
Q 3156 559 3463 722 
L 3463 178 
Q 3153 47 2828 -22 
Q 2503 -91 2169 -91 
Q 1331 -91 842 396 
Q 353 884 353 1716 
Q 353 2575 817 3079 
Q 1281 3584 2069 3584 
Q 2775 3584 3186 3129 
Q 3597 2675 3597 1894 
z
M 3022 2063 
Q 3016 2534 2758 2815 
Q 2500 3097 2075 3097 
Q 1594 3097 1305 2825 
Q 1016 2553 972 2059 
L 3022 2063 
z
" transform="scale(0.015625)"/>
       <path id="DejaVuSans-20" transform="scale(0.015625)"/>
       <path id="DejaVuSans-28" d="M 1984 4856 
Q 1566 4138 1362 3434 
Q 1159 2731 1159 2009 
Q 1159 1288 1364 580 
Q 1569 -128 1984 -844 
L 1484 -844 
Q 1016 -109 783 600 
Q 550 1309 550 2009 
Q 550 2706 781 3412 
Q 1013 4119 1484 4856 
L 1984 4856 
z
" transform="scale(0.015625)"/>
       <path id="DejaVuSans-73" d="M 2834 3397 
L 2834 2853 
Q 2591 2978 2328 3040 
Q 2066 3103 1784 3103 
Q 1356 3103 1142 2972 
Q 928 2841 928 2578 
Q 928 2378 1081 2264 
Q 1234 2150 1697 2047 
L 1894 2003 
Q 2506 1872 2764 1633 
Q 3022 1394 3022 966 
Q 3022 478 2636 193 
Q 2250 -91 1575 -91 
Q 1294 -91 989 -36 
Q 684 19 347 128 
L 347 722 
Q 666 556 975 473 
Q 1284 391 1588 391 
Q 1994 391 2212 530 
Q 2431 669 2431 922 
Q 2431 1156 2273 1281 
Q 2116 1406 1581 1522 
L 1381 1569 
Q 847 1681 609 1914 
Q 372 2147 372 2553 
Q 372 3047 722 3315 
Q 1072 3584 1716 3584 
Q 2034 3584 2315 3537 
Q 2597 3491 2834 3397 
z
" transform="scale(0.015625)"/>
       <path id="DejaVuSans-29" d="M 513 4856 
L 1013 4856 
Q 1481 4119 1714 3412 
Q 1947 2706 1947 2009 
Q 1947 1309 1714 600 
Q 1481 -109 1013 -844 
L 513 -844 
Q 928 -128 1133 580 
Q 1338 1288 1338 2009 
Q 1338 2731 1133 3434 
Q 928 4138 513 4856 
z
" transform="scale(0.015625)"/>
      </defs>
      <use xlink:href="#DejaVuSans-54"/>
      <use xlink:href="#DejaVuSans-69" x="57.958984"/>
      <use xlink:href="#DejaVuSans-6d" x="85.742188"/>
      <use xlink:href="#DejaVuSans-65" x="183.154297"/>
      <use xlink:href="#DejaVuSans-20" x="244.677734"/>
      <use xlink:href="#DejaVuSans-28" x="276.464844"/>
      <use xlink:href="#DejaVuSans-73" x="315.478516"/>
      <use xlink:href="#DejaVuSans-29" x="367.578125"/>
     </g>
    </g>
   </g>
   <g id="matplotlib.axis_2">
    <g id="ytick_1">
     <g id="line2d_4">
      <defs>
       <path id="m19b28ac1af" d="M 0 0 
L -3.5 0 
" style="stroke: #000000; stroke-width: 0.8"/>
      </defs>
      <g>
       <use xlink:href="#m19b28ac1af" x="52.94" y="135.035676" style="stroke: #000000; stroke-width: 0.8"/>
      </g>
     </g>
     <g id="text_5">
      <!-- −10 -->
      <g transform="translate(24.835313 138.834894) scale(0.1 -0.1)">
       <defs>
        <path id="DejaVuSans-2212" d="M 678 2272 
L 4684 2272 
L 4684 1741 
L 678 1741 
L 678 2272 
z
" transform="scale(0.015625)"/>
       </defs>
       <use xlink:href="#DejaVuSans-2212"/>
       <use xlink:href="#DejaVuSans-31" x="83.789062"/>
       <use xlink:href="#DejaVuSans-30" x="147.412109"/>
      </g>
     </g>
    </g>
    <g id="ytick_2">
     <g id="line2d_5">
      <g>
       <use xlink:href="#m19b28ac1af" x="52.94" y="104.992432" style="stroke: #000000; stroke-width: 0.8"/>
      </g>
     </g>
     <g id="text_6">
      <!-- −5 -->
      <g transform="translate(31.197813 108.791651) scale(0.1 -0.1)">
       <use xlink:href="#DejaVuSans-2212"/>
       <use xlink:href="#DejaVuSans-35" x="83.789062"/>
      </g>
     </g>
    </g>
    <g id="ytick_3">
     <g id="line2d_6">
      <g>
       <use xlink:href="#m19b28ac1af" x="52.94" y="74.949189" style="stroke: #000000; stroke-width: 0.8"/>
      </g>
     </g>
     <g id="text_7">
      <!-- 0 -->
      <g transform="translate(39.5775 78.748408) scale(0.1 -0.1)">
       <use xlink:href="#DejaVuSans-30"/>
      </g>
     </g>
    </g>
    <g id="ytick_4">
     <g id="line2d_7">
      <g>
       <use xlink:href="#m19b28ac1af" x="52.94" y="44.905946" style="stroke: #000000; stroke-width: 0.8"/>
      </g>
     </g>
     <g id="text_8">
      <!-- 5 -->
      <g transform="translate(39.5775 48.705165) scale(0.1 -0.1)">
       <use xlink:href="#DejaVuSans-35"/>
      </g>
     </g>
    </g>
    <g id="text_9">
     <!-- Amplitude (mV) -->
     <g transform="translate(18.755625 121.863906) rotate(-90) scale(0.1 -0.1)">
      <defs>
       <path id="DejaVuSans-41" d="M 2188 4044 
L 1331 1722 
L 3047 1722 
L 2188 4044 
z
M 1831 4666 
L 2547 4666 
L 4325 0 
L 3669 0 
L 3244 1197 
L 1141 1197 
L 716 0 
L 50 0 
L 1831 4666 
z
" transform="scale(0.015625)"/>
       <path id="DejaVuSans-70" d="M 1159 525 
L 1159 -1331 
L 581 -1331 
L 581 3500 
L 1159 3500 
L 1159 2969 
Q 1341 3281 1617 3432 
Q 1894 3584 2278 3584 
Q 2916 3584 3314 3078 
Q 3713 2572 3713 1747 
Q 3713 922 3314 415 
Q 2916 -91 2278 -91 
Q 1894 -91 1617 61 
Q 1341 213 1159 525 
z
M 3116 1747 
Q 3116 2381 2855 2742 
Q 2594 3103 2138 3103 
Q 1681 3103 1420 2742 
Q 1159 2381 1159 1747 
Q 1159 1113 1420 752 
Q 1681 391 2138 391 
Q 2594 391 2855 752 
Q 3116 1113 3116 1747 
z
" transform="scale(0.015625)"/>
       <path id="DejaVuSans-6c" d="M 603 4863 
L 1178 4863 
L 1178 0 
L 603 0 
L 603 4863 
z
" transform="scale(0.015625)"/>
       <path id="DejaVuSans-74" d="M 1172 4494 
L 1172 3500 
L 2356 3500 
L 2356 3053 
L 1172 3053 
L 1172 1153 
Q 1172 725 1289 603 
Q 1406 481 1766 481 
L 2356 481 
L 2356 0 
L 1766 0 
Q 1100 0 847 248 
Q 594 497 594 1153 
L 594 3053 
L 172 3053 
L 172 3500 
L 594 3500 
L 594 4494 
L 1172 4494 
z
" transform="scale(0.015625)"/>
       <path id="DejaVuSans-75" d="M 544 1381 
L 544 3500 
L 1119 3500 
L 1119 1403 
Q 1119 906 1312 657 
Q 1506 409 1894 409 
Q 2359 409 2629 706 
Q 2900 1003 2900 1516 
L 2900 3500 
L 3475 3500 
L 3475 0 
L 2900 0 
L 2900 538 
Q 2691 219 2414 64 
Q 2138 -91 1772 -91 
Q 1169 -91 856 284 
Q 544 659 544 1381 
z
M 1991 3584 
L 1991 3584 
z
" transform="scale(0.015625)"/>
       <path id="DejaVuSans-64" d="M 2906 2969 
L 2906 4863 
L 3481 4863 
L 3481 0 
L 2906 0 
L 2906 525 
Q 2725 213 2448 61 
Q 2172 -91 1784 -91 
Q 1150 -91 751 415 
Q 353 922 353 1747 
Q 353 2572 751 3078 
Q 1150 3584 1784 3584 
Q 2172 3584 2448 3432 
Q 2725 3281 2906 2969 
z
M 947 1747 
Q 947 1113 1208 752 
Q 1469 391 1925 391 
Q 2381 391 2643 752 
Q 2906 1113 2906 1747 
Q 2906 2381 2643 2742 
Q 2381 3103 1925 3103 
Q 1469 3103 1208 2742 
Q 947 2381 947 1747 
z
" transform="scale(0.015625)"/>
       <path id="DejaVuSans-56" d="M 1831 0 
L 50 4666 
L 709 4666 
L 2188 738 
L 3669 4666 
L 4325 4666 
L 2547 0 
L 1831 0 
z
" transform="scale(0.015625)"/>
      </defs>
      <use xlink:href="#DejaVuSans-41"/>
      <use xlink:href="#DejaVuSans-6d" x="68.408203"/>
      <use xlink:href="#DejaVuSans-70" x="165.820312"/>
      <use xlink:href="#DejaVuSans-6c" x="229.296875"/>
      <use xlink:href="#DejaVuSans-69" x="257.080078"/>
      <use xlink:href="#DejaVuSans-74" x="284.863281"/>
      <use xlink:href="#DejaVuSans-75" x="324.072266"/>
      <use xlink:href="#DejaVuSans-64" x="387.451172"/>
      <use xlink:href="#DejaVuSans-65" x="450.927734"/>
      <use xlink:href="#DejaVuSans-20" x="512.451172"/>
      <use xlink:href="#DejaVuSans-28" x="544.238281"/>
      <use xlink:href="#DejaVuSans-6d" x="583.251953"/>
      <use xlink:href="#DejaVuSans-56" x="680.664062"/>
      <use xlink:href="#DejaVuSans-29" x="749.072266"/>
     </g>
    </g>
   </g>
   <g id="line2d_8">
    <path d="M 53.629667 79.628303 
L 54.319333 79.745457 
L 55.009 79.570867 
L 55.698666 79.256924 
L 56.388333 79.210544 
L 57.767666 79.898275 
L 58.457333 79.987628 
L 59.146999 80.342192 
L 60.526333 80.29359 
L 61.215999 79.852672 
L 61.905666 79.033879 
L 63.974665 75.955169 
L 64.664332 74.773877 
L 66.733332 72.780199 
L 68.112665 72.093028 
L 68.802332 72.09114 
L 69.491998 72.311248 
L 70.181665 71.802736 
L 70.871331 71.516917 
L 71.560998 71.044798 
L 72.250665 70.206319 
L 73.629998 68.867823 
L 74.319664 68.643084 
L 75.009331 68.129763 
L 75.698998 67.868916 
L 77.078331 66.91051 
L 77.767997 66.90591 
L 78.457664 67.04847 
L 79.836997 66.726805 
L 80.526664 66.687551 
L 81.21633 66.169149 
L 81.905997 65.893488 
L 85.35433 63.377264 
L 86.043996 63.260491 
L 87.42333 63.714617 
L 89.492329 64.548527 
L 90.181996 65.286135 
L 90.871663 65.790344 
L 92.250996 66.455557 
L 93.630329 66.694909 
L 94.319996 66.750589 
L 95.009662 67.050863 
L 95.699329 67.574684 
L 96.388995 67.442324 
L 97.078662 67.609194 
L 98.457995 67.141285 
L 99.147662 67.140879 
L 100.526995 67.527679 
L 101.216661 67.836642 
L 102.595995 68.007557 
L 103.975328 68.694371 
L 104.664994 69.389909 
L 106.044328 71.219023 
L 106.733994 71.783086 
L 108.113327 73.388827 
L 108.802994 73.869198 
L 109.492661 74.213643 
L 110.182327 74.386183 
L 110.871994 74.38188 
L 111.56166 74.239686 
L 112.251327 74.571725 
L 112.940994 74.695405 
L 114.320327 75.382841 
L 115.009993 75.331201 
L 117.078993 75.805977 
L 119.837659 75.696657 
L 120.527326 75.9479 
L 121.906659 77.064997 
L 122.596326 77.33943 
L 123.975659 78.335072 
L 124.665326 78.372444 
L 125.354992 78.640401 
L 126.734325 77.963478 
L 127.423992 78.154897 
L 128.113659 77.992295 
L 128.803325 78.284407 
L 129.492992 78.343785 
L 130.182658 77.944659 
L 131.561992 78.18303 
L 132.941325 77.966513 
L 133.630991 78.159423 
L 135.010324 77.694814 
L 135.699991 76.923841 
L 136.389658 76.751164 
L 137.079324 76.388315 
L 137.768991 76.162828 
L 138.458657 76.282561 
L 139.148324 76.036681 
L 139.837991 75.614816 
L 143.97599 70.710567 
L 144.665657 70.351667 
L 145.355323 69.821658 
L 147.424323 67.631752 
L 149.493323 64.750961 
L 150.872656 63.995631 
L 152.251989 63.503027 
L 152.941656 63.348168 
L 153.631322 63.471619 
L 154.320989 63.365061 
L 155.010656 63.592981 
L 155.700322 63.40596 
L 157.079655 62.586744 
L 158.458989 62.705721 
L 159.148655 62.49349 
L 161.217655 61.240498 
L 162.596988 60.871934 
L 163.286655 60.803992 
L 163.976321 61.045764 
L 164.665988 61.445979 
L 165.355655 61.430572 
L 166.045321 61.138203 
L 166.734988 61.068402 
L 167.424654 61.251443 
L 168.114321 61.60752 
L 168.803988 62.314381 
L 169.493654 62.764774 
L 170.183321 63.661685 
L 171.562654 63.829689 
L 172.25232 63.777594 
L 174.32132 63.885258 
L 176.39032 65.513557 
L 177.079987 66.161794 
L 178.45932 67.697116 
L 179.148986 68.032007 
L 179.838653 68.137332 
L 180.52832 68.37162 
L 181.217986 69.08866 
L 181.907653 69.236112 
L 183.286986 70.174265 
L 183.976653 70.902726 
L 184.666319 71.115654 
L 186.045652 72.074205 
L 187.424986 72.707056 
L 188.114652 73.331403 
L 189.493985 74.288408 
L 190.873318 75.574173 
L 190.873318 75.574173 
" clip-path="url(#p0656bf0261)" style="fill: none; stroke: #1e90ff; stroke-linecap: square"/>
   </g>
   <g id="line2d_9">
    <path d="M 53.629667 79.718162 
L 55.009 80.015476 
L 57.767666 81.209128 
L 58.457333 81.12553 
L 59.146999 80.710482 
L 62.595332 77.761466 
L 65.353999 74.759711 
L 66.043665 74.268288 
L 67.422998 73.661392 
L 68.802332 73.101622 
L 69.491998 72.720614 
L 70.871331 71.551461 
L 73.629998 69.025729 
L 75.009331 68.136097 
L 77.078331 67.085472 
L 78.457664 66.817029 
L 79.836997 66.525855 
L 81.905997 65.588083 
L 83.28533 64.870401 
L 86.043996 63.534182 
L 86.733663 63.482038 
L 88.112996 63.800909 
L 89.492329 64.490863 
L 90.871663 65.313185 
L 93.630329 66.451398 
L 95.009662 66.93517 
L 95.699329 67.27323 
L 97.078662 67.512873 
L 97.768329 67.46571 
L 99.147662 67.12132 
L 100.526995 67.223107 
L 101.216661 67.364078 
L 102.595995 68.006945 
L 104.664994 69.808543 
L 107.423661 72.494027 
L 108.802994 73.480223 
L 110.182327 73.97817 
L 112.251327 74.721946 
L 113.63066 75.349439 
L 115.009993 75.557922 
L 115.69966 75.520913 
L 118.458326 75.954932 
L 119.837659 75.999145 
L 120.527326 76.176628 
L 121.216993 76.510437 
L 123.285992 77.822228 
L 124.665326 78.357189 
L 126.044659 78.621174 
L 128.803325 78.526391 
L 129.492992 78.484938 
L 130.872325 78.059568 
L 132.251658 77.600668 
L 133.630991 77.299262 
L 135.010324 76.927066 
L 137.079324 76.577483 
L 138.458657 76.079152 
L 139.837991 75.503329 
L 140.527657 74.88559 
L 143.97599 70.803352 
L 146.734657 68.476799 
L 150.872656 64.336315 
L 152.251989 63.461119 
L 153.631322 62.906618 
L 154.320989 62.715395 
L 157.079655 62.367706 
L 157.769322 62.10623 
L 158.458989 62.056258 
L 159.148655 61.825818 
L 160.527988 61.598376 
L 161.907322 61.259829 
L 163.286655 61.14322 
L 165.355655 61.323496 
L 167.424654 61.84896 
L 168.803988 62.434064 
L 171.562654 63.121031 
L 173.631654 63.873571 
L 174.32132 64.233163 
L 175.700653 65.430444 
L 178.45932 68.370158 
L 179.148986 68.78524 
L 179.838653 69.054445 
L 182.597319 69.613808 
L 183.286986 69.956255 
L 184.666319 70.951412 
L 188.114652 73.091047 
L 190.873318 76.32723 
L 190.873318 76.32723 
" clip-path="url(#p0656bf0261)" style="fill: none; stroke: #ff0000; stroke-width: 0.8; stroke-linecap: square"/>
   </g>
   <g id="line2d_10">
    <path d="M 53.629667 104.685277 
L 55.009 157.281721 
L 55.711706 181 
M 58.735318 181 
L 59.146999 109.589487 
L 59.836666 49.94008 
L 60.526333 25.169016 
L 61.215999 27.17979 
L 61.905666 33.573592 
L 62.595332 44.13283 
L 63.284999 58.279876 
L 64.664332 93.851267 
L 66.733332 149.95618 
L 67.422998 164.836907 
L 68.112665 176.047904 
L 68.586307 181 
M 69.535835 181 
L 70.871331 33.500083 
L 71.560998 2.137171 
L 72.250665 4.363394 
L 72.940331 12.777252 
L 73.629998 26.484206 
L 74.319664 45.290701 
L 75.698998 91.716314 
L 77.767997 163.378556 
L 78.401827 181 
M 80.703324 181 
L 81.21633 100.516739 
L 81.905997 30.177353 
L 82.595663 0.642469 
L 83.28533 2.899811 
L 83.974997 10.953756 
L 84.664663 24.035969 
L 85.35433 41.438115 
L 86.733663 85.852305 
L 88.802663 154.792593 
L 89.874966 181 
M 91.697625 181 
L 92.940662 25.851712 
L 93.501819 -1 
M 94.514481 -1 
L 95.009662 6.152851 
L 95.699329 22.154704 
L 96.388995 42.416975 
L 97.768329 92.952149 
L 99.837328 170.689679 
L 100.182229 181 
M 102.828457 181 
L 103.285661 103.881631 
L 103.975328 31.718985 
L 104.664994 2.369971 
L 105.354661 6.352215 
L 106.044328 15.948837 
L 106.733994 30.560545 
L 107.423661 49.893993 
L 108.802994 97.063309 
L 110.182327 146.319616 
L 111.352166 181 
M 113.842658 181 
L 114.320327 108.3776 
L 115.009993 41.021796 
L 115.69966 13.305929 
L 116.389327 16.236454 
L 117.078993 24.520859 
L 117.76866 37.536768 
L 118.458326 54.725676 
L 119.837659 97.218437 
L 121.906659 164.129553 
L 122.573431 181 
M 124.852771 181 
L 125.354992 112.545061 
L 126.044659 42.986724 
L 126.734325 14.060822 
L 127.423992 17.094339 
L 128.113659 25.292877 
L 128.803325 38.979236 
L 130.182658 77.166364 
L 132.941325 167.432064 
L 133.465786 181 
M 135.880873 181 
L 136.389658 103.266096 
L 137.079324 48.816923 
L 137.768991 26.188146 
L 138.458657 28.530531 
L 139.148324 34.823424 
L 139.837991 44.876448 
L 140.527657 57.857319 
L 141.90699 90.533311 
L 143.97599 140.676553 
L 144.665657 154.119896 
L 145.355323 164.064777 
L 146.04499 169.868913 
L 146.734657 171.242375 
L 147.424323 94.29972 
L 148.11399 38.988654 
L 148.803656 15.560909 
L 149.493323 16.723315 
L 150.18299 22.873266 
L 150.872656 33.079851 
L 151.562323 46.670441 
L 152.941656 80.743117 
L 155.010656 133.962791 
L 155.700322 147.657676 
L 156.389989 157.832052 
L 157.079655 163.950326 
L 157.769322 166.29947 
L 158.458989 103.777998 
L 159.148655 19.784723 
L 159.556353 -1 
M 161.286584 -1 
L 161.907322 13.40739 
L 162.596988 34.637465 
L 163.976321 87.83634 
L 165.355655 144.517957 
L 166.41694 181 
M 169.029044 181 
L 169.493654 96.625186 
L 170.183321 28.45214 
L 170.872987 -0.075477 
L 171.562654 2.848822 
L 172.25232 11.14695 
L 172.941987 24.591002 
L 173.631654 42.253292 
L 175.010987 86.496037 
L 177.079987 155.510585 
L 178.114378 181 
M 179.973842 181 
L 180.52832 104.394319 
L 181.217986 31.630674 
L 181.907653 1.341424 
L 182.597319 4.787074 
L 183.286986 14.182688 
L 183.976653 29.142147 
L 184.666319 48.10655 
L 186.045652 95.571047 
L 188.114652 168.385903 
L 188.567671 181 
L 188.567671 181 
" clip-path="url(#p0656bf0261)" style="fill: none; stroke: #808080; stroke-width: 0.2; stroke-linecap: square"/>
   </g>
   <g id="patch_3">
    <path d="M 52.94 138.04 
L 52.94 26.88 
" style="fill: none; stroke: #000000; stroke-width: 0.8; stroke-linejoin: miter; stroke-linecap: square"/>
   </g>
   <g id="patch_4">
    <path d="M 191.562985 138.04 
L 191.562985 26.88 
" style="fill: none; stroke: #000000; stroke-width: 0.8; stroke-linejoin: miter; stroke-linecap: square"/>
   </g>
   <g id="patch_5">
    <path d="M 52.94 138.04 
L 191.562985 138.04 
" style="fill: none; stroke: #000000; stroke-width: 0.8; stroke-linejoin: miter; stroke-linecap: square"/>
   </g>
   <g id="patch_6">
    <path d="M 52.94 26.88 
L 191.562985 26.88 
" style="fill: none; stroke: #000000; stroke-width: 0.8; stroke-linejoin: miter; stroke-linecap: square"/>
   </g>
   <g id="text_10">
    <!-- Zoom-in Time Domain Plot -->
    <g transform="translate(42.329618 20.88) scale(0.12 -0.12)">
     <defs>
      <path id="DejaVuSans-5a" d="M 359 4666 
L 4025 4666 
L 4025 4184 
L 1075 531 
L 4097 531 
L 4097 0 
L 288 0 
L 288 481 
L 3238 4134 
L 359 4134 
L 359 4666 
z
" transform="scale(0.015625)"/>
      <path id="DejaVuSans-6f" d="M 1959 3097 
Q 1497 3097 1228 2736 
Q 959 2375 959 1747 
Q 959 1119 1226 758 
Q 1494 397 1959 397 
Q 2419 397 2687 759 
Q 2956 1122 2956 1747 
Q 2956 2369 2687 2733 
Q 2419 3097 1959 3097 
z
M 1959 3584 
Q 2709 3584 3137 3096 
Q 3566 2609 3566 1747 
Q 3566 888 3137 398 
Q 2709 -91 1959 -91 
Q 1206 -91 779 398 
Q 353 888 353 1747 
Q 353 2609 779 3096 
Q 1206 3584 1959 3584 
z
" transform="scale(0.015625)"/>
      <path id="DejaVuSans-2d" d="M 313 2009 
L 1997 2009 
L 1997 1497 
L 313 1497 
L 313 2009 
z
" transform="scale(0.015625)"/>
      <path id="DejaVuSans-6e" d="M 3513 2113 
L 3513 0 
L 2938 0 
L 2938 2094 
Q 2938 2591 2744 2837 
Q 2550 3084 2163 3084 
Q 1697 3084 1428 2787 
Q 1159 2491 1159 1978 
L 1159 0 
L 581 0 
L 581 3500 
L 1159 3500 
L 1159 2956 
Q 1366 3272 1645 3428 
Q 1925 3584 2291 3584 
Q 2894 3584 3203 3211 
Q 3513 2838 3513 2113 
z
" transform="scale(0.015625)"/>
      <path id="DejaVuSans-44" d="M 1259 4147 
L 1259 519 
L 2022 519 
Q 2988 519 3436 956 
Q 3884 1394 3884 2338 
Q 3884 3275 3436 3711 
Q 2988 4147 2022 4147 
L 1259 4147 
z
M 628 4666 
L 1925 4666 
Q 3281 4666 3915 4102 
Q 4550 3538 4550 2338 
Q 4550 1131 3912 565 
Q 3275 0 1925 0 
L 628 0 
L 628 4666 
z
" transform="scale(0.015625)"/>
      <path id="DejaVuSans-61" d="M 2194 1759 
Q 1497 1759 1228 1600 
Q 959 1441 959 1056 
Q 959 750 1161 570 
Q 1363 391 1709 391 
Q 2188 391 2477 730 
Q 2766 1069 2766 1631 
L 2766 1759 
L 2194 1759 
z
M 3341 1997 
L 3341 0 
L 2766 0 
L 2766 531 
Q 2569 213 2275 61 
Q 1981 -91 1556 -91 
Q 1019 -91 701 211 
Q 384 513 384 1019 
Q 384 1609 779 1909 
Q 1175 2209 1959 2209 
L 2766 2209 
L 2766 2266 
Q 2766 2663 2505 2880 
Q 2244 3097 1772 3097 
Q 1472 3097 1187 3025 
Q 903 2953 641 2809 
L 641 3341 
Q 956 3463 1253 3523 
Q 1550 3584 1831 3584 
Q 2591 3584 2966 3190 
Q 3341 2797 3341 1997 
z
" transform="scale(0.015625)"/>
      <path id="DejaVuSans-50" d="M 1259 4147 
L 1259 2394 
L 2053 2394 
Q 2494 2394 2734 2622 
Q 2975 2850 2975 3272 
Q 2975 3691 2734 3919 
Q 2494 4147 2053 4147 
L 1259 4147 
z
M 628 4666 
L 2053 4666 
Q 2838 4666 3239 4311 
Q 3641 3956 3641 3272 
Q 3641 2581 3239 2228 
Q 2838 1875 2053 1875 
L 1259 1875 
L 1259 0 
L 628 0 
L 628 4666 
z
" transform="scale(0.015625)"/>
     </defs>
     <use xlink:href="#DejaVuSans-5a"/>
     <use xlink:href="#DejaVuSans-6f" x="68.505859"/>
     <use xlink:href="#DejaVuSans-6f" x="129.6875"/>
     <use xlink:href="#DejaVuSans-6d" x="190.869141"/>
     <use xlink:href="#DejaVuSans-2d" x="288.28125"/>
     <use xlink:href="#DejaVuSans-69" x="324.365234"/>
     <use xlink:href="#DejaVuSans-6e" x="352.148438"/>
     <use xlink:href="#DejaVuSans-20" x="415.527344"/>
     <use xlink:href="#DejaVuSans-54" x="447.314453"/>
     <use xlink:href="#DejaVuSans-69" x="505.273438"/>
     <use xlink:href="#DejaVuSans-6d" x="533.056641"/>
     <use xlink:href="#DejaVuSans-65" x="630.46875"/>
     <use xlink:href="#DejaVuSans-20" x="691.992188"/>
     <use xlink:href="#DejaVuSans-44" x="723.779297"/>
     <use xlink:href="#DejaVuSans-6f" x="800.78125"/>
     <use xlink:href="#DejaVuSans-6d" x="861.962891"/>
     <use xlink:href="#DejaVuSans-61" x="959.375"/>
     <use xlink:href="#DejaVuSans-69" x="1020.654297"/>
     <use xlink:href="#DejaVuSans-6e" x="1048.4375"/>
     <use xlink:href="#DejaVuSans-20" x="1111.816406"/>
     <use xlink:href="#DejaVuSans-50" x="1143.603516"/>
     <use xlink:href="#DejaVuSans-6c" x="1203.90625"/>
     <use xlink:href="#DejaVuSans-6f" x="1231.689453"/>
     <use xlink:href="#DejaVuSans-74" x="1292.871094"/>
    </g>
   </g>
  </g>
 </g>
 <defs>
  <clipPath id="p0656bf0261">
   <rect x="52.94" y="26.88" width="138.622985" height="111.16"/>
  </clipPath>
 </defs>
</svg>
