<?xml version="1.0" encoding="utf-8" standalone="no"?>
<!DOCTYPE svg PUBLIC "-//W3C//DTD SVG 1.1//EN"
  "http://www.w3.org/Graphics/SVG/1.1/DTD/svg11.dtd">
<svg xmlns:xlink="http://www.w3.org/1999/xlink" width="216pt" height="180pt" viewBox="0 0 216 180" xmlns="http://www.w3.org/2000/svg" version="1.1">
 <metadata>
  <rdf:RDF xmlns:dc="http://purl.org/dc/elements/1.1/" xmlns:cc="http://creativecommons.org/ns#" xmlns:rdf="http://www.w3.org/1999/02/22-rdf-syntax-ns#">
   <cc:Work>
    <dc:type rdf:resource="http://purl.org/dc/dcmitype/StillImage"/>
    <dc:date>2024-08-24T22:04:33.031478</dc:date>
    <dc:format>image/svg+xml</dc:format>
    <dc:creator>
     <cc:Agent>
      <dc:title>Matplotlib v3.9.1, https://matplotlib.org/</dc:title>
     </cc:Agent>
    </dc:creator>
   </cc:Work>
  </rdf:RDF>
 </metadata>
 <defs>
  <style type="text/css">*{stroke-linejoin: round; stroke-linecap: butt}</style>
 </defs>
 <g id="figure_1">
  <g id="patch_1">
   <path d="M 0 180 
L 216 180 
L 216 0 
L 0 0 
z
" style="fill: #ffffff"/>
  </g>
  <g id="axes_1">
   <g id="patch_2">
    <path d="M 59.52 129.12 
L 197.469952 129.12 
L 197.469952 26.88 
L 59.52 26.88 
z
" style="fill: #ffffff"/>
   </g>
   <g id="matplotlib.axis_1">
    <g id="xtick_1">
     <g id="line2d_1">
      <defs>
       <path id="m65f20652a6" d="M 0 0 
L 0 3.5 
" style="stroke: #000000; stroke-width: 0.8"/>
      </defs>
      <g>
       <use xlink:href="#m65f20652a6" x="62.106562" y="129.12" style="stroke: #000000; stroke-width: 0.8"/>
      </g>
     </g>
     <g id="text_1">
      <!-- 1.00 -->
      <g transform="translate(50.973749 143.718437) scale(0.1 -0.1)">
       <defs>
        <path id="DejaVuSans-31" d="M 794 531 
L 1825 531 
L 1825 4091 
L 703 3866 
L 703 4441 
L 1819 4666 
L 2450 4666 
L 2450 531 
L 3481 531 
L 3481 0 
L 794 0 
L 794 531 
z
" transform="scale(0.015625)"/>
        <path id="DejaVuSans-2e" d="M 684 794 
L 1344 794 
L 1344 0 
L 684 0 
L 684 794 
z
" transform="scale(0.015625)"/>
        <path id="DejaVuSans-30" d="M 2034 4250 
Q 1547 4250 1301 3770 
Q 1056 3291 1056 2328 
Q 1056 1369 1301 889 
Q 1547 409 2034 409 
Q 2525 409 2770 889 
Q 3016 1369 3016 2328 
Q 3016 3291 2770 3770 
Q 2525 4250 2034 4250 
z
M 2034 4750 
Q 2819 4750 3233 4129 
Q 3647 3509 3647 2328 
Q 3647 1150 3233 529 
Q 2819 -91 2034 -91 
Q 1250 -91 836 529 
Q 422 1150 422 2328 
Q 422 3509 836 4129 
Q 1250 4750 2034 4750 
z
" transform="scale(0.015625)"/>
       </defs>
       <use xlink:href="#DejaVuSans-31"/>
       <use xlink:href="#DejaVuSans-2e" x="63.623047"/>
       <use xlink:href="#DejaVuSans-30" x="95.410156"/>
       <use xlink:href="#DejaVuSans-30" x="159.033203"/>
      </g>
     </g>
    </g>
    <g id="xtick_2">
     <g id="line2d_2">
      <g>
       <use xlink:href="#m65f20652a6" x="128.412073" y="129.12" style="stroke: #000000; stroke-width: 0.8"/>
      </g>
     </g>
     <g id="text_2">
      <!-- 1.25 -->
      <g transform="translate(117.279261 143.718437) scale(0.1 -0.1)">
       <defs>
        <path id="DejaVuSans-32" d="M 1228 531 
L 3431 531 
L 3431 0 
L 469 0 
L 469 531 
Q 828 903 1448 1529 
Q 2069 2156 2228 2338 
Q 2531 2678 2651 2914 
Q 2772 3150 2772 3378 
Q 2772 3750 2511 3984 
Q 2250 4219 1831 4219 
Q 1534 4219 1204 4116 
Q 875 4013 500 3803 
L 500 4441 
Q 881 4594 1212 4672 
Q 1544 4750 1819 4750 
Q 2544 4750 2975 4387 
Q 3406 4025 3406 3419 
Q 3406 3131 3298 2873 
Q 3191 2616 2906 2266 
Q 2828 2175 2409 1742 
Q 1991 1309 1228 531 
z
" transform="scale(0.015625)"/>
        <path id="DejaVuSans-35" d="M 691 4666 
L 3169 4666 
L 3169 4134 
L 1269 4134 
L 1269 2991 
Q 1406 3038 1543 3061 
Q 1681 3084 1819 3084 
Q 2600 3084 3056 2656 
Q 3513 2228 3513 1497 
Q 3513 744 3044 326 
Q 2575 -91 1722 -91 
Q 1428 -91 1123 -41 
Q 819 9 494 109 
L 494 744 
Q 775 591 1075 516 
Q 1375 441 1709 441 
Q 2250 441 2565 725 
Q 2881 1009 2881 1497 
Q 2881 1984 2565 2268 
Q 2250 2553 1709 2553 
Q 1456 2553 1204 2497 
Q 953 2441 691 2322 
L 691 4666 
z
" transform="scale(0.015625)"/>
       </defs>
       <use xlink:href="#DejaVuSans-31"/>
       <use xlink:href="#DejaVuSans-2e" x="63.623047"/>
       <use xlink:href="#DejaVuSans-32" x="95.410156"/>
       <use xlink:href="#DejaVuSans-35" x="159.033203"/>
      </g>
     </g>
    </g>
    <g id="xtick_3">
     <g id="line2d_3">
      <g>
       <use xlink:href="#m65f20652a6" x="194.717585" y="129.12" style="stroke: #000000; stroke-width: 0.8"/>
      </g>
     </g>
     <g id="text_3">
      <!-- 1.50 -->
      <g transform="translate(183.584773 143.718437) scale(0.1 -0.1)">
       <use xlink:href="#DejaVuSans-31"/>
       <use xlink:href="#DejaVuSans-2e" x="63.623047"/>
       <use xlink:href="#DejaVuSans-35" x="95.410156"/>
       <use xlink:href="#DejaVuSans-30" x="159.033203"/>
      </g>
     </g>
    </g>
    <g id="text_4">
     <!-- Time (s) -->
     <g transform="translate(108.16607 157.396563) scale(0.1 -0.1)">
      <defs>
       <path id="DejaVuSans-54" d="M -19 4666 
L 3928 4666 
L 3928 4134 
L 2272 4134 
L 2272 0 
L 1638 0 
L 1638 4134 
L -19 4134 
L -19 4666 
z
" transform="scale(0.015625)"/>
       <path id="DejaVuSans-69" d="M 603 3500 
L 1178 3500 
L 1178 0 
L 603 0 
L 603 3500 
z
M 603 4863 
L 1178 4863 
L 1178 4134 
L 603 4134 
L 603 4863 
z
" transform="scale(0.015625)"/>
       <path id="DejaVuSans-6d" d="M 3328 2828 
Q 3544 3216 3844 3400 
Q 4144 3584 4550 3584 
Q 5097 3584 5394 3201 
Q 5691 2819 5691 2113 
L 5691 0 
L 5113 0 
L 5113 2094 
Q 5113 2597 4934 2840 
Q 4756 3084 4391 3084 
Q 3944 3084 3684 2787 
Q 3425 2491 3425 1978 
L 3425 0 
L 2847 0 
L 2847 2094 
Q 2847 2600 2669 2842 
Q 2491 3084 2119 3084 
Q 1678 3084 1418 2786 
Q 1159 2488 1159 1978 
L 1159 0 
L 581 0 
L 581 3500 
L 1159 3500 
L 1159 2956 
Q 1356 3278 1631 3431 
Q 1906 3584 2284 3584 
Q 2666 3584 2933 3390 
Q 3200 3197 3328 2828 
z
" transform="scale(0.015625)"/>
       <path id="DejaVuSans-65" d="M 3597 1894 
L 3597 1613 
L 953 1613 
Q 991 1019 1311 708 
Q 1631 397 2203 397 
Q 2534 397 2845 478 
Q 3156 559 3463 722 
L 3463 178 
Q 3153 47 2828 -22 
Q 2503 -91 2169 -91 
Q 1331 -91 842 396 
Q 353 884 353 1716 
Q 353 2575 817 3079 
Q 1281 3584 2069 3584 
Q 2775 3584 3186 3129 
Q 3597 2675 3597 1894 
z
M 3022 2063 
Q 3016 2534 2758 2815 
Q 2500 3097 2075 3097 
Q 1594 3097 1305 2825 
Q 1016 2553 972 2059 
L 3022 2063 
z
" transform="scale(0.015625)"/>
       <path id="DejaVuSans-20" transform="scale(0.015625)"/>
       <path id="DejaVuSans-28" d="M 1984 4856 
Q 1566 4138 1362 3434 
Q 1159 2731 1159 2009 
Q 1159 1288 1364 580 
Q 1569 -128 1984 -844 
L 1484 -844 
Q 1016 -109 783 600 
Q 550 1309 550 2009 
Q 550 2706 781 3412 
Q 1013 4119 1484 4856 
L 1984 4856 
z
" transform="scale(0.015625)"/>
       <path id="DejaVuSans-73" d="M 2834 3397 
L 2834 2853 
Q 2591 2978 2328 3040 
Q 2066 3103 1784 3103 
Q 1356 3103 1142 2972 
Q 928 2841 928 2578 
Q 928 2378 1081 2264 
Q 1234 2150 1697 2047 
L 1894 2003 
Q 2506 1872 2764 1633 
Q 3022 1394 3022 966 
Q 3022 478 2636 193 
Q 2250 -91 1575 -91 
Q 1294 -91 989 -36 
Q 684 19 347 128 
L 347 722 
Q 666 556 975 473 
Q 1284 391 1588 391 
Q 1994 391 2212 530 
Q 2431 669 2431 922 
Q 2431 1156 2273 1281 
Q 2116 1406 1581 1522 
L 1381 1569 
Q 847 1681 609 1914 
Q 372 2147 372 2553 
Q 372 3047 722 3315 
Q 1072 3584 1716 3584 
Q 2034 3584 2315 3537 
Q 2597 3491 2834 3397 
z
" transform="scale(0.015625)"/>
       <path id="DejaVuSans-29" d="M 513 4856 
L 1013 4856 
Q 1481 4119 1714 3412 
Q 1947 2706 1947 2009 
Q 1947 1309 1714 600 
Q 1481 -109 1013 -844 
L 513 -844 
Q 928 -128 1133 580 
Q 1338 1288 1338 2009 
Q 1338 2731 1133 3434 
Q 928 4138 513 4856 
z
" transform="scale(0.015625)"/>
      </defs>
      <use xlink:href="#DejaVuSans-54"/>
      <use xlink:href="#DejaVuSans-69" x="57.958984"/>
      <use xlink:href="#DejaVuSans-6d" x="85.742188"/>
      <use xlink:href="#DejaVuSans-65" x="183.154297"/>
      <use xlink:href="#DejaVuSans-20" x="244.677734"/>
      <use xlink:href="#DejaVuSans-28" x="276.464844"/>
      <use xlink:href="#DejaVuSans-73" x="315.478516"/>
      <use xlink:href="#DejaVuSans-29" x="367.578125"/>
     </g>
    </g>
   </g>
   <g id="matplotlib.axis_2">
    <g id="ytick_1">
     <g id="line2d_4">
      <defs>
       <path id="m80f23470d9" d="M 0 0 
L -3.5 0 
" style="stroke: #000000; stroke-width: 0.8"/>
      </defs>
      <g>
       <use xlink:href="#m80f23470d9" x="59.52" y="114.685173" style="stroke: #000000; stroke-width: 0.8"/>
      </g>
     </g>
     <g id="text_5">
      <!-- −40 -->
      <g transform="translate(31.415312 118.484391) scale(0.1 -0.1)">
       <defs>
        <path id="DejaVuSans-2212" d="M 678 2272 
L 4684 2272 
L 4684 1741 
L 678 1741 
L 678 2272 
z
" transform="scale(0.015625)"/>
        <path id="DejaVuSans-34" d="M 2419 4116 
L 825 1625 
L 2419 1625 
L 2419 4116 
z
M 2253 4666 
L 3047 4666 
L 3047 1625 
L 3713 1625 
L 3713 1100 
L 3047 1100 
L 3047 0 
L 2419 0 
L 2419 1100 
L 313 1100 
L 313 1709 
L 2253 4666 
z
" transform="scale(0.015625)"/>
       </defs>
       <use xlink:href="#DejaVuSans-2212"/>
       <use xlink:href="#DejaVuSans-34" x="83.789062"/>
       <use xlink:href="#DejaVuSans-30" x="147.412109"/>
      </g>
     </g>
    </g>
    <g id="ytick_2">
     <g id="line2d_5">
      <g>
       <use xlink:href="#m80f23470d9" x="59.52" y="86.004996" style="stroke: #000000; stroke-width: 0.8"/>
      </g>
     </g>
     <g id="text_6">
      <!-- −20 -->
      <g transform="translate(31.415312 89.804215) scale(0.1 -0.1)">
       <use xlink:href="#DejaVuSans-2212"/>
       <use xlink:href="#DejaVuSans-32" x="83.789062"/>
       <use xlink:href="#DejaVuSans-30" x="147.412109"/>
      </g>
     </g>
    </g>
    <g id="ytick_3">
     <g id="line2d_6">
      <g>
       <use xlink:href="#m80f23470d9" x="59.52" y="57.32482" style="stroke: #000000; stroke-width: 0.8"/>
      </g>
     </g>
     <g id="text_7">
      <!-- 0 -->
      <g transform="translate(46.1575 61.124039) scale(0.1 -0.1)">
       <use xlink:href="#DejaVuSans-30"/>
      </g>
     </g>
    </g>
    <g id="ytick_4">
     <g id="line2d_7">
      <g>
       <use xlink:href="#m80f23470d9" x="59.52" y="28.644644" style="stroke: #000000; stroke-width: 0.8"/>
      </g>
     </g>
     <g id="text_8">
      <!-- 20 -->
      <g transform="translate(39.795 32.443863) scale(0.1 -0.1)">
       <use xlink:href="#DejaVuSans-32"/>
       <use xlink:href="#DejaVuSans-30" x="63.623047"/>
      </g>
     </g>
    </g>
    <g id="text_9">
     <!-- Amplitude (mV) -->
     <g transform="translate(25.335625 117.403906) rotate(-90) scale(0.1 -0.1)">
      <defs>
       <path id="DejaVuSans-41" d="M 2188 4044 
L 1331 1722 
L 3047 1722 
L 2188 4044 
z
M 1831 4666 
L 2547 4666 
L 4325 0 
L 3669 0 
L 3244 1197 
L 1141 1197 
L 716 0 
L 50 0 
L 1831 4666 
z
" transform="scale(0.015625)"/>
       <path id="DejaVuSans-70" d="M 1159 525 
L 1159 -1331 
L 581 -1331 
L 581 3500 
L 1159 3500 
L 1159 2969 
Q 1341 3281 1617 3432 
Q 1894 3584 2278 3584 
Q 2916 3584 3314 3078 
Q 3713 2572 3713 1747 
Q 3713 922 3314 415 
Q 2916 -91 2278 -91 
Q 1894 -91 1617 61 
Q 1341 213 1159 525 
z
M 3116 1747 
Q 3116 2381 2855 2742 
Q 2594 3103 2138 3103 
Q 1681 3103 1420 2742 
Q 1159 2381 1159 1747 
Q 1159 1113 1420 752 
Q 1681 391 2138 391 
Q 2594 391 2855 752 
Q 3116 1113 3116 1747 
z
" transform="scale(0.015625)"/>
       <path id="DejaVuSans-6c" d="M 603 4863 
L 1178 4863 
L 1178 0 
L 603 0 
L 603 4863 
z
" transform="scale(0.015625)"/>
       <path id="DejaVuSans-74" d="M 1172 4494 
L 1172 3500 
L 2356 3500 
L 2356 3053 
L 1172 3053 
L 1172 1153 
Q 1172 725 1289 603 
Q 1406 481 1766 481 
L 2356 481 
L 2356 0 
L 1766 0 
Q 1100 0 847 248 
Q 594 497 594 1153 
L 594 3053 
L 172 3053 
L 172 3500 
L 594 3500 
L 594 4494 
L 1172 4494 
z
" transform="scale(0.015625)"/>
       <path id="DejaVuSans-75" d="M 544 1381 
L 544 3500 
L 1119 3500 
L 1119 1403 
Q 1119 906 1312 657 
Q 1506 409 1894 409 
Q 2359 409 2629 706 
Q 2900 1003 2900 1516 
L 2900 3500 
L 3475 3500 
L 3475 0 
L 2900 0 
L 2900 538 
Q 2691 219 2414 64 
Q 2138 -91 1772 -91 
Q 1169 -91 856 284 
Q 544 659 544 1381 
z
M 1991 3584 
L 1991 3584 
z
" transform="scale(0.015625)"/>
       <path id="DejaVuSans-64" d="M 2906 2969 
L 2906 4863 
L 3481 4863 
L 3481 0 
L 2906 0 
L 2906 525 
Q 2725 213 2448 61 
Q 2172 -91 1784 -91 
Q 1150 -91 751 415 
Q 353 922 353 1747 
Q 353 2572 751 3078 
Q 1150 3584 1784 3584 
Q 2172 3584 2448 3432 
Q 2725 3281 2906 2969 
z
M 947 1747 
Q 947 1113 1208 752 
Q 1469 391 1925 391 
Q 2381 391 2643 752 
Q 2906 1113 2906 1747 
Q 2906 2381 2643 2742 
Q 2381 3103 1925 3103 
Q 1469 3103 1208 2742 
Q 947 2381 947 1747 
z
" transform="scale(0.015625)"/>
       <path id="DejaVuSans-56" d="M 1831 0 
L 50 4666 
L 709 4666 
L 2188 738 
L 3669 4666 
L 4325 4666 
L 2547 0 
L 1831 0 
z
" transform="scale(0.015625)"/>
      </defs>
      <use xlink:href="#DejaVuSans-41"/>
      <use xlink:href="#DejaVuSans-6d" x="68.408203"/>
      <use xlink:href="#DejaVuSans-70" x="165.820312"/>
      <use xlink:href="#DejaVuSans-6c" x="229.296875"/>
      <use xlink:href="#DejaVuSans-69" x="257.080078"/>
      <use xlink:href="#DejaVuSans-74" x="284.863281"/>
      <use xlink:href="#DejaVuSans-75" x="324.072266"/>
      <use xlink:href="#DejaVuSans-64" x="387.451172"/>
      <use xlink:href="#DejaVuSans-65" x="450.927734"/>
      <use xlink:href="#DejaVuSans-20" x="512.451172"/>
      <use xlink:href="#DejaVuSans-28" x="544.238281"/>
      <use xlink:href="#DejaVuSans-6d" x="583.251953"/>
      <use xlink:href="#DejaVuSans-56" x="680.664062"/>
      <use xlink:href="#DejaVuSans-29" x="749.072266"/>
     </g>
    </g>
   </g>
   <g id="line2d_8">
    <path d="M 62.172884 58.12834 
L 62.438172 39.278028 
L 62.570816 39.994506 
L 62.836105 44.486583 
L 63.234037 56.290403 
L 64.029902 104.396624 
L 64.162546 105.76983 
L 64.427835 48.21493 
L 64.560479 43.417034 
L 64.693123 43.801678 
L 64.958412 47.208447 
L 65.356344 57.17561 
L 66.152209 98.663108 
L 66.284853 99.645838 
L 66.550142 45.745651 
L 66.682786 40.506317 
L 66.81543 40.923822 
L 67.080719 44.568875 
L 67.478651 55.044789 
L 68.274516 99.412061 
L 68.40716 100.544596 
L 68.672449 38.677919 
L 68.805093 31.527273 
L 68.937737 32.127666 
L 69.203025 37.333187 
L 69.600958 52.3702 
L 70.396823 115.628963 
L 70.529467 117.520634 
L 70.794756 41.933857 
L 70.9274 36.518818 
L 71.060044 37.200406 
L 71.325332 41.690892 
L 71.723265 54.023087 
L 72.51913 104.265771 
L 72.651774 105.794909 
L 72.917063 42.837436 
L 73.049707 36.833516 
L 73.182351 37.70608 
L 73.447639 42.85816 
L 73.845572 56.85896 
L 74.641437 113.342851 
L 74.774081 115.028548 
L 75.03937 48.939479 
L 75.172014 44.207573 
L 75.304658 44.775495 
L 75.569946 48.677735 
L 75.967879 59.177698 
L 76.763744 102.094649 
L 76.896388 103.283802 
L 77.161677 49.24726 
L 77.294321 44.003072 
L 77.426965 44.462168 
L 77.692253 48.137132 
L 78.090186 58.882523 
L 78.886051 104.90909 
L 79.018695 106.170632 
L 79.283983 43.720974 
L 79.416628 36.441638 
L 79.549272 37.088964 
L 79.81456 42.397358 
L 80.212493 57.29715 
L 81.008358 120.704348 
L 81.141002 122.436828 
L 81.40629 42.795192 
L 81.538935 35.92957 
L 81.671579 36.522603 
L 81.936867 41.419505 
L 82.3348 55.636787 
L 83.130665 115.755631 
L 83.263309 117.463515 
L 83.528597 44.280515 
L 83.661242 38.706956 
L 83.793886 39.373386 
L 84.059174 43.936357 
L 84.457107 56.722453 
L 85.252972 107.899286 
L 85.385616 109.313172 
L 85.650904 47.445821 
L 85.783549 42.277673 
L 85.916193 42.695174 
L 86.181481 46.371202 
L 86.579414 56.820405 
L 87.375279 101.452669 
L 87.507923 102.707885 
L 87.773211 44.55282 
L 87.905855 38.646001 
L 88.0385 39.355307 
L 88.303788 44.033633 
L 88.701721 56.7362 
L 89.497586 110.245976 
L 89.63023 111.785205 
L 89.895518 47.2557 
L 90.028162 42.152842 
L 90.160807 42.703906 
L 90.426095 46.637992 
L 90.824028 57.879134 
L 91.619893 103.557191 
L 91.752537 104.682303 
L 92.017825 47.249193 
L 92.150469 41.836132 
L 92.283114 42.188401 
L 92.548402 45.73939 
L 92.946335 56.566954 
L 93.7422 102.166649 
L 93.874844 103.183231 
L 94.140132 45.491245 
L 94.272776 40.746849 
L 94.405421 41.22455 
L 94.670709 44.884426 
L 95.068641 55.147987 
L 95.864507 97.207469 
L 95.997151 98.326261 
L 96.262439 44.788777 
L 96.395083 39.78844 
L 96.527727 40.356314 
L 96.793016 44.389319 
L 97.190948 55.97369 
L 97.986814 102.467822 
L 98.119458 103.922282 
L 98.384746 48.733834 
L 98.51739 44.361725 
L 98.650034 44.997647 
L 98.915323 48.556514 
L 99.313255 58.171915 
L 100.10912 98.86972 
L 100.241765 100.005708 
L 100.507053 44.556041 
L 100.639697 37.955818 
L 100.772341 38.701375 
L 101.03763 43.809168 
L 101.435562 57.875615 
L 102.231427 116.946324 
L 102.364072 118.601564 
L 102.62936 42.731942 
L 102.762004 35.590333 
L 102.894648 36.256059 
L 103.159937 41.581688 
L 103.557869 56.567285 
L 104.353734 120.181464 
L 104.486379 121.889521 
L 104.751667 45.239268 
L 104.884311 39.58601 
L 105.016955 40.139657 
L 105.282244 44.402283 
L 105.680176 56.609522 
L 106.476041 106.747623 
L 106.608686 108.087229 
L 106.873974 42.762755 
L 107.006618 36.087412 
L 107.139262 36.664485 
L 107.404551 41.573973 
L 107.802483 55.844818 
L 108.598348 114.837727 
L 108.730992 116.505905 
L 108.996281 42.844088 
L 109.128925 36.057185 
L 109.261569 36.724786 
L 109.526858 41.714301 
L 109.92479 56.120561 
L 110.720655 116.602282 
L 110.853299 118.374663 
L 111.118588 47.547164 
L 111.251232 42.828062 
L 111.383876 43.360634 
L 111.649165 47.110089 
L 112.047097 57.8143 
L 112.842962 100.746917 
L 112.975606 101.88992 
L 113.240895 43.752096 
L 113.373539 36.617719 
L 113.506183 37.204899 
L 113.771471 42.218313 
L 114.169404 57.166678 
L 114.965269 119.467083 
L 115.097913 121.168704 
L 115.363202 43.731978 
L 115.495846 37.005437 
L 115.62849 37.473351 
L 115.893778 42.139384 
L 116.291711 55.677705 
L 117.087576 113.334555 
L 117.22022 114.842358 
L 117.485509 39.651066 
L 117.618153 32.289125 
L 117.750797 32.925086 
L 118.016085 38.24634 
L 118.414018 53.684466 
L 119.209883 118.149253 
L 119.342527 120.0178 
L 119.607816 42.009724 
L 119.74046 35.909303 
L 119.873104 36.398061 
L 120.138392 40.848147 
L 120.536325 53.778037 
L 121.33219 108.282181 
L 121.464834 110.018883 
L 121.730123 43.057488 
L 121.862767 37.098314 
L 121.995411 37.881982 
L 122.260699 42.805235 
L 122.658632 56.273509 
L 123.454497 111.905305 
L 123.587141 113.523877 
L 123.85243 48.114017 
L 123.985074 43.31444 
L 124.117718 43.850375 
L 124.383006 47.596278 
L 124.780939 57.750886 
L 125.576804 100.123164 
L 125.709448 101.28137 
L 125.974736 44.424793 
L 126.107381 38.447135 
L 126.240025 38.998293 
L 126.505313 43.444035 
L 126.903246 55.631035 
L 127.699111 108.158876 
L 127.831755 109.575001 
L 128.097043 45.646211 
L 128.229688 40.892364 
L 128.362332 41.20078 
L 128.62762 44.464938 
L 129.025553 53.926422 
L 129.821418 94.946898 
L 129.954062 96.116881 
L 130.21935 42.889672 
L 130.351995 38.009239 
L 130.484639 38.626928 
L 130.749927 42.702518 
L 131.14786 53.788752 
L 131.943725 97.999024 
L 132.076369 99.275085 
L 132.341657 40.640387 
L 132.474301 34.065818 
L 132.606946 34.663471 
L 132.872234 39.921614 
L 133.270167 54.464136 
L 134.066032 113.954379 
L 134.198676 115.769481 
L 134.463964 41.830857 
L 134.596608 35.175854 
L 134.729253 36.09013 
L 134.994541 41.566967 
L 135.392474 56.198134 
L 136.188339 117.539063 
L 136.320983 119.420662 
L 136.586271 44.612151 
L 136.718915 38.28653 
L 136.85156 38.919394 
L 137.116848 43.677584 
L 137.514781 57.406857 
L 138.310646 114.638178 
L 138.44329 116.12079 
L 138.708578 46.114155 
L 138.841222 40.345024 
L 138.973867 40.532388 
L 139.239155 44.152086 
L 139.637087 55.272931 
L 140.432953 103.245468 
L 140.565597 104.529771 
L 140.830885 41.066193 
L 140.963529 34.692589 
L 141.096173 35.230677 
L 141.361462 39.927502 
L 141.759394 53.119818 
L 142.55526 108.091027 
L 142.687904 109.67528 
L 142.953192 41.241725 
L 143.085836 35.697068 
L 143.21848 36.465153 
L 143.483769 41.204929 
L 143.881701 54.348706 
L 144.677566 106.279139 
L 144.810211 107.698126 
L 145.075499 45.691496 
L 145.208143 40.940378 
L 145.340787 41.462272 
L 145.606076 45.319089 
L 146.004008 55.7484 
L 146.799873 98.198778 
L 146.932518 99.415268 
L 147.197806 40.424876 
L 147.33045 33.253711 
L 147.463094 34.08916 
L 147.728383 39.934708 
L 148.126315 55.954849 
L 148.92218 120.526327 
L 149.054825 122.299453 
L 149.320113 42.352588 
L 149.452757 35.540563 
L 149.585401 35.978184 
L 149.85069 40.602394 
L 150.248622 54.478154 
L 151.044487 113.216028 
L 151.177132 114.876992 
L 151.44242 39.688207 
L 151.575064 32.380337 
L 151.707708 33.209386 
L 151.972997 38.830028 
L 152.370929 54.51766 
L 153.166794 119.904796 
L 153.299438 121.760219 
L 153.564727 44.058433 
L 153.697371 38.8676 
L 153.830015 39.533236 
L 154.095304 43.837326 
L 154.493236 55.487074 
L 155.289101 103.155181 
L 155.421745 104.4296 
L 155.687034 46.173525 
L 155.819678 41.606602 
L 155.952322 42.02647 
L 156.217611 45.36304 
L 156.615543 55.121988 
L 157.411408 96.178975 
L 157.544052 97.399252 
L 157.809341 41.944015 
L 157.941985 35.202224 
L 158.074629 35.946293 
L 158.339917 41.224217 
L 158.73785 56.087069 
L 159.533715 116.599809 
L 159.666359 118.359397 
L 159.931648 41.631801 
L 160.064292 34.275464 
L 160.196936 34.967189 
L 160.462224 40.616966 
L 160.860157 56.270624 
L 161.656022 121.767745 
L 161.788666 123.591432 
L 162.053955 46.30884 
L 162.186599 41.124638 
L 162.319243 41.589539 
L 162.584531 45.345732 
L 162.982464 55.999185 
L 163.778329 100.738381 
L 163.910973 102.046132 
L 164.176262 40.455794 
L 164.308906 33.277677 
L 164.44155 34.121629 
L 164.706838 39.797658 
L 165.104771 55.599614 
L 165.900636 121.084543 
L 166.03328 123.037048 
L 166.298569 42.227388 
L 166.431213 35.451645 
L 166.563857 36.126151 
L 166.829145 41.195382 
L 167.227078 55.80032 
L 168.022943 116.436797 
L 168.155587 118.257906 
L 168.420876 47.105672 
L 168.55352 42.324942 
L 168.686164 43.021292 
L 168.951452 46.99013 
L 169.349385 57.690477 
L 170.14525 102.001254 
L 170.277894 103.317668 
L 170.543182 46.554047 
L 170.675827 41.177838 
L 170.808471 41.791822 
L 171.073759 45.982484 
L 171.471692 57.908231 
L 172.267557 106.801637 
L 172.400201 108.082336 
L 172.665489 47.213895 
L 172.798134 41.960014 
L 172.930778 42.320355 
L 173.196066 45.862767 
L 173.593999 56.553699 
L 174.389864 102.946865 
L 174.522508 104.143695 
L 174.787796 40.570427 
L 174.920441 33.056607 
L 175.053085 33.561618 
L 175.318373 38.845592 
L 175.716306 54.384869 
L 176.512171 119.983221 
L 176.644815 121.847139 
L 176.910103 42.09126 
L 177.042748 35.928553 
L 177.175392 36.647347 
L 177.44068 41.575612 
L 177.838613 55.036662 
L 178.634478 110.723078 
L 178.767122 112.379497 
L 179.03241 41.440548 
L 179.165054 34.431085 
L 179.297699 35.218377 
L 179.562987 40.832879 
L 179.96092 56.244696 
L 180.756785 119.689214 
L 180.889429 121.651944 
L 181.154717 42.368961 
L 181.287361 35.211143 
L 181.420006 36.078738 
L 181.685294 41.993894 
L 182.083227 57.809767 
L 182.879092 122.046933 
L 183.011736 123.777764 
L 183.277024 42.179271 
L 183.409668 34.810903 
L 183.542313 35.551937 
L 183.807601 41.11424 
L 184.205533 56.794803 
L 185.001399 122.676331 
L 185.134043 124.472727 
L 185.399331 45.504049 
L 185.531975 39.683718 
L 185.664619 40.194493 
L 185.929908 44.557329 
L 186.32784 56.516959 
L 187.123706 107.013743 
L 187.25635 108.287522 
L 187.521638 41.765343 
L 187.654282 34.735766 
L 187.786926 35.385422 
L 188.052215 40.440959 
L 188.450147 54.931059 
L 189.246012 115.98389 
L 189.378657 117.454959 
L 189.643945 40.183558 
L 189.776589 33.209858 
L 189.909233 33.854896 
L 190.174522 39.068159 
L 190.572454 54.15655 
L 191.368319 115.929319 
L 191.500964 117.677024 
L 191.766252 40.25107 
L 191.898896 33.299068 
L 192.03154 34.256424 
L 192.296829 40.205717 
L 192.694761 56.381203 
L 193.490626 120.604837 
L 193.623271 122.472706 
L 193.888559 44.381998 
L 194.021203 38.099708 
L 194.153847 38.900848 
L 194.419136 44.027298 
L 194.684424 52.763014 
L 194.684424 52.763014 
" clip-path="url(#pa0332da4bd)" style="fill: none; stroke: #808080; stroke-width: 0.7; stroke-linecap: square"/>
   </g>
   <g id="line2d_9">
    <path d="M 62.172884 56.137925 
L 63.366681 57.725873 
L 64.427835 58.92797 
L 65.621632 58.309823 
L 66.417498 57.362143 
L 66.682786 57.198866 
L 67.213363 56.713552 
L 67.478651 56.378063 
L 68.805093 54.714009 
L 69.33567 54.3878 
L 69.468314 54.370957 
L 69.733602 54.157511 
L 70.529467 54.193297 
L 71.192688 54.817064 
L 73.182351 57.469075 
L 73.978216 58.60622 
L 74.641437 59.223139 
L 75.835235 60.346692 
L 76.100523 60.534775 
L 76.763744 61.074555 
L 77.029032 61.088898 
L 77.559609 60.646765 
L 78.620763 60.018551 
L 79.151339 60.138445 
L 79.549272 59.882287 
L 79.81456 59.719998 
L 80.875714 58.344405 
L 81.804223 57.906894 
L 82.3348 57.407414 
L 82.732732 57.25688 
L 83.130665 56.895029 
L 83.395953 57.029631 
L 83.92653 57.383975 
L 84.987683 58.663075 
L 85.650904 58.813708 
L 86.048837 58.498348 
L 86.446769 58.238091 
L 86.977346 57.906499 
L 87.507923 57.942245 
L 87.905855 58.115056 
L 88.303788 58.380038 
L 89.364942 58.451734 
L 89.895518 58.723513 
L 90.293451 58.708541 
L 91.487248 59.646396 
L 91.619893 59.654763 
L 92.150469 58.976702 
L 93.609555 56.943591 
L 94.007488 56.225801 
L 94.405421 56.170417 
L 95.599218 56.454438 
L 95.864507 56.279154 
L 96.129795 56.255264 
L 96.660372 56.519369 
L 96.92566 56.819356 
L 97.588881 57.881397 
L 98.119458 58.57688 
L 98.650034 59.324111 
L 99.047967 59.41364 
L 99.313255 59.352083 
L 99.976476 59.509474 
L 100.241765 59.650576 
L 101.03763 59.930608 
L 101.302918 59.791151 
L 101.966139 59.092303 
L 102.364072 58.848913 
L 102.762004 58.901743 
L 103.292581 58.684289 
L 103.690513 58.377322 
L 104.353734 58.285391 
L 105.149599 57.993396 
L 105.414888 58.072696 
L 105.680176 58.081568 
L 106.078109 57.734932 
L 106.74133 57.746743 
L 107.271906 57.338756 
L 107.537195 57.422993 
L 108.730992 58.053206 
L 108.863637 58.009736 
L 108.996281 58.090617 
L 109.792146 57.855599 
L 110.190078 57.993258 
L 110.588011 58.178489 
L 111.118588 58.280424 
L 111.51652 58.440124 
L 111.781809 58.633309 
L 112.312385 59.274341 
L 112.577674 59.526468 
L 112.842962 59.656593 
L 113.373539 59.451529 
L 114.03676 58.988925 
L 114.699981 58.904656 
L 115.097913 58.805278 
L 115.893778 57.896766 
L 116.954932 56.702796 
L 118.14873 55.542983 
L 118.414018 55.572357 
L 119.209883 55.390474 
L 119.607816 55.589066 
L 120.138392 55.275622 
L 120.403681 55.307074 
L 120.668969 55.419012 
L 121.33219 56.296154 
L 121.862767 57.082022 
L 122.393343 57.696454 
L 122.658632 57.869657 
L 123.321853 58.77579 
L 124.51565 59.304994 
L 124.913583 58.881783 
L 125.44416 58.054927 
L 125.709448 57.839408 
L 126.372669 57.803061 
L 126.637957 57.606789 
L 127.168534 56.873934 
L 128.362332 56.109341 
L 128.892909 55.36189 
L 129.688774 54.144697 
L 130.351995 54.048062 
L 130.882571 54.718006 
L 131.14786 55.069812 
L 132.872234 55.8024 
L 133.137522 56.142829 
L 133.800743 56.456578 
L 134.463964 57.193645 
L 134.729253 57.567211 
L 134.994541 57.889278 
L 135.790406 58.125622 
L 136.188339 58.725433 
L 136.586271 59.148091 
L 136.85156 59.240547 
L 137.514781 59.080847 
L 137.647425 59.12909 
L 138.045357 58.992609 
L 138.575934 58.737561 
L 138.841222 58.347264 
L 139.371799 57.181401 
L 140.565597 55.362269 
L 141.228818 54.925351 
L 141.62675 54.823901 
L 141.892039 54.588015 
L 142.422615 54.118846 
L 142.687904 54.088605 
L 142.953192 54.228131 
L 143.616413 55.320535 
L 144.14699 56.188025 
L 144.677566 56.563058 
L 145.340787 56.617127 
L 145.73872 56.89732 
L 146.269297 56.984589 
L 146.534585 56.774621 
L 146.932518 56.726706 
L 147.33045 56.973346 
L 147.861027 57.564914 
L 148.126315 57.849394 
L 148.524248 57.831353 
L 149.187469 57.444556 
L 150.115978 56.184895 
L 150.911843 56.215252 
L 151.177132 56.170387 
L 151.575064 56.392492 
L 151.840352 56.546767 
L 152.503573 56.369773 
L 153.03415 56.060531 
L 153.299438 56.178507 
L 153.564727 56.22614 
L 153.962659 56.700105 
L 154.493236 56.888335 
L 154.891169 56.648567 
L 155.156457 56.649724 
L 155.819678 56.379203 
L 156.615543 56.301911 
L 157.278764 56.835748 
L 157.809341 57.212436 
L 158.074629 57.29145 
L 159.135783 58.17595 
L 159.401071 58.111484 
L 160.594869 58.339571 
L 161.390734 57.798057 
L 162.451887 57.545542 
L 163.115108 57.202692 
L 163.645685 56.88391 
L 165.104771 57.513614 
L 165.635348 57.434703 
L 165.900636 57.45778 
L 166.165924 57.584812 
L 166.563857 57.496284 
L 166.961789 57.456276 
L 167.227078 57.560725 
L 167.492366 57.582372 
L 168.022943 57.916036 
L 169.216741 59.135733 
L 169.482029 58.933686 
L 170.14525 58.798863 
L 170.941115 59.182344 
L 171.206403 59.203535 
L 171.604336 59.421147 
L 172.134913 59.327127 
L 172.930778 58.877434 
L 173.991931 57.625451 
L 174.389864 57.606352 
L 174.920441 57.105042 
L 175.318373 56.566463 
L 175.84895 56.165445 
L 176.114238 55.983779 
L 176.379527 55.983638 
L 176.644815 56.166344 
L 177.042748 56.092291 
L 177.838613 56.64719 
L 178.103901 56.785641 
L 180.093564 58.168229 
L 180.62414 58.17414 
L 182.083227 59.704099 
L 183.011736 59.002251 
L 183.940245 58.806829 
L 184.338178 58.702813 
L 184.73611 58.752689 
L 185.134043 58.657035 
L 185.797264 58.278436 
L 186.195196 58.133994 
L 186.593129 57.833001 
L 187.123706 57.614855 
L 187.654282 57.169723 
L 188.052215 56.972149 
L 188.84808 56.529143 
L 189.113368 56.512833 
L 189.246012 56.417613 
L 189.643945 55.79144 
L 190.041878 55.676399 
L 190.307166 55.710152 
L 190.837743 56.126437 
L 191.235675 56.104611 
L 191.766252 56.466481 
L 192.429473 57.729833 
L 192.827405 58.413949 
L 193.092694 58.530553 
L 193.888559 58.749656 
L 194.153847 58.986743 
L 194.684424 59.490711 
L 194.684424 59.490711 
" clip-path="url(#pa0332da4bd)" style="fill: none; stroke: #1e90ff; stroke-linecap: square"/>
   </g>
   <g id="line2d_10">
    <path d="M 62.172884 56.142088 
L 63.897258 58.129847 
L 64.693123 58.631503 
L 65.2237 58.557832 
L 65.488988 58.148685 
L 66.417498 57.254204 
L 67.346007 56.320406 
L 67.478651 56.389816 
L 69.070381 54.1439 
L 69.468314 53.955497 
L 69.600958 54.114936 
L 69.998891 54.064661 
L 70.794756 54.343016 
L 71.325332 54.86157 
L 71.590621 55.152271 
L 71.723265 55.139676 
L 72.651774 56.322486 
L 72.917063 56.981933 
L 73.845572 58.343232 
L 75.437302 59.856191 
L 76.763744 60.604545 
L 77.294321 60.554702 
L 77.692253 60.403686 
L 78.488118 60.076945 
L 78.753407 60.029557 
L 79.018695 59.914337 
L 79.151339 60.049971 
L 79.81456 59.464192 
L 80.079849 59.199948 
L 80.345137 59.153025 
L 81.273646 58.308276 
L 82.600088 57.211274 
L 83.528597 57.186705 
L 84.191818 57.545444 
L 84.324463 57.618623 
L 84.589751 57.947819 
L 85.385616 58.293364 
L 85.51826 58.558659 
L 85.916193 58.527311 
L 86.181481 58.396418 
L 86.446769 58.328124 
L 86.579414 57.949937 
L 87.507923 57.960428 
L 87.905855 58.010235 
L 88.569076 58.045228 
L 88.967009 58.266956 
L 89.63023 58.598668 
L 90.028162 58.79021 
L 90.691383 58.90907 
L 90.824028 59.120327 
L 92.017825 58.873685 
L 92.81369 58.085665 
L 93.078979 57.536935 
L 94.140132 56.125409 
L 94.803353 55.862008 
L 94.935997 55.827105 
L 95.068641 56.143681 
L 95.599218 56.212592 
L 96.395083 56.37138 
L 97.058304 56.837432 
L 97.323593 57.384167 
L 98.119458 58.382834 
L 98.384746 58.764962 
L 99.180611 59.206367 
L 99.313255 59.152909 
L 100.10912 59.497531 
L 100.904986 59.547588 
L 101.302918 59.426782 
L 101.435562 59.752604 
L 101.833495 59.704325 
L 102.364072 59.342981 
L 102.62936 58.740794 
L 103.425225 58.273259 
L 103.557869 58.374871 
L 105.414888 57.836786 
L 107.935127 57.489603 
L 108.730992 57.768639 
L 108.996281 57.973123 
L 109.792146 57.984683 
L 109.92479 57.725247 
L 110.853299 58.072357 
L 111.251232 58.310722 
L 111.914453 58.59094 
L 112.179741 58.898804 
L 113.108251 59.481143 
L 113.638827 59.292001 
L 114.434692 58.911234 
L 115.495846 58.297396 
L 116.159067 57.53323 
L 116.424355 57.118357 
L 117.750797 55.769209 
L 118.14873 55.486881 
L 118.281374 55.436272 
L 118.546662 55.159005 
L 119.077239 55.182512 
L 119.342527 55.25977 
L 119.475171 55.693401 
L 119.873104 55.662259 
L 120.138392 55.54867 
L 120.403681 55.554362 
L 120.536325 55.262205 
L 120.934257 55.630124 
L 121.33219 56.22549 
L 122.658632 57.832679 
L 124.117718 58.877309 
L 124.648295 58.953185 
L 125.709448 58.049392 
L 126.107381 57.630967 
L 126.770602 57.081427 
L 126.903246 57.107774 
L 127.831755 55.941387 
L 127.964399 56.05815 
L 130.086706 54.120058 
L 130.484639 54.172126 
L 130.882571 54.443009 
L 131.14786 54.657778 
L 131.545792 54.846288 
L 131.811081 54.942997 
L 133.800743 56.461199 
L 134.729253 57.261161 
L 134.994541 57.620383 
L 136.85156 59.059002 
L 137.116848 59.120872 
L 137.382136 59.085825 
L 138.44329 58.332418 
L 138.575934 58.452773 
L 139.371799 57.246667 
L 139.504443 57.058709 
L 139.769732 56.389452 
L 140.963529 54.707901 
L 141.494106 54.315155 
L 141.62675 54.242525 
L 141.759394 54.453289 
L 142.289971 54.311092 
L 142.687904 54.312647 
L 142.820548 54.112398 
L 143.21848 54.462272 
L 143.616413 55.006938 
L 143.749057 55.158804 
L 143.881701 55.647074 
L 145.208143 56.209706 
L 145.871364 56.746307 
L 146.932518 56.76068 
L 147.065162 56.561444 
L 147.595739 56.964752 
L 147.993671 57.223819 
L 148.126315 57.739011 
L 148.524248 57.653556 
L 148.789536 57.447518 
L 149.054825 57.335227 
L 150.513911 55.995352 
L 151.177132 55.930011 
L 151.44242 56.056012 
L 152.105641 56.181013 
L 152.503573 56.219398 
L 153.166794 56.001286 
L 153.299438 55.973565 
L 153.697371 56.222554 
L 154.62588 56.575709 
L 156.217611 56.131585 
L 156.482899 56.153801 
L 156.615543 56.054471 
L 159.003138 57.833898 
L 159.799004 58.067817 
L 160.594869 58.147288 
L 160.727513 58.14089 
L 160.860157 57.937996 
L 161.25809 57.937079 
L 161.92131 57.660757 
L 163.115108 57.067358 
L 164.44155 56.963263 
L 165.502703 57.484731 
L 166.03328 57.49672 
L 167.094434 57.468669 
L 167.227078 57.357742 
L 167.62501 57.588848 
L 168.022943 57.934721 
L 169.614673 58.839379 
L 171.339048 58.913135 
L 171.471692 59.193732 
L 172.798134 58.673105 
L 173.461355 58.080174 
L 173.726643 57.731134 
L 175.583661 56.264578 
L 175.84895 55.982804 
L 176.644815 55.85913 
L 176.910103 56.039234 
L 177.573324 56.296444 
L 178.103901 56.659801 
L 178.767122 57.093899 
L 178.899766 57.017972 
L 180.358852 58.23717 
L 181.950582 59.306582 
L 182.083227 59.540871 
L 182.481159 59.498571 
L 182.879092 59.301212 
L 183.011736 59.250829 
L 183.277024 58.997149 
L 185.134043 58.332755 
L 185.399331 58.330887 
L 186.460485 57.633062 
L 187.25635 57.17655 
L 187.388994 57.36814 
L 187.786926 57.069894 
L 188.052215 56.792884 
L 189.511301 55.846665 
L 190.705099 55.732575 
L 191.103031 55.918727 
L 191.898896 56.607316 
L 192.562117 57.636977 
L 192.827405 58.113105 
L 193.623271 58.724019 
L 193.755915 58.499119 
L 194.684424 59.257877 
L 194.684424 59.257877 
" clip-path="url(#pa0332da4bd)" style="fill: none; stroke: #ff0000; stroke-width: 0.8; stroke-linecap: square"/>
   </g>
   <g id="patch_3">
    <path d="M 59.52 129.12 
L 59.52 26.88 
" style="fill: none; stroke: #000000; stroke-width: 0.8; stroke-linejoin: miter; stroke-linecap: square"/>
   </g>
   <g id="patch_4">
    <path d="M 197.469952 129.12 
L 197.469952 26.88 
" style="fill: none; stroke: #000000; stroke-width: 0.8; stroke-linejoin: miter; stroke-linecap: square"/>
   </g>
   <g id="patch_5">
    <path d="M 59.52 129.12 
L 197.469952 129.12 
" style="fill: none; stroke: #000000; stroke-width: 0.8; stroke-linejoin: miter; stroke-linecap: square"/>
   </g>
   <g id="patch_6">
    <path d="M 59.52 26.88 
L 197.469952 26.88 
" style="fill: none; stroke: #000000; stroke-width: 0.8; stroke-linejoin: miter; stroke-linecap: square"/>
   </g>
   <g id="text_10">
    <!-- Time Domain Plot -->
    <g transform="translate(75.410913 20.88) scale(0.12 -0.12)">
     <defs>
      <path id="DejaVuSans-44" d="M 1259 4147 
L 1259 519 
L 2022 519 
Q 2988 519 3436 956 
Q 3884 1394 3884 2338 
Q 3884 3275 3436 3711 
Q 2988 4147 2022 4147 
L 1259 4147 
z
M 628 4666 
L 1925 4666 
Q 3281 4666 3915 4102 
Q 4550 3538 4550 2338 
Q 4550 1131 3912 565 
Q 3275 0 1925 0 
L 628 0 
L 628 4666 
z
" transform="scale(0.015625)"/>
      <path id="DejaVuSans-6f" d="M 1959 3097 
Q 1497 3097 1228 2736 
Q 959 2375 959 1747 
Q 959 1119 1226 758 
Q 1494 397 1959 397 
Q 2419 397 2687 759 
Q 2956 1122 2956 1747 
Q 2956 2369 2687 2733 
Q 2419 3097 1959 3097 
z
M 1959 3584 
Q 2709 3584 3137 3096 
Q 3566 2609 3566 1747 
Q 3566 888 3137 398 
Q 2709 -91 1959 -91 
Q 1206 -91 779 398 
Q 353 888 353 1747 
Q 353 2609 779 3096 
Q 1206 3584 1959 3584 
z
" transform="scale(0.015625)"/>
      <path id="DejaVuSans-61" d="M 2194 1759 
Q 1497 1759 1228 1600 
Q 959 1441 959 1056 
Q 959 750 1161 570 
Q 1363 391 1709 391 
Q 2188 391 2477 730 
Q 2766 1069 2766 1631 
L 2766 1759 
L 2194 1759 
z
M 3341 1997 
L 3341 0 
L 2766 0 
L 2766 531 
Q 2569 213 2275 61 
Q 1981 -91 1556 -91 
Q 1019 -91 701 211 
Q 384 513 384 1019 
Q 384 1609 779 1909 
Q 1175 2209 1959 2209 
L 2766 2209 
L 2766 2266 
Q 2766 2663 2505 2880 
Q 2244 3097 1772 3097 
Q 1472 3097 1187 3025 
Q 903 2953 641 2809 
L 641 3341 
Q 956 3463 1253 3523 
Q 1550 3584 1831 3584 
Q 2591 3584 2966 3190 
Q 3341 2797 3341 1997 
z
" transform="scale(0.015625)"/>
      <path id="DejaVuSans-6e" d="M 3513 2113 
L 3513 0 
L 2938 0 
L 2938 2094 
Q 2938 2591 2744 2837 
Q 2550 3084 2163 3084 
Q 1697 3084 1428 2787 
Q 1159 2491 1159 1978 
L 1159 0 
L 581 0 
L 581 3500 
L 1159 3500 
L 1159 2956 
Q 1366 3272 1645 3428 
Q 1925 3584 2291 3584 
Q 2894 3584 3203 3211 
Q 3513 2838 3513 2113 
z
" transform="scale(0.015625)"/>
      <path id="DejaVuSans-50" d="M 1259 4147 
L 1259 2394 
L 2053 2394 
Q 2494 2394 2734 2622 
Q 2975 2850 2975 3272 
Q 2975 3691 2734 3919 
Q 2494 4147 2053 4147 
L 1259 4147 
z
M 628 4666 
L 2053 4666 
Q 2838 4666 3239 4311 
Q 3641 3956 3641 3272 
Q 3641 2581 3239 2228 
Q 2838 1875 2053 1875 
L 1259 1875 
L 1259 0 
L 628 0 
L 628 4666 
z
" transform="scale(0.015625)"/>
     </defs>
     <use xlink:href="#DejaVuSans-54"/>
     <use xlink:href="#DejaVuSans-69" x="57.958984"/>
     <use xlink:href="#DejaVuSans-6d" x="85.742188"/>
     <use xlink:href="#DejaVuSans-65" x="183.154297"/>
     <use xlink:href="#DejaVuSans-20" x="244.677734"/>
     <use xlink:href="#DejaVuSans-44" x="276.464844"/>
     <use xlink:href="#DejaVuSans-6f" x="353.466797"/>
     <use xlink:href="#DejaVuSans-6d" x="414.648438"/>
     <use xlink:href="#DejaVuSans-61" x="512.060547"/>
     <use xlink:href="#DejaVuSans-69" x="573.339844"/>
     <use xlink:href="#DejaVuSans-6e" x="601.123047"/>
     <use xlink:href="#DejaVuSans-20" x="664.501953"/>
     <use xlink:href="#DejaVuSans-50" x="696.289062"/>
     <use xlink:href="#DejaVuSans-6c" x="756.591797"/>
     <use xlink:href="#DejaVuSans-6f" x="784.375"/>
     <use xlink:href="#DejaVuSans-74" x="845.556641"/>
    </g>
   </g>
   <g id="patch_7">
    <path d="M 140.439585 58.583982 
L 169.475397 58.583982 
L 169.475397 53.835391 
L 140.439585 53.835391 
L 140.439585 58.583982 
z
" clip-path="url(#pa0332da4bd)" style="fill: none; opacity: 0.8; stroke: #000000; stroke-width: 1.2; stroke-linejoin: miter"/>
   </g>
   <g id="patch_8">
    <path d="M 100.904986 67.776 
Q 120.672285 60.805696 140.439585 53.835391 
" style="fill: none; opacity: 0.8; stroke: #000000; stroke-linecap: round"/>
   </g>
   <g id="patch_9">
    <path d="M 183.674957 67.776 
Q 176.575177 60.805696 169.475397 53.835391 
" style="fill: none; opacity: 0.8; stroke: #000000; stroke-linecap: round"/>
   </g>
   <g id="axes_2">
    <g id="patch_10">
     <path d="M 100.904986 108.672 
L 183.674957 108.672 
L 183.674957 67.776 
L 100.904986 67.776 
z
" style="fill: #ffffff"/>
    </g>
    <g id="matplotlib.axis_3">
     <g id="xtick_4">
      <g id="line2d_11">
       <g>
        <use xlink:href="#m65f20652a6" x="101.049112" y="108.672" style="stroke: #000000; stroke-width: 0.8"/>
       </g>
      </g>
      <g id="text_11">
       <!-- 1.3 -->
       <g transform="translate(93.09755 123.270437) scale(0.1 -0.1)">
        <defs>
         <path id="DejaVuSans-33" d="M 2597 2516 
Q 3050 2419 3304 2112 
Q 3559 1806 3559 1356 
Q 3559 666 3084 287 
Q 2609 -91 1734 -91 
Q 1441 -91 1130 -33 
Q 819 25 488 141 
L 488 750 
Q 750 597 1062 519 
Q 1375 441 1716 441 
Q 2309 441 2620 675 
Q 2931 909 2931 1356 
Q 2931 1769 2642 2001 
Q 2353 2234 1838 2234 
L 1294 2234 
L 1294 2753 
L 1863 2753 
Q 2328 2753 2575 2939 
Q 2822 3125 2822 3475 
Q 2822 3834 2567 4026 
Q 2313 4219 1838 4219 
Q 1578 4219 1281 4162 
Q 984 4106 628 3988 
L 628 4550 
Q 988 4650 1302 4700 
Q 1616 4750 1894 4750 
Q 2613 4750 3031 4423 
Q 3450 4097 3450 3541 
Q 3450 3153 3228 2886 
Q 3006 2619 2597 2516 
z
" transform="scale(0.015625)"/>
        </defs>
        <use xlink:href="#DejaVuSans-31"/>
        <use xlink:href="#DejaVuSans-2e" x="63.623047"/>
        <use xlink:href="#DejaVuSans-33" x="95.410156"/>
       </g>
      </g>
     </g>
     <g id="xtick_5">
      <g id="line2d_12">
       <g>
        <use xlink:href="#m65f20652a6" x="183.386703" y="108.672" style="stroke: #000000; stroke-width: 0.8"/>
       </g>
      </g>
      <g id="text_12">
       <!-- 1.4 -->
       <g transform="translate(175.435141 123.270437) scale(0.1 -0.1)">
        <use xlink:href="#DejaVuSans-31"/>
        <use xlink:href="#DejaVuSans-2e" x="63.623047"/>
        <use xlink:href="#DejaVuSans-34" x="95.410156"/>
       </g>
      </g>
     </g>
    </g>
    <g id="matplotlib.axis_4">
     <g id="ytick_5">
      <g id="line2d_13">
       <g>
        <use xlink:href="#m80f23470d9" x="100.904986" y="97.549114" style="stroke: #000000; stroke-width: 0.8"/>
       </g>
      </g>
      <g id="text_13">
       <!-- 0 -->
       <g transform="translate(87.542486 101.348332) scale(0.1 -0.1)">
        <use xlink:href="#DejaVuSans-30"/>
       </g>
      </g>
     </g>
     <g id="ytick_6">
      <g id="line2d_14">
       <g>
        <use xlink:href="#m80f23470d9" x="100.904986" y="73.565809" style="stroke: #000000; stroke-width: 0.8"/>
       </g>
      </g>
      <g id="text_14">
       <!-- 2 -->
       <g transform="translate(87.542486 77.365028) scale(0.1 -0.1)">
        <use xlink:href="#DejaVuSans-32"/>
       </g>
      </g>
     </g>
    </g>
    <g id="line2d_15">
     <path d="M 101.316776 75.97937 
L 102.552149 72.110543 
L 102.96394 71.213099 
L 103.787522 70.17433 
L 104.611104 70.931522 
L 105.022895 71.653578 
L 106.670058 78.128565 
L 107.49364 83.046989 
L 108.317222 86.997142 
L 109.552595 89.833226 
L 109.964385 90.252732 
L 110.376176 91.179007 
L 110.787967 91.144456 
L 111.199758 90.823535 
L 111.611549 90.91868 
L 112.435131 91.631147 
L 113.258713 93.466357 
L 114.082294 94.356473 
L 114.494085 94.80617 
L 114.905876 94.694854 
L 115.317667 94.703986 
L 115.729458 93.46918 
L 116.55304 92.593838 
L 116.964831 92.308833 
L 117.376622 92.547485 
L 117.788413 92.939807 
L 119.023785 95.566035 
L 119.435576 97.165297 
L 120.259158 99.556853 
L 120.670949 101.00126 
L 121.08274 101.935771 
L 121.906322 102.078769 
L 122.318112 101.784909 
L 122.729903 101.252515 
L 123.141694 100.134693 
L 123.553485 99.401549 
L 123.965276 99.153429 
L 124.377067 98.550381 
L 125.200649 95.129388 
L 126.436021 90.163394 
L 126.847812 88.5331 
L 127.259603 88.016688 
L 127.671394 88.101214 
L 128.906767 87.69923 
L 129.318558 87.796168 
L 129.730349 88.270537 
L 130.14214 87.667433 
L 130.55393 87.895363 
L 130.965721 88.315486 
L 131.377512 89.331912 
L 131.789303 89.752679 
L 132.201094 90.580862 
L 132.612885 91.042774 
L 133.024676 90.853766 
L 133.436467 90.866158 
L 134.671839 89.562697 
L 135.08363 88.911434 
L 135.907212 86.886184 
L 136.319003 86.976713 
L 136.730794 87.709103 
L 137.142585 87.963262 
L 137.554376 87.862599 
L 137.966167 88.361588 
L 138.377958 89.910281 
L 139.201539 92.325041 
L 140.436912 93.949401 
L 140.848703 93.899084 
L 141.672285 92.049181 
L 142.084076 91.894061 
L 142.495867 92.027299 
L 142.907658 91.903737 
L 144.14303 89.985141 
L 144.554821 89.976604 
L 146.201985 88.550334 
L 146.613776 87.978837 
L 147.437357 88.995209 
L 147.849148 89.675675 
L 149.084521 92.501296 
L 150.731685 96.191752 
L 151.143476 96.609315 
L 151.555266 96.644624 
L 151.967057 97.270056 
L 152.378848 98.176671 
L 152.790639 98.564695 
L 154.026012 101.902486 
L 154.849594 104.789336 
L 155.261385 104.666536 
L 155.673175 103.934724 
L 156.496757 104.428196 
L 156.908548 105.150648 
L 157.320339 105.472932 
L 157.73213 106.019494 
L 158.143921 106.226982 
L 158.555712 105.887761 
L 158.967503 106.27367 
L 159.379294 106.258478 
L 159.791084 106.034792 
L 160.202875 105.130196 
L 160.614666 104.821803 
L 161.438248 102.306689 
L 161.850039 101.646074 
L 162.673621 101.336624 
L 163.085412 101.623893 
L 163.497203 101.565041 
L 164.320784 101.076212 
L 164.732575 99.983419 
L 165.967948 98.996224 
L 166.379739 98.310761 
L 166.79153 98.058035 
L 167.203321 97.478563 
L 168.026902 95.657148 
L 168.850484 94.249264 
L 169.262275 93.862081 
L 170.085857 94.877437 
L 170.497648 95.046733 
L 170.909439 95.466948 
L 171.32123 96.847365 
L 171.733021 97.812607 
L 172.144811 98.42084 
L 172.968393 98.943374 
L 173.380184 99.567873 
L 174.615557 98.12378 
L 175.439139 98.467985 
L 175.85093 98.26151 
L 176.262721 98.660969 
L 176.674511 99.758059 
L 177.086302 99.723252 
L 177.498093 99.128376 
L 177.909884 98.945781 
L 178.321675 98.982952 
L 178.733466 98.824773 
L 179.145257 98.4823 
L 179.557048 98.648387 
L 179.968839 99.601372 
L 180.79242 99.355536 
L 181.616002 100.16651 
L 182.027793 100.690099 
L 183.263166 103.7136 
L 183.263166 103.7136 
" clip-path="url(#p7c1957676c)" style="fill: none; stroke: #1e90ff; stroke-linecap: square"/>
    </g>
    <g id="line2d_16">
     <path d="M 101.316776 73.536423 
L 102.140358 72.618883 
L 102.552149 72.385626 
L 103.787522 72.29486 
L 104.199313 72.360332 
L 104.611104 70.685786 
L 105.434685 72.515043 
L 105.846476 73.611546 
L 106.258267 75.583485 
L 107.49364 79.436174 
L 107.905431 83.519251 
L 109.552595 85.167113 
L 110.787967 87.059745 
L 111.199758 86.324646 
L 114.082294 92.711394 
L 116.964831 92.679589 
L 117.376622 92.831585 
L 117.788413 91.165511 
L 118.611994 92.533877 
L 119.023785 93.211659 
L 119.435576 94.538104 
L 120.670949 96.704511 
L 121.08274 101.012709 
L 121.906322 100.617347 
L 122.318112 100.298108 
L 122.729903 99.062411 
L 123.965276 97.636138 
L 124.377067 96.501755 
L 124.788858 95.765765 
L 125.61244 94.02804 
L 126.024231 92.220772 
L 127.259603 89.842536 
L 127.671394 86.942015 
L 128.494976 86.431659 
L 130.14214 85.807081 
L 130.55393 85.885256 
L 130.965721 86.852555 
L 132.201094 87.19715 
L 133.024676 87.859455 
L 133.436467 87.984224 
L 134.260049 88.727302 
L 135.08363 87.751535 
L 135.495421 87.273933 
L 136.319003 86.766206 
L 137.142585 86.249477 
L 137.554376 87.245887 
L 137.966167 87.520741 
L 138.377958 88.331601 
L 138.789748 88.840207 
L 139.201539 90.137188 
L 139.61333 90.556332 
L 140.025121 91.204715 
L 140.436912 91.618176 
L 140.848703 91.764851 
L 142.084076 90.480465 
L 142.907658 89.6559 
L 143.319448 89.514906 
L 143.731239 89.057432 
L 144.14303 88.011411 
L 145.378403 87.748355 
L 145.790194 87.534478 
L 146.201985 87.570889 
L 146.613776 87.798511 
L 147.025567 87.756669 
L 147.437357 86.926034 
L 147.849148 87.80903 
L 149.084521 89.358662 
L 150.319894 91.955968 
L 150.731685 93.596912 
L 151.967057 96.495788 
L 152.378848 96.727704 
L 153.614221 99.360931 
L 154.026012 100.786434 
L 154.437803 101.400024 
L 155.261385 102.287778 
L 155.673175 102.193939 
L 156.496757 103.007552 
L 157.73213 103.985345 
L 158.143921 104.014801 
L 159.379294 104.555853 
L 160.202875 104.373355 
L 160.614666 102.676686 
L 161.026457 102.867629 
L 161.438248 102.664242 
L 161.850039 102.669021 
L 162.26183 102.361762 
L 162.673621 102.405061 
L 163.497203 102.108586 
L 163.908993 100.358327 
L 165.144366 98.36423 
L 165.556157 98.219875 
L 165.967948 97.643887 
L 166.379739 96.784499 
L 166.79153 96.318126 
L 167.203321 95.627563 
L 168.026902 95.234536 
L 169.262275 94.661857 
L 169.674066 94.460597 
L 170.085857 94.401033 
L 170.497648 93.986404 
L 171.32123 94.316377 
L 171.733021 94.525656 
L 172.144811 95.12539 
L 173.380184 95.91805 
L 173.791975 98.25991 
L 174.615557 98.700264 
L 175.027348 98.886343 
L 175.439139 98.712825 
L 177.498093 99.006354 
L 178.321675 99.066941 
L 178.733466 98.894247 
L 179.557048 98.832962 
L 179.968839 98.752024 
L 180.38063 97.824417 
L 180.79242 98.336231 
L 181.616002 99.756998 
L 182.027793 101.237166 
L 183.263166 103.332983 
L 183.263166 103.332983 
" clip-path="url(#p7c1957676c)" style="fill: none; stroke: #ff0000; stroke-width: 0.8; stroke-linecap: square"/>
    </g>
    <g id="line2d_17">
     <path d="M 101.316776 62.385501 
L 101.860521 181 
M 104.526244 181 
L 104.611104 89.030944 
L 104.905402 -1 
M 107.126433 -1 
L 107.905431 72.661867 
L 108.429993 181 
M 111.124884 181 
L 111.199758 105.93207 
L 111.624685 -1 
M 113.28891 -1 
L 114.082294 51.908768 
L 114.494085 84.366572 
L 115.060185 181 
M 117.708028 181 
L 117.788413 115.868038 
L 118.08987 -1 
M 120.332601 -1 
L 121.08274 86.092968 
L 121.468176 181 
M 124.328375 181 
L 124.377067 119.328103 
L 124.714184 -1 
M 126.941185 -1 
L 127.671394 73.744352 
L 128.141592 181 
M 130.904499 181 
L 130.965721 111.526485 
L 131.25271 -1 
M 133.604978 -1 
L 134.260049 74.074715 
L 134.688407 181 
M 137.495361 181 
L 137.554376 104.820989 
L 137.92301 -1 
M 139.820837 -1 
L 140.436912 46.304503 
L 140.848703 82.181275 
L 141.375271 181 
M 144.06142 181 
L 144.14303 104.264863 
L 144.611951 -1 
M 146.228759 -1 
L 147.025567 48.328454 
L 147.437357 79.128304 
L 148.05377 181 
M 150.648687 181 
L 150.731685 117.47167 
L 151.060114 -1 
M 153.205219 -1 
L 154.026012 87.198629 
L 154.430822 181 
M 157.275443 181 
L 157.320339 128.756359 
L 157.649281 -1 
M 159.822515 -1 
L 160.614666 88.733574 
L 160.988953 181 
M 163.859835 181 
L 163.908993 117.193592 
L 164.38186 -1 
M 165.994328 -1 
L 166.79153 53.271367 
L 167.203321 86.463718 
L 167.738576 181 
M 170.424466 181 
L 170.497648 118.210428 
L 170.801185 -1 
M 173.058126 -1 
L 173.791975 83.122369 
L 174.187255 181 
M 177.039354 181 
L 177.086302 121.028078 
L 177.42191 -1 
M 179.570436 -1 
L 180.38063 84.800741 
L 180.800541 181 
L 180.800541 181 
" clip-path="url(#p7c1957676c)" style="fill: none; stroke: #808080; stroke-width: 0.2; stroke-linecap: square"/>
    </g>
    <g id="patch_11">
     <path d="M 100.904986 108.672 
L 100.904986 67.776 
" style="fill: none; stroke: #000000; stroke-width: 0.8; stroke-linejoin: miter; stroke-linecap: square"/>
    </g>
    <g id="patch_12">
     <path d="M 183.674957 108.672 
L 183.674957 67.776 
" style="fill: none; stroke: #000000; stroke-width: 0.8; stroke-linejoin: miter; stroke-linecap: square"/>
    </g>
    <g id="patch_13">
     <path d="M 100.904986 108.672 
L 183.674957 108.672 
" style="fill: none; stroke: #000000; stroke-width: 0.8; stroke-linejoin: miter; stroke-linecap: square"/>
    </g>
    <g id="patch_14">
     <path d="M 100.904986 67.776 
L 183.674957 67.776 
" style="fill: none; stroke: #000000; stroke-width: 0.8; stroke-linejoin: miter; stroke-linecap: square"/>
    </g>
   </g>
   <g id="legend_1">
    <g id="patch_15">
     <path d="M 20.235014 158.292 
L 51.103139 158.292 
Q 51.703139 158.292 51.703139 157.692 
L 51.703139 144.781688 
Q 51.703139 144.181688 51.103139 144.181688 
L 20.235014 144.181688 
Q 19.635014 144.181688 19.635014 144.781688 
L 19.635014 157.692 
Q 19.635014 158.292 20.235014 158.292 
z
" style="fill: #ffffff; opacity: 0.8; stroke: #cccccc; stroke-linejoin: miter"/>
    </g>
    <g id="line2d_18">
     <path d="M 20.835014 146.611219 
L 23.835014 146.611219 
L 26.835014 146.611219 
" style="fill: none; stroke: #808080; stroke-width: 0.7; stroke-linecap: square"/>
    </g>
    <g id="text_15">
     <!-- Contaminated -->
     <g transform="translate(29.235014 147.661219) scale(0.03 -0.03)">
      <defs>
       <path id="DejaVuSans-43" d="M 4122 4306 
L 4122 3641 
Q 3803 3938 3442 4084 
Q 3081 4231 2675 4231 
Q 1875 4231 1450 3742 
Q 1025 3253 1025 2328 
Q 1025 1406 1450 917 
Q 1875 428 2675 428 
Q 3081 428 3442 575 
Q 3803 722 4122 1019 
L 4122 359 
Q 3791 134 3420 21 
Q 3050 -91 2638 -91 
Q 1578 -91 968 557 
Q 359 1206 359 2328 
Q 359 3453 968 4101 
Q 1578 4750 2638 4750 
Q 3056 4750 3426 4639 
Q 3797 4528 4122 4306 
z
" transform="scale(0.015625)"/>
      </defs>
      <use xlink:href="#DejaVuSans-43"/>
      <use xlink:href="#DejaVuSans-6f" x="69.824219"/>
      <use xlink:href="#DejaVuSans-6e" x="131.005859"/>
      <use xlink:href="#DejaVuSans-74" x="194.384766"/>
      <use xlink:href="#DejaVuSans-61" x="233.59375"/>
      <use xlink:href="#DejaVuSans-6d" x="294.873047"/>
      <use xlink:href="#DejaVuSans-69" x="392.285156"/>
      <use xlink:href="#DejaVuSans-6e" x="420.068359"/>
      <use xlink:href="#DejaVuSans-61" x="483.447266"/>
      <use xlink:href="#DejaVuSans-74" x="544.726562"/>
      <use xlink:href="#DejaVuSans-65" x="583.935547"/>
      <use xlink:href="#DejaVuSans-64" x="645.458984"/>
     </g>
    </g>
    <g id="line2d_19">
     <path d="M 20.835014 151.014656 
L 23.835014 151.014656 
L 26.835014 151.014656 
" style="fill: none; stroke: #1e90ff; stroke-linecap: square"/>
    </g>
    <g id="text_16">
     <!-- Clean -->
     <g transform="translate(29.235014 152.064656) scale(0.03 -0.03)">
      <use xlink:href="#DejaVuSans-43"/>
      <use xlink:href="#DejaVuSans-6c" x="69.824219"/>
      <use xlink:href="#DejaVuSans-65" x="97.607422"/>
      <use xlink:href="#DejaVuSans-61" x="159.130859"/>
      <use xlink:href="#DejaVuSans-6e" x="220.410156"/>
     </g>
    </g>
    <g id="line2d_20">
     <path d="M 20.835014 155.418094 
L 23.835014 155.418094 
L 26.835014 155.418094 
" style="fill: none; stroke: #ff0000; stroke-width: 0.8; stroke-linecap: square"/>
    </g>
    <g id="text_17">
     <!-- SACed -->
     <g transform="translate(29.235014 156.468094) scale(0.03 -0.03)">
      <defs>
       <path id="DejaVuSans-53" d="M 3425 4513 
L 3425 3897 
Q 3066 4069 2747 4153 
Q 2428 4238 2131 4238 
Q 1616 4238 1336 4038 
Q 1056 3838 1056 3469 
Q 1056 3159 1242 3001 
Q 1428 2844 1947 2747 
L 2328 2669 
Q 3034 2534 3370 2195 
Q 3706 1856 3706 1288 
Q 3706 609 3251 259 
Q 2797 -91 1919 -91 
Q 1588 -91 1214 -16 
Q 841 59 441 206 
L 441 856 
Q 825 641 1194 531 
Q 1563 422 1919 422 
Q 2459 422 2753 634 
Q 3047 847 3047 1241 
Q 3047 1584 2836 1778 
Q 2625 1972 2144 2069 
L 1759 2144 
Q 1053 2284 737 2584 
Q 422 2884 422 3419 
Q 422 4038 858 4394 
Q 1294 4750 2059 4750 
Q 2388 4750 2728 4690 
Q 3069 4631 3425 4513 
z
" transform="scale(0.015625)"/>
      </defs>
      <use xlink:href="#DejaVuSans-53"/>
      <use xlink:href="#DejaVuSans-41" x="65.351562"/>
      <use xlink:href="#DejaVuSans-43" x="132.009766"/>
      <use xlink:href="#DejaVuSans-65" x="201.833984"/>
      <use xlink:href="#DejaVuSans-64" x="263.357422"/>
     </g>
    </g>
   </g>
  </g>
 </g>
 <defs>
  <clipPath id="pa0332da4bd">
   <rect x="59.52" y="26.88" width="137.949952" height="102.24"/>
  </clipPath>
  <clipPath id="p7c1957676c">
   <rect x="100.904986" y="67.776" width="82.769971" height="40.896"/>
  </clipPath>
 </defs>
</svg>
