<?xml version="1.0" encoding="utf-8" standalone="no"?>
<!DOCTYPE svg PUBLIC "-//W3C//DTD SVG 1.1//EN"
  "http://www.w3.org/Graphics/SVG/1.1/DTD/svg11.dtd">
<svg xmlns:xlink="http://www.w3.org/1999/xlink" width="216pt" height="180pt" viewBox="0 0 216 180" xmlns="http://www.w3.org/2000/svg" version="1.1">
 <metadata>
  <rdf:RDF xmlns:dc="http://purl.org/dc/elements/1.1/" xmlns:cc="http://creativecommons.org/ns#" xmlns:rdf="http://www.w3.org/1999/02/22-rdf-syntax-ns#">
   <cc:Work>
    <dc:type rdf:resource="http://purl.org/dc/dcmitype/StillImage"/>
    <dc:date>2024-08-24T22:04:51.385185</dc:date>
    <dc:format>image/svg+xml</dc:format>
    <dc:creator>
     <cc:Agent>
      <dc:title>Matplotlib v3.9.1, https://matplotlib.org/</dc:title>
     </cc:Agent>
    </dc:creator>
   </cc:Work>
  </rdf:RDF>
 </metadata>
 <defs>
  <style type="text/css">*{stroke-linejoin: round; stroke-linecap: butt}</style>
 </defs>
 <g id="figure_1">
  <g id="patch_1">
   <path d="M 0 180 
L 216 180 
L 216 0 
L 0 0 
z
" style="fill: #ffffff"/>
  </g>
  <g id="axes_1">
   <g id="patch_2">
    <path d="M 59.52 129.12 
L 198.319362 129.12 
L 198.319362 25.44 
L 59.52 25.44 
z
" style="fill: #ffffff"/>
   </g>
   <g id="matplotlib.axis_1">
    <g id="xtick_1">
     <g id="line2d_1">
      <defs>
       <path id="m78152cde21" d="M 0 0 
L 0 3.5 
" style="stroke: #000000; stroke-width: 0.8"/>
      </defs>
      <g>
       <use xlink:href="#m78152cde21" x="61.538084" y="129.12" style="stroke: #000000; stroke-width: 0.8"/>
      </g>
     </g>
     <g id="text_1">
      <!-- 0 -->
      <g transform="translate(58.356834 143.718437) scale(0.1 -0.1)">
       <defs>
        <path id="DejaVuSans-30" d="M 2034 4250 
Q 1547 4250 1301 3770 
Q 1056 3291 1056 2328 
Q 1056 1369 1301 889 
Q 1547 409 2034 409 
Q 2525 409 2770 889 
Q 3016 1369 3016 2328 
Q 3016 3291 2770 3770 
Q 2525 4250 2034 4250 
z
M 2034 4750 
Q 2819 4750 3233 4129 
Q 3647 3509 3647 2328 
Q 3647 1150 3233 529 
Q 2819 -91 2034 -91 
Q 1250 -91 836 529 
Q 422 1150 422 2328 
Q 422 3509 836 4129 
Q 1250 4750 2034 4750 
z
" transform="scale(0.015625)"/>
       </defs>
       <use xlink:href="#DejaVuSans-30"/>
      </g>
     </g>
    </g>
    <g id="xtick_2">
     <g id="line2d_2">
      <g>
       <use xlink:href="#m78152cde21" x="128.807565" y="129.12" style="stroke: #000000; stroke-width: 0.8"/>
      </g>
     </g>
     <g id="text_2">
      <!-- 150 -->
      <g transform="translate(119.263815 143.718437) scale(0.1 -0.1)">
       <defs>
        <path id="DejaVuSans-31" d="M 794 531 
L 1825 531 
L 1825 4091 
L 703 3866 
L 703 4441 
L 1819 4666 
L 2450 4666 
L 2450 531 
L 3481 531 
L 3481 0 
L 794 0 
L 794 531 
z
" transform="scale(0.015625)"/>
        <path id="DejaVuSans-35" d="M 691 4666 
L 3169 4666 
L 3169 4134 
L 1269 4134 
L 1269 2991 
Q 1406 3038 1543 3061 
Q 1681 3084 1819 3084 
Q 2600 3084 3056 2656 
Q 3513 2228 3513 1497 
Q 3513 744 3044 326 
Q 2575 -91 1722 -91 
Q 1428 -91 1123 -41 
Q 819 9 494 109 
L 494 744 
Q 775 591 1075 516 
Q 1375 441 1709 441 
Q 2250 441 2565 725 
Q 2881 1009 2881 1497 
Q 2881 1984 2565 2268 
Q 2250 2553 1709 2553 
Q 1456 2553 1204 2497 
Q 953 2441 691 2322 
L 691 4666 
z
" transform="scale(0.015625)"/>
       </defs>
       <use xlink:href="#DejaVuSans-31"/>
       <use xlink:href="#DejaVuSans-35" x="63.623047"/>
       <use xlink:href="#DejaVuSans-30" x="127.246094"/>
      </g>
     </g>
    </g>
    <g id="xtick_3">
     <g id="line2d_3">
      <g>
       <use xlink:href="#m78152cde21" x="196.077046" y="129.12" style="stroke: #000000; stroke-width: 0.8"/>
      </g>
     </g>
     <g id="text_3">
      <!-- 300 -->
      <g transform="translate(186.533296 143.718437) scale(0.1 -0.1)">
       <defs>
        <path id="DejaVuSans-33" d="M 2597 2516 
Q 3050 2419 3304 2112 
Q 3559 1806 3559 1356 
Q 3559 666 3084 287 
Q 2609 -91 1734 -91 
Q 1441 -91 1130 -33 
Q 819 25 488 141 
L 488 750 
Q 750 597 1062 519 
Q 1375 441 1716 441 
Q 2309 441 2620 675 
Q 2931 909 2931 1356 
Q 2931 1769 2642 2001 
Q 2353 2234 1838 2234 
L 1294 2234 
L 1294 2753 
L 1863 2753 
Q 2328 2753 2575 2939 
Q 2822 3125 2822 3475 
Q 2822 3834 2567 4026 
Q 2313 4219 1838 4219 
Q 1578 4219 1281 4162 
Q 984 4106 628 3988 
L 628 4550 
Q 988 4650 1302 4700 
Q 1616 4750 1894 4750 
Q 2613 4750 3031 4423 
Q 3450 4097 3450 3541 
Q 3450 3153 3228 2886 
Q 3006 2619 2597 2516 
z
" transform="scale(0.015625)"/>
       </defs>
       <use xlink:href="#DejaVuSans-33"/>
       <use xlink:href="#DejaVuSans-30" x="63.623047"/>
       <use xlink:href="#DejaVuSans-30" x="127.246094"/>
      </g>
     </g>
    </g>
    <g id="text_4">
     <!-- Frequency (Hz) -->
     <g transform="translate(91.214993 157.396563) scale(0.1 -0.1)">
      <defs>
       <path id="DejaVuSans-46" d="M 628 4666 
L 3309 4666 
L 3309 4134 
L 1259 4134 
L 1259 2759 
L 3109 2759 
L 3109 2228 
L 1259 2228 
L 1259 0 
L 628 0 
L 628 4666 
z
" transform="scale(0.015625)"/>
       <path id="DejaVuSans-72" d="M 2631 2963 
Q 2534 3019 2420 3045 
Q 2306 3072 2169 3072 
Q 1681 3072 1420 2755 
Q 1159 2438 1159 1844 
L 1159 0 
L 581 0 
L 581 3500 
L 1159 3500 
L 1159 2956 
Q 1341 3275 1631 3429 
Q 1922 3584 2338 3584 
Q 2397 3584 2469 3576 
Q 2541 3569 2628 3553 
L 2631 2963 
z
" transform="scale(0.015625)"/>
       <path id="DejaVuSans-65" d="M 3597 1894 
L 3597 1613 
L 953 1613 
Q 991 1019 1311 708 
Q 1631 397 2203 397 
Q 2534 397 2845 478 
Q 3156 559 3463 722 
L 3463 178 
Q 3153 47 2828 -22 
Q 2503 -91 2169 -91 
Q 1331 -91 842 396 
Q 353 884 353 1716 
Q 353 2575 817 3079 
Q 1281 3584 2069 3584 
Q 2775 3584 3186 3129 
Q 3597 2675 3597 1894 
z
M 3022 2063 
Q 3016 2534 2758 2815 
Q 2500 3097 2075 3097 
Q 1594 3097 1305 2825 
Q 1016 2553 972 2059 
L 3022 2063 
z
" transform="scale(0.015625)"/>
       <path id="DejaVuSans-71" d="M 947 1747 
Q 947 1113 1208 752 
Q 1469 391 1925 391 
Q 2381 391 2643 752 
Q 2906 1113 2906 1747 
Q 2906 2381 2643 2742 
Q 2381 3103 1925 3103 
Q 1469 3103 1208 2742 
Q 947 2381 947 1747 
z
M 2906 525 
Q 2725 213 2448 61 
Q 2172 -91 1784 -91 
Q 1150 -91 751 415 
Q 353 922 353 1747 
Q 353 2572 751 3078 
Q 1150 3584 1784 3584 
Q 2172 3584 2448 3432 
Q 2725 3281 2906 2969 
L 2906 3500 
L 3481 3500 
L 3481 -1331 
L 2906 -1331 
L 2906 525 
z
" transform="scale(0.015625)"/>
       <path id="DejaVuSans-75" d="M 544 1381 
L 544 3500 
L 1119 3500 
L 1119 1403 
Q 1119 906 1312 657 
Q 1506 409 1894 409 
Q 2359 409 2629 706 
Q 2900 1003 2900 1516 
L 2900 3500 
L 3475 3500 
L 3475 0 
L 2900 0 
L 2900 538 
Q 2691 219 2414 64 
Q 2138 -91 1772 -91 
Q 1169 -91 856 284 
Q 544 659 544 1381 
z
M 1991 3584 
L 1991 3584 
z
" transform="scale(0.015625)"/>
       <path id="DejaVuSans-6e" d="M 3513 2113 
L 3513 0 
L 2938 0 
L 2938 2094 
Q 2938 2591 2744 2837 
Q 2550 3084 2163 3084 
Q 1697 3084 1428 2787 
Q 1159 2491 1159 1978 
L 1159 0 
L 581 0 
L 581 3500 
L 1159 3500 
L 1159 2956 
Q 1366 3272 1645 3428 
Q 1925 3584 2291 3584 
Q 2894 3584 3203 3211 
Q 3513 2838 3513 2113 
z
" transform="scale(0.015625)"/>
       <path id="DejaVuSans-63" d="M 3122 3366 
L 3122 2828 
Q 2878 2963 2633 3030 
Q 2388 3097 2138 3097 
Q 1578 3097 1268 2742 
Q 959 2388 959 1747 
Q 959 1106 1268 751 
Q 1578 397 2138 397 
Q 2388 397 2633 464 
Q 2878 531 3122 666 
L 3122 134 
Q 2881 22 2623 -34 
Q 2366 -91 2075 -91 
Q 1284 -91 818 406 
Q 353 903 353 1747 
Q 353 2603 823 3093 
Q 1294 3584 2113 3584 
Q 2378 3584 2631 3529 
Q 2884 3475 3122 3366 
z
" transform="scale(0.015625)"/>
       <path id="DejaVuSans-79" d="M 2059 -325 
Q 1816 -950 1584 -1140 
Q 1353 -1331 966 -1331 
L 506 -1331 
L 506 -850 
L 844 -850 
Q 1081 -850 1212 -737 
Q 1344 -625 1503 -206 
L 1606 56 
L 191 3500 
L 800 3500 
L 1894 763 
L 2988 3500 
L 3597 3500 
L 2059 -325 
z
" transform="scale(0.015625)"/>
       <path id="DejaVuSans-20" transform="scale(0.015625)"/>
       <path id="DejaVuSans-28" d="M 1984 4856 
Q 1566 4138 1362 3434 
Q 1159 2731 1159 2009 
Q 1159 1288 1364 580 
Q 1569 -128 1984 -844 
L 1484 -844 
Q 1016 -109 783 600 
Q 550 1309 550 2009 
Q 550 2706 781 3412 
Q 1013 4119 1484 4856 
L 1984 4856 
z
" transform="scale(0.015625)"/>
       <path id="DejaVuSans-48" d="M 628 4666 
L 1259 4666 
L 1259 2753 
L 3553 2753 
L 3553 4666 
L 4184 4666 
L 4184 0 
L 3553 0 
L 3553 2222 
L 1259 2222 
L 1259 0 
L 628 0 
L 628 4666 
z
" transform="scale(0.015625)"/>
       <path id="DejaVuSans-7a" d="M 353 3500 
L 3084 3500 
L 3084 2975 
L 922 459 
L 3084 459 
L 3084 0 
L 275 0 
L 275 525 
L 2438 3041 
L 353 3041 
L 353 3500 
z
" transform="scale(0.015625)"/>
       <path id="DejaVuSans-29" d="M 513 4856 
L 1013 4856 
Q 1481 4119 1714 3412 
Q 1947 2706 1947 2009 
Q 1947 1309 1714 600 
Q 1481 -109 1013 -844 
L 513 -844 
Q 928 -128 1133 580 
Q 1338 1288 1338 2009 
Q 1338 2731 1133 3434 
Q 928 4138 513 4856 
z
" transform="scale(0.015625)"/>
      </defs>
      <use xlink:href="#DejaVuSans-46"/>
      <use xlink:href="#DejaVuSans-72" x="50.269531"/>
      <use xlink:href="#DejaVuSans-65" x="89.132812"/>
      <use xlink:href="#DejaVuSans-71" x="150.65625"/>
      <use xlink:href="#DejaVuSans-75" x="214.132812"/>
      <use xlink:href="#DejaVuSans-65" x="277.511719"/>
      <use xlink:href="#DejaVuSans-6e" x="339.035156"/>
      <use xlink:href="#DejaVuSans-63" x="402.414062"/>
      <use xlink:href="#DejaVuSans-79" x="457.394531"/>
      <use xlink:href="#DejaVuSans-20" x="516.574219"/>
      <use xlink:href="#DejaVuSans-28" x="548.361328"/>
      <use xlink:href="#DejaVuSans-48" x="587.375"/>
      <use xlink:href="#DejaVuSans-7a" x="662.570312"/>
      <use xlink:href="#DejaVuSans-29" x="715.060547"/>
     </g>
    </g>
   </g>
   <g id="matplotlib.axis_2">
    <g id="ytick_1">
     <g id="line2d_4">
      <defs>
       <path id="m0c1459601e" d="M 0 0 
L -3.5 0 
" style="stroke: #000000; stroke-width: 0.8"/>
      </defs>
      <g>
       <use xlink:href="#m0c1459601e" x="59.52" y="106.592563" style="stroke: #000000; stroke-width: 0.8"/>
      </g>
     </g>
     <g id="text_5">
      <!-- $\mathdefault{10^{-3}}$ -->
      <g transform="translate(29.02 110.391782) scale(0.1 -0.1)">
       <defs>
        <path id="DejaVuSans-2212" d="M 678 2272 
L 4684 2272 
L 4684 1741 
L 678 1741 
L 678 2272 
z
" transform="scale(0.015625)"/>
       </defs>
       <use xlink:href="#DejaVuSans-31" transform="translate(0 0.765625)"/>
       <use xlink:href="#DejaVuSans-30" transform="translate(63.623047 0.765625)"/>
       <use xlink:href="#DejaVuSans-2212" transform="translate(128.203125 39.046875) scale(0.7)"/>
       <use xlink:href="#DejaVuSans-33" transform="translate(186.855469 39.046875) scale(0.7)"/>
      </g>
     </g>
    </g>
    <g id="ytick_2">
     <g id="line2d_5">
      <g>
       <use xlink:href="#m0c1459601e" x="59.52" y="80.364116" style="stroke: #000000; stroke-width: 0.8"/>
      </g>
     </g>
     <g id="text_6">
      <!-- $\mathdefault{10^{0}}$ -->
      <g transform="translate(34.92 84.163335) scale(0.1 -0.1)">
       <use xlink:href="#DejaVuSans-31" transform="translate(0 0.765625)"/>
       <use xlink:href="#DejaVuSans-30" transform="translate(63.623047 0.765625)"/>
       <use xlink:href="#DejaVuSans-30" transform="translate(128.203125 39.046875) scale(0.7)"/>
      </g>
     </g>
    </g>
    <g id="ytick_3">
     <g id="line2d_6">
      <g>
       <use xlink:href="#m0c1459601e" x="59.52" y="54.135669" style="stroke: #000000; stroke-width: 0.8"/>
      </g>
     </g>
     <g id="text_7">
      <!-- $\mathdefault{10^{3}}$ -->
      <g transform="translate(34.92 57.934888) scale(0.1 -0.1)">
       <use xlink:href="#DejaVuSans-31" transform="translate(0 0.765625)"/>
       <use xlink:href="#DejaVuSans-30" transform="translate(63.623047 0.765625)"/>
       <use xlink:href="#DejaVuSans-33" transform="translate(128.203125 39.046875) scale(0.7)"/>
      </g>
     </g>
    </g>
    <g id="ytick_4">
     <g id="line2d_7">
      <g>
       <use xlink:href="#m0c1459601e" x="59.52" y="27.907223" style="stroke: #000000; stroke-width: 0.8"/>
      </g>
     </g>
     <g id="text_8">
      <!-- $\mathdefault{10^{6}}$ -->
      <g transform="translate(34.92 31.706441) scale(0.1 -0.1)">
       <defs>
        <path id="DejaVuSans-36" d="M 2113 2584 
Q 1688 2584 1439 2293 
Q 1191 2003 1191 1497 
Q 1191 994 1439 701 
Q 1688 409 2113 409 
Q 2538 409 2786 701 
Q 3034 994 3034 1497 
Q 3034 2003 2786 2293 
Q 2538 2584 2113 2584 
z
M 3366 4563 
L 3366 3988 
Q 3128 4100 2886 4159 
Q 2644 4219 2406 4219 
Q 1781 4219 1451 3797 
Q 1122 3375 1075 2522 
Q 1259 2794 1537 2939 
Q 1816 3084 2150 3084 
Q 2853 3084 3261 2657 
Q 3669 2231 3669 1497 
Q 3669 778 3244 343 
Q 2819 -91 2113 -91 
Q 1303 -91 875 529 
Q 447 1150 447 2328 
Q 447 3434 972 4092 
Q 1497 4750 2381 4750 
Q 2619 4750 2861 4703 
Q 3103 4656 3366 4563 
z
" transform="scale(0.015625)"/>
       </defs>
       <use xlink:href="#DejaVuSans-31" transform="translate(0 0.765625)"/>
       <use xlink:href="#DejaVuSans-30" transform="translate(63.623047 0.765625)"/>
       <use xlink:href="#DejaVuSans-36" transform="translate(128.203125 39.046875) scale(0.7)"/>
      </g>
     </g>
    </g>
    <g id="text_9">
     <!-- Log power (dB/Hz) -->
     <g transform="translate(22.940312 123.419844) rotate(-90) scale(0.1 -0.1)">
      <defs>
       <path id="DejaVuSans-4c" d="M 628 4666 
L 1259 4666 
L 1259 531 
L 3531 531 
L 3531 0 
L 628 0 
L 628 4666 
z
" transform="scale(0.015625)"/>
       <path id="DejaVuSans-6f" d="M 1959 3097 
Q 1497 3097 1228 2736 
Q 959 2375 959 1747 
Q 959 1119 1226 758 
Q 1494 397 1959 397 
Q 2419 397 2687 759 
Q 2956 1122 2956 1747 
Q 2956 2369 2687 2733 
Q 2419 3097 1959 3097 
z
M 1959 3584 
Q 2709 3584 3137 3096 
Q 3566 2609 3566 1747 
Q 3566 888 3137 398 
Q 2709 -91 1959 -91 
Q 1206 -91 779 398 
Q 353 888 353 1747 
Q 353 2609 779 3096 
Q 1206 3584 1959 3584 
z
" transform="scale(0.015625)"/>
       <path id="DejaVuSans-67" d="M 2906 1791 
Q 2906 2416 2648 2759 
Q 2391 3103 1925 3103 
Q 1463 3103 1205 2759 
Q 947 2416 947 1791 
Q 947 1169 1205 825 
Q 1463 481 1925 481 
Q 2391 481 2648 825 
Q 2906 1169 2906 1791 
z
M 3481 434 
Q 3481 -459 3084 -895 
Q 2688 -1331 1869 -1331 
Q 1566 -1331 1297 -1286 
Q 1028 -1241 775 -1147 
L 775 -588 
Q 1028 -725 1275 -790 
Q 1522 -856 1778 -856 
Q 2344 -856 2625 -561 
Q 2906 -266 2906 331 
L 2906 616 
Q 2728 306 2450 153 
Q 2172 0 1784 0 
Q 1141 0 747 490 
Q 353 981 353 1791 
Q 353 2603 747 3093 
Q 1141 3584 1784 3584 
Q 2172 3584 2450 3431 
Q 2728 3278 2906 2969 
L 2906 3500 
L 3481 3500 
L 3481 434 
z
" transform="scale(0.015625)"/>
       <path id="DejaVuSans-70" d="M 1159 525 
L 1159 -1331 
L 581 -1331 
L 581 3500 
L 1159 3500 
L 1159 2969 
Q 1341 3281 1617 3432 
Q 1894 3584 2278 3584 
Q 2916 3584 3314 3078 
Q 3713 2572 3713 1747 
Q 3713 922 3314 415 
Q 2916 -91 2278 -91 
Q 1894 -91 1617 61 
Q 1341 213 1159 525 
z
M 3116 1747 
Q 3116 2381 2855 2742 
Q 2594 3103 2138 3103 
Q 1681 3103 1420 2742 
Q 1159 2381 1159 1747 
Q 1159 1113 1420 752 
Q 1681 391 2138 391 
Q 2594 391 2855 752 
Q 3116 1113 3116 1747 
z
" transform="scale(0.015625)"/>
       <path id="DejaVuSans-77" d="M 269 3500 
L 844 3500 
L 1563 769 
L 2278 3500 
L 2956 3500 
L 3675 769 
L 4391 3500 
L 4966 3500 
L 4050 0 
L 3372 0 
L 2619 2869 
L 1863 0 
L 1184 0 
L 269 3500 
z
" transform="scale(0.015625)"/>
       <path id="DejaVuSans-64" d="M 2906 2969 
L 2906 4863 
L 3481 4863 
L 3481 0 
L 2906 0 
L 2906 525 
Q 2725 213 2448 61 
Q 2172 -91 1784 -91 
Q 1150 -91 751 415 
Q 353 922 353 1747 
Q 353 2572 751 3078 
Q 1150 3584 1784 3584 
Q 2172 3584 2448 3432 
Q 2725 3281 2906 2969 
z
M 947 1747 
Q 947 1113 1208 752 
Q 1469 391 1925 391 
Q 2381 391 2643 752 
Q 2906 1113 2906 1747 
Q 2906 2381 2643 2742 
Q 2381 3103 1925 3103 
Q 1469 3103 1208 2742 
Q 947 2381 947 1747 
z
" transform="scale(0.015625)"/>
       <path id="DejaVuSans-42" d="M 1259 2228 
L 1259 519 
L 2272 519 
Q 2781 519 3026 730 
Q 3272 941 3272 1375 
Q 3272 1813 3026 2020 
Q 2781 2228 2272 2228 
L 1259 2228 
z
M 1259 4147 
L 1259 2741 
L 2194 2741 
Q 2656 2741 2882 2914 
Q 3109 3088 3109 3444 
Q 3109 3797 2882 3972 
Q 2656 4147 2194 4147 
L 1259 4147 
z
M 628 4666 
L 2241 4666 
Q 2963 4666 3353 4366 
Q 3744 4066 3744 3513 
Q 3744 3084 3544 2831 
Q 3344 2578 2956 2516 
Q 3422 2416 3680 2098 
Q 3938 1781 3938 1306 
Q 3938 681 3513 340 
Q 3088 0 2303 0 
L 628 0 
L 628 4666 
z
" transform="scale(0.015625)"/>
       <path id="DejaVuSans-2f" d="M 1625 4666 
L 2156 4666 
L 531 -594 
L 0 -594 
L 1625 4666 
z
" transform="scale(0.015625)"/>
      </defs>
      <use xlink:href="#DejaVuSans-4c"/>
      <use xlink:href="#DejaVuSans-6f" x="53.962891"/>
      <use xlink:href="#DejaVuSans-67" x="115.144531"/>
      <use xlink:href="#DejaVuSans-20" x="178.621094"/>
      <use xlink:href="#DejaVuSans-70" x="210.408203"/>
      <use xlink:href="#DejaVuSans-6f" x="273.884766"/>
      <use xlink:href="#DejaVuSans-77" x="335.066406"/>
      <use xlink:href="#DejaVuSans-65" x="416.853516"/>
      <use xlink:href="#DejaVuSans-72" x="478.376953"/>
      <use xlink:href="#DejaVuSans-20" x="519.490234"/>
      <use xlink:href="#DejaVuSans-28" x="551.277344"/>
      <use xlink:href="#DejaVuSans-64" x="590.291016"/>
      <use xlink:href="#DejaVuSans-42" x="653.767578"/>
      <use xlink:href="#DejaVuSans-2f" x="722.371094"/>
      <use xlink:href="#DejaVuSans-48" x="756.0625"/>
      <use xlink:href="#DejaVuSans-7a" x="831.257812"/>
      <use xlink:href="#DejaVuSans-29" x="883.748047"/>
     </g>
    </g>
   </g>
   <g id="line2d_8">
    <path d="M 61.762316 68.590259 
L 61.986548 74.012608 
L 62.210779 65.873624 
L 62.435011 63.330691 
L 62.659242 69.064085 
L 62.883474 67.949662 
L 63.107706 60.39199 
L 63.331937 71.214464 
L 63.556169 68.542107 
L 64.004632 65.813929 
L 64.228864 71.505974 
L 64.453095 69.012202 
L 64.677327 63.12564 
L 64.901558 72.497495 
L 65.12579 64.078143 
L 65.574253 65.439742 
L 65.798485 73.21607 
L 66.022716 65.216103 
L 66.246948 62.973867 
L 66.47118 65.232259 
L 66.695411 65.660906 
L 66.919643 61.396571 
L 67.143874 73.513124 
L 67.368106 72.922651 
L 67.592338 67.074201 
L 67.816569 72.029408 
L 68.040801 72.191943 
L 68.265032 70.143767 
L 68.713496 68.009416 
L 68.937727 60.133545 
L 69.161959 68.628099 
L 69.386191 68.580924 
L 69.610422 61.427446 
L 69.834654 74.423636 
L 70.283117 66.605105 
L 70.507349 65.820328 
L 70.73158 77.471474 
L 70.955812 61.628167 
L 71.180043 64.937958 
L 71.404275 80.094004 
L 71.628507 55.186025 
L 71.852738 66.171697 
L 72.07697 71.152212 
L 72.301201 68.184467 
L 72.525433 79.27839 
L 72.749665 74.36293 
L 72.973896 66.106905 
L 73.198128 66.647065 
L 73.422359 66.753736 
L 73.646591 75.050143 
L 73.870823 77.185829 
L 74.095054 64.434043 
L 74.319286 60.185646 
L 74.543517 75.07399 
L 74.767749 76.496609 
L 75.216212 67.229323 
L 75.440444 74.408751 
L 75.664675 62.202174 
L 75.888907 72.554907 
L 76.113139 70.537418 
L 76.33737 73.103832 
L 76.561602 64.580081 
L 77.010065 70.84261 
L 77.234297 63.397549 
L 77.458528 62.81237 
L 77.68276 71.398717 
L 77.906991 64.280535 
L 78.355455 70.827861 
L 78.579686 61.591784 
L 79.028149 69.553816 
L 79.252381 66.114937 
L 79.476613 73.491886 
L 79.700844 87.307529 
L 79.925076 69.008105 
L 80.149307 61.470283 
L 80.373539 64.903814 
L 80.822002 77.860707 
L 81.046234 65.263238 
L 81.270465 69.387077 
L 81.494697 64.743096 
L 81.718929 73.761055 
L 81.94316 66.909266 
L 82.167392 64.914585 
L 82.391623 65.015586 
L 82.615855 67.643408 
L 82.840087 67.912578 
L 83.064318 69.552106 
L 83.512781 65.070785 
L 83.737013 65.634744 
L 84.185476 70.645512 
L 84.409708 76.187053 
L 84.633939 68.877406 
L 84.858171 71.265511 
L 85.082403 63.328746 
L 85.306634 64.943235 
L 85.530866 74.792825 
L 85.755097 68.248188 
L 85.979329 75.464423 
L 86.203561 65.830357 
L 86.427792 64.953393 
L 86.652024 66.775622 
L 86.876255 65.443303 
L 87.100487 61.883867 
L 87.324719 71.154381 
L 87.54895 75.077527 
L 87.773182 65.236174 
L 87.997414 63.680249 
L 88.221645 65.408991 
L 88.445877 69.57362 
L 88.670108 61.679765 
L 89.118572 69.953339 
L 89.342803 69.892624 
L 89.567035 67.931407 
L 89.791266 70.385231 
L 90.015498 69.185036 
L 90.463961 61.518824 
L 90.688193 70.31063 
L 91.136656 63.229992 
L 91.360888 64.908878 
L 91.585119 74.794851 
L 91.809351 74.112082 
L 92.033582 61.645518 
L 92.257814 65.76843 
L 92.482046 65.855853 
L 92.706277 63.260689 
L 92.930509 66.835409 
L 93.15474 77.458476 
L 93.378972 68.138505 
L 93.603204 79.071348 
L 93.827435 63.647312 
L 94.051667 62.145769 
L 94.275898 73.209051 
L 94.50013 68.896832 
L 94.724362 72.900468 
L 94.948593 71.070979 
L 95.397056 63.499573 
L 95.621288 65.378544 
L 95.84552 65.805687 
L 96.069751 67.970109 
L 96.293983 68.714821 
L 96.518214 65.316256 
L 96.742446 64.457153 
L 96.966678 62.780099 
L 97.190909 65.732324 
L 97.415141 73.37713 
L 97.639372 62.673123 
L 97.863604 68.340376 
L 98.087836 64.057075 
L 98.312067 74.238142 
L 98.76053 62.748657 
L 98.984762 59.010759 
L 99.208994 65.972814 
L 99.433225 77.223484 
L 99.881688 64.888797 
L 100.10592 64.986232 
L 100.330152 64.740773 
L 100.554383 58.67057 
L 100.778615 67.075944 
L 101.002846 67.829913 
L 101.227078 61.871947 
L 101.45131 69.750755 
L 101.675541 61.829977 
L 101.899773 62.43456 
L 102.124004 71.667314 
L 102.348236 62.803902 
L 102.572468 62.505867 
L 102.796699 63.428663 
L 103.245162 67.925853 
L 103.469394 59.903454 
L 103.693626 78.618098 
L 103.917857 64.98405 
L 104.142089 67.948204 
L 104.36632 74.748767 
L 104.814784 58.607583 
L 105.039015 62.926917 
L 105.263247 70.255652 
L 105.71171 62.405337 
L 105.935942 63.05523 
L 106.160173 66.375749 
L 106.384405 72.018387 
L 106.608637 70.81963 
L 106.832868 66.713242 
L 107.0571 69.625032 
L 107.281331 64.962353 
L 107.954026 67.303829 
L 108.178258 61.791006 
L 108.402489 74.028662 
L 108.626721 60.894516 
L 108.850953 63.692784 
L 109.075184 71.675097 
L 109.299416 71.511522 
L 109.523647 60.784287 
L 109.747879 62.819223 
L 109.972111 68.132425 
L 110.196342 58.965662 
L 110.644805 74.342159 
L 110.869037 62.440681 
L 111.3175 73.476895 
L 111.541732 62.997454 
L 111.765963 68.131173 
L 111.990195 77.076773 
L 112.214427 62.639765 
L 112.438658 63.236961 
L 112.66289 65.127921 
L 112.887121 64.739176 
L 113.111353 60.216736 
L 113.559816 69.82688 
L 113.784048 63.402655 
L 114.008279 60.302275 
L 114.232511 73.766595 
L 114.456743 65.971269 
L 114.680974 66.072708 
L 114.905206 62.386636 
L 115.353669 70.293164 
L 115.577901 65.479316 
L 115.802132 73.44129 
L 116.026364 63.109486 
L 116.474827 77.184845 
L 116.699059 66.65486 
L 116.92329 68.199197 
L 117.147522 64.957762 
L 117.371753 79.005944 
L 117.595985 30.152727 
L 117.820217 77.800883 
L 118.044448 64.79686 
L 118.26868 68.268575 
L 118.492911 66.69079 
L 118.717143 77.702394 
L 119.165606 63.581476 
L 119.389838 73.190776 
L 119.614069 66.041195 
L 119.838301 71.09926 
L 120.286764 63.169663 
L 120.510996 66.35226 
L 120.735227 67.065845 
L 120.959459 73.870957 
L 121.183691 61.086347 
L 121.407922 64.241896 
L 121.632154 70.464697 
L 122.080617 61.243108 
L 122.304849 65.411246 
L 122.52908 66.503757 
L 122.753312 64.599766 
L 122.977543 63.996875 
L 123.201775 79.887434 
L 123.650238 64.312717 
L 123.87447 75.591712 
L 124.322933 63.863524 
L 124.547165 75.698829 
L 124.771396 69.972836 
L 124.995628 60.896343 
L 125.219859 69.946128 
L 125.444091 64.491339 
L 125.668323 63.005369 
L 125.892554 74.205352 
L 126.116786 73.781516 
L 126.341018 65.473495 
L 126.565249 62.831156 
L 126.789481 76.052213 
L 127.013712 63.859075 
L 127.237944 70.741301 
L 127.686407 67.592137 
L 127.910639 67.604891 
L 128.13487 72.233687 
L 128.359102 69.305756 
L 128.583334 73.560264 
L 128.807565 74.240826 
L 129.256028 66.128171 
L 129.48026 65.083248 
L 129.928723 72.650508 
L 130.377186 61.703963 
L 130.82565 79.521918 
L 131.049881 71.262883 
L 131.274113 68.321785 
L 131.498344 81.16979 
L 131.722576 63.323119 
L 131.946808 71.204541 
L 132.395271 66.720004 
L 132.619502 65.723418 
L 132.843734 66.181073 
L 133.067966 74.741316 
L 133.292197 66.076792 
L 133.516429 65.201322 
L 133.74066 71.933311 
L 133.964892 66.407142 
L 134.189124 71.71878 
L 134.413355 71.025726 
L 134.637587 62.939826 
L 134.861818 69.398072 
L 135.08605 69.896257 
L 135.310282 69.063541 
L 135.758745 82.197696 
L 136.207208 63.499217 
L 136.655671 72.52253 
L 136.879903 79.430965 
L 137.104134 68.967039 
L 137.328366 72.754541 
L 137.552598 67.504853 
L 137.776829 76.518971 
L 138.001061 70.886709 
L 138.225292 68.4806 
L 138.673756 70.871579 
L 138.897987 75.240986 
L 139.34645 71.167298 
L 139.570682 70.803215 
L 139.794914 70.132009 
L 140.467608 80.073769 
L 140.69184 74.055512 
L 140.916072 80.244721 
L 141.140303 68.028523 
L 141.364535 69.269375 
L 141.588766 82.377523 
L 141.812998 73.685622 
L 142.03723 82.451647 
L 142.261461 72.588003 
L 142.485693 69.674927 
L 142.709924 72.172641 
L 142.934156 71.773382 
L 143.158388 67.453499 
L 143.382619 79.176927 
L 143.606851 80.753761 
L 143.831082 70.27771 
L 144.055314 70.707368 
L 144.279546 72.372485 
L 144.503777 76.049328 
L 144.728009 68.587487 
L 145.176472 75.412084 
L 145.400704 78.356191 
L 145.624935 75.971494 
L 145.849167 77.235207 
L 146.073399 76.105457 
L 146.29763 73.528093 
L 146.521862 69.175779 
L 146.746093 77.248354 
L 146.970325 73.057773 
L 147.194557 71.605405 
L 147.418788 71.97704 
L 147.64302 81.946776 
L 147.867251 79.731207 
L 148.091483 69.380092 
L 148.315715 73.532849 
L 148.539946 74.191142 
L 148.764178 71.721221 
L 148.988409 74.929037 
L 149.212641 84.965433 
L 149.436873 75.941742 
L 149.661104 84.520339 
L 149.885336 72.142592 
L 150.109567 70.962189 
L 150.333799 82.073409 
L 150.558031 77.079132 
L 150.782262 84.217649 
L 151.006494 81.819374 
L 151.454957 73.971397 
L 151.679189 74.213357 
L 151.90342 75.210325 
L 152.127652 77.64181 
L 152.351883 78.538001 
L 152.576115 75.384512 
L 152.800347 73.890207 
L 153.024578 73.30858 
L 153.24881 75.621846 
L 153.473041 80.523909 
L 153.697273 72.768603 
L 153.921505 77.662919 
L 154.145736 73.967448 
L 154.369968 83.074759 
L 155.042663 68.9123 
L 155.491126 85.788451 
L 155.939589 75.323123 
L 156.388052 75.595509 
L 156.612284 68.751486 
L 156.836515 77.24978 
L 157.060747 78.576368 
L 157.284979 72.451452 
L 157.50921 78.301907 
L 157.733442 71.684545 
L 157.957673 72.845535 
L 158.181905 80.959541 
L 158.406137 72.782906 
L 158.630368 72.356324 
L 159.078831 75.068042 
L 159.303063 77.886033 
L 159.527295 70.332327 
L 159.751526 87.386995 
L 159.975758 75.043983 
L 160.199989 78.239906 
L 160.424221 83.67652 
L 160.872684 68.604589 
L 161.321147 79.246349 
L 161.545379 77.219798 
L 161.769611 72.367584 
L 161.993842 73.099894 
L 162.218074 76.195841 
L 162.442305 81.922358 
L 162.666537 80.605198 
L 162.890769 77.330971 
L 163.115 79.482581 
L 163.339232 74.924092 
L 163.563464 75.039515 
L 163.787695 76.56446 
L 164.011927 77.307699 
L 164.236158 71.428253 
L 164.46039 84.535581 
L 164.684622 70.469264 
L 164.908853 73.223429 
L 165.133085 81.682698 
L 165.357316 81.36951 
L 165.581548 70.360736 
L 165.80578 72.308675 
L 166.030011 77.263165 
L 166.254243 68.234072 
L 166.702706 82.936378 
L 166.926938 71.458164 
L 167.375401 82.907905 
L 167.599632 71.852267 
L 167.823864 77.384696 
L 168.048096 86.67618 
L 168.272327 71.560787 
L 168.496559 72.199791 
L 168.72079 73.794074 
L 168.945022 73.444542 
L 169.169254 68.963419 
L 169.617717 79.319619 
L 169.841948 72.342222 
L 170.06618 69.223203 
L 170.290412 81.538416 
L 170.514643 74.937109 
L 170.738875 74.305374 
L 170.963106 71.012365 
L 171.41157 78.336336 
L 171.635801 73.744109 
L 171.860033 80.227765 
L 172.084264 71.415934 
L 172.532728 85.246015 
L 172.756959 74.601397 
L 172.981191 75.828387 
L 173.205422 73.066656 
L 173.429654 85.915244 
L 173.653886 38.107736 
L 173.878117 85.915389 
L 174.102349 72.840886 
L 174.32658 75.475474 
L 174.550812 74.141386 
L 174.775044 86.552011 
L 175.223507 71.187746 
L 175.447738 81.530626 
L 175.67197 73.612557 
L 175.896202 77.678653 
L 176.344665 70.513201 
L 176.568896 73.847801 
L 176.793128 74.557706 
L 177.01736 81.259977 
L 177.241591 68.512297 
L 177.465823 71.687674 
L 177.690054 77.978084 
L 178.138518 68.438773 
L 178.362749 72.91875 
L 178.586981 73.631977 
L 178.811212 71.628577 
L 179.035444 70.847016 
L 179.259676 85.93416 
L 179.708139 71.135856 
L 179.93237 81.476156 
L 180.380834 70.737602 
L 180.605065 83.270879 
L 181.053528 67.220824 
L 181.27776 76.899856 
L 181.501992 71.392828 
L 181.726223 69.410276 
L 181.950455 80.925558 
L 182.174687 80.869185 
L 182.398918 72.038529 
L 182.62315 69.317353 
L 182.847381 83.272395 
L 183.071613 70.311637 
L 183.295845 76.560433 
L 183.968539 74.022925 
L 184.192771 78.65252 
L 184.417003 75.492413 
L 184.641234 79.578139 
L 184.865466 80.494776 
L 185.313929 72.147952 
L 185.538161 71.160605 
L 185.986624 78.714364 
L 186.435087 67.641918 
L 186.88355 83.302437 
L 187.107782 76.652898 
L 187.332013 74.037763 
L 187.556245 86.400858 
L 187.780477 69.109923 
L 188.004708 76.483084 
L 188.677403 71.418289 
L 188.901635 72.069261 
L 189.125866 79.810105 
L 189.350098 72.030255 
L 189.574329 70.745378 
L 189.798561 77.767287 
L 190.022793 71.630709 
L 190.247024 77.535914 
L 190.471256 76.710649 
L 190.695487 68.313343 
L 190.919719 74.961559 
L 191.143951 74.609866 
L 191.368182 74.792828 
L 191.816645 86.761813 
L 192.265109 68.8322 
L 192.713572 77.587889 
L 192.937803 83.661663 
L 193.162035 74.019446 
L 193.386267 78.161373 
L 193.610498 72.801645 
L 193.83473 80.823915 
L 194.058961 75.755803 
L 194.283193 73.710615 
L 194.731656 75.873708 
L 194.955888 79.221342 
L 195.180119 78.202714 
L 195.404351 76.152603 
L 195.628583 75.673562 
L 195.852814 74.730246 
L 195.852814 74.730246 
" clip-path="url(#p3afb001c27)" style="fill: none; stroke: #808080; stroke-width: 0.8; stroke-linecap: square"/>
   </g>
   <g id="line2d_9">
    <path d="M 61.762316 70.003275 
L 62.210779 66.021516 
L 62.435011 66.866515 
L 62.659242 68.812048 
L 62.883474 68.982792 
L 63.107706 63.349761 
L 63.331937 74.527578 
L 63.556169 66.423647 
L 63.7804 71.124091 
L 64.004632 64.463435 
L 64.228864 70.521577 
L 64.453095 65.587787 
L 64.677327 66.328542 
L 64.901558 74.803496 
L 65.12579 67.165414 
L 65.350022 71.168878 
L 65.574253 67.350148 
L 65.798485 71.235738 
L 66.022716 78.205229 
L 66.246948 65.315922 
L 66.47118 71.561571 
L 66.695411 72.700948 
L 66.919643 66.203948 
L 67.143874 76.093254 
L 67.368106 76.270805 
L 67.592338 92.300447 
L 67.816569 71.878752 
L 68.040801 76.168652 
L 68.489264 71.549545 
L 68.713496 73.513086 
L 68.937727 68.723957 
L 69.161959 70.969532 
L 69.386191 74.349018 
L 69.610422 68.666307 
L 69.834654 76.933612 
L 70.058885 75.828824 
L 70.283117 82.850615 
L 70.507349 70.762443 
L 70.73158 87.828329 
L 70.955812 67.526472 
L 71.404275 68.942605 
L 71.628507 54.39266 
L 71.852738 72.8193 
L 72.07697 79.146774 
L 72.301201 78.436774 
L 72.525433 78.86399 
L 72.749665 71.271427 
L 72.973896 72.703072 
L 73.198128 82.444628 
L 73.422359 77.558084 
L 73.646591 75.738808 
L 73.870823 76.173774 
L 74.095054 76.189412 
L 74.319286 72.188296 
L 74.543517 77.040873 
L 74.767749 79.142823 
L 74.991981 71.386982 
L 75.216212 83.98085 
L 75.440444 78.409834 
L 75.664675 79.315314 
L 75.888907 80.775336 
L 76.33737 70.043565 
L 76.561602 86.706768 
L 76.785833 75.863473 
L 77.010065 77.387985 
L 77.458528 72.959334 
L 77.68276 77.251278 
L 77.906991 77.604046 
L 78.131223 74.843937 
L 78.355455 81.395719 
L 78.803918 75.870576 
L 79.028149 76.49539 
L 79.252381 79.776836 
L 79.476613 78.6967 
L 79.700844 77.002188 
L 80.149307 82.91189 
L 80.373539 76.541022 
L 80.597771 88.77379 
L 80.822002 85.97727 
L 81.046234 78.85291 
L 81.270465 81.691841 
L 81.718929 82.804487 
L 81.94316 83.608818 
L 82.167392 93.578777 
L 82.391623 77.027854 
L 82.615855 88.609494 
L 82.840087 75.44624 
L 83.28855 83.720805 
L 83.512781 78.67639 
L 83.737013 87.475301 
L 83.961245 80.494081 
L 84.185476 79.604684 
L 84.409708 97.725034 
L 84.858171 75.246111 
L 85.082403 85.203049 
L 85.306634 80.843069 
L 85.530866 80.022466 
L 85.755097 81.666165 
L 85.979329 84.414972 
L 86.203561 79.685209 
L 86.427792 82.077164 
L 86.652024 90.53048 
L 86.876255 81.606218 
L 87.100487 88.225597 
L 87.324719 80.652869 
L 87.54895 88.901153 
L 87.773182 77.788114 
L 87.997414 82.452522 
L 88.221645 82.831766 
L 88.445877 88.086605 
L 88.670108 83.908136 
L 88.89434 88.371984 
L 89.118572 82.724773 
L 89.342803 87.588253 
L 89.567035 83.536796 
L 89.791266 96.487475 
L 90.015498 81.756138 
L 90.463961 87.37569 
L 90.688193 79.829741 
L 90.912424 81.107175 
L 91.360888 80.989172 
L 91.585119 87.220222 
L 91.809351 89.915973 
L 92.033582 83.064276 
L 92.482046 90.577015 
L 92.706277 88.705897 
L 92.930509 85.0936 
L 93.15474 94.967248 
L 93.378972 85.363203 
L 93.603204 86.532652 
L 93.827435 79.950048 
L 94.051667 86.501281 
L 94.275898 85.795255 
L 94.50013 89.431541 
L 94.724362 82.695258 
L 94.948593 86.070401 
L 95.172825 86.657477 
L 95.397056 80.136358 
L 95.621288 85.228212 
L 95.84552 100.2756 
L 96.069751 83.693691 
L 96.293983 87.986959 
L 96.518214 85.687124 
L 96.742446 86.468974 
L 96.966678 78.228886 
L 97.190909 92.49497 
L 97.415141 81.151383 
L 97.639372 81.341381 
L 97.863604 97.858411 
L 98.087836 100.871332 
L 98.312067 94.157348 
L 98.76053 87.60246 
L 98.984762 89.30926 
L 99.208994 87.043002 
L 99.433225 82.576004 
L 99.657457 92.106286 
L 99.881688 84.542704 
L 100.10592 89.859984 
L 100.330152 83.099202 
L 100.554383 98.083888 
L 100.778615 88.592627 
L 101.002846 90.587911 
L 101.45131 80.068604 
L 101.899773 86.792409 
L 102.124004 89.391139 
L 102.348236 90.101704 
L 102.572468 85.57639 
L 102.796699 98.071836 
L 103.020931 87.396725 
L 103.245162 84.524296 
L 103.469394 95.94809 
L 103.693626 88.457393 
L 103.917857 108.959363 
L 104.142089 92.76861 
L 104.36632 85.087763 
L 104.590552 102.111312 
L 104.814784 95.966383 
L 105.039015 101.797876 
L 105.263247 91.438271 
L 105.487478 92.629977 
L 105.71171 85.121238 
L 105.935942 88.541674 
L 106.160173 89.720538 
L 106.384405 92.317701 
L 106.608637 84.030848 
L 106.832868 97.922565 
L 107.0571 101.02766 
L 107.281331 91.070214 
L 107.505563 88.3798 
L 107.729795 92.315889 
L 107.954026 83.791411 
L 108.178258 82.682324 
L 108.402489 94.156522 
L 108.626721 87.857529 
L 109.075184 91.906168 
L 109.299416 89.096585 
L 109.523647 84.871108 
L 109.747879 91.201952 
L 109.972111 90.783231 
L 110.196342 89.366985 
L 110.420574 98.86395 
L 110.644805 100.25804 
L 110.869037 90.212181 
L 111.093269 102.959435 
L 111.541732 82.940717 
L 111.765963 96.203921 
L 111.990195 91.728498 
L 112.214427 100.718674 
L 112.66289 91.061835 
L 112.887121 91.58962 
L 113.111353 103.643683 
L 113.335585 87.156292 
L 113.559816 93.089649 
L 113.784048 94.969634 
L 114.008279 90.313178 
L 114.232511 92.48766 
L 114.456743 86.274756 
L 114.680974 88.083617 
L 114.905206 93.273196 
L 115.129437 85.011782 
L 115.353669 87.66194 
L 115.577901 100.356765 
L 115.802132 92.191498 
L 116.026364 88.850363 
L 116.250595 102.607302 
L 116.474827 91.495624 
L 116.699059 90.253514 
L 116.92329 88.15608 
L 117.147522 106.510276 
L 117.371753 89.652666 
L 117.820217 94.051991 
L 118.044448 88.834465 
L 118.26868 90.498614 
L 118.492911 89.12784 
L 118.717143 93.047322 
L 118.941375 87.478758 
L 119.165606 93.551051 
L 119.389838 92.053823 
L 119.614069 101.45139 
L 119.838301 92.367124 
L 120.062533 88.25056 
L 120.286764 96.111492 
L 120.510996 97.649016 
L 120.735227 95.384765 
L 120.959459 88.15753 
L 121.183691 86.282635 
L 121.407922 92.584955 
L 121.632154 95.127959 
L 121.856385 88.563426 
L 122.080617 100.683538 
L 122.304849 88.261161 
L 122.52908 92.092921 
L 122.753312 92.62029 
L 122.977543 95.527936 
L 123.201775 93.442563 
L 123.426007 95.633277 
L 123.650238 95.303871 
L 123.87447 96.159948 
L 124.098701 103.361828 
L 124.322933 101.53286 
L 124.547165 101.480736 
L 124.995628 85.440295 
L 125.219859 91.875281 
L 125.444091 92.962536 
L 125.668323 93.067225 
L 125.892554 98.4663 
L 126.116786 91.122355 
L 126.341018 96.247482 
L 126.565249 112.724911 
L 126.789481 100.494646 
L 127.237944 92.26829 
L 127.462176 99.082287 
L 127.686407 94.115127 
L 127.910639 91.788352 
L 128.359102 107.175763 
L 128.583334 91.224928 
L 128.807565 95.903028 
L 129.031797 103.248887 
L 129.256028 102.129449 
L 129.704492 98.750772 
L 129.928723 89.993084 
L 130.152955 94.635839 
L 130.377186 91.169974 
L 130.601418 96.264896 
L 130.82565 87.396262 
L 131.274113 101.436006 
L 131.498344 102.641155 
L 131.722576 100.846102 
L 131.946808 92.181004 
L 132.171039 101.588394 
L 132.395271 90.662429 
L 132.619502 93.439948 
L 132.843734 93.422194 
L 133.067966 104.173719 
L 133.292197 94.192887 
L 133.516429 97.330276 
L 133.964892 91.019252 
L 134.413355 104.08764 
L 134.637587 91.688252 
L 134.861818 105.127323 
L 135.08605 89.350777 
L 135.310282 93.374078 
L 135.534513 93.617933 
L 135.758745 90.804107 
L 135.982976 106.278291 
L 136.207208 97.491185 
L 136.43144 99.7144 
L 136.655671 94.59245 
L 136.879903 94.148589 
L 137.104134 104.952803 
L 137.328366 91.590741 
L 137.552598 104.445432 
L 138.001061 90.134026 
L 138.225292 99.989535 
L 138.449524 94.791086 
L 138.673756 103.59799 
L 138.897987 90.605768 
L 139.122219 96.336654 
L 139.34645 107.256198 
L 139.570682 96.766417 
L 139.794914 91.949208 
L 140.019145 97.542766 
L 140.243377 92.730576 
L 140.467608 97.168659 
L 140.69184 94.705332 
L 140.916072 94.484324 
L 141.140303 94.45471 
L 141.364535 96.414774 
L 141.588766 94.014621 
L 141.812998 106.173519 
L 142.03723 92.601328 
L 142.485693 107.928857 
L 142.934156 103.031674 
L 143.158388 97.593419 
L 143.382619 97.083475 
L 143.606851 99.387259 
L 143.831082 93.694311 
L 144.055314 94.097317 
L 144.279546 99.14144 
L 144.503777 93.029671 
L 144.728009 94.955162 
L 144.952241 94.478667 
L 145.176472 96.201039 
L 145.400704 92.427734 
L 145.849167 98.134856 
L 146.073399 106.758641 
L 146.29763 98.971513 
L 146.521862 97.617105 
L 146.746093 98.298885 
L 147.194557 105.928435 
L 147.418788 99.533261 
L 147.64302 109.47819 
L 147.867251 93.110824 
L 148.091483 93.469817 
L 148.315715 94.288521 
L 148.764178 103.302689 
L 149.212641 101.920721 
L 149.436873 95.587548 
L 149.661104 95.382177 
L 149.885336 95.738156 
L 150.109567 95.38162 
L 150.333799 92.582435 
L 150.782262 109.243304 
L 151.006494 93.810068 
L 151.230725 95.690911 
L 151.454957 94.56744 
L 151.679189 101.714069 
L 151.90342 103.22633 
L 152.127652 94.511655 
L 152.351883 97.739827 
L 152.576115 94.325733 
L 152.800347 96.128029 
L 153.024578 99.917993 
L 153.24881 97.040154 
L 153.473041 104.805409 
L 153.697273 95.849075 
L 153.921505 97.757224 
L 154.145736 95.387825 
L 154.369968 97.042036 
L 154.594199 107.51789 
L 154.818431 102.558043 
L 155.042663 100.534185 
L 155.266894 103.126037 
L 155.491126 107.441897 
L 155.715357 96.571271 
L 155.939589 102.246272 
L 156.163821 98.963704 
L 156.388052 98.817802 
L 156.612284 100.878221 
L 156.836515 107.362907 
L 157.060747 100.69675 
L 157.284979 109.774589 
L 157.733442 96.270253 
L 158.181905 106.560763 
L 158.406137 103.386466 
L 158.8546 95.406572 
L 159.303063 101.155175 
L 159.527295 94.54662 
L 159.751526 105.095485 
L 159.975758 105.263414 
L 160.199989 102.479964 
L 160.424221 102.929501 
L 160.648453 94.36385 
L 161.096916 102.608199 
L 161.321147 98.051733 
L 161.545379 100.410063 
L 161.769611 101.237767 
L 161.993842 98.618887 
L 162.218074 97.309346 
L 162.666537 105.420395 
L 162.890769 94.630661 
L 163.115 110.820527 
L 163.339232 109.866361 
L 163.787695 98.107291 
L 164.011927 99.185467 
L 164.236158 106.223959 
L 164.684622 97.557075 
L 164.908853 98.866062 
L 165.133085 107.196058 
L 165.581548 96.713874 
L 165.80578 101.201197 
L 166.030011 101.016475 
L 166.254243 102.289031 
L 166.478474 97.561032 
L 166.702706 104.756573 
L 166.926938 106.288387 
L 167.151169 109.449845 
L 167.599632 101.030612 
L 167.823864 100.987778 
L 168.272327 109.976885 
L 168.72079 95.393995 
L 168.945022 102.999755 
L 169.169254 106.313898 
L 169.393485 99.073692 
L 169.617717 95.872213 
L 169.841948 98.121922 
L 170.06618 98.186164 
L 170.290412 108.047073 
L 170.514643 107.538594 
L 170.738875 110.184921 
L 170.963106 110.391862 
L 171.187338 98.250832 
L 171.41157 104.778906 
L 171.860033 93.809123 
L 172.308496 108.418166 
L 172.532728 102.569483 
L 172.756959 103.38678 
L 172.981191 111.241112 
L 173.205422 98.83142 
L 173.653886 96.046919 
L 173.878117 106.888836 
L 174.32658 99.524074 
L 174.550812 101.196704 
L 174.775044 100.576113 
L 174.999275 102.179666 
L 175.223507 101.693116 
L 175.447738 99.736536 
L 175.67197 101.646063 
L 175.896202 95.500951 
L 176.120433 108.022679 
L 176.344665 99.262672 
L 176.568896 105.350831 
L 176.793128 103.172639 
L 177.01736 99.133603 
L 177.241591 102.07783 
L 177.465823 110.194438 
L 177.690054 103.165574 
L 177.914286 104.41898 
L 178.138518 114.373865 
L 178.362749 109.685675 
L 178.586981 99.304457 
L 178.811212 114.18404 
L 179.035444 104.562293 
L 179.259676 111.407211 
L 179.483907 103.2877 
L 179.708139 103.261515 
L 179.93237 97.623908 
L 180.156602 100.095359 
L 180.380834 105.392726 
L 180.605065 100.361859 
L 180.829297 100.964037 
L 181.053528 99.618774 
L 181.27776 103.482257 
L 181.501992 95.869942 
L 181.726223 104.468649 
L 181.950455 98.050475 
L 182.174687 102.942346 
L 182.398918 104.389155 
L 182.62315 95.556531 
L 182.847381 104.275483 
L 183.071613 98.652499 
L 183.520076 112.429064 
L 183.744308 111.540902 
L 184.192771 100.134134 
L 184.417003 115.830861 
L 184.641234 102.073043 
L 184.865466 102.35507 
L 185.089697 94.822429 
L 185.313929 106.900197 
L 185.538161 106.113618 
L 185.762392 104.408022 
L 185.986624 101.365106 
L 186.210855 105.48136 
L 186.435087 96.836998 
L 186.88355 106.953659 
L 187.107782 98.341304 
L 187.332013 102.021218 
L 187.556245 103.193561 
L 187.780477 116.048901 
L 188.22894 102.348687 
L 188.677403 106.438155 
L 188.901635 101.125519 
L 189.125866 99.387175 
L 189.350098 99.201679 
L 189.574329 98.793498 
L 189.798561 119.825447 
L 190.022793 100.277926 
L 190.247024 101.430893 
L 190.471256 101.043435 
L 190.695487 101.123484 
L 190.919719 102.197476 
L 191.368182 99.740584 
L 191.592414 100.439258 
L 192.040877 106.424305 
L 192.265109 113.373663 
L 192.48934 101.770745 
L 192.713572 109.627857 
L 192.937803 109.082454 
L 193.162035 99.296962 
L 193.386267 110.876944 
L 193.610498 102.030664 
L 193.83473 102.598922 
L 194.058961 108.169567 
L 194.283193 105.236771 
L 194.507425 105.867729 
L 194.731656 101.412701 
L 194.955888 105.487677 
L 195.180119 100.635198 
L 195.404351 102.114443 
L 195.628583 105.811341 
L 195.852814 103.956867 
L 195.852814 103.956867 
" clip-path="url(#p3afb001c27)" style="fill: none; stroke: #1e90ff; stroke-width: 0.8; stroke-linecap: square"/>
   </g>
   <g id="line2d_10">
    <path d="M 61.762316 69.938119 
L 62.210779 66.042395 
L 62.435011 66.829398 
L 62.659242 68.79212 
L 62.883474 68.922251 
L 63.107706 63.352782 
L 63.331937 74.553296 
L 63.556169 66.446066 
L 63.7804 71.037357 
L 64.004632 64.481151 
L 64.228864 70.501764 
L 64.453095 65.562622 
L 64.677327 66.325456 
L 64.901558 74.823859 
L 65.12579 67.075066 
L 65.350022 71.210888 
L 65.574253 67.390321 
L 65.798485 71.119358 
L 66.022716 78.441189 
L 66.246948 65.350698 
L 66.47118 71.540027 
L 66.695411 72.80583 
L 66.919643 66.194104 
L 67.143874 75.885164 
L 67.368106 76.155412 
L 67.592338 91.031196 
L 67.816569 71.932012 
L 68.040801 76.328421 
L 68.489264 71.595131 
L 68.713496 73.509241 
L 68.937727 68.695426 
L 69.386191 74.332779 
L 69.610422 68.709075 
L 69.834654 76.96441 
L 70.058885 75.926027 
L 70.283117 83.168135 
L 70.507349 70.715272 
L 70.73158 87.923724 
L 70.955812 67.595935 
L 71.404275 68.943762 
L 71.628507 54.415089 
L 71.852738 72.902598 
L 72.07697 79.160818 
L 72.301201 78.584279 
L 72.525433 79.27463 
L 72.749665 71.303678 
L 72.973896 72.765302 
L 73.198128 82.625175 
L 73.422359 77.628843 
L 73.646591 75.656298 
L 73.870823 76.087795 
L 74.095054 76.038813 
L 74.319286 72.178253 
L 74.543517 76.885986 
L 74.767749 79.100209 
L 74.991981 71.548929 
L 75.216212 83.764739 
L 75.440444 78.886455 
L 75.664675 79.172475 
L 75.888907 80.897456 
L 76.33737 70.005962 
L 76.561602 86.856177 
L 76.785833 75.869035 
L 77.010065 77.506952 
L 77.458528 73.097127 
L 77.68276 77.279534 
L 77.906991 77.797872 
L 78.131223 74.84802 
L 78.355455 81.465638 
L 78.803918 75.646815 
L 79.028149 76.399507 
L 79.252381 79.440006 
L 79.476613 78.57086 
L 79.700844 76.984472 
L 80.149307 82.546494 
L 80.373539 76.531714 
L 80.597771 90.495251 
L 81.046234 79.07744 
L 81.494697 82.103243 
L 81.718929 82.688963 
L 81.94316 84.308708 
L 82.167392 93.764875 
L 82.391623 76.81303 
L 82.615855 88.410598 
L 82.840087 75.210488 
L 83.28855 83.358816 
L 83.512781 78.420365 
L 83.737013 85.550867 
L 83.961245 80.231821 
L 84.185476 79.447992 
L 84.409708 95.172376 
L 84.858171 75.240903 
L 85.082403 86.533442 
L 85.306634 80.439145 
L 85.530866 79.954755 
L 85.755097 81.416991 
L 85.979329 84.548972 
L 86.203561 79.545194 
L 86.427792 81.329136 
L 86.652024 89.683122 
L 86.876255 81.615189 
L 87.100487 87.952215 
L 87.324719 80.561046 
L 87.54895 89.36224 
L 87.773182 77.692957 
L 87.997414 82.48603 
L 88.221645 82.863279 
L 88.445877 87.217089 
L 88.670108 83.271669 
L 88.89434 88.623222 
L 89.118572 82.618868 
L 89.342803 86.602298 
L 89.567035 82.591217 
L 89.791266 94.497617 
L 90.015498 81.616868 
L 90.463961 86.415448 
L 90.688193 79.6172 
L 90.912424 81.269333 
L 91.136656 81.347962 
L 91.360888 80.576543 
L 91.809351 91.001604 
L 92.033582 83.187717 
L 92.257814 89.108016 
L 92.482046 90.742451 
L 92.706277 89.952343 
L 92.930509 86.277477 
L 93.15474 95.909951 
L 93.378972 85.062051 
L 93.603204 87.802793 
L 93.827435 80.33938 
L 94.051667 86.474784 
L 94.275898 85.435376 
L 94.50013 89.952815 
L 94.724362 83.296059 
L 94.948593 86.836739 
L 95.172825 87.726452 
L 95.397056 79.615529 
L 95.84552 95.214895 
L 96.069751 84.798994 
L 96.293983 86.52853 
L 96.518214 86.64138 
L 96.742446 87.073384 
L 96.966678 78.609326 
L 97.190909 97.661617 
L 97.415141 80.914679 
L 97.639372 81.157106 
L 97.863604 93.956196 
L 98.087836 95.200821 
L 98.312067 95.215113 
L 98.76053 87.806399 
L 98.984762 90.409427 
L 99.433225 83.801577 
L 99.657457 91.930754 
L 99.881688 84.387344 
L 100.10592 88.376215 
L 100.330152 83.530611 
L 100.554383 111.264326 
L 100.778615 89.059223 
L 101.002846 91.712783 
L 101.45131 80.330959 
L 101.899773 86.764937 
L 102.348236 90.393734 
L 102.572468 85.639091 
L 102.796699 95.998951 
L 103.020931 87.263069 
L 103.245162 86.095069 
L 103.469394 95.658349 
L 103.693626 87.407023 
L 103.917857 100.155607 
L 104.36632 85.979529 
L 104.590552 96.812048 
L 104.814784 97.736983 
L 105.039015 102.296664 
L 105.263247 90.05983 
L 105.487478 94.115076 
L 105.71171 86.590311 
L 106.160173 90.491782 
L 106.384405 94.108965 
L 106.608637 84.637774 
L 106.832868 96.462211 
L 107.0571 100.700893 
L 107.281331 92.07989 
L 107.505563 88.138251 
L 107.729795 91.033524 
L 107.954026 84.775833 
L 108.178258 83.053163 
L 108.402489 96.172048 
L 108.626721 88.529193 
L 108.850953 92.307516 
L 109.075184 91.630756 
L 109.523647 86.929562 
L 109.747879 94.929602 
L 109.972111 94.916067 
L 110.196342 92.952013 
L 110.420574 94.445174 
L 110.644805 100.823318 
L 110.869037 90.844372 
L 111.093269 103.123056 
L 111.541732 84.214309 
L 111.765963 94.666581 
L 111.990195 92.633831 
L 112.214427 101.604535 
L 112.438658 98.765412 
L 112.887121 91.003138 
L 113.111353 102.403558 
L 113.335585 88.770236 
L 113.784048 97.890576 
L 114.008279 94.051642 
L 114.232511 92.828567 
L 114.456743 88.496429 
L 114.680974 88.595302 
L 114.905206 94.86628 
L 115.129437 85.5946 
L 115.353669 88.969728 
L 115.577901 98.796535 
L 115.802132 91.388474 
L 116.026364 91.709335 
L 116.250595 103.977189 
L 116.699059 91.017329 
L 116.92329 89.451515 
L 117.147522 99.101557 
L 117.595985 82.602418 
L 117.820217 94.568275 
L 118.044448 91.564871 
L 118.26868 92.320552 
L 118.492911 91.309454 
L 118.717143 96.880588 
L 118.941375 88.036405 
L 119.165606 99.423481 
L 119.389838 92.639916 
L 119.614069 102.432372 
L 120.062533 88.463666 
L 120.286764 97.770436 
L 120.510996 98.264169 
L 120.735227 98.243492 
L 120.959459 88.67234 
L 121.183691 88.815691 
L 121.407922 94.366538 
L 121.632154 93.980112 
L 121.856385 90.669952 
L 122.080617 101.577173 
L 122.304849 89.30969 
L 122.52908 92.522766 
L 122.753312 93.126454 
L 122.977543 94.931094 
L 123.201775 94.424563 
L 123.426007 95.240848 
L 123.650238 110.123051 
L 123.87447 94.057513 
L 124.098701 102.830086 
L 124.322933 100.419797 
L 124.547165 99.342197 
L 124.995628 87.053222 
L 125.219859 95.405876 
L 125.444091 94.066868 
L 125.668323 93.969338 
L 125.892554 98.523488 
L 126.116786 92.215373 
L 126.341018 93.122556 
L 126.565249 104.817135 
L 126.789481 97.428929 
L 127.013712 95.224641 
L 127.237944 90.473259 
L 127.462176 104.464814 
L 127.686407 94.242601 
L 127.910639 93.17695 
L 128.13487 121.580696 
L 128.583334 91.454335 
L 128.807565 96.540125 
L 129.031797 95.560459 
L 129.256028 103.036718 
L 129.48026 120.521027 
L 129.704492 98.646553 
L 129.928723 89.928668 
L 130.152955 96.73629 
L 130.377186 89.704147 
L 130.601418 98.005679 
L 130.82565 89.082674 
L 131.274113 105.315223 
L 131.498344 101.20627 
L 131.722576 100.374854 
L 131.946808 93.542803 
L 132.171039 99.393738 
L 132.395271 91.144227 
L 132.619502 92.881047 
L 132.843734 93.611365 
L 133.067966 101.235474 
L 133.292197 92.667555 
L 133.516429 95.872363 
L 133.74066 94.445172 
L 133.964892 90.405704 
L 134.189124 98.831852 
L 134.413355 102.368522 
L 134.637587 93.727526 
L 134.861818 100.130706 
L 135.08605 89.487546 
L 135.310282 93.04199 
L 135.534513 93.129795 
L 135.758745 93.94441 
L 135.982976 105.740218 
L 136.207208 98.618487 
L 136.43144 100.873153 
L 136.655671 95.62733 
L 136.879903 94.3986 
L 137.104134 102.013869 
L 137.328366 92.90755 
L 137.552598 101.414429 
L 138.001061 91.211669 
L 138.225292 102.343131 
L 138.449524 95.325655 
L 138.673756 112.582729 
L 138.897987 90.938828 
L 139.122219 101.91594 
L 139.34645 103.467554 
L 139.794914 92.350038 
L 140.019145 101.852143 
L 140.243377 91.294409 
L 140.467608 98.423226 
L 140.69184 95.147414 
L 140.916072 96.043735 
L 141.140303 95.214885 
L 141.364535 97.253622 
L 141.588766 93.622109 
L 141.812998 99.784157 
L 142.03723 92.055155 
L 142.261461 110.813546 
L 142.485693 102.171678 
L 142.709924 105.082034 
L 143.382619 94.780262 
L 143.606851 99.091254 
L 143.831082 95.221795 
L 144.055314 93.488753 
L 144.279546 100.0703 
L 144.503777 92.708012 
L 144.728009 97.10204 
L 144.952241 94.258328 
L 145.176472 95.859991 
L 145.400704 91.985894 
L 145.624935 94.772874 
L 145.849167 95.780554 
L 146.073399 102.560699 
L 146.29763 98.402087 
L 146.521862 97.734253 
L 146.970325 100.395456 
L 147.194557 110.17354 
L 147.418788 97.904045 
L 147.64302 107.77391 
L 147.867251 92.62526 
L 148.091483 92.717633 
L 148.315715 95.089957 
L 148.764178 105.172466 
L 148.988409 104.962653 
L 149.212641 101.532392 
L 149.436873 96.040722 
L 149.661104 94.525228 
L 149.885336 95.641937 
L 150.109567 94.506019 
L 150.333799 92.043405 
L 150.782262 104.212741 
L 151.006494 94.881679 
L 151.230725 95.181641 
L 151.679189 98.251685 
L 151.90342 103.139262 
L 152.127652 93.991121 
L 152.351883 99.932884 
L 152.576115 93.805795 
L 152.800347 94.594806 
L 153.024578 103.076329 
L 153.24881 99.378753 
L 153.473041 103.872624 
L 153.697273 97.282183 
L 153.921505 98.185574 
L 154.145736 96.832277 
L 154.369968 96.446826 
L 154.594199 116.875927 
L 154.818431 103.432836 
L 155.042663 97.406313 
L 155.491126 104.121368 
L 155.715357 95.92731 
L 155.939589 101.839493 
L 156.163821 98.610261 
L 156.388052 102.607564 
L 156.612284 98.786769 
L 156.836515 124.407273 
L 157.060747 99.926277 
L 157.284979 103.761474 
L 157.733442 98.315833 
L 157.957673 112.508692 
L 158.181905 104.367119 
L 158.406137 102.742167 
L 158.630368 97.499221 
L 158.8546 95.037334 
L 159.078831 101.529979 
L 159.303063 102.904242 
L 159.527295 96.100953 
L 159.751526 106.387126 
L 160.424221 101.406703 
L 160.648453 94.029545 
L 161.096916 104.381129 
L 161.321147 98.632487 
L 161.545379 101.695611 
L 161.769611 109.491221 
L 161.993842 99.521335 
L 162.218074 97.783343 
L 162.442305 100.475404 
L 162.666537 105.191126 
L 162.890769 94.735052 
L 163.115 109.312966 
L 163.339232 113.371437 
L 163.563464 100.434747 
L 163.787695 101.065043 
L 164.011927 99.085482 
L 164.236158 102.103278 
L 164.46039 101.686201 
L 164.684622 98.486971 
L 165.133085 107.2889 
L 165.357316 102.189423 
L 165.581548 102.104947 
L 165.80578 99.930724 
L 166.030011 100.502642 
L 166.254243 105.175261 
L 166.478474 100.444287 
L 166.702706 104.988059 
L 166.926938 102.3898 
L 167.151169 109.163332 
L 167.375401 106.900301 
L 167.599632 97.915007 
L 167.823864 101.260348 
L 168.048096 117.867203 
L 168.272327 102.447498 
L 168.496559 108.877962 
L 168.72079 96.233547 
L 168.945022 107.309998 
L 169.169254 105.429494 
L 169.393485 97.112924 
L 169.617717 97.433124 
L 169.841948 99.190547 
L 170.06618 97.222242 
L 170.514643 109.304798 
L 170.738875 108.833053 
L 170.963106 113.321569 
L 171.187338 98.489529 
L 171.41157 102.420238 
L 171.635801 100.521322 
L 171.860033 95.188094 
L 172.308496 116.167607 
L 172.532728 107.756465 
L 172.756959 112.948885 
L 173.205422 99.580185 
L 173.429654 98.490829 
L 173.653886 95.56831 
L 173.878117 106.555708 
L 174.102349 108.613449 
L 174.32658 98.553235 
L 174.775044 100.781548 
L 174.999275 101.12148 
L 175.223507 104.886257 
L 175.447738 100.704584 
L 175.67197 104.05166 
L 175.896202 95.249826 
L 176.120433 109.305031 
L 176.344665 102.046333 
L 176.568896 112.893488 
L 176.793128 104.05418 
L 177.01736 101.044023 
L 177.241591 107.153646 
L 177.465823 109.366571 
L 177.690054 102.570522 
L 177.914286 101.902253 
L 178.138518 120.811355 
L 178.362749 103.631251 
L 178.586981 103.671 
L 178.811212 117.819501 
L 179.035444 102.979178 
L 179.259676 113.15642 
L 179.483907 100.769255 
L 179.708139 109.509361 
L 179.93237 99.323886 
L 180.156602 100.408477 
L 180.380834 108.303234 
L 180.605065 102.775957 
L 180.829297 102.926411 
L 181.053528 97.140206 
L 181.27776 104.253165 
L 181.501992 98.635342 
L 181.726223 101.576384 
L 181.950455 99.931097 
L 182.174687 104.210958 
L 182.398918 105.331804 
L 182.62315 98.329601 
L 182.847381 104.257931 
L 183.071613 100.90501 
L 183.520076 117.683735 
L 184.192771 103.196573 
L 184.417003 111.645843 
L 184.641234 105.16202 
L 184.865466 103.499884 
L 185.089697 97.883359 
L 185.538161 108.32388 
L 185.986624 102.860888 
L 186.210855 109.96727 
L 186.435087 100.630424 
L 186.659319 106.377484 
L 186.88355 107.641376 
L 187.107782 98.249115 
L 187.332013 102.378933 
L 187.556245 112.191583 
L 187.780477 107.060385 
L 188.004708 105.23277 
L 188.22894 102.446986 
L 188.453171 103.243662 
L 188.677403 104.703221 
L 188.901635 102.847978 
L 189.125866 103.075966 
L 189.350098 101.823029 
L 189.574329 101.61551 
L 189.798561 106.971195 
L 190.022793 102.750347 
L 190.247024 102.625698 
L 190.471256 101.408676 
L 190.695487 107.008668 
L 191.143951 100.016137 
L 191.368182 100.637138 
L 191.592414 100.889753 
L 191.816645 111.334077 
L 192.040877 106.05674 
L 192.265109 110.794056 
L 192.48934 102.902146 
L 192.937803 108.520604 
L 193.162035 102.784663 
L 193.386267 114.653419 
L 193.610498 103.881784 
L 193.83473 104.833936 
L 194.058961 115.951695 
L 194.283193 107.5058 
L 194.507425 103.751423 
L 194.955888 109.101372 
L 195.180119 102.709397 
L 195.404351 103.892663 
L 195.628583 107.190809 
L 195.852814 102.174311 
L 195.852814 102.174311 
" clip-path="url(#p3afb001c27)" style="fill: none; stroke: #ff0000; stroke-width: 0.8; stroke-linecap: square"/>
   </g>
   <g id="patch_3">
    <path d="M 59.52 129.12 
L 59.52 25.44 
" style="fill: none; stroke: #000000; stroke-width: 0.8; stroke-linejoin: miter; stroke-linecap: square"/>
   </g>
   <g id="patch_4">
    <path d="M 198.319362 129.12 
L 198.319362 25.44 
" style="fill: none; stroke: #000000; stroke-width: 0.8; stroke-linejoin: miter; stroke-linecap: square"/>
   </g>
   <g id="patch_5">
    <path d="M 59.52 129.12 
L 198.319362 129.12 
" style="fill: none; stroke: #000000; stroke-width: 0.8; stroke-linejoin: miter; stroke-linecap: square"/>
   </g>
   <g id="patch_6">
    <path d="M 59.52 25.44 
L 198.319362 25.44 
" style="fill: none; stroke: #000000; stroke-width: 0.8; stroke-linejoin: miter; stroke-linecap: square"/>
   </g>
   <g id="text_10">
    <!-- Frequency Domain Plot -->
    <g transform="translate(59.520306 19.44) scale(0.12 -0.12)">
     <defs>
      <path id="DejaVuSans-44" d="M 1259 4147 
L 1259 519 
L 2022 519 
Q 2988 519 3436 956 
Q 3884 1394 3884 2338 
Q 3884 3275 3436 3711 
Q 2988 4147 2022 4147 
L 1259 4147 
z
M 628 4666 
L 1925 4666 
Q 3281 4666 3915 4102 
Q 4550 3538 4550 2338 
Q 4550 1131 3912 565 
Q 3275 0 1925 0 
L 628 0 
L 628 4666 
z
" transform="scale(0.015625)"/>
      <path id="DejaVuSans-6d" d="M 3328 2828 
Q 3544 3216 3844 3400 
Q 4144 3584 4550 3584 
Q 5097 3584 5394 3201 
Q 5691 2819 5691 2113 
L 5691 0 
L 5113 0 
L 5113 2094 
Q 5113 2597 4934 2840 
Q 4756 3084 4391 3084 
Q 3944 3084 3684 2787 
Q 3425 2491 3425 1978 
L 3425 0 
L 2847 0 
L 2847 2094 
Q 2847 2600 2669 2842 
Q 2491 3084 2119 3084 
Q 1678 3084 1418 2786 
Q 1159 2488 1159 1978 
L 1159 0 
L 581 0 
L 581 3500 
L 1159 3500 
L 1159 2956 
Q 1356 3278 1631 3431 
Q 1906 3584 2284 3584 
Q 2666 3584 2933 3390 
Q 3200 3197 3328 2828 
z
" transform="scale(0.015625)"/>
      <path id="DejaVuSans-61" d="M 2194 1759 
Q 1497 1759 1228 1600 
Q 959 1441 959 1056 
Q 959 750 1161 570 
Q 1363 391 1709 391 
Q 2188 391 2477 730 
Q 2766 1069 2766 1631 
L 2766 1759 
L 2194 1759 
z
M 3341 1997 
L 3341 0 
L 2766 0 
L 2766 531 
Q 2569 213 2275 61 
Q 1981 -91 1556 -91 
Q 1019 -91 701 211 
Q 384 513 384 1019 
Q 384 1609 779 1909 
Q 1175 2209 1959 2209 
L 2766 2209 
L 2766 2266 
Q 2766 2663 2505 2880 
Q 2244 3097 1772 3097 
Q 1472 3097 1187 3025 
Q 903 2953 641 2809 
L 641 3341 
Q 956 3463 1253 3523 
Q 1550 3584 1831 3584 
Q 2591 3584 2966 3190 
Q 3341 2797 3341 1997 
z
" transform="scale(0.015625)"/>
      <path id="DejaVuSans-69" d="M 603 3500 
L 1178 3500 
L 1178 0 
L 603 0 
L 603 3500 
z
M 603 4863 
L 1178 4863 
L 1178 4134 
L 603 4134 
L 603 4863 
z
" transform="scale(0.015625)"/>
      <path id="DejaVuSans-50" d="M 1259 4147 
L 1259 2394 
L 2053 2394 
Q 2494 2394 2734 2622 
Q 2975 2850 2975 3272 
Q 2975 3691 2734 3919 
Q 2494 4147 2053 4147 
L 1259 4147 
z
M 628 4666 
L 2053 4666 
Q 2838 4666 3239 4311 
Q 3641 3956 3641 3272 
Q 3641 2581 3239 2228 
Q 2838 1875 2053 1875 
L 1259 1875 
L 1259 0 
L 628 0 
L 628 4666 
z
" transform="scale(0.015625)"/>
      <path id="DejaVuSans-6c" d="M 603 4863 
L 1178 4863 
L 1178 0 
L 603 0 
L 603 4863 
z
" transform="scale(0.015625)"/>
      <path id="DejaVuSans-74" d="M 1172 4494 
L 1172 3500 
L 2356 3500 
L 2356 3053 
L 1172 3053 
L 1172 1153 
Q 1172 725 1289 603 
Q 1406 481 1766 481 
L 2356 481 
L 2356 0 
L 1766 0 
Q 1100 0 847 248 
Q 594 497 594 1153 
L 594 3053 
L 172 3053 
L 172 3500 
L 594 3500 
L 594 4494 
L 1172 4494 
z
" transform="scale(0.015625)"/>
     </defs>
     <use xlink:href="#DejaVuSans-46"/>
     <use xlink:href="#DejaVuSans-72" x="50.269531"/>
     <use xlink:href="#DejaVuSans-65" x="89.132812"/>
     <use xlink:href="#DejaVuSans-71" x="150.65625"/>
     <use xlink:href="#DejaVuSans-75" x="214.132812"/>
     <use xlink:href="#DejaVuSans-65" x="277.511719"/>
     <use xlink:href="#DejaVuSans-6e" x="339.035156"/>
     <use xlink:href="#DejaVuSans-63" x="402.414062"/>
     <use xlink:href="#DejaVuSans-79" x="457.394531"/>
     <use xlink:href="#DejaVuSans-20" x="516.574219"/>
     <use xlink:href="#DejaVuSans-44" x="548.361328"/>
     <use xlink:href="#DejaVuSans-6f" x="625.363281"/>
     <use xlink:href="#DejaVuSans-6d" x="686.544922"/>
     <use xlink:href="#DejaVuSans-61" x="783.957031"/>
     <use xlink:href="#DejaVuSans-69" x="845.236328"/>
     <use xlink:href="#DejaVuSans-6e" x="873.019531"/>
     <use xlink:href="#DejaVuSans-20" x="936.398438"/>
     <use xlink:href="#DejaVuSans-50" x="968.185547"/>
     <use xlink:href="#DejaVuSans-6c" x="1028.488281"/>
     <use xlink:href="#DejaVuSans-6f" x="1056.271484"/>
     <use xlink:href="#DejaVuSans-74" x="1117.453125"/>
    </g>
   </g>
   <g id="legend_1">
    <g id="patch_7">
     <path d="M 19.980191 158.724 
L 50.848316 158.724 
Q 51.448316 158.724 51.448316 158.124 
L 51.448316 145.213687 
Q 51.448316 144.613687 50.848316 144.613687 
L 19.980191 144.613687 
Q 19.380191 144.613687 19.380191 145.213687 
L 19.380191 158.124 
Q 19.380191 158.724 19.980191 158.724 
z
" style="fill: #ffffff; opacity: 0.8; stroke: #cccccc; stroke-linejoin: miter"/>
    </g>
    <g id="line2d_11">
     <path d="M 20.580191 147.043219 
L 23.580191 147.043219 
L 26.580191 147.043219 
" style="fill: none; stroke: #808080; stroke-width: 0.8; stroke-linecap: square"/>
    </g>
    <g id="text_11">
     <!-- Contaminated -->
     <g transform="translate(28.980191 148.093219) scale(0.03 -0.03)">
      <defs>
       <path id="DejaVuSans-43" d="M 4122 4306 
L 4122 3641 
Q 3803 3938 3442 4084 
Q 3081 4231 2675 4231 
Q 1875 4231 1450 3742 
Q 1025 3253 1025 2328 
Q 1025 1406 1450 917 
Q 1875 428 2675 428 
Q 3081 428 3442 575 
Q 3803 722 4122 1019 
L 4122 359 
Q 3791 134 3420 21 
Q 3050 -91 2638 -91 
Q 1578 -91 968 557 
Q 359 1206 359 2328 
Q 359 3453 968 4101 
Q 1578 4750 2638 4750 
Q 3056 4750 3426 4639 
Q 3797 4528 4122 4306 
z
" transform="scale(0.015625)"/>
      </defs>
      <use xlink:href="#DejaVuSans-43"/>
      <use xlink:href="#DejaVuSans-6f" x="69.824219"/>
      <use xlink:href="#DejaVuSans-6e" x="131.005859"/>
      <use xlink:href="#DejaVuSans-74" x="194.384766"/>
      <use xlink:href="#DejaVuSans-61" x="233.59375"/>
      <use xlink:href="#DejaVuSans-6d" x="294.873047"/>
      <use xlink:href="#DejaVuSans-69" x="392.285156"/>
      <use xlink:href="#DejaVuSans-6e" x="420.068359"/>
      <use xlink:href="#DejaVuSans-61" x="483.447266"/>
      <use xlink:href="#DejaVuSans-74" x="544.726562"/>
      <use xlink:href="#DejaVuSans-65" x="583.935547"/>
      <use xlink:href="#DejaVuSans-64" x="645.458984"/>
     </g>
    </g>
    <g id="line2d_12">
     <path d="M 20.580191 151.446656 
L 23.580191 151.446656 
L 26.580191 151.446656 
" style="fill: none; stroke: #1e90ff; stroke-width: 0.8; stroke-linecap: square"/>
    </g>
    <g id="text_12">
     <!-- Clean -->
     <g transform="translate(28.980191 152.496656) scale(0.03 -0.03)">
      <use xlink:href="#DejaVuSans-43"/>
      <use xlink:href="#DejaVuSans-6c" x="69.824219"/>
      <use xlink:href="#DejaVuSans-65" x="97.607422"/>
      <use xlink:href="#DejaVuSans-61" x="159.130859"/>
      <use xlink:href="#DejaVuSans-6e" x="220.410156"/>
     </g>
    </g>
    <g id="line2d_13">
     <path d="M 20.580191 155.850094 
L 23.580191 155.850094 
L 26.580191 155.850094 
" style="fill: none; stroke: #ff0000; stroke-width: 0.8; stroke-linecap: square"/>
    </g>
    <g id="text_13">
     <!-- SACed -->
     <g transform="translate(28.980191 156.900094) scale(0.03 -0.03)">
      <defs>
       <path id="DejaVuSans-53" d="M 3425 4513 
L 3425 3897 
Q 3066 4069 2747 4153 
Q 2428 4238 2131 4238 
Q 1616 4238 1336 4038 
Q 1056 3838 1056 3469 
Q 1056 3159 1242 3001 
Q 1428 2844 1947 2747 
L 2328 2669 
Q 3034 2534 3370 2195 
Q 3706 1856 3706 1288 
Q 3706 609 3251 259 
Q 2797 -91 1919 -91 
Q 1588 -91 1214 -16 
Q 841 59 441 206 
L 441 856 
Q 825 641 1194 531 
Q 1563 422 1919 422 
Q 2459 422 2753 634 
Q 3047 847 3047 1241 
Q 3047 1584 2836 1778 
Q 2625 1972 2144 2069 
L 1759 2144 
Q 1053 2284 737 2584 
Q 422 2884 422 3419 
Q 422 4038 858 4394 
Q 1294 4750 2059 4750 
Q 2388 4750 2728 4690 
Q 3069 4631 3425 4513 
z
" transform="scale(0.015625)"/>
       <path id="DejaVuSans-41" d="M 2188 4044 
L 1331 1722 
L 3047 1722 
L 2188 4044 
z
M 1831 4666 
L 2547 4666 
L 4325 0 
L 3669 0 
L 3244 1197 
L 1141 1197 
L 716 0 
L 50 0 
L 1831 4666 
z
" transform="scale(0.015625)"/>
      </defs>
      <use xlink:href="#DejaVuSans-53"/>
      <use xlink:href="#DejaVuSans-41" x="65.351562"/>
      <use xlink:href="#DejaVuSans-43" x="132.009766"/>
      <use xlink:href="#DejaVuSans-65" x="201.833984"/>
      <use xlink:href="#DejaVuSans-64" x="263.357422"/>
     </g>
    </g>
   </g>
  </g>
 </g>
 <defs>
  <clipPath id="p3afb001c27">
   <rect x="59.52" y="25.44" width="138.799362" height="103.68"/>
  </clipPath>
 </defs>
</svg>
