<?xml version="1.0" encoding="utf-8" standalone="no"?>
<!DOCTYPE svg PUBLIC "-//W3C//DTD SVG 1.1//EN"
  "http://www.w3.org/Graphics/SVG/1.1/DTD/svg11.dtd">
<svg xmlns:xlink="http://www.w3.org/1999/xlink" width="216pt" height="180pt" viewBox="0 0 216 180" xmlns="http://www.w3.org/2000/svg" version="1.1">
 <metadata>
  <rdf:RDF xmlns:dc="http://purl.org/dc/elements/1.1/" xmlns:cc="http://creativecommons.org/ns#" xmlns:rdf="http://www.w3.org/1999/02/22-rdf-syntax-ns#">
   <cc:Work>
    <dc:type rdf:resource="http://purl.org/dc/dcmitype/StillImage"/>
    <dc:date>2024-08-24T22:04:33.179624</dc:date>
    <dc:format>image/svg+xml</dc:format>
    <dc:creator>
     <cc:Agent>
      <dc:title>Matplotlib v3.9.1, https://matplotlib.org/</dc:title>
     </cc:Agent>
    </dc:creator>
   </cc:Work>
  </rdf:RDF>
 </metadata>
 <defs>
  <style type="text/css">*{stroke-linejoin: round; stroke-linecap: butt}</style>
 </defs>
 <g id="figure_1">
  <g id="patch_1">
   <path d="M 0 180 
L 216 180 
L 216 0 
L 0 0 
z
" style="fill: #ffffff"/>
  </g>
  <g id="axes_1">
   <g id="patch_2">
    <path d="M 59.52 129.12 
L 198.454362 129.12 
L 198.454362 26.88 
L 59.52 26.88 
z
" style="fill: #ffffff"/>
   </g>
   <g id="matplotlib.axis_1">
    <g id="xtick_1">
     <g id="line2d_1">
      <defs>
       <path id="mb390174514" d="M 0 0 
L 0 3.5 
" style="stroke: #000000; stroke-width: 0.8"/>
      </defs>
      <g>
       <use xlink:href="#mb390174514" x="61.540047" y="129.12" style="stroke: #000000; stroke-width: 0.8"/>
      </g>
     </g>
     <g id="text_1">
      <!-- 0 -->
      <g transform="translate(58.358797 143.718437) scale(0.1 -0.1)">
       <defs>
        <path id="DejaVuSans-30" d="M 2034 4250 
Q 1547 4250 1301 3770 
Q 1056 3291 1056 2328 
Q 1056 1369 1301 889 
Q 1547 409 2034 409 
Q 2525 409 2770 889 
Q 3016 1369 3016 2328 
Q 3016 3291 2770 3770 
Q 2525 4250 2034 4250 
z
M 2034 4750 
Q 2819 4750 3233 4129 
Q 3647 3509 3647 2328 
Q 3647 1150 3233 529 
Q 2819 -91 2034 -91 
Q 1250 -91 836 529 
Q 422 1150 422 2328 
Q 422 3509 836 4129 
Q 1250 4750 2034 4750 
z
" transform="scale(0.015625)"/>
       </defs>
       <use xlink:href="#DejaVuSans-30"/>
      </g>
     </g>
    </g>
    <g id="xtick_2">
     <g id="line2d_2">
      <g>
       <use xlink:href="#mb390174514" x="128.874956" y="129.12" style="stroke: #000000; stroke-width: 0.8"/>
      </g>
     </g>
     <g id="text_2">
      <!-- 150 -->
      <g transform="translate(119.331206 143.718437) scale(0.1 -0.1)">
       <defs>
        <path id="DejaVuSans-31" d="M 794 531 
L 1825 531 
L 1825 4091 
L 703 3866 
L 703 4441 
L 1819 4666 
L 2450 4666 
L 2450 531 
L 3481 531 
L 3481 0 
L 794 0 
L 794 531 
z
" transform="scale(0.015625)"/>
        <path id="DejaVuSans-35" d="M 691 4666 
L 3169 4666 
L 3169 4134 
L 1269 4134 
L 1269 2991 
Q 1406 3038 1543 3061 
Q 1681 3084 1819 3084 
Q 2600 3084 3056 2656 
Q 3513 2228 3513 1497 
Q 3513 744 3044 326 
Q 2575 -91 1722 -91 
Q 1428 -91 1123 -41 
Q 819 9 494 109 
L 494 744 
Q 775 591 1075 516 
Q 1375 441 1709 441 
Q 2250 441 2565 725 
Q 2881 1009 2881 1497 
Q 2881 1984 2565 2268 
Q 2250 2553 1709 2553 
Q 1456 2553 1204 2497 
Q 953 2441 691 2322 
L 691 4666 
z
" transform="scale(0.015625)"/>
       </defs>
       <use xlink:href="#DejaVuSans-31"/>
       <use xlink:href="#DejaVuSans-35" x="63.623047"/>
       <use xlink:href="#DejaVuSans-30" x="127.246094"/>
      </g>
     </g>
    </g>
    <g id="xtick_3">
     <g id="line2d_3">
      <g>
       <use xlink:href="#mb390174514" x="196.209865" y="129.12" style="stroke: #000000; stroke-width: 0.8"/>
      </g>
     </g>
     <g id="text_3">
      <!-- 300 -->
      <g transform="translate(186.666115 143.718437) scale(0.1 -0.1)">
       <defs>
        <path id="DejaVuSans-33" d="M 2597 2516 
Q 3050 2419 3304 2112 
Q 3559 1806 3559 1356 
Q 3559 666 3084 287 
Q 2609 -91 1734 -91 
Q 1441 -91 1130 -33 
Q 819 25 488 141 
L 488 750 
Q 750 597 1062 519 
Q 1375 441 1716 441 
Q 2309 441 2620 675 
Q 2931 909 2931 1356 
Q 2931 1769 2642 2001 
Q 2353 2234 1838 2234 
L 1294 2234 
L 1294 2753 
L 1863 2753 
Q 2328 2753 2575 2939 
Q 2822 3125 2822 3475 
Q 2822 3834 2567 4026 
Q 2313 4219 1838 4219 
Q 1578 4219 1281 4162 
Q 984 4106 628 3988 
L 628 4550 
Q 988 4650 1302 4700 
Q 1616 4750 1894 4750 
Q 2613 4750 3031 4423 
Q 3450 4097 3450 3541 
Q 3450 3153 3228 2886 
Q 3006 2619 2597 2516 
z
" transform="scale(0.015625)"/>
       </defs>
       <use xlink:href="#DejaVuSans-33"/>
       <use xlink:href="#DejaVuSans-30" x="63.623047"/>
       <use xlink:href="#DejaVuSans-30" x="127.246094"/>
      </g>
     </g>
    </g>
    <g id="text_4">
     <!-- Frequency (Hz) -->
     <g transform="translate(91.282493 157.396563) scale(0.1 -0.1)">
      <defs>
       <path id="DejaVuSans-46" d="M 628 4666 
L 3309 4666 
L 3309 4134 
L 1259 4134 
L 1259 2759 
L 3109 2759 
L 3109 2228 
L 1259 2228 
L 1259 0 
L 628 0 
L 628 4666 
z
" transform="scale(0.015625)"/>
       <path id="DejaVuSans-72" d="M 2631 2963 
Q 2534 3019 2420 3045 
Q 2306 3072 2169 3072 
Q 1681 3072 1420 2755 
Q 1159 2438 1159 1844 
L 1159 0 
L 581 0 
L 581 3500 
L 1159 3500 
L 1159 2956 
Q 1341 3275 1631 3429 
Q 1922 3584 2338 3584 
Q 2397 3584 2469 3576 
Q 2541 3569 2628 3553 
L 2631 2963 
z
" transform="scale(0.015625)"/>
       <path id="DejaVuSans-65" d="M 3597 1894 
L 3597 1613 
L 953 1613 
Q 991 1019 1311 708 
Q 1631 397 2203 397 
Q 2534 397 2845 478 
Q 3156 559 3463 722 
L 3463 178 
Q 3153 47 2828 -22 
Q 2503 -91 2169 -91 
Q 1331 -91 842 396 
Q 353 884 353 1716 
Q 353 2575 817 3079 
Q 1281 3584 2069 3584 
Q 2775 3584 3186 3129 
Q 3597 2675 3597 1894 
z
M 3022 2063 
Q 3016 2534 2758 2815 
Q 2500 3097 2075 3097 
Q 1594 3097 1305 2825 
Q 1016 2553 972 2059 
L 3022 2063 
z
" transform="scale(0.015625)"/>
       <path id="DejaVuSans-71" d="M 947 1747 
Q 947 1113 1208 752 
Q 1469 391 1925 391 
Q 2381 391 2643 752 
Q 2906 1113 2906 1747 
Q 2906 2381 2643 2742 
Q 2381 3103 1925 3103 
Q 1469 3103 1208 2742 
Q 947 2381 947 1747 
z
M 2906 525 
Q 2725 213 2448 61 
Q 2172 -91 1784 -91 
Q 1150 -91 751 415 
Q 353 922 353 1747 
Q 353 2572 751 3078 
Q 1150 3584 1784 3584 
Q 2172 3584 2448 3432 
Q 2725 3281 2906 2969 
L 2906 3500 
L 3481 3500 
L 3481 -1331 
L 2906 -1331 
L 2906 525 
z
" transform="scale(0.015625)"/>
       <path id="DejaVuSans-75" d="M 544 1381 
L 544 3500 
L 1119 3500 
L 1119 1403 
Q 1119 906 1312 657 
Q 1506 409 1894 409 
Q 2359 409 2629 706 
Q 2900 1003 2900 1516 
L 2900 3500 
L 3475 3500 
L 3475 0 
L 2900 0 
L 2900 538 
Q 2691 219 2414 64 
Q 2138 -91 1772 -91 
Q 1169 -91 856 284 
Q 544 659 544 1381 
z
M 1991 3584 
L 1991 3584 
z
" transform="scale(0.015625)"/>
       <path id="DejaVuSans-6e" d="M 3513 2113 
L 3513 0 
L 2938 0 
L 2938 2094 
Q 2938 2591 2744 2837 
Q 2550 3084 2163 3084 
Q 1697 3084 1428 2787 
Q 1159 2491 1159 1978 
L 1159 0 
L 581 0 
L 581 3500 
L 1159 3500 
L 1159 2956 
Q 1366 3272 1645 3428 
Q 1925 3584 2291 3584 
Q 2894 3584 3203 3211 
Q 3513 2838 3513 2113 
z
" transform="scale(0.015625)"/>
       <path id="DejaVuSans-63" d="M 3122 3366 
L 3122 2828 
Q 2878 2963 2633 3030 
Q 2388 3097 2138 3097 
Q 1578 3097 1268 2742 
Q 959 2388 959 1747 
Q 959 1106 1268 751 
Q 1578 397 2138 397 
Q 2388 397 2633 464 
Q 2878 531 3122 666 
L 3122 134 
Q 2881 22 2623 -34 
Q 2366 -91 2075 -91 
Q 1284 -91 818 406 
Q 353 903 353 1747 
Q 353 2603 823 3093 
Q 1294 3584 2113 3584 
Q 2378 3584 2631 3529 
Q 2884 3475 3122 3366 
z
" transform="scale(0.015625)"/>
       <path id="DejaVuSans-79" d="M 2059 -325 
Q 1816 -950 1584 -1140 
Q 1353 -1331 966 -1331 
L 506 -1331 
L 506 -850 
L 844 -850 
Q 1081 -850 1212 -737 
Q 1344 -625 1503 -206 
L 1606 56 
L 191 3500 
L 800 3500 
L 1894 763 
L 2988 3500 
L 3597 3500 
L 2059 -325 
z
" transform="scale(0.015625)"/>
       <path id="DejaVuSans-20" transform="scale(0.015625)"/>
       <path id="DejaVuSans-28" d="M 1984 4856 
Q 1566 4138 1362 3434 
Q 1159 2731 1159 2009 
Q 1159 1288 1364 580 
Q 1569 -128 1984 -844 
L 1484 -844 
Q 1016 -109 783 600 
Q 550 1309 550 2009 
Q 550 2706 781 3412 
Q 1013 4119 1484 4856 
L 1984 4856 
z
" transform="scale(0.015625)"/>
       <path id="DejaVuSans-48" d="M 628 4666 
L 1259 4666 
L 1259 2753 
L 3553 2753 
L 3553 4666 
L 4184 4666 
L 4184 0 
L 3553 0 
L 3553 2222 
L 1259 2222 
L 1259 0 
L 628 0 
L 628 4666 
z
" transform="scale(0.015625)"/>
       <path id="DejaVuSans-7a" d="M 353 3500 
L 3084 3500 
L 3084 2975 
L 922 459 
L 3084 459 
L 3084 0 
L 275 0 
L 275 525 
L 2438 3041 
L 353 3041 
L 353 3500 
z
" transform="scale(0.015625)"/>
       <path id="DejaVuSans-29" d="M 513 4856 
L 1013 4856 
Q 1481 4119 1714 3412 
Q 1947 2706 1947 2009 
Q 1947 1309 1714 600 
Q 1481 -109 1013 -844 
L 513 -844 
Q 928 -128 1133 580 
Q 1338 1288 1338 2009 
Q 1338 2731 1133 3434 
Q 928 4138 513 4856 
z
" transform="scale(0.015625)"/>
      </defs>
      <use xlink:href="#DejaVuSans-46"/>
      <use xlink:href="#DejaVuSans-72" x="50.269531"/>
      <use xlink:href="#DejaVuSans-65" x="89.132812"/>
      <use xlink:href="#DejaVuSans-71" x="150.65625"/>
      <use xlink:href="#DejaVuSans-75" x="214.132812"/>
      <use xlink:href="#DejaVuSans-65" x="277.511719"/>
      <use xlink:href="#DejaVuSans-6e" x="339.035156"/>
      <use xlink:href="#DejaVuSans-63" x="402.414062"/>
      <use xlink:href="#DejaVuSans-79" x="457.394531"/>
      <use xlink:href="#DejaVuSans-20" x="516.574219"/>
      <use xlink:href="#DejaVuSans-28" x="548.361328"/>
      <use xlink:href="#DejaVuSans-48" x="587.375"/>
      <use xlink:href="#DejaVuSans-7a" x="662.570312"/>
      <use xlink:href="#DejaVuSans-29" x="715.060547"/>
     </g>
    </g>
   </g>
   <g id="matplotlib.axis_2">
    <g id="ytick_1">
     <g id="line2d_4">
      <defs>
       <path id="ma99a6de0f9" d="M 0 0 
L -3.5 0 
" style="stroke: #000000; stroke-width: 0.8"/>
      </defs>
      <g>
       <use xlink:href="#ma99a6de0f9" x="59.52" y="111.69919" style="stroke: #000000; stroke-width: 0.8"/>
      </g>
     </g>
     <g id="text_5">
      <!-- $\mathdefault{10^{-4}}$ -->
      <g transform="translate(29.02 115.498409) scale(0.1 -0.1)">
       <defs>
        <path id="DejaVuSans-2212" d="M 678 2272 
L 4684 2272 
L 4684 1741 
L 678 1741 
L 678 2272 
z
" transform="scale(0.015625)"/>
        <path id="DejaVuSans-34" d="M 2419 4116 
L 825 1625 
L 2419 1625 
L 2419 4116 
z
M 2253 4666 
L 3047 4666 
L 3047 1625 
L 3713 1625 
L 3713 1100 
L 3047 1100 
L 3047 0 
L 2419 0 
L 2419 1100 
L 313 1100 
L 313 1709 
L 2253 4666 
z
" transform="scale(0.015625)"/>
       </defs>
       <use xlink:href="#DejaVuSans-31" transform="translate(0 0.684375)"/>
       <use xlink:href="#DejaVuSans-30" transform="translate(63.623047 0.684375)"/>
       <use xlink:href="#DejaVuSans-2212" transform="translate(128.203125 38.965625) scale(0.7)"/>
       <use xlink:href="#DejaVuSans-34" transform="translate(186.855469 38.965625) scale(0.7)"/>
      </g>
     </g>
    </g>
    <g id="ytick_2">
     <g id="line2d_5">
      <g>
       <use xlink:href="#ma99a6de0f9" x="59.52" y="87.01359" style="stroke: #000000; stroke-width: 0.8"/>
      </g>
     </g>
     <g id="text_6">
      <!-- $\mathdefault{10^{-1}}$ -->
      <g transform="translate(29.02 90.812809) scale(0.1 -0.1)">
       <use xlink:href="#DejaVuSans-31" transform="translate(0 0.684375)"/>
       <use xlink:href="#DejaVuSans-30" transform="translate(63.623047 0.684375)"/>
       <use xlink:href="#DejaVuSans-2212" transform="translate(128.203125 38.965625) scale(0.7)"/>
       <use xlink:href="#DejaVuSans-31" transform="translate(186.855469 38.965625) scale(0.7)"/>
      </g>
     </g>
    </g>
    <g id="ytick_3">
     <g id="line2d_6">
      <g>
       <use xlink:href="#ma99a6de0f9" x="59.52" y="62.32799" style="stroke: #000000; stroke-width: 0.8"/>
      </g>
     </g>
     <g id="text_7">
      <!-- $\mathdefault{10^{2}}$ -->
      <g transform="translate(34.92 66.127208) scale(0.1 -0.1)">
       <defs>
        <path id="DejaVuSans-32" d="M 1228 531 
L 3431 531 
L 3431 0 
L 469 0 
L 469 531 
Q 828 903 1448 1529 
Q 2069 2156 2228 2338 
Q 2531 2678 2651 2914 
Q 2772 3150 2772 3378 
Q 2772 3750 2511 3984 
Q 2250 4219 1831 4219 
Q 1534 4219 1204 4116 
Q 875 4013 500 3803 
L 500 4441 
Q 881 4594 1212 4672 
Q 1544 4750 1819 4750 
Q 2544 4750 2975 4387 
Q 3406 4025 3406 3419 
Q 3406 3131 3298 2873 
Q 3191 2616 2906 2266 
Q 2828 2175 2409 1742 
Q 1991 1309 1228 531 
z
" transform="scale(0.015625)"/>
       </defs>
       <use xlink:href="#DejaVuSans-31" transform="translate(0 0.765625)"/>
       <use xlink:href="#DejaVuSans-30" transform="translate(63.623047 0.765625)"/>
       <use xlink:href="#DejaVuSans-32" transform="translate(128.203125 39.046875) scale(0.7)"/>
      </g>
     </g>
    </g>
    <g id="ytick_4">
     <g id="line2d_7">
      <g>
       <use xlink:href="#ma99a6de0f9" x="59.52" y="37.64239" style="stroke: #000000; stroke-width: 0.8"/>
      </g>
     </g>
     <g id="text_8">
      <!-- $\mathdefault{10^{5}}$ -->
      <g transform="translate(34.92 41.441608) scale(0.1 -0.1)">
       <use xlink:href="#DejaVuSans-31" transform="translate(0 0.684375)"/>
       <use xlink:href="#DejaVuSans-30" transform="translate(63.623047 0.684375)"/>
       <use xlink:href="#DejaVuSans-35" transform="translate(128.203125 38.965625) scale(0.7)"/>
      </g>
     </g>
    </g>
    <g id="text_9">
     <!-- Log power (dB/Hz) -->
     <g transform="translate(22.940312 124.139844) rotate(-90) scale(0.1 -0.1)">
      <defs>
       <path id="DejaVuSans-4c" d="M 628 4666 
L 1259 4666 
L 1259 531 
L 3531 531 
L 3531 0 
L 628 0 
L 628 4666 
z
" transform="scale(0.015625)"/>
       <path id="DejaVuSans-6f" d="M 1959 3097 
Q 1497 3097 1228 2736 
Q 959 2375 959 1747 
Q 959 1119 1226 758 
Q 1494 397 1959 397 
Q 2419 397 2687 759 
Q 2956 1122 2956 1747 
Q 2956 2369 2687 2733 
Q 2419 3097 1959 3097 
z
M 1959 3584 
Q 2709 3584 3137 3096 
Q 3566 2609 3566 1747 
Q 3566 888 3137 398 
Q 2709 -91 1959 -91 
Q 1206 -91 779 398 
Q 353 888 353 1747 
Q 353 2609 779 3096 
Q 1206 3584 1959 3584 
z
" transform="scale(0.015625)"/>
       <path id="DejaVuSans-67" d="M 2906 1791 
Q 2906 2416 2648 2759 
Q 2391 3103 1925 3103 
Q 1463 3103 1205 2759 
Q 947 2416 947 1791 
Q 947 1169 1205 825 
Q 1463 481 1925 481 
Q 2391 481 2648 825 
Q 2906 1169 2906 1791 
z
M 3481 434 
Q 3481 -459 3084 -895 
Q 2688 -1331 1869 -1331 
Q 1566 -1331 1297 -1286 
Q 1028 -1241 775 -1147 
L 775 -588 
Q 1028 -725 1275 -790 
Q 1522 -856 1778 -856 
Q 2344 -856 2625 -561 
Q 2906 -266 2906 331 
L 2906 616 
Q 2728 306 2450 153 
Q 2172 0 1784 0 
Q 1141 0 747 490 
Q 353 981 353 1791 
Q 353 2603 747 3093 
Q 1141 3584 1784 3584 
Q 2172 3584 2450 3431 
Q 2728 3278 2906 2969 
L 2906 3500 
L 3481 3500 
L 3481 434 
z
" transform="scale(0.015625)"/>
       <path id="DejaVuSans-70" d="M 1159 525 
L 1159 -1331 
L 581 -1331 
L 581 3500 
L 1159 3500 
L 1159 2969 
Q 1341 3281 1617 3432 
Q 1894 3584 2278 3584 
Q 2916 3584 3314 3078 
Q 3713 2572 3713 1747 
Q 3713 922 3314 415 
Q 2916 -91 2278 -91 
Q 1894 -91 1617 61 
Q 1341 213 1159 525 
z
M 3116 1747 
Q 3116 2381 2855 2742 
Q 2594 3103 2138 3103 
Q 1681 3103 1420 2742 
Q 1159 2381 1159 1747 
Q 1159 1113 1420 752 
Q 1681 391 2138 391 
Q 2594 391 2855 752 
Q 3116 1113 3116 1747 
z
" transform="scale(0.015625)"/>
       <path id="DejaVuSans-77" d="M 269 3500 
L 844 3500 
L 1563 769 
L 2278 3500 
L 2956 3500 
L 3675 769 
L 4391 3500 
L 4966 3500 
L 4050 0 
L 3372 0 
L 2619 2869 
L 1863 0 
L 1184 0 
L 269 3500 
z
" transform="scale(0.015625)"/>
       <path id="DejaVuSans-64" d="M 2906 2969 
L 2906 4863 
L 3481 4863 
L 3481 0 
L 2906 0 
L 2906 525 
Q 2725 213 2448 61 
Q 2172 -91 1784 -91 
Q 1150 -91 751 415 
Q 353 922 353 1747 
Q 353 2572 751 3078 
Q 1150 3584 1784 3584 
Q 2172 3584 2448 3432 
Q 2725 3281 2906 2969 
z
M 947 1747 
Q 947 1113 1208 752 
Q 1469 391 1925 391 
Q 2381 391 2643 752 
Q 2906 1113 2906 1747 
Q 2906 2381 2643 2742 
Q 2381 3103 1925 3103 
Q 1469 3103 1208 2742 
Q 947 2381 947 1747 
z
" transform="scale(0.015625)"/>
       <path id="DejaVuSans-42" d="M 1259 2228 
L 1259 519 
L 2272 519 
Q 2781 519 3026 730 
Q 3272 941 3272 1375 
Q 3272 1813 3026 2020 
Q 2781 2228 2272 2228 
L 1259 2228 
z
M 1259 4147 
L 1259 2741 
L 2194 2741 
Q 2656 2741 2882 2914 
Q 3109 3088 3109 3444 
Q 3109 3797 2882 3972 
Q 2656 4147 2194 4147 
L 1259 4147 
z
M 628 4666 
L 2241 4666 
Q 2963 4666 3353 4366 
Q 3744 4066 3744 3513 
Q 3744 3084 3544 2831 
Q 3344 2578 2956 2516 
Q 3422 2416 3680 2098 
Q 3938 1781 3938 1306 
Q 3938 681 3513 340 
Q 3088 0 2303 0 
L 628 0 
L 628 4666 
z
" transform="scale(0.015625)"/>
       <path id="DejaVuSans-2f" d="M 1625 4666 
L 2156 4666 
L 531 -594 
L 0 -594 
L 1625 4666 
z
" transform="scale(0.015625)"/>
      </defs>
      <use xlink:href="#DejaVuSans-4c"/>
      <use xlink:href="#DejaVuSans-6f" x="53.962891"/>
      <use xlink:href="#DejaVuSans-67" x="115.144531"/>
      <use xlink:href="#DejaVuSans-20" x="178.621094"/>
      <use xlink:href="#DejaVuSans-70" x="210.408203"/>
      <use xlink:href="#DejaVuSans-6f" x="273.884766"/>
      <use xlink:href="#DejaVuSans-77" x="335.066406"/>
      <use xlink:href="#DejaVuSans-65" x="416.853516"/>
      <use xlink:href="#DejaVuSans-72" x="478.376953"/>
      <use xlink:href="#DejaVuSans-20" x="519.490234"/>
      <use xlink:href="#DejaVuSans-28" x="551.277344"/>
      <use xlink:href="#DejaVuSans-64" x="590.291016"/>
      <use xlink:href="#DejaVuSans-42" x="653.767578"/>
      <use xlink:href="#DejaVuSans-2f" x="722.371094"/>
      <use xlink:href="#DejaVuSans-48" x="756.0625"/>
      <use xlink:href="#DejaVuSans-7a" x="831.257812"/>
      <use xlink:href="#DejaVuSans-29" x="883.748047"/>
     </g>
    </g>
   </g>
   <g id="line2d_8">
    <path d="M 61.764497 67.703782 
L 61.988947 72.807169 
L 62.213396 65.146947 
L 62.437846 62.753594 
L 62.662296 68.14973 
L 62.886745 67.100863 
L 63.111195 59.987759 
L 63.335645 70.173619 
L 63.560095 67.658458 
L 64.008994 65.090762 
L 64.233444 70.447977 
L 64.457893 68.1009 
L 64.682343 62.560608 
L 64.906793 71.381177 
L 65.131242 63.457081 
L 65.580142 64.738585 
L 65.804591 72.057481 
L 66.029041 64.528102 
L 66.253491 62.417758 
L 66.477941 64.543307 
L 66.70239 64.946739 
L 66.92684 60.933247 
L 67.15129 72.337063 
L 67.375739 71.781325 
L 67.600189 66.276901 
L 67.824639 70.940622 
L 68.049088 71.093601 
L 68.273538 69.165901 
L 68.722438 67.157103 
L 68.946887 59.744516 
L 69.171337 67.739391 
L 69.395787 67.69499 
L 69.620236 60.962305 
L 69.844686 73.194017 
L 70.293585 65.835397 
L 70.518035 65.096784 
L 70.742485 76.062562 
L 70.966935 61.15122 
L 71.191384 64.266317 
L 71.415834 78.530827 
L 71.640284 55.088027 
L 71.864733 65.427486 
L 72.089183 70.115028 
L 72.313633 67.321855 
L 72.538082 77.763194 
L 72.762532 73.136876 
L 72.986982 65.366502 
L 73.211431 65.87489 
L 73.435881 65.975286 
L 73.660331 73.783664 
L 73.884781 75.793724 
L 74.10923 63.792045 
L 74.33368 59.793552 
L 74.55813 73.806109 
L 74.782579 75.145048 
L 75.231479 66.422897 
L 75.455928 73.180004 
L 75.680378 61.691462 
L 75.904828 71.435212 
L 76.129278 69.536397 
L 76.353727 71.951847 
L 76.578177 63.929492 
L 77.027076 69.823638 
L 77.251526 62.816521 
L 77.475976 62.265763 
L 77.700425 70.347032 
L 77.924875 63.647567 
L 78.373774 69.809757 
L 78.598224 61.116977 
L 79.047124 68.610656 
L 79.271573 65.374062 
L 79.496023 72.317071 
L 79.720473 85.320011 
L 79.944922 68.097043 
L 80.169372 61.002622 
L 80.393822 64.234182 
L 80.842721 76.428911 
L 81.067171 64.572465 
L 81.291621 68.453724 
L 81.51607 64.082919 
L 81.74052 72.570409 
L 81.96497 66.121665 
L 82.189419 64.244318 
L 82.413869 64.33938 
L 82.638319 66.812624 
L 82.862768 67.065958 
L 83.087218 68.609045 
L 83.536117 64.391331 
L 83.760567 64.922116 
L 84.209467 69.638134 
L 84.433916 74.853706 
L 84.658366 67.974033 
L 84.882816 70.221659 
L 85.107265 62.751764 
L 85.331715 64.271283 
L 85.556165 73.541487 
L 85.780614 67.381826 
L 86.005064 74.173579 
L 86.229514 65.106223 
L 86.453964 64.280846 
L 86.678413 65.995881 
L 86.902863 64.741938 
L 87.127313 61.391878 
L 87.351762 70.117068 
L 87.576212 73.809442 
L 87.800662 64.546992 
L 88.025111 63.08259 
L 88.249561 64.709645 
L 88.474011 68.629294 
L 88.69846 61.199783 
L 89.14736 68.986675 
L 89.37181 68.929534 
L 89.596259 67.083681 
L 89.820709 69.393161 
L 90.045159 68.263569 
L 90.494058 61.048307 
L 90.718508 69.322951 
L 91.167407 62.65882 
L 91.391857 64.238948 
L 91.616307 73.543393 
L 91.840756 72.900792 
L 92.065206 61.167551 
L 92.289656 65.047939 
L 92.514105 65.13022 
L 92.738555 62.687711 
L 92.963005 66.052154 
L 93.187454 76.050339 
L 93.411904 67.278598 
L 93.636354 77.568336 
L 93.860804 63.051592 
L 94.085253 61.638375 
L 94.309703 72.050875 
L 94.534153 67.992318 
L 94.758602 71.760445 
L 94.983052 70.038572 
L 95.431951 62.912543 
L 95.656401 64.680986 
L 95.880851 65.083003 
L 96.1053 67.120108 
L 96.32975 67.821012 
L 96.5542 64.622363 
L 96.77865 63.813795 
L 97.003099 62.235391 
L 97.227549 65.013957 
L 97.451999 72.209072 
L 97.676448 62.134708 
L 97.900898 67.468595 
L 98.125348 63.437251 
L 98.349797 73.019432 
L 98.798697 62.205798 
L 99.023147 58.687776 
L 99.247596 65.240298 
L 99.472046 75.829167 
L 99.920945 64.220048 
L 100.145395 64.311752 
L 100.369845 64.080732 
L 100.594294 58.367599 
L 100.818744 66.278539 
L 101.043194 66.988158 
L 101.267643 61.38066 
L 101.492093 68.796009 
L 101.716543 61.341159 
L 101.940993 61.910178 
L 102.165442 70.599831 
L 102.389892 62.257793 
L 102.614342 61.97729 
L 102.838791 62.845804 
L 103.287691 67.078455 
L 103.51214 59.52796 
L 103.73659 77.141749 
L 103.96104 64.309698 
L 104.18549 67.099489 
L 104.409939 73.500021 
L 104.858839 58.308316 
L 105.083288 62.373573 
L 105.307738 69.271207 
L 105.756637 61.882673 
L 105.981087 62.494337 
L 106.205537 65.619534 
L 106.429986 70.93025 
L 106.654436 69.802009 
L 106.878886 65.937174 
L 107.103336 68.677682 
L 107.327785 64.289277 
L 108.001134 66.49302 
L 108.225584 61.30448 
L 108.450034 72.822277 
L 108.674483 60.460724 
L 108.898933 63.094389 
L 109.123383 70.607156 
L 109.347833 70.4532 
L 109.572282 60.356979 
L 109.796732 62.272213 
L 110.021182 67.272876 
L 110.245631 58.645332 
L 110.694531 73.117329 
L 110.91898 61.915938 
L 111.36788 72.302967 
L 111.592329 62.439961 
L 111.816779 67.271698 
L 112.041229 75.691089 
L 112.265679 62.103311 
L 112.490128 62.665378 
L 112.714578 64.445105 
L 112.939028 64.079228 
L 113.163477 59.822813 
L 113.612377 68.867656 
L 113.836826 62.821326 
L 114.061276 59.903321 
L 114.285726 72.575622 
L 114.510176 65.238845 
L 114.734625 65.334318 
L 114.959075 61.865073 
L 115.407974 69.306513 
L 115.632424 64.775831 
L 115.856874 72.269456 
L 116.081323 62.545402 
L 116.530223 75.792802 
L 116.754673 65.882225 
L 116.979122 67.335719 
L 117.203572 64.284956 
L 117.428022 77.506777 
L 117.652471 31.527273 
L 117.876921 76.372603 
L 118.101371 64.133519 
L 118.32582 67.401017 
L 118.55027 65.916042 
L 118.77472 76.279908 
L 119.223619 62.989628 
L 119.448069 72.033678 
L 119.672519 65.304658 
L 119.896968 70.065193 
L 120.345868 62.60204 
L 120.570317 65.597425 
L 120.794767 66.269034 
L 121.019217 72.673847 
L 121.243666 60.641272 
L 121.468116 63.611199 
L 121.692566 69.467956 
L 122.141465 60.788811 
L 122.365915 64.711764 
L 122.590365 65.740011 
L 122.814814 63.948018 
L 123.039264 63.380592 
L 123.263714 78.336411 
L 123.712613 63.677856 
L 123.937063 74.293382 
L 124.385962 63.255085 
L 124.610412 74.394196 
L 124.834862 69.005027 
L 125.059311 60.462444 
L 125.283761 68.97989 
L 125.508211 63.84597 
L 125.73266 62.447411 
L 125.95711 72.98857 
L 126.18156 72.589669 
L 126.406009 64.770352 
L 126.630459 62.283444 
L 126.854909 74.726799 
L 127.079359 63.250899 
L 127.303808 69.728289 
L 127.752708 66.76437 
L 127.977157 66.776373 
L 128.201607 71.132886 
L 128.426057 68.377186 
L 128.650506 72.38143 
L 128.874956 73.021958 
L 129.323855 65.386518 
L 129.548305 64.40306 
L 129.997205 71.52519 
L 130.446104 61.222556 
L 130.895003 77.992394 
L 131.119453 70.219188 
L 131.343903 67.451096 
L 131.568352 79.543344 
L 131.792802 62.746469 
L 132.017252 70.164276 
L 132.466151 65.943536 
L 132.690601 65.005574 
L 132.915051 65.436308 
L 133.1395 73.49301 
L 133.36395 65.338161 
L 133.5884 64.514188 
L 133.812849 70.85018 
L 134.037299 65.649078 
L 134.261749 70.648269 
L 134.486198 69.995982 
L 134.710648 62.385723 
L 134.935098 68.464074 
L 135.159548 68.932953 
L 135.383997 68.149221 
L 135.832897 80.510784 
L 136.281796 62.912208 
L 136.730695 71.40474 
L 136.955145 77.906797 
L 137.179595 68.058394 
L 137.404045 71.623104 
L 137.628494 66.68222 
L 137.852944 75.166098 
L 138.077394 69.865144 
L 138.301843 67.600569 
L 138.750743 69.850904 
L 138.975192 73.963283 
L 139.424092 70.129227 
L 139.648542 69.786561 
L 139.872991 69.154838 
L 140.54634 78.511788 
L 140.77079 72.847547 
L 140.99524 78.672681 
L 141.219689 67.175085 
L 141.444139 68.342947 
L 141.668589 80.680034 
L 141.893038 72.499414 
L 142.117488 80.749788 
L 142.341938 71.466361 
L 142.566388 68.724642 
L 142.790837 71.075431 
L 143.015287 70.699658 
L 143.239737 66.633887 
L 143.464186 77.667697 
L 143.688636 79.151783 
L 143.913086 69.291967 
L 144.137535 69.696352 
L 144.361985 71.26352 
L 144.586435 74.724078 
L 144.810885 67.701167 
L 145.259784 74.124322 
L 145.484234 76.895245 
L 145.708683 74.65082 
L 145.933133 75.840199 
L 146.157583 74.776904 
L 146.382032 72.351154 
L 146.606482 68.254856 
L 146.830932 75.852577 
L 147.055381 71.908499 
L 147.279831 70.541563 
L 147.504281 70.891338 
L 147.728731 80.274618 
L 147.95318 78.189384 
L 148.17763 68.44715 
L 148.40208 72.355631 
L 148.626529 72.975198 
L 148.850979 70.650564 
L 149.075429 73.669689 
L 149.299878 83.11571 
L 149.524328 74.622819 
L 149.748778 82.696793 
L 149.973228 71.047151 
L 150.197677 69.936182 
L 150.422127 80.393802 
L 150.646577 75.693306 
L 150.871026 82.411906 
L 151.095476 80.154709 
L 151.319926 75.244648 
L 151.544375 72.768379 
L 151.768825 72.996105 
L 151.993275 73.934431 
L 152.217724 76.222884 
L 152.442174 77.066359 
L 152.666624 74.098369 
L 152.891074 72.691964 
L 153.115523 72.14455 
L 153.339973 74.321742 
L 153.564423 78.935452 
L 153.788872 71.636335 
L 154.013322 76.242753 
L 154.237772 72.764664 
L 154.462221 81.336245 
L 155.135571 68.006875 
L 155.58447 83.890321 
L 156.033369 74.040592 
L 156.482269 74.296955 
L 156.706718 67.855521 
L 156.931168 75.853914 
L 157.155618 77.102472 
L 157.380067 71.337842 
L 157.604517 76.844153 
L 157.828967 70.616048 
L 158.053417 71.708746 
L 158.277866 79.345459 
L 158.502316 71.649798 
L 158.726766 71.248312 
L 159.175665 73.800515 
L 159.400115 76.452739 
L 159.624564 69.343371 
L 159.849014 85.394829 
L 160.073464 73.777873 
L 160.297914 76.785799 
L 160.522363 81.902616 
L 160.971263 67.717265 
L 161.420162 77.73304 
L 161.644612 75.825697 
L 161.869061 71.258908 
L 162.093511 71.94814 
L 162.317961 74.861973 
L 162.542411 80.251638 
L 162.76686 79.011952 
L 162.99131 75.930332 
L 163.21576 77.955373 
L 163.440209 73.665031 
L 163.664659 73.773667 
L 163.889109 75.20891 
L 164.113558 75.90843 
L 164.338008 70.374832 
L 164.562458 82.711147 
L 164.786907 69.472253 
L 165.011357 72.064409 
L 165.235807 80.026076 
L 165.460257 79.731309 
L 165.684706 69.37011 
L 165.909156 71.203463 
L 166.133606 75.866517 
L 166.358055 67.368543 
L 166.806955 81.206012 
L 167.031404 70.402981 
L 167.480304 81.179212 
L 167.704754 70.773904 
L 167.929203 75.980895 
L 168.153653 84.725832 
L 168.378103 70.499569 
L 168.602552 71.100984 
L 168.827002 72.601488 
L 169.051452 72.272514 
L 169.275901 68.054988 
L 169.724801 77.802004 
L 169.94925 71.235036 
L 170.1737 68.29949 
L 170.39815 79.89028 
L 170.6226 73.677283 
L 170.847049 73.082711 
L 171.071499 69.983408 
L 171.520398 76.876554 
L 171.744848 72.554461 
L 171.969298 78.656724 
L 172.193747 70.363238 
L 172.642647 83.379786 
L 172.867097 73.361319 
L 173.091546 74.516135 
L 173.315996 71.916856 
L 173.540446 84.009651 
L 173.764895 39.014341 
L 173.989345 84.009785 
L 174.213795 71.704369 
L 174.438244 74.183981 
L 174.662694 72.928369 
L 174.887144 84.608955 
L 175.336043 70.14847 
L 175.560493 79.882948 
L 175.784943 72.430648 
L 176.009392 76.257559 
L 176.458292 69.513606 
L 176.682741 72.652055 
L 176.907191 73.320198 
L 177.131641 79.628222 
L 177.35609 67.630401 
L 177.58054 70.618992 
L 177.80499 76.539379 
L 178.253889 67.561203 
L 178.478339 71.777652 
L 178.702789 72.448924 
L 178.927238 70.563371 
L 179.151688 69.827784 
L 179.376138 84.027457 
L 179.825037 70.099635 
L 180.049487 79.831679 
L 180.498386 69.724806 
L 180.722836 81.520833 
L 181.171735 66.414898 
L 181.396185 75.524577 
L 181.620635 70.341489 
L 181.845084 68.475559 
L 182.069534 79.313472 
L 182.293984 79.260415 
L 182.518433 70.949208 
L 182.742883 68.388101 
L 182.967333 81.522268 
L 183.191783 69.323899 
L 183.416232 75.205123 
L 184.089581 72.816875 
L 184.314031 77.17414 
L 184.538481 74.199924 
L 184.76293 78.045313 
L 184.98738 78.908026 
L 185.43628 71.052196 
L 185.660729 70.122927 
L 186.109629 77.232347 
L 186.558528 66.811221 
L 187.007427 81.550538 
L 187.231877 75.292145 
L 187.456327 72.830841 
L 187.680776 84.466691 
L 187.905226 68.192873 
L 188.129676 75.132317 
L 188.803025 70.365455 
L 189.027475 70.978132 
L 189.251924 78.263638 
L 189.476374 70.941421 
L 189.700824 69.732125 
L 189.925273 76.340981 
L 190.149723 70.565378 
L 190.374173 76.123219 
L 190.598623 75.346498 
L 190.823072 67.443151 
L 191.047522 73.700295 
L 191.271972 73.36929 
L 191.496421 73.541491 
L 191.945321 84.806422 
L 192.39422 67.931486 
L 192.843119 76.172135 
L 193.067569 81.888623 
L 193.292019 72.813602 
L 193.516469 76.711887 
L 193.740918 71.667435 
L 193.965368 79.217811 
L 194.189818 74.447819 
L 194.414267 72.522936 
L 194.863167 74.558789 
L 195.087616 77.709501 
L 195.312066 76.750794 
L 195.536516 74.821278 
L 195.760966 74.370418 
L 195.985415 73.482588 
L 195.985415 73.482588 
" clip-path="url(#p555df85b80)" style="fill: none; stroke: #808080; stroke-width: 0.8; stroke-linecap: square"/>
   </g>
   <g id="line2d_9">
    <path d="M 61.764497 69.033675 
L 62.213396 65.286137 
L 62.437846 66.081431 
L 62.662296 67.912521 
L 62.886745 68.073221 
L 63.111195 62.771543 
L 63.335645 73.291844 
L 63.560095 65.664614 
L 63.784544 70.088561 
L 64.008994 63.819708 
L 64.233444 69.521489 
L 64.457893 64.877921 
L 64.682343 65.575103 
L 64.906793 73.551532 
L 65.131242 66.362747 
L 65.355692 70.130713 
L 65.580142 66.536614 
L 65.804591 70.193641 
L 66.029041 76.753162 
L 66.253491 64.622048 
L 66.477941 70.500307 
L 66.70239 71.572662 
L 66.92684 65.457838 
L 67.15129 74.76542 
L 67.375739 74.932529 
L 67.600189 90.019251 
L 67.824639 70.79883 
L 68.049088 74.836383 
L 68.497988 70.488989 
L 68.722438 72.337027 
L 68.946887 67.829611 
L 69.171337 69.943093 
L 69.395787 73.123787 
L 69.620236 67.775352 
L 69.844686 75.556346 
L 70.069136 74.516545 
L 70.293585 81.125291 
L 70.518035 69.748187 
L 70.742485 85.810198 
L 70.966935 66.702566 
L 71.415834 68.035397 
L 71.640284 54.34133 
L 71.864733 71.684052 
L 72.089183 77.639322 
L 72.313633 76.971087 
L 72.538082 77.373173 
L 72.762532 70.22723 
L 72.986982 71.574661 
L 73.211431 80.743186 
L 73.435881 76.144085 
L 73.660331 74.431825 
L 73.884781 74.841204 
L 74.10923 74.855923 
L 74.33368 71.090166 
L 74.55813 75.657297 
L 74.782579 77.635604 
L 75.007029 70.335988 
L 75.231479 82.189042 
L 75.455928 76.945733 
L 75.680378 77.797948 
L 75.904828 79.172087 
L 76.353727 69.071595 
L 76.578177 84.75461 
L 76.802627 74.549157 
L 77.027076 75.983991 
L 77.475976 71.815849 
L 77.700425 75.855326 
L 77.924875 76.187343 
L 78.149325 73.589593 
L 78.373774 79.755977 
L 78.822674 74.555842 
L 79.047124 75.143903 
L 79.271573 78.232322 
L 79.496023 77.215722 
L 79.720473 75.620889 
L 80.169372 81.182962 
L 80.393822 75.186849 
L 80.618271 86.700046 
L 80.842721 84.068026 
L 81.067171 77.362744 
L 81.291621 80.03468 
L 81.74052 81.081876 
L 81.96497 81.838895 
L 82.189419 91.222385 
L 82.413869 75.645045 
L 82.638319 86.545415 
L 82.862768 74.156467 
L 83.311668 81.944294 
L 83.536117 77.196609 
L 83.760567 85.477937 
L 83.985017 78.907376 
L 84.209467 78.070296 
L 84.433916 95.124748 
L 84.882816 73.96811 
L 85.107265 83.339347 
L 85.331715 79.235836 
L 85.556165 78.463504 
L 85.780614 80.010515 
L 86.005064 82.597627 
L 86.229514 78.146085 
L 86.453964 80.397337 
L 86.678413 88.353398 
L 86.902863 79.954094 
L 87.127313 86.184098 
L 87.351762 79.056824 
L 87.576212 86.819916 
L 87.800662 76.360583 
L 88.025111 80.750616 
L 88.249561 81.107551 
L 88.474011 86.053282 
L 88.69846 82.120605 
L 88.92291 86.321875 
L 89.14736 81.006852 
L 89.37181 85.584245 
L 89.596259 81.771107 
L 89.820709 93.959984 
L 90.045159 80.095194 
L 90.494058 85.384186 
L 90.718508 78.282115 
L 90.942957 79.484406 
L 91.391857 79.373344 
L 91.616307 85.237862 
L 91.840756 87.775042 
L 92.065206 81.326384 
L 92.514105 88.397198 
L 92.738555 86.636145 
L 92.963005 83.236335 
L 93.187454 92.529183 
L 93.411904 83.49008 
L 93.636354 84.590738 
L 93.860804 78.395346 
L 94.085253 84.561212 
L 94.309703 83.896716 
L 94.534153 87.319104 
L 94.758602 80.979073 
L 94.983052 84.155678 
L 95.207502 84.70822 
L 95.431951 78.570695 
L 95.656401 83.363029 
L 95.880851 97.525274 
L 96.1053 81.918774 
L 96.32975 85.959498 
L 96.5542 83.794946 
L 96.77865 84.530805 
L 97.003099 76.775428 
L 97.227549 90.202332 
L 97.451999 79.526014 
L 97.676448 79.704835 
L 97.900898 95.250275 
L 98.125348 98.085972 
L 98.349797 91.766923 
L 98.798697 85.597616 
L 99.023147 87.204016 
L 99.247596 85.071067 
L 99.472046 80.866834 
L 99.696496 89.836512 
L 99.920945 82.717845 
L 100.145395 87.722345 
L 100.369845 81.359255 
L 100.594294 95.462496 
L 100.818744 86.529537 
L 101.043194 88.407453 
L 101.492093 78.506927 
L 101.940993 84.835215 
L 102.165442 87.281079 
L 102.389892 87.949845 
L 102.614342 83.690726 
L 102.838791 95.45115 
L 103.063241 85.403983 
L 103.287691 82.700521 
L 103.51214 93.452327 
L 103.73659 86.402259 
L 103.96104 105.698234 
L 104.18549 90.459875 
L 104.409939 83.230842 
L 104.634389 99.253016 
L 104.858839 93.469543 
L 105.083288 98.958002 
L 105.307738 89.207793 
L 105.532188 90.329397 
L 105.756637 83.262348 
L 105.981087 86.481583 
L 106.205537 87.591101 
L 106.429986 90.035491 
L 106.654436 82.236098 
L 106.878886 95.310656 
L 107.103336 98.233103 
L 107.327785 88.861386 
L 107.552235 86.329231 
L 107.776685 90.033786 
L 108.001134 82.010745 
L 108.225584 80.966899 
L 108.450034 91.766147 
L 108.674483 85.837682 
L 109.123383 89.648165 
L 109.347833 87.003852 
L 109.572282 83.026933 
L 109.796732 88.985373 
L 110.021182 88.591282 
L 110.245631 87.258347 
L 110.470081 96.196665 
L 110.694531 97.508752 
L 110.91898 88.053824 
L 111.14343 100.051245 
L 111.592329 81.210093 
L 111.816779 93.693109 
L 112.041229 89.480947 
L 112.265679 97.94229 
L 112.714578 88.8535 
L 112.939028 89.350238 
L 113.163477 100.695245 
L 113.387927 85.177694 
L 113.612377 90.76203 
L 113.836826 92.531428 
L 114.061276 88.148881 
L 114.285726 90.195452 
L 114.510176 84.348012 
L 114.734625 86.05047 
L 114.959075 90.93478 
L 115.183525 83.15933 
L 115.407974 85.653598 
L 115.632424 97.601671 
L 115.856874 89.916712 
L 116.081323 86.772113 
L 116.305773 99.719821 
L 116.530223 89.261771 
L 116.754673 88.092726 
L 116.979122 86.11867 
L 117.203572 103.393212 
L 117.428022 87.527222 
L 117.876921 91.667764 
L 118.101371 86.75715 
L 118.32582 88.323408 
L 118.55027 87.033269 
L 118.77472 90.722193 
L 118.999169 85.48119 
L 119.223619 91.196291 
L 119.448069 89.787134 
L 119.672519 98.631902 
L 119.896968 90.082007 
L 120.121418 86.207592 
L 120.345868 93.606117 
L 120.570317 95.053198 
L 120.794767 92.92214 
L 121.019217 86.120036 
L 121.243666 84.355428 
L 121.468116 90.287024 
L 121.692566 92.680439 
L 121.917016 86.502055 
L 122.141465 97.90922 
L 122.365915 86.21757 
L 122.590365 89.823932 
L 122.814814 90.32028 
L 123.039264 93.056889 
L 123.263714 91.094185 
L 123.488163 93.156032 
L 123.712613 92.846003 
L 123.937063 93.651724 
L 124.161512 100.429963 
L 124.385962 98.708586 
L 124.610412 98.659524 
L 125.059311 83.562637 
L 125.283761 89.619095 
L 125.508211 90.642395 
L 125.73266 90.740926 
L 125.95711 95.822412 
L 126.18156 88.910458 
L 126.406009 93.734111 
L 126.630459 109.242274 
L 126.854909 97.731443 
L 127.303808 89.988986 
L 127.528258 96.402158 
L 127.752708 91.727186 
L 127.977157 89.53728 
L 128.426057 104.019548 
L 128.650506 89.006998 
L 128.874956 93.409918 
L 129.099406 100.323663 
L 129.323855 99.270079 
L 129.772755 96.090144 
L 129.997205 87.847615 
L 130.221654 92.217265 
L 130.446104 88.955277 
L 130.670554 93.750497 
L 130.895003 85.403547 
L 131.343903 98.617431 
L 131.568352 99.751682 
L 131.792802 98.062219 
L 132.017252 89.906835 
L 132.241702 98.760846 
L 132.466151 88.477587 
L 132.690601 91.091723 
L 132.915051 91.075013 
L 133.1395 101.194101 
L 133.36395 91.800373 
L 133.5884 94.75321 
L 134.037299 88.81342 
L 134.486198 101.113085 
L 134.710648 89.443069 
L 134.935098 102.091604 
L 135.159548 87.243092 
L 135.383997 91.029728 
L 135.608447 91.259239 
L 135.832897 88.610931 
L 136.057346 103.174869 
L 136.281796 94.904657 
L 136.506246 96.997088 
L 136.730695 92.176433 
L 136.955145 91.75868 
L 137.179595 101.927356 
L 137.404045 89.351293 
L 137.628494 101.449829 
L 138.077394 87.980267 
L 138.301843 97.25604 
L 138.526293 92.363383 
L 138.750743 100.652235 
L 138.975192 88.424259 
L 139.199642 93.818034 
L 139.424092 104.095249 
L 139.648542 94.222519 
L 139.872991 89.688673 
L 140.097441 94.953199 
L 140.321891 90.424079 
L 140.54634 94.6011 
L 140.77079 92.282674 
L 140.99524 92.074665 
L 141.219689 92.046795 
L 141.444139 93.891559 
L 141.668589 91.632593 
L 141.893038 103.076258 
L 142.117488 90.302433 
L 142.566388 104.728344 
L 143.015287 100.119234 
L 143.239737 95.000872 
L 143.464186 94.520926 
L 143.688636 96.689193 
L 143.913086 91.331124 
L 144.137535 91.710424 
L 144.361985 96.457835 
L 144.586435 90.705579 
L 144.810885 92.517807 
L 145.035334 92.069342 
L 145.259784 93.690397 
L 145.484234 90.139051 
L 145.933133 95.510461 
L 146.157583 103.626966 
L 146.382032 96.297903 
L 146.606482 95.023163 
L 146.830932 95.664845 
L 147.279831 102.8456 
L 147.504281 96.826606 
L 147.728731 106.186538 
L 147.95318 90.781959 
L 148.17763 91.119836 
L 148.40208 91.890379 
L 148.850979 100.374301 
L 149.299878 99.073628 
L 149.524328 93.112996 
L 149.748778 92.919703 
L 149.973228 93.254743 
L 150.197677 92.919179 
L 150.422127 90.284652 
L 150.871026 105.965476 
L 151.095476 91.440072 
L 151.319926 93.210279 
L 151.544375 92.152891 
L 151.768825 98.879131 
L 151.993275 100.30244 
L 152.217724 92.100388 
L 152.442174 95.13867 
L 152.666624 91.925405 
L 152.891074 93.62168 
L 153.115523 97.188709 
L 153.339973 94.480155 
L 153.564423 101.78863 
L 153.788872 93.359135 
L 154.013322 95.155044 
L 154.237772 92.92502 
L 154.462221 94.481924 
L 154.686671 104.341557 
L 154.911121 99.673461 
L 155.135571 97.768653 
L 155.36002 100.208042 
L 155.58447 104.270038 
L 155.80892 94.038851 
L 156.033369 99.38003 
L 156.257819 96.290551 
L 156.482269 96.153234 
L 156.706718 98.092447 
L 156.931168 104.195684 
L 157.155618 97.921656 
L 157.380067 106.465509 
L 157.828967 93.755541 
L 158.277866 103.44072 
L 158.502316 100.453149 
L 158.951215 92.942664 
L 159.400115 98.353116 
L 159.624564 92.133298 
L 159.849014 102.061642 
L 160.073464 102.219689 
L 160.297914 99.599971 
L 160.522363 100.023069 
L 160.746813 91.961277 
L 161.195712 99.720664 
L 161.420162 95.432226 
L 161.644612 97.651831 
L 161.869061 98.430849 
L 162.093511 95.966018 
L 162.317961 94.733509 
L 162.76686 102.367439 
L 162.99131 92.212394 
L 163.21576 107.449914 
L 163.440209 106.551886 
L 163.889109 95.484519 
L 164.113558 96.499271 
L 164.338008 103.123733 
L 164.786907 94.966667 
L 165.011357 96.198653 
L 165.235807 104.038654 
L 165.684706 94.173066 
L 165.909156 98.39643 
L 166.133606 98.222572 
L 166.358055 99.420277 
L 166.582505 94.970391 
L 166.806955 101.742671 
L 167.031404 103.18437 
L 167.255854 106.159855 
L 167.704754 98.235877 
L 167.929203 98.195563 
L 168.378103 106.655897 
L 168.827002 92.930827 
L 169.051452 100.089187 
L 169.275901 103.208389 
L 169.500351 96.394069 
L 169.724801 93.380915 
L 169.94925 95.498286 
L 170.1737 95.558752 
L 170.39815 104.839602 
L 170.6226 104.361039 
L 170.847049 106.851708 
L 171.071499 107.046458 
L 171.295949 95.619617 
L 171.520398 101.763684 
L 171.969298 91.439183 
L 172.418197 105.188876 
L 172.642647 99.68423 
L 172.867097 100.453448 
L 173.091546 107.845765 
L 173.315996 96.166052 
L 173.764895 93.545344 
L 173.989345 103.749504 
L 174.438244 96.817961 
L 174.662694 98.392206 
L 174.887144 97.808114 
L 175.111593 99.317344 
L 175.336043 98.859412 
L 175.560493 97.017925 
L 175.784943 98.815125 
L 176.009392 93.031492 
L 176.233842 104.816653 
L 176.458292 96.571934 
L 176.682741 102.301966 
L 176.907191 100.251903 
L 177.131641 96.450458 
L 177.35609 99.221496 
L 177.58054 106.860657 
L 177.80499 100.245258 
L 178.02944 101.424929 
L 178.253889 110.794245 
L 178.478339 106.381828 
L 178.702789 96.611261 
L 178.927238 110.61559 
L 179.151688 101.559816 
L 179.376138 108.002086 
L 179.600587 100.3602 
L 179.825037 100.335546 
L 180.049487 95.029568 
L 180.273936 97.355642 
L 180.498386 102.341399 
L 180.722836 97.606464 
L 180.947286 98.173219 
L 181.171735 96.907088 
L 181.396185 100.543311 
L 181.620635 93.378776 
L 181.845084 101.471678 
L 182.069534 95.431046 
L 182.293984 100.035153 
L 182.518433 101.396859 
L 182.742883 93.083802 
L 182.967333 101.289871 
L 183.191783 95.997654 
L 183.640682 108.963842 
L 183.865132 108.127918 
L 184.314031 97.392133 
L 184.538481 112.165515 
L 184.76293 99.216991 
L 184.98738 99.482429 
L 185.21183 92.392881 
L 185.43628 103.760191 
L 185.660729 103.01988 
L 185.885179 101.414614 
L 186.109629 98.550698 
L 186.334078 102.424809 
L 186.558528 94.288947 
L 187.007427 103.810514 
L 187.231877 95.704763 
L 187.456327 99.168213 
L 187.680776 100.271597 
L 187.905226 112.370733 
L 188.354126 99.476422 
L 188.803025 103.325329 
L 189.027475 98.325202 
L 189.251924 96.689111 
L 189.476374 96.51453 
L 189.700824 96.13036 
L 189.925273 115.925118 
L 190.149723 97.52747 
L 190.374173 98.612614 
L 190.598623 98.247945 
L 190.823072 98.323289 
L 191.047522 99.334101 
L 191.496421 97.021736 
L 191.720871 97.679308 
L 192.16977 103.3123 
L 192.39422 109.852863 
L 192.61867 98.932476 
L 192.843119 106.327409 
L 193.067569 105.814085 
L 193.292019 96.604208 
L 193.516469 107.503028 
L 193.740918 99.177107 
L 193.965368 99.711941 
L 194.189818 104.954898 
L 194.414267 102.19462 
L 194.638717 102.788462 
L 194.863167 98.595489 
L 195.087616 102.430767 
L 195.312066 97.863726 
L 195.536516 99.255957 
L 195.760966 102.735391 
L 195.985415 100.990003 
L 195.985415 100.990003 
" clip-path="url(#p555df85b80)" style="fill: none; stroke: #1e90ff; stroke-width: 0.8; stroke-linecap: square"/>
   </g>
   <g id="line2d_10">
    <path d="M 61.764497 77.764919 
L 61.988947 67.679057 
L 62.213396 68.092827 
L 62.437846 74.545814 
L 62.662296 73.467938 
L 63.111195 62.564959 
L 63.335645 73.753367 
L 63.560095 64.947804 
L 63.784544 69.489869 
L 64.008994 63.639629 
L 64.233444 68.879522 
L 64.457893 65.581665 
L 64.682343 64.793703 
L 64.906793 74.945411 
L 65.131242 65.994254 
L 65.355692 70.843288 
L 65.580142 66.63546 
L 65.804591 69.913347 
L 66.029041 78.407376 
L 66.253491 63.922196 
L 66.477941 70.776702 
L 66.70239 71.945823 
L 66.92684 65.190025 
L 67.15129 72.828555 
L 67.375739 76.428278 
L 67.600189 90.054441 
L 67.824639 71.468638 
L 68.049088 74.211477 
L 68.273538 74.755265 
L 68.497988 70.383502 
L 68.722438 71.638568 
L 68.946887 67.211131 
L 69.171337 69.491377 
L 69.395787 74.810665 
L 69.620236 67.040489 
L 69.844686 75.515117 
L 70.069136 73.515382 
L 70.293585 80.479124 
L 70.518035 70.175562 
L 70.742485 87.136354 
L 70.966935 66.305629 
L 71.191384 67.848012 
L 71.415834 67.594261 
L 71.640284 54.421551 
L 71.864733 72.122807 
L 72.089183 77.116675 
L 72.313633 76.772773 
L 72.538082 77.548825 
L 72.762532 70.674567 
L 72.986982 71.864963 
L 73.211431 82.090719 
L 73.660331 74.470528 
L 73.884781 76.164431 
L 74.10923 74.625244 
L 74.33368 70.702483 
L 74.55813 76.971891 
L 74.782579 77.921343 
L 75.007029 70.424649 
L 75.231479 82.111114 
L 75.455928 78.489841 
L 75.680378 77.158598 
L 75.904828 80.790102 
L 76.353727 69.16439 
L 76.578177 85.813357 
L 76.802627 77.371117 
L 77.027076 76.084684 
L 77.475976 72.167663 
L 77.924875 78.299365 
L 78.149325 74.540114 
L 78.373774 78.8376 
L 78.598224 78.254138 
L 78.822674 75.51524 
L 79.047124 76.497171 
L 79.271573 80.111826 
L 79.496023 79.07803 
L 79.720473 76.804027 
L 80.169372 82.891259 
L 80.393822 76.726666 
L 80.618271 87.53554 
L 80.842721 85.415231 
L 81.067171 78.595695 
L 81.51607 81.55736 
L 81.74052 81.043276 
L 81.96497 85.391352 
L 82.189419 87.050363 
L 82.413869 76.441565 
L 82.638319 84.172957 
L 82.862768 74.843091 
L 83.087218 80.758226 
L 83.311668 82.688786 
L 83.536117 78.67421 
L 83.760567 85.630845 
L 83.985017 80.33438 
L 84.209467 77.959539 
L 84.433916 86.837557 
L 84.882816 76.134542 
L 85.107265 86.010853 
L 85.331715 81.277784 
L 85.556165 79.300231 
L 85.780614 79.575966 
L 86.005064 82.500266 
L 86.229514 78.575637 
L 86.453964 82.432676 
L 86.678413 96.75896 
L 86.902863 83.327852 
L 87.127313 86.590842 
L 87.351762 81.098111 
L 87.576212 92.21179 
L 87.800662 79.871747 
L 88.025111 84.839421 
L 88.249561 81.183181 
L 88.474011 85.324654 
L 88.69846 83.278366 
L 88.92291 89.493701 
L 89.14736 83.79881 
L 89.37181 86.420181 
L 89.596259 83.901319 
L 89.820709 92.741523 
L 90.045159 84.425194 
L 90.269608 84.099229 
L 90.494058 84.187953 
L 90.718508 80.071782 
L 90.942957 82.186209 
L 91.167407 81.358711 
L 91.391857 82.993713 
L 91.840756 84.322184 
L 92.065206 82.852274 
L 92.289656 86.593704 
L 92.514105 85.39857 
L 92.963005 88.121269 
L 93.187454 90.877284 
L 93.411904 88.957291 
L 93.860804 80.715626 
L 94.085253 83.180319 
L 94.309703 82.516824 
L 94.534153 87.601288 
L 94.758602 84.621171 
L 94.983052 83.876734 
L 95.207502 86.738692 
L 95.431951 79.099551 
L 95.656401 87.866092 
L 95.880851 102.352939 
L 96.1053 89.301667 
L 96.32975 89.25608 
L 96.77865 84.623394 
L 97.003099 80.89421 
L 97.227549 94.503385 
L 97.451999 82.553399 
L 97.676448 85.102357 
L 97.900898 91.517474 
L 98.125348 94.28787 
L 98.349797 93.915168 
L 98.574247 89.313565 
L 99.023147 87.673459 
L 99.247596 89.502469 
L 99.472046 84.957017 
L 99.696496 84.61545 
L 99.920945 91.69895 
L 100.369845 84.353037 
L 100.594294 96.97582 
L 101.043194 89.568096 
L 101.267643 85.110682 
L 101.492093 83.909864 
L 101.716543 85.729129 
L 101.940993 84.928108 
L 102.389892 98.505451 
L 102.614342 84.931566 
L 102.838791 99.085069 
L 103.063241 87.162556 
L 103.287691 86.220019 
L 103.51214 98.180201 
L 103.73659 90.498317 
L 103.96104 92.396339 
L 104.18549 88.501115 
L 104.409939 86.939688 
L 104.634389 91.997349 
L 104.858839 91.140264 
L 105.083288 92.341419 
L 105.307738 88.791408 
L 105.532188 90.150664 
L 105.756637 90.114503 
L 105.981087 88.982181 
L 106.205537 93.840656 
L 106.429986 94.961429 
L 106.654436 87.882684 
L 106.878886 93.995526 
L 107.103336 90.634182 
L 107.327785 91.554503 
L 107.552235 90.9496 
L 107.776685 90.94835 
L 108.001134 85.7914 
L 108.225584 86.404112 
L 108.450034 99.144446 
L 108.674483 91.101046 
L 108.898933 92.840971 
L 109.123383 87.732254 
L 109.347833 87.925124 
L 109.572282 87.122072 
L 110.021182 97.379803 
L 110.245631 88.344885 
L 110.694531 94.75487 
L 110.91898 91.85747 
L 111.14343 93.976778 
L 111.592329 92.805904 
L 111.816779 94.579413 
L 112.041229 94.008671 
L 112.265679 89.57998 
L 112.490128 92.908327 
L 112.714578 89.519565 
L 112.939028 92.309871 
L 113.163477 99.063117 
L 113.387927 91.616757 
L 113.612377 89.485708 
L 113.836826 93.497036 
L 114.061276 86.574058 
L 114.285726 91.52564 
L 114.510176 87.803276 
L 114.734625 88.54089 
L 114.959075 101.769398 
L 115.183525 86.488694 
L 115.407974 91.032045 
L 115.632424 90.788077 
L 115.856874 94.338667 
L 116.081323 88.41034 
L 116.305773 91.570142 
L 116.530223 97.013941 
L 116.979122 90.555791 
L 117.203572 98.348156 
L 117.428022 93.562126 
L 117.652471 93.892818 
L 117.876921 93.653371 
L 118.101371 102.018845 
L 118.32582 100.630384 
L 118.55027 89.942385 
L 118.77472 96.646628 
L 118.999169 90.245182 
L 119.223619 101.687784 
L 119.448069 96.730446 
L 119.672519 97.396352 
L 119.896968 92.177724 
L 120.121418 89.757735 
L 120.345868 90.52519 
L 120.570317 89.750036 
L 121.019217 97.832218 
L 121.243666 89.61897 
L 121.692566 91.30899 
L 121.917016 90.466344 
L 122.141465 93.798607 
L 122.365915 91.946912 
L 122.590365 88.253441 
L 122.814814 96.738744 
L 123.039264 95.821599 
L 123.263714 91.985496 
L 123.488163 98.346799 
L 123.712613 89.608563 
L 123.937063 97.655568 
L 124.161512 91.942664 
L 124.385962 99.487952 
L 124.610412 94.179729 
L 124.834862 106.074458 
L 125.059311 93.227857 
L 125.283761 93.80234 
L 125.508211 96.673723 
L 125.73266 91.665618 
L 125.95711 94.33718 
L 126.18156 92.542945 
L 126.406009 94.379708 
L 126.630459 92.865594 
L 126.854909 95.834501 
L 127.079359 88.260444 
L 127.303808 92.533836 
L 127.528258 91.941271 
L 127.752708 93.298968 
L 127.977157 97.95268 
L 128.201607 91.478652 
L 128.650506 94.099197 
L 128.874956 94.287427 
L 129.099406 105.363842 
L 129.323855 90.215245 
L 129.548305 93.207339 
L 129.772755 98.155507 
L 129.997205 92.486708 
L 130.221654 94.730316 
L 130.446104 92.520722 
L 130.670554 102.063053 
L 130.895003 99.01904 
L 131.119453 113.545608 
L 131.343903 99.324418 
L 131.568352 94.855544 
L 131.792802 94.001008 
L 132.017252 96.22815 
L 132.241702 92.427509 
L 132.466151 96.865237 
L 132.690601 94.704246 
L 132.915051 98.226063 
L 133.1395 97.58026 
L 133.36395 97.636949 
L 133.5884 105.32325 
L 133.812849 91.967573 
L 134.037299 93.279965 
L 134.261749 108.447486 
L 134.486198 106.536605 
L 134.935098 91.502219 
L 135.383997 93.968327 
L 135.608447 92.947523 
L 136.057346 99.508516 
L 136.281796 99.324948 
L 136.506246 96.504061 
L 136.730695 107.49528 
L 136.955145 97.598887 
L 137.179595 102.286951 
L 137.628494 99.095333 
L 137.852944 98.031432 
L 138.077394 102.308131 
L 138.301843 95.980922 
L 138.526293 93.283397 
L 138.750743 98.622085 
L 138.975192 92.081416 
L 139.199642 94.428229 
L 139.424092 105.839509 
L 139.648542 95.332172 
L 139.872991 94.729448 
L 140.097441 97.918109 
L 140.321891 104.760829 
L 140.99524 89.80916 
L 141.219689 98.897284 
L 141.444139 98.489548 
L 141.668589 100.489049 
L 141.893038 97.666719 
L 142.117488 99.458536 
L 142.341938 103.08761 
L 142.566388 99.857707 
L 142.790837 100.091942 
L 143.015287 99.891056 
L 143.239737 106.869422 
L 143.464186 97.96419 
L 143.688636 97.932512 
L 143.913086 92.081207 
L 144.137535 92.977037 
L 144.361985 100.332189 
L 144.586435 100.056721 
L 144.810885 111.225222 
L 145.035334 105.294529 
L 145.259784 109.107147 
L 145.484234 99.168597 
L 145.708683 95.161713 
L 145.933133 112.722326 
L 146.157583 96.013545 
L 146.382032 102.106189 
L 146.606482 101.731176 
L 146.830932 100.378847 
L 147.055381 101.792596 
L 147.279831 104.585613 
L 147.504281 96.99769 
L 147.728731 103.020403 
L 147.95318 104.16178 
L 148.17763 112.193922 
L 148.40208 100.27693 
L 148.626529 102.979122 
L 148.850979 101.572907 
L 149.075429 96.365244 
L 149.299878 97.774541 
L 149.524328 94.696912 
L 149.973228 92.96654 
L 150.197677 98.306043 
L 150.422127 109.446579 
L 150.646577 101.18792 
L 150.871026 100.122488 
L 151.095476 100.695781 
L 151.319926 97.253313 
L 151.544375 98.192923 
L 151.768825 109.131517 
L 151.993275 102.013259 
L 152.217724 105.822704 
L 152.442174 104.442406 
L 152.666624 99.520499 
L 152.891074 100.310508 
L 153.115523 95.690612 
L 153.339973 101.031584 
L 153.564423 101.598109 
L 153.788872 113.68285 
L 154.013322 102.740788 
L 154.237772 99.233738 
L 154.462221 107.092873 
L 154.911121 96.34285 
L 155.135571 95.158874 
L 155.58447 103.780162 
L 155.80892 99.025383 
L 156.033369 101.665406 
L 156.257819 95.18805 
L 156.482269 100.450536 
L 156.706718 96.419877 
L 156.931168 103.488956 
L 157.155618 103.647306 
L 157.380067 106.025197 
L 157.604517 101.351028 
L 158.053417 98.46762 
L 158.277866 107.383225 
L 158.726766 98.363603 
L 158.951215 101.038945 
L 159.175665 108.256127 
L 159.624564 99.082891 
L 159.849014 111.190844 
L 160.297914 99.690649 
L 160.746813 106.307966 
L 161.195712 108.130313 
L 161.644612 98.070064 
L 162.093511 108.185191 
L 162.317961 103.64307 
L 162.542411 105.136103 
L 162.76686 109.921454 
L 162.99131 103.895943 
L 163.21576 102.835704 
L 163.440209 98.635922 
L 163.664659 91.018214 
L 163.889109 101.200885 
L 164.113558 104.187118 
L 164.338008 102.030387 
L 164.562458 102.240422 
L 164.786907 98.053062 
L 165.011357 105.143928 
L 165.235807 104.470624 
L 165.460257 105.711354 
L 165.684706 100.389491 
L 165.909156 99.808792 
L 166.582505 110.216984 
L 167.031404 107.725548 
L 167.255854 102.329227 
L 167.480304 103.063876 
L 167.704754 98.853635 
L 167.929203 100.235546 
L 168.378103 113.058911 
L 168.602552 106.953241 
L 168.827002 104.036653 
L 169.051452 109.936574 
L 169.275901 105.309885 
L 169.500351 109.471053 
L 169.724801 109.308996 
L 169.94925 104.936704 
L 170.1737 103.233834 
L 170.39815 108.093859 
L 170.847049 102.626649 
L 171.520398 110.992795 
L 171.744848 111.419927 
L 171.969298 107.547822 
L 172.193747 108.946481 
L 172.642647 98.377902 
L 172.867097 103.111471 
L 173.091546 99.26637 
L 173.315996 103.97027 
L 173.540446 102.172576 
L 173.764895 106.014842 
L 173.989345 102.990409 
L 174.213795 105.237952 
L 174.438244 99.11555 
L 174.662694 102.274481 
L 174.887144 99.266267 
L 175.111593 100.606562 
L 175.336043 100.875856 
L 175.560493 113.821955 
L 175.784943 101.412284 
L 176.009392 106.792359 
L 176.233842 98.566525 
L 176.458292 100.215066 
L 176.682741 103.037488 
L 176.907191 99.875215 
L 177.131641 108.182041 
L 177.35609 97.938136 
L 177.58054 116.439419 
L 177.80499 97.963099 
L 178.02944 104.237367 
L 178.253889 104.670054 
L 178.478339 103.877169 
L 178.702789 111.331088 
L 178.927238 108.951212 
L 179.151688 104.721305 
L 179.376138 110.271254 
L 179.825037 99.525217 
L 180.049487 106.587352 
L 180.273936 103.761569 
L 180.498386 105.697016 
L 180.722836 104.492279 
L 180.947286 104.603835 
L 181.171735 110.039203 
L 181.620635 102.455606 
L 181.845084 101.308478 
L 182.069534 107.097098 
L 182.293984 109.239816 
L 182.518433 109.579499 
L 182.742883 100.681456 
L 182.967333 107.51906 
L 183.191783 102.551918 
L 183.416232 105.720997 
L 183.640682 102.936282 
L 183.865132 95.599139 
L 184.314031 110.292466 
L 184.538481 113.295085 
L 184.76293 113.177728 
L 184.98738 110.72243 
L 185.21183 105.144721 
L 185.43628 106.17756 
L 185.660729 105.111806 
L 185.885179 100.483299 
L 186.109629 107.764233 
L 186.334078 110.228939 
L 186.558528 104.926233 
L 186.782978 119.980257 
L 187.456327 104.795077 
L 187.680776 103.912582 
L 187.905226 100.100823 
L 188.129676 105.626732 
L 188.578575 100.928629 
L 188.803025 101.480024 
L 189.027475 108.683776 
L 189.251924 107.155028 
L 189.476374 99.040704 
L 189.700824 98.018457 
L 189.925273 99.014542 
L 190.149723 104.862259 
L 190.374173 106.192012 
L 190.598623 113.771312 
L 191.047522 98.615107 
L 191.496421 102.065702 
L 191.720871 95.333881 
L 192.16977 107.120049 
L 192.39422 99.699708 
L 192.61867 110.500263 
L 192.843119 103.435683 
L 193.067569 124.472727 
L 193.292019 100.04398 
L 193.740918 103.719611 
L 194.189818 101.272218 
L 194.414267 99.834652 
L 194.638717 102.752308 
L 194.863167 103.462777 
L 195.087616 99.26971 
L 195.312066 104.383101 
L 195.536516 101.350038 
L 195.985415 101.658649 
L 195.985415 101.658649 
" clip-path="url(#p555df85b80)" style="fill: none; stroke: #ff0000; stroke-width: 0.8; stroke-linecap: square"/>
   </g>
   <g id="patch_3">
    <path d="M 59.52 129.12 
L 59.52 26.88 
" style="fill: none; stroke: #000000; stroke-width: 0.8; stroke-linejoin: miter; stroke-linecap: square"/>
   </g>
   <g id="patch_4">
    <path d="M 198.454362 129.12 
L 198.454362 26.88 
" style="fill: none; stroke: #000000; stroke-width: 0.8; stroke-linejoin: miter; stroke-linecap: square"/>
   </g>
   <g id="patch_5">
    <path d="M 59.52 129.12 
L 198.454362 129.12 
" style="fill: none; stroke: #000000; stroke-width: 0.8; stroke-linejoin: miter; stroke-linecap: square"/>
   </g>
   <g id="patch_6">
    <path d="M 59.52 26.88 
L 198.454362 26.88 
" style="fill: none; stroke: #000000; stroke-width: 0.8; stroke-linejoin: miter; stroke-linecap: square"/>
   </g>
   <g id="text_10">
    <!-- Frequency Domain Plot -->
    <g transform="translate(59.587806 20.88) scale(0.12 -0.12)">
     <defs>
      <path id="DejaVuSans-44" d="M 1259 4147 
L 1259 519 
L 2022 519 
Q 2988 519 3436 956 
Q 3884 1394 3884 2338 
Q 3884 3275 3436 3711 
Q 2988 4147 2022 4147 
L 1259 4147 
z
M 628 4666 
L 1925 4666 
Q 3281 4666 3915 4102 
Q 4550 3538 4550 2338 
Q 4550 1131 3912 565 
Q 3275 0 1925 0 
L 628 0 
L 628 4666 
z
" transform="scale(0.015625)"/>
      <path id="DejaVuSans-6d" d="M 3328 2828 
Q 3544 3216 3844 3400 
Q 4144 3584 4550 3584 
Q 5097 3584 5394 3201 
Q 5691 2819 5691 2113 
L 5691 0 
L 5113 0 
L 5113 2094 
Q 5113 2597 4934 2840 
Q 4756 3084 4391 3084 
Q 3944 3084 3684 2787 
Q 3425 2491 3425 1978 
L 3425 0 
L 2847 0 
L 2847 2094 
Q 2847 2600 2669 2842 
Q 2491 3084 2119 3084 
Q 1678 3084 1418 2786 
Q 1159 2488 1159 1978 
L 1159 0 
L 581 0 
L 581 3500 
L 1159 3500 
L 1159 2956 
Q 1356 3278 1631 3431 
Q 1906 3584 2284 3584 
Q 2666 3584 2933 3390 
Q 3200 3197 3328 2828 
z
" transform="scale(0.015625)"/>
      <path id="DejaVuSans-61" d="M 2194 1759 
Q 1497 1759 1228 1600 
Q 959 1441 959 1056 
Q 959 750 1161 570 
Q 1363 391 1709 391 
Q 2188 391 2477 730 
Q 2766 1069 2766 1631 
L 2766 1759 
L 2194 1759 
z
M 3341 1997 
L 3341 0 
L 2766 0 
L 2766 531 
Q 2569 213 2275 61 
Q 1981 -91 1556 -91 
Q 1019 -91 701 211 
Q 384 513 384 1019 
Q 384 1609 779 1909 
Q 1175 2209 1959 2209 
L 2766 2209 
L 2766 2266 
Q 2766 2663 2505 2880 
Q 2244 3097 1772 3097 
Q 1472 3097 1187 3025 
Q 903 2953 641 2809 
L 641 3341 
Q 956 3463 1253 3523 
Q 1550 3584 1831 3584 
Q 2591 3584 2966 3190 
Q 3341 2797 3341 1997 
z
" transform="scale(0.015625)"/>
      <path id="DejaVuSans-69" d="M 603 3500 
L 1178 3500 
L 1178 0 
L 603 0 
L 603 3500 
z
M 603 4863 
L 1178 4863 
L 1178 4134 
L 603 4134 
L 603 4863 
z
" transform="scale(0.015625)"/>
      <path id="DejaVuSans-50" d="M 1259 4147 
L 1259 2394 
L 2053 2394 
Q 2494 2394 2734 2622 
Q 2975 2850 2975 3272 
Q 2975 3691 2734 3919 
Q 2494 4147 2053 4147 
L 1259 4147 
z
M 628 4666 
L 2053 4666 
Q 2838 4666 3239 4311 
Q 3641 3956 3641 3272 
Q 3641 2581 3239 2228 
Q 2838 1875 2053 1875 
L 1259 1875 
L 1259 0 
L 628 0 
L 628 4666 
z
" transform="scale(0.015625)"/>
      <path id="DejaVuSans-6c" d="M 603 4863 
L 1178 4863 
L 1178 0 
L 603 0 
L 603 4863 
z
" transform="scale(0.015625)"/>
      <path id="DejaVuSans-74" d="M 1172 4494 
L 1172 3500 
L 2356 3500 
L 2356 3053 
L 1172 3053 
L 1172 1153 
Q 1172 725 1289 603 
Q 1406 481 1766 481 
L 2356 481 
L 2356 0 
L 1766 0 
Q 1100 0 847 248 
Q 594 497 594 1153 
L 594 3053 
L 172 3053 
L 172 3500 
L 594 3500 
L 594 4494 
L 1172 4494 
z
" transform="scale(0.015625)"/>
     </defs>
     <use xlink:href="#DejaVuSans-46"/>
     <use xlink:href="#DejaVuSans-72" x="50.269531"/>
     <use xlink:href="#DejaVuSans-65" x="89.132812"/>
     <use xlink:href="#DejaVuSans-71" x="150.65625"/>
     <use xlink:href="#DejaVuSans-75" x="214.132812"/>
     <use xlink:href="#DejaVuSans-65" x="277.511719"/>
     <use xlink:href="#DejaVuSans-6e" x="339.035156"/>
     <use xlink:href="#DejaVuSans-63" x="402.414062"/>
     <use xlink:href="#DejaVuSans-79" x="457.394531"/>
     <use xlink:href="#DejaVuSans-20" x="516.574219"/>
     <use xlink:href="#DejaVuSans-44" x="548.361328"/>
     <use xlink:href="#DejaVuSans-6f" x="625.363281"/>
     <use xlink:href="#DejaVuSans-6d" x="686.544922"/>
     <use xlink:href="#DejaVuSans-61" x="783.957031"/>
     <use xlink:href="#DejaVuSans-69" x="845.236328"/>
     <use xlink:href="#DejaVuSans-6e" x="873.019531"/>
     <use xlink:href="#DejaVuSans-20" x="936.398438"/>
     <use xlink:href="#DejaVuSans-50" x="968.185547"/>
     <use xlink:href="#DejaVuSans-6c" x="1028.488281"/>
     <use xlink:href="#DejaVuSans-6f" x="1056.271484"/>
     <use xlink:href="#DejaVuSans-74" x="1117.453125"/>
    </g>
   </g>
   <g id="legend_1">
    <g id="patch_7">
     <path d="M 19.939691 158.292 
L 50.807816 158.292 
Q 51.407816 158.292 51.407816 157.692 
L 51.407816 144.781688 
Q 51.407816 144.181688 50.807816 144.181688 
L 19.939691 144.181688 
Q 19.339691 144.181688 19.339691 144.781688 
L 19.339691 157.692 
Q 19.339691 158.292 19.939691 158.292 
z
" style="fill: #ffffff; opacity: 0.8; stroke: #cccccc; stroke-linejoin: miter"/>
    </g>
    <g id="line2d_11">
     <path d="M 20.539691 146.611219 
L 23.539691 146.611219 
L 26.539691 146.611219 
" style="fill: none; stroke: #808080; stroke-width: 0.8; stroke-linecap: square"/>
    </g>
    <g id="text_11">
     <!-- Contaminated -->
     <g transform="translate(28.939691 147.661219) scale(0.03 -0.03)">
      <defs>
       <path id="DejaVuSans-43" d="M 4122 4306 
L 4122 3641 
Q 3803 3938 3442 4084 
Q 3081 4231 2675 4231 
Q 1875 4231 1450 3742 
Q 1025 3253 1025 2328 
Q 1025 1406 1450 917 
Q 1875 428 2675 428 
Q 3081 428 3442 575 
Q 3803 722 4122 1019 
L 4122 359 
Q 3791 134 3420 21 
Q 3050 -91 2638 -91 
Q 1578 -91 968 557 
Q 359 1206 359 2328 
Q 359 3453 968 4101 
Q 1578 4750 2638 4750 
Q 3056 4750 3426 4639 
Q 3797 4528 4122 4306 
z
" transform="scale(0.015625)"/>
      </defs>
      <use xlink:href="#DejaVuSans-43"/>
      <use xlink:href="#DejaVuSans-6f" x="69.824219"/>
      <use xlink:href="#DejaVuSans-6e" x="131.005859"/>
      <use xlink:href="#DejaVuSans-74" x="194.384766"/>
      <use xlink:href="#DejaVuSans-61" x="233.59375"/>
      <use xlink:href="#DejaVuSans-6d" x="294.873047"/>
      <use xlink:href="#DejaVuSans-69" x="392.285156"/>
      <use xlink:href="#DejaVuSans-6e" x="420.068359"/>
      <use xlink:href="#DejaVuSans-61" x="483.447266"/>
      <use xlink:href="#DejaVuSans-74" x="544.726562"/>
      <use xlink:href="#DejaVuSans-65" x="583.935547"/>
      <use xlink:href="#DejaVuSans-64" x="645.458984"/>
     </g>
    </g>
    <g id="line2d_12">
     <path d="M 20.539691 151.014656 
L 23.539691 151.014656 
L 26.539691 151.014656 
" style="fill: none; stroke: #1e90ff; stroke-width: 0.8; stroke-linecap: square"/>
    </g>
    <g id="text_12">
     <!-- Clean -->
     <g transform="translate(28.939691 152.064656) scale(0.03 -0.03)">
      <use xlink:href="#DejaVuSans-43"/>
      <use xlink:href="#DejaVuSans-6c" x="69.824219"/>
      <use xlink:href="#DejaVuSans-65" x="97.607422"/>
      <use xlink:href="#DejaVuSans-61" x="159.130859"/>
      <use xlink:href="#DejaVuSans-6e" x="220.410156"/>
     </g>
    </g>
    <g id="line2d_13">
     <path d="M 20.539691 155.418094 
L 23.539691 155.418094 
L 26.539691 155.418094 
" style="fill: none; stroke: #ff0000; stroke-width: 0.8; stroke-linecap: square"/>
    </g>
    <g id="text_13">
     <!-- SACed -->
     <g transform="translate(28.939691 156.468094) scale(0.03 -0.03)">
      <defs>
       <path id="DejaVuSans-53" d="M 3425 4513 
L 3425 3897 
Q 3066 4069 2747 4153 
Q 2428 4238 2131 4238 
Q 1616 4238 1336 4038 
Q 1056 3838 1056 3469 
Q 1056 3159 1242 3001 
Q 1428 2844 1947 2747 
L 2328 2669 
Q 3034 2534 3370 2195 
Q 3706 1856 3706 1288 
Q 3706 609 3251 259 
Q 2797 -91 1919 -91 
Q 1588 -91 1214 -16 
Q 841 59 441 206 
L 441 856 
Q 825 641 1194 531 
Q 1563 422 1919 422 
Q 2459 422 2753 634 
Q 3047 847 3047 1241 
Q 3047 1584 2836 1778 
Q 2625 1972 2144 2069 
L 1759 2144 
Q 1053 2284 737 2584 
Q 422 2884 422 3419 
Q 422 4038 858 4394 
Q 1294 4750 2059 4750 
Q 2388 4750 2728 4690 
Q 3069 4631 3425 4513 
z
" transform="scale(0.015625)"/>
       <path id="DejaVuSans-41" d="M 2188 4044 
L 1331 1722 
L 3047 1722 
L 2188 4044 
z
M 1831 4666 
L 2547 4666 
L 4325 0 
L 3669 0 
L 3244 1197 
L 1141 1197 
L 716 0 
L 50 0 
L 1831 4666 
z
" transform="scale(0.015625)"/>
      </defs>
      <use xlink:href="#DejaVuSans-53"/>
      <use xlink:href="#DejaVuSans-41" x="65.351562"/>
      <use xlink:href="#DejaVuSans-43" x="132.009766"/>
      <use xlink:href="#DejaVuSans-65" x="201.833984"/>
      <use xlink:href="#DejaVuSans-64" x="263.357422"/>
     </g>
    </g>
   </g>
  </g>
 </g>
 <defs>
  <clipPath id="p555df85b80">
   <rect x="59.52" y="26.88" width="138.934362" height="102.24"/>
  </clipPath>
 </defs>
</svg>
