<?xml version="1.0" encoding="utf-8" standalone="no"?>
<!DOCTYPE svg PUBLIC "-//W3C//DTD SVG 1.1//EN"
  "http://www.w3.org/Graphics/SVG/1.1/DTD/svg11.dtd">
<svg xmlns:xlink="http://www.w3.org/1999/xlink" width="216pt" height="180pt" viewBox="0 0 216 180" xmlns="http://www.w3.org/2000/svg" version="1.1">
 <metadata>
  <rdf:RDF xmlns:dc="http://purl.org/dc/elements/1.1/" xmlns:cc="http://creativecommons.org/ns#" xmlns:rdf="http://www.w3.org/1999/02/22-rdf-syntax-ns#">
   <cc:Work>
    <dc:type rdf:resource="http://purl.org/dc/dcmitype/StillImage"/>
    <dc:date>2024-08-24T14:27:11.662489</dc:date>
    <dc:format>image/svg+xml</dc:format>
    <dc:creator>
     <cc:Agent>
      <dc:title>Matplotlib v3.9.1, https://matplotlib.org/</dc:title>
     </cc:Agent>
    </dc:creator>
   </cc:Work>
  </rdf:RDF>
 </metadata>
 <defs>
  <style type="text/css">*{stroke-linejoin: round; stroke-linecap: butt}</style>
 </defs>
 <g id="figure_1">
  <g id="patch_1">
   <path d="M 0 180 
L 216 180 
L 216 0 
L 0 0 
z
" style="fill: #ffffff"/>
  </g>
  <g id="axes_1">
   <g id="patch_2">
    <path d="M 59.52 129.12 
L 198.454362 129.12 
L 198.454362 26.88 
L 59.52 26.88 
z
" style="fill: #ffffff"/>
   </g>
   <g id="matplotlib.axis_1">
    <g id="xtick_1">
     <g id="line2d_1">
      <defs>
       <path id="m932c1885b2" d="M 0 0 
L 0 3.5 
" style="stroke: #000000; stroke-width: 0.8"/>
      </defs>
      <g>
       <use xlink:href="#m932c1885b2" x="61.540047" y="129.12" style="stroke: #000000; stroke-width: 0.8"/>
      </g>
     </g>
     <g id="text_1">
      <!-- 0 -->
      <g transform="translate(58.358797 143.718437) scale(0.1 -0.1)">
       <defs>
        <path id="DejaVuSans-30" d="M 2034 4250 
Q 1547 4250 1301 3770 
Q 1056 3291 1056 2328 
Q 1056 1369 1301 889 
Q 1547 409 2034 409 
Q 2525 409 2770 889 
Q 3016 1369 3016 2328 
Q 3016 3291 2770 3770 
Q 2525 4250 2034 4250 
z
M 2034 4750 
Q 2819 4750 3233 4129 
Q 3647 3509 3647 2328 
Q 3647 1150 3233 529 
Q 2819 -91 2034 -91 
Q 1250 -91 836 529 
Q 422 1150 422 2328 
Q 422 3509 836 4129 
Q 1250 4750 2034 4750 
z
" transform="scale(0.015625)"/>
       </defs>
       <use xlink:href="#DejaVuSans-30"/>
      </g>
     </g>
    </g>
    <g id="xtick_2">
     <g id="line2d_2">
      <g>
       <use xlink:href="#m932c1885b2" x="128.874956" y="129.12" style="stroke: #000000; stroke-width: 0.8"/>
      </g>
     </g>
     <g id="text_2">
      <!-- 150 -->
      <g transform="translate(119.331206 143.718437) scale(0.1 -0.1)">
       <defs>
        <path id="DejaVuSans-31" d="M 794 531 
L 1825 531 
L 1825 4091 
L 703 3866 
L 703 4441 
L 1819 4666 
L 2450 4666 
L 2450 531 
L 3481 531 
L 3481 0 
L 794 0 
L 794 531 
z
" transform="scale(0.015625)"/>
        <path id="DejaVuSans-35" d="M 691 4666 
L 3169 4666 
L 3169 4134 
L 1269 4134 
L 1269 2991 
Q 1406 3038 1543 3061 
Q 1681 3084 1819 3084 
Q 2600 3084 3056 2656 
Q 3513 2228 3513 1497 
Q 3513 744 3044 326 
Q 2575 -91 1722 -91 
Q 1428 -91 1123 -41 
Q 819 9 494 109 
L 494 744 
Q 775 591 1075 516 
Q 1375 441 1709 441 
Q 2250 441 2565 725 
Q 2881 1009 2881 1497 
Q 2881 1984 2565 2268 
Q 2250 2553 1709 2553 
Q 1456 2553 1204 2497 
Q 953 2441 691 2322 
L 691 4666 
z
" transform="scale(0.015625)"/>
       </defs>
       <use xlink:href="#DejaVuSans-31"/>
       <use xlink:href="#DejaVuSans-35" x="63.623047"/>
       <use xlink:href="#DejaVuSans-30" x="127.246094"/>
      </g>
     </g>
    </g>
    <g id="xtick_3">
     <g id="line2d_3">
      <g>
       <use xlink:href="#m932c1885b2" x="196.209865" y="129.12" style="stroke: #000000; stroke-width: 0.8"/>
      </g>
     </g>
     <g id="text_3">
      <!-- 300 -->
      <g transform="translate(186.666115 143.718437) scale(0.1 -0.1)">
       <defs>
        <path id="DejaVuSans-33" d="M 2597 2516 
Q 3050 2419 3304 2112 
Q 3559 1806 3559 1356 
Q 3559 666 3084 287 
Q 2609 -91 1734 -91 
Q 1441 -91 1130 -33 
Q 819 25 488 141 
L 488 750 
Q 750 597 1062 519 
Q 1375 441 1716 441 
Q 2309 441 2620 675 
Q 2931 909 2931 1356 
Q 2931 1769 2642 2001 
Q 2353 2234 1838 2234 
L 1294 2234 
L 1294 2753 
L 1863 2753 
Q 2328 2753 2575 2939 
Q 2822 3125 2822 3475 
Q 2822 3834 2567 4026 
Q 2313 4219 1838 4219 
Q 1578 4219 1281 4162 
Q 984 4106 628 3988 
L 628 4550 
Q 988 4650 1302 4700 
Q 1616 4750 1894 4750 
Q 2613 4750 3031 4423 
Q 3450 4097 3450 3541 
Q 3450 3153 3228 2886 
Q 3006 2619 2597 2516 
z
" transform="scale(0.015625)"/>
       </defs>
       <use xlink:href="#DejaVuSans-33"/>
       <use xlink:href="#DejaVuSans-30" x="63.623047"/>
       <use xlink:href="#DejaVuSans-30" x="127.246094"/>
      </g>
     </g>
    </g>
    <g id="text_4">
     <!-- Frequency (Hz) -->
     <g transform="translate(91.282493 157.396563) scale(0.1 -0.1)">
      <defs>
       <path id="DejaVuSans-46" d="M 628 4666 
L 3309 4666 
L 3309 4134 
L 1259 4134 
L 1259 2759 
L 3109 2759 
L 3109 2228 
L 1259 2228 
L 1259 0 
L 628 0 
L 628 4666 
z
" transform="scale(0.015625)"/>
       <path id="DejaVuSans-72" d="M 2631 2963 
Q 2534 3019 2420 3045 
Q 2306 3072 2169 3072 
Q 1681 3072 1420 2755 
Q 1159 2438 1159 1844 
L 1159 0 
L 581 0 
L 581 3500 
L 1159 3500 
L 1159 2956 
Q 1341 3275 1631 3429 
Q 1922 3584 2338 3584 
Q 2397 3584 2469 3576 
Q 2541 3569 2628 3553 
L 2631 2963 
z
" transform="scale(0.015625)"/>
       <path id="DejaVuSans-65" d="M 3597 1894 
L 3597 1613 
L 953 1613 
Q 991 1019 1311 708 
Q 1631 397 2203 397 
Q 2534 397 2845 478 
Q 3156 559 3463 722 
L 3463 178 
Q 3153 47 2828 -22 
Q 2503 -91 2169 -91 
Q 1331 -91 842 396 
Q 353 884 353 1716 
Q 353 2575 817 3079 
Q 1281 3584 2069 3584 
Q 2775 3584 3186 3129 
Q 3597 2675 3597 1894 
z
M 3022 2063 
Q 3016 2534 2758 2815 
Q 2500 3097 2075 3097 
Q 1594 3097 1305 2825 
Q 1016 2553 972 2059 
L 3022 2063 
z
" transform="scale(0.015625)"/>
       <path id="DejaVuSans-71" d="M 947 1747 
Q 947 1113 1208 752 
Q 1469 391 1925 391 
Q 2381 391 2643 752 
Q 2906 1113 2906 1747 
Q 2906 2381 2643 2742 
Q 2381 3103 1925 3103 
Q 1469 3103 1208 2742 
Q 947 2381 947 1747 
z
M 2906 525 
Q 2725 213 2448 61 
Q 2172 -91 1784 -91 
Q 1150 -91 751 415 
Q 353 922 353 1747 
Q 353 2572 751 3078 
Q 1150 3584 1784 3584 
Q 2172 3584 2448 3432 
Q 2725 3281 2906 2969 
L 2906 3500 
L 3481 3500 
L 3481 -1331 
L 2906 -1331 
L 2906 525 
z
" transform="scale(0.015625)"/>
       <path id="DejaVuSans-75" d="M 544 1381 
L 544 3500 
L 1119 3500 
L 1119 1403 
Q 1119 906 1312 657 
Q 1506 409 1894 409 
Q 2359 409 2629 706 
Q 2900 1003 2900 1516 
L 2900 3500 
L 3475 3500 
L 3475 0 
L 2900 0 
L 2900 538 
Q 2691 219 2414 64 
Q 2138 -91 1772 -91 
Q 1169 -91 856 284 
Q 544 659 544 1381 
z
M 1991 3584 
L 1991 3584 
z
" transform="scale(0.015625)"/>
       <path id="DejaVuSans-6e" d="M 3513 2113 
L 3513 0 
L 2938 0 
L 2938 2094 
Q 2938 2591 2744 2837 
Q 2550 3084 2163 3084 
Q 1697 3084 1428 2787 
Q 1159 2491 1159 1978 
L 1159 0 
L 581 0 
L 581 3500 
L 1159 3500 
L 1159 2956 
Q 1366 3272 1645 3428 
Q 1925 3584 2291 3584 
Q 2894 3584 3203 3211 
Q 3513 2838 3513 2113 
z
" transform="scale(0.015625)"/>
       <path id="DejaVuSans-63" d="M 3122 3366 
L 3122 2828 
Q 2878 2963 2633 3030 
Q 2388 3097 2138 3097 
Q 1578 3097 1268 2742 
Q 959 2388 959 1747 
Q 959 1106 1268 751 
Q 1578 397 2138 397 
Q 2388 397 2633 464 
Q 2878 531 3122 666 
L 3122 134 
Q 2881 22 2623 -34 
Q 2366 -91 2075 -91 
Q 1284 -91 818 406 
Q 353 903 353 1747 
Q 353 2603 823 3093 
Q 1294 3584 2113 3584 
Q 2378 3584 2631 3529 
Q 2884 3475 3122 3366 
z
" transform="scale(0.015625)"/>
       <path id="DejaVuSans-79" d="M 2059 -325 
Q 1816 -950 1584 -1140 
Q 1353 -1331 966 -1331 
L 506 -1331 
L 506 -850 
L 844 -850 
Q 1081 -850 1212 -737 
Q 1344 -625 1503 -206 
L 1606 56 
L 191 3500 
L 800 3500 
L 1894 763 
L 2988 3500 
L 3597 3500 
L 2059 -325 
z
" transform="scale(0.015625)"/>
       <path id="DejaVuSans-20" transform="scale(0.015625)"/>
       <path id="DejaVuSans-28" d="M 1984 4856 
Q 1566 4138 1362 3434 
Q 1159 2731 1159 2009 
Q 1159 1288 1364 580 
Q 1569 -128 1984 -844 
L 1484 -844 
Q 1016 -109 783 600 
Q 550 1309 550 2009 
Q 550 2706 781 3412 
Q 1013 4119 1484 4856 
L 1984 4856 
z
" transform="scale(0.015625)"/>
       <path id="DejaVuSans-48" d="M 628 4666 
L 1259 4666 
L 1259 2753 
L 3553 2753 
L 3553 4666 
L 4184 4666 
L 4184 0 
L 3553 0 
L 3553 2222 
L 1259 2222 
L 1259 0 
L 628 0 
L 628 4666 
z
" transform="scale(0.015625)"/>
       <path id="DejaVuSans-7a" d="M 353 3500 
L 3084 3500 
L 3084 2975 
L 922 459 
L 3084 459 
L 3084 0 
L 275 0 
L 275 525 
L 2438 3041 
L 353 3041 
L 353 3500 
z
" transform="scale(0.015625)"/>
       <path id="DejaVuSans-29" d="M 513 4856 
L 1013 4856 
Q 1481 4119 1714 3412 
Q 1947 2706 1947 2009 
Q 1947 1309 1714 600 
Q 1481 -109 1013 -844 
L 513 -844 
Q 928 -128 1133 580 
Q 1338 1288 1338 2009 
Q 1338 2731 1133 3434 
Q 928 4138 513 4856 
z
" transform="scale(0.015625)"/>
      </defs>
      <use xlink:href="#DejaVuSans-46"/>
      <use xlink:href="#DejaVuSans-72" x="50.269531"/>
      <use xlink:href="#DejaVuSans-65" x="89.132812"/>
      <use xlink:href="#DejaVuSans-71" x="150.65625"/>
      <use xlink:href="#DejaVuSans-75" x="214.132812"/>
      <use xlink:href="#DejaVuSans-65" x="277.511719"/>
      <use xlink:href="#DejaVuSans-6e" x="339.035156"/>
      <use xlink:href="#DejaVuSans-63" x="402.414062"/>
      <use xlink:href="#DejaVuSans-79" x="457.394531"/>
      <use xlink:href="#DejaVuSans-20" x="516.574219"/>
      <use xlink:href="#DejaVuSans-28" x="548.361328"/>
      <use xlink:href="#DejaVuSans-48" x="587.375"/>
      <use xlink:href="#DejaVuSans-7a" x="662.570312"/>
      <use xlink:href="#DejaVuSans-29" x="715.060547"/>
     </g>
    </g>
   </g>
   <g id="matplotlib.axis_2">
    <g id="ytick_1">
     <g id="line2d_4">
      <defs>
       <path id="mf5c1f1bae7" d="M 0 0 
L -3.5 0 
" style="stroke: #000000; stroke-width: 0.8"/>
      </defs>
      <g>
       <use xlink:href="#mf5c1f1bae7" x="59.52" y="109.387202" style="stroke: #000000; stroke-width: 0.8"/>
      </g>
     </g>
     <g id="text_5">
      <!-- $\mathdefault{10^{-4}}$ -->
      <g transform="translate(29.02 113.186421) scale(0.1 -0.1)">
       <defs>
        <path id="DejaVuSans-2212" d="M 678 2272 
L 4684 2272 
L 4684 1741 
L 678 1741 
L 678 2272 
z
" transform="scale(0.015625)"/>
        <path id="DejaVuSans-34" d="M 2419 4116 
L 825 1625 
L 2419 1625 
L 2419 4116 
z
M 2253 4666 
L 3047 4666 
L 3047 1625 
L 3713 1625 
L 3713 1100 
L 3047 1100 
L 3047 0 
L 2419 0 
L 2419 1100 
L 313 1100 
L 313 1709 
L 2253 4666 
z
" transform="scale(0.015625)"/>
       </defs>
       <use xlink:href="#DejaVuSans-31" transform="translate(0 0.684375)"/>
       <use xlink:href="#DejaVuSans-30" transform="translate(63.623047 0.684375)"/>
       <use xlink:href="#DejaVuSans-2212" transform="translate(128.203125 38.965625) scale(0.7)"/>
       <use xlink:href="#DejaVuSans-34" transform="translate(186.855469 38.965625) scale(0.7)"/>
      </g>
     </g>
    </g>
    <g id="ytick_2">
     <g id="line2d_5">
      <g>
       <use xlink:href="#mf5c1f1bae7" x="59.52" y="85.413483" style="stroke: #000000; stroke-width: 0.8"/>
      </g>
     </g>
     <g id="text_6">
      <!-- $\mathdefault{10^{-1}}$ -->
      <g transform="translate(29.02 89.212701) scale(0.1 -0.1)">
       <use xlink:href="#DejaVuSans-31" transform="translate(0 0.684375)"/>
       <use xlink:href="#DejaVuSans-30" transform="translate(63.623047 0.684375)"/>
       <use xlink:href="#DejaVuSans-2212" transform="translate(128.203125 38.965625) scale(0.7)"/>
       <use xlink:href="#DejaVuSans-31" transform="translate(186.855469 38.965625) scale(0.7)"/>
      </g>
     </g>
    </g>
    <g id="ytick_3">
     <g id="line2d_6">
      <g>
       <use xlink:href="#mf5c1f1bae7" x="59.52" y="61.439763" style="stroke: #000000; stroke-width: 0.8"/>
      </g>
     </g>
     <g id="text_7">
      <!-- $\mathdefault{10^{2}}$ -->
      <g transform="translate(34.92 65.238981) scale(0.1 -0.1)">
       <defs>
        <path id="DejaVuSans-32" d="M 1228 531 
L 3431 531 
L 3431 0 
L 469 0 
L 469 531 
Q 828 903 1448 1529 
Q 2069 2156 2228 2338 
Q 2531 2678 2651 2914 
Q 2772 3150 2772 3378 
Q 2772 3750 2511 3984 
Q 2250 4219 1831 4219 
Q 1534 4219 1204 4116 
Q 875 4013 500 3803 
L 500 4441 
Q 881 4594 1212 4672 
Q 1544 4750 1819 4750 
Q 2544 4750 2975 4387 
Q 3406 4025 3406 3419 
Q 3406 3131 3298 2873 
Q 3191 2616 2906 2266 
Q 2828 2175 2409 1742 
Q 1991 1309 1228 531 
z
" transform="scale(0.015625)"/>
       </defs>
       <use xlink:href="#DejaVuSans-31" transform="translate(0 0.765625)"/>
       <use xlink:href="#DejaVuSans-30" transform="translate(63.623047 0.765625)"/>
       <use xlink:href="#DejaVuSans-32" transform="translate(128.203125 39.046875) scale(0.7)"/>
      </g>
     </g>
    </g>
    <g id="ytick_4">
     <g id="line2d_7">
      <g>
       <use xlink:href="#mf5c1f1bae7" x="59.52" y="37.466043" style="stroke: #000000; stroke-width: 0.8"/>
      </g>
     </g>
     <g id="text_8">
      <!-- $\mathdefault{10^{5}}$ -->
      <g transform="translate(34.92 41.265261) scale(0.1 -0.1)">
       <use xlink:href="#DejaVuSans-31" transform="translate(0 0.684375)"/>
       <use xlink:href="#DejaVuSans-30" transform="translate(63.623047 0.684375)"/>
       <use xlink:href="#DejaVuSans-35" transform="translate(128.203125 38.965625) scale(0.7)"/>
      </g>
     </g>
    </g>
    <g id="text_9">
     <!-- Log power (dB/Hz) -->
     <g transform="translate(22.940312 124.139844) rotate(-90) scale(0.1 -0.1)">
      <defs>
       <path id="DejaVuSans-4c" d="M 628 4666 
L 1259 4666 
L 1259 531 
L 3531 531 
L 3531 0 
L 628 0 
L 628 4666 
z
" transform="scale(0.015625)"/>
       <path id="DejaVuSans-6f" d="M 1959 3097 
Q 1497 3097 1228 2736 
Q 959 2375 959 1747 
Q 959 1119 1226 758 
Q 1494 397 1959 397 
Q 2419 397 2687 759 
Q 2956 1122 2956 1747 
Q 2956 2369 2687 2733 
Q 2419 3097 1959 3097 
z
M 1959 3584 
Q 2709 3584 3137 3096 
Q 3566 2609 3566 1747 
Q 3566 888 3137 398 
Q 2709 -91 1959 -91 
Q 1206 -91 779 398 
Q 353 888 353 1747 
Q 353 2609 779 3096 
Q 1206 3584 1959 3584 
z
" transform="scale(0.015625)"/>
       <path id="DejaVuSans-67" d="M 2906 1791 
Q 2906 2416 2648 2759 
Q 2391 3103 1925 3103 
Q 1463 3103 1205 2759 
Q 947 2416 947 1791 
Q 947 1169 1205 825 
Q 1463 481 1925 481 
Q 2391 481 2648 825 
Q 2906 1169 2906 1791 
z
M 3481 434 
Q 3481 -459 3084 -895 
Q 2688 -1331 1869 -1331 
Q 1566 -1331 1297 -1286 
Q 1028 -1241 775 -1147 
L 775 -588 
Q 1028 -725 1275 -790 
Q 1522 -856 1778 -856 
Q 2344 -856 2625 -561 
Q 2906 -266 2906 331 
L 2906 616 
Q 2728 306 2450 153 
Q 2172 0 1784 0 
Q 1141 0 747 490 
Q 353 981 353 1791 
Q 353 2603 747 3093 
Q 1141 3584 1784 3584 
Q 2172 3584 2450 3431 
Q 2728 3278 2906 2969 
L 2906 3500 
L 3481 3500 
L 3481 434 
z
" transform="scale(0.015625)"/>
       <path id="DejaVuSans-70" d="M 1159 525 
L 1159 -1331 
L 581 -1331 
L 581 3500 
L 1159 3500 
L 1159 2969 
Q 1341 3281 1617 3432 
Q 1894 3584 2278 3584 
Q 2916 3584 3314 3078 
Q 3713 2572 3713 1747 
Q 3713 922 3314 415 
Q 2916 -91 2278 -91 
Q 1894 -91 1617 61 
Q 1341 213 1159 525 
z
M 3116 1747 
Q 3116 2381 2855 2742 
Q 2594 3103 2138 3103 
Q 1681 3103 1420 2742 
Q 1159 2381 1159 1747 
Q 1159 1113 1420 752 
Q 1681 391 2138 391 
Q 2594 391 2855 752 
Q 3116 1113 3116 1747 
z
" transform="scale(0.015625)"/>
       <path id="DejaVuSans-77" d="M 269 3500 
L 844 3500 
L 1563 769 
L 2278 3500 
L 2956 3500 
L 3675 769 
L 4391 3500 
L 4966 3500 
L 4050 0 
L 3372 0 
L 2619 2869 
L 1863 0 
L 1184 0 
L 269 3500 
z
" transform="scale(0.015625)"/>
       <path id="DejaVuSans-64" d="M 2906 2969 
L 2906 4863 
L 3481 4863 
L 3481 0 
L 2906 0 
L 2906 525 
Q 2725 213 2448 61 
Q 2172 -91 1784 -91 
Q 1150 -91 751 415 
Q 353 922 353 1747 
Q 353 2572 751 3078 
Q 1150 3584 1784 3584 
Q 2172 3584 2448 3432 
Q 2725 3281 2906 2969 
z
M 947 1747 
Q 947 1113 1208 752 
Q 1469 391 1925 391 
Q 2381 391 2643 752 
Q 2906 1113 2906 1747 
Q 2906 2381 2643 2742 
Q 2381 3103 1925 3103 
Q 1469 3103 1208 2742 
Q 947 2381 947 1747 
z
" transform="scale(0.015625)"/>
       <path id="DejaVuSans-42" d="M 1259 2228 
L 1259 519 
L 2272 519 
Q 2781 519 3026 730 
Q 3272 941 3272 1375 
Q 3272 1813 3026 2020 
Q 2781 2228 2272 2228 
L 1259 2228 
z
M 1259 4147 
L 1259 2741 
L 2194 2741 
Q 2656 2741 2882 2914 
Q 3109 3088 3109 3444 
Q 3109 3797 2882 3972 
Q 2656 4147 2194 4147 
L 1259 4147 
z
M 628 4666 
L 2241 4666 
Q 2963 4666 3353 4366 
Q 3744 4066 3744 3513 
Q 3744 3084 3544 2831 
Q 3344 2578 2956 2516 
Q 3422 2416 3680 2098 
Q 3938 1781 3938 1306 
Q 3938 681 3513 340 
Q 3088 0 2303 0 
L 628 0 
L 628 4666 
z
" transform="scale(0.015625)"/>
       <path id="DejaVuSans-2f" d="M 1625 4666 
L 2156 4666 
L 531 -594 
L 0 -594 
L 1625 4666 
z
" transform="scale(0.015625)"/>
      </defs>
      <use xlink:href="#DejaVuSans-4c"/>
      <use xlink:href="#DejaVuSans-6f" x="53.962891"/>
      <use xlink:href="#DejaVuSans-67" x="115.144531"/>
      <use xlink:href="#DejaVuSans-20" x="178.621094"/>
      <use xlink:href="#DejaVuSans-70" x="210.408203"/>
      <use xlink:href="#DejaVuSans-6f" x="273.884766"/>
      <use xlink:href="#DejaVuSans-77" x="335.066406"/>
      <use xlink:href="#DejaVuSans-65" x="416.853516"/>
      <use xlink:href="#DejaVuSans-72" x="478.376953"/>
      <use xlink:href="#DejaVuSans-20" x="519.490234"/>
      <use xlink:href="#DejaVuSans-28" x="551.277344"/>
      <use xlink:href="#DejaVuSans-64" x="590.291016"/>
      <use xlink:href="#DejaVuSans-42" x="653.767578"/>
      <use xlink:href="#DejaVuSans-2f" x="722.371094"/>
      <use xlink:href="#DejaVuSans-48" x="756.0625"/>
      <use xlink:href="#DejaVuSans-7a" x="831.257812"/>
      <use xlink:href="#DejaVuSans-29" x="883.748047"/>
     </g>
    </g>
   </g>
   <g id="line2d_8">
    <path d="M 61.764497 66.660528 
L 61.988947 71.616745 
L 62.213396 64.177427 
L 62.437846 61.853094 
L 62.662296 67.093617 
L 62.886745 66.074996 
L 63.111195 59.16702 
L 63.335645 69.05914 
L 63.560095 66.616511 
L 64.008994 64.122862 
L 64.233444 69.325587 
L 64.457893 67.046195 
L 64.682343 61.665672 
L 64.906793 70.231876 
L 65.131242 62.536293 
L 65.580142 63.780841 
L 65.804591 70.888676 
L 66.029041 63.576429 
L 66.253491 61.526942 
L 66.477941 63.591195 
L 66.70239 63.982993 
L 66.92684 60.085241 
L 67.15129 71.160196 
L 67.375739 70.620484 
L 67.600189 65.274796 
L 67.824639 69.804024 
L 68.049088 69.952593 
L 68.273538 68.080483 
L 68.722438 66.129614 
L 68.946887 58.930791 
L 69.171337 66.695111 
L 69.395787 66.65199 
L 69.620236 60.113462 
L 69.844686 71.992437 
L 70.293585 64.846024 
L 70.518035 64.12871 
L 70.742485 74.778259 
L 70.966935 60.296928 
L 71.191384 63.322193 
L 71.415834 77.175345 
L 71.640284 54.408585 
L 71.864733 64.449876 
L 72.089183 69.002239 
L 72.313633 66.289616 
L 72.538082 76.429848 
L 72.762532 71.936943 
L 72.986982 64.390651 
L 73.211431 64.884378 
L 73.435881 64.981879 
L 73.660331 72.56508 
L 73.884781 74.517174 
L 74.10923 62.861598 
L 74.33368 58.978413 
L 74.55813 72.586878 
L 74.782579 73.887204 
L 75.231479 65.416582 
L 75.455928 71.978828 
L 75.680378 60.821591 
L 75.904828 70.284352 
L 76.129278 68.440294 
L 76.353727 70.786088 
L 76.578177 62.995081 
L 77.027076 68.719252 
L 77.251526 61.914206 
L 77.475976 61.379331 
L 77.700425 69.227553 
L 77.924875 62.721286 
L 78.373774 68.705771 
L 78.598224 60.263673 
L 79.047124 67.54125 
L 79.271573 64.397993 
L 79.496023 71.140781 
L 79.720473 83.768743 
L 79.944922 67.042449 
L 80.169372 60.152616 
L 80.393822 63.290984 
L 80.842721 75.134044 
L 81.067171 63.619512 
L 81.291621 67.388844 
L 81.51607 63.144084 
L 81.74052 71.386812 
L 81.96497 65.124037 
L 82.189419 63.300828 
L 82.413869 63.393149 
L 82.638319 65.795069 
L 82.862768 66.041098 
L 83.087218 67.539685 
L 83.536117 63.443601 
L 83.760567 63.95908 
L 84.209467 68.539098 
L 84.433916 73.604263 
L 84.658366 66.922986 
L 84.882816 69.105796 
L 85.107265 61.851316 
L 85.331715 63.327016 
L 85.556165 72.329886 
L 85.780614 66.347857 
L 86.005064 72.943751 
L 86.229514 64.137877 
L 86.453964 63.336303 
L 86.678413 65.001879 
L 86.902863 63.784098 
L 87.127313 60.530647 
L 87.351762 69.004221 
L 87.576212 72.590114 
L 87.800662 63.594774 
L 88.025111 62.172602 
L 88.249561 63.752736 
L 88.474011 67.559351 
L 88.69846 60.344091 
L 89.14736 67.906426 
L 89.37181 67.850933 
L 89.596259 66.05831 
L 89.820709 68.30119 
L 90.045159 67.204172 
L 90.494058 60.196984 
L 90.718508 68.233004 
L 91.167407 61.761052 
L 91.391857 63.295613 
L 91.616307 72.331738 
L 91.840756 71.707667 
L 92.065206 60.312788 
L 92.289656 64.081274 
L 92.514105 64.161182 
L 92.738555 61.78911 
L 92.963005 65.05653 
L 93.187454 74.766388 
L 93.411904 66.247606 
L 93.636354 76.24061 
L 93.860804 62.142498 
L 94.085253 60.770035 
L 94.309703 70.88226 
L 94.534153 66.940744 
L 94.758602 70.600206 
L 94.983052 68.927988 
L 95.431951 62.007459 
L 95.656401 63.724904 
L 95.880851 64.115328 
L 96.1053 66.093687 
L 96.32975 66.774378 
L 96.5542 63.667971 
L 96.77865 62.88272 
L 97.003099 61.349834 
L 97.227549 64.048272 
L 97.451999 71.035895 
L 97.676448 61.252055 
L 97.900898 66.432124 
L 98.125348 62.517035 
L 98.349797 71.822887 
L 98.798697 61.321095 
L 99.023147 57.904525 
L 99.247596 64.268086 
L 99.472046 74.551595 
L 99.920945 63.277258 
L 100.145395 63.366317 
L 100.369845 63.141959 
L 100.594294 57.593581 
L 100.818744 65.276387 
L 101.043194 65.965542 
L 101.267643 60.519752 
L 101.492093 67.721258 
L 101.716543 60.48139 
L 101.940993 61.033999 
L 102.165442 69.473062 
L 102.389892 61.371591 
L 102.614342 61.099177 
L 102.838791 61.942645 
L 103.287691 66.053234 
L 103.51214 58.72048 
L 103.73659 75.826324 
L 103.96104 63.364323 
L 104.18549 66.073662 
L 104.409939 72.289616 
L 104.858839 57.536008 
L 105.083288 61.484031 
L 105.307738 68.182753 
L 105.756637 61.007288 
L 105.981087 61.601313 
L 106.205537 64.636386 
L 106.429986 69.793952 
L 106.654436 68.698248 
L 106.878886 64.944865 
L 107.103336 67.606343 
L 107.327785 63.34449 
L 108.001134 65.484683 
L 108.225584 60.445769 
L 108.450034 71.631417 
L 108.674483 59.626345 
L 108.898933 62.184061 
L 109.123383 69.480175 
L 109.347833 69.330659 
L 109.572282 59.525592 
L 109.796732 61.385594 
L 110.021182 66.242049 
L 110.245631 57.863305 
L 110.694531 71.91796 
L 110.91898 61.039594 
L 111.36788 71.127082 
L 111.592329 61.548505 
L 111.816779 66.240905 
L 112.041229 74.417499 
L 112.265679 61.221563 
L 112.490128 61.767422 
L 112.714578 63.495825 
L 112.939028 63.140499 
L 113.163477 59.00683 
L 113.612377 67.790838 
L 113.836826 61.918872 
L 114.061276 59.085016 
L 114.285726 71.391875 
L 114.510176 64.266675 
L 114.734625 64.359395 
L 114.959075 60.990195 
L 115.407974 68.21704 
L 115.632424 63.817013 
L 115.856874 71.094539 
L 116.081323 61.650906 
L 116.530223 74.516279 
L 116.754673 64.891502 
L 116.979122 66.30308 
L 117.203572 63.340294 
L 117.428022 76.180826 
L 117.652471 31.527273 
L 117.876921 75.079359 
L 118.101371 63.193224 
L 118.32582 66.366495 
L 118.55027 64.924343 
L 118.77472 74.989337 
L 119.223619 62.08232 
L 119.448069 70.865559 
L 119.672519 64.33059 
L 119.896968 68.953841 
L 120.345868 61.70591 
L 120.570317 64.614915 
L 120.794767 65.267155 
L 121.019217 71.487267 
L 121.243666 59.801686 
L 121.468116 62.685967 
L 121.692566 68.373827 
L 122.141465 59.94497 
L 122.365915 63.754794 
L 122.590365 64.753389 
L 122.814814 63.013073 
L 123.039264 62.46201 
L 123.263714 76.986535 
L 123.712613 62.750702 
L 123.937063 73.060098 
L 124.385962 62.340122 
L 124.610412 73.158005 
L 124.834862 67.924249 
L 125.059311 59.628016 
L 125.283761 67.899836 
L 125.508211 62.913968 
L 125.73266 61.55574 
L 125.95711 71.792915 
L 126.18156 71.405517 
L 126.406009 63.811692 
L 126.630459 61.396502 
L 126.854909 73.481017 
L 127.079359 62.336057 
L 127.303808 68.626653 
L 127.752708 65.748207 
L 127.977157 65.759864 
L 128.201607 69.990745 
L 128.426057 67.314513 
L 128.650506 71.203283 
L 128.874956 71.825339 
L 129.323855 64.410089 
L 129.548305 63.454992 
L 129.997205 70.371735 
L 130.446104 60.366208 
L 130.895003 76.652439 
L 131.119453 69.103395 
L 131.343903 66.41513 
L 131.568352 78.158662 
L 131.792802 61.846174 
L 132.017252 69.050068 
L 132.466151 64.951045 
L 132.690601 64.040131 
L 132.915051 64.458444 
L 133.1395 72.282808 
L 133.36395 64.363127 
L 133.5884 63.562916 
L 133.812849 69.716191 
L 134.037299 64.665078 
L 134.261749 69.520102 
L 134.486198 68.886626 
L 134.710648 61.495831 
L 134.935098 67.398895 
L 135.159548 67.854253 
L 135.383997 67.093122 
L 135.832897 79.098204 
L 136.281796 62.007133 
L 136.730695 70.254759 
L 136.955145 76.56931 
L 137.179595 67.004914 
L 137.404045 70.466826 
L 137.628494 65.668426 
L 137.852944 73.907647 
L 138.077394 68.759562 
L 138.301843 66.560292 
L 138.750743 68.745732 
L 138.975192 72.739519 
L 139.424092 69.016028 
L 139.648542 68.683244 
L 139.872991 68.069739 
L 140.54634 77.156855 
L 140.77079 71.655958 
L 140.99524 77.313108 
L 141.219689 66.147078 
L 141.444139 67.281261 
L 141.668589 79.262573 
L 141.893038 71.317865 
L 142.117488 79.330316 
L 142.341938 70.314603 
L 142.566388 67.651949 
L 142.790837 69.934946 
L 143.015287 69.57001 
L 143.239737 65.621487 
L 143.464186 76.337105 
L 143.688636 77.778394 
L 143.913086 68.202914 
L 144.137535 68.595637 
L 144.361985 70.117612 
L 144.586435 73.478374 
L 144.810885 66.657989 
L 145.259784 72.895913 
L 145.484234 75.586929 
L 145.708683 73.407229 
L 145.933133 74.562309 
L 146.157583 73.529677 
L 146.382032 71.17388 
L 146.606482 67.19571 
L 146.830932 74.57433 
L 147.055381 70.74399 
L 147.279831 69.416473 
L 147.504281 69.756162 
L 147.728731 78.868849 
L 147.95318 76.843748 
L 148.17763 67.38246 
L 148.40208 71.178228 
L 148.626529 71.779928 
L 148.850979 69.522332 
L 149.075429 72.454392 
L 149.299878 81.628009 
L 149.524328 73.380036 
L 149.748778 81.221173 
L 149.973228 69.907481 
L 150.197677 68.828551 
L 150.422127 78.984596 
L 150.646577 74.419652 
L 150.871026 80.944502 
L 151.095476 78.752397 
L 151.319926 73.983932 
L 151.544375 71.579073 
L 151.768825 71.800233 
L 151.993275 72.711499 
L 152.217724 74.933958 
L 152.442174 75.753109 
L 152.666624 72.87071 
L 152.891074 71.504862 
L 153.115523 70.973234 
L 153.339973 73.087641 
L 153.564423 77.568302 
L 153.788872 70.479675 
L 154.013322 74.953253 
L 154.237772 71.575466 
L 154.462221 79.89986 
L 155.135571 66.954881 
L 155.58447 82.380282 
L 156.033369 72.814598 
L 156.482269 73.063568 
L 156.706718 66.807892 
L 156.931168 74.575628 
L 157.155618 75.78818 
L 157.380067 70.18979 
L 157.604517 75.537311 
L 157.828967 69.488811 
L 158.053417 70.549998 
L 158.277866 77.966484 
L 158.502316 70.49275 
L 158.726766 70.102842 
L 159.175665 72.581445 
L 159.400115 75.157184 
L 159.624564 68.252835 
L 159.849014 83.841404 
L 160.073464 72.559455 
L 160.297914 75.48064 
L 160.522363 80.449899 
L 160.971263 66.673622 
L 161.420162 76.400564 
L 161.644612 74.548224 
L 161.869061 70.113132 
L 162.093511 70.782488 
L 162.317961 73.612293 
L 162.542411 78.846531 
L 162.76686 77.642595 
L 162.99131 74.649842 
L 163.21576 76.616485 
L 163.440209 72.449868 
L 163.664659 72.555371 
L 163.889109 73.949224 
L 164.113558 74.628572 
L 164.338008 69.254551 
L 164.562458 81.235113 
L 164.786907 68.378001 
L 165.011357 70.895405 
L 165.235807 78.627474 
L 165.460257 78.341207 
L 165.684706 68.278803 
L 165.909156 70.059286 
L 166.133606 74.587868 
L 166.358055 66.334957 
L 166.806955 79.773383 
L 167.031404 69.281889 
L 167.480304 79.747356 
L 167.704754 69.642115 
L 167.929203 74.698947 
L 168.153653 83.191698 
L 168.378103 69.375691 
L 168.602552 69.959763 
L 168.827002 71.416995 
L 169.051452 71.097508 
L 169.275901 67.001606 
L 169.724801 76.467539 
L 169.94925 70.089949 
L 170.1737 67.239058 
L 170.39815 78.495594 
L 170.6226 72.461766 
L 170.847049 71.884341 
L 171.071499 68.874415 
L 171.520398 75.568778 
L 171.744848 71.371324 
L 171.969298 77.297611 
L 172.193747 69.243292 
L 172.642647 81.88447 
L 172.867097 72.154914 
L 173.091546 73.276428 
L 173.315996 70.752106 
L 173.540446 82.496171 
L 173.764895 38.79843 
L 173.989345 82.496301 
L 174.213795 70.545747 
L 174.438244 72.953852 
L 174.662694 71.734449 
L 174.887144 83.078192 
L 175.336043 69.034717 
L 175.560493 78.488474 
L 175.784943 71.251082 
L 176.009392 74.967633 
L 176.458292 68.418161 
L 176.682741 71.466104 
L 176.907191 72.114979 
L 177.131641 78.241093 
L 177.35609 66.589264 
L 177.58054 69.49167 
L 177.80499 75.241326 
L 178.253889 66.522061 
L 178.478339 70.616917 
L 178.702789 71.268831 
L 178.927238 69.437653 
L 179.151688 68.723279 
L 179.376138 82.513463 
L 179.825037 68.98729 
L 180.049487 78.438683 
L 180.498386 68.623271 
L 180.722836 80.079125 
L 181.171735 65.408813 
L 181.396185 74.255788 
L 181.620635 69.22217 
L 181.845084 67.410049 
L 182.069534 77.93542 
L 182.293984 77.883892 
L 182.518433 69.812364 
L 182.742883 67.325114 
L 182.967333 80.080519 
L 183.191783 68.233925 
L 183.416232 73.945547 
L 184.089581 71.626171 
L 184.314031 75.857781 
L 184.538481 72.969335 
L 184.76293 76.703832 
L 184.98738 77.541666 
L 185.43628 69.912381 
L 185.660729 69.009911 
L 186.109629 75.91431 
L 186.558528 65.793707 
L 187.007427 80.107973 
L 187.231877 74.030059 
L 187.456327 71.639734 
L 187.680776 82.940031 
L 187.905226 67.135515 
L 188.129676 73.87484 
L 188.803025 69.245444 
L 189.027475 69.840453 
L 189.251924 76.915861 
L 189.476374 69.804801 
L 189.700824 68.630379 
L 189.925273 75.048649 
L 190.149723 69.439602 
L 190.374173 74.837167 
L 190.598623 74.082845 
L 190.823072 66.407414 
L 191.047522 72.484115 
L 191.271972 72.162655 
L 191.496421 72.329891 
L 191.945321 83.269965 
L 192.39422 66.881666 
L 192.843119 74.884673 
L 193.067569 80.436309 
L 193.292019 71.622992 
L 193.516469 75.408859 
L 193.740918 70.509878 
L 193.965368 77.842517 
L 194.189818 73.210082 
L 194.414267 71.340709 
L 194.863167 73.317852 
L 195.087616 76.377704 
L 195.312066 75.446643 
L 195.536516 73.572771 
L 195.760966 73.134913 
L 195.985415 72.272687 
L 195.985415 72.272687 
" clip-path="url(#p5f2ea90f17)" style="fill: none; stroke: #808080; stroke-width: 0.8; stroke-linecap: square"/>
   </g>
   <g id="line2d_9">
    <path d="M 61.764497 67.952071 
L 62.213396 64.312604 
L 62.437846 65.084962 
L 62.662296 66.863248 
L 62.886745 67.019313 
L 63.111195 61.870525 
L 63.335645 72.087442 
L 63.560095 64.680165 
L 63.784544 68.976536 
L 64.008994 62.888462 
L 64.233444 68.425816 
L 64.457893 63.916159 
L 64.682343 64.593236 
L 64.906793 72.339641 
L 65.131242 65.358166 
L 65.355692 69.017472 
L 65.580142 65.527019 
L 65.804591 69.078585 
L 66.029041 75.448944 
L 66.253491 63.667666 
L 66.477941 69.376407 
L 66.70239 70.417838 
L 66.92684 64.479353 
L 67.15129 73.518524 
L 67.375739 73.680814 
L 67.600189 88.332466 
L 67.824639 69.666322 
L 68.049088 73.587441 
L 68.497988 69.365416 
L 68.722438 71.160161 
L 68.946887 66.782729 
L 69.171337 68.835263 
L 69.395787 71.924232 
L 69.620236 66.730035 
L 69.844686 74.286641 
L 70.069136 73.276826 
L 70.293585 79.69499 
L 70.518035 68.645977 
L 70.742485 84.244794 
L 70.966935 65.688186 
L 71.415834 66.982581 
L 71.640284 53.683421 
L 71.864733 70.526016 
L 72.089183 76.309548 
L 72.313633 75.660584 
L 72.538082 76.051075 
L 72.762532 69.111206 
L 72.986982 70.41978 
L 73.211431 79.323903 
L 73.435881 74.857431 
L 73.660331 73.194549 
L 73.884781 73.592122 
L 74.10923 73.606417 
L 74.33368 69.949256 
L 74.55813 74.384681 
L 74.782579 76.305937 
L 75.007029 69.216827 
L 75.231479 80.728064 
L 75.455928 75.635961 
L 75.680378 76.463601 
L 75.904828 77.798112 
L 76.353727 67.988897 
L 76.578177 83.219647 
L 76.802627 73.308498 
L 77.027076 74.701954 
L 77.475976 70.654012 
L 77.700425 74.576999 
L 77.924875 74.899442 
L 78.149325 72.376606 
L 78.373774 78.365164 
L 78.822674 73.314989 
L 79.047124 73.886092 
L 79.271573 76.885448 
L 79.496023 75.898165 
L 79.720473 74.349323 
L 80.169372 79.750998 
L 80.393822 73.9278 
L 80.618271 85.10898 
L 80.842721 82.552863 
L 81.067171 76.040947 
L 81.291621 78.63583 
L 81.74052 79.652827 
L 81.96497 80.388015 
L 82.189419 89.500905 
L 82.413869 74.372782 
L 82.638319 84.958809 
L 82.862768 72.927132 
L 83.311668 80.490374 
L 83.536117 75.879602 
L 83.760567 83.922115 
L 83.985017 77.541035 
L 84.209467 76.728095 
L 84.433916 93.290732 
L 84.882816 72.744206 
L 85.107265 81.845197 
L 85.331715 77.860022 
L 85.556165 77.109963 
L 85.780614 78.612361 
L 86.005064 81.124867 
L 86.229514 76.801697 
L 86.453964 78.988028 
L 86.678413 86.714654 
L 86.902863 78.557567 
L 87.127313 84.607911 
L 87.351762 77.686173 
L 87.576212 85.225394 
L 87.800662 75.067686 
L 88.025111 79.33112 
L 88.249561 79.677762 
L 88.474011 84.480868 
L 88.69846 80.661601 
L 88.92291 84.741715 
L 89.14736 79.579966 
L 89.37181 84.025357 
L 89.596259 80.322182 
L 89.820709 92.159558 
L 90.045159 78.694599 
L 90.494058 83.831067 
L 90.718508 76.933805 
L 90.942957 78.101425 
L 91.391857 77.993566 
L 91.616307 83.688963 
L 91.840756 86.152976 
L 92.065206 79.890283 
L 92.514105 86.75719 
L 92.738555 85.046923 
L 92.963005 81.745156 
L 93.187454 90.770018 
L 93.411904 81.991583 
L 93.636354 83.060501 
L 93.860804 77.04377 
L 94.085253 83.031826 
L 94.309703 82.386493 
L 94.534153 85.710187 
L 94.758602 79.552989 
L 94.983052 82.637987 
L 95.207502 83.174595 
L 95.431951 77.214063 
L 95.656401 81.868197 
L 95.880851 95.622032 
L 96.1053 80.465591 
L 96.32975 84.389789 
L 96.5542 82.287658 
L 96.77865 83.002296 
L 97.003099 75.470567 
L 97.227549 88.510268 
L 97.451999 78.141832 
L 97.676448 78.315497 
L 97.900898 93.41264 
L 98.125348 96.166561 
L 98.349797 90.02974 
L 98.798697 84.038342 
L 99.023147 85.598418 
L 99.247596 83.526978 
L 99.472046 79.443986 
L 99.696496 88.154998 
L 99.920945 81.241618 
L 100.145395 86.101799 
L 100.369845 79.922207 
L 100.594294 93.618741 
L 100.818744 84.943389 
L 101.043194 86.76715 
L 101.492093 77.152134 
L 101.940993 83.297927 
L 102.165442 85.673258 
L 102.389892 86.322739 
L 102.614342 82.186443 
L 102.838791 93.607722 
L 103.063241 83.850293 
L 103.287691 81.224793 
L 103.51214 91.666541 
L 103.73659 84.819781 
L 103.96104 103.559301 
L 104.18549 88.760384 
L 104.409939 81.739821 
L 104.634389 97.29995 
L 104.858839 91.68326 
L 105.083288 97.013443 
L 105.307738 87.544409 
L 105.532188 88.633669 
L 105.756637 81.770419 
L 105.981087 84.896817 
L 106.205537 85.974339 
L 106.429986 88.348238 
L 106.654436 80.773764 
L 106.878886 93.471279 
L 107.103336 96.309449 
L 107.327785 87.207992 
L 107.552235 84.748859 
L 107.776685 88.346583 
L 108.001134 80.554909 
L 108.225584 79.541165 
L 108.450034 90.028986 
L 108.674483 84.271485 
L 109.123383 87.972082 
L 109.347833 85.404025 
L 109.572282 81.541792 
L 109.796732 87.328404 
L 110.021182 86.945677 
L 110.245631 85.651181 
L 110.470081 94.331737 
L 110.694531 95.605987 
L 110.91898 86.423719 
L 111.14343 98.075159 
L 111.592329 79.777346 
L 111.816779 91.900378 
L 112.041229 87.809686 
L 112.265679 96.027023 
L 112.714578 87.200334 
L 112.939028 87.682747 
L 113.163477 98.700588 
L 113.387927 83.63053 
L 113.612377 89.053826 
L 113.836826 90.772198 
L 114.061276 86.516034 
L 114.285726 88.503587 
L 114.510176 82.824775 
L 114.734625 84.478137 
L 114.959075 89.221594 
L 115.183525 81.670372 
L 115.407974 84.09271 
L 115.632424 95.696226 
L 115.856874 88.232885 
L 116.081323 85.17897 
L 116.305773 97.753293 
L 116.530223 87.596831 
L 116.754673 86.461499 
L 116.979122 84.54437 
L 117.203572 101.320751 
L 117.428022 85.912303 
L 117.876921 89.93344 
L 118.101371 85.164438 
L 118.32582 86.685529 
L 118.55027 85.432594 
L 118.77472 89.015138 
L 118.999169 83.925274 
L 119.223619 89.475563 
L 119.448069 88.107043 
L 119.672519 96.696747 
L 119.896968 88.393413 
L 120.121418 84.630728 
L 120.345868 91.815896 
L 120.570317 93.221246 
L 120.794767 91.151643 
L 121.019217 84.545697 
L 121.243666 82.831976 
L 121.468116 88.592518 
L 121.692566 90.916912 
L 121.917016 84.9167 
L 122.141465 95.994906 
L 122.365915 84.640418 
L 122.590365 88.14278 
L 122.814814 88.624815 
L 123.039264 91.282506 
L 123.263714 89.376402 
L 123.488163 91.37879 
L 123.712613 91.077701 
L 123.937063 91.860187 
L 124.161512 98.442956 
L 124.385962 96.77122 
L 124.610412 96.723573 
L 125.059311 82.062048 
L 125.283761 87.943851 
L 125.508211 88.93764 
L 125.73266 89.03333 
L 125.95711 93.968277 
L 126.18156 87.255649 
L 126.406009 91.940198 
L 126.630459 107.001139 
L 126.854909 95.822256 
L 127.303808 88.303075 
L 127.528258 94.531305 
L 127.752708 89.991149 
L 127.977157 87.864395 
L 128.426057 101.929026 
L 128.650506 87.349405 
L 128.874956 91.625354 
L 129.099406 98.339722 
L 129.323855 97.316521 
L 129.772755 94.228288 
L 129.997205 86.223457 
L 130.221654 90.467095 
L 130.446104 87.299176 
L 130.670554 91.956112 
L 130.895003 83.84987 
L 131.343903 96.682693 
L 131.568352 97.784235 
L 131.792802 96.143493 
L 132.017252 88.223293 
L 132.241702 96.821973 
L 132.466151 86.835261 
L 132.690601 89.374011 
L 132.915051 89.357783 
L 133.1395 99.185058 
L 133.36395 90.062225 
L 133.5884 92.929908 
L 134.037299 87.161409 
L 134.486198 99.106378 
L 134.710648 87.772901 
L 134.935098 100.056679 
L 135.159548 85.636366 
L 135.383997 89.313804 
L 135.608447 89.536697 
L 135.832897 86.96476 
L 136.057346 101.108704 
L 136.281796 93.076988 
L 136.506246 95.109078 
L 136.730695 90.42744 
L 136.955145 90.021734 
L 137.179595 99.897167 
L 137.404045 87.683772 
L 137.628494 99.433411 
L 138.077394 86.352283 
L 138.301843 95.360563 
L 138.526293 90.608999 
L 138.750743 98.658819 
L 138.975192 86.783471 
L 139.199642 92.021701 
L 139.424092 102.002543 
L 139.648542 92.414522 
L 139.872991 88.011422 
L 140.097441 93.12413 
L 140.321891 88.725621 
L 140.54634 92.782185 
L 140.77079 90.530618 
L 140.99524 90.328607 
L 141.219689 90.30154 
L 141.444139 92.093106 
L 141.668589 89.899284 
L 141.893038 101.012937 
L 142.117488 88.607483 
L 142.566388 102.617381 
L 143.015287 98.141188 
L 143.239737 93.170428 
L 143.464186 92.704323 
L 143.688636 94.810062 
L 143.913086 89.606508 
L 144.137535 89.97487 
L 144.361985 94.585376 
L 144.586435 88.999003 
L 144.810885 90.75897 
L 145.035334 90.323437 
L 145.259784 91.897745 
L 145.484234 88.448813 
L 145.933133 93.665323 
L 146.157583 101.547764 
L 146.382032 94.430056 
L 146.606482 93.192077 
L 146.830932 93.815254 
L 147.279831 100.788931 
L 147.504281 94.943512 
L 147.728731 104.033524 
L 147.95318 89.07318 
L 148.17763 89.401313 
L 148.40208 90.149636 
L 148.850979 98.388899 
L 149.299878 97.125735 
L 149.524328 91.336995 
L 149.748778 91.149276 
L 149.973228 91.474655 
L 150.197677 91.148767 
L 150.422127 88.590215 
L 150.871026 103.818837 
L 151.095476 89.712314 
L 151.319926 91.431472 
L 151.544375 90.404578 
L 151.768825 96.936847 
L 151.993275 98.31911 
L 152.217724 90.353589 
L 152.442174 93.304253 
L 152.666624 90.183651 
L 152.891074 91.83101 
L 153.115523 95.295173 
L 153.339973 92.664728 
L 153.564423 99.762442 
L 153.788872 91.576036 
L 154.013322 93.320154 
L 154.237772 91.154439 
L 154.462221 92.666446 
L 154.686671 102.241748 
L 154.911121 97.70827 
L 155.135571 95.858393 
L 155.36002 98.227435 
L 155.58447 102.172291 
L 155.80892 92.23615 
L 156.033369 97.423301 
L 156.257819 94.422916 
L 156.482269 94.289559 
L 156.706718 96.17285 
L 156.931168 102.100081 
L 157.155618 96.006983 
L 157.380067 104.30445 
L 157.828967 91.961011 
L 158.277866 101.366889 
L 158.502316 98.465473 
L 158.951215 91.171575 
L 159.400115 96.426001 
L 159.624564 90.38555 
L 159.849014 100.027581 
L 160.073464 100.18107 
L 160.297914 97.6369 
L 160.522363 98.047796 
L 160.746813 90.218489 
L 161.195712 97.754112 
L 161.420162 93.589343 
L 161.644612 95.74494 
L 161.869061 96.501493 
L 162.093511 94.107742 
L 162.317961 92.910776 
L 162.76686 100.324559 
L 162.99131 90.462364 
L 163.21576 105.260466 
L 163.440209 104.388336 
L 163.889109 93.640128 
L 164.113558 94.625617 
L 164.338008 101.059044 
L 164.786907 93.13721 
L 165.011357 94.333668 
L 165.235807 101.94758 
L 165.684706 92.366495 
L 165.909156 96.468066 
L 166.133606 96.299221 
L 166.358055 97.462388 
L 166.582505 93.140826 
L 166.806955 99.717808 
L 167.031404 101.117932 
L 167.255854 104.007611 
L 167.704754 96.312143 
L 167.929203 96.272991 
L 168.378103 104.489347 
L 168.827002 91.160079 
L 169.051452 98.112008 
L 169.275901 101.141258 
L 169.500351 94.523449 
L 169.724801 91.597187 
L 169.94925 93.653498 
L 170.1737 93.712221 
L 170.39815 102.725431 
L 170.6226 102.260669 
L 170.847049 104.679512 
L 171.071499 104.868646 
L 171.295949 93.77133 
L 171.520398 99.738216 
L 171.969298 89.711451 
L 172.418197 103.064632 
L 172.642647 97.718729 
L 172.867097 98.465764 
L 173.091546 105.644902 
L 173.315996 94.302007 
L 173.764895 91.756875 
L 173.989345 101.666768 
L 174.438244 94.935117 
L 174.662694 96.463963 
L 174.887144 95.896716 
L 175.111593 97.362423 
L 175.336043 96.917697 
L 175.560493 95.129314 
L 175.784943 96.874686 
L 176.009392 91.257841 
L 176.233842 102.703143 
L 176.458292 94.696185 
L 176.682741 100.260975 
L 176.907191 98.270031 
L 177.131641 94.578212 
L 177.35609 97.269339 
L 177.58054 104.688202 
L 177.80499 98.263577 
L 178.02944 99.409229 
L 178.253889 108.508355 
L 178.478339 104.223182 
L 178.702789 94.734378 
L 178.927238 108.334851 
L 179.151688 99.540226 
L 179.376138 105.796716 
L 179.600587 98.375205 
L 179.825037 98.351262 
L 180.049487 93.198297 
L 180.273936 95.457292 
L 180.498386 100.29927 
L 180.722836 95.700881 
L 180.947286 96.251292 
L 181.171735 95.021673 
L 181.396185 98.553035 
L 181.620635 91.59511 
L 181.845084 99.45463 
L 182.069534 93.588197 
L 182.293984 98.059532 
L 182.518433 99.381969 
L 182.742883 91.308643 
L 182.967333 99.278066 
L 183.191783 94.138465 
L 183.640682 106.730737 
L 183.865132 105.918919 
L 184.314031 95.49273 
L 184.538481 109.84008 
L 184.76293 97.264964 
L 184.98738 97.522747 
L 185.21183 90.637647 
L 185.43628 101.677148 
L 185.660729 100.958185 
L 185.885179 99.399212 
L 186.109629 96.617885 
L 186.334078 100.380275 
L 186.558528 92.479034 
L 187.007427 101.72602 
L 187.231877 93.85402 
L 187.456327 97.217593 
L 187.680776 98.289157 
L 187.905226 110.039379 
L 188.354126 97.516913 
L 188.803025 101.254826 
L 189.027475 96.398892 
L 189.251924 94.809982 
L 189.476374 94.640436 
L 189.700824 94.267345 
L 189.925273 113.491264 
L 190.149723 95.624165 
L 190.374173 96.678016 
L 190.598623 96.323863 
L 190.823072 96.397034 
L 191.047522 97.378696 
L 191.496421 95.133015 
L 191.720871 95.771624 
L 192.16977 101.242173 
L 192.39422 107.594119 
L 192.61867 96.988653 
L 192.843119 104.170333 
L 193.067569 103.671811 
L 193.292019 94.727528 
L 193.516469 105.312049 
L 193.740918 97.22623 
L 193.965368 97.74564 
L 194.189818 102.837402 
L 194.414267 100.156724 
L 194.638717 100.733441 
L 194.863167 96.661384 
L 195.087616 100.386061 
L 195.312066 95.950724 
L 195.536516 97.302806 
L 195.760966 100.6819 
L 195.985415 98.986846 
L 195.985415 98.986846 
" clip-path="url(#p5f2ea90f17)" style="fill: none; stroke: #1e90ff; stroke-width: 0.8; stroke-linecap: square"/>
   </g>
   <g id="line2d_10">
    <path d="M 61.764497 69.127503 
L 61.988947 65.973908 
L 62.213396 64.742112 
L 62.437846 64.90546 
L 62.662296 67.151871 
L 62.886745 66.884009 
L 63.111195 61.996304 
L 63.335645 71.93292 
L 63.560095 64.781177 
L 63.784544 68.830884 
L 64.008994 62.998367 
L 64.233444 68.631564 
L 64.457893 63.765534 
L 64.682343 64.789708 
L 64.906793 71.889763 
L 65.131242 65.442558 
L 65.355692 68.967702 
L 65.580142 65.464688 
L 66.029041 73.678676 
L 66.253491 63.760723 
L 66.477941 69.227925 
L 66.70239 70.984852 
L 66.92684 64.33074 
L 67.15129 72.665153 
L 67.375739 74.330769 
L 67.600189 86.160446 
L 67.824639 69.203543 
L 68.049088 73.162493 
L 68.273538 72.221169 
L 68.497988 69.298338 
L 68.722438 71.640454 
L 68.946887 66.561737 
L 69.395787 71.72245 
L 69.620236 66.427258 
L 69.844686 73.693155 
L 70.069136 74.224873 
L 70.293585 80.324342 
L 70.518035 68.408531 
L 70.742485 88.448147 
L 70.966935 65.834824 
L 71.191384 66.615843 
L 71.415834 66.943792 
L 71.640284 53.707021 
L 71.864733 71.073193 
L 72.089183 76.596401 
L 72.313633 76.088589 
L 72.538082 76.734107 
L 72.762532 69.725879 
L 72.986982 70.510094 
L 73.211431 78.815417 
L 73.660331 72.947994 
L 73.884781 73.624766 
L 74.10923 72.973242 
L 74.33368 69.584875 
L 74.55813 74.397995 
L 74.782579 76.53101 
L 75.007029 69.398659 
L 75.231479 79.984039 
L 75.455928 75.420193 
L 75.680378 76.666093 
L 75.904828 78.563829 
L 76.353727 68.21191 
L 76.578177 80.303292 
L 76.802627 73.692961 
L 77.027076 74.480437 
L 77.475976 70.653596 
L 77.700425 74.947252 
L 77.924875 74.971048 
L 78.149325 72.04903 
L 78.373774 80.261062 
L 78.598224 74.981702 
L 78.822674 73.144753 
L 79.047124 74.196874 
L 79.271573 76.670822 
L 79.496023 74.937213 
L 79.720473 74.166685 
L 80.169372 80.577021 
L 80.393822 74.565054 
L 80.618271 85.881275 
L 80.842721 82.47564 
L 81.067171 76.271809 
L 81.51607 79.706747 
L 81.74052 78.670351 
L 82.189419 89.417663 
L 82.413869 74.799962 
L 82.638319 84.276434 
L 82.862768 72.623858 
L 83.311668 79.576244 
L 83.536117 77.697925 
L 83.760567 82.793732 
L 83.985017 77.559664 
L 84.209467 77.855587 
L 84.433916 92.823978 
L 84.658366 78.870843 
L 84.882816 72.901325 
L 85.107265 86.031881 
L 85.331715 77.740362 
L 85.556165 77.380887 
L 85.780614 80.25112 
L 86.005064 81.042545 
L 86.229514 77.523786 
L 86.453964 79.617249 
L 86.678413 86.096124 
L 86.902863 80.482411 
L 87.127313 83.786927 
L 87.351762 78.881609 
L 87.576212 86.246095 
L 87.800662 75.990586 
L 88.025111 81.151224 
L 88.249561 79.783753 
L 88.474011 86.227494 
L 88.69846 81.946073 
L 88.92291 85.026766 
L 89.14736 81.263379 
L 89.37181 81.937697 
L 89.596259 81.74904 
L 89.820709 92.31835 
L 90.045159 80.063222 
L 90.269608 80.285387 
L 90.494058 82.831535 
L 90.718508 76.980984 
L 90.942957 79.75188 
L 91.167407 79.045816 
L 91.391857 79.715518 
L 91.616307 84.783088 
L 92.065206 79.597613 
L 92.514105 87.636605 
L 92.963005 83.145959 
L 93.187454 86.45321 
L 93.411904 82.373694 
L 93.636354 81.832279 
L 93.860804 77.767128 
L 94.085253 84.225254 
L 94.309703 82.941219 
L 94.534153 83.304774 
L 94.758602 79.516912 
L 95.207502 84.895956 
L 95.431951 77.551717 
L 95.656401 82.446013 
L 95.880851 98.855831 
L 96.1053 84.811536 
L 96.32975 84.281432 
L 96.5542 84.884882 
L 96.77865 81.805355 
L 97.003099 76.762241 
L 97.227549 92.55755 
L 97.451999 80.547481 
L 97.676448 79.646355 
L 97.900898 95.886246 
L 98.125348 98.122854 
L 98.574247 87.682379 
L 98.798697 85.75039 
L 99.023147 86.528693 
L 99.247596 86.78057 
L 99.472046 81.930113 
L 99.920945 85.11183 
L 100.145395 85.206966 
L 100.369845 80.703184 
L 100.594294 92.091227 
L 100.818744 91.329606 
L 101.492093 79.440872 
L 101.716543 82.817405 
L 101.940993 83.487108 
L 102.165442 91.0402 
L 102.389892 88.68755 
L 102.614342 83.631089 
L 102.838791 90.330791 
L 103.063241 84.843811 
L 103.287691 82.541332 
L 103.51214 98.448193 
L 103.73659 83.6021 
L 103.96104 94.731336 
L 104.409939 83.371319 
L 104.634389 99.04753 
L 104.858839 93.145619 
L 105.083288 93.971571 
L 105.307738 87.091287 
L 105.532188 86.798056 
L 105.756637 84.851846 
L 105.981087 85.986214 
L 106.205537 91.318592 
L 106.429986 91.34459 
L 106.654436 83.550491 
L 106.878886 97.958057 
L 107.103336 91.905036 
L 107.327785 89.974015 
L 107.552235 86.392817 
L 107.776685 87.189824 
L 108.225584 80.055668 
L 108.450034 93.34046 
L 108.674483 86.812757 
L 108.898933 88.546677 
L 109.123383 83.10896 
L 109.347833 86.14775 
L 109.572282 83.226263 
L 109.796732 92.86143 
L 110.021182 91.774371 
L 110.470081 88.593372 
L 110.694531 99.851511 
L 110.91898 87.038713 
L 111.14343 93.460931 
L 111.36788 86.635615 
L 111.592329 83.635323 
L 111.816779 94.093135 
L 112.041229 88.135856 
L 112.265679 93.370173 
L 112.490128 91.982668 
L 112.714578 85.543787 
L 112.939028 85.044468 
L 113.163477 89.682885 
L 113.387927 88.429796 
L 113.612377 95.557029 
L 113.836826 93.247688 
L 114.061276 92.99515 
L 114.285726 87.269142 
L 114.510176 88.421752 
L 114.734625 87.321792 
L 114.959075 93.184413 
L 115.183525 82.957578 
L 115.407974 85.6196 
L 115.632424 100.882922 
L 115.856874 93.399872 
L 116.081323 94.580644 
L 116.305773 90.984288 
L 116.530223 98.272913 
L 116.754673 88.0273 
L 117.203572 100.065419 
L 117.428022 90.962877 
L 117.652471 87.594561 
L 117.876921 94.135024 
L 118.55027 89.506487 
L 118.77472 94.667156 
L 118.999169 87.322704 
L 119.223619 96.407491 
L 119.448069 95.807938 
L 119.896968 87.34267 
L 120.345868 92.836817 
L 120.570317 87.926211 
L 120.794767 89.850893 
L 121.019217 88.780334 
L 121.468116 98.165307 
L 121.692566 90.497574 
L 121.917016 89.993283 
L 122.141465 93.129217 
L 122.365915 91.022328 
L 122.814814 95.268442 
L 123.263714 87.584277 
L 123.712613 96.885561 
L 123.937063 94.701752 
L 124.161512 101.191005 
L 124.385962 103.523072 
L 124.834862 93.658332 
L 125.059311 86.674801 
L 125.283761 98.973329 
L 125.508211 100.369372 
L 125.73266 88.053769 
L 126.18156 92.617525 
L 126.406009 91.575729 
L 126.630459 88.865619 
L 126.854909 97.136035 
L 127.079359 88.230948 
L 127.303808 88.462536 
L 127.528258 100.798449 
L 127.752708 89.247425 
L 127.977157 98.894343 
L 128.201607 92.55832 
L 128.426057 99.897003 
L 128.650506 87.745653 
L 128.874956 96.723878 
L 129.323855 91.449196 
L 129.548305 92.853812 
L 129.772755 96.962716 
L 129.997205 90.012774 
L 130.221654 98.788813 
L 130.446104 91.285347 
L 130.670554 95.89354 
L 130.895003 95.56531 
L 131.119453 101.055759 
L 131.343903 95.541788 
L 131.568352 94.744452 
L 131.792802 94.613769 
L 132.017252 90.98888 
L 132.241702 102.057275 
L 132.466151 103.024189 
L 132.690601 91.757606 
L 132.915051 93.095968 
L 133.36395 90.860223 
L 133.5884 93.636303 
L 133.812849 90.370563 
L 134.037299 89.284912 
L 134.261749 98.061914 
L 134.710648 91.287874 
L 134.935098 99.843751 
L 135.159548 88.925624 
L 135.383997 94.883702 
L 135.608447 93.098181 
L 135.832897 97.679769 
L 136.057346 92.797719 
L 136.281796 108.007011 
L 136.506246 98.068149 
L 136.730695 98.294939 
L 136.955145 98.849508 
L 137.179595 95.832898 
L 137.404045 90.753771 
L 137.628494 95.20695 
L 137.852944 96.472699 
L 138.077394 97.032047 
L 138.301843 91.222334 
L 138.526293 98.462454 
L 138.750743 93.435519 
L 138.975192 102.064293 
L 139.199642 92.901067 
L 139.424092 95.054018 
L 139.648542 98.481406 
L 139.872991 92.21163 
L 140.097441 95.502648 
L 140.54634 94.35145 
L 140.77079 102.06917 
L 140.99524 90.848218 
L 141.444139 98.706126 
L 141.668589 106.420017 
L 141.893038 107.692654 
L 142.117488 94.195723 
L 142.341938 103.35853 
L 142.566388 96.877615 
L 142.790837 99.421358 
L 143.015287 95.866107 
L 143.239737 95.942755 
L 143.464186 103.883681 
L 143.913086 92.054916 
L 144.137535 96.234671 
L 144.361985 96.841121 
L 144.586435 90.6969 
L 144.810885 97.457029 
L 145.035334 99.04828 
L 145.259784 92.762727 
L 145.708683 101.091241 
L 145.933133 101.87225 
L 146.157583 110.394599 
L 146.382032 99.863062 
L 146.606482 105.728105 
L 146.830932 101.717848 
L 147.055381 95.049744 
L 147.504281 101.793759 
L 147.95318 94.445051 
L 148.17763 93.96924 
L 148.40208 100.783477 
L 148.626529 97.606211 
L 148.850979 98.190173 
L 149.075429 100.829666 
L 149.524328 94.241984 
L 149.748778 98.821362 
L 149.973228 100.261284 
L 150.197677 100.008757 
L 150.422127 103.017055 
L 150.646577 103.024568 
L 150.871026 97.90169 
L 151.095476 98.363509 
L 151.319926 92.273603 
L 151.544375 93.824914 
L 151.768825 98.26962 
L 151.993275 93.769875 
L 152.217724 101.337964 
L 152.442174 93.80011 
L 152.891074 104.343136 
L 153.115523 111.76844 
L 153.339973 98.998218 
L 153.564423 107.633319 
L 153.788872 96.611418 
L 154.013322 108.037439 
L 154.237772 98.335566 
L 154.462221 100.110551 
L 154.686671 98.748526 
L 154.911121 98.943315 
L 155.135571 97.631582 
L 155.36002 97.189517 
L 155.58447 100.91963 
L 155.80892 88.957906 
L 156.257819 107.738944 
L 156.482269 102.094487 
L 156.931168 99.314797 
L 157.155618 92.577564 
L 157.380067 100.938417 
L 157.604517 97.618604 
L 157.828967 96.237572 
L 158.053417 95.801426 
L 158.502316 99.539724 
L 158.726766 94.844524 
L 158.951215 93.789854 
L 159.175665 100.765634 
L 159.400115 97.839335 
L 159.624564 99.888154 
L 159.849014 97.477721 
L 160.073464 99.950978 
L 160.297914 99.625347 
L 160.522363 100.236592 
L 160.746813 91.681793 
L 160.971263 99.749048 
L 161.195712 95.145804 
L 161.420162 97.290745 
L 161.644612 108.434181 
L 162.093511 97.174528 
L 162.317961 111.373095 
L 162.542411 97.068078 
L 162.76686 94.870582 
L 162.99131 97.80074 
L 163.21576 98.908808 
L 163.440209 96.976485 
L 163.664659 98.486287 
L 163.889109 97.271118 
L 164.338008 107.876314 
L 164.562458 94.463471 
L 164.786907 99.129586 
L 165.011357 99.621722 
L 165.235807 96.801937 
L 165.460257 102.630984 
L 165.684706 95.167744 
L 165.909156 97.792914 
L 166.133606 94.310072 
L 166.358055 93.059073 
L 166.582505 96.401483 
L 166.806955 97.160403 
L 167.031404 101.319862 
L 167.255854 97.616026 
L 167.480304 99.687838 
L 167.704754 94.262336 
L 167.929203 94.460534 
L 168.378103 103.256621 
L 168.602552 98.883623 
L 168.827002 99.276703 
L 169.051452 95.680753 
L 169.275901 96.185994 
L 169.500351 97.251229 
L 169.724801 97.735611 
L 169.94925 95.246525 
L 170.1737 100.324124 
L 170.39815 97.013163 
L 170.6226 102.662047 
L 171.071499 95.977198 
L 171.295949 95.651971 
L 171.520398 111.004342 
L 171.744848 96.831614 
L 171.969298 98.852234 
L 172.193747 103.123133 
L 172.418197 100.33845 
L 172.642647 98.974278 
L 172.867097 98.326293 
L 173.091546 98.40955 
L 173.315996 109.05917 
L 173.540446 89.947578 
L 173.764895 94.188072 
L 173.989345 91.129356 
L 174.213795 98.680486 
L 174.438244 100.210139 
L 174.662694 99.884879 
L 174.887144 103.131012 
L 175.111593 97.895566 
L 175.336043 96.28498 
L 175.560493 99.375845 
L 175.784943 100.219747 
L 176.009392 103.19626 
L 176.233842 95.587165 
L 176.458292 102.461606 
L 176.682741 101.360263 
L 176.907191 103.215269 
L 177.131641 107.626314 
L 177.35609 98.562211 
L 177.58054 94.588686 
L 177.80499 105.021547 
L 178.02944 107.975895 
L 178.478339 91.951707 
L 178.702789 100.280421 
L 178.927238 101.686476 
L 179.151688 97.714524 
L 179.376138 102.868367 
L 179.600587 98.110949 
L 179.825037 104.741454 
L 180.049487 105.659491 
L 180.273936 108.977995 
L 180.498386 99.901894 
L 180.722836 97.997038 
L 180.947286 100.975481 
L 181.171735 93.836078 
L 181.620635 106.038095 
L 182.069534 99.171388 
L 182.293984 100.019506 
L 182.518433 100.32973 
L 182.742883 98.972245 
L 182.967333 102.204941 
L 183.191783 100.055586 
L 183.416232 100.568878 
L 183.640682 98.201852 
L 183.865132 92.866334 
L 184.089581 96.613802 
L 184.314031 98.038544 
L 184.538481 103.944838 
L 184.76293 104.489066 
L 184.98738 95.974263 
L 185.21183 101.074613 
L 185.43628 100.297538 
L 185.660729 100.060674 
L 185.885179 100.885292 
L 186.109629 97.664871 
L 186.558528 104.695942 
L 187.007427 98.203355 
L 187.231877 95.555369 
L 187.456327 97.835765 
L 187.680776 98.467935 
L 187.905226 102.04286 
L 188.129676 98.085377 
L 188.354126 100.233356 
L 188.578575 95.071036 
L 188.803025 98.628699 
L 189.027475 100.244031 
L 189.251924 104.571741 
L 189.476374 98.919938 
L 189.700824 102.647257 
L 189.925273 98.529285 
L 190.149723 102.961544 
L 190.374173 95.559143 
L 190.823072 100.598619 
L 191.047522 124.472727 
L 191.271972 97.519937 
L 191.496421 102.631524 
L 191.720871 93.306977 
L 191.945321 113.263509 
L 192.16977 101.314418 
L 192.39422 107.143685 
L 192.61867 97.699275 
L 192.843119 111.749899 
L 193.067569 107.18352 
L 193.292019 112.387607 
L 193.516469 100.15565 
L 193.740918 100.817397 
L 193.965368 99.241981 
L 194.189818 103.969628 
L 194.414267 103.565166 
L 194.638717 107.368942 
L 194.863167 98.475427 
L 195.087616 100.064876 
L 195.312066 102.742491 
L 195.536516 97.535498 
L 195.760966 111.68524 
L 195.985415 97.755049 
L 195.985415 97.755049 
" clip-path="url(#p5f2ea90f17)" style="fill: none; stroke: #ff0000; stroke-width: 0.8; stroke-linecap: square"/>
   </g>
   <g id="patch_3">
    <path d="M 59.52 129.12 
L 59.52 26.88 
" style="fill: none; stroke: #000000; stroke-width: 0.8; stroke-linejoin: miter; stroke-linecap: square"/>
   </g>
   <g id="patch_4">
    <path d="M 198.454362 129.12 
L 198.454362 26.88 
" style="fill: none; stroke: #000000; stroke-width: 0.8; stroke-linejoin: miter; stroke-linecap: square"/>
   </g>
   <g id="patch_5">
    <path d="M 59.52 129.12 
L 198.454362 129.12 
" style="fill: none; stroke: #000000; stroke-width: 0.8; stroke-linejoin: miter; stroke-linecap: square"/>
   </g>
   <g id="patch_6">
    <path d="M 59.52 26.88 
L 198.454362 26.88 
" style="fill: none; stroke: #000000; stroke-width: 0.8; stroke-linejoin: miter; stroke-linecap: square"/>
   </g>
   <g id="text_10">
    <!-- Frequency Domain Plot -->
    <g transform="translate(59.587806 20.88) scale(0.12 -0.12)">
     <defs>
      <path id="DejaVuSans-44" d="M 1259 4147 
L 1259 519 
L 2022 519 
Q 2988 519 3436 956 
Q 3884 1394 3884 2338 
Q 3884 3275 3436 3711 
Q 2988 4147 2022 4147 
L 1259 4147 
z
M 628 4666 
L 1925 4666 
Q 3281 4666 3915 4102 
Q 4550 3538 4550 2338 
Q 4550 1131 3912 565 
Q 3275 0 1925 0 
L 628 0 
L 628 4666 
z
" transform="scale(0.015625)"/>
      <path id="DejaVuSans-6d" d="M 3328 2828 
Q 3544 3216 3844 3400 
Q 4144 3584 4550 3584 
Q 5097 3584 5394 3201 
Q 5691 2819 5691 2113 
L 5691 0 
L 5113 0 
L 5113 2094 
Q 5113 2597 4934 2840 
Q 4756 3084 4391 3084 
Q 3944 3084 3684 2787 
Q 3425 2491 3425 1978 
L 3425 0 
L 2847 0 
L 2847 2094 
Q 2847 2600 2669 2842 
Q 2491 3084 2119 3084 
Q 1678 3084 1418 2786 
Q 1159 2488 1159 1978 
L 1159 0 
L 581 0 
L 581 3500 
L 1159 3500 
L 1159 2956 
Q 1356 3278 1631 3431 
Q 1906 3584 2284 3584 
Q 2666 3584 2933 3390 
Q 3200 3197 3328 2828 
z
" transform="scale(0.015625)"/>
      <path id="DejaVuSans-61" d="M 2194 1759 
Q 1497 1759 1228 1600 
Q 959 1441 959 1056 
Q 959 750 1161 570 
Q 1363 391 1709 391 
Q 2188 391 2477 730 
Q 2766 1069 2766 1631 
L 2766 1759 
L 2194 1759 
z
M 3341 1997 
L 3341 0 
L 2766 0 
L 2766 531 
Q 2569 213 2275 61 
Q 1981 -91 1556 -91 
Q 1019 -91 701 211 
Q 384 513 384 1019 
Q 384 1609 779 1909 
Q 1175 2209 1959 2209 
L 2766 2209 
L 2766 2266 
Q 2766 2663 2505 2880 
Q 2244 3097 1772 3097 
Q 1472 3097 1187 3025 
Q 903 2953 641 2809 
L 641 3341 
Q 956 3463 1253 3523 
Q 1550 3584 1831 3584 
Q 2591 3584 2966 3190 
Q 3341 2797 3341 1997 
z
" transform="scale(0.015625)"/>
      <path id="DejaVuSans-69" d="M 603 3500 
L 1178 3500 
L 1178 0 
L 603 0 
L 603 3500 
z
M 603 4863 
L 1178 4863 
L 1178 4134 
L 603 4134 
L 603 4863 
z
" transform="scale(0.015625)"/>
      <path id="DejaVuSans-50" d="M 1259 4147 
L 1259 2394 
L 2053 2394 
Q 2494 2394 2734 2622 
Q 2975 2850 2975 3272 
Q 2975 3691 2734 3919 
Q 2494 4147 2053 4147 
L 1259 4147 
z
M 628 4666 
L 2053 4666 
Q 2838 4666 3239 4311 
Q 3641 3956 3641 3272 
Q 3641 2581 3239 2228 
Q 2838 1875 2053 1875 
L 1259 1875 
L 1259 0 
L 628 0 
L 628 4666 
z
" transform="scale(0.015625)"/>
      <path id="DejaVuSans-6c" d="M 603 4863 
L 1178 4863 
L 1178 0 
L 603 0 
L 603 4863 
z
" transform="scale(0.015625)"/>
      <path id="DejaVuSans-74" d="M 1172 4494 
L 1172 3500 
L 2356 3500 
L 2356 3053 
L 1172 3053 
L 1172 1153 
Q 1172 725 1289 603 
Q 1406 481 1766 481 
L 2356 481 
L 2356 0 
L 1766 0 
Q 1100 0 847 248 
Q 594 497 594 1153 
L 594 3053 
L 172 3053 
L 172 3500 
L 594 3500 
L 594 4494 
L 1172 4494 
z
" transform="scale(0.015625)"/>
     </defs>
     <use xlink:href="#DejaVuSans-46"/>
     <use xlink:href="#DejaVuSans-72" x="50.269531"/>
     <use xlink:href="#DejaVuSans-65" x="89.132812"/>
     <use xlink:href="#DejaVuSans-71" x="150.65625"/>
     <use xlink:href="#DejaVuSans-75" x="214.132812"/>
     <use xlink:href="#DejaVuSans-65" x="277.511719"/>
     <use xlink:href="#DejaVuSans-6e" x="339.035156"/>
     <use xlink:href="#DejaVuSans-63" x="402.414062"/>
     <use xlink:href="#DejaVuSans-79" x="457.394531"/>
     <use xlink:href="#DejaVuSans-20" x="516.574219"/>
     <use xlink:href="#DejaVuSans-44" x="548.361328"/>
     <use xlink:href="#DejaVuSans-6f" x="625.363281"/>
     <use xlink:href="#DejaVuSans-6d" x="686.544922"/>
     <use xlink:href="#DejaVuSans-61" x="783.957031"/>
     <use xlink:href="#DejaVuSans-69" x="845.236328"/>
     <use xlink:href="#DejaVuSans-6e" x="873.019531"/>
     <use xlink:href="#DejaVuSans-20" x="936.398438"/>
     <use xlink:href="#DejaVuSans-50" x="968.185547"/>
     <use xlink:href="#DejaVuSans-6c" x="1028.488281"/>
     <use xlink:href="#DejaVuSans-6f" x="1056.271484"/>
     <use xlink:href="#DejaVuSans-74" x="1117.453125"/>
    </g>
   </g>
   <g id="legend_1">
    <g id="patch_7">
     <path d="M 19.939691 158.292 
L 50.807816 158.292 
Q 51.407816 158.292 51.407816 157.692 
L 51.407816 144.781688 
Q 51.407816 144.181688 50.807816 144.181688 
L 19.939691 144.181688 
Q 19.339691 144.181688 19.339691 144.781688 
L 19.339691 157.692 
Q 19.339691 158.292 19.939691 158.292 
z
" style="fill: #ffffff; opacity: 0.8; stroke: #cccccc; stroke-linejoin: miter"/>
    </g>
    <g id="line2d_11">
     <path d="M 20.539691 146.611219 
L 23.539691 146.611219 
L 26.539691 146.611219 
" style="fill: none; stroke: #808080; stroke-width: 0.8; stroke-linecap: square"/>
    </g>
    <g id="text_11">
     <!-- Contaminated -->
     <g transform="translate(28.939691 147.661219) scale(0.03 -0.03)">
      <defs>
       <path id="DejaVuSans-43" d="M 4122 4306 
L 4122 3641 
Q 3803 3938 3442 4084 
Q 3081 4231 2675 4231 
Q 1875 4231 1450 3742 
Q 1025 3253 1025 2328 
Q 1025 1406 1450 917 
Q 1875 428 2675 428 
Q 3081 428 3442 575 
Q 3803 722 4122 1019 
L 4122 359 
Q 3791 134 3420 21 
Q 3050 -91 2638 -91 
Q 1578 -91 968 557 
Q 359 1206 359 2328 
Q 359 3453 968 4101 
Q 1578 4750 2638 4750 
Q 3056 4750 3426 4639 
Q 3797 4528 4122 4306 
z
" transform="scale(0.015625)"/>
      </defs>
      <use xlink:href="#DejaVuSans-43"/>
      <use xlink:href="#DejaVuSans-6f" x="69.824219"/>
      <use xlink:href="#DejaVuSans-6e" x="131.005859"/>
      <use xlink:href="#DejaVuSans-74" x="194.384766"/>
      <use xlink:href="#DejaVuSans-61" x="233.59375"/>
      <use xlink:href="#DejaVuSans-6d" x="294.873047"/>
      <use xlink:href="#DejaVuSans-69" x="392.285156"/>
      <use xlink:href="#DejaVuSans-6e" x="420.068359"/>
      <use xlink:href="#DejaVuSans-61" x="483.447266"/>
      <use xlink:href="#DejaVuSans-74" x="544.726562"/>
      <use xlink:href="#DejaVuSans-65" x="583.935547"/>
      <use xlink:href="#DejaVuSans-64" x="645.458984"/>
     </g>
    </g>
    <g id="line2d_12">
     <path d="M 20.539691 151.014656 
L 23.539691 151.014656 
L 26.539691 151.014656 
" style="fill: none; stroke: #1e90ff; stroke-width: 0.8; stroke-linecap: square"/>
    </g>
    <g id="text_12">
     <!-- Clean -->
     <g transform="translate(28.939691 152.064656) scale(0.03 -0.03)">
      <use xlink:href="#DejaVuSans-43"/>
      <use xlink:href="#DejaVuSans-6c" x="69.824219"/>
      <use xlink:href="#DejaVuSans-65" x="97.607422"/>
      <use xlink:href="#DejaVuSans-61" x="159.130859"/>
      <use xlink:href="#DejaVuSans-6e" x="220.410156"/>
     </g>
    </g>
    <g id="line2d_13">
     <path d="M 20.539691 155.418094 
L 23.539691 155.418094 
L 26.539691 155.418094 
" style="fill: none; stroke: #ff0000; stroke-width: 0.8; stroke-linecap: square"/>
    </g>
    <g id="text_13">
     <!-- SACed -->
     <g transform="translate(28.939691 156.468094) scale(0.03 -0.03)">
      <defs>
       <path id="DejaVuSans-53" d="M 3425 4513 
L 3425 3897 
Q 3066 4069 2747 4153 
Q 2428 4238 2131 4238 
Q 1616 4238 1336 4038 
Q 1056 3838 1056 3469 
Q 1056 3159 1242 3001 
Q 1428 2844 1947 2747 
L 2328 2669 
Q 3034 2534 3370 2195 
Q 3706 1856 3706 1288 
Q 3706 609 3251 259 
Q 2797 -91 1919 -91 
Q 1588 -91 1214 -16 
Q 841 59 441 206 
L 441 856 
Q 825 641 1194 531 
Q 1563 422 1919 422 
Q 2459 422 2753 634 
Q 3047 847 3047 1241 
Q 3047 1584 2836 1778 
Q 2625 1972 2144 2069 
L 1759 2144 
Q 1053 2284 737 2584 
Q 422 2884 422 3419 
Q 422 4038 858 4394 
Q 1294 4750 2059 4750 
Q 2388 4750 2728 4690 
Q 3069 4631 3425 4513 
z
" transform="scale(0.015625)"/>
       <path id="DejaVuSans-41" d="M 2188 4044 
L 1331 1722 
L 3047 1722 
L 2188 4044 
z
M 1831 4666 
L 2547 4666 
L 4325 0 
L 3669 0 
L 3244 1197 
L 1141 1197 
L 716 0 
L 50 0 
L 1831 4666 
z
" transform="scale(0.015625)"/>
      </defs>
      <use xlink:href="#DejaVuSans-53"/>
      <use xlink:href="#DejaVuSans-41" x="65.351562"/>
      <use xlink:href="#DejaVuSans-43" x="132.009766"/>
      <use xlink:href="#DejaVuSans-65" x="201.833984"/>
      <use xlink:href="#DejaVuSans-64" x="263.357422"/>
     </g>
    </g>
   </g>
  </g>
 </g>
 <defs>
  <clipPath id="p5f2ea90f17">
   <rect x="59.52" y="26.88" width="138.934362" height="102.24"/>
  </clipPath>
 </defs>
</svg>
