<?xml version="1.0" encoding="utf-8" standalone="no"?>
<!DOCTYPE svg PUBLIC "-//W3C//DTD SVG 1.1//EN"
  "http://www.w3.org/Graphics/SVG/1.1/DTD/svg11.dtd">
<svg xmlns:xlink="http://www.w3.org/1999/xlink" width="216pt" height="180pt" viewBox="0 0 216 180" xmlns="http://www.w3.org/2000/svg" version="1.1">
 <metadata>
  <rdf:RDF xmlns:dc="http://purl.org/dc/elements/1.1/" xmlns:cc="http://creativecommons.org/ns#" xmlns:rdf="http://www.w3.org/1999/02/22-rdf-syntax-ns#">
   <cc:Work>
    <dc:type rdf:resource="http://purl.org/dc/dcmitype/StillImage"/>
    <dc:date>2024-08-24T18:21:35.141109</dc:date>
    <dc:format>image/svg+xml</dc:format>
    <dc:creator>
     <cc:Agent>
      <dc:title>Matplotlib v3.9.1, https://matplotlib.org/</dc:title>
     </cc:Agent>
    </dc:creator>
   </cc:Work>
  </rdf:RDF>
 </metadata>
 <defs>
  <style type="text/css">*{stroke-linejoin: round; stroke-linecap: butt}</style>
 </defs>
 <g id="figure_1">
  <g id="patch_1">
   <path d="M 0 180 
L 216 180 
L 216 0 
L 0 0 
z
" style="fill: #ffffff"/>
  </g>
  <g id="axes_1">
   <g id="patch_2">
    <path d="M 59.52 129.12 
L 198.454362 129.12 
L 198.454362 26.88 
L 59.52 26.88 
z
" style="fill: #ffffff"/>
   </g>
   <g id="matplotlib.axis_1">
    <g id="xtick_1">
     <g id="line2d_1">
      <defs>
       <path id="m7a404c637a" d="M 0 0 
L 0 3.5 
" style="stroke: #000000; stroke-width: 0.8"/>
      </defs>
      <g>
       <use xlink:href="#m7a404c637a" x="61.540047" y="129.12" style="stroke: #000000; stroke-width: 0.8"/>
      </g>
     </g>
     <g id="text_1">
      <!-- 0 -->
      <g transform="translate(58.358797 143.718437) scale(0.1 -0.1)">
       <defs>
        <path id="DejaVuSans-30" d="M 2034 4250 
Q 1547 4250 1301 3770 
Q 1056 3291 1056 2328 
Q 1056 1369 1301 889 
Q 1547 409 2034 409 
Q 2525 409 2770 889 
Q 3016 1369 3016 2328 
Q 3016 3291 2770 3770 
Q 2525 4250 2034 4250 
z
M 2034 4750 
Q 2819 4750 3233 4129 
Q 3647 3509 3647 2328 
Q 3647 1150 3233 529 
Q 2819 -91 2034 -91 
Q 1250 -91 836 529 
Q 422 1150 422 2328 
Q 422 3509 836 4129 
Q 1250 4750 2034 4750 
z
" transform="scale(0.015625)"/>
       </defs>
       <use xlink:href="#DejaVuSans-30"/>
      </g>
     </g>
    </g>
    <g id="xtick_2">
     <g id="line2d_2">
      <g>
       <use xlink:href="#m7a404c637a" x="128.874956" y="129.12" style="stroke: #000000; stroke-width: 0.8"/>
      </g>
     </g>
     <g id="text_2">
      <!-- 150 -->
      <g transform="translate(119.331206 143.718437) scale(0.1 -0.1)">
       <defs>
        <path id="DejaVuSans-31" d="M 794 531 
L 1825 531 
L 1825 4091 
L 703 3866 
L 703 4441 
L 1819 4666 
L 2450 4666 
L 2450 531 
L 3481 531 
L 3481 0 
L 794 0 
L 794 531 
z
" transform="scale(0.015625)"/>
        <path id="DejaVuSans-35" d="M 691 4666 
L 3169 4666 
L 3169 4134 
L 1269 4134 
L 1269 2991 
Q 1406 3038 1543 3061 
Q 1681 3084 1819 3084 
Q 2600 3084 3056 2656 
Q 3513 2228 3513 1497 
Q 3513 744 3044 326 
Q 2575 -91 1722 -91 
Q 1428 -91 1123 -41 
Q 819 9 494 109 
L 494 744 
Q 775 591 1075 516 
Q 1375 441 1709 441 
Q 2250 441 2565 725 
Q 2881 1009 2881 1497 
Q 2881 1984 2565 2268 
Q 2250 2553 1709 2553 
Q 1456 2553 1204 2497 
Q 953 2441 691 2322 
L 691 4666 
z
" transform="scale(0.015625)"/>
       </defs>
       <use xlink:href="#DejaVuSans-31"/>
       <use xlink:href="#DejaVuSans-35" x="63.623047"/>
       <use xlink:href="#DejaVuSans-30" x="127.246094"/>
      </g>
     </g>
    </g>
    <g id="xtick_3">
     <g id="line2d_3">
      <g>
       <use xlink:href="#m7a404c637a" x="196.209865" y="129.12" style="stroke: #000000; stroke-width: 0.8"/>
      </g>
     </g>
     <g id="text_3">
      <!-- 300 -->
      <g transform="translate(186.666115 143.718437) scale(0.1 -0.1)">
       <defs>
        <path id="DejaVuSans-33" d="M 2597 2516 
Q 3050 2419 3304 2112 
Q 3559 1806 3559 1356 
Q 3559 666 3084 287 
Q 2609 -91 1734 -91 
Q 1441 -91 1130 -33 
Q 819 25 488 141 
L 488 750 
Q 750 597 1062 519 
Q 1375 441 1716 441 
Q 2309 441 2620 675 
Q 2931 909 2931 1356 
Q 2931 1769 2642 2001 
Q 2353 2234 1838 2234 
L 1294 2234 
L 1294 2753 
L 1863 2753 
Q 2328 2753 2575 2939 
Q 2822 3125 2822 3475 
Q 2822 3834 2567 4026 
Q 2313 4219 1838 4219 
Q 1578 4219 1281 4162 
Q 984 4106 628 3988 
L 628 4550 
Q 988 4650 1302 4700 
Q 1616 4750 1894 4750 
Q 2613 4750 3031 4423 
Q 3450 4097 3450 3541 
Q 3450 3153 3228 2886 
Q 3006 2619 2597 2516 
z
" transform="scale(0.015625)"/>
       </defs>
       <use xlink:href="#DejaVuSans-33"/>
       <use xlink:href="#DejaVuSans-30" x="63.623047"/>
       <use xlink:href="#DejaVuSans-30" x="127.246094"/>
      </g>
     </g>
    </g>
    <g id="text_4">
     <!-- Frequency (Hz) -->
     <g transform="translate(91.282493 157.396563) scale(0.1 -0.1)">
      <defs>
       <path id="DejaVuSans-46" d="M 628 4666 
L 3309 4666 
L 3309 4134 
L 1259 4134 
L 1259 2759 
L 3109 2759 
L 3109 2228 
L 1259 2228 
L 1259 0 
L 628 0 
L 628 4666 
z
" transform="scale(0.015625)"/>
       <path id="DejaVuSans-72" d="M 2631 2963 
Q 2534 3019 2420 3045 
Q 2306 3072 2169 3072 
Q 1681 3072 1420 2755 
Q 1159 2438 1159 1844 
L 1159 0 
L 581 0 
L 581 3500 
L 1159 3500 
L 1159 2956 
Q 1341 3275 1631 3429 
Q 1922 3584 2338 3584 
Q 2397 3584 2469 3576 
Q 2541 3569 2628 3553 
L 2631 2963 
z
" transform="scale(0.015625)"/>
       <path id="DejaVuSans-65" d="M 3597 1894 
L 3597 1613 
L 953 1613 
Q 991 1019 1311 708 
Q 1631 397 2203 397 
Q 2534 397 2845 478 
Q 3156 559 3463 722 
L 3463 178 
Q 3153 47 2828 -22 
Q 2503 -91 2169 -91 
Q 1331 -91 842 396 
Q 353 884 353 1716 
Q 353 2575 817 3079 
Q 1281 3584 2069 3584 
Q 2775 3584 3186 3129 
Q 3597 2675 3597 1894 
z
M 3022 2063 
Q 3016 2534 2758 2815 
Q 2500 3097 2075 3097 
Q 1594 3097 1305 2825 
Q 1016 2553 972 2059 
L 3022 2063 
z
" transform="scale(0.015625)"/>
       <path id="DejaVuSans-71" d="M 947 1747 
Q 947 1113 1208 752 
Q 1469 391 1925 391 
Q 2381 391 2643 752 
Q 2906 1113 2906 1747 
Q 2906 2381 2643 2742 
Q 2381 3103 1925 3103 
Q 1469 3103 1208 2742 
Q 947 2381 947 1747 
z
M 2906 525 
Q 2725 213 2448 61 
Q 2172 -91 1784 -91 
Q 1150 -91 751 415 
Q 353 922 353 1747 
Q 353 2572 751 3078 
Q 1150 3584 1784 3584 
Q 2172 3584 2448 3432 
Q 2725 3281 2906 2969 
L 2906 3500 
L 3481 3500 
L 3481 -1331 
L 2906 -1331 
L 2906 525 
z
" transform="scale(0.015625)"/>
       <path id="DejaVuSans-75" d="M 544 1381 
L 544 3500 
L 1119 3500 
L 1119 1403 
Q 1119 906 1312 657 
Q 1506 409 1894 409 
Q 2359 409 2629 706 
Q 2900 1003 2900 1516 
L 2900 3500 
L 3475 3500 
L 3475 0 
L 2900 0 
L 2900 538 
Q 2691 219 2414 64 
Q 2138 -91 1772 -91 
Q 1169 -91 856 284 
Q 544 659 544 1381 
z
M 1991 3584 
L 1991 3584 
z
" transform="scale(0.015625)"/>
       <path id="DejaVuSans-6e" d="M 3513 2113 
L 3513 0 
L 2938 0 
L 2938 2094 
Q 2938 2591 2744 2837 
Q 2550 3084 2163 3084 
Q 1697 3084 1428 2787 
Q 1159 2491 1159 1978 
L 1159 0 
L 581 0 
L 581 3500 
L 1159 3500 
L 1159 2956 
Q 1366 3272 1645 3428 
Q 1925 3584 2291 3584 
Q 2894 3584 3203 3211 
Q 3513 2838 3513 2113 
z
" transform="scale(0.015625)"/>
       <path id="DejaVuSans-63" d="M 3122 3366 
L 3122 2828 
Q 2878 2963 2633 3030 
Q 2388 3097 2138 3097 
Q 1578 3097 1268 2742 
Q 959 2388 959 1747 
Q 959 1106 1268 751 
Q 1578 397 2138 397 
Q 2388 397 2633 464 
Q 2878 531 3122 666 
L 3122 134 
Q 2881 22 2623 -34 
Q 2366 -91 2075 -91 
Q 1284 -91 818 406 
Q 353 903 353 1747 
Q 353 2603 823 3093 
Q 1294 3584 2113 3584 
Q 2378 3584 2631 3529 
Q 2884 3475 3122 3366 
z
" transform="scale(0.015625)"/>
       <path id="DejaVuSans-79" d="M 2059 -325 
Q 1816 -950 1584 -1140 
Q 1353 -1331 966 -1331 
L 506 -1331 
L 506 -850 
L 844 -850 
Q 1081 -850 1212 -737 
Q 1344 -625 1503 -206 
L 1606 56 
L 191 3500 
L 800 3500 
L 1894 763 
L 2988 3500 
L 3597 3500 
L 2059 -325 
z
" transform="scale(0.015625)"/>
       <path id="DejaVuSans-20" transform="scale(0.015625)"/>
       <path id="DejaVuSans-28" d="M 1984 4856 
Q 1566 4138 1362 3434 
Q 1159 2731 1159 2009 
Q 1159 1288 1364 580 
Q 1569 -128 1984 -844 
L 1484 -844 
Q 1016 -109 783 600 
Q 550 1309 550 2009 
Q 550 2706 781 3412 
Q 1013 4119 1484 4856 
L 1984 4856 
z
" transform="scale(0.015625)"/>
       <path id="DejaVuSans-48" d="M 628 4666 
L 1259 4666 
L 1259 2753 
L 3553 2753 
L 3553 4666 
L 4184 4666 
L 4184 0 
L 3553 0 
L 3553 2222 
L 1259 2222 
L 1259 0 
L 628 0 
L 628 4666 
z
" transform="scale(0.015625)"/>
       <path id="DejaVuSans-7a" d="M 353 3500 
L 3084 3500 
L 3084 2975 
L 922 459 
L 3084 459 
L 3084 0 
L 275 0 
L 275 525 
L 2438 3041 
L 353 3041 
L 353 3500 
z
" transform="scale(0.015625)"/>
       <path id="DejaVuSans-29" d="M 513 4856 
L 1013 4856 
Q 1481 4119 1714 3412 
Q 1947 2706 1947 2009 
Q 1947 1309 1714 600 
Q 1481 -109 1013 -844 
L 513 -844 
Q 928 -128 1133 580 
Q 1338 1288 1338 2009 
Q 1338 2731 1133 3434 
Q 928 4138 513 4856 
z
" transform="scale(0.015625)"/>
      </defs>
      <use xlink:href="#DejaVuSans-46"/>
      <use xlink:href="#DejaVuSans-72" x="50.269531"/>
      <use xlink:href="#DejaVuSans-65" x="89.132812"/>
      <use xlink:href="#DejaVuSans-71" x="150.65625"/>
      <use xlink:href="#DejaVuSans-75" x="214.132812"/>
      <use xlink:href="#DejaVuSans-65" x="277.511719"/>
      <use xlink:href="#DejaVuSans-6e" x="339.035156"/>
      <use xlink:href="#DejaVuSans-63" x="402.414062"/>
      <use xlink:href="#DejaVuSans-79" x="457.394531"/>
      <use xlink:href="#DejaVuSans-20" x="516.574219"/>
      <use xlink:href="#DejaVuSans-28" x="548.361328"/>
      <use xlink:href="#DejaVuSans-48" x="587.375"/>
      <use xlink:href="#DejaVuSans-7a" x="662.570312"/>
      <use xlink:href="#DejaVuSans-29" x="715.060547"/>
     </g>
    </g>
   </g>
   <g id="matplotlib.axis_2">
    <g id="ytick_1">
     <g id="line2d_4">
      <defs>
       <path id="m5372f46c2f" d="M 0 0 
L -3.5 0 
" style="stroke: #000000; stroke-width: 0.8"/>
      </defs>
      <g>
       <use xlink:href="#m5372f46c2f" x="59.52" y="108.661385" style="stroke: #000000; stroke-width: 0.8"/>
      </g>
     </g>
     <g id="text_5">
      <!-- $\mathdefault{10^{-3}}$ -->
      <g transform="translate(29.02 112.460604) scale(0.1 -0.1)">
       <defs>
        <path id="DejaVuSans-2212" d="M 678 2272 
L 4684 2272 
L 4684 1741 
L 678 1741 
L 678 2272 
z
" transform="scale(0.015625)"/>
       </defs>
       <use xlink:href="#DejaVuSans-31" transform="translate(0 0.765625)"/>
       <use xlink:href="#DejaVuSans-30" transform="translate(63.623047 0.765625)"/>
       <use xlink:href="#DejaVuSans-2212" transform="translate(128.203125 39.046875) scale(0.7)"/>
       <use xlink:href="#DejaVuSans-33" transform="translate(186.855469 39.046875) scale(0.7)"/>
      </g>
     </g>
    </g>
    <g id="ytick_2">
     <g id="line2d_5">
      <g>
       <use xlink:href="#m5372f46c2f" x="59.52" y="82.220387" style="stroke: #000000; stroke-width: 0.8"/>
      </g>
     </g>
     <g id="text_6">
      <!-- $\mathdefault{10^{0}}$ -->
      <g transform="translate(34.92 86.019606) scale(0.1 -0.1)">
       <use xlink:href="#DejaVuSans-31" transform="translate(0 0.765625)"/>
       <use xlink:href="#DejaVuSans-30" transform="translate(63.623047 0.765625)"/>
       <use xlink:href="#DejaVuSans-30" transform="translate(128.203125 39.046875) scale(0.7)"/>
      </g>
     </g>
    </g>
    <g id="ytick_3">
     <g id="line2d_6">
      <g>
       <use xlink:href="#m5372f46c2f" x="59.52" y="55.77939" style="stroke: #000000; stroke-width: 0.8"/>
      </g>
     </g>
     <g id="text_7">
      <!-- $\mathdefault{10^{3}}$ -->
      <g transform="translate(34.92 59.578608) scale(0.1 -0.1)">
       <use xlink:href="#DejaVuSans-31" transform="translate(0 0.765625)"/>
       <use xlink:href="#DejaVuSans-30" transform="translate(63.623047 0.765625)"/>
       <use xlink:href="#DejaVuSans-33" transform="translate(128.203125 39.046875) scale(0.7)"/>
      </g>
     </g>
    </g>
    <g id="ytick_4">
     <g id="line2d_7">
      <g>
       <use xlink:href="#m5372f46c2f" x="59.52" y="29.338392" style="stroke: #000000; stroke-width: 0.8"/>
      </g>
     </g>
     <g id="text_8">
      <!-- $\mathdefault{10^{6}}$ -->
      <g transform="translate(34.92 33.137611) scale(0.1 -0.1)">
       <defs>
        <path id="DejaVuSans-36" d="M 2113 2584 
Q 1688 2584 1439 2293 
Q 1191 2003 1191 1497 
Q 1191 994 1439 701 
Q 1688 409 2113 409 
Q 2538 409 2786 701 
Q 3034 994 3034 1497 
Q 3034 2003 2786 2293 
Q 2538 2584 2113 2584 
z
M 3366 4563 
L 3366 3988 
Q 3128 4100 2886 4159 
Q 2644 4219 2406 4219 
Q 1781 4219 1451 3797 
Q 1122 3375 1075 2522 
Q 1259 2794 1537 2939 
Q 1816 3084 2150 3084 
Q 2853 3084 3261 2657 
Q 3669 2231 3669 1497 
Q 3669 778 3244 343 
Q 2819 -91 2113 -91 
Q 1303 -91 875 529 
Q 447 1150 447 2328 
Q 447 3434 972 4092 
Q 1497 4750 2381 4750 
Q 2619 4750 2861 4703 
Q 3103 4656 3366 4563 
z
" transform="scale(0.015625)"/>
       </defs>
       <use xlink:href="#DejaVuSans-31" transform="translate(0 0.765625)"/>
       <use xlink:href="#DejaVuSans-30" transform="translate(63.623047 0.765625)"/>
       <use xlink:href="#DejaVuSans-36" transform="translate(128.203125 39.046875) scale(0.7)"/>
      </g>
     </g>
    </g>
    <g id="text_9">
     <!-- Log power (dB/Hz) -->
     <g transform="translate(22.940312 124.139844) rotate(-90) scale(0.1 -0.1)">
      <defs>
       <path id="DejaVuSans-4c" d="M 628 4666 
L 1259 4666 
L 1259 531 
L 3531 531 
L 3531 0 
L 628 0 
L 628 4666 
z
" transform="scale(0.015625)"/>
       <path id="DejaVuSans-6f" d="M 1959 3097 
Q 1497 3097 1228 2736 
Q 959 2375 959 1747 
Q 959 1119 1226 758 
Q 1494 397 1959 397 
Q 2419 397 2687 759 
Q 2956 1122 2956 1747 
Q 2956 2369 2687 2733 
Q 2419 3097 1959 3097 
z
M 1959 3584 
Q 2709 3584 3137 3096 
Q 3566 2609 3566 1747 
Q 3566 888 3137 398 
Q 2709 -91 1959 -91 
Q 1206 -91 779 398 
Q 353 888 353 1747 
Q 353 2609 779 3096 
Q 1206 3584 1959 3584 
z
" transform="scale(0.015625)"/>
       <path id="DejaVuSans-67" d="M 2906 1791 
Q 2906 2416 2648 2759 
Q 2391 3103 1925 3103 
Q 1463 3103 1205 2759 
Q 947 2416 947 1791 
Q 947 1169 1205 825 
Q 1463 481 1925 481 
Q 2391 481 2648 825 
Q 2906 1169 2906 1791 
z
M 3481 434 
Q 3481 -459 3084 -895 
Q 2688 -1331 1869 -1331 
Q 1566 -1331 1297 -1286 
Q 1028 -1241 775 -1147 
L 775 -588 
Q 1028 -725 1275 -790 
Q 1522 -856 1778 -856 
Q 2344 -856 2625 -561 
Q 2906 -266 2906 331 
L 2906 616 
Q 2728 306 2450 153 
Q 2172 0 1784 0 
Q 1141 0 747 490 
Q 353 981 353 1791 
Q 353 2603 747 3093 
Q 1141 3584 1784 3584 
Q 2172 3584 2450 3431 
Q 2728 3278 2906 2969 
L 2906 3500 
L 3481 3500 
L 3481 434 
z
" transform="scale(0.015625)"/>
       <path id="DejaVuSans-70" d="M 1159 525 
L 1159 -1331 
L 581 -1331 
L 581 3500 
L 1159 3500 
L 1159 2969 
Q 1341 3281 1617 3432 
Q 1894 3584 2278 3584 
Q 2916 3584 3314 3078 
Q 3713 2572 3713 1747 
Q 3713 922 3314 415 
Q 2916 -91 2278 -91 
Q 1894 -91 1617 61 
Q 1341 213 1159 525 
z
M 3116 1747 
Q 3116 2381 2855 2742 
Q 2594 3103 2138 3103 
Q 1681 3103 1420 2742 
Q 1159 2381 1159 1747 
Q 1159 1113 1420 752 
Q 1681 391 2138 391 
Q 2594 391 2855 752 
Q 3116 1113 3116 1747 
z
" transform="scale(0.015625)"/>
       <path id="DejaVuSans-77" d="M 269 3500 
L 844 3500 
L 1563 769 
L 2278 3500 
L 2956 3500 
L 3675 769 
L 4391 3500 
L 4966 3500 
L 4050 0 
L 3372 0 
L 2619 2869 
L 1863 0 
L 1184 0 
L 269 3500 
z
" transform="scale(0.015625)"/>
       <path id="DejaVuSans-64" d="M 2906 2969 
L 2906 4863 
L 3481 4863 
L 3481 0 
L 2906 0 
L 2906 525 
Q 2725 213 2448 61 
Q 2172 -91 1784 -91 
Q 1150 -91 751 415 
Q 353 922 353 1747 
Q 353 2572 751 3078 
Q 1150 3584 1784 3584 
Q 2172 3584 2448 3432 
Q 2725 3281 2906 2969 
z
M 947 1747 
Q 947 1113 1208 752 
Q 1469 391 1925 391 
Q 2381 391 2643 752 
Q 2906 1113 2906 1747 
Q 2906 2381 2643 2742 
Q 2381 3103 1925 3103 
Q 1469 3103 1208 2742 
Q 947 2381 947 1747 
z
" transform="scale(0.015625)"/>
       <path id="DejaVuSans-42" d="M 1259 2228 
L 1259 519 
L 2272 519 
Q 2781 519 3026 730 
Q 3272 941 3272 1375 
Q 3272 1813 3026 2020 
Q 2781 2228 2272 2228 
L 1259 2228 
z
M 1259 4147 
L 1259 2741 
L 2194 2741 
Q 2656 2741 2882 2914 
Q 3109 3088 3109 3444 
Q 3109 3797 2882 3972 
Q 2656 4147 2194 4147 
L 1259 4147 
z
M 628 4666 
L 2241 4666 
Q 2963 4666 3353 4366 
Q 3744 4066 3744 3513 
Q 3744 3084 3544 2831 
Q 3344 2578 2956 2516 
Q 3422 2416 3680 2098 
Q 3938 1781 3938 1306 
Q 3938 681 3513 340 
Q 3088 0 2303 0 
L 628 0 
L 628 4666 
z
" transform="scale(0.015625)"/>
       <path id="DejaVuSans-2f" d="M 1625 4666 
L 2156 4666 
L 531 -594 
L 0 -594 
L 1625 4666 
z
" transform="scale(0.015625)"/>
      </defs>
      <use xlink:href="#DejaVuSans-4c"/>
      <use xlink:href="#DejaVuSans-6f" x="53.962891"/>
      <use xlink:href="#DejaVuSans-67" x="115.144531"/>
      <use xlink:href="#DejaVuSans-20" x="178.621094"/>
      <use xlink:href="#DejaVuSans-70" x="210.408203"/>
      <use xlink:href="#DejaVuSans-6f" x="273.884766"/>
      <use xlink:href="#DejaVuSans-77" x="335.066406"/>
      <use xlink:href="#DejaVuSans-65" x="416.853516"/>
      <use xlink:href="#DejaVuSans-72" x="478.376953"/>
      <use xlink:href="#DejaVuSans-20" x="519.490234"/>
      <use xlink:href="#DejaVuSans-28" x="551.277344"/>
      <use xlink:href="#DejaVuSans-64" x="590.291016"/>
      <use xlink:href="#DejaVuSans-42" x="653.767578"/>
      <use xlink:href="#DejaVuSans-2f" x="722.371094"/>
      <use xlink:href="#DejaVuSans-48" x="756.0625"/>
      <use xlink:href="#DejaVuSans-7a" x="831.257812"/>
      <use xlink:href="#DejaVuSans-29" x="883.748047"/>
     </g>
    </g>
   </g>
   <g id="line2d_8">
    <path d="M 61.764497 72.160166 
L 62.213396 67.738029 
L 62.437846 71.111822 
L 62.886745 66.447344 
L 63.111195 66.885735 
L 63.335645 65.531232 
L 63.560095 74.099772 
L 63.784544 63.604728 
L 64.008994 70.795001 
L 64.233444 66.007857 
L 64.457893 80.696498 
L 64.682343 69.911776 
L 64.906793 65.12275 
L 65.131242 74.484985 
L 65.355692 64.860071 
L 65.580142 70.178017 
L 65.804591 71.639831 
L 66.029041 71.909008 
L 66.253491 75.25022 
L 66.477941 67.668739 
L 66.70239 75.880985 
L 66.92684 68.839102 
L 67.15129 77.696864 
L 67.375739 70.758605 
L 67.600189 68.806069 
L 67.824639 68.43613 
L 68.049088 69.783811 
L 68.273538 69.122968 
L 68.497988 67.579974 
L 68.722438 67.023961 
L 68.946887 75.429447 
L 69.620236 67.554882 
L 69.844686 73.788005 
L 70.069136 70.330947 
L 70.293585 75.881429 
L 70.518035 68.344799 
L 70.742485 69.416486 
L 70.966935 66.438248 
L 71.191384 68.733644 
L 71.415834 67.130581 
L 71.640284 56.83967 
L 71.864733 68.658894 
L 72.089183 71.8675 
L 72.313633 72.860136 
L 72.538082 74.825724 
L 72.762532 69.673799 
L 72.986982 67.324096 
L 73.211431 82.466627 
L 73.435881 70.501477 
L 73.660331 77.617575 
L 73.884781 64.389097 
L 74.10923 69.882423 
L 74.33368 69.811373 
L 74.55813 68.023523 
L 74.782579 71.120374 
L 75.007029 69.185191 
L 75.231479 83.83656 
L 75.455928 70.056681 
L 75.680378 84.615088 
L 75.904828 80.101312 
L 76.129278 68.39929 
L 76.353727 69.866155 
L 76.578177 74.860487 
L 76.802627 65.946773 
L 77.027076 76.756117 
L 77.251526 68.237633 
L 77.475976 87.01139 
L 77.924875 69.718649 
L 78.373774 65.070629 
L 78.598224 67.234879 
L 78.822674 75.072819 
L 79.047124 74.676285 
L 79.271573 69.364432 
L 79.496023 69.164425 
L 79.720473 77.903401 
L 79.944922 68.020193 
L 80.169372 71.365201 
L 80.393822 66.414458 
L 80.618271 70.546635 
L 80.842721 80.429197 
L 81.067171 65.871292 
L 81.291621 66.652628 
L 81.51607 68.082984 
L 81.74052 65.061263 
L 81.96497 74.016947 
L 82.189419 68.413665 
L 82.413869 66.278853 
L 82.638319 62.699225 
L 82.862768 68.736087 
L 83.087218 63.071036 
L 83.311668 75.27482 
L 83.536117 73.410944 
L 83.760567 86.551702 
L 84.209467 67.440681 
L 84.433916 70.977127 
L 84.658366 67.042817 
L 84.882816 80.227717 
L 85.331715 70.475491 
L 85.556165 67.176112 
L 85.780614 73.845191 
L 86.005064 66.913472 
L 86.229514 70.996288 
L 86.453964 69.028183 
L 86.678413 65.649417 
L 86.902863 66.107056 
L 87.127313 65.576294 
L 87.351762 70.512299 
L 87.576212 64.09935 
L 87.800662 73.80252 
L 88.025111 68.601391 
L 88.249561 66.710704 
L 88.474011 61.334215 
L 88.69846 70.552769 
L 88.92291 92.67628 
L 89.14736 72.220778 
L 89.37181 68.761051 
L 89.596259 84.837147 
L 89.820709 66.274504 
L 90.269608 82.926524 
L 90.718508 61.069599 
L 90.942957 67.61607 
L 91.167407 67.680863 
L 91.391857 74.165792 
L 91.616307 64.131953 
L 91.840756 68.31958 
L 92.065206 64.712796 
L 92.289656 66.196795 
L 92.514105 65.239123 
L 92.963005 69.325283 
L 93.187454 65.66825 
L 93.411904 70.924739 
L 93.636354 66.751975 
L 93.860804 68.936939 
L 94.085253 72.441247 
L 94.309703 77.991348 
L 94.534153 66.059166 
L 94.758602 68.933395 
L 94.983052 68.548769 
L 95.431951 81.296163 
L 95.656401 72.435306 
L 95.880851 76.283015 
L 96.1053 61.178755 
L 96.32975 68.106668 
L 96.5542 61.202816 
L 97.003099 66.432616 
L 97.227549 71.50161 
L 97.451999 64.124772 
L 97.676448 65.966733 
L 97.900898 64.447268 
L 98.125348 64.151007 
L 98.349797 73.404759 
L 98.574247 66.887204 
L 98.798697 63.845118 
L 99.023147 70.965345 
L 99.247596 66.693498 
L 99.472046 81.475547 
L 99.696496 67.641172 
L 99.920945 66.345053 
L 100.145395 72.19692 
L 100.369845 71.49607 
L 100.594294 66.478675 
L 100.818744 64.454719 
L 101.043194 65.233651 
L 101.267643 68.850031 
L 101.492093 74.567085 
L 101.716543 76.546655 
L 101.940993 65.514084 
L 102.165442 75.887908 
L 102.389892 63.18982 
L 102.614342 74.104907 
L 102.838791 65.036776 
L 103.063241 68.709251 
L 103.287691 77.277018 
L 103.51214 76.40499 
L 103.73659 65.994998 
L 103.96104 77.207769 
L 104.18549 64.259727 
L 104.409939 67.210258 
L 104.634389 66.491389 
L 105.083288 67.620536 
L 105.307738 62.180767 
L 105.532188 79.981245 
L 105.756637 66.613191 
L 105.981087 71.264348 
L 106.205537 63.300172 
L 106.429986 64.716889 
L 106.654436 67.803846 
L 106.878886 64.735328 
L 107.103336 67.431703 
L 107.327785 68.76849 
L 107.552235 66.641838 
L 107.776685 79.826853 
L 108.001134 64.717071 
L 108.225584 64.937551 
L 108.450034 71.020773 
L 108.674483 66.567919 
L 109.347833 73.447956 
L 109.572282 75.283358 
L 109.796732 68.444513 
L 110.021182 67.76627 
L 110.245631 68.642354 
L 110.470081 67.318695 
L 110.694531 67.214739 
L 110.91898 67.419559 
L 111.14343 64.882888 
L 111.36788 71.637518 
L 111.592329 68.527625 
L 111.816779 74.342432 
L 112.265679 67.924643 
L 112.490128 70.363898 
L 112.714578 65.18343 
L 112.939028 63.442274 
L 113.163477 82.027941 
L 113.387927 74.432582 
L 113.612377 72.617731 
L 113.836826 64.638097 
L 114.285726 65.916224 
L 114.510176 62.227805 
L 114.959075 71.90476 
L 115.183525 69.529984 
L 115.407974 64.086417 
L 115.632424 68.188246 
L 115.856874 76.224163 
L 116.081323 65.116218 
L 116.754673 72.137717 
L 117.203572 65.083037 
L 117.428022 70.657294 
L 117.652471 31.527273 
L 117.876921 70.113098 
L 118.101371 65.421661 
L 118.32582 68.068489 
L 118.55027 72.409627 
L 118.77472 68.697366 
L 118.999169 68.658887 
L 119.223619 65.671976 
L 119.448069 76.329175 
L 119.896968 64.55524 
L 120.345868 73.631265 
L 120.794767 62.936995 
L 121.019217 66.642955 
L 121.243666 66.381589 
L 121.468116 65.356106 
L 121.692566 73.304321 
L 121.917016 76.039794 
L 122.141465 83.342043 
L 122.365915 64.86641 
L 122.590365 66.076889 
L 122.814814 71.724009 
L 123.039264 69.839091 
L 123.488163 75.224546 
L 123.712613 69.858758 
L 123.937063 73.338261 
L 124.161512 66.308031 
L 124.385962 69.312553 
L 124.610412 68.891754 
L 124.834862 69.115824 
L 125.059311 70.33973 
L 125.283761 69.011454 
L 125.508211 70.699061 
L 125.73266 76.292156 
L 125.95711 75.32849 
L 126.406009 71.990431 
L 126.630459 68.604906 
L 126.854909 73.668906 
L 127.079359 67.201604 
L 127.303808 67.094326 
L 127.528258 83.061703 
L 127.752708 69.387843 
L 127.977157 71.410151 
L 128.201607 70.619739 
L 128.426057 67.469241 
L 128.650506 70.860699 
L 128.874956 67.338035 
L 129.099406 66.382861 
L 129.323855 74.5162 
L 129.548305 69.254196 
L 129.772755 82.178113 
L 129.997205 65.007307 
L 130.221654 70.686799 
L 130.446104 71.04735 
L 130.670554 69.569804 
L 130.895003 70.474533 
L 131.119453 67.801156 
L 131.343903 80.50773 
L 131.568352 69.759128 
L 131.792802 79.172784 
L 132.017252 80.009856 
L 132.241702 71.689547 
L 132.466151 68.71443 
L 132.690601 77.09088 
L 132.915051 67.059209 
L 133.1395 78.733133 
L 133.36395 69.352547 
L 133.5884 82.392396 
L 134.261749 68.707801 
L 134.486198 68.46775 
L 134.710648 70.720314 
L 134.935098 75.469657 
L 135.159548 77.198963 
L 135.383997 70.600273 
L 135.608447 71.745307 
L 135.832897 84.896614 
L 136.057346 70.735013 
L 136.281796 76.009419 
L 136.506246 68.614071 
L 136.730695 71.219806 
L 136.955145 78.748652 
L 137.179595 69.1333 
L 137.404045 69.535976 
L 137.628494 70.999821 
L 137.852944 69.015257 
L 138.077394 77.129236 
L 138.301843 72.116616 
L 138.750743 66.405011 
L 138.975192 72.820507 
L 139.199642 66.516886 
L 139.424092 82.541871 
L 139.648542 77.627577 
L 139.872991 85.026867 
L 140.321891 73.583931 
L 140.54634 75.226728 
L 140.77079 71.131477 
L 140.99524 86.720723 
L 141.219689 77.008577 
L 141.668589 72.673033 
L 141.893038 78.745023 
L 142.117488 72.060716 
L 142.341938 75.843933 
L 142.790837 71.5776 
L 143.015287 71.785913 
L 143.239737 71.207024 
L 143.464186 75.881068 
L 143.688636 70.302315 
L 143.913086 80.735868 
L 144.137535 74.167599 
L 144.361985 74.363707 
L 144.586435 67.927789 
L 144.810885 76.87419 
L 145.035334 92.384268 
L 145.259784 78.73354 
L 145.484234 73.842613 
L 145.708683 89.230383 
L 145.933133 74.351479 
L 146.157583 79.017764 
L 146.382032 98.80679 
L 146.606482 77.19256 
L 146.830932 68.768466 
L 147.055381 75.042396 
L 147.279831 75.318482 
L 147.504281 80.88322 
L 147.728731 71.702226 
L 147.95318 77.584606 
L 148.17763 72.539917 
L 148.40208 73.944478 
L 148.626529 73.57837 
L 149.075429 77.983426 
L 149.299878 74.352741 
L 149.524328 81.37048 
L 149.748778 75.421268 
L 150.197677 80.131098 
L 150.422127 87.250924 
L 150.646577 74.641348 
L 150.871026 78.529136 
L 151.095476 76.802018 
L 151.544375 89.580111 
L 151.768825 81.538813 
L 151.993275 86.635372 
L 152.217724 70.783922 
L 152.442174 77.455527 
L 152.666624 70.669458 
L 153.339973 81.898149 
L 153.564423 73.898348 
L 153.788872 76.051994 
L 154.013322 74.370963 
L 154.237772 74.44247 
L 154.462221 82.953554 
L 154.686671 76.797554 
L 154.911121 74.24862 
L 155.135571 80.91616 
L 155.36002 76.37222 
L 155.58447 90.166702 
L 155.80892 77.422125 
L 156.033369 76.135222 
L 156.257819 83.300532 
L 156.482269 81.722316 
L 156.706718 76.791228 
L 156.931168 74.911529 
L 157.155618 75.017032 
L 157.604517 83.477849 
L 157.828967 88.817896 
L 158.053417 75.719808 
L 158.277866 86.905324 
L 158.502316 73.819415 
L 158.726766 82.449506 
L 158.951215 75.308263 
L 159.175665 78.814093 
L 159.400115 87.600608 
L 159.624564 86.431624 
L 159.849014 76.511125 
L 160.073464 85.960902 
L 160.297914 74.420221 
L 160.522363 78.224588 
L 160.746813 77.204524 
L 160.971263 78.018861 
L 161.195712 77.650704 
L 161.420162 72.054533 
L 161.644612 88.452339 
L 161.869061 76.876497 
L 162.093511 81.870681 
L 162.317961 73.454127 
L 162.542411 74.38444 
L 162.76686 78.149476 
L 162.99131 74.66714 
L 163.21576 77.676748 
L 163.440209 78.871926 
L 163.664659 76.582354 
L 163.889109 88.983955 
L 164.113558 74.739579 
L 164.338008 74.680296 
L 164.562458 81.576886 
L 164.786907 76.065221 
L 165.011357 79.162926 
L 165.235807 80.237373 
L 165.460257 84.752491 
L 165.684706 84.849546 
L 165.909156 78.990615 
L 166.133606 77.13007 
L 166.358055 77.874298 
L 166.582505 76.907242 
L 166.806955 76.603128 
L 167.031404 76.937715 
L 167.255854 74.072981 
L 167.480304 81.600224 
L 167.704754 77.91382 
L 167.929203 83.084858 
L 168.378103 77.474698 
L 168.602552 79.571148 
L 168.827002 73.934924 
L 169.051452 72.577229 
L 169.275901 90.91499 
L 169.500351 83.231804 
L 169.724801 82.102085 
L 169.94925 73.275872 
L 170.39815 74.764253 
L 170.6226 70.922863 
L 171.071499 80.348578 
L 171.295949 77.939466 
L 171.520398 72.474979 
L 171.744848 76.290396 
L 171.969298 84.692908 
L 172.193747 73.255254 
L 172.418197 76.288846 
L 172.642647 76.930197 
L 172.867097 80.519873 
L 173.315996 73.330124 
L 173.540446 78.018327 
L 173.764895 39.549077 
L 173.989345 78.102071 
L 174.213795 73.433392 
L 174.438244 75.411447 
L 174.662694 80.427456 
L 174.887144 76.904363 
L 175.111593 75.661982 
L 175.336043 73.452961 
L 175.560493 84.26283 
L 175.784943 75.829854 
L 176.009392 72.272737 
L 176.458292 80.412548 
L 176.907191 70.311027 
L 177.131641 74.129956 
L 177.35609 73.789118 
L 177.58054 72.855268 
L 177.80499 80.419401 
L 178.02944 82.996157 
L 178.253889 89.163126 
L 178.478339 71.909077 
L 178.702789 73.413805 
L 178.927238 79.121018 
L 179.151688 76.66744 
L 179.600587 82.558684 
L 179.825037 77.471443 
L 180.049487 80.278372 
L 180.273936 73.349593 
L 180.498386 75.899718 
L 180.947286 76.021063 
L 181.171735 77.065335 
L 181.396185 76.123377 
L 181.620635 77.270895 
L 181.845084 83.5878 
L 182.069534 83.025964 
L 182.742883 75.396221 
L 182.967333 80.388518 
L 183.191783 73.622099 
L 183.416232 73.516784 
L 183.640682 87.263229 
L 183.865132 75.685834 
L 184.089581 77.961004 
L 184.314031 76.480472 
L 184.538481 73.507295 
L 184.76293 76.827214 
L 184.98738 73.794359 
L 185.21183 72.40712 
L 185.43628 80.641692 
L 185.660729 75.599259 
L 185.885179 87.739843 
L 186.109629 71.126336 
L 186.334078 76.647961 
L 186.558528 76.702351 
L 186.782978 75.644872 
L 187.007427 76.831728 
L 187.231877 73.526261 
L 187.456327 87.281954 
L 187.680776 75.548687 
L 187.905226 84.583834 
L 188.129676 86.222372 
L 188.354126 78.031358 
L 188.578575 74.188545 
L 188.803025 83.573866 
L 189.027475 72.806701 
L 189.251924 84.731899 
L 189.476374 74.794106 
L 189.700824 86.969297 
L 189.925273 83.869767 
L 190.374173 74.527919 
L 190.598623 73.950092 
L 190.823072 76.505146 
L 191.047522 80.770965 
L 191.271972 82.645143 
L 191.496421 75.705748 
L 191.720871 77.179292 
L 191.945321 89.506913 
L 192.16977 76.052032 
L 192.39422 80.327011 
L 192.61867 74.127512 
L 192.843119 76.709704 
L 193.067569 83.351708 
L 193.292019 74.226203 
L 193.516469 74.756462 
L 193.740918 76.355212 
L 193.965368 74.339606 
L 194.189818 82.145915 
L 194.414267 76.886076 
L 194.863167 71.496181 
L 195.087616 78.08978 
L 195.312066 71.79929 
L 195.536516 87.362089 
L 195.760966 83.523488 
L 195.985415 90.031611 
L 195.985415 90.031611 
" clip-path="url(#p398dba1d7f)" style="fill: none; stroke: #808080; stroke-width: 0.8; stroke-linecap: square"/>
   </g>
   <g id="line2d_9">
    <path d="M 61.764497 73.758801 
L 61.988947 75.100989 
L 62.213396 68.613755 
L 62.437846 73.524453 
L 62.662296 68.908439 
L 62.886745 66.832252 
L 63.111195 71.626766 
L 63.335645 66.012301 
L 63.560095 68.173091 
L 63.784544 67.55419 
L 64.008994 76.412212 
L 64.233444 67.458411 
L 64.457893 70.106242 
L 64.682343 74.364694 
L 64.906793 66.917459 
L 65.131242 73.686407 
L 65.355692 67.336206 
L 65.580142 74.365965 
L 65.804591 74.837455 
L 66.029041 70.621971 
L 66.253491 70.396774 
L 66.477941 78.669442 
L 66.70239 77.392993 
L 66.92684 75.229882 
L 67.15129 85.951592 
L 67.375739 72.999186 
L 67.600189 71.951611 
L 67.824639 69.812217 
L 68.049088 86.018009 
L 68.273538 73.723905 
L 68.497988 73.918922 
L 68.722438 72.138495 
L 68.946887 76.304408 
L 69.395787 71.113114 
L 69.620236 69.588524 
L 69.844686 79.309828 
L 70.069136 74.200103 
L 70.293585 72.455406 
L 70.518035 79.053895 
L 70.742485 73.337136 
L 70.966935 74.520488 
L 71.191384 94.786555 
L 71.415834 66.341707 
L 71.640284 55.677765 
L 72.089183 85.39806 
L 72.313633 74.526199 
L 72.538082 73.050579 
L 72.986982 84.849409 
L 73.211431 78.034446 
L 73.435881 79.605497 
L 73.884781 75.230228 
L 74.10923 82.602648 
L 74.33368 81.571838 
L 74.55813 77.214852 
L 74.782579 94.465922 
L 75.007029 79.516319 
L 75.231479 88.0826 
L 75.455928 83.780652 
L 75.680378 82.795383 
L 75.904828 85.166501 
L 76.129278 77.082585 
L 76.353727 78.838136 
L 76.578177 85.339055 
L 76.802627 85.704203 
L 77.027076 83.409591 
L 77.251526 86.116064 
L 77.475976 78.463071 
L 77.700425 77.006988 
L 77.924875 82.637965 
L 78.149325 81.563631 
L 78.373774 76.468246 
L 78.598224 78.65094 
L 79.047124 87.820216 
L 79.271573 84.088107 
L 79.496023 84.846354 
L 79.720473 84.775823 
L 79.944922 93.923764 
L 80.169372 82.991122 
L 80.393822 89.33361 
L 80.618271 79.267492 
L 80.842721 77.913415 
L 81.067171 83.457861 
L 81.291621 94.511033 
L 81.51607 82.489294 
L 81.74052 80.705332 
L 81.96497 81.997138 
L 82.189419 89.952842 
L 82.413869 81.401876 
L 82.638319 79.982827 
L 82.862768 86.445018 
L 83.311668 82.898694 
L 83.760567 86.933487 
L 84.209467 80.297888 
L 84.433916 91.052804 
L 84.658366 84.296698 
L 84.882816 83.961862 
L 85.107265 81.14413 
L 85.331715 88.282765 
L 85.556165 90.599554 
L 85.780614 80.614709 
L 86.005064 92.234284 
L 86.229514 85.503357 
L 86.453964 83.014061 
L 86.678413 85.872108 
L 86.902863 95.728084 
L 87.127313 87.103584 
L 87.351762 83.749886 
L 87.576212 85.620137 
L 87.800662 89.977937 
L 88.025111 89.937135 
L 88.249561 80.296299 
L 88.474011 90.020196 
L 88.69846 88.508449 
L 88.92291 84.949318 
L 89.14736 87.983232 
L 89.37181 78.979958 
L 89.596259 90.444558 
L 89.820709 83.510199 
L 90.045159 82.502478 
L 90.269608 85.475682 
L 90.494058 81.624075 
L 90.718508 80.516375 
L 91.167407 91.287609 
L 91.616307 87.917604 
L 91.840756 84.605684 
L 92.065206 83.978407 
L 92.289656 86.306506 
L 92.514105 83.879313 
L 92.738555 89.624886 
L 92.963005 89.532594 
L 93.187454 92.890012 
L 93.411904 84.018955 
L 93.860804 92.271612 
L 94.085253 86.696532 
L 94.309703 90.819103 
L 94.534153 85.944188 
L 94.758602 84.769897 
L 94.983052 85.712448 
L 95.207502 85.199143 
L 95.431951 94.608036 
L 95.880851 87.40536 
L 96.1053 86.280538 
L 96.32975 88.840636 
L 96.5542 87.212338 
L 96.77865 83.402734 
L 97.227549 89.788389 
L 97.451999 101.263468 
L 97.676448 100.750838 
L 97.900898 93.072874 
L 98.125348 96.621024 
L 98.349797 96.286406 
L 98.574247 90.718856 
L 98.798697 88.486569 
L 99.023147 95.212293 
L 99.247596 85.624114 
L 99.472046 90.677676 
L 99.696496 90.765607 
L 99.920945 92.538255 
L 100.145395 89.713368 
L 100.369845 88.817407 
L 100.594294 92.444878 
L 100.818744 85.005298 
L 101.043194 86.098686 
L 101.267643 92.781836 
L 101.492093 89.653022 
L 101.716543 90.446997 
L 101.940993 95.584649 
L 102.165442 93.762449 
L 102.614342 89.298689 
L 102.838791 95.912676 
L 103.063241 91.238383 
L 103.287691 94.770893 
L 103.51214 94.053178 
L 103.73659 91.971381 
L 103.96104 122.653607 
L 104.18549 93.382555 
L 104.409939 87.224411 
L 104.634389 97.466336 
L 104.858839 84.787907 
L 105.083288 90.029485 
L 105.532188 96.256337 
L 105.756637 102.184918 
L 105.981087 91.79678 
L 106.205537 93.859442 
L 106.654436 87.621598 
L 107.327785 95.712581 
L 107.552235 92.101674 
L 107.776685 91.376726 
L 108.001134 99.119761 
L 108.225584 98.396087 
L 108.450034 92.125469 
L 108.674483 94.689855 
L 108.898933 89.680602 
L 109.347833 92.177943 
L 109.572282 91.792994 
L 109.796732 90.376262 
L 110.021182 93.548342 
L 110.470081 92.236289 
L 110.694531 92.350014 
L 110.91898 96.416191 
L 111.36788 89.967807 
L 111.592329 93.333189 
L 111.816779 103.489371 
L 112.041229 103.902644 
L 112.265679 90.103133 
L 112.490128 88.468859 
L 112.714578 97.260426 
L 112.939028 88.673074 
L 113.163477 93.025672 
L 113.387927 94.261417 
L 113.612377 90.500054 
L 113.836826 98.364013 
L 114.061276 93.177819 
L 114.285726 95.439199 
L 114.510176 89.970729 
L 114.734625 100.168767 
L 114.959075 100.967523 
L 115.407974 93.134265 
L 115.632424 94.054879 
L 115.856874 100.949747 
L 116.081323 93.590685 
L 116.305773 90.344227 
L 116.530223 91.668362 
L 116.979122 101.037411 
L 117.428022 88.968572 
L 117.876921 94.429173 
L 118.32582 91.936889 
L 118.55027 92.397704 
L 118.77472 90.608091 
L 118.999169 91.378798 
L 119.223619 97.947974 
L 119.448069 99.454042 
L 119.672519 98.189598 
L 119.896968 92.922184 
L 120.345868 88.828475 
L 120.794767 96.601719 
L 121.019217 98.634349 
L 121.243666 92.99721 
L 121.468116 95.789764 
L 121.692566 105.58076 
L 122.141465 88.190706 
L 122.365915 92.524095 
L 122.590365 94.317723 
L 122.814814 101.863728 
L 123.039264 92.812305 
L 123.263714 92.189964 
L 123.488163 93.966778 
L 123.712613 90.931894 
L 123.937063 98.99644 
L 124.161512 94.196341 
L 124.385962 96.673397 
L 124.610412 91.500618 
L 124.834862 92.708141 
L 125.059311 97.256572 
L 125.283761 92.326741 
L 125.508211 101.985474 
L 125.73266 94.922981 
L 125.95711 92.423799 
L 126.18156 93.716 
L 126.406009 104.300138 
L 126.630459 102.801365 
L 126.854909 103.386005 
L 127.303808 90.591917 
L 127.528258 97.137794 
L 127.752708 95.111249 
L 127.977157 100.21138 
L 128.201607 93.782649 
L 128.426057 94.323832 
L 128.650506 94.500187 
L 128.874956 100.824659 
L 129.099406 92.834562 
L 129.323855 101.968861 
L 129.548305 97.886882 
L 129.772755 99.786512 
L 129.997205 105.063769 
L 130.221654 100.994184 
L 130.446104 102.541353 
L 130.670554 102.701349 
L 131.119453 90.662714 
L 131.343903 105.320497 
L 131.568352 100.540041 
L 131.792802 112.603311 
L 132.017252 98.671422 
L 132.466151 94.523174 
L 132.915051 103.211505 
L 133.36395 95.515259 
L 133.5884 101.056508 
L 133.812849 95.331134 
L 134.486198 105.333767 
L 134.710648 92.418416 
L 134.935098 101.743465 
L 135.159548 97.729772 
L 135.608447 94.909839 
L 135.832897 101.401463 
L 136.057346 100.650206 
L 136.281796 93.829537 
L 136.506246 101.618051 
L 136.730695 101.151716 
L 136.955145 94.340418 
L 137.179595 102.051561 
L 137.404045 113.803458 
L 137.628494 95.679844 
L 137.852944 95.156056 
L 138.077394 100.778581 
L 138.526293 95.378975 
L 138.750743 109.950311 
L 138.975192 97.33087 
L 139.199642 92.430547 
L 139.424092 105.734923 
L 139.648542 98.944326 
L 139.872991 103.476064 
L 140.097441 95.829219 
L 140.321891 105.308314 
L 140.54634 96.581695 
L 140.99524 96.027872 
L 141.219689 102.35634 
L 141.444139 95.525974 
L 141.893038 103.698663 
L 142.117488 100.137849 
L 142.341938 104.219501 
L 142.790837 95.829439 
L 143.015287 94.439086 
L 143.239737 95.737285 
L 143.464186 95.955515 
L 143.688636 102.139762 
L 143.913086 101.895129 
L 144.137535 98.388426 
L 144.361985 100.95142 
L 144.586435 110.599328 
L 144.810885 92.295898 
L 145.035334 103.8316 
L 145.259784 102.909519 
L 145.484234 105.043887 
L 145.708683 101.024814 
L 145.933133 99.159711 
L 146.157583 105.166896 
L 146.382032 101.043122 
L 146.606482 99.500822 
L 146.830932 99.49246 
L 147.055381 98.275747 
L 147.279831 101.72393 
L 147.504281 96.738357 
L 147.728731 102.33039 
L 147.95318 97.618547 
L 148.17763 98.307222 
L 148.40208 104.508055 
L 148.626529 96.60355 
L 148.850979 98.693805 
L 149.299878 108.037726 
L 149.524328 100.26103 
L 149.748778 103.965859 
L 149.973228 105.7988 
L 150.197677 114.483916 
L 150.422127 97.331628 
L 150.646577 99.701587 
L 150.871026 99.347001 
L 151.095476 100.373861 
L 151.319926 100.519666 
L 151.544375 120.053944 
L 151.768825 96.523835 
L 151.993275 109.185906 
L 152.217724 102.827669 
L 152.442174 102.532639 
L 152.666624 103.415511 
L 152.891074 105.374317 
L 153.115523 100.589259 
L 153.339973 106.249008 
L 153.564423 97.214702 
L 153.788872 103.292613 
L 154.013322 99.176124 
L 154.462221 102.519614 
L 154.686671 102.411011 
L 154.911121 98.870369 
L 155.135571 108.723863 
L 155.36002 103.723186 
L 155.58447 109.803342 
L 156.033369 99.565023 
L 156.257819 104.530806 
L 156.482269 98.456156 
L 156.706718 107.475983 
L 156.931168 98.233755 
L 157.155618 109.755206 
L 157.380067 99.978357 
L 157.604517 98.840866 
L 157.828967 107.755149 
L 158.277866 100.828322 
L 158.502316 99.035971 
L 158.726766 94.929268 
L 158.951215 97.684259 
L 159.175665 105.786009 
L 159.400115 104.638812 
L 159.624564 99.667432 
L 159.849014 104.71969 
L 160.073464 97.804374 
L 160.297914 101.821165 
L 160.522363 99.808925 
L 160.746813 96.638736 
L 160.971263 99.833697 
L 161.195712 100.151969 
L 161.420162 99.953623 
L 161.644612 100.365593 
L 161.869061 104.211114 
L 162.093511 102.822474 
L 162.542411 98.180131 
L 162.76686 98.418536 
L 162.99131 110.527714 
L 163.21576 106.44178 
L 163.440209 115.837002 
L 163.664659 105.752076 
L 164.113558 99.816493 
L 164.338008 107.778664 
L 164.562458 103.328242 
L 164.786907 107.357871 
L 165.011357 104.762714 
L 165.235807 94.807032 
L 165.460257 99.500179 
L 165.684706 99.289063 
L 165.909156 94.558922 
L 166.133606 108.539896 
L 166.358055 101.336555 
L 166.582505 104.14934 
L 166.806955 101.53417 
L 167.031404 106.704099 
L 167.255854 98.437546 
L 167.480304 98.709918 
L 167.704754 109.590715 
L 167.929203 99.659776 
L 168.378103 106.548118 
L 168.602552 107.526969 
L 168.827002 103.854817 
L 169.051452 103.051406 
L 169.275901 100.793571 
L 169.500351 108.469982 
L 169.724801 96.206042 
L 170.1737 104.722766 
L 170.39815 103.17009 
L 170.6226 97.422718 
L 170.847049 115.87928 
L 171.071499 107.028833 
L 171.295949 114.430494 
L 171.520398 100.842008 
L 171.744848 98.240825 
L 171.969298 105.488745 
L 172.193747 99.191147 
L 172.418197 114.63525 
L 172.642647 106.343032 
L 172.867097 109.582007 
L 173.091546 104.212978 
L 173.315996 115.957567 
L 173.540446 102.73928 
L 173.989345 111.845893 
L 174.213795 99.867461 
L 174.438244 98.197065 
L 174.887144 109.366216 
L 175.111593 97.496323 
L 175.560493 106.220074 
L 175.784943 98.90683 
L 176.009392 103.433397 
L 176.233842 101.937087 
L 176.458292 103.353723 
L 176.682741 107.234069 
L 176.907191 113.075156 
L 177.35609 103.626815 
L 177.58054 101.278971 
L 178.02944 105.91984 
L 178.253889 110.334962 
L 178.478339 108.313041 
L 178.702789 124.472727 
L 178.927238 107.236854 
L 179.151688 116.88246 
L 179.600587 99.66283 
L 179.825037 100.605494 
L 180.273936 108.456297 
L 180.498386 108.278954 
L 180.722836 109.25303 
L 180.947286 101.553543 
L 181.396185 104.132135 
L 181.620635 106.386071 
L 181.845084 103.763829 
L 182.069534 97.795634 
L 182.293984 104.758962 
L 182.518433 100.757691 
L 182.742883 102.54808 
L 182.967333 105.36881 
L 183.191783 110.402937 
L 183.416232 110.017253 
L 183.640682 98.096739 
L 183.865132 101.138032 
L 184.089581 105.815563 
L 184.314031 106.847631 
L 184.538481 104.396216 
L 184.76293 114.421682 
L 184.98738 98.866405 
L 185.43628 110.138935 
L 185.660729 112.204116 
L 186.109629 102.296279 
L 186.334078 104.306201 
L 186.558528 103.065146 
L 186.782978 108.454123 
L 187.231877 102.105166 
L 187.456327 103.663664 
L 187.680776 107.204694 
L 187.905226 106.763721 
L 188.129676 101.193553 
L 188.354126 102.054458 
L 188.578575 102.006312 
L 188.803025 103.258791 
L 189.027475 105.175943 
L 189.251924 105.808954 
L 189.476374 100.409089 
L 189.925273 115.823798 
L 190.374173 100.494433 
L 190.598623 109.987155 
L 190.823072 104.841731 
L 191.047522 105.857625 
L 191.271972 115.453278 
L 191.496421 101.585496 
L 191.720871 105.428632 
L 191.945321 116.594891 
L 192.39422 101.038415 
L 192.61867 105.255343 
L 192.843119 112.802283 
L 193.067569 100.629361 
L 193.292019 106.684588 
L 193.516469 107.021995 
L 193.740918 105.990911 
L 193.965368 111.630657 
L 194.189818 105.275723 
L 194.414267 104.001465 
L 194.638717 114.093742 
L 194.863167 108.071898 
L 195.087616 105.847784 
L 195.312066 106.325409 
L 195.536516 108.311972 
L 195.985415 106.634245 
L 195.985415 106.634245 
" clip-path="url(#p398dba1d7f)" style="fill: none; stroke: #1e90ff; stroke-width: 0.8; stroke-linecap: square"/>
   </g>
   <g id="line2d_10">
    <path d="M 61.764497 72.683237 
L 62.213396 67.424081 
L 62.437846 70.425321 
L 62.886745 66.847479 
L 63.111195 67.307839 
L 63.335645 65.538489 
L 63.560095 75.200166 
L 63.784544 63.351213 
L 64.008994 70.14229 
L 64.233444 65.718159 
L 64.457893 82.52805 
L 64.682343 69.825125 
L 64.906793 64.992602 
L 65.131242 73.569303 
L 65.355692 64.817482 
L 65.580142 70.774594 
L 65.804591 71.560263 
L 66.029041 71.459363 
L 66.253491 74.794981 
L 66.477941 67.684052 
L 66.70239 75.436763 
L 66.92684 68.727271 
L 67.15129 76.757348 
L 67.375739 70.095699 
L 67.600189 68.599137 
L 67.824639 68.852965 
L 68.049088 69.366742 
L 68.273538 68.694114 
L 68.497988 67.261635 
L 68.722438 67.152379 
L 68.946887 76.42998 
L 69.620236 67.115918 
L 69.844686 72.84039 
L 70.069136 70.312844 
L 70.293585 76.990026 
L 70.518035 68.266007 
L 70.742485 69.906466 
L 70.966935 66.741379 
L 71.191384 69.280444 
L 71.415834 66.894974 
L 71.640284 56.850813 
L 71.864733 68.174678 
L 72.089183 72.326424 
L 72.313633 72.129756 
L 72.538082 73.920336 
L 72.762532 69.491064 
L 72.986982 67.776063 
L 73.211431 80.378658 
L 73.435881 70.873462 
L 73.660331 77.748235 
L 73.884781 64.709055 
L 74.10923 70.142177 
L 74.55813 68.497063 
L 74.782579 71.919851 
L 75.007029 69.77443 
L 75.231479 89.512591 
L 75.455928 70.500968 
L 75.680378 81.950744 
L 75.904828 81.67043 
L 76.129278 68.957572 
L 76.353727 69.261152 
L 76.578177 75.611713 
L 76.802627 65.894891 
L 77.027076 75.470203 
L 77.251526 68.25685 
L 77.475976 82.558663 
L 77.700425 78.143173 
L 77.924875 69.253803 
L 78.373774 65.425669 
L 78.598224 66.801395 
L 78.822674 73.91395 
L 79.047124 73.587333 
L 79.271573 69.602784 
L 79.496023 69.794233 
L 79.720473 79.689538 
L 79.944922 68.015844 
L 80.169372 71.462078 
L 80.393822 66.082531 
L 80.618271 71.336213 
L 80.842721 80.504401 
L 81.067171 65.927301 
L 81.291621 66.228592 
L 81.51607 68.543656 
L 81.74052 65.443821 
L 81.96497 73.390595 
L 82.189419 68.107345 
L 82.413869 66.732194 
L 82.638319 62.454572 
L 82.862768 69.103006 
L 83.087218 62.87109 
L 83.311668 74.236776 
L 83.536117 73.714327 
L 83.760567 84.875738 
L 84.209467 67.216306 
L 84.433916 70.202454 
L 84.658366 67.091265 
L 84.882816 77.879832 
L 85.107265 76.093254 
L 85.331715 69.76945 
L 85.556165 67.033704 
L 85.780614 74.257961 
L 86.005064 66.815411 
L 86.229514 71.163301 
L 86.678413 65.737097 
L 86.902863 65.720142 
L 87.127313 66.003495 
L 87.351762 69.732059 
L 87.576212 64.058934 
L 87.800662 74.059104 
L 88.025111 68.981698 
L 88.249561 66.672906 
L 88.474011 61.469767 
L 88.69846 71.437774 
L 88.92291 86.438972 
L 89.14736 72.810477 
L 89.37181 68.168405 
L 89.596259 81.294381 
L 89.820709 66.101127 
L 90.045159 73.275764 
L 90.269608 85.952131 
L 90.718508 60.99376 
L 90.942957 67.164228 
L 91.167407 67.602974 
L 91.391857 75.526979 
L 91.616307 64.41719 
L 91.840756 67.810052 
L 92.065206 64.883284 
L 92.289656 66.074507 
L 92.514105 65.033058 
L 92.738555 66.767591 
L 92.963005 70.087962 
L 93.187454 65.269886 
L 93.411904 71.634212 
L 93.636354 66.278063 
L 93.860804 68.554746 
L 94.309703 78.232271 
L 94.534153 66.463425 
L 94.758602 68.564402 
L 94.983052 67.850734 
L 95.431951 84.195254 
L 95.656401 71.504251 
L 95.880851 74.370072 
L 96.1053 60.890088 
L 96.32975 67.887581 
L 96.5542 61.078486 
L 96.77865 64.302253 
L 97.003099 65.849444 
L 97.227549 71.433094 
L 97.451999 64.42716 
L 97.676448 66.558398 
L 97.900898 64.048797 
L 98.125348 64.554888 
L 98.349797 73.328788 
L 98.798697 63.404945 
L 99.023147 70.051301 
L 99.247596 67.278818 
L 99.472046 79.936981 
L 99.696496 67.934342 
L 99.920945 67.057818 
L 100.145395 71.877587 
L 100.369845 71.172889 
L 100.594294 66.282472 
L 100.818744 64.58957 
L 101.043194 65.189141 
L 101.267643 67.904742 
L 101.716543 79.867719 
L 101.940993 65.045292 
L 102.165442 73.594613 
L 102.389892 62.783836 
L 102.614342 72.844013 
L 102.838791 64.835142 
L 103.063241 69.414133 
L 103.287691 80.838576 
L 103.73659 66.88248 
L 103.96104 78.337134 
L 104.18549 64.490474 
L 104.409939 67.640923 
L 104.858839 66.612751 
L 105.083288 66.879276 
L 105.307738 62.573903 
L 105.532188 77.397748 
L 105.756637 67.702589 
L 105.981087 69.722386 
L 106.205537 63.75436 
L 106.429986 64.016023 
L 106.654436 66.801677 
L 106.878886 64.018982 
L 107.103336 68.733217 
L 107.327785 68.652649 
L 107.552235 65.663613 
L 107.776685 85.412439 
L 108.001134 65.270295 
L 108.225584 64.87481 
L 108.450034 72.252866 
L 108.674483 65.482486 
L 108.898933 67.687178 
L 109.123383 73.88427 
L 109.347833 71.191796 
L 109.572282 72.828541 
L 109.796732 70.358698 
L 110.245631 68.949178 
L 110.470081 65.924095 
L 110.694531 67.899225 
L 111.14343 65.692496 
L 111.36788 69.007053 
L 111.592329 69.235649 
L 111.816779 71.185879 
L 112.041229 68.577936 
L 112.265679 70.447169 
L 112.490128 67.910338 
L 112.714578 63.764665 
L 112.939028 65.29216 
L 113.163477 73.145639 
L 113.387927 69.778732 
L 113.612377 69.646019 
L 113.836826 63.777573 
L 114.061276 65.726219 
L 114.285726 65.648866 
L 114.510176 65.072979 
L 114.734625 66.119763 
L 114.959075 70.61029 
L 115.183525 67.468626 
L 115.407974 69.586598 
L 115.632424 67.97744 
L 115.856874 68.448318 
L 116.081323 65.0571 
L 116.305773 63.444053 
L 116.530223 68.168452 
L 117.203572 61.346129 
L 117.652471 60.77322 
L 118.101371 61.221993 
L 118.32582 64.501944 
L 118.55027 65.755054 
L 118.77472 68.015856 
L 118.999169 63.728932 
L 119.223619 65.338579 
L 119.448069 68.428395 
L 119.672519 68.346147 
L 119.896968 70.7507 
L 120.121418 67.57154 
L 120.345868 71.47521 
L 120.570317 66.61772 
L 120.794767 65.980723 
L 121.243666 66.788549 
L 121.468116 64.581878 
L 121.692566 70.3328 
L 121.917016 70.835434 
L 122.141465 73.788064 
L 122.365915 66.880483 
L 122.590365 64.683142 
L 123.039264 72.988015 
L 123.263714 70.017279 
L 123.488163 72.266431 
L 123.712613 70.929999 
L 123.937063 70.508884 
L 124.161512 67.267264 
L 124.610412 69.909105 
L 124.834862 67.650384 
L 125.059311 70.474577 
L 125.283761 71.004446 
L 125.73266 74.32954 
L 125.95711 73.077794 
L 126.18156 75.837588 
L 126.406009 70.294891 
L 126.630459 67.502594 
L 126.854909 74.664086 
L 127.079359 67.07776 
L 127.303808 67.657999 
L 127.528258 96.539403 
L 127.752708 68.314748 
L 127.977157 71.436602 
L 128.201607 72.059577 
L 128.426057 66.742164 
L 128.650506 69.753867 
L 128.874956 66.627782 
L 129.099406 66.841106 
L 129.323855 72.77536 
L 129.548305 70.419572 
L 129.772755 80.636256 
L 129.997205 65.394657 
L 130.221654 69.890089 
L 130.446104 70.451593 
L 130.670554 70.155295 
L 130.895003 70.886162 
L 131.119453 67.980869 
L 131.343903 81.054209 
L 131.568352 70.761023 
L 132.017252 84.074256 
L 132.241702 72.347032 
L 132.466151 68.620065 
L 132.690601 75.883833 
L 132.915051 66.623989 
L 133.1395 76.618357 
L 133.36395 68.85708 
L 133.5884 86.412945 
L 134.037299 71.452524 
L 134.261749 68.621463 
L 134.486198 68.593884 
L 134.710648 70.699892 
L 134.935098 75.435117 
L 135.159548 77.231739 
L 135.383997 71.401943 
L 135.608447 71.973217 
L 135.832897 83.474078 
L 136.057346 71.402384 
L 136.281796 74.975021 
L 136.506246 68.189557 
L 136.730695 71.69223 
L 136.955145 78.27204 
L 137.179595 69.649855 
L 137.404045 69.187884 
L 137.628494 71.590068 
L 137.852944 69.275896 
L 138.077394 77.305496 
L 138.301843 71.487983 
L 138.526293 70.204309 
L 138.750743 66.369533 
L 138.975192 72.510895 
L 139.199642 66.259106 
L 139.424092 80.39521 
L 139.648542 76.672447 
L 139.872991 88.386834 
L 140.321891 72.933704 
L 140.54634 74.967991 
L 140.77079 71.630589 
L 140.99524 86.462455 
L 141.219689 77.057587 
L 141.668589 72.182394 
L 141.893038 79.923369 
L 142.117488 71.629016 
L 142.341938 76.772253 
L 142.790837 71.290801 
L 143.015287 71.791078 
L 143.239737 71.34543 
L 143.464186 75.462359 
L 143.688636 70.665868 
L 143.913086 82.342994 
L 144.137535 73.983624 
L 144.361985 73.920703 
L 144.586435 67.859962 
L 144.810885 77.308949 
L 145.035334 102.102521 
L 145.259784 78.263814 
L 145.484234 73.856398 
L 145.708683 86.500017 
L 145.933133 73.899826 
L 146.157583 79.742689 
L 146.382032 95.668783 
L 146.830932 68.999412 
L 147.055381 75.255272 
L 147.279831 75.818454 
L 147.504281 81.092852 
L 147.728731 71.641974 
L 147.95318 77.001507 
L 148.17763 72.958841 
L 148.40208 73.61003 
L 148.626529 73.820974 
L 148.850979 75.237332 
L 149.075429 78.045752 
L 149.299878 74.465325 
L 149.524328 81.160893 
L 149.748778 75.505343 
L 149.973228 77.318469 
L 150.422127 85.627191 
L 150.646577 74.584601 
L 150.871026 78.014631 
L 151.095476 76.791852 
L 151.544375 88.868553 
L 151.768825 81.788994 
L 151.993275 86.074439 
L 152.217724 70.759316 
L 152.442174 77.867342 
L 152.666624 70.56779 
L 153.339973 81.359922 
L 153.564423 74.219427 
L 153.788872 76.379636 
L 154.013322 74.236131 
L 154.237772 74.485412 
L 154.462221 83.722935 
L 154.686671 77.186148 
L 154.911121 74.190011 
L 155.135571 81.067034 
L 155.36002 76.419067 
L 155.58447 91.628434 
L 155.80892 77.809132 
L 156.033369 76.296938 
L 156.257819 82.889052 
L 156.482269 81.46362 
L 156.706718 76.684282 
L 156.931168 75.183864 
L 157.155618 75.244994 
L 157.380067 78.496443 
L 157.828967 90.013556 
L 158.053417 75.796685 
L 158.277866 86.368581 
L 158.502316 73.866923 
L 158.726766 82.562804 
L 158.951215 75.322246 
L 159.175665 79.198005 
L 159.400115 88.603172 
L 159.624564 85.787658 
L 159.849014 76.898224 
L 160.073464 86.664254 
L 160.297914 74.648549 
L 160.522363 78.543837 
L 160.746813 77.549829 
L 160.971263 78.016105 
L 161.195712 77.554691 
L 161.420162 72.330083 
L 161.644612 88.176765 
L 161.869061 77.446399 
L 162.093511 81.383874 
L 162.317961 73.76905 
L 162.542411 74.306841 
L 162.76686 77.878568 
L 162.99131 74.625898 
L 163.21576 78.340493 
L 163.440209 79.342344 
L 163.664659 76.343547 
L 163.889109 92.519315 
L 164.113558 75.11267 
L 164.338008 74.747493 
L 164.562458 82.072402 
L 164.786907 75.799715 
L 165.460257 84.072109 
L 165.684706 84.802191 
L 165.909156 80.148827 
L 166.133606 78.639917 
L 166.358055 77.988506 
L 166.582505 76.413987 
L 166.806955 78.110906 
L 167.031404 77.668875 
L 167.255854 75.497421 
L 167.480304 80.10981 
L 167.704754 80.014868 
L 167.929203 82.859813 
L 168.153653 79.216091 
L 168.378103 80.647514 
L 168.602552 78.102886 
L 168.827002 73.789192 
L 169.051452 74.42958 
L 169.275901 83.517406 
L 169.500351 80.065478 
L 169.724801 79.319633 
L 169.94925 74.713803 
L 170.1737 77.4537 
L 170.39815 77.947692 
L 170.6226 74.404693 
L 170.847049 78.257418 
L 171.071499 84.846263 
L 171.295949 80.105825 
L 171.520398 83.646146 
L 171.744848 81.420852 
L 172.193747 74.159572 
L 172.418197 74.754552 
L 172.642647 77.359028 
L 172.867097 75.346065 
L 173.091546 74.832937 
L 173.315996 73.372236 
L 173.764895 73.15184 
L 174.213795 73.202531 
L 174.438244 74.629094 
L 174.662694 75.035384 
L 174.887144 76.76174 
L 175.111593 74.069527 
L 175.336043 74.087492 
L 175.560493 76.353112 
L 175.784943 79.91747 
L 176.009392 85.806454 
L 176.233842 78.939414 
L 176.458292 82.826066 
L 176.682741 77.195199 
L 176.907191 74.410578 
L 177.131641 76.913841 
L 177.35609 77.191114 
L 177.58054 74.07907 
L 177.80499 77.745601 
L 178.02944 78.821265 
L 178.253889 81.357216 
L 178.478339 74.219687 
L 178.702789 72.89453 
L 179.151688 80.925026 
L 179.376138 77.961939 
L 179.600587 80.707599 
L 179.825037 79.893821 
L 180.049487 78.124084 
L 180.273936 75.177814 
L 180.722836 77.860438 
L 180.947286 75.015108 
L 181.396185 78.513562 
L 181.620635 78.88166 
L 181.845084 82.315204 
L 182.069534 81.735116 
L 182.293984 83.998401 
L 182.518433 77.399006 
L 182.742883 74.610364 
L 182.967333 80.967966 
L 183.191783 73.5513 
L 183.416232 74.040161 
L 183.640682 96.319139 
L 183.865132 74.912052 
L 184.089581 78.596694 
L 184.314031 77.773788 
L 184.538481 73.14646 
L 184.76293 75.965967 
L 184.98738 73.277448 
L 185.21183 72.883357 
L 185.43628 79.151353 
L 185.660729 76.91453 
L 185.885179 87.180351 
L 186.109629 71.573615 
L 186.334078 75.959727 
L 186.558528 76.503685 
L 186.782978 76.180424 
L 187.007427 77.181196 
L 187.231877 73.728138 
L 187.456327 87.223687 
L 187.680776 76.593708 
L 188.129676 90.647901 
L 188.354126 78.600531 
L 188.578575 74.366252 
L 188.803025 82.25653 
L 189.027475 72.472156 
L 189.251924 82.762251 
L 189.476374 74.364415 
L 189.700824 89.791715 
L 190.374173 74.428089 
L 190.598623 74.090616 
L 190.823072 76.686767 
L 191.047522 81.178311 
L 191.271972 83.003032 
L 191.496421 76.599838 
L 191.720871 77.300921 
L 191.945321 87.917952 
L 192.16977 76.890304 
L 192.39422 79.392991 
L 192.61867 73.81926 
L 192.843119 77.170239 
L 193.067569 82.967601 
L 193.292019 74.892301 
L 193.516469 74.553969 
L 193.740918 77.004607 
L 193.965368 74.633853 
L 194.189818 82.666974 
L 194.414267 76.350723 
L 194.638717 75.135734 
L 194.863167 71.609546 
L 195.087616 77.763425 
L 195.312066 71.625805 
L 195.536516 85.238759 
L 195.760966 82.340349 
L 195.985415 94.935735 
L 195.985415 94.935735 
" clip-path="url(#p398dba1d7f)" style="fill: none; stroke: #ff0000; stroke-width: 0.8; stroke-linecap: square"/>
   </g>
   <g id="patch_3">
    <path d="M 59.52 129.12 
L 59.52 26.88 
" style="fill: none; stroke: #000000; stroke-width: 0.8; stroke-linejoin: miter; stroke-linecap: square"/>
   </g>
   <g id="patch_4">
    <path d="M 198.454362 129.12 
L 198.454362 26.88 
" style="fill: none; stroke: #000000; stroke-width: 0.8; stroke-linejoin: miter; stroke-linecap: square"/>
   </g>
   <g id="patch_5">
    <path d="M 59.52 129.12 
L 198.454362 129.12 
" style="fill: none; stroke: #000000; stroke-width: 0.8; stroke-linejoin: miter; stroke-linecap: square"/>
   </g>
   <g id="patch_6">
    <path d="M 59.52 26.88 
L 198.454362 26.88 
" style="fill: none; stroke: #000000; stroke-width: 0.8; stroke-linejoin: miter; stroke-linecap: square"/>
   </g>
   <g id="text_10">
    <!-- Frequency Domain Plot -->
    <g transform="translate(59.587806 20.88) scale(0.12 -0.12)">
     <defs>
      <path id="DejaVuSans-44" d="M 1259 4147 
L 1259 519 
L 2022 519 
Q 2988 519 3436 956 
Q 3884 1394 3884 2338 
Q 3884 3275 3436 3711 
Q 2988 4147 2022 4147 
L 1259 4147 
z
M 628 4666 
L 1925 4666 
Q 3281 4666 3915 4102 
Q 4550 3538 4550 2338 
Q 4550 1131 3912 565 
Q 3275 0 1925 0 
L 628 0 
L 628 4666 
z
" transform="scale(0.015625)"/>
      <path id="DejaVuSans-6d" d="M 3328 2828 
Q 3544 3216 3844 3400 
Q 4144 3584 4550 3584 
Q 5097 3584 5394 3201 
Q 5691 2819 5691 2113 
L 5691 0 
L 5113 0 
L 5113 2094 
Q 5113 2597 4934 2840 
Q 4756 3084 4391 3084 
Q 3944 3084 3684 2787 
Q 3425 2491 3425 1978 
L 3425 0 
L 2847 0 
L 2847 2094 
Q 2847 2600 2669 2842 
Q 2491 3084 2119 3084 
Q 1678 3084 1418 2786 
Q 1159 2488 1159 1978 
L 1159 0 
L 581 0 
L 581 3500 
L 1159 3500 
L 1159 2956 
Q 1356 3278 1631 3431 
Q 1906 3584 2284 3584 
Q 2666 3584 2933 3390 
Q 3200 3197 3328 2828 
z
" transform="scale(0.015625)"/>
      <path id="DejaVuSans-61" d="M 2194 1759 
Q 1497 1759 1228 1600 
Q 959 1441 959 1056 
Q 959 750 1161 570 
Q 1363 391 1709 391 
Q 2188 391 2477 730 
Q 2766 1069 2766 1631 
L 2766 1759 
L 2194 1759 
z
M 3341 1997 
L 3341 0 
L 2766 0 
L 2766 531 
Q 2569 213 2275 61 
Q 1981 -91 1556 -91 
Q 1019 -91 701 211 
Q 384 513 384 1019 
Q 384 1609 779 1909 
Q 1175 2209 1959 2209 
L 2766 2209 
L 2766 2266 
Q 2766 2663 2505 2880 
Q 2244 3097 1772 3097 
Q 1472 3097 1187 3025 
Q 903 2953 641 2809 
L 641 3341 
Q 956 3463 1253 3523 
Q 1550 3584 1831 3584 
Q 2591 3584 2966 3190 
Q 3341 2797 3341 1997 
z
" transform="scale(0.015625)"/>
      <path id="DejaVuSans-69" d="M 603 3500 
L 1178 3500 
L 1178 0 
L 603 0 
L 603 3500 
z
M 603 4863 
L 1178 4863 
L 1178 4134 
L 603 4134 
L 603 4863 
z
" transform="scale(0.015625)"/>
      <path id="DejaVuSans-50" d="M 1259 4147 
L 1259 2394 
L 2053 2394 
Q 2494 2394 2734 2622 
Q 2975 2850 2975 3272 
Q 2975 3691 2734 3919 
Q 2494 4147 2053 4147 
L 1259 4147 
z
M 628 4666 
L 2053 4666 
Q 2838 4666 3239 4311 
Q 3641 3956 3641 3272 
Q 3641 2581 3239 2228 
Q 2838 1875 2053 1875 
L 1259 1875 
L 1259 0 
L 628 0 
L 628 4666 
z
" transform="scale(0.015625)"/>
      <path id="DejaVuSans-6c" d="M 603 4863 
L 1178 4863 
L 1178 0 
L 603 0 
L 603 4863 
z
" transform="scale(0.015625)"/>
      <path id="DejaVuSans-74" d="M 1172 4494 
L 1172 3500 
L 2356 3500 
L 2356 3053 
L 1172 3053 
L 1172 1153 
Q 1172 725 1289 603 
Q 1406 481 1766 481 
L 2356 481 
L 2356 0 
L 1766 0 
Q 1100 0 847 248 
Q 594 497 594 1153 
L 594 3053 
L 172 3053 
L 172 3500 
L 594 3500 
L 594 4494 
L 1172 4494 
z
" transform="scale(0.015625)"/>
     </defs>
     <use xlink:href="#DejaVuSans-46"/>
     <use xlink:href="#DejaVuSans-72" x="50.269531"/>
     <use xlink:href="#DejaVuSans-65" x="89.132812"/>
     <use xlink:href="#DejaVuSans-71" x="150.65625"/>
     <use xlink:href="#DejaVuSans-75" x="214.132812"/>
     <use xlink:href="#DejaVuSans-65" x="277.511719"/>
     <use xlink:href="#DejaVuSans-6e" x="339.035156"/>
     <use xlink:href="#DejaVuSans-63" x="402.414062"/>
     <use xlink:href="#DejaVuSans-79" x="457.394531"/>
     <use xlink:href="#DejaVuSans-20" x="516.574219"/>
     <use xlink:href="#DejaVuSans-44" x="548.361328"/>
     <use xlink:href="#DejaVuSans-6f" x="625.363281"/>
     <use xlink:href="#DejaVuSans-6d" x="686.544922"/>
     <use xlink:href="#DejaVuSans-61" x="783.957031"/>
     <use xlink:href="#DejaVuSans-69" x="845.236328"/>
     <use xlink:href="#DejaVuSans-6e" x="873.019531"/>
     <use xlink:href="#DejaVuSans-20" x="936.398438"/>
     <use xlink:href="#DejaVuSans-50" x="968.185547"/>
     <use xlink:href="#DejaVuSans-6c" x="1028.488281"/>
     <use xlink:href="#DejaVuSans-6f" x="1056.271484"/>
     <use xlink:href="#DejaVuSans-74" x="1117.453125"/>
    </g>
   </g>
   <g id="legend_1">
    <g id="patch_7">
     <path d="M 19.939691 158.292 
L 50.807816 158.292 
Q 51.407816 158.292 51.407816 157.692 
L 51.407816 144.781688 
Q 51.407816 144.181688 50.807816 144.181688 
L 19.939691 144.181688 
Q 19.339691 144.181688 19.339691 144.781688 
L 19.339691 157.692 
Q 19.339691 158.292 19.939691 158.292 
z
" style="fill: #ffffff; opacity: 0.8; stroke: #cccccc; stroke-linejoin: miter"/>
    </g>
    <g id="line2d_11">
     <path d="M 20.539691 146.611219 
L 23.539691 146.611219 
L 26.539691 146.611219 
" style="fill: none; stroke: #808080; stroke-width: 0.8; stroke-linecap: square"/>
    </g>
    <g id="text_11">
     <!-- Contaminated -->
     <g transform="translate(28.939691 147.661219) scale(0.03 -0.03)">
      <defs>
       <path id="DejaVuSans-43" d="M 4122 4306 
L 4122 3641 
Q 3803 3938 3442 4084 
Q 3081 4231 2675 4231 
Q 1875 4231 1450 3742 
Q 1025 3253 1025 2328 
Q 1025 1406 1450 917 
Q 1875 428 2675 428 
Q 3081 428 3442 575 
Q 3803 722 4122 1019 
L 4122 359 
Q 3791 134 3420 21 
Q 3050 -91 2638 -91 
Q 1578 -91 968 557 
Q 359 1206 359 2328 
Q 359 3453 968 4101 
Q 1578 4750 2638 4750 
Q 3056 4750 3426 4639 
Q 3797 4528 4122 4306 
z
" transform="scale(0.015625)"/>
      </defs>
      <use xlink:href="#DejaVuSans-43"/>
      <use xlink:href="#DejaVuSans-6f" x="69.824219"/>
      <use xlink:href="#DejaVuSans-6e" x="131.005859"/>
      <use xlink:href="#DejaVuSans-74" x="194.384766"/>
      <use xlink:href="#DejaVuSans-61" x="233.59375"/>
      <use xlink:href="#DejaVuSans-6d" x="294.873047"/>
      <use xlink:href="#DejaVuSans-69" x="392.285156"/>
      <use xlink:href="#DejaVuSans-6e" x="420.068359"/>
      <use xlink:href="#DejaVuSans-61" x="483.447266"/>
      <use xlink:href="#DejaVuSans-74" x="544.726562"/>
      <use xlink:href="#DejaVuSans-65" x="583.935547"/>
      <use xlink:href="#DejaVuSans-64" x="645.458984"/>
     </g>
    </g>
    <g id="line2d_12">
     <path d="M 20.539691 151.014656 
L 23.539691 151.014656 
L 26.539691 151.014656 
" style="fill: none; stroke: #1e90ff; stroke-width: 0.8; stroke-linecap: square"/>
    </g>
    <g id="text_12">
     <!-- Clean -->
     <g transform="translate(28.939691 152.064656) scale(0.03 -0.03)">
      <use xlink:href="#DejaVuSans-43"/>
      <use xlink:href="#DejaVuSans-6c" x="69.824219"/>
      <use xlink:href="#DejaVuSans-65" x="97.607422"/>
      <use xlink:href="#DejaVuSans-61" x="159.130859"/>
      <use xlink:href="#DejaVuSans-6e" x="220.410156"/>
     </g>
    </g>
    <g id="line2d_13">
     <path d="M 20.539691 155.418094 
L 23.539691 155.418094 
L 26.539691 155.418094 
" style="fill: none; stroke: #ff0000; stroke-width: 0.8; stroke-linecap: square"/>
    </g>
    <g id="text_13">
     <!-- SACed -->
     <g transform="translate(28.939691 156.468094) scale(0.03 -0.03)">
      <defs>
       <path id="DejaVuSans-53" d="M 3425 4513 
L 3425 3897 
Q 3066 4069 2747 4153 
Q 2428 4238 2131 4238 
Q 1616 4238 1336 4038 
Q 1056 3838 1056 3469 
Q 1056 3159 1242 3001 
Q 1428 2844 1947 2747 
L 2328 2669 
Q 3034 2534 3370 2195 
Q 3706 1856 3706 1288 
Q 3706 609 3251 259 
Q 2797 -91 1919 -91 
Q 1588 -91 1214 -16 
Q 841 59 441 206 
L 441 856 
Q 825 641 1194 531 
Q 1563 422 1919 422 
Q 2459 422 2753 634 
Q 3047 847 3047 1241 
Q 3047 1584 2836 1778 
Q 2625 1972 2144 2069 
L 1759 2144 
Q 1053 2284 737 2584 
Q 422 2884 422 3419 
Q 422 4038 858 4394 
Q 1294 4750 2059 4750 
Q 2388 4750 2728 4690 
Q 3069 4631 3425 4513 
z
" transform="scale(0.015625)"/>
       <path id="DejaVuSans-41" d="M 2188 4044 
L 1331 1722 
L 3047 1722 
L 2188 4044 
z
M 1831 4666 
L 2547 4666 
L 4325 0 
L 3669 0 
L 3244 1197 
L 1141 1197 
L 716 0 
L 50 0 
L 1831 4666 
z
" transform="scale(0.015625)"/>
      </defs>
      <use xlink:href="#DejaVuSans-53"/>
      <use xlink:href="#DejaVuSans-41" x="65.351562"/>
      <use xlink:href="#DejaVuSans-43" x="132.009766"/>
      <use xlink:href="#DejaVuSans-65" x="201.833984"/>
      <use xlink:href="#DejaVuSans-64" x="263.357422"/>
     </g>
    </g>
   </g>
  </g>
 </g>
 <defs>
  <clipPath id="p398dba1d7f">
   <rect x="59.52" y="26.88" width="138.934362" height="102.24"/>
  </clipPath>
 </defs>
</svg>
