<?xml version="1.0" encoding="utf-8" standalone="no"?>
<!DOCTYPE svg PUBLIC "-//W3C//DTD SVG 1.1//EN"
  "http://www.w3.org/Graphics/SVG/1.1/DTD/svg11.dtd">
<svg xmlns:xlink="http://www.w3.org/1999/xlink" width="216pt" height="180pt" viewBox="0 0 216 180" xmlns="http://www.w3.org/2000/svg" version="1.1">
 <metadata>
  <rdf:RDF xmlns:dc="http://purl.org/dc/elements/1.1/" xmlns:cc="http://creativecommons.org/ns#" xmlns:rdf="http://www.w3.org/1999/02/22-rdf-syntax-ns#">
   <cc:Work>
    <dc:type rdf:resource="http://purl.org/dc/dcmitype/StillImage"/>
    <dc:date>2024-08-25T18:14:57.122572</dc:date>
    <dc:format>image/svg+xml</dc:format>
    <dc:creator>
     <cc:Agent>
      <dc:title>Matplotlib v3.9.1, https://matplotlib.org/</dc:title>
     </cc:Agent>
    </dc:creator>
   </cc:Work>
  </rdf:RDF>
 </metadata>
 <defs>
  <style type="text/css">*{stroke-linejoin: round; stroke-linecap: butt}</style>
 </defs>
 <g id="figure_1">
  <g id="patch_1">
   <path d="M 0 180 
L 216 180 
L 216 0 
L 0 0 
z
" style="fill: #ffffff"/>
  </g>
  <g id="axes_1">
   <g id="patch_2">
    <path d="M 59.52 129.12 
L 197.469952 129.12 
L 197.469952 26.88 
L 59.52 26.88 
z
" style="fill: #ffffff"/>
   </g>
   <g id="matplotlib.axis_1">
    <g id="xtick_1">
     <g id="line2d_1">
      <defs>
       <path id="m038c866c4d" d="M 0 0 
L 0 3.5 
" style="stroke: #000000; stroke-width: 0.8"/>
      </defs>
      <g>
       <use xlink:href="#m038c866c4d" x="62.106562" y="129.12" style="stroke: #000000; stroke-width: 0.8"/>
      </g>
     </g>
     <g id="text_1">
      <!-- 1.00 -->
      <g transform="translate(50.973749 143.718437) scale(0.1 -0.1)">
       <defs>
        <path id="DejaVuSans-31" d="M 794 531 
L 1825 531 
L 1825 4091 
L 703 3866 
L 703 4441 
L 1819 4666 
L 2450 4666 
L 2450 531 
L 3481 531 
L 3481 0 
L 794 0 
L 794 531 
z
" transform="scale(0.015625)"/>
        <path id="DejaVuSans-2e" d="M 684 794 
L 1344 794 
L 1344 0 
L 684 0 
L 684 794 
z
" transform="scale(0.015625)"/>
        <path id="DejaVuSans-30" d="M 2034 4250 
Q 1547 4250 1301 3770 
Q 1056 3291 1056 2328 
Q 1056 1369 1301 889 
Q 1547 409 2034 409 
Q 2525 409 2770 889 
Q 3016 1369 3016 2328 
Q 3016 3291 2770 3770 
Q 2525 4250 2034 4250 
z
M 2034 4750 
Q 2819 4750 3233 4129 
Q 3647 3509 3647 2328 
Q 3647 1150 3233 529 
Q 2819 -91 2034 -91 
Q 1250 -91 836 529 
Q 422 1150 422 2328 
Q 422 3509 836 4129 
Q 1250 4750 2034 4750 
z
" transform="scale(0.015625)"/>
       </defs>
       <use xlink:href="#DejaVuSans-31"/>
       <use xlink:href="#DejaVuSans-2e" x="63.623047"/>
       <use xlink:href="#DejaVuSans-30" x="95.410156"/>
       <use xlink:href="#DejaVuSans-30" x="159.033203"/>
      </g>
     </g>
    </g>
    <g id="xtick_2">
     <g id="line2d_2">
      <g>
       <use xlink:href="#m038c866c4d" x="128.412073" y="129.12" style="stroke: #000000; stroke-width: 0.8"/>
      </g>
     </g>
     <g id="text_2">
      <!-- 1.25 -->
      <g transform="translate(117.279261 143.718437) scale(0.1 -0.1)">
       <defs>
        <path id="DejaVuSans-32" d="M 1228 531 
L 3431 531 
L 3431 0 
L 469 0 
L 469 531 
Q 828 903 1448 1529 
Q 2069 2156 2228 2338 
Q 2531 2678 2651 2914 
Q 2772 3150 2772 3378 
Q 2772 3750 2511 3984 
Q 2250 4219 1831 4219 
Q 1534 4219 1204 4116 
Q 875 4013 500 3803 
L 500 4441 
Q 881 4594 1212 4672 
Q 1544 4750 1819 4750 
Q 2544 4750 2975 4387 
Q 3406 4025 3406 3419 
Q 3406 3131 3298 2873 
Q 3191 2616 2906 2266 
Q 2828 2175 2409 1742 
Q 1991 1309 1228 531 
z
" transform="scale(0.015625)"/>
        <path id="DejaVuSans-35" d="M 691 4666 
L 3169 4666 
L 3169 4134 
L 1269 4134 
L 1269 2991 
Q 1406 3038 1543 3061 
Q 1681 3084 1819 3084 
Q 2600 3084 3056 2656 
Q 3513 2228 3513 1497 
Q 3513 744 3044 326 
Q 2575 -91 1722 -91 
Q 1428 -91 1123 -41 
Q 819 9 494 109 
L 494 744 
Q 775 591 1075 516 
Q 1375 441 1709 441 
Q 2250 441 2565 725 
Q 2881 1009 2881 1497 
Q 2881 1984 2565 2268 
Q 2250 2553 1709 2553 
Q 1456 2553 1204 2497 
Q 953 2441 691 2322 
L 691 4666 
z
" transform="scale(0.015625)"/>
       </defs>
       <use xlink:href="#DejaVuSans-31"/>
       <use xlink:href="#DejaVuSans-2e" x="63.623047"/>
       <use xlink:href="#DejaVuSans-32" x="95.410156"/>
       <use xlink:href="#DejaVuSans-35" x="159.033203"/>
      </g>
     </g>
    </g>
    <g id="xtick_3">
     <g id="line2d_3">
      <g>
       <use xlink:href="#m038c866c4d" x="194.717585" y="129.12" style="stroke: #000000; stroke-width: 0.8"/>
      </g>
     </g>
     <g id="text_3">
      <!-- 1.50 -->
      <g transform="translate(183.584773 143.718437) scale(0.1 -0.1)">
       <use xlink:href="#DejaVuSans-31"/>
       <use xlink:href="#DejaVuSans-2e" x="63.623047"/>
       <use xlink:href="#DejaVuSans-35" x="95.410156"/>
       <use xlink:href="#DejaVuSans-30" x="159.033203"/>
      </g>
     </g>
    </g>
    <g id="text_4">
     <!-- Time (s) -->
     <g transform="translate(108.16607 157.396563) scale(0.1 -0.1)">
      <defs>
       <path id="DejaVuSans-54" d="M -19 4666 
L 3928 4666 
L 3928 4134 
L 2272 4134 
L 2272 0 
L 1638 0 
L 1638 4134 
L -19 4134 
L -19 4666 
z
" transform="scale(0.015625)"/>
       <path id="DejaVuSans-69" d="M 603 3500 
L 1178 3500 
L 1178 0 
L 603 0 
L 603 3500 
z
M 603 4863 
L 1178 4863 
L 1178 4134 
L 603 4134 
L 603 4863 
z
" transform="scale(0.015625)"/>
       <path id="DejaVuSans-6d" d="M 3328 2828 
Q 3544 3216 3844 3400 
Q 4144 3584 4550 3584 
Q 5097 3584 5394 3201 
Q 5691 2819 5691 2113 
L 5691 0 
L 5113 0 
L 5113 2094 
Q 5113 2597 4934 2840 
Q 4756 3084 4391 3084 
Q 3944 3084 3684 2787 
Q 3425 2491 3425 1978 
L 3425 0 
L 2847 0 
L 2847 2094 
Q 2847 2600 2669 2842 
Q 2491 3084 2119 3084 
Q 1678 3084 1418 2786 
Q 1159 2488 1159 1978 
L 1159 0 
L 581 0 
L 581 3500 
L 1159 3500 
L 1159 2956 
Q 1356 3278 1631 3431 
Q 1906 3584 2284 3584 
Q 2666 3584 2933 3390 
Q 3200 3197 3328 2828 
z
" transform="scale(0.015625)"/>
       <path id="DejaVuSans-65" d="M 3597 1894 
L 3597 1613 
L 953 1613 
Q 991 1019 1311 708 
Q 1631 397 2203 397 
Q 2534 397 2845 478 
Q 3156 559 3463 722 
L 3463 178 
Q 3153 47 2828 -22 
Q 2503 -91 2169 -91 
Q 1331 -91 842 396 
Q 353 884 353 1716 
Q 353 2575 817 3079 
Q 1281 3584 2069 3584 
Q 2775 3584 3186 3129 
Q 3597 2675 3597 1894 
z
M 3022 2063 
Q 3016 2534 2758 2815 
Q 2500 3097 2075 3097 
Q 1594 3097 1305 2825 
Q 1016 2553 972 2059 
L 3022 2063 
z
" transform="scale(0.015625)"/>
       <path id="DejaVuSans-20" transform="scale(0.015625)"/>
       <path id="DejaVuSans-28" d="M 1984 4856 
Q 1566 4138 1362 3434 
Q 1159 2731 1159 2009 
Q 1159 1288 1364 580 
Q 1569 -128 1984 -844 
L 1484 -844 
Q 1016 -109 783 600 
Q 550 1309 550 2009 
Q 550 2706 781 3412 
Q 1013 4119 1484 4856 
L 1984 4856 
z
" transform="scale(0.015625)"/>
       <path id="DejaVuSans-73" d="M 2834 3397 
L 2834 2853 
Q 2591 2978 2328 3040 
Q 2066 3103 1784 3103 
Q 1356 3103 1142 2972 
Q 928 2841 928 2578 
Q 928 2378 1081 2264 
Q 1234 2150 1697 2047 
L 1894 2003 
Q 2506 1872 2764 1633 
Q 3022 1394 3022 966 
Q 3022 478 2636 193 
Q 2250 -91 1575 -91 
Q 1294 -91 989 -36 
Q 684 19 347 128 
L 347 722 
Q 666 556 975 473 
Q 1284 391 1588 391 
Q 1994 391 2212 530 
Q 2431 669 2431 922 
Q 2431 1156 2273 1281 
Q 2116 1406 1581 1522 
L 1381 1569 
Q 847 1681 609 1914 
Q 372 2147 372 2553 
Q 372 3047 722 3315 
Q 1072 3584 1716 3584 
Q 2034 3584 2315 3537 
Q 2597 3491 2834 3397 
z
" transform="scale(0.015625)"/>
       <path id="DejaVuSans-29" d="M 513 4856 
L 1013 4856 
Q 1481 4119 1714 3412 
Q 1947 2706 1947 2009 
Q 1947 1309 1714 600 
Q 1481 -109 1013 -844 
L 513 -844 
Q 928 -128 1133 580 
Q 1338 1288 1338 2009 
Q 1338 2731 1133 3434 
Q 928 4138 513 4856 
z
" transform="scale(0.015625)"/>
      </defs>
      <use xlink:href="#DejaVuSans-54"/>
      <use xlink:href="#DejaVuSans-69" x="57.958984"/>
      <use xlink:href="#DejaVuSans-6d" x="85.742188"/>
      <use xlink:href="#DejaVuSans-65" x="183.154297"/>
      <use xlink:href="#DejaVuSans-20" x="244.677734"/>
      <use xlink:href="#DejaVuSans-28" x="276.464844"/>
      <use xlink:href="#DejaVuSans-73" x="315.478516"/>
      <use xlink:href="#DejaVuSans-29" x="367.578125"/>
     </g>
    </g>
   </g>
   <g id="matplotlib.axis_2">
    <g id="ytick_1">
     <g id="line2d_4">
      <defs>
       <path id="m3de857564d" d="M 0 0 
L -3.5 0 
" style="stroke: #000000; stroke-width: 0.8"/>
      </defs>
      <g>
       <use xlink:href="#m3de857564d" x="59.52" y="126.126213" style="stroke: #000000; stroke-width: 0.8"/>
      </g>
     </g>
     <g id="text_5">
      <!-- −30 -->
      <g transform="translate(31.415312 129.925432) scale(0.1 -0.1)">
       <defs>
        <path id="DejaVuSans-2212" d="M 678 2272 
L 4684 2272 
L 4684 1741 
L 678 1741 
L 678 2272 
z
" transform="scale(0.015625)"/>
        <path id="DejaVuSans-33" d="M 2597 2516 
Q 3050 2419 3304 2112 
Q 3559 1806 3559 1356 
Q 3559 666 3084 287 
Q 2609 -91 1734 -91 
Q 1441 -91 1130 -33 
Q 819 25 488 141 
L 488 750 
Q 750 597 1062 519 
Q 1375 441 1716 441 
Q 2309 441 2620 675 
Q 2931 909 2931 1356 
Q 2931 1769 2642 2001 
Q 2353 2234 1838 2234 
L 1294 2234 
L 1294 2753 
L 1863 2753 
Q 2328 2753 2575 2939 
Q 2822 3125 2822 3475 
Q 2822 3834 2567 4026 
Q 2313 4219 1838 4219 
Q 1578 4219 1281 4162 
Q 984 4106 628 3988 
L 628 4550 
Q 988 4650 1302 4700 
Q 1616 4750 1894 4750 
Q 2613 4750 3031 4423 
Q 3450 4097 3450 3541 
Q 3450 3153 3228 2886 
Q 3006 2619 2597 2516 
z
" transform="scale(0.015625)"/>
       </defs>
       <use xlink:href="#DejaVuSans-2212"/>
       <use xlink:href="#DejaVuSans-33" x="83.789062"/>
       <use xlink:href="#DejaVuSans-30" x="147.412109"/>
      </g>
     </g>
    </g>
    <g id="ytick_2">
     <g id="line2d_5">
      <g>
       <use xlink:href="#m3de857564d" x="59.52" y="105.03063" style="stroke: #000000; stroke-width: 0.8"/>
      </g>
     </g>
     <g id="text_6">
      <!-- −20 -->
      <g transform="translate(31.415312 108.829848) scale(0.1 -0.1)">
       <use xlink:href="#DejaVuSans-2212"/>
       <use xlink:href="#DejaVuSans-32" x="83.789062"/>
       <use xlink:href="#DejaVuSans-30" x="147.412109"/>
      </g>
     </g>
    </g>
    <g id="ytick_3">
     <g id="line2d_6">
      <g>
       <use xlink:href="#m3de857564d" x="59.52" y="83.935046" style="stroke: #000000; stroke-width: 0.8"/>
      </g>
     </g>
     <g id="text_7">
      <!-- −10 -->
      <g transform="translate(31.415312 87.734265) scale(0.1 -0.1)">
       <use xlink:href="#DejaVuSans-2212"/>
       <use xlink:href="#DejaVuSans-31" x="83.789062"/>
       <use xlink:href="#DejaVuSans-30" x="147.412109"/>
      </g>
     </g>
    </g>
    <g id="ytick_4">
     <g id="line2d_7">
      <g>
       <use xlink:href="#m3de857564d" x="59.52" y="62.839462" style="stroke: #000000; stroke-width: 0.8"/>
      </g>
     </g>
     <g id="text_8">
      <!-- 0 -->
      <g transform="translate(46.1575 66.638681) scale(0.1 -0.1)">
       <use xlink:href="#DejaVuSans-30"/>
      </g>
     </g>
    </g>
    <g id="ytick_5">
     <g id="line2d_8">
      <g>
       <use xlink:href="#m3de857564d" x="59.52" y="41.743879" style="stroke: #000000; stroke-width: 0.8"/>
      </g>
     </g>
     <g id="text_9">
      <!-- 10 -->
      <g transform="translate(39.795 45.543098) scale(0.1 -0.1)">
       <use xlink:href="#DejaVuSans-31"/>
       <use xlink:href="#DejaVuSans-30" x="63.623047"/>
      </g>
     </g>
    </g>
    <g id="text_10">
     <!-- Amplitude (mV) -->
     <g transform="translate(25.335625 117.403906) rotate(-90) scale(0.1 -0.1)">
      <defs>
       <path id="DejaVuSans-41" d="M 2188 4044 
L 1331 1722 
L 3047 1722 
L 2188 4044 
z
M 1831 4666 
L 2547 4666 
L 4325 0 
L 3669 0 
L 3244 1197 
L 1141 1197 
L 716 0 
L 50 0 
L 1831 4666 
z
" transform="scale(0.015625)"/>
       <path id="DejaVuSans-70" d="M 1159 525 
L 1159 -1331 
L 581 -1331 
L 581 3500 
L 1159 3500 
L 1159 2969 
Q 1341 3281 1617 3432 
Q 1894 3584 2278 3584 
Q 2916 3584 3314 3078 
Q 3713 2572 3713 1747 
Q 3713 922 3314 415 
Q 2916 -91 2278 -91 
Q 1894 -91 1617 61 
Q 1341 213 1159 525 
z
M 3116 1747 
Q 3116 2381 2855 2742 
Q 2594 3103 2138 3103 
Q 1681 3103 1420 2742 
Q 1159 2381 1159 1747 
Q 1159 1113 1420 752 
Q 1681 391 2138 391 
Q 2594 391 2855 752 
Q 3116 1113 3116 1747 
z
" transform="scale(0.015625)"/>
       <path id="DejaVuSans-6c" d="M 603 4863 
L 1178 4863 
L 1178 0 
L 603 0 
L 603 4863 
z
" transform="scale(0.015625)"/>
       <path id="DejaVuSans-74" d="M 1172 4494 
L 1172 3500 
L 2356 3500 
L 2356 3053 
L 1172 3053 
L 1172 1153 
Q 1172 725 1289 603 
Q 1406 481 1766 481 
L 2356 481 
L 2356 0 
L 1766 0 
Q 1100 0 847 248 
Q 594 497 594 1153 
L 594 3053 
L 172 3053 
L 172 3500 
L 594 3500 
L 594 4494 
L 1172 4494 
z
" transform="scale(0.015625)"/>
       <path id="DejaVuSans-75" d="M 544 1381 
L 544 3500 
L 1119 3500 
L 1119 1403 
Q 1119 906 1312 657 
Q 1506 409 1894 409 
Q 2359 409 2629 706 
Q 2900 1003 2900 1516 
L 2900 3500 
L 3475 3500 
L 3475 0 
L 2900 0 
L 2900 538 
Q 2691 219 2414 64 
Q 2138 -91 1772 -91 
Q 1169 -91 856 284 
Q 544 659 544 1381 
z
M 1991 3584 
L 1991 3584 
z
" transform="scale(0.015625)"/>
       <path id="DejaVuSans-64" d="M 2906 2969 
L 2906 4863 
L 3481 4863 
L 3481 0 
L 2906 0 
L 2906 525 
Q 2725 213 2448 61 
Q 2172 -91 1784 -91 
Q 1150 -91 751 415 
Q 353 922 353 1747 
Q 353 2572 751 3078 
Q 1150 3584 1784 3584 
Q 2172 3584 2448 3432 
Q 2725 3281 2906 2969 
z
M 947 1747 
Q 947 1113 1208 752 
Q 1469 391 1925 391 
Q 2381 391 2643 752 
Q 2906 1113 2906 1747 
Q 2906 2381 2643 2742 
Q 2381 3103 1925 3103 
Q 1469 3103 1208 2742 
Q 947 2381 947 1747 
z
" transform="scale(0.015625)"/>
       <path id="DejaVuSans-56" d="M 1831 0 
L 50 4666 
L 709 4666 
L 2188 738 
L 3669 4666 
L 4325 4666 
L 2547 0 
L 1831 0 
z
" transform="scale(0.015625)"/>
      </defs>
      <use xlink:href="#DejaVuSans-41"/>
      <use xlink:href="#DejaVuSans-6d" x="68.408203"/>
      <use xlink:href="#DejaVuSans-70" x="165.820312"/>
      <use xlink:href="#DejaVuSans-6c" x="229.296875"/>
      <use xlink:href="#DejaVuSans-69" x="257.080078"/>
      <use xlink:href="#DejaVuSans-74" x="284.863281"/>
      <use xlink:href="#DejaVuSans-75" x="324.072266"/>
      <use xlink:href="#DejaVuSans-64" x="387.451172"/>
      <use xlink:href="#DejaVuSans-65" x="450.927734"/>
      <use xlink:href="#DejaVuSans-20" x="512.451172"/>
      <use xlink:href="#DejaVuSans-28" x="544.238281"/>
      <use xlink:href="#DejaVuSans-6d" x="583.251953"/>
      <use xlink:href="#DejaVuSans-56" x="680.664062"/>
      <use xlink:href="#DejaVuSans-29" x="749.072266"/>
     </g>
    </g>
   </g>
   <g id="line2d_9">
    <path d="M 62.172884 71.666424 
L 62.438172 45.204221 
L 62.570816 45.90575 
L 62.836105 51.736446 
L 63.234037 68.167383 
L 63.764614 90.373605 
L 64.029902 96.038155 
L 64.162546 97.076694 
L 64.560479 41.143993 
L 64.693123 41.925931 
L 64.958412 48.813125 
L 65.488988 76.119278 
L 66.019565 100.210925 
L 66.284853 103.758552 
L 66.682786 36.43713 
L 66.81543 37.584822 
L 67.080719 46.282885 
L 67.478651 70.739427 
L 68.009228 104.612503 
L 68.274516 113.327354 
L 68.40716 114.718465 
L 68.672449 53.323574 
L 68.805093 44.342507 
L 68.937737 45.313854 
L 69.203025 52.501559 
L 69.733602 79.953765 
L 70.264179 104.478852 
L 70.529467 108.330905 
L 70.9274 42.844919 
L 71.060044 44.027992 
L 71.325332 52.286269 
L 71.723265 75.746924 
L 72.386486 112.976009 
L 72.651774 117.471572 
L 72.917063 55.929825 
L 73.049707 45.948883 
L 73.182351 46.764214 
L 73.447639 54.115666 
L 73.845572 74.558926 
L 74.376149 103.556336 
L 74.641437 110.663692 
L 74.774081 111.288077 
L 75.03937 55.030493 
L 75.172014 46.39719 
L 75.304658 46.964669 
L 75.569946 52.953732 
L 75.967879 70.744046 
L 76.498456 95.327744 
L 76.763744 101.152724 
L 76.896388 101.811997 
L 77.161677 52.18855 
L 77.294321 43.008817 
L 77.426965 44.029616 
L 77.692253 50.859582 
L 78.090186 70.246894 
L 78.620763 96.99429 
L 78.886051 104.072052 
L 79.018695 105.012869 
L 79.416628 39.651604 
L 79.549272 40.890855 
L 79.81456 49.067569 
L 80.345137 80.898586 
L 80.875714 109.013701 
L 81.141002 113.635098 
L 81.40629 52.106599 
L 81.538935 41.278737 
L 81.671579 42.254718 
L 81.936867 50.86733 
L 82.467444 83.241942 
L 82.998021 111.581213 
L 83.263309 116.003647 
L 83.528597 54.037493 
L 83.661242 43.540265 
L 83.793886 44.490503 
L 84.059174 52.928982 
L 84.589751 84.183116 
L 85.120328 111.522311 
L 85.385616 115.832077 
L 85.650904 53.878163 
L 85.783549 42.734584 
L 85.916193 43.708337 
L 86.181481 51.929506 
L 86.579414 75.690974 
L 87.10999 108.573038 
L 87.375279 116.588758 
L 87.507923 117.253074 
L 87.773211 52.533586 
L 87.905855 41.185392 
L 88.0385 41.879208 
L 88.303788 49.83072 
L 88.834365 81.41052 
L 89.364942 108.426465 
L 89.63023 112.095294 
L 89.895518 49.032641 
L 90.028162 39.081195 
L 90.160807 39.763222 
L 90.426095 46.643375 
L 90.824028 67.213475 
L 91.354604 96.366353 
L 91.619893 103.625079 
L 91.752537 104.459848 
L 92.150469 31.527273 
L 92.283114 32.535058 
L 92.548402 41.513322 
L 93.078979 76.93845 
L 93.609555 107.912394 
L 93.874844 112.97156 
L 94.140132 45.075129 
L 94.272776 35.719549 
L 94.405421 36.706691 
L 94.670709 44.317953 
L 95.068641 65.615322 
L 95.599218 95.29361 
L 95.864507 102.942101 
L 95.997151 104.122593 
L 96.262439 48.52223 
L 96.395083 38.940473 
L 96.527727 40.134339 
L 96.793016 48.194439 
L 97.323593 78.096881 
L 97.854169 104.264602 
L 98.119458 107.834432 
L 98.51739 35.27528 
L 98.650034 36.543444 
L 98.915323 46.457119 
L 99.4459 83.111551 
L 99.976476 115.188062 
L 100.241765 119.595898 
L 100.507053 49.034939 
L 100.639697 37.145801 
L 100.772341 38.029034 
L 101.03763 46.703246 
L 101.435562 72.050798 
L 101.966139 107.310877 
L 102.231427 116.51833 
L 102.364072 117.739279 
L 102.62936 49.865253 
L 102.762004 38.393992 
L 102.894648 39.289916 
L 103.159937 47.789289 
L 103.690513 80.855559 
L 104.088446 104.392753 
L 104.353734 112.099662 
L 104.486379 113.155754 
L 104.751667 51.301058 
L 104.884311 42.797249 
L 105.016955 43.307055 
L 105.282244 48.830774 
L 105.680176 65.784126 
L 106.343397 94.129997 
L 106.608686 97.23747 
L 107.006618 31.991755 
L 107.139262 32.931947 
L 107.404551 41.918205 
L 107.802483 68.574168 
L 108.465704 112.054322 
L 108.730992 117.437591 
L 108.996281 47.223728 
L 109.128925 36.131027 
L 109.261569 37.587665 
L 109.526858 46.694727 
L 109.92479 71.470329 
L 110.455367 105.728365 
L 110.720655 114.489185 
L 110.853299 115.686683 
L 111.251232 35.675799 
L 111.383876 37.04993 
L 111.649165 46.975066 
L 112.047097 74.605332 
L 112.710318 119.329632 
L 112.975606 124.472727 
L 113.240895 55.626791 
L 113.373539 47.385793 
L 113.506183 48.244236 
L 113.771471 54.999279 
L 114.169404 73.183316 
L 114.699981 97.977922 
L 114.965269 103.875749 
L 115.097913 104.528005 
L 115.495846 38.320467 
L 115.62849 39.582159 
L 115.893778 48.652497 
L 116.424355 84.313426 
L 116.954932 115.532992 
L 117.22022 119.949569 
L 117.485509 53.779362 
L 117.618153 45.020795 
L 117.750797 45.506195 
L 118.016085 51.400311 
L 118.414018 68.816038 
L 119.077239 97.104122 
L 119.342527 100.018403 
L 119.74046 36.948459 
L 119.873104 38.184584 
L 120.138392 46.170369 
L 120.668969 77.927406 
L 121.199546 106.184773 
L 121.464834 110.57475 
L 121.730123 51.061241 
L 121.862767 43.149141 
L 121.995411 44.06368 
L 122.260699 50.446085 
L 122.658632 68.353127 
L 123.189209 93.214177 
L 123.454497 99.2117 
L 123.587141 99.973306 
L 123.985074 35.065781 
L 124.117718 36.110283 
L 124.383006 45.367358 
L 124.913583 81.983182 
L 125.44416 114.09119 
L 125.709448 119.067879 
L 125.974736 49.871453 
L 126.107381 38.348214 
L 126.240025 39.672637 
L 126.505313 49.004813 
L 127.03589 83.887324 
L 127.566467 114.894571 
L 127.831755 119.266557 
L 128.097043 51.777195 
L 128.229688 41.024812 
L 128.362332 42.082711 
L 128.62762 50.033899 
L 129.158197 81.390515 
L 129.688774 108.365523 
L 129.954062 112.411761 
L 130.21935 52.116333 
L 130.351995 42.427178 
L 130.484639 43.352236 
L 130.749927 50.323651 
L 131.14786 70.651601 
L 131.678436 99.087435 
L 131.943725 106.214764 
L 132.076369 106.809449 
L 132.341657 51.790717 
L 132.474301 43.950083 
L 132.606946 44.82391 
L 132.872234 51.052738 
L 133.402811 74.908154 
L 133.933388 95.81352 
L 134.198676 99.05022 
L 134.596608 37.59367 
L 134.729253 38.501931 
L 134.994541 46.953498 
L 135.525118 80.402802 
L 136.055694 109.582215 
L 136.320983 114.090004 
L 136.586271 50.590893 
L 136.718915 40.841156 
L 136.85156 42.051029 
L 137.116848 49.921476 
L 137.647425 79.404622 
L 138.178001 105.507641 
L 138.44329 109.617972 
L 138.841222 38.84934 
L 138.973867 39.929207 
L 139.239155 48.692133 
L 139.769732 82.630547 
L 140.300308 112.170534 
L 140.565597 116.168887 
L 140.830885 48.778421 
L 140.963529 36.473369 
L 141.096173 37.545789 
L 141.361462 46.560112 
L 141.759394 72.372478 
L 142.289971 108.091255 
L 142.55526 116.907477 
L 142.687904 117.980089 
L 142.953192 47.215715 
L 143.085836 34.629962 
L 143.21848 36.143002 
L 143.483769 46.045338 
L 144.014346 82.75944 
L 144.544922 115.389451 
L 144.810211 120.238979 
L 145.075499 47.15333 
L 145.208143 34.988661 
L 145.340787 35.920569 
L 145.606076 44.687161 
L 146.136653 80.868318 
L 146.667229 112.594877 
L 146.932518 117.077024 
L 147.197806 52.401032 
L 147.33045 44.776949 
L 147.463094 45.46175 
L 147.728383 51.087884 
L 148.258959 73.146738 
L 148.789536 92.962422 
L 149.054825 95.965668 
L 149.452757 39.557682 
L 149.585401 40.548662 
L 149.85069 48.076949 
L 150.248622 69.222501 
L 150.911843 103.887157 
L 151.177132 107.917229 
L 151.575064 39.195722 
L 151.707708 40.439411 
L 151.972997 49.472844 
L 152.503573 84.000642 
L 153.03415 114.460496 
L 153.299438 118.999632 
L 153.564727 56.441871 
L 153.697371 48.028805 
L 153.830015 49.013585 
L 154.095304 55.831315 
L 154.62588 81.966149 
L 155.156457 104.352241 
L 155.421745 107.327171 
L 155.819678 43.956624 
L 155.952322 44.697629 
L 156.217611 51.915219 
L 156.615543 73.308891 
L 157.14612 102.573551 
L 157.411408 110.130301 
L 157.544052 111.105539 
L 157.809341 53.961426 
L 157.941985 45.958211 
L 158.074629 46.68931 
L 158.339917 52.558386 
L 158.73785 69.418633 
L 159.268427 92.421209 
L 159.533715 98.620019 
L 159.666359 99.586585 
L 159.931648 52.330037 
L 160.064292 43.729726 
L 160.196936 44.501819 
L 160.462224 50.734832 
L 160.860157 68.734509 
L 161.390734 93.830521 
L 161.656022 99.886329 
L 161.788666 100.501563 
L 162.053955 50.956731 
L 162.186599 43.148011 
L 162.319243 43.783141 
L 162.584531 49.472297 
L 162.982464 66.340403 
L 163.645685 93.16293 
L 163.910973 96.248239 
L 164.308906 35.311279 
L 164.44155 36.751238 
L 164.706838 46.012387 
L 165.237415 80.303292 
L 165.767992 110.365965 
L 166.03328 114.990391 
L 166.298569 50.580717 
L 166.431213 41.903118 
L 166.563857 42.926997 
L 166.829145 49.901989 
L 167.359722 76.567396 
L 167.890299 100.332152 
L 168.155587 104.412711 
L 168.420876 52.900191 
L 168.55352 43.605068 
L 168.686164 44.689597 
L 168.951452 52.265474 
L 169.482029 80.206502 
L 170.012606 105.240912 
L 170.277894 108.884715 
L 170.675827 38.02276 
L 170.808471 39.316949 
L 171.073759 48.723896 
L 171.471692 75.06115 
L 172.002268 111.912484 
L 172.267557 121.062891 
L 172.400201 122.070364 
L 172.665489 50.831063 
L 172.798134 39.319563 
L 172.930778 40.356243 
L 173.196066 48.812373 
L 173.726643 81.085725 
L 174.25722 109.484956 
L 174.522508 113.386151 
L 174.787796 51.974241 
L 174.920441 44.264883 
L 175.053085 45.052215 
L 175.318373 51.077711 
L 175.84895 73.933346 
L 176.379527 94.239858 
L 176.644815 97.210336 
L 176.910103 50.865426 
L 177.042748 42.337947 
L 177.175392 43.115433 
L 177.44068 49.689294 
L 177.971257 75.33542 
L 178.501834 97.574487 
L 178.767122 101.033134 
L 179.165054 37.801817 
L 179.297699 38.966531 
L 179.562987 47.496511 
L 180.093564 79.813712 
L 180.62414 108.305842 
L 180.889429 112.574057 
L 181.154717 50.248105 
L 181.287361 39.986735 
L 181.420006 41.362455 
L 181.685294 49.885156 
L 182.215871 81.8132 
L 182.746447 109.324797 
L 183.011736 113.592838 
L 183.277024 54.088158 
L 183.409668 45.170471 
L 183.542313 46.208674 
L 183.807601 52.963566 
L 184.205533 71.5549 
L 184.73611 97.154046 
L 185.001399 103.283913 
L 185.134043 103.909499 
L 185.531975 35.145301 
L 185.664619 36.264248 
L 185.929908 45.496675 
L 186.460485 81.509866 
L 186.991061 112.854864 
L 187.25635 117.458789 
L 187.521638 46.899199 
L 187.654282 36.121911 
L 187.786926 37.058246 
L 188.052215 45.125393 
L 188.450147 68.411837 
L 189.113368 106.191863 
L 189.378657 110.346624 
L 189.643945 47.698123 
L 189.776589 37.379211 
L 189.909233 38.390716 
L 190.174522 46.536645 
L 190.705099 77.159292 
L 191.235675 104.545366 
L 191.500964 108.900242 
L 191.766252 48.575877 
L 191.898896 38.2679 
L 192.03154 39.496907 
L 192.296829 48.000738 
L 192.827405 79.448914 
L 193.357982 106.809021 
L 193.623271 110.815225 
L 193.888559 47.986024 
L 194.021203 36.929431 
L 194.153847 38.35872 
L 194.419136 47.692617 
L 194.684424 63.382919 
L 194.684424 63.382919 
" clip-path="url(#pf0956e4667)" style="fill: none; stroke: #808080; stroke-width: 0.7; stroke-linecap: square"/>
   </g>
   <g id="line2d_10">
    <path d="M 62.172884 62.498733 
L 62.570816 62.416292 
L 63.366681 62.186648 
L 63.897258 61.260226 
L 64.029902 61.192233 
L 64.295191 61.548612 
L 64.427835 61.720637 
L 65.091056 61.422246 
L 65.2237 61.407681 
L 65.488988 61.467197 
L 66.019565 61.569031 
L 66.284853 61.524269 
L 66.81543 61.061516 
L 67.213363 61.55216 
L 68.40716 64.077559 
L 68.539805 64.212496 
L 68.805093 64.702534 
L 69.070381 64.89385 
L 69.33567 65.150802 
L 69.468314 65.102187 
L 69.600958 65.176193 
L 70.264179 66.083562 
L 70.396823 66.136956 
L 70.9274 66.934853 
L 71.192688 67.069414 
L 71.590621 67.280054 
L 71.855909 67.449564 
L 72.253842 67.443218 
L 72.917063 68.032888 
L 73.182351 67.726008 
L 73.314995 67.800262 
L 73.978216 66.908154 
L 74.376149 66.784448 
L 74.906725 65.655889 
L 75.304658 64.738947 
L 75.835235 64.216986 
L 76.233167 64.520205 
L 76.365811 64.416009 
L 76.896388 63.471611 
L 77.029032 63.573037 
L 77.294321 63.462163 
L 77.559609 63.564692 
L 78.090186 63.168446 
L 78.355474 63.085079 
L 78.620763 62.71012 
L 79.283983 62.89221 
L 79.549272 63.387165 
L 79.947204 63.664841 
L 80.079849 63.913608 
L 80.212493 63.904582 
L 81.40629 65.226868 
L 81.671579 64.978254 
L 81.804223 65.097808 
L 82.202156 66.022471 
L 82.3348 66.050473 
L 82.600088 66.280291 
L 83.661242 67.133274 
L 83.793886 67.034201 
L 83.92653 67.143712 
L 84.191818 67.550337 
L 84.457107 67.538978 
L 84.855039 67.010623 
L 84.987683 66.906637 
L 85.650904 67.389542 
L 86.048837 66.973586 
L 86.314125 67.036787 
L 86.977346 67.56481 
L 87.242635 67.469725 
L 87.507923 66.77563 
L 88.0385 65.268196 
L 88.834365 63.907616 
L 89.232297 62.669408 
L 89.63023 61.643579 
L 90.293451 60.520006 
L 90.691383 59.689431 
L 90.956672 59.620031 
L 91.354604 59.543949 
L 91.885181 59.101819 
L 93.344267 56.999568 
L 93.609555 56.508979 
L 94.538065 57.081476 
L 96.129795 60.521238 
L 96.395083 60.958659 
L 97.456237 62.480761 
L 97.854169 62.742327 
L 98.252102 62.419182 
L 98.51739 62.480594 
L 98.650034 62.538788 
L 99.047967 63.364377 
L 99.4459 63.658207 
L 99.578544 63.835515 
L 99.711188 63.772407 
L 99.976476 63.883811 
L 101.170274 62.836224 
L 101.302918 62.809142 
L 101.833495 63.310156 
L 102.098783 63.479794 
L 102.496716 63.803353 
L 102.762004 63.460632 
L 103.027293 63.168254 
L 103.292581 63.131295 
L 103.557869 62.950171 
L 103.823158 62.920658 
L 104.088446 62.375718 
L 104.353734 61.548797 
L 104.751667 61.342514 
L 105.414888 59.653805 
L 105.945465 59.468061 
L 106.343397 59.806806 
L 106.74133 59.68537 
L 107.006618 59.510523 
L 107.404551 58.844415 
L 107.537195 58.828174 
L 108.33306 59.839419 
L 108.863637 60.887262 
L 110.455367 63.513956 
L 110.853299 63.778268 
L 112.179741 64.935938 
L 112.577674 65.577798 
L 112.975606 65.892306 
L 113.108251 65.838928 
L 113.771471 66.538485 
L 113.904116 66.461559 
L 114.434692 66.831892 
L 114.699981 66.531265 
L 115.363202 65.311629 
L 115.761134 65.243173 
L 116.026423 65.255586 
L 116.159067 65.325333 
L 116.424355 65.053624 
L 116.689644 65.026967 
L 116.822288 65.00574 
L 117.22022 64.433636 
L 117.485509 64.211539 
L 118.679306 61.763884 
L 119.077239 61.44539 
L 119.342527 61.044614 
L 119.607816 60.991284 
L 119.74046 61.01046 
L 119.873104 61.176416 
L 120.271037 60.941037 
L 120.668969 60.72171 
L 120.801613 60.567386 
L 121.066902 60.667476 
L 122.260699 61.806001 
L 122.525988 61.902191 
L 122.92392 62.153722 
L 123.056564 62.326867 
L 123.321853 62.096916 
L 123.587141 61.906125 
L 123.85243 61.83629 
L 124.250362 61.689574 
L 124.383006 61.793547 
L 125.576804 63.896313 
L 125.974736 64.349927 
L 126.505313 65.14635 
L 126.770602 65.176069 
L 127.03589 65.122062 
L 127.433822 65.52834 
L 128.097043 64.760845 
L 128.229688 64.558398 
L 129.290841 64.593339 
L 129.821418 63.943831 
L 129.954062 63.905873 
L 130.351995 64.119144 
L 130.617283 63.960603 
L 131.015215 63.245439 
L 131.14786 63.144494 
L 131.413148 63.130709 
L 131.678436 62.727073 
L 131.811081 62.707472 
L 132.341657 61.637272 
L 132.73959 61.971532 
L 132.872234 62.030313 
L 133.137522 62.322038 
L 133.535455 62.168233 
L 133.800743 62.303029 
L 134.066032 62.141434 
L 134.596608 62.586837 
L 134.861897 62.297526 
L 135.127185 62.428543 
L 135.392474 62.518451 
L 135.790406 62.506063 
L 136.055694 62.449669 
L 136.320983 62.575725 
L 136.586271 62.849413 
L 137.116848 63.588065 
L 137.249492 63.556804 
L 137.514781 63.36324 
L 137.780069 63.54549 
L 138.045357 63.590065 
L 138.310646 63.693749 
L 138.841222 64.122608 
L 138.973867 64.078434 
L 139.371799 64.277939 
L 139.504443 64.290112 
L 139.769732 64.558726 
L 140.03502 64.377358 
L 140.300308 64.509769 
L 140.830885 63.627518 
L 141.096173 63.263554 
L 141.361462 63.114843 
L 141.494106 62.954968 
L 141.892039 63.115745 
L 142.024683 63.196296 
L 142.820548 62.6474 
L 143.21848 63.046887 
L 143.483769 63.363585 
L 143.616413 63.347267 
L 143.881701 62.867864 
L 144.14699 62.557445 
L 144.412278 62.468787 
L 144.544922 62.292107 
L 144.677566 62.328785 
L 145.208143 61.783152 
L 145.606076 61.167884 
L 145.871364 61.369706 
L 146.269297 61.850338 
L 146.534585 61.987672 
L 146.667229 62.065362 
L 147.197806 61.887069 
L 147.33045 61.970918 
L 147.728383 61.663529 
L 148.656892 60.622654 
L 148.92218 60.418803 
L 149.452757 60.712744 
L 149.718045 60.775863 
L 150.646555 63.230035 
L 151.044487 64.184551 
L 151.575064 64.559241 
L 151.840352 64.903953 
L 152.768862 66.219497 
L 153.03415 66.629533 
L 153.299438 66.722007 
L 154.227948 67.740882 
L 154.62588 68.370902 
L 155.289101 68.477964 
L 155.55439 67.689431 
L 155.819678 66.943537 
L 157.411408 63.773534 
L 159.003138 63.12412 
L 159.268427 62.787826 
L 159.533715 62.967976 
L 159.666359 63.14827 
L 159.931648 62.99755 
L 160.064292 63.065186 
L 160.32958 62.823515 
L 161.92131 60.611431 
L 162.584531 60.095568 
L 162.84982 60.199936 
L 163.247752 60.529873 
L 163.910973 60.649562 
L 164.308906 61.399392 
L 164.706838 62.058632 
L 165.104771 61.829277 
L 165.502703 61.455489 
L 165.767992 61.168551 
L 166.165924 61.274957 
L 167.227078 62.392681 
L 167.757655 63.028391 
L 168.420876 64.479811 
L 168.686164 64.744818 
L 168.951452 65.17518 
L 169.084096 65.247768 
L 169.216741 65.456286 
L 169.349385 65.426005 
L 169.482029 65.198387 
L 169.747317 65.319422 
L 170.14525 65.629881 
L 170.941115 65.667959 
L 171.073759 65.710261 
L 171.471692 65.503669 
L 171.869624 65.660387 
L 172.134913 65.550378 
L 172.665489 64.663808 
L 172.930778 64.313746 
L 173.196066 64.234009 
L 173.726643 63.157378 
L 173.991931 62.600353 
L 174.124575 62.51592 
L 174.522508 61.708108 
L 174.655152 61.564707 
L 175.053085 61.70019 
L 175.185729 61.84691 
L 175.583661 61.577804 
L 175.84895 61.475008 
L 177.175392 61.207274 
L 177.573324 61.480964 
L 177.838613 61.574316 
L 177.971257 61.796579 
L 178.369189 61.704026 
L 178.634478 61.975954 
L 178.767122 62.007741 
L 179.03241 61.84649 
L 179.430343 62.182281 
L 179.828275 62.539889 
L 180.093564 62.559877 
L 180.226208 62.566294 
L 180.491496 62.907764 
L 180.756785 62.753423 
L 181.022073 63.028031 
L 182.083227 64.980705 
L 182.746447 64.770419 
L 182.879092 64.971957 
L 183.14438 64.92701 
L 183.674957 65.223711 
L 183.940245 64.932527 
L 184.205533 64.714159 
L 184.470822 64.486325 
L 184.868754 63.679187 
L 185.399331 62.868577 
L 185.797264 62.648051 
L 186.32784 62.06101 
L 186.858417 60.915049 
L 187.123706 60.493901 
L 188.052215 59.91427 
L 188.184859 59.832814 
L 188.715436 60.372197 
L 189.246012 60.77508 
L 189.378657 60.788962 
L 189.643945 60.47176 
L 190.43981 60.719722 
L 190.572454 60.575884 
L 190.705099 60.603634 
L 190.970387 60.860772 
L 191.235675 60.883174 
L 191.633608 61.372696 
L 192.03154 62.20998 
L 192.164185 62.306143 
L 192.429473 62.686271 
L 193.225338 62.165305 
L 193.490626 61.903825 
L 193.623271 61.821507 
L 193.888559 61.980085 
L 194.684424 63.691848 
L 194.684424 63.691848 
" clip-path="url(#pf0956e4667)" style="fill: none; stroke: #1e90ff; stroke-linecap: square"/>
   </g>
   <g id="line2d_11">
    <path d="M 62.172884 70.655233 
L 62.438172 78.790931 
L 62.570816 78.736597 
L 62.70346 78.115544 
L 62.968749 75.149773 
L 64.029902 60.098537 
L 64.162546 61.232793 
L 64.427835 73.540758 
L 64.693123 74.813185 
L 65.2237 72.315109 
L 65.886921 67.608148 
L 66.152209 67.067106 
L 66.284853 67.978597 
L 66.417498 72.279529 
L 66.682786 69.856083 
L 67.346007 72.638003 
L 68.274516 77.755915 
L 68.40716 78.361672 
L 68.539805 73.562737 
L 68.805093 77.789661 
L 68.937737 77.981282 
L 69.070381 77.974143 
L 69.33567 76.909638 
L 69.998891 72.54649 
L 70.264179 71.669256 
L 70.396823 71.547525 
L 70.529467 72.372852 
L 70.662112 77.492662 
L 70.9274 76.205723 
L 71.192688 77.002449 
L 72.386486 80.118871 
L 72.651774 81.158562 
L 72.784418 78.165095 
L 73.182351 79.428507 
L 73.314995 79.551484 
L 73.845572 77.320729 
L 74.243504 75.736969 
L 74.641437 75.118476 
L 74.774081 75.109052 
L 74.906725 74.031143 
L 75.172014 79.752357 
L 75.304658 79.681157 
L 75.569946 77.970684 
L 76.233167 70.23439 
L 76.763744 65.430986 
L 76.896388 66.113903 
L 77.161677 75.222507 
L 77.426965 76.871456 
L 77.692253 75.951781 
L 78.753407 68.50958 
L 78.886051 68.237729 
L 79.018695 69.113565 
L 79.151339 73.096964 
L 79.416628 73.265597 
L 79.681916 73.952718 
L 80.875714 76.042505 
L 81.141002 77.045753 
L 81.40629 75.417475 
L 81.538935 75.159412 
L 81.671579 75.204498 
L 83.263309 78.976507 
L 83.528597 77.513952 
L 83.92653 77.775606 
L 84.191818 78.27737 
L 84.457107 78.424504 
L 84.722395 78.176202 
L 84.987683 78.185526 
L 85.385616 78.556697 
L 85.51826 78.605517 
L 85.783549 76.904151 
L 86.048837 76.911475 
L 86.314125 77.488681 
L 87.242635 80.410341 
L 87.375279 80.347163 
L 87.507923 79.672376 
L 87.905855 75.479018 
L 88.0385 75.102032 
L 88.303788 75.052784 
L 88.569076 75.323263 
L 88.967009 75.5415 
L 89.497586 74.927741 
L 89.63023 74.325265 
L 89.762874 71.613378 
L 90.028162 73.426329 
L 90.293451 72.594321 
L 91.22196 68.395423 
L 91.619893 67.052548 
L 91.752537 66.940589 
L 91.885181 71.623739 
L 92.150469 65.952416 
L 92.283114 65.945231 
L 92.415758 66.236811 
L 92.681046 67.700742 
L 93.7422 75.125393 
L 93.874844 74.729549 
L 94.007488 66.979879 
L 94.272776 70.294424 
L 94.803353 69.217767 
L 95.599218 66.808825 
L 95.864507 66.279389 
L 95.997151 66.407226 
L 96.262439 72.666956 
L 96.527727 73.663617 
L 96.660372 73.521789 
L 96.793016 73.565442 
L 97.323593 72.222194 
L 97.721525 70.998701 
L 97.854169 70.849207 
L 97.986814 70.16509 
L 98.119458 70.203633 
L 98.252102 74.706848 
L 98.51739 69.933441 
L 98.650034 70.136125 
L 98.782679 70.725568 
L 99.4459 77.185671 
L 99.843832 80.875542 
L 100.10912 81.865509 
L 100.241765 81.214409 
L 100.507053 73.231686 
L 100.772341 71.53242 
L 101.03763 72.035595 
L 101.568206 76.030745 
L 101.966139 78.780312 
L 102.231427 79.794249 
L 102.364072 79.187367 
L 102.62936 73.955612 
L 102.894648 72.767064 
L 103.159937 73.093372 
L 103.955802 75.65978 
L 104.088446 75.901825 
L 104.486379 74.697464 
L 104.619023 70.026681 
L 104.884311 77.469992 
L 105.149599 75.610953 
L 105.547532 70.581358 
L 106.210753 61.539273 
L 106.476041 59.501514 
L 106.608686 59.842867 
L 106.74133 71.893769 
L 107.006618 66.565818 
L 107.271906 66.599096 
L 107.537195 68.31961 
L 108.465704 78.512136 
L 108.598348 79.206261 
L 108.730992 79.137857 
L 108.996281 71.430289 
L 109.128925 70.904548 
L 109.261569 71.002457 
L 109.659502 72.652063 
L 110.720655 77.757712 
L 110.853299 77.413808 
L 110.985944 77.593997 
L 111.251232 70.354228 
L 111.383876 70.426566 
L 111.649165 72.232595 
L 112.179741 79.283982 
L 112.577674 84.810448 
L 112.842962 86.702126 
L 112.975606 85.822279 
L 113.108251 75.264822 
L 113.373539 81.897454 
L 113.638827 81.134665 
L 113.904116 78.952439 
L 114.965269 67.207614 
L 115.097913 67.257887 
L 115.230558 77.989547 
L 115.495846 72.552309 
L 115.893778 73.918442 
L 116.424355 78.412059 
L 116.822288 81.754936 
L 117.087576 82.547677 
L 117.22022 82.165268 
L 117.352864 73.473644 
L 117.618153 79.249579 
L 117.883441 77.820898 
L 118.414018 71.578768 
L 118.944595 64.817311 
L 119.209883 62.938432 
L 119.342527 63.245889 
L 119.475171 71.859999 
L 119.74046 70.977074 
L 119.873104 71.339497 
L 120.005748 71.239345 
L 120.403681 71.662702 
L 120.934257 72.358455 
L 121.464834 73.48326 
L 121.597478 69.444117 
L 121.862767 77.190775 
L 121.995411 77.115329 
L 122.260699 75.557173 
L 123.056564 66.386683 
L 123.454497 62.842725 
L 123.587141 63.549433 
L 123.719785 73.68272 
L 123.985074 69.063492 
L 124.250362 69.570644 
L 124.648295 73.078842 
L 125.576804 81.600455 
L 125.709448 81.729312 
L 125.974736 73.569333 
L 126.107381 72.533292 
L 126.240025 72.620926 
L 126.770602 75.825743 
L 127.566467 81.733994 
L 127.699111 82.281333 
L 127.831755 81.636454 
L 128.097043 75.273103 
L 128.362332 74.955181 
L 128.892909 75.245181 
L 129.290841 75.702124 
L 129.688774 75.291614 
L 129.821418 75.414136 
L 129.954062 75.133088 
L 130.086706 74.401956 
L 130.351995 76.341113 
L 130.484639 76.213262 
L 130.617283 75.922683 
L 131.678436 71.003456 
L 132.076369 69.956625 
L 132.209013 69.878418 
L 132.474301 77.726649 
L 132.606946 77.700599 
L 132.872234 76.002889 
L 133.270167 71.077519 
L 133.800743 64.044912 
L 134.066032 61.999614 
L 134.198676 62.912283 
L 134.33132 73.356346 
L 134.596608 71.379097 
L 134.729253 71.438659 
L 134.861897 71.354916 
L 135.392474 73.833432 
L 135.92305 76.280909 
L 136.188339 76.956768 
L 136.320983 77.127191 
L 136.453627 72.792974 
L 136.718915 74.855504 
L 137.116848 74.745532 
L 137.382136 74.04906 
L 138.045357 72.823385 
L 138.310646 72.512088 
L 138.44329 72.642818 
L 138.575934 75.466996 
L 138.841222 72.882783 
L 138.973867 72.750559 
L 139.106511 72.977258 
L 139.504443 74.951817 
L 140.167664 78.788925 
L 140.300308 79.369833 
L 140.432953 79.343414 
L 140.565597 78.726452 
L 141.096173 70.270179 
L 141.361462 71.334769 
L 141.62675 73.580819 
L 142.289971 80.183836 
L 142.55526 81.046818 
L 142.687904 80.172585 
L 143.085836 68.674099 
L 143.21848 68.732815 
L 143.483769 70.738372 
L 144.677566 83.441773 
L 144.810211 82.251357 
L 145.075499 70.634729 
L 145.340787 68.315167 
L 145.606076 69.258006 
L 146.799873 80.672602 
L 146.932518 79.409265 
L 147.065162 70.733838 
L 147.33045 78.169588 
L 147.595739 76.943393 
L 147.993671 71.90128 
L 148.656892 61.795352 
L 148.92218 59.634472 
L 149.054825 60.029499 
L 149.320113 72.17957 
L 149.585401 72.822625 
L 149.718045 72.466176 
L 149.85069 72.631319 
L 149.983334 72.241137 
L 150.115978 72.216643 
L 150.248622 71.774534 
L 150.381266 71.841681 
L 150.513911 71.527381 
L 150.646555 71.6528 
L 150.779199 71.467827 
L 150.911843 71.740926 
L 151.044487 71.580172 
L 151.177132 72.31162 
L 151.309776 76.185459 
L 151.575064 72.062217 
L 151.840352 73.10537 
L 152.238285 75.873095 
L 153.03415 82.262293 
L 153.166794 82.98399 
L 153.299438 83.057154 
L 153.432083 76.070327 
L 153.697371 80.732973 
L 153.830015 80.825167 
L 153.962659 80.750058 
L 154.360592 78.445986 
L 155.289101 72.018094 
L 155.421745 72.310904 
L 155.55439 78.310712 
L 155.819678 76.349288 
L 155.952322 76.476635 
L 156.350255 75.983955 
L 156.615543 75.903378 
L 157.278764 75.24854 
L 157.544052 76.001001 
L 157.676697 72.033084 
L 157.941985 78.250701 
L 158.074629 78.270032 
L 158.339917 76.671926 
L 158.73785 72.012593 
L 159.401071 64.445744 
L 159.533715 64.16667 
L 159.666359 65.251374 
L 159.931648 74.433559 
L 160.196936 76.111342 
L 160.462224 74.863143 
L 161.656022 65.519642 
L 161.788666 66.249426 
L 161.92131 67.915939 
L 162.186599 75.290626 
L 162.319243 75.373422 
L 162.584531 73.590327 
L 163.778329 60.961683 
L 163.910973 62.253008 
L 164.043617 72.193945 
L 164.308906 67.599759 
L 164.839483 71.066179 
L 165.900636 79.549187 
L 166.03328 79.697767 
L 166.165924 70.435732 
L 166.431213 74.452362 
L 166.696501 74.480988 
L 167.227078 71.764468 
L 167.757655 68.804015 
L 167.890299 68.61124 
L 168.022943 68.754359 
L 168.155587 69.405065 
L 168.420876 75.475224 
L 168.686164 76.383542 
L 168.951452 76.361974 
L 169.482029 74.595338 
L 169.747317 73.79875 
L 169.879962 73.444608 
L 170.012606 73.589216 
L 170.14525 73.321493 
L 170.277894 73.755976 
L 170.410538 78.221939 
L 170.675827 70.700332 
L 170.941115 71.630185 
L 171.339048 75.752372 
L 172.134913 85.784371 
L 172.267557 86.58967 
L 172.400201 85.90825 
L 172.665489 73.359192 
L 172.930778 71.950673 
L 173.991931 76.613831 
L 174.124575 77.522552 
L 174.25722 77.550811 
L 174.389864 78.060972 
L 174.522508 77.16955 
L 174.655152 70.246308 
L 174.920441 76.963604 
L 175.185729 76.262091 
L 175.583661 71.895538 
L 176.379527 62.493052 
L 176.512171 61.808746 
L 176.644815 62.075226 
L 176.910103 73.586108 
L 177.042748 74.885579 
L 177.175392 74.967146 
L 177.573324 72.814891 
L 177.971257 69.711712 
L 178.369189 66.213741 
L 178.634478 65.285972 
L 178.767122 66.065255 
L 178.899766 72.549698 
L 179.165054 70.544301 
L 179.562987 71.604167 
L 180.093564 74.14142 
L 180.62414 76.47179 
L 180.889429 76.837197 
L 181.154717 73.12553 
L 181.287361 72.991844 
L 181.420006 73.153795 
L 181.950582 75.116092 
L 182.348515 76.630739 
L 182.481159 76.79654 
L 182.879092 77.824179 
L 183.011736 77.498753 
L 183.14438 74.076577 
L 183.409668 78.234587 
L 183.674957 77.735942 
L 184.072889 75.110898 
L 185.001399 68.202102 
L 185.134043 68.154389 
L 185.266687 75.483951 
L 185.531975 68.255407 
L 185.664619 68.251775 
L 185.797264 68.61586 
L 186.062552 70.846311 
L 186.858417 80.14145 
L 187.123706 81.419687 
L 187.25635 80.659265 
L 187.521638 70.058897 
L 187.786926 68.902294 
L 188.052215 69.133659 
L 188.450147 71.016701 
L 189.113368 74.220499 
L 189.246012 74.309755 
L 189.378657 73.627508 
L 189.643945 70.929844 
L 189.909233 70.294651 
L 190.705099 71.517276 
L 191.103031 72.471727 
L 191.368319 72.691238 
L 191.500964 72.419416 
L 191.633608 72.752097 
L 191.898896 71.344945 
L 192.164185 71.539723 
L 192.96005 74.239876 
L 193.357982 74.959193 
L 193.490626 74.845116 
L 193.755915 74.174905 
L 194.021203 69.948383 
L 194.153847 70.167732 
L 194.419136 71.686109 
L 194.684424 73.886529 
L 194.684424 73.886529 
" clip-path="url(#pf0956e4667)" style="fill: none; stroke: #ff0000; stroke-width: 0.8; stroke-linecap: square"/>
   </g>
   <g id="patch_3">
    <path d="M 59.52 129.12 
L 59.52 26.88 
" style="fill: none; stroke: #000000; stroke-width: 0.8; stroke-linejoin: miter; stroke-linecap: square"/>
   </g>
   <g id="patch_4">
    <path d="M 197.469952 129.12 
L 197.469952 26.88 
" style="fill: none; stroke: #000000; stroke-width: 0.8; stroke-linejoin: miter; stroke-linecap: square"/>
   </g>
   <g id="patch_5">
    <path d="M 59.52 129.12 
L 197.469952 129.12 
" style="fill: none; stroke: #000000; stroke-width: 0.8; stroke-linejoin: miter; stroke-linecap: square"/>
   </g>
   <g id="patch_6">
    <path d="M 59.52 26.88 
L 197.469952 26.88 
" style="fill: none; stroke: #000000; stroke-width: 0.8; stroke-linejoin: miter; stroke-linecap: square"/>
   </g>
   <g id="text_11">
    <!-- Time Domain Plot -->
    <g transform="translate(75.410913 20.88) scale(0.12 -0.12)">
     <defs>
      <path id="DejaVuSans-44" d="M 1259 4147 
L 1259 519 
L 2022 519 
Q 2988 519 3436 956 
Q 3884 1394 3884 2338 
Q 3884 3275 3436 3711 
Q 2988 4147 2022 4147 
L 1259 4147 
z
M 628 4666 
L 1925 4666 
Q 3281 4666 3915 4102 
Q 4550 3538 4550 2338 
Q 4550 1131 3912 565 
Q 3275 0 1925 0 
L 628 0 
L 628 4666 
z
" transform="scale(0.015625)"/>
      <path id="DejaVuSans-6f" d="M 1959 3097 
Q 1497 3097 1228 2736 
Q 959 2375 959 1747 
Q 959 1119 1226 758 
Q 1494 397 1959 397 
Q 2419 397 2687 759 
Q 2956 1122 2956 1747 
Q 2956 2369 2687 2733 
Q 2419 3097 1959 3097 
z
M 1959 3584 
Q 2709 3584 3137 3096 
Q 3566 2609 3566 1747 
Q 3566 888 3137 398 
Q 2709 -91 1959 -91 
Q 1206 -91 779 398 
Q 353 888 353 1747 
Q 353 2609 779 3096 
Q 1206 3584 1959 3584 
z
" transform="scale(0.015625)"/>
      <path id="DejaVuSans-61" d="M 2194 1759 
Q 1497 1759 1228 1600 
Q 959 1441 959 1056 
Q 959 750 1161 570 
Q 1363 391 1709 391 
Q 2188 391 2477 730 
Q 2766 1069 2766 1631 
L 2766 1759 
L 2194 1759 
z
M 3341 1997 
L 3341 0 
L 2766 0 
L 2766 531 
Q 2569 213 2275 61 
Q 1981 -91 1556 -91 
Q 1019 -91 701 211 
Q 384 513 384 1019 
Q 384 1609 779 1909 
Q 1175 2209 1959 2209 
L 2766 2209 
L 2766 2266 
Q 2766 2663 2505 2880 
Q 2244 3097 1772 3097 
Q 1472 3097 1187 3025 
Q 903 2953 641 2809 
L 641 3341 
Q 956 3463 1253 3523 
Q 1550 3584 1831 3584 
Q 2591 3584 2966 3190 
Q 3341 2797 3341 1997 
z
" transform="scale(0.015625)"/>
      <path id="DejaVuSans-6e" d="M 3513 2113 
L 3513 0 
L 2938 0 
L 2938 2094 
Q 2938 2591 2744 2837 
Q 2550 3084 2163 3084 
Q 1697 3084 1428 2787 
Q 1159 2491 1159 1978 
L 1159 0 
L 581 0 
L 581 3500 
L 1159 3500 
L 1159 2956 
Q 1366 3272 1645 3428 
Q 1925 3584 2291 3584 
Q 2894 3584 3203 3211 
Q 3513 2838 3513 2113 
z
" transform="scale(0.015625)"/>
      <path id="DejaVuSans-50" d="M 1259 4147 
L 1259 2394 
L 2053 2394 
Q 2494 2394 2734 2622 
Q 2975 2850 2975 3272 
Q 2975 3691 2734 3919 
Q 2494 4147 2053 4147 
L 1259 4147 
z
M 628 4666 
L 2053 4666 
Q 2838 4666 3239 4311 
Q 3641 3956 3641 3272 
Q 3641 2581 3239 2228 
Q 2838 1875 2053 1875 
L 1259 1875 
L 1259 0 
L 628 0 
L 628 4666 
z
" transform="scale(0.015625)"/>
     </defs>
     <use xlink:href="#DejaVuSans-54"/>
     <use xlink:href="#DejaVuSans-69" x="57.958984"/>
     <use xlink:href="#DejaVuSans-6d" x="85.742188"/>
     <use xlink:href="#DejaVuSans-65" x="183.154297"/>
     <use xlink:href="#DejaVuSans-20" x="244.677734"/>
     <use xlink:href="#DejaVuSans-44" x="276.464844"/>
     <use xlink:href="#DejaVuSans-6f" x="353.466797"/>
     <use xlink:href="#DejaVuSans-6d" x="414.648438"/>
     <use xlink:href="#DejaVuSans-61" x="512.060547"/>
     <use xlink:href="#DejaVuSans-69" x="573.339844"/>
     <use xlink:href="#DejaVuSans-6e" x="601.123047"/>
     <use xlink:href="#DejaVuSans-20" x="664.501953"/>
     <use xlink:href="#DejaVuSans-50" x="696.289062"/>
     <use xlink:href="#DejaVuSans-6c" x="756.591797"/>
     <use xlink:href="#DejaVuSans-6f" x="784.375"/>
     <use xlink:href="#DejaVuSans-74" x="845.556641"/>
    </g>
   </g>
   <g id="patch_7">
    <path d="M 140.439585 84.632138 
L 169.475397 84.632138 
L 169.475397 58.444107 
L 140.439585 58.444107 
L 140.439585 84.632138 
z
" clip-path="url(#pf0956e4667)" style="fill: none; opacity: 0.8; stroke: #000000; stroke-width: 1.2; stroke-linejoin: miter"/>
   </g>
   <g id="patch_8">
    <path d="M 100.904986 67.776 
Q 120.672285 63.110054 140.439585 58.444107 
" style="fill: none; opacity: 0.8; stroke: #000000; stroke-linecap: round"/>
   </g>
   <g id="patch_9">
    <path d="M 183.674957 67.776 
Q 176.575177 63.110054 169.475397 58.444107 
" style="fill: none; opacity: 0.8; stroke: #000000; stroke-linecap: round"/>
   </g>
   <g id="axes_2">
    <g id="patch_10">
     <path d="M 100.904986 108.672 
L 183.674957 108.672 
L 183.674957 67.776 
L 100.904986 67.776 
z
" style="fill: #ffffff"/>
    </g>
    <g id="matplotlib.axis_3">
     <g id="xtick_4">
      <g id="line2d_12">
       <g>
        <use xlink:href="#m038c866c4d" x="101.049112" y="108.672" style="stroke: #000000; stroke-width: 0.8"/>
       </g>
      </g>
      <g id="text_12">
       <!-- 1.3 -->
       <g transform="translate(93.09755 123.270437) scale(0.1 -0.1)">
        <use xlink:href="#DejaVuSans-31"/>
        <use xlink:href="#DejaVuSans-2e" x="63.623047"/>
        <use xlink:href="#DejaVuSans-33" x="95.410156"/>
       </g>
      </g>
     </g>
     <g id="xtick_5">
      <g id="line2d_13">
       <g>
        <use xlink:href="#m038c866c4d" x="183.386703" y="108.672" style="stroke: #000000; stroke-width: 0.8"/>
       </g>
      </g>
      <g id="text_13">
       <!-- 1.4 -->
       <g transform="translate(175.435141 123.270437) scale(0.1 -0.1)">
        <defs>
         <path id="DejaVuSans-34" d="M 2419 4116 
L 825 1625 
L 2419 1625 
L 2419 4116 
z
M 2253 4666 
L 3047 4666 
L 3047 1625 
L 3713 1625 
L 3713 1100 
L 3047 1100 
L 3047 0 
L 2419 0 
L 2419 1100 
L 313 1100 
L 313 1709 
L 2253 4666 
z
" transform="scale(0.015625)"/>
        </defs>
        <use xlink:href="#DejaVuSans-31"/>
        <use xlink:href="#DejaVuSans-2e" x="63.623047"/>
        <use xlink:href="#DejaVuSans-34" x="95.410156"/>
       </g>
      </g>
     </g>
    </g>
    <g id="matplotlib.axis_4">
     <g id="ytick_6">
      <g id="line2d_14">
       <g>
        <use xlink:href="#m3de857564d" x="100.904986" y="91.291693" style="stroke: #000000; stroke-width: 0.8"/>
       </g>
      </g>
      <g id="text_14">
       <!-- −5 -->
       <g transform="translate(79.162798 95.090912) scale(0.1 -0.1)">
        <use xlink:href="#DejaVuSans-2212"/>
        <use xlink:href="#DejaVuSans-35" x="83.789062"/>
       </g>
      </g>
     </g>
     <g id="ytick_7">
      <g id="line2d_15">
       <g>
        <use xlink:href="#m3de857564d" x="100.904986" y="73.792998" style="stroke: #000000; stroke-width: 0.8"/>
       </g>
      </g>
      <g id="text_15">
       <!-- 0 -->
       <g transform="translate(87.542486 77.592217) scale(0.1 -0.1)">
        <use xlink:href="#DejaVuSans-30"/>
       </g>
      </g>
     </g>
    </g>
    <g id="line2d_16">
     <path d="M 101.316776 74.155315 
L 102.140358 74.384982 
L 103.375731 73.806231 
L 103.787522 73.444626 
L 104.199313 73.238184 
L 105.022895 73.644023 
L 105.434685 73.704482 
L 106.258267 74.425429 
L 106.670058 74.662513 
L 107.081849 74.635442 
L 107.49364 74.371041 
L 108.317222 73.439194 
L 110.787967 72.741056 
L 111.199758 72.383706 
L 111.611549 72.294236 
L 112.02334 72.040589 
L 112.846922 71.270712 
L 113.258713 71.019864 
L 114.082294 71.354685 
L 114.494085 71.742735 
L 116.55304 72.508772 
L 116.964831 72.395077 
L 117.788413 72.01807 
L 118.611994 72.35209 
L 119.023785 72.219522 
L 119.435576 71.947884 
L 119.847367 71.842135 
L 121.08274 70.871933 
L 121.494531 70.495938 
L 122.318112 70.343048 
L 123.553485 69.777145 
L 124.377067 70.205647 
L 125.200649 70.264791 
L 126.024231 70.369504 
L 127.259603 71.757794 
L 127.671394 72.236437 
L 128.906767 74.440955 
L 129.730349 75.706002 
L 130.55393 76.23891 
L 130.965721 76.366319 
L 131.377512 76.622623 
L 131.789303 76.646095 
L 132.201094 76.837932 
L 133.436467 77.883192 
L 133.848258 78.111979 
L 135.08363 79.171284 
L 135.495421 79.400446 
L 136.319003 80.080693 
L 137.142585 80.234106 
L 139.61333 81.567421 
L 141.260494 82.969609 
L 142.907658 83.179691 
L 143.319448 83.147224 
L 144.14303 81.839053 
L 144.554821 80.928513 
L 145.378403 80.134867 
L 146.613776 78.580804 
L 147.025567 78.343948 
L 148.260939 77.059731 
L 149.084521 75.788959 
L 149.496312 75.421904 
L 150.731685 75.262106 
L 151.143476 75.245389 
L 151.967057 75.024536 
L 152.378848 74.690911 
L 152.790639 74.776378 
L 153.20243 74.580139 
L 154.437803 74.559874 
L 155.673175 73.707335 
L 156.496757 74.006202 
L 156.908548 74.305307 
L 157.320339 74.065696 
L 157.73213 74.055263 
L 158.143921 74.167472 
L 158.967503 73.766542 
L 159.791084 73.077501 
L 160.202875 73.009521 
L 160.614666 72.471567 
L 161.850039 71.666892 
L 162.26183 71.438396 
L 163.497203 70.158339 
L 163.908993 70.096714 
L 165.556157 69.237587 
L 166.379739 69.29162 
L 166.79153 69.414047 
L 167.203321 69.684827 
L 169.674066 70.174117 
L 170.085857 70.159972 
L 170.497648 70.485444 
L 171.733021 71.867914 
L 172.556602 72.497607 
L 173.380184 72.363057 
L 175.439139 71.237938 
L 175.85093 71.020971 
L 176.674511 71.105131 
L 177.498093 71.402255 
L 178.321675 71.840516 
L 179.557048 72.563358 
L 180.79242 73.307537 
L 182.027793 74.106428 
L 183.263166 75.716293 
L 183.263166 75.716293 
" clip-path="url(#p6af528bbf2)" style="fill: none; stroke: #1e90ff; stroke-linecap: square"/>
    </g>
    <g id="line2d_17">
     <path d="M 101.316776 94.059395 
L 102.552149 100.932524 
L 102.96394 102.567163 
L 103.375731 103.67164 
L 103.787522 103.998842 
L 104.199313 102.548497 
L 104.611104 96.306348 
L 105.022895 87.45564 
L 105.434685 83.47261 
L 105.846476 83.570019 
L 106.258267 84.992999 
L 106.670058 86.897221 
L 108.317222 97.200484 
L 109.140804 102.913878 
L 109.552595 105.37166 
L 110.376176 107.972052 
L 110.787967 105.997162 
L 111.611549 86.725278 
L 112.02334 83.689155 
L 112.435131 82.877144 
L 113.258713 84.441306 
L 114.494085 91.709655 
L 116.141249 101.119327 
L 116.964831 103.378021 
L 117.376622 101.282156 
L 117.788413 86.889699 
L 118.200203 94.587295 
L 118.611994 99.225543 
L 119.023785 98.43767 
L 119.435576 97.191296 
L 120.259158 92.224607 
L 122.729903 72.060828 
L 123.553485 68.475948 
L 123.965276 69.131293 
L 124.377067 86.166577 
L 124.788858 89.288155 
L 125.61244 90.354978 
L 126.024231 89.763633 
L 126.436021 90.037604 
L 126.847812 89.390294 
L 127.259603 89.349659 
L 127.671394 88.616204 
L 128.083185 88.727601 
L 128.494976 88.20618 
L 128.906767 88.414248 
L 129.318558 88.10738 
L 129.730349 88.560449 
L 130.14214 88.293759 
L 130.55393 89.507225 
L 130.965721 95.93389 
L 131.377512 91.471416 
L 131.789303 89.093468 
L 132.201094 89.804319 
L 133.024676 92.104434 
L 133.848258 95.415681 
L 135.495421 103.053114 
L 135.907212 104.924505 
L 136.730794 107.212594 
L 137.142585 107.333973 
L 137.554376 95.742888 
L 137.966167 100.35233 
L 138.377958 103.478177 
L 138.789748 103.631125 
L 139.201539 103.50652 
L 140.025121 101.300049 
L 141.260494 96.018996 
L 142.084076 92.282183 
L 142.495867 90.673272 
L 142.907658 89.674998 
L 143.319448 89.020269 
L 143.731239 89.506038 
L 144.14303 99.459666 
L 144.554821 97.150825 
L 144.966612 96.205681 
L 145.378403 96.416948 
L 146.613776 95.599597 
L 147.437357 95.46592 
L 148.260939 95.176596 
L 148.67273 94.728993 
L 149.496312 94.37955 
L 150.319894 95.627876 
L 150.731685 89.045137 
L 151.143476 95.562138 
L 151.555266 99.360109 
L 151.967057 99.392179 
L 152.378848 98.463441 
L 153.20243 94.553171 
L 155.673175 77.782473 
L 156.084966 76.457805 
L 156.496757 75.994825 
L 156.908548 77.794339 
L 157.320339 88.166192 
L 157.73213 93.027504 
L 158.143921 95.360549 
L 158.555712 95.810931 
L 158.967503 95.041569 
L 159.379294 93.74018 
L 160.202875 90.19526 
L 161.438248 83.47567 
L 162.26183 80.169519 
L 162.673621 78.9026 
L 163.085412 78.239392 
L 163.497203 79.450099 
L 163.908993 82.214829 
L 164.320784 90.755641 
L 164.732575 94.449369 
L 165.144366 94.586728 
L 165.967948 91.62859 
L 166.79153 86.699573 
L 168.438693 75.446035 
L 168.850484 72.85715 
L 169.674066 70.677778 
L 170.085857 72.820075 
L 170.497648 89.312004 
L 170.909439 84.427397 
L 171.32123 81.690289 
L 172.556602 85.844728 
L 173.380184 89.372776 
L 175.439139 98.897669 
L 175.85093 99.899904 
L 176.262721 101.514286 
L 176.674511 101.760779 
L 177.086302 86.395143 
L 177.909884 93.058698 
L 178.321675 93.018986 
L 178.733466 93.106188 
L 179.557048 91.332005 
L 180.79242 87.079057 
L 182.027793 83.688139 
L 182.439584 83.368327 
L 182.851375 83.605759 
L 183.263166 84.685275 
L 183.263166 84.685275 
" clip-path="url(#p6af528bbf2)" style="fill: none; stroke: #ff0000; stroke-width: 0.8; stroke-linecap: square"/>
    </g>
    <g id="line2d_18">
     <path d="M 101.316776 89.608187 
L 102.552149 136.706655 
L 103.375731 158.010695 
L 103.787522 163.491363 
L 104.199313 165.270817 
L 105.022895 47.873338 
L 105.434685 26.993683 
L 105.846476 29.503802 
L 106.258267 35.90384 
L 106.670058 45.931692 
L 107.49364 73.802134 
L 109.552595 151.475314 
L 109.964385 160.972972 
L 110.376176 167.145543 
L 110.787967 169.018297 
L 111.199758 95.968391 
L 111.611549 47.769841 
L 112.02334 27.588761 
L 112.435131 29.134789 
L 112.846922 34.612057 
L 113.258713 43.678488 
L 114.082294 70.81329 
L 115.729458 134.594766 
L 116.55304 156.336797 
L 116.964831 162.039257 
L 117.376622 163.772641 
L 117.788413 87.152313 
L 118.200203 56.475733 
L 118.611994 43.827445 
L 119.023785 44.963525 
L 119.435576 48.424101 
L 119.847367 54.297231 
L 120.670949 70.91868 
L 122.729903 117.928723 
L 123.141694 123.766726 
L 123.553485 127.301629 
L 123.965276 128.749085 
L 124.788858 50.82305 
L 125.200649 35.168727 
L 125.61244 36.812755 
L 126.024231 41.426386 
L 126.436021 49.302118 
L 127.259603 71.330346 
L 129.318558 133.91572 
L 129.730349 141.890766 
L 130.14214 146.801282 
L 130.55393 148.57662 
L 131.377512 53.407966 
L 131.789303 34.568239 
L 132.201094 36.631509 
L 132.612885 42.517087 
L 133.024676 51.617895 
L 133.848258 77.599498 
L 135.495421 138.310649 
L 136.319003 159.431843 
L 136.730794 164.974676 
L 137.142585 166.96223 
L 137.554376 97.180247 
L 137.966167 63.179449 
L 138.377958 49.222246 
L 138.789748 50.855987 
L 139.201539 55.270849 
L 139.61333 62.166542 
L 140.436912 81.968745 
L 142.084076 127.333168 
L 142.907658 142.662336 
L 143.319448 146.756893 
L 143.731239 147.597719 
L 144.554821 59.889108 
L 144.966612 42.466533 
L 145.378403 43.695855 
L 145.790194 48.120051 
L 146.201985 55.669773 
L 147.025567 77.879487 
L 148.67273 129.75848 
L 149.496312 147.337715 
L 149.908103 152.248088 
L 150.319894 153.865998 
L 150.731685 90.82307 
L 151.143476 59.064413 
L 151.555266 45.787148 
L 151.967057 47.000036 
L 152.378848 50.503858 
L 153.20243 64.640744 
L 154.437803 95.531716 
L 155.261385 114.901956 
L 156.084966 129.136314 
L 156.496757 133.152631 
L 156.908548 134.756155 
L 157.73213 56.357952 
L 158.143921 42.090112 
L 158.555712 43.371007 
L 158.967503 47.312897 
L 159.379294 53.711521 
L 160.202875 72.618839 
L 162.26183 125.206895 
L 162.673621 131.500616 
L 163.085412 135.253426 
L 163.497203 136.274095 
L 163.908993 85.299111 
L 164.320784 54.07965 
L 164.732575 41.125051 
L 165.144366 42.178727 
L 165.556157 45.60787 
L 165.967948 51.616987 
L 166.79153 69.065071 
L 168.438693 110.125727 
L 169.262275 124.099367 
L 169.674066 127.95765 
L 170.085857 129.217867 
L 170.497648 93.44837 
L 170.909439 47.127509 
L 171.32123 28.123981 
L 171.733021 30.51286 
L 172.144811 36.482616 
L 172.968393 57.749836 
L 174.203766 102.76534 
L 175.027348 132.090167 
L 175.85093 152.639052 
L 176.262721 158.321416 
L 176.674511 160.310935 
L 177.086302 88.456247 
L 177.498093 53.455847 
L 177.909884 39.059785 
L 178.321675 40.758391 
L 178.733466 45.293445 
L 179.145257 52.329842 
L 179.968839 72.383632 
L 181.616002 119.35773 
L 182.439584 135.993044 
L 182.851375 140.74059 
L 183.263166 142.762656 
L 183.263166 142.762656 
" clip-path="url(#p6af528bbf2)" style="fill: none; stroke: #808080; stroke-width: 0.2; stroke-linecap: square"/>
    </g>
    <g id="patch_11">
     <path d="M 100.904986 108.672 
L 100.904986 67.776 
" style="fill: none; stroke: #000000; stroke-width: 0.8; stroke-linejoin: miter; stroke-linecap: square"/>
    </g>
    <g id="patch_12">
     <path d="M 183.674957 108.672 
L 183.674957 67.776 
" style="fill: none; stroke: #000000; stroke-width: 0.8; stroke-linejoin: miter; stroke-linecap: square"/>
    </g>
    <g id="patch_13">
     <path d="M 100.904986 108.672 
L 183.674957 108.672 
" style="fill: none; stroke: #000000; stroke-width: 0.8; stroke-linejoin: miter; stroke-linecap: square"/>
    </g>
    <g id="patch_14">
     <path d="M 100.904986 67.776 
L 183.674957 67.776 
" style="fill: none; stroke: #000000; stroke-width: 0.8; stroke-linejoin: miter; stroke-linecap: square"/>
    </g>
   </g>
   <g id="legend_1">
    <g id="patch_15">
     <path d="M 20.235014 158.292 
L 51.103139 158.292 
Q 51.703139 158.292 51.703139 157.692 
L 51.703139 144.781688 
Q 51.703139 144.181688 51.103139 144.181688 
L 20.235014 144.181688 
Q 19.635014 144.181688 19.635014 144.781688 
L 19.635014 157.692 
Q 19.635014 158.292 20.235014 158.292 
z
" style="fill: #ffffff; opacity: 0.8; stroke: #cccccc; stroke-linejoin: miter"/>
    </g>
    <g id="line2d_19">
     <path d="M 20.835014 146.611219 
L 23.835014 146.611219 
L 26.835014 146.611219 
" style="fill: none; stroke: #808080; stroke-width: 0.7; stroke-linecap: square"/>
    </g>
    <g id="text_16">
     <!-- Contaminated -->
     <g transform="translate(29.235014 147.661219) scale(0.03 -0.03)">
      <defs>
       <path id="DejaVuSans-43" d="M 4122 4306 
L 4122 3641 
Q 3803 3938 3442 4084 
Q 3081 4231 2675 4231 
Q 1875 4231 1450 3742 
Q 1025 3253 1025 2328 
Q 1025 1406 1450 917 
Q 1875 428 2675 428 
Q 3081 428 3442 575 
Q 3803 722 4122 1019 
L 4122 359 
Q 3791 134 3420 21 
Q 3050 -91 2638 -91 
Q 1578 -91 968 557 
Q 359 1206 359 2328 
Q 359 3453 968 4101 
Q 1578 4750 2638 4750 
Q 3056 4750 3426 4639 
Q 3797 4528 4122 4306 
z
" transform="scale(0.015625)"/>
      </defs>
      <use xlink:href="#DejaVuSans-43"/>
      <use xlink:href="#DejaVuSans-6f" x="69.824219"/>
      <use xlink:href="#DejaVuSans-6e" x="131.005859"/>
      <use xlink:href="#DejaVuSans-74" x="194.384766"/>
      <use xlink:href="#DejaVuSans-61" x="233.59375"/>
      <use xlink:href="#DejaVuSans-6d" x="294.873047"/>
      <use xlink:href="#DejaVuSans-69" x="392.285156"/>
      <use xlink:href="#DejaVuSans-6e" x="420.068359"/>
      <use xlink:href="#DejaVuSans-61" x="483.447266"/>
      <use xlink:href="#DejaVuSans-74" x="544.726562"/>
      <use xlink:href="#DejaVuSans-65" x="583.935547"/>
      <use xlink:href="#DejaVuSans-64" x="645.458984"/>
     </g>
    </g>
    <g id="line2d_20">
     <path d="M 20.835014 151.014656 
L 23.835014 151.014656 
L 26.835014 151.014656 
" style="fill: none; stroke: #1e90ff; stroke-linecap: square"/>
    </g>
    <g id="text_17">
     <!-- Clean -->
     <g transform="translate(29.235014 152.064656) scale(0.03 -0.03)">
      <use xlink:href="#DejaVuSans-43"/>
      <use xlink:href="#DejaVuSans-6c" x="69.824219"/>
      <use xlink:href="#DejaVuSans-65" x="97.607422"/>
      <use xlink:href="#DejaVuSans-61" x="159.130859"/>
      <use xlink:href="#DejaVuSans-6e" x="220.410156"/>
     </g>
    </g>
    <g id="line2d_21">
     <path d="M 20.835014 155.418094 
L 23.835014 155.418094 
L 26.835014 155.418094 
" style="fill: none; stroke: #ff0000; stroke-width: 0.8; stroke-linecap: square"/>
    </g>
    <g id="text_18">
     <!-- SACed -->
     <g transform="translate(29.235014 156.468094) scale(0.03 -0.03)">
      <defs>
       <path id="DejaVuSans-53" d="M 3425 4513 
L 3425 3897 
Q 3066 4069 2747 4153 
Q 2428 4238 2131 4238 
Q 1616 4238 1336 4038 
Q 1056 3838 1056 3469 
Q 1056 3159 1242 3001 
Q 1428 2844 1947 2747 
L 2328 2669 
Q 3034 2534 3370 2195 
Q 3706 1856 3706 1288 
Q 3706 609 3251 259 
Q 2797 -91 1919 -91 
Q 1588 -91 1214 -16 
Q 841 59 441 206 
L 441 856 
Q 825 641 1194 531 
Q 1563 422 1919 422 
Q 2459 422 2753 634 
Q 3047 847 3047 1241 
Q 3047 1584 2836 1778 
Q 2625 1972 2144 2069 
L 1759 2144 
Q 1053 2284 737 2584 
Q 422 2884 422 3419 
Q 422 4038 858 4394 
Q 1294 4750 2059 4750 
Q 2388 4750 2728 4690 
Q 3069 4631 3425 4513 
z
" transform="scale(0.015625)"/>
      </defs>
      <use xlink:href="#DejaVuSans-53"/>
      <use xlink:href="#DejaVuSans-41" x="65.351562"/>
      <use xlink:href="#DejaVuSans-43" x="132.009766"/>
      <use xlink:href="#DejaVuSans-65" x="201.833984"/>
      <use xlink:href="#DejaVuSans-64" x="263.357422"/>
     </g>
    </g>
   </g>
  </g>
 </g>
 <defs>
  <clipPath id="pf0956e4667">
   <rect x="59.52" y="26.88" width="137.949952" height="102.24"/>
  </clipPath>
  <clipPath id="p6af528bbf2">
   <rect x="100.904986" y="67.776" width="82.769971" height="40.896"/>
  </clipPath>
 </defs>
</svg>
