<?xml version="1.0" encoding="utf-8" standalone="no"?>
<!DOCTYPE svg PUBLIC "-//W3C//DTD SVG 1.1//EN"
  "http://www.w3.org/Graphics/SVG/1.1/DTD/svg11.dtd">
<svg xmlns:xlink="http://www.w3.org/1999/xlink" width="216pt" height="180pt" viewBox="0 0 216 180" xmlns="http://www.w3.org/2000/svg" version="1.1">
 <metadata>
  <rdf:RDF xmlns:dc="http://purl.org/dc/elements/1.1/" xmlns:cc="http://creativecommons.org/ns#" xmlns:rdf="http://www.w3.org/1999/02/22-rdf-syntax-ns#">
   <cc:Work>
    <dc:type rdf:resource="http://purl.org/dc/dcmitype/StillImage"/>
    <dc:date>2024-08-25T19:11:43.272906</dc:date>
    <dc:format>image/svg+xml</dc:format>
    <dc:creator>
     <cc:Agent>
      <dc:title>Matplotlib v3.9.1.post1, https://matplotlib.org/</dc:title>
     </cc:Agent>
    </dc:creator>
   </cc:Work>
  </rdf:RDF>
 </metadata>
 <defs>
  <style type="text/css">*{stroke-linejoin: round; stroke-linecap: butt}</style>
 </defs>
 <g id="figure_1">
  <g id="patch_1">
   <path d="M 0 180 
L 216 180 
L 216 0 
L 0 0 
z
" style="fill: #ffffff"/>
  </g>
  <g id="axes_1">
   <g id="patch_2">
    <path d="M 59.52 129.12 
L 198.454362 129.12 
L 198.454362 26.88 
L 59.52 26.88 
z
" style="fill: #ffffff"/>
   </g>
   <g id="matplotlib.axis_1">
    <g id="xtick_1">
     <g id="line2d_1">
      <defs>
       <path id="mae3d37dbf9" d="M 0 0 
L 0 3.5 
" style="stroke: #000000; stroke-width: 0.8"/>
      </defs>
      <g>
       <use xlink:href="#mae3d37dbf9" x="61.540047" y="129.12" style="stroke: #000000; stroke-width: 0.8"/>
      </g>
     </g>
     <g id="text_1">
      <!-- 0 -->
      <g transform="translate(58.358797 143.718437) scale(0.1 -0.1)">
       <defs>
        <path id="DejaVuSans-30" d="M 2034 4250 
Q 1547 4250 1301 3770 
Q 1056 3291 1056 2328 
Q 1056 1369 1301 889 
Q 1547 409 2034 409 
Q 2525 409 2770 889 
Q 3016 1369 3016 2328 
Q 3016 3291 2770 3770 
Q 2525 4250 2034 4250 
z
M 2034 4750 
Q 2819 4750 3233 4129 
Q 3647 3509 3647 2328 
Q 3647 1150 3233 529 
Q 2819 -91 2034 -91 
Q 1250 -91 836 529 
Q 422 1150 422 2328 
Q 422 3509 836 4129 
Q 1250 4750 2034 4750 
z
" transform="scale(0.015625)"/>
       </defs>
       <use xlink:href="#DejaVuSans-30"/>
      </g>
     </g>
    </g>
    <g id="xtick_2">
     <g id="line2d_2">
      <g>
       <use xlink:href="#mae3d37dbf9" x="128.874956" y="129.12" style="stroke: #000000; stroke-width: 0.8"/>
      </g>
     </g>
     <g id="text_2">
      <!-- 150 -->
      <g transform="translate(119.331206 143.718437) scale(0.1 -0.1)">
       <defs>
        <path id="DejaVuSans-31" d="M 794 531 
L 1825 531 
L 1825 4091 
L 703 3866 
L 703 4441 
L 1819 4666 
L 2450 4666 
L 2450 531 
L 3481 531 
L 3481 0 
L 794 0 
L 794 531 
z
" transform="scale(0.015625)"/>
        <path id="DejaVuSans-35" d="M 691 4666 
L 3169 4666 
L 3169 4134 
L 1269 4134 
L 1269 2991 
Q 1406 3038 1543 3061 
Q 1681 3084 1819 3084 
Q 2600 3084 3056 2656 
Q 3513 2228 3513 1497 
Q 3513 744 3044 326 
Q 2575 -91 1722 -91 
Q 1428 -91 1123 -41 
Q 819 9 494 109 
L 494 744 
Q 775 591 1075 516 
Q 1375 441 1709 441 
Q 2250 441 2565 725 
Q 2881 1009 2881 1497 
Q 2881 1984 2565 2268 
Q 2250 2553 1709 2553 
Q 1456 2553 1204 2497 
Q 953 2441 691 2322 
L 691 4666 
z
" transform="scale(0.015625)"/>
       </defs>
       <use xlink:href="#DejaVuSans-31"/>
       <use xlink:href="#DejaVuSans-35" x="63.623047"/>
       <use xlink:href="#DejaVuSans-30" x="127.246094"/>
      </g>
     </g>
    </g>
    <g id="xtick_3">
     <g id="line2d_3">
      <g>
       <use xlink:href="#mae3d37dbf9" x="196.209865" y="129.12" style="stroke: #000000; stroke-width: 0.8"/>
      </g>
     </g>
     <g id="text_3">
      <!-- 300 -->
      <g transform="translate(186.666115 143.718437) scale(0.1 -0.1)">
       <defs>
        <path id="DejaVuSans-33" d="M 2597 2516 
Q 3050 2419 3304 2112 
Q 3559 1806 3559 1356 
Q 3559 666 3084 287 
Q 2609 -91 1734 -91 
Q 1441 -91 1130 -33 
Q 819 25 488 141 
L 488 750 
Q 750 597 1062 519 
Q 1375 441 1716 441 
Q 2309 441 2620 675 
Q 2931 909 2931 1356 
Q 2931 1769 2642 2001 
Q 2353 2234 1838 2234 
L 1294 2234 
L 1294 2753 
L 1863 2753 
Q 2328 2753 2575 2939 
Q 2822 3125 2822 3475 
Q 2822 3834 2567 4026 
Q 2313 4219 1838 4219 
Q 1578 4219 1281 4162 
Q 984 4106 628 3988 
L 628 4550 
Q 988 4650 1302 4700 
Q 1616 4750 1894 4750 
Q 2613 4750 3031 4423 
Q 3450 4097 3450 3541 
Q 3450 3153 3228 2886 
Q 3006 2619 2597 2516 
z
" transform="scale(0.015625)"/>
       </defs>
       <use xlink:href="#DejaVuSans-33"/>
       <use xlink:href="#DejaVuSans-30" x="63.623047"/>
       <use xlink:href="#DejaVuSans-30" x="127.246094"/>
      </g>
     </g>
    </g>
    <g id="text_4">
     <!-- Frequency (Hz) -->
     <g transform="translate(91.282493 157.396563) scale(0.1 -0.1)">
      <defs>
       <path id="DejaVuSans-46" d="M 628 4666 
L 3309 4666 
L 3309 4134 
L 1259 4134 
L 1259 2759 
L 3109 2759 
L 3109 2228 
L 1259 2228 
L 1259 0 
L 628 0 
L 628 4666 
z
" transform="scale(0.015625)"/>
       <path id="DejaVuSans-72" d="M 2631 2963 
Q 2534 3019 2420 3045 
Q 2306 3072 2169 3072 
Q 1681 3072 1420 2755 
Q 1159 2438 1159 1844 
L 1159 0 
L 581 0 
L 581 3500 
L 1159 3500 
L 1159 2956 
Q 1341 3275 1631 3429 
Q 1922 3584 2338 3584 
Q 2397 3584 2469 3576 
Q 2541 3569 2628 3553 
L 2631 2963 
z
" transform="scale(0.015625)"/>
       <path id="DejaVuSans-65" d="M 3597 1894 
L 3597 1613 
L 953 1613 
Q 991 1019 1311 708 
Q 1631 397 2203 397 
Q 2534 397 2845 478 
Q 3156 559 3463 722 
L 3463 178 
Q 3153 47 2828 -22 
Q 2503 -91 2169 -91 
Q 1331 -91 842 396 
Q 353 884 353 1716 
Q 353 2575 817 3079 
Q 1281 3584 2069 3584 
Q 2775 3584 3186 3129 
Q 3597 2675 3597 1894 
z
M 3022 2063 
Q 3016 2534 2758 2815 
Q 2500 3097 2075 3097 
Q 1594 3097 1305 2825 
Q 1016 2553 972 2059 
L 3022 2063 
z
" transform="scale(0.015625)"/>
       <path id="DejaVuSans-71" d="M 947 1747 
Q 947 1113 1208 752 
Q 1469 391 1925 391 
Q 2381 391 2643 752 
Q 2906 1113 2906 1747 
Q 2906 2381 2643 2742 
Q 2381 3103 1925 3103 
Q 1469 3103 1208 2742 
Q 947 2381 947 1747 
z
M 2906 525 
Q 2725 213 2448 61 
Q 2172 -91 1784 -91 
Q 1150 -91 751 415 
Q 353 922 353 1747 
Q 353 2572 751 3078 
Q 1150 3584 1784 3584 
Q 2172 3584 2448 3432 
Q 2725 3281 2906 2969 
L 2906 3500 
L 3481 3500 
L 3481 -1331 
L 2906 -1331 
L 2906 525 
z
" transform="scale(0.015625)"/>
       <path id="DejaVuSans-75" d="M 544 1381 
L 544 3500 
L 1119 3500 
L 1119 1403 
Q 1119 906 1312 657 
Q 1506 409 1894 409 
Q 2359 409 2629 706 
Q 2900 1003 2900 1516 
L 2900 3500 
L 3475 3500 
L 3475 0 
L 2900 0 
L 2900 538 
Q 2691 219 2414 64 
Q 2138 -91 1772 -91 
Q 1169 -91 856 284 
Q 544 659 544 1381 
z
M 1991 3584 
L 1991 3584 
z
" transform="scale(0.015625)"/>
       <path id="DejaVuSans-6e" d="M 3513 2113 
L 3513 0 
L 2938 0 
L 2938 2094 
Q 2938 2591 2744 2837 
Q 2550 3084 2163 3084 
Q 1697 3084 1428 2787 
Q 1159 2491 1159 1978 
L 1159 0 
L 581 0 
L 581 3500 
L 1159 3500 
L 1159 2956 
Q 1366 3272 1645 3428 
Q 1925 3584 2291 3584 
Q 2894 3584 3203 3211 
Q 3513 2838 3513 2113 
z
" transform="scale(0.015625)"/>
       <path id="DejaVuSans-63" d="M 3122 3366 
L 3122 2828 
Q 2878 2963 2633 3030 
Q 2388 3097 2138 3097 
Q 1578 3097 1268 2742 
Q 959 2388 959 1747 
Q 959 1106 1268 751 
Q 1578 397 2138 397 
Q 2388 397 2633 464 
Q 2878 531 3122 666 
L 3122 134 
Q 2881 22 2623 -34 
Q 2366 -91 2075 -91 
Q 1284 -91 818 406 
Q 353 903 353 1747 
Q 353 2603 823 3093 
Q 1294 3584 2113 3584 
Q 2378 3584 2631 3529 
Q 2884 3475 3122 3366 
z
" transform="scale(0.015625)"/>
       <path id="DejaVuSans-79" d="M 2059 -325 
Q 1816 -950 1584 -1140 
Q 1353 -1331 966 -1331 
L 506 -1331 
L 506 -850 
L 844 -850 
Q 1081 -850 1212 -737 
Q 1344 -625 1503 -206 
L 1606 56 
L 191 3500 
L 800 3500 
L 1894 763 
L 2988 3500 
L 3597 3500 
L 2059 -325 
z
" transform="scale(0.015625)"/>
       <path id="DejaVuSans-20" transform="scale(0.015625)"/>
       <path id="DejaVuSans-28" d="M 1984 4856 
Q 1566 4138 1362 3434 
Q 1159 2731 1159 2009 
Q 1159 1288 1364 580 
Q 1569 -128 1984 -844 
L 1484 -844 
Q 1016 -109 783 600 
Q 550 1309 550 2009 
Q 550 2706 781 3412 
Q 1013 4119 1484 4856 
L 1984 4856 
z
" transform="scale(0.015625)"/>
       <path id="DejaVuSans-48" d="M 628 4666 
L 1259 4666 
L 1259 2753 
L 3553 2753 
L 3553 4666 
L 4184 4666 
L 4184 0 
L 3553 0 
L 3553 2222 
L 1259 2222 
L 1259 0 
L 628 0 
L 628 4666 
z
" transform="scale(0.015625)"/>
       <path id="DejaVuSans-7a" d="M 353 3500 
L 3084 3500 
L 3084 2975 
L 922 459 
L 3084 459 
L 3084 0 
L 275 0 
L 275 525 
L 2438 3041 
L 353 3041 
L 353 3500 
z
" transform="scale(0.015625)"/>
       <path id="DejaVuSans-29" d="M 513 4856 
L 1013 4856 
Q 1481 4119 1714 3412 
Q 1947 2706 1947 2009 
Q 1947 1309 1714 600 
Q 1481 -109 1013 -844 
L 513 -844 
Q 928 -128 1133 580 
Q 1338 1288 1338 2009 
Q 1338 2731 1133 3434 
Q 928 4138 513 4856 
z
" transform="scale(0.015625)"/>
      </defs>
      <use xlink:href="#DejaVuSans-46"/>
      <use xlink:href="#DejaVuSans-72" x="50.269531"/>
      <use xlink:href="#DejaVuSans-65" x="89.132812"/>
      <use xlink:href="#DejaVuSans-71" x="150.65625"/>
      <use xlink:href="#DejaVuSans-75" x="214.132812"/>
      <use xlink:href="#DejaVuSans-65" x="277.511719"/>
      <use xlink:href="#DejaVuSans-6e" x="339.035156"/>
      <use xlink:href="#DejaVuSans-63" x="402.414062"/>
      <use xlink:href="#DejaVuSans-79" x="457.394531"/>
      <use xlink:href="#DejaVuSans-20" x="516.574219"/>
      <use xlink:href="#DejaVuSans-28" x="548.361328"/>
      <use xlink:href="#DejaVuSans-48" x="587.375"/>
      <use xlink:href="#DejaVuSans-7a" x="662.570312"/>
      <use xlink:href="#DejaVuSans-29" x="715.060547"/>
     </g>
    </g>
   </g>
   <g id="matplotlib.axis_2">
    <g id="ytick_1">
     <g id="line2d_4">
      <defs>
       <path id="mb27cf3cfdd" d="M 0 0 
L -3.5 0 
" style="stroke: #000000; stroke-width: 0.8"/>
      </defs>
      <g>
       <use xlink:href="#mb27cf3cfdd" x="59.52" y="107.444981" style="stroke: #000000; stroke-width: 0.8"/>
      </g>
     </g>
     <g id="text_5">
      <!-- $\mathdefault{10^{-4}}$ -->
      <g transform="translate(29.02 111.244199) scale(0.1 -0.1)">
       <defs>
        <path id="DejaVuSans-2212" d="M 678 2272 
L 4684 2272 
L 4684 1741 
L 678 1741 
L 678 2272 
z
" transform="scale(0.015625)"/>
        <path id="DejaVuSans-34" d="M 2419 4116 
L 825 1625 
L 2419 1625 
L 2419 4116 
z
M 2253 4666 
L 3047 4666 
L 3047 1625 
L 3713 1625 
L 3713 1100 
L 3047 1100 
L 3047 0 
L 2419 0 
L 2419 1100 
L 313 1100 
L 313 1709 
L 2253 4666 
z
" transform="scale(0.015625)"/>
       </defs>
       <use xlink:href="#DejaVuSans-31" transform="translate(0 0.684375)"/>
       <use xlink:href="#DejaVuSans-30" transform="translate(63.623047 0.684375)"/>
       <use xlink:href="#DejaVuSans-2212" transform="translate(128.203125 38.965625) scale(0.7)"/>
       <use xlink:href="#DejaVuSans-34" transform="translate(186.855469 38.965625) scale(0.7)"/>
      </g>
     </g>
    </g>
    <g id="ytick_2">
     <g id="line2d_5">
      <g>
       <use xlink:href="#mb27cf3cfdd" x="59.52" y="83.149353" style="stroke: #000000; stroke-width: 0.8"/>
      </g>
     </g>
     <g id="text_6">
      <!-- $\mathdefault{10^{-1}}$ -->
      <g transform="translate(29.02 86.948571) scale(0.1 -0.1)">
       <use xlink:href="#DejaVuSans-31" transform="translate(0 0.684375)"/>
       <use xlink:href="#DejaVuSans-30" transform="translate(63.623047 0.684375)"/>
       <use xlink:href="#DejaVuSans-2212" transform="translate(128.203125 38.965625) scale(0.7)"/>
       <use xlink:href="#DejaVuSans-31" transform="translate(186.855469 38.965625) scale(0.7)"/>
      </g>
     </g>
    </g>
    <g id="ytick_3">
     <g id="line2d_6">
      <g>
       <use xlink:href="#mb27cf3cfdd" x="59.52" y="58.853725" style="stroke: #000000; stroke-width: 0.8"/>
      </g>
     </g>
     <g id="text_7">
      <!-- $\mathdefault{10^{2}}$ -->
      <g transform="translate(34.92 62.652943) scale(0.1 -0.1)">
       <defs>
        <path id="DejaVuSans-32" d="M 1228 531 
L 3431 531 
L 3431 0 
L 469 0 
L 469 531 
Q 828 903 1448 1529 
Q 2069 2156 2228 2338 
Q 2531 2678 2651 2914 
Q 2772 3150 2772 3378 
Q 2772 3750 2511 3984 
Q 2250 4219 1831 4219 
Q 1534 4219 1204 4116 
Q 875 4013 500 3803 
L 500 4441 
Q 881 4594 1212 4672 
Q 1544 4750 1819 4750 
Q 2544 4750 2975 4387 
Q 3406 4025 3406 3419 
Q 3406 3131 3298 2873 
Q 3191 2616 2906 2266 
Q 2828 2175 2409 1742 
Q 1991 1309 1228 531 
z
" transform="scale(0.015625)"/>
       </defs>
       <use xlink:href="#DejaVuSans-31" transform="translate(0 0.765625)"/>
       <use xlink:href="#DejaVuSans-30" transform="translate(63.623047 0.765625)"/>
       <use xlink:href="#DejaVuSans-32" transform="translate(128.203125 39.046875) scale(0.7)"/>
      </g>
     </g>
    </g>
    <g id="ytick_4">
     <g id="line2d_7">
      <g>
       <use xlink:href="#mb27cf3cfdd" x="59.52" y="34.558097" style="stroke: #000000; stroke-width: 0.8"/>
      </g>
     </g>
     <g id="text_8">
      <!-- $\mathdefault{10^{5}}$ -->
      <g transform="translate(34.92 38.357315) scale(0.1 -0.1)">
       <use xlink:href="#DejaVuSans-31" transform="translate(0 0.684375)"/>
       <use xlink:href="#DejaVuSans-30" transform="translate(63.623047 0.684375)"/>
       <use xlink:href="#DejaVuSans-35" transform="translate(128.203125 38.965625) scale(0.7)"/>
      </g>
     </g>
    </g>
    <g id="text_9">
     <!-- Log power (dB/Hz) -->
     <g transform="translate(22.940312 124.139844) rotate(-90) scale(0.1 -0.1)">
      <defs>
       <path id="DejaVuSans-4c" d="M 628 4666 
L 1259 4666 
L 1259 531 
L 3531 531 
L 3531 0 
L 628 0 
L 628 4666 
z
" transform="scale(0.015625)"/>
       <path id="DejaVuSans-6f" d="M 1959 3097 
Q 1497 3097 1228 2736 
Q 959 2375 959 1747 
Q 959 1119 1226 758 
Q 1494 397 1959 397 
Q 2419 397 2687 759 
Q 2956 1122 2956 1747 
Q 2956 2369 2687 2733 
Q 2419 3097 1959 3097 
z
M 1959 3584 
Q 2709 3584 3137 3096 
Q 3566 2609 3566 1747 
Q 3566 888 3137 398 
Q 2709 -91 1959 -91 
Q 1206 -91 779 398 
Q 353 888 353 1747 
Q 353 2609 779 3096 
Q 1206 3584 1959 3584 
z
" transform="scale(0.015625)"/>
       <path id="DejaVuSans-67" d="M 2906 1791 
Q 2906 2416 2648 2759 
Q 2391 3103 1925 3103 
Q 1463 3103 1205 2759 
Q 947 2416 947 1791 
Q 947 1169 1205 825 
Q 1463 481 1925 481 
Q 2391 481 2648 825 
Q 2906 1169 2906 1791 
z
M 3481 434 
Q 3481 -459 3084 -895 
Q 2688 -1331 1869 -1331 
Q 1566 -1331 1297 -1286 
Q 1028 -1241 775 -1147 
L 775 -588 
Q 1028 -725 1275 -790 
Q 1522 -856 1778 -856 
Q 2344 -856 2625 -561 
Q 2906 -266 2906 331 
L 2906 616 
Q 2728 306 2450 153 
Q 2172 0 1784 0 
Q 1141 0 747 490 
Q 353 981 353 1791 
Q 353 2603 747 3093 
Q 1141 3584 1784 3584 
Q 2172 3584 2450 3431 
Q 2728 3278 2906 2969 
L 2906 3500 
L 3481 3500 
L 3481 434 
z
" transform="scale(0.015625)"/>
       <path id="DejaVuSans-70" d="M 1159 525 
L 1159 -1331 
L 581 -1331 
L 581 3500 
L 1159 3500 
L 1159 2969 
Q 1341 3281 1617 3432 
Q 1894 3584 2278 3584 
Q 2916 3584 3314 3078 
Q 3713 2572 3713 1747 
Q 3713 922 3314 415 
Q 2916 -91 2278 -91 
Q 1894 -91 1617 61 
Q 1341 213 1159 525 
z
M 3116 1747 
Q 3116 2381 2855 2742 
Q 2594 3103 2138 3103 
Q 1681 3103 1420 2742 
Q 1159 2381 1159 1747 
Q 1159 1113 1420 752 
Q 1681 391 2138 391 
Q 2594 391 2855 752 
Q 3116 1113 3116 1747 
z
" transform="scale(0.015625)"/>
       <path id="DejaVuSans-77" d="M 269 3500 
L 844 3500 
L 1563 769 
L 2278 3500 
L 2956 3500 
L 3675 769 
L 4391 3500 
L 4966 3500 
L 4050 0 
L 3372 0 
L 2619 2869 
L 1863 0 
L 1184 0 
L 269 3500 
z
" transform="scale(0.015625)"/>
       <path id="DejaVuSans-64" d="M 2906 2969 
L 2906 4863 
L 3481 4863 
L 3481 0 
L 2906 0 
L 2906 525 
Q 2725 213 2448 61 
Q 2172 -91 1784 -91 
Q 1150 -91 751 415 
Q 353 922 353 1747 
Q 353 2572 751 3078 
Q 1150 3584 1784 3584 
Q 2172 3584 2448 3432 
Q 2725 3281 2906 2969 
z
M 947 1747 
Q 947 1113 1208 752 
Q 1469 391 1925 391 
Q 2381 391 2643 752 
Q 2906 1113 2906 1747 
Q 2906 2381 2643 2742 
Q 2381 3103 1925 3103 
Q 1469 3103 1208 2742 
Q 947 2381 947 1747 
z
" transform="scale(0.015625)"/>
       <path id="DejaVuSans-42" d="M 1259 2228 
L 1259 519 
L 2272 519 
Q 2781 519 3026 730 
Q 3272 941 3272 1375 
Q 3272 1813 3026 2020 
Q 2781 2228 2272 2228 
L 1259 2228 
z
M 1259 4147 
L 1259 2741 
L 2194 2741 
Q 2656 2741 2882 2914 
Q 3109 3088 3109 3444 
Q 3109 3797 2882 3972 
Q 2656 4147 2194 4147 
L 1259 4147 
z
M 628 4666 
L 2241 4666 
Q 2963 4666 3353 4366 
Q 3744 4066 3744 3513 
Q 3744 3084 3544 2831 
Q 3344 2578 2956 2516 
Q 3422 2416 3680 2098 
Q 3938 1781 3938 1306 
Q 3938 681 3513 340 
Q 3088 0 2303 0 
L 628 0 
L 628 4666 
z
" transform="scale(0.015625)"/>
       <path id="DejaVuSans-2f" d="M 1625 4666 
L 2156 4666 
L 531 -594 
L 0 -594 
L 1625 4666 
z
" transform="scale(0.015625)"/>
      </defs>
      <use xlink:href="#DejaVuSans-4c"/>
      <use xlink:href="#DejaVuSans-6f" x="53.962891"/>
      <use xlink:href="#DejaVuSans-67" x="115.144531"/>
      <use xlink:href="#DejaVuSans-20" x="178.621094"/>
      <use xlink:href="#DejaVuSans-70" x="210.408203"/>
      <use xlink:href="#DejaVuSans-6f" x="273.884766"/>
      <use xlink:href="#DejaVuSans-77" x="335.066406"/>
      <use xlink:href="#DejaVuSans-65" x="416.853516"/>
      <use xlink:href="#DejaVuSans-72" x="478.376953"/>
      <use xlink:href="#DejaVuSans-20" x="519.490234"/>
      <use xlink:href="#DejaVuSans-28" x="551.277344"/>
      <use xlink:href="#DejaVuSans-64" x="590.291016"/>
      <use xlink:href="#DejaVuSans-42" x="653.767578"/>
      <use xlink:href="#DejaVuSans-2f" x="722.371094"/>
      <use xlink:href="#DejaVuSans-48" x="756.0625"/>
      <use xlink:href="#DejaVuSans-7a" x="831.257812"/>
      <use xlink:href="#DejaVuSans-29" x="883.748047"/>
     </g>
    </g>
   </g>
   <g id="line2d_8">
    <path d="M 61.764497 63.213595 
L 61.988947 56.886266 
L 62.437846 65.544844 
L 62.662296 63.17258 
L 62.886745 59.524662 
L 63.335645 64.894105 
L 63.560095 65.824089 
L 63.784544 61.312076 
L 64.008994 61.756766 
L 64.233444 64.255358 
L 64.457893 62.184441 
L 64.682343 71.5331 
L 64.906793 66.476869 
L 65.131242 58.827648 
L 65.355692 64.922159 
L 65.580142 66.588031 
L 65.804591 78.056501 
L 66.029041 62.349643 
L 66.477941 70.435424 
L 66.70239 67.240644 
L 66.92684 60.14401 
L 67.15129 64.498747 
L 67.375739 63.289175 
L 67.600189 67.706244 
L 67.824639 68.428681 
L 68.049088 67.101418 
L 68.273538 61.853638 
L 68.497988 74.823094 
L 68.722438 61.100155 
L 68.946887 64.889324 
L 69.171337 72.998927 
L 69.395787 62.95278 
L 69.620236 65.00764 
L 69.844686 65.144548 
L 70.069136 49.717136 
L 70.293585 60.859551 
L 70.742485 65.223586 
L 70.966935 64.178789 
L 71.191384 66.068905 
L 71.415834 74.137394 
L 71.640284 70.45361 
L 71.864733 70.265438 
L 72.089183 66.768398 
L 72.313633 69.119446 
L 72.538082 66.920987 
L 72.762532 66.534774 
L 72.986982 68.312359 
L 73.211431 79.433617 
L 73.435881 66.262813 
L 73.660331 70.659357 
L 73.884781 69.941951 
L 74.10923 75.487954 
L 74.33368 65.280032 
L 74.55813 65.94026 
L 74.782579 62.203634 
L 75.007029 62.101479 
L 75.455928 65.275968 
L 75.904828 76.623443 
L 76.353727 63.56271 
L 76.578177 79.180189 
L 76.802627 68.68085 
L 77.027076 71.218978 
L 77.251526 67.906854 
L 77.475976 67.870177 
L 77.700425 72.300229 
L 77.924875 65.019551 
L 78.149325 67.211353 
L 78.598224 64.835546 
L 78.822674 65.771209 
L 79.047124 64.331193 
L 79.271573 60.675246 
L 79.496023 69.675335 
L 79.720473 69.128993 
L 79.944922 70.182439 
L 80.169372 67.932084 
L 80.393822 71.392609 
L 80.842721 68.689977 
L 81.067171 62.729807 
L 81.291621 80.839445 
L 81.51607 62.311387 
L 81.74052 69.426604 
L 81.96497 64.32576 
L 82.189419 65.545832 
L 82.413869 81.738307 
L 82.638319 66.387093 
L 82.862768 70.474492 
L 83.087218 65.749591 
L 83.311668 65.762463 
L 83.536117 69.367308 
L 83.760567 66.894243 
L 83.985017 65.662448 
L 84.209467 67.684077 
L 84.433916 63.311083 
L 84.658366 71.971859 
L 84.882816 63.808694 
L 85.107265 68.496603 
L 85.331715 67.905214 
L 85.780614 58.809865 
L 86.005064 62.546813 
L 86.229514 89.153364 
L 86.453964 63.067374 
L 86.678413 67.909455 
L 86.902863 62.79273 
L 87.127313 63.228863 
L 87.351762 65.663197 
L 87.576212 62.324646 
L 87.800662 66.990463 
L 88.025111 63.677818 
L 88.474011 70.095405 
L 88.69846 57.995569 
L 88.92291 64.7748 
L 89.14736 60.484876 
L 89.37181 63.554021 
L 89.596259 70.172917 
L 89.820709 62.520757 
L 90.045159 61.559903 
L 90.269608 64.412105 
L 90.494058 58.355771 
L 90.718508 66.856812 
L 90.942957 67.048347 
L 91.167407 64.078355 
L 91.391857 65.695977 
L 91.616307 62.030611 
L 91.840756 65.076949 
L 92.065206 60.740758 
L 92.514105 66.968059 
L 92.738555 61.645184 
L 92.963005 76.187221 
L 93.187454 61.922996 
L 93.411904 58.682316 
L 93.860804 70.482919 
L 94.085253 67.372605 
L 94.309703 62.472533 
L 94.534153 73.029778 
L 94.758602 63.634101 
L 94.983052 67.46372 
L 95.207502 63.263013 
L 95.431951 66.423026 
L 95.880851 68.641224 
L 96.1053 62.300568 
L 96.32975 63.705779 
L 96.5542 64.249494 
L 96.77865 73.161783 
L 97.003099 62.878077 
L 97.451999 67.659434 
L 97.676448 61.439321 
L 97.900898 76.99591 
L 98.125348 62.120198 
L 98.349797 68.722074 
L 98.574247 83.438136 
L 98.798697 69.531958 
L 99.023147 65.551392 
L 99.247596 70.877192 
L 99.472046 68.123238 
L 99.920945 60.739742 
L 100.145395 63.161907 
L 100.369845 62.980471 
L 100.818744 67.871124 
L 101.267643 61.105564 
L 101.492093 62.622649 
L 101.716543 67.148341 
L 101.940993 64.336062 
L 102.165442 71.113219 
L 102.389892 65.799122 
L 102.614342 69.599379 
L 102.838791 65.975282 
L 103.063241 66.094118 
L 103.287691 72.568741 
L 103.51214 69.074036 
L 103.73659 68.151659 
L 104.18549 60.736224 
L 104.409939 63.267947 
L 104.634389 72.231881 
L 104.858839 70.175673 
L 105.083288 63.483448 
L 105.532188 74.886978 
L 105.756637 62.196549 
L 105.981087 64.914636 
L 106.205537 69.421589 
L 106.429986 68.675948 
L 106.654436 63.094632 
L 106.878886 70.124291 
L 107.103336 69.237232 
L 107.327785 67.692196 
L 107.552235 62.7665 
L 107.776685 76.836471 
L 108.001134 66.997777 
L 108.225584 66.382242 
L 108.450034 67.332072 
L 108.674483 62.141107 
L 108.898933 61.458239 
L 109.123383 59.679358 
L 109.347833 70.345264 
L 109.796732 65.805504 
L 110.021182 66.78179 
L 110.245631 61.85237 
L 110.470081 65.478074 
L 110.694531 65.403986 
L 110.91898 63.299019 
L 111.14343 62.616542 
L 111.36788 63.267102 
L 111.592329 62.727561 
L 111.816779 73.123571 
L 112.265679 60.064346 
L 112.490128 71.01471 
L 112.714578 65.912682 
L 112.939028 69.190565 
L 113.163477 70.522307 
L 113.387927 70.178144 
L 113.612377 86.986566 
L 113.836826 66.550085 
L 114.061276 58.716298 
L 114.285726 61.733459 
L 114.510176 68.459211 
L 114.734625 64.553577 
L 114.959075 69.658423 
L 115.183525 62.305172 
L 115.407974 62.677742 
L 115.632424 86.119932 
L 116.081323 60.334745 
L 116.305773 65.959482 
L 116.530223 64.991089 
L 116.979122 66.054203 
L 117.203572 59.980418 
L 117.428022 67.482538 
L 117.652471 31.527273 
L 117.876921 67.43942 
L 118.101371 59.560334 
L 118.32582 67.03143 
L 118.55027 66.289034 
L 118.77472 64.584313 
L 118.999169 66.479736 
L 119.223619 60.431884 
L 119.672519 79.339767 
L 119.896968 63.878597 
L 120.121418 63.172427 
L 120.345868 70.433128 
L 120.570317 65.585628 
L 120.794767 69.676076 
L 121.019217 62.357657 
L 121.243666 59.448188 
L 121.468116 67.484354 
L 121.692566 79.575517 
L 121.917016 72.131638 
L 122.590365 68.216105 
L 122.814814 71.217036 
L 123.039264 61.27822 
L 123.263714 65.606696 
L 123.488163 72.406488 
L 123.712613 64.425738 
L 123.937063 64.862493 
L 124.161512 63.810544 
L 124.385962 64.621278 
L 124.610412 67.277923 
L 124.834862 67.37716 
L 125.059311 63.087801 
L 125.283761 67.530203 
L 125.508211 67.742347 
L 125.95711 72.283025 
L 126.18156 61.392296 
L 126.406009 63.615851 
L 126.630459 63.787348 
L 126.854909 68.799461 
L 127.079359 68.980299 
L 127.303808 68.709706 
L 127.528258 78.557129 
L 127.752708 64.974826 
L 128.201607 71.50744 
L 128.426057 70.982187 
L 128.650506 66.406152 
L 128.874956 71.751262 
L 129.099406 73.928654 
L 129.323855 68.077084 
L 129.548305 65.323639 
L 129.772755 77.747472 
L 130.221654 66.393878 
L 130.446104 72.536415 
L 130.670554 72.216074 
L 130.895003 66.224613 
L 131.119453 63.381315 
L 131.568352 71.024177 
L 131.792802 71.836123 
L 132.017252 74.752381 
L 132.241702 68.760015 
L 132.690601 71.172427 
L 132.915051 69.458777 
L 133.1395 73.662052 
L 133.36395 67.910096 
L 133.5884 71.249472 
L 133.812849 66.297442 
L 134.037299 64.810804 
L 134.486198 71.273967 
L 134.710648 69.579675 
L 134.935098 66.940064 
L 135.159548 66.837052 
L 135.383997 65.055154 
L 135.832897 71.317466 
L 136.057346 75.873644 
L 136.281796 68.424618 
L 136.506246 72.420087 
L 136.730695 81.857367 
L 137.179595 68.523971 
L 137.404045 80.966081 
L 137.628494 65.734011 
L 137.852944 72.828311 
L 138.077394 69.380917 
L 138.301843 68.214049 
L 138.526293 84.623566 
L 138.750743 69.773062 
L 138.975192 69.671378 
L 139.199642 68.076922 
L 139.424092 73.383638 
L 139.648542 69.963225 
L 139.872991 72.401121 
L 140.097441 68.744719 
L 140.321891 72.821786 
L 140.54634 68.359445 
L 140.77079 76.002792 
L 140.99524 68.440322 
L 141.219689 72.802305 
L 141.444139 74.330062 
L 141.893038 64.770877 
L 142.117488 69.241089 
L 142.341938 82.820732 
L 142.566388 67.933119 
L 142.790837 72.601028 
L 143.239737 67.321212 
L 143.464186 72.200433 
L 143.688636 69.448034 
L 143.913086 72.431252 
L 144.137535 71.650761 
L 144.361985 73.116777 
L 144.586435 78.981364 
L 144.810885 65.434158 
L 145.035334 71.704031 
L 145.259784 69.120626 
L 145.484234 72.017393 
L 145.708683 76.489958 
L 146.157583 68.943071 
L 146.382032 73.575816 
L 146.606482 66.053658 
L 146.830932 78.560317 
L 147.055381 73.985818 
L 147.279831 73.164398 
L 147.504281 75.014242 
L 147.728731 71.093075 
L 147.95318 74.102066 
L 148.17763 70.44761 
L 148.626529 75.192326 
L 148.850979 71.603165 
L 149.075429 85.214738 
L 149.299878 72.842142 
L 149.524328 69.004159 
L 149.973228 80.031353 
L 150.197677 77.749115 
L 150.422127 73.165328 
L 150.646577 81.131121 
L 150.871026 75.566892 
L 151.095476 78.568748 
L 151.319926 75.005839 
L 151.544375 79.835466 
L 151.768825 76.850304 
L 151.993275 80.071875 
L 152.217724 74.880668 
L 152.666624 81.571996 
L 152.891074 95.943176 
L 153.115523 75.578378 
L 153.339973 76.808654 
L 153.564423 80.547224 
L 153.788872 75.150417 
L 154.013322 82.538182 
L 154.237772 77.77858 
L 154.462221 84.16832 
L 154.686671 87.349086 
L 155.135571 82.021517 
L 155.36002 85.882942 
L 155.58447 79.768703 
L 155.80892 79.951236 
L 156.033369 76.342779 
L 156.257819 78.375312 
L 156.482269 78.37513 
L 156.931168 82.605985 
L 157.380067 78.560625 
L 157.604517 79.475766 
L 157.828967 83.339311 
L 158.053417 79.161304 
L 158.277866 88.921177 
L 158.502316 81.28889 
L 158.726766 81.29808 
L 158.951215 82.626205 
L 159.400115 88.141233 
L 159.624564 82.971939 
L 159.849014 87.913722 
L 160.073464 79.032973 
L 160.297914 75.548437 
L 160.522363 78.106191 
L 160.971263 87.836507 
L 161.195712 77.207362 
L 161.420162 82.967901 
L 161.644612 93.933636 
L 161.869061 76.342481 
L 162.317961 82.074701 
L 162.76686 77.234622 
L 162.99131 85.071145 
L 163.440209 78.504586 
L 163.664659 77.455173 
L 163.889109 90.815431 
L 164.113558 81.698514 
L 164.338008 78.874136 
L 164.562458 79.803343 
L 164.786907 74.510707 
L 165.011357 74.218331 
L 165.235807 71.139008 
L 165.460257 81.976796 
L 165.684706 78.801563 
L 165.909156 78.359674 
L 166.133606 79.212371 
L 166.358055 72.796444 
L 166.582505 78.019384 
L 166.806955 77.608665 
L 167.031404 74.237313 
L 167.255854 73.640747 
L 167.480304 75.3138 
L 167.704754 73.266856 
L 167.929203 81.0338 
L 168.378103 70.415286 
L 168.602552 79.689184 
L 168.827002 77.542961 
L 169.051452 78.614988 
L 169.275901 81.346981 
L 169.500351 81.362428 
L 169.724801 85.455527 
L 170.1737 68.349642 
L 170.39815 71.053627 
L 170.6226 77.819875 
L 170.847049 74.100929 
L 171.071499 80.270844 
L 171.295949 71.525743 
L 171.520398 71.931104 
L 171.744848 88.63252 
L 172.193747 69.054659 
L 172.418197 74.613588 
L 172.642647 72.986635 
L 172.867097 74.749188 
L 173.091546 73.966584 
L 173.315996 68.648193 
L 173.540446 76.429341 
L 173.764895 39.786692 
L 173.989345 75.994 
L 174.213795 68.222632 
L 174.438244 73.921603 
L 174.662694 73.658523 
L 174.887144 73.031874 
L 175.111593 73.377104 
L 175.336043 68.076807 
L 175.784943 87.879585 
L 176.009392 71.302635 
L 176.233842 70.662758 
L 176.458292 80.942741 
L 176.682741 73.070408 
L 176.907191 75.671707 
L 177.35609 66.434658 
L 177.80499 86.926554 
L 178.02944 78.248243 
L 178.253889 76.7171 
L 178.478339 76.439381 
L 178.702789 74.529202 
L 178.927238 77.437763 
L 179.151688 68.183456 
L 179.376138 72.300437 
L 179.600587 78.515395 
L 179.825037 70.522461 
L 180.049487 71.336471 
L 180.273936 70.180537 
L 180.498386 70.673157 
L 180.722836 73.242903 
L 180.947286 73.685699 
L 181.171735 69.683802 
L 181.396185 73.846328 
L 181.620635 73.379802 
L 181.845084 75.136788 
L 182.069534 78.742272 
L 182.293984 67.448284 
L 182.518433 69.037701 
L 182.742883 69.506465 
L 182.967333 74.546018 
L 183.191783 74.754909 
L 183.416232 74.431066 
L 183.640682 81.127005 
L 183.865132 71.085623 
L 184.089581 74.830865 
L 184.538481 76.489125 
L 184.76293 71.265517 
L 184.98738 76.371486 
L 185.21183 77.541079 
L 185.660729 70.722318 
L 185.885179 83.423718 
L 186.334078 72.00641 
L 186.558528 80.215673 
L 186.782978 78.474785 
L 187.007427 71.088668 
L 187.231877 68.53984 
L 187.680776 76.134041 
L 187.905226 76.301594 
L 188.129676 80.541063 
L 188.354126 73.958744 
L 188.578575 73.815681 
L 188.803025 75.937168 
L 189.027475 73.708523 
L 189.251924 78.275401 
L 189.476374 72.379884 
L 189.700824 76.050908 
L 189.925273 70.624736 
L 190.149723 69.13661 
L 190.598623 75.808621 
L 190.823072 74.224497 
L 191.047522 71.72437 
L 191.271972 70.720944 
L 191.496421 68.775499 
L 192.16977 79.849715 
L 192.39422 72.959057 
L 192.61867 76.612121 
L 192.843119 84.144109 
L 193.292019 71.851839 
L 193.516469 83.04684 
L 193.740918 69.52329 
L 193.965368 77.021403 
L 194.189818 73.261435 
L 194.414267 71.633359 
L 194.638717 88.388251 
L 194.863167 73.587652 
L 195.087616 72.907168 
L 195.312066 71.402324 
L 195.536516 76.221381 
L 195.760966 74.07435 
L 195.985415 75.789828 
L 195.985415 75.789828 
" clip-path="url(#p2ee3854285)" style="fill: none; stroke: #808080; stroke-width: 0.8; stroke-linecap: square"/>
   </g>
   <g id="line2d_9">
    <path d="M 61.764497 66.065538 
L 61.988947 60.57506 
L 62.213396 62.5337 
L 62.437846 63.207344 
L 62.662296 66.11209 
L 62.886745 59.403348 
L 63.111195 65.103388 
L 63.335645 66.669422 
L 63.560095 66.26654 
L 63.784544 62.193836 
L 64.008994 62.093057 
L 64.233444 62.718891 
L 64.457893 61.520736 
L 64.682343 72.362186 
L 64.906793 63.415918 
L 65.355692 67.435898 
L 65.580142 66.990213 
L 65.804591 77.887683 
L 66.029041 63.489945 
L 66.253491 63.516251 
L 66.477941 68.466022 
L 66.70239 64.849739 
L 66.92684 67.261931 
L 67.375739 62.012616 
L 67.600189 73.36338 
L 67.824639 65.773682 
L 68.049088 75.558869 
L 68.273538 66.01264 
L 68.497988 68.31503 
L 68.722438 62.825839 
L 68.946887 86.814556 
L 69.171337 66.201489 
L 69.395787 66.396395 
L 69.620236 67.382577 
L 69.844686 66.297979 
L 70.069136 50.893674 
L 70.293585 66.887101 
L 70.518035 71.547634 
L 70.966935 65.589741 
L 71.191384 71.167236 
L 71.415834 79.975774 
L 71.640284 70.958859 
L 71.864733 77.06657 
L 72.089183 68.745981 
L 72.313633 76.153744 
L 72.538082 68.169834 
L 72.762532 70.871807 
L 72.986982 66.436695 
L 73.211431 67.151566 
L 73.435881 77.736213 
L 73.660331 70.177858 
L 73.884781 75.309742 
L 74.10923 68.524186 
L 74.33368 66.790783 
L 74.55813 68.748096 
L 74.782579 68.68594 
L 75.007029 74.585399 
L 75.455928 67.103939 
L 75.680378 71.091264 
L 75.904828 71.728378 
L 76.129278 68.085375 
L 76.353727 67.238167 
L 76.578177 68.960993 
L 76.802627 77.235854 
L 77.027076 79.430304 
L 77.251526 77.330219 
L 77.475976 73.501384 
L 77.700425 67.399447 
L 77.924875 73.344735 
L 78.149325 72.814952 
L 78.373774 71.078854 
L 78.598224 71.889172 
L 79.047124 93.654888 
L 79.271573 70.172994 
L 79.496023 69.572821 
L 79.720473 75.951989 
L 79.944922 75.556871 
L 80.169372 73.652491 
L 80.393822 80.735347 
L 80.618271 69.932076 
L 80.842721 73.993551 
L 81.067171 71.16391 
L 81.291621 74.748859 
L 81.51607 81.71559 
L 81.74052 82.325994 
L 82.189419 67.810249 
L 82.413869 75.750668 
L 82.638319 76.859119 
L 82.862768 68.82546 
L 83.087218 72.236909 
L 83.311668 71.862897 
L 83.536117 74.994207 
L 83.760567 80.773183 
L 83.985017 75.157403 
L 84.209467 79.968709 
L 84.433916 80.690634 
L 84.658366 88.938654 
L 84.882816 81.480627 
L 85.107265 89.597902 
L 85.331715 75.465915 
L 85.556165 75.39911 
L 85.780614 71.600891 
L 86.229514 80.309961 
L 86.453964 76.009945 
L 86.678413 75.254682 
L 86.902863 77.027041 
L 87.127313 72.752798 
L 87.351762 77.333562 
L 87.576212 76.601597 
L 88.025111 86.085389 
L 88.249561 75.95537 
L 88.474011 87.827524 
L 88.69846 86.885721 
L 89.14736 75.012179 
L 89.37181 73.554865 
L 89.596259 76.681517 
L 89.820709 73.707168 
L 90.269608 79.919371 
L 90.494058 73.59576 
L 90.718508 73.353602 
L 90.942957 76.960272 
L 91.167407 83.205643 
L 91.391857 76.611525 
L 91.616307 79.685504 
L 91.840756 74.853075 
L 92.065206 79.914219 
L 92.289656 76.864644 
L 92.738555 77.328333 
L 92.963005 81.798318 
L 93.187454 75.655168 
L 93.411904 76.752768 
L 93.636354 80.258098 
L 93.860804 74.885652 
L 94.085253 80.952823 
L 94.309703 81.54537 
L 94.534153 83.687063 
L 94.983052 75.777919 
L 95.207502 77.841114 
L 95.431951 84.347933 
L 95.656401 75.304247 
L 95.880851 83.960421 
L 96.32975 77.223109 
L 96.5542 75.626036 
L 97.003099 77.981178 
L 97.227549 88.317275 
L 97.451999 76.181223 
L 97.676448 81.734642 
L 97.900898 82.96244 
L 98.125348 72.99095 
L 98.349797 83.316668 
L 98.574247 76.909506 
L 98.798697 80.715124 
L 99.023147 82.395585 
L 99.247596 75.900575 
L 99.472046 79.18953 
L 99.696496 90.321914 
L 99.920945 81.640023 
L 100.145395 79.240106 
L 100.369845 81.406285 
L 100.818744 87.92732 
L 101.043194 77.113976 
L 101.267643 85.147593 
L 101.492093 84.609662 
L 101.716543 86.869128 
L 101.940993 83.668049 
L 102.614342 80.162554 
L 102.838791 78.101736 
L 103.063241 82.616996 
L 103.287691 81.947942 
L 103.51214 88.914849 
L 103.73659 81.581739 
L 103.96104 77.890376 
L 104.18549 78.876589 
L 104.409939 88.979309 
L 104.634389 81.377591 
L 104.858839 84.004001 
L 105.083288 84.567467 
L 105.307738 87.20664 
L 105.532188 79.359825 
L 105.756637 79.904572 
L 106.205537 83.213961 
L 106.429986 87.720051 
L 106.654436 84.209949 
L 106.878886 82.638654 
L 107.103336 86.790548 
L 107.327785 88.735104 
L 107.776685 79.32748 
L 108.001134 83.367398 
L 108.225584 81.100442 
L 108.450034 90.802512 
L 108.674483 84.973692 
L 108.898933 83.73206 
L 109.123383 86.535717 
L 109.347833 84.656389 
L 109.572282 84.355023 
L 109.796732 88.956732 
L 110.021182 86.919465 
L 110.245631 81.838798 
L 110.470081 81.091475 
L 110.694531 83.091951 
L 110.91898 82.278826 
L 111.14343 82.454393 
L 111.36788 84.369876 
L 111.592329 84.996992 
L 111.816779 81.612401 
L 112.041229 82.599637 
L 112.265679 88.448727 
L 112.714578 77.229254 
L 112.939028 81.259173 
L 113.163477 81.55443 
L 113.612377 85.228156 
L 113.836826 85.435973 
L 114.285726 85.310751 
L 114.510176 81.321704 
L 114.734625 82.845402 
L 114.959075 83.011951 
L 115.183525 91.134483 
L 115.407974 78.93183 
L 115.856874 89.935564 
L 116.081323 84.803902 
L 116.305773 84.112383 
L 116.530223 82.63857 
L 116.754673 83.027504 
L 116.979122 86.640183 
L 117.203572 87.547683 
L 117.428022 80.564475 
L 117.652471 80.999563 
L 117.876921 85.546526 
L 118.101371 80.042159 
L 118.55027 88.643482 
L 118.77472 87.488396 
L 118.999169 92.98757 
L 119.223619 86.737078 
L 119.448069 88.836786 
L 119.672519 87.932029 
L 119.896968 90.300419 
L 120.121418 82.97366 
L 120.345868 84.486715 
L 120.570317 93.796061 
L 120.794767 82.712809 
L 121.243666 93.149582 
L 121.468116 88.775403 
L 121.692566 87.813353 
L 121.917016 82.432104 
L 122.141465 88.003708 
L 122.365915 90.254658 
L 122.590365 101.213581 
L 122.814814 90.118416 
L 123.039264 85.689072 
L 123.263714 86.027197 
L 123.712613 88.14442 
L 123.937063 80.794482 
L 124.161512 84.249553 
L 124.834862 87.211406 
L 125.059311 84.304385 
L 125.283761 87.021904 
L 125.508211 85.361593 
L 125.73266 94.992666 
L 125.95711 87.425894 
L 126.18156 86.954461 
L 126.406009 87.624216 
L 126.630459 79.479814 
L 126.854909 91.813766 
L 127.079359 94.821965 
L 127.303808 84.800546 
L 127.528258 83.079307 
L 127.752708 86.521355 
L 127.977157 83.581447 
L 128.201607 86.579401 
L 128.426057 83.17962 
L 128.650506 82.486614 
L 128.874956 87.327715 
L 129.099406 83.702612 
L 129.548305 89.292615 
L 129.772755 87.550963 
L 129.997205 95.887887 
L 130.221654 86.172729 
L 130.446104 85.073059 
L 130.670554 81.880268 
L 130.895003 87.832738 
L 131.119453 83.350917 
L 131.343903 84.524908 
L 131.568352 89.216951 
L 131.792802 97.371844 
L 132.017252 84.340431 
L 132.241702 84.724612 
L 132.466151 87.36312 
L 132.690601 83.017291 
L 133.1395 91.300346 
L 133.36395 83.224752 
L 133.812849 88.674485 
L 134.037299 89.606107 
L 134.261749 88.407509 
L 134.486198 92.267767 
L 134.935098 82.886871 
L 135.383997 86.760243 
L 135.608447 96.056763 
L 135.832897 83.23603 
L 136.057346 92.857308 
L 136.281796 81.824922 
L 136.506246 87.896293 
L 136.730695 90.854698 
L 136.955145 89.824676 
L 137.179595 91.029432 
L 137.404045 85.760383 
L 137.628494 89.868589 
L 137.852944 96.6059 
L 138.301843 90.266062 
L 138.526293 90.009263 
L 138.750743 83.652937 
L 138.975192 92.112081 
L 139.199642 90.838473 
L 139.424092 90.88563 
L 139.648542 83.037209 
L 139.872991 89.203423 
L 140.097441 88.950839 
L 140.321891 82.671907 
L 140.54634 94.074485 
L 140.77079 88.089206 
L 140.99524 90.716134 
L 141.219689 84.424529 
L 141.444139 93.083678 
L 141.668589 86.179381 
L 141.893038 85.615533 
L 142.117488 92.379179 
L 142.341938 93.797837 
L 142.566388 85.609414 
L 142.790837 89.218661 
L 143.015287 84.784138 
L 143.239737 83.733304 
L 143.464186 87.05833 
L 143.688636 87.641449 
L 143.913086 95.608492 
L 144.137535 83.824117 
L 144.361985 88.525332 
L 144.586435 88.433433 
L 144.810885 87.338666 
L 145.035334 90.802725 
L 145.484234 87.41756 
L 145.708683 87.58629 
L 145.933133 86.170389 
L 146.157583 89.580839 
L 146.382032 85.978501 
L 146.830932 88.972899 
L 147.055381 90.899285 
L 147.279831 82.623532 
L 147.504281 91.69302 
L 147.728731 89.98827 
L 147.95318 84.992519 
L 148.17763 90.816304 
L 148.40208 89.957831 
L 148.626529 94.464382 
L 148.850979 86.559936 
L 149.299878 90.56442 
L 149.524328 98.287997 
L 149.748778 87.915337 
L 149.973228 90.218078 
L 150.197677 89.793635 
L 150.422127 87.563132 
L 150.646577 91.52999 
L 150.871026 86.353284 
L 151.319926 95.511028 
L 151.544375 92.169904 
L 151.768825 91.159005 
L 151.993275 93.203413 
L 152.442174 89.448043 
L 152.666624 84.54487 
L 152.891074 96.124795 
L 153.115523 90.700808 
L 153.339973 88.745842 
L 153.564423 89.458459 
L 153.788872 98.850642 
L 154.013322 85.787584 
L 154.237772 95.348794 
L 154.462221 96.181004 
L 154.686671 87.782684 
L 154.911121 93.26736 
L 155.135571 89.073709 
L 155.36002 95.829411 
L 155.58447 84.632134 
L 156.033369 98.263883 
L 156.257819 90.50334 
L 156.482269 94.994996 
L 156.706718 92.383859 
L 156.931168 97.408365 
L 157.380067 87.537407 
L 157.604517 89.949019 
L 157.828967 88.1103 
L 158.277866 91.143764 
L 158.502316 94.186835 
L 158.726766 89.286253 
L 158.951215 89.381287 
L 159.175665 87.315959 
L 159.400115 103.296603 
L 159.624564 92.526776 
L 159.849014 88.540018 
L 160.297914 92.985736 
L 160.522363 88.350464 
L 160.746813 96.983426 
L 160.971263 91.40587 
L 161.195712 91.011429 
L 161.420162 93.48428 
L 161.644612 92.93092 
L 161.869061 92.891726 
L 162.093511 103.502866 
L 162.317961 92.39496 
L 162.542411 88.249313 
L 162.76686 89.97695 
L 162.99131 89.214471 
L 163.21576 90.755234 
L 163.664659 85.185464 
L 163.889109 89.741335 
L 164.113558 87.243758 
L 164.338008 90.689231 
L 164.562458 97.118212 
L 165.011357 91.113166 
L 165.235807 88.483872 
L 165.460257 91.607708 
L 165.684706 91.434368 
L 165.909156 88.030723 
L 166.133606 89.914454 
L 166.358055 89.731453 
L 166.582505 92.765339 
L 166.806955 89.936892 
L 167.031404 92.977555 
L 167.704754 86.418563 
L 167.929203 89.134693 
L 168.153653 93.67781 
L 168.378103 103.45102 
L 168.827002 86.888895 
L 169.051452 124.472727 
L 169.275901 91.113195 
L 169.500351 99.583832 
L 169.724801 89.225837 
L 169.94925 92.726705 
L 170.1737 86.873367 
L 170.39815 102.375163 
L 170.6226 89.051721 
L 171.071499 97.43308 
L 171.295949 96.733682 
L 171.744848 88.517354 
L 171.969298 89.57765 
L 172.193747 96.932247 
L 172.418197 99.12164 
L 172.642647 93.401164 
L 172.867097 94.978224 
L 173.091546 88.365278 
L 173.315996 88.546386 
L 173.540446 97.858789 
L 173.764895 93.108317 
L 173.989345 107.980432 
L 174.213795 90.347019 
L 174.662694 89.799491 
L 174.887144 90.413184 
L 175.111593 88.311015 
L 175.336043 94.676918 
L 175.560493 97.441458 
L 175.784943 96.112611 
L 176.009392 96.498284 
L 176.233842 90.396455 
L 176.458292 87.777298 
L 176.682741 98.480388 
L 176.907191 93.931081 
L 177.131641 92.960882 
L 177.58054 92.792855 
L 177.80499 90.118484 
L 178.02944 93.546279 
L 178.253889 89.80358 
L 178.478339 98.88247 
L 178.702789 93.816209 
L 178.927238 95.873579 
L 179.151688 87.8688 
L 179.376138 97.77603 
L 179.600587 90.937144 
L 179.825037 93.735657 
L 180.049487 93.42145 
L 180.273936 91.599832 
L 180.498386 93.301544 
L 180.722836 91.945588 
L 180.947286 93.496288 
L 181.171735 92.693453 
L 181.396185 90.699563 
L 181.620635 95.178341 
L 181.845084 90.334632 
L 182.069534 96.662718 
L 182.293984 89.054865 
L 182.742883 95.601222 
L 182.967333 90.079304 
L 183.191783 101.033809 
L 183.416232 103.223974 
L 183.640682 103.861064 
L 183.865132 90.410502 
L 184.089581 95.196774 
L 184.314031 91.422492 
L 184.538481 92.664845 
L 184.76293 98.905757 
L 185.21183 90.758774 
L 185.43628 97.703301 
L 185.660729 92.218942 
L 185.885179 97.724405 
L 186.109629 99.706016 
L 186.334078 88.305566 
L 186.558528 91.169838 
L 186.782978 96.222005 
L 187.007427 95.48037 
L 187.231877 92.55622 
L 187.456327 98.489901 
L 187.905226 91.759663 
L 188.354126 96.669277 
L 188.578575 99.099158 
L 189.027475 91.231736 
L 189.251924 96.141001 
L 189.476374 91.188411 
L 189.700824 89.422843 
L 189.925273 95.220622 
L 190.149723 95.08032 
L 190.374173 97.138731 
L 190.598623 97.602704 
L 190.823072 94.319218 
L 191.047522 98.06697 
L 191.271972 96.987637 
L 191.496421 92.266732 
L 191.720871 103.205336 
L 191.945321 96.737077 
L 192.39422 92.16052 
L 192.61867 93.373206 
L 192.843119 93.322999 
L 193.067569 103.143464 
L 193.292019 92.009322 
L 193.516469 98.316604 
L 193.740918 96.786296 
L 193.965368 98.04319 
L 194.189818 90.134841 
L 194.414267 107.939573 
L 194.638717 96.636354 
L 194.863167 91.754258 
L 195.087616 101.757762 
L 195.312066 94.185181 
L 195.536516 91.985517 
L 195.760966 95.002675 
L 195.985415 92.825116 
L 195.985415 92.825116 
" clip-path="url(#p2ee3854285)" style="fill: none; stroke: #1e90ff; stroke-width: 0.8; stroke-linecap: square"/>
   </g>
   <g id="line2d_10">
    <path d="M 61.764497 70.639614 
L 61.988947 56.165182 
L 62.213396 58.512301 
L 62.437846 63.532524 
L 62.662296 63.562998 
L 62.886745 58.448697 
L 63.335645 64.486719 
L 63.560095 65.811605 
L 63.784544 60.85208 
L 64.008994 60.79722 
L 64.233444 64.180511 
L 64.457893 62.032598 
L 64.682343 71.274429 
L 65.131242 58.600186 
L 65.355692 64.930154 
L 65.580142 66.144025 
L 65.804591 77.569004 
L 66.029041 62.310941 
L 66.477941 70.293227 
L 66.70239 67.006161 
L 66.92684 60.283566 
L 67.15129 64.692208 
L 67.375739 63.413677 
L 67.600189 67.549504 
L 67.824639 68.746092 
L 68.049088 67.713411 
L 68.273538 62.15878 
L 68.497988 76.174054 
L 68.722438 61.255102 
L 68.946887 65.067381 
L 69.171337 72.594151 
L 69.395787 62.927338 
L 69.620236 64.790512 
L 69.844686 65.145697 
L 70.069136 49.710315 
L 70.293585 60.64678 
L 70.742485 65.107105 
L 70.966935 64.057877 
L 71.191384 65.903947 
L 71.415834 73.935936 
L 71.640284 70.379785 
L 71.864733 70.24976 
L 72.089183 66.565335 
L 72.313633 68.966647 
L 72.538082 66.901701 
L 72.762532 66.476286 
L 72.986982 68.079382 
L 73.211431 79.097776 
L 73.435881 66.293244 
L 73.660331 70.569649 
L 73.884781 69.90267 
L 74.10923 75.24354 
L 74.33368 65.342878 
L 74.55813 65.91883 
L 74.782579 62.115408 
L 75.007029 62.166146 
L 75.455928 65.326459 
L 75.904828 76.673957 
L 76.353727 63.679076 
L 76.578177 79.674685 
L 76.802627 68.856613 
L 77.027076 71.439344 
L 77.251526 67.986727 
L 77.475976 67.871645 
L 77.700425 72.362507 
L 77.924875 65.121666 
L 78.149325 67.322459 
L 78.598224 64.834921 
L 78.822674 65.894528 
L 79.047124 64.334721 
L 79.271573 60.601692 
L 79.496023 69.528917 
L 79.720473 69.17859 
L 79.944922 70.130622 
L 80.169372 67.809387 
L 80.393822 71.214332 
L 80.842721 68.659736 
L 81.067171 62.598227 
L 81.291621 80.520264 
L 81.51607 62.304697 
L 81.74052 69.436993 
L 81.96497 64.238509 
L 82.189419 65.469192 
L 82.413869 82.262013 
L 82.638319 66.349162 
L 82.862768 70.428585 
L 83.087218 65.723931 
L 83.311668 65.837244 
L 83.536117 69.37555 
L 83.760567 66.821405 
L 83.985017 65.660227 
L 84.209467 67.815269 
L 84.433916 63.31889 
L 84.658366 72.108313 
L 84.882816 63.893956 
L 85.107265 68.701647 
L 85.331715 68.091992 
L 85.780614 58.880354 
L 86.005064 62.694025 
L 86.229514 90.479948 
L 86.453964 63.070033 
L 86.678413 67.854212 
L 86.902863 62.888072 
L 87.127313 63.229766 
L 87.351762 65.660939 
L 87.576212 62.340163 
L 87.800662 67.099296 
L 88.025111 63.625083 
L 88.474011 70.194931 
L 88.69846 57.974801 
L 88.92291 64.652464 
L 89.14736 60.370181 
L 89.37181 63.485283 
L 89.596259 70.205713 
L 89.820709 62.457937 
L 90.045159 61.444584 
L 90.269608 64.295223 
L 90.494058 58.333234 
L 90.718508 66.911447 
L 90.942957 66.907803 
L 91.167407 64.017008 
L 91.391857 65.792254 
L 91.616307 62.04652 
L 91.840756 65.07074 
L 92.065206 60.74917 
L 92.514105 66.910802 
L 92.738555 61.651748 
L 92.963005 76.335605 
L 93.187454 62.07206 
L 93.411904 58.755425 
L 93.860804 70.68903 
L 94.085253 67.584091 
L 94.309703 62.555368 
L 94.534153 73.240213 
L 94.758602 63.631166 
L 94.983052 67.626378 
L 95.207502 63.271853 
L 95.431951 66.352634 
L 95.880851 68.746853 
L 96.1053 62.285271 
L 96.32975 63.664103 
L 96.5542 64.212023 
L 96.77865 73.02274 
L 97.003099 62.788015 
L 97.451999 67.632284 
L 97.676448 61.434803 
L 97.900898 77.02587 
L 98.125348 61.996972 
L 98.349797 68.722473 
L 98.574247 83.386551 
L 98.798697 69.39952 
L 99.023147 65.465161 
L 99.247596 70.846559 
L 99.472046 68.215523 
L 99.920945 60.656565 
L 100.145395 63.146375 
L 100.369845 63.096287 
L 100.818744 67.913685 
L 101.267643 61.209931 
L 101.492093 62.680908 
L 101.716543 67.178535 
L 101.940993 64.416357 
L 102.165442 71.324735 
L 102.389892 65.963104 
L 102.614342 69.564815 
L 102.838791 66.128514 
L 103.063241 66.318751 
L 103.287691 72.745303 
L 103.51214 69.107807 
L 103.73659 68.109834 
L 104.18549 60.793325 
L 104.409939 63.140198 
L 104.634389 72.20046 
L 104.858839 70.208516 
L 105.083288 63.395781 
L 105.532188 74.474461 
L 105.756637 62.142873 
L 105.981087 64.724042 
L 106.205537 69.290389 
L 106.429986 68.654863 
L 106.654436 63.077514 
L 106.878886 70.061542 
L 107.103336 69.115484 
L 107.327785 67.630834 
L 107.552235 62.738164 
L 107.776685 76.55899 
L 108.001134 66.861325 
L 108.225584 66.338241 
L 108.450034 67.297961 
L 108.674483 62.083062 
L 108.898933 61.343103 
L 109.123383 59.638473 
L 109.347833 70.643991 
L 109.796732 65.794694 
L 110.021182 67.014012 
L 110.245631 62.123705 
L 110.470081 65.570019 
L 110.694531 65.430829 
L 110.91898 63.584863 
L 111.14343 63.036146 
L 111.36788 63.49286 
L 111.592329 62.650375 
L 111.816779 73.302942 
L 112.265679 60.197744 
L 112.490128 71.058143 
L 112.714578 65.879149 
L 112.939028 69.381449 
L 113.163477 70.480474 
L 113.387927 69.820551 
L 113.612377 84.792807 
L 113.836826 66.587375 
L 114.061276 58.540694 
L 114.285726 61.324867 
L 114.510176 67.754235 
L 114.734625 64.770212 
L 114.959075 68.934309 
L 115.183525 61.44894 
L 115.407974 62.135856 
L 115.632424 87.79888 
L 116.081323 59.291725 
L 116.305773 64.730593 
L 116.530223 65.258988 
L 116.754673 64.551226 
L 116.979122 64.92255 
L 117.203572 59.235934 
L 117.428022 70.920658 
L 117.652471 74.674163 
L 117.876921 70.625265 
L 118.101371 58.951632 
L 118.32582 65.823086 
L 118.55027 64.970496 
L 118.77472 64.811816 
L 118.999169 65.164823 
L 119.223619 59.402083 
L 119.672519 80.088771 
L 119.896968 63.325727 
L 120.121418 62.341439 
L 120.345868 69.741774 
L 120.570317 65.742909 
L 120.794767 69.066981 
L 121.019217 61.945634 
L 121.243666 59.256384 
L 121.692566 78.724057 
L 121.917016 71.666247 
L 122.590365 68.133338 
L 122.814814 71.348011 
L 123.039264 61.425239 
L 123.263714 65.91109 
L 123.488163 72.672201 
L 123.712613 64.356527 
L 123.937063 65.069409 
L 124.161512 64.229064 
L 124.385962 64.916332 
L 124.610412 67.343237 
L 124.834862 67.44115 
L 125.059311 63.351934 
L 125.283761 67.769976 
L 125.508211 67.759283 
L 125.95711 72.623408 
L 126.18156 61.345974 
L 126.406009 63.509177 
L 126.630459 63.738334 
L 126.854909 68.786519 
L 127.079359 68.946274 
L 127.303808 68.571452 
L 127.528258 78.360207 
L 127.752708 64.960545 
L 128.201607 71.38565 
L 128.426057 70.936226 
L 128.650506 66.397611 
L 128.874956 71.70847 
L 129.099406 73.793029 
L 129.323855 67.877519 
L 129.548305 65.268733 
L 129.772755 77.52998 
L 129.997205 73.038344 
L 130.221654 66.312946 
L 130.446104 72.575281 
L 130.670554 72.181088 
L 130.895003 66.095668 
L 131.119453 63.423448 
L 131.568352 70.981506 
L 131.792802 71.852596 
L 132.017252 74.875866 
L 132.241702 68.972218 
L 132.690601 71.155862 
L 132.915051 69.633802 
L 133.1395 73.899187 
L 133.36395 67.977585 
L 133.5884 71.27779 
L 133.812849 66.362438 
L 134.037299 64.920316 
L 134.486198 71.302945 
L 135.383997 64.977286 
L 135.832897 71.395669 
L 136.057346 75.888837 
L 136.281796 68.317623 
L 136.506246 72.283767 
L 136.730695 82.140788 
L 137.179595 68.39441 
L 137.404045 80.964373 
L 137.628494 65.724211 
L 137.852944 72.822706 
L 138.077394 69.296212 
L 138.301843 68.128311 
L 138.526293 84.311702 
L 138.750743 69.730949 
L 138.975192 69.622793 
L 139.199642 68.055559 
L 139.424092 73.505409 
L 139.648542 69.961502 
L 139.872991 72.327453 
L 140.097441 68.753706 
L 140.321891 72.972128 
L 140.54634 68.369771 
L 140.77079 76.133953 
L 140.99524 68.517638 
L 141.219689 73.006362 
L 141.444139 74.531042 
L 141.893038 64.847044 
L 142.117488 69.386858 
L 142.341938 83.024355 
L 142.566388 67.939192 
L 142.790837 72.555509 
L 143.015287 70.562606 
L 143.239737 67.325077 
L 143.464186 72.174088 
L 143.688636 69.464224 
L 143.913086 72.517708 
L 144.137535 71.59966 
L 144.361985 72.988987 
L 144.586435 79.120421 
L 144.810885 65.412544 
L 145.035334 71.588904 
L 145.259784 69.006466 
L 145.484234 71.9428 
L 145.708683 76.51914 
L 146.157583 68.826622 
L 146.382032 73.44339 
L 146.606482 66.032009 
L 146.830932 78.665015 
L 147.055381 73.861749 
L 147.279831 73.103753 
L 147.504281 75.110518 
L 147.728731 71.104875 
L 147.95318 74.059926 
L 148.17763 70.45969 
L 148.626529 75.161229 
L 148.850979 71.602597 
L 149.075429 85.421608 
L 149.299878 72.989032 
L 149.524328 69.077462 
L 149.973228 80.256073 
L 150.197677 77.936392 
L 150.422127 73.248102 
L 150.646577 81.242845 
L 150.871026 75.562538 
L 151.095476 78.706527 
L 151.319926 75.013236 
L 151.544375 79.762959 
L 151.768825 76.850069 
L 151.993275 80.195712 
L 152.217724 74.86415 
L 152.666624 81.567295 
L 152.891074 95.536909 
L 153.115523 75.499182 
L 153.339973 76.708757 
L 153.564423 80.520768 
L 153.788872 75.141725 
L 154.013322 82.477565 
L 154.237772 77.659527 
L 154.462221 84.165268 
L 154.686671 87.429769 
L 155.135571 81.940996 
L 155.36002 85.883336 
L 155.58447 79.825491 
L 155.80892 79.876556 
L 156.033369 76.258081 
L 156.257819 78.365514 
L 156.482269 78.47595 
L 156.931168 82.615446 
L 157.380067 78.671479 
L 157.604517 79.537887 
L 157.828967 83.369146 
L 158.053417 79.239433 
L 158.277866 89.191743 
L 158.502316 81.450708 
L 158.726766 81.273405 
L 158.951215 82.781265 
L 159.400115 88.267404 
L 159.624564 82.967287 
L 159.849014 87.803554 
L 160.073464 79.16318 
L 160.297914 75.599321 
L 160.522363 77.990082 
L 160.971263 87.710643 
L 161.195712 77.131279 
L 161.420162 82.880102 
L 161.644612 93.33313 
L 161.869061 76.299648 
L 162.317961 81.932537 
L 162.76686 77.226348 
L 162.99131 84.987288 
L 163.440209 78.415677 
L 163.664659 77.437144 
L 163.889109 90.581745 
L 164.113558 81.564726 
L 164.338008 78.829828 
L 164.562458 79.771179 
L 164.786907 74.453635 
L 165.011357 74.098437 
L 165.235807 71.104015 
L 165.460257 82.1788 
L 165.684706 78.841732 
L 165.909156 78.323379 
L 166.133606 79.458091 
L 166.358055 73.065331 
L 166.582505 78.101877 
L 166.806955 77.652394 
L 167.031404 74.532181 
L 167.255854 74.060164 
L 167.480304 75.516083 
L 167.704754 73.22961 
L 167.929203 81.184186 
L 168.378103 70.558002 
L 168.602552 79.743469 
L 168.827002 77.447397 
L 169.051452 78.80671 
L 169.275901 81.285558 
L 169.500351 80.948886 
L 169.724801 85.278234 
L 170.1737 68.169541 
L 170.39815 70.634349 
L 170.6226 77.15325 
L 170.847049 74.310739 
L 171.071499 79.498248 
L 171.295949 70.670526 
L 171.520398 71.395437 
L 171.744848 86.769182 
L 172.193747 68.012344 
L 172.418197 73.323467 
L 172.642647 73.103439 
L 172.867097 73.378174 
L 173.091546 72.603893 
L 173.315996 67.981106 
L 173.540446 78.958467 
L 173.764895 83.28514 
L 173.989345 78.978451 
L 174.213795 67.535164 
L 174.438244 72.68764 
L 174.662694 72.380313 
L 174.887144 73.157165 
L 175.111593 72.181802 
L 175.336043 67.025114 
L 175.784943 87.516395 
L 176.009392 70.78085 
L 176.233842 69.814444 
L 176.458292 80.085575 
L 176.682741 73.28281 
L 176.907191 75.06663 
L 177.131641 69.152004 
L 177.35609 66.250237 
L 177.80499 87.371122 
L 178.02944 77.811572 
L 178.253889 76.72129 
L 178.478339 76.638761 
L 178.702789 74.472799 
L 178.927238 77.515375 
L 179.151688 68.328569 
L 179.600587 78.76495 
L 179.825037 70.4604 
L 180.049487 71.541902 
L 180.273936 70.593402 
L 180.498386 70.961492 
L 180.722836 73.308565 
L 180.947286 73.767825 
L 181.171735 69.957193 
L 181.396185 74.081353 
L 181.620635 73.374241 
L 181.845084 75.156163 
L 182.069534 79.060297 
L 182.293984 67.40365 
L 182.518433 68.926089 
L 182.742883 69.451372 
L 182.967333 74.518118 
L 183.191783 74.703088 
L 183.416232 74.284487 
L 183.640682 80.926293 
L 183.865132 71.060332 
L 184.089581 74.761875 
L 184.538481 76.415282 
L 184.76293 71.249961 
L 184.98738 76.344492 
L 185.21183 77.401233 
L 185.660729 70.666218 
L 185.885179 83.108203 
L 186.334078 71.920601 
L 186.558528 80.239556 
L 186.782978 78.458479 
L 187.007427 70.9642 
L 187.231877 68.586683 
L 187.680776 76.092749 
L 187.905226 76.325053 
L 188.129676 80.666165 
L 188.354126 74.177963 
L 188.578575 73.980864 
L 188.803025 75.907066 
L 189.027475 73.879751 
L 189.251924 78.505428 
L 189.476374 72.452379 
L 189.700824 76.085118 
L 189.925273 70.688208 
L 190.149723 69.245335 
L 190.598623 75.839155 
L 190.823072 74.2432 
L 191.047522 71.84068 
L 191.271972 70.706551 
L 191.496421 68.693916 
L 192.16977 79.869135 
L 192.39422 72.857525 
L 192.61867 76.481714 
L 192.843119 84.339264 
L 193.292019 71.725224 
L 193.516469 82.95798 
L 193.740918 69.51211 
L 193.965368 77.018262 
L 194.189818 73.177631 
L 194.414267 71.548915 
L 194.638717 88.287914 
L 194.863167 73.555296 
L 195.087616 72.861383 
L 195.312066 71.382947 
L 195.536516 76.34532 
L 195.760966 74.068003 
L 195.985415 75.717031 
L 195.985415 75.717031 
" clip-path="url(#p2ee3854285)" style="fill: none; stroke: #ff0000; stroke-width: 0.8; stroke-linecap: square"/>
   </g>
   <g id="patch_3">
    <path d="M 59.52 129.12 
L 59.52 26.88 
" style="fill: none; stroke: #000000; stroke-width: 0.8; stroke-linejoin: miter; stroke-linecap: square"/>
   </g>
   <g id="patch_4">
    <path d="M 198.454362 129.12 
L 198.454362 26.88 
" style="fill: none; stroke: #000000; stroke-width: 0.8; stroke-linejoin: miter; stroke-linecap: square"/>
   </g>
   <g id="patch_5">
    <path d="M 59.52 129.12 
L 198.454362 129.12 
" style="fill: none; stroke: #000000; stroke-width: 0.8; stroke-linejoin: miter; stroke-linecap: square"/>
   </g>
   <g id="patch_6">
    <path d="M 59.52 26.88 
L 198.454362 26.88 
" style="fill: none; stroke: #000000; stroke-width: 0.8; stroke-linejoin: miter; stroke-linecap: square"/>
   </g>
   <g id="text_10">
    <!-- Frequency Domain Plot -->
    <g transform="translate(59.587806 20.88) scale(0.12 -0.12)">
     <defs>
      <path id="DejaVuSans-44" d="M 1259 4147 
L 1259 519 
L 2022 519 
Q 2988 519 3436 956 
Q 3884 1394 3884 2338 
Q 3884 3275 3436 3711 
Q 2988 4147 2022 4147 
L 1259 4147 
z
M 628 4666 
L 1925 4666 
Q 3281 4666 3915 4102 
Q 4550 3538 4550 2338 
Q 4550 1131 3912 565 
Q 3275 0 1925 0 
L 628 0 
L 628 4666 
z
" transform="scale(0.015625)"/>
      <path id="DejaVuSans-6d" d="M 3328 2828 
Q 3544 3216 3844 3400 
Q 4144 3584 4550 3584 
Q 5097 3584 5394 3201 
Q 5691 2819 5691 2113 
L 5691 0 
L 5113 0 
L 5113 2094 
Q 5113 2597 4934 2840 
Q 4756 3084 4391 3084 
Q 3944 3084 3684 2787 
Q 3425 2491 3425 1978 
L 3425 0 
L 2847 0 
L 2847 2094 
Q 2847 2600 2669 2842 
Q 2491 3084 2119 3084 
Q 1678 3084 1418 2786 
Q 1159 2488 1159 1978 
L 1159 0 
L 581 0 
L 581 3500 
L 1159 3500 
L 1159 2956 
Q 1356 3278 1631 3431 
Q 1906 3584 2284 3584 
Q 2666 3584 2933 3390 
Q 3200 3197 3328 2828 
z
" transform="scale(0.015625)"/>
      <path id="DejaVuSans-61" d="M 2194 1759 
Q 1497 1759 1228 1600 
Q 959 1441 959 1056 
Q 959 750 1161 570 
Q 1363 391 1709 391 
Q 2188 391 2477 730 
Q 2766 1069 2766 1631 
L 2766 1759 
L 2194 1759 
z
M 3341 1997 
L 3341 0 
L 2766 0 
L 2766 531 
Q 2569 213 2275 61 
Q 1981 -91 1556 -91 
Q 1019 -91 701 211 
Q 384 513 384 1019 
Q 384 1609 779 1909 
Q 1175 2209 1959 2209 
L 2766 2209 
L 2766 2266 
Q 2766 2663 2505 2880 
Q 2244 3097 1772 3097 
Q 1472 3097 1187 3025 
Q 903 2953 641 2809 
L 641 3341 
Q 956 3463 1253 3523 
Q 1550 3584 1831 3584 
Q 2591 3584 2966 3190 
Q 3341 2797 3341 1997 
z
" transform="scale(0.015625)"/>
      <path id="DejaVuSans-69" d="M 603 3500 
L 1178 3500 
L 1178 0 
L 603 0 
L 603 3500 
z
M 603 4863 
L 1178 4863 
L 1178 4134 
L 603 4134 
L 603 4863 
z
" transform="scale(0.015625)"/>
      <path id="DejaVuSans-50" d="M 1259 4147 
L 1259 2394 
L 2053 2394 
Q 2494 2394 2734 2622 
Q 2975 2850 2975 3272 
Q 2975 3691 2734 3919 
Q 2494 4147 2053 4147 
L 1259 4147 
z
M 628 4666 
L 2053 4666 
Q 2838 4666 3239 4311 
Q 3641 3956 3641 3272 
Q 3641 2581 3239 2228 
Q 2838 1875 2053 1875 
L 1259 1875 
L 1259 0 
L 628 0 
L 628 4666 
z
" transform="scale(0.015625)"/>
      <path id="DejaVuSans-6c" d="M 603 4863 
L 1178 4863 
L 1178 0 
L 603 0 
L 603 4863 
z
" transform="scale(0.015625)"/>
      <path id="DejaVuSans-74" d="M 1172 4494 
L 1172 3500 
L 2356 3500 
L 2356 3053 
L 1172 3053 
L 1172 1153 
Q 1172 725 1289 603 
Q 1406 481 1766 481 
L 2356 481 
L 2356 0 
L 1766 0 
Q 1100 0 847 248 
Q 594 497 594 1153 
L 594 3053 
L 172 3053 
L 172 3500 
L 594 3500 
L 594 4494 
L 1172 4494 
z
" transform="scale(0.015625)"/>
     </defs>
     <use xlink:href="#DejaVuSans-46"/>
     <use xlink:href="#DejaVuSans-72" x="50.269531"/>
     <use xlink:href="#DejaVuSans-65" x="89.132812"/>
     <use xlink:href="#DejaVuSans-71" x="150.65625"/>
     <use xlink:href="#DejaVuSans-75" x="214.132812"/>
     <use xlink:href="#DejaVuSans-65" x="277.511719"/>
     <use xlink:href="#DejaVuSans-6e" x="339.035156"/>
     <use xlink:href="#DejaVuSans-63" x="402.414062"/>
     <use xlink:href="#DejaVuSans-79" x="457.394531"/>
     <use xlink:href="#DejaVuSans-20" x="516.574219"/>
     <use xlink:href="#DejaVuSans-44" x="548.361328"/>
     <use xlink:href="#DejaVuSans-6f" x="625.363281"/>
     <use xlink:href="#DejaVuSans-6d" x="686.544922"/>
     <use xlink:href="#DejaVuSans-61" x="783.957031"/>
     <use xlink:href="#DejaVuSans-69" x="845.236328"/>
     <use xlink:href="#DejaVuSans-6e" x="873.019531"/>
     <use xlink:href="#DejaVuSans-20" x="936.398438"/>
     <use xlink:href="#DejaVuSans-50" x="968.185547"/>
     <use xlink:href="#DejaVuSans-6c" x="1028.488281"/>
     <use xlink:href="#DejaVuSans-6f" x="1056.271484"/>
     <use xlink:href="#DejaVuSans-74" x="1117.453125"/>
    </g>
   </g>
   <g id="legend_1">
    <g id="patch_7">
     <path d="M 19.939691 158.292 
L 50.807816 158.292 
Q 51.407816 158.292 51.407816 157.692 
L 51.407816 144.781688 
Q 51.407816 144.181688 50.807816 144.181688 
L 19.939691 144.181688 
Q 19.339691 144.181688 19.339691 144.781688 
L 19.339691 157.692 
Q 19.339691 158.292 19.939691 158.292 
z
" style="fill: #ffffff; opacity: 0.8; stroke: #cccccc; stroke-linejoin: miter"/>
    </g>
    <g id="line2d_11">
     <path d="M 20.539691 146.611219 
L 23.539691 146.611219 
L 26.539691 146.611219 
" style="fill: none; stroke: #808080; stroke-width: 0.8; stroke-linecap: square"/>
    </g>
    <g id="text_11">
     <!-- Contaminated -->
     <g transform="translate(28.939691 147.661219) scale(0.03 -0.03)">
      <defs>
       <path id="DejaVuSans-43" d="M 4122 4306 
L 4122 3641 
Q 3803 3938 3442 4084 
Q 3081 4231 2675 4231 
Q 1875 4231 1450 3742 
Q 1025 3253 1025 2328 
Q 1025 1406 1450 917 
Q 1875 428 2675 428 
Q 3081 428 3442 575 
Q 3803 722 4122 1019 
L 4122 359 
Q 3791 134 3420 21 
Q 3050 -91 2638 -91 
Q 1578 -91 968 557 
Q 359 1206 359 2328 
Q 359 3453 968 4101 
Q 1578 4750 2638 4750 
Q 3056 4750 3426 4639 
Q 3797 4528 4122 4306 
z
" transform="scale(0.015625)"/>
      </defs>
      <use xlink:href="#DejaVuSans-43"/>
      <use xlink:href="#DejaVuSans-6f" x="69.824219"/>
      <use xlink:href="#DejaVuSans-6e" x="131.005859"/>
      <use xlink:href="#DejaVuSans-74" x="194.384766"/>
      <use xlink:href="#DejaVuSans-61" x="233.59375"/>
      <use xlink:href="#DejaVuSans-6d" x="294.873047"/>
      <use xlink:href="#DejaVuSans-69" x="392.285156"/>
      <use xlink:href="#DejaVuSans-6e" x="420.068359"/>
      <use xlink:href="#DejaVuSans-61" x="483.447266"/>
      <use xlink:href="#DejaVuSans-74" x="544.726562"/>
      <use xlink:href="#DejaVuSans-65" x="583.935547"/>
      <use xlink:href="#DejaVuSans-64" x="645.458984"/>
     </g>
    </g>
    <g id="line2d_12">
     <path d="M 20.539691 151.014656 
L 23.539691 151.014656 
L 26.539691 151.014656 
" style="fill: none; stroke: #1e90ff; stroke-width: 0.8; stroke-linecap: square"/>
    </g>
    <g id="text_12">
     <!-- Clean -->
     <g transform="translate(28.939691 152.064656) scale(0.03 -0.03)">
      <use xlink:href="#DejaVuSans-43"/>
      <use xlink:href="#DejaVuSans-6c" x="69.824219"/>
      <use xlink:href="#DejaVuSans-65" x="97.607422"/>
      <use xlink:href="#DejaVuSans-61" x="159.130859"/>
      <use xlink:href="#DejaVuSans-6e" x="220.410156"/>
     </g>
    </g>
    <g id="line2d_13">
     <path d="M 20.539691 155.418094 
L 23.539691 155.418094 
L 26.539691 155.418094 
" style="fill: none; stroke: #ff0000; stroke-width: 0.8; stroke-linecap: square"/>
    </g>
    <g id="text_13">
     <!-- SACed -->
     <g transform="translate(28.939691 156.468094) scale(0.03 -0.03)">
      <defs>
       <path id="DejaVuSans-53" d="M 3425 4513 
L 3425 3897 
Q 3066 4069 2747 4153 
Q 2428 4238 2131 4238 
Q 1616 4238 1336 4038 
Q 1056 3838 1056 3469 
Q 1056 3159 1242 3001 
Q 1428 2844 1947 2747 
L 2328 2669 
Q 3034 2534 3370 2195 
Q 3706 1856 3706 1288 
Q 3706 609 3251 259 
Q 2797 -91 1919 -91 
Q 1588 -91 1214 -16 
Q 841 59 441 206 
L 441 856 
Q 825 641 1194 531 
Q 1563 422 1919 422 
Q 2459 422 2753 634 
Q 3047 847 3047 1241 
Q 3047 1584 2836 1778 
Q 2625 1972 2144 2069 
L 1759 2144 
Q 1053 2284 737 2584 
Q 422 2884 422 3419 
Q 422 4038 858 4394 
Q 1294 4750 2059 4750 
Q 2388 4750 2728 4690 
Q 3069 4631 3425 4513 
z
" transform="scale(0.015625)"/>
       <path id="DejaVuSans-41" d="M 2188 4044 
L 1331 1722 
L 3047 1722 
L 2188 4044 
z
M 1831 4666 
L 2547 4666 
L 4325 0 
L 3669 0 
L 3244 1197 
L 1141 1197 
L 716 0 
L 50 0 
L 1831 4666 
z
" transform="scale(0.015625)"/>
      </defs>
      <use xlink:href="#DejaVuSans-53"/>
      <use xlink:href="#DejaVuSans-41" x="65.351562"/>
      <use xlink:href="#DejaVuSans-43" x="132.009766"/>
      <use xlink:href="#DejaVuSans-65" x="201.833984"/>
      <use xlink:href="#DejaVuSans-64" x="263.357422"/>
     </g>
    </g>
   </g>
  </g>
 </g>
 <defs>
  <clipPath id="p2ee3854285">
   <rect x="59.52" y="26.88" width="138.934362" height="102.24"/>
  </clipPath>
 </defs>
</svg>
