<?xml version="1.0" encoding="utf-8" standalone="no"?>
<!DOCTYPE svg PUBLIC "-//W3C//DTD SVG 1.1//EN"
  "http://www.w3.org/Graphics/SVG/1.1/DTD/svg11.dtd">
<svg xmlns:xlink="http://www.w3.org/1999/xlink" width="216pt" height="180pt" viewBox="0 0 216 180" xmlns="http://www.w3.org/2000/svg" version="1.1">
 <metadata>
  <rdf:RDF xmlns:dc="http://purl.org/dc/elements/1.1/" xmlns:cc="http://creativecommons.org/ns#" xmlns:rdf="http://www.w3.org/1999/02/22-rdf-syntax-ns#">
   <cc:Work>
    <dc:type rdf:resource="http://purl.org/dc/dcmitype/StillImage"/>
    <dc:date>2024-08-24T14:24:53.160332</dc:date>
    <dc:format>image/svg+xml</dc:format>
    <dc:creator>
     <cc:Agent>
      <dc:title>Matplotlib v3.9.1.post1, https://matplotlib.org/</dc:title>
     </cc:Agent>
    </dc:creator>
   </cc:Work>
  </rdf:RDF>
 </metadata>
 <defs>
  <style type="text/css">*{stroke-linejoin: round; stroke-linecap: butt}</style>
 </defs>
 <g id="figure_1">
  <g id="patch_1">
   <path d="M 0 180 
L 216 180 
L 216 0 
L 0 0 
z
" style="fill: #ffffff"/>
  </g>
  <g id="axes_1">
   <g id="patch_2">
    <path d="M 59.52 129.12 
L 197.469952 129.12 
L 197.469952 26.88 
L 59.52 26.88 
z
" style="fill: #ffffff"/>
   </g>
   <g id="matplotlib.axis_1">
    <g id="xtick_1">
     <g id="line2d_1">
      <defs>
       <path id="m0d105b4349" d="M 0 0 
L 0 3.5 
" style="stroke: #000000; stroke-width: 0.8"/>
      </defs>
      <g>
       <use xlink:href="#m0d105b4349" x="62.106562" y="129.12" style="stroke: #000000; stroke-width: 0.8"/>
      </g>
     </g>
     <g id="text_1">
      <!-- 1.00 -->
      <g transform="translate(50.973749 143.718437) scale(0.1 -0.1)">
       <defs>
        <path id="DejaVuSans-31" d="M 794 531 
L 1825 531 
L 1825 4091 
L 703 3866 
L 703 4441 
L 1819 4666 
L 2450 4666 
L 2450 531 
L 3481 531 
L 3481 0 
L 794 0 
L 794 531 
z
" transform="scale(0.015625)"/>
        <path id="DejaVuSans-2e" d="M 684 794 
L 1344 794 
L 1344 0 
L 684 0 
L 684 794 
z
" transform="scale(0.015625)"/>
        <path id="DejaVuSans-30" d="M 2034 4250 
Q 1547 4250 1301 3770 
Q 1056 3291 1056 2328 
Q 1056 1369 1301 889 
Q 1547 409 2034 409 
Q 2525 409 2770 889 
Q 3016 1369 3016 2328 
Q 3016 3291 2770 3770 
Q 2525 4250 2034 4250 
z
M 2034 4750 
Q 2819 4750 3233 4129 
Q 3647 3509 3647 2328 
Q 3647 1150 3233 529 
Q 2819 -91 2034 -91 
Q 1250 -91 836 529 
Q 422 1150 422 2328 
Q 422 3509 836 4129 
Q 1250 4750 2034 4750 
z
" transform="scale(0.015625)"/>
       </defs>
       <use xlink:href="#DejaVuSans-31"/>
       <use xlink:href="#DejaVuSans-2e" x="63.623047"/>
       <use xlink:href="#DejaVuSans-30" x="95.410156"/>
       <use xlink:href="#DejaVuSans-30" x="159.033203"/>
      </g>
     </g>
    </g>
    <g id="xtick_2">
     <g id="line2d_2">
      <g>
       <use xlink:href="#m0d105b4349" x="128.412073" y="129.12" style="stroke: #000000; stroke-width: 0.8"/>
      </g>
     </g>
     <g id="text_2">
      <!-- 1.25 -->
      <g transform="translate(117.279261 143.718437) scale(0.1 -0.1)">
       <defs>
        <path id="DejaVuSans-32" d="M 1228 531 
L 3431 531 
L 3431 0 
L 469 0 
L 469 531 
Q 828 903 1448 1529 
Q 2069 2156 2228 2338 
Q 2531 2678 2651 2914 
Q 2772 3150 2772 3378 
Q 2772 3750 2511 3984 
Q 2250 4219 1831 4219 
Q 1534 4219 1204 4116 
Q 875 4013 500 3803 
L 500 4441 
Q 881 4594 1212 4672 
Q 1544 4750 1819 4750 
Q 2544 4750 2975 4387 
Q 3406 4025 3406 3419 
Q 3406 3131 3298 2873 
Q 3191 2616 2906 2266 
Q 2828 2175 2409 1742 
Q 1991 1309 1228 531 
z
" transform="scale(0.015625)"/>
        <path id="DejaVuSans-35" d="M 691 4666 
L 3169 4666 
L 3169 4134 
L 1269 4134 
L 1269 2991 
Q 1406 3038 1543 3061 
Q 1681 3084 1819 3084 
Q 2600 3084 3056 2656 
Q 3513 2228 3513 1497 
Q 3513 744 3044 326 
Q 2575 -91 1722 -91 
Q 1428 -91 1123 -41 
Q 819 9 494 109 
L 494 744 
Q 775 591 1075 516 
Q 1375 441 1709 441 
Q 2250 441 2565 725 
Q 2881 1009 2881 1497 
Q 2881 1984 2565 2268 
Q 2250 2553 1709 2553 
Q 1456 2553 1204 2497 
Q 953 2441 691 2322 
L 691 4666 
z
" transform="scale(0.015625)"/>
       </defs>
       <use xlink:href="#DejaVuSans-31"/>
       <use xlink:href="#DejaVuSans-2e" x="63.623047"/>
       <use xlink:href="#DejaVuSans-32" x="95.410156"/>
       <use xlink:href="#DejaVuSans-35" x="159.033203"/>
      </g>
     </g>
    </g>
    <g id="xtick_3">
     <g id="line2d_3">
      <g>
       <use xlink:href="#m0d105b4349" x="194.717585" y="129.12" style="stroke: #000000; stroke-width: 0.8"/>
      </g>
     </g>
     <g id="text_3">
      <!-- 1.50 -->
      <g transform="translate(183.584773 143.718437) scale(0.1 -0.1)">
       <use xlink:href="#DejaVuSans-31"/>
       <use xlink:href="#DejaVuSans-2e" x="63.623047"/>
       <use xlink:href="#DejaVuSans-35" x="95.410156"/>
       <use xlink:href="#DejaVuSans-30" x="159.033203"/>
      </g>
     </g>
    </g>
    <g id="text_4">
     <!-- Time (s) -->
     <g transform="translate(108.16607 157.396563) scale(0.1 -0.1)">
      <defs>
       <path id="DejaVuSans-54" d="M -19 4666 
L 3928 4666 
L 3928 4134 
L 2272 4134 
L 2272 0 
L 1638 0 
L 1638 4134 
L -19 4134 
L -19 4666 
z
" transform="scale(0.015625)"/>
       <path id="DejaVuSans-69" d="M 603 3500 
L 1178 3500 
L 1178 0 
L 603 0 
L 603 3500 
z
M 603 4863 
L 1178 4863 
L 1178 4134 
L 603 4134 
L 603 4863 
z
" transform="scale(0.015625)"/>
       <path id="DejaVuSans-6d" d="M 3328 2828 
Q 3544 3216 3844 3400 
Q 4144 3584 4550 3584 
Q 5097 3584 5394 3201 
Q 5691 2819 5691 2113 
L 5691 0 
L 5113 0 
L 5113 2094 
Q 5113 2597 4934 2840 
Q 4756 3084 4391 3084 
Q 3944 3084 3684 2787 
Q 3425 2491 3425 1978 
L 3425 0 
L 2847 0 
L 2847 2094 
Q 2847 2600 2669 2842 
Q 2491 3084 2119 3084 
Q 1678 3084 1418 2786 
Q 1159 2488 1159 1978 
L 1159 0 
L 581 0 
L 581 3500 
L 1159 3500 
L 1159 2956 
Q 1356 3278 1631 3431 
Q 1906 3584 2284 3584 
Q 2666 3584 2933 3390 
Q 3200 3197 3328 2828 
z
" transform="scale(0.015625)"/>
       <path id="DejaVuSans-65" d="M 3597 1894 
L 3597 1613 
L 953 1613 
Q 991 1019 1311 708 
Q 1631 397 2203 397 
Q 2534 397 2845 478 
Q 3156 559 3463 722 
L 3463 178 
Q 3153 47 2828 -22 
Q 2503 -91 2169 -91 
Q 1331 -91 842 396 
Q 353 884 353 1716 
Q 353 2575 817 3079 
Q 1281 3584 2069 3584 
Q 2775 3584 3186 3129 
Q 3597 2675 3597 1894 
z
M 3022 2063 
Q 3016 2534 2758 2815 
Q 2500 3097 2075 3097 
Q 1594 3097 1305 2825 
Q 1016 2553 972 2059 
L 3022 2063 
z
" transform="scale(0.015625)"/>
       <path id="DejaVuSans-20" transform="scale(0.015625)"/>
       <path id="DejaVuSans-28" d="M 1984 4856 
Q 1566 4138 1362 3434 
Q 1159 2731 1159 2009 
Q 1159 1288 1364 580 
Q 1569 -128 1984 -844 
L 1484 -844 
Q 1016 -109 783 600 
Q 550 1309 550 2009 
Q 550 2706 781 3412 
Q 1013 4119 1484 4856 
L 1984 4856 
z
" transform="scale(0.015625)"/>
       <path id="DejaVuSans-73" d="M 2834 3397 
L 2834 2853 
Q 2591 2978 2328 3040 
Q 2066 3103 1784 3103 
Q 1356 3103 1142 2972 
Q 928 2841 928 2578 
Q 928 2378 1081 2264 
Q 1234 2150 1697 2047 
L 1894 2003 
Q 2506 1872 2764 1633 
Q 3022 1394 3022 966 
Q 3022 478 2636 193 
Q 2250 -91 1575 -91 
Q 1294 -91 989 -36 
Q 684 19 347 128 
L 347 722 
Q 666 556 975 473 
Q 1284 391 1588 391 
Q 1994 391 2212 530 
Q 2431 669 2431 922 
Q 2431 1156 2273 1281 
Q 2116 1406 1581 1522 
L 1381 1569 
Q 847 1681 609 1914 
Q 372 2147 372 2553 
Q 372 3047 722 3315 
Q 1072 3584 1716 3584 
Q 2034 3584 2315 3537 
Q 2597 3491 2834 3397 
z
" transform="scale(0.015625)"/>
       <path id="DejaVuSans-29" d="M 513 4856 
L 1013 4856 
Q 1481 4119 1714 3412 
Q 1947 2706 1947 2009 
Q 1947 1309 1714 600 
Q 1481 -109 1013 -844 
L 513 -844 
Q 928 -128 1133 580 
Q 1338 1288 1338 2009 
Q 1338 2731 1133 3434 
Q 928 4138 513 4856 
z
" transform="scale(0.015625)"/>
      </defs>
      <use xlink:href="#DejaVuSans-54"/>
      <use xlink:href="#DejaVuSans-69" x="57.958984"/>
      <use xlink:href="#DejaVuSans-6d" x="85.742188"/>
      <use xlink:href="#DejaVuSans-65" x="183.154297"/>
      <use xlink:href="#DejaVuSans-20" x="244.677734"/>
      <use xlink:href="#DejaVuSans-28" x="276.464844"/>
      <use xlink:href="#DejaVuSans-73" x="315.478516"/>
      <use xlink:href="#DejaVuSans-29" x="367.578125"/>
     </g>
    </g>
   </g>
   <g id="matplotlib.axis_2">
    <g id="ytick_1">
     <g id="line2d_4">
      <defs>
       <path id="mdeb396e233" d="M 0 0 
L -3.5 0 
" style="stroke: #000000; stroke-width: 0.8"/>
      </defs>
      <g>
       <use xlink:href="#mdeb396e233" x="59.52" y="114.831986" style="stroke: #000000; stroke-width: 0.8"/>
      </g>
     </g>
     <g id="text_5">
      <!-- −40 -->
      <g transform="translate(31.415312 118.631205) scale(0.1 -0.1)">
       <defs>
        <path id="DejaVuSans-2212" d="M 678 2272 
L 4684 2272 
L 4684 1741 
L 678 1741 
L 678 2272 
z
" transform="scale(0.015625)"/>
        <path id="DejaVuSans-34" d="M 2419 4116 
L 825 1625 
L 2419 1625 
L 2419 4116 
z
M 2253 4666 
L 3047 4666 
L 3047 1625 
L 3713 1625 
L 3713 1100 
L 3047 1100 
L 3047 0 
L 2419 0 
L 2419 1100 
L 313 1100 
L 313 1709 
L 2253 4666 
z
" transform="scale(0.015625)"/>
       </defs>
       <use xlink:href="#DejaVuSans-2212"/>
       <use xlink:href="#DejaVuSans-34" x="83.789062"/>
       <use xlink:href="#DejaVuSans-30" x="147.412109"/>
      </g>
     </g>
    </g>
    <g id="ytick_2">
     <g id="line2d_5">
      <g>
       <use xlink:href="#mdeb396e233" x="59.52" y="86.081484" style="stroke: #000000; stroke-width: 0.8"/>
      </g>
     </g>
     <g id="text_6">
      <!-- −20 -->
      <g transform="translate(31.415312 89.880702) scale(0.1 -0.1)">
       <use xlink:href="#DejaVuSans-2212"/>
       <use xlink:href="#DejaVuSans-32" x="83.789062"/>
       <use xlink:href="#DejaVuSans-30" x="147.412109"/>
      </g>
     </g>
    </g>
    <g id="ytick_3">
     <g id="line2d_6">
      <g>
       <use xlink:href="#mdeb396e233" x="59.52" y="57.330981" style="stroke: #000000; stroke-width: 0.8"/>
      </g>
     </g>
     <g id="text_7">
      <!-- 0 -->
      <g transform="translate(46.1575 61.1302) scale(0.1 -0.1)">
       <use xlink:href="#DejaVuSans-30"/>
      </g>
     </g>
    </g>
    <g id="ytick_4">
     <g id="line2d_7">
      <g>
       <use xlink:href="#mdeb396e233" x="59.52" y="28.580479" style="stroke: #000000; stroke-width: 0.8"/>
      </g>
     </g>
     <g id="text_8">
      <!-- 20 -->
      <g transform="translate(39.795 32.379697) scale(0.1 -0.1)">
       <use xlink:href="#DejaVuSans-32"/>
       <use xlink:href="#DejaVuSans-30" x="63.623047"/>
      </g>
     </g>
    </g>
    <g id="text_9">
     <!-- Amplitude (mV) -->
     <g transform="translate(25.335625 117.403906) rotate(-90) scale(0.1 -0.1)">
      <defs>
       <path id="DejaVuSans-41" d="M 2188 4044 
L 1331 1722 
L 3047 1722 
L 2188 4044 
z
M 1831 4666 
L 2547 4666 
L 4325 0 
L 3669 0 
L 3244 1197 
L 1141 1197 
L 716 0 
L 50 0 
L 1831 4666 
z
" transform="scale(0.015625)"/>
       <path id="DejaVuSans-70" d="M 1159 525 
L 1159 -1331 
L 581 -1331 
L 581 3500 
L 1159 3500 
L 1159 2969 
Q 1341 3281 1617 3432 
Q 1894 3584 2278 3584 
Q 2916 3584 3314 3078 
Q 3713 2572 3713 1747 
Q 3713 922 3314 415 
Q 2916 -91 2278 -91 
Q 1894 -91 1617 61 
Q 1341 213 1159 525 
z
M 3116 1747 
Q 3116 2381 2855 2742 
Q 2594 3103 2138 3103 
Q 1681 3103 1420 2742 
Q 1159 2381 1159 1747 
Q 1159 1113 1420 752 
Q 1681 391 2138 391 
Q 2594 391 2855 752 
Q 3116 1113 3116 1747 
z
" transform="scale(0.015625)"/>
       <path id="DejaVuSans-6c" d="M 603 4863 
L 1178 4863 
L 1178 0 
L 603 0 
L 603 4863 
z
" transform="scale(0.015625)"/>
       <path id="DejaVuSans-74" d="M 1172 4494 
L 1172 3500 
L 2356 3500 
L 2356 3053 
L 1172 3053 
L 1172 1153 
Q 1172 725 1289 603 
Q 1406 481 1766 481 
L 2356 481 
L 2356 0 
L 1766 0 
Q 1100 0 847 248 
Q 594 497 594 1153 
L 594 3053 
L 172 3053 
L 172 3500 
L 594 3500 
L 594 4494 
L 1172 4494 
z
" transform="scale(0.015625)"/>
       <path id="DejaVuSans-75" d="M 544 1381 
L 544 3500 
L 1119 3500 
L 1119 1403 
Q 1119 906 1312 657 
Q 1506 409 1894 409 
Q 2359 409 2629 706 
Q 2900 1003 2900 1516 
L 2900 3500 
L 3475 3500 
L 3475 0 
L 2900 0 
L 2900 538 
Q 2691 219 2414 64 
Q 2138 -91 1772 -91 
Q 1169 -91 856 284 
Q 544 659 544 1381 
z
M 1991 3584 
L 1991 3584 
z
" transform="scale(0.015625)"/>
       <path id="DejaVuSans-64" d="M 2906 2969 
L 2906 4863 
L 3481 4863 
L 3481 0 
L 2906 0 
L 2906 525 
Q 2725 213 2448 61 
Q 2172 -91 1784 -91 
Q 1150 -91 751 415 
Q 353 922 353 1747 
Q 353 2572 751 3078 
Q 1150 3584 1784 3584 
Q 2172 3584 2448 3432 
Q 2725 3281 2906 2969 
z
M 947 1747 
Q 947 1113 1208 752 
Q 1469 391 1925 391 
Q 2381 391 2643 752 
Q 2906 1113 2906 1747 
Q 2906 2381 2643 2742 
Q 2381 3103 1925 3103 
Q 1469 3103 1208 2742 
Q 947 2381 947 1747 
z
" transform="scale(0.015625)"/>
       <path id="DejaVuSans-56" d="M 1831 0 
L 50 4666 
L 709 4666 
L 2188 738 
L 3669 4666 
L 4325 4666 
L 2547 0 
L 1831 0 
z
" transform="scale(0.015625)"/>
      </defs>
      <use xlink:href="#DejaVuSans-41"/>
      <use xlink:href="#DejaVuSans-6d" x="68.408203"/>
      <use xlink:href="#DejaVuSans-70" x="165.820312"/>
      <use xlink:href="#DejaVuSans-6c" x="229.296875"/>
      <use xlink:href="#DejaVuSans-69" x="257.080078"/>
      <use xlink:href="#DejaVuSans-74" x="284.863281"/>
      <use xlink:href="#DejaVuSans-75" x="324.072266"/>
      <use xlink:href="#DejaVuSans-64" x="387.451172"/>
      <use xlink:href="#DejaVuSans-65" x="450.927734"/>
      <use xlink:href="#DejaVuSans-20" x="512.451172"/>
      <use xlink:href="#DejaVuSans-28" x="544.238281"/>
      <use xlink:href="#DejaVuSans-6d" x="583.251953"/>
      <use xlink:href="#DejaVuSans-56" x="680.664062"/>
      <use xlink:href="#DejaVuSans-29" x="749.072266"/>
     </g>
    </g>
   </g>
   <g id="line2d_8">
    <path d="M 62.172884 58.988095 
L 62.438172 33.002546 
L 62.570816 33.824659 
L 62.836105 39.425314 
L 63.234037 55.172687 
L 64.029902 119.54646 
L 64.162546 121.269602 
L 64.427835 41.036245 
L 64.560479 33.840565 
L 64.693123 34.674523 
L 64.958412 40.528499 
L 65.356344 56.286924 
L 66.152209 120.97732 
L 66.284853 122.732194 
L 66.550142 46.294986 
L 66.682786 40.950913 
L 66.81543 41.370739 
L 67.080719 45.087481 
L 67.478651 56.200456 
L 68.274516 102.105052 
L 68.40716 103.141379 
L 68.672449 40.251049 
L 68.805093 33.220608 
L 68.937737 33.694812 
L 69.203025 38.542419 
L 69.600958 52.469201 
L 70.396823 111.51717 
L 70.529467 113.11033 
L 70.794756 42.628627 
L 70.9274 37.972861 
L 71.060044 38.450458 
L 71.325332 41.996776 
L 71.723265 51.776955 
L 72.51913 93.594269 
L 72.651774 94.798519 
L 72.917063 42.366793 
L 73.049707 37.449515 
L 73.182351 38.129569 
L 73.447639 42.263948 
L 73.845572 53.42903 
L 74.641437 99.393844 
L 74.774081 100.618735 
L 75.03937 39.414106 
L 75.172014 32.442021 
L 75.304658 33.245098 
L 75.569946 39.042863 
L 75.967879 54.812677 
L 76.763744 118.663346 
L 76.896388 120.615432 
L 77.161677 48.145161 
L 77.294321 43.874673 
L 77.426965 44.540127 
L 77.692253 48.427866 
L 78.090186 58.542341 
L 78.886051 98.755477 
L 79.018695 99.808895 
L 79.283983 43.039365 
L 79.416628 35.760882 
L 79.549272 36.393019 
L 79.81456 41.624773 
L 80.212493 56.690117 
L 81.008358 120.546309 
L 81.141002 122.282487 
L 81.40629 46.849383 
L 81.538935 41.611072 
L 81.671579 42.012711 
L 81.936867 45.411739 
L 82.3348 55.75196 
L 83.130665 101.371388 
L 83.263309 102.638399 
L 83.528597 40.809941 
L 83.661242 33.54272 
L 83.793886 34.144587 
L 84.059174 39.503508 
L 84.457107 55.053771 
L 85.252972 119.515137 
L 85.385616 121.343842 
L 85.650904 41.605212 
L 85.783549 34.760778 
L 85.916193 35.540624 
L 86.181481 41.121337 
L 86.579414 56.397918 
L 87.375279 118.922348 
L 87.507923 120.810038 
L 87.773211 44.451755 
L 87.905855 37.894878 
L 88.0385 38.628315 
L 88.303788 43.766279 
L 88.701721 58.152918 
L 89.497586 117.582183 
L 89.63023 119.222669 
L 89.895518 45.897541 
L 90.028162 39.827415 
L 90.160807 40.316678 
L 90.426095 44.726077 
L 90.824028 57.17175 
L 91.619893 109.848857 
L 91.752537 111.228175 
L 92.017825 42.320501 
L 92.150469 35.438687 
L 92.283114 36.05153 
L 92.548402 41.149055 
L 92.946335 55.30922 
L 93.7422 114.773852 
L 93.874844 116.298972 
L 94.140132 40.370423 
L 94.272776 33.442478 
L 94.405421 33.905594 
L 94.670709 38.737987 
L 95.068641 53.19472 
L 95.864507 114.32902 
L 95.997151 116.097655 
L 96.262439 40.415751 
L 96.395083 33.785468 
L 96.527727 34.592815 
L 96.793016 40.070072 
L 97.190948 54.602111 
L 97.986814 115.401447 
L 98.119458 117.140592 
L 98.384746 40.311704 
L 98.51739 33.072229 
L 98.650034 33.894522 
L 98.915323 39.682157 
L 99.313255 55.939903 
L 100.10912 122.490267 
L 100.241765 124.249769 
L 100.507053 45.867874 
L 100.639697 40.310248 
L 100.772341 40.788424 
L 101.03763 44.792811 
L 101.435562 56.882373 
L 102.231427 105.932103 
L 102.364072 107.113288 
L 102.62936 42.094703 
L 102.762004 35.079453 
L 102.894648 35.474096 
L 103.159937 40.32831 
L 103.557869 54.537762 
L 104.353734 115.267411 
L 104.486379 117.035708 
L 104.751667 44.178871 
L 104.884311 38.824656 
L 105.016955 39.351186 
L 105.282244 43.447295 
L 105.680176 54.669474 
L 106.476041 102.29166 
L 106.608686 103.526424 
L 106.873974 45.031848 
L 107.006618 40.168566 
L 107.139262 40.555929 
L 107.404551 44.089785 
L 107.802483 54.573127 
L 108.598348 97.780188 
L 108.730992 99.010383 
L 108.996281 44.710157 
L 109.128925 39.708247 
L 109.261569 40.34673 
L 109.526858 44.581056 
L 109.92479 55.537775 
L 110.720655 101.008003 
L 110.853299 102.411864 
L 111.118588 48.136469 
L 111.251232 43.859422 
L 111.383876 44.39544 
L 111.649165 47.833907 
L 112.047097 57.390678 
L 112.842962 97.659946 
L 112.975606 98.808148 
L 113.240895 42.123005 
L 113.373539 34.800102 
L 113.506183 35.532789 
L 113.771471 41.145903 
L 114.169404 56.839282 
L 114.965269 122.110851 
L 115.097913 123.851737 
L 115.363202 44.41365 
L 115.495846 38.204582 
L 115.62849 38.724192 
L 115.893778 43.21227 
L 116.291711 56.096398 
L 117.087576 109.323767 
L 117.22022 110.815024 
L 117.485509 41.410692 
L 117.618153 34.648545 
L 117.750797 35.215102 
L 118.016085 40.079999 
L 118.414018 53.989087 
L 119.209883 113.290666 
L 119.342527 115.051927 
L 119.607816 41.552598 
L 119.74046 35.264528 
L 119.873104 35.90218 
L 120.138392 40.758892 
L 120.536325 54.441042 
L 121.33219 110.607889 
L 121.464834 112.272246 
L 121.730123 44.369258 
L 121.862767 38.961213 
L 121.995411 39.616015 
L 122.260699 44.044579 
L 122.658632 56.180921 
L 123.454497 105.519849 
L 123.587141 106.933209 
L 123.85243 44.049073 
L 123.985074 37.781863 
L 124.117718 38.443428 
L 124.383006 43.12511 
L 124.780939 56.65146 
L 125.576804 113.121663 
L 125.709448 114.697578 
L 125.974736 46.722249 
L 126.107381 41.522745 
L 126.240025 42.060273 
L 126.505313 46.006763 
L 126.903246 57.056272 
L 127.699111 103.313852 
L 127.831755 104.443349 
L 128.097043 44.206629 
L 128.229688 38.006928 
L 128.362332 38.321916 
L 128.62762 42.357431 
L 129.025553 54.920997 
L 129.821418 107.689322 
L 129.954062 109.045475 
L 130.21935 43.969597 
L 130.351995 38.9206 
L 130.484639 39.345718 
L 130.749927 43.182808 
L 131.14786 53.997903 
L 131.943725 99.159408 
L 132.076369 100.510916 
L 132.341657 41.851716 
L 132.474301 35.82007 
L 132.606946 36.457076 
L 132.872234 41.084681 
L 133.270167 54.458281 
L 134.066032 110.098693 
L 134.198676 111.660982 
L 134.463964 46.696326 
L 134.596608 42.040061 
L 134.729253 42.638681 
L 134.994541 46.422133 
L 135.392474 56.906018 
L 136.188339 99.89136 
L 136.320983 101.105758 
L 136.586271 43.027324 
L 136.718915 36.262213 
L 136.85156 37.012115 
L 137.116848 42.307804 
L 137.514781 56.85809 
L 138.310646 117.521106 
L 138.44329 119.108765 
L 138.708578 45.061209 
L 138.841222 39.306541 
L 138.973867 39.728921 
L 139.239155 43.719708 
L 139.637087 55.541616 
L 140.432953 104.977125 
L 140.565597 106.32014 
L 140.830885 41.252956 
L 140.963529 34.510575 
L 141.096173 35.016533 
L 141.361462 40.024053 
L 141.759394 54.342016 
L 142.55526 114.088245 
L 142.687904 115.796331 
L 142.953192 39.828848 
L 143.085836 32.910552 
L 143.21848 33.527377 
L 143.483769 38.652335 
L 143.881701 53.250326 
L 144.677566 115.199203 
L 144.810211 117.164501 
L 145.075499 43.772168 
L 145.208143 38.314316 
L 145.340787 38.941894 
L 145.606076 43.276712 
L 146.004008 55.70271 
L 146.799873 105.910334 
L 146.932518 107.300476 
L 147.197806 44.180696 
L 147.33045 38.134959 
L 147.463094 38.721729 
L 147.728383 43.277446 
L 148.126315 56.288422 
L 148.92218 110.171913 
L 149.054825 111.725655 
L 149.320113 45.162601 
L 149.452757 39.070791 
L 149.585401 39.57736 
L 149.85069 44.038949 
L 150.248622 56.539915 
L 151.044487 109.559391 
L 151.177132 110.751701 
L 151.44242 45.699672 
L 151.575064 40.702599 
L 151.707708 41.100252 
L 151.972997 44.766459 
L 152.370929 55.267023 
L 153.166794 98.696693 
L 153.299438 99.799816 
L 153.564727 39.008293 
L 153.697371 31.527273 
L 153.830015 32.23981 
L 154.095304 37.81989 
L 154.493236 53.814771 
L 155.289101 120.198946 
L 155.421745 122.207189 
L 155.687034 44.594041 
L 155.819678 39.360878 
L 155.952322 40.172812 
L 156.217611 44.754652 
L 156.615543 56.985436 
L 157.411408 106.341011 
L 157.544052 107.622835 
L 157.809341 47.777363 
L 157.941985 42.765069 
L 158.074629 43.111167 
L 158.339917 46.822393 
L 158.73785 57.585456 
L 159.533715 101.898396 
L 159.666359 103.122359 
L 159.931648 43.945067 
L 160.064292 37.230538 
L 160.196936 37.918798 
L 160.462224 42.920102 
L 160.860157 57.348575 
L 161.656022 117.164488 
L 161.788666 118.734052 
L 162.053955 43.038403 
L 162.186599 36.074521 
L 162.319243 36.642274 
L 162.584531 41.507597 
L 162.982464 55.569868 
L 163.778329 114.91031 
L 163.910973 116.460822 
L 164.176262 40.642229 
L 164.308906 33.71838 
L 164.44155 34.302702 
L 164.706838 39.19754 
L 165.104771 53.492498 
L 165.900636 113.561885 
L 166.03328 115.120217 
L 166.298569 39.615414 
L 166.431213 33.192942 
L 166.563857 33.937451 
L 166.829145 38.961775 
L 167.227078 52.977803 
L 168.022943 112.306759 
L 168.155587 114.155662 
L 168.420876 42.02651 
L 168.55352 35.953095 
L 168.686164 36.827367 
L 168.951452 41.946242 
L 169.349385 55.767986 
L 170.14525 113.180081 
L 170.277894 114.855398 
L 170.543182 41.841373 
L 170.675827 34.516378 
L 170.808471 35.381811 
L 171.073759 41.18611 
L 171.471692 57.136792 
L 172.267557 122.692724 
L 172.400201 124.472727 
L 172.665489 46.863923 
L 172.798134 41.767148 
L 172.930778 42.148762 
L 173.196066 45.904001 
L 173.593999 56.801578 
L 174.389864 101.316739 
L 174.522508 102.37916 
L 174.787796 44.888537 
L 174.920441 39.129155 
L 175.053085 39.426842 
L 175.318373 43.258682 
L 175.716306 54.605819 
L 176.512171 103.271527 
L 176.644815 104.571957 
L 176.910103 38.84495 
L 177.042748 31.660499 
L 177.175392 32.421167 
L 177.44068 37.889753 
L 177.838613 53.353309 
L 178.634478 118.010289 
L 178.767122 119.845732 
L 179.03241 42.605591 
L 179.165054 36.940583 
L 179.297699 37.55167 
L 179.562987 42.015268 
L 179.96092 54.441759 
L 180.756785 106.751606 
L 180.889429 108.325317 
L 181.154717 45.773291 
L 181.287361 40.463028 
L 181.420006 41.119901 
L 181.685294 45.375816 
L 182.083227 57.272599 
L 182.879092 106.3046 
L 183.011736 107.829257 
L 183.277024 44.507282 
L 183.409668 37.872582 
L 183.542313 38.459213 
L 183.807601 43.400893 
L 184.205533 57.614481 
L 185.001399 117.298812 
L 185.134043 119.026341 
L 185.399331 47.217175 
L 185.531975 41.705689 
L 185.664619 42.171347 
L 185.929908 46.045246 
L 186.32784 57.424748 
L 187.123706 105.077472 
L 187.25635 106.366091 
L 187.521638 45.41665 
L 187.654282 39.79605 
L 187.786926 40.15248 
L 188.052215 44.07516 
L 188.450147 55.59279 
L 189.246012 103.436917 
L 189.378657 104.834478 
L 189.643945 40.959485 
L 189.776589 33.958986 
L 189.909233 34.586922 
L 190.174522 39.981759 
L 190.572454 54.88802 
L 191.368319 117.178279 
L 191.500964 118.911923 
L 191.766252 46.827095 
L 191.898896 42.186374 
L 192.03154 42.698802 
L 192.296829 46.408592 
L 192.694761 56.602257 
L 193.490626 99.425173 
L 193.623271 100.701235 
L 193.888559 45.691899 
L 194.021203 39.94714 
L 194.153847 40.543147 
L 194.419136 44.959121 
L 194.684424 52.654093 
L 194.684424 52.654093 
" clip-path="url(#p26e7889adc)" style="fill: none; stroke: #808080; stroke-width: 0.7; stroke-linecap: square"/>
   </g>
   <g id="line2d_9">
    <path d="M 62.172884 56.287506 
L 62.70346 56.524066 
L 63.897258 57.49266 
L 64.162546 57.461671 
L 64.560479 57.466284 
L 65.488988 58.189925 
L 66.682786 58.223983 
L 67.743939 57.289518 
L 68.937737 55.000999 
L 69.203025 54.734854 
L 70.662112 53.069986 
L 71.325332 53.116745 
L 71.723265 52.982274 
L 72.51913 53.526063 
L 72.784418 53.723792 
L 73.580284 54.596042 
L 74.11086 55.009162 
L 74.641437 55.293196 
L 74.906725 55.300101 
L 75.172014 55.371443 
L 75.437302 55.678633 
L 76.365811 57.27425 
L 77.294321 58.58995 
L 78.090186 59.717685 
L 78.355474 59.799174 
L 79.151339 59.455486 
L 79.416628 59.0943 
L 80.345137 58.605087 
L 81.008358 58.591801 
L 81.40629 58.403662 
L 81.804223 57.937796 
L 82.3348 57.082577 
L 82.600088 56.970583 
L 82.998021 57.151022 
L 83.661242 57.06472 
L 84.059174 56.836458 
L 84.589751 56.896536 
L 84.855039 56.85426 
L 85.120328 56.992376 
L 86.048837 57.583218 
L 86.712058 58.264147 
L 87.10999 58.581423 
L 87.507923 59.179881 
L 88.0385 59.80898 
L 88.303788 59.863318 
L 89.099653 59.751387 
L 89.497586 59.580268 
L 90.028162 59.39552 
L 90.956672 58.585004 
L 91.487248 58.006012 
L 92.283114 57.38704 
L 92.681046 57.344749 
L 93.211623 56.906695 
L 93.476911 56.694984 
L 94.272776 55.606818 
L 94.803353 54.951615 
L 95.068641 54.965039 
L 96.395083 55.856772 
L 97.058304 56.397323 
L 97.190948 56.364999 
L 97.456237 56.492691 
L 97.854169 56.651887 
L 98.252102 56.950154 
L 99.047967 57.592569 
L 99.578544 58.118255 
L 100.10912 58.429085 
L 100.374409 58.376994 
L 100.772341 58.241568 
L 101.03763 58.056981 
L 101.833495 58.407315 
L 102.098783 58.309916 
L 102.762004 57.342606 
L 103.159937 56.733638 
L 103.557869 56.315973 
L 105.149599 56.207782 
L 105.414888 56.189801 
L 105.81282 56.027708 
L 106.608686 56.104842 
L 107.139262 55.83205 
L 107.404551 55.699445 
L 108.200416 55.891568 
L 108.465704 55.830525 
L 108.730992 55.980231 
L 109.128925 55.993765 
L 110.985944 58.099727 
L 111.383876 58.632228 
L 111.649165 58.653686 
L 112.312385 58.501688 
L 113.506183 58.773973 
L 114.169404 58.753816 
L 114.699981 58.509082 
L 114.965269 58.466335 
L 116.424355 57.530895 
L 117.087576 56.69161 
L 117.352864 56.645015 
L 118.944595 55.3034 
L 119.209883 55.42907 
L 119.74046 55.729324 
L 120.138392 55.839042 
L 120.934257 56.190131 
L 121.199546 56.159799 
L 122.128055 57.034807 
L 122.791276 57.72109 
L 124.117718 58.403763 
L 124.383006 58.294714 
L 124.648295 58.20141 
L 125.178871 58.546412 
L 126.107381 58.496672 
L 126.637957 58.496252 
L 126.903246 58.41202 
L 127.301178 58.612832 
L 128.229688 57.618237 
L 128.760264 56.66505 
L 130.086706 55.422426 
L 131.14786 55.316649 
L 131.545792 55.330411 
L 132.076369 55.417201 
L 132.606946 55.741716 
L 133.004878 55.766492 
L 133.270167 56.046888 
L 133.933388 57.261691 
L 134.198676 57.339535 
L 134.861897 57.881284 
L 135.790406 58.368601 
L 136.055694 58.392642 
L 136.586271 58.520937 
L 137.116848 58.769112 
L 138.045357 58.395691 
L 139.637087 56.997998 
L 140.300308 56.656169 
L 140.565597 56.520047 
L 140.963529 56.562259 
L 141.228818 56.341346 
L 141.892039 55.951402 
L 142.157327 55.701391 
L 142.820548 55.475238 
L 143.21848 55.215342 
L 143.881701 55.036911 
L 144.544922 55.649216 
L 145.340787 56.541213 
L 145.606076 56.651973 
L 145.871364 56.94893 
L 146.269297 57.416262 
L 146.799873 57.715709 
L 147.197806 57.648195 
L 147.463094 57.549208 
L 147.861027 57.637281 
L 148.258959 58.0337 
L 148.789536 58.570695 
L 149.320113 58.751655 
L 151.044487 57.536175 
L 151.44242 56.85018 
L 151.972997 56.613401 
L 152.370929 56.551141 
L 152.901506 56.249308 
L 153.830015 55.555185 
L 153.962659 55.480669 
L 154.891169 55.95932 
L 155.421745 56.53187 
L 156.482899 58.279883 
L 157.411408 59.080891 
L 158.339917 58.661402 
L 158.73785 58.868714 
L 159.135783 59.118214 
L 160.32958 59.196891 
L 160.727513 59.096704 
L 160.992801 59.100933 
L 161.523378 58.812066 
L 161.788666 58.662485 
L 162.584531 57.741645 
L 162.982464 57.329514 
L 163.778329 56.414717 
L 165.370059 55.074037 
L 166.298569 54.379536 
L 166.829145 54.648029 
L 167.359722 54.781903 
L 168.420876 56.364424 
L 168.951452 57.179668 
L 169.482029 57.466501 
L 170.012606 58.026154 
L 170.277894 58.394086 
L 170.941115 58.961668 
L 171.339048 59.101872 
L 171.73698 58.965666 
L 172.002268 58.665102 
L 172.267557 58.366531 
L 173.32871 57.991626 
L 173.726643 58.141014 
L 174.124575 57.971699 
L 174.389864 57.906679 
L 176.246882 55.492676 
L 176.910103 55.181706 
L 177.573324 55.255154 
L 177.971257 55.220723 
L 178.767122 55.513177 
L 179.562987 55.667027 
L 179.96092 55.921505 
L 180.889429 57.726309 
L 181.55265 58.458228 
L 181.817938 58.555227 
L 183.011736 59.293913 
L 183.277024 59.591779 
L 183.542313 59.547245 
L 183.940245 59.405775 
L 184.470822 59.424556 
L 184.868754 59.562189 
L 185.531975 59.412976 
L 185.929908 59.093436 
L 187.123706 58.061372 
L 187.388994 57.864858 
L 187.919571 57.18188 
L 188.184859 57.056806 
L 188.582792 56.949704 
L 188.84808 56.760137 
L 189.378657 56.604015 
L 189.643945 56.599107 
L 189.909233 56.451016 
L 190.837743 56.856552 
L 191.368319 57.304836 
L 191.633608 57.407756 
L 192.03154 57.65324 
L 193.092694 58.224908 
L 193.357982 58.433935 
L 194.684424 58.726182 
L 194.684424 58.726182 
" clip-path="url(#p26e7889adc)" style="fill: none; stroke: #1e90ff; stroke-linecap: square"/>
   </g>
   <g id="line2d_10">
    <path d="M 62.172884 56.671428 
L 62.438172 52.38171 
L 62.70346 53.021363 
L 63.101393 55.530594 
L 63.234037 56.674813 
L 64.029902 67.880005 
L 64.162546 68.125892 
L 64.427835 54.437026 
L 64.560479 53.212413 
L 64.693123 53.466309 
L 64.958412 54.798465 
L 65.356344 57.782765 
L 66.152209 69.284004 
L 66.284853 69.558481 
L 66.417498 57.863543 
L 66.682786 60.324732 
L 66.948074 59.845337 
L 67.478651 57.678565 
L 68.40716 49.909945 
L 68.539805 55.89665 
L 68.805093 52.653226 
L 68.937737 52.548136 
L 69.203025 52.854166 
L 69.600958 53.948654 
L 70.264179 59.239592 
L 70.529467 59.703856 
L 70.662112 52.446705 
L 70.9274 57.369209 
L 71.060044 57.267637 
L 71.325332 56.276038 
L 71.723265 53.24074 
L 72.51913 41.735113 
L 72.651774 41.455344 
L 72.917063 55.677111 
L 73.049707 56.716016 
L 73.182351 56.82185 
L 73.314995 56.731033 
L 73.580284 56.01376 
L 73.845572 54.87125 
L 74.641437 47.812123 
L 74.774081 47.561849 
L 74.906725 55.571722 
L 75.172014 51.635956 
L 75.304658 51.868005 
L 75.569946 53.170031 
L 75.967879 56.243125 
L 76.763744 67.260103 
L 76.896388 67.744613 
L 77.029032 57.466187 
L 77.294321 63.071799 
L 77.426965 63.165134 
L 77.559609 63.038492 
L 77.824897 61.907758 
L 78.090186 59.978648 
L 78.886051 47.372001 
L 79.018695 46.960926 
L 79.151339 59.783416 
L 79.416628 55.035 
L 79.549272 55.093578 
L 79.81456 55.815293 
L 80.212493 58.143122 
L 81.008358 68.999576 
L 81.141002 69.266561 
L 81.273646 58.081759 
L 81.538935 60.850438 
L 81.671579 60.678253 
L 81.936867 59.574101 
L 82.3348 57.198038 
L 82.998021 50.539696 
L 83.263309 49.735557 
L 83.395953 57.50062 
L 83.661242 52.753308 
L 83.793886 52.784412 
L 84.059174 53.653292 
L 84.457107 56.512977 
L 85.252972 68.206144 
L 85.385616 68.572916 
L 85.650904 54.845975 
L 85.783549 53.908002 
L 85.916193 54.117511 
L 86.181481 55.224239 
L 86.579414 57.864633 
L 87.375279 67.854599 
L 87.507923 68.285901 
L 87.773211 57.737254 
L 87.905855 57.097209 
L 88.171144 57.563462 
L 88.436432 58.394403 
L 88.701721 59.63953 
L 89.497586 66.431837 
L 89.63023 66.614639 
L 89.762874 59.4916 
L 90.028162 59.060302 
L 90.426095 58.895802 
L 91.22196 58.735614 
L 91.619893 58.682748 
L 91.752537 58.604098 
L 91.885181 57.978059 
L 92.150469 54.628718 
L 92.283114 54.668534 
L 92.548402 55.287243 
L 92.946335 56.812113 
L 93.7422 63.750001 
L 93.874844 63.819983 
L 94.140132 53.703067 
L 94.272776 52.695709 
L 94.405421 52.582653 
L 94.538065 52.658766 
L 94.803353 53.342874 
L 95.068641 54.701043 
L 95.864507 63.122838 
L 95.997151 63.429208 
L 96.262439 53.732121 
L 96.395083 53.021678 
L 96.660372 53.684118 
L 97.190948 56.09387 
L 97.986814 64.177075 
L 98.119458 64.454955 
L 98.384746 53.667868 
L 98.51739 52.369821 
L 98.650034 52.613899 
L 98.915323 53.893214 
L 99.313255 57.426364 
L 100.10912 71.073615 
L 100.241765 71.368056 
L 100.374409 58.152275 
L 100.639697 59.600214 
L 100.904986 59.293304 
L 101.568206 57.739713 
L 102.098783 54.996638 
L 102.364072 54.244736 
L 102.496716 57.988502 
L 102.762004 54.406815 
L 102.894648 54.22232 
L 103.027293 54.286825 
L 103.292581 54.917052 
L 103.557869 56.023011 
L 104.353734 63.739718 
L 104.486379 64.03878 
L 104.619023 55.954765 
L 104.884311 58.129291 
L 105.149599 57.924338 
L 105.414888 57.233272 
L 105.680176 56.156093 
L 106.343397 51.276634 
L 106.608686 50.584597 
L 106.873974 58.414558 
L 107.006618 59.509528 
L 107.139262 59.318492 
L 107.537195 57.686837 
L 107.802483 56.06044 
L 108.598348 46.206173 
L 108.730992 45.968153 
L 108.996281 58.121394 
L 109.128925 59.087532 
L 109.394213 59.092753 
L 109.659502 58.404448 
L 109.92479 57.035028 
L 110.588011 49.904237 
L 110.720655 49.346672 
L 110.853299 49.279037 
L 111.118588 61.603801 
L 111.251232 63.316033 
L 111.383876 63.26994 
L 111.51652 62.893762 
L 111.914453 60.092454 
L 112.047097 58.897806 
L 112.842962 45.821056 
L 112.975606 45.493407 
L 113.108251 59.146103 
L 113.373539 54.388718 
L 113.506183 54.538108 
L 113.771471 55.582742 
L 114.169404 58.374828 
L 114.965269 69.990674 
L 115.097913 70.247566 
L 115.230558 58.233267 
L 115.62849 57.792662 
L 116.556999 57.484048 
L 116.954932 57.093998 
L 117.22022 57.106829 
L 117.352864 56.854183 
L 117.618153 54.394229 
L 117.750797 54.376204 
L 118.14873 54.8539 
L 118.414018 55.567915 
L 119.209883 60.853934 
L 119.342527 61.121488 
L 119.475171 55.778752 
L 119.74046 55.004316 
L 120.005748 55.12518 
L 120.536325 56.032034 
L 121.33219 58.243472 
L 121.464834 58.415385 
L 121.597478 56.347892 
L 121.862767 58.707999 
L 122.128055 58.735126 
L 122.393343 58.402255 
L 122.658632 57.784935 
L 123.454497 53.181928 
L 123.587141 53.103271 
L 123.719785 58.390573 
L 123.985074 57.461298 
L 124.648295 57.941645 
L 124.913583 58.854198 
L 125.311516 60.513964 
L 125.576804 61.012623 
L 125.709448 61.103808 
L 125.842092 58.211607 
L 126.107381 61.175292 
L 126.240025 61.132111 
L 126.372669 60.939026 
L 126.770602 59.306938 
L 126.903246 58.674959 
L 127.699111 51.300447 
L 127.831755 50.94678 
L 127.964399 57.980679 
L 128.362332 57.377783 
L 128.760264 56.710017 
L 129.954062 55.573876 
L 130.086706 55.072541 
L 130.351995 58.551025 
L 130.617283 58.103114 
L 130.882571 57.110517 
L 131.14786 55.580944 
L 131.943725 47.117588 
L 132.076369 46.986732 
L 132.209013 55.544832 
L 132.474301 55.539797 
L 133.137522 55.837197 
L 133.402811 56.388083 
L 133.933388 57.709591 
L 134.198676 57.852695 
L 134.33132 56.986624 
L 134.596608 61.730317 
L 134.729253 61.744255 
L 134.861897 61.47895 
L 135.259829 59.468431 
L 135.392474 58.4845 
L 136.188339 47.638114 
L 136.320983 47.363706 
L 136.453627 58.747157 
L 136.718915 55.954904 
L 136.984204 56.392525 
L 137.514781 58.441074 
L 138.310646 65.282643 
L 138.44329 65.378764 
L 138.575934 57.688532 
L 138.841222 59.023893 
L 139.106511 58.636208 
L 139.637087 57.119698 
L 140.432953 52.628497 
L 140.565597 52.47732 
L 140.698241 56.800892 
L 140.963529 54.156127 
L 141.096173 54.07818 
L 141.361462 54.513857 
L 141.759394 55.910444 
L 142.55526 61.905893 
L 142.687904 62.126382 
L 142.953192 53.463277 
L 143.085836 52.595052 
L 143.21848 52.630727 
L 143.483769 53.180484 
L 143.749057 54.175843 
L 143.881701 54.834365 
L 144.677566 62.937276 
L 144.810211 63.411618 
L 144.942855 56.065862 
L 145.208143 58.061892 
L 145.340787 58.106711 
L 145.73872 57.66065 
L 146.004008 57.308319 
L 146.799873 53.531165 
L 146.932518 53.426224 
L 147.065162 57.69913 
L 147.33045 57.851309 
L 149.054825 58.015429 
L 149.187469 58.784647 
L 149.452757 58.734093 
L 150.248622 58.19073 
L 150.779199 57.79383 
L 151.044487 57.568173 
L 151.177132 57.275254 
L 151.309776 56.635052 
L 151.575064 60.410369 
L 151.840352 59.862767 
L 152.238285 57.865323 
L 152.370929 56.929274 
L 153.166794 46.637636 
L 153.299438 46.251957 
L 153.432083 56.345035 
L 153.697371 51.172757 
L 153.830015 51.304533 
L 153.962659 51.635111 
L 154.227948 53.235323 
L 154.493236 55.463399 
L 155.289101 68.277383 
L 155.421745 68.80332 
L 155.55439 56.605183 
L 155.819678 59.003315 
L 156.084966 59.283187 
L 156.350255 59.148981 
L 156.615543 58.627988 
L 157.411408 54.413546 
L 157.544052 54.213903 
L 157.809341 61.380796 
L 157.941985 62.370025 
L 158.207273 61.734734 
L 158.472562 60.714639 
L 158.73785 59.24757 
L 159.533715 50.117454 
L 159.666359 49.862054 
L 159.799004 59.576901 
L 160.064292 56.878819 
L 160.32958 57.169071 
L 160.594869 57.830073 
L 160.860157 59.037284 
L 161.523378 64.853725 
L 161.788666 65.446241 
L 162.053955 56.719721 
L 162.186599 55.769625 
L 162.451887 55.847115 
L 162.717176 56.444516 
L 162.982464 57.292423 
L 163.778329 63.084232 
L 163.910973 63.150131 
L 164.176262 54.34171 
L 164.308906 53.432119 
L 164.574194 53.550835 
L 164.839483 54.211055 
L 165.104771 55.229875 
L 165.900636 61.738737 
L 166.03328 61.812371 
L 166.298569 53.306627 
L 166.431213 52.887965 
L 166.829145 53.53909 
L 167.227078 54.707499 
L 168.155587 60.907454 
L 168.288231 56.451442 
L 168.420876 55.786822 
L 168.55352 55.74763 
L 169.482029 58.054941 
L 170.14525 61.135876 
L 170.277894 61.322971 
L 170.675827 54.289879 
L 170.941115 55.075695 
L 171.339048 57.75522 
L 171.471692 58.843873 
L 172.134913 69.722174 
L 172.400201 70.960842 
L 172.532845 58.006974 
L 172.798134 61.593352 
L 173.063422 61.051161 
L 173.461355 59.313934 
L 173.593999 58.530319 
L 174.389864 49.181275 
L 174.522508 48.756581 
L 174.655152 57.547989 
L 174.920441 59.021337 
L 175.318373 57.977106 
L 175.716306 56.344452 
L 176.379527 51.520637 
L 176.644815 50.804661 
L 176.777459 55.790335 
L 177.042748 51.533835 
L 177.308036 52.046878 
L 177.705968 54.130886 
L 177.838613 55.091396 
L 178.634478 65.791172 
L 178.767122 66.134684 
L 178.899766 55.52874 
L 179.165054 56.84278 
L 179.430343 56.851494 
L 179.695631 56.562496 
L 180.093564 55.853795 
L 180.491496 54.744583 
L 180.756785 54.493091 
L 180.889429 54.574727 
L 181.154717 59.672185 
L 181.287361 60.437757 
L 181.420006 60.501824 
L 181.55265 60.433014 
L 181.950582 59.478485 
L 182.083227 59.036305 
L 182.746447 54.257165 
L 182.879092 53.904525 
L 183.011736 53.932536 
L 183.14438 59.90852 
L 183.409668 57.870024 
L 183.674957 57.964311 
L 183.940245 58.539444 
L 184.205533 59.390089 
L 185.001399 64.885538 
L 185.134043 65.117582 
L 185.266687 59.525719 
L 185.531975 61.766487 
L 185.664619 61.633644 
L 185.929908 60.891835 
L 186.32784 59.221076 
L 187.123706 52.554418 
L 187.25635 52.34367 
L 187.521638 59.3637 
L 187.654282 59.812398 
L 188.052215 58.886677 
L 188.450147 57.384478 
L 189.246012 51.063687 
L 189.378657 50.966985 
L 189.511301 57.161274 
L 189.776589 53.893597 
L 189.909233 53.927618 
L 190.174522 54.733893 
L 190.572454 56.669911 
L 191.368319 64.994547 
L 191.500964 65.241024 
L 191.633608 57.106026 
L 191.898896 62.180798 
L 192.03154 62.095264 
L 192.296829 61.199631 
L 192.694761 58.380182 
L 193.490626 47.068096 
L 193.623271 46.852553 
L 193.755915 58.667795 
L 194.021203 59.958545 
L 194.286491 59.90559 
L 194.55178 59.57252 
L 194.684424 59.296014 
L 194.684424 59.296014 
" clip-path="url(#p26e7889adc)" style="fill: none; stroke: #ff0000; stroke-width: 0.8; stroke-linecap: square"/>
   </g>
   <g id="patch_3">
    <path d="M 59.52 129.12 
L 59.52 26.88 
" style="fill: none; stroke: #000000; stroke-width: 0.8; stroke-linejoin: miter; stroke-linecap: square"/>
   </g>
   <g id="patch_4">
    <path d="M 197.469952 129.12 
L 197.469952 26.88 
" style="fill: none; stroke: #000000; stroke-width: 0.8; stroke-linejoin: miter; stroke-linecap: square"/>
   </g>
   <g id="patch_5">
    <path d="M 59.52 129.12 
L 197.469952 129.12 
" style="fill: none; stroke: #000000; stroke-width: 0.8; stroke-linejoin: miter; stroke-linecap: square"/>
   </g>
   <g id="patch_6">
    <path d="M 59.52 26.88 
L 197.469952 26.88 
" style="fill: none; stroke: #000000; stroke-width: 0.8; stroke-linejoin: miter; stroke-linecap: square"/>
   </g>
   <g id="text_10">
    <!-- Time Domain Plot -->
    <g transform="translate(75.410913 20.88) scale(0.12 -0.12)">
     <defs>
      <path id="DejaVuSans-44" d="M 1259 4147 
L 1259 519 
L 2022 519 
Q 2988 519 3436 956 
Q 3884 1394 3884 2338 
Q 3884 3275 3436 3711 
Q 2988 4147 2022 4147 
L 1259 4147 
z
M 628 4666 
L 1925 4666 
Q 3281 4666 3915 4102 
Q 4550 3538 4550 2338 
Q 4550 1131 3912 565 
Q 3275 0 1925 0 
L 628 0 
L 628 4666 
z
" transform="scale(0.015625)"/>
      <path id="DejaVuSans-6f" d="M 1959 3097 
Q 1497 3097 1228 2736 
Q 959 2375 959 1747 
Q 959 1119 1226 758 
Q 1494 397 1959 397 
Q 2419 397 2687 759 
Q 2956 1122 2956 1747 
Q 2956 2369 2687 2733 
Q 2419 3097 1959 3097 
z
M 1959 3584 
Q 2709 3584 3137 3096 
Q 3566 2609 3566 1747 
Q 3566 888 3137 398 
Q 2709 -91 1959 -91 
Q 1206 -91 779 398 
Q 353 888 353 1747 
Q 353 2609 779 3096 
Q 1206 3584 1959 3584 
z
" transform="scale(0.015625)"/>
      <path id="DejaVuSans-61" d="M 2194 1759 
Q 1497 1759 1228 1600 
Q 959 1441 959 1056 
Q 959 750 1161 570 
Q 1363 391 1709 391 
Q 2188 391 2477 730 
Q 2766 1069 2766 1631 
L 2766 1759 
L 2194 1759 
z
M 3341 1997 
L 3341 0 
L 2766 0 
L 2766 531 
Q 2569 213 2275 61 
Q 1981 -91 1556 -91 
Q 1019 -91 701 211 
Q 384 513 384 1019 
Q 384 1609 779 1909 
Q 1175 2209 1959 2209 
L 2766 2209 
L 2766 2266 
Q 2766 2663 2505 2880 
Q 2244 3097 1772 3097 
Q 1472 3097 1187 3025 
Q 903 2953 641 2809 
L 641 3341 
Q 956 3463 1253 3523 
Q 1550 3584 1831 3584 
Q 2591 3584 2966 3190 
Q 3341 2797 3341 1997 
z
" transform="scale(0.015625)"/>
      <path id="DejaVuSans-6e" d="M 3513 2113 
L 3513 0 
L 2938 0 
L 2938 2094 
Q 2938 2591 2744 2837 
Q 2550 3084 2163 3084 
Q 1697 3084 1428 2787 
Q 1159 2491 1159 1978 
L 1159 0 
L 581 0 
L 581 3500 
L 1159 3500 
L 1159 2956 
Q 1366 3272 1645 3428 
Q 1925 3584 2291 3584 
Q 2894 3584 3203 3211 
Q 3513 2838 3513 2113 
z
" transform="scale(0.015625)"/>
      <path id="DejaVuSans-50" d="M 1259 4147 
L 1259 2394 
L 2053 2394 
Q 2494 2394 2734 2622 
Q 2975 2850 2975 3272 
Q 2975 3691 2734 3919 
Q 2494 4147 2053 4147 
L 1259 4147 
z
M 628 4666 
L 2053 4666 
Q 2838 4666 3239 4311 
Q 3641 3956 3641 3272 
Q 3641 2581 3239 2228 
Q 2838 1875 2053 1875 
L 1259 1875 
L 1259 0 
L 628 0 
L 628 4666 
z
" transform="scale(0.015625)"/>
     </defs>
     <use xlink:href="#DejaVuSans-54"/>
     <use xlink:href="#DejaVuSans-69" x="57.958984"/>
     <use xlink:href="#DejaVuSans-6d" x="85.742188"/>
     <use xlink:href="#DejaVuSans-65" x="183.154297"/>
     <use xlink:href="#DejaVuSans-20" x="244.677734"/>
     <use xlink:href="#DejaVuSans-44" x="276.464844"/>
     <use xlink:href="#DejaVuSans-6f" x="353.466797"/>
     <use xlink:href="#DejaVuSans-6d" x="414.648438"/>
     <use xlink:href="#DejaVuSans-61" x="512.060547"/>
     <use xlink:href="#DejaVuSans-69" x="573.339844"/>
     <use xlink:href="#DejaVuSans-6e" x="601.123047"/>
     <use xlink:href="#DejaVuSans-20" x="664.501953"/>
     <use xlink:href="#DejaVuSans-50" x="696.289062"/>
     <use xlink:href="#DejaVuSans-6c" x="756.591797"/>
     <use xlink:href="#DejaVuSans-6f" x="784.375"/>
     <use xlink:href="#DejaVuSans-74" x="845.556641"/>
    </g>
   </g>
   <g id="patch_7">
    <path d="M 140.439585 69.930888 
L 169.475397 69.930888 
L 169.475397 45.124388 
L 140.439585 45.124388 
L 140.439585 69.930888 
z
" clip-path="url(#p26e7889adc)" style="fill: none; opacity: 0.8; stroke: #000000; stroke-width: 1.2; stroke-linejoin: miter"/>
   </g>
   <g id="patch_8">
    <path d="M 100.904986 67.776 
Q 120.672285 56.450194 140.439585 45.124388 
" style="fill: none; opacity: 0.8; stroke: #000000; stroke-linecap: round"/>
   </g>
   <g id="patch_9">
    <path d="M 183.674957 67.776 
Q 176.575177 56.450194 169.475397 45.124388 
" style="fill: none; opacity: 0.8; stroke: #000000; stroke-linecap: round"/>
   </g>
   <g id="axes_2">
    <g id="patch_10">
     <path d="M 100.904986 108.672 
L 183.674957 108.672 
L 183.674957 67.776 
L 100.904986 67.776 
z
" style="fill: #ffffff"/>
    </g>
    <g id="matplotlib.axis_3">
     <g id="xtick_4">
      <g id="line2d_11">
       <g>
        <use xlink:href="#m0d105b4349" x="101.049112" y="108.672" style="stroke: #000000; stroke-width: 0.8"/>
       </g>
      </g>
      <g id="text_11">
       <!-- 1.3 -->
       <g transform="translate(93.09755 123.270437) scale(0.1 -0.1)">
        <defs>
         <path id="DejaVuSans-33" d="M 2597 2516 
Q 3050 2419 3304 2112 
Q 3559 1806 3559 1356 
Q 3559 666 3084 287 
Q 2609 -91 1734 -91 
Q 1441 -91 1130 -33 
Q 819 25 488 141 
L 488 750 
Q 750 597 1062 519 
Q 1375 441 1716 441 
Q 2309 441 2620 675 
Q 2931 909 2931 1356 
Q 2931 1769 2642 2001 
Q 2353 2234 1838 2234 
L 1294 2234 
L 1294 2753 
L 1863 2753 
Q 2328 2753 2575 2939 
Q 2822 3125 2822 3475 
Q 2822 3834 2567 4026 
Q 2313 4219 1838 4219 
Q 1578 4219 1281 4162 
Q 984 4106 628 3988 
L 628 4550 
Q 988 4650 1302 4700 
Q 1616 4750 1894 4750 
Q 2613 4750 3031 4423 
Q 3450 4097 3450 3541 
Q 3450 3153 3228 2886 
Q 3006 2619 2597 2516 
z
" transform="scale(0.015625)"/>
        </defs>
        <use xlink:href="#DejaVuSans-31"/>
        <use xlink:href="#DejaVuSans-2e" x="63.623047"/>
        <use xlink:href="#DejaVuSans-33" x="95.410156"/>
       </g>
      </g>
     </g>
     <g id="xtick_5">
      <g id="line2d_12">
       <g>
        <use xlink:href="#m0d105b4349" x="183.386703" y="108.672" style="stroke: #000000; stroke-width: 0.8"/>
       </g>
      </g>
      <g id="text_12">
       <!-- 1.4 -->
       <g transform="translate(175.435141 123.270437) scale(0.1 -0.1)">
        <use xlink:href="#DejaVuSans-31"/>
        <use xlink:href="#DejaVuSans-2e" x="63.623047"/>
        <use xlink:href="#DejaVuSans-34" x="95.410156"/>
       </g>
      </g>
     </g>
    </g>
    <g id="matplotlib.axis_4">
     <g id="ytick_5">
      <g id="line2d_13">
       <g>
        <use xlink:href="#mdeb396e233" x="100.904986" y="100.586624" style="stroke: #000000; stroke-width: 0.8"/>
       </g>
      </g>
      <g id="text_13">
       <!-- −5 -->
       <g transform="translate(79.162798 104.385843) scale(0.1 -0.1)">
        <use xlink:href="#DejaVuSans-2212"/>
        <use xlink:href="#DejaVuSans-35" x="83.789062"/>
       </g>
      </g>
     </g>
     <g id="ytick_6">
      <g id="line2d_14">
       <g>
        <use xlink:href="#mdeb396e233" x="100.904986" y="87.876238" style="stroke: #000000; stroke-width: 0.8"/>
       </g>
      </g>
      <g id="text_14">
       <!-- 0 -->
       <g transform="translate(87.542486 91.675456) scale(0.1 -0.1)">
        <use xlink:href="#DejaVuSans-30"/>
       </g>
      </g>
     </g>
     <g id="ytick_7">
      <g id="line2d_15">
       <g>
        <use xlink:href="#mdeb396e233" x="100.904986" y="75.165851" style="stroke: #000000; stroke-width: 0.8"/>
       </g>
      </g>
      <g id="text_15">
       <!-- 5 -->
       <g transform="translate(87.542486 78.96507) scale(0.1 -0.1)">
        <use xlink:href="#DejaVuSans-35"/>
       </g>
      </g>
     </g>
    </g>
    <g id="line2d_16">
     <path d="M 101.316776 85.705307 
L 102.552149 84.994517 
L 103.375731 84.791258 
L 103.787522 84.703769 
L 104.199313 84.760466 
L 105.846476 84.135003 
L 107.905431 83.819471 
L 109.552595 84.660318 
L 110.376176 85.183183 
L 111.199758 85.9824 
L 112.435131 86.479634 
L 113.258713 86.6755 
L 113.670504 86.861513 
L 114.905876 87.827289 
L 116.141249 88.428629 
L 117.788413 88.563573 
L 119.023785 88.262143 
L 119.847367 88.32737 
L 120.670949 88.592272 
L 121.08274 88.775256 
L 121.906322 89.385561 
L 123.141694 90.068511 
L 124.788858 90.388516 
L 126.024231 89.923501 
L 126.436021 89.902371 
L 127.259603 89.478682 
L 128.494976 88.874219 
L 129.318558 88.621909 
L 129.730349 88.515866 
L 130.14214 88.239096 
L 130.965721 87.269533 
L 131.789303 86.901387 
L 132.612885 86.649444 
L 134.671839 86.405264 
L 135.08363 86.20032 
L 135.495421 86.152223 
L 138.789748 84.735972 
L 139.201539 84.6042 
L 141.672285 85.217264 
L 143.731239 86.463113 
L 146.613776 89.21703 
L 147.849148 90.097903 
L 149.084521 90.874595 
L 149.908103 90.970726 
L 151.967057 90.277838 
L 152.378848 90.094501 
L 154.437803 90.81633 
L 154.849594 91.028484 
L 156.084966 91.150675 
L 156.908548 91.255884 
L 158.143921 91.225924 
L 158.555712 91.260556 
L 160.202875 90.99869 
L 161.026457 91.006168 
L 161.438248 90.833494 
L 162.26183 90.708469 
L 162.673621 90.495344 
L 163.497203 90.23083 
L 164.732575 89.245407 
L 166.379739 88.412182 
L 167.203321 87.873642 
L 168.850484 86.714152 
L 169.674066 86.255943 
L 173.380184 84.394135 
L 176.674511 82.911775 
L 177.086302 82.667522 
L 177.498093 82.656989 
L 178.321675 83.007239 
L 180.79242 83.368522 
L 181.616002 84.089991 
L 182.439584 84.878219 
L 182.851375 85.142392 
L 183.263166 85.550837 
L 183.263166 85.550837 
" clip-path="url(#p36ec932525)" style="fill: none; stroke: #1e90ff; stroke-linecap: square"/>
    </g>
    <g id="line2d_17">
     <path d="M 101.316776 85.364201 
L 102.140358 89.539486 
L 102.96394 93.720286 
L 103.375731 95.098638 
L 103.787522 95.966378 
L 104.199313 96.356284 
L 104.611104 85.099136 
L 105.022895 81.036702 
L 105.434685 79.501359 
L 105.846476 79.564447 
L 106.258267 79.931482 
L 107.081849 81.278766 
L 107.905431 83.461295 
L 108.729013 89.219248 
L 109.552595 94.50212 
L 109.964385 96.444792 
L 110.376176 97.790244 
L 110.787967 98.629057 
L 111.199758 85.639038 
L 111.611549 88.096122 
L 112.02334 89.168758 
L 112.435131 89.248016 
L 113.258713 88.805455 
L 114.494085 87.836163 
L 114.905876 86.65615 
L 115.729458 83.764095 
L 116.55304 81.696751 
L 116.964831 81.156754 
L 117.376622 80.971179 
L 117.788413 88.527261 
L 118.200203 88.791298 
L 121.08274 88.908023 
L 121.494531 88.994921 
L 122.729903 88.963097 
L 123.965276 89.086595 
L 124.377067 90.446858 
L 124.788858 90.47617 
L 126.847812 89.904608 
L 128.494976 88.973175 
L 129.318558 88.694726 
L 129.730349 88.57277 
L 130.14214 88.295681 
L 130.55393 87.777691 
L 130.965721 86.645577 
L 131.377512 91.494753 
L 131.789303 93.321736 
L 132.201094 92.996127 
L 132.612885 92.353374 
L 133.436467 90.247979 
L 134.260049 87.165871 
L 135.08363 79.780202 
L 135.907212 73.057421 
L 136.319003 70.585671 
L 136.730794 68.96644 
L 137.142585 68.284415 
L 137.554376 86.132718 
L 137.966167 79.582236 
L 138.377958 76.986214 
L 138.789748 77.219243 
L 139.201539 77.803828 
L 140.025121 80.633596 
L 140.848703 84.573659 
L 141.672285 93.577818 
L 142.495867 102.160684 
L 142.907658 105.219549 
L 143.319448 107.233533 
L 143.731239 108.163585 
L 144.14303 86.592758 
L 144.554821 89.451108 
L 144.966612 90.833543 
L 145.378403 91.244534 
L 146.201985 91.306546 
L 146.613776 91.091136 
L 147.025567 90.724726 
L 147.437357 90.169827 
L 148.260939 87.208107 
L 149.084521 84.451998 
L 149.496312 83.395318 
L 149.908103 82.71713 
L 150.319894 82.364088 
L 150.731685 90.210621 
L 151.143476 95.037811 
L 151.555266 96.787134 
L 151.967057 96.381907 
L 152.790639 94.932501 
L 153.614221 92.652772 
L 154.026012 91.265477 
L 154.849594 84.786875 
L 155.673175 78.498372 
L 156.084966 76.382675 
L 156.496757 75.120048 
L 156.908548 74.668405 
L 157.320339 91.847856 
L 157.73213 88.324239 
L 158.143921 87.076648 
L 158.967503 87.58992 
L 159.791084 88.758816 
L 160.614666 90.893613 
L 162.26183 99.851456 
L 162.673621 101.179238 
L 163.085412 102.069771 
L 163.497203 102.227025 
L 163.908993 90.589128 
L 164.320784 86.795302 
L 164.732575 85.115182 
L 165.144366 85.098039 
L 165.556157 85.252212 
L 165.967948 85.677144 
L 166.79153 87.072554 
L 167.203321 87.808052 
L 168.026902 92.080206 
L 168.850484 95.980458 
L 169.262275 97.238807 
L 169.674066 98.050118 
L 170.085857 98.166652 
L 170.497648 86.60695 
L 170.909439 82.590098 
L 171.32123 80.981604 
L 171.733021 80.993982 
L 172.144811 81.191539 
L 172.556602 81.620523 
L 173.380184 83.20402 
L 173.791975 84.160702 
L 174.615557 88.9876 
L 175.439139 93.416677 
L 175.85093 94.822265 
L 176.262721 95.670784 
L 176.674511 95.800995 
L 177.086302 83.256187 
L 177.498093 80.759687 
L 177.909884 80.019338 
L 178.733466 80.646105 
L 179.557048 81.759307 
L 180.38063 83.236948 
L 181.204211 87.159264 
L 182.027793 91.183899 
L 182.439584 92.596594 
L 182.851375 93.552686 
L 183.263166 94.200766 
L 183.263166 94.200766 
" clip-path="url(#p36ec932525)" style="fill: none; stroke: #ff0000; stroke-width: 0.8; stroke-linecap: square"/>
    </g>
    <g id="line2d_18">
     <path d="M 101.316776 82.590639 
L 102.140358 125.817126 
L 102.96394 165.790004 
L 103.441931 181 
M 104.240713 181 
L 104.611104 89.166905 
L 105.022895 56.925979 
L 105.434685 44.691867 
L 105.846476 45.782643 
L 106.258267 49.25449 
L 106.670058 54.845468 
L 107.49364 70.959306 
L 107.905431 80.660126 
L 108.729013 125.535251 
L 109.552595 166.673219 
L 109.962001 181 
M 110.838194 181 
L 111.199758 89.692731 
L 111.611549 63.899231 
L 112.02334 54.247725 
L 112.435131 55.357515 
L 112.846922 58.276111 
L 113.258713 63.02308 
L 114.082294 76.776389 
L 114.494085 84.99685 
L 115.317667 121.508307 
L 116.141249 154.980342 
L 116.55304 166.524026 
L 116.964831 173.78254 
L 117.376622 176.240827 
L 117.788413 92.532828 
L 118.200203 64.62166 
L 118.611994 53.930554 
L 119.023785 54.968182 
L 119.435576 58.038207 
L 119.847367 63.024377 
L 120.670949 77.440582 
L 121.08274 86.032606 
L 121.906322 125.203296 
L 122.729903 161.062734 
L 123.141694 173.564104 
L 123.536567 181 
M 123.979357 181 
L 124.377067 94.39522 
L 124.788858 66.35803 
L 125.200649 55.585453 
L 125.61244 56.481254 
L 126.024231 59.427881 
L 126.436021 64.370997 
L 127.259603 78.226339 
L 127.671394 86.477339 
L 128.494976 125.01524 
L 129.318558 160.460505 
L 129.730349 172.765078 
L 130.291465 181 
M 130.55996 181 
L 130.965721 90.555905 
L 131.377512 67.307771 
L 131.789303 58.471094 
L 132.201094 59.174292 
L 132.612885 61.626243 
L 133.024676 65.657505 
L 133.848258 77.370466 
L 134.260049 84.226395 
L 135.08363 115.855858 
L 135.907212 144.910646 
L 136.319003 154.884132 
L 136.730794 161.02615 
L 137.142585 162.976879 
L 137.554376 90.041903 
L 137.966167 55.474933 
L 138.377958 42.245716 
L 138.789748 43.505746 
L 139.201539 47.177166 
L 139.61333 53.373396 
L 140.436912 71.218231 
L 140.848703 81.658275 
L 141.672285 129.572853 
L 142.495867 173.830803 
L 142.686709 181 
M 143.810601 181 
L 144.14303 90.515663 
L 144.554821 65.352606 
L 144.966612 56.098434 
L 145.378403 57.534235 
L 145.790194 60.705666 
L 146.201985 65.636626 
L 147.025567 79.332136 
L 147.437357 87.265186 
L 148.260939 123.214176 
L 149.084521 156.135854 
L 149.496312 167.487963 
L 149.908103 174.544136 
L 150.319894 176.810876 
L 150.731685 94.111918 
L 151.143476 70.981899 
L 151.555266 62.118305 
L 151.967057 62.730334 
L 152.378848 65.088056 
L 152.790639 69.293158 
L 153.614221 81.249058 
L 154.026012 88.326244 
L 154.849594 120.664164 
L 155.673175 149.969956 
L 156.084966 160.235129 
L 156.496757 166.687947 
L 156.908548 168.852366 
L 157.320339 95.718003 
L 157.73213 64.20498 
L 158.143921 52.331203 
L 158.555712 53.548303 
L 158.967503 56.942288 
L 159.379294 62.392461 
L 160.202875 78.36711 
L 160.614666 87.907349 
L 161.438248 131.40444 
L 162.26183 171.35256 
L 162.551415 181 
M 163.559584 181 
L 163.908993 94.407223 
L 164.320784 62.601662 
L 164.732575 50.286937 
L 165.144366 51.290935 
L 165.556157 54.525836 
L 165.967948 59.89463 
L 166.79153 75.545691 
L 167.203321 84.761936 
L 168.026902 127.925476 
L 168.850484 167.490419 
L 169.257661 181 
M 170.13202 181 
L 170.497648 90.394248 
L 170.909439 58.364337 
L 171.32123 46.120407 
L 171.733021 47.153705 
L 172.144811 50.433586 
L 172.556602 55.809593 
L 173.380184 71.652153 
L 173.791975 81.088377 
L 174.615557 124.810665 
L 175.439139 164.915799 
L 175.959831 181 
M 176.710751 181 
L 177.086302 87.018929 
L 177.498093 56.548549 
L 177.909884 45.191236 
L 178.321675 46.507805 
L 178.733466 49.924169 
L 179.145257 55.392672 
L 179.968839 70.961223 
L 180.38063 80.178205 
L 181.204211 122.947822 
L 182.027793 162.606676 
L 182.657187 181 
L 182.657187 181 
" clip-path="url(#p36ec932525)" style="fill: none; stroke: #808080; stroke-width: 0.2; stroke-linecap: square"/>
    </g>
    <g id="patch_11">
     <path d="M 100.904986 108.672 
L 100.904986 67.776 
" style="fill: none; stroke: #000000; stroke-width: 0.8; stroke-linejoin: miter; stroke-linecap: square"/>
    </g>
    <g id="patch_12">
     <path d="M 183.674957 108.672 
L 183.674957 67.776 
" style="fill: none; stroke: #000000; stroke-width: 0.8; stroke-linejoin: miter; stroke-linecap: square"/>
    </g>
    <g id="patch_13">
     <path d="M 100.904986 108.672 
L 183.674957 108.672 
" style="fill: none; stroke: #000000; stroke-width: 0.8; stroke-linejoin: miter; stroke-linecap: square"/>
    </g>
    <g id="patch_14">
     <path d="M 100.904986 67.776 
L 183.674957 67.776 
" style="fill: none; stroke: #000000; stroke-width: 0.8; stroke-linejoin: miter; stroke-linecap: square"/>
    </g>
   </g>
   <g id="legend_1">
    <g id="patch_15">
     <path d="M 20.235014 158.292 
L 51.103139 158.292 
Q 51.703139 158.292 51.703139 157.692 
L 51.703139 144.781688 
Q 51.703139 144.181688 51.103139 144.181688 
L 20.235014 144.181688 
Q 19.635014 144.181688 19.635014 144.781688 
L 19.635014 157.692 
Q 19.635014 158.292 20.235014 158.292 
z
" style="fill: #ffffff; opacity: 0.8; stroke: #cccccc; stroke-linejoin: miter"/>
    </g>
    <g id="line2d_19">
     <path d="M 20.835014 146.611219 
L 23.835014 146.611219 
L 26.835014 146.611219 
" style="fill: none; stroke: #808080; stroke-width: 0.7; stroke-linecap: square"/>
    </g>
    <g id="text_16">
     <!-- Contaminated -->
     <g transform="translate(29.235014 147.661219) scale(0.03 -0.03)">
      <defs>
       <path id="DejaVuSans-43" d="M 4122 4306 
L 4122 3641 
Q 3803 3938 3442 4084 
Q 3081 4231 2675 4231 
Q 1875 4231 1450 3742 
Q 1025 3253 1025 2328 
Q 1025 1406 1450 917 
Q 1875 428 2675 428 
Q 3081 428 3442 575 
Q 3803 722 4122 1019 
L 4122 359 
Q 3791 134 3420 21 
Q 3050 -91 2638 -91 
Q 1578 -91 968 557 
Q 359 1206 359 2328 
Q 359 3453 968 4101 
Q 1578 4750 2638 4750 
Q 3056 4750 3426 4639 
Q 3797 4528 4122 4306 
z
" transform="scale(0.015625)"/>
      </defs>
      <use xlink:href="#DejaVuSans-43"/>
      <use xlink:href="#DejaVuSans-6f" x="69.824219"/>
      <use xlink:href="#DejaVuSans-6e" x="131.005859"/>
      <use xlink:href="#DejaVuSans-74" x="194.384766"/>
      <use xlink:href="#DejaVuSans-61" x="233.59375"/>
      <use xlink:href="#DejaVuSans-6d" x="294.873047"/>
      <use xlink:href="#DejaVuSans-69" x="392.285156"/>
      <use xlink:href="#DejaVuSans-6e" x="420.068359"/>
      <use xlink:href="#DejaVuSans-61" x="483.447266"/>
      <use xlink:href="#DejaVuSans-74" x="544.726562"/>
      <use xlink:href="#DejaVuSans-65" x="583.935547"/>
      <use xlink:href="#DejaVuSans-64" x="645.458984"/>
     </g>
    </g>
    <g id="line2d_20">
     <path d="M 20.835014 151.014656 
L 23.835014 151.014656 
L 26.835014 151.014656 
" style="fill: none; stroke: #1e90ff; stroke-linecap: square"/>
    </g>
    <g id="text_17">
     <!-- Clean -->
     <g transform="translate(29.235014 152.064656) scale(0.03 -0.03)">
      <use xlink:href="#DejaVuSans-43"/>
      <use xlink:href="#DejaVuSans-6c" x="69.824219"/>
      <use xlink:href="#DejaVuSans-65" x="97.607422"/>
      <use xlink:href="#DejaVuSans-61" x="159.130859"/>
      <use xlink:href="#DejaVuSans-6e" x="220.410156"/>
     </g>
    </g>
    <g id="line2d_21">
     <path d="M 20.835014 155.418094 
L 23.835014 155.418094 
L 26.835014 155.418094 
" style="fill: none; stroke: #ff0000; stroke-width: 0.8; stroke-linecap: square"/>
    </g>
    <g id="text_18">
     <!-- SACed -->
     <g transform="translate(29.235014 156.468094) scale(0.03 -0.03)">
      <defs>
       <path id="DejaVuSans-53" d="M 3425 4513 
L 3425 3897 
Q 3066 4069 2747 4153 
Q 2428 4238 2131 4238 
Q 1616 4238 1336 4038 
Q 1056 3838 1056 3469 
Q 1056 3159 1242 3001 
Q 1428 2844 1947 2747 
L 2328 2669 
Q 3034 2534 3370 2195 
Q 3706 1856 3706 1288 
Q 3706 609 3251 259 
Q 2797 -91 1919 -91 
Q 1588 -91 1214 -16 
Q 841 59 441 206 
L 441 856 
Q 825 641 1194 531 
Q 1563 422 1919 422 
Q 2459 422 2753 634 
Q 3047 847 3047 1241 
Q 3047 1584 2836 1778 
Q 2625 1972 2144 2069 
L 1759 2144 
Q 1053 2284 737 2584 
Q 422 2884 422 3419 
Q 422 4038 858 4394 
Q 1294 4750 2059 4750 
Q 2388 4750 2728 4690 
Q 3069 4631 3425 4513 
z
" transform="scale(0.015625)"/>
      </defs>
      <use xlink:href="#DejaVuSans-53"/>
      <use xlink:href="#DejaVuSans-41" x="65.351562"/>
      <use xlink:href="#DejaVuSans-43" x="132.009766"/>
      <use xlink:href="#DejaVuSans-65" x="201.833984"/>
      <use xlink:href="#DejaVuSans-64" x="263.357422"/>
     </g>
    </g>
   </g>
  </g>
 </g>
 <defs>
  <clipPath id="p26e7889adc">
   <rect x="59.52" y="26.88" width="137.949952" height="102.24"/>
  </clipPath>
  <clipPath id="p36ec932525">
   <rect x="100.904986" y="67.776" width="82.769971" height="40.896"/>
  </clipPath>
 </defs>
</svg>
