<?xml version="1.0" encoding="utf-8" standalone="no"?>
<!DOCTYPE svg PUBLIC "-//W3C//DTD SVG 1.1//EN"
  "http://www.w3.org/Graphics/SVG/1.1/DTD/svg11.dtd">
<svg xmlns:xlink="http://www.w3.org/1999/xlink" width="216pt" height="180pt" viewBox="0 0 216 180" xmlns="http://www.w3.org/2000/svg" version="1.1">
 <metadata>
  <rdf:RDF xmlns:dc="http://purl.org/dc/elements/1.1/" xmlns:cc="http://creativecommons.org/ns#" xmlns:rdf="http://www.w3.org/1999/02/22-rdf-syntax-ns#">
   <cc:Work>
    <dc:type rdf:resource="http://purl.org/dc/dcmitype/StillImage"/>
    <dc:date>2024-08-26T21:09:02.608030</dc:date>
    <dc:format>image/svg+xml</dc:format>
    <dc:creator>
     <cc:Agent>
      <dc:title>Matplotlib v3.9.1, https://matplotlib.org/</dc:title>
     </cc:Agent>
    </dc:creator>
   </cc:Work>
  </rdf:RDF>
 </metadata>
 <defs>
  <style type="text/css">*{stroke-linejoin: round; stroke-linecap: butt}</style>
 </defs>
 <g id="figure_1">
  <g id="patch_1">
   <path d="M 0 180 
L 216 180 
L 216 0 
L 0 0 
z
" style="fill: #ffffff"/>
  </g>
  <g id="axes_1">
   <g id="patch_2">
    <path d="M 59.52 129.12 
L 194.165487 129.12 
L 194.165487 25.44 
L 59.52 25.44 
z
" style="fill: #ffffff"/>
   </g>
   <g id="line2d_1">
    <path d="M 59.587289 77.293295 
L 59.856445 43.012098 
L 59.991024 43.891699 
L 60.26018 51.424034 
L 60.663915 72.606463 
L 61.202227 102.612618 
L 61.471384 109.955288 
L 61.605962 110.776949 
L 61.875118 48.875205 
L 62.009697 38.198823 
L 62.144275 39.184853 
L 62.413431 47.038333 
L 62.817166 70.095574 
L 63.490057 109.393399 
L 63.759213 113.750528 
L 64.02837 46.208714 
L 64.162948 34.694101 
L 64.297526 36.045922 
L 64.566682 45.097889 
L 65.239573 87.308439 
L 65.643308 107.260117 
L 65.912464 111.835756 
L 66.181621 49.720731 
L 66.316199 39.110382 
L 66.450777 40.100625 
L 66.719934 48.124548 
L 67.796559 96.77577 
L 68.065716 99.701015 
L 68.334872 51.381257 
L 68.46945 42.93267 
L 68.604028 43.631819 
L 68.873185 49.412435 
L 69.276919 66.495175 
L 70.084389 101.591025 
L 70.218967 102.440924 
L 70.488123 46.876019 
L 70.622701 37.301684 
L 70.75728 38.114426 
L 71.026436 45.024717 
L 71.430171 65.585548 
L 71.968483 93.863597 
L 72.23764 101.459924 
L 72.372218 102.571282 
L 72.641374 48.44529 
L 72.775953 39.269469 
L 72.910531 40.369371 
L 73.179687 47.608428 
L 73.718 76.233601 
L 73.987156 90.741705 
L 74.256313 116.921808 
L 74.525469 122.359001 
L 74.794625 46.466192 
L 74.929204 33.605074 
L 75.063782 34.992895 
L 75.332938 44.900389 
L 75.736673 72.466279 
L 76.274986 111.022702 
L 76.409564 110.989807 
L 76.67872 115.216502 
L 76.947877 46.866829 
L 77.082455 35.012658 
L 77.217033 35.930431 
L 77.486189 44.298754 
L 77.889924 69.179765 
L 78.428237 103.348793 
L 78.562815 108.602786 
L 78.697393 97.970169 
L 78.831971 98.546739 
L 79.101128 48.052298 
L 79.235706 39.444071 
L 79.370284 40.457482 
L 79.639441 47.268877 
L 80.177753 73.113968 
L 80.716066 95.811178 
L 80.850644 98.305689 
L 80.985223 115.238173 
L 81.254379 45.288526 
L 81.388957 33.470552 
L 81.523535 34.773887 
L 81.792692 43.910499 
L 82.196426 70.35658 
L 82.869317 113.410403 
L 83.138474 118.743948 
L 83.40763 51.783964 
L 83.542208 42.225017 
L 83.676787 43.418751 
L 83.945943 51.065918 
L 84.484256 79.951379 
L 85.022569 104.95918 
L 85.291725 108.421525 
L 85.560881 50.383143 
L 85.69546 39.570828 
L 85.830038 40.492412 
L 86.099194 48.040846 
L 86.502929 70.131723 
L 87.041242 100.579192 
L 87.310398 108.325675 
L 87.444976 109.360872 
L 87.714133 47.355469 
L 87.848711 32.251542 
L 87.983289 33.63747 
L 88.252445 43.222024 
L 88.65618 70.288067 
L 89.329071 114.592245 
L 89.598227 119.618253 
L 89.867384 45.965532 
L 90.001962 33.235411 
L 90.271118 40.205513 
L 90.674853 62.043924 
L 91.482322 112.837354 
L 91.751478 117.992265 
L 92.020635 50.094276 
L 92.155213 38.429869 
L 92.289791 39.472289 
L 92.558948 48.345833 
L 93.09726 82.557562 
L 93.635573 112.276481 
L 93.90473 115.996285 
L 94.173886 47.636739 
L 94.308464 35.76298 
L 94.443042 36.564836 
L 94.577621 39.619497 
L 94.846777 53.969354 
L 95.923403 95.957841 
L 96.057981 96.889202 
L 96.327137 48.630279 
L 96.461715 40.374041 
L 96.596294 41.248739 
L 96.86545 47.800349 
L 97.000028 51.322652 
L 98.076654 109.923475 
L 98.211232 111.241712 
L 98.480388 49.347929 
L 98.614967 38.786925 
L 98.749545 39.945774 
L 99.018701 48.428193 
L 100.229905 103.80452 
L 100.364483 104.584121 
L 100.63364 52.300753 
L 100.768218 43.311055 
L 100.902796 44.132825 
L 101.171952 51.00451 
L 102.383156 99.720748 
L 102.517734 100.357689 
L 102.786891 50.689319 
L 102.921469 41.965382 
L 103.056047 42.606812 
L 103.325204 48.534553 
L 103.728938 66.097773 
L 104.132673 93.638773 
L 104.536407 108.33678 
L 104.670985 109.359556 
L 104.940142 44.574004 
L 105.07472 33.489265 
L 105.209298 34.549751 
L 105.478455 43.087102 
L 106.689658 101.414322 
L 106.824237 102.496023 
L 107.093393 48.807798 
L 107.227971 39.537735 
L 107.362549 40.570097 
L 107.631706 47.94247 
L 108.170019 76.396926 
L 108.573753 94.609342 
L 108.84291 101.596186 
L 108.977488 102.601934 
L 109.246644 51.450247 
L 109.381222 42.407506 
L 109.515801 43.142998 
L 109.784957 49.663873 
L 110.32327 74.999529 
L 110.592426 87.913108 
L 110.861583 114.880798 
L 111.130739 119.227121 
L 111.399895 43.231856 
L 111.534474 30.152727 
L 111.669052 31.49185 
L 111.938208 41.159445 
L 112.341943 68.752707 
L 112.880256 107.075256 
L 113.014834 94.29871 
L 113.28399 97.440436 
L 113.553147 47.32685 
L 113.687725 38.762936 
L 113.822303 39.606574 
L 114.091459 46.540925 
L 114.629772 73.299469 
L 115.168085 96.456501 
L 115.302663 117.505807 
L 115.437241 118.78467 
L 115.706398 45.346839 
L 115.840976 32.831152 
L 115.975554 34.304332 
L 116.244711 44.369807 
L 116.648445 71.994518 
L 117.186758 109.568072 
L 117.455914 118.990538 
L 117.994227 43.095317 
L 118.128805 43.80196 
L 118.397962 50.097892 
L 118.936274 74.318498 
L 119.474587 95.907546 
L 119.743744 98.934576 
L 120.147478 33.765625 
L 120.282056 34.813698 
L 120.551213 43.507192 
L 120.954947 68.633868 
L 121.49326 103.882624 
L 121.762417 113.300114 
L 121.896995 114.659416 
L 122.166151 47.80074 
L 122.300729 37.66879 
L 122.435308 38.937114 
L 122.704464 47.576199 
L 123.242777 79.086417 
L 123.78109 105.999829 
L 124.050246 110.225946 
L 124.319402 50.221298 
L 124.453981 43.109357 
L 124.588559 44.04937 
L 124.857715 50.846738 
L 125.26145 69.514476 
L 125.934341 99.709008 
L 126.203497 102.781925 
L 126.472654 50.963063 
L 126.607232 41.95576 
L 126.74181 40.524063 
L 127.010966 47.681272 
L 127.549279 75.622642 
L 128.087592 100.060634 
L 128.356748 103.604902 
L 128.625905 46.319997 
L 128.760483 36.665805 
L 128.895061 37.678152 
L 129.029639 36.023821 
L 129.298796 49.442173 
L 130.375421 116.3263 
L 130.51 117.869706 
L 130.779156 46.273712 
L 130.913734 33.973377 
L 131.048312 35.331313 
L 131.317469 44.59584 
L 131.855782 84.121139 
L 132.394094 118.95606 
L 132.663251 124.407273 
L 132.932407 49.466068 
L 133.066985 36.536031 
L 133.201563 37.787859 
L 133.47072 47.308433 
L 134.547345 112.078498 
L 134.816502 116.053562 
L 135.085658 47.353131 
L 135.220236 35.367717 
L 135.354815 36.264389 
L 135.623971 44.783104 
L 136.027706 69.909496 
L 136.566018 107.025709 
L 136.835175 116.466395 
L 136.969753 117.814221 
L 137.238909 43.367884 
L 137.373488 30.605673 
L 137.508066 31.823396 
L 137.777222 41.55344 
L 138.853848 100.877808 
L 139.123004 104.71875 
L 139.392161 48.133963 
L 139.526739 38.797232 
L 139.661317 39.945307 
L 139.930473 47.81306 
L 140.334208 69.044991 
L 140.872521 102.877003 
L 141.141677 111.467475 
L 141.276255 112.794509 
L 141.545412 49.675854 
L 141.67999 38.634366 
L 141.814568 39.58658 
L 142.083725 47.699687 
L 143.294928 103.596753 
L 143.429507 104.211355 
L 143.698663 48.139656 
L 143.833241 38.318474 
L 143.967819 39.048872 
L 144.236976 45.814441 
L 144.64071 65.76057 
L 145.44818 109.034999 
L 145.582758 110.14195 
L 145.851914 44.299416 
L 145.986492 33.184671 
L 146.121071 34.505301 
L 146.390227 43.259909 
L 146.793962 68.711527 
L 147.601431 122.357092 
L 147.736009 123.999009 
L 148.005165 48.320972 
L 148.139743 35.431598 
L 148.274322 36.987884 
L 148.543478 47.142531 
L 149.081791 86.772602 
L 149.485525 114.706237 
L 149.88926 121.560674 
L 150.158416 50.312894 
L 150.292995 37.996957 
L 150.427573 39.086095 
L 150.696729 48.102858 
L 151.235042 82.976374 
L 151.773355 113.659214 
L 151.907933 109.784406 
L 152.042511 110.566593 
L 152.311668 48.570537 
L 152.446246 37.810529 
L 152.580824 38.564419 
L 152.84998 46.192578 
L 153.253715 68.229701 
L 153.792028 98.940684 
L 154.195762 112.764564 
L 154.464919 44.611319 
L 154.599497 32.957116 
L 154.734075 34.244183 
L 155.003232 43.588735 
L 155.541544 79.140817 
L 156.079857 110.070244 
L 156.349014 115.179259 
L 156.61817 51.15213 
L 156.752748 42.471273 
L 156.887326 43.780439 
L 157.156483 51.172102 
L 157.694796 78.52514 
L 158.233108 101.9027 
L 158.502265 104.961283 
L 158.905999 36.490362 
L 159.040578 37.256706 
L 159.309734 45.483193 
L 159.848047 78.199134 
L 160.38636 107.725894 
L 160.655516 111.73627 
L 160.924672 45.106793 
L 161.059251 40.745454 
L 161.193829 41.513964 
L 161.462985 47.777248 
L 162.001298 72.60525 
L 162.539611 94.288783 
L 162.808767 98.269962 
L 163.077923 50.718487 
L 163.34708 41.237334 
L 163.616236 49.203733 
L 164.154549 78.642077 
L 164.692862 104.985416 
L 164.962018 109.082488 
L 165.231175 54.210781 
L 165.365753 45.013943 
L 165.500331 46.132458 
L 166.038644 66.318233 
L 166.711535 97.780162 
L 166.980691 103.818527 
L 167.115269 104.432268 
L 167.384426 53.64986 
L 167.519004 44.842213 
L 167.653582 45.463638 
L 167.922739 51.37808 
L 168.326473 68.729717 
L 168.864786 93.014364 
L 169.133942 99.122192 
L 169.268521 99.811176 
L 169.537677 49.803519 
L 169.672255 41.145967 
L 169.806833 41.982109 
L 170.07599 48.342216 
L 170.210568 52.104067 
L 171.287194 109.32632 
L 171.421772 110.69838 
L 171.690928 49.356148 
L 171.825506 38.854836 
L 171.960085 40.138633 
L 172.229241 48.814424 
L 173.305867 98.543641 
L 173.575023 101.847657 
L 173.844179 54.544328 
L 173.978758 46.451404 
L 174.113336 47.285278 
L 174.382492 53.277462 
L 174.920805 76.584185 
L 175.459118 97.458464 
L 175.728274 100.411702 
L 175.997431 52.772681 
L 176.132009 44.62299 
L 176.266587 45.398907 
L 176.535743 51.343139 
L 177.074056 74.616872 
L 177.612369 95.564348 
L 177.881525 98.997096 
L 178.150682 51.945157 
L 178.28526 43.824338 
L 178.419838 44.659935 
L 178.688994 50.911476 
L 179.227307 74.810683 
L 179.631042 93.038315 
L 179.900198 99.199122 
L 180.034776 99.949055 
L 180.303933 51.724081 
L 180.438511 43.55628 
L 180.573089 44.580031 
L 180.842246 51.582748 
L 181.380558 77.201085 
L 181.515137 83.849233 
L 181.784293 111.701302 
L 182.053449 121.935805 
L 182.188028 123.328321 
L 182.457184 49.958221 
L 182.591762 37.378224 
L 182.72634 38.522488 
L 182.995497 47.89742 
L 183.399231 74.475676 
L 184.072122 118.174445 
L 184.341279 122.505037 
L 184.610435 46.085787 
L 184.745013 32.87009 
L 184.879592 33.772639 
L 185.148748 43.085638 
L 185.687061 80.180881 
L 186.090795 107.536442 
L 186.225374 105.872457 
L 186.49453 110.072149 
L 186.763686 45.323919 
L 186.898265 34.165737 
L 187.032843 35.275756 
L 187.301999 43.796609 
L 187.840312 77.645019 
L 188.513203 117.564795 
L 188.647781 119.111067 
L 188.916938 46.570846 
L 189.051516 34.287177 
L 189.186094 35.700818 
L 189.45525 45.250342 
L 189.858985 72.072969 
L 190.397298 109.01079 
L 190.666454 118.27195 
L 190.801032 106.862432 
L 191.070189 49.477107 
L 191.204767 39.479932 
L 191.339345 40.300906 
L 191.608501 47.610582 
L 192.012236 68.245031 
L 192.550549 96.62345 
L 192.819705 103.625531 
L 192.954283 104.431971 
L 193.358018 30.759832 
L 193.492596 31.852234 
L 193.761753 41.315682 
L 194.030909 58.04026 
L 194.030909 58.04026 
" clip-path="url(#p46e7c83329)" style="fill: none; stroke: #808080; stroke-width: 0.9; stroke-linecap: square"/>
   </g>
   <g id="matplotlib.axis_1">
    <g id="xtick_1">
     <g id="line2d_2">
      <defs>
       <path id="mfdcf4a84cc" d="M 0 0 
L 0 3.5 
" style="stroke: #000000; stroke-width: 0.8"/>
      </defs>
      <g>
       <use xlink:href="#mfdcf4a84cc" x="59.52" y="129.12" style="stroke: #000000; stroke-width: 0.8"/>
      </g>
     </g>
     <g id="text_1">
      <!-- 1.00 -->
      <g transform="translate(48.387187 143.718437) scale(0.1 -0.1)">
       <defs>
        <path id="DejaVuSans-31" d="M 794 531 
L 1825 531 
L 1825 4091 
L 703 3866 
L 703 4441 
L 1819 4666 
L 2450 4666 
L 2450 531 
L 3481 531 
L 3481 0 
L 794 0 
L 794 531 
z
" transform="scale(0.015625)"/>
        <path id="DejaVuSans-2e" d="M 684 794 
L 1344 794 
L 1344 0 
L 684 0 
L 684 794 
z
" transform="scale(0.015625)"/>
        <path id="DejaVuSans-30" d="M 2034 4250 
Q 1547 4250 1301 3770 
Q 1056 3291 1056 2328 
Q 1056 1369 1301 889 
Q 1547 409 2034 409 
Q 2525 409 2770 889 
Q 3016 1369 3016 2328 
Q 3016 3291 2770 3770 
Q 2525 4250 2034 4250 
z
M 2034 4750 
Q 2819 4750 3233 4129 
Q 3647 3509 3647 2328 
Q 3647 1150 3233 529 
Q 2819 -91 2034 -91 
Q 1250 -91 836 529 
Q 422 1150 422 2328 
Q 422 3509 836 4129 
Q 1250 4750 2034 4750 
z
" transform="scale(0.015625)"/>
       </defs>
       <use xlink:href="#DejaVuSans-31"/>
       <use xlink:href="#DejaVuSans-2e" x="63.623047"/>
       <use xlink:href="#DejaVuSans-30" x="95.410156"/>
       <use xlink:href="#DejaVuSans-30" x="159.033203"/>
      </g>
     </g>
    </g>
    <g id="xtick_2">
     <g id="line2d_3">
      <g>
       <use xlink:href="#mfdcf4a84cc" x="126.792277" y="129.12" style="stroke: #000000; stroke-width: 0.8"/>
      </g>
     </g>
     <g id="text_2">
      <!-- 1.25 -->
      <g transform="translate(115.659464 143.718437) scale(0.1 -0.1)">
       <defs>
        <path id="DejaVuSans-32" d="M 1228 531 
L 3431 531 
L 3431 0 
L 469 0 
L 469 531 
Q 828 903 1448 1529 
Q 2069 2156 2228 2338 
Q 2531 2678 2651 2914 
Q 2772 3150 2772 3378 
Q 2772 3750 2511 3984 
Q 2250 4219 1831 4219 
Q 1534 4219 1204 4116 
Q 875 4013 500 3803 
L 500 4441 
Q 881 4594 1212 4672 
Q 1544 4750 1819 4750 
Q 2544 4750 2975 4387 
Q 3406 4025 3406 3419 
Q 3406 3131 3298 2873 
Q 3191 2616 2906 2266 
Q 2828 2175 2409 1742 
Q 1991 1309 1228 531 
z
" transform="scale(0.015625)"/>
        <path id="DejaVuSans-35" d="M 691 4666 
L 3169 4666 
L 3169 4134 
L 1269 4134 
L 1269 2991 
Q 1406 3038 1543 3061 
Q 1681 3084 1819 3084 
Q 2600 3084 3056 2656 
Q 3513 2228 3513 1497 
Q 3513 744 3044 326 
Q 2575 -91 1722 -91 
Q 1428 -91 1123 -41 
Q 819 9 494 109 
L 494 744 
Q 775 591 1075 516 
Q 1375 441 1709 441 
Q 2250 441 2565 725 
Q 2881 1009 2881 1497 
Q 2881 1984 2565 2268 
Q 2250 2553 1709 2553 
Q 1456 2553 1204 2497 
Q 953 2441 691 2322 
L 691 4666 
z
" transform="scale(0.015625)"/>
       </defs>
       <use xlink:href="#DejaVuSans-31"/>
       <use xlink:href="#DejaVuSans-2e" x="63.623047"/>
       <use xlink:href="#DejaVuSans-32" x="95.410156"/>
       <use xlink:href="#DejaVuSans-35" x="159.033203"/>
      </g>
     </g>
    </g>
    <g id="xtick_3">
     <g id="line2d_4">
      <g>
       <use xlink:href="#mfdcf4a84cc" x="194.064554" y="129.12" style="stroke: #000000; stroke-width: 0.8"/>
      </g>
     </g>
     <g id="text_3">
      <!-- 1.50 -->
      <g transform="translate(182.931741 143.718437) scale(0.1 -0.1)">
       <use xlink:href="#DejaVuSans-31"/>
       <use xlink:href="#DejaVuSans-2e" x="63.623047"/>
       <use xlink:href="#DejaVuSans-35" x="95.410156"/>
       <use xlink:href="#DejaVuSans-30" x="159.033203"/>
      </g>
     </g>
    </g>
    <g id="text_4">
     <!-- Time (s) -->
     <g transform="translate(106.513837 157.396563) scale(0.1 -0.1)">
      <defs>
       <path id="DejaVuSans-54" d="M -19 4666 
L 3928 4666 
L 3928 4134 
L 2272 4134 
L 2272 0 
L 1638 0 
L 1638 4134 
L -19 4134 
L -19 4666 
z
" transform="scale(0.015625)"/>
       <path id="DejaVuSans-69" d="M 603 3500 
L 1178 3500 
L 1178 0 
L 603 0 
L 603 3500 
z
M 603 4863 
L 1178 4863 
L 1178 4134 
L 603 4134 
L 603 4863 
z
" transform="scale(0.015625)"/>
       <path id="DejaVuSans-6d" d="M 3328 2828 
Q 3544 3216 3844 3400 
Q 4144 3584 4550 3584 
Q 5097 3584 5394 3201 
Q 5691 2819 5691 2113 
L 5691 0 
L 5113 0 
L 5113 2094 
Q 5113 2597 4934 2840 
Q 4756 3084 4391 3084 
Q 3944 3084 3684 2787 
Q 3425 2491 3425 1978 
L 3425 0 
L 2847 0 
L 2847 2094 
Q 2847 2600 2669 2842 
Q 2491 3084 2119 3084 
Q 1678 3084 1418 2786 
Q 1159 2488 1159 1978 
L 1159 0 
L 581 0 
L 581 3500 
L 1159 3500 
L 1159 2956 
Q 1356 3278 1631 3431 
Q 1906 3584 2284 3584 
Q 2666 3584 2933 3390 
Q 3200 3197 3328 2828 
z
" transform="scale(0.015625)"/>
       <path id="DejaVuSans-65" d="M 3597 1894 
L 3597 1613 
L 953 1613 
Q 991 1019 1311 708 
Q 1631 397 2203 397 
Q 2534 397 2845 478 
Q 3156 559 3463 722 
L 3463 178 
Q 3153 47 2828 -22 
Q 2503 -91 2169 -91 
Q 1331 -91 842 396 
Q 353 884 353 1716 
Q 353 2575 817 3079 
Q 1281 3584 2069 3584 
Q 2775 3584 3186 3129 
Q 3597 2675 3597 1894 
z
M 3022 2063 
Q 3016 2534 2758 2815 
Q 2500 3097 2075 3097 
Q 1594 3097 1305 2825 
Q 1016 2553 972 2059 
L 3022 2063 
z
" transform="scale(0.015625)"/>
       <path id="DejaVuSans-20" transform="scale(0.015625)"/>
       <path id="DejaVuSans-28" d="M 1984 4856 
Q 1566 4138 1362 3434 
Q 1159 2731 1159 2009 
Q 1159 1288 1364 580 
Q 1569 -128 1984 -844 
L 1484 -844 
Q 1016 -109 783 600 
Q 550 1309 550 2009 
Q 550 2706 781 3412 
Q 1013 4119 1484 4856 
L 1984 4856 
z
" transform="scale(0.015625)"/>
       <path id="DejaVuSans-73" d="M 2834 3397 
L 2834 2853 
Q 2591 2978 2328 3040 
Q 2066 3103 1784 3103 
Q 1356 3103 1142 2972 
Q 928 2841 928 2578 
Q 928 2378 1081 2264 
Q 1234 2150 1697 2047 
L 1894 2003 
Q 2506 1872 2764 1633 
Q 3022 1394 3022 966 
Q 3022 478 2636 193 
Q 2250 -91 1575 -91 
Q 1294 -91 989 -36 
Q 684 19 347 128 
L 347 722 
Q 666 556 975 473 
Q 1284 391 1588 391 
Q 1994 391 2212 530 
Q 2431 669 2431 922 
Q 2431 1156 2273 1281 
Q 2116 1406 1581 1522 
L 1381 1569 
Q 847 1681 609 1914 
Q 372 2147 372 2553 
Q 372 3047 722 3315 
Q 1072 3584 1716 3584 
Q 2034 3584 2315 3537 
Q 2597 3491 2834 3397 
z
" transform="scale(0.015625)"/>
       <path id="DejaVuSans-29" d="M 513 4856 
L 1013 4856 
Q 1481 4119 1714 3412 
Q 1947 2706 1947 2009 
Q 1947 1309 1714 600 
Q 1481 -109 1013 -844 
L 513 -844 
Q 928 -128 1133 580 
Q 1338 1288 1338 2009 
Q 1338 2731 1133 3434 
Q 928 4138 513 4856 
z
" transform="scale(0.015625)"/>
      </defs>
      <use xlink:href="#DejaVuSans-54"/>
      <use xlink:href="#DejaVuSans-69" x="57.958984"/>
      <use xlink:href="#DejaVuSans-6d" x="85.742188"/>
      <use xlink:href="#DejaVuSans-65" x="183.154297"/>
      <use xlink:href="#DejaVuSans-20" x="244.677734"/>
      <use xlink:href="#DejaVuSans-28" x="276.464844"/>
      <use xlink:href="#DejaVuSans-73" x="315.478516"/>
      <use xlink:href="#DejaVuSans-29" x="367.578125"/>
     </g>
    </g>
   </g>
   <g id="matplotlib.axis_2">
    <g id="ytick_1">
     <g id="line2d_5">
      <defs>
       <path id="md73d27aa4f" d="M 0 0 
L -3.5 0 
" style="stroke: #000000; stroke-width: 0.8"/>
      </defs>
      <g>
       <use xlink:href="#md73d27aa4f" x="59.52" y="127.182625" style="stroke: #000000; stroke-width: 0.8"/>
      </g>
     </g>
     <g id="text_5">
      <!-- −30 -->
      <g transform="translate(31.415312 130.981843) scale(0.1 -0.1)">
       <defs>
        <path id="DejaVuSans-2212" d="M 678 2272 
L 4684 2272 
L 4684 1741 
L 678 1741 
L 678 2272 
z
" transform="scale(0.015625)"/>
        <path id="DejaVuSans-33" d="M 2597 2516 
Q 3050 2419 3304 2112 
Q 3559 1806 3559 1356 
Q 3559 666 3084 287 
Q 2609 -91 1734 -91 
Q 1441 -91 1130 -33 
Q 819 25 488 141 
L 488 750 
Q 750 597 1062 519 
Q 1375 441 1716 441 
Q 2309 441 2620 675 
Q 2931 909 2931 1356 
Q 2931 1769 2642 2001 
Q 2353 2234 1838 2234 
L 1294 2234 
L 1294 2753 
L 1863 2753 
Q 2328 2753 2575 2939 
Q 2822 3125 2822 3475 
Q 2822 3834 2567 4026 
Q 2313 4219 1838 4219 
Q 1578 4219 1281 4162 
Q 984 4106 628 3988 
L 628 4550 
Q 988 4650 1302 4700 
Q 1616 4750 1894 4750 
Q 2613 4750 3031 4423 
Q 3450 4097 3450 3541 
Q 3450 3153 3228 2886 
Q 3006 2619 2597 2516 
z
" transform="scale(0.015625)"/>
       </defs>
       <use xlink:href="#DejaVuSans-2212"/>
       <use xlink:href="#DejaVuSans-33" x="83.789062"/>
       <use xlink:href="#DejaVuSans-30" x="147.412109"/>
      </g>
     </g>
    </g>
    <g id="ytick_2">
     <g id="line2d_6">
      <g>
       <use xlink:href="#md73d27aa4f" x="59.52" y="105.40259" style="stroke: #000000; stroke-width: 0.8"/>
      </g>
     </g>
     <g id="text_6">
      <!-- −20 -->
      <g transform="translate(31.415312 109.201809) scale(0.1 -0.1)">
       <use xlink:href="#DejaVuSans-2212"/>
       <use xlink:href="#DejaVuSans-32" x="83.789062"/>
       <use xlink:href="#DejaVuSans-30" x="147.412109"/>
      </g>
     </g>
    </g>
    <g id="ytick_3">
     <g id="line2d_7">
      <g>
       <use xlink:href="#md73d27aa4f" x="59.52" y="83.622556" style="stroke: #000000; stroke-width: 0.8"/>
      </g>
     </g>
     <g id="text_7">
      <!-- −10 -->
      <g transform="translate(31.415312 87.421775) scale(0.1 -0.1)">
       <use xlink:href="#DejaVuSans-2212"/>
       <use xlink:href="#DejaVuSans-31" x="83.789062"/>
       <use xlink:href="#DejaVuSans-30" x="147.412109"/>
      </g>
     </g>
    </g>
    <g id="ytick_4">
     <g id="line2d_8">
      <g>
       <use xlink:href="#md73d27aa4f" x="59.52" y="61.842522" style="stroke: #000000; stroke-width: 0.8"/>
      </g>
     </g>
     <g id="text_8">
      <!-- 0 -->
      <g transform="translate(46.1575 65.64174) scale(0.1 -0.1)">
       <use xlink:href="#DejaVuSans-30"/>
      </g>
     </g>
    </g>
    <g id="ytick_5">
     <g id="line2d_9">
      <g>
       <use xlink:href="#md73d27aa4f" x="59.52" y="40.062487" style="stroke: #000000; stroke-width: 0.8"/>
      </g>
     </g>
     <g id="text_9">
      <!-- 10 -->
      <g transform="translate(39.795 43.861706) scale(0.1 -0.1)">
       <use xlink:href="#DejaVuSans-31"/>
       <use xlink:href="#DejaVuSans-30" x="63.623047"/>
      </g>
     </g>
    </g>
    <g id="text_10">
     <!-- Amplitude (mV) -->
     <g transform="translate(25.335625 116.683906) rotate(-90) scale(0.1 -0.1)">
      <defs>
       <path id="DejaVuSans-41" d="M 2188 4044 
L 1331 1722 
L 3047 1722 
L 2188 4044 
z
M 1831 4666 
L 2547 4666 
L 4325 0 
L 3669 0 
L 3244 1197 
L 1141 1197 
L 716 0 
L 50 0 
L 1831 4666 
z
" transform="scale(0.015625)"/>
       <path id="DejaVuSans-70" d="M 1159 525 
L 1159 -1331 
L 581 -1331 
L 581 3500 
L 1159 3500 
L 1159 2969 
Q 1341 3281 1617 3432 
Q 1894 3584 2278 3584 
Q 2916 3584 3314 3078 
Q 3713 2572 3713 1747 
Q 3713 922 3314 415 
Q 2916 -91 2278 -91 
Q 1894 -91 1617 61 
Q 1341 213 1159 525 
z
M 3116 1747 
Q 3116 2381 2855 2742 
Q 2594 3103 2138 3103 
Q 1681 3103 1420 2742 
Q 1159 2381 1159 1747 
Q 1159 1113 1420 752 
Q 1681 391 2138 391 
Q 2594 391 2855 752 
Q 3116 1113 3116 1747 
z
" transform="scale(0.015625)"/>
       <path id="DejaVuSans-6c" d="M 603 4863 
L 1178 4863 
L 1178 0 
L 603 0 
L 603 4863 
z
" transform="scale(0.015625)"/>
       <path id="DejaVuSans-74" d="M 1172 4494 
L 1172 3500 
L 2356 3500 
L 2356 3053 
L 1172 3053 
L 1172 1153 
Q 1172 725 1289 603 
Q 1406 481 1766 481 
L 2356 481 
L 2356 0 
L 1766 0 
Q 1100 0 847 248 
Q 594 497 594 1153 
L 594 3053 
L 172 3053 
L 172 3500 
L 594 3500 
L 594 4494 
L 1172 4494 
z
" transform="scale(0.015625)"/>
       <path id="DejaVuSans-75" d="M 544 1381 
L 544 3500 
L 1119 3500 
L 1119 1403 
Q 1119 906 1312 657 
Q 1506 409 1894 409 
Q 2359 409 2629 706 
Q 2900 1003 2900 1516 
L 2900 3500 
L 3475 3500 
L 3475 0 
L 2900 0 
L 2900 538 
Q 2691 219 2414 64 
Q 2138 -91 1772 -91 
Q 1169 -91 856 284 
Q 544 659 544 1381 
z
M 1991 3584 
L 1991 3584 
z
" transform="scale(0.015625)"/>
       <path id="DejaVuSans-64" d="M 2906 2969 
L 2906 4863 
L 3481 4863 
L 3481 0 
L 2906 0 
L 2906 525 
Q 2725 213 2448 61 
Q 2172 -91 1784 -91 
Q 1150 -91 751 415 
Q 353 922 353 1747 
Q 353 2572 751 3078 
Q 1150 3584 1784 3584 
Q 2172 3584 2448 3432 
Q 2725 3281 2906 2969 
z
M 947 1747 
Q 947 1113 1208 752 
Q 1469 391 1925 391 
Q 2381 391 2643 752 
Q 2906 1113 2906 1747 
Q 2906 2381 2643 2742 
Q 2381 3103 1925 3103 
Q 1469 3103 1208 2742 
Q 947 2381 947 1747 
z
" transform="scale(0.015625)"/>
       <path id="DejaVuSans-56" d="M 1831 0 
L 50 4666 
L 709 4666 
L 2188 738 
L 3669 4666 
L 4325 4666 
L 2547 0 
L 1831 0 
z
" transform="scale(0.015625)"/>
      </defs>
      <use xlink:href="#DejaVuSans-41"/>
      <use xlink:href="#DejaVuSans-6d" x="68.408203"/>
      <use xlink:href="#DejaVuSans-70" x="165.820312"/>
      <use xlink:href="#DejaVuSans-6c" x="229.296875"/>
      <use xlink:href="#DejaVuSans-69" x="257.080078"/>
      <use xlink:href="#DejaVuSans-74" x="284.863281"/>
      <use xlink:href="#DejaVuSans-75" x="324.072266"/>
      <use xlink:href="#DejaVuSans-64" x="387.451172"/>
      <use xlink:href="#DejaVuSans-65" x="450.927734"/>
      <use xlink:href="#DejaVuSans-20" x="512.451172"/>
      <use xlink:href="#DejaVuSans-28" x="544.238281"/>
      <use xlink:href="#DejaVuSans-6d" x="583.251953"/>
      <use xlink:href="#DejaVuSans-56" x="680.664062"/>
      <use xlink:href="#DejaVuSans-29" x="749.072266"/>
     </g>
    </g>
   </g>
   <g id="line2d_10">
    <path d="M 59.587289 65.423929 
L 60.26018 65.184014 
L 61.202227 63.248616 
L 61.875118 61.831434 
L 62.278853 61.538256 
L 62.682588 61.267778 
L 63.893791 60.435498 
L 64.162948 60.488844 
L 64.701261 61.14171 
L 65.239573 61.783702 
L 65.912464 62.819418 
L 66.181621 62.841014 
L 66.450777 62.824182 
L 66.98909 62.694938 
L 67.123668 62.70729 
L 67.661981 62.24378 
L 67.931137 62.155925 
L 70.353545 58.601953 
L 70.622701 58.480868 
L 71.161014 58.063056 
L 71.295592 58.098942 
L 71.968483 58.98776 
L 72.372218 59.686649 
L 72.641374 59.924289 
L 73.314265 60.668946 
L 73.583422 61.256778 
L 74.525469 62.071921 
L 74.660047 62.245768 
L 74.929204 62.854538 
L 75.19836 62.913878 
L 75.332938 62.891114 
L 75.736673 62.343689 
L 76.274986 61.994361 
L 76.544142 61.869396 
L 77.620768 60.145293 
L 77.889924 60.18441 
L 78.15908 60.113831 
L 78.831971 59.082695 
L 79.101128 58.615703 
L 79.235706 58.59083 
L 79.908597 59.299456 
L 80.850644 59.693205 
L 80.985223 59.739447 
L 81.523535 60.502625 
L 81.92727 60.5848 
L 82.196426 61.037986 
L 83.273052 63.513833 
L 83.811365 64.271276 
L 84.080521 64.468664 
L 84.618834 64.347632 
L 85.560881 63.440056 
L 86.772085 61.439462 
L 87.310398 60.598654 
L 87.444976 60.581277 
L 87.714133 60.412383 
L 87.848711 60.429499 
L 87.983289 60.562199 
L 88.387024 60.470515 
L 88.65618 60.536302 
L 88.790758 60.530246 
L 89.059914 61.119837 
L 89.463649 61.526497 
L 89.867384 61.511515 
L 90.13654 61.424892 
L 90.809431 62.530032 
L 90.944009 62.623633 
L 92.020635 64.460007 
L 92.155213 64.468553 
L 92.424369 64.279859 
L 92.693526 64.275602 
L 93.09726 63.98772 
L 93.366417 63.951019 
L 93.635573 63.302287 
L 94.039308 62.145831 
L 94.308464 61.732725 
L 95.38509 59.094269 
L 95.788824 58.660859 
L 96.192559 58.767531 
L 96.86545 59.176104 
L 97.942076 61.376189 
L 98.614967 62.704883 
L 98.749545 62.799968 
L 99.018701 63.139621 
L 99.422436 63.537799 
L 99.691592 63.423155 
L 99.960749 63.579766 
L 100.229905 63.566191 
L 100.768218 63.264021 
L 101.037374 63.212582 
L 101.441109 63.338755 
L 101.710265 63.115679 
L 103.190625 60.400171 
L 103.863516 59.263195 
L 104.536407 58.378167 
L 104.940142 58.241425 
L 105.478455 58.324424 
L 107.227971 60.235267 
L 107.631706 60.673083 
L 108.304597 61.803552 
L 108.84291 62.206323 
L 109.112066 62.325823 
L 109.246644 62.226324 
L 109.515801 61.806529 
L 109.784957 61.677738 
L 110.054113 61.39245 
L 110.457848 60.856001 
L 111.265317 59.322208 
L 111.534474 59.140455 
L 111.669052 59.190334 
L 113.822303 57.834849 
L 113.956881 57.928584 
L 115.033507 60.479823 
L 115.302663 60.581159 
L 115.57182 60.650253 
L 116.110132 61.501522 
L 116.648445 62.22571 
L 116.917602 62.354503 
L 117.725071 61.914077 
L 117.994227 61.590494 
L 118.263383 61.41569 
L 118.53254 61.489034 
L 118.936274 61.093396 
L 119.743744 60.813527 
L 120.954947 59.459609 
L 121.224104 59.497087 
L 121.49326 59.447487 
L 122.300729 60.690919 
L 122.569886 61.348988 
L 122.97362 62.377443 
L 123.242777 62.624289 
L 123.646511 62.501668 
L 124.319402 62.922773 
L 124.453981 62.811035 
L 124.857715 62.964822 
L 125.26145 62.696162 
L 125.396028 62.630144 
L 125.530606 62.751764 
L 125.934341 62.555243 
L 127.414701 60.397278 
L 127.953014 58.927183 
L 128.356748 58.3706 
L 128.625905 58.427936 
L 128.895061 58.648392 
L 129.164218 58.801612 
L 129.567952 58.778553 
L 129.70253 58.868329 
L 130.106265 59.875671 
L 130.51 61.067327 
L 130.913734 61.53217 
L 131.182891 61.84215 
L 131.721203 63.348911 
L 132.124938 64.169101 
L 132.663251 65.150545 
L 133.201563 65.258776 
L 133.47072 64.991681 
L 134.009033 64.017186 
L 134.547345 63.091926 
L 134.95108 62.154645 
L 135.354815 61.085387 
L 135.893127 60.324196 
L 136.43144 59.431384 
L 136.835175 58.999513 
L 136.969753 59.079963 
L 137.238909 59.089379 
L 138.046379 59.23785 
L 138.450113 59.505548 
L 138.853848 59.871082 
L 139.123004 59.899785 
L 139.392161 60.130728 
L 139.661317 60.722999 
L 140.19963 61.432226 
L 140.603364 61.752456 
L 141.007099 62.362109 
L 141.545412 63.053856 
L 141.949146 62.685118 
L 142.352881 62.531496 
L 143.833241 59.585012 
L 144.64071 58.400694 
L 145.179023 58.13275 
L 145.44818 58.176647 
L 145.851914 58.212983 
L 146.255649 58.722415 
L 146.390227 58.77165 
L 146.659383 59.484911 
L 147.197696 61.87922 
L 147.736009 63.779628 
L 148.139743 64.648215 
L 148.4089 65.009988 
L 148.678056 65.278133 
L 149.216369 65.973076 
L 149.754682 65.730969 
L 149.88926 65.760459 
L 150.023838 65.600074 
L 150.292995 65.069529 
L 150.831307 64.578567 
L 152.580824 61.032983 
L 153.119137 60.1892 
L 153.522871 59.783939 
L 154.330341 58.976552 
L 154.599497 58.987243 
L 154.868653 59.374639 
L 155.676123 60.587749 
L 155.945279 60.739013 
L 156.483592 61.884406 
L 157.021905 63.512686 
L 157.560217 64.009358 
L 157.963952 63.900085 
L 158.09853 63.859172 
L 158.771421 62.360137 
L 159.175156 61.390691 
L 160.117203 59.791195 
L 160.38636 59.6856 
L 160.790094 59.160543 
L 161.193829 59.139069 
L 161.328407 59.04365 
L 162.001298 59.415688 
L 162.270454 59.331838 
L 162.539611 59.503986 
L 163.885393 62.877882 
L 164.289127 63.899245 
L 164.82744 65.266515 
L 165.096596 65.549325 
L 165.500331 66.39876 
L 165.769487 66.523499 
L 165.904066 66.448857 
L 166.038644 66.552596 
L 166.3078 66.281668 
L 166.980691 65.012688 
L 167.922739 63.17701 
L 168.864786 60.859908 
L 169.268521 60.272855 
L 169.672255 60.328761 
L 169.806833 60.311739 
L 170.07599 60.141146 
L 170.210568 60.151766 
L 170.479724 60.314636 
L 170.614303 60.373631 
L 171.55635 62.099363 
L 171.825506 62.601782 
L 172.363819 63.640785 
L 172.632976 64.234202 
L 172.902132 64.402173 
L 173.03671 64.288259 
L 173.844179 64.526613 
L 174.113336 64.574009 
L 174.382492 64.406356 
L 174.51707 64.389744 
L 174.651649 64.253276 
L 174.920805 63.624012 
L 175.32454 63.350955 
L 175.728274 63.054306 
L 176.132009 62.747667 
L 176.401165 62.654498 
L 177.074056 61.67081 
L 177.343212 61.304917 
L 177.477791 61.299117 
L 178.28526 61.929281 
L 178.823573 62.049222 
L 179.227307 61.864621 
L 179.631042 62.065943 
L 180.169355 61.878993 
L 180.438511 62.033864 
L 180.707667 62.536181 
L 181.24598 63.888384 
L 181.784293 64.329288 
L 182.322606 65.350725 
L 182.591762 65.639551 
L 183.130075 65.102005 
L 183.802966 63.971406 
L 184.072122 63.619531 
L 185.956217 59.125371 
L 186.629108 58.835138 
L 186.898265 59.091812 
L 187.301999 59.128109 
L 187.840312 59.82146 
L 187.97489 59.907969 
L 188.378625 60.818205 
L 189.186094 62.456023 
L 189.993563 62.373184 
L 190.26272 62.247939 
L 190.801032 61.737024 
L 191.070189 61.555898 
L 191.473923 61.139427 
L 191.877658 60.895024 
L 192.819705 59.473846 
L 192.954283 59.306563 
L 193.492596 58.217677 
L 193.627174 58.185572 
L 194.030909 58.37632 
L 194.030909 58.37632 
" clip-path="url(#p46e7c83329)" style="fill: none; stroke: #1e90ff; stroke-linecap: square"/>
   </g>
   <g id="patch_3">
    <path d="M 59.52 129.12 
L 59.52 25.44 
" style="fill: none; stroke: #000000; stroke-width: 0.8; stroke-linejoin: miter; stroke-linecap: square"/>
   </g>
   <g id="patch_4">
    <path d="M 194.165487 129.12 
L 194.165487 25.44 
" style="fill: none; stroke: #000000; stroke-width: 0.8; stroke-linejoin: miter; stroke-linecap: square"/>
   </g>
   <g id="patch_5">
    <path d="M 59.52 129.12 
L 194.165487 129.12 
" style="fill: none; stroke: #000000; stroke-width: 0.8; stroke-linejoin: miter; stroke-linecap: square"/>
   </g>
   <g id="patch_6">
    <path d="M 59.52 25.44 
L 194.165487 25.44 
" style="fill: none; stroke: #000000; stroke-width: 0.8; stroke-linejoin: miter; stroke-linecap: square"/>
   </g>
   <g id="line2d_11">
    <path d="M 59.587289 65.491405 
L 60.529336 64.707096 
L 61.067649 63.548029 
L 61.74054 62.06688 
L 62.144275 61.51298 
L 64.02837 60.434113 
L 64.297526 60.623431 
L 65.239573 61.776692 
L 65.912464 62.758149 
L 66.316199 62.885772 
L 66.98909 62.667177 
L 67.527403 62.339222 
L 68.334872 61.543067 
L 69.276919 60.015992 
L 70.488123 58.569454 
L 70.891858 58.227244 
L 71.161014 58.045345 
L 71.430171 58.257134 
L 71.968483 58.97184 
L 72.506796 59.785121 
L 72.910531 60.221779 
L 73.179687 60.451313 
L 74.121735 61.884021 
L 74.525469 62.28478 
L 75.19836 62.975854 
L 76.005829 62.228275 
L 76.274986 62.112184 
L 77.082455 61.094811 
L 77.755346 60.056014 
L 78.024502 60.032356 
L 78.428237 59.546509 
L 78.96655 58.763516 
L 79.235706 58.74661 
L 79.908597 59.251435 
L 80.043175 59.275294 
L 80.581488 59.708904 
L 81.119801 60.08995 
L 81.523535 60.436785 
L 81.92727 60.601398 
L 82.061848 60.759085 
L 83.138474 63.286819 
L 83.676787 64.089152 
L 84.080521 64.363455 
L 84.484256 64.403224 
L 84.753412 64.279902 
L 85.560881 63.460003 
L 87.310398 60.579501 
L 88.252445 60.641554 
L 88.65618 60.511069 
L 88.925336 60.78912 
L 89.329071 61.252809 
L 90.405696 61.887562 
L 91.347744 63.293223 
L 91.886057 64.421267 
L 92.289791 64.481049 
L 92.558948 64.368857 
L 92.962682 64.084547 
L 93.366417 63.946904 
L 93.635573 63.358749 
L 94.308464 61.622635 
L 95.519668 58.863378 
L 95.788824 58.591583 
L 96.057981 58.742763 
L 96.327137 58.896223 
L 96.730872 59.058088 
L 97.000028 59.417826 
L 98.749545 62.827547 
L 99.422436 63.490773 
L 100.229905 63.616757 
L 100.902796 63.276833 
L 101.441109 63.285907 
L 101.710265 62.996375 
L 102.114 62.140334 
L 102.517734 61.540424 
L 102.921469 60.779836 
L 104.132673 58.887482 
L 104.536407 58.38536 
L 105.209298 58.239427 
L 105.478455 58.302419 
L 105.882189 58.749305 
L 106.689658 59.792521 
L 108.977488 62.251732 
L 109.112066 62.333023 
L 109.784957 61.592111 
L 110.592426 60.817263 
L 111.265317 59.474954 
L 111.669052 59.139428 
L 112.072786 58.833172 
L 112.880256 58.122437 
L 113.418568 57.979059 
L 113.956881 57.928214 
L 114.226038 58.463159 
L 114.898929 60.303947 
L 115.168085 60.516158 
L 115.437241 60.629828 
L 116.110132 61.541143 
L 117.05218 62.380789 
L 117.455914 62.214276 
L 117.859649 61.777025 
L 118.128805 61.516342 
L 120.147478 60.397322 
L 120.820369 59.539628 
L 121.627838 59.819278 
L 121.896995 60.167763 
L 122.300729 60.837748 
L 122.704464 61.667873 
L 123.108199 62.525 
L 123.377355 62.598537 
L 123.78109 62.617547 
L 124.723137 63.059589 
L 125.126872 62.70177 
L 125.396028 62.63035 
L 125.665184 62.696446 
L 126.068919 62.397795 
L 126.338075 62.055816 
L 127.414701 60.372694 
L 128.22217 58.715668 
L 128.625905 58.510768 
L 129.298796 58.731422 
L 129.567952 58.767951 
L 129.837109 59.160627 
L 131.048312 61.84631 
L 131.586625 62.845728 
L 132.394094 64.704039 
L 132.797829 65.219727 
L 133.066985 65.252292 
L 133.336142 65.088888 
L 133.739876 64.510394 
L 134.278189 63.361706 
L 135.085658 61.777255 
L 135.489393 60.961452 
L 136.835175 59.06462 
L 137.104331 59.067567 
L 137.642644 59.024102 
L 137.9118 59.033662 
L 139.392161 60.294491 
L 139.930473 61.130254 
L 140.872521 62.243076 
L 141.410834 63.018657 
L 141.67999 62.861747 
L 142.218303 62.554429 
L 142.487459 62.374707 
L 142.891194 61.67789 
L 144.236976 58.812945 
L 144.64071 58.303935 
L 145.717336 58.179362 
L 146.524805 59.142024 
L 146.793962 59.929719 
L 147.870587 64.170881 
L 148.274322 64.926342 
L 149.081791 65.717991 
L 149.350947 65.81587 
L 149.754682 65.666898 
L 150.023838 65.509359 
L 150.427573 64.979273 
L 150.696729 64.769746 
L 150.965886 64.248019 
L 151.36962 63.322363 
L 152.177089 61.763908 
L 153.119137 60.133525 
L 154.061184 59.101961 
L 154.464919 59.086111 
L 154.734075 59.213983 
L 155.272388 60.043223 
L 155.541544 60.56297 
L 156.214435 61.400453 
L 157.291061 63.75698 
L 157.560217 63.88204 
L 157.963952 63.878975 
L 158.233108 63.548572 
L 159.040578 61.832349 
L 160.117203 59.785026 
L 160.38636 59.616959 
L 160.790094 59.162674 
L 161.462985 58.955923 
L 162.135876 59.34003 
L 162.405032 59.354104 
L 162.674189 59.803272 
L 163.34708 61.548356 
L 164.289127 63.959252 
L 164.82744 65.305762 
L 165.904066 66.496899 
L 166.173222 66.448338 
L 167.115269 64.878231 
L 167.653582 63.680391 
L 169.133942 60.65622 
L 170.07599 60.039696 
L 170.479724 60.321406 
L 170.883459 60.794814 
L 171.287194 61.557413 
L 171.690928 62.34413 
L 172.094663 63.034191 
L 172.767554 64.294564 
L 173.03671 64.366648 
L 173.305867 64.392421 
L 173.709601 64.611176 
L 174.51707 64.29608 
L 174.786227 63.939983 
L 175.189961 63.464157 
L 175.728274 63.103263 
L 176.132009 62.648124 
L 176.670321 62.280462 
L 177.343212 61.592661 
L 177.612369 61.618922 
L 178.016103 61.808939 
L 178.688994 61.993032 
L 179.361885 61.938877 
L 179.631042 62.050936 
L 180.034776 61.887999 
L 180.573089 62.223502 
L 181.515137 64.110779 
L 181.784293 64.534967 
L 182.188028 65.306192 
L 182.591762 65.47065 
L 182.860919 65.412909 
L 184.072122 63.54928 
L 184.610435 62.102451 
L 185.687061 59.585226 
L 185.956217 59.251379 
L 186.629108 58.92007 
L 187.301999 59.096088 
L 188.378625 60.943792 
L 188.916938 62.03883 
L 189.320672 62.423024 
L 190.531876 62.191886 
L 192.012236 60.539555 
L 193.627174 58.398106 
L 194.030909 58.361484 
L 194.030909 58.361484 
" clip-path="url(#p46e7c83329)" style="fill: none; stroke: #ff0000; stroke-width: 0.8; stroke-linecap: square"/>
   </g>
   <g id="text_11">
    <!-- Time Domain Plot -->
    <g transform="translate(73.758681 19.44) scale(0.12 -0.12)">
     <defs>
      <path id="DejaVuSans-44" d="M 1259 4147 
L 1259 519 
L 2022 519 
Q 2988 519 3436 956 
Q 3884 1394 3884 2338 
Q 3884 3275 3436 3711 
Q 2988 4147 2022 4147 
L 1259 4147 
z
M 628 4666 
L 1925 4666 
Q 3281 4666 3915 4102 
Q 4550 3538 4550 2338 
Q 4550 1131 3912 565 
Q 3275 0 1925 0 
L 628 0 
L 628 4666 
z
" transform="scale(0.015625)"/>
      <path id="DejaVuSans-6f" d="M 1959 3097 
Q 1497 3097 1228 2736 
Q 959 2375 959 1747 
Q 959 1119 1226 758 
Q 1494 397 1959 397 
Q 2419 397 2687 759 
Q 2956 1122 2956 1747 
Q 2956 2369 2687 2733 
Q 2419 3097 1959 3097 
z
M 1959 3584 
Q 2709 3584 3137 3096 
Q 3566 2609 3566 1747 
Q 3566 888 3137 398 
Q 2709 -91 1959 -91 
Q 1206 -91 779 398 
Q 353 888 353 1747 
Q 353 2609 779 3096 
Q 1206 3584 1959 3584 
z
" transform="scale(0.015625)"/>
      <path id="DejaVuSans-61" d="M 2194 1759 
Q 1497 1759 1228 1600 
Q 959 1441 959 1056 
Q 959 750 1161 570 
Q 1363 391 1709 391 
Q 2188 391 2477 730 
Q 2766 1069 2766 1631 
L 2766 1759 
L 2194 1759 
z
M 3341 1997 
L 3341 0 
L 2766 0 
L 2766 531 
Q 2569 213 2275 61 
Q 1981 -91 1556 -91 
Q 1019 -91 701 211 
Q 384 513 384 1019 
Q 384 1609 779 1909 
Q 1175 2209 1959 2209 
L 2766 2209 
L 2766 2266 
Q 2766 2663 2505 2880 
Q 2244 3097 1772 3097 
Q 1472 3097 1187 3025 
Q 903 2953 641 2809 
L 641 3341 
Q 956 3463 1253 3523 
Q 1550 3584 1831 3584 
Q 2591 3584 2966 3190 
Q 3341 2797 3341 1997 
z
" transform="scale(0.015625)"/>
      <path id="DejaVuSans-6e" d="M 3513 2113 
L 3513 0 
L 2938 0 
L 2938 2094 
Q 2938 2591 2744 2837 
Q 2550 3084 2163 3084 
Q 1697 3084 1428 2787 
Q 1159 2491 1159 1978 
L 1159 0 
L 581 0 
L 581 3500 
L 1159 3500 
L 1159 2956 
Q 1366 3272 1645 3428 
Q 1925 3584 2291 3584 
Q 2894 3584 3203 3211 
Q 3513 2838 3513 2113 
z
" transform="scale(0.015625)"/>
      <path id="DejaVuSans-50" d="M 1259 4147 
L 1259 2394 
L 2053 2394 
Q 2494 2394 2734 2622 
Q 2975 2850 2975 3272 
Q 2975 3691 2734 3919 
Q 2494 4147 2053 4147 
L 1259 4147 
z
M 628 4666 
L 2053 4666 
Q 2838 4666 3239 4311 
Q 3641 3956 3641 3272 
Q 3641 2581 3239 2228 
Q 2838 1875 2053 1875 
L 1259 1875 
L 1259 0 
L 628 0 
L 628 4666 
z
" transform="scale(0.015625)"/>
     </defs>
     <use xlink:href="#DejaVuSans-54"/>
     <use xlink:href="#DejaVuSans-69" x="57.958984"/>
     <use xlink:href="#DejaVuSans-6d" x="85.742188"/>
     <use xlink:href="#DejaVuSans-65" x="183.154297"/>
     <use xlink:href="#DejaVuSans-20" x="244.677734"/>
     <use xlink:href="#DejaVuSans-44" x="276.464844"/>
     <use xlink:href="#DejaVuSans-6f" x="353.466797"/>
     <use xlink:href="#DejaVuSans-6d" x="414.648438"/>
     <use xlink:href="#DejaVuSans-61" x="512.060547"/>
     <use xlink:href="#DejaVuSans-69" x="573.339844"/>
     <use xlink:href="#DejaVuSans-6e" x="601.123047"/>
     <use xlink:href="#DejaVuSans-20" x="664.501953"/>
     <use xlink:href="#DejaVuSans-50" x="696.289062"/>
     <use xlink:href="#DejaVuSans-6c" x="756.591797"/>
     <use xlink:href="#DejaVuSans-6f" x="784.375"/>
     <use xlink:href="#DejaVuSans-74" x="845.556641"/>
    </g>
   </g>
   <g id="patch_7">
    <path d="M 140.334208 83.622556 
L 167.249848 83.622556 
L 167.249848 45.507496 
L 140.334208 45.507496 
L 140.334208 83.622556 
z
" clip-path="url(#p46e7c83329)" style="fill: none; stroke: #000000; stroke-width: 1.2; stroke-linejoin: miter"/>
   </g>
   <g id="legend_1">
    <g id="patch_8">
     <path d="M 21.226354 158.724 
L 52.094479 158.724 
Q 52.694479 158.724 52.694479 158.124 
L 52.694479 145.213687 
Q 52.694479 144.613687 52.094479 144.613687 
L 21.226354 144.613687 
Q 20.626354 144.613687 20.626354 145.213687 
L 20.626354 158.124 
Q 20.626354 158.724 21.226354 158.724 
z
" style="fill: #ffffff; opacity: 0.8; stroke: #cccccc; stroke-linejoin: miter"/>
    </g>
    <g id="line2d_12">
     <path d="M 21.826354 147.043219 
L 24.826354 147.043219 
L 27.826354 147.043219 
" style="fill: none; stroke: #808080; stroke-width: 0.9; stroke-linecap: square"/>
    </g>
    <g id="text_12">
     <!-- Contaminated -->
     <g transform="translate(30.226354 148.093219) scale(0.03 -0.03)">
      <defs>
       <path id="DejaVuSans-43" d="M 4122 4306 
L 4122 3641 
Q 3803 3938 3442 4084 
Q 3081 4231 2675 4231 
Q 1875 4231 1450 3742 
Q 1025 3253 1025 2328 
Q 1025 1406 1450 917 
Q 1875 428 2675 428 
Q 3081 428 3442 575 
Q 3803 722 4122 1019 
L 4122 359 
Q 3791 134 3420 21 
Q 3050 -91 2638 -91 
Q 1578 -91 968 557 
Q 359 1206 359 2328 
Q 359 3453 968 4101 
Q 1578 4750 2638 4750 
Q 3056 4750 3426 4639 
Q 3797 4528 4122 4306 
z
" transform="scale(0.015625)"/>
      </defs>
      <use xlink:href="#DejaVuSans-43"/>
      <use xlink:href="#DejaVuSans-6f" x="69.824219"/>
      <use xlink:href="#DejaVuSans-6e" x="131.005859"/>
      <use xlink:href="#DejaVuSans-74" x="194.384766"/>
      <use xlink:href="#DejaVuSans-61" x="233.59375"/>
      <use xlink:href="#DejaVuSans-6d" x="294.873047"/>
      <use xlink:href="#DejaVuSans-69" x="392.285156"/>
      <use xlink:href="#DejaVuSans-6e" x="420.068359"/>
      <use xlink:href="#DejaVuSans-61" x="483.447266"/>
      <use xlink:href="#DejaVuSans-74" x="544.726562"/>
      <use xlink:href="#DejaVuSans-65" x="583.935547"/>
      <use xlink:href="#DejaVuSans-64" x="645.458984"/>
     </g>
    </g>
    <g id="line2d_13">
     <path d="M 21.826354 151.446656 
L 24.826354 151.446656 
L 27.826354 151.446656 
" style="fill: none; stroke: #1e90ff; stroke-linecap: square"/>
    </g>
    <g id="text_13">
     <!-- Clean -->
     <g transform="translate(30.226354 152.496656) scale(0.03 -0.03)">
      <use xlink:href="#DejaVuSans-43"/>
      <use xlink:href="#DejaVuSans-6c" x="69.824219"/>
      <use xlink:href="#DejaVuSans-65" x="97.607422"/>
      <use xlink:href="#DejaVuSans-61" x="159.130859"/>
      <use xlink:href="#DejaVuSans-6e" x="220.410156"/>
     </g>
    </g>
    <g id="line2d_14">
     <path d="M 21.826354 155.850094 
L 24.826354 155.850094 
L 27.826354 155.850094 
" style="fill: none; stroke: #ff0000; stroke-width: 0.8; stroke-linecap: square"/>
    </g>
    <g id="text_14">
     <!-- SACed -->
     <g transform="translate(30.226354 156.900094) scale(0.03 -0.03)">
      <defs>
       <path id="DejaVuSans-53" d="M 3425 4513 
L 3425 3897 
Q 3066 4069 2747 4153 
Q 2428 4238 2131 4238 
Q 1616 4238 1336 4038 
Q 1056 3838 1056 3469 
Q 1056 3159 1242 3001 
Q 1428 2844 1947 2747 
L 2328 2669 
Q 3034 2534 3370 2195 
Q 3706 1856 3706 1288 
Q 3706 609 3251 259 
Q 2797 -91 1919 -91 
Q 1588 -91 1214 -16 
Q 841 59 441 206 
L 441 856 
Q 825 641 1194 531 
Q 1563 422 1919 422 
Q 2459 422 2753 634 
Q 3047 847 3047 1241 
Q 3047 1584 2836 1778 
Q 2625 1972 2144 2069 
L 1759 2144 
Q 1053 2284 737 2584 
Q 422 2884 422 3419 
Q 422 4038 858 4394 
Q 1294 4750 2059 4750 
Q 2388 4750 2728 4690 
Q 3069 4631 3425 4513 
z
" transform="scale(0.015625)"/>
      </defs>
      <use xlink:href="#DejaVuSans-53"/>
      <use xlink:href="#DejaVuSans-41" x="65.351562"/>
      <use xlink:href="#DejaVuSans-43" x="132.009766"/>
      <use xlink:href="#DejaVuSans-65" x="201.833984"/>
      <use xlink:href="#DejaVuSans-64" x="263.357422"/>
     </g>
    </g>
   </g>
  </g>
 </g>
 <defs>
  <clipPath id="p46e7c83329">
   <rect x="59.52" y="25.44" width="134.645487" height="103.68"/>
  </clipPath>
 </defs>
</svg>
