<?xml version="1.0" encoding="utf-8" standalone="no"?>
<!DOCTYPE svg PUBLIC "-//W3C//DTD SVG 1.1//EN"
  "http://www.w3.org/Graphics/SVG/1.1/DTD/svg11.dtd">
<svg xmlns:xlink="http://www.w3.org/1999/xlink" width="216pt" height="180pt" viewBox="0 0 216 180" xmlns="http://www.w3.org/2000/svg" version="1.1">
 <metadata>
  <rdf:RDF xmlns:dc="http://purl.org/dc/elements/1.1/" xmlns:cc="http://creativecommons.org/ns#" xmlns:rdf="http://www.w3.org/1999/02/22-rdf-syntax-ns#">
   <cc:Work>
    <dc:type rdf:resource="http://purl.org/dc/dcmitype/StillImage"/>
    <dc:date>2024-08-26T21:09:02.959574</dc:date>
    <dc:format>image/svg+xml</dc:format>
    <dc:creator>
     <cc:Agent>
      <dc:title>Matplotlib v3.9.1, https://matplotlib.org/</dc:title>
     </cc:Agent>
    </dc:creator>
   </cc:Work>
  </rdf:RDF>
 </metadata>
 <defs>
  <style type="text/css">*{stroke-linejoin: round; stroke-linecap: butt}</style>
 </defs>
 <g id="figure_1">
  <g id="patch_1">
   <path d="M 0 180 
L 216 180 
L 216 0 
L 0 0 
z
" style="fill: #ffffff"/>
  </g>
  <g id="axes_1">
   <g id="patch_2">
    <path d="M 59.52 129.12 
L 198.319362 129.12 
L 198.319362 25.44 
L 59.52 25.44 
z
" style="fill: #ffffff"/>
   </g>
   <g id="matplotlib.axis_1">
    <g id="xtick_1">
     <g id="line2d_1">
      <defs>
       <path id="mf5c986542a" d="M 0 0 
L 0 3.5 
" style="stroke: #000000; stroke-width: 0.8"/>
      </defs>
      <g>
       <use xlink:href="#mf5c986542a" x="61.538084" y="129.12" style="stroke: #000000; stroke-width: 0.8"/>
      </g>
     </g>
     <g id="text_1">
      <!-- 0 -->
      <g transform="translate(58.356834 143.718437) scale(0.1 -0.1)">
       <defs>
        <path id="DejaVuSans-30" d="M 2034 4250 
Q 1547 4250 1301 3770 
Q 1056 3291 1056 2328 
Q 1056 1369 1301 889 
Q 1547 409 2034 409 
Q 2525 409 2770 889 
Q 3016 1369 3016 2328 
Q 3016 3291 2770 3770 
Q 2525 4250 2034 4250 
z
M 2034 4750 
Q 2819 4750 3233 4129 
Q 3647 3509 3647 2328 
Q 3647 1150 3233 529 
Q 2819 -91 2034 -91 
Q 1250 -91 836 529 
Q 422 1150 422 2328 
Q 422 3509 836 4129 
Q 1250 4750 2034 4750 
z
" transform="scale(0.015625)"/>
       </defs>
       <use xlink:href="#DejaVuSans-30"/>
      </g>
     </g>
    </g>
    <g id="xtick_2">
     <g id="line2d_2">
      <g>
       <use xlink:href="#mf5c986542a" x="128.807565" y="129.12" style="stroke: #000000; stroke-width: 0.8"/>
      </g>
     </g>
     <g id="text_2">
      <!-- 150 -->
      <g transform="translate(119.263815 143.718437) scale(0.1 -0.1)">
       <defs>
        <path id="DejaVuSans-31" d="M 794 531 
L 1825 531 
L 1825 4091 
L 703 3866 
L 703 4441 
L 1819 4666 
L 2450 4666 
L 2450 531 
L 3481 531 
L 3481 0 
L 794 0 
L 794 531 
z
" transform="scale(0.015625)"/>
        <path id="DejaVuSans-35" d="M 691 4666 
L 3169 4666 
L 3169 4134 
L 1269 4134 
L 1269 2991 
Q 1406 3038 1543 3061 
Q 1681 3084 1819 3084 
Q 2600 3084 3056 2656 
Q 3513 2228 3513 1497 
Q 3513 744 3044 326 
Q 2575 -91 1722 -91 
Q 1428 -91 1123 -41 
Q 819 9 494 109 
L 494 744 
Q 775 591 1075 516 
Q 1375 441 1709 441 
Q 2250 441 2565 725 
Q 2881 1009 2881 1497 
Q 2881 1984 2565 2268 
Q 2250 2553 1709 2553 
Q 1456 2553 1204 2497 
Q 953 2441 691 2322 
L 691 4666 
z
" transform="scale(0.015625)"/>
       </defs>
       <use xlink:href="#DejaVuSans-31"/>
       <use xlink:href="#DejaVuSans-35" x="63.623047"/>
       <use xlink:href="#DejaVuSans-30" x="127.246094"/>
      </g>
     </g>
    </g>
    <g id="xtick_3">
     <g id="line2d_3">
      <g>
       <use xlink:href="#mf5c986542a" x="196.077046" y="129.12" style="stroke: #000000; stroke-width: 0.8"/>
      </g>
     </g>
     <g id="text_3">
      <!-- 300 -->
      <g transform="translate(186.533296 143.718437) scale(0.1 -0.1)">
       <defs>
        <path id="DejaVuSans-33" d="M 2597 2516 
Q 3050 2419 3304 2112 
Q 3559 1806 3559 1356 
Q 3559 666 3084 287 
Q 2609 -91 1734 -91 
Q 1441 -91 1130 -33 
Q 819 25 488 141 
L 488 750 
Q 750 597 1062 519 
Q 1375 441 1716 441 
Q 2309 441 2620 675 
Q 2931 909 2931 1356 
Q 2931 1769 2642 2001 
Q 2353 2234 1838 2234 
L 1294 2234 
L 1294 2753 
L 1863 2753 
Q 2328 2753 2575 2939 
Q 2822 3125 2822 3475 
Q 2822 3834 2567 4026 
Q 2313 4219 1838 4219 
Q 1578 4219 1281 4162 
Q 984 4106 628 3988 
L 628 4550 
Q 988 4650 1302 4700 
Q 1616 4750 1894 4750 
Q 2613 4750 3031 4423 
Q 3450 4097 3450 3541 
Q 3450 3153 3228 2886 
Q 3006 2619 2597 2516 
z
" transform="scale(0.015625)"/>
       </defs>
       <use xlink:href="#DejaVuSans-33"/>
       <use xlink:href="#DejaVuSans-30" x="63.623047"/>
       <use xlink:href="#DejaVuSans-30" x="127.246094"/>
      </g>
     </g>
    </g>
    <g id="text_4">
     <!-- Frequency (Hz) -->
     <g transform="translate(91.214993 157.396563) scale(0.1 -0.1)">
      <defs>
       <path id="DejaVuSans-46" d="M 628 4666 
L 3309 4666 
L 3309 4134 
L 1259 4134 
L 1259 2759 
L 3109 2759 
L 3109 2228 
L 1259 2228 
L 1259 0 
L 628 0 
L 628 4666 
z
" transform="scale(0.015625)"/>
       <path id="DejaVuSans-72" d="M 2631 2963 
Q 2534 3019 2420 3045 
Q 2306 3072 2169 3072 
Q 1681 3072 1420 2755 
Q 1159 2438 1159 1844 
L 1159 0 
L 581 0 
L 581 3500 
L 1159 3500 
L 1159 2956 
Q 1341 3275 1631 3429 
Q 1922 3584 2338 3584 
Q 2397 3584 2469 3576 
Q 2541 3569 2628 3553 
L 2631 2963 
z
" transform="scale(0.015625)"/>
       <path id="DejaVuSans-65" d="M 3597 1894 
L 3597 1613 
L 953 1613 
Q 991 1019 1311 708 
Q 1631 397 2203 397 
Q 2534 397 2845 478 
Q 3156 559 3463 722 
L 3463 178 
Q 3153 47 2828 -22 
Q 2503 -91 2169 -91 
Q 1331 -91 842 396 
Q 353 884 353 1716 
Q 353 2575 817 3079 
Q 1281 3584 2069 3584 
Q 2775 3584 3186 3129 
Q 3597 2675 3597 1894 
z
M 3022 2063 
Q 3016 2534 2758 2815 
Q 2500 3097 2075 3097 
Q 1594 3097 1305 2825 
Q 1016 2553 972 2059 
L 3022 2063 
z
" transform="scale(0.015625)"/>
       <path id="DejaVuSans-71" d="M 947 1747 
Q 947 1113 1208 752 
Q 1469 391 1925 391 
Q 2381 391 2643 752 
Q 2906 1113 2906 1747 
Q 2906 2381 2643 2742 
Q 2381 3103 1925 3103 
Q 1469 3103 1208 2742 
Q 947 2381 947 1747 
z
M 2906 525 
Q 2725 213 2448 61 
Q 2172 -91 1784 -91 
Q 1150 -91 751 415 
Q 353 922 353 1747 
Q 353 2572 751 3078 
Q 1150 3584 1784 3584 
Q 2172 3584 2448 3432 
Q 2725 3281 2906 2969 
L 2906 3500 
L 3481 3500 
L 3481 -1331 
L 2906 -1331 
L 2906 525 
z
" transform="scale(0.015625)"/>
       <path id="DejaVuSans-75" d="M 544 1381 
L 544 3500 
L 1119 3500 
L 1119 1403 
Q 1119 906 1312 657 
Q 1506 409 1894 409 
Q 2359 409 2629 706 
Q 2900 1003 2900 1516 
L 2900 3500 
L 3475 3500 
L 3475 0 
L 2900 0 
L 2900 538 
Q 2691 219 2414 64 
Q 2138 -91 1772 -91 
Q 1169 -91 856 284 
Q 544 659 544 1381 
z
M 1991 3584 
L 1991 3584 
z
" transform="scale(0.015625)"/>
       <path id="DejaVuSans-6e" d="M 3513 2113 
L 3513 0 
L 2938 0 
L 2938 2094 
Q 2938 2591 2744 2837 
Q 2550 3084 2163 3084 
Q 1697 3084 1428 2787 
Q 1159 2491 1159 1978 
L 1159 0 
L 581 0 
L 581 3500 
L 1159 3500 
L 1159 2956 
Q 1366 3272 1645 3428 
Q 1925 3584 2291 3584 
Q 2894 3584 3203 3211 
Q 3513 2838 3513 2113 
z
" transform="scale(0.015625)"/>
       <path id="DejaVuSans-63" d="M 3122 3366 
L 3122 2828 
Q 2878 2963 2633 3030 
Q 2388 3097 2138 3097 
Q 1578 3097 1268 2742 
Q 959 2388 959 1747 
Q 959 1106 1268 751 
Q 1578 397 2138 397 
Q 2388 397 2633 464 
Q 2878 531 3122 666 
L 3122 134 
Q 2881 22 2623 -34 
Q 2366 -91 2075 -91 
Q 1284 -91 818 406 
Q 353 903 353 1747 
Q 353 2603 823 3093 
Q 1294 3584 2113 3584 
Q 2378 3584 2631 3529 
Q 2884 3475 3122 3366 
z
" transform="scale(0.015625)"/>
       <path id="DejaVuSans-79" d="M 2059 -325 
Q 1816 -950 1584 -1140 
Q 1353 -1331 966 -1331 
L 506 -1331 
L 506 -850 
L 844 -850 
Q 1081 -850 1212 -737 
Q 1344 -625 1503 -206 
L 1606 56 
L 191 3500 
L 800 3500 
L 1894 763 
L 2988 3500 
L 3597 3500 
L 2059 -325 
z
" transform="scale(0.015625)"/>
       <path id="DejaVuSans-20" transform="scale(0.015625)"/>
       <path id="DejaVuSans-28" d="M 1984 4856 
Q 1566 4138 1362 3434 
Q 1159 2731 1159 2009 
Q 1159 1288 1364 580 
Q 1569 -128 1984 -844 
L 1484 -844 
Q 1016 -109 783 600 
Q 550 1309 550 2009 
Q 550 2706 781 3412 
Q 1013 4119 1484 4856 
L 1984 4856 
z
" transform="scale(0.015625)"/>
       <path id="DejaVuSans-48" d="M 628 4666 
L 1259 4666 
L 1259 2753 
L 3553 2753 
L 3553 4666 
L 4184 4666 
L 4184 0 
L 3553 0 
L 3553 2222 
L 1259 2222 
L 1259 0 
L 628 0 
L 628 4666 
z
" transform="scale(0.015625)"/>
       <path id="DejaVuSans-7a" d="M 353 3500 
L 3084 3500 
L 3084 2975 
L 922 459 
L 3084 459 
L 3084 0 
L 275 0 
L 275 525 
L 2438 3041 
L 353 3041 
L 353 3500 
z
" transform="scale(0.015625)"/>
       <path id="DejaVuSans-29" d="M 513 4856 
L 1013 4856 
Q 1481 4119 1714 3412 
Q 1947 2706 1947 2009 
Q 1947 1309 1714 600 
Q 1481 -109 1013 -844 
L 513 -844 
Q 928 -128 1133 580 
Q 1338 1288 1338 2009 
Q 1338 2731 1133 3434 
Q 928 4138 513 4856 
z
" transform="scale(0.015625)"/>
      </defs>
      <use xlink:href="#DejaVuSans-46"/>
      <use xlink:href="#DejaVuSans-72" x="50.269531"/>
      <use xlink:href="#DejaVuSans-65" x="89.132812"/>
      <use xlink:href="#DejaVuSans-71" x="150.65625"/>
      <use xlink:href="#DejaVuSans-75" x="214.132812"/>
      <use xlink:href="#DejaVuSans-65" x="277.511719"/>
      <use xlink:href="#DejaVuSans-6e" x="339.035156"/>
      <use xlink:href="#DejaVuSans-63" x="402.414062"/>
      <use xlink:href="#DejaVuSans-79" x="457.394531"/>
      <use xlink:href="#DejaVuSans-20" x="516.574219"/>
      <use xlink:href="#DejaVuSans-28" x="548.361328"/>
      <use xlink:href="#DejaVuSans-48" x="587.375"/>
      <use xlink:href="#DejaVuSans-7a" x="662.570312"/>
      <use xlink:href="#DejaVuSans-29" x="715.060547"/>
     </g>
    </g>
   </g>
   <g id="matplotlib.axis_2">
    <g id="ytick_1">
     <g id="line2d_4">
      <defs>
       <path id="mc342c73f5a" d="M 0 0 
L -3.5 0 
" style="stroke: #000000; stroke-width: 0.8"/>
      </defs>
      <g>
       <use xlink:href="#mc342c73f5a" x="59.52" y="108.146962" style="stroke: #000000; stroke-width: 0.8"/>
      </g>
     </g>
     <g id="text_5">
      <!-- $\mathdefault{10^{-4}}$ -->
      <g transform="translate(29.02 111.94618) scale(0.1 -0.1)">
       <defs>
        <path id="DejaVuSans-2212" d="M 678 2272 
L 4684 2272 
L 4684 1741 
L 678 1741 
L 678 2272 
z
" transform="scale(0.015625)"/>
        <path id="DejaVuSans-34" d="M 2419 4116 
L 825 1625 
L 2419 1625 
L 2419 4116 
z
M 2253 4666 
L 3047 4666 
L 3047 1625 
L 3713 1625 
L 3713 1100 
L 3047 1100 
L 3047 0 
L 2419 0 
L 2419 1100 
L 313 1100 
L 313 1709 
L 2253 4666 
z
" transform="scale(0.015625)"/>
       </defs>
       <use xlink:href="#DejaVuSans-31" transform="translate(0 0.684375)"/>
       <use xlink:href="#DejaVuSans-30" transform="translate(63.623047 0.684375)"/>
       <use xlink:href="#DejaVuSans-2212" transform="translate(128.203125 38.965625) scale(0.7)"/>
       <use xlink:href="#DejaVuSans-34" transform="translate(186.855469 38.965625) scale(0.7)"/>
      </g>
     </g>
    </g>
    <g id="ytick_2">
     <g id="line2d_5">
      <g>
       <use xlink:href="#mc342c73f5a" x="59.52" y="83.20755" style="stroke: #000000; stroke-width: 0.8"/>
      </g>
     </g>
     <g id="text_6">
      <!-- $\mathdefault{10^{-1}}$ -->
      <g transform="translate(29.02 87.006769) scale(0.1 -0.1)">
       <use xlink:href="#DejaVuSans-31" transform="translate(0 0.684375)"/>
       <use xlink:href="#DejaVuSans-30" transform="translate(63.623047 0.684375)"/>
       <use xlink:href="#DejaVuSans-2212" transform="translate(128.203125 38.965625) scale(0.7)"/>
       <use xlink:href="#DejaVuSans-31" transform="translate(186.855469 38.965625) scale(0.7)"/>
      </g>
     </g>
    </g>
    <g id="ytick_3">
     <g id="line2d_6">
      <g>
       <use xlink:href="#mc342c73f5a" x="59.52" y="58.268139" style="stroke: #000000; stroke-width: 0.8"/>
      </g>
     </g>
     <g id="text_7">
      <!-- $\mathdefault{10^{2}}$ -->
      <g transform="translate(34.92 62.067358) scale(0.1 -0.1)">
       <defs>
        <path id="DejaVuSans-32" d="M 1228 531 
L 3431 531 
L 3431 0 
L 469 0 
L 469 531 
Q 828 903 1448 1529 
Q 2069 2156 2228 2338 
Q 2531 2678 2651 2914 
Q 2772 3150 2772 3378 
Q 2772 3750 2511 3984 
Q 2250 4219 1831 4219 
Q 1534 4219 1204 4116 
Q 875 4013 500 3803 
L 500 4441 
Q 881 4594 1212 4672 
Q 1544 4750 1819 4750 
Q 2544 4750 2975 4387 
Q 3406 4025 3406 3419 
Q 3406 3131 3298 2873 
Q 3191 2616 2906 2266 
Q 2828 2175 2409 1742 
Q 1991 1309 1228 531 
z
" transform="scale(0.015625)"/>
       </defs>
       <use xlink:href="#DejaVuSans-31" transform="translate(0 0.765625)"/>
       <use xlink:href="#DejaVuSans-30" transform="translate(63.623047 0.765625)"/>
       <use xlink:href="#DejaVuSans-32" transform="translate(128.203125 39.046875) scale(0.7)"/>
      </g>
     </g>
    </g>
    <g id="ytick_4">
     <g id="line2d_7">
      <g>
       <use xlink:href="#mc342c73f5a" x="59.52" y="33.328728" style="stroke: #000000; stroke-width: 0.8"/>
      </g>
     </g>
     <g id="text_8">
      <!-- $\mathdefault{10^{5}}$ -->
      <g transform="translate(34.92 37.127946) scale(0.1 -0.1)">
       <use xlink:href="#DejaVuSans-31" transform="translate(0 0.684375)"/>
       <use xlink:href="#DejaVuSans-30" transform="translate(63.623047 0.684375)"/>
       <use xlink:href="#DejaVuSans-35" transform="translate(128.203125 38.965625) scale(0.7)"/>
      </g>
     </g>
    </g>
    <g id="text_9">
     <!-- Log power (dB/Hz) -->
     <g transform="translate(22.940312 123.419844) rotate(-90) scale(0.1 -0.1)">
      <defs>
       <path id="DejaVuSans-4c" d="M 628 4666 
L 1259 4666 
L 1259 531 
L 3531 531 
L 3531 0 
L 628 0 
L 628 4666 
z
" transform="scale(0.015625)"/>
       <path id="DejaVuSans-6f" d="M 1959 3097 
Q 1497 3097 1228 2736 
Q 959 2375 959 1747 
Q 959 1119 1226 758 
Q 1494 397 1959 397 
Q 2419 397 2687 759 
Q 2956 1122 2956 1747 
Q 2956 2369 2687 2733 
Q 2419 3097 1959 3097 
z
M 1959 3584 
Q 2709 3584 3137 3096 
Q 3566 2609 3566 1747 
Q 3566 888 3137 398 
Q 2709 -91 1959 -91 
Q 1206 -91 779 398 
Q 353 888 353 1747 
Q 353 2609 779 3096 
Q 1206 3584 1959 3584 
z
" transform="scale(0.015625)"/>
       <path id="DejaVuSans-67" d="M 2906 1791 
Q 2906 2416 2648 2759 
Q 2391 3103 1925 3103 
Q 1463 3103 1205 2759 
Q 947 2416 947 1791 
Q 947 1169 1205 825 
Q 1463 481 1925 481 
Q 2391 481 2648 825 
Q 2906 1169 2906 1791 
z
M 3481 434 
Q 3481 -459 3084 -895 
Q 2688 -1331 1869 -1331 
Q 1566 -1331 1297 -1286 
Q 1028 -1241 775 -1147 
L 775 -588 
Q 1028 -725 1275 -790 
Q 1522 -856 1778 -856 
Q 2344 -856 2625 -561 
Q 2906 -266 2906 331 
L 2906 616 
Q 2728 306 2450 153 
Q 2172 0 1784 0 
Q 1141 0 747 490 
Q 353 981 353 1791 
Q 353 2603 747 3093 
Q 1141 3584 1784 3584 
Q 2172 3584 2450 3431 
Q 2728 3278 2906 2969 
L 2906 3500 
L 3481 3500 
L 3481 434 
z
" transform="scale(0.015625)"/>
       <path id="DejaVuSans-70" d="M 1159 525 
L 1159 -1331 
L 581 -1331 
L 581 3500 
L 1159 3500 
L 1159 2969 
Q 1341 3281 1617 3432 
Q 1894 3584 2278 3584 
Q 2916 3584 3314 3078 
Q 3713 2572 3713 1747 
Q 3713 922 3314 415 
Q 2916 -91 2278 -91 
Q 1894 -91 1617 61 
Q 1341 213 1159 525 
z
M 3116 1747 
Q 3116 2381 2855 2742 
Q 2594 3103 2138 3103 
Q 1681 3103 1420 2742 
Q 1159 2381 1159 1747 
Q 1159 1113 1420 752 
Q 1681 391 2138 391 
Q 2594 391 2855 752 
Q 3116 1113 3116 1747 
z
" transform="scale(0.015625)"/>
       <path id="DejaVuSans-77" d="M 269 3500 
L 844 3500 
L 1563 769 
L 2278 3500 
L 2956 3500 
L 3675 769 
L 4391 3500 
L 4966 3500 
L 4050 0 
L 3372 0 
L 2619 2869 
L 1863 0 
L 1184 0 
L 269 3500 
z
" transform="scale(0.015625)"/>
       <path id="DejaVuSans-64" d="M 2906 2969 
L 2906 4863 
L 3481 4863 
L 3481 0 
L 2906 0 
L 2906 525 
Q 2725 213 2448 61 
Q 2172 -91 1784 -91 
Q 1150 -91 751 415 
Q 353 922 353 1747 
Q 353 2572 751 3078 
Q 1150 3584 1784 3584 
Q 2172 3584 2448 3432 
Q 2725 3281 2906 2969 
z
M 947 1747 
Q 947 1113 1208 752 
Q 1469 391 1925 391 
Q 2381 391 2643 752 
Q 2906 1113 2906 1747 
Q 2906 2381 2643 2742 
Q 2381 3103 1925 3103 
Q 1469 3103 1208 2742 
Q 947 2381 947 1747 
z
" transform="scale(0.015625)"/>
       <path id="DejaVuSans-42" d="M 1259 2228 
L 1259 519 
L 2272 519 
Q 2781 519 3026 730 
Q 3272 941 3272 1375 
Q 3272 1813 3026 2020 
Q 2781 2228 2272 2228 
L 1259 2228 
z
M 1259 4147 
L 1259 2741 
L 2194 2741 
Q 2656 2741 2882 2914 
Q 3109 3088 3109 3444 
Q 3109 3797 2882 3972 
Q 2656 4147 2194 4147 
L 1259 4147 
z
M 628 4666 
L 2241 4666 
Q 2963 4666 3353 4366 
Q 3744 4066 3744 3513 
Q 3744 3084 3544 2831 
Q 3344 2578 2956 2516 
Q 3422 2416 3680 2098 
Q 3938 1781 3938 1306 
Q 3938 681 3513 340 
Q 3088 0 2303 0 
L 628 0 
L 628 4666 
z
" transform="scale(0.015625)"/>
       <path id="DejaVuSans-2f" d="M 1625 4666 
L 2156 4666 
L 531 -594 
L 0 -594 
L 1625 4666 
z
" transform="scale(0.015625)"/>
      </defs>
      <use xlink:href="#DejaVuSans-4c"/>
      <use xlink:href="#DejaVuSans-6f" x="53.962891"/>
      <use xlink:href="#DejaVuSans-67" x="115.144531"/>
      <use xlink:href="#DejaVuSans-20" x="178.621094"/>
      <use xlink:href="#DejaVuSans-70" x="210.408203"/>
      <use xlink:href="#DejaVuSans-6f" x="273.884766"/>
      <use xlink:href="#DejaVuSans-77" x="335.066406"/>
      <use xlink:href="#DejaVuSans-65" x="416.853516"/>
      <use xlink:href="#DejaVuSans-72" x="478.376953"/>
      <use xlink:href="#DejaVuSans-20" x="519.490234"/>
      <use xlink:href="#DejaVuSans-28" x="551.277344"/>
      <use xlink:href="#DejaVuSans-64" x="590.291016"/>
      <use xlink:href="#DejaVuSans-42" x="653.767578"/>
      <use xlink:href="#DejaVuSans-2f" x="722.371094"/>
      <use xlink:href="#DejaVuSans-48" x="756.0625"/>
      <use xlink:href="#DejaVuSans-7a" x="831.257812"/>
      <use xlink:href="#DejaVuSans-29" x="883.748047"/>
     </g>
    </g>
   </g>
   <g id="line2d_8">
    <path d="M 61.762316 63.978494 
L 61.986548 63.141107 
L 62.210779 64.726697 
L 62.435011 61.120964 
L 62.659242 61.867433 
L 62.883474 63.721992 
L 63.107706 64.623313 
L 63.331937 58.266524 
L 63.7804 64.171174 
L 64.004632 78.665909 
L 64.228864 62.338882 
L 64.453095 61.41258 
L 64.677327 70.506911 
L 64.901558 62.521564 
L 65.12579 72.24967 
L 65.350022 57.016375 
L 65.574253 71.328917 
L 66.022716 63.572123 
L 66.246948 64.584791 
L 66.47118 62.311213 
L 66.695411 62.364371 
L 66.919643 61.256468 
L 67.143874 68.264009 
L 67.368106 62.300681 
L 67.592338 76.014859 
L 67.816569 64.494427 
L 68.040801 68.872002 
L 68.265032 67.806491 
L 68.489264 60.484379 
L 68.713496 67.133746 
L 68.937727 70.423103 
L 69.161959 62.817142 
L 69.610422 65.126431 
L 69.834654 78.144203 
L 70.058885 66.393115 
L 70.283117 63.955037 
L 70.507349 64.774454 
L 70.73158 68.668196 
L 70.955812 70.361637 
L 71.180043 67.391512 
L 71.404275 71.473439 
L 71.628507 62.385798 
L 71.852738 61.314998 
L 72.07697 69.012982 
L 72.301201 68.037651 
L 72.525433 70.64912 
L 72.749665 70.190287 
L 72.973896 67.881857 
L 73.198128 68.494591 
L 73.422359 74.383717 
L 73.646591 63.773794 
L 73.870823 63.828552 
L 74.095054 67.051853 
L 74.319286 64.071728 
L 74.543517 63.237022 
L 74.767749 63.273542 
L 74.991981 63.912418 
L 75.216212 74.905482 
L 75.440444 62.168775 
L 75.664675 65.325212 
L 75.888907 62.131852 
L 76.33737 51.294452 
L 76.561602 61.779822 
L 76.785833 60.907804 
L 77.010065 66.538768 
L 77.234297 66.098917 
L 77.458528 64.913353 
L 77.68276 64.816385 
L 77.906991 69.045979 
L 78.355455 67.83742 
L 78.579686 63.498372 
L 78.803918 69.170307 
L 79.028149 65.808824 
L 79.252381 72.266178 
L 79.476613 64.084139 
L 79.700844 65.735676 
L 79.925076 63.326635 
L 80.149307 65.0896 
L 80.597771 72.653663 
L 80.822002 74.051402 
L 81.046234 66.558213 
L 81.270465 65.599147 
L 81.494697 68.565379 
L 81.718929 62.067952 
L 81.94316 62.812988 
L 82.167392 64.962362 
L 82.391623 71.693796 
L 82.615855 66.095336 
L 82.840087 69.346892 
L 83.064318 67.109711 
L 83.28855 66.974607 
L 83.512781 69.243755 
L 83.737013 76.752779 
L 83.961245 70.543187 
L 84.185476 68.631382 
L 84.409708 69.251447 
L 84.633939 65.717301 
L 84.858171 71.256292 
L 85.082403 62.832916 
L 85.306634 68.462115 
L 85.530866 69.256222 
L 85.755097 75.327651 
L 85.979329 67.078275 
L 86.203561 72.610879 
L 86.427792 60.408798 
L 86.652024 72.024703 
L 87.100487 69.025945 
L 87.324719 67.99978 
L 87.54895 67.673247 
L 87.773182 62.839711 
L 87.997414 71.552714 
L 88.221645 65.66987 
L 88.445877 75.286992 
L 88.670108 68.55421 
L 88.89434 87.822558 
L 89.118572 61.949742 
L 89.567035 72.123534 
L 89.791266 61.009052 
L 90.015498 62.782549 
L 90.23973 69.007769 
L 90.463961 65.827462 
L 90.688193 64.729501 
L 90.912424 64.207873 
L 91.136656 73.404737 
L 91.360888 64.80279 
L 91.809351 68.859539 
L 92.033582 65.994939 
L 92.257814 71.310203 
L 92.482046 73.125792 
L 92.706277 59.551738 
L 92.930509 72.322708 
L 93.15474 74.061711 
L 93.378972 64.507391 
L 93.603204 85.313575 
L 93.827435 68.364469 
L 94.051667 67.825244 
L 94.275898 72.092199 
L 94.50013 70.365587 
L 94.724362 64.316175 
L 94.948593 69.265754 
L 95.172825 65.549253 
L 95.397056 69.259587 
L 95.621288 68.60043 
L 95.84552 69.496134 
L 96.069751 64.508303 
L 96.293983 75.413571 
L 96.518214 64.508424 
L 96.742446 66.722283 
L 96.966678 66.920352 
L 97.190909 59.951195 
L 97.415141 59.64135 
L 97.639372 65.067599 
L 97.863604 66.117963 
L 98.087836 68.280411 
L 98.312067 67.008082 
L 98.536299 72.750481 
L 99.208994 64.683842 
L 99.433225 67.047156 
L 99.657457 63.436115 
L 99.881688 66.002533 
L 100.10592 69.977218 
L 100.330152 69.068673 
L 100.554383 66.259191 
L 101.002846 70.391355 
L 101.227078 66.516083 
L 101.45131 66.563781 
L 101.675541 66.178607 
L 101.899773 70.484989 
L 102.124004 62.073607 
L 102.348236 64.650058 
L 102.572468 63.512136 
L 102.796699 61.630067 
L 103.020931 61.423571 
L 103.469394 69.358807 
L 103.693626 62.142536 
L 103.917857 68.278568 
L 104.142089 62.485523 
L 104.36632 67.009722 
L 104.590552 65.078108 
L 104.814784 67.261838 
L 105.039015 67.477393 
L 105.263247 63.258231 
L 105.487478 65.878027 
L 105.71171 73.48952 
L 106.160173 67.663119 
L 106.384405 69.2528 
L 106.608637 64.110801 
L 106.832868 66.252603 
L 107.0571 75.258815 
L 107.281331 60.823413 
L 107.505563 62.565345 
L 107.729795 67.628741 
L 107.954026 62.634367 
L 108.178258 67.823796 
L 108.626721 59.710566 
L 108.850953 63.950564 
L 109.075184 64.260745 
L 109.523647 72.296243 
L 109.747879 62.264027 
L 109.972111 64.512606 
L 110.196342 70.425939 
L 110.420574 69.050595 
L 110.644805 63.156927 
L 110.869037 65.592234 
L 111.093269 77.364353 
L 111.3175 62.344236 
L 111.541732 65.669575 
L 111.765963 64.117861 
L 111.990195 70.387777 
L 112.214427 59.738856 
L 112.66289 69.835977 
L 112.887121 63.941002 
L 113.111353 65.521822 
L 113.335585 68.570528 
L 113.559816 65.764843 
L 113.784048 83.352904 
L 114.008279 60.149936 
L 114.456743 67.011023 
L 114.680974 69.861342 
L 114.905206 64.15292 
L 115.129437 62.134661 
L 115.353669 74.311686 
L 115.577901 59.080604 
L 115.802132 63.761042 
L 116.026364 61.751483 
L 116.250595 66.123818 
L 116.474827 62.152838 
L 116.699059 62.827204 
L 116.92329 71.425509 
L 117.147522 63.842127 
L 117.371753 68.631512 
L 117.595985 30.152727 
L 117.820217 67.9109 
L 118.044448 63.455293 
L 118.26868 80.928858 
L 118.492911 62.517952 
L 118.717143 63.224432 
L 118.941375 67.100235 
L 119.165606 62.257927 
L 119.389838 65.417124 
L 119.614069 58.820092 
L 119.838301 71.155706 
L 120.062533 60.827507 
L 120.286764 62.741823 
L 120.510996 71.078522 
L 120.735227 66.094406 
L 120.959459 64.149206 
L 121.183691 60.119135 
L 121.407922 79.129047 
L 121.632154 65.635831 
L 121.856385 71.413022 
L 122.304849 63.204194 
L 122.52908 74.286557 
L 122.977543 60.025117 
L 123.201775 71.576135 
L 123.426007 64.727472 
L 123.650238 66.577513 
L 123.87447 61.52383 
L 124.098701 74.422111 
L 124.322933 63.393652 
L 124.547165 63.700595 
L 124.771396 69.900099 
L 124.995628 71.110772 
L 125.444091 62.746433 
L 125.668323 69.262533 
L 125.892554 69.121188 
L 126.116786 64.387435 
L 126.341018 64.659998 
L 126.565249 60.823796 
L 126.789481 65.807912 
L 127.013712 67.736159 
L 127.237944 60.66571 
L 127.462176 69.813577 
L 127.686407 61.588315 
L 127.910639 59.95975 
L 128.13487 69.555511 
L 128.359102 64.903181 
L 128.583334 63.971672 
L 128.807565 72.58816 
L 129.031797 68.988715 
L 129.256028 70.109098 
L 129.48026 78.132808 
L 129.704492 67.615866 
L 129.928723 63.004042 
L 130.152955 65.722109 
L 130.601418 64.797473 
L 130.82565 67.402412 
L 131.049881 60.474422 
L 131.274113 71.609927 
L 131.498344 62.587588 
L 131.722576 69.606349 
L 132.395271 62.011529 
L 132.619502 64.737059 
L 133.067966 61.921904 
L 133.292197 71.844739 
L 133.516429 64.715081 
L 133.74066 65.452905 
L 133.964892 68.890434 
L 134.413355 64.191986 
L 134.637587 65.208261 
L 134.861818 79.801185 
L 135.08605 67.275655 
L 135.310282 66.23544 
L 135.534513 62.434218 
L 135.758745 67.211193 
L 135.982976 63.720881 
L 136.207208 63.690057 
L 136.43144 66.640059 
L 136.655671 80.590479 
L 136.879903 65.664762 
L 137.104134 75.478376 
L 137.328366 67.180096 
L 137.552598 64.169281 
L 137.776829 58.837437 
L 138.001061 61.230214 
L 138.225292 70.203879 
L 138.449524 69.868056 
L 138.673756 65.539652 
L 138.897987 65.71985 
L 139.122219 66.477894 
L 139.34645 65.766253 
L 139.570682 67.568524 
L 139.794914 75.157843 
L 140.019145 66.743322 
L 140.243377 70.889635 
L 140.467608 70.401734 
L 140.69184 69.526063 
L 141.140303 64.074703 
L 141.364535 76.937499 
L 141.588766 81.168326 
L 141.812998 69.402585 
L 142.03723 67.906912 
L 142.261461 95.949307 
L 142.485693 59.607724 
L 142.709924 66.804189 
L 142.934156 68.258696 
L 143.158388 67.437948 
L 143.382619 80.649284 
L 143.606851 65.061459 
L 143.831082 64.927565 
L 144.055314 70.44242 
L 144.279546 63.807794 
L 144.503777 73.03226 
L 144.728009 67.780055 
L 144.952241 71.135788 
L 145.400704 60.533581 
L 145.849167 75.173286 
L 146.073399 66.829571 
L 146.29763 82.19475 
L 146.521862 71.282581 
L 146.746093 65.867836 
L 146.970325 63.184364 
L 147.194557 73.163815 
L 147.418788 67.662831 
L 147.64302 75.02615 
L 147.867251 68.032228 
L 148.091483 79.56883 
L 148.539946 68.015129 
L 148.764178 68.807117 
L 148.988409 68.400237 
L 149.212641 68.248901 
L 149.436873 76.288875 
L 149.661104 74.841922 
L 149.885336 69.729606 
L 150.109567 60.883773 
L 150.333799 68.716875 
L 150.558031 68.715188 
L 150.782262 75.115586 
L 151.006494 75.881913 
L 151.230725 73.852247 
L 151.454957 67.715337 
L 151.679189 69.379482 
L 151.90342 69.450942 
L 152.127652 67.02402 
L 152.351883 70.958297 
L 152.576115 69.978832 
L 152.800347 73.275662 
L 153.024578 71.902313 
L 153.24881 69.03925 
L 153.473041 71.764502 
L 153.697273 67.505879 
L 153.921505 69.201148 
L 154.145736 69.657075 
L 154.369968 72.011448 
L 154.594199 78.47747 
L 154.818431 66.577325 
L 155.042663 86.327718 
L 155.266894 73.825876 
L 155.491126 69.268115 
L 155.715357 69.15484 
L 155.939589 69.841293 
L 156.163821 71.888479 
L 156.388052 70.099979 
L 156.612284 70.116598 
L 156.836515 67.017379 
L 157.284979 76.941717 
L 157.50921 68.282823 
L 157.957673 82.237644 
L 158.181905 70.659479 
L 158.406137 70.122033 
L 158.630368 68.921339 
L 158.8546 68.673485 
L 159.303063 75.281522 
L 159.751526 67.712163 
L 159.975758 72.723334 
L 160.199989 66.62404 
L 160.424221 77.168491 
L 160.648453 68.078752 
L 160.872684 70.165277 
L 161.096916 75.392911 
L 161.321147 67.43118 
L 161.545379 72.810455 
L 161.769611 75.213744 
L 161.993842 83.005632 
L 162.218074 77.002121 
L 162.442305 81.620998 
L 162.666537 70.668633 
L 163.115 79.453331 
L 163.339232 66.999185 
L 163.563464 68.776482 
L 163.787695 75.051524 
L 164.011927 71.176741 
L 164.236158 76.989453 
L 164.684622 68.643303 
L 164.908853 79.410119 
L 165.133085 72.924628 
L 165.357316 77.115245 
L 165.80578 70.616592 
L 166.030011 73.011886 
L 166.254243 83.226619 
L 166.478474 81.169806 
L 166.702706 70.481154 
L 166.926938 72.812064 
L 167.151169 87.202314 
L 167.375401 70.555991 
L 167.599632 74.403489 
L 167.823864 72.581305 
L 168.048096 75.143683 
L 168.272327 67.169882 
L 168.72079 81.62175 
L 168.945022 72.888008 
L 169.169254 73.461425 
L 169.393485 80.052827 
L 169.617717 72.800731 
L 169.841948 85.321598 
L 170.06618 67.8925 
L 170.290412 73.059484 
L 170.738875 77.661333 
L 170.963106 72.4671 
L 171.187338 70.719999 
L 171.41157 83.468216 
L 171.635801 67.56707 
L 171.860033 71.693459 
L 172.084264 71.047129 
L 172.308496 79.742479 
L 172.532728 70.293972 
L 172.756959 70.850656 
L 172.981191 79.347986 
L 173.205422 72.350066 
L 173.429654 74.627466 
L 173.653886 38.630609 
L 173.878117 81.455567 
L 174.102349 75.954051 
L 174.32658 80.491643 
L 174.550812 70.071582 
L 174.775044 73.066249 
L 174.999275 81.099939 
L 175.223507 71.664788 
L 175.447738 71.652871 
L 175.67197 68.394838 
L 175.896202 81.470997 
L 176.120433 70.245379 
L 176.344665 71.082799 
L 176.568896 72.709597 
L 176.793128 79.977428 
L 177.01736 71.081895 
L 177.241591 70.417104 
L 177.465823 80.483629 
L 177.690054 74.897417 
L 177.914286 75.149718 
L 178.138518 76.646013 
L 178.362749 71.762857 
L 178.586981 82.723394 
L 179.035444 66.503467 
L 179.259676 79.37758 
L 179.483907 71.400346 
L 179.708139 76.870246 
L 179.93237 68.578611 
L 180.156602 81.087552 
L 180.380834 75.401712 
L 180.605065 76.978598 
L 180.829297 75.747693 
L 181.053528 83.145528 
L 181.27776 70.171108 
L 181.726223 76.68613 
L 181.950455 76.422203 
L 182.174687 77.272134 
L 182.398918 70.065697 
L 182.62315 68.312915 
L 182.847381 70.690646 
L 183.071613 80.054791 
L 183.295845 70.30721 
L 183.520076 75.741082 
L 183.744308 69.551941 
L 183.968539 71.90993 
L 184.192771 86.815766 
L 184.417003 84.211933 
L 184.641234 69.765308 
L 184.865466 74.037593 
L 185.089697 75.909972 
L 185.538161 72.793083 
L 185.762392 72.879223 
L 185.986624 70.406083 
L 186.210855 71.160348 
L 186.435087 74.795028 
L 186.659319 71.068639 
L 186.88355 84.306452 
L 187.107782 66.711739 
L 187.332013 69.238297 
L 187.556245 69.786064 
L 187.780477 74.348496 
L 188.004708 72.974657 
L 188.22894 69.384692 
L 188.677403 72.84607 
L 188.901635 66.457779 
L 189.125866 71.507928 
L 189.350098 81.1758 
L 189.574329 70.900306 
L 189.798561 72.495873 
L 190.022793 76.876758 
L 190.247024 77.527598 
L 190.471256 65.66183 
L 190.695487 67.565797 
L 190.919719 86.526213 
L 191.143951 77.53967 
L 191.368182 77.652099 
L 191.592414 65.566982 
L 191.816645 77.08702 
L 192.040877 71.252528 
L 192.265109 72.688454 
L 192.48934 72.048883 
L 192.713572 73.404652 
L 192.937803 70.810635 
L 193.162035 85.113438 
L 193.386267 75.718803 
L 193.83473 68.691906 
L 194.058961 68.512432 
L 194.283193 84.651147 
L 194.507425 74.177509 
L 194.731656 69.298871 
L 194.955888 72.537225 
L 195.180119 67.034907 
L 195.404351 66.602213 
L 195.628583 76.365334 
L 195.852814 73.202877 
L 195.852814 73.202877 
" clip-path="url(#p0f17421453)" style="fill: none; stroke: #808080; stroke-width: 0.8; stroke-linecap: square"/>
   </g>
   <g id="line2d_9">
    <path d="M 61.762316 67.717139 
L 61.986548 61.020076 
L 62.210779 65.472691 
L 62.435011 59.627502 
L 62.659242 65.206079 
L 62.883474 61.176257 
L 63.107706 72.642958 
L 63.331937 60.478714 
L 63.556169 58.098707 
L 63.7804 64.420031 
L 64.228864 65.460668 
L 64.453095 60.337149 
L 64.677327 67.942818 
L 64.901558 61.909505 
L 65.12579 61.18856 
L 65.350022 56.992778 
L 65.574253 72.439148 
L 65.798485 65.142252 
L 66.022716 65.438309 
L 66.246948 66.733152 
L 66.47118 63.355807 
L 66.695411 67.523741 
L 67.143874 72.158605 
L 67.368106 65.230884 
L 67.592338 66.723473 
L 67.816569 66.828946 
L 68.265032 71.958742 
L 68.489264 64.323506 
L 68.713496 66.703119 
L 68.937727 76.518327 
L 69.161959 69.795018 
L 69.386191 70.388038 
L 69.610422 65.207546 
L 69.834654 69.935947 
L 70.058885 77.292061 
L 70.283117 67.853484 
L 70.507349 67.083238 
L 70.73158 67.797433 
L 70.955812 78.368438 
L 71.180043 71.898464 
L 71.404275 71.152563 
L 71.628507 71.558162 
L 71.852738 67.778822 
L 72.301201 94.5273 
L 72.749665 71.44532 
L 72.973896 77.180581 
L 73.198128 74.119977 
L 73.422359 80.30551 
L 73.646591 67.468763 
L 73.870823 76.377745 
L 74.095054 74.317666 
L 74.543517 66.518558 
L 74.767749 67.87181 
L 74.991981 70.644648 
L 75.216212 71.734826 
L 75.888907 60.59974 
L 76.113139 53.944979 
L 76.33737 52.502113 
L 76.785833 66.144619 
L 77.234297 67.347897 
L 77.458528 75.838562 
L 77.68276 67.518567 
L 77.906991 70.245686 
L 78.131223 75.150507 
L 78.355455 70.285089 
L 78.579686 71.459168 
L 78.803918 74.228681 
L 79.028149 74.813405 
L 79.252381 74.086729 
L 79.476613 74.061777 
L 79.700844 77.579246 
L 80.149307 76.468927 
L 80.373539 81.114905 
L 80.597771 78.728627 
L 80.822002 80.13627 
L 81.046234 73.989255 
L 81.270465 73.989049 
L 81.494697 78.452876 
L 81.718929 80.182945 
L 81.94316 73.078436 
L 82.167392 72.092302 
L 82.391623 72.706012 
L 82.615855 78.013639 
L 82.840087 76.248918 
L 83.064318 76.038705 
L 83.28855 74.024814 
L 83.512781 81.678155 
L 83.737013 81.18424 
L 83.961245 74.898842 
L 84.185476 79.497456 
L 84.409708 74.225753 
L 84.633939 72.83479 
L 84.858171 83.568861 
L 85.082403 77.993614 
L 85.530866 75.027297 
L 85.755097 70.928948 
L 86.427792 84.98291 
L 86.652024 79.912532 
L 86.876255 87.686248 
L 87.100487 76.785603 
L 87.324719 85.572711 
L 87.54895 83.977651 
L 87.773182 74.673724 
L 87.997414 76.14251 
L 88.221645 75.719613 
L 88.445877 73.564149 
L 88.670108 83.835713 
L 89.118572 76.725283 
L 89.342803 79.285495 
L 89.567035 85.213971 
L 89.791266 82.815178 
L 90.015498 85.946659 
L 90.23973 78.774183 
L 90.463961 88.508035 
L 90.688193 80.053484 
L 90.912424 89.196848 
L 91.136656 81.704699 
L 91.360888 81.383693 
L 91.585119 81.841556 
L 91.809351 85.347888 
L 92.033582 84.854072 
L 92.257814 85.060926 
L 92.706277 77.173222 
L 92.930509 81.68046 
L 93.15474 81.358011 
L 93.378972 77.051323 
L 93.827435 84.639099 
L 94.051667 81.34208 
L 94.275898 80.456287 
L 94.50013 85.314854 
L 94.724362 77.838787 
L 94.948593 78.468077 
L 95.172825 79.782234 
L 95.397056 95.026619 
L 95.84552 80.152344 
L 96.069751 76.884436 
L 96.293983 76.437632 
L 96.518214 83.043482 
L 96.742446 79.062873 
L 96.966678 77.778167 
L 97.190909 79.7034 
L 97.415141 84.728808 
L 97.863604 80.093604 
L 98.087836 76.089008 
L 98.312067 82.073778 
L 98.536299 76.332939 
L 98.76053 86.063397 
L 98.984762 79.419852 
L 99.208994 82.101741 
L 99.433225 81.430021 
L 99.657457 79.582414 
L 99.881688 92.641516 
L 100.10592 81.719155 
L 100.330152 84.260304 
L 100.554383 93.593146 
L 100.778615 80.20125 
L 101.002846 82.623284 
L 101.227078 81.709262 
L 101.45131 92.500095 
L 101.675541 92.694368 
L 101.899773 85.36064 
L 102.124004 81.897454 
L 102.348236 81.912636 
L 102.572468 79.70641 
L 102.796699 81.883694 
L 103.245162 80.030957 
L 103.469394 85.100582 
L 103.693626 84.449143 
L 104.142089 79.81431 
L 104.36632 89.913773 
L 104.590552 78.171483 
L 104.814784 88.180902 
L 105.039015 89.090036 
L 105.263247 84.073731 
L 105.487478 91.089145 
L 105.71171 84.882978 
L 105.935942 89.371871 
L 106.160173 81.94877 
L 106.608637 89.420186 
L 106.832868 78.499488 
L 107.0571 81.499088 
L 107.281331 92.793228 
L 107.729795 90.329837 
L 107.954026 78.01653 
L 108.178258 88.793026 
L 108.402489 79.133583 
L 108.626721 91.175641 
L 108.850953 89.199953 
L 109.299416 91.843228 
L 109.523647 77.571362 
L 109.747879 80.915472 
L 110.196342 93.681292 
L 110.420574 84.949345 
L 110.644805 84.026217 
L 110.869037 85.777721 
L 111.093269 88.891088 
L 111.3175 87.399319 
L 111.541732 90.887377 
L 111.765963 100.405174 
L 111.990195 88.125194 
L 112.214427 86.49433 
L 112.438658 87.562488 
L 112.887121 93.06164 
L 113.111353 99.367704 
L 113.335585 83.123937 
L 113.559816 85.978911 
L 113.784048 95.732174 
L 114.008279 85.4529 
L 114.232511 97.507128 
L 114.456743 83.524842 
L 114.680974 93.521897 
L 114.905206 85.899668 
L 115.129437 87.403655 
L 115.353669 94.79462 
L 115.802132 81.281193 
L 116.026364 84.34166 
L 116.250595 81.203802 
L 116.474827 87.870478 
L 116.699059 89.602308 
L 116.92329 82.888212 
L 117.147522 89.6494 
L 117.371753 90.441842 
L 117.595985 90.171947 
L 118.044448 90.430195 
L 118.26868 84.939029 
L 118.492911 90.490582 
L 118.717143 88.147946 
L 119.165606 93.158846 
L 119.389838 82.333584 
L 119.614069 87.385024 
L 120.062533 82.209518 
L 120.286764 84.144682 
L 120.510996 81.207077 
L 121.183691 93.143039 
L 121.407922 97.043145 
L 121.632154 87.084721 
L 121.856385 100.320201 
L 122.080617 86.854094 
L 122.304849 95.395665 
L 122.52908 84.600135 
L 122.753312 85.292893 
L 122.977543 80.234715 
L 123.201775 85.123621 
L 123.426007 95.127253 
L 123.650238 90.01791 
L 124.098701 87.658 
L 124.322933 81.882752 
L 124.771396 89.477973 
L 124.995628 90.298101 
L 125.219859 83.229656 
L 125.444091 89.214898 
L 125.668323 89.661175 
L 125.892554 84.688894 
L 126.116786 85.145161 
L 126.341018 90.072328 
L 126.565249 87.824597 
L 126.789481 87.725623 
L 127.013712 89.036692 
L 127.237944 86.728158 
L 127.462176 99.106643 
L 127.686407 91.055787 
L 127.910639 89.582929 
L 128.13487 90.620132 
L 128.359102 86.667328 
L 128.583334 85.389937 
L 128.807565 89.502353 
L 129.031797 84.293379 
L 129.256028 84.951405 
L 129.48026 92.995798 
L 129.704492 92.450664 
L 129.928723 89.317789 
L 130.152955 89.810595 
L 130.377186 88.498145 
L 130.601418 91.608529 
L 130.82565 92.720782 
L 131.049881 85.774462 
L 131.498344 92.692519 
L 131.722576 82.17521 
L 131.946808 83.59599 
L 132.619502 91.801747 
L 133.067966 85.593001 
L 133.292197 88.199307 
L 133.516429 84.309503 
L 133.74066 89.255839 
L 133.964892 88.322162 
L 134.189124 91.51163 
L 134.413355 89.479512 
L 134.637587 89.090757 
L 134.861818 94.974509 
L 135.08605 86.651158 
L 135.310282 84.746283 
L 135.534513 86.661355 
L 135.758745 90.418628 
L 135.982976 96.338214 
L 136.207208 92.630582 
L 136.43144 91.399152 
L 136.655671 92.833233 
L 136.879903 82.856068 
L 137.328366 88.508632 
L 137.552598 83.623936 
L 137.776829 94.680703 
L 138.001061 84.350734 
L 138.225292 86.238064 
L 138.449524 94.73596 
L 138.673756 88.057238 
L 138.897987 94.32468 
L 139.122219 95.277789 
L 139.34645 89.145938 
L 139.570682 93.507882 
L 139.794914 87.66075 
L 140.019145 86.85311 
L 140.243377 84.982476 
L 140.467608 85.209518 
L 140.69184 96.496111 
L 140.916072 88.815521 
L 141.140303 91.457522 
L 141.364535 87.15227 
L 141.588766 95.848012 
L 142.03723 85.952905 
L 142.261461 97.653322 
L 142.485693 89.663139 
L 142.709924 93.372912 
L 142.934156 91.570057 
L 143.158388 98.137973 
L 143.606851 99.760349 
L 143.831082 98.995017 
L 144.055314 87.269212 
L 144.279546 85.375834 
L 144.503777 100.236906 
L 144.728009 87.140906 
L 144.952241 88.777189 
L 145.176472 88.469145 
L 145.400704 86.513406 
L 145.624935 86.771197 
L 146.29763 98.467076 
L 146.521862 86.573399 
L 146.746093 88.444745 
L 146.970325 91.743753 
L 147.194557 85.426096 
L 147.418788 93.259721 
L 147.64302 90.147271 
L 147.867251 97.637055 
L 148.091483 88.163357 
L 148.539946 94.223132 
L 148.764178 85.274384 
L 148.988409 93.279611 
L 149.212641 89.671212 
L 149.436873 96.354241 
L 149.661104 93.226728 
L 149.885336 87.438262 
L 150.109567 98.241451 
L 150.333799 87.297404 
L 150.558031 91.994462 
L 150.782262 91.577104 
L 151.006494 89.490795 
L 151.230725 91.309122 
L 151.454957 88.787929 
L 151.679189 89.29536 
L 151.90342 100.637365 
L 152.127652 104.267786 
L 152.351883 93.194878 
L 152.576115 88.119575 
L 152.800347 88.1913 
L 153.024578 91.918349 
L 153.24881 92.444473 
L 153.473041 97.589258 
L 153.697273 111.233693 
L 153.921505 89.175257 
L 154.145736 91.596378 
L 154.369968 85.198977 
L 154.594199 98.669284 
L 154.818431 90.725651 
L 155.042663 96.08724 
L 155.266894 90.680018 
L 155.491126 89.968361 
L 155.715357 91.368869 
L 155.939589 104.939269 
L 156.163821 93.59276 
L 156.388052 101.060301 
L 156.612284 99.614763 
L 156.836515 90.339662 
L 157.284979 98.0217 
L 157.50921 92.71031 
L 157.733442 104.087036 
L 157.957673 90.094745 
L 158.181905 97.604392 
L 158.406137 96.125516 
L 158.630368 93.819492 
L 158.8546 89.189876 
L 159.303063 99.206021 
L 159.527295 92.980631 
L 159.751526 94.229352 
L 159.975758 94.205941 
L 160.199989 92.347643 
L 160.424221 93.881822 
L 160.648453 92.371697 
L 160.872684 92.405713 
L 161.096916 88.510826 
L 161.321147 91.929847 
L 161.545379 88.819002 
L 161.769611 94.13299 
L 161.993842 90.435332 
L 162.218074 88.621541 
L 162.442305 92.213591 
L 162.890769 96.203549 
L 163.115 91.933407 
L 163.339232 93.028463 
L 163.563464 96.21855 
L 163.787695 88.298217 
L 164.46039 96.520964 
L 164.684622 93.521295 
L 164.908853 107.265405 
L 165.357316 88.374113 
L 165.581548 101.193559 
L 165.80578 91.565891 
L 166.030011 92.714372 
L 166.254243 94.720464 
L 166.478474 98.411539 
L 166.702706 94.843103 
L 166.926938 95.270889 
L 167.151169 90.060821 
L 167.375401 95.920319 
L 167.599632 97.685818 
L 167.823864 94.44955 
L 168.048096 98.52874 
L 168.272327 92.033917 
L 168.496559 96.69176 
L 168.72079 108.169208 
L 168.945022 94.014829 
L 169.169254 103.005083 
L 169.393485 93.059172 
L 169.841948 91.304363 
L 170.06618 98.800159 
L 170.290412 93.471918 
L 170.514643 93.707624 
L 170.738875 97.972831 
L 170.963106 93.957957 
L 171.187338 96.90613 
L 171.41157 110.758031 
L 171.635801 90.735491 
L 171.860033 102.200481 
L 172.084264 95.051638 
L 172.308496 103.614268 
L 172.532728 90.352075 
L 172.981191 99.546779 
L 173.205422 95.968687 
L 173.429654 95.633793 
L 173.653886 109.435938 
L 173.878117 95.453391 
L 174.102349 96.388506 
L 174.32658 92.859484 
L 174.550812 97.527325 
L 174.775044 90.457279 
L 174.999275 91.541919 
L 175.223507 87.966208 
L 175.447738 102.234294 
L 175.67197 93.703867 
L 175.896202 93.103901 
L 176.120433 105.483868 
L 176.344665 97.808892 
L 176.568896 103.814617 
L 176.793128 100.82592 
L 177.01736 99.647069 
L 177.241591 92.026962 
L 177.465823 91.736192 
L 177.690054 101.048041 
L 177.914286 90.962155 
L 178.138518 91.623668 
L 178.362749 89.774721 
L 178.811212 100.984256 
L 179.035444 94.680197 
L 179.259676 98.169888 
L 179.483907 89.652355 
L 179.708139 90.514467 
L 179.93237 103.574331 
L 180.380834 88.234816 
L 180.829297 98.429895 
L 181.053528 97.426428 
L 181.27776 92.870502 
L 181.501992 94.214518 
L 181.950455 101.85649 
L 182.174687 95.679958 
L 182.398918 95.500226 
L 182.62315 101.829601 
L 182.847381 94.441913 
L 183.071613 101.3545 
L 183.295845 95.955849 
L 183.520076 94.841779 
L 183.744308 97.207821 
L 183.968539 96.938279 
L 184.192771 97.174637 
L 184.417003 92.571418 
L 184.641234 100.816259 
L 184.865466 93.801479 
L 185.089697 91.769534 
L 185.538161 105.836974 
L 185.986624 93.590444 
L 186.210855 93.029365 
L 186.435087 91.748221 
L 186.659319 92.894027 
L 186.88355 92.166116 
L 187.107782 96.372643 
L 187.332013 97.849243 
L 187.556245 91.832461 
L 187.780477 97.349095 
L 188.004708 96.422791 
L 188.22894 91.398494 
L 188.453171 104.754627 
L 188.677403 95.538248 
L 188.901635 98.486904 
L 189.125866 97.717188 
L 189.350098 93.925793 
L 189.574329 94.652877 
L 189.798561 92.518732 
L 190.247024 110.748805 
L 190.471256 95.679333 
L 190.695487 98.317606 
L 190.919719 98.751357 
L 191.368182 91.852456 
L 191.592414 96.571454 
L 191.816645 94.18835 
L 192.040877 99.481541 
L 192.265109 96.824797 
L 192.48934 91.18873 
L 192.713572 92.917573 
L 192.937803 101.703632 
L 193.162035 101.166593 
L 193.386267 92.73221 
L 193.610498 97.658812 
L 193.83473 95.256542 
L 194.058961 111.5609 
L 194.283193 91.270421 
L 194.507425 98.246031 
L 194.731656 97.668888 
L 194.955888 99.651948 
L 195.180119 96.321579 
L 195.404351 95.211223 
L 195.628583 113.548847 
L 195.852814 95.662026 
L 195.852814 95.662026 
" clip-path="url(#p0f17421453)" style="fill: none; stroke: #1e90ff; stroke-width: 0.8; stroke-linecap: square"/>
   </g>
   <g id="line2d_10">
    <path d="M 61.762316 67.747853 
L 61.986548 61.04431 
L 62.210779 65.633283 
L 62.435011 59.698718 
L 62.659242 65.240657 
L 62.883474 61.152953 
L 63.107706 72.056264 
L 63.331937 60.559992 
L 63.556169 58.190741 
L 63.7804 64.506871 
L 64.004632 65.148792 
L 64.228864 65.306489 
L 64.453095 60.348481 
L 64.677327 68.002281 
L 64.901558 61.973265 
L 65.12579 61.271471 
L 65.350022 57.027733 
L 65.574253 72.796943 
L 65.798485 65.034806 
L 66.022716 65.659871 
L 66.246948 66.628773 
L 66.47118 63.486722 
L 66.919643 69.926577 
L 67.143874 72.442311 
L 67.368106 65.306705 
L 67.592338 66.763952 
L 67.816569 67.006382 
L 68.265032 71.729611 
L 68.489264 64.532966 
L 68.713496 66.768014 
L 68.937727 76.074416 
L 69.161959 69.721271 
L 69.386191 70.448948 
L 69.610422 65.30173 
L 70.058885 77.326305 
L 70.283117 67.960498 
L 70.507349 67.156251 
L 70.73158 67.608039 
L 70.955812 78.453784 
L 71.180043 71.543891 
L 71.404275 71.019944 
L 71.628507 71.825789 
L 71.852738 67.791195 
L 72.301201 90.410728 
L 72.749665 71.694627 
L 72.973896 77.230297 
L 73.198128 73.976981 
L 73.422359 80.213485 
L 73.646591 67.621011 
L 73.870823 75.820999 
L 74.095054 74.695726 
L 74.543517 66.655584 
L 74.767749 67.951961 
L 74.991981 70.636952 
L 75.216212 71.786333 
L 75.664675 64.031645 
L 75.888907 60.636336 
L 76.113139 53.979893 
L 76.33737 52.495581 
L 76.785833 66.251076 
L 77.234297 67.226202 
L 77.458528 75.923433 
L 77.68276 67.446247 
L 77.906991 70.097173 
L 78.131223 75.10943 
L 78.355455 70.214585 
L 78.579686 70.908562 
L 78.803918 73.975414 
L 79.028149 74.40546 
L 79.252381 73.655951 
L 79.476613 74.026564 
L 79.700844 79.515784 
L 79.925076 77.433241 
L 80.149307 77.73868 
L 80.373539 80.915331 
L 80.597771 76.698811 
L 80.822002 81.015724 
L 81.046234 74.422157 
L 81.270465 73.245725 
L 81.494697 79.67783 
L 81.718929 78.975879 
L 81.94316 72.411581 
L 82.167392 72.169914 
L 82.391623 72.680641 
L 82.615855 77.432012 
L 83.064318 75.969572 
L 83.28855 73.651948 
L 83.512781 81.312941 
L 83.737013 81.169069 
L 83.961245 75.460273 
L 84.185476 80.536271 
L 84.409708 74.60229 
L 84.633939 72.83367 
L 84.858171 81.735976 
L 85.306634 76.387298 
L 85.530866 74.62798 
L 85.755097 71.222723 
L 86.427792 85.943471 
L 86.652024 78.983267 
L 86.876255 88.052583 
L 87.100487 77.654152 
L 87.324719 83.594103 
L 87.54895 84.373923 
L 87.773182 74.811031 
L 87.997414 76.663784 
L 88.221645 75.690605 
L 88.445877 73.928114 
L 88.670108 92.195987 
L 88.89434 81.791115 
L 89.118572 77.184542 
L 89.567035 83.645335 
L 89.791266 81.377439 
L 90.015498 85.69891 
L 90.23973 78.665032 
L 90.463961 84.36728 
L 90.688193 80.493203 
L 90.912424 91.942247 
L 91.136656 82.321506 
L 91.360888 80.862193 
L 91.585119 82.230855 
L 91.809351 86.890984 
L 92.033582 86.505159 
L 92.257814 85.465626 
L 92.482046 81.014701 
L 92.706277 79.603293 
L 92.930509 82.44362 
L 93.15474 81.28749 
L 93.378972 78.251958 
L 93.827435 84.66484 
L 94.051667 83.635724 
L 94.275898 79.187661 
L 94.50013 87.502505 
L 94.724362 77.876893 
L 94.948593 79.474661 
L 95.172825 82.003886 
L 95.397056 94.758215 
L 95.84552 80.167849 
L 96.069751 77.918088 
L 96.293983 76.98257 
L 96.518214 82.568483 
L 96.742446 78.595659 
L 96.966678 78.480788 
L 97.190909 79.059617 
L 97.415141 84.864432 
L 97.639372 82.572399 
L 97.863604 81.554848 
L 98.087836 76.917518 
L 98.312067 87.409887 
L 98.536299 77.716799 
L 98.76053 89.185491 
L 98.984762 80.092155 
L 99.208994 82.317572 
L 99.433225 80.403328 
L 99.657457 81.02386 
L 99.881688 90.176384 
L 100.10592 83.582583 
L 100.330152 83.56822 
L 100.554383 95.557122 
L 100.778615 80.966673 
L 101.002846 83.699662 
L 101.227078 80.523751 
L 101.45131 93.048823 
L 101.675541 95.933675 
L 101.899773 87.504107 
L 102.348236 81.473243 
L 102.572468 81.564273 
L 102.796699 82.176591 
L 103.020931 80.876969 
L 103.245162 80.572651 
L 103.469394 86.268679 
L 103.917857 81.358081 
L 104.142089 81.476075 
L 104.36632 91.243119 
L 104.590552 79.837873 
L 104.814784 88.697511 
L 105.039015 92.302291 
L 105.263247 85.264091 
L 105.487478 96.790373 
L 105.71171 86.482195 
L 105.935942 95.299125 
L 106.160173 83.557773 
L 106.384405 89.781108 
L 106.608637 88.265613 
L 106.832868 80.120554 
L 107.0571 84.140633 
L 107.281331 90.788342 
L 107.505563 92.564766 
L 107.729795 90.704339 
L 107.954026 79.382055 
L 108.178258 86.560974 
L 108.402489 79.944077 
L 108.626721 90.168847 
L 108.850953 88.740739 
L 109.075184 88.59858 
L 109.299416 95.733588 
L 109.523647 78.067754 
L 109.747879 83.479731 
L 109.972111 95.336834 
L 110.196342 94.989453 
L 110.420574 84.278042 
L 110.644805 87.319928 
L 110.869037 84.216965 
L 111.3175 92.722276 
L 111.541732 92.913799 
L 111.765963 97.577479 
L 111.990195 95.638842 
L 112.214427 89.426617 
L 112.438658 90.882974 
L 112.66289 89.472721 
L 112.887121 86.089665 
L 113.111353 91.601945 
L 113.335585 85.313094 
L 113.559816 86.084175 
L 114.008279 92.860077 
L 114.232511 95.636417 
L 114.456743 86.888527 
L 114.680974 94.75033 
L 114.905206 85.568964 
L 115.129437 84.555065 
L 115.353669 96.384014 
L 115.802132 85.49102 
L 116.026364 85.245004 
L 116.250595 84.774334 
L 116.474827 85.721438 
L 116.699059 90.172682 
L 116.92329 86.475055 
L 117.147522 87.015008 
L 117.371753 90.939052 
L 117.595985 80.196306 
L 117.820217 91.434212 
L 118.044448 93.300406 
L 118.26868 92.875426 
L 118.492911 97.632475 
L 118.717143 87.910162 
L 118.941375 96.300751 
L 119.389838 87.204794 
L 119.614069 90.163534 
L 119.838301 87.997612 
L 120.062533 84.148142 
L 120.510996 83.617301 
L 120.735227 87.179377 
L 120.959459 88.136252 
L 121.183691 96.878443 
L 121.632154 88.568872 
L 121.856385 93.044266 
L 122.080617 88.785011 
L 122.304849 96.590292 
L 122.52908 88.081786 
L 122.753312 85.699734 
L 122.977543 84.776645 
L 123.201775 86.570027 
L 123.426007 93.764641 
L 123.650238 89.248611 
L 123.87447 102.990459 
L 124.098701 88.80164 
L 124.322933 82.141595 
L 124.995628 106.837985 
L 125.219859 88.253773 
L 125.444091 96.781964 
L 125.668323 89.133496 
L 125.892554 89.967384 
L 126.116786 90.371986 
L 126.565249 92.942542 
L 126.789481 88.609407 
L 127.013712 98.450234 
L 127.237944 85.176354 
L 127.686407 102.5258 
L 127.910639 92.735456 
L 128.13487 88.036821 
L 128.359102 89.820073 
L 128.583334 92.807173 
L 128.807565 87.545804 
L 129.031797 88.705039 
L 129.256028 88.562949 
L 129.48026 97.976698 
L 129.704492 93.290594 
L 129.928723 91.249137 
L 130.152955 98.243941 
L 130.377186 90.097128 
L 130.601418 94.953136 
L 131.049881 88.810954 
L 131.274113 92.086709 
L 131.498344 92.560298 
L 131.722576 86.554486 
L 131.946808 85.236678 
L 132.171039 88.983985 
L 132.395271 87.404836 
L 132.619502 94.769415 
L 132.843734 91.642843 
L 133.067966 86.483716 
L 133.292197 93.078925 
L 133.516429 86.731969 
L 133.74066 92.624673 
L 133.964892 89.876259 
L 134.189124 95.690002 
L 134.413355 90.331648 
L 134.637587 90.175598 
L 134.861818 90.982997 
L 135.08605 94.677701 
L 135.310282 88.177046 
L 135.534513 89.348474 
L 135.758745 102.174869 
L 135.982976 98.875358 
L 136.207208 98.118604 
L 136.43144 95.921214 
L 136.655671 92.551838 
L 136.879903 86.123652 
L 137.104134 90.740369 
L 137.328366 88.626955 
L 137.552598 84.937336 
L 137.776829 92.86894 
L 138.001061 87.097571 
L 138.225292 87.735806 
L 138.449524 91.020449 
L 138.673756 88.523917 
L 138.897987 90.290571 
L 139.122219 90.404554 
L 139.34645 89.018853 
L 139.570682 94.882835 
L 139.794914 88.705188 
L 140.019145 89.85087 
L 140.243377 86.298796 
L 140.467608 87.927589 
L 140.69184 99.209038 
L 140.916072 93.64911 
L 141.364535 90.41471 
L 141.588766 91.892027 
L 141.812998 92.559237 
L 142.03723 85.941808 
L 142.261461 101.689694 
L 142.485693 99.499841 
L 142.934156 93.032171 
L 143.158388 100.385822 
L 143.382619 97.867094 
L 143.606851 92.716462 
L 143.831082 100.553114 
L 144.055314 91.503322 
L 144.279546 88.209618 
L 144.503777 97.734679 
L 144.728009 92.486295 
L 144.952241 92.787471 
L 145.176472 91.721989 
L 145.400704 89.553593 
L 145.624935 89.249637 
L 145.849167 93.418427 
L 146.073399 92.478376 
L 146.29763 103.479813 
L 146.521862 92.365881 
L 146.746093 88.341311 
L 146.970325 94.762492 
L 147.194557 85.385429 
L 147.418788 94.640633 
L 147.64302 88.950966 
L 147.867251 95.562291 
L 148.091483 92.49538 
L 148.315715 92.037396 
L 148.539946 94.228686 
L 148.764178 87.045513 
L 149.212641 103.538077 
L 149.436873 91.523967 
L 149.661104 94.502391 
L 149.885336 90.673553 
L 150.109567 97.829719 
L 150.333799 89.172321 
L 150.558031 93.151484 
L 150.782262 93.571915 
L 151.006494 93.192851 
L 151.230725 88.994407 
L 151.454957 93.580933 
L 151.679189 91.124214 
L 151.90342 97.891484 
L 152.127652 96.130648 
L 152.351883 98.085437 
L 152.576115 88.584985 
L 152.800347 90.764929 
L 153.024578 91.435088 
L 153.473041 93.908635 
L 153.697273 100.242882 
L 153.921505 95.403707 
L 154.145736 94.205488 
L 154.369968 89.763745 
L 154.594199 104.528151 
L 154.818431 92.429922 
L 155.042663 98.745467 
L 155.266894 92.245839 
L 155.491126 91.809291 
L 155.715357 90.589229 
L 155.939589 101.163972 
L 156.163821 103.258543 
L 156.388052 103.596887 
L 156.612284 103.139089 
L 156.836515 91.925779 
L 157.060747 93.32337 
L 157.284979 98.611849 
L 157.50921 96.345383 
L 157.733442 102.091379 
L 157.957673 92.916524 
L 158.181905 100.078633 
L 158.406137 97.526506 
L 158.630368 103.112972 
L 158.8546 88.588538 
L 159.078831 95.355749 
L 159.303063 98.026849 
L 159.527295 92.661689 
L 159.751526 98.59552 
L 159.975758 97.972289 
L 160.424221 92.768393 
L 160.648453 93.438636 
L 160.872684 95.984933 
L 161.096916 88.748073 
L 161.321147 94.666936 
L 161.545379 91.242329 
L 161.769611 95.682169 
L 162.218074 91.106092 
L 162.666537 102.574855 
L 162.890769 99.032931 
L 163.115 92.102848 
L 163.339232 92.682105 
L 163.563464 100.704455 
L 163.787695 88.505932 
L 164.011927 93.437279 
L 164.236158 94.436732 
L 164.46039 100.40006 
L 164.684622 98.726893 
L 164.908853 113.017224 
L 165.133085 98.514214 
L 165.357316 92.048928 
L 165.581548 113.333794 
L 165.80578 91.87828 
L 166.030011 95.805707 
L 166.254243 93.456419 
L 166.478474 95.863689 
L 166.702706 96.151711 
L 166.926938 97.939703 
L 167.151169 90.852195 
L 167.375401 102.563976 
L 167.823864 91.294079 
L 168.048096 113.830227 
L 168.272327 97.363091 
L 168.496559 99.611576 
L 168.72079 104.638684 
L 168.945022 96.631835 
L 169.169254 97.301251 
L 169.393485 96.518176 
L 169.617717 94.308101 
L 169.841948 90.80612 
L 170.06618 98.211508 
L 170.290412 94.039785 
L 170.514643 92.658013 
L 170.738875 92.73044 
L 170.963106 94.839459 
L 171.41157 99.904405 
L 171.635801 93.190723 
L 171.860033 98.384583 
L 172.084264 94.252774 
L 172.308496 94.871365 
L 172.532728 96.024248 
L 172.756959 101.232884 
L 172.981191 95.014545 
L 173.205422 99.65976 
L 173.429654 97.397448 
L 173.653886 90.534378 
L 174.102349 105.043129 
L 174.32658 92.840604 
L 174.550812 97.306959 
L 174.775044 94.991651 
L 174.999275 97.079246 
L 175.223507 92.037881 
L 175.447738 98.844036 
L 175.67197 92.076673 
L 175.896202 93.444822 
L 176.120433 99.691543 
L 176.568896 92.249676 
L 176.793128 95.611201 
L 177.01736 102.427462 
L 177.465823 90.705933 
L 177.690054 103.407988 
L 177.914286 95.315524 
L 178.138518 95.195359 
L 178.362749 114.671486 
L 178.586981 94.510929 
L 178.811212 103.435152 
L 179.035444 98.624921 
L 179.259676 98.421969 
L 179.483907 96.810084 
L 179.708139 96.664408 
L 179.93237 104.566741 
L 180.156602 102.184166 
L 180.380834 93.131865 
L 180.829297 100.842033 
L 181.053528 99.14879 
L 181.27776 93.894889 
L 181.501992 95.055041 
L 181.726223 100.299144 
L 181.950455 112.705685 
L 182.174687 99.81681 
L 182.398918 94.516597 
L 182.62315 102.148894 
L 182.847381 95.928173 
L 183.071613 109.036824 
L 183.295845 95.471323 
L 183.520076 96.397805 
L 183.744308 99.608571 
L 183.968539 104.915523 
L 184.192771 105.231189 
L 184.417003 98.91809 
L 184.641234 98.410413 
L 184.865466 101.735005 
L 185.089697 95.623489 
L 185.313929 101.869801 
L 185.538161 124.407273 
L 185.762392 96.851717 
L 185.986624 95.056966 
L 186.210855 97.381664 
L 186.435087 95.116456 
L 186.659319 94.219315 
L 186.88355 96.54114 
L 187.107782 102.960871 
L 187.332013 103.05854 
L 187.556245 93.615591 
L 187.780477 94.498093 
L 188.004708 96.320382 
L 188.22894 90.42374 
L 188.453171 94.954976 
L 188.677403 93.895542 
L 188.901635 101.715624 
L 189.125866 101.526972 
L 189.350098 103.312804 
L 189.574329 95.53905 
L 189.798561 103.479466 
L 190.247024 109.693211 
L 190.471256 95.526916 
L 190.695487 101.40163 
L 190.919719 101.929988 
L 191.143951 103.282517 
L 191.368182 94.629553 
L 192.265109 102.368733 
L 192.48934 95.21088 
L 192.713572 91.779817 
L 192.937803 97.948032 
L 193.162035 100.668522 
L 193.610498 94.494484 
L 193.83473 97.810352 
L 194.058961 109.836438 
L 194.283193 95.526973 
L 194.507425 102.227447 
L 194.731656 102.307568 
L 194.955888 102.905704 
L 195.180119 95.638207 
L 195.628583 108.797453 
L 195.852814 98.772849 
L 195.852814 98.772849 
" clip-path="url(#p0f17421453)" style="fill: none; stroke: #ff0000; stroke-width: 0.8; stroke-linecap: square"/>
   </g>
   <g id="patch_3">
    <path d="M 59.52 129.12 
L 59.52 25.44 
" style="fill: none; stroke: #000000; stroke-width: 0.8; stroke-linejoin: miter; stroke-linecap: square"/>
   </g>
   <g id="patch_4">
    <path d="M 198.319362 129.12 
L 198.319362 25.44 
" style="fill: none; stroke: #000000; stroke-width: 0.8; stroke-linejoin: miter; stroke-linecap: square"/>
   </g>
   <g id="patch_5">
    <path d="M 59.52 129.12 
L 198.319362 129.12 
" style="fill: none; stroke: #000000; stroke-width: 0.8; stroke-linejoin: miter; stroke-linecap: square"/>
   </g>
   <g id="patch_6">
    <path d="M 59.52 25.44 
L 198.319362 25.44 
" style="fill: none; stroke: #000000; stroke-width: 0.8; stroke-linejoin: miter; stroke-linecap: square"/>
   </g>
   <g id="text_10">
    <!-- Frequency Domain Plot -->
    <g transform="translate(59.520306 19.44) scale(0.12 -0.12)">
     <defs>
      <path id="DejaVuSans-44" d="M 1259 4147 
L 1259 519 
L 2022 519 
Q 2988 519 3436 956 
Q 3884 1394 3884 2338 
Q 3884 3275 3436 3711 
Q 2988 4147 2022 4147 
L 1259 4147 
z
M 628 4666 
L 1925 4666 
Q 3281 4666 3915 4102 
Q 4550 3538 4550 2338 
Q 4550 1131 3912 565 
Q 3275 0 1925 0 
L 628 0 
L 628 4666 
z
" transform="scale(0.015625)"/>
      <path id="DejaVuSans-6d" d="M 3328 2828 
Q 3544 3216 3844 3400 
Q 4144 3584 4550 3584 
Q 5097 3584 5394 3201 
Q 5691 2819 5691 2113 
L 5691 0 
L 5113 0 
L 5113 2094 
Q 5113 2597 4934 2840 
Q 4756 3084 4391 3084 
Q 3944 3084 3684 2787 
Q 3425 2491 3425 1978 
L 3425 0 
L 2847 0 
L 2847 2094 
Q 2847 2600 2669 2842 
Q 2491 3084 2119 3084 
Q 1678 3084 1418 2786 
Q 1159 2488 1159 1978 
L 1159 0 
L 581 0 
L 581 3500 
L 1159 3500 
L 1159 2956 
Q 1356 3278 1631 3431 
Q 1906 3584 2284 3584 
Q 2666 3584 2933 3390 
Q 3200 3197 3328 2828 
z
" transform="scale(0.015625)"/>
      <path id="DejaVuSans-61" d="M 2194 1759 
Q 1497 1759 1228 1600 
Q 959 1441 959 1056 
Q 959 750 1161 570 
Q 1363 391 1709 391 
Q 2188 391 2477 730 
Q 2766 1069 2766 1631 
L 2766 1759 
L 2194 1759 
z
M 3341 1997 
L 3341 0 
L 2766 0 
L 2766 531 
Q 2569 213 2275 61 
Q 1981 -91 1556 -91 
Q 1019 -91 701 211 
Q 384 513 384 1019 
Q 384 1609 779 1909 
Q 1175 2209 1959 2209 
L 2766 2209 
L 2766 2266 
Q 2766 2663 2505 2880 
Q 2244 3097 1772 3097 
Q 1472 3097 1187 3025 
Q 903 2953 641 2809 
L 641 3341 
Q 956 3463 1253 3523 
Q 1550 3584 1831 3584 
Q 2591 3584 2966 3190 
Q 3341 2797 3341 1997 
z
" transform="scale(0.015625)"/>
      <path id="DejaVuSans-69" d="M 603 3500 
L 1178 3500 
L 1178 0 
L 603 0 
L 603 3500 
z
M 603 4863 
L 1178 4863 
L 1178 4134 
L 603 4134 
L 603 4863 
z
" transform="scale(0.015625)"/>
      <path id="DejaVuSans-50" d="M 1259 4147 
L 1259 2394 
L 2053 2394 
Q 2494 2394 2734 2622 
Q 2975 2850 2975 3272 
Q 2975 3691 2734 3919 
Q 2494 4147 2053 4147 
L 1259 4147 
z
M 628 4666 
L 2053 4666 
Q 2838 4666 3239 4311 
Q 3641 3956 3641 3272 
Q 3641 2581 3239 2228 
Q 2838 1875 2053 1875 
L 1259 1875 
L 1259 0 
L 628 0 
L 628 4666 
z
" transform="scale(0.015625)"/>
      <path id="DejaVuSans-6c" d="M 603 4863 
L 1178 4863 
L 1178 0 
L 603 0 
L 603 4863 
z
" transform="scale(0.015625)"/>
      <path id="DejaVuSans-74" d="M 1172 4494 
L 1172 3500 
L 2356 3500 
L 2356 3053 
L 1172 3053 
L 1172 1153 
Q 1172 725 1289 603 
Q 1406 481 1766 481 
L 2356 481 
L 2356 0 
L 1766 0 
Q 1100 0 847 248 
Q 594 497 594 1153 
L 594 3053 
L 172 3053 
L 172 3500 
L 594 3500 
L 594 4494 
L 1172 4494 
z
" transform="scale(0.015625)"/>
     </defs>
     <use xlink:href="#DejaVuSans-46"/>
     <use xlink:href="#DejaVuSans-72" x="50.269531"/>
     <use xlink:href="#DejaVuSans-65" x="89.132812"/>
     <use xlink:href="#DejaVuSans-71" x="150.65625"/>
     <use xlink:href="#DejaVuSans-75" x="214.132812"/>
     <use xlink:href="#DejaVuSans-65" x="277.511719"/>
     <use xlink:href="#DejaVuSans-6e" x="339.035156"/>
     <use xlink:href="#DejaVuSans-63" x="402.414062"/>
     <use xlink:href="#DejaVuSans-79" x="457.394531"/>
     <use xlink:href="#DejaVuSans-20" x="516.574219"/>
     <use xlink:href="#DejaVuSans-44" x="548.361328"/>
     <use xlink:href="#DejaVuSans-6f" x="625.363281"/>
     <use xlink:href="#DejaVuSans-6d" x="686.544922"/>
     <use xlink:href="#DejaVuSans-61" x="783.957031"/>
     <use xlink:href="#DejaVuSans-69" x="845.236328"/>
     <use xlink:href="#DejaVuSans-6e" x="873.019531"/>
     <use xlink:href="#DejaVuSans-20" x="936.398438"/>
     <use xlink:href="#DejaVuSans-50" x="968.185547"/>
     <use xlink:href="#DejaVuSans-6c" x="1028.488281"/>
     <use xlink:href="#DejaVuSans-6f" x="1056.271484"/>
     <use xlink:href="#DejaVuSans-74" x="1117.453125"/>
    </g>
   </g>
   <g id="legend_1">
    <g id="patch_7">
     <path d="M 19.980191 158.724 
L 50.848316 158.724 
Q 51.448316 158.724 51.448316 158.124 
L 51.448316 145.213687 
Q 51.448316 144.613687 50.848316 144.613687 
L 19.980191 144.613687 
Q 19.380191 144.613687 19.380191 145.213687 
L 19.380191 158.124 
Q 19.380191 158.724 19.980191 158.724 
z
" style="fill: #ffffff; opacity: 0.8; stroke: #cccccc; stroke-linejoin: miter"/>
    </g>
    <g id="line2d_11">
     <path d="M 20.580191 147.043219 
L 23.580191 147.043219 
L 26.580191 147.043219 
" style="fill: none; stroke: #808080; stroke-width: 0.8; stroke-linecap: square"/>
    </g>
    <g id="text_11">
     <!-- Contaminated -->
     <g transform="translate(28.980191 148.093219) scale(0.03 -0.03)">
      <defs>
       <path id="DejaVuSans-43" d="M 4122 4306 
L 4122 3641 
Q 3803 3938 3442 4084 
Q 3081 4231 2675 4231 
Q 1875 4231 1450 3742 
Q 1025 3253 1025 2328 
Q 1025 1406 1450 917 
Q 1875 428 2675 428 
Q 3081 428 3442 575 
Q 3803 722 4122 1019 
L 4122 359 
Q 3791 134 3420 21 
Q 3050 -91 2638 -91 
Q 1578 -91 968 557 
Q 359 1206 359 2328 
Q 359 3453 968 4101 
Q 1578 4750 2638 4750 
Q 3056 4750 3426 4639 
Q 3797 4528 4122 4306 
z
" transform="scale(0.015625)"/>
      </defs>
      <use xlink:href="#DejaVuSans-43"/>
      <use xlink:href="#DejaVuSans-6f" x="69.824219"/>
      <use xlink:href="#DejaVuSans-6e" x="131.005859"/>
      <use xlink:href="#DejaVuSans-74" x="194.384766"/>
      <use xlink:href="#DejaVuSans-61" x="233.59375"/>
      <use xlink:href="#DejaVuSans-6d" x="294.873047"/>
      <use xlink:href="#DejaVuSans-69" x="392.285156"/>
      <use xlink:href="#DejaVuSans-6e" x="420.068359"/>
      <use xlink:href="#DejaVuSans-61" x="483.447266"/>
      <use xlink:href="#DejaVuSans-74" x="544.726562"/>
      <use xlink:href="#DejaVuSans-65" x="583.935547"/>
      <use xlink:href="#DejaVuSans-64" x="645.458984"/>
     </g>
    </g>
    <g id="line2d_12">
     <path d="M 20.580191 151.446656 
L 23.580191 151.446656 
L 26.580191 151.446656 
" style="fill: none; stroke: #1e90ff; stroke-width: 0.8; stroke-linecap: square"/>
    </g>
    <g id="text_12">
     <!-- Clean -->
     <g transform="translate(28.980191 152.496656) scale(0.03 -0.03)">
      <use xlink:href="#DejaVuSans-43"/>
      <use xlink:href="#DejaVuSans-6c" x="69.824219"/>
      <use xlink:href="#DejaVuSans-65" x="97.607422"/>
      <use xlink:href="#DejaVuSans-61" x="159.130859"/>
      <use xlink:href="#DejaVuSans-6e" x="220.410156"/>
     </g>
    </g>
    <g id="line2d_13">
     <path d="M 20.580191 155.850094 
L 23.580191 155.850094 
L 26.580191 155.850094 
" style="fill: none; stroke: #ff0000; stroke-width: 0.8; stroke-linecap: square"/>
    </g>
    <g id="text_13">
     <!-- SACed -->
     <g transform="translate(28.980191 156.900094) scale(0.03 -0.03)">
      <defs>
       <path id="DejaVuSans-53" d="M 3425 4513 
L 3425 3897 
Q 3066 4069 2747 4153 
Q 2428 4238 2131 4238 
Q 1616 4238 1336 4038 
Q 1056 3838 1056 3469 
Q 1056 3159 1242 3001 
Q 1428 2844 1947 2747 
L 2328 2669 
Q 3034 2534 3370 2195 
Q 3706 1856 3706 1288 
Q 3706 609 3251 259 
Q 2797 -91 1919 -91 
Q 1588 -91 1214 -16 
Q 841 59 441 206 
L 441 856 
Q 825 641 1194 531 
Q 1563 422 1919 422 
Q 2459 422 2753 634 
Q 3047 847 3047 1241 
Q 3047 1584 2836 1778 
Q 2625 1972 2144 2069 
L 1759 2144 
Q 1053 2284 737 2584 
Q 422 2884 422 3419 
Q 422 4038 858 4394 
Q 1294 4750 2059 4750 
Q 2388 4750 2728 4690 
Q 3069 4631 3425 4513 
z
" transform="scale(0.015625)"/>
       <path id="DejaVuSans-41" d="M 2188 4044 
L 1331 1722 
L 3047 1722 
L 2188 4044 
z
M 1831 4666 
L 2547 4666 
L 4325 0 
L 3669 0 
L 3244 1197 
L 1141 1197 
L 716 0 
L 50 0 
L 1831 4666 
z
" transform="scale(0.015625)"/>
      </defs>
      <use xlink:href="#DejaVuSans-53"/>
      <use xlink:href="#DejaVuSans-41" x="65.351562"/>
      <use xlink:href="#DejaVuSans-43" x="132.009766"/>
      <use xlink:href="#DejaVuSans-65" x="201.833984"/>
      <use xlink:href="#DejaVuSans-64" x="263.357422"/>
     </g>
    </g>
   </g>
  </g>
 </g>
 <defs>
  <clipPath id="p0f17421453">
   <rect x="59.52" y="25.44" width="138.799362" height="103.68"/>
  </clipPath>
 </defs>
</svg>
