<?xml version="1.0" encoding="utf-8" standalone="no"?>
<!DOCTYPE svg PUBLIC "-//W3C//DTD SVG 1.1//EN"
  "http://www.w3.org/Graphics/SVG/1.1/DTD/svg11.dtd">
<svg xmlns:xlink="http://www.w3.org/1999/xlink" width="216pt" height="180pt" viewBox="0 0 216 180" xmlns="http://www.w3.org/2000/svg" version="1.1">
 <metadata>
  <rdf:RDF xmlns:dc="http://purl.org/dc/elements/1.1/" xmlns:cc="http://creativecommons.org/ns#" xmlns:rdf="http://www.w3.org/1999/02/22-rdf-syntax-ns#">
   <cc:Work>
    <dc:type rdf:resource="http://purl.org/dc/dcmitype/StillImage"/>
    <dc:date>2024-08-26T21:09:02.774820</dc:date>
    <dc:format>image/svg+xml</dc:format>
    <dc:creator>
     <cc:Agent>
      <dc:title>Matplotlib v3.9.1, https://matplotlib.org/</dc:title>
     </cc:Agent>
    </dc:creator>
   </cc:Work>
  </rdf:RDF>
 </metadata>
 <defs>
  <style type="text/css">*{stroke-linejoin: round; stroke-linecap: butt}</style>
 </defs>
 <g id="figure_1">
  <g id="patch_1">
   <path d="M 0 180 
L 216 180 
L 216 0 
L 0 0 
z
" style="fill: #ffffff"/>
  </g>
  <g id="axes_1">
   <g id="patch_2">
    <path d="M 53.03 138.04 
L 191.427985 138.04 
L 191.427985 25.44 
L 53.03 25.44 
z
" style="fill: #ffffff"/>
   </g>
   <g id="matplotlib.axis_1">
    <g id="xtick_1">
     <g id="line2d_1">
      <defs>
       <path id="md6db8d9f69" d="M 0 0 
L 0 3.5 
" style="stroke: #000000; stroke-width: 0.8"/>
      </defs>
      <g>
       <use xlink:href="#md6db8d9f69" x="53.270992" y="138.04" style="stroke: #000000; stroke-width: 0.8"/>
      </g>
     </g>
     <g id="text_1">
      <!-- 1.30 -->
      <g transform="translate(42.138179 152.638438) scale(0.1 -0.1)">
       <defs>
        <path id="DejaVuSans-31" d="M 794 531 
L 1825 531 
L 1825 4091 
L 703 3866 
L 703 4441 
L 1819 4666 
L 2450 4666 
L 2450 531 
L 3481 531 
L 3481 0 
L 794 0 
L 794 531 
z
" transform="scale(0.015625)"/>
        <path id="DejaVuSans-2e" d="M 684 794 
L 1344 794 
L 1344 0 
L 684 0 
L 684 794 
z
" transform="scale(0.015625)"/>
        <path id="DejaVuSans-33" d="M 2597 2516 
Q 3050 2419 3304 2112 
Q 3559 1806 3559 1356 
Q 3559 666 3084 287 
Q 2609 -91 1734 -91 
Q 1441 -91 1130 -33 
Q 819 25 488 141 
L 488 750 
Q 750 597 1062 519 
Q 1375 441 1716 441 
Q 2309 441 2620 675 
Q 2931 909 2931 1356 
Q 2931 1769 2642 2001 
Q 2353 2234 1838 2234 
L 1294 2234 
L 1294 2753 
L 1863 2753 
Q 2328 2753 2575 2939 
Q 2822 3125 2822 3475 
Q 2822 3834 2567 4026 
Q 2313 4219 1838 4219 
Q 1578 4219 1281 4162 
Q 984 4106 628 3988 
L 628 4550 
Q 988 4650 1302 4700 
Q 1616 4750 1894 4750 
Q 2613 4750 3031 4423 
Q 3450 4097 3450 3541 
Q 3450 3153 3228 2886 
Q 3006 2619 2597 2516 
z
" transform="scale(0.015625)"/>
        <path id="DejaVuSans-30" d="M 2034 4250 
Q 1547 4250 1301 3770 
Q 1056 3291 1056 2328 
Q 1056 1369 1301 889 
Q 1547 409 2034 409 
Q 2525 409 2770 889 
Q 3016 1369 3016 2328 
Q 3016 3291 2770 3770 
Q 2525 4250 2034 4250 
z
M 2034 4750 
Q 2819 4750 3233 4129 
Q 3647 3509 3647 2328 
Q 3647 1150 3233 529 
Q 2819 -91 2034 -91 
Q 1250 -91 836 529 
Q 422 1150 422 2328 
Q 422 3509 836 4129 
Q 1250 4750 2034 4750 
z
" transform="scale(0.015625)"/>
       </defs>
       <use xlink:href="#DejaVuSans-31"/>
       <use xlink:href="#DejaVuSans-2e" x="63.623047"/>
       <use xlink:href="#DejaVuSans-33" x="95.410156"/>
       <use xlink:href="#DejaVuSans-30" x="159.033203"/>
      </g>
     </g>
    </g>
    <g id="xtick_2">
     <g id="line2d_2">
      <g>
       <use xlink:href="#md6db8d9f69" x="122.108497" y="138.04" style="stroke: #000000; stroke-width: 0.8"/>
      </g>
     </g>
     <g id="text_2">
      <!-- 1.35 -->
      <g transform="translate(110.975684 152.638438) scale(0.1 -0.1)">
       <defs>
        <path id="DejaVuSans-35" d="M 691 4666 
L 3169 4666 
L 3169 4134 
L 1269 4134 
L 1269 2991 
Q 1406 3038 1543 3061 
Q 1681 3084 1819 3084 
Q 2600 3084 3056 2656 
Q 3513 2228 3513 1497 
Q 3513 744 3044 326 
Q 2575 -91 1722 -91 
Q 1428 -91 1123 -41 
Q 819 9 494 109 
L 494 744 
Q 775 591 1075 516 
Q 1375 441 1709 441 
Q 2250 441 2565 725 
Q 2881 1009 2881 1497 
Q 2881 1984 2565 2268 
Q 2250 2553 1709 2553 
Q 1456 2553 1204 2497 
Q 953 2441 691 2322 
L 691 4666 
z
" transform="scale(0.015625)"/>
       </defs>
       <use xlink:href="#DejaVuSans-31"/>
       <use xlink:href="#DejaVuSans-2e" x="63.623047"/>
       <use xlink:href="#DejaVuSans-33" x="95.410156"/>
       <use xlink:href="#DejaVuSans-35" x="159.033203"/>
      </g>
     </g>
    </g>
    <g id="xtick_3">
     <g id="line2d_3">
      <g>
       <use xlink:href="#md6db8d9f69" x="190.946002" y="138.04" style="stroke: #000000; stroke-width: 0.8"/>
      </g>
     </g>
     <g id="text_3">
      <!-- 1.40 -->
      <g transform="translate(179.81319 152.638438) scale(0.1 -0.1)">
       <defs>
        <path id="DejaVuSans-34" d="M 2419 4116 
L 825 1625 
L 2419 1625 
L 2419 4116 
z
M 2253 4666 
L 3047 4666 
L 3047 1625 
L 3713 1625 
L 3713 1100 
L 3047 1100 
L 3047 0 
L 2419 0 
L 2419 1100 
L 313 1100 
L 313 1709 
L 2253 4666 
z
" transform="scale(0.015625)"/>
       </defs>
       <use xlink:href="#DejaVuSans-31"/>
       <use xlink:href="#DejaVuSans-2e" x="63.623047"/>
       <use xlink:href="#DejaVuSans-34" x="95.410156"/>
       <use xlink:href="#DejaVuSans-30" x="159.033203"/>
      </g>
     </g>
    </g>
    <g id="text_4">
     <!-- Time (s) -->
     <g transform="translate(101.900086 166.316563) scale(0.1 -0.1)">
      <defs>
       <path id="DejaVuSans-54" d="M -19 4666 
L 3928 4666 
L 3928 4134 
L 2272 4134 
L 2272 0 
L 1638 0 
L 1638 4134 
L -19 4134 
L -19 4666 
z
" transform="scale(0.015625)"/>
       <path id="DejaVuSans-69" d="M 603 3500 
L 1178 3500 
L 1178 0 
L 603 0 
L 603 3500 
z
M 603 4863 
L 1178 4863 
L 1178 4134 
L 603 4134 
L 603 4863 
z
" transform="scale(0.015625)"/>
       <path id="DejaVuSans-6d" d="M 3328 2828 
Q 3544 3216 3844 3400 
Q 4144 3584 4550 3584 
Q 5097 3584 5394 3201 
Q 5691 2819 5691 2113 
L 5691 0 
L 5113 0 
L 5113 2094 
Q 5113 2597 4934 2840 
Q 4756 3084 4391 3084 
Q 3944 3084 3684 2787 
Q 3425 2491 3425 1978 
L 3425 0 
L 2847 0 
L 2847 2094 
Q 2847 2600 2669 2842 
Q 2491 3084 2119 3084 
Q 1678 3084 1418 2786 
Q 1159 2488 1159 1978 
L 1159 0 
L 581 0 
L 581 3500 
L 1159 3500 
L 1159 2956 
Q 1356 3278 1631 3431 
Q 1906 3584 2284 3584 
Q 2666 3584 2933 3390 
Q 3200 3197 3328 2828 
z
" transform="scale(0.015625)"/>
       <path id="DejaVuSans-65" d="M 3597 1894 
L 3597 1613 
L 953 1613 
Q 991 1019 1311 708 
Q 1631 397 2203 397 
Q 2534 397 2845 478 
Q 3156 559 3463 722 
L 3463 178 
Q 3153 47 2828 -22 
Q 2503 -91 2169 -91 
Q 1331 -91 842 396 
Q 353 884 353 1716 
Q 353 2575 817 3079 
Q 1281 3584 2069 3584 
Q 2775 3584 3186 3129 
Q 3597 2675 3597 1894 
z
M 3022 2063 
Q 3016 2534 2758 2815 
Q 2500 3097 2075 3097 
Q 1594 3097 1305 2825 
Q 1016 2553 972 2059 
L 3022 2063 
z
" transform="scale(0.015625)"/>
       <path id="DejaVuSans-20" transform="scale(0.015625)"/>
       <path id="DejaVuSans-28" d="M 1984 4856 
Q 1566 4138 1362 3434 
Q 1159 2731 1159 2009 
Q 1159 1288 1364 580 
Q 1569 -128 1984 -844 
L 1484 -844 
Q 1016 -109 783 600 
Q 550 1309 550 2009 
Q 550 2706 781 3412 
Q 1013 4119 1484 4856 
L 1984 4856 
z
" transform="scale(0.015625)"/>
       <path id="DejaVuSans-73" d="M 2834 3397 
L 2834 2853 
Q 2591 2978 2328 3040 
Q 2066 3103 1784 3103 
Q 1356 3103 1142 2972 
Q 928 2841 928 2578 
Q 928 2378 1081 2264 
Q 1234 2150 1697 2047 
L 1894 2003 
Q 2506 1872 2764 1633 
Q 3022 1394 3022 966 
Q 3022 478 2636 193 
Q 2250 -91 1575 -91 
Q 1294 -91 989 -36 
Q 684 19 347 128 
L 347 722 
Q 666 556 975 473 
Q 1284 391 1588 391 
Q 1994 391 2212 530 
Q 2431 669 2431 922 
Q 2431 1156 2273 1281 
Q 2116 1406 1581 1522 
L 1381 1569 
Q 847 1681 609 1914 
Q 372 2147 372 2553 
Q 372 3047 722 3315 
Q 1072 3584 1716 3584 
Q 2034 3584 2315 3537 
Q 2597 3491 2834 3397 
z
" transform="scale(0.015625)"/>
       <path id="DejaVuSans-29" d="M 513 4856 
L 1013 4856 
Q 1481 4119 1714 3412 
Q 1947 2706 1947 2009 
Q 1947 1309 1714 600 
Q 1481 -109 1013 -844 
L 513 -844 
Q 928 -128 1133 580 
Q 1338 1288 1338 2009 
Q 1338 2731 1133 3434 
Q 928 4138 513 4856 
z
" transform="scale(0.015625)"/>
      </defs>
      <use xlink:href="#DejaVuSans-54"/>
      <use xlink:href="#DejaVuSans-69" x="57.958984"/>
      <use xlink:href="#DejaVuSans-6d" x="85.742188"/>
      <use xlink:href="#DejaVuSans-65" x="183.154297"/>
      <use xlink:href="#DejaVuSans-20" x="244.677734"/>
      <use xlink:href="#DejaVuSans-28" x="276.464844"/>
      <use xlink:href="#DejaVuSans-73" x="315.478516"/>
      <use xlink:href="#DejaVuSans-29" x="367.578125"/>
     </g>
    </g>
   </g>
   <g id="matplotlib.axis_2">
    <g id="ytick_1">
     <g id="line2d_4">
      <defs>
       <path id="mc05a3f7443" d="M 0 0 
L -3.5 0 
" style="stroke: #000000; stroke-width: 0.8"/>
      </defs>
      <g>
       <use xlink:href="#mc05a3f7443" x="53.03" y="134.996757" style="stroke: #000000; stroke-width: 0.8"/>
      </g>
     </g>
     <g id="text_5">
      <!-- −10 -->
      <g transform="translate(24.925313 138.795976) scale(0.1 -0.1)">
       <defs>
        <path id="DejaVuSans-2212" d="M 678 2272 
L 4684 2272 
L 4684 1741 
L 678 1741 
L 678 2272 
z
" transform="scale(0.015625)"/>
       </defs>
       <use xlink:href="#DejaVuSans-2212"/>
       <use xlink:href="#DejaVuSans-31" x="83.789062"/>
       <use xlink:href="#DejaVuSans-30" x="147.412109"/>
      </g>
     </g>
    </g>
    <g id="ytick_2">
     <g id="line2d_5">
      <g>
       <use xlink:href="#mc05a3f7443" x="53.03" y="104.564324" style="stroke: #000000; stroke-width: 0.8"/>
      </g>
     </g>
     <g id="text_6">
      <!-- −5 -->
      <g transform="translate(31.287813 108.363543) scale(0.1 -0.1)">
       <use xlink:href="#DejaVuSans-2212"/>
       <use xlink:href="#DejaVuSans-35" x="83.789062"/>
      </g>
     </g>
    </g>
    <g id="ytick_3">
     <g id="line2d_6">
      <g>
       <use xlink:href="#mc05a3f7443" x="53.03" y="74.131892" style="stroke: #000000; stroke-width: 0.8"/>
      </g>
     </g>
     <g id="text_7">
      <!-- 0 -->
      <g transform="translate(39.6675 77.931111) scale(0.1 -0.1)">
       <use xlink:href="#DejaVuSans-30"/>
      </g>
     </g>
    </g>
    <g id="ytick_4">
     <g id="line2d_7">
      <g>
       <use xlink:href="#mc05a3f7443" x="53.03" y="43.699459" style="stroke: #000000; stroke-width: 0.8"/>
      </g>
     </g>
     <g id="text_8">
      <!-- 5 -->
      <g transform="translate(39.6675 47.498678) scale(0.1 -0.1)">
       <use xlink:href="#DejaVuSans-35"/>
      </g>
     </g>
    </g>
    <g id="text_9">
     <!-- Amplitude (mV) -->
     <g transform="translate(18.845625 121.143906) rotate(-90) scale(0.1 -0.1)">
      <defs>
       <path id="DejaVuSans-41" d="M 2188 4044 
L 1331 1722 
L 3047 1722 
L 2188 4044 
z
M 1831 4666 
L 2547 4666 
L 4325 0 
L 3669 0 
L 3244 1197 
L 1141 1197 
L 716 0 
L 50 0 
L 1831 4666 
z
" transform="scale(0.015625)"/>
       <path id="DejaVuSans-70" d="M 1159 525 
L 1159 -1331 
L 581 -1331 
L 581 3500 
L 1159 3500 
L 1159 2969 
Q 1341 3281 1617 3432 
Q 1894 3584 2278 3584 
Q 2916 3584 3314 3078 
Q 3713 2572 3713 1747 
Q 3713 922 3314 415 
Q 2916 -91 2278 -91 
Q 1894 -91 1617 61 
Q 1341 213 1159 525 
z
M 3116 1747 
Q 3116 2381 2855 2742 
Q 2594 3103 2138 3103 
Q 1681 3103 1420 2742 
Q 1159 2381 1159 1747 
Q 1159 1113 1420 752 
Q 1681 391 2138 391 
Q 2594 391 2855 752 
Q 3116 1113 3116 1747 
z
" transform="scale(0.015625)"/>
       <path id="DejaVuSans-6c" d="M 603 4863 
L 1178 4863 
L 1178 0 
L 603 0 
L 603 4863 
z
" transform="scale(0.015625)"/>
       <path id="DejaVuSans-74" d="M 1172 4494 
L 1172 3500 
L 2356 3500 
L 2356 3053 
L 1172 3053 
L 1172 1153 
Q 1172 725 1289 603 
Q 1406 481 1766 481 
L 2356 481 
L 2356 0 
L 1766 0 
Q 1100 0 847 248 
Q 594 497 594 1153 
L 594 3053 
L 172 3053 
L 172 3500 
L 594 3500 
L 594 4494 
L 1172 4494 
z
" transform="scale(0.015625)"/>
       <path id="DejaVuSans-75" d="M 544 1381 
L 544 3500 
L 1119 3500 
L 1119 1403 
Q 1119 906 1312 657 
Q 1506 409 1894 409 
Q 2359 409 2629 706 
Q 2900 1003 2900 1516 
L 2900 3500 
L 3475 3500 
L 3475 0 
L 2900 0 
L 2900 538 
Q 2691 219 2414 64 
Q 2138 -91 1772 -91 
Q 1169 -91 856 284 
Q 544 659 544 1381 
z
M 1991 3584 
L 1991 3584 
z
" transform="scale(0.015625)"/>
       <path id="DejaVuSans-64" d="M 2906 2969 
L 2906 4863 
L 3481 4863 
L 3481 0 
L 2906 0 
L 2906 525 
Q 2725 213 2448 61 
Q 2172 -91 1784 -91 
Q 1150 -91 751 415 
Q 353 922 353 1747 
Q 353 2572 751 3078 
Q 1150 3584 1784 3584 
Q 2172 3584 2448 3432 
Q 2725 3281 2906 2969 
z
M 947 1747 
Q 947 1113 1208 752 
Q 1469 391 1925 391 
Q 2381 391 2643 752 
Q 2906 1113 2906 1747 
Q 2906 2381 2643 2742 
Q 2381 3103 1925 3103 
Q 1469 3103 1208 2742 
Q 947 2381 947 1747 
z
" transform="scale(0.015625)"/>
       <path id="DejaVuSans-56" d="M 1831 0 
L 50 4666 
L 709 4666 
L 2188 738 
L 3669 4666 
L 4325 4666 
L 2547 0 
L 1831 0 
z
" transform="scale(0.015625)"/>
      </defs>
      <use xlink:href="#DejaVuSans-41"/>
      <use xlink:href="#DejaVuSans-6d" x="68.408203"/>
      <use xlink:href="#DejaVuSans-70" x="165.820312"/>
      <use xlink:href="#DejaVuSans-6c" x="229.296875"/>
      <use xlink:href="#DejaVuSans-69" x="257.080078"/>
      <use xlink:href="#DejaVuSans-74" x="284.863281"/>
      <use xlink:href="#DejaVuSans-75" x="324.072266"/>
      <use xlink:href="#DejaVuSans-64" x="387.451172"/>
      <use xlink:href="#DejaVuSans-65" x="450.927734"/>
      <use xlink:href="#DejaVuSans-20" x="512.451172"/>
      <use xlink:href="#DejaVuSans-28" x="544.238281"/>
      <use xlink:href="#DejaVuSans-6d" x="583.251953"/>
      <use xlink:href="#DejaVuSans-56" x="680.664062"/>
      <use xlink:href="#DejaVuSans-29" x="749.072266"/>
     </g>
    </g>
   </g>
   <g id="line2d_8">
    <path d="M 53.718547 73.229475 
L 54.407094 73.483999 
L 55.095642 73.880201 
L 55.784189 74.680335 
L 56.472736 75.219067 
L 57.161283 75.583891 
L 59.226925 77.303025 
L 59.915472 77.516998 
L 61.292566 76.686008 
L 63.358208 76.203044 
L 64.046755 76.057248 
L 64.735302 75.256721 
L 66.112397 74.295563 
L 66.800944 73.50975 
L 67.489491 72.498234 
L 68.866585 70.965357 
L 70.24368 69.159287 
L 70.932227 68.626777 
L 71.620774 67.823222 
L 73.686416 65.895066 
L 74.374963 65.108595 
L 75.06351 64.65043 
L 77.129152 64.1556 
L 77.817699 63.879455 
L 78.506246 63.764839 
L 79.194793 63.949821 
L 81.260435 63.691134 
L 81.948982 63.989053 
L 83.326076 65.078352 
L 84.014624 65.412673 
L 84.703171 65.550263 
L 85.391718 66.299472 
L 86.768812 68.937514 
L 90.211548 77.552274 
L 92.27719 80.641469 
L 92.965737 81.39059 
L 94.342831 82.690284 
L 95.719926 83.271479 
L 97.785567 84.775127 
L 98.474115 85.417694 
L 99.162662 85.674831 
L 99.851209 85.432228 
L 100.539756 85.003801 
L 102.605398 85.080668 
L 103.293945 84.632469 
L 103.982492 83.651464 
L 104.671039 83.149847 
L 105.359586 82.82868 
L 106.048134 82.688408 
L 107.425228 81.777841 
L 108.113775 80.966088 
L 109.49087 79.093364 
L 111.556511 77.053052 
L 114.3107 74.033882 
L 117.064889 71.179226 
L 117.753436 70.815493 
L 118.441983 70.033556 
L 119.13053 69.511643 
L 120.507625 68.854918 
L 121.884719 67.94967 
L 123.261813 67.252339 
L 123.950361 66.75267 
L 124.638908 66.504093 
L 125.327455 66.122867 
L 126.704549 66.152742 
L 127.393096 66.514256 
L 128.770191 67.863189 
L 129.458738 68.400731 
L 130.835832 69.944044 
L 131.52438 70.457864 
L 133.590021 71.04811 
L 134.967116 72.389516 
L 136.34421 74.248938 
L 137.721304 76.756489 
L 138.409851 77.890645 
L 139.098399 78.799209 
L 139.786946 79.223801 
L 140.475493 79.459682 
L 141.16404 80.033638 
L 141.852587 80.187171 
L 143.229682 80.048764 
L 144.606776 79.767472 
L 146.672418 77.642403 
L 149.426607 73.449227 
L 150.803701 72.202299 
L 151.492248 71.49336 
L 153.55789 68.936541 
L 154.246437 68.45469 
L 155.623531 68.319235 
L 156.312078 68.104319 
L 157.689173 66.830722 
L 158.37772 66.637034 
L 160.443362 66.577024 
L 161.131909 66.310372 
L 164.574645 67.350042 
L 165.263192 67.073109 
L 165.951739 67.115723 
L 167.328833 67.596793 
L 169.394475 70.515248 
L 170.771569 72.316436 
L 171.460117 73.184866 
L 172.148664 74.414737 
L 175.5914 78.696693 
L 176.968494 80.923789 
L 178.345588 82.921914 
L 179.034136 83.700329 
L 179.722683 83.980097 
L 180.41123 84.490649 
L 181.788324 86.374799 
L 182.476872 86.864418 
L 183.165419 87.103575 
L 183.853966 87.213004 
L 184.542513 87.004413 
L 185.23106 87.294316 
L 185.919608 87.090455 
L 186.608155 86.5372 
L 187.296702 85.67676 
L 189.362344 83.788582 
L 190.739438 82.314485 
L 190.739438 82.314485 
" clip-path="url(#pf831e6ab64)" style="fill: none; stroke: #1e90ff; stroke-linecap: square"/>
   </g>
   <g id="line2d_9">
    <path d="M 53.718547 73.24798 
L 56.472736 75.251251 
L 58.538378 77.015076 
L 59.226925 77.418634 
L 59.915472 77.297801 
L 61.292566 76.688249 
L 64.735302 75.619099 
L 65.423849 75.11271 
L 66.800944 73.671824 
L 71.620774 67.697716 
L 74.374963 65.000652 
L 75.06351 64.525712 
L 75.752057 64.24322 
L 77.817699 63.951934 
L 79.194793 63.635589 
L 79.88334 63.581851 
L 80.571888 63.67698 
L 81.260435 63.895098 
L 84.703171 65.948465 
L 85.391718 66.585281 
L 86.080265 67.548901 
L 86.768812 68.786515 
L 90.900095 78.162843 
L 92.27719 80.638553 
L 92.965737 81.542257 
L 93.654284 82.247981 
L 95.031379 83.197737 
L 96.408473 83.866498 
L 97.785567 84.674844 
L 99.162662 85.166948 
L 99.851209 85.235516 
L 100.539756 85.178174 
L 103.293945 84.378963 
L 104.671039 83.161191 
L 106.736681 82.312097 
L 107.425228 81.686095 
L 108.113775 80.854116 
L 108.802322 79.811683 
L 110.867964 77.629464 
L 112.933605 75.585064 
L 113.622153 74.850532 
L 114.3107 73.912204 
L 116.376341 71.864405 
L 119.13053 69.356056 
L 123.261813 66.792974 
L 123.950361 66.473324 
L 124.638908 66.377449 
L 126.704549 66.512435 
L 127.393096 66.786373 
L 128.770191 67.832291 
L 130.147285 69.103706 
L 130.835832 69.98959 
L 131.52438 70.556153 
L 132.212927 70.95185 
L 132.901474 71.188157 
L 133.590021 71.57001 
L 134.278568 72.113169 
L 136.34421 74.470945 
L 137.721304 76.623888 
L 138.409851 77.73828 
L 139.098399 78.557891 
L 140.475493 79.481895 
L 141.16404 79.856665 
L 142.541135 79.896197 
L 143.229682 79.937612 
L 143.918229 79.822814 
L 144.606776 79.442837 
L 145.295323 78.899495 
L 147.360965 76.83386 
L 150.115154 73.347136 
L 151.492248 71.615166 
L 152.180795 70.599364 
L 153.55789 69.051424 
L 154.246437 68.550422 
L 155.623531 68.228956 
L 156.312078 67.912499 
L 157.689173 66.804855 
L 161.131909 66.01208 
L 161.820456 66.065218 
L 162.509003 66.313548 
L 163.19755 66.763312 
L 165.263192 67.138614 
L 165.951739 67.087637 
L 166.640286 67.177944 
L 167.328833 67.587208 
L 168.017381 68.433157 
L 170.083022 71.694429 
L 174.214305 76.889154 
L 176.279947 80.047149 
L 177.657041 82.276764 
L 178.345588 83.135875 
L 179.034136 83.810007 
L 181.099777 85.278575 
L 182.476872 86.533219 
L 183.165419 86.969622 
L 184.542513 87.138669 
L 185.919608 87.002963 
L 188.673796 84.615845 
L 190.050891 83.340097 
L 190.739438 82.615258 
L 190.739438 82.615258 
" clip-path="url(#pf831e6ab64)" style="fill: none; stroke: #ff0000; stroke-width: 0.8; stroke-linecap: square"/>
   </g>
   <g id="line2d_10">
    <path d="M 53.718547 94.259379 
L 55.095642 146.610846 
L 56.193659 181 
M 58.775212 181 
L 59.226925 113.255695 
L 59.915472 40.131826 
L 60.604019 9.276106 
L 61.292566 11.937091 
L 61.981113 20.603819 
L 62.669661 34.609378 
L 63.358208 53.238671 
L 64.735302 98.707886 
L 65.423849 123.256846 
L 66.112397 138.08248 
L 66.800944 156.713281 
L 67.489491 172.115395 
L 68.011267 181 
M 69.641594 181 
L 70.24368 100.690838 
L 70.932227 35.838881 
L 71.620774 8.393338 
L 72.309321 10.434453 
L 72.997868 17.507962 
L 73.686416 29.341009 
L 74.374963 44.968163 
L 75.752057 85.080978 
L 77.129152 127.94252 
L 77.817699 162.547108 
L 78.474336 181 
M 80.751037 181 
L 81.260435 101.083105 
L 81.948982 25.107232 
L 82.527727 -1 
M 83.417062 -1 
L 84.014624 7.29278 
L 84.703171 22.202305 
L 85.391718 42.41576 
L 86.768812 93.327505 
L 88.974733 181 
M 91.960127 181 
L 92.27719 123.960477 
L 92.965737 36.345576 
L 93.654284 0.325887 
L 94.342831 4.674969 
L 95.031379 15.650925 
L 95.719926 33.052392 
L 96.408473 56.063253 
L 97.785567 113.031199 
L 99.363052 181 
M 102.960891 181 
L 103.293945 124.772537 
L 103.982492 41.912053 
L 104.671039 7.494848 
L 105.359586 10.538474 
L 106.048134 20.297033 
L 106.736681 35.736049 
L 107.425228 56.138813 
L 108.802322 106.14439 
L 110.794242 181 
M 113.821072 181 
L 114.3107 108.898272 
L 114.999247 37.04299 
L 115.687794 6.973873 
L 116.376341 9.080636 
L 117.064889 16.988058 
L 117.753436 30.397721 
L 118.441983 47.764309 
L 119.819077 91.981028 
L 121.884719 159.947701 
L 122.737893 181 
M 124.857303 181 
L 125.327455 104.717316 
L 126.016002 25.978853 
L 126.586385 -1 
M 127.527082 -1 
L 128.081644 7.246378 
L 128.770191 23.121218 
L 129.458738 43.748948 
L 130.835832 95.118383 
L 132.212927 148.700245 
L 133.184583 181 
M 135.900107 181 
L 136.34421 104.362903 
L 137.032757 44.257318 
L 137.721304 19.998439 
L 138.409851 23.656939 
L 139.098399 31.991825 
L 139.786946 44.313132 
L 140.475493 60.224717 
L 141.852587 99.829869 
L 143.918229 159.344693 
L 144.982253 181 
M 146.77917 181 
L 147.360965 106.725821 
L 148.049512 36.302788 
L 148.738059 3.28463 
L 149.426607 5.426199 
L 150.115154 14.160733 
L 150.803701 28.415328 
L 151.492248 47.367762 
L 152.869342 94.489834 
L 154.934984 168.066329 
L 155.38978 181 
M 157.894571 181 
L 158.37772 104.407698 
L 159.066267 27.363469 
L 159.754814 15.175596 
L 160.443362 17.323217 
L 161.131909 23.800984 
L 161.820456 34.826125 
L 162.509003 49.286751 
L 163.886097 84.948146 
L 165.263192 122.398529 
L 166.640286 153.709668 
L 167.328833 164.803803 
L 168.017381 172.578389 
L 168.705928 175.929308 
L 169.394475 97.864057 
L 170.083022 43.045491 
L 170.771569 20.770081 
L 171.460117 16.550166 
L 172.148664 25.535131 
L 172.837211 38.812474 
L 173.525758 55.981852 
L 174.902853 98.271735 
L 176.968494 163.904605 
L 177.645627 181 
M 179.914614 181 
L 180.41123 115.937798 
L 181.099777 52.804797 
L 181.788324 27.103997 
L 182.476872 30.229715 
L 184.542513 68.780709 
L 186.608155 124.988697 
L 187.985249 160.330737 
L 189.090667 181 
L 189.090667 181 
" clip-path="url(#pf831e6ab64)" style="fill: none; stroke: #808080; stroke-width: 0.2; stroke-linecap: square"/>
   </g>
   <g id="patch_3">
    <path d="M 53.03 138.04 
L 53.03 25.44 
" style="fill: none; stroke: #000000; stroke-width: 0.8; stroke-linejoin: miter; stroke-linecap: square"/>
   </g>
   <g id="patch_4">
    <path d="M 191.427985 138.04 
L 191.427985 25.44 
" style="fill: none; stroke: #000000; stroke-width: 0.8; stroke-linejoin: miter; stroke-linecap: square"/>
   </g>
   <g id="patch_5">
    <path d="M 53.03 138.04 
L 191.427985 138.04 
" style="fill: none; stroke: #000000; stroke-width: 0.8; stroke-linejoin: miter; stroke-linecap: square"/>
   </g>
   <g id="patch_6">
    <path d="M 53.03 25.44 
L 191.427985 25.44 
" style="fill: none; stroke: #000000; stroke-width: 0.8; stroke-linejoin: miter; stroke-linecap: square"/>
   </g>
   <g id="text_10">
    <!-- Zoom-in Time Domain Plot -->
    <g transform="translate(42.307118 19.44) scale(0.12 -0.12)">
     <defs>
      <path id="DejaVuSans-5a" d="M 359 4666 
L 4025 4666 
L 4025 4184 
L 1075 531 
L 4097 531 
L 4097 0 
L 288 0 
L 288 481 
L 3238 4134 
L 359 4134 
L 359 4666 
z
" transform="scale(0.015625)"/>
      <path id="DejaVuSans-6f" d="M 1959 3097 
Q 1497 3097 1228 2736 
Q 959 2375 959 1747 
Q 959 1119 1226 758 
Q 1494 397 1959 397 
Q 2419 397 2687 759 
Q 2956 1122 2956 1747 
Q 2956 2369 2687 2733 
Q 2419 3097 1959 3097 
z
M 1959 3584 
Q 2709 3584 3137 3096 
Q 3566 2609 3566 1747 
Q 3566 888 3137 398 
Q 2709 -91 1959 -91 
Q 1206 -91 779 398 
Q 353 888 353 1747 
Q 353 2609 779 3096 
Q 1206 3584 1959 3584 
z
" transform="scale(0.015625)"/>
      <path id="DejaVuSans-2d" d="M 313 2009 
L 1997 2009 
L 1997 1497 
L 313 1497 
L 313 2009 
z
" transform="scale(0.015625)"/>
      <path id="DejaVuSans-6e" d="M 3513 2113 
L 3513 0 
L 2938 0 
L 2938 2094 
Q 2938 2591 2744 2837 
Q 2550 3084 2163 3084 
Q 1697 3084 1428 2787 
Q 1159 2491 1159 1978 
L 1159 0 
L 581 0 
L 581 3500 
L 1159 3500 
L 1159 2956 
Q 1366 3272 1645 3428 
Q 1925 3584 2291 3584 
Q 2894 3584 3203 3211 
Q 3513 2838 3513 2113 
z
" transform="scale(0.015625)"/>
      <path id="DejaVuSans-44" d="M 1259 4147 
L 1259 519 
L 2022 519 
Q 2988 519 3436 956 
Q 3884 1394 3884 2338 
Q 3884 3275 3436 3711 
Q 2988 4147 2022 4147 
L 1259 4147 
z
M 628 4666 
L 1925 4666 
Q 3281 4666 3915 4102 
Q 4550 3538 4550 2338 
Q 4550 1131 3912 565 
Q 3275 0 1925 0 
L 628 0 
L 628 4666 
z
" transform="scale(0.015625)"/>
      <path id="DejaVuSans-61" d="M 2194 1759 
Q 1497 1759 1228 1600 
Q 959 1441 959 1056 
Q 959 750 1161 570 
Q 1363 391 1709 391 
Q 2188 391 2477 730 
Q 2766 1069 2766 1631 
L 2766 1759 
L 2194 1759 
z
M 3341 1997 
L 3341 0 
L 2766 0 
L 2766 531 
Q 2569 213 2275 61 
Q 1981 -91 1556 -91 
Q 1019 -91 701 211 
Q 384 513 384 1019 
Q 384 1609 779 1909 
Q 1175 2209 1959 2209 
L 2766 2209 
L 2766 2266 
Q 2766 2663 2505 2880 
Q 2244 3097 1772 3097 
Q 1472 3097 1187 3025 
Q 903 2953 641 2809 
L 641 3341 
Q 956 3463 1253 3523 
Q 1550 3584 1831 3584 
Q 2591 3584 2966 3190 
Q 3341 2797 3341 1997 
z
" transform="scale(0.015625)"/>
      <path id="DejaVuSans-50" d="M 1259 4147 
L 1259 2394 
L 2053 2394 
Q 2494 2394 2734 2622 
Q 2975 2850 2975 3272 
Q 2975 3691 2734 3919 
Q 2494 4147 2053 4147 
L 1259 4147 
z
M 628 4666 
L 2053 4666 
Q 2838 4666 3239 4311 
Q 3641 3956 3641 3272 
Q 3641 2581 3239 2228 
Q 2838 1875 2053 1875 
L 1259 1875 
L 1259 0 
L 628 0 
L 628 4666 
z
" transform="scale(0.015625)"/>
     </defs>
     <use xlink:href="#DejaVuSans-5a"/>
     <use xlink:href="#DejaVuSans-6f" x="68.505859"/>
     <use xlink:href="#DejaVuSans-6f" x="129.6875"/>
     <use xlink:href="#DejaVuSans-6d" x="190.869141"/>
     <use xlink:href="#DejaVuSans-2d" x="288.28125"/>
     <use xlink:href="#DejaVuSans-69" x="324.365234"/>
     <use xlink:href="#DejaVuSans-6e" x="352.148438"/>
     <use xlink:href="#DejaVuSans-20" x="415.527344"/>
     <use xlink:href="#DejaVuSans-54" x="447.314453"/>
     <use xlink:href="#DejaVuSans-69" x="505.273438"/>
     <use xlink:href="#DejaVuSans-6d" x="533.056641"/>
     <use xlink:href="#DejaVuSans-65" x="630.46875"/>
     <use xlink:href="#DejaVuSans-20" x="691.992188"/>
     <use xlink:href="#DejaVuSans-44" x="723.779297"/>
     <use xlink:href="#DejaVuSans-6f" x="800.78125"/>
     <use xlink:href="#DejaVuSans-6d" x="861.962891"/>
     <use xlink:href="#DejaVuSans-61" x="959.375"/>
     <use xlink:href="#DejaVuSans-69" x="1020.654297"/>
     <use xlink:href="#DejaVuSans-6e" x="1048.4375"/>
     <use xlink:href="#DejaVuSans-20" x="1111.816406"/>
     <use xlink:href="#DejaVuSans-50" x="1143.603516"/>
     <use xlink:href="#DejaVuSans-6c" x="1203.90625"/>
     <use xlink:href="#DejaVuSans-6f" x="1231.689453"/>
     <use xlink:href="#DejaVuSans-74" x="1292.871094"/>
    </g>
   </g>
  </g>
 </g>
 <defs>
  <clipPath id="pf831e6ab64">
   <rect x="53.03" y="25.44" width="138.397985" height="112.6"/>
  </clipPath>
 </defs>
</svg>
