<?xml version="1.0" encoding="utf-8" standalone="no"?>
<!DOCTYPE svg PUBLIC "-//W3C//DTD SVG 1.1//EN"
  "http://www.w3.org/Graphics/SVG/1.1/DTD/svg11.dtd">
<svg xmlns:xlink="http://www.w3.org/1999/xlink" width="216pt" height="180pt" viewBox="0 0 216 180" xmlns="http://www.w3.org/2000/svg" version="1.1">
 <metadata>
  <rdf:RDF xmlns:dc="http://purl.org/dc/elements/1.1/" xmlns:cc="http://creativecommons.org/ns#" xmlns:rdf="http://www.w3.org/1999/02/22-rdf-syntax-ns#">
   <cc:Work>
    <dc:type rdf:resource="http://purl.org/dc/dcmitype/StillImage"/>
    <dc:date>2024-08-26T02:53:42.526609</dc:date>
    <dc:format>image/svg+xml</dc:format>
    <dc:creator>
     <cc:Agent>
      <dc:title>Matplotlib v3.9.1, https://matplotlib.org/</dc:title>
     </cc:Agent>
    </dc:creator>
   </cc:Work>
  </rdf:RDF>
 </metadata>
 <defs>
  <style type="text/css">*{stroke-linejoin: round; stroke-linecap: butt}</style>
 </defs>
 <g id="figure_1">
  <g id="patch_1">
   <path d="M 0 180 
L 216 180 
L 216 0 
L 0 0 
z
" style="fill: #ffffff"/>
  </g>
  <g id="axes_1">
   <g id="patch_2">
    <path d="M 59.52 129.12 
L 198.454362 129.12 
L 198.454362 26.88 
L 59.52 26.88 
z
" style="fill: #ffffff"/>
   </g>
   <g id="matplotlib.axis_1">
    <g id="xtick_1">
     <g id="line2d_1">
      <defs>
       <path id="mbdfd652cf1" d="M 0 0 
L 0 3.5 
" style="stroke: #000000; stroke-width: 0.8"/>
      </defs>
      <g>
       <use xlink:href="#mbdfd652cf1" x="61.540047" y="129.12" style="stroke: #000000; stroke-width: 0.8"/>
      </g>
     </g>
     <g id="text_1">
      <!-- 0 -->
      <g transform="translate(58.358797 143.718437) scale(0.1 -0.1)">
       <defs>
        <path id="DejaVuSans-30" d="M 2034 4250 
Q 1547 4250 1301 3770 
Q 1056 3291 1056 2328 
Q 1056 1369 1301 889 
Q 1547 409 2034 409 
Q 2525 409 2770 889 
Q 3016 1369 3016 2328 
Q 3016 3291 2770 3770 
Q 2525 4250 2034 4250 
z
M 2034 4750 
Q 2819 4750 3233 4129 
Q 3647 3509 3647 2328 
Q 3647 1150 3233 529 
Q 2819 -91 2034 -91 
Q 1250 -91 836 529 
Q 422 1150 422 2328 
Q 422 3509 836 4129 
Q 1250 4750 2034 4750 
z
" transform="scale(0.015625)"/>
       </defs>
       <use xlink:href="#DejaVuSans-30"/>
      </g>
     </g>
    </g>
    <g id="xtick_2">
     <g id="line2d_2">
      <g>
       <use xlink:href="#mbdfd652cf1" x="128.874956" y="129.12" style="stroke: #000000; stroke-width: 0.8"/>
      </g>
     </g>
     <g id="text_2">
      <!-- 150 -->
      <g transform="translate(119.331206 143.718437) scale(0.1 -0.1)">
       <defs>
        <path id="DejaVuSans-31" d="M 794 531 
L 1825 531 
L 1825 4091 
L 703 3866 
L 703 4441 
L 1819 4666 
L 2450 4666 
L 2450 531 
L 3481 531 
L 3481 0 
L 794 0 
L 794 531 
z
" transform="scale(0.015625)"/>
        <path id="DejaVuSans-35" d="M 691 4666 
L 3169 4666 
L 3169 4134 
L 1269 4134 
L 1269 2991 
Q 1406 3038 1543 3061 
Q 1681 3084 1819 3084 
Q 2600 3084 3056 2656 
Q 3513 2228 3513 1497 
Q 3513 744 3044 326 
Q 2575 -91 1722 -91 
Q 1428 -91 1123 -41 
Q 819 9 494 109 
L 494 744 
Q 775 591 1075 516 
Q 1375 441 1709 441 
Q 2250 441 2565 725 
Q 2881 1009 2881 1497 
Q 2881 1984 2565 2268 
Q 2250 2553 1709 2553 
Q 1456 2553 1204 2497 
Q 953 2441 691 2322 
L 691 4666 
z
" transform="scale(0.015625)"/>
       </defs>
       <use xlink:href="#DejaVuSans-31"/>
       <use xlink:href="#DejaVuSans-35" x="63.623047"/>
       <use xlink:href="#DejaVuSans-30" x="127.246094"/>
      </g>
     </g>
    </g>
    <g id="xtick_3">
     <g id="line2d_3">
      <g>
       <use xlink:href="#mbdfd652cf1" x="196.209865" y="129.12" style="stroke: #000000; stroke-width: 0.8"/>
      </g>
     </g>
     <g id="text_3">
      <!-- 300 -->
      <g transform="translate(186.666115 143.718437) scale(0.1 -0.1)">
       <defs>
        <path id="DejaVuSans-33" d="M 2597 2516 
Q 3050 2419 3304 2112 
Q 3559 1806 3559 1356 
Q 3559 666 3084 287 
Q 2609 -91 1734 -91 
Q 1441 -91 1130 -33 
Q 819 25 488 141 
L 488 750 
Q 750 597 1062 519 
Q 1375 441 1716 441 
Q 2309 441 2620 675 
Q 2931 909 2931 1356 
Q 2931 1769 2642 2001 
Q 2353 2234 1838 2234 
L 1294 2234 
L 1294 2753 
L 1863 2753 
Q 2328 2753 2575 2939 
Q 2822 3125 2822 3475 
Q 2822 3834 2567 4026 
Q 2313 4219 1838 4219 
Q 1578 4219 1281 4162 
Q 984 4106 628 3988 
L 628 4550 
Q 988 4650 1302 4700 
Q 1616 4750 1894 4750 
Q 2613 4750 3031 4423 
Q 3450 4097 3450 3541 
Q 3450 3153 3228 2886 
Q 3006 2619 2597 2516 
z
" transform="scale(0.015625)"/>
       </defs>
       <use xlink:href="#DejaVuSans-33"/>
       <use xlink:href="#DejaVuSans-30" x="63.623047"/>
       <use xlink:href="#DejaVuSans-30" x="127.246094"/>
      </g>
     </g>
    </g>
    <g id="text_4">
     <!-- Frequency (Hz) -->
     <g transform="translate(91.282493 157.396563) scale(0.1 -0.1)">
      <defs>
       <path id="DejaVuSans-46" d="M 628 4666 
L 3309 4666 
L 3309 4134 
L 1259 4134 
L 1259 2759 
L 3109 2759 
L 3109 2228 
L 1259 2228 
L 1259 0 
L 628 0 
L 628 4666 
z
" transform="scale(0.015625)"/>
       <path id="DejaVuSans-72" d="M 2631 2963 
Q 2534 3019 2420 3045 
Q 2306 3072 2169 3072 
Q 1681 3072 1420 2755 
Q 1159 2438 1159 1844 
L 1159 0 
L 581 0 
L 581 3500 
L 1159 3500 
L 1159 2956 
Q 1341 3275 1631 3429 
Q 1922 3584 2338 3584 
Q 2397 3584 2469 3576 
Q 2541 3569 2628 3553 
L 2631 2963 
z
" transform="scale(0.015625)"/>
       <path id="DejaVuSans-65" d="M 3597 1894 
L 3597 1613 
L 953 1613 
Q 991 1019 1311 708 
Q 1631 397 2203 397 
Q 2534 397 2845 478 
Q 3156 559 3463 722 
L 3463 178 
Q 3153 47 2828 -22 
Q 2503 -91 2169 -91 
Q 1331 -91 842 396 
Q 353 884 353 1716 
Q 353 2575 817 3079 
Q 1281 3584 2069 3584 
Q 2775 3584 3186 3129 
Q 3597 2675 3597 1894 
z
M 3022 2063 
Q 3016 2534 2758 2815 
Q 2500 3097 2075 3097 
Q 1594 3097 1305 2825 
Q 1016 2553 972 2059 
L 3022 2063 
z
" transform="scale(0.015625)"/>
       <path id="DejaVuSans-71" d="M 947 1747 
Q 947 1113 1208 752 
Q 1469 391 1925 391 
Q 2381 391 2643 752 
Q 2906 1113 2906 1747 
Q 2906 2381 2643 2742 
Q 2381 3103 1925 3103 
Q 1469 3103 1208 2742 
Q 947 2381 947 1747 
z
M 2906 525 
Q 2725 213 2448 61 
Q 2172 -91 1784 -91 
Q 1150 -91 751 415 
Q 353 922 353 1747 
Q 353 2572 751 3078 
Q 1150 3584 1784 3584 
Q 2172 3584 2448 3432 
Q 2725 3281 2906 2969 
L 2906 3500 
L 3481 3500 
L 3481 -1331 
L 2906 -1331 
L 2906 525 
z
" transform="scale(0.015625)"/>
       <path id="DejaVuSans-75" d="M 544 1381 
L 544 3500 
L 1119 3500 
L 1119 1403 
Q 1119 906 1312 657 
Q 1506 409 1894 409 
Q 2359 409 2629 706 
Q 2900 1003 2900 1516 
L 2900 3500 
L 3475 3500 
L 3475 0 
L 2900 0 
L 2900 538 
Q 2691 219 2414 64 
Q 2138 -91 1772 -91 
Q 1169 -91 856 284 
Q 544 659 544 1381 
z
M 1991 3584 
L 1991 3584 
z
" transform="scale(0.015625)"/>
       <path id="DejaVuSans-6e" d="M 3513 2113 
L 3513 0 
L 2938 0 
L 2938 2094 
Q 2938 2591 2744 2837 
Q 2550 3084 2163 3084 
Q 1697 3084 1428 2787 
Q 1159 2491 1159 1978 
L 1159 0 
L 581 0 
L 581 3500 
L 1159 3500 
L 1159 2956 
Q 1366 3272 1645 3428 
Q 1925 3584 2291 3584 
Q 2894 3584 3203 3211 
Q 3513 2838 3513 2113 
z
" transform="scale(0.015625)"/>
       <path id="DejaVuSans-63" d="M 3122 3366 
L 3122 2828 
Q 2878 2963 2633 3030 
Q 2388 3097 2138 3097 
Q 1578 3097 1268 2742 
Q 959 2388 959 1747 
Q 959 1106 1268 751 
Q 1578 397 2138 397 
Q 2388 397 2633 464 
Q 2878 531 3122 666 
L 3122 134 
Q 2881 22 2623 -34 
Q 2366 -91 2075 -91 
Q 1284 -91 818 406 
Q 353 903 353 1747 
Q 353 2603 823 3093 
Q 1294 3584 2113 3584 
Q 2378 3584 2631 3529 
Q 2884 3475 3122 3366 
z
" transform="scale(0.015625)"/>
       <path id="DejaVuSans-79" d="M 2059 -325 
Q 1816 -950 1584 -1140 
Q 1353 -1331 966 -1331 
L 506 -1331 
L 506 -850 
L 844 -850 
Q 1081 -850 1212 -737 
Q 1344 -625 1503 -206 
L 1606 56 
L 191 3500 
L 800 3500 
L 1894 763 
L 2988 3500 
L 3597 3500 
L 2059 -325 
z
" transform="scale(0.015625)"/>
       <path id="DejaVuSans-20" transform="scale(0.015625)"/>
       <path id="DejaVuSans-28" d="M 1984 4856 
Q 1566 4138 1362 3434 
Q 1159 2731 1159 2009 
Q 1159 1288 1364 580 
Q 1569 -128 1984 -844 
L 1484 -844 
Q 1016 -109 783 600 
Q 550 1309 550 2009 
Q 550 2706 781 3412 
Q 1013 4119 1484 4856 
L 1984 4856 
z
" transform="scale(0.015625)"/>
       <path id="DejaVuSans-48" d="M 628 4666 
L 1259 4666 
L 1259 2753 
L 3553 2753 
L 3553 4666 
L 4184 4666 
L 4184 0 
L 3553 0 
L 3553 2222 
L 1259 2222 
L 1259 0 
L 628 0 
L 628 4666 
z
" transform="scale(0.015625)"/>
       <path id="DejaVuSans-7a" d="M 353 3500 
L 3084 3500 
L 3084 2975 
L 922 459 
L 3084 459 
L 3084 0 
L 275 0 
L 275 525 
L 2438 3041 
L 353 3041 
L 353 3500 
z
" transform="scale(0.015625)"/>
       <path id="DejaVuSans-29" d="M 513 4856 
L 1013 4856 
Q 1481 4119 1714 3412 
Q 1947 2706 1947 2009 
Q 1947 1309 1714 600 
Q 1481 -109 1013 -844 
L 513 -844 
Q 928 -128 1133 580 
Q 1338 1288 1338 2009 
Q 1338 2731 1133 3434 
Q 928 4138 513 4856 
z
" transform="scale(0.015625)"/>
      </defs>
      <use xlink:href="#DejaVuSans-46"/>
      <use xlink:href="#DejaVuSans-72" x="50.269531"/>
      <use xlink:href="#DejaVuSans-65" x="89.132812"/>
      <use xlink:href="#DejaVuSans-71" x="150.65625"/>
      <use xlink:href="#DejaVuSans-75" x="214.132812"/>
      <use xlink:href="#DejaVuSans-65" x="277.511719"/>
      <use xlink:href="#DejaVuSans-6e" x="339.035156"/>
      <use xlink:href="#DejaVuSans-63" x="402.414062"/>
      <use xlink:href="#DejaVuSans-79" x="457.394531"/>
      <use xlink:href="#DejaVuSans-20" x="516.574219"/>
      <use xlink:href="#DejaVuSans-28" x="548.361328"/>
      <use xlink:href="#DejaVuSans-48" x="587.375"/>
      <use xlink:href="#DejaVuSans-7a" x="662.570312"/>
      <use xlink:href="#DejaVuSans-29" x="715.060547"/>
     </g>
    </g>
   </g>
   <g id="matplotlib.axis_2">
    <g id="ytick_1">
     <g id="line2d_4">
      <defs>
       <path id="m4cac8318ee" d="M 0 0 
L -3.5 0 
" style="stroke: #000000; stroke-width: 0.8"/>
      </defs>
      <g>
       <use xlink:href="#m4cac8318ee" x="59.52" y="104.916081" style="stroke: #000000; stroke-width: 0.8"/>
      </g>
     </g>
     <g id="text_5">
      <!-- $\mathdefault{10^{-3}}$ -->
      <g transform="translate(29.02 108.7153) scale(0.1 -0.1)">
       <defs>
        <path id="DejaVuSans-2212" d="M 678 2272 
L 4684 2272 
L 4684 1741 
L 678 1741 
L 678 2272 
z
" transform="scale(0.015625)"/>
       </defs>
       <use xlink:href="#DejaVuSans-31" transform="translate(0 0.765625)"/>
       <use xlink:href="#DejaVuSans-30" transform="translate(63.623047 0.765625)"/>
       <use xlink:href="#DejaVuSans-2212" transform="translate(128.203125 39.046875) scale(0.7)"/>
       <use xlink:href="#DejaVuSans-33" transform="translate(186.855469 39.046875) scale(0.7)"/>
      </g>
     </g>
    </g>
    <g id="ytick_2">
     <g id="line2d_5">
      <g>
       <use xlink:href="#m4cac8318ee" x="59.52" y="78.517229" style="stroke: #000000; stroke-width: 0.8"/>
      </g>
     </g>
     <g id="text_6">
      <!-- $\mathdefault{10^{0}}$ -->
      <g transform="translate(34.92 82.316447) scale(0.1 -0.1)">
       <use xlink:href="#DejaVuSans-31" transform="translate(0 0.765625)"/>
       <use xlink:href="#DejaVuSans-30" transform="translate(63.623047 0.765625)"/>
       <use xlink:href="#DejaVuSans-30" transform="translate(128.203125 39.046875) scale(0.7)"/>
      </g>
     </g>
    </g>
    <g id="ytick_3">
     <g id="line2d_6">
      <g>
       <use xlink:href="#m4cac8318ee" x="59.52" y="52.118377" style="stroke: #000000; stroke-width: 0.8"/>
      </g>
     </g>
     <g id="text_7">
      <!-- $\mathdefault{10^{3}}$ -->
      <g transform="translate(34.92 55.917595) scale(0.1 -0.1)">
       <use xlink:href="#DejaVuSans-31" transform="translate(0 0.765625)"/>
       <use xlink:href="#DejaVuSans-30" transform="translate(63.623047 0.765625)"/>
       <use xlink:href="#DejaVuSans-33" transform="translate(128.203125 39.046875) scale(0.7)"/>
      </g>
     </g>
    </g>
    <g id="text_8">
     <!-- Log power (dB/Hz) -->
     <g transform="translate(22.940312 124.139844) rotate(-90) scale(0.1 -0.1)">
      <defs>
       <path id="DejaVuSans-4c" d="M 628 4666 
L 1259 4666 
L 1259 531 
L 3531 531 
L 3531 0 
L 628 0 
L 628 4666 
z
" transform="scale(0.015625)"/>
       <path id="DejaVuSans-6f" d="M 1959 3097 
Q 1497 3097 1228 2736 
Q 959 2375 959 1747 
Q 959 1119 1226 758 
Q 1494 397 1959 397 
Q 2419 397 2687 759 
Q 2956 1122 2956 1747 
Q 2956 2369 2687 2733 
Q 2419 3097 1959 3097 
z
M 1959 3584 
Q 2709 3584 3137 3096 
Q 3566 2609 3566 1747 
Q 3566 888 3137 398 
Q 2709 -91 1959 -91 
Q 1206 -91 779 398 
Q 353 888 353 1747 
Q 353 2609 779 3096 
Q 1206 3584 1959 3584 
z
" transform="scale(0.015625)"/>
       <path id="DejaVuSans-67" d="M 2906 1791 
Q 2906 2416 2648 2759 
Q 2391 3103 1925 3103 
Q 1463 3103 1205 2759 
Q 947 2416 947 1791 
Q 947 1169 1205 825 
Q 1463 481 1925 481 
Q 2391 481 2648 825 
Q 2906 1169 2906 1791 
z
M 3481 434 
Q 3481 -459 3084 -895 
Q 2688 -1331 1869 -1331 
Q 1566 -1331 1297 -1286 
Q 1028 -1241 775 -1147 
L 775 -588 
Q 1028 -725 1275 -790 
Q 1522 -856 1778 -856 
Q 2344 -856 2625 -561 
Q 2906 -266 2906 331 
L 2906 616 
Q 2728 306 2450 153 
Q 2172 0 1784 0 
Q 1141 0 747 490 
Q 353 981 353 1791 
Q 353 2603 747 3093 
Q 1141 3584 1784 3584 
Q 2172 3584 2450 3431 
Q 2728 3278 2906 2969 
L 2906 3500 
L 3481 3500 
L 3481 434 
z
" transform="scale(0.015625)"/>
       <path id="DejaVuSans-70" d="M 1159 525 
L 1159 -1331 
L 581 -1331 
L 581 3500 
L 1159 3500 
L 1159 2969 
Q 1341 3281 1617 3432 
Q 1894 3584 2278 3584 
Q 2916 3584 3314 3078 
Q 3713 2572 3713 1747 
Q 3713 922 3314 415 
Q 2916 -91 2278 -91 
Q 1894 -91 1617 61 
Q 1341 213 1159 525 
z
M 3116 1747 
Q 3116 2381 2855 2742 
Q 2594 3103 2138 3103 
Q 1681 3103 1420 2742 
Q 1159 2381 1159 1747 
Q 1159 1113 1420 752 
Q 1681 391 2138 391 
Q 2594 391 2855 752 
Q 3116 1113 3116 1747 
z
" transform="scale(0.015625)"/>
       <path id="DejaVuSans-77" d="M 269 3500 
L 844 3500 
L 1563 769 
L 2278 3500 
L 2956 3500 
L 3675 769 
L 4391 3500 
L 4966 3500 
L 4050 0 
L 3372 0 
L 2619 2869 
L 1863 0 
L 1184 0 
L 269 3500 
z
" transform="scale(0.015625)"/>
       <path id="DejaVuSans-64" d="M 2906 2969 
L 2906 4863 
L 3481 4863 
L 3481 0 
L 2906 0 
L 2906 525 
Q 2725 213 2448 61 
Q 2172 -91 1784 -91 
Q 1150 -91 751 415 
Q 353 922 353 1747 
Q 353 2572 751 3078 
Q 1150 3584 1784 3584 
Q 2172 3584 2448 3432 
Q 2725 3281 2906 2969 
z
M 947 1747 
Q 947 1113 1208 752 
Q 1469 391 1925 391 
Q 2381 391 2643 752 
Q 2906 1113 2906 1747 
Q 2906 2381 2643 2742 
Q 2381 3103 1925 3103 
Q 1469 3103 1208 2742 
Q 947 2381 947 1747 
z
" transform="scale(0.015625)"/>
       <path id="DejaVuSans-42" d="M 1259 2228 
L 1259 519 
L 2272 519 
Q 2781 519 3026 730 
Q 3272 941 3272 1375 
Q 3272 1813 3026 2020 
Q 2781 2228 2272 2228 
L 1259 2228 
z
M 1259 4147 
L 1259 2741 
L 2194 2741 
Q 2656 2741 2882 2914 
Q 3109 3088 3109 3444 
Q 3109 3797 2882 3972 
Q 2656 4147 2194 4147 
L 1259 4147 
z
M 628 4666 
L 2241 4666 
Q 2963 4666 3353 4366 
Q 3744 4066 3744 3513 
Q 3744 3084 3544 2831 
Q 3344 2578 2956 2516 
Q 3422 2416 3680 2098 
Q 3938 1781 3938 1306 
Q 3938 681 3513 340 
Q 3088 0 2303 0 
L 628 0 
L 628 4666 
z
" transform="scale(0.015625)"/>
       <path id="DejaVuSans-2f" d="M 1625 4666 
L 2156 4666 
L 531 -594 
L 0 -594 
L 1625 4666 
z
" transform="scale(0.015625)"/>
      </defs>
      <use xlink:href="#DejaVuSans-4c"/>
      <use xlink:href="#DejaVuSans-6f" x="53.962891"/>
      <use xlink:href="#DejaVuSans-67" x="115.144531"/>
      <use xlink:href="#DejaVuSans-20" x="178.621094"/>
      <use xlink:href="#DejaVuSans-70" x="210.408203"/>
      <use xlink:href="#DejaVuSans-6f" x="273.884766"/>
      <use xlink:href="#DejaVuSans-77" x="335.066406"/>
      <use xlink:href="#DejaVuSans-65" x="416.853516"/>
      <use xlink:href="#DejaVuSans-72" x="478.376953"/>
      <use xlink:href="#DejaVuSans-20" x="519.490234"/>
      <use xlink:href="#DejaVuSans-28" x="551.277344"/>
      <use xlink:href="#DejaVuSans-64" x="590.291016"/>
      <use xlink:href="#DejaVuSans-42" x="653.767578"/>
      <use xlink:href="#DejaVuSans-2f" x="722.371094"/>
      <use xlink:href="#DejaVuSans-48" x="756.0625"/>
      <use xlink:href="#DejaVuSans-7a" x="831.257812"/>
      <use xlink:href="#DejaVuSans-29" x="883.748047"/>
     </g>
    </g>
   </g>
   <g id="line2d_7">
    <path d="M 61.764497 63.101964 
L 61.988947 64.177129 
L 62.437846 76.0492 
L 62.662296 60.590316 
L 62.886745 75.891065 
L 63.111195 61.784206 
L 63.335645 66.995982 
L 63.560095 64.280491 
L 63.784544 66.40941 
L 64.008994 72.324589 
L 64.233444 66.423499 
L 64.457893 67.122362 
L 64.682343 61.88571 
L 64.906793 71.87059 
L 65.131242 64.194992 
L 65.355692 74.197778 
L 65.580142 65.490739 
L 65.804591 62.833588 
L 66.253491 73.867476 
L 66.477941 63.441272 
L 66.70239 69.803559 
L 66.92684 68.054081 
L 67.15129 77.948004 
L 67.375739 70.049638 
L 67.600189 66.525215 
L 67.824639 69.275039 
L 68.049088 64.073051 
L 68.273538 68.054934 
L 68.497988 65.662193 
L 68.722438 65.181564 
L 68.946887 83.459256 
L 69.171337 71.880439 
L 69.395787 76.415652 
L 69.620236 65.252375 
L 69.844686 68.987781 
L 70.069136 52.172267 
L 70.293585 63.797248 
L 70.518035 63.636738 
L 70.742485 75.076058 
L 70.966935 66.664177 
L 71.191384 64.279323 
L 71.415834 75.130879 
L 71.640284 63.97594 
L 71.864733 78.506017 
L 72.089183 70.781676 
L 72.313633 80.66306 
L 72.538082 70.940659 
L 72.762532 73.894021 
L 72.986982 74.638891 
L 73.211431 67.902775 
L 73.435881 65.698899 
L 73.884781 68.983592 
L 74.10923 65.182499 
L 74.55813 79.153076 
L 74.782579 65.518899 
L 75.007029 90.900174 
L 75.455928 71.522722 
L 76.129278 64.675283 
L 76.353727 69.034677 
L 76.578177 66.407532 
L 76.802627 73.740655 
L 77.251526 63.082707 
L 77.475976 71.415778 
L 77.700425 70.060252 
L 77.924875 70.527614 
L 78.149325 76.47395 
L 78.373774 75.271798 
L 78.598224 63.216807 
L 78.822674 74.788929 
L 79.047124 62.817551 
L 79.271573 76.190272 
L 79.720473 72.10532 
L 79.944922 65.22501 
L 80.169372 71.622233 
L 80.393822 73.913094 
L 80.618271 64.152177 
L 81.067171 77.57812 
L 81.291621 75.648211 
L 81.51607 63.33966 
L 81.74052 73.599386 
L 81.96497 66.201232 
L 82.189419 68.124669 
L 82.413869 67.780504 
L 82.638319 64.925189 
L 82.862768 77.055825 
L 83.087218 68.938868 
L 83.311668 71.418441 
L 83.536117 66.098502 
L 83.760567 79.425415 
L 84.209467 67.862811 
L 84.433916 69.874829 
L 84.658366 66.363121 
L 84.882816 74.944295 
L 85.107265 62.423197 
L 85.331715 71.390693 
L 85.556165 75.206176 
L 85.780614 74.176366 
L 86.229514 67.007592 
L 86.453964 73.474722 
L 86.678413 66.709938 
L 86.902863 69.546727 
L 87.351762 59.82142 
L 87.576212 72.537405 
L 87.800662 65.666046 
L 88.025111 78.264848 
L 88.249561 70.097916 
L 88.474011 69.311251 
L 88.69846 64.627693 
L 88.92291 74.137613 
L 89.14736 73.253085 
L 89.37181 65.284852 
L 89.596259 81.927212 
L 89.820709 64.25997 
L 90.045159 70.289634 
L 90.269608 71.814872 
L 90.494058 63.428405 
L 90.718508 69.487021 
L 90.942957 69.322858 
L 91.167407 74.019291 
L 91.391857 65.145309 
L 91.616307 71.858467 
L 91.840756 59.464124 
L 92.065206 63.959686 
L 92.289656 66.210281 
L 92.514105 66.698702 
L 92.738555 70.939807 
L 92.963005 69.204515 
L 93.187454 73.032812 
L 93.411904 70.804277 
L 93.636354 75.10098 
L 94.085253 63.065088 
L 94.309703 76.663732 
L 94.534153 64.571913 
L 94.758602 71.6107 
L 94.983052 67.534272 
L 95.431951 79.442572 
L 95.656401 64.974607 
L 95.880851 70.296989 
L 96.1053 65.557848 
L 96.32975 80.686306 
L 96.5542 64.803015 
L 97.003099 71.976532 
L 97.227549 65.191963 
L 97.451999 70.20034 
L 97.676448 61.880039 
L 98.125348 77.19217 
L 98.574247 63.214311 
L 98.798697 79.875946 
L 99.023147 67.854853 
L 99.247596 63.095387 
L 99.472046 72.455896 
L 99.696496 74.574017 
L 99.920945 75.533219 
L 100.145395 61.067767 
L 100.369845 69.898842 
L 100.594294 61.806989 
L 100.818744 77.539405 
L 101.043194 72.394131 
L 101.267643 72.142069 
L 101.492093 68.676088 
L 101.716543 74.896862 
L 101.940993 60.719305 
L 102.165442 69.269353 
L 102.389892 71.867505 
L 102.614342 64.952836 
L 102.838791 70.021895 
L 103.063241 61.037336 
L 103.287691 65.071506 
L 103.51214 72.888877 
L 103.73659 67.459703 
L 104.18549 78.016565 
L 104.409939 61.36711 
L 104.634389 84.994784 
L 104.858839 71.095361 
L 105.083288 66.412608 
L 105.307738 68.410314 
L 105.532188 68.76401 
L 105.756637 64.974699 
L 105.981087 67.212745 
L 106.205537 67.895473 
L 106.429986 84.552495 
L 106.654436 71.611795 
L 106.878886 72.887797 
L 107.103336 62.411231 
L 107.327785 77.040464 
L 107.552235 64.516847 
L 107.776685 71.651032 
L 108.001134 65.38835 
L 108.225584 68.878214 
L 108.450034 74.578103 
L 108.674483 64.825424 
L 108.898933 64.652532 
L 109.123383 80.584139 
L 109.347833 72.335098 
L 109.796732 66.418048 
L 110.021182 79.991435 
L 110.245631 71.422281 
L 110.470081 69.015647 
L 110.694531 73.280269 
L 110.91898 63.342884 
L 111.14343 63.463386 
L 111.36788 73.385014 
L 111.816779 61.992963 
L 112.041229 80.254423 
L 112.265679 68.296164 
L 112.490128 76.733302 
L 112.714578 63.230742 
L 113.163477 81.474893 
L 113.387927 61.125997 
L 113.612377 76.806103 
L 114.061276 63.847774 
L 114.285726 71.110474 
L 114.510176 65.144632 
L 114.734625 74.848193 
L 114.959075 72.847165 
L 115.183525 87.011747 
L 115.407974 69.046464 
L 115.632424 77.369762 
L 115.856874 66.169503 
L 116.081323 72.049603 
L 116.305773 70.606643 
L 116.530223 66.252917 
L 116.754673 76.73421 
L 116.979122 65.486975 
L 117.203572 70.395159 
L 117.428022 69.858044 
L 117.652471 31.527273 
L 117.876921 70.450737 
L 118.101371 70.646948 
L 118.32582 65.963351 
L 118.55027 76.270105 
L 118.77472 66.874271 
L 118.999169 71.204208 
L 119.223619 72.484093 
L 119.448069 66.665575 
L 119.672519 75.853317 
L 119.896968 70.024896 
L 120.121418 84.133666 
L 120.345868 73.498349 
L 120.570317 74.963709 
L 120.794767 65.972607 
L 121.019217 70.689665 
L 121.243666 64.716223 
L 121.468116 72.687202 
L 121.692566 76.322947 
L 121.917016 62.220603 
L 122.141465 82.728566 
L 122.590365 64.590762 
L 122.814814 82.966473 
L 123.039264 69.34686 
L 123.263714 77.319791 
L 123.488163 62.952605 
L 123.937063 76.710755 
L 124.161512 64.83602 
L 124.385962 65.031918 
L 124.610412 76.18626 
L 124.834862 70.782045 
L 125.059311 72.533232 
L 125.283761 77.30257 
L 125.508211 68.903619 
L 125.95711 73.974328 
L 126.18156 82.862314 
L 126.406009 66.475484 
L 126.630459 66.734361 
L 126.854909 78.308369 
L 127.079359 70.591532 
L 127.303808 66.88137 
L 127.528258 74.610066 
L 127.752708 67.41192 
L 127.977157 78.998468 
L 128.201607 64.588502 
L 128.426057 75.204684 
L 128.650506 73.486274 
L 128.874956 83.206067 
L 129.099406 70.617589 
L 129.323855 70.222062 
L 129.548305 67.770105 
L 129.772755 71.343619 
L 129.997205 71.138577 
L 130.221654 69.164499 
L 130.670554 82.223893 
L 130.895003 64.584579 
L 131.119453 80.766641 
L 131.343903 76.985906 
L 131.568352 70.078378 
L 131.792802 77.590402 
L 132.241702 64.466069 
L 132.466151 71.872688 
L 132.690601 68.25625 
L 132.915051 75.08465 
L 133.1395 72.187786 
L 133.36395 64.518154 
L 133.5884 79.172291 
L 133.812849 71.128348 
L 134.037299 76.479928 
L 134.261749 75.421619 
L 134.486198 85.643668 
L 134.710648 65.624743 
L 134.935098 75.373463 
L 135.159548 65.663142 
L 135.383997 78.621272 
L 135.608447 76.549092 
L 135.832897 78.121215 
L 136.057346 67.622852 
L 136.281796 73.009761 
L 136.506246 85.218214 
L 136.730695 67.567856 
L 137.179595 77.449585 
L 137.404045 75.804655 
L 137.628494 67.565536 
L 137.852944 74.273962 
L 138.077394 70.330327 
L 138.301843 75.998205 
L 138.750743 69.91762 
L 138.975192 80.53377 
L 139.199642 71.621628 
L 139.424092 75.593924 
L 139.648542 71.283294 
L 139.872991 87.959395 
L 140.321891 72.33334 
L 140.54634 76.85086 
L 140.77079 70.6128 
L 140.99524 81.026248 
L 141.219689 68.477933 
L 141.668589 83.089098 
L 141.893038 81.146369 
L 142.117488 76.945524 
L 142.341938 75.530022 
L 142.566388 80.397071 
L 142.790837 74.304285 
L 143.239737 70.950257 
L 143.464186 66.837702 
L 143.688636 81.401089 
L 143.913086 73.1148 
L 144.137535 83.912948 
L 144.361985 77.351113 
L 144.586435 75.80688 
L 144.810885 72.039147 
L 145.035334 81.163312 
L 145.259784 78.888282 
L 145.484234 72.459174 
L 145.708683 84.766537 
L 145.933133 73.237435 
L 146.382032 83.044477 
L 146.606482 73.291122 
L 146.830932 77.50126 
L 147.055381 78.544982 
L 147.279831 84.062176 
L 147.504281 74.723856 
L 147.728731 82.852844 
L 147.95318 69.406938 
L 148.40208 76.175764 
L 148.626529 78.058441 
L 148.850979 82.958316 
L 149.075429 79.291705 
L 149.299878 81.400176 
L 149.524328 85.469016 
L 149.748778 84.807144 
L 149.973228 80.631201 
L 150.197677 73.833007 
L 150.422127 84.512508 
L 150.646577 76.385955 
L 150.871026 82.40702 
L 151.095476 77.801644 
L 151.544375 90.64519 
L 151.768825 78.557624 
L 151.993275 82.627284 
L 152.217724 80.406675 
L 152.442174 89.805728 
L 152.666624 78.665471 
L 153.115523 83.397534 
L 153.339973 80.509381 
L 153.564423 84.075645 
L 153.788872 77.61636 
L 154.237772 92.05738 
L 154.686671 79.183147 
L 154.911121 92.888326 
L 155.135571 83.114107 
L 155.36002 79.142943 
L 155.58447 92.551967 
L 155.80892 90.59692 
L 156.033369 89.799946 
L 156.257819 77.370896 
L 156.482269 88.930474 
L 156.706718 78.53126 
L 156.931168 90.445025 
L 157.155618 94.682449 
L 157.380067 90.476203 
L 157.604517 83.902586 
L 157.828967 94.553638 
L 158.053417 78.006971 
L 158.502316 89.274761 
L 158.726766 81.930689 
L 158.951215 85.974053 
L 159.175665 77.483784 
L 159.400115 80.478411 
L 159.624564 94.438615 
L 159.849014 83.187892 
L 160.297914 94.773001 
L 160.522363 79.147803 
L 160.746813 94.102413 
L 161.195712 82.27741 
L 161.420162 84.163937 
L 161.644612 84.554382 
L 161.869061 79.599617 
L 162.317961 83.275495 
L 162.542411 101.836047 
L 162.76686 89.197508 
L 162.99131 90.176362 
L 163.21576 76.784488 
L 163.440209 89.726759 
L 163.664659 78.906326 
L 163.889109 85.228375 
L 164.113558 78.6356 
L 164.338008 81.391768 
L 164.562458 89.572817 
L 164.786907 78.809732 
L 165.011357 78.206149 
L 165.235807 91.57258 
L 165.460257 83.248504 
L 165.684706 81.683587 
L 165.909156 78.891544 
L 166.133606 89.628305 
L 166.582505 80.972416 
L 166.806955 83.532368 
L 167.031404 75.461681 
L 167.255854 75.475703 
L 167.480304 84.013071 
L 167.929203 73.384111 
L 168.153653 89.174388 
L 168.378103 79.702731 
L 168.602552 89.246784 
L 168.827002 74.034177 
L 169.051452 85.690613 
L 169.275901 89.262786 
L 169.500351 71.724695 
L 169.724801 88.587872 
L 170.1737 74.046263 
L 170.39815 80.957631 
L 170.6226 75.599802 
L 170.847049 82.8807 
L 171.071499 83.511456 
L 171.295949 98.898456 
L 171.520398 80.268718 
L 171.744848 85.00713 
L 171.969298 75.886596 
L 172.193747 81.636131 
L 172.418197 80.46969 
L 172.642647 76.190508 
L 172.867097 86.808422 
L 173.091546 74.922854 
L 173.315996 78.889391 
L 173.540446 78.337914 
L 173.764895 40.499272 
L 173.989345 78.655604 
L 174.213795 78.051193 
L 174.438244 74.480732 
L 174.662694 86.98553 
L 174.887144 75.066537 
L 175.111593 80.331827 
L 175.336043 81.655166 
L 175.560493 75.228972 
L 175.784943 87.010891 
L 176.009392 78.610764 
L 176.233842 93.493257 
L 176.458292 81.774463 
L 176.682741 82.27207 
L 176.907191 73.614017 
L 177.131641 78.517724 
L 177.35609 72.273009 
L 177.80499 84.142596 
L 178.02944 69.609552 
L 178.253889 88.790842 
L 178.702789 71.555149 
L 178.927238 89.928892 
L 179.151688 76.608656 
L 179.376138 83.971915 
L 179.600587 70.135166 
L 180.049487 82.048137 
L 180.273936 71.611036 
L 180.498386 72.133656 
L 180.722836 81.197398 
L 180.947286 77.283047 
L 181.171735 79.495334 
L 181.396185 86.408923 
L 181.620635 74.951998 
L 182.069534 81.282119 
L 182.293984 88.392889 
L 182.518433 72.396227 
L 182.742883 73.016678 
L 182.967333 86.565107 
L 183.191783 76.385941 
L 183.416232 73.397487 
L 183.640682 81.025268 
L 183.865132 72.903952 
L 184.089581 88.988807 
L 184.314031 70.844726 
L 184.538481 82.358911 
L 184.76293 79.124787 
L 184.98738 92.884303 
L 185.21183 76.167331 
L 185.43628 76.210781 
L 185.660729 73.25138 
L 185.885179 78.140717 
L 186.334078 74.914222 
L 186.558528 79.122523 
L 186.782978 91.551899 
L 187.007427 70.218056 
L 187.231877 87.291387 
L 187.680776 76.419615 
L 187.905226 82.462605 
L 188.354126 69.816227 
L 188.578575 77.48037 
L 188.803025 73.643198 
L 189.027475 80.526532 
L 189.251924 76.546075 
L 189.476374 69.754895 
L 189.700824 83.756026 
L 189.925273 76.399219 
L 190.149723 81.334054 
L 190.374173 80.553402 
L 190.598623 87.873327 
L 190.823072 70.215974 
L 191.047522 79.476891 
L 191.271972 69.997944 
L 191.496421 83.281995 
L 191.720871 81.054585 
L 191.945321 82.402305 
L 192.16977 71.778029 
L 192.39422 77.195454 
L 192.61867 90.109767 
L 192.843119 71.899014 
L 193.292019 83.054223 
L 193.516469 80.477076 
L 193.740918 71.523933 
L 193.965368 78.43755 
L 194.189818 74.328212 
L 194.414267 79.594786 
L 194.863167 73.955611 
L 195.087616 85.155452 
L 195.312066 74.854546 
L 195.536516 79.314967 
L 195.760966 74.713276 
L 195.985415 87.52394 
L 195.985415 87.52394 
" clip-path="url(#p3733b47154)" style="fill: none; stroke: #808080; stroke-width: 0.8; stroke-linecap: square"/>
   </g>
   <g id="line2d_8">
    <path d="M 61.764497 62.956068 
L 61.988947 66.563857 
L 62.213396 64.287419 
L 62.437846 72.689751 
L 62.662296 59.352565 
L 62.886745 69.879971 
L 63.111195 62.886502 
L 63.335645 62.950563 
L 63.560095 63.815978 
L 64.008994 73.23007 
L 64.233444 64.786168 
L 64.457893 67.954931 
L 64.682343 65.408072 
L 64.906793 81.435769 
L 65.131242 70.103299 
L 65.355692 79.864336 
L 65.580142 65.101008 
L 65.804591 63.48763 
L 66.029041 68.478247 
L 66.253491 70.385721 
L 66.477941 69.162521 
L 66.70239 68.901745 
L 66.92684 72.215441 
L 67.15129 78.163046 
L 67.375739 67.065023 
L 67.600189 71.134964 
L 67.824639 72.10194 
L 68.049088 71.837 
L 68.273538 72.050393 
L 68.497988 66.918356 
L 68.722438 66.972886 
L 68.946887 75.132961 
L 69.171337 73.997926 
L 69.395787 73.5631 
L 69.620236 67.606603 
L 69.844686 66.511902 
L 70.069136 52.297239 
L 70.293585 66.739146 
L 70.742485 72.84781 
L 70.966935 72.319456 
L 71.191384 71.198246 
L 71.415834 74.626857 
L 71.640284 69.585756 
L 71.864733 79.343773 
L 72.089183 70.864804 
L 72.313633 79.312993 
L 72.538082 69.525526 
L 72.762532 74.030811 
L 73.211431 77.430406 
L 73.435881 76.221558 
L 73.660331 71.891766 
L 73.884781 72.316193 
L 74.10923 72.052994 
L 74.33368 74.233814 
L 74.55813 85.041131 
L 74.782579 78.478104 
L 75.007029 79.296716 
L 75.231479 77.742145 
L 75.455928 74.629656 
L 75.680378 73.152368 
L 75.904828 77.302939 
L 76.129278 76.93983 
L 76.353727 73.016203 
L 76.578177 74.645588 
L 76.802627 75.427901 
L 77.027076 78.080667 
L 77.251526 77.796633 
L 77.475976 75.308133 
L 77.700425 80.686229 
L 77.924875 77.30826 
L 78.149325 82.922406 
L 78.373774 72.969043 
L 78.598224 82.707671 
L 78.822674 73.815938 
L 79.047124 85.19916 
L 79.271573 88.066795 
L 79.496023 85.70008 
L 79.720473 78.730717 
L 79.944922 87.46102 
L 80.169372 79.914816 
L 80.393822 76.306402 
L 80.618271 78.015856 
L 80.842721 84.381513 
L 81.067171 85.380682 
L 81.291621 77.186144 
L 81.51607 77.171835 
L 81.96497 82.666425 
L 82.189419 74.692586 
L 82.413869 77.325426 
L 82.638319 78.523177 
L 82.862768 104.545969 
L 83.087218 76.708219 
L 83.311668 86.116094 
L 83.536117 76.585626 
L 83.760567 93.015047 
L 83.985017 78.111565 
L 84.209467 89.842348 
L 84.433916 81.995054 
L 84.658366 81.449614 
L 84.882816 79.464839 
L 85.107265 78.758524 
L 85.331715 87.180423 
L 85.780614 80.399815 
L 86.005064 77.948102 
L 86.229514 78.762093 
L 86.453964 83.629951 
L 86.902863 76.356123 
L 87.127313 76.908917 
L 87.351762 86.268046 
L 87.576212 82.538266 
L 87.800662 84.90486 
L 88.025111 84.728323 
L 88.474011 80.396896 
L 88.69846 81.415997 
L 89.14736 74.299981 
L 89.37181 84.950743 
L 89.596259 82.331857 
L 89.820709 82.896067 
L 90.045159 87.422253 
L 90.269608 83.579961 
L 90.494058 85.70859 
L 90.718508 83.290216 
L 90.942957 85.669974 
L 91.167407 85.371843 
L 91.391857 81.61995 
L 91.616307 81.847319 
L 92.065206 99.718869 
L 92.514105 80.548693 
L 92.738555 80.541106 
L 92.963005 81.227209 
L 93.187454 80.38388 
L 93.411904 75.699475 
L 93.860804 88.049216 
L 94.085253 82.364385 
L 94.309703 89.026185 
L 94.534153 80.896062 
L 94.758602 82.926234 
L 94.983052 82.027109 
L 95.207502 82.726338 
L 95.431951 92.209506 
L 95.656401 90.33551 
L 95.880851 83.010114 
L 96.1053 91.513489 
L 96.32975 81.087613 
L 96.5542 97.80226 
L 96.77865 85.584319 
L 97.003099 79.665862 
L 97.451999 86.984467 
L 97.676448 80.663964 
L 97.900898 82.93713 
L 98.125348 80.086675 
L 98.349797 86.288178 
L 98.574247 101.735437 
L 98.798697 84.976428 
L 99.023147 90.255979 
L 99.247596 80.47333 
L 99.472046 84.859072 
L 99.696496 81.038611 
L 99.920945 86.358874 
L 100.145395 86.414548 
L 100.369845 89.21743 
L 100.594294 83.097469 
L 101.043194 89.732239 
L 101.492093 82.262798 
L 101.716543 86.588151 
L 101.940993 85.166603 
L 102.165442 82.632807 
L 102.389892 82.549409 
L 102.614342 88.430282 
L 102.838791 77.657259 
L 103.063241 96.225302 
L 103.287691 83.30424 
L 103.51214 92.299101 
L 103.73659 85.318157 
L 103.96104 85.785148 
L 104.18549 89.61914 
L 104.409939 86.031012 
L 104.634389 84.66876 
L 105.083288 90.677566 
L 105.307738 89.159098 
L 105.532188 93.536208 
L 105.756637 87.193364 
L 105.981087 91.167691 
L 106.205537 89.780658 
L 106.429986 100.4883 
L 106.654436 90.486315 
L 106.878886 93.084213 
L 107.103336 91.099258 
L 107.327785 90.351594 
L 107.776685 94.617152 
L 108.001134 82.844215 
L 108.225584 89.255767 
L 108.450034 82.843373 
L 108.674483 93.281497 
L 108.898933 84.214129 
L 109.123383 93.684526 
L 109.572282 88.174311 
L 109.796732 92.73213 
L 110.021182 92.721909 
L 110.245631 87.651001 
L 110.470081 92.968617 
L 110.694531 87.681471 
L 110.91898 87.436863 
L 111.14343 94.363828 
L 111.36788 93.262172 
L 111.592329 86.844229 
L 111.816779 86.045606 
L 112.041229 82.323146 
L 112.265679 87.402127 
L 112.490128 83.677694 
L 112.714578 96.528848 
L 112.939028 89.209913 
L 113.163477 102.659538 
L 113.387927 92.098558 
L 113.612377 91.049005 
L 113.836826 91.28916 
L 114.061276 90.643854 
L 114.285726 85.706662 
L 114.510176 92.223482 
L 114.734625 85.121981 
L 114.959075 97.139771 
L 115.183525 98.391447 
L 115.407974 85.931369 
L 115.632424 90.292736 
L 115.856874 87.736994 
L 116.081323 92.376038 
L 116.305773 90.657752 
L 116.754673 99.174393 
L 117.203572 87.756498 
L 117.428022 89.551265 
L 117.652471 92.514367 
L 117.876921 89.418801 
L 118.101371 89.559671 
L 118.32582 89.331668 
L 118.55027 91.486334 
L 118.77472 91.425219 
L 118.999169 91.197709 
L 119.448069 99.884505 
L 119.672519 91.859272 
L 119.896968 91.112084 
L 120.121418 92.201878 
L 120.345868 90.061784 
L 120.570317 103.930209 
L 120.794767 104.617845 
L 121.019217 97.608249 
L 121.243666 86.00109 
L 121.468116 86.06778 
L 121.692566 98.193165 
L 121.917016 87.455464 
L 122.141465 90.480839 
L 122.365915 96.658791 
L 122.590365 85.7313 
L 122.814814 96.307933 
L 123.039264 96.929278 
L 123.263714 96.836518 
L 123.488163 91.116528 
L 123.712613 88.902381 
L 123.937063 88.212878 
L 124.161512 104.918178 
L 124.385962 94.280238 
L 124.610412 93.091792 
L 125.059311 104.878991 
L 125.283761 83.660361 
L 125.508211 89.475146 
L 125.73266 101.885887 
L 126.18156 86.629415 
L 126.406009 91.065481 
L 126.630459 90.912963 
L 126.854909 93.108174 
L 127.303808 89.160284 
L 127.528258 93.028199 
L 127.752708 88.938817 
L 127.977157 88.938029 
L 128.201607 89.392487 
L 128.426057 93.112128 
L 128.650506 91.702713 
L 128.874956 91.63913 
L 129.099406 86.878492 
L 129.323855 92.272876 
L 129.548305 90.3424 
L 129.772755 90.723835 
L 129.997205 90.313006 
L 130.446104 103.434335 
L 130.670554 95.939708 
L 130.895003 97.845281 
L 131.119453 96.704432 
L 131.343903 97.126959 
L 131.568352 90.265921 
L 131.792802 87.176843 
L 132.017252 98.360913 
L 132.241702 96.327299 
L 132.466151 88.814008 
L 132.690601 88.102557 
L 132.915051 95.942975 
L 133.1395 88.7377 
L 133.36395 89.640901 
L 133.5884 104.214097 
L 133.812849 90.721148 
L 134.037299 95.329643 
L 134.261749 88.808486 
L 134.486198 92.483093 
L 134.710648 88.529351 
L 134.935098 93.859512 
L 135.159548 94.650935 
L 135.383997 100.869179 
L 135.608447 100.650139 
L 135.832897 93.915332 
L 136.057346 94.325095 
L 136.281796 100.364408 
L 136.506246 96.730263 
L 136.730695 90.837861 
L 136.955145 95.693476 
L 137.179595 91.718344 
L 137.404045 92.052517 
L 137.628494 100.181847 
L 137.852944 95.240952 
L 138.077394 94.212573 
L 138.301843 91.987113 
L 138.526293 88.631309 
L 138.750743 95.293313 
L 138.975192 96.462401 
L 139.199642 93.135284 
L 139.424092 96.713833 
L 139.648542 91.39661 
L 139.872991 95.251069 
L 140.097441 92.70525 
L 140.321891 98.775427 
L 140.54634 92.963141 
L 140.77079 97.160876 
L 140.99524 87.941164 
L 141.219689 91.931331 
L 141.444139 91.397171 
L 141.668589 96.938556 
L 142.117488 93.61309 
L 142.341938 94.529398 
L 142.566388 90.999422 
L 142.790837 94.000383 
L 143.015287 92.121337 
L 143.239737 100.800895 
L 143.464186 95.807917 
L 143.688636 103.431815 
L 143.913086 95.203094 
L 144.137535 95.904166 
L 144.361985 93.365634 
L 144.586435 95.931294 
L 144.810885 91.805666 
L 145.035334 100.592239 
L 145.259784 92.054628 
L 145.484234 94.831754 
L 145.708683 93.572853 
L 145.933133 102.613123 
L 146.157583 95.917051 
L 146.606482 89.651095 
L 146.830932 105.607822 
L 147.055381 104.06671 
L 147.279831 94.540499 
L 147.504281 92.277946 
L 147.95318 98.56289 
L 148.17763 90.975161 
L 148.40208 92.619066 
L 148.626529 111.086486 
L 148.850979 97.654629 
L 149.299878 105.895001 
L 149.973228 92.978144 
L 150.197677 96.337447 
L 150.422127 93.351285 
L 150.646577 104.690321 
L 150.871026 93.636482 
L 151.095476 92.170968 
L 151.319926 92.556147 
L 151.993275 98.757313 
L 152.217724 93.484468 
L 152.442174 95.590081 
L 152.666624 96.521762 
L 152.891074 96.62822 
L 153.115523 93.81504 
L 153.339973 99.838466 
L 153.564423 115.068616 
L 153.788872 101.188623 
L 154.013322 105.762554 
L 154.237772 89.347013 
L 154.462221 94.248755 
L 154.686671 101.960188 
L 154.911121 95.433865 
L 155.135571 95.604978 
L 155.36002 98.03204 
L 155.58447 98.800163 
L 155.80892 96.295998 
L 156.033369 96.712887 
L 156.257819 96.843796 
L 156.482269 99.698483 
L 156.706718 105.434987 
L 156.931168 94.876255 
L 157.155618 92.696006 
L 157.380067 92.88835 
L 157.604517 99.042394 
L 157.828967 98.562572 
L 158.053417 106.021347 
L 158.277866 95.336423 
L 158.502316 94.268535 
L 158.726766 94.265661 
L 158.951215 109.323731 
L 159.175665 97.790225 
L 159.400115 92.382883 
L 159.849014 98.399546 
L 160.073464 100.609541 
L 160.297914 98.047211 
L 160.522363 91.047038 
L 160.971263 106.95936 
L 161.195712 97.125091 
L 161.420162 99.234765 
L 161.644612 105.09696 
L 161.869061 98.901406 
L 162.093511 96.841685 
L 162.317961 98.343478 
L 162.542411 97.715261 
L 162.76686 93.779612 
L 162.99131 98.049227 
L 163.21576 120.73739 
L 163.440209 97.504737 
L 163.664659 105.170912 
L 163.889109 95.599098 
L 164.113558 95.065696 
L 164.338008 101.53757 
L 164.562458 103.820073 
L 164.786907 95.017072 
L 165.011357 92.996076 
L 165.235807 105.308017 
L 165.460257 94.540253 
L 165.684706 95.924522 
L 165.909156 102.245837 
L 166.133606 102.62053 
L 166.358055 94.388584 
L 166.582505 92.207119 
L 166.806955 92.183169 
L 167.031404 105.747173 
L 167.255854 102.030201 
L 167.480304 95.604014 
L 167.929203 105.975089 
L 168.153653 98.881396 
L 168.378103 99.536861 
L 168.602552 98.804421 
L 168.827002 95.378524 
L 169.051452 94.922043 
L 169.275901 97.893761 
L 169.500351 112.677289 
L 169.724801 96.010133 
L 169.94925 93.106657 
L 170.1737 99.622074 
L 170.39815 92.56035 
L 170.6226 105.569784 
L 170.847049 95.379009 
L 171.071499 101.07872 
L 171.295949 102.781962 
L 171.520398 98.904824 
L 171.744848 97.686579 
L 171.969298 106.014526 
L 172.418197 101.776938 
L 172.642647 94.433374 
L 172.867097 104.207046 
L 173.091546 100.926993 
L 173.315996 102.063937 
L 173.540446 98.466411 
L 173.764895 112.241954 
L 173.989345 108.825708 
L 174.213795 93.402337 
L 174.438244 104.560611 
L 174.662694 101.745728 
L 174.887144 103.785302 
L 175.111593 99.838652 
L 175.336043 101.206706 
L 175.560493 96.813705 
L 175.784943 95.662804 
L 176.009392 98.844909 
L 176.233842 97.942734 
L 176.458292 107.850553 
L 176.682741 99.031465 
L 176.907191 95.617102 
L 177.131641 99.589787 
L 177.35609 94.929247 
L 177.58054 93.591289 
L 177.80499 107.796902 
L 178.253889 104.57211 
L 178.478339 97.348089 
L 178.927238 107.212141 
L 179.376138 97.886891 
L 179.600587 99.750138 
L 179.825037 94.247319 
L 180.049487 102.308354 
L 180.273936 98.163254 
L 180.498386 98.066226 
L 180.722836 93.80878 
L 181.171735 103.491659 
L 181.396185 97.27346 
L 181.620635 108.83745 
L 181.845084 106.602487 
L 182.069534 95.70014 
L 182.293984 105.672661 
L 182.518433 94.421803 
L 182.742883 114.96081 
L 182.967333 98.471241 
L 183.191783 98.390765 
L 183.416232 98.952223 
L 183.640682 99.06516 
L 183.865132 97.12329 
L 184.089581 96.657285 
L 184.314031 102.196852 
L 184.538481 101.693853 
L 184.76293 99.514681 
L 184.98738 99.260633 
L 185.21183 98.831221 
L 185.660729 101.565471 
L 185.885179 94.820067 
L 186.109629 97.302975 
L 186.334078 106.162636 
L 186.558528 93.784706 
L 187.007427 96.750724 
L 187.231877 104.59362 
L 187.456327 102.226365 
L 187.680776 94.356098 
L 187.905226 99.351002 
L 188.129676 100.329167 
L 188.354126 98.112238 
L 188.578575 98.429774 
L 188.803025 97.355792 
L 189.027475 101.413582 
L 189.251924 97.078694 
L 189.476374 104.487925 
L 189.700824 98.453057 
L 189.925273 107.401024 
L 190.149723 100.109968 
L 190.374173 99.447854 
L 190.598623 97.579532 
L 190.823072 107.43399 
L 191.047522 96.375306 
L 191.271972 108.892576 
L 191.496421 97.019135 
L 191.720871 107.759361 
L 191.945321 101.622899 
L 192.16977 103.13983 
L 192.39422 106.663279 
L 192.61867 106.456445 
L 192.843119 98.136755 
L 193.067569 96.995092 
L 193.516469 113.140741 
L 193.965368 95.149503 
L 194.189818 96.172292 
L 194.414267 102.051445 
L 194.638717 97.308188 
L 194.863167 121.663053 
L 195.087616 108.80099 
L 195.312066 111.126392 
L 195.536516 124.472727 
L 195.760966 98.864003 
L 195.985415 99.363607 
L 195.985415 99.363607 
" clip-path="url(#p3733b47154)" style="fill: none; stroke: #1e90ff; stroke-width: 0.8; stroke-linecap: square"/>
   </g>
   <g id="line2d_9">
    <path d="M 61.764497 62.975574 
L 61.988947 66.426136 
L 62.213396 64.276864 
L 62.437846 72.382536 
L 62.662296 59.376077 
L 62.886745 69.758752 
L 63.111195 62.916338 
L 63.335645 62.973969 
L 63.560095 63.802337 
L 64.008994 73.253728 
L 64.233444 64.751022 
L 64.457893 68.092708 
L 64.682343 65.444389 
L 64.906793 80.956927 
L 65.131242 69.646809 
L 65.355692 81.325669 
L 65.580142 65.135934 
L 65.804591 63.527736 
L 66.029041 68.405933 
L 66.253491 70.44279 
L 66.477941 69.203976 
L 66.70239 68.812132 
L 66.92684 72.402217 
L 67.15129 78.427669 
L 67.375739 67.201766 
L 67.600189 70.653918 
L 67.824639 71.847863 
L 68.049088 71.72971 
L 68.273538 71.944574 
L 68.497988 66.868193 
L 68.722438 66.872883 
L 68.946887 75.347831 
L 69.171337 74.053096 
L 69.395787 74.016525 
L 69.620236 67.559377 
L 69.844686 66.640724 
L 70.069136 52.256823 
L 70.293585 66.362851 
L 70.742485 72.608559 
L 70.966935 72.000725 
L 71.191384 70.949141 
L 71.415834 75.35895 
L 71.640284 69.770011 
L 71.864733 79.26962 
L 72.089183 70.88301 
L 72.313633 79.284061 
L 72.538082 69.573819 
L 72.986982 76.875374 
L 73.211431 76.962931 
L 73.435881 74.963237 
L 73.660331 71.956668 
L 73.884781 72.795594 
L 74.10923 71.840652 
L 74.33368 73.521782 
L 74.55813 83.00299 
L 74.782579 78.61097 
L 75.007029 79.041245 
L 75.231479 77.573174 
L 75.680378 73.30975 
L 75.904828 76.551193 
L 76.129278 76.693651 
L 76.353727 73.1362 
L 76.578177 74.363551 
L 77.027076 77.838903 
L 77.251526 78.771434 
L 77.475976 75.573571 
L 77.700425 80.490015 
L 77.924875 76.407041 
L 78.149325 81.131091 
L 78.373774 73.339802 
L 78.598224 84.535785 
L 78.822674 74.645899 
L 79.047124 84.846639 
L 79.271573 86.650531 
L 79.496023 83.637816 
L 79.720473 78.950114 
L 79.944922 91.219308 
L 80.169372 80.546538 
L 80.393822 76.315818 
L 80.618271 77.539152 
L 80.842721 86.100119 
L 81.067171 85.029168 
L 81.291621 78.167717 
L 81.51607 78.270989 
L 81.74052 82.507318 
L 81.96497 83.605579 
L 82.189419 75.114327 
L 82.638319 78.300356 
L 82.862768 109.446853 
L 83.087218 76.61108 
L 83.311668 88.695815 
L 83.536117 76.502321 
L 83.760567 95.497252 
L 83.985017 78.945247 
L 84.209467 92.098352 
L 84.433916 81.522222 
L 84.658366 80.94166 
L 84.882816 78.902914 
L 85.107265 79.419948 
L 85.331715 86.703137 
L 85.556165 86.239599 
L 85.780614 79.209589 
L 86.005064 77.603386 
L 86.229514 78.552706 
L 86.453964 85.590666 
L 86.902863 76.192013 
L 87.127313 77.312269 
L 87.351762 88.391197 
L 87.576212 85.10782 
L 87.800662 85.877088 
L 88.249561 84.050788 
L 88.474011 80.001842 
L 88.69846 82.838178 
L 89.14736 75.186173 
L 89.37181 85.297587 
L 89.820709 81.160136 
L 90.045159 86.525405 
L 90.269608 83.494786 
L 90.494058 85.09114 
L 90.718508 84.948647 
L 90.942957 85.038062 
L 91.167407 86.78431 
L 91.391857 82.508491 
L 91.616307 84.512698 
L 91.840756 91.477823 
L 92.065206 86.112066 
L 92.289656 88.310239 
L 92.514105 82.978933 
L 92.738555 81.757533 
L 92.963005 81.974343 
L 93.187454 81.069141 
L 93.411904 76.052406 
L 93.860804 88.859862 
L 94.085253 81.807987 
L 94.309703 95.120402 
L 94.534153 79.773294 
L 94.758602 85.71497 
L 94.983052 82.486208 
L 95.207502 83.689814 
L 95.431951 98.976332 
L 95.656401 87.073081 
L 95.880851 84.88483 
L 96.1053 91.469442 
L 96.32975 81.708095 
L 96.5542 98.348972 
L 96.77865 83.876322 
L 97.003099 81.644469 
L 97.227549 84.000749 
L 97.451999 95.332916 
L 97.676448 82.536738 
L 97.900898 85.185156 
L 98.125348 80.536872 
L 98.349797 84.234409 
L 98.574247 90.878764 
L 98.798697 87.095722 
L 99.023147 87.712 
L 99.247596 80.758828 
L 99.472046 88.325639 
L 99.696496 82.576933 
L 99.920945 88.782632 
L 100.145395 89.890901 
L 100.369845 85.465563 
L 100.594294 86.951906 
L 100.818744 86.645997 
L 101.267643 84.709581 
L 101.492093 85.25649 
L 101.716543 89.666245 
L 101.940993 88.606783 
L 102.165442 86.98795 
L 102.389892 87.516547 
L 102.614342 91.76553 
L 102.838791 78.931368 
L 103.063241 99.072194 
L 103.287691 83.110699 
L 103.51214 88.865242 
L 103.73659 86.200706 
L 104.18549 92.378701 
L 104.409939 94.191278 
L 104.634389 85.860661 
L 104.858839 93.748416 
L 105.083288 92.624007 
L 105.307738 87.784093 
L 105.532188 98.858157 
L 105.756637 96.749824 
L 105.981087 91.030925 
L 106.205537 88.421529 
L 106.429986 93.388939 
L 106.654436 88.031671 
L 106.878886 95.549623 
L 107.103336 92.469564 
L 107.327785 94.316412 
L 107.552235 89.698971 
L 108.001134 87.873751 
L 108.225584 92.344811 
L 108.450034 86.934596 
L 108.674483 92.468677 
L 108.898933 90.574912 
L 109.123383 93.59571 
L 109.347833 104.049158 
L 109.572282 99.23368 
L 109.796732 89.392858 
L 110.021182 98.664682 
L 110.245631 91.98741 
L 110.470081 97.667101 
L 110.694531 94.957473 
L 110.91898 88.711181 
L 111.14343 98.569712 
L 111.36788 90.231071 
L 111.592329 86.440368 
L 111.816779 96.902275 
L 112.041229 90.259011 
L 112.265679 97.134278 
L 112.490128 87.98829 
L 112.714578 88.209083 
L 112.939028 93.556559 
L 113.163477 103.811128 
L 113.387927 100.911923 
L 113.612377 104.427847 
L 113.836826 89.322859 
L 114.061276 93.313913 
L 114.285726 91.551379 
L 114.510176 102.590753 
L 114.734625 91.65352 
L 114.959075 99.232046 
L 115.183525 101.733892 
L 115.407974 92.759034 
L 116.081323 98.378668 
L 116.305773 94.430329 
L 116.979122 103.476976 
L 117.203572 97.530965 
L 117.428022 95.158438 
L 117.652471 79.733924 
L 117.876921 95.230683 
L 118.101371 92.382087 
L 118.32582 98.259827 
L 118.55027 100.495027 
L 118.77472 98.591682 
L 118.999169 92.789205 
L 119.223619 107.409805 
L 119.448069 103.249309 
L 119.672519 104.828847 
L 119.896968 98.567273 
L 120.121418 106.591884 
L 120.345868 107.773187 
L 120.570317 103.247566 
L 120.794767 101.698639 
L 121.019217 96.315613 
L 121.243666 105.648759 
L 121.468116 91.2547 
L 121.692566 96.135136 
L 121.917016 104.069496 
L 122.141465 98.728193 
L 122.365915 100.765701 
L 122.814814 92.551316 
L 123.039264 95.719993 
L 123.263714 93.250527 
L 123.488163 96.692235 
L 123.712613 92.930487 
L 123.937063 94.026277 
L 124.161512 102.216152 
L 124.385962 95.451613 
L 124.610412 93.509592 
L 124.834862 118.175299 
L 125.283761 91.155519 
L 125.508211 95.510223 
L 125.73266 111.197567 
L 125.95711 107.730084 
L 126.18156 92.53183 
L 126.406009 101.358005 
L 126.630459 95.504591 
L 126.854909 99.803968 
L 127.079359 98.852645 
L 127.303808 90.536866 
L 127.528258 101.017476 
L 127.752708 91.672252 
L 127.977157 97.988061 
L 128.201607 94.430492 
L 128.426057 98.288292 
L 128.650506 96.593056 
L 128.874956 97.197913 
L 129.099406 94.596989 
L 129.323855 102.815578 
L 129.548305 96.163938 
L 129.772755 94.174067 
L 130.221654 100.392043 
L 130.446104 97.973373 
L 130.670554 94.183721 
L 130.895003 97.221516 
L 131.119453 96.617125 
L 131.343903 100.260264 
L 131.568352 92.599207 
L 131.792802 91.531244 
L 132.017252 98.790175 
L 132.241702 96.7717 
L 132.466151 92.509883 
L 132.690601 90.848983 
L 132.915051 97.86707 
L 133.1395 95.938444 
L 133.36395 95.819571 
L 133.5884 104.69139 
L 133.812849 93.902956 
L 134.037299 100.172187 
L 134.261749 92.998852 
L 134.486198 97.198492 
L 134.710648 94.626193 
L 134.935098 107.277472 
L 135.159548 96.553609 
L 135.383997 99.194046 
L 135.608447 99.982235 
L 135.832897 99.892761 
L 136.057346 104.2721 
L 136.281796 100.855042 
L 136.506246 101.345655 
L 136.730695 95.99943 
L 136.955145 95.945029 
L 137.179595 92.10271 
L 137.404045 100.393476 
L 137.852944 92.736417 
L 138.077394 99.913574 
L 138.526293 91.573516 
L 138.975192 105.941746 
L 139.199642 96.599911 
L 139.424092 95.436281 
L 139.648542 92.672734 
L 140.097441 96.229275 
L 140.321891 96.70079 
L 140.54634 97.769401 
L 140.77079 120.360062 
L 140.99524 92.023848 
L 141.219689 95.629733 
L 141.444139 94.509331 
L 141.668589 97.716152 
L 141.893038 94.343164 
L 142.117488 93.357619 
L 142.341938 97.415216 
L 142.566388 95.78077 
L 142.790837 106.179337 
L 143.015287 97.964986 
L 143.239737 108.779107 
L 143.464186 94.442306 
L 143.688636 101.49838 
L 143.913086 98.016276 
L 144.137535 105.324821 
L 144.361985 96.156376 
L 144.586435 104.082286 
L 144.810885 92.182989 
L 145.035334 108.774418 
L 145.259784 96.602953 
L 145.484234 96.009672 
L 145.708683 96.60311 
L 145.933133 101.293092 
L 146.157583 108.890911 
L 146.382032 97.646687 
L 146.606482 93.517076 
L 146.830932 102.769626 
L 147.055381 97.278882 
L 147.279831 99.117361 
L 147.504281 93.985026 
L 147.728731 100.197229 
L 147.95318 99.82793 
L 148.17763 97.707655 
L 148.40208 99.279234 
L 148.626529 109.985021 
L 149.299878 99.861517 
L 149.524328 111.543676 
L 149.748778 99.319066 
L 149.973228 96.909412 
L 150.422127 100.454965 
L 150.646577 99.671341 
L 151.095476 95.762216 
L 151.319926 101.096105 
L 151.544375 98.533676 
L 151.993275 106.986353 
L 152.217724 94.734879 
L 152.442174 95.669854 
L 152.666624 103.963601 
L 152.891074 98.940324 
L 153.115523 99.508808 
L 153.339973 105.539194 
L 153.564423 106.452211 
L 153.788872 103.237611 
L 154.013322 104.635025 
L 154.237772 92.225827 
L 154.686671 104.050647 
L 154.911121 101.551699 
L 155.135571 107.469711 
L 155.36002 98.990673 
L 155.58447 103.30922 
L 155.80892 98.951582 
L 156.033369 99.635502 
L 156.257819 98.154272 
L 156.482269 103.82956 
L 156.931168 101.737708 
L 157.380067 94.621722 
L 157.828967 113.162072 
L 158.053417 102.51269 
L 158.277866 105.611048 
L 158.502316 104.773047 
L 158.726766 99.081357 
L 158.951215 108.298856 
L 159.175665 102.860485 
L 159.400115 100.413337 
L 159.624564 111.241285 
L 160.073464 106.995554 
L 160.522363 99.838191 
L 160.971263 111.818366 
L 161.195712 102.208177 
L 161.420162 106.480426 
L 161.644612 106.932492 
L 161.869061 105.0088 
L 162.093511 105.918593 
L 162.317961 110.670417 
L 162.542411 101.551481 
L 162.76686 102.937465 
L 163.21576 113.357125 
L 163.440209 106.483475 
L 163.664659 109.311588 
L 163.889109 100.863036 
L 164.113558 101.480036 
L 164.338008 105.474874 
L 164.562458 112.862181 
L 164.786907 107.528544 
L 165.011357 108.553543 
L 165.235807 98.090045 
L 165.460257 102.506256 
L 165.684706 102.759876 
L 165.909156 108.516291 
L 166.133606 109.456195 
L 166.358055 105.75193 
L 166.582505 99.851182 
L 166.806955 99.002833 
L 167.031404 104.301012 
L 167.255854 105.796074 
L 167.480304 102.28981 
L 167.704754 106.049486 
L 167.929203 103.270227 
L 168.153653 110.190966 
L 168.378103 108.124218 
L 168.602552 103.681452 
L 168.827002 101.966993 
L 169.275901 105.001046 
L 169.500351 103.181723 
L 169.724801 102.978794 
L 169.94925 109.044315 
L 170.1737 107.410362 
L 170.39815 100.906025 
L 170.6226 110.040591 
L 170.847049 103.865788 
L 171.071499 109.092852 
L 171.295949 110.677296 
L 171.520398 100.057356 
L 171.744848 101.077943 
L 171.969298 105.579497 
L 172.193747 102.249804 
L 172.418197 112.920305 
L 172.642647 103.79989 
L 172.867097 116.560588 
L 173.091546 103.440137 
L 173.315996 100.144547 
L 173.540446 106.350736 
L 173.764895 85.756895 
L 173.989345 104.853934 
L 174.213795 101.47555 
L 174.438244 105.326512 
L 174.662694 106.093807 
L 174.887144 103.065531 
L 175.336043 107.235915 
L 175.560493 104.671108 
L 176.009392 118.354004 
L 176.233842 109.575835 
L 176.458292 113.591694 
L 176.682741 113.697613 
L 176.907191 111.513816 
L 177.131641 104.950376 
L 177.35609 113.210581 
L 177.58054 100.368766 
L 177.80499 123.392428 
L 178.02944 102.930752 
L 178.253889 115.10506 
L 178.478339 102.412657 
L 178.702789 101.909416 
L 178.927238 107.79201 
L 179.151688 106.922905 
L 179.376138 108.887447 
L 179.825037 102.575818 
L 180.049487 104.383966 
L 180.273936 109.964911 
L 180.498386 100.519899 
L 180.722836 101.31944 
L 180.947286 113.608063 
L 181.171735 110.924372 
L 181.396185 98.762031 
L 181.620635 105.910334 
L 181.845084 117.74523 
L 182.293984 99.975577 
L 182.518433 101.481248 
L 182.742883 109.622812 
L 182.967333 110.41285 
L 183.416232 104.172598 
L 183.640682 104.359361 
L 183.865132 99.64675 
L 184.089581 101.262471 
L 184.314031 103.731649 
L 184.538481 108.102312 
L 184.76293 116.989482 
L 184.98738 104.716284 
L 185.21183 103.052281 
L 185.660729 105.275959 
L 185.885179 104.779483 
L 186.109629 105.323739 
L 186.334078 108.126324 
L 186.558528 104.163856 
L 186.782978 102.910443 
L 187.007427 103.910815 
L 187.231877 107.87056 
L 187.456327 107.769022 
L 187.680776 102.823648 
L 187.905226 106.005256 
L 188.129676 111.768064 
L 188.354126 104.418701 
L 188.578575 107.63312 
L 188.803025 98.899472 
L 189.027475 112.935823 
L 189.251924 103.714361 
L 189.700824 106.691907 
L 189.925273 103.064241 
L 190.149723 112.068641 
L 190.374173 109.676356 
L 190.598623 121.061589 
L 190.823072 105.803616 
L 191.047522 100.258569 
L 191.271972 112.560958 
L 191.496421 101.542382 
L 191.720871 108.45622 
L 191.945321 100.676965 
L 192.39422 111.268228 
L 192.61867 108.677671 
L 192.843119 109.137251 
L 193.067569 111.564571 
L 193.292019 108.511313 
L 193.516469 102.983472 
L 193.965368 104.394326 
L 194.189818 109.149583 
L 194.414267 99.65719 
L 194.863167 116.706229 
L 195.087616 105.287907 
L 195.312066 108.086283 
L 195.536516 103.828225 
L 195.760966 104.840657 
L 195.985415 102.732672 
L 195.985415 102.732672 
" clip-path="url(#p3733b47154)" style="fill: none; stroke: #ff0000; stroke-width: 0.8; stroke-linecap: square"/>
   </g>
   <g id="patch_3">
    <path d="M 59.52 129.12 
L 59.52 26.88 
" style="fill: none; stroke: #000000; stroke-width: 0.8; stroke-linejoin: miter; stroke-linecap: square"/>
   </g>
   <g id="patch_4">
    <path d="M 198.454362 129.12 
L 198.454362 26.88 
" style="fill: none; stroke: #000000; stroke-width: 0.8; stroke-linejoin: miter; stroke-linecap: square"/>
   </g>
   <g id="patch_5">
    <path d="M 59.52 129.12 
L 198.454362 129.12 
" style="fill: none; stroke: #000000; stroke-width: 0.8; stroke-linejoin: miter; stroke-linecap: square"/>
   </g>
   <g id="patch_6">
    <path d="M 59.52 26.88 
L 198.454362 26.88 
" style="fill: none; stroke: #000000; stroke-width: 0.8; stroke-linejoin: miter; stroke-linecap: square"/>
   </g>
   <g id="text_9">
    <!-- Frequency Domain Plot -->
    <g transform="translate(59.587806 20.88) scale(0.12 -0.12)">
     <defs>
      <path id="DejaVuSans-44" d="M 1259 4147 
L 1259 519 
L 2022 519 
Q 2988 519 3436 956 
Q 3884 1394 3884 2338 
Q 3884 3275 3436 3711 
Q 2988 4147 2022 4147 
L 1259 4147 
z
M 628 4666 
L 1925 4666 
Q 3281 4666 3915 4102 
Q 4550 3538 4550 2338 
Q 4550 1131 3912 565 
Q 3275 0 1925 0 
L 628 0 
L 628 4666 
z
" transform="scale(0.015625)"/>
      <path id="DejaVuSans-6d" d="M 3328 2828 
Q 3544 3216 3844 3400 
Q 4144 3584 4550 3584 
Q 5097 3584 5394 3201 
Q 5691 2819 5691 2113 
L 5691 0 
L 5113 0 
L 5113 2094 
Q 5113 2597 4934 2840 
Q 4756 3084 4391 3084 
Q 3944 3084 3684 2787 
Q 3425 2491 3425 1978 
L 3425 0 
L 2847 0 
L 2847 2094 
Q 2847 2600 2669 2842 
Q 2491 3084 2119 3084 
Q 1678 3084 1418 2786 
Q 1159 2488 1159 1978 
L 1159 0 
L 581 0 
L 581 3500 
L 1159 3500 
L 1159 2956 
Q 1356 3278 1631 3431 
Q 1906 3584 2284 3584 
Q 2666 3584 2933 3390 
Q 3200 3197 3328 2828 
z
" transform="scale(0.015625)"/>
      <path id="DejaVuSans-61" d="M 2194 1759 
Q 1497 1759 1228 1600 
Q 959 1441 959 1056 
Q 959 750 1161 570 
Q 1363 391 1709 391 
Q 2188 391 2477 730 
Q 2766 1069 2766 1631 
L 2766 1759 
L 2194 1759 
z
M 3341 1997 
L 3341 0 
L 2766 0 
L 2766 531 
Q 2569 213 2275 61 
Q 1981 -91 1556 -91 
Q 1019 -91 701 211 
Q 384 513 384 1019 
Q 384 1609 779 1909 
Q 1175 2209 1959 2209 
L 2766 2209 
L 2766 2266 
Q 2766 2663 2505 2880 
Q 2244 3097 1772 3097 
Q 1472 3097 1187 3025 
Q 903 2953 641 2809 
L 641 3341 
Q 956 3463 1253 3523 
Q 1550 3584 1831 3584 
Q 2591 3584 2966 3190 
Q 3341 2797 3341 1997 
z
" transform="scale(0.015625)"/>
      <path id="DejaVuSans-69" d="M 603 3500 
L 1178 3500 
L 1178 0 
L 603 0 
L 603 3500 
z
M 603 4863 
L 1178 4863 
L 1178 4134 
L 603 4134 
L 603 4863 
z
" transform="scale(0.015625)"/>
      <path id="DejaVuSans-50" d="M 1259 4147 
L 1259 2394 
L 2053 2394 
Q 2494 2394 2734 2622 
Q 2975 2850 2975 3272 
Q 2975 3691 2734 3919 
Q 2494 4147 2053 4147 
L 1259 4147 
z
M 628 4666 
L 2053 4666 
Q 2838 4666 3239 4311 
Q 3641 3956 3641 3272 
Q 3641 2581 3239 2228 
Q 2838 1875 2053 1875 
L 1259 1875 
L 1259 0 
L 628 0 
L 628 4666 
z
" transform="scale(0.015625)"/>
      <path id="DejaVuSans-6c" d="M 603 4863 
L 1178 4863 
L 1178 0 
L 603 0 
L 603 4863 
z
" transform="scale(0.015625)"/>
      <path id="DejaVuSans-74" d="M 1172 4494 
L 1172 3500 
L 2356 3500 
L 2356 3053 
L 1172 3053 
L 1172 1153 
Q 1172 725 1289 603 
Q 1406 481 1766 481 
L 2356 481 
L 2356 0 
L 1766 0 
Q 1100 0 847 248 
Q 594 497 594 1153 
L 594 3053 
L 172 3053 
L 172 3500 
L 594 3500 
L 594 4494 
L 1172 4494 
z
" transform="scale(0.015625)"/>
     </defs>
     <use xlink:href="#DejaVuSans-46"/>
     <use xlink:href="#DejaVuSans-72" x="50.269531"/>
     <use xlink:href="#DejaVuSans-65" x="89.132812"/>
     <use xlink:href="#DejaVuSans-71" x="150.65625"/>
     <use xlink:href="#DejaVuSans-75" x="214.132812"/>
     <use xlink:href="#DejaVuSans-65" x="277.511719"/>
     <use xlink:href="#DejaVuSans-6e" x="339.035156"/>
     <use xlink:href="#DejaVuSans-63" x="402.414062"/>
     <use xlink:href="#DejaVuSans-79" x="457.394531"/>
     <use xlink:href="#DejaVuSans-20" x="516.574219"/>
     <use xlink:href="#DejaVuSans-44" x="548.361328"/>
     <use xlink:href="#DejaVuSans-6f" x="625.363281"/>
     <use xlink:href="#DejaVuSans-6d" x="686.544922"/>
     <use xlink:href="#DejaVuSans-61" x="783.957031"/>
     <use xlink:href="#DejaVuSans-69" x="845.236328"/>
     <use xlink:href="#DejaVuSans-6e" x="873.019531"/>
     <use xlink:href="#DejaVuSans-20" x="936.398438"/>
     <use xlink:href="#DejaVuSans-50" x="968.185547"/>
     <use xlink:href="#DejaVuSans-6c" x="1028.488281"/>
     <use xlink:href="#DejaVuSans-6f" x="1056.271484"/>
     <use xlink:href="#DejaVuSans-74" x="1117.453125"/>
    </g>
   </g>
   <g id="legend_1">
    <g id="patch_7">
     <path d="M 19.939691 158.292 
L 50.807816 158.292 
Q 51.407816 158.292 51.407816 157.692 
L 51.407816 144.781688 
Q 51.407816 144.181688 50.807816 144.181688 
L 19.939691 144.181688 
Q 19.339691 144.181688 19.339691 144.781688 
L 19.339691 157.692 
Q 19.339691 158.292 19.939691 158.292 
z
" style="fill: #ffffff; opacity: 0.8; stroke: #cccccc; stroke-linejoin: miter"/>
    </g>
    <g id="line2d_10">
     <path d="M 20.539691 146.611219 
L 23.539691 146.611219 
L 26.539691 146.611219 
" style="fill: none; stroke: #808080; stroke-width: 0.8; stroke-linecap: square"/>
    </g>
    <g id="text_10">
     <!-- Contaminated -->
     <g transform="translate(28.939691 147.661219) scale(0.03 -0.03)">
      <defs>
       <path id="DejaVuSans-43" d="M 4122 4306 
L 4122 3641 
Q 3803 3938 3442 4084 
Q 3081 4231 2675 4231 
Q 1875 4231 1450 3742 
Q 1025 3253 1025 2328 
Q 1025 1406 1450 917 
Q 1875 428 2675 428 
Q 3081 428 3442 575 
Q 3803 722 4122 1019 
L 4122 359 
Q 3791 134 3420 21 
Q 3050 -91 2638 -91 
Q 1578 -91 968 557 
Q 359 1206 359 2328 
Q 359 3453 968 4101 
Q 1578 4750 2638 4750 
Q 3056 4750 3426 4639 
Q 3797 4528 4122 4306 
z
" transform="scale(0.015625)"/>
      </defs>
      <use xlink:href="#DejaVuSans-43"/>
      <use xlink:href="#DejaVuSans-6f" x="69.824219"/>
      <use xlink:href="#DejaVuSans-6e" x="131.005859"/>
      <use xlink:href="#DejaVuSans-74" x="194.384766"/>
      <use xlink:href="#DejaVuSans-61" x="233.59375"/>
      <use xlink:href="#DejaVuSans-6d" x="294.873047"/>
      <use xlink:href="#DejaVuSans-69" x="392.285156"/>
      <use xlink:href="#DejaVuSans-6e" x="420.068359"/>
      <use xlink:href="#DejaVuSans-61" x="483.447266"/>
      <use xlink:href="#DejaVuSans-74" x="544.726562"/>
      <use xlink:href="#DejaVuSans-65" x="583.935547"/>
      <use xlink:href="#DejaVuSans-64" x="645.458984"/>
     </g>
    </g>
    <g id="line2d_11">
     <path d="M 20.539691 151.014656 
L 23.539691 151.014656 
L 26.539691 151.014656 
" style="fill: none; stroke: #1e90ff; stroke-width: 0.8; stroke-linecap: square"/>
    </g>
    <g id="text_11">
     <!-- Clean -->
     <g transform="translate(28.939691 152.064656) scale(0.03 -0.03)">
      <use xlink:href="#DejaVuSans-43"/>
      <use xlink:href="#DejaVuSans-6c" x="69.824219"/>
      <use xlink:href="#DejaVuSans-65" x="97.607422"/>
      <use xlink:href="#DejaVuSans-61" x="159.130859"/>
      <use xlink:href="#DejaVuSans-6e" x="220.410156"/>
     </g>
    </g>
    <g id="line2d_12">
     <path d="M 20.539691 155.418094 
L 23.539691 155.418094 
L 26.539691 155.418094 
" style="fill: none; stroke: #ff0000; stroke-width: 0.8; stroke-linecap: square"/>
    </g>
    <g id="text_12">
     <!-- SACed -->
     <g transform="translate(28.939691 156.468094) scale(0.03 -0.03)">
      <defs>
       <path id="DejaVuSans-53" d="M 3425 4513 
L 3425 3897 
Q 3066 4069 2747 4153 
Q 2428 4238 2131 4238 
Q 1616 4238 1336 4038 
Q 1056 3838 1056 3469 
Q 1056 3159 1242 3001 
Q 1428 2844 1947 2747 
L 2328 2669 
Q 3034 2534 3370 2195 
Q 3706 1856 3706 1288 
Q 3706 609 3251 259 
Q 2797 -91 1919 -91 
Q 1588 -91 1214 -16 
Q 841 59 441 206 
L 441 856 
Q 825 641 1194 531 
Q 1563 422 1919 422 
Q 2459 422 2753 634 
Q 3047 847 3047 1241 
Q 3047 1584 2836 1778 
Q 2625 1972 2144 2069 
L 1759 2144 
Q 1053 2284 737 2584 
Q 422 2884 422 3419 
Q 422 4038 858 4394 
Q 1294 4750 2059 4750 
Q 2388 4750 2728 4690 
Q 3069 4631 3425 4513 
z
" transform="scale(0.015625)"/>
       <path id="DejaVuSans-41" d="M 2188 4044 
L 1331 1722 
L 3047 1722 
L 2188 4044 
z
M 1831 4666 
L 2547 4666 
L 4325 0 
L 3669 0 
L 3244 1197 
L 1141 1197 
L 716 0 
L 50 0 
L 1831 4666 
z
" transform="scale(0.015625)"/>
      </defs>
      <use xlink:href="#DejaVuSans-53"/>
      <use xlink:href="#DejaVuSans-41" x="65.351562"/>
      <use xlink:href="#DejaVuSans-43" x="132.009766"/>
      <use xlink:href="#DejaVuSans-65" x="201.833984"/>
      <use xlink:href="#DejaVuSans-64" x="263.357422"/>
     </g>
    </g>
   </g>
  </g>
 </g>
 <defs>
  <clipPath id="p3733b47154">
   <rect x="59.52" y="26.88" width="138.934362" height="102.24"/>
  </clipPath>
 </defs>
</svg>
