<?xml version="1.0" encoding="utf-8" standalone="no"?>
<!DOCTYPE svg PUBLIC "-//W3C//DTD SVG 1.1//EN"
  "http://www.w3.org/Graphics/SVG/1.1/DTD/svg11.dtd">
<svg xmlns:xlink="http://www.w3.org/1999/xlink" width="216pt" height="180pt" viewBox="0 0 216 180" xmlns="http://www.w3.org/2000/svg" version="1.1">
 <metadata>
  <rdf:RDF xmlns:dc="http://purl.org/dc/elements/1.1/" xmlns:cc="http://creativecommons.org/ns#" xmlns:rdf="http://www.w3.org/1999/02/22-rdf-syntax-ns#">
   <cc:Work>
    <dc:type rdf:resource="http://purl.org/dc/dcmitype/StillImage"/>
    <dc:date>2024-08-26T04:31:00.742630</dc:date>
    <dc:format>image/svg+xml</dc:format>
    <dc:creator>
     <cc:Agent>
      <dc:title>Matplotlib v3.9.1, https://matplotlib.org/</dc:title>
     </cc:Agent>
    </dc:creator>
   </cc:Work>
  </rdf:RDF>
 </metadata>
 <defs>
  <style type="text/css">*{stroke-linejoin: round; stroke-linecap: butt}</style>
 </defs>
 <g id="figure_1">
  <g id="patch_1">
   <path d="M 0 180 
L 216 180 
L 216 0 
L 0 0 
z
" style="fill: #ffffff"/>
  </g>
  <g id="axes_1">
   <g id="patch_2">
    <path d="M 59.52 129.12 
L 198.454362 129.12 
L 198.454362 26.88 
L 59.52 26.88 
z
" style="fill: #ffffff"/>
   </g>
   <g id="matplotlib.axis_1">
    <g id="xtick_1">
     <g id="line2d_1">
      <defs>
       <path id="m1f1525922c" d="M 0 0 
L 0 3.5 
" style="stroke: #000000; stroke-width: 0.8"/>
      </defs>
      <g>
       <use xlink:href="#m1f1525922c" x="61.540047" y="129.12" style="stroke: #000000; stroke-width: 0.8"/>
      </g>
     </g>
     <g id="text_1">
      <!-- 0 -->
      <g transform="translate(58.358797 143.718437) scale(0.1 -0.1)">
       <defs>
        <path id="DejaVuSans-30" d="M 2034 4250 
Q 1547 4250 1301 3770 
Q 1056 3291 1056 2328 
Q 1056 1369 1301 889 
Q 1547 409 2034 409 
Q 2525 409 2770 889 
Q 3016 1369 3016 2328 
Q 3016 3291 2770 3770 
Q 2525 4250 2034 4250 
z
M 2034 4750 
Q 2819 4750 3233 4129 
Q 3647 3509 3647 2328 
Q 3647 1150 3233 529 
Q 2819 -91 2034 -91 
Q 1250 -91 836 529 
Q 422 1150 422 2328 
Q 422 3509 836 4129 
Q 1250 4750 2034 4750 
z
" transform="scale(0.015625)"/>
       </defs>
       <use xlink:href="#DejaVuSans-30"/>
      </g>
     </g>
    </g>
    <g id="xtick_2">
     <g id="line2d_2">
      <g>
       <use xlink:href="#m1f1525922c" x="128.874956" y="129.12" style="stroke: #000000; stroke-width: 0.8"/>
      </g>
     </g>
     <g id="text_2">
      <!-- 150 -->
      <g transform="translate(119.331206 143.718437) scale(0.1 -0.1)">
       <defs>
        <path id="DejaVuSans-31" d="M 794 531 
L 1825 531 
L 1825 4091 
L 703 3866 
L 703 4441 
L 1819 4666 
L 2450 4666 
L 2450 531 
L 3481 531 
L 3481 0 
L 794 0 
L 794 531 
z
" transform="scale(0.015625)"/>
        <path id="DejaVuSans-35" d="M 691 4666 
L 3169 4666 
L 3169 4134 
L 1269 4134 
L 1269 2991 
Q 1406 3038 1543 3061 
Q 1681 3084 1819 3084 
Q 2600 3084 3056 2656 
Q 3513 2228 3513 1497 
Q 3513 744 3044 326 
Q 2575 -91 1722 -91 
Q 1428 -91 1123 -41 
Q 819 9 494 109 
L 494 744 
Q 775 591 1075 516 
Q 1375 441 1709 441 
Q 2250 441 2565 725 
Q 2881 1009 2881 1497 
Q 2881 1984 2565 2268 
Q 2250 2553 1709 2553 
Q 1456 2553 1204 2497 
Q 953 2441 691 2322 
L 691 4666 
z
" transform="scale(0.015625)"/>
       </defs>
       <use xlink:href="#DejaVuSans-31"/>
       <use xlink:href="#DejaVuSans-35" x="63.623047"/>
       <use xlink:href="#DejaVuSans-30" x="127.246094"/>
      </g>
     </g>
    </g>
    <g id="xtick_3">
     <g id="line2d_3">
      <g>
       <use xlink:href="#m1f1525922c" x="196.209865" y="129.12" style="stroke: #000000; stroke-width: 0.8"/>
      </g>
     </g>
     <g id="text_3">
      <!-- 300 -->
      <g transform="translate(186.666115 143.718437) scale(0.1 -0.1)">
       <defs>
        <path id="DejaVuSans-33" d="M 2597 2516 
Q 3050 2419 3304 2112 
Q 3559 1806 3559 1356 
Q 3559 666 3084 287 
Q 2609 -91 1734 -91 
Q 1441 -91 1130 -33 
Q 819 25 488 141 
L 488 750 
Q 750 597 1062 519 
Q 1375 441 1716 441 
Q 2309 441 2620 675 
Q 2931 909 2931 1356 
Q 2931 1769 2642 2001 
Q 2353 2234 1838 2234 
L 1294 2234 
L 1294 2753 
L 1863 2753 
Q 2328 2753 2575 2939 
Q 2822 3125 2822 3475 
Q 2822 3834 2567 4026 
Q 2313 4219 1838 4219 
Q 1578 4219 1281 4162 
Q 984 4106 628 3988 
L 628 4550 
Q 988 4650 1302 4700 
Q 1616 4750 1894 4750 
Q 2613 4750 3031 4423 
Q 3450 4097 3450 3541 
Q 3450 3153 3228 2886 
Q 3006 2619 2597 2516 
z
" transform="scale(0.015625)"/>
       </defs>
       <use xlink:href="#DejaVuSans-33"/>
       <use xlink:href="#DejaVuSans-30" x="63.623047"/>
       <use xlink:href="#DejaVuSans-30" x="127.246094"/>
      </g>
     </g>
    </g>
    <g id="text_4">
     <!-- Frequency (Hz) -->
     <g transform="translate(91.282493 157.396563) scale(0.1 -0.1)">
      <defs>
       <path id="DejaVuSans-46" d="M 628 4666 
L 3309 4666 
L 3309 4134 
L 1259 4134 
L 1259 2759 
L 3109 2759 
L 3109 2228 
L 1259 2228 
L 1259 0 
L 628 0 
L 628 4666 
z
" transform="scale(0.015625)"/>
       <path id="DejaVuSans-72" d="M 2631 2963 
Q 2534 3019 2420 3045 
Q 2306 3072 2169 3072 
Q 1681 3072 1420 2755 
Q 1159 2438 1159 1844 
L 1159 0 
L 581 0 
L 581 3500 
L 1159 3500 
L 1159 2956 
Q 1341 3275 1631 3429 
Q 1922 3584 2338 3584 
Q 2397 3584 2469 3576 
Q 2541 3569 2628 3553 
L 2631 2963 
z
" transform="scale(0.015625)"/>
       <path id="DejaVuSans-65" d="M 3597 1894 
L 3597 1613 
L 953 1613 
Q 991 1019 1311 708 
Q 1631 397 2203 397 
Q 2534 397 2845 478 
Q 3156 559 3463 722 
L 3463 178 
Q 3153 47 2828 -22 
Q 2503 -91 2169 -91 
Q 1331 -91 842 396 
Q 353 884 353 1716 
Q 353 2575 817 3079 
Q 1281 3584 2069 3584 
Q 2775 3584 3186 3129 
Q 3597 2675 3597 1894 
z
M 3022 2063 
Q 3016 2534 2758 2815 
Q 2500 3097 2075 3097 
Q 1594 3097 1305 2825 
Q 1016 2553 972 2059 
L 3022 2063 
z
" transform="scale(0.015625)"/>
       <path id="DejaVuSans-71" d="M 947 1747 
Q 947 1113 1208 752 
Q 1469 391 1925 391 
Q 2381 391 2643 752 
Q 2906 1113 2906 1747 
Q 2906 2381 2643 2742 
Q 2381 3103 1925 3103 
Q 1469 3103 1208 2742 
Q 947 2381 947 1747 
z
M 2906 525 
Q 2725 213 2448 61 
Q 2172 -91 1784 -91 
Q 1150 -91 751 415 
Q 353 922 353 1747 
Q 353 2572 751 3078 
Q 1150 3584 1784 3584 
Q 2172 3584 2448 3432 
Q 2725 3281 2906 2969 
L 2906 3500 
L 3481 3500 
L 3481 -1331 
L 2906 -1331 
L 2906 525 
z
" transform="scale(0.015625)"/>
       <path id="DejaVuSans-75" d="M 544 1381 
L 544 3500 
L 1119 3500 
L 1119 1403 
Q 1119 906 1312 657 
Q 1506 409 1894 409 
Q 2359 409 2629 706 
Q 2900 1003 2900 1516 
L 2900 3500 
L 3475 3500 
L 3475 0 
L 2900 0 
L 2900 538 
Q 2691 219 2414 64 
Q 2138 -91 1772 -91 
Q 1169 -91 856 284 
Q 544 659 544 1381 
z
M 1991 3584 
L 1991 3584 
z
" transform="scale(0.015625)"/>
       <path id="DejaVuSans-6e" d="M 3513 2113 
L 3513 0 
L 2938 0 
L 2938 2094 
Q 2938 2591 2744 2837 
Q 2550 3084 2163 3084 
Q 1697 3084 1428 2787 
Q 1159 2491 1159 1978 
L 1159 0 
L 581 0 
L 581 3500 
L 1159 3500 
L 1159 2956 
Q 1366 3272 1645 3428 
Q 1925 3584 2291 3584 
Q 2894 3584 3203 3211 
Q 3513 2838 3513 2113 
z
" transform="scale(0.015625)"/>
       <path id="DejaVuSans-63" d="M 3122 3366 
L 3122 2828 
Q 2878 2963 2633 3030 
Q 2388 3097 2138 3097 
Q 1578 3097 1268 2742 
Q 959 2388 959 1747 
Q 959 1106 1268 751 
Q 1578 397 2138 397 
Q 2388 397 2633 464 
Q 2878 531 3122 666 
L 3122 134 
Q 2881 22 2623 -34 
Q 2366 -91 2075 -91 
Q 1284 -91 818 406 
Q 353 903 353 1747 
Q 353 2603 823 3093 
Q 1294 3584 2113 3584 
Q 2378 3584 2631 3529 
Q 2884 3475 3122 3366 
z
" transform="scale(0.015625)"/>
       <path id="DejaVuSans-79" d="M 2059 -325 
Q 1816 -950 1584 -1140 
Q 1353 -1331 966 -1331 
L 506 -1331 
L 506 -850 
L 844 -850 
Q 1081 -850 1212 -737 
Q 1344 -625 1503 -206 
L 1606 56 
L 191 3500 
L 800 3500 
L 1894 763 
L 2988 3500 
L 3597 3500 
L 2059 -325 
z
" transform="scale(0.015625)"/>
       <path id="DejaVuSans-20" transform="scale(0.015625)"/>
       <path id="DejaVuSans-28" d="M 1984 4856 
Q 1566 4138 1362 3434 
Q 1159 2731 1159 2009 
Q 1159 1288 1364 580 
Q 1569 -128 1984 -844 
L 1484 -844 
Q 1016 -109 783 600 
Q 550 1309 550 2009 
Q 550 2706 781 3412 
Q 1013 4119 1484 4856 
L 1984 4856 
z
" transform="scale(0.015625)"/>
       <path id="DejaVuSans-48" d="M 628 4666 
L 1259 4666 
L 1259 2753 
L 3553 2753 
L 3553 4666 
L 4184 4666 
L 4184 0 
L 3553 0 
L 3553 2222 
L 1259 2222 
L 1259 0 
L 628 0 
L 628 4666 
z
" transform="scale(0.015625)"/>
       <path id="DejaVuSans-7a" d="M 353 3500 
L 3084 3500 
L 3084 2975 
L 922 459 
L 3084 459 
L 3084 0 
L 275 0 
L 275 525 
L 2438 3041 
L 353 3041 
L 353 3500 
z
" transform="scale(0.015625)"/>
       <path id="DejaVuSans-29" d="M 513 4856 
L 1013 4856 
Q 1481 4119 1714 3412 
Q 1947 2706 1947 2009 
Q 1947 1309 1714 600 
Q 1481 -109 1013 -844 
L 513 -844 
Q 928 -128 1133 580 
Q 1338 1288 1338 2009 
Q 1338 2731 1133 3434 
Q 928 4138 513 4856 
z
" transform="scale(0.015625)"/>
      </defs>
      <use xlink:href="#DejaVuSans-46"/>
      <use xlink:href="#DejaVuSans-72" x="50.269531"/>
      <use xlink:href="#DejaVuSans-65" x="89.132812"/>
      <use xlink:href="#DejaVuSans-71" x="150.65625"/>
      <use xlink:href="#DejaVuSans-75" x="214.132812"/>
      <use xlink:href="#DejaVuSans-65" x="277.511719"/>
      <use xlink:href="#DejaVuSans-6e" x="339.035156"/>
      <use xlink:href="#DejaVuSans-63" x="402.414062"/>
      <use xlink:href="#DejaVuSans-79" x="457.394531"/>
      <use xlink:href="#DejaVuSans-20" x="516.574219"/>
      <use xlink:href="#DejaVuSans-28" x="548.361328"/>
      <use xlink:href="#DejaVuSans-48" x="587.375"/>
      <use xlink:href="#DejaVuSans-7a" x="662.570312"/>
      <use xlink:href="#DejaVuSans-29" x="715.060547"/>
     </g>
    </g>
   </g>
   <g id="matplotlib.axis_2">
    <g id="ytick_1">
     <g id="line2d_4">
      <defs>
       <path id="m51f37e28d9" d="M 0 0 
L -3.5 0 
" style="stroke: #000000; stroke-width: 0.8"/>
      </defs>
      <g>
       <use xlink:href="#m51f37e28d9" x="59.52" y="117.158836" style="stroke: #000000; stroke-width: 0.8"/>
      </g>
     </g>
     <g id="text_5">
      <!-- $\mathdefault{10^{-3}}$ -->
      <g transform="translate(29.02 120.958054) scale(0.1 -0.1)">
       <defs>
        <path id="DejaVuSans-2212" d="M 678 2272 
L 4684 2272 
L 4684 1741 
L 678 1741 
L 678 2272 
z
" transform="scale(0.015625)"/>
       </defs>
       <use xlink:href="#DejaVuSans-31" transform="translate(0 0.765625)"/>
       <use xlink:href="#DejaVuSans-30" transform="translate(63.623047 0.765625)"/>
       <use xlink:href="#DejaVuSans-2212" transform="translate(128.203125 39.046875) scale(0.7)"/>
       <use xlink:href="#DejaVuSans-33" transform="translate(186.855469 39.046875) scale(0.7)"/>
      </g>
     </g>
    </g>
    <g id="ytick_2">
     <g id="line2d_5">
      <g>
       <use xlink:href="#m51f37e28d9" x="59.52" y="96.621585" style="stroke: #000000; stroke-width: 0.8"/>
      </g>
     </g>
     <g id="text_6">
      <!-- $\mathdefault{10^{-1}}$ -->
      <g transform="translate(29.02 100.420803) scale(0.1 -0.1)">
       <use xlink:href="#DejaVuSans-31" transform="translate(0 0.684375)"/>
       <use xlink:href="#DejaVuSans-30" transform="translate(63.623047 0.684375)"/>
       <use xlink:href="#DejaVuSans-2212" transform="translate(128.203125 38.965625) scale(0.7)"/>
       <use xlink:href="#DejaVuSans-31" transform="translate(186.855469 38.965625) scale(0.7)"/>
      </g>
     </g>
    </g>
    <g id="ytick_3">
     <g id="line2d_6">
      <g>
       <use xlink:href="#m51f37e28d9" x="59.52" y="76.084334" style="stroke: #000000; stroke-width: 0.8"/>
      </g>
     </g>
     <g id="text_7">
      <!-- $\mathdefault{10^{1}}$ -->
      <g transform="translate(34.92 79.883552) scale(0.1 -0.1)">
       <use xlink:href="#DejaVuSans-31" transform="translate(0 0.684375)"/>
       <use xlink:href="#DejaVuSans-30" transform="translate(63.623047 0.684375)"/>
       <use xlink:href="#DejaVuSans-31" transform="translate(128.203125 38.965625) scale(0.7)"/>
      </g>
     </g>
    </g>
    <g id="ytick_4">
     <g id="line2d_7">
      <g>
       <use xlink:href="#m51f37e28d9" x="59.52" y="55.547083" style="stroke: #000000; stroke-width: 0.8"/>
      </g>
     </g>
     <g id="text_8">
      <!-- $\mathdefault{10^{3}}$ -->
      <g transform="translate(34.92 59.346302) scale(0.1 -0.1)">
       <use xlink:href="#DejaVuSans-31" transform="translate(0 0.765625)"/>
       <use xlink:href="#DejaVuSans-30" transform="translate(63.623047 0.765625)"/>
       <use xlink:href="#DejaVuSans-33" transform="translate(128.203125 39.046875) scale(0.7)"/>
      </g>
     </g>
    </g>
    <g id="ytick_5">
     <g id="line2d_8">
      <g>
       <use xlink:href="#m51f37e28d9" x="59.52" y="35.009832" style="stroke: #000000; stroke-width: 0.8"/>
      </g>
     </g>
     <g id="text_9">
      <!-- $\mathdefault{10^{5}}$ -->
      <g transform="translate(34.92 38.809051) scale(0.1 -0.1)">
       <use xlink:href="#DejaVuSans-31" transform="translate(0 0.684375)"/>
       <use xlink:href="#DejaVuSans-30" transform="translate(63.623047 0.684375)"/>
       <use xlink:href="#DejaVuSans-35" transform="translate(128.203125 38.965625) scale(0.7)"/>
      </g>
     </g>
    </g>
    <g id="text_10">
     <!-- Log power (dB/Hz) -->
     <g transform="translate(22.940312 124.139844) rotate(-90) scale(0.1 -0.1)">
      <defs>
       <path id="DejaVuSans-4c" d="M 628 4666 
L 1259 4666 
L 1259 531 
L 3531 531 
L 3531 0 
L 628 0 
L 628 4666 
z
" transform="scale(0.015625)"/>
       <path id="DejaVuSans-6f" d="M 1959 3097 
Q 1497 3097 1228 2736 
Q 959 2375 959 1747 
Q 959 1119 1226 758 
Q 1494 397 1959 397 
Q 2419 397 2687 759 
Q 2956 1122 2956 1747 
Q 2956 2369 2687 2733 
Q 2419 3097 1959 3097 
z
M 1959 3584 
Q 2709 3584 3137 3096 
Q 3566 2609 3566 1747 
Q 3566 888 3137 398 
Q 2709 -91 1959 -91 
Q 1206 -91 779 398 
Q 353 888 353 1747 
Q 353 2609 779 3096 
Q 1206 3584 1959 3584 
z
" transform="scale(0.015625)"/>
       <path id="DejaVuSans-67" d="M 2906 1791 
Q 2906 2416 2648 2759 
Q 2391 3103 1925 3103 
Q 1463 3103 1205 2759 
Q 947 2416 947 1791 
Q 947 1169 1205 825 
Q 1463 481 1925 481 
Q 2391 481 2648 825 
Q 2906 1169 2906 1791 
z
M 3481 434 
Q 3481 -459 3084 -895 
Q 2688 -1331 1869 -1331 
Q 1566 -1331 1297 -1286 
Q 1028 -1241 775 -1147 
L 775 -588 
Q 1028 -725 1275 -790 
Q 1522 -856 1778 -856 
Q 2344 -856 2625 -561 
Q 2906 -266 2906 331 
L 2906 616 
Q 2728 306 2450 153 
Q 2172 0 1784 0 
Q 1141 0 747 490 
Q 353 981 353 1791 
Q 353 2603 747 3093 
Q 1141 3584 1784 3584 
Q 2172 3584 2450 3431 
Q 2728 3278 2906 2969 
L 2906 3500 
L 3481 3500 
L 3481 434 
z
" transform="scale(0.015625)"/>
       <path id="DejaVuSans-70" d="M 1159 525 
L 1159 -1331 
L 581 -1331 
L 581 3500 
L 1159 3500 
L 1159 2969 
Q 1341 3281 1617 3432 
Q 1894 3584 2278 3584 
Q 2916 3584 3314 3078 
Q 3713 2572 3713 1747 
Q 3713 922 3314 415 
Q 2916 -91 2278 -91 
Q 1894 -91 1617 61 
Q 1341 213 1159 525 
z
M 3116 1747 
Q 3116 2381 2855 2742 
Q 2594 3103 2138 3103 
Q 1681 3103 1420 2742 
Q 1159 2381 1159 1747 
Q 1159 1113 1420 752 
Q 1681 391 2138 391 
Q 2594 391 2855 752 
Q 3116 1113 3116 1747 
z
" transform="scale(0.015625)"/>
       <path id="DejaVuSans-77" d="M 269 3500 
L 844 3500 
L 1563 769 
L 2278 3500 
L 2956 3500 
L 3675 769 
L 4391 3500 
L 4966 3500 
L 4050 0 
L 3372 0 
L 2619 2869 
L 1863 0 
L 1184 0 
L 269 3500 
z
" transform="scale(0.015625)"/>
       <path id="DejaVuSans-64" d="M 2906 2969 
L 2906 4863 
L 3481 4863 
L 3481 0 
L 2906 0 
L 2906 525 
Q 2725 213 2448 61 
Q 2172 -91 1784 -91 
Q 1150 -91 751 415 
Q 353 922 353 1747 
Q 353 2572 751 3078 
Q 1150 3584 1784 3584 
Q 2172 3584 2448 3432 
Q 2725 3281 2906 2969 
z
M 947 1747 
Q 947 1113 1208 752 
Q 1469 391 1925 391 
Q 2381 391 2643 752 
Q 2906 1113 2906 1747 
Q 2906 2381 2643 2742 
Q 2381 3103 1925 3103 
Q 1469 3103 1208 2742 
Q 947 2381 947 1747 
z
" transform="scale(0.015625)"/>
       <path id="DejaVuSans-42" d="M 1259 2228 
L 1259 519 
L 2272 519 
Q 2781 519 3026 730 
Q 3272 941 3272 1375 
Q 3272 1813 3026 2020 
Q 2781 2228 2272 2228 
L 1259 2228 
z
M 1259 4147 
L 1259 2741 
L 2194 2741 
Q 2656 2741 2882 2914 
Q 3109 3088 3109 3444 
Q 3109 3797 2882 3972 
Q 2656 4147 2194 4147 
L 1259 4147 
z
M 628 4666 
L 2241 4666 
Q 2963 4666 3353 4366 
Q 3744 4066 3744 3513 
Q 3744 3084 3544 2831 
Q 3344 2578 2956 2516 
Q 3422 2416 3680 2098 
Q 3938 1781 3938 1306 
Q 3938 681 3513 340 
Q 3088 0 2303 0 
L 628 0 
L 628 4666 
z
" transform="scale(0.015625)"/>
       <path id="DejaVuSans-2f" d="M 1625 4666 
L 2156 4666 
L 531 -594 
L 0 -594 
L 1625 4666 
z
" transform="scale(0.015625)"/>
      </defs>
      <use xlink:href="#DejaVuSans-4c"/>
      <use xlink:href="#DejaVuSans-6f" x="53.962891"/>
      <use xlink:href="#DejaVuSans-67" x="115.144531"/>
      <use xlink:href="#DejaVuSans-20" x="178.621094"/>
      <use xlink:href="#DejaVuSans-70" x="210.408203"/>
      <use xlink:href="#DejaVuSans-6f" x="273.884766"/>
      <use xlink:href="#DejaVuSans-77" x="335.066406"/>
      <use xlink:href="#DejaVuSans-65" x="416.853516"/>
      <use xlink:href="#DejaVuSans-72" x="478.376953"/>
      <use xlink:href="#DejaVuSans-20" x="519.490234"/>
      <use xlink:href="#DejaVuSans-28" x="551.277344"/>
      <use xlink:href="#DejaVuSans-64" x="590.291016"/>
      <use xlink:href="#DejaVuSans-42" x="653.767578"/>
      <use xlink:href="#DejaVuSans-2f" x="722.371094"/>
      <use xlink:href="#DejaVuSans-48" x="756.0625"/>
      <use xlink:href="#DejaVuSans-7a" x="831.257812"/>
      <use xlink:href="#DejaVuSans-29" x="883.748047"/>
     </g>
    </g>
   </g>
   <g id="line2d_9">
    <path d="M 61.764497 79.796835 
L 61.988947 68.26611 
L 62.213396 69.280784 
L 62.437846 64.991358 
L 62.662296 78.185779 
L 62.886745 72.855456 
L 63.111195 75.135332 
L 63.335645 68.945481 
L 63.560095 70.574479 
L 63.784544 73.994573 
L 64.008994 82.714033 
L 64.233444 70.901364 
L 64.457893 76.581635 
L 64.682343 76.815594 
L 64.906793 72.831584 
L 65.131242 65.697415 
L 65.355692 69.215375 
L 65.580142 77.304754 
L 65.804591 76.616379 
L 66.029041 77.453412 
L 66.253491 74.282208 
L 66.477941 76.282078 
L 66.70239 88.393462 
L 66.92684 65.925731 
L 67.15129 82.760111 
L 67.375739 85.68881 
L 67.600189 80.062837 
L 67.824639 67.764844 
L 68.049088 69.615713 
L 68.273538 67.479972 
L 68.497988 76.097252 
L 68.722438 78.708742 
L 68.946887 68.712409 
L 69.395787 75.675645 
L 69.620236 73.41264 
L 69.844686 76.970978 
L 70.293585 60.887017 
L 70.518035 56.619275 
L 70.966935 80.505591 
L 71.191384 83.735798 
L 71.415834 70.629873 
L 71.640284 70.552883 
L 71.864733 86.287485 
L 72.089183 74.834476 
L 72.313633 78.534003 
L 72.762532 74.166913 
L 72.986982 79.293889 
L 73.211431 77.854443 
L 73.435881 70.261087 
L 73.884781 94.618409 
L 74.10923 80.182915 
L 74.33368 76.861682 
L 74.55813 77.071869 
L 74.782579 73.547978 
L 75.007029 74.518619 
L 75.231479 74.676342 
L 75.455928 76.579817 
L 75.680378 81.198402 
L 75.904828 82.17822 
L 76.129278 96.845627 
L 76.353727 79.789549 
L 76.578177 83.210782 
L 76.802627 74.189064 
L 77.027076 83.040861 
L 77.251526 77.826996 
L 77.924875 73.784976 
L 78.373774 83.303592 
L 78.598224 74.428214 
L 79.047124 72.837019 
L 79.271573 71.758816 
L 79.496023 72.899941 
L 79.944922 78.520252 
L 80.169372 75.458401 
L 80.393822 76.725601 
L 80.618271 87.826768 
L 81.067171 74.265214 
L 81.291621 81.599032 
L 81.51607 70.993997 
L 81.74052 77.485666 
L 82.189419 74.024045 
L 82.413869 88.949732 
L 82.638319 74.610561 
L 82.862768 72.750808 
L 83.087218 75.778691 
L 83.311668 81.145819 
L 83.985017 71.916704 
L 84.209467 92.781634 
L 84.433916 70.892889 
L 84.658366 79.724614 
L 84.882816 73.289673 
L 85.331715 78.79199 
L 85.780614 67.262054 
L 86.005064 71.112078 
L 86.229514 88.084745 
L 86.453964 69.533607 
L 86.678413 73.457564 
L 86.902863 70.964449 
L 87.127313 69.980701 
L 87.351762 72.51121 
L 87.576212 70.704083 
L 87.800662 77.471413 
L 88.025111 74.355715 
L 88.474011 77.017393 
L 88.69846 65.339437 
L 88.92291 74.499267 
L 89.14736 70.721346 
L 89.37181 72.737284 
L 89.596259 78.227546 
L 90.045159 68.118563 
L 90.269608 76.580048 
L 90.494058 64.756495 
L 90.718508 79.208808 
L 90.942957 73.615549 
L 91.167407 70.903428 
L 91.391857 75.237711 
L 91.616307 71.1804 
L 91.840756 74.857385 
L 92.065206 69.536078 
L 92.289656 71.669237 
L 92.514105 75.5419 
L 92.738555 71.123228 
L 92.963005 84.594482 
L 93.411904 64.766513 
L 93.860804 80.33719 
L 94.085253 75.823476 
L 94.309703 74.357261 
L 94.534153 87.802926 
L 94.758602 70.52676 
L 94.983052 79.752863 
L 95.207502 71.56817 
L 95.431951 77.844016 
L 95.656401 73.731039 
L 95.880851 77.542181 
L 96.1053 71.23636 
L 96.32975 72.992424 
L 96.5542 72.948239 
L 96.77865 81.867186 
L 97.003099 70.634637 
L 97.227549 73.839675 
L 97.451999 75.194397 
L 97.676448 70.029487 
L 97.900898 94.910236 
L 98.125348 72.644312 
L 98.574247 85.257635 
L 99.023147 74.640157 
L 99.247596 84.812845 
L 99.920945 69.752119 
L 100.145395 71.651007 
L 100.369845 71.593342 
L 100.594294 75.489179 
L 100.818744 84.174286 
L 101.043194 72.197889 
L 101.267643 69.251021 
L 101.492093 71.163628 
L 101.716543 75.990976 
L 101.940993 74.129819 
L 102.165442 79.855404 
L 102.389892 74.025451 
L 102.614342 78.688714 
L 102.838791 74.72234 
L 103.063241 75.286182 
L 103.287691 83.358576 
L 103.51214 78.649109 
L 103.73659 78.653706 
L 104.18549 68.55117 
L 104.409939 71.718101 
L 104.634389 79.741826 
L 104.858839 80.776818 
L 105.083288 74.671855 
L 105.532188 88.902223 
L 105.756637 71.052961 
L 106.205537 79.678296 
L 106.429986 77.849308 
L 106.654436 72.484925 
L 106.878886 78.620312 
L 107.327785 76.034664 
L 107.552235 71.344552 
L 107.776685 85.889823 
L 108.001134 76.022172 
L 108.225584 77.895288 
L 108.450034 76.364978 
L 108.674483 69.443551 
L 108.898933 68.862625 
L 109.123383 66.825964 
L 109.347833 80.274613 
L 109.572282 79.831003 
L 109.796732 74.694818 
L 110.021182 74.370849 
L 110.245631 69.898128 
L 110.470081 75.36656 
L 110.694531 74.711247 
L 110.91898 71.40113 
L 111.14343 70.757608 
L 111.36788 72.721675 
L 111.592329 71.28304 
L 111.816779 82.173971 
L 112.265679 67.731262 
L 112.490128 80.229835 
L 112.714578 75.523457 
L 113.387927 82.746683 
L 113.612377 86.252015 
L 114.061276 66.120171 
L 114.285726 69.6636 
L 114.510176 78.55947 
L 114.734625 74.598265 
L 114.959075 81.822783 
L 115.183525 70.138343 
L 115.407974 71.756601 
L 115.632424 88.729605 
L 116.081323 67.787141 
L 116.305773 75.66097 
L 116.530223 73.536896 
L 116.754673 75.569775 
L 116.979122 75.265209 
L 117.203572 67.492329 
L 117.428022 77.42964 
L 117.652471 31.527273 
L 117.876921 75.482331 
L 118.101371 67.480718 
L 118.32582 76.761798 
L 118.77472 73.801919 
L 118.999169 74.936151 
L 119.223619 67.824005 
L 119.672519 103.694971 
L 119.896968 72.833323 
L 120.121418 70.905914 
L 120.345868 82.297468 
L 120.570317 74.967053 
L 120.794767 78.307418 
L 121.019217 70.121633 
L 121.243666 66.788336 
L 121.468116 77.560631 
L 121.692566 96.343198 
L 121.917016 83.480558 
L 122.141465 80.27813 
L 122.590365 77.274556 
L 122.814814 81.354499 
L 123.039264 68.573066 
L 123.488163 82.272443 
L 123.712613 72.795223 
L 123.937063 73.502822 
L 124.161512 72.950271 
L 124.385962 74.053297 
L 124.610412 77.17651 
L 124.834862 76.277273 
L 125.059311 72.490098 
L 125.283761 76.240947 
L 125.508211 77.193107 
L 125.73266 81.707085 
L 125.95711 83.383596 
L 126.18156 69.501871 
L 126.406009 71.603843 
L 126.630459 72.616097 
L 126.854909 78.800478 
L 127.303808 80.046167 
L 127.528258 84.239526 
L 127.752708 74.653022 
L 128.201607 82.79547 
L 128.426057 81.839533 
L 128.650506 74.789937 
L 128.874956 82.162874 
L 129.099406 84.394075 
L 129.323855 77.012086 
L 129.548305 73.934908 
L 129.772755 94.74104 
L 130.221654 75.361326 
L 130.446104 82.463046 
L 130.670554 82.609689 
L 130.895003 74.794561 
L 131.119453 72.34423 
L 131.568352 80.988972 
L 131.792802 82.838745 
L 132.017252 91.638633 
L 132.241702 79.019628 
L 132.466151 77.560919 
L 132.690601 82.730483 
L 132.915051 79.717837 
L 133.1395 88.112236 
L 133.36395 78.8482 
L 133.5884 80.836151 
L 133.812849 75.177147 
L 134.037299 74.470499 
L 134.261749 76.86619 
L 134.486198 80.909668 
L 134.710648 80.397089 
L 134.935098 76.492271 
L 135.383997 73.961279 
L 135.608447 76.900885 
L 135.832897 83.849724 
L 136.057346 86.879223 
L 136.281796 79.755745 
L 136.730695 90.796896 
L 137.179595 77.739006 
L 137.404045 94.281531 
L 137.628494 75.715595 
L 137.852944 82.496479 
L 138.077394 81.929413 
L 138.301843 78.045242 
L 138.526293 105.631749 
L 138.750743 81.16173 
L 138.975192 80.289762 
L 139.199642 76.641201 
L 139.424092 83.423242 
L 139.648542 81.034378 
L 139.872991 84.767985 
L 140.097441 79.597643 
L 140.321891 84.240659 
L 140.54634 78.843444 
L 140.77079 87.300123 
L 140.99524 78.373558 
L 141.219689 86.627539 
L 141.444139 87.629188 
L 141.893038 73.98743 
L 142.117488 79.489005 
L 142.341938 97.283885 
L 142.566388 78.625685 
L 142.790837 81.898715 
L 143.015287 78.275378 
L 143.239737 77.070255 
L 143.464186 81.257579 
L 143.688636 79.767528 
L 143.913086 83.874172 
L 144.137535 81.684154 
L 144.361985 84.003842 
L 144.586435 93.309872 
L 144.810885 73.977927 
L 145.035334 83.298364 
L 145.259784 78.416905 
L 145.484234 81.58279 
L 145.708683 88.105198 
L 145.933133 81.823226 
L 146.157583 79.25356 
L 146.382032 81.68695 
L 146.606482 75.306565 
L 146.830932 96.131318 
L 147.055381 85.514179 
L 147.279831 82.797978 
L 147.504281 86.867122 
L 147.728731 82.276039 
L 147.95318 82.771302 
L 148.17763 81.185891 
L 148.626529 84.86305 
L 148.850979 83.111113 
L 149.075429 96.890672 
L 149.524328 78.12038 
L 149.973228 94.263788 
L 150.197677 94.740346 
L 150.422127 85.397664 
L 150.646577 98.541543 
L 150.871026 85.460611 
L 151.095476 92.286703 
L 151.319926 86.92665 
L 151.544375 92.847117 
L 151.768825 87.193957 
L 151.993275 92.1281 
L 152.217724 86.472484 
L 152.442174 91.096584 
L 152.666624 86.288341 
L 152.891074 104.056115 
L 153.115523 87.564465 
L 153.339973 88.84853 
L 153.564423 96.269573 
L 153.788872 89.33254 
L 154.013322 103.453576 
L 154.237772 89.402786 
L 154.462221 99.76686 
L 154.686671 96.571489 
L 154.911121 91.54846 
L 155.36002 99.521571 
L 155.58447 90.312999 
L 155.80892 94.570002 
L 156.033369 89.376815 
L 156.257819 92.87632 
L 156.482269 93.708849 
L 156.706718 91.646933 
L 156.931168 102.257067 
L 157.155618 92.434826 
L 157.604517 89.111464 
L 157.828967 93.413014 
L 158.053417 94.251637 
L 158.277866 99.618226 
L 158.502316 93.024061 
L 158.951215 100.819727 
L 159.175665 99.002272 
L 159.400115 104.97377 
L 159.624564 98.199815 
L 159.849014 94.876602 
L 160.073464 93.502134 
L 160.297914 87.793954 
L 160.522363 87.818663 
L 160.971263 101.658618 
L 161.195712 86.538861 
L 161.420162 101.082127 
L 161.644612 105.757202 
L 161.869061 90.103942 
L 162.093511 91.150797 
L 162.317961 105.715738 
L 162.542411 103.359519 
L 162.76686 89.43767 
L 162.99131 95.298474 
L 163.21576 95.653362 
L 163.664659 88.42289 
L 163.889109 107.778954 
L 164.338008 92.204417 
L 164.562458 90.450857 
L 164.786907 86.243121 
L 165.011357 84.175164 
L 165.235807 83.675685 
L 165.460257 99.808989 
L 165.909156 88.910093 
L 166.133606 87.381063 
L 166.358055 84.66336 
L 166.582505 88.626646 
L 166.806955 85.96713 
L 167.031404 85.317085 
L 167.255854 84.020974 
L 167.480304 85.323403 
L 167.704754 84.542771 
L 167.929203 92.441465 
L 168.378103 80.944249 
L 168.602552 95.031851 
L 168.827002 88.671355 
L 169.051452 94.585431 
L 169.275901 92.778924 
L 169.500351 96.342531 
L 169.724801 109.025689 
L 170.1737 78.644147 
L 170.39815 81.802909 
L 170.6226 89.524001 
L 170.847049 85.048453 
L 171.071499 91.402312 
L 171.295949 82.266191 
L 171.520398 82.719108 
L 171.744848 100.703358 
L 171.969298 94.778636 
L 172.193747 79.103151 
L 172.418197 87.287937 
L 172.642647 83.597655 
L 172.867097 87.479214 
L 173.091546 86.277073 
L 173.315996 77.797024 
L 173.540446 88.939135 
L 173.764895 42.010657 
L 173.989345 88.775284 
L 174.213795 77.698651 
L 174.438244 85.980704 
L 174.662694 85.862194 
L 174.887144 82.026967 
L 175.111593 85.823632 
L 175.336043 78.102353 
L 175.784943 102.732856 
L 176.009392 81.670749 
L 176.233842 81.336758 
L 176.458292 93.010349 
L 176.682741 84.395052 
L 176.907191 85.549352 
L 177.35609 75.86714 
L 177.80499 99.975031 
L 178.02944 91.52026 
L 178.253889 90.941321 
L 178.478339 87.330355 
L 178.702789 87.365338 
L 178.927238 88.037224 
L 179.151688 77.191511 
L 179.600587 91.086055 
L 179.825037 80.80109 
L 180.049487 83.126188 
L 180.273936 80.250939 
L 180.498386 81.105026 
L 180.722836 84.868307 
L 180.947286 85.213782 
L 181.171735 79.729614 
L 181.396185 87.429604 
L 181.620635 85.126666 
L 182.069534 90.784165 
L 182.293984 77.36758 
L 182.742883 80.145036 
L 182.967333 85.865647 
L 183.191783 86.35617 
L 183.416232 85.207395 
L 183.640682 93.190449 
L 183.865132 81.18199 
L 184.089581 88.028103 
L 184.538481 90.152082 
L 184.76293 81.490007 
L 184.98738 87.96679 
L 185.21183 89.575239 
L 185.43628 83.547706 
L 185.660729 80.651134 
L 185.885179 95.931434 
L 186.334078 81.82618 
L 186.558528 90.136902 
L 186.782978 91.265813 
L 187.007427 81.828082 
L 187.231877 78.641981 
L 187.680776 88.175897 
L 187.905226 88.630275 
L 188.129676 98.240263 
L 188.354126 85.333165 
L 188.578575 85.693899 
L 188.803025 88.430085 
L 189.027475 83.576257 
L 189.251924 90.673165 
L 189.476374 84.518111 
L 189.700824 86.954049 
L 189.925273 80.525248 
L 190.149723 79.195116 
L 190.598623 87.771441 
L 190.823072 85.91769 
L 191.047522 82.289579 
L 191.271972 80.935904 
L 191.496421 78.641848 
L 192.16977 92.797961 
L 192.39422 84.78755 
L 192.61867 88.357408 
L 192.843119 100.918645 
L 193.067569 88.265041 
L 193.292019 82.285852 
L 193.516469 97.085284 
L 193.740918 79.736776 
L 193.965368 88.226219 
L 194.414267 81.97766 
L 194.638717 96.708567 
L 194.863167 86.881169 
L 195.087616 83.235542 
L 195.312066 82.575069 
L 195.536516 87.347089 
L 195.760966 84.516669 
L 195.985415 87.362584 
L 195.985415 87.362584 
" clip-path="url(#p0a16aa5bd8)" style="fill: none; stroke: #808080; stroke-width: 0.8; stroke-linecap: square"/>
   </g>
   <g id="line2d_10">
    <path d="M 61.764497 76.146391 
L 61.988947 76.249412 
L 62.437846 66.792838 
L 62.662296 79.11405 
L 62.886745 69.419818 
L 63.111195 72.261822 
L 63.335645 70.576224 
L 63.560095 70.624462 
L 63.784544 80.260184 
L 64.008994 77.509033 
L 64.233444 72.631669 
L 64.457893 90.757455 
L 64.682343 74.339149 
L 64.906793 74.814468 
L 65.131242 73.611726 
L 65.355692 70.96659 
L 65.580142 78.149743 
L 65.804591 73.953367 
L 66.029041 80.503553 
L 66.253491 72.512021 
L 66.70239 92.616792 
L 66.92684 67.305943 
L 67.15129 77.61399 
L 67.375739 80.847035 
L 67.600189 78.547243 
L 67.824639 71.995318 
L 68.049088 72.781904 
L 68.273538 72.017739 
L 68.497988 74.447664 
L 68.722438 85.220535 
L 68.946887 75.574325 
L 69.171337 76.899046 
L 69.395787 86.84611 
L 69.620236 75.404082 
L 69.844686 74.697815 
L 70.518035 57.551196 
L 70.966935 79.284848 
L 71.191384 81.958476 
L 71.415834 71.794149 
L 71.640284 71.809954 
L 71.864733 87.453155 
L 72.089183 77.794737 
L 72.313633 83.190636 
L 72.538082 74.872034 
L 72.762532 76.492651 
L 72.986982 84.038354 
L 73.211431 76.415436 
L 73.435881 76.98503 
L 73.660331 85.981134 
L 73.884781 86.052302 
L 74.55813 79.94334 
L 74.782579 83.543665 
L 75.007029 79.313174 
L 75.231479 88.437039 
L 75.455928 78.471788 
L 75.680378 75.413016 
L 75.904828 83.268411 
L 76.129278 77.121246 
L 76.353727 85.203943 
L 76.578177 81.684284 
L 76.802627 83.890079 
L 77.027076 100.280232 
L 77.251526 85.555706 
L 77.475976 86.594321 
L 77.700425 88.563277 
L 77.924875 83.482226 
L 78.373774 89.025057 
L 78.598224 83.975382 
L 78.822674 75.651168 
L 79.047124 98.28484 
L 79.271573 85.524384 
L 79.496023 87.893484 
L 79.720473 76.741318 
L 79.944922 83.068934 
L 80.169372 81.578341 
L 80.618271 86.124765 
L 80.842721 82.990857 
L 81.291621 85.650874 
L 81.51607 89.879943 
L 81.74052 81.43222 
L 81.96497 96.281327 
L 82.189419 92.567295 
L 82.413869 85.384138 
L 82.638319 91.017775 
L 82.862768 83.044434 
L 83.087218 81.695535 
L 83.311668 91.824535 
L 83.760567 82.046845 
L 83.985017 90.357615 
L 84.209467 80.915185 
L 84.433916 87.026368 
L 84.658366 88.817317 
L 84.882816 87.068694 
L 85.107265 86.315211 
L 85.331715 95.806421 
L 85.556165 88.620753 
L 85.780614 88.21242 
L 86.005064 90.459314 
L 86.229514 85.210154 
L 86.453964 84.430376 
L 86.678413 87.204162 
L 86.902863 82.447038 
L 87.127313 99.929519 
L 87.351762 88.200446 
L 87.576212 88.601108 
L 87.800662 84.58466 
L 88.025111 83.091996 
L 88.249561 86.899871 
L 88.474011 85.943604 
L 88.69846 85.642306 
L 88.92291 92.592996 
L 89.14736 84.408317 
L 89.37181 99.627735 
L 89.596259 89.190468 
L 89.820709 91.952534 
L 90.269608 83.532044 
L 90.494058 93.343612 
L 90.718508 92.387654 
L 91.167407 88.539173 
L 91.391857 94.400197 
L 91.616307 96.976983 
L 92.065206 84.547502 
L 92.289656 105.231683 
L 92.514105 86.718564 
L 92.738555 90.743098 
L 92.963005 88.991375 
L 93.187454 95.139155 
L 93.411904 81.926652 
L 93.636354 87.968207 
L 93.860804 88.234521 
L 94.085253 87.393697 
L 94.309703 80.981091 
L 94.534153 88.614987 
L 94.758602 91.064795 
L 94.983052 90.20439 
L 95.207502 94.959458 
L 95.431951 93.116818 
L 95.656401 92.414894 
L 95.880851 89.682875 
L 96.1053 103.832378 
L 96.32975 91.161377 
L 96.77865 85.226724 
L 97.003099 89.3932 
L 97.227549 99.922492 
L 97.451999 84.584715 
L 97.676448 91.047865 
L 97.900898 87.713 
L 98.349797 95.54483 
L 98.574247 95.422315 
L 99.023147 94.694929 
L 99.247596 95.183763 
L 99.472046 94.100427 
L 99.696496 93.778401 
L 99.920945 86.358907 
L 100.369845 93.666623 
L 100.594294 94.2418 
L 100.818744 83.362212 
L 101.043194 97.433172 
L 101.267643 95.525292 
L 101.492093 97.829092 
L 101.716543 89.271138 
L 101.940993 93.634654 
L 102.165442 95.322178 
L 102.389892 86.142554 
L 102.614342 101.386715 
L 102.838791 93.351486 
L 103.287691 98.275506 
L 103.51214 106.036621 
L 103.73659 88.776966 
L 103.96104 96.692353 
L 104.18549 87.417301 
L 104.409939 107.396085 
L 104.634389 86.345807 
L 104.858839 99.217623 
L 105.083288 85.012708 
L 105.307738 96.222935 
L 105.532188 87.02961 
L 105.756637 112.057833 
L 105.981087 103.685706 
L 106.429986 97.50145 
L 106.878886 86.501557 
L 107.552235 103.57426 
L 107.776685 91.239364 
L 108.001134 109.643761 
L 108.225584 90.847244 
L 108.450034 99.600787 
L 108.898933 91.007109 
L 109.123383 90.713116 
L 109.347833 99.424807 
L 109.572282 87.397357 
L 109.796732 97.905712 
L 110.021182 91.786734 
L 110.245631 97.271239 
L 110.470081 108.719897 
L 110.694531 96.29468 
L 110.91898 92.804106 
L 111.36788 98.229276 
L 111.592329 106.5585 
L 111.816779 109.648527 
L 112.041229 92.952887 
L 112.265679 104.543549 
L 112.490128 94.789426 
L 112.714578 94.171018 
L 112.939028 92.129147 
L 113.163477 99.91203 
L 113.612377 85.488064 
L 114.061276 101.929329 
L 114.285726 104.583452 
L 114.510176 93.061967 
L 114.734625 90.926709 
L 114.959075 97.561023 
L 115.183525 88.970524 
L 115.407974 108.687365 
L 115.632424 94.96064 
L 116.081323 105.072788 
L 116.305773 93.432406 
L 116.530223 101.938609 
L 116.754673 98.879658 
L 117.428022 103.244406 
L 117.876921 89.224783 
L 118.101371 104.1098 
L 118.32582 97.150349 
L 118.55027 95.528785 
L 118.77472 99.303359 
L 119.223619 95.594085 
L 119.448069 87.328339 
L 119.896968 100.510476 
L 120.121418 95.630813 
L 120.345868 105.733737 
L 120.570317 105.433451 
L 120.794767 106.420538 
L 121.019217 95.607281 
L 121.243666 95.301825 
L 121.468116 116.992351 
L 121.692566 90.638196 
L 121.917016 107.972403 
L 122.365915 91.346778 
L 122.814814 99.706871 
L 123.039264 94.847195 
L 123.263714 93.850315 
L 123.488163 94.980938 
L 123.712613 94.282495 
L 123.937063 100.517922 
L 124.161512 94.668709 
L 124.385962 96.808494 
L 124.610412 97.185257 
L 124.834862 94.436043 
L 125.059311 97.256824 
L 125.283761 92.862169 
L 125.508211 97.420122 
L 125.73266 96.195747 
L 125.95711 105.56554 
L 126.18156 108.831651 
L 126.406009 101.371916 
L 126.630459 98.929612 
L 126.854909 107.548466 
L 127.079359 96.973423 
L 127.303808 95.182862 
L 127.528258 92.288497 
L 127.977157 98.974807 
L 128.201607 99.470738 
L 128.426057 106.917329 
L 128.650506 97.733608 
L 128.874956 102.136222 
L 129.099406 99.623408 
L 129.323855 92.959067 
L 129.548305 99.012273 
L 129.772755 96.625071 
L 129.997205 97.445237 
L 130.221654 101.352871 
L 130.446104 93.574856 
L 130.670554 96.789427 
L 130.895003 102.878396 
L 131.343903 98.968185 
L 131.568352 94.872596 
L 131.792802 94.514881 
L 132.017252 93.108042 
L 132.241702 100.96589 
L 132.466151 92.066027 
L 132.690601 99.558623 
L 132.915051 92.366605 
L 133.36395 99.841484 
L 133.5884 111.940778 
L 133.812849 99.712854 
L 134.037299 94.403983 
L 134.261749 101.515328 
L 134.486198 93.838979 
L 134.710648 102.733798 
L 135.159548 98.01724 
L 135.383997 107.194036 
L 135.608447 99.620493 
L 135.832897 110.35871 
L 136.057346 102.438366 
L 136.281796 103.595452 
L 136.730695 95.888706 
L 137.179595 103.636678 
L 137.404045 97.812793 
L 137.628494 98.072011 
L 137.852944 97.361894 
L 138.077394 93.417464 
L 138.301843 104.724746 
L 138.526293 98.632754 
L 138.750743 110.079365 
L 138.975192 99.080675 
L 139.199642 96.326429 
L 139.648542 102.654603 
L 139.872991 99.168416 
L 140.097441 98.37994 
L 140.321891 104.894452 
L 140.54634 99.337037 
L 140.77079 99.797358 
L 140.99524 115.885404 
L 141.219689 99.46137 
L 141.444139 105.011397 
L 141.668589 93.427411 
L 141.893038 101.75884 
L 142.117488 97.045973 
L 142.341938 108.053674 
L 143.015287 93.885757 
L 143.464186 102.10306 
L 143.688636 99.107955 
L 143.913086 107.58664 
L 144.137535 103.007666 
L 144.361985 106.52352 
L 144.586435 99.698982 
L 144.810885 109.580559 
L 145.035334 105.171577 
L 145.259784 107.586847 
L 145.484234 102.886412 
L 145.708683 107.822455 
L 146.382032 96.09638 
L 146.606482 107.641184 
L 147.055381 92.479326 
L 147.279831 108.178697 
L 147.504281 108.202918 
L 147.728731 111.817606 
L 147.95318 94.898506 
L 148.17763 104.935271 
L 148.626529 97.329502 
L 148.850979 109.680375 
L 149.075429 99.123928 
L 149.299878 99.727862 
L 149.524328 98.610574 
L 149.748778 105.472183 
L 149.973228 103.025093 
L 150.197677 98.622921 
L 150.422127 105.870124 
L 150.646577 104.016725 
L 150.871026 98.331468 
L 151.319926 104.389424 
L 151.993275 95.931679 
L 152.217724 98.419595 
L 152.442174 102.153699 
L 152.666624 94.310435 
L 152.891074 111.800714 
L 153.115523 99.296071 
L 153.339973 98.156145 
L 153.564423 114.405601 
L 153.788872 98.835024 
L 154.013322 118.240907 
L 154.686671 93.971699 
L 154.911121 97.643714 
L 155.135571 94.320001 
L 155.36002 101.832729 
L 155.58447 94.869792 
L 155.80892 101.539782 
L 156.033369 101.162103 
L 156.257819 96.593651 
L 156.482269 104.603983 
L 156.706718 101.959355 
L 156.931168 100.739929 
L 157.155618 109.724996 
L 157.828967 100.669457 
L 158.053417 112.584002 
L 158.277866 100.869781 
L 158.502316 104.892475 
L 158.726766 101.098951 
L 159.175665 102.531085 
L 159.400115 124.472727 
L 159.849014 105.721162 
L 160.073464 112.021083 
L 160.522363 99.980722 
L 160.971263 106.505525 
L 161.195712 95.289699 
L 161.644612 112.535793 
L 162.093511 103.217632 
L 162.317961 102.081025 
L 162.542411 98.30155 
L 162.76686 113.414909 
L 162.99131 110.686107 
L 163.21576 101.605349 
L 163.440209 103.948925 
L 163.664659 109.826058 
L 163.889109 99.60797 
L 164.113558 96.91044 
L 164.338008 103.452076 
L 164.562458 99.846677 
L 164.786907 107.04225 
L 165.011357 104.612238 
L 165.235807 100.290664 
L 165.460257 101.242388 
L 165.684706 123.522205 
L 165.909156 104.049087 
L 166.133606 98.007031 
L 166.358055 109.20803 
L 166.582505 106.897407 
L 166.806955 98.059897 
L 167.031404 113.846006 
L 167.255854 109.7433 
L 167.480304 103.18289 
L 167.704754 105.282842 
L 167.929203 103.523588 
L 168.153653 115.852915 
L 168.378103 106.400622 
L 168.602552 105.170335 
L 168.827002 107.580274 
L 169.051452 101.353112 
L 169.275901 112.826651 
L 169.500351 103.060779 
L 169.724801 101.809844 
L 169.94925 112.122219 
L 170.1737 103.287318 
L 170.39815 106.646809 
L 170.6226 100.334314 
L 170.847049 106.400593 
L 171.071499 107.590225 
L 171.520398 105.461212 
L 171.744848 102.637663 
L 171.969298 97.426812 
L 172.193747 111.987108 
L 172.642647 103.123498 
L 172.867097 103.709112 
L 173.091546 111.882306 
L 173.315996 105.036596 
L 173.540446 105.500076 
L 173.764895 103.303356 
L 173.989345 109.528503 
L 174.213795 110.755068 
L 174.438244 103.740835 
L 174.662694 114.037742 
L 174.887144 98.145238 
L 175.111593 117.542405 
L 175.560493 107.886552 
L 175.784943 102.616056 
L 176.009392 109.473743 
L 176.233842 103.655308 
L 176.458292 107.349618 
L 176.682741 115.117715 
L 176.907191 98.490979 
L 177.131641 109.792784 
L 177.35609 106.894696 
L 177.58054 100.890546 
L 177.80499 108.062743 
L 178.02944 119.994711 
L 178.253889 101.497882 
L 178.478339 105.991026 
L 178.927238 100.819432 
L 179.376138 109.493122 
L 179.600587 105.283095 
L 179.825037 107.801394 
L 180.049487 101.067713 
L 180.273936 99.282395 
L 180.498386 106.534286 
L 180.722836 108.435171 
L 180.947286 115.009663 
L 181.171735 110.635137 
L 181.396185 100.329042 
L 181.620635 105.729133 
L 181.845084 105.889288 
L 182.069534 119.510998 
L 182.293984 103.928303 
L 182.518433 98.2753 
L 182.742883 107.967796 
L 182.967333 107.192277 
L 183.191783 115.371272 
L 183.416232 104.192919 
L 183.640682 108.434706 
L 183.865132 108.700995 
L 184.089581 102.957357 
L 184.314031 117.307947 
L 184.538481 106.752086 
L 184.76293 102.593785 
L 184.98738 104.857629 
L 185.21183 110.402281 
L 185.43628 102.437551 
L 185.660729 114.067464 
L 186.109629 105.600431 
L 186.334078 109.836616 
L 186.558528 107.165694 
L 186.782978 115.767419 
L 187.007427 110.04368 
L 187.231877 113.260902 
L 187.456327 103.925021 
L 187.680776 109.483394 
L 187.905226 118.471355 
L 188.129676 103.350066 
L 188.354126 115.139298 
L 188.578575 112.08186 
L 189.027475 102.561961 
L 189.251924 105.884944 
L 189.476374 100.635041 
L 189.700824 101.450173 
L 189.925273 108.093942 
L 190.149723 121.366678 
L 190.374173 102.702619 
L 190.598623 115.891392 
L 190.823072 110.017206 
L 191.271972 115.347277 
L 191.496421 107.175284 
L 191.720871 116.149739 
L 192.16977 110.637734 
L 192.39422 104.395331 
L 192.61867 112.843263 
L 193.067569 107.24709 
L 193.292019 106.859863 
L 193.516469 112.952252 
L 193.740918 107.38246 
L 193.965368 112.788158 
L 194.189818 105.437615 
L 194.414267 109.093672 
L 194.638717 101.880492 
L 194.863167 101.159064 
L 195.312066 104.950214 
L 195.536516 102.213391 
L 195.760966 102.877952 
L 195.985415 112.570744 
L 195.985415 112.570744 
" clip-path="url(#p0a16aa5bd8)" style="fill: none; stroke: #1e90ff; stroke-width: 0.8; stroke-linecap: square"/>
   </g>
   <g id="line2d_11">
    <path d="M 61.764497 80.547758 
L 61.988947 68.498399 
L 62.213396 69.23508 
L 62.437846 64.866833 
L 62.662296 78.521279 
L 62.886745 73.249396 
L 63.111195 75.643125 
L 63.335645 69.129841 
L 63.560095 70.356052 
L 63.784544 73.903604 
L 64.008994 83.963851 
L 64.233444 70.921542 
L 64.457893 76.048914 
L 64.682343 76.506597 
L 64.906793 72.998902 
L 65.131242 65.526921 
L 65.355692 69.04335 
L 65.580142 76.85962 
L 65.804591 77.144317 
L 66.029041 77.053649 
L 66.253491 74.081765 
L 66.477941 75.772039 
L 66.70239 90.909172 
L 66.92684 66.100669 
L 67.15129 82.790251 
L 67.375739 84.353475 
L 67.600189 80.984305 
L 67.824639 67.613526 
L 68.049088 69.368672 
L 68.273538 67.426788 
L 68.497988 75.73151 
L 68.722438 78.021093 
L 68.946887 68.509255 
L 69.395787 76.161365 
L 69.620236 73.088402 
L 69.844686 76.678235 
L 70.293585 60.795607 
L 70.518035 56.682996 
L 70.966935 81.142931 
L 71.191384 84.229688 
L 71.415834 70.901817 
L 71.640284 70.825751 
L 71.864733 85.046983 
L 72.089183 74.824837 
L 72.313633 78.499148 
L 72.762532 74.123961 
L 72.986982 78.600097 
L 73.211431 78.546658 
L 73.435881 70.097735 
L 73.884781 91.276698 
L 74.10923 81.068135 
L 74.33368 77.515752 
L 74.55813 77.739628 
L 74.782579 73.530336 
L 75.007029 74.08379 
L 75.455928 76.242484 
L 75.680378 82.315909 
L 75.904828 81.813939 
L 76.129278 102.389712 
L 76.353727 80.503154 
L 76.578177 82.827146 
L 76.802627 74.273025 
L 77.027076 83.690994 
L 77.251526 77.586313 
L 77.924875 74.265708 
L 78.149325 77.087573 
L 78.373774 82.039293 
L 78.598224 74.654536 
L 78.822674 73.455679 
L 79.047124 72.927921 
L 79.271573 71.905885 
L 79.496023 73.120351 
L 79.944922 77.930824 
L 80.169372 75.051199 
L 80.393822 77.108191 
L 80.618271 90.531398 
L 80.842721 78.148973 
L 81.067171 73.918325 
L 81.291621 80.832435 
L 81.51607 70.7101 
L 81.74052 78.084071 
L 81.96497 75.274812 
L 82.189419 74.550037 
L 82.413869 86.629049 
L 82.638319 74.610766 
L 82.862768 72.496358 
L 83.087218 76.038224 
L 83.311668 81.686555 
L 83.760567 74.476998 
L 83.985017 72.311818 
L 84.209467 91.129394 
L 84.433916 71.245341 
L 84.658366 79.138605 
L 84.882816 72.820539 
L 85.331715 77.970156 
L 85.780614 67.229853 
L 86.005064 70.757422 
L 86.229514 87.56613 
L 86.453964 69.453187 
L 86.678413 73.928444 
L 86.902863 70.88896 
L 87.127313 70.000079 
L 87.351762 72.262994 
L 87.576212 70.385463 
L 87.800662 76.854646 
L 88.025111 74.827656 
L 88.249561 75.86439 
L 88.474011 76.304275 
L 88.69846 65.558972 
L 88.92291 74.991134 
L 89.14736 70.459783 
L 89.37181 72.311242 
L 89.596259 79.206735 
L 90.045159 67.825785 
L 90.269608 76.510846 
L 90.494058 64.877487 
L 90.718508 79.119293 
L 91.167407 70.785416 
L 91.391857 75.094917 
L 91.616307 70.758786 
L 91.840756 74.218941 
L 92.065206 69.89304 
L 92.289656 71.314741 
L 92.514105 76.33032 
L 92.738555 70.755 
L 92.963005 83.104947 
L 93.411904 64.599436 
L 93.860804 79.114568 
L 94.085253 75.110352 
L 94.309703 73.998095 
L 94.534153 85.183806 
L 94.758602 70.678694 
L 94.983052 80.526277 
L 95.207502 71.689943 
L 95.431951 78.857257 
L 95.656401 74.010089 
L 95.880851 77.142552 
L 96.1053 71.737613 
L 96.32975 73.10598 
L 96.5542 73.448754 
L 96.77865 80.86758 
L 97.003099 70.939256 
L 97.451999 74.521112 
L 97.676448 69.975484 
L 97.900898 89.318257 
L 98.125348 72.499636 
L 98.574247 83.029185 
L 98.798697 80.93458 
L 99.023147 74.428568 
L 99.247596 84.483166 
L 99.920945 69.444332 
L 100.145395 71.225425 
L 100.369845 71.332334 
L 100.818744 82.276589 
L 101.043194 71.935392 
L 101.267643 69.625577 
L 101.492093 71.587279 
L 101.716543 77.212824 
L 101.940993 74.380581 
L 102.165442 79.348575 
L 102.389892 73.309614 
L 102.614342 78.154954 
L 102.838791 74.187832 
L 103.063241 74.270326 
L 103.287691 81.753752 
L 103.51214 77.672968 
L 103.73659 80.499539 
L 104.18549 68.37682 
L 104.858839 80.334958 
L 105.083288 75.701889 
L 105.532188 86.788527 
L 105.756637 71.796223 
L 106.205537 78.821706 
L 106.429986 78.436485 
L 106.654436 71.953704 
L 106.878886 76.951849 
L 107.327785 74.652316 
L 107.552235 71.123906 
L 107.776685 83.503236 
L 108.001134 74.528281 
L 108.225584 76.015251 
L 108.450034 75.574895 
L 108.674483 69.207785 
L 109.123383 67.571839 
L 109.347833 80.096631 
L 109.572282 80.335535 
L 109.796732 74.10346 
L 110.021182 73.148478 
L 110.245631 70.317563 
L 110.470081 76.812388 
L 110.91898 70.251124 
L 111.14343 69.705214 
L 111.36788 71.673944 
L 111.592329 72.64093 
L 111.816779 79.446954 
L 112.265679 68.797597 
L 112.490128 79.140174 
L 112.714578 74.166137 
L 113.163477 88.636922 
L 113.387927 80.864405 
L 113.612377 84.405985 
L 114.061276 66.432859 
L 114.285726 68.44277 
L 114.510176 75.812565 
L 114.959075 80.915782 
L 115.183525 68.449229 
L 115.407974 80.144974 
L 115.632424 75.422366 
L 115.856874 73.087307 
L 116.081323 66.284568 
L 116.305773 79.2131 
L 116.530223 70.152815 
L 116.754673 72.269157 
L 117.203572 65.901205 
L 117.428022 66.351596 
L 117.652471 65.752371 
L 117.876921 66.253218 
L 118.101371 65.698526 
L 118.55027 71.63414 
L 118.77472 69.842099 
L 118.999169 77.752838 
L 119.223619 66.215535 
L 119.448069 73.500158 
L 119.672519 76.764875 
L 119.896968 83.652163 
L 120.121418 68.798772 
L 120.345868 81.035783 
L 120.794767 76.065427 
L 121.019217 68.929762 
L 121.243666 67.226771 
L 121.692566 81.94261 
L 121.917016 80.350541 
L 122.141465 88.868956 
L 122.365915 84.586687 
L 122.590365 76.138967 
L 122.814814 78.801274 
L 123.039264 69.588009 
L 123.488163 79.160771 
L 123.712613 73.946367 
L 124.161512 71.78768 
L 124.385962 72.693447 
L 124.834862 77.880008 
L 125.059311 73.107059 
L 125.508211 76.303482 
L 125.73266 81.354746 
L 125.95711 82.655915 
L 126.18156 70.425718 
L 126.406009 70.888107 
L 126.630459 72.203177 
L 126.854909 77.828279 
L 127.079359 77.599232 
L 127.303808 78.159998 
L 127.528258 82.89714 
L 127.752708 74.259059 
L 127.977157 78.490762 
L 128.201607 80.567338 
L 128.426057 80.214794 
L 128.650506 74.146167 
L 128.874956 82.875946 
L 129.099406 83.013318 
L 129.548305 74.879805 
L 129.772755 100.193722 
L 129.997205 82.708592 
L 130.221654 76.134224 
L 130.446104 81.472091 
L 130.670554 81.339772 
L 131.119453 72.196641 
L 131.568352 82.810621 
L 131.792802 82.346019 
L 132.017252 87.692213 
L 132.241702 77.943403 
L 132.466151 76.906506 
L 132.690601 82.694926 
L 132.915051 79.004988 
L 133.1395 86.169517 
L 133.36395 79.401986 
L 133.5884 82.386605 
L 133.812849 75.6163 
L 134.037299 74.887739 
L 134.261749 76.692538 
L 134.710648 81.727924 
L 134.935098 76.229589 
L 135.383997 73.577327 
L 136.057346 86.520947 
L 136.281796 79.533104 
L 136.506246 86.819618 
L 136.730695 89.032697 
L 137.179595 77.778152 
L 137.404045 96.306328 
L 137.628494 75.765963 
L 137.852944 81.548278 
L 138.077394 81.019176 
L 138.301843 78.401901 
L 138.526293 102.310016 
L 138.750743 82.16929 
L 138.975192 80.594571 
L 139.199642 77.274728 
L 139.424092 82.648057 
L 139.648542 81.711823 
L 139.872991 85.976633 
L 140.097441 79.743882 
L 140.321891 85.219838 
L 140.54634 78.982661 
L 140.77079 85.816847 
L 140.99524 78.30274 
L 141.219689 85.23613 
L 141.444139 86.374337 
L 141.893038 73.703379 
L 142.117488 79.352065 
L 142.341938 94.965217 
L 142.566388 78.134647 
L 142.790837 82.576438 
L 143.015287 77.846953 
L 143.239737 77.602503 
L 143.464186 80.586692 
L 143.688636 79.247256 
L 143.913086 83.769502 
L 144.137535 81.311335 
L 144.361985 85.021299 
L 144.586435 93.135369 
L 144.810885 74.115856 
L 145.035334 83.161312 
L 145.259784 77.997225 
L 145.484234 81.767121 
L 145.708683 89.199457 
L 145.933133 81.223949 
L 146.157583 79.093715 
L 146.382032 82.435144 
L 146.606482 75.696798 
L 146.830932 93.360087 
L 147.055381 85.567553 
L 147.279831 83.496956 
L 147.504281 85.863402 
L 147.728731 82.010285 
L 147.95318 82.746282 
L 148.17763 81.082742 
L 148.40208 84.079192 
L 148.626529 85.497026 
L 148.850979 83.370893 
L 149.075429 94.778141 
L 149.524328 78.353904 
L 149.973228 93.33982 
L 150.197677 93.800641 
L 150.422127 84.727258 
L 150.646577 98.946277 
L 150.871026 86.378743 
L 151.095476 90.834448 
L 151.319926 87.889671 
L 151.544375 94.178301 
L 151.768825 86.527668 
L 151.993275 93.949418 
L 152.217724 86.350354 
L 152.442174 89.904715 
L 152.666624 85.785519 
L 152.891074 110.901566 
L 153.115523 88.008897 
L 153.339973 89.926733 
L 153.564423 98.428432 
L 153.788872 88.493264 
L 154.013322 99.687796 
L 154.237772 88.631142 
L 154.462221 101.58757 
L 154.911121 90.530784 
L 155.36002 97.020721 
L 155.58447 90.023211 
L 155.80892 93.79434 
L 156.033369 90.462284 
L 156.257819 94.158555 
L 156.482269 93.28223 
L 156.706718 90.715474 
L 156.931168 100.559797 
L 157.155618 92.244534 
L 157.380067 89.893949 
L 157.604517 89.104733 
L 157.828967 92.338608 
L 158.053417 93.40603 
L 158.277866 98.392678 
L 158.502316 94.301853 
L 158.726766 95.556964 
L 158.951215 102.384779 
L 159.175665 101.850083 
L 159.400115 108.235447 
L 159.849014 93.810912 
L 160.073464 92.751801 
L 160.297914 88.629213 
L 160.522363 87.431605 
L 160.971263 99.212348 
L 161.195712 86.124078 
L 161.420162 103.345786 
L 161.644612 101.573127 
L 161.869061 90.167851 
L 162.093511 90.865684 
L 162.317961 112.212958 
L 162.76686 89.197507 
L 162.99131 94.297974 
L 163.21576 96.01174 
L 163.664659 87.837343 
L 163.889109 105.451452 
L 164.113558 101.609733 
L 164.338008 92.408442 
L 165.011357 84.145283 
L 165.235807 84.526289 
L 165.460257 96.456006 
L 165.684706 96.021715 
L 165.909156 87.935949 
L 166.133606 86.71592 
L 166.358055 86.435816 
L 166.582505 90.976505 
L 166.806955 85.337962 
L 167.031404 85.676933 
L 167.255854 84.715702 
L 167.480304 86.553954 
L 167.704754 84.734451 
L 167.929203 89.854019 
L 168.378103 81.330606 
L 168.602552 90.924444 
L 168.827002 91.945674 
L 169.051452 101.610365 
L 169.275901 94.551169 
L 169.500351 103.364087 
L 169.94925 88.09463 
L 170.1737 82.544431 
L 170.6226 85.757585 
L 170.847049 100.157527 
L 171.295949 81.480864 
L 171.520398 92.520481 
L 171.744848 86.008139 
L 171.969298 84.570145 
L 172.193747 80.516037 
L 172.418197 86.448197 
L 172.642647 83.617996 
L 172.867097 83.154426 
L 173.315996 80.479513 
L 173.540446 80.815542 
L 173.764895 80.69487 
L 173.989345 80.904616 
L 174.213795 80.597818 
L 174.662694 83.645256 
L 174.887144 83.407078 
L 175.111593 87.459454 
L 175.336043 80.010658 
L 175.784943 86.735267 
L 176.009392 94.640827 
L 176.233842 81.039117 
L 176.682741 94.44392 
L 176.907191 84.503153 
L 177.35609 78.757541 
L 177.58054 86.43256 
L 177.80499 99.785777 
L 178.02944 92.44496 
L 178.253889 94.046434 
L 178.478339 93.653958 
L 178.702789 87.682449 
L 178.927238 86.57093 
L 179.151688 78.490357 
L 179.600587 88.716146 
L 179.825037 82.061487 
L 180.049487 83.450983 
L 180.273936 80.156546 
L 180.498386 80.917598 
L 180.947286 87.61296 
L 181.171735 80.95261 
L 181.396185 86.176053 
L 181.620635 84.650706 
L 181.845084 89.732941 
L 182.069534 89.972467 
L 182.293984 78.489979 
L 182.518433 78.590854 
L 182.742883 80.106326 
L 182.967333 85.403082 
L 183.191783 85.500462 
L 183.416232 84.483686 
L 183.640682 92.351224 
L 183.865132 81.153663 
L 184.089581 87.229554 
L 184.314031 87.834324 
L 184.538481 88.79013 
L 184.76293 81.221644 
L 184.98738 89.395994 
L 185.21183 89.40292 
L 185.660729 81.595625 
L 185.885179 97.125205 
L 186.334078 82.476472 
L 186.558528 89.542972 
L 186.782978 90.223545 
L 187.231877 78.788307 
L 187.680776 89.866827 
L 187.905226 88.315345 
L 188.129676 95.857374 
L 188.354126 84.696242 
L 188.578575 85.135876 
L 188.803025 88.419222 
L 189.027475 83.193684 
L 189.251924 89.711648 
L 189.476374 85.298766 
L 189.700824 88.261735 
L 189.925273 80.926023 
L 190.149723 79.613815 
L 190.598623 87.305876 
L 190.823072 87.055384 
L 191.047522 82.329127 
L 191.496421 78.499156 
L 192.16977 93.038318 
L 192.39422 84.956566 
L 192.61867 89.706938 
L 192.843119 97.743411 
L 193.292019 82.5206 
L 193.516469 96.690164 
L 193.740918 79.975686 
L 193.965368 87.559183 
L 194.189818 83.958065 
L 194.414267 82.336284 
L 194.638717 94.955094 
L 195.087616 83.60376 
L 195.312066 83.268445 
L 195.536516 86.795226 
L 195.760966 85.11668 
L 195.985415 88.234284 
L 195.985415 88.234284 
" clip-path="url(#p0a16aa5bd8)" style="fill: none; stroke: #ff0000; stroke-width: 0.8; stroke-linecap: square"/>
   </g>
   <g id="patch_3">
    <path d="M 59.52 129.12 
L 59.52 26.88 
" style="fill: none; stroke: #000000; stroke-width: 0.8; stroke-linejoin: miter; stroke-linecap: square"/>
   </g>
   <g id="patch_4">
    <path d="M 198.454362 129.12 
L 198.454362 26.88 
" style="fill: none; stroke: #000000; stroke-width: 0.8; stroke-linejoin: miter; stroke-linecap: square"/>
   </g>
   <g id="patch_5">
    <path d="M 59.52 129.12 
L 198.454362 129.12 
" style="fill: none; stroke: #000000; stroke-width: 0.8; stroke-linejoin: miter; stroke-linecap: square"/>
   </g>
   <g id="patch_6">
    <path d="M 59.52 26.88 
L 198.454362 26.88 
" style="fill: none; stroke: #000000; stroke-width: 0.8; stroke-linejoin: miter; stroke-linecap: square"/>
   </g>
   <g id="text_11">
    <!-- Frequency Domain Plot -->
    <g transform="translate(59.587806 20.88) scale(0.12 -0.12)">
     <defs>
      <path id="DejaVuSans-44" d="M 1259 4147 
L 1259 519 
L 2022 519 
Q 2988 519 3436 956 
Q 3884 1394 3884 2338 
Q 3884 3275 3436 3711 
Q 2988 4147 2022 4147 
L 1259 4147 
z
M 628 4666 
L 1925 4666 
Q 3281 4666 3915 4102 
Q 4550 3538 4550 2338 
Q 4550 1131 3912 565 
Q 3275 0 1925 0 
L 628 0 
L 628 4666 
z
" transform="scale(0.015625)"/>
      <path id="DejaVuSans-6d" d="M 3328 2828 
Q 3544 3216 3844 3400 
Q 4144 3584 4550 3584 
Q 5097 3584 5394 3201 
Q 5691 2819 5691 2113 
L 5691 0 
L 5113 0 
L 5113 2094 
Q 5113 2597 4934 2840 
Q 4756 3084 4391 3084 
Q 3944 3084 3684 2787 
Q 3425 2491 3425 1978 
L 3425 0 
L 2847 0 
L 2847 2094 
Q 2847 2600 2669 2842 
Q 2491 3084 2119 3084 
Q 1678 3084 1418 2786 
Q 1159 2488 1159 1978 
L 1159 0 
L 581 0 
L 581 3500 
L 1159 3500 
L 1159 2956 
Q 1356 3278 1631 3431 
Q 1906 3584 2284 3584 
Q 2666 3584 2933 3390 
Q 3200 3197 3328 2828 
z
" transform="scale(0.015625)"/>
      <path id="DejaVuSans-61" d="M 2194 1759 
Q 1497 1759 1228 1600 
Q 959 1441 959 1056 
Q 959 750 1161 570 
Q 1363 391 1709 391 
Q 2188 391 2477 730 
Q 2766 1069 2766 1631 
L 2766 1759 
L 2194 1759 
z
M 3341 1997 
L 3341 0 
L 2766 0 
L 2766 531 
Q 2569 213 2275 61 
Q 1981 -91 1556 -91 
Q 1019 -91 701 211 
Q 384 513 384 1019 
Q 384 1609 779 1909 
Q 1175 2209 1959 2209 
L 2766 2209 
L 2766 2266 
Q 2766 2663 2505 2880 
Q 2244 3097 1772 3097 
Q 1472 3097 1187 3025 
Q 903 2953 641 2809 
L 641 3341 
Q 956 3463 1253 3523 
Q 1550 3584 1831 3584 
Q 2591 3584 2966 3190 
Q 3341 2797 3341 1997 
z
" transform="scale(0.015625)"/>
      <path id="DejaVuSans-69" d="M 603 3500 
L 1178 3500 
L 1178 0 
L 603 0 
L 603 3500 
z
M 603 4863 
L 1178 4863 
L 1178 4134 
L 603 4134 
L 603 4863 
z
" transform="scale(0.015625)"/>
      <path id="DejaVuSans-50" d="M 1259 4147 
L 1259 2394 
L 2053 2394 
Q 2494 2394 2734 2622 
Q 2975 2850 2975 3272 
Q 2975 3691 2734 3919 
Q 2494 4147 2053 4147 
L 1259 4147 
z
M 628 4666 
L 2053 4666 
Q 2838 4666 3239 4311 
Q 3641 3956 3641 3272 
Q 3641 2581 3239 2228 
Q 2838 1875 2053 1875 
L 1259 1875 
L 1259 0 
L 628 0 
L 628 4666 
z
" transform="scale(0.015625)"/>
      <path id="DejaVuSans-6c" d="M 603 4863 
L 1178 4863 
L 1178 0 
L 603 0 
L 603 4863 
z
" transform="scale(0.015625)"/>
      <path id="DejaVuSans-74" d="M 1172 4494 
L 1172 3500 
L 2356 3500 
L 2356 3053 
L 1172 3053 
L 1172 1153 
Q 1172 725 1289 603 
Q 1406 481 1766 481 
L 2356 481 
L 2356 0 
L 1766 0 
Q 1100 0 847 248 
Q 594 497 594 1153 
L 594 3053 
L 172 3053 
L 172 3500 
L 594 3500 
L 594 4494 
L 1172 4494 
z
" transform="scale(0.015625)"/>
     </defs>
     <use xlink:href="#DejaVuSans-46"/>
     <use xlink:href="#DejaVuSans-72" x="50.269531"/>
     <use xlink:href="#DejaVuSans-65" x="89.132812"/>
     <use xlink:href="#DejaVuSans-71" x="150.65625"/>
     <use xlink:href="#DejaVuSans-75" x="214.132812"/>
     <use xlink:href="#DejaVuSans-65" x="277.511719"/>
     <use xlink:href="#DejaVuSans-6e" x="339.035156"/>
     <use xlink:href="#DejaVuSans-63" x="402.414062"/>
     <use xlink:href="#DejaVuSans-79" x="457.394531"/>
     <use xlink:href="#DejaVuSans-20" x="516.574219"/>
     <use xlink:href="#DejaVuSans-44" x="548.361328"/>
     <use xlink:href="#DejaVuSans-6f" x="625.363281"/>
     <use xlink:href="#DejaVuSans-6d" x="686.544922"/>
     <use xlink:href="#DejaVuSans-61" x="783.957031"/>
     <use xlink:href="#DejaVuSans-69" x="845.236328"/>
     <use xlink:href="#DejaVuSans-6e" x="873.019531"/>
     <use xlink:href="#DejaVuSans-20" x="936.398438"/>
     <use xlink:href="#DejaVuSans-50" x="968.185547"/>
     <use xlink:href="#DejaVuSans-6c" x="1028.488281"/>
     <use xlink:href="#DejaVuSans-6f" x="1056.271484"/>
     <use xlink:href="#DejaVuSans-74" x="1117.453125"/>
    </g>
   </g>
   <g id="legend_1">
    <g id="patch_7">
     <path d="M 19.939691 158.292 
L 50.807816 158.292 
Q 51.407816 158.292 51.407816 157.692 
L 51.407816 144.781688 
Q 51.407816 144.181688 50.807816 144.181688 
L 19.939691 144.181688 
Q 19.339691 144.181688 19.339691 144.781688 
L 19.339691 157.692 
Q 19.339691 158.292 19.939691 158.292 
z
" style="fill: #ffffff; opacity: 0.8; stroke: #cccccc; stroke-linejoin: miter"/>
    </g>
    <g id="line2d_12">
     <path d="M 20.539691 146.611219 
L 23.539691 146.611219 
L 26.539691 146.611219 
" style="fill: none; stroke: #808080; stroke-width: 0.8; stroke-linecap: square"/>
    </g>
    <g id="text_12">
     <!-- Contaminated -->
     <g transform="translate(28.939691 147.661219) scale(0.03 -0.03)">
      <defs>
       <path id="DejaVuSans-43" d="M 4122 4306 
L 4122 3641 
Q 3803 3938 3442 4084 
Q 3081 4231 2675 4231 
Q 1875 4231 1450 3742 
Q 1025 3253 1025 2328 
Q 1025 1406 1450 917 
Q 1875 428 2675 428 
Q 3081 428 3442 575 
Q 3803 722 4122 1019 
L 4122 359 
Q 3791 134 3420 21 
Q 3050 -91 2638 -91 
Q 1578 -91 968 557 
Q 359 1206 359 2328 
Q 359 3453 968 4101 
Q 1578 4750 2638 4750 
Q 3056 4750 3426 4639 
Q 3797 4528 4122 4306 
z
" transform="scale(0.015625)"/>
      </defs>
      <use xlink:href="#DejaVuSans-43"/>
      <use xlink:href="#DejaVuSans-6f" x="69.824219"/>
      <use xlink:href="#DejaVuSans-6e" x="131.005859"/>
      <use xlink:href="#DejaVuSans-74" x="194.384766"/>
      <use xlink:href="#DejaVuSans-61" x="233.59375"/>
      <use xlink:href="#DejaVuSans-6d" x="294.873047"/>
      <use xlink:href="#DejaVuSans-69" x="392.285156"/>
      <use xlink:href="#DejaVuSans-6e" x="420.068359"/>
      <use xlink:href="#DejaVuSans-61" x="483.447266"/>
      <use xlink:href="#DejaVuSans-74" x="544.726562"/>
      <use xlink:href="#DejaVuSans-65" x="583.935547"/>
      <use xlink:href="#DejaVuSans-64" x="645.458984"/>
     </g>
    </g>
    <g id="line2d_13">
     <path d="M 20.539691 151.014656 
L 23.539691 151.014656 
L 26.539691 151.014656 
" style="fill: none; stroke: #1e90ff; stroke-width: 0.8; stroke-linecap: square"/>
    </g>
    <g id="text_13">
     <!-- Clean -->
     <g transform="translate(28.939691 152.064656) scale(0.03 -0.03)">
      <use xlink:href="#DejaVuSans-43"/>
      <use xlink:href="#DejaVuSans-6c" x="69.824219"/>
      <use xlink:href="#DejaVuSans-65" x="97.607422"/>
      <use xlink:href="#DejaVuSans-61" x="159.130859"/>
      <use xlink:href="#DejaVuSans-6e" x="220.410156"/>
     </g>
    </g>
    <g id="line2d_14">
     <path d="M 20.539691 155.418094 
L 23.539691 155.418094 
L 26.539691 155.418094 
" style="fill: none; stroke: #ff0000; stroke-width: 0.8; stroke-linecap: square"/>
    </g>
    <g id="text_14">
     <!-- SACed -->
     <g transform="translate(28.939691 156.468094) scale(0.03 -0.03)">
      <defs>
       <path id="DejaVuSans-53" d="M 3425 4513 
L 3425 3897 
Q 3066 4069 2747 4153 
Q 2428 4238 2131 4238 
Q 1616 4238 1336 4038 
Q 1056 3838 1056 3469 
Q 1056 3159 1242 3001 
Q 1428 2844 1947 2747 
L 2328 2669 
Q 3034 2534 3370 2195 
Q 3706 1856 3706 1288 
Q 3706 609 3251 259 
Q 2797 -91 1919 -91 
Q 1588 -91 1214 -16 
Q 841 59 441 206 
L 441 856 
Q 825 641 1194 531 
Q 1563 422 1919 422 
Q 2459 422 2753 634 
Q 3047 847 3047 1241 
Q 3047 1584 2836 1778 
Q 2625 1972 2144 2069 
L 1759 2144 
Q 1053 2284 737 2584 
Q 422 2884 422 3419 
Q 422 4038 858 4394 
Q 1294 4750 2059 4750 
Q 2388 4750 2728 4690 
Q 3069 4631 3425 4513 
z
" transform="scale(0.015625)"/>
       <path id="DejaVuSans-41" d="M 2188 4044 
L 1331 1722 
L 3047 1722 
L 2188 4044 
z
M 1831 4666 
L 2547 4666 
L 4325 0 
L 3669 0 
L 3244 1197 
L 1141 1197 
L 716 0 
L 50 0 
L 1831 4666 
z
" transform="scale(0.015625)"/>
      </defs>
      <use xlink:href="#DejaVuSans-53"/>
      <use xlink:href="#DejaVuSans-41" x="65.351562"/>
      <use xlink:href="#DejaVuSans-43" x="132.009766"/>
      <use xlink:href="#DejaVuSans-65" x="201.833984"/>
      <use xlink:href="#DejaVuSans-64" x="263.357422"/>
     </g>
    </g>
   </g>
  </g>
 </g>
 <defs>
  <clipPath id="p0a16aa5bd8">
   <rect x="59.52" y="26.88" width="138.934362" height="102.24"/>
  </clipPath>
 </defs>
</svg>
