<?xml version="1.0" encoding="utf-8" standalone="no"?>
<!DOCTYPE svg PUBLIC "-//W3C//DTD SVG 1.1//EN"
  "http://www.w3.org/Graphics/SVG/1.1/DTD/svg11.dtd">
<svg xmlns:xlink="http://www.w3.org/1999/xlink" width="216pt" height="180pt" viewBox="0 0 216 180" xmlns="http://www.w3.org/2000/svg" version="1.1">
 <metadata>
  <rdf:RDF xmlns:dc="http://purl.org/dc/elements/1.1/" xmlns:cc="http://creativecommons.org/ns#" xmlns:rdf="http://www.w3.org/1999/02/22-rdf-syntax-ns#">
   <cc:Work>
    <dc:type rdf:resource="http://purl.org/dc/dcmitype/StillImage"/>
    <dc:date>2024-08-26T06:51:57.250174</dc:date>
    <dc:format>image/svg+xml</dc:format>
    <dc:creator>
     <cc:Agent>
      <dc:title>Matplotlib v3.9.1.post1, https://matplotlib.org/</dc:title>
     </cc:Agent>
    </dc:creator>
   </cc:Work>
  </rdf:RDF>
 </metadata>
 <defs>
  <style type="text/css">*{stroke-linejoin: round; stroke-linecap: butt}</style>
 </defs>
 <g id="figure_1">
  <g id="patch_1">
   <path d="M 0 180 
L 216 180 
L 216 0 
L 0 0 
z
" style="fill: #ffffff"/>
  </g>
  <g id="axes_1">
   <g id="patch_2">
    <path d="M 52.94 138.04 
L 191.562985 138.04 
L 191.562985 26.88 
L 52.94 26.88 
z
" style="fill: #ffffff"/>
   </g>
   <g id="matplotlib.axis_1">
    <g id="xtick_1">
     <g id="line2d_1">
      <defs>
       <path id="m7fd7cc5c7b" d="M 0 0 
L 0 3.5 
" style="stroke: #000000; stroke-width: 0.8"/>
      </defs>
      <g>
       <use xlink:href="#m7fd7cc5c7b" x="53.181383" y="138.04" style="stroke: #000000; stroke-width: 0.8"/>
      </g>
     </g>
     <g id="text_1">
      <!-- 1.30 -->
      <g transform="translate(42.048571 152.638438) scale(0.1 -0.1)">
       <defs>
        <path id="DejaVuSans-31" d="M 794 531 
L 1825 531 
L 1825 4091 
L 703 3866 
L 703 4441 
L 1819 4666 
L 2450 4666 
L 2450 531 
L 3481 531 
L 3481 0 
L 794 0 
L 794 531 
z
" transform="scale(0.015625)"/>
        <path id="DejaVuSans-2e" d="M 684 794 
L 1344 794 
L 1344 0 
L 684 0 
L 684 794 
z
" transform="scale(0.015625)"/>
        <path id="DejaVuSans-33" d="M 2597 2516 
Q 3050 2419 3304 2112 
Q 3559 1806 3559 1356 
Q 3559 666 3084 287 
Q 2609 -91 1734 -91 
Q 1441 -91 1130 -33 
Q 819 25 488 141 
L 488 750 
Q 750 597 1062 519 
Q 1375 441 1716 441 
Q 2309 441 2620 675 
Q 2931 909 2931 1356 
Q 2931 1769 2642 2001 
Q 2353 2234 1838 2234 
L 1294 2234 
L 1294 2753 
L 1863 2753 
Q 2328 2753 2575 2939 
Q 2822 3125 2822 3475 
Q 2822 3834 2567 4026 
Q 2313 4219 1838 4219 
Q 1578 4219 1281 4162 
Q 984 4106 628 3988 
L 628 4550 
Q 988 4650 1302 4700 
Q 1616 4750 1894 4750 
Q 2613 4750 3031 4423 
Q 3450 4097 3450 3541 
Q 3450 3153 3228 2886 
Q 3006 2619 2597 2516 
z
" transform="scale(0.015625)"/>
        <path id="DejaVuSans-30" d="M 2034 4250 
Q 1547 4250 1301 3770 
Q 1056 3291 1056 2328 
Q 1056 1369 1301 889 
Q 1547 409 2034 409 
Q 2525 409 2770 889 
Q 3016 1369 3016 2328 
Q 3016 3291 2770 3770 
Q 2525 4250 2034 4250 
z
M 2034 4750 
Q 2819 4750 3233 4129 
Q 3647 3509 3647 2328 
Q 3647 1150 3233 529 
Q 2819 -91 2034 -91 
Q 1250 -91 836 529 
Q 422 1150 422 2328 
Q 422 3509 836 4129 
Q 1250 4750 2034 4750 
z
" transform="scale(0.015625)"/>
       </defs>
       <use xlink:href="#DejaVuSans-31"/>
       <use xlink:href="#DejaVuSans-2e" x="63.623047"/>
       <use xlink:href="#DejaVuSans-33" x="95.410156"/>
       <use xlink:href="#DejaVuSans-30" x="159.033203"/>
      </g>
     </g>
    </g>
    <g id="xtick_2">
     <g id="line2d_2">
      <g>
       <use xlink:href="#m7fd7cc5c7b" x="122.130801" y="138.04" style="stroke: #000000; stroke-width: 0.8"/>
      </g>
     </g>
     <g id="text_2">
      <!-- 1.35 -->
      <g transform="translate(110.997988 152.638438) scale(0.1 -0.1)">
       <defs>
        <path id="DejaVuSans-35" d="M 691 4666 
L 3169 4666 
L 3169 4134 
L 1269 4134 
L 1269 2991 
Q 1406 3038 1543 3061 
Q 1681 3084 1819 3084 
Q 2600 3084 3056 2656 
Q 3513 2228 3513 1497 
Q 3513 744 3044 326 
Q 2575 -91 1722 -91 
Q 1428 -91 1123 -41 
Q 819 9 494 109 
L 494 744 
Q 775 591 1075 516 
Q 1375 441 1709 441 
Q 2250 441 2565 725 
Q 2881 1009 2881 1497 
Q 2881 1984 2565 2268 
Q 2250 2553 1709 2553 
Q 1456 2553 1204 2497 
Q 953 2441 691 2322 
L 691 4666 
z
" transform="scale(0.015625)"/>
       </defs>
       <use xlink:href="#DejaVuSans-31"/>
       <use xlink:href="#DejaVuSans-2e" x="63.623047"/>
       <use xlink:href="#DejaVuSans-33" x="95.410156"/>
       <use xlink:href="#DejaVuSans-35" x="159.033203"/>
      </g>
     </g>
    </g>
    <g id="xtick_3">
     <g id="line2d_3">
      <g>
       <use xlink:href="#m7fd7cc5c7b" x="191.080218" y="138.04" style="stroke: #000000; stroke-width: 0.8"/>
      </g>
     </g>
     <g id="text_3">
      <!-- 1.40 -->
      <g transform="translate(179.947406 152.638438) scale(0.1 -0.1)">
       <defs>
        <path id="DejaVuSans-34" d="M 2419 4116 
L 825 1625 
L 2419 1625 
L 2419 4116 
z
M 2253 4666 
L 3047 4666 
L 3047 1625 
L 3713 1625 
L 3713 1100 
L 3047 1100 
L 3047 0 
L 2419 0 
L 2419 1100 
L 313 1100 
L 313 1709 
L 2253 4666 
z
" transform="scale(0.015625)"/>
       </defs>
       <use xlink:href="#DejaVuSans-31"/>
       <use xlink:href="#DejaVuSans-2e" x="63.623047"/>
       <use xlink:href="#DejaVuSans-34" x="95.410156"/>
       <use xlink:href="#DejaVuSans-30" x="159.033203"/>
      </g>
     </g>
    </g>
    <g id="text_4">
     <!-- Time (s) -->
     <g transform="translate(101.922586 166.316563) scale(0.1 -0.1)">
      <defs>
       <path id="DejaVuSans-54" d="M -19 4666 
L 3928 4666 
L 3928 4134 
L 2272 4134 
L 2272 0 
L 1638 0 
L 1638 4134 
L -19 4134 
L -19 4666 
z
" transform="scale(0.015625)"/>
       <path id="DejaVuSans-69" d="M 603 3500 
L 1178 3500 
L 1178 0 
L 603 0 
L 603 3500 
z
M 603 4863 
L 1178 4863 
L 1178 4134 
L 603 4134 
L 603 4863 
z
" transform="scale(0.015625)"/>
       <path id="DejaVuSans-6d" d="M 3328 2828 
Q 3544 3216 3844 3400 
Q 4144 3584 4550 3584 
Q 5097 3584 5394 3201 
Q 5691 2819 5691 2113 
L 5691 0 
L 5113 0 
L 5113 2094 
Q 5113 2597 4934 2840 
Q 4756 3084 4391 3084 
Q 3944 3084 3684 2787 
Q 3425 2491 3425 1978 
L 3425 0 
L 2847 0 
L 2847 2094 
Q 2847 2600 2669 2842 
Q 2491 3084 2119 3084 
Q 1678 3084 1418 2786 
Q 1159 2488 1159 1978 
L 1159 0 
L 581 0 
L 581 3500 
L 1159 3500 
L 1159 2956 
Q 1356 3278 1631 3431 
Q 1906 3584 2284 3584 
Q 2666 3584 2933 3390 
Q 3200 3197 3328 2828 
z
" transform="scale(0.015625)"/>
       <path id="DejaVuSans-65" d="M 3597 1894 
L 3597 1613 
L 953 1613 
Q 991 1019 1311 708 
Q 1631 397 2203 397 
Q 2534 397 2845 478 
Q 3156 559 3463 722 
L 3463 178 
Q 3153 47 2828 -22 
Q 2503 -91 2169 -91 
Q 1331 -91 842 396 
Q 353 884 353 1716 
Q 353 2575 817 3079 
Q 1281 3584 2069 3584 
Q 2775 3584 3186 3129 
Q 3597 2675 3597 1894 
z
M 3022 2063 
Q 3016 2534 2758 2815 
Q 2500 3097 2075 3097 
Q 1594 3097 1305 2825 
Q 1016 2553 972 2059 
L 3022 2063 
z
" transform="scale(0.015625)"/>
       <path id="DejaVuSans-20" transform="scale(0.015625)"/>
       <path id="DejaVuSans-28" d="M 1984 4856 
Q 1566 4138 1362 3434 
Q 1159 2731 1159 2009 
Q 1159 1288 1364 580 
Q 1569 -128 1984 -844 
L 1484 -844 
Q 1016 -109 783 600 
Q 550 1309 550 2009 
Q 550 2706 781 3412 
Q 1013 4119 1484 4856 
L 1984 4856 
z
" transform="scale(0.015625)"/>
       <path id="DejaVuSans-73" d="M 2834 3397 
L 2834 2853 
Q 2591 2978 2328 3040 
Q 2066 3103 1784 3103 
Q 1356 3103 1142 2972 
Q 928 2841 928 2578 
Q 928 2378 1081 2264 
Q 1234 2150 1697 2047 
L 1894 2003 
Q 2506 1872 2764 1633 
Q 3022 1394 3022 966 
Q 3022 478 2636 193 
Q 2250 -91 1575 -91 
Q 1294 -91 989 -36 
Q 684 19 347 128 
L 347 722 
Q 666 556 975 473 
Q 1284 391 1588 391 
Q 1994 391 2212 530 
Q 2431 669 2431 922 
Q 2431 1156 2273 1281 
Q 2116 1406 1581 1522 
L 1381 1569 
Q 847 1681 609 1914 
Q 372 2147 372 2553 
Q 372 3047 722 3315 
Q 1072 3584 1716 3584 
Q 2034 3584 2315 3537 
Q 2597 3491 2834 3397 
z
" transform="scale(0.015625)"/>
       <path id="DejaVuSans-29" d="M 513 4856 
L 1013 4856 
Q 1481 4119 1714 3412 
Q 1947 2706 1947 2009 
Q 1947 1309 1714 600 
Q 1481 -109 1013 -844 
L 513 -844 
Q 928 -128 1133 580 
Q 1338 1288 1338 2009 
Q 1338 2731 1133 3434 
Q 928 4138 513 4856 
z
" transform="scale(0.015625)"/>
      </defs>
      <use xlink:href="#DejaVuSans-54"/>
      <use xlink:href="#DejaVuSans-69" x="57.958984"/>
      <use xlink:href="#DejaVuSans-6d" x="85.742188"/>
      <use xlink:href="#DejaVuSans-65" x="183.154297"/>
      <use xlink:href="#DejaVuSans-20" x="244.677734"/>
      <use xlink:href="#DejaVuSans-28" x="276.464844"/>
      <use xlink:href="#DejaVuSans-73" x="315.478516"/>
      <use xlink:href="#DejaVuSans-29" x="367.578125"/>
     </g>
    </g>
   </g>
   <g id="matplotlib.axis_2">
    <g id="ytick_1">
     <g id="line2d_4">
      <defs>
       <path id="mcfb02863d4" d="M 0 0 
L -3.5 0 
" style="stroke: #000000; stroke-width: 0.8"/>
      </defs>
      <g>
       <use xlink:href="#mcfb02863d4" x="52.94" y="135.035676" style="stroke: #000000; stroke-width: 0.8"/>
      </g>
     </g>
     <g id="text_5">
      <!-- −10 -->
      <g transform="translate(24.835313 138.834894) scale(0.1 -0.1)">
       <defs>
        <path id="DejaVuSans-2212" d="M 678 2272 
L 4684 2272 
L 4684 1741 
L 678 1741 
L 678 2272 
z
" transform="scale(0.015625)"/>
       </defs>
       <use xlink:href="#DejaVuSans-2212"/>
       <use xlink:href="#DejaVuSans-31" x="83.789062"/>
       <use xlink:href="#DejaVuSans-30" x="147.412109"/>
      </g>
     </g>
    </g>
    <g id="ytick_2">
     <g id="line2d_5">
      <g>
       <use xlink:href="#mcfb02863d4" x="52.94" y="104.992432" style="stroke: #000000; stroke-width: 0.8"/>
      </g>
     </g>
     <g id="text_6">
      <!-- −5 -->
      <g transform="translate(31.197813 108.791651) scale(0.1 -0.1)">
       <use xlink:href="#DejaVuSans-2212"/>
       <use xlink:href="#DejaVuSans-35" x="83.789062"/>
      </g>
     </g>
    </g>
    <g id="ytick_3">
     <g id="line2d_6">
      <g>
       <use xlink:href="#mcfb02863d4" x="52.94" y="74.949189" style="stroke: #000000; stroke-width: 0.8"/>
      </g>
     </g>
     <g id="text_7">
      <!-- 0 -->
      <g transform="translate(39.5775 78.748408) scale(0.1 -0.1)">
       <use xlink:href="#DejaVuSans-30"/>
      </g>
     </g>
    </g>
    <g id="ytick_4">
     <g id="line2d_7">
      <g>
       <use xlink:href="#mcfb02863d4" x="52.94" y="44.905946" style="stroke: #000000; stroke-width: 0.8"/>
      </g>
     </g>
     <g id="text_8">
      <!-- 5 -->
      <g transform="translate(39.5775 48.705165) scale(0.1 -0.1)">
       <use xlink:href="#DejaVuSans-35"/>
      </g>
     </g>
    </g>
    <g id="text_9">
     <!-- Amplitude (mV) -->
     <g transform="translate(18.755625 121.863906) rotate(-90) scale(0.1 -0.1)">
      <defs>
       <path id="DejaVuSans-41" d="M 2188 4044 
L 1331 1722 
L 3047 1722 
L 2188 4044 
z
M 1831 4666 
L 2547 4666 
L 4325 0 
L 3669 0 
L 3244 1197 
L 1141 1197 
L 716 0 
L 50 0 
L 1831 4666 
z
" transform="scale(0.015625)"/>
       <path id="DejaVuSans-70" d="M 1159 525 
L 1159 -1331 
L 581 -1331 
L 581 3500 
L 1159 3500 
L 1159 2969 
Q 1341 3281 1617 3432 
Q 1894 3584 2278 3584 
Q 2916 3584 3314 3078 
Q 3713 2572 3713 1747 
Q 3713 922 3314 415 
Q 2916 -91 2278 -91 
Q 1894 -91 1617 61 
Q 1341 213 1159 525 
z
M 3116 1747 
Q 3116 2381 2855 2742 
Q 2594 3103 2138 3103 
Q 1681 3103 1420 2742 
Q 1159 2381 1159 1747 
Q 1159 1113 1420 752 
Q 1681 391 2138 391 
Q 2594 391 2855 752 
Q 3116 1113 3116 1747 
z
" transform="scale(0.015625)"/>
       <path id="DejaVuSans-6c" d="M 603 4863 
L 1178 4863 
L 1178 0 
L 603 0 
L 603 4863 
z
" transform="scale(0.015625)"/>
       <path id="DejaVuSans-74" d="M 1172 4494 
L 1172 3500 
L 2356 3500 
L 2356 3053 
L 1172 3053 
L 1172 1153 
Q 1172 725 1289 603 
Q 1406 481 1766 481 
L 2356 481 
L 2356 0 
L 1766 0 
Q 1100 0 847 248 
Q 594 497 594 1153 
L 594 3053 
L 172 3053 
L 172 3500 
L 594 3500 
L 594 4494 
L 1172 4494 
z
" transform="scale(0.015625)"/>
       <path id="DejaVuSans-75" d="M 544 1381 
L 544 3500 
L 1119 3500 
L 1119 1403 
Q 1119 906 1312 657 
Q 1506 409 1894 409 
Q 2359 409 2629 706 
Q 2900 1003 2900 1516 
L 2900 3500 
L 3475 3500 
L 3475 0 
L 2900 0 
L 2900 538 
Q 2691 219 2414 64 
Q 2138 -91 1772 -91 
Q 1169 -91 856 284 
Q 544 659 544 1381 
z
M 1991 3584 
L 1991 3584 
z
" transform="scale(0.015625)"/>
       <path id="DejaVuSans-64" d="M 2906 2969 
L 2906 4863 
L 3481 4863 
L 3481 0 
L 2906 0 
L 2906 525 
Q 2725 213 2448 61 
Q 2172 -91 1784 -91 
Q 1150 -91 751 415 
Q 353 922 353 1747 
Q 353 2572 751 3078 
Q 1150 3584 1784 3584 
Q 2172 3584 2448 3432 
Q 2725 3281 2906 2969 
z
M 947 1747 
Q 947 1113 1208 752 
Q 1469 391 1925 391 
Q 2381 391 2643 752 
Q 2906 1113 2906 1747 
Q 2906 2381 2643 2742 
Q 2381 3103 1925 3103 
Q 1469 3103 1208 2742 
Q 947 2381 947 1747 
z
" transform="scale(0.015625)"/>
       <path id="DejaVuSans-56" d="M 1831 0 
L 50 4666 
L 709 4666 
L 2188 738 
L 3669 4666 
L 4325 4666 
L 2547 0 
L 1831 0 
z
" transform="scale(0.015625)"/>
      </defs>
      <use xlink:href="#DejaVuSans-41"/>
      <use xlink:href="#DejaVuSans-6d" x="68.408203"/>
      <use xlink:href="#DejaVuSans-70" x="165.820312"/>
      <use xlink:href="#DejaVuSans-6c" x="229.296875"/>
      <use xlink:href="#DejaVuSans-69" x="257.080078"/>
      <use xlink:href="#DejaVuSans-74" x="284.863281"/>
      <use xlink:href="#DejaVuSans-75" x="324.072266"/>
      <use xlink:href="#DejaVuSans-64" x="387.451172"/>
      <use xlink:href="#DejaVuSans-65" x="450.927734"/>
      <use xlink:href="#DejaVuSans-20" x="512.451172"/>
      <use xlink:href="#DejaVuSans-28" x="544.238281"/>
      <use xlink:href="#DejaVuSans-6d" x="583.251953"/>
      <use xlink:href="#DejaVuSans-56" x="680.664062"/>
      <use xlink:href="#DejaVuSans-29" x="749.072266"/>
     </g>
    </g>
   </g>
   <g id="line2d_8">
    <path d="M 53.629667 75.560833 
L 54.319333 75.820554 
L 56.388333 77.094998 
L 57.078 77.173682 
L 57.767666 76.946687 
L 59.146999 77.821058 
L 59.836666 77.78035 
L 60.526333 78.261498 
L 61.215999 78.143992 
L 61.905666 77.115041 
L 62.595332 76.492553 
L 63.284999 76.650408 
L 63.974665 76.479806 
L 64.664332 75.682105 
L 66.043665 75.058304 
L 67.422998 75.50534 
L 68.112665 74.876219 
L 68.802332 74.73285 
L 69.491998 74.852829 
L 70.181665 74.186138 
L 70.871331 74.083453 
L 71.560998 73.853935 
L 72.940331 72.930572 
L 73.629998 72.718663 
L 74.319664 73.277129 
L 75.009331 73.377132 
L 75.698998 73.358151 
L 76.388664 72.940896 
L 77.078331 73.014613 
L 77.767997 73.411927 
L 79.147331 72.074145 
L 79.836997 70.779983 
L 80.526664 70.147206 
L 81.21633 69.963254 
L 81.905997 69.379556 
L 82.595663 68.619134 
L 83.28533 68.504373 
L 84.664663 69.016147 
L 85.35433 68.994381 
L 86.043996 68.693048 
L 86.733663 68.175281 
L 88.112996 67.558982 
L 88.802663 67.933937 
L 89.492329 68.789613 
L 90.181996 68.997904 
L 90.871663 68.840153 
L 91.561329 68.161862 
L 92.250996 68.273586 
L 93.630329 69.578749 
L 94.319996 70.421437 
L 95.009662 70.671587 
L 95.699329 71.287774 
L 96.388995 72.158381 
L 99.147662 76.842244 
L 99.837328 76.777804 
L 100.526995 76.953409 
L 101.216661 77.267756 
L 101.906328 78.146455 
L 102.595995 77.977808 
L 103.285661 77.648386 
L 103.975328 77.612008 
L 104.664994 76.93497 
L 106.044328 77.806008 
L 106.733994 77.895591 
L 107.423661 77.807897 
L 108.113327 78.203318 
L 110.182327 80.87298 
L 112.251327 84.388327 
L 114.320327 84.492542 
L 115.009993 83.678887 
L 115.69966 83.354812 
L 116.389327 84.129935 
L 117.76866 84.935041 
L 118.458326 84.994372 
L 119.147993 85.831748 
L 119.837659 86.320539 
L 120.527326 86.411771 
L 121.216993 86.719607 
L 121.906659 86.752717 
L 122.596326 86.267482 
L 123.285992 85.003919 
L 123.975659 84.054424 
L 124.665326 83.492977 
L 125.354992 82.574551 
L 126.044659 83.009802 
L 127.423992 83.430303 
L 128.113659 82.86742 
L 128.803325 82.782677 
L 130.872325 81.458304 
L 131.561992 81.545978 
L 132.251658 80.723956 
L 132.941325 80.117216 
L 133.630991 79.845491 
L 134.320658 79.3743 
L 135.699991 79.235781 
L 136.389658 79.090468 
L 137.079324 79.129839 
L 137.768991 78.89399 
L 138.458657 77.889014 
L 139.837991 77.023612 
L 141.217324 77.266905 
L 142.596657 75.830083 
L 143.286324 75.493713 
L 144.665657 74.600217 
L 145.355323 74.861535 
L 146.04499 75.280928 
L 146.734657 75.27912 
L 147.424323 75.620059 
L 148.803656 75.659841 
L 150.872656 72.819698 
L 152.251989 72.480672 
L 156.389989 69.600657 
L 157.769322 70.060048 
L 158.458989 70.41006 
L 159.148655 69.911276 
L 159.838322 68.770295 
L 160.527988 68.313041 
L 161.217655 67.575961 
L 161.907322 68.040366 
L 163.286655 68.210986 
L 163.976321 67.40141 
L 164.665988 67.263922 
L 165.355655 66.965989 
L 166.045321 66.845384 
L 166.734988 67.385848 
L 167.424654 67.411267 
L 168.114321 66.88871 
L 169.493654 64.926469 
L 170.183321 63.812218 
L 170.872987 62.171608 
L 171.562654 61.201744 
L 172.25232 61.608359 
L 172.941987 62.299456 
L 173.631654 63.619565 
L 174.32132 64.506308 
L 175.010987 65.211383 
L 175.700653 65.525204 
L 176.39032 66.416743 
L 177.769653 67.368513 
L 178.45932 67.639796 
L 179.148986 68.212159 
L 180.52832 70.025595 
L 181.907653 72.603256 
L 182.597319 73.337211 
L 183.286986 73.467762 
L 183.976653 73.344453 
L 184.666319 73.596945 
L 186.735319 72.720695 
L 188.114652 73.840736 
L 188.804319 73.809246 
L 189.493985 74.683404 
L 190.183652 75.301378 
L 190.873318 76.152871 
L 190.873318 76.152871 
" clip-path="url(#p29dd77cfb2)" style="fill: none; stroke: #1e90ff; stroke-linecap: square"/>
   </g>
   <g id="line2d_9">
    <path d="M 53.629667 81.881153 
L 55.009 87.904538 
L 56.388333 92.71481 
L 57.078 95.469676 
L 57.767666 96.754057 
L 58.457333 96.218125 
L 59.146999 72.465113 
L 59.836666 80.70127 
L 60.526333 83.893549 
L 61.215999 83.908493 
L 61.905666 84.065195 
L 62.595332 83.339677 
L 63.974665 79.21057 
L 66.043665 70.771549 
L 66.733332 68.063374 
L 68.112665 61.346885 
L 68.802332 59.132852 
L 69.491998 57.569978 
L 70.181665 66.494113 
L 70.871331 79.405064 
L 71.560998 85.537064 
L 72.250665 85.535947 
L 72.940331 83.818887 
L 73.629998 80.554102 
L 75.009331 71.593547 
L 77.767997 50.985246 
L 79.147331 44.50668 
L 79.836997 42.636681 
L 80.526664 41.240772 
L 81.21633 62.642345 
L 81.905997 70.665282 
L 82.595663 73.741725 
L 83.28533 73.422954 
L 83.974997 72.547923 
L 85.35433 69.032703 
L 90.181996 52.520558 
L 90.871663 51.043772 
L 91.561329 50.183383 
L 92.250996 70.221824 
L 92.940662 63.438938 
L 93.630329 60.575381 
L 94.319996 61.927141 
L 95.009662 62.887945 
L 95.699329 64.464467 
L 97.078662 69.062571 
L 97.768329 71.893816 
L 98.457995 73.857058 
L 99.147662 76.222721 
L 99.837328 78.999723 
L 100.526995 81.139597 
L 101.216661 82.648521 
L 101.906328 83.747255 
L 102.595995 85.822822 
L 103.285661 76.608888 
L 103.975328 70.644376 
L 104.664994 69.003629 
L 105.354661 69.404542 
L 106.044328 70.492129 
L 106.733994 71.19813 
L 107.423661 72.849567 
L 110.182327 80.506528 
L 112.251327 86.176925 
L 112.940994 86.991159 
L 113.63066 87.55257 
L 114.320327 69.931275 
L 115.009993 80.182495 
L 115.69966 84.290245 
L 116.389327 84.572623 
L 117.078993 83.860699 
L 117.76866 81.936668 
L 118.458326 79.568251 
L 119.147993 76.420588 
L 120.527326 69.23619 
L 121.906659 63.256445 
L 123.285992 58.605882 
L 123.975659 57.153319 
L 124.665326 56.46233 
L 125.354992 81.144849 
L 126.044659 69.224504 
L 126.734325 64.578521 
L 127.423992 64.842054 
L 128.113659 65.835292 
L 128.803325 67.98638 
L 130.872325 78.414458 
L 131.561992 82.638146 
L 132.941325 88.913938 
L 134.320658 93.062608 
L 135.010324 94.695492 
L 135.699991 95.218217 
L 136.389658 67.502101 
L 137.079324 78.194061 
L 137.768991 82.049103 
L 138.458657 81.531256 
L 139.148324 80.139007 
L 139.837991 78.457001 
L 141.217324 71.246234 
L 141.90699 66.914209 
L 143.97599 56.355602 
L 144.665657 53.322332 
L 145.355323 51.424187 
L 146.04499 49.992641 
L 146.734657 50.168637 
L 147.424323 68.587796 
L 148.11399 71.428554 
L 148.803656 72.495411 
L 150.18299 72.637589 
L 150.872656 72.129137 
L 151.562323 70.515101 
L 152.251989 69.483823 
L 152.941656 67.930746 
L 153.631322 66.742291 
L 155.010656 64.868441 
L 155.700322 64.533246 
L 156.389989 64.457177 
L 157.079655 63.930272 
L 157.769322 64.099485 
L 158.458989 73.258614 
L 159.148655 65.255676 
L 159.838322 62.47757 
L 160.527988 62.90741 
L 161.907322 65.240708 
L 162.596988 67.32885 
L 163.286655 69.026023 
L 163.976321 71.164232 
L 166.045321 78.949894 
L 166.734988 81.020596 
L 167.424654 82.405194 
L 168.114321 84.33326 
L 168.803988 85.48544 
L 169.493654 73.065837 
L 170.183321 71.458728 
L 170.872987 70.298814 
L 171.562654 70.541214 
L 172.941987 70.380178 
L 173.631654 70.84164 
L 174.32132 72.319901 
L 175.700653 74.223571 
L 176.39032 74.587308 
L 177.079987 74.773356 
L 177.769653 75.197373 
L 178.45932 76.317108 
L 179.838653 77.133195 
L 180.52832 66.709878 
L 181.217986 78.36853 
L 181.907653 83.239943 
L 182.597319 83.375629 
L 183.286986 81.982078 
L 183.976653 80.240826 
L 184.666319 77.97875 
L 185.355986 75.067015 
L 187.424986 63.972572 
L 188.804319 56.856015 
L 189.493985 54.586909 
L 190.183652 54.097806 
L 190.873318 53.978161 
L 190.873318 53.978161 
" clip-path="url(#p29dd77cfb2)" style="fill: none; stroke: #ff0000; stroke-width: 0.8; stroke-linecap: square"/>
   </g>
   <g id="line2d_10">
    <path d="M 53.629667 101.041696 
L 55.740738 181 
M 58.75786 181 
L 59.146999 118.687109 
L 59.836666 35.28603 
L 60.526333 1.238181 
L 61.215999 4.546326 
L 61.905666 13.595241 
L 62.595332 29.117145 
L 63.284999 50.547665 
L 64.664332 102.338163 
L 66.675306 181 
M 69.793014 181 
L 70.181665 113.075875 
L 70.871331 33.644192 
L 71.560998 0.555526 
L 72.250665 3.304259 
L 72.940331 12.48264 
L 73.629998 27.634367 
L 75.009331 72.484404 
L 77.94297 181 
M 80.746303 181 
L 81.21633 94.918717 
L 81.905997 43.429767 
L 82.595663 21.583699 
L 83.28533 23.560862 
L 83.974997 29.964675 
L 84.664663 40.085649 
L 85.35433 53.054352 
L 86.733663 84.4532 
L 88.802663 133.784892 
L 89.492329 147.631037 
L 90.181996 157.698142 
L 90.871663 163.69459 
L 91.561329 165.108223 
L 92.940662 36.992033 
L 93.630329 11.707436 
L 94.319996 15.12398 
L 95.009662 22.946114 
L 95.699329 35.692358 
L 96.388995 52.546138 
L 97.768329 94.584447 
L 99.147662 138.956329 
L 100.526995 173.958075 
L 100.917257 181 
M 102.73142 181 
L 103.975328 39.332424 
L 104.664994 7.551098 
L 105.354661 11.111799 
L 106.044328 20.586326 
L 106.733994 35.219043 
L 107.423661 54.294117 
L 108.802994 103.063604 
L 110.931993 181 
M 113.908464 181 
L 114.320327 112.087901 
L 115.009993 54.984018 
L 115.69966 31.343767 
L 116.389327 34.432106 
L 117.078993 41.596817 
L 117.76866 52.94415 
L 118.458326 67.368139 
L 120.527326 123.602621 
L 121.906659 159.569668 
L 122.596326 173.44909 
L 123.136638 181 
M 124.754764 181 
L 126.044659 48.317082 
L 126.734325 20.302039 
L 127.423992 23.344549 
L 128.113659 31.009321 
L 128.803325 44.104995 
L 129.492992 60.996571 
L 130.872325 103.220534 
L 132.251658 148.216601 
L 133.459539 181 
M 135.884474 181 
L 136.389658 104.749569 
L 137.079324 52.448376 
L 137.768991 30.532355 
L 138.458657 31.678287 
L 139.148324 37.571307 
L 139.837991 47.277397 
L 140.527657 60.799266 
L 142.596657 110.411398 
L 143.97599 142.713812 
L 144.665657 155.664634 
L 145.355323 166.062743 
L 146.04499 172.809857 
L 146.734657 174.958957 
L 147.424323 103.6837 
L 148.11399 46.436119 
L 148.803656 22.76619 
L 149.493323 24.175267 
L 150.18299 30.113719 
L 150.872656 40.285936 
L 151.562323 54.734134 
L 152.941656 90.288513 
L 155.010656 144.577743 
L 155.700322 158.655419 
L 156.389989 169.348419 
L 157.079655 176.485299 
L 157.769322 179.08098 
L 158.458989 95.477905 
L 159.148655 43.844626 
L 159.838322 21.523044 
L 160.527988 23.167136 
L 161.217655 28.611969 
L 161.907322 38.979584 
L 162.596988 52.138436 
L 164.665988 101.048389 
L 166.045321 132.992886 
L 166.734988 146.58232 
L 167.424654 156.510949 
L 168.114321 162.170306 
L 168.803988 163.327466 
L 169.493654 102.790962 
L 170.183321 24.439049 
L 170.704957 -1 
M 171.986625 -1 
L 172.25232 2.754005 
L 172.941987 18.40371 
L 174.32132 63.637115 
L 177.079987 166.868888 
L 177.564263 181 
M 180.044636 181 
L 180.52832 98.484243 
L 181.217986 41.70293 
L 181.907653 18.965105 
L 182.597319 22.084643 
L 183.286986 29.233304 
L 183.976653 40.352764 
L 185.355986 72.617375 
L 188.114652 148.935681 
L 188.804319 163.71823 
L 189.493985 175.835157 
L 189.960457 181 
L 189.960457 181 
" clip-path="url(#p29dd77cfb2)" style="fill: none; stroke: #808080; stroke-width: 0.2; stroke-linecap: square"/>
   </g>
   <g id="patch_3">
    <path d="M 52.94 138.04 
L 52.94 26.88 
" style="fill: none; stroke: #000000; stroke-width: 0.8; stroke-linejoin: miter; stroke-linecap: square"/>
   </g>
   <g id="patch_4">
    <path d="M 191.562985 138.04 
L 191.562985 26.88 
" style="fill: none; stroke: #000000; stroke-width: 0.8; stroke-linejoin: miter; stroke-linecap: square"/>
   </g>
   <g id="patch_5">
    <path d="M 52.94 138.04 
L 191.562985 138.04 
" style="fill: none; stroke: #000000; stroke-width: 0.8; stroke-linejoin: miter; stroke-linecap: square"/>
   </g>
   <g id="patch_6">
    <path d="M 52.94 26.88 
L 191.562985 26.88 
" style="fill: none; stroke: #000000; stroke-width: 0.8; stroke-linejoin: miter; stroke-linecap: square"/>
   </g>
   <g id="text_10">
    <!-- Zoom-in Time Domain Plot -->
    <g transform="translate(42.329618 20.88) scale(0.12 -0.12)">
     <defs>
      <path id="DejaVuSans-5a" d="M 359 4666 
L 4025 4666 
L 4025 4184 
L 1075 531 
L 4097 531 
L 4097 0 
L 288 0 
L 288 481 
L 3238 4134 
L 359 4134 
L 359 4666 
z
" transform="scale(0.015625)"/>
      <path id="DejaVuSans-6f" d="M 1959 3097 
Q 1497 3097 1228 2736 
Q 959 2375 959 1747 
Q 959 1119 1226 758 
Q 1494 397 1959 397 
Q 2419 397 2687 759 
Q 2956 1122 2956 1747 
Q 2956 2369 2687 2733 
Q 2419 3097 1959 3097 
z
M 1959 3584 
Q 2709 3584 3137 3096 
Q 3566 2609 3566 1747 
Q 3566 888 3137 398 
Q 2709 -91 1959 -91 
Q 1206 -91 779 398 
Q 353 888 353 1747 
Q 353 2609 779 3096 
Q 1206 3584 1959 3584 
z
" transform="scale(0.015625)"/>
      <path id="DejaVuSans-2d" d="M 313 2009 
L 1997 2009 
L 1997 1497 
L 313 1497 
L 313 2009 
z
" transform="scale(0.015625)"/>
      <path id="DejaVuSans-6e" d="M 3513 2113 
L 3513 0 
L 2938 0 
L 2938 2094 
Q 2938 2591 2744 2837 
Q 2550 3084 2163 3084 
Q 1697 3084 1428 2787 
Q 1159 2491 1159 1978 
L 1159 0 
L 581 0 
L 581 3500 
L 1159 3500 
L 1159 2956 
Q 1366 3272 1645 3428 
Q 1925 3584 2291 3584 
Q 2894 3584 3203 3211 
Q 3513 2838 3513 2113 
z
" transform="scale(0.015625)"/>
      <path id="DejaVuSans-44" d="M 1259 4147 
L 1259 519 
L 2022 519 
Q 2988 519 3436 956 
Q 3884 1394 3884 2338 
Q 3884 3275 3436 3711 
Q 2988 4147 2022 4147 
L 1259 4147 
z
M 628 4666 
L 1925 4666 
Q 3281 4666 3915 4102 
Q 4550 3538 4550 2338 
Q 4550 1131 3912 565 
Q 3275 0 1925 0 
L 628 0 
L 628 4666 
z
" transform="scale(0.015625)"/>
      <path id="DejaVuSans-61" d="M 2194 1759 
Q 1497 1759 1228 1600 
Q 959 1441 959 1056 
Q 959 750 1161 570 
Q 1363 391 1709 391 
Q 2188 391 2477 730 
Q 2766 1069 2766 1631 
L 2766 1759 
L 2194 1759 
z
M 3341 1997 
L 3341 0 
L 2766 0 
L 2766 531 
Q 2569 213 2275 61 
Q 1981 -91 1556 -91 
Q 1019 -91 701 211 
Q 384 513 384 1019 
Q 384 1609 779 1909 
Q 1175 2209 1959 2209 
L 2766 2209 
L 2766 2266 
Q 2766 2663 2505 2880 
Q 2244 3097 1772 3097 
Q 1472 3097 1187 3025 
Q 903 2953 641 2809 
L 641 3341 
Q 956 3463 1253 3523 
Q 1550 3584 1831 3584 
Q 2591 3584 2966 3190 
Q 3341 2797 3341 1997 
z
" transform="scale(0.015625)"/>
      <path id="DejaVuSans-50" d="M 1259 4147 
L 1259 2394 
L 2053 2394 
Q 2494 2394 2734 2622 
Q 2975 2850 2975 3272 
Q 2975 3691 2734 3919 
Q 2494 4147 2053 4147 
L 1259 4147 
z
M 628 4666 
L 2053 4666 
Q 2838 4666 3239 4311 
Q 3641 3956 3641 3272 
Q 3641 2581 3239 2228 
Q 2838 1875 2053 1875 
L 1259 1875 
L 1259 0 
L 628 0 
L 628 4666 
z
" transform="scale(0.015625)"/>
     </defs>
     <use xlink:href="#DejaVuSans-5a"/>
     <use xlink:href="#DejaVuSans-6f" x="68.505859"/>
     <use xlink:href="#DejaVuSans-6f" x="129.6875"/>
     <use xlink:href="#DejaVuSans-6d" x="190.869141"/>
     <use xlink:href="#DejaVuSans-2d" x="288.28125"/>
     <use xlink:href="#DejaVuSans-69" x="324.365234"/>
     <use xlink:href="#DejaVuSans-6e" x="352.148438"/>
     <use xlink:href="#DejaVuSans-20" x="415.527344"/>
     <use xlink:href="#DejaVuSans-54" x="447.314453"/>
     <use xlink:href="#DejaVuSans-69" x="505.273438"/>
     <use xlink:href="#DejaVuSans-6d" x="533.056641"/>
     <use xlink:href="#DejaVuSans-65" x="630.46875"/>
     <use xlink:href="#DejaVuSans-20" x="691.992188"/>
     <use xlink:href="#DejaVuSans-44" x="723.779297"/>
     <use xlink:href="#DejaVuSans-6f" x="800.78125"/>
     <use xlink:href="#DejaVuSans-6d" x="861.962891"/>
     <use xlink:href="#DejaVuSans-61" x="959.375"/>
     <use xlink:href="#DejaVuSans-69" x="1020.654297"/>
     <use xlink:href="#DejaVuSans-6e" x="1048.4375"/>
     <use xlink:href="#DejaVuSans-20" x="1111.816406"/>
     <use xlink:href="#DejaVuSans-50" x="1143.603516"/>
     <use xlink:href="#DejaVuSans-6c" x="1203.90625"/>
     <use xlink:href="#DejaVuSans-6f" x="1231.689453"/>
     <use xlink:href="#DejaVuSans-74" x="1292.871094"/>
    </g>
   </g>
  </g>
 </g>
 <defs>
  <clipPath id="p29dd77cfb2">
   <rect x="52.94" y="26.88" width="138.622985" height="111.16"/>
  </clipPath>
 </defs>
</svg>
