<?xml version="1.0" encoding="utf-8" standalone="no"?>
<!DOCTYPE svg PUBLIC "-//W3C//DTD SVG 1.1//EN"
  "http://www.w3.org/Graphics/SVG/1.1/DTD/svg11.dtd">
<svg xmlns:xlink="http://www.w3.org/1999/xlink" width="216pt" height="180pt" viewBox="0 0 216 180" xmlns="http://www.w3.org/2000/svg" version="1.1">
 <metadata>
  <rdf:RDF xmlns:dc="http://purl.org/dc/elements/1.1/" xmlns:cc="http://creativecommons.org/ns#" xmlns:rdf="http://www.w3.org/1999/02/22-rdf-syntax-ns#">
   <cc:Work>
    <dc:type rdf:resource="http://purl.org/dc/dcmitype/StillImage"/>
    <dc:date>2024-08-26T06:51:57.168098</dc:date>
    <dc:format>image/svg+xml</dc:format>
    <dc:creator>
     <cc:Agent>
      <dc:title>Matplotlib v3.9.1.post1, https://matplotlib.org/</dc:title>
     </cc:Agent>
    </dc:creator>
   </cc:Work>
  </rdf:RDF>
 </metadata>
 <defs>
  <style type="text/css">*{stroke-linejoin: round; stroke-linecap: butt}</style>
 </defs>
 <g id="figure_1">
  <g id="patch_1">
   <path d="M 0 180 
L 216 180 
L 216 0 
L 0 0 
z
" style="fill: #ffffff"/>
  </g>
  <g id="axes_1">
   <g id="patch_2">
    <path d="M 59.52 129.12 
L 194.255487 129.12 
L 194.255487 26.88 
L 59.52 26.88 
z
" style="fill: #ffffff"/>
   </g>
   <g id="line2d_1">
    <path d="M 59.587334 73.481413 
L 59.85667 47.545755 
L 59.991339 48.896343 
L 60.260675 55.809971 
L 60.799347 79.13656 
L 61.33802 99.596661 
L 61.607356 102.252641 
L 62.011361 44.879067 
L 62.146029 45.420189 
L 62.280697 47.592797 
L 62.550033 57.054294 
L 63.492711 102.187844 
L 63.762047 105.330108 
L 64.166051 37.056485 
L 64.300719 37.821926 
L 64.570056 45.557173 
L 65.108728 77.002713 
L 65.647401 105.993519 
L 65.916737 110.669756 
L 66.186074 48.663718 
L 66.320742 39.31517 
L 66.45541 39.882393 
L 66.724746 46.591485 
L 67.263419 73.775628 
L 67.802091 98.382252 
L 68.071428 101.863972 
L 68.475432 35.820386 
L 68.6101 37.441927 
L 68.879437 46.386157 
L 69.418109 78.951084 
L 69.956782 108.030735 
L 70.226118 112.200967 
L 70.495454 50.657451 
L 70.630123 40.825916 
L 70.764791 41.699441 
L 71.034127 49.052665 
L 71.438132 70.276886 
L 72.111472 105.196806 
L 72.380809 109.688543 
L 72.650145 54.079201 
L 72.784813 45.821755 
L 72.919481 46.509406 
L 73.188818 52.234128 
L 73.592822 70.076623 
L 74.131495 95.297965 
L 74.400831 101.411902 
L 74.535499 101.884638 
L 74.804835 51.706842 
L 74.939504 42.314914 
L 75.074172 43.150865 
L 75.343508 49.886873 
L 75.747512 69.237122 
L 76.420853 101.002913 
L 76.69019 104.96984 
L 77.094194 39.230987 
L 77.228862 40.101381 
L 77.498198 48.24698 
L 78.036871 79.079662 
L 78.575544 106.263974 
L 78.84488 110.196868 
L 79.114216 48.618089 
L 79.248884 38.025251 
L 79.383553 39.297115 
L 79.652889 47.727518 
L 80.191562 79.813006 
L 80.730234 107.730545 
L 80.99957 112.185018 
L 81.268907 50.598423 
L 81.403575 40.252973 
L 81.538243 41.305891 
L 81.807579 49.50205 
L 82.211584 72.028578 
L 82.884925 108.808384 
L 83.154261 112.917279 
L 83.423597 50.675374 
L 83.558265 39.286948 
L 83.692933 39.872441 
L 83.96227 47.903487 
L 84.366274 72.239585 
L 85.039615 110.510235 
L 85.308951 114.36292 
L 85.578288 49.943695 
L 85.712956 38.840447 
L 85.847624 39.868463 
L 86.11696 47.848593 
L 86.520965 71.00975 
L 87.194305 109.958371 
L 87.463642 114.406032 
L 87.732978 51.583688 
L 87.867646 41.838554 
L 88.002314 42.816813 
L 88.271651 50.543792 
L 88.944991 86.841171 
L 89.348996 104.044435 
L 89.618332 107.968423 
L 90.022337 34.141615 
L 90.157005 34.998396 
L 90.426341 43.663949 
L 90.830346 68.659953 
L 91.369018 104.744586 
L 91.638355 113.600548 
L 91.773023 114.812538 
L 92.042359 45.99557 
L 92.177027 36.206378 
L 92.311695 37.339055 
L 92.446363 39.845793 
L 92.850368 57.253136 
L 93.658377 98.76207 
L 93.927713 102.99038 
L 94.197049 47.216654 
L 94.331718 37.095665 
L 94.466386 38.012309 
L 94.735722 45.485296 
L 95.274395 76.096945 
L 95.813067 102.771384 
L 96.082404 106.390453 
L 96.486408 33.68143 
L 96.621076 34.772211 
L 96.890413 44.526395 
L 97.294417 70.958086 
L 97.967758 113.891913 
L 98.237094 119.035864 
L 98.50643 48.790485 
L 98.641098 37.419469 
L 98.775767 38.628326 
L 99.045103 48.031791 
L 99.583776 83.200412 
L 100.122448 114.446392 
L 100.391784 119.030832 
L 100.661121 49.84181 
L 100.795789 38.334039 
L 100.930457 39.177485 
L 101.199793 47.761561 
L 101.603798 72.342142 
L 102.14247 105.758613 
L 102.411807 114.248189 
L 102.546475 115.390521 
L 102.815811 52.786497 
L 102.950479 44.298762 
L 103.085148 44.81418 
L 103.354484 50.668911 
L 103.893156 74.177263 
L 104.431829 94.334522 
L 104.701165 97.653083 
L 105.10517 32.582166 
L 105.239838 34.014577 
L 105.509174 43.276831 
L 106.047847 80.048397 
L 106.58652 112.039413 
L 106.855856 116.841504 
L 107.125192 45.874555 
L 107.25986 34.629644 
L 107.394528 35.696951 
L 107.663865 44.572369 
L 108.202537 79.184466 
L 108.74121 108.03846 
L 109.010546 112.487289 
L 109.414551 32.353584 
L 109.549219 33.830937 
L 109.818555 44.4296 
L 110.357228 84.81182 
L 110.8959 119.295655 
L 111.165237 124.472727 
L 111.434573 55.754072 
L 111.569241 47.475345 
L 111.703909 48.423922 
L 111.973246 54.73497 
L 112.37725 72.55912 
L 112.915923 97.505033 
L 113.185259 103.001285 
L 113.319927 103.698653 
L 113.723932 38.138134 
L 113.8586 39.236735 
L 114.127936 48.029911 
L 114.531941 74.095517 
L 115.070613 109.262224 
L 115.339949 117.524282 
L 115.474618 118.529708 
L 115.743954 52.230886 
L 115.878622 43.434544 
L 116.01329 43.943249 
L 116.282627 49.646056 
L 116.686631 67.577418 
L 117.225304 92.064775 
L 117.49464 98.426842 
L 117.629308 99.02942 
L 118.033313 35.00633 
L 118.167981 35.763667 
L 118.437317 43.746016 
L 118.841321 67.007734 
L 119.514662 104.218439 
L 119.783999 107.999141 
L 120.053335 47.62408 
L 120.188003 39.166704 
L 120.322671 40.027626 
L 120.592007 46.34273 
L 121.13068 73.175747 
L 121.669353 96.904309 
L 121.938689 100.544374 
L 122.342693 35.870234 
L 122.477362 37.127471 
L 122.746698 46.522994 
L 123.285371 82.761305 
L 123.824043 115.24117 
L 124.093379 119.712433 
L 124.362716 49.769714 
L 124.497384 37.98513 
L 124.632052 39.141195 
L 124.901388 48.198832 
L 125.305393 74.058965 
L 125.844065 109.18143 
L 126.113402 118.065678 
L 126.24807 119.408997 
L 126.517406 52.425037 
L 126.652074 41.934746 
L 126.786743 42.867242 
L 127.056079 50.84158 
L 127.594751 81.714586 
L 128.133424 108.176187 
L 128.40276 111.937937 
L 128.672097 50.864007 
L 128.806765 40.774033 
L 128.941433 41.515873 
L 129.210769 48.628293 
L 129.749442 77.896153 
L 130.288114 103.268436 
L 130.557451 107.278387 
L 130.826787 52.8685 
L 130.961455 44.851475 
L 131.096123 45.476603 
L 131.36546 51.476845 
L 131.904132 75.49996 
L 132.442805 95.769602 
L 132.712141 98.424404 
L 133.116146 36.540815 
L 133.250814 37.69982 
L 133.52015 46.052455 
L 133.924155 68.866951 
L 134.597495 107.690865 
L 134.866832 112.057477 
L 135.136168 48.22523 
L 135.270836 38.38262 
L 135.405504 39.562315 
L 135.674841 47.35822 
L 136.348181 84.658493 
L 136.752186 102.530428 
L 137.021522 106.407789 
L 137.425527 35.372172 
L 137.560195 36.654974 
L 137.829531 45.933576 
L 138.502872 90.121066 
L 138.906876 110.553824 
L 139.176213 114.736804 
L 139.445549 47.628128 
L 139.580217 35.840236 
L 139.714885 37.194515 
L 139.984222 46.542084 
L 140.388226 71.971971 
L 141.061567 114.157193 
L 141.330903 118.964047 
L 141.600239 47.84678 
L 141.734908 35.354915 
L 141.869576 36.568645 
L 142.138912 45.583469 
L 142.677585 82.777611 
L 143.216257 115.663763 
L 143.485594 120.609506 
L 143.75493 47.244403 
L 143.889598 35.104455 
L 144.024266 36.112942 
L 144.293602 45.03945 
L 144.832275 80.891735 
L 145.370948 112.058478 
L 145.640284 116.06623 
L 145.90962 50.834647 
L 146.044288 42.819511 
L 146.178957 43.544916 
L 146.448293 49.607719 
L 146.986965 72.133314 
L 147.525638 92.758737 
L 147.794974 95.477432 
L 148.198979 39.195995 
L 148.333647 40.449496 
L 148.602983 47.995858 
L 149.006988 69.602862 
L 149.54566 98.724367 
L 149.814997 106.390596 
L 149.949665 107.273046 
L 150.353669 37.67107 
L 150.488337 38.977461 
L 150.757674 47.822203 
L 151.161678 72.713792 
L 151.835019 113.868017 
L 152.104355 118.361667 
L 152.373692 55.073803 
L 152.50836 46.400397 
L 152.643028 47.533482 
L 152.912364 54.325393 
L 153.316369 73.174902 
L 153.855041 98.537625 
L 154.124378 104.222197 
L 154.259046 104.864907 
L 154.66305 42.349281 
L 154.797718 43.465552 
L 155.067055 51.082383 
L 155.471059 72.771368 
L 156.009732 102.86726 
L 156.279068 110.53612 
L 156.413736 111.524097 
L 156.683073 54.143498 
L 156.817741 46.102697 
L 156.952409 46.52313 
L 157.221745 52.24631 
L 157.760418 75.409635 
L 158.29909 95.827637 
L 158.568427 99.091582 
L 158.837763 51.937652 
L 158.972431 43.253357 
L 159.107099 43.770336 
L 159.376436 49.681202 
L 159.915108 74.993217 
L 160.453781 97.033124 
L 160.723117 100.603917 
L 160.992453 50.986855 
L 161.127122 42.797258 
L 161.26179 43.400461 
L 161.396458 45.398124 
L 161.800462 59.71554 
L 162.608471 92.323166 
L 162.877808 94.824088 
L 163.281812 31.527273 
L 163.41648 32.335967 
L 163.685816 41.652801 
L 164.224489 77.664031 
L 164.763162 109.094577 
L 165.032498 114.200682 
L 165.301834 50.201086 
L 165.436502 41.858772 
L 165.571171 43.003304 
L 165.840507 49.705721 
L 166.37918 75.653112 
L 166.917852 99.413053 
L 167.187188 103.402323 
L 167.456525 51.374789 
L 167.591193 42.126886 
L 167.725861 43.309553 
L 167.995197 50.995814 
L 168.53387 79.405151 
L 169.072543 104.052409 
L 169.341879 107.04435 
L 169.745883 35.739966 
L 169.880552 37.216313 
L 170.149888 46.367473 
L 170.553892 72.064128 
L 171.092565 108.224477 
L 171.361901 116.655421 
L 171.496569 117.449603 
L 171.765906 45.983305 
L 171.900574 34.885999 
L 172.035242 36.006378 
L 172.304578 44.567726 
L 172.843251 78.503262 
L 173.381924 108.204222 
L 173.65126 112.279204 
L 173.920596 50.22612 
L 174.055264 42.423919 
L 174.189932 43.049586 
L 174.459269 49.265163 
L 174.997941 72.419533 
L 175.536614 92.606668 
L 175.80595 95.683409 
L 176.075287 49.142278 
L 176.209955 40.837295 
L 176.344623 42.020226 
L 176.613959 48.781853 
L 177.017964 67.133041 
L 177.556636 93.292177 
L 177.825973 100.343982 
L 177.960641 101.37182 
L 178.364645 39.288354 
L 178.499313 40.5559 
L 178.76865 49.146629 
L 179.172654 72.291579 
L 179.845995 110.320404 
L 180.115331 114.692913 
L 180.384667 51.717889 
L 180.519336 41.096598 
L 180.654004 42.082133 
L 180.92334 50.143765 
L 181.462013 82.136345 
L 181.866017 104.50875 
L 182.135353 112.374744 
L 182.270022 113.35817 
L 182.539358 53.233077 
L 182.674026 44.097107 
L 182.808694 44.793514 
L 183.078031 50.805938 
L 183.616703 77.316503 
L 184.155376 99.913385 
L 184.424712 103.035242 
L 184.828717 33.561555 
L 184.963385 34.58821 
L 185.232721 43.484732 
L 185.771394 80.150894 
L 186.310066 112.149133 
L 186.579403 116.540219 
L 186.848739 46.316915 
L 186.983407 35.727856 
L 187.118075 36.959212 
L 187.387411 44.933767 
L 187.791416 67.498213 
L 188.330089 98.721954 
L 188.599425 106.399916 
L 188.734093 107.651812 
L 189.003429 45.120801 
L 189.138097 34.470133 
L 189.272766 35.167873 
L 189.542102 43.198375 
L 189.946106 66.452768 
L 190.619447 104.155897 
L 190.888783 108.674909 
L 191.15812 47.763624 
L 191.292788 36.940311 
L 191.427456 38.105125 
L 191.696792 46.853859 
L 192.100797 70.91422 
L 192.639469 102.873407 
L 192.908806 111.347524 
L 193.043474 112.687765 
L 193.31281 49.718669 
L 193.447478 38.339477 
L 193.582146 39.452335 
L 193.851483 48.500929 
L 194.120819 64.148481 
L 194.120819 64.148481 
" clip-path="url(#p511308b4ed)" style="fill: none; stroke: #808080; stroke-width: 0.9; stroke-linecap: square"/>
   </g>
   <g id="matplotlib.axis_1">
    <g id="xtick_1">
     <g id="line2d_2">
      <defs>
       <path id="ma297ffcafd" d="M 0 0 
L 0 3.5 
" style="stroke: #000000; stroke-width: 0.8"/>
      </defs>
      <g>
       <use xlink:href="#ma297ffcafd" x="59.52" y="129.12" style="stroke: #000000; stroke-width: 0.8"/>
      </g>
     </g>
     <g id="text_1">
      <!-- 1.00 -->
      <g transform="translate(48.387187 143.718437) scale(0.1 -0.1)">
       <defs>
        <path id="DejaVuSans-31" d="M 794 531 
L 1825 531 
L 1825 4091 
L 703 3866 
L 703 4441 
L 1819 4666 
L 2450 4666 
L 2450 531 
L 3481 531 
L 3481 0 
L 794 0 
L 794 531 
z
" transform="scale(0.015625)"/>
        <path id="DejaVuSans-2e" d="M 684 794 
L 1344 794 
L 1344 0 
L 684 0 
L 684 794 
z
" transform="scale(0.015625)"/>
        <path id="DejaVuSans-30" d="M 2034 4250 
Q 1547 4250 1301 3770 
Q 1056 3291 1056 2328 
Q 1056 1369 1301 889 
Q 1547 409 2034 409 
Q 2525 409 2770 889 
Q 3016 1369 3016 2328 
Q 3016 3291 2770 3770 
Q 2525 4250 2034 4250 
z
M 2034 4750 
Q 2819 4750 3233 4129 
Q 3647 3509 3647 2328 
Q 3647 1150 3233 529 
Q 2819 -91 2034 -91 
Q 1250 -91 836 529 
Q 422 1150 422 2328 
Q 422 3509 836 4129 
Q 1250 4750 2034 4750 
z
" transform="scale(0.015625)"/>
       </defs>
       <use xlink:href="#DejaVuSans-31"/>
       <use xlink:href="#DejaVuSans-2e" x="63.623047"/>
       <use xlink:href="#DejaVuSans-30" x="95.410156"/>
       <use xlink:href="#DejaVuSans-30" x="159.033203"/>
      </g>
     </g>
    </g>
    <g id="xtick_2">
     <g id="line2d_3">
      <g>
       <use xlink:href="#ma297ffcafd" x="126.837243" y="129.12" style="stroke: #000000; stroke-width: 0.8"/>
      </g>
     </g>
     <g id="text_2">
      <!-- 1.25 -->
      <g transform="translate(115.704431 143.718437) scale(0.1 -0.1)">
       <defs>
        <path id="DejaVuSans-32" d="M 1228 531 
L 3431 531 
L 3431 0 
L 469 0 
L 469 531 
Q 828 903 1448 1529 
Q 2069 2156 2228 2338 
Q 2531 2678 2651 2914 
Q 2772 3150 2772 3378 
Q 2772 3750 2511 3984 
Q 2250 4219 1831 4219 
Q 1534 4219 1204 4116 
Q 875 4013 500 3803 
L 500 4441 
Q 881 4594 1212 4672 
Q 1544 4750 1819 4750 
Q 2544 4750 2975 4387 
Q 3406 4025 3406 3419 
Q 3406 3131 3298 2873 
Q 3191 2616 2906 2266 
Q 2828 2175 2409 1742 
Q 1991 1309 1228 531 
z
" transform="scale(0.015625)"/>
        <path id="DejaVuSans-35" d="M 691 4666 
L 3169 4666 
L 3169 4134 
L 1269 4134 
L 1269 2991 
Q 1406 3038 1543 3061 
Q 1681 3084 1819 3084 
Q 2600 3084 3056 2656 
Q 3513 2228 3513 1497 
Q 3513 744 3044 326 
Q 2575 -91 1722 -91 
Q 1428 -91 1123 -41 
Q 819 9 494 109 
L 494 744 
Q 775 591 1075 516 
Q 1375 441 1709 441 
Q 2250 441 2565 725 
Q 2881 1009 2881 1497 
Q 2881 1984 2565 2268 
Q 2250 2553 1709 2553 
Q 1456 2553 1204 2497 
Q 953 2441 691 2322 
L 691 4666 
z
" transform="scale(0.015625)"/>
       </defs>
       <use xlink:href="#DejaVuSans-31"/>
       <use xlink:href="#DejaVuSans-2e" x="63.623047"/>
       <use xlink:href="#DejaVuSans-32" x="95.410156"/>
       <use xlink:href="#DejaVuSans-35" x="159.033203"/>
      </g>
     </g>
    </g>
    <g id="xtick_3">
     <g id="line2d_4">
      <g>
       <use xlink:href="#ma297ffcafd" x="194.154486" y="129.12" style="stroke: #000000; stroke-width: 0.8"/>
      </g>
     </g>
     <g id="text_3">
      <!-- 1.50 -->
      <g transform="translate(183.021674 143.718437) scale(0.1 -0.1)">
       <use xlink:href="#DejaVuSans-31"/>
       <use xlink:href="#DejaVuSans-2e" x="63.623047"/>
       <use xlink:href="#DejaVuSans-35" x="95.410156"/>
       <use xlink:href="#DejaVuSans-30" x="159.033203"/>
      </g>
     </g>
    </g>
    <g id="text_4">
     <!-- Time (s) -->
     <g transform="translate(106.558837 157.396563) scale(0.1 -0.1)">
      <defs>
       <path id="DejaVuSans-54" d="M -19 4666 
L 3928 4666 
L 3928 4134 
L 2272 4134 
L 2272 0 
L 1638 0 
L 1638 4134 
L -19 4134 
L -19 4666 
z
" transform="scale(0.015625)"/>
       <path id="DejaVuSans-69" d="M 603 3500 
L 1178 3500 
L 1178 0 
L 603 0 
L 603 3500 
z
M 603 4863 
L 1178 4863 
L 1178 4134 
L 603 4134 
L 603 4863 
z
" transform="scale(0.015625)"/>
       <path id="DejaVuSans-6d" d="M 3328 2828 
Q 3544 3216 3844 3400 
Q 4144 3584 4550 3584 
Q 5097 3584 5394 3201 
Q 5691 2819 5691 2113 
L 5691 0 
L 5113 0 
L 5113 2094 
Q 5113 2597 4934 2840 
Q 4756 3084 4391 3084 
Q 3944 3084 3684 2787 
Q 3425 2491 3425 1978 
L 3425 0 
L 2847 0 
L 2847 2094 
Q 2847 2600 2669 2842 
Q 2491 3084 2119 3084 
Q 1678 3084 1418 2786 
Q 1159 2488 1159 1978 
L 1159 0 
L 581 0 
L 581 3500 
L 1159 3500 
L 1159 2956 
Q 1356 3278 1631 3431 
Q 1906 3584 2284 3584 
Q 2666 3584 2933 3390 
Q 3200 3197 3328 2828 
z
" transform="scale(0.015625)"/>
       <path id="DejaVuSans-65" d="M 3597 1894 
L 3597 1613 
L 953 1613 
Q 991 1019 1311 708 
Q 1631 397 2203 397 
Q 2534 397 2845 478 
Q 3156 559 3463 722 
L 3463 178 
Q 3153 47 2828 -22 
Q 2503 -91 2169 -91 
Q 1331 -91 842 396 
Q 353 884 353 1716 
Q 353 2575 817 3079 
Q 1281 3584 2069 3584 
Q 2775 3584 3186 3129 
Q 3597 2675 3597 1894 
z
M 3022 2063 
Q 3016 2534 2758 2815 
Q 2500 3097 2075 3097 
Q 1594 3097 1305 2825 
Q 1016 2553 972 2059 
L 3022 2063 
z
" transform="scale(0.015625)"/>
       <path id="DejaVuSans-20" transform="scale(0.015625)"/>
       <path id="DejaVuSans-28" d="M 1984 4856 
Q 1566 4138 1362 3434 
Q 1159 2731 1159 2009 
Q 1159 1288 1364 580 
Q 1569 -128 1984 -844 
L 1484 -844 
Q 1016 -109 783 600 
Q 550 1309 550 2009 
Q 550 2706 781 3412 
Q 1013 4119 1484 4856 
L 1984 4856 
z
" transform="scale(0.015625)"/>
       <path id="DejaVuSans-73" d="M 2834 3397 
L 2834 2853 
Q 2591 2978 2328 3040 
Q 2066 3103 1784 3103 
Q 1356 3103 1142 2972 
Q 928 2841 928 2578 
Q 928 2378 1081 2264 
Q 1234 2150 1697 2047 
L 1894 2003 
Q 2506 1872 2764 1633 
Q 3022 1394 3022 966 
Q 3022 478 2636 193 
Q 2250 -91 1575 -91 
Q 1294 -91 989 -36 
Q 684 19 347 128 
L 347 722 
Q 666 556 975 473 
Q 1284 391 1588 391 
Q 1994 391 2212 530 
Q 2431 669 2431 922 
Q 2431 1156 2273 1281 
Q 2116 1406 1581 1522 
L 1381 1569 
Q 847 1681 609 1914 
Q 372 2147 372 2553 
Q 372 3047 722 3315 
Q 1072 3584 1716 3584 
Q 2034 3584 2315 3537 
Q 2597 3491 2834 3397 
z
" transform="scale(0.015625)"/>
       <path id="DejaVuSans-29" d="M 513 4856 
L 1013 4856 
Q 1481 4119 1714 3412 
Q 1947 2706 1947 2009 
Q 1947 1309 1714 600 
Q 1481 -109 1013 -844 
L 513 -844 
Q 928 -128 1133 580 
Q 1338 1288 1338 2009 
Q 1338 2731 1133 3434 
Q 928 4138 513 4856 
z
" transform="scale(0.015625)"/>
      </defs>
      <use xlink:href="#DejaVuSans-54"/>
      <use xlink:href="#DejaVuSans-69" x="57.958984"/>
      <use xlink:href="#DejaVuSans-6d" x="85.742188"/>
      <use xlink:href="#DejaVuSans-65" x="183.154297"/>
      <use xlink:href="#DejaVuSans-20" x="244.677734"/>
      <use xlink:href="#DejaVuSans-28" x="276.464844"/>
      <use xlink:href="#DejaVuSans-73" x="315.478516"/>
      <use xlink:href="#DejaVuSans-29" x="367.578125"/>
     </g>
    </g>
   </g>
   <g id="matplotlib.axis_2">
    <g id="ytick_1">
     <g id="line2d_5">
      <defs>
       <path id="m69c346bed7" d="M 0 0 
L -3.5 0 
" style="stroke: #000000; stroke-width: 0.8"/>
      </defs>
      <g>
       <use xlink:href="#m69c346bed7" x="59.52" y="128.534508" style="stroke: #000000; stroke-width: 0.8"/>
      </g>
     </g>
     <g id="text_5">
      <!-- −30 -->
      <g transform="translate(31.415312 132.333727) scale(0.1 -0.1)">
       <defs>
        <path id="DejaVuSans-2212" d="M 678 2272 
L 4684 2272 
L 4684 1741 
L 678 1741 
L 678 2272 
z
" transform="scale(0.015625)"/>
        <path id="DejaVuSans-33" d="M 2597 2516 
Q 3050 2419 3304 2112 
Q 3559 1806 3559 1356 
Q 3559 666 3084 287 
Q 2609 -91 1734 -91 
Q 1441 -91 1130 -33 
Q 819 25 488 141 
L 488 750 
Q 750 597 1062 519 
Q 1375 441 1716 441 
Q 2309 441 2620 675 
Q 2931 909 2931 1356 
Q 2931 1769 2642 2001 
Q 2353 2234 1838 2234 
L 1294 2234 
L 1294 2753 
L 1863 2753 
Q 2328 2753 2575 2939 
Q 2822 3125 2822 3475 
Q 2822 3834 2567 4026 
Q 2313 4219 1838 4219 
Q 1578 4219 1281 4162 
Q 984 4106 628 3988 
L 628 4550 
Q 988 4650 1302 4700 
Q 1616 4750 1894 4750 
Q 2613 4750 3031 4423 
Q 3450 4097 3450 3541 
Q 3450 3153 3228 2886 
Q 3006 2619 2597 2516 
z
" transform="scale(0.015625)"/>
       </defs>
       <use xlink:href="#DejaVuSans-2212"/>
       <use xlink:href="#DejaVuSans-33" x="83.789062"/>
       <use xlink:href="#DejaVuSans-30" x="147.412109"/>
      </g>
     </g>
    </g>
    <g id="ytick_2">
     <g id="line2d_6">
      <g>
       <use xlink:href="#m69c346bed7" x="59.52" y="106.48929" style="stroke: #000000; stroke-width: 0.8"/>
      </g>
     </g>
     <g id="text_6">
      <!-- −20 -->
      <g transform="translate(31.415312 110.288509) scale(0.1 -0.1)">
       <use xlink:href="#DejaVuSans-2212"/>
       <use xlink:href="#DejaVuSans-32" x="83.789062"/>
       <use xlink:href="#DejaVuSans-30" x="147.412109"/>
      </g>
     </g>
    </g>
    <g id="ytick_3">
     <g id="line2d_7">
      <g>
       <use xlink:href="#m69c346bed7" x="59.52" y="84.444072" style="stroke: #000000; stroke-width: 0.8"/>
      </g>
     </g>
     <g id="text_7">
      <!-- −10 -->
      <g transform="translate(31.415312 88.243291) scale(0.1 -0.1)">
       <use xlink:href="#DejaVuSans-2212"/>
       <use xlink:href="#DejaVuSans-31" x="83.789062"/>
       <use xlink:href="#DejaVuSans-30" x="147.412109"/>
      </g>
     </g>
    </g>
    <g id="ytick_4">
     <g id="line2d_8">
      <g>
       <use xlink:href="#m69c346bed7" x="59.52" y="62.398854" style="stroke: #000000; stroke-width: 0.8"/>
      </g>
     </g>
     <g id="text_8">
      <!-- 0 -->
      <g transform="translate(46.1575 66.198072) scale(0.1 -0.1)">
       <use xlink:href="#DejaVuSans-30"/>
      </g>
     </g>
    </g>
    <g id="ytick_5">
     <g id="line2d_9">
      <g>
       <use xlink:href="#m69c346bed7" x="59.52" y="40.353636" style="stroke: #000000; stroke-width: 0.8"/>
      </g>
     </g>
     <g id="text_9">
      <!-- 10 -->
      <g transform="translate(39.795 44.152854) scale(0.1 -0.1)">
       <use xlink:href="#DejaVuSans-31"/>
       <use xlink:href="#DejaVuSans-30" x="63.623047"/>
      </g>
     </g>
    </g>
    <g id="text_10">
     <!-- Amplitude (mV) -->
     <g transform="translate(25.335625 117.403906) rotate(-90) scale(0.1 -0.1)">
      <defs>
       <path id="DejaVuSans-41" d="M 2188 4044 
L 1331 1722 
L 3047 1722 
L 2188 4044 
z
M 1831 4666 
L 2547 4666 
L 4325 0 
L 3669 0 
L 3244 1197 
L 1141 1197 
L 716 0 
L 50 0 
L 1831 4666 
z
" transform="scale(0.015625)"/>
       <path id="DejaVuSans-70" d="M 1159 525 
L 1159 -1331 
L 581 -1331 
L 581 3500 
L 1159 3500 
L 1159 2969 
Q 1341 3281 1617 3432 
Q 1894 3584 2278 3584 
Q 2916 3584 3314 3078 
Q 3713 2572 3713 1747 
Q 3713 922 3314 415 
Q 2916 -91 2278 -91 
Q 1894 -91 1617 61 
Q 1341 213 1159 525 
z
M 3116 1747 
Q 3116 2381 2855 2742 
Q 2594 3103 2138 3103 
Q 1681 3103 1420 2742 
Q 1159 2381 1159 1747 
Q 1159 1113 1420 752 
Q 1681 391 2138 391 
Q 2594 391 2855 752 
Q 3116 1113 3116 1747 
z
" transform="scale(0.015625)"/>
       <path id="DejaVuSans-6c" d="M 603 4863 
L 1178 4863 
L 1178 0 
L 603 0 
L 603 4863 
z
" transform="scale(0.015625)"/>
       <path id="DejaVuSans-74" d="M 1172 4494 
L 1172 3500 
L 2356 3500 
L 2356 3053 
L 1172 3053 
L 1172 1153 
Q 1172 725 1289 603 
Q 1406 481 1766 481 
L 2356 481 
L 2356 0 
L 1766 0 
Q 1100 0 847 248 
Q 594 497 594 1153 
L 594 3053 
L 172 3053 
L 172 3500 
L 594 3500 
L 594 4494 
L 1172 4494 
z
" transform="scale(0.015625)"/>
       <path id="DejaVuSans-75" d="M 544 1381 
L 544 3500 
L 1119 3500 
L 1119 1403 
Q 1119 906 1312 657 
Q 1506 409 1894 409 
Q 2359 409 2629 706 
Q 2900 1003 2900 1516 
L 2900 3500 
L 3475 3500 
L 3475 0 
L 2900 0 
L 2900 538 
Q 2691 219 2414 64 
Q 2138 -91 1772 -91 
Q 1169 -91 856 284 
Q 544 659 544 1381 
z
M 1991 3584 
L 1991 3584 
z
" transform="scale(0.015625)"/>
       <path id="DejaVuSans-64" d="M 2906 2969 
L 2906 4863 
L 3481 4863 
L 3481 0 
L 2906 0 
L 2906 525 
Q 2725 213 2448 61 
Q 2172 -91 1784 -91 
Q 1150 -91 751 415 
Q 353 922 353 1747 
Q 353 2572 751 3078 
Q 1150 3584 1784 3584 
Q 2172 3584 2448 3432 
Q 2725 3281 2906 2969 
z
M 947 1747 
Q 947 1113 1208 752 
Q 1469 391 1925 391 
Q 2381 391 2643 752 
Q 2906 1113 2906 1747 
Q 2906 2381 2643 2742 
Q 2381 3103 1925 3103 
Q 1469 3103 1208 2742 
Q 947 2381 947 1747 
z
" transform="scale(0.015625)"/>
       <path id="DejaVuSans-56" d="M 1831 0 
L 50 4666 
L 709 4666 
L 2188 738 
L 3669 4666 
L 4325 4666 
L 2547 0 
L 1831 0 
z
" transform="scale(0.015625)"/>
      </defs>
      <use xlink:href="#DejaVuSans-41"/>
      <use xlink:href="#DejaVuSans-6d" x="68.408203"/>
      <use xlink:href="#DejaVuSans-70" x="165.820312"/>
      <use xlink:href="#DejaVuSans-6c" x="229.296875"/>
      <use xlink:href="#DejaVuSans-69" x="257.080078"/>
      <use xlink:href="#DejaVuSans-74" x="284.863281"/>
      <use xlink:href="#DejaVuSans-75" x="324.072266"/>
      <use xlink:href="#DejaVuSans-64" x="387.451172"/>
      <use xlink:href="#DejaVuSans-65" x="450.927734"/>
      <use xlink:href="#DejaVuSans-20" x="512.451172"/>
      <use xlink:href="#DejaVuSans-28" x="544.238281"/>
      <use xlink:href="#DejaVuSans-6d" x="583.251953"/>
      <use xlink:href="#DejaVuSans-56" x="680.664062"/>
      <use xlink:href="#DejaVuSans-29" x="749.072266"/>
     </g>
    </g>
   </g>
   <g id="line2d_10">
    <path d="M 59.587334 64.280168 
L 59.722002 64.434481 
L 60.395343 66.578088 
L 60.934016 66.77252 
L 61.203352 67.016522 
L 61.607356 66.507876 
L 61.742025 66.294359 
L 62.280697 64.55305 
L 62.684702 64.063569 
L 62.954038 63.791166 
L 63.358042 63.295929 
L 63.492711 63.404521 
L 63.627379 63.367144 
L 64.570056 60.72462 
L 64.839392 60.285367 
L 65.243397 59.213198 
L 65.378065 59.040237 
L 65.512733 59.17457 
L 65.916737 59.843504 
L 66.051405 59.995151 
L 66.186074 59.937604 
L 66.724746 59.16034 
L 66.859414 59.257055 
L 67.128751 59.049109 
L 67.532755 59.416242 
L 67.802091 59.846435 
L 68.071428 59.745626 
L 68.206096 59.438873 
L 68.340764 59.579141 
L 69.014105 61.464152 
L 69.148773 61.305019 
L 69.418109 61.662368 
L 69.822114 62.326535 
L 70.09145 62.469417 
L 70.226118 62.366644 
L 70.630123 62.843682 
L 71.034127 62.595325 
L 71.168795 62.599229 
L 71.303463 62.739694 
L 71.438132 62.657027 
L 72.24614 64.02532 
L 72.515477 64.571115 
L 72.650145 64.379396 
L 72.784813 64.49143 
L 72.919481 64.348738 
L 73.188818 63.717449 
L 73.458154 63.43399 
L 73.72749 63.695018 
L 73.996826 63.843814 
L 74.131495 64.003606 
L 75.074172 62.766068 
L 75.882181 61.93792 
L 76.69019 62.658447 
L 76.959526 63.072305 
L 77.228862 62.680027 
L 77.767535 62.714196 
L 78.171539 62.00479 
L 78.306207 62.057543 
L 78.84488 61.493115 
L 80.056893 62.753158 
L 80.32623 62.753322 
L 80.595566 62.540339 
L 81.134239 63.335673 
L 81.403575 63.932332 
L 81.672911 64.03866 
L 81.807579 64.066722 
L 82.076916 63.843817 
L 82.211584 63.833678 
L 82.346252 63.689067 
L 82.884925 64.153438 
L 83.019593 63.993553 
L 83.154261 64.110932 
L 83.288929 64.379326 
L 83.423597 64.236205 
L 83.96227 63.021975 
L 84.231606 63.296771 
L 84.366274 63.733076 
L 84.500942 63.698595 
L 84.770279 64.30162 
L 84.904947 64.291011 
L 85.174283 63.879813 
L 85.578288 63.497614 
L 85.982292 63.111609 
L 86.11696 62.959376 
L 86.386297 62.405303 
L 86.790301 62.648768 
L 87.328974 63.801767 
L 87.732978 63.747736 
L 88.136983 64.068069 
L 88.271651 64.105057 
L 88.406319 64.272557 
L 88.810323 63.560445 
L 89.214328 62.578425 
L 89.348996 62.465909 
L 89.618332 62.524499 
L 90.695677 59.551331 
L 90.965014 59.076791 
L 91.369018 58.887309 
L 91.638355 58.429472 
L 91.773023 58.424716 
L 92.177027 57.52544 
L 92.311695 57.709941 
L 92.446363 57.427256 
L 92.581032 57.546359 
L 92.7157 57.431986 
L 92.985036 57.624451 
L 93.254372 57.929194 
L 94.197049 59.408706 
L 94.466386 59.128228 
L 94.735722 59.077782 
L 95.409063 60.743494 
L 95.678399 61.192503 
L 96.35174 60.816436 
L 96.486408 60.986316 
L 96.621076 60.862698 
L 96.890413 61.321051 
L 97.025081 61.304414 
L 97.429085 61.698485 
L 97.698421 62.122841 
L 97.83309 62.070214 
L 98.102426 62.694538 
L 98.237094 62.756821 
L 98.775767 63.7837 
L 98.910435 63.846473 
L 99.179771 64.434407 
L 99.449107 64.328338 
L 99.718444 64.50727 
L 100.122448 64.799902 
L 100.391784 64.768896 
L 100.795789 63.492423 
L 101.065125 63.042766 
L 101.199793 63.235949 
L 101.334462 63.062966 
L 101.738466 63.896973 
L 102.411807 63.512306 
L 102.546475 63.535707 
L 103.085148 62.269044 
L 103.893156 61.115097 
L 104.162493 60.114104 
L 104.431829 59.885708 
L 104.701165 60.001694 
L 104.835834 60.028094 
L 104.970502 59.893514 
L 105.239838 60.405674 
L 105.509174 60.264991 
L 105.913179 60.391863 
L 106.182515 60.074088 
L 106.451851 59.803635 
L 106.58652 59.954107 
L 106.721188 59.864818 
L 106.855856 59.914024 
L 106.990524 59.783941 
L 107.394528 59.849328 
L 107.529197 59.81013 
L 108.202537 61.110287 
L 108.471874 60.807368 
L 108.74121 60.371477 
L 108.875878 60.318515 
L 109.010546 60.388888 
L 109.683887 61.547222 
L 109.953223 62.618534 
L 110.491896 64.876595 
L 110.761232 65.313204 
L 111.030569 65.698498 
L 111.165237 65.677901 
L 111.434573 66.142277 
L 111.838578 66.557386 
L 112.107914 66.139018 
L 112.37725 66.042753 
L 112.646586 66.097212 
L 112.781255 66.291312 
L 113.319927 64.889143 
L 113.454595 65.122463 
L 113.589264 65.02489 
L 113.723932 65.171363 
L 113.993268 64.926891 
L 114.262604 64.605309 
L 114.397272 64.606746 
L 114.531941 64.739918 
L 114.666609 64.684292 
L 115.070613 63.948766 
L 115.474618 62.810586 
L 115.743954 62.701245 
L 116.551963 61.05568 
L 116.821299 60.848788 
L 116.955967 60.7666 
L 117.225304 60.253417 
L 117.49464 60.154469 
L 118.437317 58.60021 
L 118.571985 58.470567 
L 118.841321 58.649932 
L 118.97599 58.620947 
L 119.245326 59.022235 
L 119.379994 58.957353 
L 119.918667 57.963241 
L 120.457339 57.608426 
L 120.592007 57.744223 
L 120.996012 59.45116 
L 121.938689 62.337868 
L 122.342693 62.673808 
L 122.61203 62.905914 
L 122.746698 63.009304 
L 122.881366 63.269743 
L 123.150702 63.20699 
L 123.689375 64.599849 
L 123.824043 64.694525 
L 123.958711 64.42906 
L 124.228048 64.457621 
L 124.362716 64.301179 
L 125.036057 64.433772 
L 125.305393 64.943592 
L 125.709397 65.120256 
L 126.113402 64.948717 
L 126.652074 65.554466 
L 126.921411 65.278356 
L 127.056079 65.369569 
L 127.325415 65.14946 
L 127.594751 64.825145 
L 127.998756 63.750243 
L 128.40276 63.254517 
L 128.672097 62.875423 
L 128.941433 62.318939 
L 129.210769 62.019394 
L 129.614774 62.464092 
L 129.88411 62.19376 
L 130.018778 62.252968 
L 130.153446 62.138317 
L 130.557451 62.404687 
L 130.826787 62.751094 
L 130.961455 62.764225 
L 131.096123 62.592675 
L 131.230792 62.62658 
L 131.36546 62.494597 
L 132.0388 62.645531 
L 132.577473 61.790308 
L 132.712141 61.503816 
L 132.981478 61.65684 
L 133.52015 61.481486 
L 134.058823 60.147717 
L 134.328159 60.12549 
L 134.597495 60.385813 
L 135.0015 60.425365 
L 135.674841 61.074829 
L 135.809509 61.345568 
L 136.348181 60.722979 
L 136.48285 60.735779 
L 136.752186 60.475623 
L 137.021522 60.443309 
L 137.560195 60.892588 
L 137.964199 62.1363 
L 138.098867 62.330059 
L 138.368204 63.11139 
L 138.63754 62.775448 
L 138.906876 62.718619 
L 139.176213 62.454542 
L 139.310881 62.399017 
L 139.445549 62.531574 
L 139.714885 63.006407 
L 139.984222 63.157406 
L 140.253558 62.602595 
L 140.522894 62.71855 
L 141.061567 63.215001 
L 141.196235 63.131719 
L 141.734908 63.614111 
L 141.869576 63.570999 
L 142.138912 62.965101 
L 142.408248 62.960424 
L 142.677585 62.570681 
L 142.812253 62.438887 
L 143.081589 62.602901 
L 143.350925 62.319481 
L 143.485594 62.3635 
L 143.75493 62.081222 
L 144.024266 61.809441 
L 144.293602 61.580493 
L 144.562939 61.822079 
L 144.697607 61.815115 
L 144.832275 61.662028 
L 144.966943 61.689074 
L 145.101611 61.834845 
L 145.370948 61.344025 
L 145.640284 60.637047 
L 145.774952 60.569557 
L 146.178957 60.034306 
L 146.582961 60.214085 
L 147.121634 59.68745 
L 147.256302 59.825018 
L 147.525638 60.215378 
L 147.660306 60.1575 
L 147.794974 59.908641 
L 147.929643 59.949632 
L 148.87232 61.807875 
L 149.276324 63.093399 
L 149.54566 63.134185 
L 149.680329 63.249516 
L 149.814997 63.571903 
L 150.219001 63.375819 
L 150.353669 63.12742 
L 150.757674 63.479863 
L 150.892342 63.447689 
L 151.02701 63.592766 
L 151.565683 65.018726 
L 151.835019 65.861993 
L 152.239023 65.900228 
L 152.50836 65.482805 
L 152.777696 65.899086 
L 153.585705 66.717319 
L 153.720373 66.729467 
L 153.855041 66.551438 
L 154.259046 65.533497 
L 154.393714 65.196534 
L 154.797718 65.510502 
L 155.067055 65.272893 
L 155.471059 64.786992 
L 155.605727 64.819159 
L 155.875064 64.294959 
L 156.548404 63.918254 
L 156.817741 63.846167 
L 157.087077 63.317962 
L 157.221745 63.159942 
L 157.491081 63.249204 
L 157.895086 62.598635 
L 158.164422 62.270819 
L 158.837763 62.644208 
L 158.972431 62.659586 
L 159.511104 61.558778 
L 159.78044 61.310656 
L 160.453781 60.436523 
L 160.857785 60.733486 
L 160.992453 60.550486 
L 161.26179 59.964108 
L 161.396458 59.693679 
L 161.665794 59.90438 
L 161.800462 59.926665 
L 162.069799 59.579195 
L 162.339135 59.425637 
L 162.608471 59.633254 
L 162.877808 59.095119 
L 163.41648 57.355034 
L 163.551148 57.504217 
L 163.820485 58.242111 
L 164.359157 59.268372 
L 165.167166 60.592429 
L 165.571171 61.807433 
L 165.975175 61.902727 
L 166.37918 61.581238 
L 166.648516 61.992172 
L 166.783184 61.980618 
L 167.187188 62.840474 
L 167.591193 63.192409 
L 168.399202 64.439935 
L 168.53387 64.342106 
L 168.803206 64.61499 
L 169.072543 64.326681 
L 169.476547 63.483266 
L 169.745883 63.457611 
L 169.880552 63.701202 
L 170.149888 63.416008 
L 170.419224 62.704902 
L 170.68856 62.377189 
L 170.957897 62.038035 
L 171.227233 61.409847 
L 171.496569 60.319808 
L 171.765906 59.866679 
L 172.035242 60.051566 
L 172.16991 60.182759 
L 172.304578 60.045806 
L 172.843251 60.509297 
L 173.381924 60.748787 
L 174.055264 59.910553 
L 174.189932 59.758493 
L 174.459269 60.02082 
L 174.593937 60.159316 
L 175.13261 59.954559 
L 175.267278 60.064142 
L 175.536614 59.630072 
L 175.671282 59.727927 
L 175.940618 59.564528 
L 176.075287 59.6265 
L 176.613959 60.47034 
L 176.883295 60.423292 
L 177.017964 60.556443 
L 177.421968 61.282534 
L 177.691304 61.628878 
L 178.499313 63.696442 
L 178.76865 64.042382 
L 178.903318 63.91282 
L 179.711327 64.199868 
L 179.980663 64.814187 
L 180.384667 64.800248 
L 181.192676 64.90171 
L 181.596681 65.271221 
L 182.135353 64.554711 
L 182.270022 64.483511 
L 182.943362 63.492537 
L 183.078031 63.008382 
L 183.347367 63.154009 
L 183.482035 62.979838 
L 183.616703 63.130612 
L 183.886039 62.9037 
L 184.290044 62.21504 
L 184.55938 61.978678 
L 185.232721 60.576328 
L 185.367389 60.646964 
L 186.175398 59.785097 
L 186.310066 59.746698 
L 186.579403 59.266128 
L 186.714071 59.370035 
L 187.118075 60.017811 
L 187.387411 59.776772 
L 187.926084 59.062155 
L 188.599425 57.734149 
L 188.868761 58.152445 
L 189.407434 57.427698 
L 189.542102 57.491371 
L 189.946106 58.410728 
L 191.023452 61.010503 
L 191.292788 60.797577 
L 191.562124 61.137219 
L 192.235465 62.750291 
L 192.504801 62.811055 
L 192.774138 62.976201 
L 193.178142 63.754581 
L 193.582146 63.777935 
L 194.120819 64.458541 
L 194.120819 64.458541 
" clip-path="url(#p511308b4ed)" style="fill: none; stroke: #1e90ff; stroke-linecap: square"/>
   </g>
   <g id="patch_3">
    <path d="M 59.52 129.12 
L 59.52 26.88 
" style="fill: none; stroke: #000000; stroke-width: 0.8; stroke-linejoin: miter; stroke-linecap: square"/>
   </g>
   <g id="patch_4">
    <path d="M 194.255487 129.12 
L 194.255487 26.88 
" style="fill: none; stroke: #000000; stroke-width: 0.8; stroke-linejoin: miter; stroke-linecap: square"/>
   </g>
   <g id="patch_5">
    <path d="M 59.52 129.12 
L 194.255487 129.12 
" style="fill: none; stroke: #000000; stroke-width: 0.8; stroke-linejoin: miter; stroke-linecap: square"/>
   </g>
   <g id="patch_6">
    <path d="M 59.52 26.88 
L 194.255487 26.88 
" style="fill: none; stroke: #000000; stroke-width: 0.8; stroke-linejoin: miter; stroke-linecap: square"/>
   </g>
   <g id="line2d_11">
    <path d="M 59.587334 66.965766 
L 59.85667 61.637089 
L 59.991339 61.733874 
L 60.395343 63.709082 
L 61.472688 70.451245 
L 61.607356 70.390364 
L 61.742025 61.868505 
L 62.011361 65.904799 
L 62.280697 65.287085 
L 62.550033 63.74252 
L 63.762047 55.410672 
L 63.896715 62.884544 
L 64.166051 57.213086 
L 64.300719 57.236568 
L 64.570056 58.210767 
L 64.97406 62.338439 
L 65.647401 67.486061 
L 65.916737 68.095295 
L 66.186074 58.869977 
L 66.320742 57.691701 
L 66.724746 58.635547 
L 67.128751 61.13369 
L 67.398087 63.471145 
L 67.802091 66.724404 
L 68.071428 67.126295 
L 68.206096 60.167464 
L 68.475432 62.108329 
L 68.879437 62.826676 
L 69.014105 62.859631 
L 69.283441 62.451781 
L 69.418109 62.496972 
L 69.687446 62.268889 
L 69.956782 62.289412 
L 70.226118 62.473918 
L 70.360786 67.603879 
L 70.630123 59.128213 
L 70.899459 60.218468 
L 71.168795 63.280384 
L 72.111472 76.375175 
L 72.380809 77.378008 
L 72.515477 65.398445 
L 72.784813 68.377472 
L 72.919481 68.079276 
L 73.054149 68.058842 
L 73.458154 66.23039 
L 74.131495 62.872573 
L 74.535499 61.935197 
L 74.670167 67.680708 
L 74.939504 60.944818 
L 75.074172 61.217304 
L 75.343508 62.795436 
L 76.555521 70.762602 
L 76.69019 70.750036 
L 76.824858 61.300487 
L 77.094194 62.593072 
L 77.228862 62.285793 
L 77.36353 62.317068 
L 77.632867 61.562561 
L 78.306207 58.524071 
L 78.575544 58.158287 
L 78.84488 58.358616 
L 78.979548 62.382853 
L 79.248884 57.323712 
L 79.518221 57.412495 
L 79.787557 58.373496 
L 80.056893 60.747978 
L 80.595566 65.482794 
L 80.864902 66.886792 
L 80.99957 66.769999 
L 81.134239 58.928466 
L 81.403575 63.674983 
L 81.538243 63.636707 
L 81.672911 63.427269 
L 82.076916 61.762649 
L 82.346252 59.733625 
L 82.750256 56.41389 
L 83.019593 55.507839 
L 83.154261 55.756863 
L 83.288929 64.35075 
L 83.558265 58.749155 
L 83.692933 58.962917 
L 83.96227 60.276765 
L 84.231606 62.699691 
L 84.904947 69.575352 
L 85.174283 71.015849 
L 85.308951 70.890598 
L 85.443619 61.412131 
L 85.712956 66.914556 
L 85.847624 66.633455 
L 86.11696 64.724781 
L 86.790301 58.593828 
L 87.194305 56.335267 
L 87.328974 55.985882 
L 87.463642 56.009214 
L 87.59831 64.997107 
L 87.867646 59.283551 
L 88.136983 59.164183 
L 88.540987 61.248736 
L 89.07966 65.138584 
L 89.483664 66.96537 
L 89.618332 66.947906 
L 89.753 59.508805 
L 90.695677 58.398433 
L 90.830346 58.559816 
L 91.099682 58.535353 
L 91.638355 56.924042 
L 91.773023 56.98022 
L 91.907691 55.260455 
L 92.177027 61.652006 
L 92.311695 61.444617 
L 92.850368 57.280758 
L 93.523709 50.766793 
L 93.793045 49.328799 
L 93.927713 48.95469 
L 94.062381 59.484693 
L 94.331718 51.656293 
L 94.466386 51.653479 
L 94.735722 53.847626 
L 95.813067 67.813868 
L 96.082404 68.648602 
L 96.217072 56.854332 
L 96.486408 61.19381 
L 96.755744 61.464127 
L 97.159749 60.016118 
L 97.967758 55.246411 
L 98.102426 55.041405 
L 98.237094 55.089861 
L 98.371762 60.350602 
L 98.775767 60.422336 
L 99.583776 59.713813 
L 99.718444 59.807016 
L 99.853112 59.654893 
L 99.98778 59.682311 
L 100.391784 60.252864 
L 100.526453 61.138381 
L 100.795789 58.249899 
L 100.930457 58.28278 
L 101.46913 59.773872 
L 101.873134 61.278392 
L 102.007802 61.290657 
L 102.411807 61.115425 
L 102.546475 61.122949 
L 102.681143 59.734082 
L 102.950479 55.636292 
L 103.219816 56.582804 
L 104.027825 62.363796 
L 104.701165 65.311809 
L 105.10517 55.142364 
L 105.374506 55.947436 
L 105.643842 58.312335 
L 106.58652 68.374673 
L 106.855856 69.614489 
L 106.990524 59.704698 
L 107.25986 62.013196 
L 108.067869 58.909101 
L 108.337206 57.846232 
L 108.471874 57.662642 
L 108.875878 57.770278 
L 109.010546 57.933143 
L 109.145214 59.559103 
L 109.414551 66.946289 
L 109.549219 66.52146 
L 110.087892 62.499367 
L 110.761232 55.545452 
L 111.030569 54.672323 
L 111.165237 54.967137 
L 111.434573 65.72811 
L 111.569241 66.551588 
L 111.838578 66.198042 
L 112.107914 65.517345 
L 112.511918 64.531398 
L 112.781255 64.07535 
L 113.319927 64.138254 
L 113.454595 67.837305 
L 113.723932 66.60234 
L 113.993268 67.124643 
L 114.397272 67.945647 
L 114.801277 69.052734 
L 115.205281 69.784645 
L 115.474618 69.512274 
L 115.609286 65.091076 
L 115.878622 72.438607 
L 116.01329 72.019501 
L 116.282627 69.960103 
L 117.49464 57.169143 
L 117.629308 56.996701 
L 117.763976 66.225905 
L 117.898644 66.984275 
L 118.033313 67.105686 
L 118.841321 63.793924 
L 119.379994 61.511375 
L 119.918667 59.796852 
L 120.188003 68.340233 
L 120.322671 68.145179 
L 120.457339 67.538222 
L 120.726676 64.632511 
L 121.534685 53.544809 
L 121.804021 51.347359 
L 121.938689 51.012822 
L 122.073357 63.827723 
L 122.342693 61.235201 
L 122.61203 62.004179 
L 123.958711 68.324719 
L 124.093379 68.369942 
L 124.228048 62.47673 
L 124.497384 66.87141 
L 124.632052 66.900891 
L 124.76672 66.687371 
L 125.036057 65.576542 
L 125.305393 63.833481 
L 125.709397 60.898661 
L 125.978734 60.11109 
L 126.113402 60.047038 
L 126.24807 59.792484 
L 126.382738 66.70779 
L 126.652074 62.361555 
L 126.786743 62.388312 
L 127.056079 63.190979 
L 128.133424 69.340599 
L 128.40276 69.393754 
L 128.537429 63.108602 
L 128.806765 65.015513 
L 129.345437 63.994357 
L 130.422783 61.860454 
L 130.557451 61.779283 
L 130.692119 62.137511 
L 130.961455 67.57261 
L 131.230792 66.615292 
L 131.500128 65.02911 
L 132.577473 55.980569 
L 132.712141 55.647596 
L 132.846809 66.395622 
L 133.116146 57.998498 
L 133.250814 58.157578 
L 133.52015 60.189058 
L 133.924155 65.506947 
L 134.462827 72.6578 
L 134.866832 75.558501 
L 135.136168 62.171213 
L 135.270836 60.110659 
L 135.405504 60.287913 
L 135.809509 63.774014 
L 136.752186 76.124647 
L 136.886854 76.750987 
L 137.021522 76.828919 
L 137.290858 63.842794 
L 137.425527 61.787744 
L 137.560195 61.831799 
L 137.829531 63.065907 
L 138.233536 67.243031 
L 138.906876 73.346165 
L 139.041544 73.642216 
L 139.176213 73.276811 
L 139.445549 62.135273 
L 139.580217 60.682077 
L 139.714885 60.843065 
L 140.11889 62.896318 
L 141.196235 70.398873 
L 141.330903 70.202245 
L 141.465571 61.487467 
L 141.734908 65.680463 
L 142.004244 65.743438 
L 142.138912 65.477252 
L 142.677585 61.948254 
L 143.485594 56.02257 
L 143.889598 66.283454 
L 144.024266 66.283045 
L 144.158934 65.65307 
L 144.562939 61.167697 
L 145.370948 51.229757 
L 145.640284 50.031524 
L 145.90962 60.827125 
L 146.044288 61.955846 
L 146.178957 61.838891 
L 146.448293 60.91378 
L 146.852297 58.481111 
L 147.525638 54.169981 
L 147.794974 53.312491 
L 147.929643 60.664424 
L 148.198979 57.125226 
L 148.737651 59.406626 
L 149.949665 66.388297 
L 150.219001 60.819455 
L 150.353669 60.217478 
L 150.488337 60.36457 
L 150.892342 61.62852 
L 151.835019 66.518214 
L 152.104355 67.022926 
L 152.239023 60.557824 
L 152.50836 65.826007 
L 152.643028 65.929609 
L 152.777696 65.668411 
L 153.047032 64.093548 
L 153.989709 56.402634 
L 154.259046 55.616183 
L 154.393714 64.671988 
L 154.66305 58.593944 
L 154.797718 58.690632 
L 154.932387 59.055043 
L 155.201723 61.062097 
L 156.1444 69.044512 
L 156.413736 69.835387 
L 156.548404 59.666581 
L 156.817741 65.003751 
L 156.952409 64.813758 
L 157.221745 63.68584 
L 158.433759 53.24251 
L 158.568427 53.307081 
L 158.703095 60.064913 
L 158.972431 61.498583 
L 159.241767 61.550747 
L 159.376436 61.364201 
L 159.915108 59.387813 
L 160.319113 58.577333 
L 160.453781 58.549424 
L 160.588449 58.356107 
L 160.723117 58.41819 
L 160.857785 61.778596 
L 161.127122 57.823123 
L 161.26179 57.980828 
L 161.531126 58.836895 
L 162.877808 66.264514 
L 163.012476 61.707868 
L 163.281812 60.692671 
L 163.551148 60.761172 
L 163.685816 60.722523 
L 163.820485 60.891829 
L 164.224489 62.132631 
L 164.628494 62.48991 
L 164.89783 63.061457 
L 165.032498 63.200147 
L 165.167166 59.375921 
L 165.436502 65.44066 
L 165.571171 65.490442 
L 165.840507 64.34031 
L 166.109843 62.442083 
L 166.917852 54.928107 
L 167.187188 54.704763 
L 167.321857 64.76463 
L 167.591193 57.938929 
L 167.860529 58.380828 
L 168.129866 60.483574 
L 169.207211 71.61613 
L 169.341879 71.994119 
L 169.476547 60.467705 
L 169.745883 67.721837 
L 169.880552 67.362264 
L 170.149888 65.539487 
L 171.092565 53.548569 
L 171.496569 52.017559 
L 171.631238 62.275694 
L 171.900574 60.774309 
L 172.16991 60.325526 
L 172.304578 60.404668 
L 172.439246 60.332959 
L 172.977919 61.819081 
L 173.247255 62.797866 
L 173.516592 63.174575 
L 173.65126 63.021569 
L 173.785928 60.018491 
L 174.055264 64.666018 
L 174.189932 64.902237 
L 174.324601 64.767996 
L 174.459269 64.422297 
L 174.728605 62.640235 
L 175.536614 55.829232 
L 175.80595 55.225858 
L 176.075287 62.097591 
L 176.209955 62.615993 
L 176.479291 62.340567 
L 177.152632 60.313989 
L 177.421968 60.201171 
L 177.556636 60.254104 
L 177.825973 60.046075 
L 177.960641 60.114833 
L 178.095309 59.509089 
L 178.364645 66.330736 
L 178.499313 66.224007 
L 178.903318 63.862472 
L 179.307322 59.406229 
L 179.845995 53.641406 
L 179.980663 53.139665 
L 180.115331 53.115623 
L 180.249999 64.531382 
L 180.519336 59.190453 
L 180.654004 59.159323 
L 180.788672 59.460385 
L 181.058008 61.704467 
L 181.866017 71.034787 
L 182.135353 71.862183 
L 182.270022 71.986365 
L 182.539358 62.770729 
L 182.674026 61.480689 
L 182.808694 61.328359 
L 183.078031 61.481027 
L 183.347367 62.741316 
L 184.155376 67.745989 
L 184.290044 67.736095 
L 184.424712 67.140801 
L 184.55938 59.856847 
L 184.828717 61.932164 
L 185.098053 60.951248 
L 185.771394 57.494504 
L 186.310066 55.324805 
L 186.579403 54.564433 
L 187.118075 60.213832 
L 187.252743 60.261137 
L 187.52208 59.770971 
L 188.464757 54.405622 
L 188.599425 54.240855 
L 188.734093 54.400334 
L 188.868761 62.553641 
L 189.138097 56.15603 
L 189.272766 56.604683 
L 189.542102 58.695409 
L 190.619447 71.712978 
L 190.888783 72.288246 
L 191.023452 61.63881 
L 191.292788 63.810966 
L 191.562124 63.310736 
L 191.83146 62.443062 
L 192.235465 61.028001 
L 192.504801 60.653725 
L 192.908806 59.379403 
L 193.043474 59.059407 
L 193.178142 62.55168 
L 193.447478 61.196576 
L 193.851483 62.711974 
L 194.120819 63.870576 
L 194.120819 63.870576 
" clip-path="url(#p511308b4ed)" style="fill: none; stroke: #ff0000; stroke-width: 0.8; stroke-linecap: square"/>
   </g>
   <g id="text_11">
    <!-- Time Domain Plot -->
    <g transform="translate(73.803681 20.88) scale(0.12 -0.12)">
     <defs>
      <path id="DejaVuSans-44" d="M 1259 4147 
L 1259 519 
L 2022 519 
Q 2988 519 3436 956 
Q 3884 1394 3884 2338 
Q 3884 3275 3436 3711 
Q 2988 4147 2022 4147 
L 1259 4147 
z
M 628 4666 
L 1925 4666 
Q 3281 4666 3915 4102 
Q 4550 3538 4550 2338 
Q 4550 1131 3912 565 
Q 3275 0 1925 0 
L 628 0 
L 628 4666 
z
" transform="scale(0.015625)"/>
      <path id="DejaVuSans-6f" d="M 1959 3097 
Q 1497 3097 1228 2736 
Q 959 2375 959 1747 
Q 959 1119 1226 758 
Q 1494 397 1959 397 
Q 2419 397 2687 759 
Q 2956 1122 2956 1747 
Q 2956 2369 2687 2733 
Q 2419 3097 1959 3097 
z
M 1959 3584 
Q 2709 3584 3137 3096 
Q 3566 2609 3566 1747 
Q 3566 888 3137 398 
Q 2709 -91 1959 -91 
Q 1206 -91 779 398 
Q 353 888 353 1747 
Q 353 2609 779 3096 
Q 1206 3584 1959 3584 
z
" transform="scale(0.015625)"/>
      <path id="DejaVuSans-61" d="M 2194 1759 
Q 1497 1759 1228 1600 
Q 959 1441 959 1056 
Q 959 750 1161 570 
Q 1363 391 1709 391 
Q 2188 391 2477 730 
Q 2766 1069 2766 1631 
L 2766 1759 
L 2194 1759 
z
M 3341 1997 
L 3341 0 
L 2766 0 
L 2766 531 
Q 2569 213 2275 61 
Q 1981 -91 1556 -91 
Q 1019 -91 701 211 
Q 384 513 384 1019 
Q 384 1609 779 1909 
Q 1175 2209 1959 2209 
L 2766 2209 
L 2766 2266 
Q 2766 2663 2505 2880 
Q 2244 3097 1772 3097 
Q 1472 3097 1187 3025 
Q 903 2953 641 2809 
L 641 3341 
Q 956 3463 1253 3523 
Q 1550 3584 1831 3584 
Q 2591 3584 2966 3190 
Q 3341 2797 3341 1997 
z
" transform="scale(0.015625)"/>
      <path id="DejaVuSans-6e" d="M 3513 2113 
L 3513 0 
L 2938 0 
L 2938 2094 
Q 2938 2591 2744 2837 
Q 2550 3084 2163 3084 
Q 1697 3084 1428 2787 
Q 1159 2491 1159 1978 
L 1159 0 
L 581 0 
L 581 3500 
L 1159 3500 
L 1159 2956 
Q 1366 3272 1645 3428 
Q 1925 3584 2291 3584 
Q 2894 3584 3203 3211 
Q 3513 2838 3513 2113 
z
" transform="scale(0.015625)"/>
      <path id="DejaVuSans-50" d="M 1259 4147 
L 1259 2394 
L 2053 2394 
Q 2494 2394 2734 2622 
Q 2975 2850 2975 3272 
Q 2975 3691 2734 3919 
Q 2494 4147 2053 4147 
L 1259 4147 
z
M 628 4666 
L 2053 4666 
Q 2838 4666 3239 4311 
Q 3641 3956 3641 3272 
Q 3641 2581 3239 2228 
Q 2838 1875 2053 1875 
L 1259 1875 
L 1259 0 
L 628 0 
L 628 4666 
z
" transform="scale(0.015625)"/>
     </defs>
     <use xlink:href="#DejaVuSans-54"/>
     <use xlink:href="#DejaVuSans-69" x="57.958984"/>
     <use xlink:href="#DejaVuSans-6d" x="85.742188"/>
     <use xlink:href="#DejaVuSans-65" x="183.154297"/>
     <use xlink:href="#DejaVuSans-20" x="244.677734"/>
     <use xlink:href="#DejaVuSans-44" x="276.464844"/>
     <use xlink:href="#DejaVuSans-6f" x="353.466797"/>
     <use xlink:href="#DejaVuSans-6d" x="414.648438"/>
     <use xlink:href="#DejaVuSans-61" x="512.060547"/>
     <use xlink:href="#DejaVuSans-69" x="573.339844"/>
     <use xlink:href="#DejaVuSans-6e" x="601.123047"/>
     <use xlink:href="#DejaVuSans-20" x="664.501953"/>
     <use xlink:href="#DejaVuSans-50" x="696.289062"/>
     <use xlink:href="#DejaVuSans-6c" x="756.591797"/>
     <use xlink:href="#DejaVuSans-6f" x="784.375"/>
     <use xlink:href="#DejaVuSans-74" x="845.556641"/>
    </g>
   </g>
   <g id="patch_7">
    <path d="M 140.388226 84.444072 
L 167.321857 84.444072 
L 167.321857 45.86494 
L 140.388226 45.86494 
L 140.388226 84.444072 
z
" clip-path="url(#p511308b4ed)" style="fill: none; stroke: #000000; stroke-width: 1.2; stroke-linejoin: miter"/>
   </g>
   <g id="legend_1">
    <g id="patch_8">
     <path d="M 21.199354 158.292 
L 52.067479 158.292 
Q 52.667479 158.292 52.667479 157.692 
L 52.667479 144.781688 
Q 52.667479 144.181688 52.067479 144.181688 
L 21.199354 144.181688 
Q 20.599354 144.181688 20.599354 144.781688 
L 20.599354 157.692 
Q 20.599354 158.292 21.199354 158.292 
z
" style="fill: #ffffff; opacity: 0.8; stroke: #cccccc; stroke-linejoin: miter"/>
    </g>
    <g id="line2d_12">
     <path d="M 21.799354 146.611219 
L 24.799354 146.611219 
L 27.799354 146.611219 
" style="fill: none; stroke: #808080; stroke-width: 0.9; stroke-linecap: square"/>
    </g>
    <g id="text_12">
     <!-- Contaminated -->
     <g transform="translate(30.199354 147.661219) scale(0.03 -0.03)">
      <defs>
       <path id="DejaVuSans-43" d="M 4122 4306 
L 4122 3641 
Q 3803 3938 3442 4084 
Q 3081 4231 2675 4231 
Q 1875 4231 1450 3742 
Q 1025 3253 1025 2328 
Q 1025 1406 1450 917 
Q 1875 428 2675 428 
Q 3081 428 3442 575 
Q 3803 722 4122 1019 
L 4122 359 
Q 3791 134 3420 21 
Q 3050 -91 2638 -91 
Q 1578 -91 968 557 
Q 359 1206 359 2328 
Q 359 3453 968 4101 
Q 1578 4750 2638 4750 
Q 3056 4750 3426 4639 
Q 3797 4528 4122 4306 
z
" transform="scale(0.015625)"/>
      </defs>
      <use xlink:href="#DejaVuSans-43"/>
      <use xlink:href="#DejaVuSans-6f" x="69.824219"/>
      <use xlink:href="#DejaVuSans-6e" x="131.005859"/>
      <use xlink:href="#DejaVuSans-74" x="194.384766"/>
      <use xlink:href="#DejaVuSans-61" x="233.59375"/>
      <use xlink:href="#DejaVuSans-6d" x="294.873047"/>
      <use xlink:href="#DejaVuSans-69" x="392.285156"/>
      <use xlink:href="#DejaVuSans-6e" x="420.068359"/>
      <use xlink:href="#DejaVuSans-61" x="483.447266"/>
      <use xlink:href="#DejaVuSans-74" x="544.726562"/>
      <use xlink:href="#DejaVuSans-65" x="583.935547"/>
      <use xlink:href="#DejaVuSans-64" x="645.458984"/>
     </g>
    </g>
    <g id="line2d_13">
     <path d="M 21.799354 151.014656 
L 24.799354 151.014656 
L 27.799354 151.014656 
" style="fill: none; stroke: #1e90ff; stroke-linecap: square"/>
    </g>
    <g id="text_13">
     <!-- Clean -->
     <g transform="translate(30.199354 152.064656) scale(0.03 -0.03)">
      <use xlink:href="#DejaVuSans-43"/>
      <use xlink:href="#DejaVuSans-6c" x="69.824219"/>
      <use xlink:href="#DejaVuSans-65" x="97.607422"/>
      <use xlink:href="#DejaVuSans-61" x="159.130859"/>
      <use xlink:href="#DejaVuSans-6e" x="220.410156"/>
     </g>
    </g>
    <g id="line2d_14">
     <path d="M 21.799354 155.418094 
L 24.799354 155.418094 
L 27.799354 155.418094 
" style="fill: none; stroke: #ff0000; stroke-width: 0.8; stroke-linecap: square"/>
    </g>
    <g id="text_14">
     <!-- SACed -->
     <g transform="translate(30.199354 156.468094) scale(0.03 -0.03)">
      <defs>
       <path id="DejaVuSans-53" d="M 3425 4513 
L 3425 3897 
Q 3066 4069 2747 4153 
Q 2428 4238 2131 4238 
Q 1616 4238 1336 4038 
Q 1056 3838 1056 3469 
Q 1056 3159 1242 3001 
Q 1428 2844 1947 2747 
L 2328 2669 
Q 3034 2534 3370 2195 
Q 3706 1856 3706 1288 
Q 3706 609 3251 259 
Q 2797 -91 1919 -91 
Q 1588 -91 1214 -16 
Q 841 59 441 206 
L 441 856 
Q 825 641 1194 531 
Q 1563 422 1919 422 
Q 2459 422 2753 634 
Q 3047 847 3047 1241 
Q 3047 1584 2836 1778 
Q 2625 1972 2144 2069 
L 1759 2144 
Q 1053 2284 737 2584 
Q 422 2884 422 3419 
Q 422 4038 858 4394 
Q 1294 4750 2059 4750 
Q 2388 4750 2728 4690 
Q 3069 4631 3425 4513 
z
" transform="scale(0.015625)"/>
      </defs>
      <use xlink:href="#DejaVuSans-53"/>
      <use xlink:href="#DejaVuSans-41" x="65.351562"/>
      <use xlink:href="#DejaVuSans-43" x="132.009766"/>
      <use xlink:href="#DejaVuSans-65" x="201.833984"/>
      <use xlink:href="#DejaVuSans-64" x="263.357422"/>
     </g>
    </g>
   </g>
  </g>
 </g>
 <defs>
  <clipPath id="p511308b4ed">
   <rect x="59.52" y="26.88" width="134.735487" height="102.24"/>
  </clipPath>
 </defs>
</svg>
