<?xml version="1.0" encoding="utf-8" standalone="no"?>
<!DOCTYPE svg PUBLIC "-//W3C//DTD SVG 1.1//EN"
  "http://www.w3.org/Graphics/SVG/1.1/DTD/svg11.dtd">
<svg xmlns:xlink="http://www.w3.org/1999/xlink" width="216pt" height="180pt" viewBox="0 0 216 180" xmlns="http://www.w3.org/2000/svg" version="1.1">
 <metadata>
  <rdf:RDF xmlns:dc="http://purl.org/dc/elements/1.1/" xmlns:cc="http://creativecommons.org/ns#" xmlns:rdf="http://www.w3.org/1999/02/22-rdf-syntax-ns#">
   <cc:Work>
    <dc:type rdf:resource="http://purl.org/dc/dcmitype/StillImage"/>
    <dc:date>2024-08-24T23:51:10.741329</dc:date>
    <dc:format>image/svg+xml</dc:format>
    <dc:creator>
     <cc:Agent>
      <dc:title>Matplotlib v3.9.1, https://matplotlib.org/</dc:title>
     </cc:Agent>
    </dc:creator>
   </cc:Work>
  </rdf:RDF>
 </metadata>
 <defs>
  <style type="text/css">*{stroke-linejoin: round; stroke-linecap: butt}</style>
 </defs>
 <g id="figure_1">
  <g id="patch_1">
   <path d="M 0 180 
L 216 180 
L 216 0 
L 0 0 
z
" style="fill: #ffffff"/>
  </g>
  <g id="axes_1">
   <g id="patch_2">
    <path d="M 59.52 129.12 
L 198.454362 129.12 
L 198.454362 26.88 
L 59.52 26.88 
z
" style="fill: #ffffff"/>
   </g>
   <g id="matplotlib.axis_1">
    <g id="xtick_1">
     <g id="line2d_1">
      <defs>
       <path id="m1268fd1d82" d="M 0 0 
L 0 3.5 
" style="stroke: #000000; stroke-width: 0.8"/>
      </defs>
      <g>
       <use xlink:href="#m1268fd1d82" x="61.540047" y="129.12" style="stroke: #000000; stroke-width: 0.8"/>
      </g>
     </g>
     <g id="text_1">
      <!-- 0 -->
      <g transform="translate(58.358797 143.718437) scale(0.1 -0.1)">
       <defs>
        <path id="DejaVuSans-30" d="M 2034 4250 
Q 1547 4250 1301 3770 
Q 1056 3291 1056 2328 
Q 1056 1369 1301 889 
Q 1547 409 2034 409 
Q 2525 409 2770 889 
Q 3016 1369 3016 2328 
Q 3016 3291 2770 3770 
Q 2525 4250 2034 4250 
z
M 2034 4750 
Q 2819 4750 3233 4129 
Q 3647 3509 3647 2328 
Q 3647 1150 3233 529 
Q 2819 -91 2034 -91 
Q 1250 -91 836 529 
Q 422 1150 422 2328 
Q 422 3509 836 4129 
Q 1250 4750 2034 4750 
z
" transform="scale(0.015625)"/>
       </defs>
       <use xlink:href="#DejaVuSans-30"/>
      </g>
     </g>
    </g>
    <g id="xtick_2">
     <g id="line2d_2">
      <g>
       <use xlink:href="#m1268fd1d82" x="128.874956" y="129.12" style="stroke: #000000; stroke-width: 0.8"/>
      </g>
     </g>
     <g id="text_2">
      <!-- 150 -->
      <g transform="translate(119.331206 143.718437) scale(0.1 -0.1)">
       <defs>
        <path id="DejaVuSans-31" d="M 794 531 
L 1825 531 
L 1825 4091 
L 703 3866 
L 703 4441 
L 1819 4666 
L 2450 4666 
L 2450 531 
L 3481 531 
L 3481 0 
L 794 0 
L 794 531 
z
" transform="scale(0.015625)"/>
        <path id="DejaVuSans-35" d="M 691 4666 
L 3169 4666 
L 3169 4134 
L 1269 4134 
L 1269 2991 
Q 1406 3038 1543 3061 
Q 1681 3084 1819 3084 
Q 2600 3084 3056 2656 
Q 3513 2228 3513 1497 
Q 3513 744 3044 326 
Q 2575 -91 1722 -91 
Q 1428 -91 1123 -41 
Q 819 9 494 109 
L 494 744 
Q 775 591 1075 516 
Q 1375 441 1709 441 
Q 2250 441 2565 725 
Q 2881 1009 2881 1497 
Q 2881 1984 2565 2268 
Q 2250 2553 1709 2553 
Q 1456 2553 1204 2497 
Q 953 2441 691 2322 
L 691 4666 
z
" transform="scale(0.015625)"/>
       </defs>
       <use xlink:href="#DejaVuSans-31"/>
       <use xlink:href="#DejaVuSans-35" x="63.623047"/>
       <use xlink:href="#DejaVuSans-30" x="127.246094"/>
      </g>
     </g>
    </g>
    <g id="xtick_3">
     <g id="line2d_3">
      <g>
       <use xlink:href="#m1268fd1d82" x="196.209865" y="129.12" style="stroke: #000000; stroke-width: 0.8"/>
      </g>
     </g>
     <g id="text_3">
      <!-- 300 -->
      <g transform="translate(186.666115 143.718437) scale(0.1 -0.1)">
       <defs>
        <path id="DejaVuSans-33" d="M 2597 2516 
Q 3050 2419 3304 2112 
Q 3559 1806 3559 1356 
Q 3559 666 3084 287 
Q 2609 -91 1734 -91 
Q 1441 -91 1130 -33 
Q 819 25 488 141 
L 488 750 
Q 750 597 1062 519 
Q 1375 441 1716 441 
Q 2309 441 2620 675 
Q 2931 909 2931 1356 
Q 2931 1769 2642 2001 
Q 2353 2234 1838 2234 
L 1294 2234 
L 1294 2753 
L 1863 2753 
Q 2328 2753 2575 2939 
Q 2822 3125 2822 3475 
Q 2822 3834 2567 4026 
Q 2313 4219 1838 4219 
Q 1578 4219 1281 4162 
Q 984 4106 628 3988 
L 628 4550 
Q 988 4650 1302 4700 
Q 1616 4750 1894 4750 
Q 2613 4750 3031 4423 
Q 3450 4097 3450 3541 
Q 3450 3153 3228 2886 
Q 3006 2619 2597 2516 
z
" transform="scale(0.015625)"/>
       </defs>
       <use xlink:href="#DejaVuSans-33"/>
       <use xlink:href="#DejaVuSans-30" x="63.623047"/>
       <use xlink:href="#DejaVuSans-30" x="127.246094"/>
      </g>
     </g>
    </g>
    <g id="text_4">
     <!-- Frequency (Hz) -->
     <g transform="translate(91.282493 157.396563) scale(0.1 -0.1)">
      <defs>
       <path id="DejaVuSans-46" d="M 628 4666 
L 3309 4666 
L 3309 4134 
L 1259 4134 
L 1259 2759 
L 3109 2759 
L 3109 2228 
L 1259 2228 
L 1259 0 
L 628 0 
L 628 4666 
z
" transform="scale(0.015625)"/>
       <path id="DejaVuSans-72" d="M 2631 2963 
Q 2534 3019 2420 3045 
Q 2306 3072 2169 3072 
Q 1681 3072 1420 2755 
Q 1159 2438 1159 1844 
L 1159 0 
L 581 0 
L 581 3500 
L 1159 3500 
L 1159 2956 
Q 1341 3275 1631 3429 
Q 1922 3584 2338 3584 
Q 2397 3584 2469 3576 
Q 2541 3569 2628 3553 
L 2631 2963 
z
" transform="scale(0.015625)"/>
       <path id="DejaVuSans-65" d="M 3597 1894 
L 3597 1613 
L 953 1613 
Q 991 1019 1311 708 
Q 1631 397 2203 397 
Q 2534 397 2845 478 
Q 3156 559 3463 722 
L 3463 178 
Q 3153 47 2828 -22 
Q 2503 -91 2169 -91 
Q 1331 -91 842 396 
Q 353 884 353 1716 
Q 353 2575 817 3079 
Q 1281 3584 2069 3584 
Q 2775 3584 3186 3129 
Q 3597 2675 3597 1894 
z
M 3022 2063 
Q 3016 2534 2758 2815 
Q 2500 3097 2075 3097 
Q 1594 3097 1305 2825 
Q 1016 2553 972 2059 
L 3022 2063 
z
" transform="scale(0.015625)"/>
       <path id="DejaVuSans-71" d="M 947 1747 
Q 947 1113 1208 752 
Q 1469 391 1925 391 
Q 2381 391 2643 752 
Q 2906 1113 2906 1747 
Q 2906 2381 2643 2742 
Q 2381 3103 1925 3103 
Q 1469 3103 1208 2742 
Q 947 2381 947 1747 
z
M 2906 525 
Q 2725 213 2448 61 
Q 2172 -91 1784 -91 
Q 1150 -91 751 415 
Q 353 922 353 1747 
Q 353 2572 751 3078 
Q 1150 3584 1784 3584 
Q 2172 3584 2448 3432 
Q 2725 3281 2906 2969 
L 2906 3500 
L 3481 3500 
L 3481 -1331 
L 2906 -1331 
L 2906 525 
z
" transform="scale(0.015625)"/>
       <path id="DejaVuSans-75" d="M 544 1381 
L 544 3500 
L 1119 3500 
L 1119 1403 
Q 1119 906 1312 657 
Q 1506 409 1894 409 
Q 2359 409 2629 706 
Q 2900 1003 2900 1516 
L 2900 3500 
L 3475 3500 
L 3475 0 
L 2900 0 
L 2900 538 
Q 2691 219 2414 64 
Q 2138 -91 1772 -91 
Q 1169 -91 856 284 
Q 544 659 544 1381 
z
M 1991 3584 
L 1991 3584 
z
" transform="scale(0.015625)"/>
       <path id="DejaVuSans-6e" d="M 3513 2113 
L 3513 0 
L 2938 0 
L 2938 2094 
Q 2938 2591 2744 2837 
Q 2550 3084 2163 3084 
Q 1697 3084 1428 2787 
Q 1159 2491 1159 1978 
L 1159 0 
L 581 0 
L 581 3500 
L 1159 3500 
L 1159 2956 
Q 1366 3272 1645 3428 
Q 1925 3584 2291 3584 
Q 2894 3584 3203 3211 
Q 3513 2838 3513 2113 
z
" transform="scale(0.015625)"/>
       <path id="DejaVuSans-63" d="M 3122 3366 
L 3122 2828 
Q 2878 2963 2633 3030 
Q 2388 3097 2138 3097 
Q 1578 3097 1268 2742 
Q 959 2388 959 1747 
Q 959 1106 1268 751 
Q 1578 397 2138 397 
Q 2388 397 2633 464 
Q 2878 531 3122 666 
L 3122 134 
Q 2881 22 2623 -34 
Q 2366 -91 2075 -91 
Q 1284 -91 818 406 
Q 353 903 353 1747 
Q 353 2603 823 3093 
Q 1294 3584 2113 3584 
Q 2378 3584 2631 3529 
Q 2884 3475 3122 3366 
z
" transform="scale(0.015625)"/>
       <path id="DejaVuSans-79" d="M 2059 -325 
Q 1816 -950 1584 -1140 
Q 1353 -1331 966 -1331 
L 506 -1331 
L 506 -850 
L 844 -850 
Q 1081 -850 1212 -737 
Q 1344 -625 1503 -206 
L 1606 56 
L 191 3500 
L 800 3500 
L 1894 763 
L 2988 3500 
L 3597 3500 
L 2059 -325 
z
" transform="scale(0.015625)"/>
       <path id="DejaVuSans-20" transform="scale(0.015625)"/>
       <path id="DejaVuSans-28" d="M 1984 4856 
Q 1566 4138 1362 3434 
Q 1159 2731 1159 2009 
Q 1159 1288 1364 580 
Q 1569 -128 1984 -844 
L 1484 -844 
Q 1016 -109 783 600 
Q 550 1309 550 2009 
Q 550 2706 781 3412 
Q 1013 4119 1484 4856 
L 1984 4856 
z
" transform="scale(0.015625)"/>
       <path id="DejaVuSans-48" d="M 628 4666 
L 1259 4666 
L 1259 2753 
L 3553 2753 
L 3553 4666 
L 4184 4666 
L 4184 0 
L 3553 0 
L 3553 2222 
L 1259 2222 
L 1259 0 
L 628 0 
L 628 4666 
z
" transform="scale(0.015625)"/>
       <path id="DejaVuSans-7a" d="M 353 3500 
L 3084 3500 
L 3084 2975 
L 922 459 
L 3084 459 
L 3084 0 
L 275 0 
L 275 525 
L 2438 3041 
L 353 3041 
L 353 3500 
z
" transform="scale(0.015625)"/>
       <path id="DejaVuSans-29" d="M 513 4856 
L 1013 4856 
Q 1481 4119 1714 3412 
Q 1947 2706 1947 2009 
Q 1947 1309 1714 600 
Q 1481 -109 1013 -844 
L 513 -844 
Q 928 -128 1133 580 
Q 1338 1288 1338 2009 
Q 1338 2731 1133 3434 
Q 928 4138 513 4856 
z
" transform="scale(0.015625)"/>
      </defs>
      <use xlink:href="#DejaVuSans-46"/>
      <use xlink:href="#DejaVuSans-72" x="50.269531"/>
      <use xlink:href="#DejaVuSans-65" x="89.132812"/>
      <use xlink:href="#DejaVuSans-71" x="150.65625"/>
      <use xlink:href="#DejaVuSans-75" x="214.132812"/>
      <use xlink:href="#DejaVuSans-65" x="277.511719"/>
      <use xlink:href="#DejaVuSans-6e" x="339.035156"/>
      <use xlink:href="#DejaVuSans-63" x="402.414062"/>
      <use xlink:href="#DejaVuSans-79" x="457.394531"/>
      <use xlink:href="#DejaVuSans-20" x="516.574219"/>
      <use xlink:href="#DejaVuSans-28" x="548.361328"/>
      <use xlink:href="#DejaVuSans-48" x="587.375"/>
      <use xlink:href="#DejaVuSans-7a" x="662.570312"/>
      <use xlink:href="#DejaVuSans-29" x="715.060547"/>
     </g>
    </g>
   </g>
   <g id="matplotlib.axis_2">
    <g id="ytick_1">
     <g id="line2d_4">
      <defs>
       <path id="m2786f9b3f2" d="M 0 0 
L -3.5 0 
" style="stroke: #000000; stroke-width: 0.8"/>
      </defs>
      <g>
       <use xlink:href="#m2786f9b3f2" x="59.52" y="110.611144" style="stroke: #000000; stroke-width: 0.8"/>
      </g>
     </g>
     <g id="text_5">
      <!-- $\mathdefault{10^{-3}}$ -->
      <g transform="translate(29.02 114.410363) scale(0.1 -0.1)">
       <defs>
        <path id="DejaVuSans-2212" d="M 678 2272 
L 4684 2272 
L 4684 1741 
L 678 1741 
L 678 2272 
z
" transform="scale(0.015625)"/>
       </defs>
       <use xlink:href="#DejaVuSans-31" transform="translate(0 0.765625)"/>
       <use xlink:href="#DejaVuSans-30" transform="translate(63.623047 0.765625)"/>
       <use xlink:href="#DejaVuSans-2212" transform="translate(128.203125 39.046875) scale(0.7)"/>
       <use xlink:href="#DejaVuSans-33" transform="translate(186.855469 39.046875) scale(0.7)"/>
      </g>
     </g>
    </g>
    <g id="ytick_2">
     <g id="line2d_5">
      <g>
       <use xlink:href="#m2786f9b3f2" x="59.52" y="83.475462" style="stroke: #000000; stroke-width: 0.8"/>
      </g>
     </g>
     <g id="text_6">
      <!-- $\mathdefault{10^{0}}$ -->
      <g transform="translate(34.92 87.27468) scale(0.1 -0.1)">
       <use xlink:href="#DejaVuSans-31" transform="translate(0 0.765625)"/>
       <use xlink:href="#DejaVuSans-30" transform="translate(63.623047 0.765625)"/>
       <use xlink:href="#DejaVuSans-30" transform="translate(128.203125 39.046875) scale(0.7)"/>
      </g>
     </g>
    </g>
    <g id="ytick_3">
     <g id="line2d_6">
      <g>
       <use xlink:href="#m2786f9b3f2" x="59.52" y="56.339779" style="stroke: #000000; stroke-width: 0.8"/>
      </g>
     </g>
     <g id="text_7">
      <!-- $\mathdefault{10^{3}}$ -->
      <g transform="translate(34.92 60.138998) scale(0.1 -0.1)">
       <use xlink:href="#DejaVuSans-31" transform="translate(0 0.765625)"/>
       <use xlink:href="#DejaVuSans-30" transform="translate(63.623047 0.765625)"/>
       <use xlink:href="#DejaVuSans-33" transform="translate(128.203125 39.046875) scale(0.7)"/>
      </g>
     </g>
    </g>
    <g id="ytick_4">
     <g id="line2d_7">
      <g>
       <use xlink:href="#m2786f9b3f2" x="59.52" y="29.204097" style="stroke: #000000; stroke-width: 0.8"/>
      </g>
     </g>
     <g id="text_8">
      <!-- $\mathdefault{10^{6}}$ -->
      <g transform="translate(34.92 33.003315) scale(0.1 -0.1)">
       <defs>
        <path id="DejaVuSans-36" d="M 2113 2584 
Q 1688 2584 1439 2293 
Q 1191 2003 1191 1497 
Q 1191 994 1439 701 
Q 1688 409 2113 409 
Q 2538 409 2786 701 
Q 3034 994 3034 1497 
Q 3034 2003 2786 2293 
Q 2538 2584 2113 2584 
z
M 3366 4563 
L 3366 3988 
Q 3128 4100 2886 4159 
Q 2644 4219 2406 4219 
Q 1781 4219 1451 3797 
Q 1122 3375 1075 2522 
Q 1259 2794 1537 2939 
Q 1816 3084 2150 3084 
Q 2853 3084 3261 2657 
Q 3669 2231 3669 1497 
Q 3669 778 3244 343 
Q 2819 -91 2113 -91 
Q 1303 -91 875 529 
Q 447 1150 447 2328 
Q 447 3434 972 4092 
Q 1497 4750 2381 4750 
Q 2619 4750 2861 4703 
Q 3103 4656 3366 4563 
z
" transform="scale(0.015625)"/>
       </defs>
       <use xlink:href="#DejaVuSans-31" transform="translate(0 0.765625)"/>
       <use xlink:href="#DejaVuSans-30" transform="translate(63.623047 0.765625)"/>
       <use xlink:href="#DejaVuSans-36" transform="translate(128.203125 39.046875) scale(0.7)"/>
      </g>
     </g>
    </g>
    <g id="text_9">
     <!-- Log power (dB/Hz) -->
     <g transform="translate(22.940312 124.139844) rotate(-90) scale(0.1 -0.1)">
      <defs>
       <path id="DejaVuSans-4c" d="M 628 4666 
L 1259 4666 
L 1259 531 
L 3531 531 
L 3531 0 
L 628 0 
L 628 4666 
z
" transform="scale(0.015625)"/>
       <path id="DejaVuSans-6f" d="M 1959 3097 
Q 1497 3097 1228 2736 
Q 959 2375 959 1747 
Q 959 1119 1226 758 
Q 1494 397 1959 397 
Q 2419 397 2687 759 
Q 2956 1122 2956 1747 
Q 2956 2369 2687 2733 
Q 2419 3097 1959 3097 
z
M 1959 3584 
Q 2709 3584 3137 3096 
Q 3566 2609 3566 1747 
Q 3566 888 3137 398 
Q 2709 -91 1959 -91 
Q 1206 -91 779 398 
Q 353 888 353 1747 
Q 353 2609 779 3096 
Q 1206 3584 1959 3584 
z
" transform="scale(0.015625)"/>
       <path id="DejaVuSans-67" d="M 2906 1791 
Q 2906 2416 2648 2759 
Q 2391 3103 1925 3103 
Q 1463 3103 1205 2759 
Q 947 2416 947 1791 
Q 947 1169 1205 825 
Q 1463 481 1925 481 
Q 2391 481 2648 825 
Q 2906 1169 2906 1791 
z
M 3481 434 
Q 3481 -459 3084 -895 
Q 2688 -1331 1869 -1331 
Q 1566 -1331 1297 -1286 
Q 1028 -1241 775 -1147 
L 775 -588 
Q 1028 -725 1275 -790 
Q 1522 -856 1778 -856 
Q 2344 -856 2625 -561 
Q 2906 -266 2906 331 
L 2906 616 
Q 2728 306 2450 153 
Q 2172 0 1784 0 
Q 1141 0 747 490 
Q 353 981 353 1791 
Q 353 2603 747 3093 
Q 1141 3584 1784 3584 
Q 2172 3584 2450 3431 
Q 2728 3278 2906 2969 
L 2906 3500 
L 3481 3500 
L 3481 434 
z
" transform="scale(0.015625)"/>
       <path id="DejaVuSans-70" d="M 1159 525 
L 1159 -1331 
L 581 -1331 
L 581 3500 
L 1159 3500 
L 1159 2969 
Q 1341 3281 1617 3432 
Q 1894 3584 2278 3584 
Q 2916 3584 3314 3078 
Q 3713 2572 3713 1747 
Q 3713 922 3314 415 
Q 2916 -91 2278 -91 
Q 1894 -91 1617 61 
Q 1341 213 1159 525 
z
M 3116 1747 
Q 3116 2381 2855 2742 
Q 2594 3103 2138 3103 
Q 1681 3103 1420 2742 
Q 1159 2381 1159 1747 
Q 1159 1113 1420 752 
Q 1681 391 2138 391 
Q 2594 391 2855 752 
Q 3116 1113 3116 1747 
z
" transform="scale(0.015625)"/>
       <path id="DejaVuSans-77" d="M 269 3500 
L 844 3500 
L 1563 769 
L 2278 3500 
L 2956 3500 
L 3675 769 
L 4391 3500 
L 4966 3500 
L 4050 0 
L 3372 0 
L 2619 2869 
L 1863 0 
L 1184 0 
L 269 3500 
z
" transform="scale(0.015625)"/>
       <path id="DejaVuSans-64" d="M 2906 2969 
L 2906 4863 
L 3481 4863 
L 3481 0 
L 2906 0 
L 2906 525 
Q 2725 213 2448 61 
Q 2172 -91 1784 -91 
Q 1150 -91 751 415 
Q 353 922 353 1747 
Q 353 2572 751 3078 
Q 1150 3584 1784 3584 
Q 2172 3584 2448 3432 
Q 2725 3281 2906 2969 
z
M 947 1747 
Q 947 1113 1208 752 
Q 1469 391 1925 391 
Q 2381 391 2643 752 
Q 2906 1113 2906 1747 
Q 2906 2381 2643 2742 
Q 2381 3103 1925 3103 
Q 1469 3103 1208 2742 
Q 947 2381 947 1747 
z
" transform="scale(0.015625)"/>
       <path id="DejaVuSans-42" d="M 1259 2228 
L 1259 519 
L 2272 519 
Q 2781 519 3026 730 
Q 3272 941 3272 1375 
Q 3272 1813 3026 2020 
Q 2781 2228 2272 2228 
L 1259 2228 
z
M 1259 4147 
L 1259 2741 
L 2194 2741 
Q 2656 2741 2882 2914 
Q 3109 3088 3109 3444 
Q 3109 3797 2882 3972 
Q 2656 4147 2194 4147 
L 1259 4147 
z
M 628 4666 
L 2241 4666 
Q 2963 4666 3353 4366 
Q 3744 4066 3744 3513 
Q 3744 3084 3544 2831 
Q 3344 2578 2956 2516 
Q 3422 2416 3680 2098 
Q 3938 1781 3938 1306 
Q 3938 681 3513 340 
Q 3088 0 2303 0 
L 628 0 
L 628 4666 
z
" transform="scale(0.015625)"/>
       <path id="DejaVuSans-2f" d="M 1625 4666 
L 2156 4666 
L 531 -594 
L 0 -594 
L 1625 4666 
z
" transform="scale(0.015625)"/>
      </defs>
      <use xlink:href="#DejaVuSans-4c"/>
      <use xlink:href="#DejaVuSans-6f" x="53.962891"/>
      <use xlink:href="#DejaVuSans-67" x="115.144531"/>
      <use xlink:href="#DejaVuSans-20" x="178.621094"/>
      <use xlink:href="#DejaVuSans-70" x="210.408203"/>
      <use xlink:href="#DejaVuSans-6f" x="273.884766"/>
      <use xlink:href="#DejaVuSans-77" x="335.066406"/>
      <use xlink:href="#DejaVuSans-65" x="416.853516"/>
      <use xlink:href="#DejaVuSans-72" x="478.376953"/>
      <use xlink:href="#DejaVuSans-20" x="519.490234"/>
      <use xlink:href="#DejaVuSans-28" x="551.277344"/>
      <use xlink:href="#DejaVuSans-64" x="590.291016"/>
      <use xlink:href="#DejaVuSans-42" x="653.767578"/>
      <use xlink:href="#DejaVuSans-2f" x="722.371094"/>
      <use xlink:href="#DejaVuSans-48" x="756.0625"/>
      <use xlink:href="#DejaVuSans-7a" x="831.257812"/>
      <use xlink:href="#DejaVuSans-29" x="883.748047"/>
     </g>
    </g>
   </g>
   <g id="line2d_8">
    <path d="M 61.764497 71.29435 
L 61.988947 76.904258 
L 62.213396 68.483747 
L 62.437846 65.852854 
L 62.662296 71.784565 
L 62.886745 70.631594 
L 63.111195 62.812505 
L 63.335645 74.009325 
L 63.560095 71.244531 
L 64.008994 68.421988 
L 64.233444 74.310918 
L 64.457893 71.730887 
L 64.682343 65.64071 
L 64.906793 75.336737 
L 65.131242 66.62616 
L 65.580142 68.034857 
L 65.804591 76.080166 
L 66.029041 67.803482 
L 66.253491 65.483688 
L 66.477941 67.820198 
L 66.70239 68.263671 
L 66.92684 63.851834 
L 67.15129 76.387493 
L 67.375739 75.776597 
L 67.600189 69.725851 
L 67.824639 74.852457 
L 68.049088 75.020614 
L 68.273538 72.901594 
L 68.722438 70.693416 
L 68.946887 62.54512 
L 69.171337 71.333498 
L 69.395787 71.28469 
L 69.620236 63.883777 
L 69.844686 77.329501 
L 70.293585 69.24053 
L 70.518035 68.428607 
L 70.742485 80.482762 
L 70.966935 64.09144 
L 71.191384 67.515716 
L 71.415834 83.196005 
L 71.640284 57.426466 
L 71.864733 68.79213 
L 72.089183 73.94492 
L 72.313633 70.874521 
L 72.538082 82.352182 
L 72.762532 77.266696 
L 72.986982 68.725097 
L 73.211431 69.283941 
L 73.435881 69.394302 
L 73.660331 77.977679 
L 73.884781 80.187238 
L 74.10923 66.994371 
L 74.33368 62.599022 
L 74.55813 78.002353 
L 74.782579 79.474176 
L 75.231479 69.88634 
L 75.455928 77.314102 
L 75.680378 64.685302 
L 75.904828 75.396134 
L 76.129278 73.308861 
L 76.353727 75.964047 
L 76.578177 67.145461 
L 77.027076 73.62461 
L 77.251526 65.922025 
L 77.475976 65.316605 
L 77.700425 74.199954 
L 77.924875 66.835553 
L 78.373774 73.609349 
L 78.598224 64.053799 
L 79.047124 72.291236 
L 79.271573 68.733406 
L 79.496023 76.365526 
L 79.720473 90.659046 
L 79.944922 71.726649 
L 80.169372 63.928095 
L 80.393822 67.480392 
L 80.842721 80.885459 
L 81.067171 67.852249 
L 81.291621 72.118729 
L 81.51607 67.314114 
L 81.74052 76.643999 
L 81.96497 69.555211 
L 82.189419 67.491536 
L 82.413869 67.59603 
L 82.638319 70.314747 
L 82.862768 70.593229 
L 83.087218 72.289465 
L 83.536117 67.653138 
L 83.760567 68.236604 
L 84.209467 73.420693 
L 84.433916 79.153911 
L 84.658366 71.591429 
L 84.882816 74.062137 
L 85.107265 65.850842 
L 85.331715 67.521176 
L 85.556165 77.711459 
L 85.780614 70.940447 
L 86.005064 78.40629 
L 86.229514 68.438984 
L 86.453964 67.531686 
L 86.678413 69.416943 
L 86.902863 68.038542 
L 87.127313 64.355985 
L 87.351762 73.947165 
L 87.576212 78.006011 
L 87.800662 67.824248 
L 88.025111 66.214503 
L 88.249561 68.003043 
L 88.474011 72.311724 
L 88.69846 64.144823 
L 89.14736 72.704579 
L 89.37181 72.641762 
L 89.596259 70.612708 
L 89.820709 73.151408 
L 90.045159 71.909701 
L 90.494058 63.978315 
L 90.718508 73.074225 
L 91.167407 65.748673 
L 91.391857 67.485632 
L 91.616307 77.713558 
L 91.840756 77.007175 
L 92.065206 64.109392 
L 92.289656 68.374914 
L 92.514105 68.46536 
L 92.738555 65.780431 
L 92.963005 69.4788 
L 93.187454 80.469316 
L 93.411904 70.826969 
L 93.636354 82.137977 
L 93.860804 66.180427 
L 94.085253 64.626946 
L 94.309703 76.072906 
L 94.534153 71.611526 
L 94.758602 75.753646 
L 94.983052 73.860877 
L 95.431951 66.027578 
L 95.656401 67.971542 
L 95.880851 68.41346 
L 96.1053 70.652748 
L 96.32975 71.42322 
L 96.5542 67.907099 
L 96.77865 67.01828 
L 97.003099 65.283217 
L 97.227549 68.33756 
L 97.451999 76.246795 
L 97.676448 65.172541 
L 97.900898 71.035825 
L 98.125348 66.604364 
L 98.349797 77.137592 
L 98.798697 65.250688 
L 99.023147 61.383497 
L 99.247596 68.586366 
L 99.472046 80.226196 
L 99.920945 67.464856 
L 100.145395 67.565661 
L 100.369845 67.311712 
L 100.594294 61.031541 
L 100.818744 69.727654 
L 101.043194 70.507703 
L 101.267643 64.343653 
L 101.492093 72.494987 
L 101.716543 64.300231 
L 101.940993 64.925726 
L 102.165442 74.47784 
L 102.389892 65.307843 
L 102.614342 64.9995 
L 102.838791 65.954215 
L 103.287691 70.606961 
L 103.51214 62.30707 
L 103.73659 81.669052 
L 103.96104 67.563402 
L 104.18549 70.630085 
L 104.409939 77.665881 
L 104.858839 60.966375 
L 105.083288 65.435114 
L 105.307738 73.017348 
L 105.756637 64.895492 
L 105.981087 65.567866 
L 106.205537 69.00324 
L 106.429986 74.841055 
L 106.654436 73.600834 
L 106.878886 69.352407 
L 107.103336 72.364916 
L 107.327785 67.540955 
L 108.001134 69.963422 
L 108.225584 64.259912 
L 108.450034 76.920867 
L 108.674483 63.332413 
L 108.898933 66.227472 
L 109.123383 74.485892 
L 109.347833 74.316661 
L 109.572282 63.21837 
L 109.796732 65.323695 
L 110.021182 70.820679 
L 110.245631 61.33684 
L 110.694531 77.245203 
L 110.91898 64.932059 
L 111.36788 76.350015 
L 111.592329 65.508091 
L 111.816779 70.819384 
L 112.041229 80.074408 
L 112.265679 65.138029 
L 112.490128 65.755882 
L 112.714578 67.71225 
L 112.939028 67.310058 
L 113.163477 62.631188 
L 113.612377 72.573746 
L 113.836826 65.927308 
L 114.061276 62.719686 
L 114.285726 76.649734 
L 114.510176 68.584769 
L 114.734625 68.689718 
L 114.959075 64.876144 
L 115.407974 73.056158 
L 115.632424 68.0758 
L 115.856874 76.313177 
L 116.081323 65.623998 
L 116.530223 80.186225 
L 116.754673 69.292005 
L 116.979122 70.889761 
L 117.203572 67.536206 
L 117.428022 82.070311 
L 117.652471 31.527273 
L 117.876921 80.823567 
L 118.101371 67.369738 
L 118.32582 70.961539 
L 118.55027 69.329178 
L 118.77472 80.721673 
L 119.223619 66.112314 
L 119.448069 76.053997 
L 119.672519 68.657114 
L 119.896968 73.890138 
L 120.345868 65.686256 
L 120.570317 68.978938 
L 120.794767 69.717205 
L 121.019217 76.757708 
L 121.243666 63.530879 
L 121.468116 66.795578 
L 121.692566 73.233624 
L 122.141465 63.693062 
L 122.365915 68.005375 
L 122.590365 69.135677 
L 122.814814 67.165826 
L 123.039264 66.542082 
L 123.263714 82.98229 
L 123.712613 66.86885 
L 123.937063 78.537984 
L 124.385962 66.404117 
L 124.610412 78.648804 
L 124.834862 72.72475 
L 125.059311 63.334303 
L 125.283761 72.697118 
L 125.508211 67.05365 
L 125.73266 65.51628 
L 125.95711 77.103667 
L 126.18156 76.665171 
L 126.406009 68.069777 
L 126.630459 65.336041 
L 126.854909 79.01441 
L 127.079359 66.399516 
L 127.303808 73.519796 
L 127.752708 70.261705 
L 127.977157 70.274896 
L 128.201607 75.063804 
L 128.426057 72.034595 
L 128.650506 76.436264 
L 128.874956 77.140366 
L 129.323855 68.747099 
L 129.548305 67.666031 
L 129.997205 75.495042 
L 130.446104 64.169858 
L 130.895003 82.604132 
L 131.119453 74.05942 
L 131.343903 71.016589 
L 131.568352 84.309003 
L 131.792802 65.84502 
L 132.017252 73.999057 
L 132.466151 69.359404 
L 132.690601 68.328345 
L 132.915051 68.801831 
L 133.1395 77.658173 
L 133.36395 68.693942 
L 133.5884 67.78819 
L 133.812849 74.753036 
L 134.037299 69.03572 
L 134.261749 74.531085 
L 134.486198 73.814058 
L 134.710648 65.44847 
L 134.935098 72.130107 
L 135.159548 72.645523 
L 135.383997 71.784003 
L 135.832897 85.372462 
L 136.281796 66.02721 
L 136.730695 75.362639 
L 136.955145 82.510029 
L 137.179595 71.684162 
L 137.404045 75.602673 
L 137.628494 70.1714 
L 137.852944 79.497317 
L 138.077394 73.670234 
L 138.301843 71.180897 
L 138.750743 73.65458 
L 138.975192 78.175123 
L 139.424092 73.960529 
L 139.648542 73.583851 
L 139.872991 72.889431 
L 140.54634 83.175076 
L 140.77079 76.948643 
L 140.99524 83.351939 
L 141.219689 70.713183 
L 141.444139 71.996956 
L 141.668589 85.558514 
L 141.893038 76.565961 
L 142.117488 85.635197 
L 142.341938 75.430374 
L 142.566388 72.416536 
L 142.790837 75.000646 
L 143.015287 74.587574 
L 143.239737 70.11827 
L 143.464186 82.247209 
L 143.688636 83.878586 
L 143.913086 73.040169 
L 144.137535 73.48469 
L 144.361985 75.207402 
L 144.586435 79.011424 
L 144.810885 71.291481 
L 145.259784 78.352143 
L 145.484234 81.398083 
L 145.708683 78.9309 
L 145.933133 80.238323 
L 146.157583 79.069498 
L 146.382032 76.402981 
L 146.606482 71.900122 
L 146.830932 80.251928 
L 147.055381 75.916392 
L 147.279831 74.413788 
L 147.504281 74.798279 
L 147.728731 85.112861 
L 147.95318 82.820666 
L 148.17763 72.111503 
L 148.40208 76.407904 
L 148.626529 77.088965 
L 148.850979 74.533611 
L 149.075429 77.852386 
L 149.299878 88.235939 
L 149.524328 78.900117 
L 149.748778 87.775444 
L 149.973228 74.969558 
L 150.197677 73.748323 
L 150.422127 85.243877 
L 150.646577 80.076852 
L 150.871026 87.462285 
L 151.095476 84.981051 
L 151.319926 79.583664 
L 151.544375 76.86162 
L 151.768825 77.111949 
L 151.993275 78.143401 
L 152.217724 80.658988 
L 152.442174 81.586182 
L 152.666624 78.323616 
L 152.891074 76.777622 
L 153.115523 76.175877 
L 153.339973 78.569153 
L 153.564423 83.640778 
L 153.788872 75.61722 
L 154.013322 80.680831 
L 154.237772 76.857535 
L 154.462221 86.279864 
L 155.135571 71.627531 
L 155.58447 89.087427 
L 156.033369 78.260102 
L 156.482269 78.541908 
L 156.706718 71.461153 
L 156.931168 80.253398 
L 157.155618 81.625881 
L 157.380067 75.289101 
L 157.604517 81.341917 
L 157.828967 74.495667 
L 158.053417 75.696816 
L 158.277866 84.091481 
L 158.502316 75.632018 
L 158.726766 75.190684 
L 159.175665 77.996198 
L 159.400115 80.91166 
L 159.624564 73.096676 
L 159.849014 90.741254 
L 160.073464 77.971308 
L 160.297914 81.277775 
L 160.522363 86.902443 
L 160.971263 71.309174 
L 161.420162 82.319029 
L 161.644612 80.22238 
L 161.869061 75.20233 
L 162.093511 75.959972 
L 162.317961 79.163008 
L 162.542411 85.087613 
L 162.76686 83.724877 
L 162.99131 80.337401 
L 163.21576 82.563432 
L 163.440209 77.847267 
L 163.664659 77.966685 
L 163.889109 79.544373 
L 164.113558 80.31332 
L 164.338008 74.23051 
L 164.562458 87.791212 
L 164.786907 73.23835 
L 165.011357 76.08778 
L 165.235807 84.839654 
L 165.460257 84.515636 
L 165.684706 73.126067 
L 165.909156 75.141385 
L 166.133606 80.267251 
L 166.358055 70.925842 
L 166.806955 86.136699 
L 167.031404 74.261453 
L 167.480304 86.107243 
L 167.704754 74.66919 
L 167.929203 80.392983 
L 168.153653 90.005857 
L 168.378103 74.367629 
L 168.602552 75.028735 
L 168.827002 76.678164 
L 169.051452 76.31654 
L 169.275901 71.680418 
L 169.724801 82.394841 
L 169.94925 75.17609 
L 170.1737 71.949188 
L 170.39815 84.690387 
L 170.6226 77.860736 
L 170.847049 77.207149 
L 171.071499 73.800236 
L 171.520398 81.37754 
L 171.744848 76.62647 
L 171.969298 83.334394 
L 172.193747 74.217766 
L 172.642647 88.526236 
L 172.867097 77.51341 
L 173.091546 78.782844 
L 173.315996 75.925581 
L 173.540446 89.218605 
L 173.764895 39.757444 
L 173.989345 89.218749 
L 174.213795 75.692006 
L 174.438244 78.417722 
L 174.662694 77.037487 
L 174.887144 89.877397 
L 175.336043 73.981682 
L 175.560493 84.682325 
L 175.784943 76.490368 
L 176.009392 80.697108 
L 176.458292 73.283806 
L 176.682741 76.733749 
L 176.907191 77.468209 
L 177.131641 84.402313 
L 177.35609 71.213692 
L 177.58054 74.498902 
L 177.80499 81.006898 
L 178.253889 71.137624 
L 178.478339 75.772561 
L 178.702789 76.51046 
L 178.927238 74.437762 
L 179.151688 73.629166 
L 179.376138 89.238172 
L 179.825037 73.927999 
L 180.049487 84.625971 
L 180.498386 73.515969 
L 180.722836 86.48277 
L 181.171735 69.877546 
L 181.396185 79.891374 
L 181.620635 74.193859 
L 181.845084 72.142731 
L 182.069534 84.056323 
L 182.293984 83.998004 
L 182.518433 74.861896 
L 182.742883 72.046593 
L 182.967333 86.484342 
L 183.191783 73.075271 
L 183.416232 79.540216 
L 184.089581 76.914929 
L 184.314031 81.704659 
L 184.538481 78.435245 
L 184.76293 82.662299 
L 184.98738 83.610637 
L 185.43628 74.975103 
L 185.660729 73.953603 
L 186.109629 81.768645 
L 186.558528 70.313205 
L 187.007427 86.515419 
L 187.231877 79.635873 
L 187.456327 76.930281 
L 187.680776 89.721007 
L 187.905226 71.831988 
L 188.129676 79.460185 
L 188.803025 74.220201 
L 189.027475 74.893688 
L 189.251924 82.902294 
L 189.476374 74.853334 
L 189.700824 73.524014 
L 189.925273 80.78881 
L 190.149723 74.439969 
L 190.374173 80.549433 
L 190.598623 79.695621 
L 190.823072 71.007856 
L 191.047522 77.886036 
L 191.271972 77.522173 
L 191.496421 77.711463 
L 191.945321 90.094449 
L 192.39422 71.544659 
L 192.843119 80.603204 
L 193.067569 86.887067 
L 193.292019 76.911333 
L 193.516469 81.196525 
L 193.740918 75.651407 
L 193.965368 83.951167 
L 194.189818 78.70775 
L 194.414267 76.591819 
L 194.863167 78.829731 
L 195.087616 82.293154 
L 195.312066 81.239293 
L 195.536516 79.118273 
L 195.760966 78.622662 
L 195.985415 77.646716 
L 195.985415 77.646716 
" clip-path="url(#p66a6459322)" style="fill: none; stroke: #808080; stroke-width: 0.8; stroke-linecap: square"/>
   </g>
   <g id="line2d_9">
    <path d="M 61.764497 72.756242 
L 62.213396 68.636755 
L 62.437846 69.510982 
L 62.662296 71.52381 
L 62.886745 71.70046 
L 63.111195 65.872584 
L 63.335645 77.437039 
L 63.560095 69.052795 
L 63.784544 73.915826 
L 64.008994 67.02478 
L 64.233444 73.292471 
L 64.457893 68.188022 
L 64.682343 68.9544 
L 64.906793 77.722502 
L 65.131242 69.820219 
L 65.355692 73.962163 
L 65.580142 70.011343 
L 65.804591 74.031336 
L 66.029041 81.241899 
L 66.253491 67.906754 
L 66.477941 74.368439 
L 66.70239 75.547227 
L 66.92684 68.825497 
L 67.15129 79.056871 
L 67.375739 79.240564 
L 67.600189 95.82467 
L 67.824639 74.696591 
L 68.049088 79.134876 
L 68.497988 74.355997 
L 68.722438 76.387456 
L 68.946887 71.432672 
L 69.171337 73.755921 
L 69.395787 77.252302 
L 69.620236 71.373028 
L 69.844686 79.926296 
L 70.069136 78.783294 
L 70.293585 86.047967 
L 70.518035 73.541669 
L 70.742485 91.197857 
L 70.966935 70.193766 
L 71.415834 71.658883 
L 71.640284 56.605659 
L 71.864733 75.669672 
L 72.089183 82.216012 
L 72.313633 81.481454 
L 72.538082 81.923446 
L 72.762532 74.068258 
L 72.986982 75.549424 
L 73.211431 85.627939 
L 73.435881 80.572371 
L 73.660331 78.690165 
L 73.884781 79.140176 
L 74.10923 79.156356 
L 74.33368 75.016842 
L 74.55813 80.037269 
L 74.782579 82.211924 
L 75.007029 74.18781 
L 75.231479 87.217296 
L 75.455928 81.453582 
L 75.680378 82.390382 
L 75.904828 83.900906 
L 76.353727 72.797925 
L 76.578177 90.037502 
L 76.802627 78.819143 
L 77.027076 80.396387 
L 77.475976 75.814551 
L 77.700425 80.254951 
L 77.924875 80.619923 
L 78.149325 77.764341 
L 78.373774 84.542746 
L 78.822674 78.826491 
L 79.047124 79.472917 
L 79.271573 82.867868 
L 79.496023 81.75037 
L 79.720473 79.997245 
L 80.169372 86.111362 
L 80.393822 79.520128 
L 80.618271 92.176027 
L 80.842721 89.282775 
L 81.067171 81.911983 
L 81.291621 84.849112 
L 81.74052 86.000242 
L 81.96497 86.832396 
L 82.189419 97.147207 
L 82.413869 80.023799 
L 82.638319 92.006047 
L 82.862768 78.387479 
L 83.311668 86.948256 
L 83.536117 81.729358 
L 83.760567 90.83262 
L 83.985017 83.609921 
L 84.209467 82.689759 
L 84.433916 101.436891 
L 84.882816 78.180426 
L 85.107265 88.481773 
L 85.331715 83.970983 
L 85.556165 83.121994 
L 85.780614 84.822549 
L 86.005064 87.666436 
L 86.229514 82.77307 
L 86.453964 85.247762 
L 86.678413 93.993475 
L 86.902863 84.760526 
L 87.127313 91.60887 
L 87.351762 83.774202 
L 87.576212 92.307793 
L 87.800662 80.810356 
L 88.025111 85.636106 
L 88.249561 86.028468 
L 88.474011 91.465067 
L 88.69846 87.142068 
L 88.92291 91.760315 
L 89.14736 85.917775 
L 89.37181 90.94948 
L 89.596259 86.757883 
L 89.820709 100.156516 
L 90.045159 84.915632 
L 90.494058 90.729566 
L 90.718508 82.922603 
L 90.942957 84.244222 
L 91.391857 84.122138 
L 91.616307 90.568718 
L 91.840756 93.357717 
L 92.065206 86.26902 
L 92.514105 94.041624 
L 92.738555 92.105778 
L 92.963005 88.368539 
L 93.187454 98.583711 
L 93.411904 88.647466 
L 93.636354 89.857365 
L 93.860804 83.047071 
L 94.085253 89.824911 
L 94.309703 89.09446 
L 94.534153 92.856531 
L 94.758602 85.887238 
L 94.983052 89.379124 
L 95.207502 89.986505 
L 95.431951 83.239824 
L 95.656401 88.507805 
L 95.880851 104.075679 
L 96.1053 86.920203 
L 96.32975 91.36198 
L 96.5542 88.982594 
L 96.77865 89.791485 
L 97.003099 81.266373 
L 97.227549 96.025917 
L 97.451999 84.289959 
L 97.676448 84.48653 
L 97.900898 101.574885 
L 98.125348 104.692026 
L 98.349797 97.745803 
L 98.798697 90.964182 
L 99.023147 92.730013 
L 99.247596 90.38537 
L 99.472046 85.76386 
L 99.696496 95.623793 
L 99.920945 87.798587 
L 100.145395 93.299787 
L 100.369845 86.305155 
L 100.594294 101.808159 
L 100.818744 91.988593 
L 101.043194 94.052891 
L 101.492093 83.169727 
L 101.940993 90.126106 
L 102.165442 92.814723 
L 102.389892 93.549872 
L 102.614342 88.868027 
L 102.838791 101.795695 
L 103.063241 90.751325 
L 103.287691 87.779543 
L 103.51214 99.598481 
L 103.73659 91.848679 
L 103.96104 113.059833 
L 104.18549 96.309025 
L 104.409939 88.362497 
L 104.634389 105.97489 
L 104.858839 99.617412 
L 105.083288 105.650592 
L 105.307738 94.932665 
L 105.532188 96.165594 
L 105.756637 88.397129 
L 105.981087 91.93588 
L 106.205537 93.155518 
L 106.429986 95.842524 
L 106.654436 87.269024 
L 106.878886 101.641237 
L 107.103336 104.853746 
L 107.327785 94.551877 
L 107.552235 91.768408 
L 107.776685 95.840642 
L 108.001134 87.021305 
L 108.225584 85.873856 
L 108.450034 97.74495 
L 108.674483 91.228069 
L 109.123383 95.416752 
L 109.347833 92.509985 
L 109.572282 88.13835 
L 109.796732 94.688174 
L 110.021182 94.254976 
L 110.245631 92.789742 
L 110.470081 102.615217 
L 110.694531 104.057503 
L 110.91898 93.664169 
L 111.14343 106.852376 
L 111.592329 86.141188 
L 111.816779 99.863164 
L 112.041229 95.232934 
L 112.265679 104.53408 
L 112.714578 94.543213 
L 112.939028 95.089253 
L 113.163477 107.56026 
L 113.387927 90.502581 
L 113.612377 96.641167 
L 113.836826 98.586184 
L 114.061276 93.768661 
L 114.285726 96.018356 
L 114.510176 89.59055 
L 114.734625 91.461981 
L 114.959075 96.831063 
L 115.183525 88.283888 
L 115.407974 91.025719 
L 115.632424 104.159634 
L 115.856874 95.711955 
L 116.081323 92.255245 
L 116.305773 106.488038 
L 116.530223 94.992014 
L 116.754673 93.706928 
L 116.979122 91.536945 
L 117.203572 110.52606 
L 117.428022 93.085302 
L 117.876921 97.636796 
L 118.101371 92.238802 
L 118.32582 93.960512 
L 118.55027 92.54232 
L 118.77472 96.597379 
L 118.999169 90.836195 
L 119.223619 97.118532 
L 119.448069 95.569513 
L 119.672519 105.292146 
L 119.896968 95.89365 
L 120.121418 91.634695 
L 120.345868 99.76754 
L 120.570317 101.358243 
L 120.794767 99.015679 
L 121.019217 91.538447 
L 121.243666 89.598702 
L 121.468116 96.119009 
L 121.692566 98.749993 
L 121.917016 91.95838 
L 122.141465 104.497731 
L 122.365915 91.645664 
L 122.590365 95.609958 
L 122.814814 96.155579 
L 123.039264 99.163788 
L 123.263714 97.006286 
L 123.488163 99.272777 
L 123.712613 98.931978 
L 123.937063 99.817669 
L 124.161512 107.268669 
L 124.385962 105.376436 
L 124.610412 105.322496 
L 125.059311 88.727224 
L 125.283761 95.384798 
L 125.508211 96.509652 
L 125.73266 96.617962 
L 125.95711 102.203807 
L 126.18156 94.605823 
L 126.406009 99.908226 
L 126.630459 116.955659 
L 126.854909 104.302299 
L 127.303808 95.791398 
L 127.528258 102.841086 
L 127.752708 97.702114 
L 127.977157 95.294856 
L 128.426057 111.214517 
L 128.650506 94.711946 
L 128.874956 99.551862 
L 129.099406 107.151809 
L 129.323855 105.99366 
L 129.772755 102.498104 
L 129.997205 93.437495 
L 130.221654 98.240838 
L 130.446104 94.655097 
L 130.670554 99.926242 
L 130.895003 90.750847 
L 131.343903 105.276208 
L 131.568352 106.52305 
L 131.792802 104.665922 
L 132.017252 95.701096 
L 132.241702 105.433883 
L 132.466151 94.129986 
L 132.690601 97.003577 
L 132.915051 96.985216 
L 133.1395 108.108667 
L 133.36395 97.782578 
L 133.5884 101.028463 
L 134.037299 94.499146 
L 134.486198 108.019594 
L 134.710648 95.191296 
L 134.935098 109.095236 
L 135.159548 92.772968 
L 135.383997 96.935434 
L 135.608447 97.187728 
L 135.832897 94.276569 
L 136.057346 110.286017 
L 136.281796 101.194969 
L 136.506246 103.495079 
L 136.730695 98.195957 
L 136.955145 97.736734 
L 137.179595 108.914659 
L 137.404045 95.090412 
L 137.628494 108.389725 
L 138.077394 93.583306 
L 138.301843 103.779711 
L 138.526293 98.401466 
L 138.750743 107.513015 
L 138.975192 94.071368 
L 139.199642 100.000491 
L 139.424092 111.297681 
L 139.648542 100.445115 
L 139.872991 95.461276 
L 140.097441 101.248306 
L 140.321891 96.269682 
L 140.54634 100.861275 
L 140.77079 98.312731 
L 140.99524 98.084087 
L 141.219689 98.053445 
L 141.444139 100.081308 
L 141.668589 97.598139 
L 141.893038 110.177647 
L 142.117488 96.135958 
L 142.566388 111.993682 
L 143.015287 106.927085 
L 143.239737 101.300711 
L 143.464186 100.773135 
L 143.688636 103.156605 
L 143.913086 97.26675 
L 144.137535 97.683684 
L 144.361985 102.902281 
L 144.586435 96.579115 
L 144.810885 98.57121 
L 145.035334 98.078235 
L 145.259784 99.860179 
L 145.484234 95.956363 
L 145.933133 101.860868 
L 146.157583 110.782964 
L 146.382032 102.726488 
L 146.606482 101.325237 
L 146.830932 102.03059 
L 147.279831 109.92405 
L 147.504281 103.307661 
L 147.728731 113.596666 
L 147.95318 96.663078 
L 148.17763 97.034494 
L 148.40208 97.881507 
L 148.850979 107.207472 
L 149.299878 105.777713 
L 149.524328 99.225469 
L 149.748778 99.012983 
L 149.973228 99.381282 
L 150.197677 99.012422 
L 150.422127 96.116414 
L 150.871026 113.353565 
L 151.095476 97.386509 
L 151.319926 99.332403 
L 151.544375 98.17008 
L 151.768825 105.56391 
L 151.993275 107.128475 
L 152.217724 98.112359 
L 152.442174 101.452202 
L 152.666624 97.919998 
L 152.891074 99.78464 
L 153.115523 103.705698 
L 153.339973 100.728318 
L 153.564423 108.762154 
L 153.788872 99.496032 
L 154.013322 101.470175 
L 154.237772 99.01884 
L 154.462221 100.73027 
L 154.686671 111.568481 
L 154.911121 106.43705 
L 155.135571 104.343211 
L 155.36002 107.024698 
L 155.58447 111.489891 
L 155.80892 100.243225 
L 156.033369 106.114513 
L 156.257819 102.718409 
L 156.482269 102.56745 
L 156.706718 104.699176 
L 156.931168 111.408121 
L 157.155618 104.511414 
L 157.380067 113.903314 
L 157.828967 99.931781 
L 158.277866 110.578233 
L 158.502316 107.294164 
L 158.951215 99.038226 
L 159.400115 104.985688 
L 159.624564 98.14854 
L 159.849014 109.062279 
L 160.073464 109.236078 
L 160.297914 106.356319 
L 160.522363 106.821373 
L 160.746813 97.959436 
L 161.195712 106.48896 
L 161.420162 101.774874 
L 161.644612 104.214789 
L 161.869061 105.071121 
L 162.093511 102.361661 
L 162.317961 101.006819 
L 162.76686 109.398396 
L 162.99131 98.23548 
L 163.21576 114.985306 
L 163.440209 113.998218 
L 163.889109 101.832364 
L 164.113558 102.947854 
L 164.338008 110.229738 
L 164.786907 101.263124 
L 165.011357 102.617382 
L 165.235807 111.235549 
L 165.684706 100.390762 
L 165.909156 105.033291 
L 166.133606 104.842191 
L 166.358055 106.158762 
L 166.582505 101.267211 
L 166.806955 108.711646 
L 167.031404 110.296467 
L 167.255854 113.567273 
L 167.704754 104.856828 
L 167.929203 104.812497 
L 168.378103 114.112528 
L 168.827002 99.025211 
L 169.051452 106.894054 
L 169.275901 110.32285 
L 169.500351 102.832199 
L 169.724801 99.51997 
L 169.94925 101.847497 
L 170.1737 101.913966 
L 170.39815 112.115946 
L 170.6226 111.589874 
L 170.847049 114.32774 
L 171.071499 114.541892 
L 171.295949 101.980879 
L 171.520398 108.734785 
L 171.969298 97.385531 
L 172.418197 112.499887 
L 172.642647 106.4489 
L 172.867097 107.294483 
L 173.091546 115.42055 
L 173.315996 102.581571 
L 173.764895 99.700739 
L 173.989345 110.917669 
L 174.438244 103.298152 
L 174.662694 105.028641 
L 174.887144 104.38659 
L 175.111593 106.045613 
L 175.336043 105.542226 
L 175.560493 103.517949 
L 175.784943 105.493541 
L 176.009392 99.135889 
L 176.233842 112.090775 
L 176.458292 103.027695 
L 176.682741 109.32648 
L 176.907191 107.072925 
L 177.131641 102.894176 
L 177.35609 105.940247 
L 177.58054 114.337596 
L 177.80499 107.065638 
L 178.02944 108.362371 
L 178.253889 118.661469 
L 178.478339 113.811213 
L 178.702789 103.070943 
L 178.927238 118.465306 
L 179.151688 108.510668 
L 179.376138 115.592356 
L 179.600587 107.191975 
L 179.825037 107.164833 
L 180.049487 101.33226 
L 180.273936 103.889206 
L 180.498386 109.369794 
L 180.722836 104.164932 
L 180.947286 104.787923 
L 181.171735 103.396154 
L 181.396185 107.393302 
L 181.620635 99.517626 
L 181.845084 108.4138 
L 182.069534 101.773582 
L 182.293984 106.834653 
L 182.518433 108.331495 
L 182.742883 99.193386 
L 182.967333 108.213913 
L 183.191783 102.396424 
L 183.640682 116.649555 
L 183.865132 115.730696 
L 184.314031 103.929318 
L 184.538481 120.169027 
L 184.76293 105.935321 
L 184.98738 106.227092 
L 185.21183 98.433877 
L 185.43628 110.929395 
L 185.660729 110.115633 
L 185.885179 108.351006 
L 186.109629 105.202872 
L 186.334078 109.461529 
L 186.558528 100.518141 
L 187.007427 110.984677 
L 187.231877 102.074465 
L 187.456327 105.881674 
L 187.680776 107.094598 
L 187.905226 120.394428 
L 188.354126 106.220506 
L 188.803025 110.451376 
L 189.027475 104.954997 
L 189.251924 103.15651 
L 189.476374 102.964614 
L 189.700824 102.542309 
L 189.925273 124.301397 
L 190.149723 104.078092 
L 190.374173 105.27092 
L 190.598623 104.870066 
L 190.823072 104.952896 
L 191.047522 106.064018 
L 191.496421 103.522178 
L 191.720871 104.244985 
L 192.16977 110.437037 
L 192.39422 117.626721 
L 192.61867 105.622533 
L 192.843119 113.751466 
L 193.067569 113.187185 
L 193.292019 103.063188 
L 193.516469 115.043668 
L 193.740918 105.891472 
L 193.965368 106.479331 
L 194.189818 112.242717 
L 194.414267 109.208434 
L 194.638717 109.861244 
L 194.863167 105.252089 
L 195.087616 109.468033 
L 195.312066 104.447724 
L 195.536516 105.978129 
L 195.760966 109.802925 
L 195.985415 107.884292 
L 195.985415 107.884292 
" clip-path="url(#p66a6459322)" style="fill: none; stroke: #1e90ff; stroke-width: 0.8; stroke-linecap: square"/>
   </g>
   <g id="line2d_10">
    <path d="M 61.764497 72.408547 
L 62.213396 68.526808 
L 62.437846 69.183868 
L 62.662296 71.357636 
L 62.886745 71.40539 
L 63.111195 65.810881 
L 63.335645 77.780412 
L 63.560095 68.866557 
L 63.784544 73.458232 
L 64.008994 66.889922 
L 64.233444 72.917968 
L 64.457893 68.085765 
L 64.682343 68.979588 
L 64.906793 77.927329 
L 65.131242 69.498465 
L 65.355692 73.962646 
L 65.580142 69.874174 
L 65.804591 73.687262 
L 66.029041 81.153494 
L 66.253491 67.806956 
L 66.477941 74.261864 
L 66.70239 75.716816 
L 66.92684 68.754623 
L 67.15129 79.133474 
L 67.375739 79.315968 
L 67.600189 91.504231 
L 67.824639 74.869751 
L 68.049088 79.058253 
L 68.497988 74.469609 
L 68.722438 76.407882 
L 68.946887 71.214814 
L 69.395787 77.428494 
L 69.620236 71.132505 
L 69.844686 79.743943 
L 70.069136 78.728183 
L 70.293585 85.905915 
L 70.518035 73.359981 
L 70.742485 90.26778 
L 70.966935 70.263804 
L 71.191384 71.233823 
L 71.415834 71.698596 
L 71.640284 56.662743 
L 71.864733 75.59424 
L 72.089183 81.95995 
L 72.313633 82.235296 
L 72.538082 81.866396 
L 72.762532 74.410672 
L 72.986982 75.619649 
L 73.211431 85.702629 
L 73.435881 80.253565 
L 73.660331 78.577664 
L 73.884781 79.310397 
L 74.10923 79.504193 
L 74.33368 75.368213 
L 74.55813 80.382932 
L 74.782579 81.385258 
L 75.007029 74.735672 
L 75.231479 85.511598 
L 75.455928 81.961775 
L 75.904828 84.783859 
L 76.353727 72.823275 
L 76.578177 92.363225 
L 76.802627 79.073856 
L 77.027076 80.321651 
L 77.251526 78.757191 
L 77.475976 76.174925 
L 77.700425 81.325088 
L 77.924875 81.172158 
L 78.149325 77.896709 
L 78.373774 85.149419 
L 78.822674 79.137659 
L 79.047124 79.609815 
L 79.271573 84.39498 
L 79.496023 83.006214 
L 79.720473 80.43621 
L 79.944922 82.707081 
L 80.169372 86.864647 
L 80.393822 79.505203 
L 80.618271 94.801834 
L 80.842721 90.091924 
L 81.067171 81.866943 
L 81.51607 86.258675 
L 81.74052 85.127733 
L 81.96497 89.465264 
L 82.189419 108.571744 
L 82.413869 80.186596 
L 82.638319 91.307524 
L 82.862768 79.341713 
L 83.311668 88.005067 
L 83.536117 81.923345 
L 83.760567 87.898511 
L 83.985017 84.658351 
L 84.209467 83.992578 
L 84.433916 95.268316 
L 84.882816 79.475984 
L 85.107265 89.562137 
L 85.331715 83.7059 
L 85.556165 83.534449 
L 85.780614 85.799037 
L 86.005064 89.424484 
L 86.229514 83.626834 
L 86.453964 87.303505 
L 86.678413 96.566583 
L 86.902863 86.664304 
L 87.127313 93.952438 
L 87.351762 84.157431 
L 87.576212 95.161331 
L 87.800662 81.934487 
L 88.025111 88.125626 
L 88.249561 86.268909 
L 88.474011 93.308457 
L 88.69846 88.565106 
L 88.92291 91.125544 
L 89.14736 86.764141 
L 89.37181 89.963209 
L 89.596259 87.412185 
L 89.820709 100.36831 
L 90.045159 88.219725 
L 90.269608 87.122099 
L 90.494058 93.096682 
L 90.718508 84.148537 
L 90.942957 85.167716 
L 91.167407 85.385206 
L 91.391857 87.107106 
L 91.616307 91.444614 
L 91.840756 91.716182 
L 92.065206 88.45921 
L 92.514105 96.526611 
L 92.738555 92.60731 
L 92.963005 90.876481 
L 93.187454 94.746362 
L 93.411904 89.694649 
L 93.636354 89.88118 
L 93.860804 83.895678 
L 94.085253 87.979198 
L 94.309703 88.755832 
L 94.534153 92.763802 
L 94.983052 88.079126 
L 95.207502 93.848642 
L 95.431951 83.691602 
L 95.656401 88.724345 
L 95.880851 102.893114 
L 96.1053 91.237487 
L 96.32975 96.997543 
L 96.5542 89.627403 
L 96.77865 90.956408 
L 97.003099 83.298349 
L 97.227549 104.436341 
L 97.451999 87.076517 
L 97.676448 87.018715 
L 98.125348 106.534789 
L 98.798697 89.936119 
L 99.023147 94.761793 
L 99.247596 94.645737 
L 99.472046 88.932081 
L 99.696496 92.61052 
L 99.920945 93.403092 
L 100.145395 92.834467 
L 100.369845 89.919858 
L 100.594294 124.472727 
L 100.818744 93.803108 
L 101.267643 91.619588 
L 101.492093 85.475475 
L 101.716543 89.99778 
L 101.940993 89.160446 
L 102.389892 99.05359 
L 102.614342 93.206398 
L 102.838791 102.420289 
L 103.063241 95.649565 
L 103.287691 93.50974 
L 103.51214 106.235565 
L 103.73659 92.004716 
L 103.96104 105.987899 
L 104.409939 88.172847 
L 104.634389 99.880406 
L 104.858839 105.624645 
L 105.083288 118.831925 
L 105.307738 100.668919 
L 105.532188 102.564178 
L 105.756637 90.723068 
L 105.981087 92.168297 
L 106.429986 106.357645 
L 106.654436 89.620554 
L 106.878886 103.751809 
L 107.103336 99.086385 
L 107.327785 100.341792 
L 107.552235 87.362463 
L 107.776685 94.582324 
L 108.001134 95.844236 
L 108.225584 89.592137 
L 108.450034 109.055835 
L 108.674483 95.721257 
L 108.898933 95.356828 
L 109.123383 98.036748 
L 109.347833 94.47853 
L 109.572282 96.205045 
L 110.021182 103.203673 
L 110.245631 98.425667 
L 110.470081 97.716595 
L 110.694531 115.586059 
L 110.91898 100.833256 
L 111.14343 97.765334 
L 111.36788 101.605444 
L 111.592329 91.391436 
L 112.265679 113.828211 
L 112.490128 99.040388 
L 112.939028 96.545103 
L 113.163477 115.839849 
L 113.387927 90.063074 
L 113.612377 100.148657 
L 113.836826 99.281726 
L 114.061276 93.60901 
L 114.285726 94.558273 
L 114.510176 94.10801 
L 114.734625 96.543275 
L 114.959075 96.40657 
L 115.183525 92.586745 
L 115.407974 104.426519 
L 115.632424 102.23642 
L 115.856874 94.994604 
L 116.081323 103.422229 
L 116.305773 97.540952 
L 116.530223 101.12982 
L 116.754673 92.8027 
L 117.203572 100.807212 
L 117.428022 95.992418 
L 117.652471 76.436316 
L 117.876921 97.349344 
L 118.101371 96.860223 
L 118.55027 92.612811 
L 118.77472 101.628291 
L 118.999169 92.361958 
L 119.223619 98.216878 
L 119.448069 98.113647 
L 119.672519 110.638189 
L 119.896968 99.163557 
L 120.121418 96.931319 
L 120.345868 96.22308 
L 120.570317 93.779058 
L 120.794767 98.660221 
L 121.019217 91.842841 
L 121.468116 101.061194 
L 121.692566 94.809042 
L 121.917016 98.905747 
L 122.141465 98.618523 
L 122.365915 93.225022 
L 122.590365 113.180098 
L 122.814814 102.197743 
L 123.039264 113.878733 
L 123.263714 102.592881 
L 123.488163 105.496612 
L 123.712613 96.19147 
L 123.937063 97.164039 
L 124.161512 101.824044 
L 124.385962 99.710866 
L 124.610412 109.00012 
L 125.059311 97.048485 
L 125.283761 100.921703 
L 125.508211 97.423008 
L 125.73266 108.126237 
L 125.95711 104.546393 
L 126.18156 106.138731 
L 126.406009 95.050409 
L 126.630459 99.912395 
L 126.854909 110.738907 
L 127.079359 101.322918 
L 127.528258 94.856142 
L 127.752708 82.401842 
L 127.977157 100.056509 
L 128.426057 113.416337 
L 128.650506 95.753006 
L 129.099406 98.325154 
L 129.323855 97.481656 
L 129.548305 99.734542 
L 129.772755 99.125418 
L 129.997205 99.973699 
L 130.221654 108.845133 
L 130.446104 98.21263 
L 130.670554 104.20824 
L 130.895003 95.589185 
L 131.119453 95.000967 
L 131.343903 96.922353 
L 131.568352 103.404748 
L 131.792802 98.782946 
L 132.017252 100.683337 
L 132.241702 97.931533 
L 132.466151 92.639881 
L 132.690601 101.121821 
L 132.915051 100.019478 
L 133.1395 102.15224 
L 133.36395 93.759383 
L 133.5884 97.7589 
L 133.812849 93.402128 
L 134.261749 100.354223 
L 134.486198 99.795463 
L 134.935098 93.860402 
L 135.159548 94.839514 
L 135.383997 96.377312 
L 135.608447 92.710068 
L 135.832897 95.057874 
L 136.057346 99.92898 
L 136.281796 95.722605 
L 136.506246 97.964539 
L 136.955145 108.703328 
L 137.179595 96.749064 
L 137.404045 111.099715 
L 137.628494 95.043382 
L 137.852944 96.162865 
L 138.077394 97.951029 
L 138.301843 102.902753 
L 138.526293 99.626812 
L 138.750743 100.150129 
L 138.975192 99.682383 
L 139.199642 105.18864 
L 139.424092 97.917229 
L 139.648542 100.362052 
L 139.872991 95.967309 
L 140.097441 105.239619 
L 140.321891 95.642946 
L 140.77079 104.003904 
L 140.99524 97.847017 
L 141.219689 103.721571 
L 141.444139 101.902368 
L 141.668589 119.600146 
L 141.893038 97.620533 
L 142.117488 97.608038 
L 142.341938 108.824874 
L 142.566388 99.878335 
L 142.790837 101.52067 
L 143.015287 101.090237 
L 143.239737 99.58396 
L 143.688636 106.333988 
L 144.137535 95.850923 
L 144.361985 114.086849 
L 144.586435 101.919145 
L 144.810885 102.671067 
L 145.035334 112.898444 
L 145.259784 110.349251 
L 145.484234 104.433062 
L 145.708683 112.055041 
L 145.933133 100.080953 
L 146.157583 99.361761 
L 146.382032 104.672472 
L 146.606482 99.368237 
L 146.830932 101.055929 
L 147.055381 106.543372 
L 147.279831 98.853892 
L 147.504281 98.244603 
L 147.728731 102.115936 
L 147.95318 98.796929 
L 148.17763 98.957474 
L 148.40208 104.02235 
L 148.626529 103.708106 
L 148.850979 99.742259 
L 149.075429 105.040513 
L 149.299878 98.686785 
L 149.524328 110.035612 
L 149.748778 100.03719 
L 150.197677 109.317273 
L 150.422127 98.303988 
L 150.646577 105.577288 
L 150.871026 101.630478 
L 151.095476 111.17314 
L 151.319926 100.23994 
L 151.544375 103.631691 
L 151.768825 104.305172 
L 151.993275 103.153177 
L 152.217724 99.809907 
L 152.666624 104.420021 
L 152.891074 97.492403 
L 153.115523 102.414651 
L 153.339973 104.338921 
L 153.564423 103.262328 
L 153.788872 97.371991 
L 154.013322 101.085639 
L 154.237772 101.280009 
L 154.462221 101.904496 
L 154.911121 100.287594 
L 155.135571 102.341136 
L 155.36002 103.164373 
L 155.58447 98.794781 
L 155.80892 115.681383 
L 156.257819 96.624385 
L 156.482269 95.550905 
L 156.706718 113.270058 
L 156.931168 111.618644 
L 157.155618 98.878099 
L 157.380067 98.685363 
L 157.828967 92.465923 
L 158.053417 96.837039 
L 158.277866 96.751872 
L 158.502316 109.564172 
L 158.951215 94.046929 
L 159.175665 103.475673 
L 159.400115 100.218783 
L 159.624564 103.456089 
L 159.849014 104.177503 
L 160.073464 104.214715 
L 160.297914 105.157988 
L 160.522363 97.329456 
L 160.746813 109.850251 
L 160.971263 99.984916 
L 161.195712 104.850327 
L 161.420162 103.347658 
L 161.644612 97.548573 
L 161.869061 102.864497 
L 162.317961 99.045813 
L 162.542411 101.224892 
L 162.76686 99.435276 
L 162.99131 102.206841 
L 163.21576 100.989739 
L 163.440209 100.927442 
L 163.664659 83.704309 
L 163.889109 96.184881 
L 164.113558 95.581714 
L 164.338008 102.388972 
L 164.562458 102.98527 
L 164.786907 106.819929 
L 165.235807 100.644805 
L 165.460257 98.811234 
L 165.684706 98.709919 
L 165.909156 104.865606 
L 166.133606 107.221138 
L 166.358055 100.109991 
L 166.582505 104.761714 
L 166.806955 99.347604 
L 167.031404 101.884062 
L 167.480304 100.16576 
L 167.929203 101.833432 
L 168.153653 104.529939 
L 168.378103 103.633831 
L 168.602552 105.930688 
L 168.827002 106.418659 
L 169.051452 100.140031 
L 169.275901 111.828501 
L 169.724801 98.806817 
L 169.94925 101.527205 
L 170.39815 97.022711 
L 170.6226 100.258769 
L 170.847049 101.773825 
L 171.071499 101.99473 
L 171.295949 106.357778 
L 171.520398 100.112153 
L 171.744848 112.928244 
L 171.969298 105.616392 
L 172.193747 109.573083 
L 172.418197 105.125152 
L 172.642647 106.401679 
L 172.867097 97.780455 
L 173.091546 98.033755 
L 173.315996 103.701422 
L 173.764895 91.647802 
L 174.213795 117.164641 
L 174.662694 102.379711 
L 174.887144 121.792897 
L 175.111593 101.599696 
L 175.336043 102.226473 
L 175.560493 112.192931 
L 175.784943 101.787815 
L 176.009392 100.640205 
L 176.233842 101.179833 
L 176.458292 102.830598 
L 176.682741 102.288296 
L 176.907191 120.270626 
L 177.131641 97.730481 
L 177.58054 106.622431 
L 177.80499 107.853961 
L 178.02944 101.818163 
L 178.253889 103.24561 
L 178.478339 100.021818 
L 178.702789 101.026019 
L 178.927238 105.373997 
L 179.151688 100.351847 
L 179.376138 105.419836 
L 179.600587 104.141776 
L 179.825037 107.633867 
L 180.049487 102.431421 
L 180.273936 110.12406 
L 180.498386 111.779526 
L 180.722836 105.131567 
L 180.947286 110.451713 
L 181.171735 99.042471 
L 181.396185 107.170072 
L 181.620635 104.057385 
L 181.845084 103.580229 
L 182.069534 112.528923 
L 182.293984 103.509941 
L 182.518433 102.887274 
L 182.742883 97.576673 
L 182.967333 101.255764 
L 183.191783 97.046428 
L 183.640682 103.616173 
L 183.865132 87.30071 
L 184.089581 107.318929 
L 184.314031 111.089217 
L 184.538481 102.435817 
L 184.76293 105.088748 
L 184.98738 97.955293 
L 185.21183 99.748075 
L 185.43628 111.053133 
L 185.660729 102.481992 
L 185.885179 103.230361 
L 186.109629 101.315279 
L 186.334078 105.743126 
L 186.558528 104.653232 
L 187.007427 97.949946 
L 187.231877 99.455383 
L 187.456327 107.732078 
L 187.680776 102.518383 
L 187.905226 101.085489 
L 188.129676 105.305311 
L 188.354126 105.235639 
L 188.578575 98.507567 
L 188.803025 106.490888 
L 189.027475 120.170018 
L 189.251924 101.010319 
L 189.476374 99.661438 
L 189.700824 100.143237 
L 189.925273 99.82624 
L 190.149723 100.664793 
L 190.374173 106.408201 
L 190.598623 96.599612 
L 190.823072 107.594508 
L 191.271972 99.630978 
L 191.496421 107.389029 
L 191.720871 107.178144 
L 191.945321 100.578724 
L 192.16977 103.715235 
L 192.39422 97.833807 
L 192.61867 103.782706 
L 192.843119 105.989604 
L 193.067569 105.108051 
L 193.292019 101.721967 
L 193.516469 102.846085 
L 193.740918 102.97124 
L 193.965368 97.789443 
L 194.189818 99.910334 
L 194.414267 107.887524 
L 194.638717 108.089603 
L 194.863167 109.229687 
L 195.087616 109.008298 
L 195.312066 105.836019 
L 195.536516 109.110521 
L 195.760966 105.375306 
L 195.985415 105.718312 
L 195.985415 105.718312 
" clip-path="url(#p66a6459322)" style="fill: none; stroke: #ff0000; stroke-width: 0.8; stroke-linecap: square"/>
   </g>
   <g id="patch_3">
    <path d="M 59.52 129.12 
L 59.52 26.88 
" style="fill: none; stroke: #000000; stroke-width: 0.8; stroke-linejoin: miter; stroke-linecap: square"/>
   </g>
   <g id="patch_4">
    <path d="M 198.454362 129.12 
L 198.454362 26.88 
" style="fill: none; stroke: #000000; stroke-width: 0.8; stroke-linejoin: miter; stroke-linecap: square"/>
   </g>
   <g id="patch_5">
    <path d="M 59.52 129.12 
L 198.454362 129.12 
" style="fill: none; stroke: #000000; stroke-width: 0.8; stroke-linejoin: miter; stroke-linecap: square"/>
   </g>
   <g id="patch_6">
    <path d="M 59.52 26.88 
L 198.454362 26.88 
" style="fill: none; stroke: #000000; stroke-width: 0.8; stroke-linejoin: miter; stroke-linecap: square"/>
   </g>
   <g id="text_10">
    <!-- Frequency Domain Plot -->
    <g transform="translate(59.587806 20.88) scale(0.12 -0.12)">
     <defs>
      <path id="DejaVuSans-44" d="M 1259 4147 
L 1259 519 
L 2022 519 
Q 2988 519 3436 956 
Q 3884 1394 3884 2338 
Q 3884 3275 3436 3711 
Q 2988 4147 2022 4147 
L 1259 4147 
z
M 628 4666 
L 1925 4666 
Q 3281 4666 3915 4102 
Q 4550 3538 4550 2338 
Q 4550 1131 3912 565 
Q 3275 0 1925 0 
L 628 0 
L 628 4666 
z
" transform="scale(0.015625)"/>
      <path id="DejaVuSans-6d" d="M 3328 2828 
Q 3544 3216 3844 3400 
Q 4144 3584 4550 3584 
Q 5097 3584 5394 3201 
Q 5691 2819 5691 2113 
L 5691 0 
L 5113 0 
L 5113 2094 
Q 5113 2597 4934 2840 
Q 4756 3084 4391 3084 
Q 3944 3084 3684 2787 
Q 3425 2491 3425 1978 
L 3425 0 
L 2847 0 
L 2847 2094 
Q 2847 2600 2669 2842 
Q 2491 3084 2119 3084 
Q 1678 3084 1418 2786 
Q 1159 2488 1159 1978 
L 1159 0 
L 581 0 
L 581 3500 
L 1159 3500 
L 1159 2956 
Q 1356 3278 1631 3431 
Q 1906 3584 2284 3584 
Q 2666 3584 2933 3390 
Q 3200 3197 3328 2828 
z
" transform="scale(0.015625)"/>
      <path id="DejaVuSans-61" d="M 2194 1759 
Q 1497 1759 1228 1600 
Q 959 1441 959 1056 
Q 959 750 1161 570 
Q 1363 391 1709 391 
Q 2188 391 2477 730 
Q 2766 1069 2766 1631 
L 2766 1759 
L 2194 1759 
z
M 3341 1997 
L 3341 0 
L 2766 0 
L 2766 531 
Q 2569 213 2275 61 
Q 1981 -91 1556 -91 
Q 1019 -91 701 211 
Q 384 513 384 1019 
Q 384 1609 779 1909 
Q 1175 2209 1959 2209 
L 2766 2209 
L 2766 2266 
Q 2766 2663 2505 2880 
Q 2244 3097 1772 3097 
Q 1472 3097 1187 3025 
Q 903 2953 641 2809 
L 641 3341 
Q 956 3463 1253 3523 
Q 1550 3584 1831 3584 
Q 2591 3584 2966 3190 
Q 3341 2797 3341 1997 
z
" transform="scale(0.015625)"/>
      <path id="DejaVuSans-69" d="M 603 3500 
L 1178 3500 
L 1178 0 
L 603 0 
L 603 3500 
z
M 603 4863 
L 1178 4863 
L 1178 4134 
L 603 4134 
L 603 4863 
z
" transform="scale(0.015625)"/>
      <path id="DejaVuSans-50" d="M 1259 4147 
L 1259 2394 
L 2053 2394 
Q 2494 2394 2734 2622 
Q 2975 2850 2975 3272 
Q 2975 3691 2734 3919 
Q 2494 4147 2053 4147 
L 1259 4147 
z
M 628 4666 
L 2053 4666 
Q 2838 4666 3239 4311 
Q 3641 3956 3641 3272 
Q 3641 2581 3239 2228 
Q 2838 1875 2053 1875 
L 1259 1875 
L 1259 0 
L 628 0 
L 628 4666 
z
" transform="scale(0.015625)"/>
      <path id="DejaVuSans-6c" d="M 603 4863 
L 1178 4863 
L 1178 0 
L 603 0 
L 603 4863 
z
" transform="scale(0.015625)"/>
      <path id="DejaVuSans-74" d="M 1172 4494 
L 1172 3500 
L 2356 3500 
L 2356 3053 
L 1172 3053 
L 1172 1153 
Q 1172 725 1289 603 
Q 1406 481 1766 481 
L 2356 481 
L 2356 0 
L 1766 0 
Q 1100 0 847 248 
Q 594 497 594 1153 
L 594 3053 
L 172 3053 
L 172 3500 
L 594 3500 
L 594 4494 
L 1172 4494 
z
" transform="scale(0.015625)"/>
     </defs>
     <use xlink:href="#DejaVuSans-46"/>
     <use xlink:href="#DejaVuSans-72" x="50.269531"/>
     <use xlink:href="#DejaVuSans-65" x="89.132812"/>
     <use xlink:href="#DejaVuSans-71" x="150.65625"/>
     <use xlink:href="#DejaVuSans-75" x="214.132812"/>
     <use xlink:href="#DejaVuSans-65" x="277.511719"/>
     <use xlink:href="#DejaVuSans-6e" x="339.035156"/>
     <use xlink:href="#DejaVuSans-63" x="402.414062"/>
     <use xlink:href="#DejaVuSans-79" x="457.394531"/>
     <use xlink:href="#DejaVuSans-20" x="516.574219"/>
     <use xlink:href="#DejaVuSans-44" x="548.361328"/>
     <use xlink:href="#DejaVuSans-6f" x="625.363281"/>
     <use xlink:href="#DejaVuSans-6d" x="686.544922"/>
     <use xlink:href="#DejaVuSans-61" x="783.957031"/>
     <use xlink:href="#DejaVuSans-69" x="845.236328"/>
     <use xlink:href="#DejaVuSans-6e" x="873.019531"/>
     <use xlink:href="#DejaVuSans-20" x="936.398438"/>
     <use xlink:href="#DejaVuSans-50" x="968.185547"/>
     <use xlink:href="#DejaVuSans-6c" x="1028.488281"/>
     <use xlink:href="#DejaVuSans-6f" x="1056.271484"/>
     <use xlink:href="#DejaVuSans-74" x="1117.453125"/>
    </g>
   </g>
   <g id="legend_1">
    <g id="patch_7">
     <path d="M 19.939691 158.292 
L 50.807816 158.292 
Q 51.407816 158.292 51.407816 157.692 
L 51.407816 144.781688 
Q 51.407816 144.181688 50.807816 144.181688 
L 19.939691 144.181688 
Q 19.339691 144.181688 19.339691 144.781688 
L 19.339691 157.692 
Q 19.339691 158.292 19.939691 158.292 
z
" style="fill: #ffffff; opacity: 0.8; stroke: #cccccc; stroke-linejoin: miter"/>
    </g>
    <g id="line2d_11">
     <path d="M 20.539691 146.611219 
L 23.539691 146.611219 
L 26.539691 146.611219 
" style="fill: none; stroke: #808080; stroke-width: 0.8; stroke-linecap: square"/>
    </g>
    <g id="text_11">
     <!-- Contaminated -->
     <g transform="translate(28.939691 147.661219) scale(0.03 -0.03)">
      <defs>
       <path id="DejaVuSans-43" d="M 4122 4306 
L 4122 3641 
Q 3803 3938 3442 4084 
Q 3081 4231 2675 4231 
Q 1875 4231 1450 3742 
Q 1025 3253 1025 2328 
Q 1025 1406 1450 917 
Q 1875 428 2675 428 
Q 3081 428 3442 575 
Q 3803 722 4122 1019 
L 4122 359 
Q 3791 134 3420 21 
Q 3050 -91 2638 -91 
Q 1578 -91 968 557 
Q 359 1206 359 2328 
Q 359 3453 968 4101 
Q 1578 4750 2638 4750 
Q 3056 4750 3426 4639 
Q 3797 4528 4122 4306 
z
" transform="scale(0.015625)"/>
      </defs>
      <use xlink:href="#DejaVuSans-43"/>
      <use xlink:href="#DejaVuSans-6f" x="69.824219"/>
      <use xlink:href="#DejaVuSans-6e" x="131.005859"/>
      <use xlink:href="#DejaVuSans-74" x="194.384766"/>
      <use xlink:href="#DejaVuSans-61" x="233.59375"/>
      <use xlink:href="#DejaVuSans-6d" x="294.873047"/>
      <use xlink:href="#DejaVuSans-69" x="392.285156"/>
      <use xlink:href="#DejaVuSans-6e" x="420.068359"/>
      <use xlink:href="#DejaVuSans-61" x="483.447266"/>
      <use xlink:href="#DejaVuSans-74" x="544.726562"/>
      <use xlink:href="#DejaVuSans-65" x="583.935547"/>
      <use xlink:href="#DejaVuSans-64" x="645.458984"/>
     </g>
    </g>
    <g id="line2d_12">
     <path d="M 20.539691 151.014656 
L 23.539691 151.014656 
L 26.539691 151.014656 
" style="fill: none; stroke: #1e90ff; stroke-width: 0.8; stroke-linecap: square"/>
    </g>
    <g id="text_12">
     <!-- Clean -->
     <g transform="translate(28.939691 152.064656) scale(0.03 -0.03)">
      <use xlink:href="#DejaVuSans-43"/>
      <use xlink:href="#DejaVuSans-6c" x="69.824219"/>
      <use xlink:href="#DejaVuSans-65" x="97.607422"/>
      <use xlink:href="#DejaVuSans-61" x="159.130859"/>
      <use xlink:href="#DejaVuSans-6e" x="220.410156"/>
     </g>
    </g>
    <g id="line2d_13">
     <path d="M 20.539691 155.418094 
L 23.539691 155.418094 
L 26.539691 155.418094 
" style="fill: none; stroke: #ff0000; stroke-width: 0.8; stroke-linecap: square"/>
    </g>
    <g id="text_13">
     <!-- SACed -->
     <g transform="translate(28.939691 156.468094) scale(0.03 -0.03)">
      <defs>
       <path id="DejaVuSans-53" d="M 3425 4513 
L 3425 3897 
Q 3066 4069 2747 4153 
Q 2428 4238 2131 4238 
Q 1616 4238 1336 4038 
Q 1056 3838 1056 3469 
Q 1056 3159 1242 3001 
Q 1428 2844 1947 2747 
L 2328 2669 
Q 3034 2534 3370 2195 
Q 3706 1856 3706 1288 
Q 3706 609 3251 259 
Q 2797 -91 1919 -91 
Q 1588 -91 1214 -16 
Q 841 59 441 206 
L 441 856 
Q 825 641 1194 531 
Q 1563 422 1919 422 
Q 2459 422 2753 634 
Q 3047 847 3047 1241 
Q 3047 1584 2836 1778 
Q 2625 1972 2144 2069 
L 1759 2144 
Q 1053 2284 737 2584 
Q 422 2884 422 3419 
Q 422 4038 858 4394 
Q 1294 4750 2059 4750 
Q 2388 4750 2728 4690 
Q 3069 4631 3425 4513 
z
" transform="scale(0.015625)"/>
       <path id="DejaVuSans-41" d="M 2188 4044 
L 1331 1722 
L 3047 1722 
L 2188 4044 
z
M 1831 4666 
L 2547 4666 
L 4325 0 
L 3669 0 
L 3244 1197 
L 1141 1197 
L 716 0 
L 50 0 
L 1831 4666 
z
" transform="scale(0.015625)"/>
      </defs>
      <use xlink:href="#DejaVuSans-53"/>
      <use xlink:href="#DejaVuSans-41" x="65.351562"/>
      <use xlink:href="#DejaVuSans-43" x="132.009766"/>
      <use xlink:href="#DejaVuSans-65" x="201.833984"/>
      <use xlink:href="#DejaVuSans-64" x="263.357422"/>
     </g>
    </g>
   </g>
  </g>
 </g>
 <defs>
  <clipPath id="p66a6459322">
   <rect x="59.52" y="26.88" width="138.934362" height="102.24"/>
  </clipPath>
 </defs>
</svg>
