<?xml version="1.0" encoding="utf-8" standalone="no"?>
<!DOCTYPE svg PUBLIC "-//W3C//DTD SVG 1.1//EN"
  "http://www.w3.org/Graphics/SVG/1.1/DTD/svg11.dtd">
<svg xmlns:xlink="http://www.w3.org/1999/xlink" width="216pt" height="180pt" viewBox="0 0 216 180" xmlns="http://www.w3.org/2000/svg" version="1.1">
 <metadata>
  <rdf:RDF xmlns:dc="http://purl.org/dc/elements/1.1/" xmlns:cc="http://creativecommons.org/ns#" xmlns:rdf="http://www.w3.org/1999/02/22-rdf-syntax-ns#">
   <cc:Work>
    <dc:type rdf:resource="http://purl.org/dc/dcmitype/StillImage"/>
    <dc:date>2024-08-24T00:21:00.373813</dc:date>
    <dc:format>image/svg+xml</dc:format>
    <dc:creator>
     <cc:Agent>
      <dc:title>Matplotlib v3.9.1, https://matplotlib.org/</dc:title>
     </cc:Agent>
    </dc:creator>
   </cc:Work>
  </rdf:RDF>
 </metadata>
 <defs>
  <style type="text/css">*{stroke-linejoin: round; stroke-linecap: butt}</style>
 </defs>
 <g id="figure_1">
  <g id="patch_1">
   <path d="M 0 180 
L 216 180 
L 216 0 
L 0 0 
z
" style="fill: #ffffff"/>
  </g>
  <g id="axes_1">
   <g id="patch_2">
    <path d="M 59.52 129.12 
L 198.454362 129.12 
L 198.454362 26.88 
L 59.52 26.88 
z
" style="fill: #ffffff"/>
   </g>
   <g id="matplotlib.axis_1">
    <g id="xtick_1">
     <g id="line2d_1">
      <defs>
       <path id="m702d4050e3" d="M 0 0 
L 0 3.5 
" style="stroke: #000000; stroke-width: 0.8"/>
      </defs>
      <g>
       <use xlink:href="#m702d4050e3" x="61.540047" y="129.12" style="stroke: #000000; stroke-width: 0.8"/>
      </g>
     </g>
     <g id="text_1">
      <!-- 0 -->
      <g transform="translate(58.358797 143.718437) scale(0.1 -0.1)">
       <defs>
        <path id="DejaVuSans-30" d="M 2034 4250 
Q 1547 4250 1301 3770 
Q 1056 3291 1056 2328 
Q 1056 1369 1301 889 
Q 1547 409 2034 409 
Q 2525 409 2770 889 
Q 3016 1369 3016 2328 
Q 3016 3291 2770 3770 
Q 2525 4250 2034 4250 
z
M 2034 4750 
Q 2819 4750 3233 4129 
Q 3647 3509 3647 2328 
Q 3647 1150 3233 529 
Q 2819 -91 2034 -91 
Q 1250 -91 836 529 
Q 422 1150 422 2328 
Q 422 3509 836 4129 
Q 1250 4750 2034 4750 
z
" transform="scale(0.015625)"/>
       </defs>
       <use xlink:href="#DejaVuSans-30"/>
      </g>
     </g>
    </g>
    <g id="xtick_2">
     <g id="line2d_2">
      <g>
       <use xlink:href="#m702d4050e3" x="128.874956" y="129.12" style="stroke: #000000; stroke-width: 0.8"/>
      </g>
     </g>
     <g id="text_2">
      <!-- 150 -->
      <g transform="translate(119.331206 143.718437) scale(0.1 -0.1)">
       <defs>
        <path id="DejaVuSans-31" d="M 794 531 
L 1825 531 
L 1825 4091 
L 703 3866 
L 703 4441 
L 1819 4666 
L 2450 4666 
L 2450 531 
L 3481 531 
L 3481 0 
L 794 0 
L 794 531 
z
" transform="scale(0.015625)"/>
        <path id="DejaVuSans-35" d="M 691 4666 
L 3169 4666 
L 3169 4134 
L 1269 4134 
L 1269 2991 
Q 1406 3038 1543 3061 
Q 1681 3084 1819 3084 
Q 2600 3084 3056 2656 
Q 3513 2228 3513 1497 
Q 3513 744 3044 326 
Q 2575 -91 1722 -91 
Q 1428 -91 1123 -41 
Q 819 9 494 109 
L 494 744 
Q 775 591 1075 516 
Q 1375 441 1709 441 
Q 2250 441 2565 725 
Q 2881 1009 2881 1497 
Q 2881 1984 2565 2268 
Q 2250 2553 1709 2553 
Q 1456 2553 1204 2497 
Q 953 2441 691 2322 
L 691 4666 
z
" transform="scale(0.015625)"/>
       </defs>
       <use xlink:href="#DejaVuSans-31"/>
       <use xlink:href="#DejaVuSans-35" x="63.623047"/>
       <use xlink:href="#DejaVuSans-30" x="127.246094"/>
      </g>
     </g>
    </g>
    <g id="xtick_3">
     <g id="line2d_3">
      <g>
       <use xlink:href="#m702d4050e3" x="196.209865" y="129.12" style="stroke: #000000; stroke-width: 0.8"/>
      </g>
     </g>
     <g id="text_3">
      <!-- 300 -->
      <g transform="translate(186.666115 143.718437) scale(0.1 -0.1)">
       <defs>
        <path id="DejaVuSans-33" d="M 2597 2516 
Q 3050 2419 3304 2112 
Q 3559 1806 3559 1356 
Q 3559 666 3084 287 
Q 2609 -91 1734 -91 
Q 1441 -91 1130 -33 
Q 819 25 488 141 
L 488 750 
Q 750 597 1062 519 
Q 1375 441 1716 441 
Q 2309 441 2620 675 
Q 2931 909 2931 1356 
Q 2931 1769 2642 2001 
Q 2353 2234 1838 2234 
L 1294 2234 
L 1294 2753 
L 1863 2753 
Q 2328 2753 2575 2939 
Q 2822 3125 2822 3475 
Q 2822 3834 2567 4026 
Q 2313 4219 1838 4219 
Q 1578 4219 1281 4162 
Q 984 4106 628 3988 
L 628 4550 
Q 988 4650 1302 4700 
Q 1616 4750 1894 4750 
Q 2613 4750 3031 4423 
Q 3450 4097 3450 3541 
Q 3450 3153 3228 2886 
Q 3006 2619 2597 2516 
z
" transform="scale(0.015625)"/>
       </defs>
       <use xlink:href="#DejaVuSans-33"/>
       <use xlink:href="#DejaVuSans-30" x="63.623047"/>
       <use xlink:href="#DejaVuSans-30" x="127.246094"/>
      </g>
     </g>
    </g>
    <g id="text_4">
     <!-- Frequency (Hz) -->
     <g transform="translate(91.282493 157.396563) scale(0.1 -0.1)">
      <defs>
       <path id="DejaVuSans-46" d="M 628 4666 
L 3309 4666 
L 3309 4134 
L 1259 4134 
L 1259 2759 
L 3109 2759 
L 3109 2228 
L 1259 2228 
L 1259 0 
L 628 0 
L 628 4666 
z
" transform="scale(0.015625)"/>
       <path id="DejaVuSans-72" d="M 2631 2963 
Q 2534 3019 2420 3045 
Q 2306 3072 2169 3072 
Q 1681 3072 1420 2755 
Q 1159 2438 1159 1844 
L 1159 0 
L 581 0 
L 581 3500 
L 1159 3500 
L 1159 2956 
Q 1341 3275 1631 3429 
Q 1922 3584 2338 3584 
Q 2397 3584 2469 3576 
Q 2541 3569 2628 3553 
L 2631 2963 
z
" transform="scale(0.015625)"/>
       <path id="DejaVuSans-65" d="M 3597 1894 
L 3597 1613 
L 953 1613 
Q 991 1019 1311 708 
Q 1631 397 2203 397 
Q 2534 397 2845 478 
Q 3156 559 3463 722 
L 3463 178 
Q 3153 47 2828 -22 
Q 2503 -91 2169 -91 
Q 1331 -91 842 396 
Q 353 884 353 1716 
Q 353 2575 817 3079 
Q 1281 3584 2069 3584 
Q 2775 3584 3186 3129 
Q 3597 2675 3597 1894 
z
M 3022 2063 
Q 3016 2534 2758 2815 
Q 2500 3097 2075 3097 
Q 1594 3097 1305 2825 
Q 1016 2553 972 2059 
L 3022 2063 
z
" transform="scale(0.015625)"/>
       <path id="DejaVuSans-71" d="M 947 1747 
Q 947 1113 1208 752 
Q 1469 391 1925 391 
Q 2381 391 2643 752 
Q 2906 1113 2906 1747 
Q 2906 2381 2643 2742 
Q 2381 3103 1925 3103 
Q 1469 3103 1208 2742 
Q 947 2381 947 1747 
z
M 2906 525 
Q 2725 213 2448 61 
Q 2172 -91 1784 -91 
Q 1150 -91 751 415 
Q 353 922 353 1747 
Q 353 2572 751 3078 
Q 1150 3584 1784 3584 
Q 2172 3584 2448 3432 
Q 2725 3281 2906 2969 
L 2906 3500 
L 3481 3500 
L 3481 -1331 
L 2906 -1331 
L 2906 525 
z
" transform="scale(0.015625)"/>
       <path id="DejaVuSans-75" d="M 544 1381 
L 544 3500 
L 1119 3500 
L 1119 1403 
Q 1119 906 1312 657 
Q 1506 409 1894 409 
Q 2359 409 2629 706 
Q 2900 1003 2900 1516 
L 2900 3500 
L 3475 3500 
L 3475 0 
L 2900 0 
L 2900 538 
Q 2691 219 2414 64 
Q 2138 -91 1772 -91 
Q 1169 -91 856 284 
Q 544 659 544 1381 
z
M 1991 3584 
L 1991 3584 
z
" transform="scale(0.015625)"/>
       <path id="DejaVuSans-6e" d="M 3513 2113 
L 3513 0 
L 2938 0 
L 2938 2094 
Q 2938 2591 2744 2837 
Q 2550 3084 2163 3084 
Q 1697 3084 1428 2787 
Q 1159 2491 1159 1978 
L 1159 0 
L 581 0 
L 581 3500 
L 1159 3500 
L 1159 2956 
Q 1366 3272 1645 3428 
Q 1925 3584 2291 3584 
Q 2894 3584 3203 3211 
Q 3513 2838 3513 2113 
z
" transform="scale(0.015625)"/>
       <path id="DejaVuSans-63" d="M 3122 3366 
L 3122 2828 
Q 2878 2963 2633 3030 
Q 2388 3097 2138 3097 
Q 1578 3097 1268 2742 
Q 959 2388 959 1747 
Q 959 1106 1268 751 
Q 1578 397 2138 397 
Q 2388 397 2633 464 
Q 2878 531 3122 666 
L 3122 134 
Q 2881 22 2623 -34 
Q 2366 -91 2075 -91 
Q 1284 -91 818 406 
Q 353 903 353 1747 
Q 353 2603 823 3093 
Q 1294 3584 2113 3584 
Q 2378 3584 2631 3529 
Q 2884 3475 3122 3366 
z
" transform="scale(0.015625)"/>
       <path id="DejaVuSans-79" d="M 2059 -325 
Q 1816 -950 1584 -1140 
Q 1353 -1331 966 -1331 
L 506 -1331 
L 506 -850 
L 844 -850 
Q 1081 -850 1212 -737 
Q 1344 -625 1503 -206 
L 1606 56 
L 191 3500 
L 800 3500 
L 1894 763 
L 2988 3500 
L 3597 3500 
L 2059 -325 
z
" transform="scale(0.015625)"/>
       <path id="DejaVuSans-20" transform="scale(0.015625)"/>
       <path id="DejaVuSans-28" d="M 1984 4856 
Q 1566 4138 1362 3434 
Q 1159 2731 1159 2009 
Q 1159 1288 1364 580 
Q 1569 -128 1984 -844 
L 1484 -844 
Q 1016 -109 783 600 
Q 550 1309 550 2009 
Q 550 2706 781 3412 
Q 1013 4119 1484 4856 
L 1984 4856 
z
" transform="scale(0.015625)"/>
       <path id="DejaVuSans-48" d="M 628 4666 
L 1259 4666 
L 1259 2753 
L 3553 2753 
L 3553 4666 
L 4184 4666 
L 4184 0 
L 3553 0 
L 3553 2222 
L 1259 2222 
L 1259 0 
L 628 0 
L 628 4666 
z
" transform="scale(0.015625)"/>
       <path id="DejaVuSans-7a" d="M 353 3500 
L 3084 3500 
L 3084 2975 
L 922 459 
L 3084 459 
L 3084 0 
L 275 0 
L 275 525 
L 2438 3041 
L 353 3041 
L 353 3500 
z
" transform="scale(0.015625)"/>
       <path id="DejaVuSans-29" d="M 513 4856 
L 1013 4856 
Q 1481 4119 1714 3412 
Q 1947 2706 1947 2009 
Q 1947 1309 1714 600 
Q 1481 -109 1013 -844 
L 513 -844 
Q 928 -128 1133 580 
Q 1338 1288 1338 2009 
Q 1338 2731 1133 3434 
Q 928 4138 513 4856 
z
" transform="scale(0.015625)"/>
      </defs>
      <use xlink:href="#DejaVuSans-46"/>
      <use xlink:href="#DejaVuSans-72" x="50.269531"/>
      <use xlink:href="#DejaVuSans-65" x="89.132812"/>
      <use xlink:href="#DejaVuSans-71" x="150.65625"/>
      <use xlink:href="#DejaVuSans-75" x="214.132812"/>
      <use xlink:href="#DejaVuSans-65" x="277.511719"/>
      <use xlink:href="#DejaVuSans-6e" x="339.035156"/>
      <use xlink:href="#DejaVuSans-63" x="402.414062"/>
      <use xlink:href="#DejaVuSans-79" x="457.394531"/>
      <use xlink:href="#DejaVuSans-20" x="516.574219"/>
      <use xlink:href="#DejaVuSans-28" x="548.361328"/>
      <use xlink:href="#DejaVuSans-48" x="587.375"/>
      <use xlink:href="#DejaVuSans-7a" x="662.570312"/>
      <use xlink:href="#DejaVuSans-29" x="715.060547"/>
     </g>
    </g>
   </g>
   <g id="matplotlib.axis_2">
    <g id="ytick_1">
     <g id="line2d_4">
      <defs>
       <path id="mc2417ccc73" d="M 0 0 
L -3.5 0 
" style="stroke: #000000; stroke-width: 0.8"/>
      </defs>
      <g>
       <use xlink:href="#mc2417ccc73" x="59.52" y="109.669206" style="stroke: #000000; stroke-width: 0.8"/>
      </g>
     </g>
     <g id="text_5">
      <!-- $\mathdefault{10^{-3}}$ -->
      <g transform="translate(29.02 113.468425) scale(0.1 -0.1)">
       <defs>
        <path id="DejaVuSans-2212" d="M 678 2272 
L 4684 2272 
L 4684 1741 
L 678 1741 
L 678 2272 
z
" transform="scale(0.015625)"/>
       </defs>
       <use xlink:href="#DejaVuSans-31" transform="translate(0 0.765625)"/>
       <use xlink:href="#DejaVuSans-30" transform="translate(63.623047 0.765625)"/>
       <use xlink:href="#DejaVuSans-2212" transform="translate(128.203125 39.046875) scale(0.7)"/>
       <use xlink:href="#DejaVuSans-33" transform="translate(186.855469 39.046875) scale(0.7)"/>
      </g>
     </g>
    </g>
    <g id="ytick_2">
     <g id="line2d_5">
      <g>
       <use xlink:href="#mc2417ccc73" x="59.52" y="82.856727" style="stroke: #000000; stroke-width: 0.8"/>
      </g>
     </g>
     <g id="text_6">
      <!-- $\mathdefault{10^{0}}$ -->
      <g transform="translate(34.92 86.655945) scale(0.1 -0.1)">
       <use xlink:href="#DejaVuSans-31" transform="translate(0 0.765625)"/>
       <use xlink:href="#DejaVuSans-30" transform="translate(63.623047 0.765625)"/>
       <use xlink:href="#DejaVuSans-30" transform="translate(128.203125 39.046875) scale(0.7)"/>
      </g>
     </g>
    </g>
    <g id="ytick_3">
     <g id="line2d_6">
      <g>
       <use xlink:href="#mc2417ccc73" x="59.52" y="56.044247" style="stroke: #000000; stroke-width: 0.8"/>
      </g>
     </g>
     <g id="text_7">
      <!-- $\mathdefault{10^{3}}$ -->
      <g transform="translate(34.92 59.843466) scale(0.1 -0.1)">
       <use xlink:href="#DejaVuSans-31" transform="translate(0 0.765625)"/>
       <use xlink:href="#DejaVuSans-30" transform="translate(63.623047 0.765625)"/>
       <use xlink:href="#DejaVuSans-33" transform="translate(128.203125 39.046875) scale(0.7)"/>
      </g>
     </g>
    </g>
    <g id="ytick_4">
     <g id="line2d_7">
      <g>
       <use xlink:href="#mc2417ccc73" x="59.52" y="29.231767" style="stroke: #000000; stroke-width: 0.8"/>
      </g>
     </g>
     <g id="text_8">
      <!-- $\mathdefault{10^{6}}$ -->
      <g transform="translate(34.92 33.030986) scale(0.1 -0.1)">
       <defs>
        <path id="DejaVuSans-36" d="M 2113 2584 
Q 1688 2584 1439 2293 
Q 1191 2003 1191 1497 
Q 1191 994 1439 701 
Q 1688 409 2113 409 
Q 2538 409 2786 701 
Q 3034 994 3034 1497 
Q 3034 2003 2786 2293 
Q 2538 2584 2113 2584 
z
M 3366 4563 
L 3366 3988 
Q 3128 4100 2886 4159 
Q 2644 4219 2406 4219 
Q 1781 4219 1451 3797 
Q 1122 3375 1075 2522 
Q 1259 2794 1537 2939 
Q 1816 3084 2150 3084 
Q 2853 3084 3261 2657 
Q 3669 2231 3669 1497 
Q 3669 778 3244 343 
Q 2819 -91 2113 -91 
Q 1303 -91 875 529 
Q 447 1150 447 2328 
Q 447 3434 972 4092 
Q 1497 4750 2381 4750 
Q 2619 4750 2861 4703 
Q 3103 4656 3366 4563 
z
" transform="scale(0.015625)"/>
       </defs>
       <use xlink:href="#DejaVuSans-31" transform="translate(0 0.765625)"/>
       <use xlink:href="#DejaVuSans-30" transform="translate(63.623047 0.765625)"/>
       <use xlink:href="#DejaVuSans-36" transform="translate(128.203125 39.046875) scale(0.7)"/>
      </g>
     </g>
    </g>
    <g id="text_9">
     <!-- Log power (dB/Hz) -->
     <g transform="translate(22.940312 124.139844) rotate(-90) scale(0.1 -0.1)">
      <defs>
       <path id="DejaVuSans-4c" d="M 628 4666 
L 1259 4666 
L 1259 531 
L 3531 531 
L 3531 0 
L 628 0 
L 628 4666 
z
" transform="scale(0.015625)"/>
       <path id="DejaVuSans-6f" d="M 1959 3097 
Q 1497 3097 1228 2736 
Q 959 2375 959 1747 
Q 959 1119 1226 758 
Q 1494 397 1959 397 
Q 2419 397 2687 759 
Q 2956 1122 2956 1747 
Q 2956 2369 2687 2733 
Q 2419 3097 1959 3097 
z
M 1959 3584 
Q 2709 3584 3137 3096 
Q 3566 2609 3566 1747 
Q 3566 888 3137 398 
Q 2709 -91 1959 -91 
Q 1206 -91 779 398 
Q 353 888 353 1747 
Q 353 2609 779 3096 
Q 1206 3584 1959 3584 
z
" transform="scale(0.015625)"/>
       <path id="DejaVuSans-67" d="M 2906 1791 
Q 2906 2416 2648 2759 
Q 2391 3103 1925 3103 
Q 1463 3103 1205 2759 
Q 947 2416 947 1791 
Q 947 1169 1205 825 
Q 1463 481 1925 481 
Q 2391 481 2648 825 
Q 2906 1169 2906 1791 
z
M 3481 434 
Q 3481 -459 3084 -895 
Q 2688 -1331 1869 -1331 
Q 1566 -1331 1297 -1286 
Q 1028 -1241 775 -1147 
L 775 -588 
Q 1028 -725 1275 -790 
Q 1522 -856 1778 -856 
Q 2344 -856 2625 -561 
Q 2906 -266 2906 331 
L 2906 616 
Q 2728 306 2450 153 
Q 2172 0 1784 0 
Q 1141 0 747 490 
Q 353 981 353 1791 
Q 353 2603 747 3093 
Q 1141 3584 1784 3584 
Q 2172 3584 2450 3431 
Q 2728 3278 2906 2969 
L 2906 3500 
L 3481 3500 
L 3481 434 
z
" transform="scale(0.015625)"/>
       <path id="DejaVuSans-70" d="M 1159 525 
L 1159 -1331 
L 581 -1331 
L 581 3500 
L 1159 3500 
L 1159 2969 
Q 1341 3281 1617 3432 
Q 1894 3584 2278 3584 
Q 2916 3584 3314 3078 
Q 3713 2572 3713 1747 
Q 3713 922 3314 415 
Q 2916 -91 2278 -91 
Q 1894 -91 1617 61 
Q 1341 213 1159 525 
z
M 3116 1747 
Q 3116 2381 2855 2742 
Q 2594 3103 2138 3103 
Q 1681 3103 1420 2742 
Q 1159 2381 1159 1747 
Q 1159 1113 1420 752 
Q 1681 391 2138 391 
Q 2594 391 2855 752 
Q 3116 1113 3116 1747 
z
" transform="scale(0.015625)"/>
       <path id="DejaVuSans-77" d="M 269 3500 
L 844 3500 
L 1563 769 
L 2278 3500 
L 2956 3500 
L 3675 769 
L 4391 3500 
L 4966 3500 
L 4050 0 
L 3372 0 
L 2619 2869 
L 1863 0 
L 1184 0 
L 269 3500 
z
" transform="scale(0.015625)"/>
       <path id="DejaVuSans-64" d="M 2906 2969 
L 2906 4863 
L 3481 4863 
L 3481 0 
L 2906 0 
L 2906 525 
Q 2725 213 2448 61 
Q 2172 -91 1784 -91 
Q 1150 -91 751 415 
Q 353 922 353 1747 
Q 353 2572 751 3078 
Q 1150 3584 1784 3584 
Q 2172 3584 2448 3432 
Q 2725 3281 2906 2969 
z
M 947 1747 
Q 947 1113 1208 752 
Q 1469 391 1925 391 
Q 2381 391 2643 752 
Q 2906 1113 2906 1747 
Q 2906 2381 2643 2742 
Q 2381 3103 1925 3103 
Q 1469 3103 1208 2742 
Q 947 2381 947 1747 
z
" transform="scale(0.015625)"/>
       <path id="DejaVuSans-42" d="M 1259 2228 
L 1259 519 
L 2272 519 
Q 2781 519 3026 730 
Q 3272 941 3272 1375 
Q 3272 1813 3026 2020 
Q 2781 2228 2272 2228 
L 1259 2228 
z
M 1259 4147 
L 1259 2741 
L 2194 2741 
Q 2656 2741 2882 2914 
Q 3109 3088 3109 3444 
Q 3109 3797 2882 3972 
Q 2656 4147 2194 4147 
L 1259 4147 
z
M 628 4666 
L 2241 4666 
Q 2963 4666 3353 4366 
Q 3744 4066 3744 3513 
Q 3744 3084 3544 2831 
Q 3344 2578 2956 2516 
Q 3422 2416 3680 2098 
Q 3938 1781 3938 1306 
Q 3938 681 3513 340 
Q 3088 0 2303 0 
L 628 0 
L 628 4666 
z
" transform="scale(0.015625)"/>
       <path id="DejaVuSans-2f" d="M 1625 4666 
L 2156 4666 
L 531 -594 
L 0 -594 
L 1625 4666 
z
" transform="scale(0.015625)"/>
      </defs>
      <use xlink:href="#DejaVuSans-4c"/>
      <use xlink:href="#DejaVuSans-6f" x="53.962891"/>
      <use xlink:href="#DejaVuSans-67" x="115.144531"/>
      <use xlink:href="#DejaVuSans-20" x="178.621094"/>
      <use xlink:href="#DejaVuSans-70" x="210.408203"/>
      <use xlink:href="#DejaVuSans-6f" x="273.884766"/>
      <use xlink:href="#DejaVuSans-77" x="335.066406"/>
      <use xlink:href="#DejaVuSans-65" x="416.853516"/>
      <use xlink:href="#DejaVuSans-72" x="478.376953"/>
      <use xlink:href="#DejaVuSans-20" x="519.490234"/>
      <use xlink:href="#DejaVuSans-28" x="551.277344"/>
      <use xlink:href="#DejaVuSans-64" x="590.291016"/>
      <use xlink:href="#DejaVuSans-42" x="653.767578"/>
      <use xlink:href="#DejaVuSans-2f" x="722.371094"/>
      <use xlink:href="#DejaVuSans-48" x="756.0625"/>
      <use xlink:href="#DejaVuSans-7a" x="831.257812"/>
      <use xlink:href="#DejaVuSans-29" x="883.748047"/>
     </g>
    </g>
   </g>
   <g id="line2d_8">
    <path d="M 61.764497 70.8207 
L 61.988947 76.36379 
L 62.213396 68.043572 
L 62.437846 65.444015 
L 62.662296 71.305076 
L 62.886745 70.165837 
L 63.111195 62.439878 
L 63.335645 73.503337 
L 63.560095 70.771474 
L 64.008994 67.982549 
L 64.233444 73.801339 
L 64.457893 71.252037 
L 64.682343 65.234398 
L 64.906793 74.81494 
L 65.131242 66.208111 
L 65.580142 67.600029 
L 65.804591 75.549513 
L 66.029041 67.37141 
L 66.253491 65.079246 
L 66.477941 67.387926 
L 66.70239 67.826118 
L 66.92684 63.466828 
L 67.15129 75.85318 
L 67.375739 75.24956 
L 67.600189 69.270882 
L 67.824639 74.336427 
L 68.049088 74.502581 
L 68.273538 72.4088 
L 68.722438 70.226923 
L 68.946887 62.175678 
L 69.171337 70.859381 
L 69.395787 70.811155 
L 69.620236 63.498391 
L 69.844686 76.783968 
L 70.293585 68.791341 
L 70.518035 67.98909 
L 70.742485 79.899672 
L 70.966935 63.703581 
L 71.191384 67.087071 
L 71.415834 82.580598 
L 71.640284 57.117991 
L 71.864733 68.348282 
L 72.089183 73.439699 
L 72.313633 70.405871 
L 72.538082 81.746826 
L 72.762532 76.721911 
L 72.986982 68.282047 
L 73.211431 68.834235 
L 73.435881 68.943283 
L 73.660331 77.424426 
L 73.884781 79.607668 
L 74.10923 66.571936 
L 74.33368 62.228939 
L 74.55813 77.448806 
L 74.782579 78.903098 
L 75.231479 69.42946 
L 75.455928 76.768753 
L 75.680378 64.29037 
L 75.904828 74.873629 
L 76.129278 72.811216 
L 76.353727 75.434777 
L 76.578177 66.721227 
L 77.027076 73.123205 
L 77.251526 65.512362 
L 77.475976 64.914153 
L 77.700425 73.691696 
L 77.924875 66.41501 
L 78.373774 73.108126 
L 78.598224 63.666388 
L 79.047124 71.805712 
L 79.271573 68.290258 
L 79.496023 75.831475 
L 79.720473 89.95475 
L 79.944922 71.247849 
L 80.169372 63.542181 
L 80.393822 67.052168 
L 80.842721 80.297573 
L 81.067171 67.419596 
L 81.291621 71.63526 
L 81.51607 66.88787 
L 81.74052 76.106631 
L 81.96497 69.102275 
L 82.189419 67.063179 
L 82.413869 67.166428 
L 82.638319 69.852764 
L 82.862768 70.127929 
L 83.087218 71.803962 
L 83.536117 67.222857 
L 83.760567 67.799373 
L 84.209467 72.921717 
L 84.433916 78.586649 
L 84.658366 71.11424 
L 84.882816 73.55552 
L 85.107265 65.442027 
L 85.331715 67.092467 
L 85.556165 77.161377 
L 85.780614 70.471011 
L 86.005064 77.847932 
L 86.229514 67.999343 
L 86.453964 67.102851 
L 86.678413 68.965654 
L 86.902863 67.60367 
L 87.127313 63.964975 
L 87.351762 73.441918 
L 87.576212 77.45242 
L 87.800662 67.391928 
L 88.025111 65.801357 
L 88.249561 67.568594 
L 88.474011 71.825956 
L 88.69846 63.756328 
L 89.14736 72.214132 
L 89.37181 72.152063 
L 89.596259 70.147176 
L 89.820709 72.655639 
L 90.045159 71.428721 
L 90.494058 63.591803 
L 90.718508 72.579375 
L 91.167407 65.341075 
L 91.391857 67.057345 
L 91.616307 77.163451 
L 91.840756 76.465481 
L 92.065206 63.721319 
L 92.289656 67.936036 
L 92.514105 68.025405 
L 92.738555 65.372454 
L 92.963005 69.026774 
L 93.187454 79.886386 
L 93.411904 70.358885 
L 93.636354 81.535172 
L 93.860804 65.767687 
L 94.085253 64.232709 
L 94.309703 75.54234 
L 94.534153 71.134098 
L 94.758602 75.226883 
L 94.983052 73.356658 
L 95.431951 65.616658 
L 95.656401 67.537468 
L 95.880851 67.974122 
L 96.1053 70.186739 
L 96.32975 70.948035 
L 96.5542 67.473793 
L 96.77865 66.59556 
L 97.003099 64.881163 
L 97.227549 67.899127 
L 97.451999 75.714158 
L 97.676448 64.771805 
L 97.900898 70.565254 
L 98.125348 66.186574 
L 98.349797 76.594345 
L 98.798697 64.849021 
L 99.023147 61.02789 
L 99.247596 68.14497 
L 99.472046 79.646161 
L 99.920945 67.036817 
L 100.145395 67.136421 
L 100.369845 66.885497 
L 100.594294 60.680127 
L 100.818744 69.272664 
L 101.043194 70.043422 
L 101.267643 63.95279 
L 101.492093 72.007036 
L 101.716543 63.909885 
L 101.940993 64.52793 
L 102.165442 73.966272 
L 102.389892 64.905496 
L 102.614342 64.600825 
L 102.838791 65.544169 
L 103.287691 70.141498 
L 103.51214 61.940464 
L 103.73659 81.071832 
L 103.96104 67.134189 
L 104.18549 70.164347 
L 104.409939 77.116341 
L 104.858839 60.615737 
L 105.083288 65.03125 
L 105.307738 72.523176 
L 105.756637 64.498056 
L 105.981087 65.162421 
L 106.205537 68.556878 
L 106.429986 74.325161 
L 106.654436 73.099711 
L 106.878886 68.901887 
L 107.103336 71.878514 
L 107.327785 67.11201 
L 108.001134 69.505624 
L 108.225584 63.870046 
L 108.450034 76.380201 
L 108.674483 62.953594 
L 108.898933 65.814171 
L 109.123383 73.974228 
L 109.347833 73.807013 
L 109.572282 62.84091 
L 109.796732 64.921159 
L 110.021182 70.35267 
L 110.245631 60.98179 
L 110.694531 76.700674 
L 110.91898 64.534187 
L 111.36788 75.816148 
L 111.592329 65.103358 
L 111.816779 70.351391 
L 112.041229 79.496181 
L 112.265679 64.737704 
L 112.490128 65.348198 
L 112.714578 67.281265 
L 112.939028 66.883863 
L 113.163477 62.260721 
L 113.612377 72.084857 
L 113.836826 65.517582 
L 114.061276 62.348165 
L 114.285726 76.112297 
L 114.510176 68.143392 
L 114.734625 68.24709 
L 114.959075 64.478939 
L 115.407974 72.561523 
L 115.632424 67.640484 
L 115.856874 75.779749 
L 116.081323 65.217885 
L 116.530223 79.606667 
L 116.754673 68.842204 
L 116.979122 70.420929 
L 117.203572 67.107317 
L 117.428022 81.468312 
L 117.652471 31.527273 
L 117.876921 80.236418 
L 118.101371 66.942832 
L 118.32582 70.491853 
L 118.55027 68.878934 
L 118.77472 80.135737 
L 119.223619 65.700385 
L 119.448069 75.523656 
L 119.672519 68.214874 
L 119.896968 73.38557 
L 120.345868 65.279402 
L 120.570317 68.532866 
L 120.794767 69.262339 
L 121.019217 76.218986 
L 121.243666 63.149696 
L 121.468116 66.37551 
L 121.692566 72.736876 
L 122.141465 63.309947 
L 122.365915 67.570898 
L 122.590365 68.687737 
L 122.814814 66.741349 
L 123.039264 66.125034 
L 123.263714 82.369429 
L 123.712613 66.44791 
L 123.937063 77.978058 
L 124.385962 65.988712 
L 124.610412 78.087557 
L 124.834862 72.234063 
L 125.059311 62.955462 
L 125.283761 72.20676 
L 125.508211 66.630509 
L 125.73266 65.111449 
L 125.95711 76.560824 
L 126.18156 76.127551 
L 126.406009 67.634534 
L 126.630459 64.933357 
L 126.854909 78.448809 
L 127.079359 65.984166 
L 127.303808 73.019639 
L 127.752708 69.800354 
L 127.977157 69.813388 
L 128.201607 74.545257 
L 128.426057 71.552128 
L 128.650506 75.90137 
L 128.874956 76.597086 
L 129.323855 68.303788 
L 129.548305 67.235596 
L 129.997205 74.971359 
L 130.446104 63.781064 
L 130.895003 81.995775 
L 131.119453 73.552836 
L 131.343903 70.546247 
L 131.568352 83.68034 
L 131.792802 65.436275 
L 132.017252 73.493192 
L 132.466151 68.9088 
L 132.690601 67.890022 
L 132.915051 68.357868 
L 133.1395 77.108725 
L 133.36395 68.251264 
L 133.5884 67.3563 
L 133.812849 74.23819 
L 134.037299 68.588971 
L 134.261749 74.018883 
L 134.486198 73.310397 
L 134.710648 65.044447 
L 134.935098 71.646502 
L 135.159548 72.155779 
L 135.383997 71.304521 
L 135.832897 84.731133 
L 136.281796 65.616294 
L 136.730695 74.840532 
L 136.955145 81.902793 
L 137.179595 71.205869 
L 137.404045 75.077707 
L 137.628494 69.711124 
L 137.852944 78.925964 
L 138.077394 73.168285 
L 138.301843 70.708598 
L 138.750743 73.152818 
L 138.975192 77.619518 
L 139.424092 73.455122 
L 139.648542 73.082931 
L 139.872991 72.396782 
L 140.54634 82.559919 
L 140.77079 76.407647 
L 140.99524 82.734676 
L 141.219689 70.246455 
L 141.444139 71.514937 
L 141.668589 84.914969 
L 141.893038 76.029522 
L 142.117488 84.990739 
L 142.341938 74.907461 
L 142.566388 71.929519 
L 142.790837 74.482851 
L 143.015287 74.0747 
L 143.239737 69.658627 
L 143.464186 81.643104 
L 143.688636 83.255049 
L 143.913086 72.545725 
L 144.137535 72.984951 
L 144.361985 74.687144 
L 144.586435 78.445858 
L 144.810885 70.817864 
L 145.259784 77.79443 
L 145.484234 80.80409 
L 145.708683 78.366294 
L 145.933133 79.658144 
L 146.157583 78.503241 
L 146.382032 75.868484 
L 146.606482 71.419256 
L 146.830932 79.671587 
L 147.055381 75.38769 
L 147.279831 73.902983 
L 147.504281 74.282894 
L 147.728731 84.474623 
L 147.95318 82.20973 
L 148.17763 71.62812 
L 148.40208 75.873348 
L 148.626529 76.546297 
L 148.850979 74.021379 
L 149.075429 77.300625 
L 149.299878 87.560504 
L 149.524328 78.335877 
L 149.748778 87.105493 
L 149.973228 74.452133 
L 150.197677 73.245445 
L 150.422127 84.604079 
L 150.646577 79.498597 
L 150.871026 86.796064 
L 151.095476 84.344383 
L 151.319926 79.011282 
L 151.544375 76.32166 
L 151.768825 76.569007 
L 151.993275 77.588174 
L 152.217724 80.073799 
L 152.442174 80.989949 
L 152.666624 77.766243 
L 152.891074 76.238662 
L 153.115523 75.644084 
L 153.339973 78.008855 
L 153.564423 83.020074 
L 153.788872 75.092081 
L 154.013322 80.095382 
L 154.237772 76.317623 
L 154.462221 85.627727 
L 155.135571 71.149912 
L 155.58447 88.40185 
L 156.033369 77.703485 
L 156.482269 77.981935 
L 156.706718 70.985516 
L 156.931168 79.67304 
L 157.155618 81.029176 
L 157.380067 74.76787 
L 157.604517 80.748594 
L 157.828967 73.983886 
L 158.053417 75.170729 
L 158.277866 83.465409 
L 158.502316 75.106704 
L 158.726766 74.670626 
L 159.175665 77.442724 
L 159.400115 80.323461 
L 159.624564 72.601558 
L 159.849014 90.035978 
L 160.073464 77.41813 
L 160.297914 80.685216 
L 160.522363 86.242891 
L 160.971263 70.835347 
L 161.420162 81.714068 
L 161.644612 79.642392 
L 161.869061 74.682133 
L 162.093511 75.430751 
L 162.317961 78.595637 
L 162.542411 84.449676 
L 162.76686 83.103171 
L 162.99131 79.756042 
L 163.21576 81.95556 
L 163.440209 77.295567 
L 163.664659 77.413563 
L 163.889109 78.972459 
L 164.113558 79.732248 
L 164.338008 73.721888 
L 164.562458 87.121073 
L 164.786907 72.741545 
L 165.011357 75.557036 
L 165.235807 84.204671 
L 165.460257 83.884512 
L 165.684706 72.6306 
L 165.909156 74.621913 
L 166.133606 79.686728 
L 166.358055 70.45658 
L 166.806955 85.486267 
L 167.031404 73.752462 
L 167.480304 85.457162 
L 167.704754 74.155343 
L 167.929203 79.810962 
L 168.153653 89.309341 
L 168.378103 73.857373 
L 168.602552 74.510606 
L 168.827002 76.140389 
L 169.051452 75.783072 
L 169.275901 71.202169 
L 169.724801 81.788977 
L 169.94925 74.656206 
L 170.1737 71.467738 
L 170.39815 84.057181 
L 170.6226 77.308875 
L 170.847049 76.663073 
L 171.071499 73.296739 
L 171.520398 80.783792 
L 171.744848 76.089311 
L 171.969298 82.717339 
L 172.193747 73.709296 
L 172.642647 87.847343 
L 172.867097 76.965686 
L 173.091546 78.220001 
L 173.315996 75.39677 
L 173.540446 88.531466 
L 173.764895 39.659417 
L 173.989345 88.531608 
L 174.213795 75.165977 
L 174.438244 77.859228 
L 174.662694 76.495432 
L 174.887144 89.182411 
L 175.336043 73.476024 
L 175.560493 84.049216 
L 175.784943 75.95483 
L 176.009392 80.111465 
L 176.458292 72.78646 
L 176.682741 76.195312 
L 176.907191 76.921024 
L 177.131641 83.772539 
L 177.35609 70.741002 
L 177.58054 73.987083 
L 177.80499 80.417565 
L 178.253889 70.66584 
L 178.478339 75.245572 
L 178.702789 75.974682 
L 178.927238 73.926671 
L 179.151688 73.127707 
L 179.376138 88.5508 
L 179.825037 73.42298 
L 180.049487 83.993533 
L 180.498386 73.015858 
L 180.722836 85.828216 
L 181.171735 69.420771 
L 181.396185 79.315328 
L 181.620635 73.685673 
L 181.845084 71.658975 
L 182.069534 83.430669 
L 182.293984 83.373045 
L 182.518433 74.345754 
L 182.742883 71.563983 
L 182.967333 85.829769 
L 183.191783 72.580408 
L 183.416232 78.968352 
L 184.089581 76.374334 
L 184.314031 81.107016 
L 184.538481 77.876542 
L 184.76293 82.053249 
L 184.98738 82.990292 
L 185.43628 74.457613 
L 185.660729 73.448279 
L 186.109629 81.170239 
L 186.558528 69.851241 
L 187.007427 85.860476 
L 187.231877 79.06287 
L 187.456327 76.389503 
L 187.680776 89.027884 
L 187.905226 71.351934 
L 188.129676 78.889274 
L 188.803025 73.711702 
L 189.027475 74.377167 
L 189.251924 82.290386 
L 189.476374 74.337294 
L 189.700824 73.023807 
L 189.925273 80.202075 
L 190.149723 73.928852 
L 190.374173 79.965549 
L 190.598623 79.121906 
L 190.823072 70.537618 
L 191.047522 77.333874 
L 191.271972 76.974345 
L 191.496421 77.16138 
L 191.945321 89.396877 
L 192.39422 71.068027 
L 192.843119 80.01868 
L 193.067569 86.227697 
L 193.292019 76.370781 
L 193.516469 80.604934 
L 193.740918 75.125861 
L 193.965368 83.326766 
L 194.189818 78.145801 
L 194.414267 76.055073 
L 194.863167 78.26633 
L 195.087616 81.688501 
L 195.312066 80.647192 
L 195.536516 78.551434 
L 195.760966 78.061727 
L 195.985415 77.097405 
L 195.985415 77.097405 
" clip-path="url(#p0d4a3a5d63)" style="fill: none; stroke: #808080; stroke-width: 0.8; stroke-linecap: square"/>
   </g>
   <g id="line2d_9">
    <path d="M 61.764497 72.265179 
L 62.213396 68.194758 
L 62.437846 69.058573 
L 62.662296 71.047427 
L 62.886745 71.221973 
L 63.111195 65.46351 
L 63.335645 76.890225 
L 63.560095 68.605843 
L 63.784544 73.410952 
L 64.008994 66.601982 
L 64.233444 72.795021 
L 64.457893 67.75137 
L 64.682343 68.50862 
L 64.906793 77.172288 
L 65.131242 69.364126 
L 65.355692 73.456737 
L 65.580142 69.552974 
L 65.804591 73.525086 
L 66.029041 80.649767 
L 66.253491 67.473452 
L 66.477941 73.858174 
L 66.70239 75.022922 
L 66.92684 68.381252 
L 67.15129 78.490764 
L 67.375739 78.672269 
L 67.600189 95.058848 
L 67.824639 74.182418 
L 68.049088 78.56784 
L 68.497988 73.84588 
L 68.722438 75.853144 
L 68.946887 70.957374 
L 69.171337 73.252952 
L 69.395787 76.707689 
L 69.620236 70.89844 
L 69.844686 79.349834 
L 70.069136 78.220446 
L 70.293585 85.398592 
L 70.518035 73.041252 
L 70.742485 90.487144 
L 70.966935 69.733224 
L 71.415834 71.180891 
L 71.640284 56.30696 
L 71.864733 75.143908 
L 72.089183 81.612277 
L 72.313633 80.886469 
L 72.538082 81.323197 
L 72.762532 73.561569 
L 72.986982 75.025093 
L 73.211431 84.983567 
L 73.435881 79.988213 
L 73.660331 78.128426 
L 73.884781 78.573077 
L 74.10923 78.589064 
L 74.33368 74.498854 
L 74.55813 79.459484 
L 74.782579 81.608239 
L 75.007029 73.679697 
L 75.231479 86.553993 
L 75.455928 80.858929 
L 75.680378 81.78457 
L 75.904828 83.277103 
L 76.353727 72.306366 
L 76.578177 89.340608 
L 76.802627 78.255868 
L 77.027076 79.814325 
L 77.475976 75.287062 
L 77.700425 79.674574 
L 77.924875 80.035199 
L 78.149325 77.213629 
L 78.373774 83.911299 
L 78.822674 78.263128 
L 79.047124 78.901855 
L 79.271573 82.25637 
L 79.496023 81.152182 
L 79.720473 79.419938 
L 80.169372 85.461232 
L 80.393822 78.948503 
L 80.618271 91.453663 
L 80.842721 88.594872 
L 81.067171 81.31187 
L 81.291621 84.214016 
L 81.74052 85.351435 
L 81.96497 86.173678 
L 82.189419 96.365633 
L 82.413869 79.446175 
L 82.638319 91.285708 
L 82.862768 77.829344 
L 83.311668 86.288158 
L 83.536117 81.13142 
L 83.760567 90.126256 
L 83.985017 82.989585 
L 84.209467 82.080382 
L 84.433916 100.604224 
L 84.882816 77.624758 
L 85.107265 87.80341 
L 85.331715 83.346346 
L 85.556165 82.507469 
L 85.780614 84.18777 
L 86.005064 86.997784 
L 86.229514 82.1627 
L 86.453964 84.607918 
L 86.678413 93.249464 
L 86.902863 84.126485 
L 87.127313 90.893261 
L 87.351762 83.151909 
L 87.576212 91.583859 
L 87.800662 80.223364 
L 88.025111 84.991637 
L 88.249561 85.379325 
L 88.474011 90.751171 
L 88.69846 86.479661 
L 88.92291 91.042902 
L 89.14736 85.269951 
L 89.37181 90.241725 
L 89.596259 86.100052 
L 89.820709 99.339099 
L 90.045159 84.279744 
L 90.494058 90.02443 
L 90.718508 82.310453 
L 90.942957 83.616331 
L 91.391857 83.4957 
L 91.616307 89.865498 
L 91.840756 92.621278 
L 92.065206 85.617012 
L 92.514105 93.297039 
L 92.738555 91.38425 
L 92.963005 87.691524 
L 93.187454 97.785027 
L 93.411904 87.967129 
L 93.636354 89.162617 
L 93.860804 82.433438 
L 94.085253 89.13055 
L 94.309703 88.408799 
L 94.534153 92.126061 
L 94.758602 85.239777 
L 94.983052 88.690073 
L 95.207502 89.29022 
L 95.431951 82.623895 
L 95.656401 87.829132 
L 95.880851 103.211583 
L 96.1053 86.260439 
L 96.32975 90.649311 
L 96.5542 88.298265 
L 96.77865 89.097522 
L 97.003099 80.67395 
L 97.227549 95.257698 
L 97.451999 83.661523 
L 97.676448 83.855752 
L 97.900898 100.740574 
L 98.125348 103.820588 
L 98.349797 96.957099 
L 98.798697 90.256251 
L 99.023147 92.00105 
L 99.247596 89.684334 
L 99.472046 85.117869 
L 99.696496 94.860364 
L 99.920945 87.12836 
L 100.145395 92.564038 
L 100.369845 85.652717 
L 100.594294 100.97107 
L 100.818744 91.268461 
L 101.043194 93.308172 
L 101.492093 82.554634 
L 101.940993 89.428158 
L 102.165442 92.084751 
L 102.389892 92.811145 
L 102.614342 88.185063 
L 102.838791 100.958754 
L 103.063241 90.04593 
L 103.287691 87.109544 
L 103.51214 98.787711 
L 103.73659 91.130213 
L 103.96104 112.08873 
L 104.18549 95.537435 
L 104.409939 87.685554 
L 104.634389 105.088172 
L 104.858839 98.806416 
L 105.083288 104.767737 
L 105.307738 94.177467 
L 105.532188 95.395711 
L 105.756637 87.719773 
L 105.981087 91.216376 
L 106.205537 92.421488 
L 106.429986 95.07649 
L 106.654436 86.605105 
L 106.878886 100.806137 
L 107.103336 103.980382 
L 107.327785 93.801215 
L 107.552235 91.050899 
L 107.776685 95.07463 
L 108.001134 86.360337 
L 108.225584 85.226554 
L 108.450034 96.956257 
L 108.674483 90.516996 
L 109.123383 94.655789 
L 109.347833 91.783643 
L 109.572282 87.464077 
L 109.796732 93.935888 
L 110.021182 93.50785 
L 110.245631 92.060068 
L 110.470081 101.768515 
L 110.694531 103.193623 
L 110.91898 92.92408 
L 111.14343 105.955207 
L 111.592329 85.490703 
L 111.816779 99.049241 
L 112.041229 94.474161 
L 112.265679 103.664524 
L 112.714578 93.792654 
L 112.939028 94.33219 
L 113.163477 106.65466 
L 113.387927 89.800148 
L 113.612377 95.86562 
L 113.836826 97.78747 
L 114.061276 93.027328 
L 114.285726 95.250227 
L 114.510176 88.89898 
L 114.734625 90.748121 
L 114.959075 96.053255 
L 115.183525 87.607881 
L 115.407974 90.317056 
L 115.632424 103.294537 
L 115.856874 94.947475 
L 116.081323 91.531937 
L 116.305773 105.595209 
L 116.530223 94.236109 
L 116.754673 92.96633 
L 116.979122 90.822192 
L 117.203572 109.585136 
L 117.428022 92.352107 
L 117.876921 96.84939 
L 118.101371 91.51569 
L 118.32582 93.216893 
L 118.55027 91.815593 
L 118.77472 95.822354 
L 118.999169 90.129789 
L 119.223619 96.3373 
L 119.448069 94.80673 
L 119.672519 104.413561 
L 119.896968 95.127007 
L 120.121418 90.918778 
L 120.345868 98.954756 
L 120.570317 100.526513 
L 120.794767 98.211851 
L 121.019217 90.823677 
L 121.243666 88.907035 
L 121.468116 95.349682 
L 121.692566 97.949329 
L 121.917016 91.238608 
L 122.141465 103.628607 
L 122.365915 90.929617 
L 122.590365 94.846693 
L 122.814814 95.385816 
L 123.039264 98.358196 
L 123.263714 96.22639 
L 123.488163 98.465887 
L 123.712613 98.129146 
L 123.937063 99.004288 
L 124.161512 106.366542 
L 124.385962 104.496846 
L 124.610412 104.443549 
L 125.059311 88.045937 
L 125.283761 94.624216 
L 125.508211 95.735671 
L 125.73266 95.842692 
L 125.95711 101.362006 
L 126.18156 93.854518 
L 126.406009 99.093767 
L 126.630459 115.938154 
L 126.854909 103.435503 
L 127.303808 95.025973 
L 127.528258 101.991694 
L 127.752708 96.91393 
L 127.977157 94.535345 
L 128.426057 110.265392 
L 128.650506 93.959378 
L 128.874956 98.741647 
L 129.099406 106.251074 
L 129.323855 105.106719 
L 129.772755 101.652797 
L 129.997205 92.700106 
L 130.221654 97.446239 
L 130.446104 93.903205 
L 130.670554 99.111567 
L 130.895003 90.045458 
L 131.343903 104.397813 
L 131.568352 105.629804 
L 131.792802 103.794796 
L 132.017252 94.936746 
L 132.241702 104.55361 
L 132.466151 93.384349 
L 132.690601 96.223713 
L 132.915051 96.205572 
L 133.1395 107.196535 
L 133.36395 96.993436 
L 133.5884 100.20066 
L 134.037299 93.749112 
L 134.486198 107.108523 
L 134.710648 94.433018 
L 134.935098 108.171354 
L 135.159548 92.043494 
L 135.383997 96.156382 
L 135.608447 96.405671 
L 135.832897 93.529186 
L 136.057346 109.347951 
L 136.281796 100.365183 
L 136.506246 102.637898 
L 136.730695 97.401892 
L 136.955145 96.948138 
L 137.179595 107.992928 
L 137.404045 94.333336 
L 137.628494 107.474245 
L 138.077394 92.844181 
L 138.301843 102.91914 
L 138.526293 97.604952 
L 138.750743 106.607977 
L 138.975192 93.326429 
L 139.199642 99.184933 
L 139.424092 110.347566 
L 139.648542 99.624261 
L 139.872991 94.699782 
L 140.097441 100.417885 
L 140.321891 95.49856 
L 140.54634 100.035464 
L 140.77079 97.517274 
L 140.99524 97.291354 
L 141.219689 97.261077 
L 141.444139 99.264787 
L 141.668589 96.811194 
L 141.893038 109.240872 
L 142.117488 95.366429 
L 142.566388 111.035277 
L 143.015287 106.029026 
L 143.239737 100.469666 
L 143.464186 99.948374 
L 143.688636 102.303455 
L 143.913086 96.483752 
L 144.137535 96.89572 
L 144.361985 102.052161 
L 144.586435 95.804308 
L 144.810885 97.772675 
L 145.035334 97.285572 
L 145.259784 99.046292 
L 145.484234 95.188973 
L 145.933133 101.023151 
L 146.157583 109.838979 
L 146.382032 101.878461 
L 146.606482 100.4939 
L 146.830932 101.190852 
L 147.279831 108.990296 
L 147.504281 102.452712 
L 147.728731 112.619168 
L 147.95318 95.88727 
L 148.17763 96.254263 
L 148.40208 97.091187 
L 148.850979 106.306074 
L 149.299878 104.893344 
L 149.524328 98.419142 
L 149.748778 98.209186 
L 149.973228 98.573099 
L 150.197677 98.208632 
L 150.422127 95.347118 
L 150.871026 112.378963 
L 151.095476 96.602085 
L 151.319926 98.524802 
L 151.544375 97.376323 
L 151.768825 104.682087 
L 151.993275 106.228018 
L 152.217724 97.319289 
L 152.442174 100.619352 
L 152.666624 97.12922 
L 152.891074 98.971652 
L 153.115523 102.846008 
L 153.339973 99.904091 
L 153.564423 107.842238 
L 153.788872 98.686482 
L 154.013322 100.637112 
L 154.237772 98.214973 
L 154.462221 99.906019 
L 154.686671 110.61514 
L 154.911121 105.544828 
L 155.135571 103.475928 
L 155.36002 106.125477 
L 155.58447 110.537487 
L 155.80892 99.424775 
L 156.033369 105.226133 
L 156.257819 101.870478 
L 156.482269 101.721317 
L 156.706718 103.827653 
L 156.931168 110.45669 
L 157.155618 103.642127 
L 157.380067 112.922164 
L 157.828967 99.117041 
L 158.277866 109.636687 
L 158.502316 106.391734 
L 158.951215 98.234128 
L 159.400115 104.110752 
L 159.624564 97.355039 
L 159.849014 108.138789 
L 160.073464 108.310518 
L 160.297914 105.465059 
L 160.522363 105.924573 
L 160.746813 97.168188 
L 161.195712 105.596119 
L 161.420162 100.938181 
L 161.644612 103.349035 
L 161.869061 104.195169 
L 162.093511 101.517979 
L 162.317961 100.179274 
L 162.76686 108.470903 
L 162.99131 97.440944 
L 163.21576 113.991269 
L 163.440209 113.015938 
L 163.889109 100.994986 
L 164.113558 102.097191 
L 164.338008 109.292343 
L 164.786907 100.432527 
L 165.011357 101.770655 
L 165.235807 110.286174 
L 165.684706 99.570555 
L 165.909156 104.157789 
L 166.133606 103.968965 
L 166.358055 105.269855 
L 166.582505 100.436565 
L 166.806955 107.792333 
L 167.031404 109.358277 
L 167.255854 112.590126 
L 167.704754 103.983428 
L 167.929203 103.939625 
L 168.378103 113.128886 
L 168.827002 98.221268 
L 169.051452 105.996389 
L 169.275901 109.384346 
L 169.500351 101.982913 
L 169.724801 98.710135 
L 169.94925 101.009939 
L 170.1737 101.075617 
L 170.39815 111.156085 
L 170.6226 110.636279 
L 170.847049 113.341535 
L 171.071499 113.553136 
L 171.295949 101.141733 
L 171.520398 107.815196 
L 171.969298 96.601118 
L 172.418197 111.535453 
L 172.642647 105.556537 
L 172.867097 106.392048 
L 173.091546 114.42133 
L 173.315996 101.73527 
L 173.764895 98.888751 
L 173.989345 109.97208 
L 174.438244 102.443317 
L 174.662694 104.153195 
L 174.887144 103.518791 
L 175.111593 105.158053 
L 175.336043 104.660662 
L 175.560493 102.660495 
L 175.784943 104.612557 
L 176.009392 98.330629 
L 176.233842 111.131214 
L 176.458292 102.176081 
L 176.682741 108.399843 
L 176.907191 106.173129 
L 177.131641 102.044152 
L 177.35609 105.053942 
L 177.58054 113.351273 
L 177.80499 106.165929 
L 178.02944 107.447218 
L 178.253889 117.623647 
L 178.478339 112.83116 
L 178.702789 102.218813 
L 178.927238 117.42982 
L 179.151688 107.593749 
L 179.376138 114.591089 
L 179.600587 106.290762 
L 179.825037 106.263942 
L 180.049487 100.500839 
L 180.273936 103.02733 
L 180.498386 108.442641 
L 180.722836 103.299772 
L 180.947286 103.915344 
L 181.171735 102.540151 
L 181.396185 106.489691 
L 181.620635 98.707819 
L 181.845084 107.498034 
L 182.069534 100.936905 
L 182.293984 105.937695 
L 182.518433 107.416709 
L 182.742883 98.38744 
L 182.967333 107.300527 
L 183.191783 101.552329 
L 183.640682 115.635696 
L 183.865132 114.727781 
L 184.314031 103.066964 
L 184.538481 119.113249 
L 184.76293 105.049075 
L 184.98738 105.337371 
L 185.21183 97.636978 
L 185.43628 109.983667 
L 185.660729 109.179597 
L 185.885179 107.435988 
L 186.109629 104.32535 
L 186.334078 108.533283 
L 186.558528 99.696417 
L 187.007427 110.03829 
L 187.231877 101.234204 
L 187.456327 104.996067 
L 187.680776 106.194544 
L 187.905226 119.335965 
L 188.354126 105.330863 
L 188.803025 109.511341 
L 189.027475 104.080428 
L 189.251924 102.303361 
L 189.476374 102.113751 
L 189.700824 101.696476 
L 189.925273 123.1964 
L 190.149723 103.213966 
L 190.374173 104.392587 
L 190.598623 103.996507 
L 190.823072 104.078351 
L 191.047522 105.17624 
L 191.496421 102.664675 
L 191.720871 103.378872 
L 192.16977 109.497172 
L 192.39422 116.601224 
L 192.61867 104.740013 
L 192.843119 112.772125 
L 193.067569 112.214565 
L 193.292019 102.211151 
L 193.516469 114.048936 
L 193.740918 105.005748 
L 193.965368 105.586605 
L 194.189818 111.281346 
L 194.414267 108.283203 
L 194.638717 108.928238 
L 194.863167 104.373981 
L 195.087616 108.53971 
L 195.312066 103.579197 
L 195.536516 105.091373 
L 195.760966 108.870614 
L 195.985415 106.974833 
L 195.985415 106.974833 
" clip-path="url(#p0d4a3a5d63)" style="fill: none; stroke: #1e90ff; stroke-width: 0.8; stroke-linecap: square"/>
   </g>
   <g id="line2d_10">
    <path d="M 61.764497 72.068326 
L 62.213396 68.084853 
L 62.437846 68.859014 
L 62.662296 70.88993 
L 62.886745 70.957352 
L 63.111195 65.513194 
L 63.335645 77.352438 
L 63.560095 68.394368 
L 63.784544 73.105905 
L 64.008994 66.511213 
L 64.233444 72.206679 
L 64.457893 67.622817 
L 64.682343 68.627143 
L 64.906793 77.722696 
L 65.131242 69.095065 
L 65.355692 73.555684 
L 65.580142 69.515296 
L 65.804591 73.07743 
L 66.029041 80.102795 
L 66.253491 67.425085 
L 66.477941 74.004755 
L 66.70239 75.312077 
L 66.92684 68.518624 
L 67.15129 78.506676 
L 67.375739 78.627434 
L 67.600189 89.548019 
L 67.824639 74.452971 
L 68.049088 78.374627 
L 68.497988 74.200583 
L 68.722438 75.828842 
L 68.946887 71.23529 
L 69.395787 76.477563 
L 69.620236 70.977016 
L 69.844686 79.206363 
L 70.069136 77.998023 
L 70.293585 86.233563 
L 70.518035 72.739241 
L 70.742485 89.001029 
L 70.966935 70.007119 
L 71.191384 70.91072 
L 71.415834 71.282999 
L 71.640284 56.39423 
L 71.864733 75.000364 
L 72.089183 81.373727 
L 72.313633 81.826499 
L 72.538082 81.222382 
L 72.762532 73.925539 
L 72.986982 75.144034 
L 73.211431 86.257867 
L 73.435881 78.885343 
L 73.660331 77.80856 
L 74.10923 79.269206 
L 74.33368 75.105875 
L 74.55813 79.407197 
L 74.782579 80.910248 
L 75.007029 74.030259 
L 75.231479 85.075851 
L 75.455928 81.551065 
L 75.680378 83.900904 
L 75.904828 83.708785 
L 76.353727 72.188708 
L 76.578177 92.130724 
L 76.802627 78.433365 
L 77.027076 79.956747 
L 77.251526 78.493575 
L 77.475976 75.88088 
L 77.700425 80.758851 
L 77.924875 80.546395 
L 78.149325 77.450195 
L 78.373774 84.492055 
L 78.598224 80.1858 
L 78.822674 78.9042 
L 79.047124 78.904443 
L 79.271573 83.651565 
L 79.496023 82.767602 
L 79.720473 79.806414 
L 79.944922 81.42308 
L 80.169372 85.077857 
L 80.393822 78.603636 
L 80.618271 91.787776 
L 80.842721 88.9731 
L 81.067171 81.340657 
L 81.51607 84.934303 
L 81.74052 84.631769 
L 81.96497 88.041607 
L 82.189419 105.19827 
L 82.413869 80.073282 
L 82.638319 89.61574 
L 82.862768 78.970048 
L 83.311668 87.118417 
L 83.536117 82.039402 
L 83.760567 87.988348 
L 83.985017 84.441221 
L 84.209467 83.244511 
L 84.433916 96.215306 
L 84.882816 79.28022 
L 85.107265 87.780693 
L 85.331715 82.658622 
L 85.556165 83.007049 
L 86.005064 88.620986 
L 86.229514 83.24525 
L 86.453964 86.236315 
L 86.678413 95.969982 
L 86.902863 85.789915 
L 87.127313 94.929604 
L 87.351762 83.776857 
L 87.576212 96.372815 
L 87.800662 81.239457 
L 88.025111 87.99903 
L 88.249561 85.419346 
L 88.474011 93.184568 
L 88.69846 89.150035 
L 88.92291 89.915366 
L 89.14736 85.331159 
L 89.37181 92.396731 
L 89.596259 87.410104 
L 89.820709 99.224451 
L 90.045159 88.202639 
L 90.269608 86.834271 
L 90.494058 92.403025 
L 90.718508 83.558057 
L 91.391857 86.076673 
L 91.616307 92.096647 
L 91.840756 91.167359 
L 92.065206 87.445484 
L 92.514105 95.179702 
L 92.963005 89.984792 
L 93.187454 93.194787 
L 93.636354 88.850161 
L 93.860804 82.720499 
L 94.085253 87.358461 
L 94.309703 87.895982 
L 94.534153 92.22301 
L 94.983052 87.451259 
L 95.207502 94.905733 
L 95.431951 83.211457 
L 95.656401 88.598772 
L 95.880851 111.767077 
L 96.1053 90.248095 
L 96.32975 92.778098 
L 96.5542 89.285165 
L 96.77865 91.682799 
L 97.003099 82.658119 
L 97.227549 99.319073 
L 97.451999 86.557888 
L 97.676448 87.335592 
L 98.349797 107.469426 
L 98.574247 95.11351 
L 98.798697 89.287467 
L 99.023147 91.627927 
L 99.247596 92.188039 
L 99.472046 89.143266 
L 99.696496 91.775881 
L 99.920945 95.764912 
L 100.145395 93.545187 
L 100.369845 88.79285 
L 100.594294 101.534276 
L 100.818744 93.436872 
L 101.043194 90.398535 
L 101.267643 91.615264 
L 101.492093 85.175538 
L 101.716543 88.757196 
L 101.940993 87.543915 
L 102.389892 99.022695 
L 102.614342 92.005242 
L 102.838791 102.227907 
L 103.063241 95.960379 
L 103.287691 93.614982 
L 103.51214 114.64086 
L 103.73659 91.50465 
L 103.96104 100.455975 
L 104.18549 96.955397 
L 104.409939 88.177487 
L 104.634389 103.626672 
L 104.858839 94.949434 
L 105.083288 102.327198 
L 105.307738 96.601117 
L 105.532188 99.192244 
L 105.756637 90.300639 
L 105.981087 93.065176 
L 106.429986 105.897445 
L 106.654436 89.664009 
L 106.878886 108.868965 
L 107.552235 82.581788 
L 107.776685 93.730663 
L 108.001134 94.764696 
L 108.225584 91.276492 
L 108.450034 100.336343 
L 108.674483 94.661726 
L 108.898933 93.959248 
L 109.123383 111.229331 
L 109.347833 93.396573 
L 109.572282 97.138803 
L 109.796732 96.681741 
L 110.245631 99.903349 
L 110.470081 98.769142 
L 110.694531 105.775085 
L 110.91898 97.979964 
L 111.14343 96.79342 
L 111.36788 97.998943 
L 111.592329 91.095213 
L 111.816779 102.292221 
L 112.041229 99.570919 
L 112.265679 104.088579 
L 112.490128 94.809726 
L 112.714578 98.102645 
L 112.939028 93.183166 
L 113.163477 97.974685 
L 113.387927 88.44197 
L 113.612377 102.261051 
L 113.836826 94.891259 
L 114.061276 93.54695 
L 114.285726 94.416062 
L 114.510176 94.358286 
L 114.734625 100.245979 
L 114.959075 94.146968 
L 115.183525 92.05399 
L 115.407974 109.468866 
L 115.632424 96.463858 
L 115.856874 96.821194 
L 116.081323 108.30952 
L 116.305773 98.923518 
L 116.530223 97.583261 
L 116.754673 92.148413 
L 117.203572 97.37646 
L 117.428022 96.251131 
L 117.652471 72.966076 
L 117.876921 100.872605 
L 118.101371 94.001591 
L 118.32582 97.006799 
L 118.55027 94.574607 
L 118.77472 104.536141 
L 118.999169 91.958593 
L 119.223619 97.235889 
L 119.448069 98.212365 
L 119.672519 104.952788 
L 120.121418 93.898071 
L 120.345868 96.586266 
L 120.570317 91.900649 
L 120.794767 97.539981 
L 121.019217 91.439336 
L 121.468116 98.424997 
L 121.692566 94.116992 
L 121.917016 96.881491 
L 122.141465 93.153218 
L 122.365915 92.393594 
L 122.590365 105.436655 
L 122.814814 105.510411 
L 123.039264 100.503008 
L 123.263714 101.130325 
L 123.488163 106.924009 
L 123.712613 93.492769 
L 124.161512 103.584087 
L 124.385962 96.331928 
L 124.610412 100.256682 
L 124.834862 107.426277 
L 125.059311 95.452469 
L 125.283761 104.303206 
L 125.508211 94.798165 
L 125.95711 107.144276 
L 126.406009 92.530233 
L 126.854909 112.085855 
L 127.079359 97.138471 
L 127.303808 94.386237 
L 127.528258 93.836123 
L 127.752708 81.326285 
L 127.977157 99.500258 
L 128.201607 101.085594 
L 128.426057 108.829856 
L 128.650506 97.222344 
L 128.874956 96.106278 
L 129.099406 100.823161 
L 129.548305 94.296421 
L 129.772755 96.273612 
L 129.997205 102.126909 
L 130.221654 97.447991 
L 130.446104 108.117952 
L 130.670554 98.953573 
L 130.895003 94.928309 
L 131.119453 93.67713 
L 131.343903 96.99894 
L 131.568352 103.589957 
L 131.792802 95.549131 
L 132.017252 97.238056 
L 132.241702 94.362395 
L 132.466151 93.109579 
L 132.690601 101.296032 
L 132.915051 98.878579 
L 133.1395 103.404898 
L 133.36395 93.4029 
L 133.5884 94.052248 
L 133.812849 92.104294 
L 134.037299 99.012137 
L 134.261749 98.715051 
L 134.486198 97.656241 
L 134.710648 94.351361 
L 134.935098 92.731805 
L 135.159548 94.404722 
L 135.383997 99.355005 
L 135.608447 91.500072 
L 135.832897 93.695993 
L 136.057346 103.494884 
L 136.281796 92.263707 
L 136.506246 101.189749 
L 136.730695 97.693382 
L 136.955145 102.966305 
L 137.179595 98.083831 
L 137.404045 108.193044 
L 137.628494 96.039862 
L 137.852944 94.775566 
L 138.077394 94.910341 
L 138.301843 97.675384 
L 138.526293 96.636065 
L 138.750743 102.799298 
L 138.975192 97.242161 
L 139.199642 102.2986 
L 139.424092 102.120741 
L 139.648542 97.199874 
L 139.872991 100.328581 
L 140.097441 105.604296 
L 140.321891 96.360914 
L 140.77079 101.88705 
L 140.99524 95.268694 
L 141.444139 118.554365 
L 141.893038 94.979376 
L 142.117488 95.96126 
L 142.341938 105.457253 
L 142.566388 97.355542 
L 142.790837 98.065958 
L 143.015287 101.630147 
L 143.239737 96.646507 
L 143.464186 97.705218 
L 143.688636 103.178312 
L 143.913086 96.01963 
L 144.137535 100.37588 
L 144.361985 101.323329 
L 144.586435 105.488905 
L 144.810885 97.004604 
L 145.035334 117.974435 
L 145.259784 102.859427 
L 145.484234 101.680748 
L 145.708683 122.147458 
L 145.933133 99.274566 
L 146.157583 95.709603 
L 146.382032 97.77501 
L 146.606482 104.855993 
L 146.830932 100.112145 
L 147.055381 105.665674 
L 147.279831 98.162438 
L 147.504281 94.824761 
L 147.728731 104.233076 
L 148.17763 93.768552 
L 148.40208 100.89999 
L 148.626529 104.304641 
L 148.850979 103.566469 
L 149.075429 112.297839 
L 149.299878 100.409733 
L 149.524328 112.553183 
L 149.748778 102.209058 
L 149.973228 100.63505 
L 150.197677 102.129214 
L 150.422127 98.27923 
L 150.646577 107.486922 
L 150.871026 99.323885 
L 151.095476 104.55526 
L 151.319926 101.220694 
L 151.544375 108.154491 
L 151.768825 110.103893 
L 152.217724 96.053433 
L 152.442174 101.284808 
L 152.666624 101.049095 
L 152.891074 100.451294 
L 153.115523 99.013065 
L 153.339973 102.333349 
L 153.564423 100.90639 
L 153.788872 93.490253 
L 154.013322 107.297632 
L 154.237772 106.243374 
L 154.462221 100.594898 
L 154.686671 102.162671 
L 154.911121 100.81298 
L 155.135571 113.592859 
L 155.36002 101.670384 
L 155.58447 98.104133 
L 155.80892 103.545695 
L 156.257819 96.506458 
L 156.482269 97.43014 
L 156.706718 106.750907 
L 156.931168 105.05082 
L 157.155618 99.518027 
L 157.828967 92.505936 
L 158.053417 99.078552 
L 158.277866 94.864016 
L 158.726766 103.145746 
L 158.951215 94.020725 
L 159.400115 99.01599 
L 159.624564 97.405633 
L 160.073464 106.152999 
L 160.297914 97.888993 
L 160.746813 99.183321 
L 160.971263 101.059048 
L 161.195712 110.286388 
L 161.420162 111.417653 
L 161.644612 98.207834 
L 162.093511 110.557795 
L 162.542411 98.8573 
L 162.76686 96.487914 
L 162.99131 100.269847 
L 163.21576 107.922281 
L 163.440209 99.34743 
L 163.664659 82.718196 
L 163.889109 96.269087 
L 164.113558 94.135699 
L 164.338008 99.925929 
L 164.562458 100.754533 
L 164.786907 97.405186 
L 165.011357 99.357406 
L 165.235807 97.257395 
L 165.460257 100.619353 
L 165.684706 101.916635 
L 165.909156 96.781157 
L 166.133606 101.033057 
L 166.358055 100.621747 
L 166.582505 101.499931 
L 166.806955 98.438931 
L 167.031404 102.656886 
L 167.255854 111.405681 
L 167.480304 100.702349 
L 167.929203 112.952322 
L 168.153653 103.381844 
L 168.378103 102.670462 
L 168.602552 99.834259 
L 169.051452 106.65112 
L 169.500351 98.53307 
L 169.724801 105.280242 
L 169.94925 98.508755 
L 170.1737 95.575463 
L 170.39815 96.197954 
L 170.6226 98.527194 
L 170.847049 98.819606 
L 171.071499 97.637109 
L 171.295949 104.594786 
L 171.520398 96.756709 
L 171.969298 109.856428 
L 172.193747 100.419774 
L 172.418197 105.456879 
L 172.642647 101.657082 
L 172.867097 100.544035 
L 173.091546 98.176153 
L 173.315996 98.231288 
L 173.540446 102.963641 
L 173.764895 82.285684 
L 173.989345 109.419112 
L 174.213795 106.55663 
L 174.438244 99.856005 
L 174.662694 104.498982 
L 174.887144 103.8867 
L 175.111593 99.858028 
L 175.336043 100.173298 
L 175.560493 105.089202 
L 175.784943 104.520186 
L 176.009392 108.49858 
L 176.233842 103.079321 
L 176.458292 105.143159 
L 176.682741 110.514219 
L 176.907191 109.872038 
L 177.131641 97.038484 
L 177.35609 100.754053 
L 177.58054 99.230352 
L 178.02944 105.207331 
L 178.253889 101.154495 
L 178.702789 98.439087 
L 178.927238 113.302399 
L 179.151688 103.227995 
L 179.376138 122.061295 
L 179.600587 104.001626 
L 179.825037 115.361228 
L 180.049487 101.135146 
L 180.273936 108.571888 
L 180.498386 101.969266 
L 180.722836 104.525196 
L 180.947286 111.378915 
L 181.171735 97.326645 
L 181.396185 124.472727 
L 181.620635 101.720041 
L 181.845084 101.252126 
L 182.069534 110.093039 
L 182.293984 99.282396 
L 182.518433 105.632499 
L 182.742883 99.158327 
L 182.967333 105.547526 
L 183.191783 96.797257 
L 183.416232 100.069707 
L 183.640682 112.471815 
L 183.865132 87.504965 
L 184.089581 116.028128 
L 184.314031 108.923503 
L 184.538481 106.530144 
L 184.76293 100.329213 
L 184.98738 98.397308 
L 185.21183 98.232001 
L 185.43628 99.276209 
L 185.885179 103.958146 
L 186.109629 102.075802 
L 186.334078 101.674559 
L 186.558528 102.517263 
L 186.782978 96.890066 
L 187.007427 102.906094 
L 187.231877 99.026238 
L 187.456327 100.690712 
L 187.680776 103.812677 
L 187.905226 104.226871 
L 188.129676 100.783499 
L 188.354126 107.35322 
L 188.578575 97.920518 
L 188.803025 105.087807 
L 189.027475 101.919487 
L 189.251924 117.774196 
L 189.476374 98.457198 
L 189.700824 99.368543 
L 189.925273 98.734334 
L 190.149723 100.155485 
L 190.374173 110.241301 
L 190.598623 99.804885 
L 190.823072 100.40225 
L 191.047522 103.842342 
L 191.496421 101.251936 
L 191.720871 112.36835 
L 191.945321 103.59504 
L 192.16977 102.360102 
L 192.39422 95.80347 
L 192.61867 107.714501 
L 192.843119 108.420679 
L 193.067569 100.98952 
L 193.292019 100.576605 
L 193.740918 102.968824 
L 193.965368 98.457503 
L 194.189818 101.645216 
L 194.414267 109.714747 
L 194.638717 104.724506 
L 194.863167 106.300332 
L 195.087616 99.958017 
L 195.312066 101.243884 
L 195.536516 105.93776 
L 195.760966 105.12138 
L 195.985415 105.82751 
L 195.985415 105.82751 
" clip-path="url(#p0d4a3a5d63)" style="fill: none; stroke: #ff0000; stroke-width: 0.8; stroke-linecap: square"/>
   </g>
   <g id="patch_3">
    <path d="M 59.52 129.12 
L 59.52 26.88 
" style="fill: none; stroke: #000000; stroke-width: 0.8; stroke-linejoin: miter; stroke-linecap: square"/>
   </g>
   <g id="patch_4">
    <path d="M 198.454362 129.12 
L 198.454362 26.88 
" style="fill: none; stroke: #000000; stroke-width: 0.8; stroke-linejoin: miter; stroke-linecap: square"/>
   </g>
   <g id="patch_5">
    <path d="M 59.52 129.12 
L 198.454362 129.12 
" style="fill: none; stroke: #000000; stroke-width: 0.8; stroke-linejoin: miter; stroke-linecap: square"/>
   </g>
   <g id="patch_6">
    <path d="M 59.52 26.88 
L 198.454362 26.88 
" style="fill: none; stroke: #000000; stroke-width: 0.8; stroke-linejoin: miter; stroke-linecap: square"/>
   </g>
   <g id="text_10">
    <!-- Frequency Domain Plot -->
    <g transform="translate(59.587806 20.88) scale(0.12 -0.12)">
     <defs>
      <path id="DejaVuSans-44" d="M 1259 4147 
L 1259 519 
L 2022 519 
Q 2988 519 3436 956 
Q 3884 1394 3884 2338 
Q 3884 3275 3436 3711 
Q 2988 4147 2022 4147 
L 1259 4147 
z
M 628 4666 
L 1925 4666 
Q 3281 4666 3915 4102 
Q 4550 3538 4550 2338 
Q 4550 1131 3912 565 
Q 3275 0 1925 0 
L 628 0 
L 628 4666 
z
" transform="scale(0.015625)"/>
      <path id="DejaVuSans-6d" d="M 3328 2828 
Q 3544 3216 3844 3400 
Q 4144 3584 4550 3584 
Q 5097 3584 5394 3201 
Q 5691 2819 5691 2113 
L 5691 0 
L 5113 0 
L 5113 2094 
Q 5113 2597 4934 2840 
Q 4756 3084 4391 3084 
Q 3944 3084 3684 2787 
Q 3425 2491 3425 1978 
L 3425 0 
L 2847 0 
L 2847 2094 
Q 2847 2600 2669 2842 
Q 2491 3084 2119 3084 
Q 1678 3084 1418 2786 
Q 1159 2488 1159 1978 
L 1159 0 
L 581 0 
L 581 3500 
L 1159 3500 
L 1159 2956 
Q 1356 3278 1631 3431 
Q 1906 3584 2284 3584 
Q 2666 3584 2933 3390 
Q 3200 3197 3328 2828 
z
" transform="scale(0.015625)"/>
      <path id="DejaVuSans-61" d="M 2194 1759 
Q 1497 1759 1228 1600 
Q 959 1441 959 1056 
Q 959 750 1161 570 
Q 1363 391 1709 391 
Q 2188 391 2477 730 
Q 2766 1069 2766 1631 
L 2766 1759 
L 2194 1759 
z
M 3341 1997 
L 3341 0 
L 2766 0 
L 2766 531 
Q 2569 213 2275 61 
Q 1981 -91 1556 -91 
Q 1019 -91 701 211 
Q 384 513 384 1019 
Q 384 1609 779 1909 
Q 1175 2209 1959 2209 
L 2766 2209 
L 2766 2266 
Q 2766 2663 2505 2880 
Q 2244 3097 1772 3097 
Q 1472 3097 1187 3025 
Q 903 2953 641 2809 
L 641 3341 
Q 956 3463 1253 3523 
Q 1550 3584 1831 3584 
Q 2591 3584 2966 3190 
Q 3341 2797 3341 1997 
z
" transform="scale(0.015625)"/>
      <path id="DejaVuSans-69" d="M 603 3500 
L 1178 3500 
L 1178 0 
L 603 0 
L 603 3500 
z
M 603 4863 
L 1178 4863 
L 1178 4134 
L 603 4134 
L 603 4863 
z
" transform="scale(0.015625)"/>
      <path id="DejaVuSans-50" d="M 1259 4147 
L 1259 2394 
L 2053 2394 
Q 2494 2394 2734 2622 
Q 2975 2850 2975 3272 
Q 2975 3691 2734 3919 
Q 2494 4147 2053 4147 
L 1259 4147 
z
M 628 4666 
L 2053 4666 
Q 2838 4666 3239 4311 
Q 3641 3956 3641 3272 
Q 3641 2581 3239 2228 
Q 2838 1875 2053 1875 
L 1259 1875 
L 1259 0 
L 628 0 
L 628 4666 
z
" transform="scale(0.015625)"/>
      <path id="DejaVuSans-6c" d="M 603 4863 
L 1178 4863 
L 1178 0 
L 603 0 
L 603 4863 
z
" transform="scale(0.015625)"/>
      <path id="DejaVuSans-74" d="M 1172 4494 
L 1172 3500 
L 2356 3500 
L 2356 3053 
L 1172 3053 
L 1172 1153 
Q 1172 725 1289 603 
Q 1406 481 1766 481 
L 2356 481 
L 2356 0 
L 1766 0 
Q 1100 0 847 248 
Q 594 497 594 1153 
L 594 3053 
L 172 3053 
L 172 3500 
L 594 3500 
L 594 4494 
L 1172 4494 
z
" transform="scale(0.015625)"/>
     </defs>
     <use xlink:href="#DejaVuSans-46"/>
     <use xlink:href="#DejaVuSans-72" x="50.269531"/>
     <use xlink:href="#DejaVuSans-65" x="89.132812"/>
     <use xlink:href="#DejaVuSans-71" x="150.65625"/>
     <use xlink:href="#DejaVuSans-75" x="214.132812"/>
     <use xlink:href="#DejaVuSans-65" x="277.511719"/>
     <use xlink:href="#DejaVuSans-6e" x="339.035156"/>
     <use xlink:href="#DejaVuSans-63" x="402.414062"/>
     <use xlink:href="#DejaVuSans-79" x="457.394531"/>
     <use xlink:href="#DejaVuSans-20" x="516.574219"/>
     <use xlink:href="#DejaVuSans-44" x="548.361328"/>
     <use xlink:href="#DejaVuSans-6f" x="625.363281"/>
     <use xlink:href="#DejaVuSans-6d" x="686.544922"/>
     <use xlink:href="#DejaVuSans-61" x="783.957031"/>
     <use xlink:href="#DejaVuSans-69" x="845.236328"/>
     <use xlink:href="#DejaVuSans-6e" x="873.019531"/>
     <use xlink:href="#DejaVuSans-20" x="936.398438"/>
     <use xlink:href="#DejaVuSans-50" x="968.185547"/>
     <use xlink:href="#DejaVuSans-6c" x="1028.488281"/>
     <use xlink:href="#DejaVuSans-6f" x="1056.271484"/>
     <use xlink:href="#DejaVuSans-74" x="1117.453125"/>
    </g>
   </g>
   <g id="legend_1">
    <g id="patch_7">
     <path d="M 19.939691 158.292 
L 50.807816 158.292 
Q 51.407816 158.292 51.407816 157.692 
L 51.407816 144.781688 
Q 51.407816 144.181688 50.807816 144.181688 
L 19.939691 144.181688 
Q 19.339691 144.181688 19.339691 144.781688 
L 19.339691 157.692 
Q 19.339691 158.292 19.939691 158.292 
z
" style="fill: #ffffff; opacity: 0.8; stroke: #cccccc; stroke-linejoin: miter"/>
    </g>
    <g id="line2d_11">
     <path d="M 20.539691 146.611219 
L 23.539691 146.611219 
L 26.539691 146.611219 
" style="fill: none; stroke: #808080; stroke-width: 0.8; stroke-linecap: square"/>
    </g>
    <g id="text_11">
     <!-- Contaminated -->
     <g transform="translate(28.939691 147.661219) scale(0.03 -0.03)">
      <defs>
       <path id="DejaVuSans-43" d="M 4122 4306 
L 4122 3641 
Q 3803 3938 3442 4084 
Q 3081 4231 2675 4231 
Q 1875 4231 1450 3742 
Q 1025 3253 1025 2328 
Q 1025 1406 1450 917 
Q 1875 428 2675 428 
Q 3081 428 3442 575 
Q 3803 722 4122 1019 
L 4122 359 
Q 3791 134 3420 21 
Q 3050 -91 2638 -91 
Q 1578 -91 968 557 
Q 359 1206 359 2328 
Q 359 3453 968 4101 
Q 1578 4750 2638 4750 
Q 3056 4750 3426 4639 
Q 3797 4528 4122 4306 
z
" transform="scale(0.015625)"/>
      </defs>
      <use xlink:href="#DejaVuSans-43"/>
      <use xlink:href="#DejaVuSans-6f" x="69.824219"/>
      <use xlink:href="#DejaVuSans-6e" x="131.005859"/>
      <use xlink:href="#DejaVuSans-74" x="194.384766"/>
      <use xlink:href="#DejaVuSans-61" x="233.59375"/>
      <use xlink:href="#DejaVuSans-6d" x="294.873047"/>
      <use xlink:href="#DejaVuSans-69" x="392.285156"/>
      <use xlink:href="#DejaVuSans-6e" x="420.068359"/>
      <use xlink:href="#DejaVuSans-61" x="483.447266"/>
      <use xlink:href="#DejaVuSans-74" x="544.726562"/>
      <use xlink:href="#DejaVuSans-65" x="583.935547"/>
      <use xlink:href="#DejaVuSans-64" x="645.458984"/>
     </g>
    </g>
    <g id="line2d_12">
     <path d="M 20.539691 151.014656 
L 23.539691 151.014656 
L 26.539691 151.014656 
" style="fill: none; stroke: #1e90ff; stroke-width: 0.8; stroke-linecap: square"/>
    </g>
    <g id="text_12">
     <!-- Clean -->
     <g transform="translate(28.939691 152.064656) scale(0.03 -0.03)">
      <use xlink:href="#DejaVuSans-43"/>
      <use xlink:href="#DejaVuSans-6c" x="69.824219"/>
      <use xlink:href="#DejaVuSans-65" x="97.607422"/>
      <use xlink:href="#DejaVuSans-61" x="159.130859"/>
      <use xlink:href="#DejaVuSans-6e" x="220.410156"/>
     </g>
    </g>
    <g id="line2d_13">
     <path d="M 20.539691 155.418094 
L 23.539691 155.418094 
L 26.539691 155.418094 
" style="fill: none; stroke: #ff0000; stroke-width: 0.8; stroke-linecap: square"/>
    </g>
    <g id="text_13">
     <!-- SACed -->
     <g transform="translate(28.939691 156.468094) scale(0.03 -0.03)">
      <defs>
       <path id="DejaVuSans-53" d="M 3425 4513 
L 3425 3897 
Q 3066 4069 2747 4153 
Q 2428 4238 2131 4238 
Q 1616 4238 1336 4038 
Q 1056 3838 1056 3469 
Q 1056 3159 1242 3001 
Q 1428 2844 1947 2747 
L 2328 2669 
Q 3034 2534 3370 2195 
Q 3706 1856 3706 1288 
Q 3706 609 3251 259 
Q 2797 -91 1919 -91 
Q 1588 -91 1214 -16 
Q 841 59 441 206 
L 441 856 
Q 825 641 1194 531 
Q 1563 422 1919 422 
Q 2459 422 2753 634 
Q 3047 847 3047 1241 
Q 3047 1584 2836 1778 
Q 2625 1972 2144 2069 
L 1759 2144 
Q 1053 2284 737 2584 
Q 422 2884 422 3419 
Q 422 4038 858 4394 
Q 1294 4750 2059 4750 
Q 2388 4750 2728 4690 
Q 3069 4631 3425 4513 
z
" transform="scale(0.015625)"/>
       <path id="DejaVuSans-41" d="M 2188 4044 
L 1331 1722 
L 3047 1722 
L 2188 4044 
z
M 1831 4666 
L 2547 4666 
L 4325 0 
L 3669 0 
L 3244 1197 
L 1141 1197 
L 716 0 
L 50 0 
L 1831 4666 
z
" transform="scale(0.015625)"/>
      </defs>
      <use xlink:href="#DejaVuSans-53"/>
      <use xlink:href="#DejaVuSans-41" x="65.351562"/>
      <use xlink:href="#DejaVuSans-43" x="132.009766"/>
      <use xlink:href="#DejaVuSans-65" x="201.833984"/>
      <use xlink:href="#DejaVuSans-64" x="263.357422"/>
     </g>
    </g>
   </g>
  </g>
 </g>
 <defs>
  <clipPath id="p0d4a3a5d63">
   <rect x="59.52" y="26.88" width="138.934362" height="102.24"/>
  </clipPath>
 </defs>
</svg>
