<?xml version="1.0" encoding="utf-8" standalone="no"?>
<!DOCTYPE svg PUBLIC "-//W3C//DTD SVG 1.1//EN"
  "http://www.w3.org/Graphics/SVG/1.1/DTD/svg11.dtd">
<svg xmlns:xlink="http://www.w3.org/1999/xlink" width="216pt" height="180pt" viewBox="0 0 216 180" xmlns="http://www.w3.org/2000/svg" version="1.1">
 <metadata>
  <rdf:RDF xmlns:dc="http://purl.org/dc/elements/1.1/" xmlns:cc="http://creativecommons.org/ns#" xmlns:rdf="http://www.w3.org/1999/02/22-rdf-syntax-ns#">
   <cc:Work>
    <dc:type rdf:resource="http://purl.org/dc/dcmitype/StillImage"/>
    <dc:date>2024-08-23T23:57:21.689814</dc:date>
    <dc:format>image/svg+xml</dc:format>
    <dc:creator>
     <cc:Agent>
      <dc:title>Matplotlib v3.9.1, https://matplotlib.org/</dc:title>
     </cc:Agent>
    </dc:creator>
   </cc:Work>
  </rdf:RDF>
 </metadata>
 <defs>
  <style type="text/css">*{stroke-linejoin: round; stroke-linecap: butt}</style>
 </defs>
 <g id="figure_1">
  <g id="patch_1">
   <path d="M 0 180 
L 216 180 
L 216 0 
L 0 0 
z
" style="fill: #ffffff"/>
  </g>
  <g id="axes_1">
   <g id="patch_2">
    <path d="M 59.52 129.12 
L 198.454362 129.12 
L 198.454362 26.88 
L 59.52 26.88 
z
" style="fill: #ffffff"/>
   </g>
   <g id="matplotlib.axis_1">
    <g id="xtick_1">
     <g id="line2d_1">
      <defs>
       <path id="ma502ced3ba" d="M 0 0 
L 0 3.5 
" style="stroke: #000000; stroke-width: 0.8"/>
      </defs>
      <g>
       <use xlink:href="#ma502ced3ba" x="61.540047" y="129.12" style="stroke: #000000; stroke-width: 0.8"/>
      </g>
     </g>
     <g id="text_1">
      <!-- 0 -->
      <g transform="translate(58.358797 143.718437) scale(0.1 -0.1)">
       <defs>
        <path id="DejaVuSans-30" d="M 2034 4250 
Q 1547 4250 1301 3770 
Q 1056 3291 1056 2328 
Q 1056 1369 1301 889 
Q 1547 409 2034 409 
Q 2525 409 2770 889 
Q 3016 1369 3016 2328 
Q 3016 3291 2770 3770 
Q 2525 4250 2034 4250 
z
M 2034 4750 
Q 2819 4750 3233 4129 
Q 3647 3509 3647 2328 
Q 3647 1150 3233 529 
Q 2819 -91 2034 -91 
Q 1250 -91 836 529 
Q 422 1150 422 2328 
Q 422 3509 836 4129 
Q 1250 4750 2034 4750 
z
" transform="scale(0.015625)"/>
       </defs>
       <use xlink:href="#DejaVuSans-30"/>
      </g>
     </g>
    </g>
    <g id="xtick_2">
     <g id="line2d_2">
      <g>
       <use xlink:href="#ma502ced3ba" x="128.874956" y="129.12" style="stroke: #000000; stroke-width: 0.8"/>
      </g>
     </g>
     <g id="text_2">
      <!-- 150 -->
      <g transform="translate(119.331206 143.718437) scale(0.1 -0.1)">
       <defs>
        <path id="DejaVuSans-31" d="M 794 531 
L 1825 531 
L 1825 4091 
L 703 3866 
L 703 4441 
L 1819 4666 
L 2450 4666 
L 2450 531 
L 3481 531 
L 3481 0 
L 794 0 
L 794 531 
z
" transform="scale(0.015625)"/>
        <path id="DejaVuSans-35" d="M 691 4666 
L 3169 4666 
L 3169 4134 
L 1269 4134 
L 1269 2991 
Q 1406 3038 1543 3061 
Q 1681 3084 1819 3084 
Q 2600 3084 3056 2656 
Q 3513 2228 3513 1497 
Q 3513 744 3044 326 
Q 2575 -91 1722 -91 
Q 1428 -91 1123 -41 
Q 819 9 494 109 
L 494 744 
Q 775 591 1075 516 
Q 1375 441 1709 441 
Q 2250 441 2565 725 
Q 2881 1009 2881 1497 
Q 2881 1984 2565 2268 
Q 2250 2553 1709 2553 
Q 1456 2553 1204 2497 
Q 953 2441 691 2322 
L 691 4666 
z
" transform="scale(0.015625)"/>
       </defs>
       <use xlink:href="#DejaVuSans-31"/>
       <use xlink:href="#DejaVuSans-35" x="63.623047"/>
       <use xlink:href="#DejaVuSans-30" x="127.246094"/>
      </g>
     </g>
    </g>
    <g id="xtick_3">
     <g id="line2d_3">
      <g>
       <use xlink:href="#ma502ced3ba" x="196.209865" y="129.12" style="stroke: #000000; stroke-width: 0.8"/>
      </g>
     </g>
     <g id="text_3">
      <!-- 300 -->
      <g transform="translate(186.666115 143.718437) scale(0.1 -0.1)">
       <defs>
        <path id="DejaVuSans-33" d="M 2597 2516 
Q 3050 2419 3304 2112 
Q 3559 1806 3559 1356 
Q 3559 666 3084 287 
Q 2609 -91 1734 -91 
Q 1441 -91 1130 -33 
Q 819 25 488 141 
L 488 750 
Q 750 597 1062 519 
Q 1375 441 1716 441 
Q 2309 441 2620 675 
Q 2931 909 2931 1356 
Q 2931 1769 2642 2001 
Q 2353 2234 1838 2234 
L 1294 2234 
L 1294 2753 
L 1863 2753 
Q 2328 2753 2575 2939 
Q 2822 3125 2822 3475 
Q 2822 3834 2567 4026 
Q 2313 4219 1838 4219 
Q 1578 4219 1281 4162 
Q 984 4106 628 3988 
L 628 4550 
Q 988 4650 1302 4700 
Q 1616 4750 1894 4750 
Q 2613 4750 3031 4423 
Q 3450 4097 3450 3541 
Q 3450 3153 3228 2886 
Q 3006 2619 2597 2516 
z
" transform="scale(0.015625)"/>
       </defs>
       <use xlink:href="#DejaVuSans-33"/>
       <use xlink:href="#DejaVuSans-30" x="63.623047"/>
       <use xlink:href="#DejaVuSans-30" x="127.246094"/>
      </g>
     </g>
    </g>
    <g id="text_4">
     <!-- Frequency (Hz) -->
     <g transform="translate(91.282493 157.396563) scale(0.1 -0.1)">
      <defs>
       <path id="DejaVuSans-46" d="M 628 4666 
L 3309 4666 
L 3309 4134 
L 1259 4134 
L 1259 2759 
L 3109 2759 
L 3109 2228 
L 1259 2228 
L 1259 0 
L 628 0 
L 628 4666 
z
" transform="scale(0.015625)"/>
       <path id="DejaVuSans-72" d="M 2631 2963 
Q 2534 3019 2420 3045 
Q 2306 3072 2169 3072 
Q 1681 3072 1420 2755 
Q 1159 2438 1159 1844 
L 1159 0 
L 581 0 
L 581 3500 
L 1159 3500 
L 1159 2956 
Q 1341 3275 1631 3429 
Q 1922 3584 2338 3584 
Q 2397 3584 2469 3576 
Q 2541 3569 2628 3553 
L 2631 2963 
z
" transform="scale(0.015625)"/>
       <path id="DejaVuSans-65" d="M 3597 1894 
L 3597 1613 
L 953 1613 
Q 991 1019 1311 708 
Q 1631 397 2203 397 
Q 2534 397 2845 478 
Q 3156 559 3463 722 
L 3463 178 
Q 3153 47 2828 -22 
Q 2503 -91 2169 -91 
Q 1331 -91 842 396 
Q 353 884 353 1716 
Q 353 2575 817 3079 
Q 1281 3584 2069 3584 
Q 2775 3584 3186 3129 
Q 3597 2675 3597 1894 
z
M 3022 2063 
Q 3016 2534 2758 2815 
Q 2500 3097 2075 3097 
Q 1594 3097 1305 2825 
Q 1016 2553 972 2059 
L 3022 2063 
z
" transform="scale(0.015625)"/>
       <path id="DejaVuSans-71" d="M 947 1747 
Q 947 1113 1208 752 
Q 1469 391 1925 391 
Q 2381 391 2643 752 
Q 2906 1113 2906 1747 
Q 2906 2381 2643 2742 
Q 2381 3103 1925 3103 
Q 1469 3103 1208 2742 
Q 947 2381 947 1747 
z
M 2906 525 
Q 2725 213 2448 61 
Q 2172 -91 1784 -91 
Q 1150 -91 751 415 
Q 353 922 353 1747 
Q 353 2572 751 3078 
Q 1150 3584 1784 3584 
Q 2172 3584 2448 3432 
Q 2725 3281 2906 2969 
L 2906 3500 
L 3481 3500 
L 3481 -1331 
L 2906 -1331 
L 2906 525 
z
" transform="scale(0.015625)"/>
       <path id="DejaVuSans-75" d="M 544 1381 
L 544 3500 
L 1119 3500 
L 1119 1403 
Q 1119 906 1312 657 
Q 1506 409 1894 409 
Q 2359 409 2629 706 
Q 2900 1003 2900 1516 
L 2900 3500 
L 3475 3500 
L 3475 0 
L 2900 0 
L 2900 538 
Q 2691 219 2414 64 
Q 2138 -91 1772 -91 
Q 1169 -91 856 284 
Q 544 659 544 1381 
z
M 1991 3584 
L 1991 3584 
z
" transform="scale(0.015625)"/>
       <path id="DejaVuSans-6e" d="M 3513 2113 
L 3513 0 
L 2938 0 
L 2938 2094 
Q 2938 2591 2744 2837 
Q 2550 3084 2163 3084 
Q 1697 3084 1428 2787 
Q 1159 2491 1159 1978 
L 1159 0 
L 581 0 
L 581 3500 
L 1159 3500 
L 1159 2956 
Q 1366 3272 1645 3428 
Q 1925 3584 2291 3584 
Q 2894 3584 3203 3211 
Q 3513 2838 3513 2113 
z
" transform="scale(0.015625)"/>
       <path id="DejaVuSans-63" d="M 3122 3366 
L 3122 2828 
Q 2878 2963 2633 3030 
Q 2388 3097 2138 3097 
Q 1578 3097 1268 2742 
Q 959 2388 959 1747 
Q 959 1106 1268 751 
Q 1578 397 2138 397 
Q 2388 397 2633 464 
Q 2878 531 3122 666 
L 3122 134 
Q 2881 22 2623 -34 
Q 2366 -91 2075 -91 
Q 1284 -91 818 406 
Q 353 903 353 1747 
Q 353 2603 823 3093 
Q 1294 3584 2113 3584 
Q 2378 3584 2631 3529 
Q 2884 3475 3122 3366 
z
" transform="scale(0.015625)"/>
       <path id="DejaVuSans-79" d="M 2059 -325 
Q 1816 -950 1584 -1140 
Q 1353 -1331 966 -1331 
L 506 -1331 
L 506 -850 
L 844 -850 
Q 1081 -850 1212 -737 
Q 1344 -625 1503 -206 
L 1606 56 
L 191 3500 
L 800 3500 
L 1894 763 
L 2988 3500 
L 3597 3500 
L 2059 -325 
z
" transform="scale(0.015625)"/>
       <path id="DejaVuSans-20" transform="scale(0.015625)"/>
       <path id="DejaVuSans-28" d="M 1984 4856 
Q 1566 4138 1362 3434 
Q 1159 2731 1159 2009 
Q 1159 1288 1364 580 
Q 1569 -128 1984 -844 
L 1484 -844 
Q 1016 -109 783 600 
Q 550 1309 550 2009 
Q 550 2706 781 3412 
Q 1013 4119 1484 4856 
L 1984 4856 
z
" transform="scale(0.015625)"/>
       <path id="DejaVuSans-48" d="M 628 4666 
L 1259 4666 
L 1259 2753 
L 3553 2753 
L 3553 4666 
L 4184 4666 
L 4184 0 
L 3553 0 
L 3553 2222 
L 1259 2222 
L 1259 0 
L 628 0 
L 628 4666 
z
" transform="scale(0.015625)"/>
       <path id="DejaVuSans-7a" d="M 353 3500 
L 3084 3500 
L 3084 2975 
L 922 459 
L 3084 459 
L 3084 0 
L 275 0 
L 275 525 
L 2438 3041 
L 353 3041 
L 353 3500 
z
" transform="scale(0.015625)"/>
       <path id="DejaVuSans-29" d="M 513 4856 
L 1013 4856 
Q 1481 4119 1714 3412 
Q 1947 2706 1947 2009 
Q 1947 1309 1714 600 
Q 1481 -109 1013 -844 
L 513 -844 
Q 928 -128 1133 580 
Q 1338 1288 1338 2009 
Q 1338 2731 1133 3434 
Q 928 4138 513 4856 
z
" transform="scale(0.015625)"/>
      </defs>
      <use xlink:href="#DejaVuSans-46"/>
      <use xlink:href="#DejaVuSans-72" x="50.269531"/>
      <use xlink:href="#DejaVuSans-65" x="89.132812"/>
      <use xlink:href="#DejaVuSans-71" x="150.65625"/>
      <use xlink:href="#DejaVuSans-75" x="214.132812"/>
      <use xlink:href="#DejaVuSans-65" x="277.511719"/>
      <use xlink:href="#DejaVuSans-6e" x="339.035156"/>
      <use xlink:href="#DejaVuSans-63" x="402.414062"/>
      <use xlink:href="#DejaVuSans-79" x="457.394531"/>
      <use xlink:href="#DejaVuSans-20" x="516.574219"/>
      <use xlink:href="#DejaVuSans-28" x="548.361328"/>
      <use xlink:href="#DejaVuSans-48" x="587.375"/>
      <use xlink:href="#DejaVuSans-7a" x="662.570312"/>
      <use xlink:href="#DejaVuSans-29" x="715.060547"/>
     </g>
    </g>
   </g>
   <g id="matplotlib.axis_2">
    <g id="ytick_1">
     <g id="line2d_4">
      <defs>
       <path id="mbf6ec8fc95" d="M 0 0 
L -3.5 0 
" style="stroke: #000000; stroke-width: 0.8"/>
      </defs>
      <g>
       <use xlink:href="#mbf6ec8fc95" x="59.52" y="107.310983" style="stroke: #000000; stroke-width: 0.8"/>
      </g>
     </g>
     <g id="text_5">
      <!-- $\mathdefault{10^{-3}}$ -->
      <g transform="translate(29.02 111.110202) scale(0.1 -0.1)">
       <defs>
        <path id="DejaVuSans-2212" d="M 678 2272 
L 4684 2272 
L 4684 1741 
L 678 1741 
L 678 2272 
z
" transform="scale(0.015625)"/>
       </defs>
       <use xlink:href="#DejaVuSans-31" transform="translate(0 0.765625)"/>
       <use xlink:href="#DejaVuSans-30" transform="translate(63.623047 0.765625)"/>
       <use xlink:href="#DejaVuSans-2212" transform="translate(128.203125 39.046875) scale(0.7)"/>
       <use xlink:href="#DejaVuSans-33" transform="translate(186.855469 39.046875) scale(0.7)"/>
      </g>
     </g>
    </g>
    <g id="ytick_2">
     <g id="line2d_5">
      <g>
       <use xlink:href="#mbf6ec8fc95" x="59.52" y="81.30767" style="stroke: #000000; stroke-width: 0.8"/>
      </g>
     </g>
     <g id="text_6">
      <!-- $\mathdefault{10^{0}}$ -->
      <g transform="translate(34.92 85.106889) scale(0.1 -0.1)">
       <use xlink:href="#DejaVuSans-31" transform="translate(0 0.765625)"/>
       <use xlink:href="#DejaVuSans-30" transform="translate(63.623047 0.765625)"/>
       <use xlink:href="#DejaVuSans-30" transform="translate(128.203125 39.046875) scale(0.7)"/>
      </g>
     </g>
    </g>
    <g id="ytick_3">
     <g id="line2d_6">
      <g>
       <use xlink:href="#mbf6ec8fc95" x="59.52" y="55.304356" style="stroke: #000000; stroke-width: 0.8"/>
      </g>
     </g>
     <g id="text_7">
      <!-- $\mathdefault{10^{3}}$ -->
      <g transform="translate(34.92 59.103575) scale(0.1 -0.1)">
       <use xlink:href="#DejaVuSans-31" transform="translate(0 0.765625)"/>
       <use xlink:href="#DejaVuSans-30" transform="translate(63.623047 0.765625)"/>
       <use xlink:href="#DejaVuSans-33" transform="translate(128.203125 39.046875) scale(0.7)"/>
      </g>
     </g>
    </g>
    <g id="ytick_4">
     <g id="line2d_7">
      <g>
       <use xlink:href="#mbf6ec8fc95" x="59.52" y="29.301042" style="stroke: #000000; stroke-width: 0.8"/>
      </g>
     </g>
     <g id="text_8">
      <!-- $\mathdefault{10^{6}}$ -->
      <g transform="translate(34.92 33.100261) scale(0.1 -0.1)">
       <defs>
        <path id="DejaVuSans-36" d="M 2113 2584 
Q 1688 2584 1439 2293 
Q 1191 2003 1191 1497 
Q 1191 994 1439 701 
Q 1688 409 2113 409 
Q 2538 409 2786 701 
Q 3034 994 3034 1497 
Q 3034 2003 2786 2293 
Q 2538 2584 2113 2584 
z
M 3366 4563 
L 3366 3988 
Q 3128 4100 2886 4159 
Q 2644 4219 2406 4219 
Q 1781 4219 1451 3797 
Q 1122 3375 1075 2522 
Q 1259 2794 1537 2939 
Q 1816 3084 2150 3084 
Q 2853 3084 3261 2657 
Q 3669 2231 3669 1497 
Q 3669 778 3244 343 
Q 2819 -91 2113 -91 
Q 1303 -91 875 529 
Q 447 1150 447 2328 
Q 447 3434 972 4092 
Q 1497 4750 2381 4750 
Q 2619 4750 2861 4703 
Q 3103 4656 3366 4563 
z
" transform="scale(0.015625)"/>
       </defs>
       <use xlink:href="#DejaVuSans-31" transform="translate(0 0.765625)"/>
       <use xlink:href="#DejaVuSans-30" transform="translate(63.623047 0.765625)"/>
       <use xlink:href="#DejaVuSans-36" transform="translate(128.203125 39.046875) scale(0.7)"/>
      </g>
     </g>
    </g>
    <g id="text_9">
     <!-- Log power (dB/Hz) -->
     <g transform="translate(22.940312 124.139844) rotate(-90) scale(0.1 -0.1)">
      <defs>
       <path id="DejaVuSans-4c" d="M 628 4666 
L 1259 4666 
L 1259 531 
L 3531 531 
L 3531 0 
L 628 0 
L 628 4666 
z
" transform="scale(0.015625)"/>
       <path id="DejaVuSans-6f" d="M 1959 3097 
Q 1497 3097 1228 2736 
Q 959 2375 959 1747 
Q 959 1119 1226 758 
Q 1494 397 1959 397 
Q 2419 397 2687 759 
Q 2956 1122 2956 1747 
Q 2956 2369 2687 2733 
Q 2419 3097 1959 3097 
z
M 1959 3584 
Q 2709 3584 3137 3096 
Q 3566 2609 3566 1747 
Q 3566 888 3137 398 
Q 2709 -91 1959 -91 
Q 1206 -91 779 398 
Q 353 888 353 1747 
Q 353 2609 779 3096 
Q 1206 3584 1959 3584 
z
" transform="scale(0.015625)"/>
       <path id="DejaVuSans-67" d="M 2906 1791 
Q 2906 2416 2648 2759 
Q 2391 3103 1925 3103 
Q 1463 3103 1205 2759 
Q 947 2416 947 1791 
Q 947 1169 1205 825 
Q 1463 481 1925 481 
Q 2391 481 2648 825 
Q 2906 1169 2906 1791 
z
M 3481 434 
Q 3481 -459 3084 -895 
Q 2688 -1331 1869 -1331 
Q 1566 -1331 1297 -1286 
Q 1028 -1241 775 -1147 
L 775 -588 
Q 1028 -725 1275 -790 
Q 1522 -856 1778 -856 
Q 2344 -856 2625 -561 
Q 2906 -266 2906 331 
L 2906 616 
Q 2728 306 2450 153 
Q 2172 0 1784 0 
Q 1141 0 747 490 
Q 353 981 353 1791 
Q 353 2603 747 3093 
Q 1141 3584 1784 3584 
Q 2172 3584 2450 3431 
Q 2728 3278 2906 2969 
L 2906 3500 
L 3481 3500 
L 3481 434 
z
" transform="scale(0.015625)"/>
       <path id="DejaVuSans-70" d="M 1159 525 
L 1159 -1331 
L 581 -1331 
L 581 3500 
L 1159 3500 
L 1159 2969 
Q 1341 3281 1617 3432 
Q 1894 3584 2278 3584 
Q 2916 3584 3314 3078 
Q 3713 2572 3713 1747 
Q 3713 922 3314 415 
Q 2916 -91 2278 -91 
Q 1894 -91 1617 61 
Q 1341 213 1159 525 
z
M 3116 1747 
Q 3116 2381 2855 2742 
Q 2594 3103 2138 3103 
Q 1681 3103 1420 2742 
Q 1159 2381 1159 1747 
Q 1159 1113 1420 752 
Q 1681 391 2138 391 
Q 2594 391 2855 752 
Q 3116 1113 3116 1747 
z
" transform="scale(0.015625)"/>
       <path id="DejaVuSans-77" d="M 269 3500 
L 844 3500 
L 1563 769 
L 2278 3500 
L 2956 3500 
L 3675 769 
L 4391 3500 
L 4966 3500 
L 4050 0 
L 3372 0 
L 2619 2869 
L 1863 0 
L 1184 0 
L 269 3500 
z
" transform="scale(0.015625)"/>
       <path id="DejaVuSans-64" d="M 2906 2969 
L 2906 4863 
L 3481 4863 
L 3481 0 
L 2906 0 
L 2906 525 
Q 2725 213 2448 61 
Q 2172 -91 1784 -91 
Q 1150 -91 751 415 
Q 353 922 353 1747 
Q 353 2572 751 3078 
Q 1150 3584 1784 3584 
Q 2172 3584 2448 3432 
Q 2725 3281 2906 2969 
z
M 947 1747 
Q 947 1113 1208 752 
Q 1469 391 1925 391 
Q 2381 391 2643 752 
Q 2906 1113 2906 1747 
Q 2906 2381 2643 2742 
Q 2381 3103 1925 3103 
Q 1469 3103 1208 2742 
Q 947 2381 947 1747 
z
" transform="scale(0.015625)"/>
       <path id="DejaVuSans-42" d="M 1259 2228 
L 1259 519 
L 2272 519 
Q 2781 519 3026 730 
Q 3272 941 3272 1375 
Q 3272 1813 3026 2020 
Q 2781 2228 2272 2228 
L 1259 2228 
z
M 1259 4147 
L 1259 2741 
L 2194 2741 
Q 2656 2741 2882 2914 
Q 3109 3088 3109 3444 
Q 3109 3797 2882 3972 
Q 2656 4147 2194 4147 
L 1259 4147 
z
M 628 4666 
L 2241 4666 
Q 2963 4666 3353 4366 
Q 3744 4066 3744 3513 
Q 3744 3084 3544 2831 
Q 3344 2578 2956 2516 
Q 3422 2416 3680 2098 
Q 3938 1781 3938 1306 
Q 3938 681 3513 340 
Q 3088 0 2303 0 
L 628 0 
L 628 4666 
z
" transform="scale(0.015625)"/>
       <path id="DejaVuSans-2f" d="M 1625 4666 
L 2156 4666 
L 531 -594 
L 0 -594 
L 1625 4666 
z
" transform="scale(0.015625)"/>
      </defs>
      <use xlink:href="#DejaVuSans-4c"/>
      <use xlink:href="#DejaVuSans-6f" x="53.962891"/>
      <use xlink:href="#DejaVuSans-67" x="115.144531"/>
      <use xlink:href="#DejaVuSans-20" x="178.621094"/>
      <use xlink:href="#DejaVuSans-70" x="210.408203"/>
      <use xlink:href="#DejaVuSans-6f" x="273.884766"/>
      <use xlink:href="#DejaVuSans-77" x="335.066406"/>
      <use xlink:href="#DejaVuSans-65" x="416.853516"/>
      <use xlink:href="#DejaVuSans-72" x="478.376953"/>
      <use xlink:href="#DejaVuSans-20" x="519.490234"/>
      <use xlink:href="#DejaVuSans-28" x="551.277344"/>
      <use xlink:href="#DejaVuSans-64" x="590.291016"/>
      <use xlink:href="#DejaVuSans-42" x="653.767578"/>
      <use xlink:href="#DejaVuSans-2f" x="722.371094"/>
      <use xlink:href="#DejaVuSans-48" x="756.0625"/>
      <use xlink:href="#DejaVuSans-7a" x="831.257812"/>
      <use xlink:href="#DejaVuSans-29" x="883.748047"/>
     </g>
    </g>
   </g>
   <g id="line2d_8">
    <path d="M 61.764497 69.634875 
L 61.988947 75.010681 
L 62.213396 66.941557 
L 62.437846 64.420452 
L 62.662296 70.104633 
L 62.886745 68.999775 
L 63.111195 61.506976 
L 63.335645 72.236554 
L 63.560095 69.587135 
L 64.008994 66.882376 
L 64.233444 72.525562 
L 64.457893 70.053195 
L 64.682343 64.21716 
L 64.906793 73.508574 
L 65.131242 65.161488 
L 65.580142 66.511399 
L 65.804591 74.220979 
L 66.029041 66.28968 
L 66.253491 64.06669 
L 66.477941 66.305698 
L 66.70239 66.730665 
L 66.92684 62.502934 
L 67.15129 74.515481 
L 67.375739 73.930078 
L 67.600189 68.131829 
L 67.824639 73.044502 
L 68.049088 73.205642 
L 68.273538 71.175048 
L 68.722438 69.059018 
L 68.946887 61.250749 
L 69.171337 69.672388 
L 69.395787 69.625618 
L 69.620236 62.533544 
L 69.844686 75.41818 
L 70.293585 67.66676 
L 70.518035 66.888719 
L 70.742485 78.439855 
L 70.966935 62.732541 
L 71.191384 66.013922 
L 71.415834 81.039874 
L 71.640284 56.345696 
L 71.864733 67.237072 
L 72.089183 72.174836 
L 72.313633 69.232565 
L 72.538082 80.231264 
L 72.762532 75.357995 
L 72.986982 67.172836 
L 73.211431 67.708359 
L 73.435881 67.814116 
L 73.660331 76.039309 
L 73.884781 78.156663 
L 74.10923 65.514333 
L 74.33368 61.302402 
L 74.55813 76.062953 
L 74.782579 77.473357 
L 75.231479 68.28562 
L 75.455928 75.403423 
L 75.680378 63.301622 
L 75.904828 73.565492 
L 76.129278 71.56532 
L 76.353727 74.109705 
L 76.578177 65.659118 
L 77.027076 71.867893 
L 77.251526 64.486736 
L 77.475976 63.90658 
L 77.700425 72.419228 
L 77.924875 65.362143 
L 78.373774 71.853269 
L 78.598224 62.696471 
L 79.047124 70.59016 
L 79.271573 67.180799 
L 79.496023 74.494431 
L 79.720473 88.191484 
L 79.944922 70.049133 
L 80.169372 62.576013 
L 80.393822 65.980072 
L 80.842721 78.825748 
L 81.067171 66.336412 
L 81.291621 70.424853 
L 81.51607 65.820733 
L 81.74052 74.761283 
L 81.96497 67.96831 
L 82.189419 65.990751 
L 82.413869 66.090885 
L 82.638319 68.69615 
L 82.862768 68.963011 
L 83.087218 70.588463 
L 83.536117 66.14561 
L 83.760567 66.704727 
L 84.209467 71.672486 
L 84.433916 77.166457 
L 84.658366 69.919556 
L 84.882816 72.287162 
L 85.107265 64.418523 
L 85.331715 66.019155 
L 85.556165 75.784199 
L 85.780614 69.295739 
L 86.005064 76.450034 
L 86.229514 66.898663 
L 86.453964 66.029226 
L 86.678413 67.835812 
L 86.902863 66.514931 
L 87.127313 62.986046 
L 87.351762 72.176988 
L 87.576212 76.066458 
L 87.800662 66.309579 
L 88.025111 64.767009 
L 88.249561 66.480913 
L 88.474011 70.609793 
L 88.69846 62.783697 
L 89.14736 70.986255 
L 89.37181 70.926059 
L 89.596259 68.981677 
L 89.820709 71.414438 
L 90.045159 70.224547 
L 90.494058 62.624137 
L 90.718508 71.340476 
L 91.167407 64.320618 
L 91.391857 65.985093 
L 91.616307 75.78621 
L 91.840756 75.109304 
L 92.065206 62.749744 
L 92.289656 66.837266 
L 92.514105 66.923938 
L 92.738555 64.35105 
L 92.963005 67.895087 
L 93.187454 78.42697 
L 93.411904 69.186997 
L 93.636354 80.025998 
L 93.860804 64.734355 
L 94.085253 63.245701 
L 94.309703 74.214022 
L 94.534153 69.938815 
L 94.758602 73.908085 
L 94.983052 72.094301 
L 95.431951 64.587884 
L 95.656401 66.450727 
L 95.880851 66.874203 
L 96.1053 69.020046 
L 96.32975 69.758367 
L 96.5542 66.388973 
L 96.77865 65.537245 
L 97.003099 63.874585 
L 97.227549 66.801471 
L 97.451999 74.380655 
L 97.676448 63.768528 
L 97.900898 69.387138 
L 98.125348 65.140601 
L 98.349797 75.234279 
L 98.798697 63.843413 
L 99.023147 60.1376 
L 99.247596 67.039895 
L 99.472046 78.193995 
L 99.920945 65.965184 
L 100.145395 66.061783 
L 100.369845 65.818431 
L 100.594294 59.800331 
L 100.818744 68.133557 
L 101.043194 68.881054 
L 101.267643 62.974229 
L 101.492093 70.785409 
L 101.716543 62.932619 
L 101.940993 63.532013 
L 102.165442 72.685517 
L 102.389892 63.898184 
L 102.614342 63.602708 
L 102.838791 64.517583 
L 103.287691 68.97617 
L 103.51214 61.022633 
L 103.73659 79.576641 
L 103.96104 66.059618 
L 104.18549 68.99833 
L 104.409939 75.740522 
L 104.858839 59.737885 
L 105.083288 64.020144 
L 105.307738 71.285972 
L 105.756637 63.50304 
L 105.981087 64.147356 
L 106.205537 67.439372 
L 106.429986 73.033576 
L 106.654436 71.845109 
L 106.878886 67.773969 
L 107.103336 70.660766 
L 107.327785 66.038108 
L 108.001134 68.359486 
L 108.225584 62.893983 
L 108.450034 75.026597 
L 108.674483 62.005188 
L 108.898933 64.779437 
L 109.123383 72.693234 
L 109.347833 72.531064 
L 109.572282 61.895905 
L 109.796732 63.913374 
L 110.021182 69.18097 
L 110.245631 60.09289 
L 110.694531 75.337399 
L 110.91898 63.538081 
L 111.36788 74.479567 
L 111.592329 64.090075 
L 111.816779 69.179729 
L 112.041229 78.048541 
L 112.265679 63.735456 
L 112.490128 64.327526 
L 112.714578 66.202255 
L 112.939028 65.816847 
L 113.163477 61.333225 
L 113.612377 70.860881 
L 113.836826 64.491798 
L 114.061276 61.41803 
L 114.285726 74.766779 
L 114.510176 67.038364 
L 114.734625 67.138933 
L 114.959075 63.4845 
L 115.407974 71.323162 
L 115.632424 66.550634 
L 115.856874 74.444266 
L 116.081323 64.201146 
L 116.530223 78.155693 
L 116.754673 67.716087 
L 116.979122 69.247169 
L 117.203572 66.033557 
L 117.428022 79.961155 
L 117.652471 31.527273 
L 117.876921 78.766438 
L 118.101371 65.874036 
L 118.32582 69.315952 
L 118.55027 67.751709 
L 118.77472 78.668796 
L 119.223619 64.669084 
L 119.448069 74.195902 
L 119.672519 67.10769 
L 119.896968 72.12234 
L 120.345868 64.260806 
L 120.570317 67.416084 
L 120.794767 68.123544 
L 121.019217 74.870247 
L 121.243666 62.195372 
L 121.468116 65.323835 
L 121.692566 71.493223 
L 122.141465 62.350787 
L 122.365915 66.483148 
L 122.590365 67.566282 
L 122.814814 65.678633 
L 123.039264 65.080918 
L 123.263714 80.835078 
L 123.712613 65.39405 
L 123.937063 76.576233 
L 124.385962 64.94871 
L 124.610412 76.682428 
L 124.834862 71.005584 
L 125.059311 62.006999 
L 125.283761 70.979105 
L 125.508211 65.571138 
L 125.73266 64.097922 
L 125.95711 75.20177 
L 126.18156 74.781572 
L 126.406009 66.544863 
L 126.630459 63.925205 
L 126.854909 77.032778 
L 127.079359 64.944301 
L 127.303808 71.767453 
L 127.752708 68.645321 
L 127.977157 68.657963 
L 128.201607 73.247029 
L 128.426057 70.344229 
L 128.650506 74.562217 
L 128.874956 75.236937 
L 129.323855 67.19392 
L 129.548305 66.157965 
L 129.997205 73.660272 
L 130.446104 62.807687 
L 130.895003 80.472701 
L 131.119453 72.284559 
L 131.343903 69.368704 
L 131.568352 82.106428 
L 131.792802 64.412945 
L 132.017252 72.226715 
L 132.466151 67.780673 
L 132.690601 66.792641 
L 132.915051 67.246368 
L 133.1395 75.733136 
L 133.36395 67.142981 
L 133.5884 66.275026 
L 133.812849 72.949229 
L 134.037299 67.470496 
L 134.261749 72.736541 
L 134.486198 72.049436 
L 134.710648 64.032942 
L 134.935098 70.435755 
L 135.159548 70.929663 
L 135.383997 70.104095 
L 135.832897 83.125509 
L 136.281796 64.587531 
L 136.730695 73.533394 
L 136.955145 80.382525 
L 137.179595 70.00842 
L 137.404045 73.763411 
L 137.628494 68.558785 
L 137.852944 77.495533 
L 138.077394 71.911613 
L 138.301843 69.526156 
L 138.750743 71.896613 
L 138.975192 76.228513 
L 139.424092 72.189794 
L 139.648542 71.828835 
L 139.872991 71.163393 
L 140.54634 81.019819 
L 140.77079 75.053215 
L 140.99524 81.189302 
L 141.219689 69.07796 
L 141.444139 70.308161 
L 141.668589 83.303797 
L 141.893038 74.686502 
L 142.117488 83.37728 
L 142.341938 73.598303 
L 142.566388 70.710232 
L 142.790837 73.186507 
L 143.015287 72.790673 
L 143.239737 68.507872 
L 143.464186 80.130672 
L 143.688636 81.693972 
L 143.913086 71.307841 
L 144.137535 71.733811 
L 144.361985 73.384635 
L 144.586435 77.029916 
L 144.810885 69.632125 
L 145.259784 76.398147 
L 145.484234 79.31698 
L 145.708683 76.952752 
L 145.933133 78.205617 
L 146.157583 77.085566 
L 146.382032 74.530323 
L 146.606482 70.215368 
L 146.830932 78.218654 
L 147.055381 74.064039 
L 147.279831 72.624139 
L 147.504281 72.992585 
L 147.728731 82.876741 
L 147.95318 80.680198 
L 148.17763 70.417928 
L 148.40208 74.535041 
L 148.626529 75.187681 
L 148.850979 72.738961 
L 149.075429 75.919244 
L 149.299878 85.869493 
L 149.524328 76.923254 
L 149.748778 85.428214 
L 149.973228 73.156716 
L 150.197677 71.986444 
L 150.422127 83.00229 
L 150.646577 78.050884 
L 150.871026 85.128123 
L 151.095476 82.750431 
L 151.319926 77.578276 
L 151.544375 74.969823 
L 151.768825 75.209706 
L 151.993275 76.198116 
L 152.217724 78.608727 
L 152.442174 79.497229 
L 152.666624 76.37081 
L 152.891074 74.88933 
L 153.115523 74.312696 
L 153.339973 76.606101 
L 153.564423 81.466087 
L 153.788872 73.777351 
L 154.013322 78.629659 
L 154.237772 74.965908 
L 154.462221 83.995045 
L 155.135571 69.954152 
L 155.58447 86.685449 
L 156.033369 76.309946 
L 156.482269 76.579993 
L 156.706718 69.794717 
L 156.931168 78.220062 
L 157.155618 79.535272 
L 157.380067 73.462925 
L 157.604517 79.263158 
L 157.828967 72.7026 
L 158.053417 73.853626 
L 158.277866 81.897983 
L 158.502316 73.791532 
L 158.726766 73.368615 
L 159.175665 76.057055 
L 159.400115 78.850855 
L 159.624564 71.361989 
L 159.849014 88.270261 
L 160.073464 76.033203 
L 160.297914 79.201693 
L 160.522363 84.591644 
L 160.971263 69.64908 
L 161.420162 80.199495 
L 161.644612 78.190339 
L 161.869061 73.379775 
L 162.093511 74.105801 
L 162.317961 77.175174 
L 162.542411 82.852546 
L 162.76686 81.546677 
L 162.99131 78.30056 
L 163.21576 80.433699 
L 163.440209 75.914339 
L 163.664659 76.028774 
L 163.889109 77.540625 
L 164.113558 78.277484 
L 164.338008 72.448509 
L 164.562458 85.443324 
L 164.786907 71.497751 
L 165.011357 74.228275 
L 165.235807 82.614935 
L 165.460257 82.304438 
L 165.684706 71.390154 
L 165.909156 73.321373 
L 166.133606 78.233338 
L 166.358055 69.281744 
L 166.806955 83.857854 
L 167.031404 72.47816 
L 167.480304 83.829627 
L 167.704754 72.868883 
L 167.929203 78.353823 
L 168.153653 87.565553 
L 168.378103 72.579905 
L 168.602552 73.213424 
L 168.827002 74.794023 
L 169.051452 74.447489 
L 169.275901 70.004832 
L 169.724801 80.272144 
L 169.94925 73.35463 
L 170.1737 70.262386 
L 170.39815 82.471896 
L 170.6226 75.927246 
L 170.847049 75.300933 
L 171.071499 72.03619 
L 171.520398 79.297294 
L 171.744848 74.744486 
L 171.969298 81.172489 
L 172.193747 72.436297 
L 172.642647 86.147676 
L 172.867097 75.594413 
L 173.091546 76.810874 
L 173.315996 74.072845 
L 173.540446 86.811152 
L 173.764895 39.414 
L 173.989345 86.811291 
L 174.213795 73.849017 
L 174.438244 76.460989 
L 174.662694 75.138351 
L 174.887144 87.442453 
L 175.336043 72.210064 
L 175.560493 82.464171 
L 175.784943 74.614063 
L 176.009392 78.645257 
L 176.458292 71.541311 
L 176.682741 74.847288 
L 176.907191 75.551099 
L 177.131641 82.195844 
L 177.35609 69.557582 
L 177.58054 72.705701 
L 177.80499 78.942119 
L 178.253889 69.484688 
L 178.478339 73.92621 
L 178.702789 74.633317 
L 178.927238 72.647112 
L 179.151688 71.872259 
L 179.376138 86.829903 
L 179.825037 72.158621 
L 180.049487 82.410169 
L 180.498386 71.763786 
L 180.722836 84.189484 
L 181.171735 68.277194 
L 181.396185 77.873146 
L 181.620635 72.413387 
L 181.845084 70.447852 
L 182.069534 81.864292 
L 182.293984 81.808406 
L 182.518433 73.053547 
L 182.742883 70.355726 
L 182.967333 84.190989 
L 183.191783 71.341477 
L 183.416232 77.536641 
L 184.089581 75.020907 
L 184.314031 79.610763 
L 184.538481 76.47778 
L 184.76293 80.52844 
L 184.98738 81.437204 
L 185.43628 73.16203 
L 185.660729 72.183157 
L 186.109629 79.672079 
L 186.558528 68.694673 
L 187.007427 84.22077 
L 187.231877 77.628307 
L 187.456327 75.035619 
L 187.680776 87.292589 
L 187.905226 70.150077 
L 188.129676 77.45995 
L 188.803025 72.43863 
L 189.027475 73.084013 
L 189.251924 80.758421 
L 189.476374 73.045343 
L 189.700824 71.771495 
L 189.925273 78.733132 
L 190.149723 72.649227 
L 190.374173 78.503744 
L 190.598623 77.685561 
L 190.823072 69.360336 
L 191.047522 75.95149 
L 191.271972 75.602811 
L 191.496421 75.784202 
L 191.945321 87.650447 
L 192.39422 69.874738 
L 192.843119 78.555271 
L 193.067569 84.576909 
L 193.292019 75.017461 
L 193.516469 79.123833 
L 193.740918 73.810112 
L 193.965368 81.763524 
L 194.189818 76.738914 
L 194.414267 74.711281 
L 194.863167 76.855805 
L 195.087616 80.1747 
L 195.312066 79.164816 
L 195.536516 77.132306 
L 195.760966 76.657377 
L 195.985415 75.722157 
L 195.985415 75.722157 
" clip-path="url(#pa3137bb3f0)" style="fill: none; stroke: #808080; stroke-width: 0.8; stroke-linecap: square"/>
   </g>
   <g id="line2d_9">
    <path d="M 61.764497 71.035761 
L 62.213396 67.08818 
L 62.437846 67.925926 
L 62.662296 69.85476 
L 62.886745 70.024038 
L 63.111195 64.439358 
L 63.335645 75.52123 
L 63.560095 67.48686 
L 63.784544 72.146956 
L 64.008994 65.543473 
L 64.233444 71.549614 
L 64.457893 66.658173 
L 64.682343 67.392571 
L 64.906793 75.79478 
L 65.131242 68.222259 
L 65.355692 72.19136 
L 65.580142 68.405407 
L 65.804591 72.257646 
L 66.029041 79.167313 
L 66.253491 66.388642 
L 66.477941 72.580682 
L 66.70239 73.710279 
L 66.92684 67.269046 
L 67.15129 77.073466 
L 67.375739 77.249494 
L 67.600189 93.141547 
L 67.824639 72.89514 
L 68.049088 77.148216 
L 68.497988 72.568759 
L 68.722438 74.515446 
L 68.946887 69.767425 
L 69.171337 71.993725 
L 69.395787 75.344202 
L 69.620236 69.710269 
L 69.844686 77.906611 
L 70.069136 76.811306 
L 70.293585 83.772825 
L 70.518035 71.788413 
L 70.742485 88.707811 
L 70.966935 68.580218 
L 71.415834 69.984195 
L 71.640284 55.559141 
L 71.864733 73.827614 
L 72.089183 80.100776 
L 72.313633 79.396872 
L 72.538082 79.82042 
L 72.762532 72.293028 
L 72.986982 73.712385 
L 73.211431 83.370325 
L 73.435881 78.525725 
L 73.660331 76.722063 
L 73.884781 77.153295 
L 74.10923 77.1688 
L 74.33368 73.202027 
L 74.55813 78.012952 
L 74.782579 80.096859 
L 75.007029 72.407591 
L 75.231479 84.893358 
L 75.455928 79.370163 
L 75.680378 80.26787 
L 75.904828 81.71536 
L 76.353727 71.075705 
L 76.578177 87.595876 
L 76.802627 76.845659 
L 77.027076 78.357084 
L 77.475976 73.966448 
L 77.700425 78.22155 
L 77.924875 78.571292 
L 78.149325 75.834874 
L 78.373774 82.330416 
L 78.822674 76.8527 
L 79.047124 77.472151 
L 79.271573 80.725431 
L 79.496023 79.654566 
L 79.720473 77.974599 
L 80.169372 83.833574 
L 80.393822 77.517392 
L 80.618271 89.645162 
L 80.842721 86.872645 
L 81.067171 79.809435 
L 81.291621 82.623998 
L 81.74052 83.727091 
L 81.96497 84.52452 
L 82.189419 94.408895 
L 82.413869 78.000044 
L 82.638319 89.482275 
L 82.862768 76.432007 
L 83.311668 84.635545 
L 83.536117 79.634431 
L 83.760567 88.357814 
L 83.985017 81.436518 
L 84.209467 80.554755 
L 84.433916 98.51957 
L 84.882816 76.233595 
L 85.107265 86.105068 
L 85.331715 81.782513 
L 85.556165 80.968952 
L 85.780614 82.598544 
L 86.005064 85.323755 
L 86.229514 80.634588 
L 86.453964 83.006012 
L 86.678413 91.386767 
L 86.902863 82.539108 
L 87.127313 89.101672 
L 87.351762 81.593944 
L 87.576212 89.771429 
L 87.800662 78.753779 
L 88.025111 83.378151 
L 88.249561 83.754139 
L 88.474011 88.96387 
L 88.69846 84.821269 
L 88.92291 89.246797 
L 89.14736 83.648066 
L 89.37181 88.469798 
L 89.596259 84.453116 
L 89.820709 97.292625 
L 90.045159 82.687742 
L 90.494058 88.259061 
L 90.718508 80.777882 
L 90.942957 82.04435 
L 91.391857 81.92736 
L 91.616307 88.104926 
L 91.840756 90.777539 
L 92.065206 83.984654 
L 92.514105 91.432907 
L 92.738555 89.577844 
L 92.963005 85.996559 
L 93.187454 95.785453 
L 93.411904 86.263847 
L 93.636354 87.423257 
L 93.860804 80.897155 
L 94.085253 87.392157 
L 94.309703 86.692188 
L 94.534153 90.297268 
L 94.758602 83.618803 
L 94.983052 86.964973 
L 95.207502 87.547008 
L 95.431951 81.081865 
L 95.656401 86.130014 
L 95.880851 101.048242 
L 96.1053 84.608662 
L 96.32975 88.865084 
L 96.5542 86.58499 
L 96.77865 87.360126 
L 97.003099 79.190766 
L 97.227549 93.334396 
L 97.451999 82.088178 
L 97.676448 82.276546 
L 97.900898 98.651806 
L 98.125348 101.638869 
L 98.349797 94.982511 
L 98.798697 88.483887 
L 99.023147 90.176029 
L 99.247596 87.929229 
L 99.472046 83.500574 
L 99.696496 92.949053 
L 99.920945 85.450391 
L 100.145395 90.722027 
L 100.369845 84.019281 
L 100.594294 98.875345 
L 100.818744 89.465549 
L 101.043194 91.443704 
L 101.492093 81.014694 
L 101.940993 87.680784 
L 102.165442 90.257205 
L 102.389892 90.961676 
L 102.614342 86.475203 
L 102.838791 98.863402 
L 103.063241 88.279912 
L 103.287691 85.432142 
L 103.51214 96.757877 
L 103.73659 89.331473 
L 103.96104 109.657489 
L 104.18549 93.60569 
L 104.409939 85.99077 
L 104.634389 102.868199 
L 104.858839 96.776019 
L 105.083288 102.557434 
L 105.307738 92.286765 
L 105.532188 93.468244 
L 105.756637 86.023956 
L 105.981087 89.415036 
L 106.205537 90.583779 
L 106.429986 93.158656 
L 106.654436 84.942927 
L 106.878886 98.71539 
L 107.103336 101.79384 
L 107.327785 91.921868 
L 107.552235 89.254553 
L 107.776685 93.156853 
L 108.001134 84.705546 
L 108.225584 83.605979 
L 108.450034 94.981694 
L 108.674483 88.736762 
L 109.123383 92.750652 
L 109.347833 89.965184 
L 109.572282 85.775976 
L 109.796732 92.052476 
L 110.021182 91.637356 
L 110.245631 90.233266 
L 110.470081 99.648725 
L 110.694531 101.030824 
L 110.91898 91.071203 
L 111.14343 103.709068 
L 111.592329 83.862156 
L 111.816779 97.011515 
L 112.041229 92.574505 
L 112.265679 101.487515 
L 112.714578 91.913565 
L 112.939028 92.436819 
L 113.163477 104.387412 
L 113.387927 88.041548 
L 113.612377 93.923971 
L 113.836826 95.787823 
L 114.061276 91.171335 
L 114.285726 93.327151 
L 114.510176 87.167576 
L 114.734625 88.960912 
L 114.959075 94.105944 
L 115.183525 85.915441 
L 115.407974 88.542856 
L 115.632424 101.128694 
L 115.856874 93.033535 
L 116.081323 89.721074 
L 116.305773 103.359934 
L 116.530223 92.343637 
L 116.754673 91.112178 
L 116.979122 89.032748 
L 117.203572 107.22945 
L 117.428022 90.516492 
L 117.876921 94.878053 
L 118.101371 89.705317 
L 118.32582 91.35518 
L 118.55027 89.996169 
L 118.77472 93.882011 
L 118.999169 88.361241 
L 119.223619 94.381416 
L 119.448069 92.897037 
L 119.672519 102.213947 
L 119.896968 93.207649 
L 120.121418 89.126419 
L 120.345868 96.919881 
L 120.570317 98.444204 
L 120.794767 96.199396 
L 121.019217 89.034187 
L 121.243666 87.175387 
L 121.468116 93.423604 
L 121.692566 95.944797 
L 121.917016 89.436597 
L 122.141465 101.452682 
L 122.365915 89.13693 
L 122.590365 92.935795 
L 122.814814 93.458647 
L 123.039264 96.341324 
L 123.263714 94.273854 
L 123.488163 96.445765 
L 123.712613 96.119188 
L 123.937063 96.967919 
L 124.161512 104.107989 
L 124.385962 102.294719 
L 124.610412 102.24303 
L 125.059311 86.340276 
L 125.283761 92.720031 
L 125.508211 93.797945 
L 125.73266 93.901735 
L 125.95711 99.254484 
L 126.18156 91.973562 
L 126.406009 97.054697 
L 126.630459 113.390742 
L 126.854909 101.265405 
L 127.303808 93.109664 
L 127.528258 99.865168 
L 127.752708 94.940645 
L 127.977157 92.633842 
L 128.426057 107.889177 
L 128.650506 92.075257 
L 128.874956 96.713204 
L 129.099406 103.996006 
L 129.323855 102.886186 
L 129.772755 99.536499 
L 129.997205 90.853988 
L 130.221654 95.456889 
L 130.446104 92.02078 
L 130.670554 97.07196 
L 130.895003 88.279454 
L 131.343903 102.198674 
L 131.568352 103.393485 
L 131.792802 101.613855 
L 132.017252 93.02313 
L 132.241702 102.349769 
L 132.466151 91.517582 
L 132.690601 94.271258 
L 132.915051 94.253664 
L 133.1395 104.912934 
L 133.36395 95.017752 
L 133.5884 98.128186 
L 134.037299 91.871337 
L 134.486198 104.827578 
L 134.710648 92.534604 
L 134.935098 105.858334 
L 135.159548 90.217192 
L 135.383997 94.205959 
L 135.608447 94.447725 
L 135.832897 91.658048 
L 136.057346 106.999423 
L 136.281796 98.287744 
L 136.506246 100.491871 
L 136.730695 95.413881 
L 136.955145 94.973821 
L 137.179595 105.685293 
L 137.404045 92.43793 
L 137.628494 105.182263 
L 138.077394 90.993715 
L 138.301843 100.764625 
L 138.526293 95.610813 
L 138.750743 104.342138 
L 138.975192 91.46141 
L 139.199642 97.143112 
L 139.424092 107.968871 
L 139.648542 97.569182 
L 139.872991 92.793317 
L 140.097441 98.338855 
L 140.321891 93.567989 
L 140.54634 97.967975 
L 140.77079 95.525781 
L 140.99524 95.306679 
L 141.219689 95.277315 
L 141.444139 97.220556 
L 141.668589 94.84101 
L 141.893038 106.895576 
L 142.117488 93.439845 
L 142.566388 108.635828 
L 143.015287 103.780659 
L 143.239737 98.389074 
L 143.464186 97.883513 
L 143.688636 100.167521 
L 143.913086 94.523449 
L 144.137535 94.922985 
L 144.361985 99.92381 
L 144.586435 93.864509 
L 144.810885 95.773474 
L 145.035334 95.301071 
L 145.259784 97.008655 
L 145.484234 93.267745 
L 145.933133 98.925855 
L 146.157583 107.475633 
L 146.382032 99.755352 
L 146.606482 98.412576 
L 146.830932 99.088495 
L 147.279831 106.652562 
L 147.504281 100.312274 
L 147.728731 110.171919 
L 147.95318 93.944968 
L 148.17763 94.300885 
L 148.40208 95.112552 
L 148.850979 104.049346 
L 149.299878 102.679251 
L 149.524328 96.400431 
L 149.748778 96.196812 
L 149.973228 96.549742 
L 150.197677 96.196274 
L 150.422127 93.421117 
L 150.871026 109.938963 
L 151.095476 94.638211 
L 151.319926 96.502903 
L 151.544375 95.389083 
L 151.768825 102.474369 
L 151.993275 103.973646 
L 152.217724 95.333771 
L 152.442174 98.534242 
L 152.666624 95.149437 
L 152.891074 96.936268 
L 153.115523 100.693701 
L 153.339973 97.840567 
L 153.564423 105.539151 
L 153.788872 96.659704 
L 154.013322 98.551466 
L 154.237772 96.202424 
L 154.462221 97.842437 
L 154.686671 108.22837 
L 154.911121 103.311074 
L 155.135571 101.30461 
L 155.36002 103.8742 
L 155.58447 108.15306 
L 155.80892 97.375716 
L 156.033369 103.001996 
L 156.257819 99.747611 
L 156.482269 99.602951 
L 156.706718 101.645721 
L 156.931168 108.074702 
L 157.155618 101.465794 
L 157.380067 110.465771 
L 157.828967 97.077269 
L 158.277866 107.279445 
L 158.502316 104.132421 
L 158.951215 96.221001 
L 159.400115 101.920276 
L 159.624564 95.368442 
L 159.849014 105.826752 
L 160.073464 105.993299 
L 160.297914 103.233711 
L 160.522363 103.679358 
L 160.746813 95.18723 
L 161.195712 103.360817 
L 161.420162 98.843449 
L 161.644612 101.181547 
L 161.869061 102.002145 
L 162.093511 99.40575 
L 162.317961 98.107445 
L 162.76686 106.148843 
L 162.99131 95.451754 
L 163.21576 111.502611 
L 163.440209 110.556715 
L 163.889109 98.89854 
L 164.113558 99.967481 
L 164.338008 106.945493 
L 164.786907 98.353055 
L 165.011357 99.6508 
L 165.235807 107.909332 
L 165.684706 97.517097 
L 165.909156 101.965893 
L 166.133606 101.782768 
L 166.358055 103.044399 
L 166.582505 98.356971 
L 166.806955 105.490751 
L 167.031404 107.009438 
L 167.255854 110.143753 
L 167.704754 101.796794 
L 167.929203 101.754313 
L 168.378103 110.666255 
L 168.827002 96.20853 
L 169.051452 103.749007 
L 169.275901 107.03472 
L 169.500351 99.856652 
L 169.724801 96.682643 
L 169.94925 98.913042 
L 170.1737 98.976737 
L 170.39815 108.75299 
L 170.6226 108.248871 
L 170.847049 110.872486 
L 171.071499 111.077701 
L 171.295949 99.040858 
L 171.520398 105.512925 
L 171.969298 94.637274 
L 172.418197 109.120909 
L 172.642647 103.32243 
L 172.867097 104.132726 
L 173.091546 111.919694 
L 173.315996 99.616483 
L 173.764895 96.855868 
L 173.989345 107.604717 
L 174.438244 100.303162 
L 174.662694 101.961438 
L 174.887144 101.346179 
L 175.111593 102.935971 
L 175.336043 102.45359 
L 175.560493 100.513786 
L 175.784943 102.406938 
L 176.009392 96.31459 
L 176.233842 108.728869 
L 176.458292 100.043991 
L 176.682741 106.079928 
L 176.907191 103.920413 
L 177.131641 99.916044 
L 177.35609 102.835002 
L 177.58054 110.88193 
L 177.80499 103.913431 
L 178.02944 105.156052 
L 178.253889 115.025369 
L 178.478339 110.377513 
L 178.702789 100.085434 
L 178.927238 114.837392 
L 179.151688 105.29816 
L 179.376138 112.08433 
L 179.600587 104.034496 
L 179.825037 104.008486 
L 180.049487 98.419306 
L 180.273936 100.869551 
L 180.498386 106.121434 
L 180.722836 101.13377 
L 180.947286 101.730765 
L 181.171735 100.397074 
L 181.396185 104.227421 
L 181.620635 96.680396 
L 181.845084 105.205334 
L 182.069534 98.842211 
L 182.293984 103.692085 
L 182.518433 105.126463 
L 182.742883 96.369686 
L 182.967333 105.013788 
L 183.191783 99.439063 
L 183.640682 113.097412 
L 183.865132 112.216897 
L 184.314031 100.907989 
L 184.538481 116.470017 
L 184.76293 102.830282 
L 184.98738 103.109877 
L 185.21183 95.641873 
L 185.43628 107.615954 
L 185.660729 106.83615 
L 185.885179 105.145161 
L 186.109629 102.128398 
L 186.334078 106.209341 
L 186.558528 97.63916 
L 187.007427 107.668929 
L 187.231877 99.130539 
L 187.456327 102.778873 
L 187.680776 103.941182 
L 187.905226 116.686012 
L 188.354126 103.103566 
L 188.803025 107.157882 
L 189.027475 101.890867 
L 189.251924 100.16743 
L 189.476374 99.983542 
L 189.700824 99.578859 
L 189.925273 120.429944 
L 190.149723 101.050554 
L 190.374173 102.193606 
L 190.598623 101.809479 
L 190.823072 101.888853 
L 191.047522 102.953609 
L 191.496421 100.517839 
L 191.720871 101.210483 
L 192.16977 107.144141 
L 192.39422 114.033801 
L 192.61867 102.530546 
L 192.843119 110.320259 
L 193.067569 109.779526 
L 193.292019 100.078003 
L 193.516469 111.558538 
L 193.740918 102.788262 
L 193.965368 103.35159 
L 194.189818 108.874471 
L 194.414267 105.966808 
L 194.638717 106.592377 
L 194.863167 102.175561 
L 195.087616 106.215574 
L 195.312066 101.404762 
L 195.536516 102.871303 
L 195.760966 106.536491 
L 195.985415 104.697923 
L 195.985415 104.697923 
" clip-path="url(#pa3137bb3f0)" style="fill: none; stroke: #1e90ff; stroke-width: 0.8; stroke-linecap: square"/>
   </g>
   <g id="line2d_10">
    <path d="M 61.764497 70.796043 
L 62.213396 66.938776 
L 62.437846 67.608088 
L 62.662296 69.685659 
L 62.886745 69.812303 
L 63.111195 64.400228 
L 63.335645 76.029401 
L 63.560095 67.266051 
L 63.784544 71.898704 
L 64.008994 65.37298 
L 64.233444 71.152798 
L 64.457893 66.524269 
L 64.682343 67.408511 
L 64.906793 75.925539 
L 65.131242 67.894541 
L 65.355692 72.170156 
L 65.580142 68.352089 
L 65.804591 71.841403 
L 66.029041 78.717016 
L 66.253491 66.330711 
L 66.477941 72.652256 
L 66.70239 73.901057 
L 66.92684 67.181415 
L 67.15129 76.932724 
L 67.375739 77.213991 
L 67.600189 88.982459 
L 67.824639 72.995123 
L 68.049088 76.926626 
L 68.497988 72.698822 
L 68.722438 74.544634 
L 68.946887 69.647956 
L 69.395787 75.357818 
L 69.620236 69.588593 
L 69.844686 77.606591 
L 70.069136 76.764372 
L 70.293585 83.802978 
L 70.518035 71.5772 
L 70.742485 88.186069 
L 70.966935 68.657875 
L 71.191384 69.650121 
L 71.415834 70.106465 
L 71.640284 55.608809 
L 71.864733 73.569684 
L 72.089183 79.992734 
L 72.313633 79.771858 
L 72.538082 80.078235 
L 72.762532 72.4328 
L 72.986982 73.802135 
L 73.211431 84.368814 
L 73.435881 78.097647 
L 73.660331 76.717192 
L 73.884781 77.175125 
L 74.10923 77.351431 
L 74.33368 73.468603 
L 74.55813 78.112506 
L 74.782579 79.370886 
L 75.007029 72.816999 
L 75.231479 83.374094 
L 75.455928 79.744097 
L 75.904828 82.343609 
L 76.353727 70.987142 
L 76.578177 88.350549 
L 76.802627 76.943326 
L 77.027076 78.327241 
L 77.475976 74.414918 
L 77.700425 79.257586 
L 77.924875 78.870587 
L 78.149325 75.874435 
L 78.373774 82.663889 
L 78.822674 77.077409 
L 79.047124 77.515194 
L 79.271573 81.550389 
L 79.496023 80.760633 
L 79.720473 78.479147 
L 79.944922 80.723403 
L 80.169372 85.68681 
L 80.393822 77.455169 
L 80.618271 92.815803 
L 81.067171 79.718009 
L 81.51607 83.464563 
L 81.74052 83.701306 
L 81.96497 86.589018 
L 82.189419 100.992347 
L 82.413869 78.593561 
L 82.638319 88.615349 
L 82.862768 77.141108 
L 83.311668 85.023899 
L 83.536117 79.867719 
L 83.760567 86.295072 
L 83.985017 82.537016 
L 84.209467 81.373683 
L 84.433916 95.181264 
L 84.658366 83.018252 
L 84.882816 77.530997 
L 85.107265 85.802229 
L 85.331715 81.549217 
L 85.556165 81.728714 
L 85.780614 83.323076 
L 86.005064 86.393419 
L 86.229514 81.341009 
L 86.453964 84.814916 
L 86.678413 95.336986 
L 86.902863 83.731202 
L 87.127313 93.497261 
L 87.351762 81.922054 
L 87.576212 92.283264 
L 87.800662 79.852289 
L 88.025111 84.858461 
L 88.249561 83.913441 
L 88.474011 89.461475 
L 88.69846 85.72616 
L 88.92291 90.050105 
L 89.14736 83.955238 
L 89.37181 87.607253 
L 89.596259 84.185828 
L 89.820709 110.149844 
L 90.045159 86.556408 
L 90.269608 83.794387 
L 90.494058 89.428698 
L 90.718508 81.736664 
L 90.942957 83.56768 
L 91.167407 83.084459 
L 91.391857 84.259292 
L 91.616307 88.276671 
L 91.840756 89.686108 
L 92.065206 86.613598 
L 92.289656 93.708402 
L 92.514105 92.282644 
L 92.738555 89.068939 
L 92.963005 89.119087 
L 93.187454 92.854325 
L 93.411904 87.641132 
L 93.636354 86.992888 
L 93.860804 81.268858 
L 94.085253 85.434913 
L 94.309703 86.160436 
L 94.534153 92.071122 
L 94.758602 86.564944 
L 94.983052 85.760004 
L 95.207502 89.556789 
L 95.431951 80.499031 
L 95.880851 98.554819 
L 96.1053 88.490292 
L 96.32975 89.630428 
L 96.5542 87.278317 
L 96.77865 87.452337 
L 97.003099 80.505252 
L 97.227549 101.435699 
L 97.451999 84.118081 
L 97.676448 84.409039 
L 97.900898 94.317085 
L 98.125348 95.537331 
L 98.349797 104.503582 
L 98.798697 87.52286 
L 99.023147 89.91887 
L 99.247596 88.98873 
L 99.472046 86.092759 
L 99.696496 91.822844 
L 99.920945 90.238647 
L 100.145395 89.811992 
L 100.369845 86.342895 
L 100.594294 95.627372 
L 100.818744 91.423413 
L 101.043194 89.869128 
L 101.492093 83.248335 
L 101.716543 89.195219 
L 101.940993 86.87737 
L 102.165442 92.171171 
L 102.389892 109.924342 
L 102.614342 91.043927 
L 102.838791 99.054492 
L 103.287691 90.84492 
L 103.51214 98.00296 
L 103.73659 88.714207 
L 103.96104 98.634692 
L 104.409939 87.400553 
L 104.634389 99.290073 
L 104.858839 92.958127 
L 105.083288 96.620649 
L 105.307738 94.280778 
L 105.532188 95.930765 
L 105.756637 88.761352 
L 105.981087 87.921962 
L 106.429986 100.568834 
L 106.654436 86.516246 
L 106.878886 95.460999 
L 107.103336 99.4552 
L 107.327785 92.966732 
L 107.552235 89.850713 
L 107.776685 93.189558 
L 108.001134 88.63877 
L 108.225584 87.625595 
L 108.450034 99.440392 
L 108.674483 93.263834 
L 108.898933 93.812469 
L 109.123383 96.589202 
L 109.347833 92.463169 
L 109.572282 91.020771 
L 110.245631 97.818413 
L 110.470081 92.476147 
L 110.694531 101.547904 
L 110.91898 95.138781 
L 111.14343 98.31983 
L 111.36788 97.4584 
L 111.592329 88.440066 
L 111.816779 94.429384 
L 112.041229 96.587574 
L 112.265679 101.869485 
L 112.490128 94.44228 
L 112.714578 95.638753 
L 112.939028 94.990163 
L 113.163477 100.177029 
L 113.387927 87.230572 
L 113.612377 94.428989 
L 113.836826 94.110914 
L 114.061276 89.97217 
L 114.285726 94.127446 
L 114.510176 89.142459 
L 114.734625 94.774275 
L 114.959075 91.101505 
L 115.183525 91.130103 
L 115.407974 99.558975 
L 115.632424 102.369416 
L 115.856874 93.333313 
L 116.081323 97.335987 
L 116.305773 94.866156 
L 116.530223 95.582091 
L 116.754673 91.341915 
L 116.979122 98.460591 
L 117.428022 94.501227 
L 117.652471 77.551352 
L 117.876921 93.621558 
L 118.32582 93.960075 
L 118.55027 90.923562 
L 118.77472 99.80048 
L 118.999169 89.854279 
L 119.448069 96.999745 
L 119.672519 112.063445 
L 119.896968 95.477679 
L 120.121418 92.861014 
L 120.345868 97.856007 
L 120.570317 91.82558 
L 120.794767 96.498219 
L 121.019217 90.880558 
L 121.243666 92.628787 
L 121.468116 96.075635 
L 121.692566 92.409394 
L 121.917016 95.574528 
L 122.141465 95.439737 
L 122.365915 89.635084 
L 122.590365 101.758746 
L 122.814814 94.589356 
L 123.039264 104.120285 
L 123.263714 96.633053 
L 123.488163 109.172097 
L 123.712613 95.098707 
L 123.937063 92.276358 
L 124.161512 100.202862 
L 124.385962 97.957816 
L 124.610412 100.048155 
L 124.834862 99.019013 
L 125.059311 95.726112 
L 125.283761 95.714008 
L 125.508211 96.288501 
L 125.73266 98.758059 
L 125.95711 102.965978 
L 126.18156 96.497945 
L 126.406009 93.331795 
L 126.630459 103.922942 
L 126.854909 107.477983 
L 127.303808 92.590733 
L 127.528258 92.40865 
L 127.752708 81.368122 
L 127.977157 97.584018 
L 128.201607 101.615543 
L 128.426057 124.472727 
L 128.650506 92.814706 
L 128.874956 92.730983 
L 129.323855 96.858778 
L 129.548305 95.232146 
L 129.772755 99.54776 
L 129.997205 98.027545 
L 130.221654 100.193173 
L 130.446104 95.124468 
L 130.670554 102.532751 
L 130.895003 94.036113 
L 131.119453 92.534441 
L 131.343903 94.998991 
L 131.568352 104.691736 
L 131.792802 99.421046 
L 132.017252 99.117387 
L 132.241702 97.271483 
L 132.466151 90.754327 
L 132.690601 107.254023 
L 132.915051 105.150809 
L 133.1395 101.451627 
L 133.36395 91.424239 
L 133.5884 96.234812 
L 133.812849 91.666769 
L 134.037299 95.748395 
L 134.261749 97.112848 
L 134.486198 95.989879 
L 134.710648 97.654836 
L 134.935098 92.327477 
L 135.159548 93.276743 
L 135.383997 97.024624 
L 135.608447 92.449952 
L 135.832897 91.358796 
L 136.057346 109.269571 
L 136.281796 98.772439 
L 136.506246 97.29634 
L 136.730695 99.278824 
L 136.955145 102.857107 
L 137.179595 98.102676 
L 137.404045 117.16952 
L 137.628494 94.44251 
L 137.852944 93.93568 
L 138.301843 96.922288 
L 138.526293 96.149581 
L 138.750743 95.812114 
L 139.199642 104.556068 
L 139.424092 96.526234 
L 139.648542 99.901715 
L 139.872991 93.18 
L 140.097441 103.046187 
L 140.321891 95.685677 
L 140.54634 95.312243 
L 140.77079 99.385695 
L 140.99524 95.418965 
L 141.219689 99.211233 
L 141.444139 99.324479 
L 141.668589 104.066168 
L 141.893038 98.234212 
L 142.117488 95.463992 
L 142.341938 102.958288 
L 142.566388 103.633833 
L 142.790837 102.951995 
L 143.015287 98.565377 
L 143.239737 98.48285 
L 143.688636 102.344923 
L 143.913086 102.059969 
L 144.137535 91.823497 
L 144.361985 109.291875 
L 144.586435 99.966224 
L 144.810885 100.063512 
L 145.035334 99.738755 
L 145.259784 106.642062 
L 145.484234 105.057854 
L 145.933133 97.059275 
L 146.157583 96.961734 
L 146.382032 101.616994 
L 146.606482 96.382832 
L 146.830932 103.521463 
L 147.055381 102.47756 
L 147.279831 94.324958 
L 147.728731 99.951842 
L 147.95318 95.317859 
L 148.17763 100.013482 
L 148.40208 98.529864 
L 148.626529 105.785937 
L 148.850979 99.08111 
L 149.299878 96.918166 
L 149.524328 101.489081 
L 149.748778 99.492355 
L 149.973228 99.342651 
L 150.422127 95.679997 
L 150.646577 103.334047 
L 150.871026 97.724976 
L 151.095476 102.860643 
L 151.319926 97.362334 
L 151.544375 99.951109 
L 151.768825 104.762934 
L 152.217724 97.636738 
L 152.666624 100.280999 
L 152.891074 95.055885 
L 153.564423 101.393074 
L 153.788872 100.807452 
L 154.237772 97.052744 
L 154.462221 99.735417 
L 154.686671 108.534104 
L 154.911121 95.346096 
L 155.135571 99.008171 
L 155.36002 96.632813 
L 155.58447 98.740954 
L 155.80892 105.19876 
L 156.033369 96.16733 
L 156.257819 97.090183 
L 156.482269 93.070278 
L 156.931168 102.599219 
L 157.380067 93.295072 
L 157.604517 95.261262 
L 157.828967 93.747469 
L 158.053417 94.390846 
L 158.277866 94.145666 
L 158.502316 105.257736 
L 158.951215 92.700809 
L 159.175665 101.905007 
L 159.400115 104.422525 
L 159.624564 95.3494 
L 159.849014 102.940513 
L 160.073464 102.570157 
L 160.297914 101.463619 
L 160.522363 97.792034 
L 160.746813 99.260008 
L 160.971263 94.863082 
L 161.195712 102.359685 
L 161.420162 97.894405 
L 161.644612 98.311178 
L 161.869061 95.290602 
L 162.093511 106.423227 
L 162.317961 95.053859 
L 162.542411 98.538254 
L 162.76686 95.261117 
L 162.99131 104.756117 
L 163.21576 96.892013 
L 163.440209 98.028652 
L 163.664659 84.044364 
L 163.889109 96.462085 
L 164.113558 93.655396 
L 164.338008 101.997038 
L 164.562458 101.072834 
L 165.011357 95.796857 
L 165.235807 96.4726 
L 165.460257 96.669983 
L 165.684706 101.578556 
L 165.909156 102.927754 
L 166.133606 102.885578 
L 166.358055 103.931063 
L 166.582505 103.725669 
L 166.806955 102.202095 
L 167.031404 94.94459 
L 167.255854 95.55312 
L 167.480304 100.887206 
L 167.704754 99.462368 
L 167.929203 100.825039 
L 168.153653 105.797825 
L 168.378103 107.592049 
L 168.602552 100.578113 
L 168.827002 97.410181 
L 169.051452 101.290109 
L 169.275901 109.946455 
L 169.500351 99.64932 
L 169.724801 99.367695 
L 169.94925 96.080163 
L 170.1737 99.866488 
L 170.39815 94.955743 
L 170.6226 96.153621 
L 170.847049 96.410534 
L 171.071499 99.334376 
L 171.295949 109.752009 
L 171.520398 96.919435 
L 171.744848 103.228205 
L 171.969298 104.344809 
L 172.193747 96.586912 
L 172.642647 103.159825 
L 172.867097 97.596402 
L 173.091546 97.190375 
L 173.315996 97.67819 
L 173.540446 97.035759 
L 173.764895 80.202089 
L 174.213795 111.859522 
L 174.438244 99.41208 
L 174.662694 103.338924 
L 175.111593 101.190688 
L 175.336043 101.030849 
L 175.560493 105.052422 
L 175.784943 102.573121 
L 176.009392 103.453058 
L 176.233842 96.822362 
L 176.458292 98.046901 
L 176.682741 98.419399 
L 176.907191 100.37258 
L 177.131641 93.818788 
L 177.35609 96.46263 
L 177.58054 107.160486 
L 177.80499 99.335414 
L 178.02944 102.26835 
L 178.253889 97.869273 
L 178.478339 98.283828 
L 178.702789 97.106207 
L 178.927238 102.128911 
L 179.151688 95.184329 
L 179.376138 104.667371 
L 179.600587 97.327186 
L 179.825037 100.214436 
L 180.049487 98.744866 
L 180.498386 101.017541 
L 180.722836 99.477884 
L 181.171735 101.530457 
L 181.396185 109.821788 
L 181.620635 103.666784 
L 182.069534 106.010431 
L 182.293984 103.595036 
L 182.518433 107.018528 
L 182.742883 94.926443 
L 182.967333 101.823688 
L 183.416232 95.407618 
L 183.640682 102.019069 
L 183.865132 86.148216 
L 184.089581 101.448234 
L 184.314031 105.789647 
L 184.538481 97.833045 
L 184.76293 99.319617 
L 184.98738 96.169697 
L 185.21183 96.350762 
L 185.43628 98.321516 
L 185.660729 103.800676 
L 185.885179 100.50965 
L 186.109629 104.98402 
L 186.334078 102.832237 
L 186.558528 101.858029 
L 186.782978 98.975024 
L 187.007427 94.463338 
L 187.680776 110.208007 
L 187.905226 103.831239 
L 188.129676 109.417884 
L 188.354126 100.362126 
L 188.578575 99.064985 
L 188.803025 102.222541 
L 189.027475 109.542539 
L 189.251924 98.321418 
L 189.476374 100.936381 
L 189.700824 96.327998 
L 189.925273 96.876107 
L 190.149723 99.568122 
L 190.374173 107.115703 
L 190.598623 96.763396 
L 190.823072 105.166145 
L 191.047522 104.262816 
L 191.271972 99.050549 
L 191.720871 103.056746 
L 191.945321 101.227876 
L 192.16977 105.094329 
L 192.39422 98.228151 
L 192.843119 99.794268 
L 193.067569 102.261734 
L 193.292019 97.152405 
L 193.516469 106.830475 
L 193.965368 95.909011 
L 194.189818 95.054618 
L 194.638717 102.143528 
L 194.863167 98.870644 
L 195.087616 103.726646 
L 195.536516 108.597382 
L 195.985415 98.110147 
L 195.985415 98.110147 
" clip-path="url(#pa3137bb3f0)" style="fill: none; stroke: #ff0000; stroke-width: 0.8; stroke-linecap: square"/>
   </g>
   <g id="patch_3">
    <path d="M 59.52 129.12 
L 59.52 26.88 
" style="fill: none; stroke: #000000; stroke-width: 0.8; stroke-linejoin: miter; stroke-linecap: square"/>
   </g>
   <g id="patch_4">
    <path d="M 198.454362 129.12 
L 198.454362 26.88 
" style="fill: none; stroke: #000000; stroke-width: 0.8; stroke-linejoin: miter; stroke-linecap: square"/>
   </g>
   <g id="patch_5">
    <path d="M 59.52 129.12 
L 198.454362 129.12 
" style="fill: none; stroke: #000000; stroke-width: 0.8; stroke-linejoin: miter; stroke-linecap: square"/>
   </g>
   <g id="patch_6">
    <path d="M 59.52 26.88 
L 198.454362 26.88 
" style="fill: none; stroke: #000000; stroke-width: 0.8; stroke-linejoin: miter; stroke-linecap: square"/>
   </g>
   <g id="text_10">
    <!-- Frequency Domain Plot -->
    <g transform="translate(59.587806 20.88) scale(0.12 -0.12)">
     <defs>
      <path id="DejaVuSans-44" d="M 1259 4147 
L 1259 519 
L 2022 519 
Q 2988 519 3436 956 
Q 3884 1394 3884 2338 
Q 3884 3275 3436 3711 
Q 2988 4147 2022 4147 
L 1259 4147 
z
M 628 4666 
L 1925 4666 
Q 3281 4666 3915 4102 
Q 4550 3538 4550 2338 
Q 4550 1131 3912 565 
Q 3275 0 1925 0 
L 628 0 
L 628 4666 
z
" transform="scale(0.015625)"/>
      <path id="DejaVuSans-6d" d="M 3328 2828 
Q 3544 3216 3844 3400 
Q 4144 3584 4550 3584 
Q 5097 3584 5394 3201 
Q 5691 2819 5691 2113 
L 5691 0 
L 5113 0 
L 5113 2094 
Q 5113 2597 4934 2840 
Q 4756 3084 4391 3084 
Q 3944 3084 3684 2787 
Q 3425 2491 3425 1978 
L 3425 0 
L 2847 0 
L 2847 2094 
Q 2847 2600 2669 2842 
Q 2491 3084 2119 3084 
Q 1678 3084 1418 2786 
Q 1159 2488 1159 1978 
L 1159 0 
L 581 0 
L 581 3500 
L 1159 3500 
L 1159 2956 
Q 1356 3278 1631 3431 
Q 1906 3584 2284 3584 
Q 2666 3584 2933 3390 
Q 3200 3197 3328 2828 
z
" transform="scale(0.015625)"/>
      <path id="DejaVuSans-61" d="M 2194 1759 
Q 1497 1759 1228 1600 
Q 959 1441 959 1056 
Q 959 750 1161 570 
Q 1363 391 1709 391 
Q 2188 391 2477 730 
Q 2766 1069 2766 1631 
L 2766 1759 
L 2194 1759 
z
M 3341 1997 
L 3341 0 
L 2766 0 
L 2766 531 
Q 2569 213 2275 61 
Q 1981 -91 1556 -91 
Q 1019 -91 701 211 
Q 384 513 384 1019 
Q 384 1609 779 1909 
Q 1175 2209 1959 2209 
L 2766 2209 
L 2766 2266 
Q 2766 2663 2505 2880 
Q 2244 3097 1772 3097 
Q 1472 3097 1187 3025 
Q 903 2953 641 2809 
L 641 3341 
Q 956 3463 1253 3523 
Q 1550 3584 1831 3584 
Q 2591 3584 2966 3190 
Q 3341 2797 3341 1997 
z
" transform="scale(0.015625)"/>
      <path id="DejaVuSans-69" d="M 603 3500 
L 1178 3500 
L 1178 0 
L 603 0 
L 603 3500 
z
M 603 4863 
L 1178 4863 
L 1178 4134 
L 603 4134 
L 603 4863 
z
" transform="scale(0.015625)"/>
      <path id="DejaVuSans-50" d="M 1259 4147 
L 1259 2394 
L 2053 2394 
Q 2494 2394 2734 2622 
Q 2975 2850 2975 3272 
Q 2975 3691 2734 3919 
Q 2494 4147 2053 4147 
L 1259 4147 
z
M 628 4666 
L 2053 4666 
Q 2838 4666 3239 4311 
Q 3641 3956 3641 3272 
Q 3641 2581 3239 2228 
Q 2838 1875 2053 1875 
L 1259 1875 
L 1259 0 
L 628 0 
L 628 4666 
z
" transform="scale(0.015625)"/>
      <path id="DejaVuSans-6c" d="M 603 4863 
L 1178 4863 
L 1178 0 
L 603 0 
L 603 4863 
z
" transform="scale(0.015625)"/>
      <path id="DejaVuSans-74" d="M 1172 4494 
L 1172 3500 
L 2356 3500 
L 2356 3053 
L 1172 3053 
L 1172 1153 
Q 1172 725 1289 603 
Q 1406 481 1766 481 
L 2356 481 
L 2356 0 
L 1766 0 
Q 1100 0 847 248 
Q 594 497 594 1153 
L 594 3053 
L 172 3053 
L 172 3500 
L 594 3500 
L 594 4494 
L 1172 4494 
z
" transform="scale(0.015625)"/>
     </defs>
     <use xlink:href="#DejaVuSans-46"/>
     <use xlink:href="#DejaVuSans-72" x="50.269531"/>
     <use xlink:href="#DejaVuSans-65" x="89.132812"/>
     <use xlink:href="#DejaVuSans-71" x="150.65625"/>
     <use xlink:href="#DejaVuSans-75" x="214.132812"/>
     <use xlink:href="#DejaVuSans-65" x="277.511719"/>
     <use xlink:href="#DejaVuSans-6e" x="339.035156"/>
     <use xlink:href="#DejaVuSans-63" x="402.414062"/>
     <use xlink:href="#DejaVuSans-79" x="457.394531"/>
     <use xlink:href="#DejaVuSans-20" x="516.574219"/>
     <use xlink:href="#DejaVuSans-44" x="548.361328"/>
     <use xlink:href="#DejaVuSans-6f" x="625.363281"/>
     <use xlink:href="#DejaVuSans-6d" x="686.544922"/>
     <use xlink:href="#DejaVuSans-61" x="783.957031"/>
     <use xlink:href="#DejaVuSans-69" x="845.236328"/>
     <use xlink:href="#DejaVuSans-6e" x="873.019531"/>
     <use xlink:href="#DejaVuSans-20" x="936.398438"/>
     <use xlink:href="#DejaVuSans-50" x="968.185547"/>
     <use xlink:href="#DejaVuSans-6c" x="1028.488281"/>
     <use xlink:href="#DejaVuSans-6f" x="1056.271484"/>
     <use xlink:href="#DejaVuSans-74" x="1117.453125"/>
    </g>
   </g>
   <g id="legend_1">
    <g id="patch_7">
     <path d="M 19.939691 158.292 
L 50.807816 158.292 
Q 51.407816 158.292 51.407816 157.692 
L 51.407816 144.781688 
Q 51.407816 144.181688 50.807816 144.181688 
L 19.939691 144.181688 
Q 19.339691 144.181688 19.339691 144.781688 
L 19.339691 157.692 
Q 19.339691 158.292 19.939691 158.292 
z
" style="fill: #ffffff; opacity: 0.8; stroke: #cccccc; stroke-linejoin: miter"/>
    </g>
    <g id="line2d_11">
     <path d="M 20.539691 146.611219 
L 23.539691 146.611219 
L 26.539691 146.611219 
" style="fill: none; stroke: #808080; stroke-width: 0.8; stroke-linecap: square"/>
    </g>
    <g id="text_11">
     <!-- Contaminated -->
     <g transform="translate(28.939691 147.661219) scale(0.03 -0.03)">
      <defs>
       <path id="DejaVuSans-43" d="M 4122 4306 
L 4122 3641 
Q 3803 3938 3442 4084 
Q 3081 4231 2675 4231 
Q 1875 4231 1450 3742 
Q 1025 3253 1025 2328 
Q 1025 1406 1450 917 
Q 1875 428 2675 428 
Q 3081 428 3442 575 
Q 3803 722 4122 1019 
L 4122 359 
Q 3791 134 3420 21 
Q 3050 -91 2638 -91 
Q 1578 -91 968 557 
Q 359 1206 359 2328 
Q 359 3453 968 4101 
Q 1578 4750 2638 4750 
Q 3056 4750 3426 4639 
Q 3797 4528 4122 4306 
z
" transform="scale(0.015625)"/>
      </defs>
      <use xlink:href="#DejaVuSans-43"/>
      <use xlink:href="#DejaVuSans-6f" x="69.824219"/>
      <use xlink:href="#DejaVuSans-6e" x="131.005859"/>
      <use xlink:href="#DejaVuSans-74" x="194.384766"/>
      <use xlink:href="#DejaVuSans-61" x="233.59375"/>
      <use xlink:href="#DejaVuSans-6d" x="294.873047"/>
      <use xlink:href="#DejaVuSans-69" x="392.285156"/>
      <use xlink:href="#DejaVuSans-6e" x="420.068359"/>
      <use xlink:href="#DejaVuSans-61" x="483.447266"/>
      <use xlink:href="#DejaVuSans-74" x="544.726562"/>
      <use xlink:href="#DejaVuSans-65" x="583.935547"/>
      <use xlink:href="#DejaVuSans-64" x="645.458984"/>
     </g>
    </g>
    <g id="line2d_12">
     <path d="M 20.539691 151.014656 
L 23.539691 151.014656 
L 26.539691 151.014656 
" style="fill: none; stroke: #1e90ff; stroke-width: 0.8; stroke-linecap: square"/>
    </g>
    <g id="text_12">
     <!-- Clean -->
     <g transform="translate(28.939691 152.064656) scale(0.03 -0.03)">
      <use xlink:href="#DejaVuSans-43"/>
      <use xlink:href="#DejaVuSans-6c" x="69.824219"/>
      <use xlink:href="#DejaVuSans-65" x="97.607422"/>
      <use xlink:href="#DejaVuSans-61" x="159.130859"/>
      <use xlink:href="#DejaVuSans-6e" x="220.410156"/>
     </g>
    </g>
    <g id="line2d_13">
     <path d="M 20.539691 155.418094 
L 23.539691 155.418094 
L 26.539691 155.418094 
" style="fill: none; stroke: #ff0000; stroke-width: 0.8; stroke-linecap: square"/>
    </g>
    <g id="text_13">
     <!-- SACed -->
     <g transform="translate(28.939691 156.468094) scale(0.03 -0.03)">
      <defs>
       <path id="DejaVuSans-53" d="M 3425 4513 
L 3425 3897 
Q 3066 4069 2747 4153 
Q 2428 4238 2131 4238 
Q 1616 4238 1336 4038 
Q 1056 3838 1056 3469 
Q 1056 3159 1242 3001 
Q 1428 2844 1947 2747 
L 2328 2669 
Q 3034 2534 3370 2195 
Q 3706 1856 3706 1288 
Q 3706 609 3251 259 
Q 2797 -91 1919 -91 
Q 1588 -91 1214 -16 
Q 841 59 441 206 
L 441 856 
Q 825 641 1194 531 
Q 1563 422 1919 422 
Q 2459 422 2753 634 
Q 3047 847 3047 1241 
Q 3047 1584 2836 1778 
Q 2625 1972 2144 2069 
L 1759 2144 
Q 1053 2284 737 2584 
Q 422 2884 422 3419 
Q 422 4038 858 4394 
Q 1294 4750 2059 4750 
Q 2388 4750 2728 4690 
Q 3069 4631 3425 4513 
z
" transform="scale(0.015625)"/>
       <path id="DejaVuSans-41" d="M 2188 4044 
L 1331 1722 
L 3047 1722 
L 2188 4044 
z
M 1831 4666 
L 2547 4666 
L 4325 0 
L 3669 0 
L 3244 1197 
L 1141 1197 
L 716 0 
L 50 0 
L 1831 4666 
z
" transform="scale(0.015625)"/>
      </defs>
      <use xlink:href="#DejaVuSans-53"/>
      <use xlink:href="#DejaVuSans-41" x="65.351562"/>
      <use xlink:href="#DejaVuSans-43" x="132.009766"/>
      <use xlink:href="#DejaVuSans-65" x="201.833984"/>
      <use xlink:href="#DejaVuSans-64" x="263.357422"/>
     </g>
    </g>
   </g>
  </g>
 </g>
 <defs>
  <clipPath id="pa3137bb3f0">
   <rect x="59.52" y="26.88" width="138.934362" height="102.24"/>
  </clipPath>
 </defs>
</svg>
