<?xml version="1.0" encoding="utf-8" standalone="no"?>
<!DOCTYPE svg PUBLIC "-//W3C//DTD SVG 1.1//EN"
  "http://www.w3.org/Graphics/SVG/1.1/DTD/svg11.dtd">
<svg xmlns:xlink="http://www.w3.org/1999/xlink" width="216pt" height="180pt" viewBox="0 0 216 180" xmlns="http://www.w3.org/2000/svg" version="1.1">
 <metadata>
  <rdf:RDF xmlns:dc="http://purl.org/dc/elements/1.1/" xmlns:cc="http://creativecommons.org/ns#" xmlns:rdf="http://www.w3.org/1999/02/22-rdf-syntax-ns#">
   <cc:Work>
    <dc:type rdf:resource="http://purl.org/dc/dcmitype/StillImage"/>
    <dc:date>2024-08-23T21:27:59.845098</dc:date>
    <dc:format>image/svg+xml</dc:format>
    <dc:creator>
     <cc:Agent>
      <dc:title>Matplotlib v3.9.1, https://matplotlib.org/</dc:title>
     </cc:Agent>
    </dc:creator>
   </cc:Work>
  </rdf:RDF>
 </metadata>
 <defs>
  <style type="text/css">*{stroke-linejoin: round; stroke-linecap: butt}</style>
 </defs>
 <g id="figure_1">
  <g id="patch_1">
   <path d="M 0 180 
L 216 180 
L 216 0 
L 0 0 
z
" style="fill: #ffffff"/>
  </g>
  <g id="axes_1">
   <g id="patch_2">
    <path d="M 59.52 129.12 
L 197.469952 129.12 
L 197.469952 26.88 
L 59.52 26.88 
z
" style="fill: #ffffff"/>
   </g>
   <g id="matplotlib.axis_1">
    <g id="xtick_1">
     <g id="line2d_1">
      <defs>
       <path id="mda154b85d4" d="M 0 0 
L 0 3.5 
" style="stroke: #000000; stroke-width: 0.8"/>
      </defs>
      <g>
       <use xlink:href="#mda154b85d4" x="62.106562" y="129.12" style="stroke: #000000; stroke-width: 0.8"/>
      </g>
     </g>
     <g id="text_1">
      <!-- 1.00 -->
      <g transform="translate(50.973749 143.718437) scale(0.1 -0.1)">
       <defs>
        <path id="DejaVuSans-31" d="M 794 531 
L 1825 531 
L 1825 4091 
L 703 3866 
L 703 4441 
L 1819 4666 
L 2450 4666 
L 2450 531 
L 3481 531 
L 3481 0 
L 794 0 
L 794 531 
z
" transform="scale(0.015625)"/>
        <path id="DejaVuSans-2e" d="M 684 794 
L 1344 794 
L 1344 0 
L 684 0 
L 684 794 
z
" transform="scale(0.015625)"/>
        <path id="DejaVuSans-30" d="M 2034 4250 
Q 1547 4250 1301 3770 
Q 1056 3291 1056 2328 
Q 1056 1369 1301 889 
Q 1547 409 2034 409 
Q 2525 409 2770 889 
Q 3016 1369 3016 2328 
Q 3016 3291 2770 3770 
Q 2525 4250 2034 4250 
z
M 2034 4750 
Q 2819 4750 3233 4129 
Q 3647 3509 3647 2328 
Q 3647 1150 3233 529 
Q 2819 -91 2034 -91 
Q 1250 -91 836 529 
Q 422 1150 422 2328 
Q 422 3509 836 4129 
Q 1250 4750 2034 4750 
z
" transform="scale(0.015625)"/>
       </defs>
       <use xlink:href="#DejaVuSans-31"/>
       <use xlink:href="#DejaVuSans-2e" x="63.623047"/>
       <use xlink:href="#DejaVuSans-30" x="95.410156"/>
       <use xlink:href="#DejaVuSans-30" x="159.033203"/>
      </g>
     </g>
    </g>
    <g id="xtick_2">
     <g id="line2d_2">
      <g>
       <use xlink:href="#mda154b85d4" x="128.412073" y="129.12" style="stroke: #000000; stroke-width: 0.8"/>
      </g>
     </g>
     <g id="text_2">
      <!-- 1.25 -->
      <g transform="translate(117.279261 143.718437) scale(0.1 -0.1)">
       <defs>
        <path id="DejaVuSans-32" d="M 1228 531 
L 3431 531 
L 3431 0 
L 469 0 
L 469 531 
Q 828 903 1448 1529 
Q 2069 2156 2228 2338 
Q 2531 2678 2651 2914 
Q 2772 3150 2772 3378 
Q 2772 3750 2511 3984 
Q 2250 4219 1831 4219 
Q 1534 4219 1204 4116 
Q 875 4013 500 3803 
L 500 4441 
Q 881 4594 1212 4672 
Q 1544 4750 1819 4750 
Q 2544 4750 2975 4387 
Q 3406 4025 3406 3419 
Q 3406 3131 3298 2873 
Q 3191 2616 2906 2266 
Q 2828 2175 2409 1742 
Q 1991 1309 1228 531 
z
" transform="scale(0.015625)"/>
        <path id="DejaVuSans-35" d="M 691 4666 
L 3169 4666 
L 3169 4134 
L 1269 4134 
L 1269 2991 
Q 1406 3038 1543 3061 
Q 1681 3084 1819 3084 
Q 2600 3084 3056 2656 
Q 3513 2228 3513 1497 
Q 3513 744 3044 326 
Q 2575 -91 1722 -91 
Q 1428 -91 1123 -41 
Q 819 9 494 109 
L 494 744 
Q 775 591 1075 516 
Q 1375 441 1709 441 
Q 2250 441 2565 725 
Q 2881 1009 2881 1497 
Q 2881 1984 2565 2268 
Q 2250 2553 1709 2553 
Q 1456 2553 1204 2497 
Q 953 2441 691 2322 
L 691 4666 
z
" transform="scale(0.015625)"/>
       </defs>
       <use xlink:href="#DejaVuSans-31"/>
       <use xlink:href="#DejaVuSans-2e" x="63.623047"/>
       <use xlink:href="#DejaVuSans-32" x="95.410156"/>
       <use xlink:href="#DejaVuSans-35" x="159.033203"/>
      </g>
     </g>
    </g>
    <g id="xtick_3">
     <g id="line2d_3">
      <g>
       <use xlink:href="#mda154b85d4" x="194.717585" y="129.12" style="stroke: #000000; stroke-width: 0.8"/>
      </g>
     </g>
     <g id="text_3">
      <!-- 1.50 -->
      <g transform="translate(183.584773 143.718437) scale(0.1 -0.1)">
       <use xlink:href="#DejaVuSans-31"/>
       <use xlink:href="#DejaVuSans-2e" x="63.623047"/>
       <use xlink:href="#DejaVuSans-35" x="95.410156"/>
       <use xlink:href="#DejaVuSans-30" x="159.033203"/>
      </g>
     </g>
    </g>
    <g id="text_4">
     <!-- Time (s) -->
     <g transform="translate(108.16607 157.396563) scale(0.1 -0.1)">
      <defs>
       <path id="DejaVuSans-54" d="M -19 4666 
L 3928 4666 
L 3928 4134 
L 2272 4134 
L 2272 0 
L 1638 0 
L 1638 4134 
L -19 4134 
L -19 4666 
z
" transform="scale(0.015625)"/>
       <path id="DejaVuSans-69" d="M 603 3500 
L 1178 3500 
L 1178 0 
L 603 0 
L 603 3500 
z
M 603 4863 
L 1178 4863 
L 1178 4134 
L 603 4134 
L 603 4863 
z
" transform="scale(0.015625)"/>
       <path id="DejaVuSans-6d" d="M 3328 2828 
Q 3544 3216 3844 3400 
Q 4144 3584 4550 3584 
Q 5097 3584 5394 3201 
Q 5691 2819 5691 2113 
L 5691 0 
L 5113 0 
L 5113 2094 
Q 5113 2597 4934 2840 
Q 4756 3084 4391 3084 
Q 3944 3084 3684 2787 
Q 3425 2491 3425 1978 
L 3425 0 
L 2847 0 
L 2847 2094 
Q 2847 2600 2669 2842 
Q 2491 3084 2119 3084 
Q 1678 3084 1418 2786 
Q 1159 2488 1159 1978 
L 1159 0 
L 581 0 
L 581 3500 
L 1159 3500 
L 1159 2956 
Q 1356 3278 1631 3431 
Q 1906 3584 2284 3584 
Q 2666 3584 2933 3390 
Q 3200 3197 3328 2828 
z
" transform="scale(0.015625)"/>
       <path id="DejaVuSans-65" d="M 3597 1894 
L 3597 1613 
L 953 1613 
Q 991 1019 1311 708 
Q 1631 397 2203 397 
Q 2534 397 2845 478 
Q 3156 559 3463 722 
L 3463 178 
Q 3153 47 2828 -22 
Q 2503 -91 2169 -91 
Q 1331 -91 842 396 
Q 353 884 353 1716 
Q 353 2575 817 3079 
Q 1281 3584 2069 3584 
Q 2775 3584 3186 3129 
Q 3597 2675 3597 1894 
z
M 3022 2063 
Q 3016 2534 2758 2815 
Q 2500 3097 2075 3097 
Q 1594 3097 1305 2825 
Q 1016 2553 972 2059 
L 3022 2063 
z
" transform="scale(0.015625)"/>
       <path id="DejaVuSans-20" transform="scale(0.015625)"/>
       <path id="DejaVuSans-28" d="M 1984 4856 
Q 1566 4138 1362 3434 
Q 1159 2731 1159 2009 
Q 1159 1288 1364 580 
Q 1569 -128 1984 -844 
L 1484 -844 
Q 1016 -109 783 600 
Q 550 1309 550 2009 
Q 550 2706 781 3412 
Q 1013 4119 1484 4856 
L 1984 4856 
z
" transform="scale(0.015625)"/>
       <path id="DejaVuSans-73" d="M 2834 3397 
L 2834 2853 
Q 2591 2978 2328 3040 
Q 2066 3103 1784 3103 
Q 1356 3103 1142 2972 
Q 928 2841 928 2578 
Q 928 2378 1081 2264 
Q 1234 2150 1697 2047 
L 1894 2003 
Q 2506 1872 2764 1633 
Q 3022 1394 3022 966 
Q 3022 478 2636 193 
Q 2250 -91 1575 -91 
Q 1294 -91 989 -36 
Q 684 19 347 128 
L 347 722 
Q 666 556 975 473 
Q 1284 391 1588 391 
Q 1994 391 2212 530 
Q 2431 669 2431 922 
Q 2431 1156 2273 1281 
Q 2116 1406 1581 1522 
L 1381 1569 
Q 847 1681 609 1914 
Q 372 2147 372 2553 
Q 372 3047 722 3315 
Q 1072 3584 1716 3584 
Q 2034 3584 2315 3537 
Q 2597 3491 2834 3397 
z
" transform="scale(0.015625)"/>
       <path id="DejaVuSans-29" d="M 513 4856 
L 1013 4856 
Q 1481 4119 1714 3412 
Q 1947 2706 1947 2009 
Q 1947 1309 1714 600 
Q 1481 -109 1013 -844 
L 513 -844 
Q 928 -128 1133 580 
Q 1338 1288 1338 2009 
Q 1338 2731 1133 3434 
Q 928 4138 513 4856 
z
" transform="scale(0.015625)"/>
      </defs>
      <use xlink:href="#DejaVuSans-54"/>
      <use xlink:href="#DejaVuSans-69" x="57.958984"/>
      <use xlink:href="#DejaVuSans-6d" x="85.742188"/>
      <use xlink:href="#DejaVuSans-65" x="183.154297"/>
      <use xlink:href="#DejaVuSans-20" x="244.677734"/>
      <use xlink:href="#DejaVuSans-28" x="276.464844"/>
      <use xlink:href="#DejaVuSans-73" x="315.478516"/>
      <use xlink:href="#DejaVuSans-29" x="367.578125"/>
     </g>
    </g>
   </g>
   <g id="matplotlib.axis_2">
    <g id="ytick_1">
     <g id="line2d_4">
      <defs>
       <path id="m91828c7016" d="M 0 0 
L -3.5 0 
" style="stroke: #000000; stroke-width: 0.8"/>
      </defs>
      <g>
       <use xlink:href="#m91828c7016" x="59.52" y="114.685171" style="stroke: #000000; stroke-width: 0.8"/>
      </g>
     </g>
     <g id="text_5">
      <!-- −40 -->
      <g transform="translate(31.415312 118.484389) scale(0.1 -0.1)">
       <defs>
        <path id="DejaVuSans-2212" d="M 678 2272 
L 4684 2272 
L 4684 1741 
L 678 1741 
L 678 2272 
z
" transform="scale(0.015625)"/>
        <path id="DejaVuSans-34" d="M 2419 4116 
L 825 1625 
L 2419 1625 
L 2419 4116 
z
M 2253 4666 
L 3047 4666 
L 3047 1625 
L 3713 1625 
L 3713 1100 
L 3047 1100 
L 3047 0 
L 2419 0 
L 2419 1100 
L 313 1100 
L 313 1709 
L 2253 4666 
z
" transform="scale(0.015625)"/>
       </defs>
       <use xlink:href="#DejaVuSans-2212"/>
       <use xlink:href="#DejaVuSans-34" x="83.789062"/>
       <use xlink:href="#DejaVuSans-30" x="147.412109"/>
      </g>
     </g>
    </g>
    <g id="ytick_2">
     <g id="line2d_5">
      <g>
       <use xlink:href="#m91828c7016" x="59.52" y="86.004995" style="stroke: #000000; stroke-width: 0.8"/>
      </g>
     </g>
     <g id="text_6">
      <!-- −20 -->
      <g transform="translate(31.415312 89.804214) scale(0.1 -0.1)">
       <use xlink:href="#DejaVuSans-2212"/>
       <use xlink:href="#DejaVuSans-32" x="83.789062"/>
       <use xlink:href="#DejaVuSans-30" x="147.412109"/>
      </g>
     </g>
    </g>
    <g id="ytick_3">
     <g id="line2d_6">
      <g>
       <use xlink:href="#m91828c7016" x="59.52" y="57.324819" style="stroke: #000000; stroke-width: 0.8"/>
      </g>
     </g>
     <g id="text_7">
      <!-- 0 -->
      <g transform="translate(46.1575 61.124038) scale(0.1 -0.1)">
       <use xlink:href="#DejaVuSans-30"/>
      </g>
     </g>
    </g>
    <g id="ytick_4">
     <g id="line2d_7">
      <g>
       <use xlink:href="#m91828c7016" x="59.52" y="28.644643" style="stroke: #000000; stroke-width: 0.8"/>
      </g>
     </g>
     <g id="text_8">
      <!-- 20 -->
      <g transform="translate(39.795 32.443862) scale(0.1 -0.1)">
       <use xlink:href="#DejaVuSans-32"/>
       <use xlink:href="#DejaVuSans-30" x="63.623047"/>
      </g>
     </g>
    </g>
    <g id="text_9">
     <!-- Amplitude (mV) -->
     <g transform="translate(25.335625 117.403906) rotate(-90) scale(0.1 -0.1)">
      <defs>
       <path id="DejaVuSans-41" d="M 2188 4044 
L 1331 1722 
L 3047 1722 
L 2188 4044 
z
M 1831 4666 
L 2547 4666 
L 4325 0 
L 3669 0 
L 3244 1197 
L 1141 1197 
L 716 0 
L 50 0 
L 1831 4666 
z
" transform="scale(0.015625)"/>
       <path id="DejaVuSans-70" d="M 1159 525 
L 1159 -1331 
L 581 -1331 
L 581 3500 
L 1159 3500 
L 1159 2969 
Q 1341 3281 1617 3432 
Q 1894 3584 2278 3584 
Q 2916 3584 3314 3078 
Q 3713 2572 3713 1747 
Q 3713 922 3314 415 
Q 2916 -91 2278 -91 
Q 1894 -91 1617 61 
Q 1341 213 1159 525 
z
M 3116 1747 
Q 3116 2381 2855 2742 
Q 2594 3103 2138 3103 
Q 1681 3103 1420 2742 
Q 1159 2381 1159 1747 
Q 1159 1113 1420 752 
Q 1681 391 2138 391 
Q 2594 391 2855 752 
Q 3116 1113 3116 1747 
z
" transform="scale(0.015625)"/>
       <path id="DejaVuSans-6c" d="M 603 4863 
L 1178 4863 
L 1178 0 
L 603 0 
L 603 4863 
z
" transform="scale(0.015625)"/>
       <path id="DejaVuSans-74" d="M 1172 4494 
L 1172 3500 
L 2356 3500 
L 2356 3053 
L 1172 3053 
L 1172 1153 
Q 1172 725 1289 603 
Q 1406 481 1766 481 
L 2356 481 
L 2356 0 
L 1766 0 
Q 1100 0 847 248 
Q 594 497 594 1153 
L 594 3053 
L 172 3053 
L 172 3500 
L 594 3500 
L 594 4494 
L 1172 4494 
z
" transform="scale(0.015625)"/>
       <path id="DejaVuSans-75" d="M 544 1381 
L 544 3500 
L 1119 3500 
L 1119 1403 
Q 1119 906 1312 657 
Q 1506 409 1894 409 
Q 2359 409 2629 706 
Q 2900 1003 2900 1516 
L 2900 3500 
L 3475 3500 
L 3475 0 
L 2900 0 
L 2900 538 
Q 2691 219 2414 64 
Q 2138 -91 1772 -91 
Q 1169 -91 856 284 
Q 544 659 544 1381 
z
M 1991 3584 
L 1991 3584 
z
" transform="scale(0.015625)"/>
       <path id="DejaVuSans-64" d="M 2906 2969 
L 2906 4863 
L 3481 4863 
L 3481 0 
L 2906 0 
L 2906 525 
Q 2725 213 2448 61 
Q 2172 -91 1784 -91 
Q 1150 -91 751 415 
Q 353 922 353 1747 
Q 353 2572 751 3078 
Q 1150 3584 1784 3584 
Q 2172 3584 2448 3432 
Q 2725 3281 2906 2969 
z
M 947 1747 
Q 947 1113 1208 752 
Q 1469 391 1925 391 
Q 2381 391 2643 752 
Q 2906 1113 2906 1747 
Q 2906 2381 2643 2742 
Q 2381 3103 1925 3103 
Q 1469 3103 1208 2742 
Q 947 2381 947 1747 
z
" transform="scale(0.015625)"/>
       <path id="DejaVuSans-56" d="M 1831 0 
L 50 4666 
L 709 4666 
L 2188 738 
L 3669 4666 
L 4325 4666 
L 2547 0 
L 1831 0 
z
" transform="scale(0.015625)"/>
      </defs>
      <use xlink:href="#DejaVuSans-41"/>
      <use xlink:href="#DejaVuSans-6d" x="68.408203"/>
      <use xlink:href="#DejaVuSans-70" x="165.820312"/>
      <use xlink:href="#DejaVuSans-6c" x="229.296875"/>
      <use xlink:href="#DejaVuSans-69" x="257.080078"/>
      <use xlink:href="#DejaVuSans-74" x="284.863281"/>
      <use xlink:href="#DejaVuSans-75" x="324.072266"/>
      <use xlink:href="#DejaVuSans-64" x="387.451172"/>
      <use xlink:href="#DejaVuSans-65" x="450.927734"/>
      <use xlink:href="#DejaVuSans-20" x="512.451172"/>
      <use xlink:href="#DejaVuSans-28" x="544.238281"/>
      <use xlink:href="#DejaVuSans-6d" x="583.251953"/>
      <use xlink:href="#DejaVuSans-56" x="680.664062"/>
      <use xlink:href="#DejaVuSans-29" x="749.072266"/>
     </g>
    </g>
   </g>
   <g id="line2d_8">
    <path d="M 62.172884 58.128339 
L 62.438172 39.278025 
L 62.570816 39.994504 
L 62.836105 44.486583 
L 63.234037 56.290403 
L 64.029902 104.396623 
L 64.162546 105.769829 
L 64.427835 48.214929 
L 64.560479 43.417032 
L 64.693123 43.801676 
L 64.958412 47.208444 
L 65.356344 57.17561 
L 66.152209 98.663108 
L 66.284853 99.645836 
L 66.550142 45.74565 
L 66.682786 40.506316 
L 66.81543 40.923821 
L 67.080719 44.568874 
L 67.478651 55.044788 
L 68.274516 99.412059 
L 68.40716 100.544595 
L 68.672449 38.677917 
L 68.805093 31.527273 
L 68.937737 32.127664 
L 69.203025 37.333185 
L 69.600958 52.370199 
L 70.396823 115.628962 
L 70.529467 117.52063 
L 70.794756 41.933858 
L 70.9274 36.518819 
L 71.060044 37.200405 
L 71.325332 41.690892 
L 71.723265 54.023085 
L 72.51913 104.26577 
L 72.651774 105.794906 
L 72.917063 42.837435 
L 73.049707 36.833517 
L 73.182351 37.706079 
L 73.447639 42.85816 
L 73.845572 56.858959 
L 74.641437 113.342851 
L 74.774081 115.028548 
L 75.03937 48.939479 
L 75.172014 44.207573 
L 75.304658 44.775495 
L 75.569946 48.677734 
L 75.967879 59.177698 
L 76.763744 102.09465 
L 76.896388 103.283801 
L 77.161677 49.24726 
L 77.294321 44.00307 
L 77.426965 44.462168 
L 77.692253 48.137131 
L 78.090186 58.882522 
L 78.886051 104.909089 
L 79.018695 106.17063 
L 79.283983 43.720975 
L 79.416628 36.441637 
L 79.549272 37.088963 
L 79.81456 42.397358 
L 80.212493 57.29715 
L 81.008358 120.704348 
L 81.141002 122.436829 
L 81.40629 42.795193 
L 81.538935 35.929569 
L 81.671579 36.522603 
L 81.936867 41.419505 
L 82.3348 55.636786 
L 83.130665 115.755631 
L 83.263309 117.463515 
L 83.528597 44.280514 
L 83.661242 38.706956 
L 83.793886 39.373385 
L 84.059174 43.936356 
L 84.457107 56.722454 
L 85.252972 107.899284 
L 85.385616 109.313169 
L 85.650904 47.445819 
L 85.783549 42.277671 
L 85.916193 42.695172 
L 86.181481 46.3712 
L 86.579414 56.820404 
L 87.375279 101.452666 
L 87.507923 102.707883 
L 87.773211 44.552818 
L 87.905855 38.646 
L 88.0385 39.355305 
L 88.303788 44.033631 
L 88.701721 56.736198 
L 89.497586 110.245975 
L 89.63023 111.785203 
L 89.895518 47.2557 
L 90.028162 42.152842 
L 90.160807 42.703906 
L 90.426095 46.637991 
L 90.824028 57.879134 
L 91.619893 103.55719 
L 91.752537 104.682301 
L 92.017825 47.249192 
L 92.150469 41.836131 
L 92.283114 42.188401 
L 92.548402 45.73939 
L 92.946335 56.566954 
L 93.7422 102.166649 
L 93.874844 103.18323 
L 94.140132 45.491244 
L 94.272776 40.746848 
L 94.405421 41.224548 
L 94.670709 44.884425 
L 95.068641 55.147986 
L 95.864507 97.207468 
L 95.997151 98.326261 
L 96.262439 44.788776 
L 96.395083 39.78844 
L 96.527727 40.356314 
L 96.793016 44.389319 
L 97.190948 55.97369 
L 97.986814 102.46782 
L 98.119458 103.922281 
L 98.384746 48.733834 
L 98.51739 44.361724 
L 98.650034 44.997646 
L 98.915323 48.556514 
L 99.313255 58.171913 
L 100.10912 98.869718 
L 100.241765 100.005707 
L 100.507053 44.556041 
L 100.639697 37.955817 
L 100.772341 38.701376 
L 101.03763 43.809169 
L 101.435562 57.875614 
L 102.231427 116.946321 
L 102.364072 118.60156 
L 102.62936 42.731941 
L 102.762004 35.590331 
L 102.894648 36.256057 
L 103.159937 41.581687 
L 103.557869 56.567284 
L 104.353734 120.181462 
L 104.486379 121.889518 
L 104.751667 45.239267 
L 104.884311 39.586011 
L 105.016955 40.139656 
L 105.282244 44.402283 
L 105.680176 56.609521 
L 106.476041 106.747623 
L 106.608686 108.08723 
L 106.873974 42.762754 
L 107.006618 36.087411 
L 107.139262 36.664483 
L 107.404551 41.573972 
L 107.802483 55.844817 
L 108.598348 114.837725 
L 108.730992 116.505902 
L 108.996281 42.844087 
L 109.128925 36.057182 
L 109.261569 36.724784 
L 109.526858 41.714299 
L 109.92479 56.12056 
L 110.720655 116.602279 
L 110.853299 118.374661 
L 111.118588 47.547164 
L 111.251232 42.828062 
L 111.383876 43.360634 
L 111.649165 47.110088 
L 112.047097 57.814299 
L 112.842962 100.746916 
L 112.975606 101.889919 
L 113.240895 43.752096 
L 113.373539 36.617721 
L 113.506183 37.2049 
L 113.771471 42.218313 
L 114.169404 57.166677 
L 114.965269 119.467083 
L 115.097913 121.168703 
L 115.363202 43.731978 
L 115.495846 37.005438 
L 115.62849 37.473351 
L 115.893778 42.139384 
L 116.291711 55.677705 
L 117.087576 113.334553 
L 117.22022 114.842357 
L 117.485509 39.651066 
L 117.618153 32.289124 
L 117.750797 32.925085 
L 118.016085 38.24634 
L 118.414018 53.684467 
L 119.209883 118.149253 
L 119.342527 120.017799 
L 119.607816 42.009725 
L 119.74046 35.909302 
L 119.873104 36.398061 
L 120.138392 40.848147 
L 120.536325 53.778037 
L 121.33219 108.282181 
L 121.464834 110.018881 
L 121.730123 43.057487 
L 121.862767 37.098314 
L 121.995411 37.88198 
L 122.260699 42.805234 
L 122.658632 56.273508 
L 123.454497 111.905303 
L 123.587141 113.523876 
L 123.85243 48.114017 
L 123.985074 43.314439 
L 124.117718 43.850375 
L 124.383006 47.596278 
L 124.780939 57.750885 
L 125.576804 100.123164 
L 125.709448 101.281368 
L 125.974736 44.424792 
L 126.107381 38.447132 
L 126.240025 38.998294 
L 126.505313 43.444035 
L 126.903246 55.631034 
L 127.699111 108.158872 
L 127.831755 109.575 
L 128.097043 45.64621 
L 128.229688 40.892362 
L 128.362332 41.200779 
L 128.62762 44.464937 
L 129.025553 53.926421 
L 129.821418 94.946896 
L 129.954062 96.116881 
L 130.21935 42.889671 
L 130.351995 38.009238 
L 130.484639 38.626929 
L 130.749927 42.702518 
L 131.14786 53.788751 
L 131.943725 97.999023 
L 132.076369 99.275082 
L 132.341657 40.640387 
L 132.474301 34.065818 
L 132.606946 34.663471 
L 132.872234 39.921615 
L 133.270167 54.464134 
L 134.066032 113.954378 
L 134.198676 115.769481 
L 134.463964 41.830856 
L 134.596608 35.175854 
L 134.729253 36.090129 
L 134.994541 41.566965 
L 135.392474 56.198133 
L 136.188339 117.539062 
L 136.320983 119.42066 
L 136.586271 44.612148 
L 136.718915 38.286527 
L 136.85156 38.919392 
L 137.116848 43.677583 
L 137.514781 57.406854 
L 138.310646 114.638176 
L 138.44329 116.120789 
L 138.708578 46.114153 
L 138.841222 40.345023 
L 138.973867 40.532387 
L 139.239155 44.152085 
L 139.637087 55.27293 
L 140.432953 103.245465 
L 140.565597 104.529769 
L 140.830885 41.066193 
L 140.963529 34.692587 
L 141.096173 35.230677 
L 141.361462 39.9275 
L 141.759394 53.119817 
L 142.55526 108.091026 
L 142.687904 109.675281 
L 142.953192 41.241726 
L 143.085836 35.697067 
L 143.21848 36.465154 
L 143.483769 41.204928 
L 143.881701 54.348705 
L 144.677566 106.279137 
L 144.810211 107.698123 
L 145.075499 45.691495 
L 145.208143 40.940378 
L 145.340787 41.462272 
L 145.606076 45.319089 
L 146.004008 55.748399 
L 146.799873 98.198778 
L 146.932518 99.415267 
L 147.197806 40.424875 
L 147.33045 33.25371 
L 147.463094 34.089159 
L 147.728383 39.934705 
L 148.126315 55.954849 
L 148.92218 120.526322 
L 149.054825 122.299451 
L 149.320113 42.352587 
L 149.452757 35.540561 
L 149.585401 35.978182 
L 149.85069 40.602392 
L 150.248622 54.478154 
L 151.044487 113.216027 
L 151.177132 114.876993 
L 151.44242 39.688206 
L 151.575064 32.380337 
L 151.707708 33.209386 
L 151.972997 38.830026 
L 152.370929 54.517659 
L 153.166794 119.904793 
L 153.299438 121.760217 
L 153.564727 44.058432 
L 153.697371 38.867599 
L 153.830015 39.533236 
L 154.095304 43.837326 
L 154.493236 55.487074 
L 155.289101 103.15518 
L 155.421745 104.429599 
L 155.687034 46.173523 
L 155.819678 41.606601 
L 155.952322 42.026469 
L 156.217611 45.363039 
L 156.615543 55.121987 
L 157.411408 96.178975 
L 157.544052 97.399251 
L 157.809341 41.944015 
L 157.941985 35.202226 
L 158.074629 35.946294 
L 158.339917 41.224217 
L 158.73785 56.087067 
L 159.533715 116.599808 
L 159.666359 118.359396 
L 159.931648 41.631801 
L 160.064292 34.275465 
L 160.196936 34.967187 
L 160.462224 40.616964 
L 160.860157 56.270622 
L 161.656022 121.76774 
L 161.788666 123.591431 
L 162.053955 46.30884 
L 162.186599 41.124637 
L 162.319243 41.589537 
L 162.584531 45.345731 
L 162.982464 55.999184 
L 163.778329 100.738379 
L 163.910973 102.046132 
L 164.176262 40.455794 
L 164.308906 33.277678 
L 164.44155 34.121629 
L 164.706838 39.797658 
L 165.104771 55.599612 
L 165.900636 121.084539 
L 166.03328 123.037049 
L 166.298569 42.227386 
L 166.431213 35.451643 
L 166.563857 36.126151 
L 166.829145 41.195381 
L 167.227078 55.80032 
L 168.022943 116.436796 
L 168.155587 118.257906 
L 168.420876 47.10567 
L 168.55352 42.324941 
L 168.686164 43.021291 
L 168.951452 46.990128 
L 169.349385 57.690476 
L 170.14525 102.001252 
L 170.277894 103.317667 
L 170.543182 46.554046 
L 170.675827 41.177836 
L 170.808471 41.79182 
L 171.073759 45.982483 
L 171.471692 57.908229 
L 172.267557 106.801635 
L 172.400201 108.082333 
L 172.665489 47.213894 
L 172.798134 41.960013 
L 172.930778 42.320354 
L 173.196066 45.862766 
L 173.593999 56.553698 
L 174.389864 102.946862 
L 174.522508 104.143692 
L 174.787796 40.570428 
L 174.920441 33.056606 
L 175.053085 33.561619 
L 175.318373 38.845593 
L 175.716306 54.384869 
L 176.512171 119.983221 
L 176.644815 121.847134 
L 176.910103 42.091259 
L 177.042748 35.928552 
L 177.175392 36.647345 
L 177.44068 41.575611 
L 177.838613 55.036662 
L 178.634478 110.723077 
L 178.767122 112.379496 
L 179.03241 41.440548 
L 179.165054 34.431084 
L 179.297699 35.218375 
L 179.562987 40.832877 
L 179.96092 56.244694 
L 180.756785 119.689213 
L 180.889429 121.651945 
L 181.154717 42.368961 
L 181.287361 35.211142 
L 181.420006 36.078737 
L 181.685294 41.993894 
L 182.083227 57.809767 
L 182.879092 122.046934 
L 183.011736 123.777762 
L 183.277024 42.179272 
L 183.409668 34.810903 
L 183.542313 35.551938 
L 183.807601 41.11424 
L 184.205533 56.794803 
L 185.001399 122.676329 
L 185.134043 124.472727 
L 185.399331 45.504048 
L 185.531975 39.683717 
L 185.664619 40.194491 
L 185.929908 44.557327 
L 186.32784 56.516959 
L 187.123706 107.013743 
L 187.25635 108.287522 
L 187.521638 41.765341 
L 187.654282 34.735766 
L 187.786926 35.385422 
L 188.052215 40.440958 
L 188.450147 54.931057 
L 189.246012 115.983888 
L 189.378657 117.454955 
L 189.643945 40.183556 
L 189.776589 33.209857 
L 189.909233 33.854893 
L 190.174522 39.068159 
L 190.572454 54.156547 
L 191.368319 115.929316 
L 191.500964 117.677022 
L 191.766252 40.251069 
L 191.898896 33.299067 
L 192.03154 34.256425 
L 192.296829 40.205718 
L 192.694761 56.381202 
L 193.490626 120.604833 
L 193.623271 122.472701 
L 193.888559 44.381998 
L 194.021203 38.099707 
L 194.153847 38.900848 
L 194.419136 44.027297 
L 194.684424 52.763014 
L 194.684424 52.763014 
" clip-path="url(#p99f5d2c9a3)" style="fill: none; stroke: #ffa500; stroke-width: 0.5; stroke-linecap: square"/>
   </g>
   <g id="line2d_9">
    <path d="M 62.172884 56.137924 
L 63.366681 57.725872 
L 64.427835 58.927968 
L 65.621632 58.309821 
L 66.417498 57.362142 
L 66.682786 57.198865 
L 67.213363 56.71355 
L 67.478651 56.378062 
L 68.805093 54.714008 
L 69.33567 54.387799 
L 69.468314 54.370957 
L 69.733602 54.15751 
L 70.529467 54.193296 
L 71.192688 54.817063 
L 73.182351 57.469073 
L 73.978216 58.606219 
L 74.641437 59.223138 
L 75.835235 60.346691 
L 76.100523 60.534773 
L 76.763744 61.074553 
L 77.029032 61.088897 
L 77.559609 60.646764 
L 78.620763 60.01855 
L 79.151339 60.138444 
L 79.549272 59.882286 
L 79.81456 59.719996 
L 80.875714 58.344404 
L 81.804223 57.906893 
L 82.3348 57.407413 
L 82.732732 57.256879 
L 83.130665 56.895027 
L 83.395953 57.029629 
L 83.92653 57.383974 
L 84.987683 58.663074 
L 85.650904 58.813707 
L 86.048837 58.498347 
L 86.446769 58.23809 
L 86.977346 57.906498 
L 87.507923 57.942244 
L 87.905855 58.115054 
L 88.303788 58.380037 
L 89.364942 58.451733 
L 89.895518 58.723511 
L 90.293451 58.708539 
L 91.487248 59.646395 
L 91.619893 59.654762 
L 92.150469 58.9767 
L 93.609555 56.94359 
L 94.007488 56.225799 
L 94.405421 56.170416 
L 95.599218 56.454437 
L 95.864507 56.279153 
L 96.129795 56.255263 
L 96.660372 56.519369 
L 96.92566 56.819354 
L 97.588881 57.881396 
L 98.119458 58.576878 
L 98.650034 59.32411 
L 99.047967 59.413639 
L 99.313255 59.352082 
L 99.976476 59.509474 
L 100.241765 59.650575 
L 101.03763 59.930607 
L 101.302918 59.79115 
L 101.966139 59.092302 
L 102.364072 58.848912 
L 102.762004 58.901742 
L 103.292581 58.684288 
L 103.690513 58.37732 
L 104.353734 58.285389 
L 105.149599 57.993395 
L 105.414888 58.072695 
L 105.680176 58.081567 
L 106.078109 57.734931 
L 106.74133 57.746742 
L 107.271906 57.338754 
L 107.537195 57.422991 
L 108.730992 58.053205 
L 108.863637 58.009735 
L 108.996281 58.090615 
L 109.792146 57.855598 
L 110.190078 57.993256 
L 110.588011 58.178488 
L 111.118588 58.280422 
L 111.51652 58.440123 
L 111.781809 58.633308 
L 112.312385 59.27434 
L 112.577674 59.526467 
L 112.842962 59.656592 
L 113.373539 59.451528 
L 114.03676 58.988924 
L 114.699981 58.904655 
L 115.097913 58.805277 
L 115.893778 57.896764 
L 116.954932 56.702795 
L 118.14873 55.542981 
L 118.414018 55.572356 
L 119.209883 55.390473 
L 119.607816 55.589065 
L 120.138392 55.27562 
L 120.403681 55.307073 
L 120.668969 55.419011 
L 121.33219 56.296153 
L 121.862767 57.08202 
L 122.393343 57.696453 
L 122.658632 57.869655 
L 123.321853 58.77579 
L 124.51565 59.304993 
L 124.913583 58.881781 
L 125.44416 58.054926 
L 125.709448 57.839407 
L 126.372669 57.80306 
L 126.637957 57.606788 
L 127.168534 56.873932 
L 128.362332 56.10934 
L 128.892909 55.361888 
L 129.688774 54.144696 
L 130.351995 54.048061 
L 130.882571 54.718005 
L 131.14786 55.06981 
L 132.872234 55.802398 
L 133.137522 56.142828 
L 133.800743 56.456577 
L 134.463964 57.193643 
L 134.729253 57.567209 
L 134.994541 57.889276 
L 135.790406 58.125621 
L 136.188339 58.725433 
L 136.586271 59.14809 
L 136.85156 59.240545 
L 137.514781 59.080845 
L 137.647425 59.129089 
L 138.045357 58.992608 
L 138.575934 58.73756 
L 138.841222 58.347263 
L 139.371799 57.1814 
L 140.565597 55.362268 
L 141.228818 54.92535 
L 141.62675 54.823899 
L 141.892039 54.588014 
L 142.422615 54.118844 
L 142.687904 54.088604 
L 142.953192 54.22813 
L 143.616413 55.320535 
L 144.14699 56.188023 
L 144.677566 56.563057 
L 145.340787 56.617126 
L 145.73872 56.897318 
L 146.269297 56.984588 
L 146.534585 56.77462 
L 146.932518 56.726705 
L 147.33045 56.973344 
L 147.861027 57.564913 
L 148.126315 57.849393 
L 148.524248 57.831352 
L 149.187469 57.444554 
L 150.115978 56.184895 
L 150.911843 56.21525 
L 151.177132 56.170386 
L 151.575064 56.392491 
L 151.840352 56.546766 
L 152.503573 56.369772 
L 153.03415 56.06053 
L 153.299438 56.178505 
L 153.564727 56.226139 
L 153.962659 56.700104 
L 154.493236 56.888334 
L 154.891169 56.648566 
L 155.156457 56.649723 
L 155.819678 56.379202 
L 156.615543 56.301909 
L 157.278764 56.835747 
L 157.809341 57.212434 
L 158.074629 57.291448 
L 159.135783 58.175948 
L 159.401071 58.111483 
L 160.594869 58.33957 
L 161.390734 57.798056 
L 162.451887 57.545541 
L 163.115108 57.202691 
L 163.645685 56.883909 
L 165.104771 57.513613 
L 165.635348 57.434702 
L 165.900636 57.457779 
L 166.165924 57.584811 
L 166.563857 57.496283 
L 166.961789 57.456274 
L 167.227078 57.560724 
L 167.492366 57.582371 
L 168.022943 57.916035 
L 169.216741 59.135732 
L 169.482029 58.933684 
L 170.14525 58.798862 
L 170.941115 59.182343 
L 171.206403 59.203533 
L 171.604336 59.421146 
L 172.134913 59.327126 
L 172.930778 58.877433 
L 173.991931 57.62545 
L 174.389864 57.606351 
L 174.920441 57.105042 
L 175.318373 56.566462 
L 175.84895 56.165443 
L 176.114238 55.983779 
L 176.379527 55.983637 
L 176.644815 56.166343 
L 177.042748 56.09229 
L 177.838613 56.647189 
L 178.103901 56.78564 
L 180.093564 58.168228 
L 180.62414 58.174139 
L 182.083227 59.704098 
L 183.011736 59.00225 
L 183.940245 58.806828 
L 184.338178 58.702812 
L 184.73611 58.752687 
L 185.134043 58.657034 
L 185.797264 58.278435 
L 186.195196 58.133993 
L 186.593129 57.832999 
L 187.123706 57.614854 
L 187.654282 57.169722 
L 188.052215 56.972149 
L 188.84808 56.529142 
L 189.113368 56.512832 
L 189.246012 56.417612 
L 189.643945 55.791439 
L 190.041878 55.676398 
L 190.307166 55.710151 
L 190.837743 56.126436 
L 191.235675 56.10461 
L 191.766252 56.466479 
L 192.429473 57.729831 
L 192.827405 58.413947 
L 193.092694 58.530552 
L 193.888559 58.749655 
L 194.153847 58.986742 
L 194.684424 59.49071 
L 194.684424 59.49071 
" clip-path="url(#p99f5d2c9a3)" style="fill: none; stroke: #1e90ff; stroke-width: 0.5; stroke-linecap: square"/>
   </g>
   <g id="line2d_10">
    <path d="M 62.172884 55.972059 
L 62.570816 56.696855 
L 62.968749 57.688115 
L 63.234037 57.961258 
L 63.499326 58.084909 
L 63.764614 57.880781 
L 64.029902 58.475369 
L 64.958412 58.854434 
L 65.356344 58.193311 
L 65.754277 58.272911 
L 66.152209 57.506742 
L 66.948074 56.850087 
L 67.080719 56.935894 
L 67.478651 56.418736 
L 67.611295 56.351146 
L 67.743939 56.428126 
L 67.876584 56.362925 
L 68.009228 55.985461 
L 68.274516 55.081157 
L 68.539805 54.704662 
L 68.937737 54.584265 
L 69.070381 54.217263 
L 69.33567 54.614969 
L 69.600958 54.422385 
L 69.733602 54.357289 
L 69.866246 54.466839 
L 69.998891 54.407288 
L 70.264179 53.843747 
L 70.396823 54.014212 
L 70.529467 53.930677 
L 71.192688 54.953927 
L 71.325332 54.993936 
L 71.590621 55.528486 
L 72.121198 55.818649 
L 72.253842 55.86572 
L 73.049707 56.951027 
L 73.314995 57.990687 
L 73.447639 57.860092 
L 73.712928 58.545222 
L 73.978216 58.694183 
L 74.376149 58.624898 
L 74.641437 59.232084 
L 74.906725 59.320458 
L 75.569946 60.234731 
L 75.835235 60.379347 
L 75.967879 60.358698 
L 76.100523 60.52267 
L 76.365811 60.414928 
L 76.498456 60.241911 
L 76.763744 60.739296 
L 77.029032 60.688664 
L 77.294321 60.834358 
L 77.426965 60.977706 
L 77.559609 60.501411 
L 77.692253 60.612109 
L 77.824897 60.329053 
L 78.488118 60.375636 
L 78.886051 59.86851 
L 79.283983 59.974123 
L 79.416628 59.706738 
L 79.549272 59.701073 
L 79.681916 59.564649 
L 79.81456 59.711357 
L 80.079849 59.355028 
L 80.345137 59.169875 
L 80.477781 59.382588 
L 80.610425 59.367114 
L 80.74307 58.968249 
L 80.875714 58.211472 
L 81.008358 58.196524 
L 81.141002 57.982113 
L 81.273646 58.023653 
L 81.538935 57.811267 
L 81.804223 57.928343 
L 81.936867 57.880602 
L 82.3348 57.290008 
L 82.467444 57.294931 
L 82.732732 57.483109 
L 82.998021 56.978121 
L 83.130665 56.976557 
L 83.263309 56.789949 
L 83.661242 57.069879 
L 83.92653 57.834924 
L 84.059174 57.762355 
L 85.252972 58.583572 
L 85.51826 58.556344 
L 85.783549 58.556574 
L 85.916193 58.522132 
L 86.181481 58.695528 
L 86.579414 58.247703 
L 86.712058 58.247326 
L 86.844702 58.391075 
L 86.977346 58.331496 
L 87.242635 57.856642 
L 87.507923 57.798934 
L 88.0385 58.11553 
L 88.303788 58.566162 
L 88.436432 58.287908 
L 89.099653 58.618403 
L 89.232297 58.29934 
L 90.028162 58.733946 
L 90.426095 59.115236 
L 91.089316 59.357805 
L 91.22196 59.323877 
L 91.354604 59.129473 
L 91.619893 59.215141 
L 92.283114 59.003747 
L 92.415758 58.48524 
L 92.681046 58.339573 
L 93.078979 57.927183 
L 93.211623 57.992148 
L 93.344267 57.825068 
L 93.609555 56.785515 
L 94.007488 56.197263 
L 94.272776 56.069686 
L 94.405421 56.171855 
L 94.538065 56.453868 
L 95.33393 56.322076 
L 95.466574 56.357196 
L 95.731862 56.245047 
L 96.129795 56.216685 
L 96.395083 56.295183 
L 96.660372 56.854693 
L 96.793016 56.891581 
L 96.92566 57.140053 
L 97.058304 57.105774 
L 97.721525 57.605936 
L 97.986814 58.318821 
L 98.252102 58.541915 
L 98.782679 59.53324 
L 99.047967 59.493715 
L 99.4459 59.33308 
L 99.711188 59.421523 
L 99.976476 59.277892 
L 100.10912 59.440567 
L 100.241765 59.355784 
L 100.507053 59.611095 
L 100.639697 59.652773 
L 100.772341 59.836702 
L 100.904986 59.717624 
L 101.170274 59.891111 
L 101.302918 59.89685 
L 101.568206 59.684642 
L 101.833495 59.702319 
L 102.364072 58.69283 
L 102.496716 58.765523 
L 102.762004 58.678208 
L 102.894648 58.768273 
L 103.027293 58.664647 
L 103.159937 58.844973 
L 103.425225 58.66232 
L 103.690513 58.420087 
L 103.823158 58.623441 
L 103.955802 58.61833 
L 104.22109 58.072455 
L 104.353734 58.083443 
L 104.486379 57.930487 
L 105.149599 58.146169 
L 105.282244 58.021659 
L 105.81282 58.395698 
L 106.078109 58.373361 
L 106.476041 57.563995 
L 107.006618 57.505693 
L 107.271906 57.613064 
L 107.537195 57.718271 
L 107.802483 57.680946 
L 109.128925 57.752151 
L 109.394213 58.138134 
L 109.792146 58.057706 
L 109.92479 57.888168 
L 110.322723 58.088336 
L 110.455367 57.824335 
L 110.720655 58.052205 
L 110.985944 58.089819 
L 111.383876 58.670542 
L 111.51652 58.909458 
L 111.649165 58.675 
L 111.914453 58.901417 
L 112.312385 59.207896 
L 112.710318 59.287019 
L 112.975606 59.387603 
L 113.240895 59.42636 
L 113.373539 59.31679 
L 113.506183 59.362376 
L 113.771471 59.176991 
L 113.904116 59.235708 
L 114.302048 59.015168 
L 114.567337 59.125643 
L 114.699981 58.942142 
L 114.832625 58.556994 
L 114.965269 58.60813 
L 115.097913 58.420802 
L 115.230558 58.480645 
L 115.761134 57.943783 
L 115.893778 58.013348 
L 116.424355 57.38789 
L 116.556999 57.569409 
L 116.689644 57.458234 
L 116.822288 57.12254 
L 117.087576 56.266661 
L 117.22022 56.019614 
L 117.485509 55.943431 
L 117.618153 55.762415 
L 117.750797 55.964687 
L 118.281374 55.56982 
L 118.546662 55.569109 
L 118.81195 55.845924 
L 119.077239 55.28841 
L 119.209883 55.332197 
L 119.342527 55.230662 
L 119.607816 55.290017 
L 119.74046 55.178596 
L 119.873104 55.511519 
L 120.005748 55.3659 
L 120.271037 55.601438 
L 120.536325 55.452736 
L 120.934257 55.681659 
L 121.066902 55.700832 
L 121.730123 56.67635 
L 121.862767 56.787885 
L 122.260699 57.73681 
L 122.525988 57.959313 
L 122.658632 58.05547 
L 122.92392 58.024669 
L 123.189209 58.117039 
L 123.454497 58.704353 
L 123.719785 58.825314 
L 124.117718 59.158115 
L 124.383006 59.372901 
L 124.780939 59.055521 
L 125.178871 59.001461 
L 125.576804 57.966803 
L 125.842092 57.786365 
L 126.240025 57.618078 
L 126.505313 57.751077 
L 127.03589 57.25691 
L 127.168534 57.477069 
L 127.301178 57.283448 
L 127.566467 56.400886 
L 128.892909 55.446608 
L 129.158197 55.21914 
L 129.290841 55.280192 
L 129.423485 55.16621 
L 129.688774 54.185859 
L 129.821418 54.074549 
L 129.954062 54.15893 
L 130.086706 54.101353 
L 130.351995 54.28537 
L 130.484639 54.658723 
L 130.749927 54.512932 
L 131.015215 54.935237 
L 131.280504 55.28112 
L 131.413148 55.17944 
L 131.545792 55.274125 
L 131.811081 55.184047 
L 132.076369 55.260931 
L 132.474301 55.50947 
L 132.606946 55.802911 
L 132.73959 55.757098 
L 133.270167 56.49764 
L 133.933388 56.455162 
L 134.596608 56.98919 
L 134.861897 58.02245 
L 134.994541 57.898752 
L 135.259829 58.076208 
L 135.525118 58.232548 
L 135.790406 58.358868 
L 135.92305 58.301617 
L 136.85156 59.242774 
L 136.984204 59.135612 
L 137.116848 59.227832 
L 137.382136 59.133759 
L 137.912713 59.231151 
L 138.178001 58.700691 
L 138.310646 58.686959 
L 138.841222 58.056899 
L 138.973867 57.987842 
L 139.106511 57.436659 
L 139.239155 57.607 
L 139.504443 56.979574 
L 139.769732 56.686667 
L 139.902376 56.893601 
L 140.03502 56.805971 
L 140.432953 55.332026 
L 140.698241 55.065702 
L 140.830885 55.062227 
L 140.963529 54.709977 
L 141.228818 54.952537 
L 141.494106 54.958607 
L 141.759394 54.750623 
L 142.157327 54.868934 
L 142.422615 53.951892 
L 142.820548 54.040895 
L 143.085836 54.334707 
L 143.351125 55.144475 
L 143.483769 55.096777 
L 143.749057 55.65089 
L 144.14699 55.892838 
L 144.279634 56.012896 
L 144.412278 55.966086 
L 144.677566 56.242948 
L 144.942855 56.291187 
L 145.340787 56.582521 
L 145.473432 56.968504 
L 146.269297 56.999166 
L 146.534585 57.059321 
L 146.799873 56.658925 
L 146.932518 56.51542 
L 147.33045 56.799759 
L 147.595739 57.446404 
L 147.728383 57.368682 
L 147.993671 57.7487 
L 148.391604 57.951795 
L 148.656892 57.901415 
L 148.789536 57.360051 
L 148.92218 57.394996 
L 149.054825 57.16389 
L 149.187469 57.172562 
L 149.452757 56.791056 
L 149.585401 56.884972 
L 149.85069 56.736846 
L 150.115978 56.328922 
L 150.248622 56.173719 
L 150.779199 56.339829 
L 150.911843 56.009292 
L 151.575064 56.019032 
L 151.840352 56.488945 
L 152.370929 56.458731 
L 152.768862 56.697366 
L 153.03415 55.977531 
L 153.432083 55.99079 
L 154.493236 57.062619 
L 154.891169 57.140417 
L 155.156457 56.381463 
L 155.687034 56.217379 
L 155.819678 56.183106 
L 156.217611 56.467653 
L 157.013476 56.513467 
L 157.411408 56.779459 
L 157.544052 56.709288 
L 157.809341 56.970267 
L 157.941985 57.12839 
L 158.207273 57.772183 
L 158.339917 57.696482 
L 158.472562 57.840051 
L 158.73785 57.659542 
L 158.870494 57.79344 
L 159.003138 57.765053 
L 159.533715 58.075087 
L 159.666359 57.997373 
L 160.32958 58.243439 
L 160.860157 58.305443 
L 160.992801 58.289792 
L 161.125445 58.503828 
L 161.25809 58.494227 
L 161.523378 57.652835 
L 162.319243 57.576706 
L 162.451887 57.725389 
L 163.115108 57.388434 
L 163.247752 57.527342 
L 163.380396 57.500387 
L 163.513041 57.324757 
L 163.645685 56.892872 
L 164.176262 56.903694 
L 164.308906 57.002173 
L 164.44155 57.419492 
L 164.706838 57.319697 
L 165.104771 57.720492 
L 165.237415 57.699085 
L 165.370059 57.897128 
L 165.635348 57.696637 
L 165.767992 57.213814 
L 165.900636 57.317115 
L 166.03328 57.221851 
L 166.431213 57.357127 
L 166.563857 57.646835 
L 166.829145 57.534134 
L 167.094434 57.776057 
L 167.492366 57.853398 
L 167.62501 57.850962 
L 167.757655 57.582055 
L 168.022943 57.895324 
L 168.288231 58.04526 
L 168.818808 58.8669 
L 169.216741 59.237592 
L 169.482029 59.201261 
L 169.614673 59.220061 
L 169.747317 59.081653 
L 170.012606 58.729481 
L 170.543182 58.835273 
L 170.675827 58.963558 
L 170.808471 59.344669 
L 170.941115 59.217449 
L 171.73698 59.452324 
L 171.869624 59.385725 
L 172.134913 59.057212 
L 172.267557 59.054675 
L 172.665489 58.806897 
L 173.063422 58.611319 
L 173.726643 58.000613 
L 173.859287 58.217921 
L 173.991931 58.145379 
L 174.124575 57.909541 
L 174.389864 57.361743 
L 174.655152 57.14797 
L 174.787796 57.156123 
L 175.185729 56.509304 
L 175.318373 56.688742 
L 175.84895 56.499611 
L 175.981594 56.74384 
L 176.114238 56.667511 
L 176.379527 55.80134 
L 176.512171 55.836135 
L 176.644815 55.751769 
L 177.175392 56.344387 
L 177.308036 56.665573 
L 177.44068 56.532337 
L 177.838613 56.731886 
L 179.165054 57.372289 
L 179.430343 57.838054 
L 179.828275 58.10724 
L 180.491496 58.42539 
L 180.62414 58.185046 
L 180.889429 58.337122 
L 181.154717 58.602353 
L 182.215871 59.813272 
L 182.481159 59.876353 
L 182.613803 59.624343 
L 182.746447 58.894367 
L 183.14438 58.791813 
L 183.277024 58.724821 
L 183.940245 58.914736 
L 184.072889 58.847006 
L 184.205533 58.590756 
L 184.338178 58.668499 
L 184.470822 58.936452 
L 184.73611 58.706958 
L 184.868754 58.402326 
L 185.001399 58.445103 
L 185.134043 58.295394 
L 185.399331 58.385498 
L 185.531975 58.260761 
L 186.062552 58.33115 
L 186.725773 58.120661 
L 186.858417 57.91398 
L 187.123706 57.358646 
L 187.388994 57.222384 
L 187.521638 57.190597 
L 187.654282 56.959868 
L 188.052215 57.080276 
L 188.582792 56.806313 
L 188.715436 56.936082 
L 188.84808 56.896699 
L 189.378657 55.781532 
L 189.643945 55.757557 
L 189.776589 55.622082 
L 189.909233 56.02022 
L 190.572454 55.900443 
L 190.970387 56.163268 
L 191.103031 56.254436 
L 191.235675 56.001875 
L 191.368319 56.069075 
L 191.500964 56.007557 
L 191.898896 56.556135 
L 192.164185 57.563452 
L 192.296829 57.391255 
L 192.562117 57.96038 
L 192.827405 58.31281 
L 192.96005 58.253047 
L 193.225338 58.506694 
L 193.357982 58.38396 
L 193.490626 58.489882 
L 193.623271 58.381851 
L 194.153847 59.020638 
L 194.286491 59.364115 
L 194.419136 59.279276 
L 194.684424 59.653978 
L 194.684424 59.653978 
" clip-path="url(#p99f5d2c9a3)" style="fill: none; stroke: #ff0000; stroke-width: 0.5; stroke-linecap: square"/>
   </g>
   <g id="patch_3">
    <path d="M 59.52 129.12 
L 59.52 26.88 
" style="fill: none; stroke: #000000; stroke-width: 0.8; stroke-linejoin: miter; stroke-linecap: square"/>
   </g>
   <g id="patch_4">
    <path d="M 197.469952 129.12 
L 197.469952 26.88 
" style="fill: none; stroke: #000000; stroke-width: 0.8; stroke-linejoin: miter; stroke-linecap: square"/>
   </g>
   <g id="patch_5">
    <path d="M 59.52 129.12 
L 197.469952 129.12 
" style="fill: none; stroke: #000000; stroke-width: 0.8; stroke-linejoin: miter; stroke-linecap: square"/>
   </g>
   <g id="patch_6">
    <path d="M 59.52 26.88 
L 197.469952 26.88 
" style="fill: none; stroke: #000000; stroke-width: 0.8; stroke-linejoin: miter; stroke-linecap: square"/>
   </g>
   <g id="text_10">
    <!-- Time Domain Plot -->
    <g transform="translate(75.410913 20.88) scale(0.12 -0.12)">
     <defs>
      <path id="DejaVuSans-44" d="M 1259 4147 
L 1259 519 
L 2022 519 
Q 2988 519 3436 956 
Q 3884 1394 3884 2338 
Q 3884 3275 3436 3711 
Q 2988 4147 2022 4147 
L 1259 4147 
z
M 628 4666 
L 1925 4666 
Q 3281 4666 3915 4102 
Q 4550 3538 4550 2338 
Q 4550 1131 3912 565 
Q 3275 0 1925 0 
L 628 0 
L 628 4666 
z
" transform="scale(0.015625)"/>
      <path id="DejaVuSans-6f" d="M 1959 3097 
Q 1497 3097 1228 2736 
Q 959 2375 959 1747 
Q 959 1119 1226 758 
Q 1494 397 1959 397 
Q 2419 397 2687 759 
Q 2956 1122 2956 1747 
Q 2956 2369 2687 2733 
Q 2419 3097 1959 3097 
z
M 1959 3584 
Q 2709 3584 3137 3096 
Q 3566 2609 3566 1747 
Q 3566 888 3137 398 
Q 2709 -91 1959 -91 
Q 1206 -91 779 398 
Q 353 888 353 1747 
Q 353 2609 779 3096 
Q 1206 3584 1959 3584 
z
" transform="scale(0.015625)"/>
      <path id="DejaVuSans-61" d="M 2194 1759 
Q 1497 1759 1228 1600 
Q 959 1441 959 1056 
Q 959 750 1161 570 
Q 1363 391 1709 391 
Q 2188 391 2477 730 
Q 2766 1069 2766 1631 
L 2766 1759 
L 2194 1759 
z
M 3341 1997 
L 3341 0 
L 2766 0 
L 2766 531 
Q 2569 213 2275 61 
Q 1981 -91 1556 -91 
Q 1019 -91 701 211 
Q 384 513 384 1019 
Q 384 1609 779 1909 
Q 1175 2209 1959 2209 
L 2766 2209 
L 2766 2266 
Q 2766 2663 2505 2880 
Q 2244 3097 1772 3097 
Q 1472 3097 1187 3025 
Q 903 2953 641 2809 
L 641 3341 
Q 956 3463 1253 3523 
Q 1550 3584 1831 3584 
Q 2591 3584 2966 3190 
Q 3341 2797 3341 1997 
z
" transform="scale(0.015625)"/>
      <path id="DejaVuSans-6e" d="M 3513 2113 
L 3513 0 
L 2938 0 
L 2938 2094 
Q 2938 2591 2744 2837 
Q 2550 3084 2163 3084 
Q 1697 3084 1428 2787 
Q 1159 2491 1159 1978 
L 1159 0 
L 581 0 
L 581 3500 
L 1159 3500 
L 1159 2956 
Q 1366 3272 1645 3428 
Q 1925 3584 2291 3584 
Q 2894 3584 3203 3211 
Q 3513 2838 3513 2113 
z
" transform="scale(0.015625)"/>
      <path id="DejaVuSans-50" d="M 1259 4147 
L 1259 2394 
L 2053 2394 
Q 2494 2394 2734 2622 
Q 2975 2850 2975 3272 
Q 2975 3691 2734 3919 
Q 2494 4147 2053 4147 
L 1259 4147 
z
M 628 4666 
L 2053 4666 
Q 2838 4666 3239 4311 
Q 3641 3956 3641 3272 
Q 3641 2581 3239 2228 
Q 2838 1875 2053 1875 
L 1259 1875 
L 1259 0 
L 628 0 
L 628 4666 
z
" transform="scale(0.015625)"/>
     </defs>
     <use xlink:href="#DejaVuSans-54"/>
     <use xlink:href="#DejaVuSans-69" x="57.958984"/>
     <use xlink:href="#DejaVuSans-6d" x="85.742188"/>
     <use xlink:href="#DejaVuSans-65" x="183.154297"/>
     <use xlink:href="#DejaVuSans-20" x="244.677734"/>
     <use xlink:href="#DejaVuSans-44" x="276.464844"/>
     <use xlink:href="#DejaVuSans-6f" x="353.466797"/>
     <use xlink:href="#DejaVuSans-6d" x="414.648438"/>
     <use xlink:href="#DejaVuSans-61" x="512.060547"/>
     <use xlink:href="#DejaVuSans-69" x="573.339844"/>
     <use xlink:href="#DejaVuSans-6e" x="601.123047"/>
     <use xlink:href="#DejaVuSans-20" x="664.501953"/>
     <use xlink:href="#DejaVuSans-50" x="696.289062"/>
     <use xlink:href="#DejaVuSans-6c" x="756.591797"/>
     <use xlink:href="#DejaVuSans-6f" x="784.375"/>
     <use xlink:href="#DejaVuSans-74" x="845.556641"/>
    </g>
   </g>
   <g id="patch_7">
    <path d="M 87.381911 60.166545 
L 116.417723 60.166545 
L 116.417723 55.874597 
L 87.381911 55.874597 
L 87.381911 60.166545 
z
" clip-path="url(#p99f5d2c9a3)" style="fill: none; opacity: 0.8; stroke: #000000; stroke-width: 1.2; stroke-linejoin: miter"/>
   </g>
   <g id="patch_8">
    <path d="M 74.694495 67.776 
Q 81.038203 61.825299 87.381911 55.874597 
" style="fill: none; opacity: 0.8; stroke: #000000; stroke-linecap: round"/>
   </g>
   <g id="patch_9">
    <path d="M 157.464466 67.776 
Q 136.941094 61.825299 116.417723 55.874597 
" style="fill: none; opacity: 0.8; stroke: #000000; stroke-linecap: round"/>
   </g>
   <g id="axes_2">
    <g id="patch_10">
     <path d="M 74.694495 108.672 
L 157.464466 108.672 
L 157.464466 67.776 
L 74.694495 67.776 
z
" style="fill: #ffffff"/>
    </g>
    <g id="matplotlib.axis_3">
     <g id="xtick_4">
      <g id="line2d_11">
       <g>
        <use xlink:href="#mda154b85d4" x="74.879801" y="108.672" style="stroke: #000000; stroke-width: 0.8"/>
       </g>
      </g>
      <g id="text_11">
       <!-- 1.1 -->
       <g transform="translate(66.928238 123.270437) scale(0.1 -0.1)">
        <use xlink:href="#DejaVuSans-31"/>
        <use xlink:href="#DejaVuSans-2e" x="63.623047"/>
        <use xlink:href="#DejaVuSans-31" x="95.410156"/>
       </g>
      </g>
     </g>
     <g id="xtick_5">
      <g id="line2d_12">
       <g>
        <use xlink:href="#mda154b85d4" x="157.217391" y="108.672" style="stroke: #000000; stroke-width: 0.8"/>
       </g>
      </g>
      <g id="text_12">
       <!-- 1.2 -->
       <g transform="translate(149.265829 123.270437) scale(0.1 -0.1)">
        <use xlink:href="#DejaVuSans-31"/>
        <use xlink:href="#DejaVuSans-2e" x="63.623047"/>
        <use xlink:href="#DejaVuSans-32" x="95.410156"/>
       </g>
      </g>
     </g>
    </g>
    <g id="matplotlib.axis_4">
     <g id="ytick_5">
      <g id="line2d_13">
       <g>
        <use xlink:href="#m91828c7016" x="74.694495" y="108.074176" style="stroke: #000000; stroke-width: 0.8"/>
       </g>
      </g>
      <g id="text_13">
       <!-- −2 -->
       <g transform="translate(52.952307 111.873394) scale(0.1 -0.1)">
        <use xlink:href="#DejaVuSans-2212"/>
        <use xlink:href="#DejaVuSans-32" x="83.789062"/>
       </g>
      </g>
     </g>
     <g id="ytick_6">
      <g id="line2d_14">
       <g>
        <use xlink:href="#m91828c7016" x="74.694495" y="81.866213" style="stroke: #000000; stroke-width: 0.8"/>
       </g>
      </g>
      <g id="text_14">
       <!-- 0 -->
       <g transform="translate(61.331995 85.665432) scale(0.1 -0.1)">
        <use xlink:href="#DejaVuSans-30"/>
       </g>
      </g>
     </g>
    </g>
    <g id="line2d_15">
     <path d="M 75.106286 90.697357 
L 75.518077 91.353358 
L 75.929867 90.516198 
L 76.341658 90.725083 
L 76.753449 91.25091 
L 77.577031 93.080734 
L 78.812404 94.647471 
L 79.224195 94.317963 
L 79.635986 94.760089 
L 80.047776 94.510657 
L 80.459567 95.547979 
L 81.283149 98.176255 
L 81.69494 98.999737 
L 82.106731 100.20733 
L 82.930313 101.752406 
L 83.342104 102.124872 
L 83.753895 103.080788 
L 84.165685 103.157247 
L 84.577476 101.954768 
L 85.812849 96.961115 
L 86.22464 95.418305 
L 87.048222 91.416851 
L 87.460013 90.040259 
L 87.871804 89.292044 
L 89.107176 84.193988 
L 89.518967 82.459639 
L 91.166131 73.132969 
L 91.577922 71.823363 
L 91.989713 71.424806 
L 92.401503 71.234356 
L 92.813294 71.317265 
L 93.636876 71.981424 
L 94.048667 72.044118 
L 94.460458 72.394727 
L 94.872249 73.22495 
L 95.695831 73.973601 
L 96.107622 74.125487 
L 96.519412 73.912658 
L 96.931203 72.717792 
L 97.754785 71.828622 
L 98.166576 72.092603 
L 98.578367 72.536959 
L 99.401949 73.912048 
L 99.81374 74.506002 
L 100.225531 75.458838 
L 101.049112 79.42783 
L 102.284485 85.989179 
L 102.696276 86.952214 
L 103.108067 88.219486 
L 103.519858 90.162044 
L 104.34344 93.307539 
L 105.167021 97.00687 
L 105.990603 100.135745 
L 106.814185 101.235376 
L 107.225976 100.95386 
L 107.637767 100.397169 
L 108.049558 100.391351 
L 108.87314 100.827397 
L 109.28493 100.774894 
L 109.696721 101.19382 
L 110.108512 101.829598 
L 110.520303 103.000443 
L 110.932094 103.118981 
L 111.343885 103.644488 
L 111.755676 103.842623 
L 112.579258 105.527491 
L 112.991049 106.051204 
L 113.81463 105.307398 
L 114.226421 104.403556 
L 115.461794 100.02612 
L 117.108958 95.86261 
L 117.520748 95.793379 
L 118.34433 96.259287 
L 118.756121 96.276146 
L 119.991494 94.97594 
L 120.403285 94.289046 
L 120.815076 92.869953 
L 121.226867 91.958251 
L 121.638657 91.483976 
L 122.050448 91.485218 
L 122.462239 91.203608 
L 123.285821 91.200412 
L 124.521194 89.451978 
L 124.932985 88.233621 
L 126.168357 87.975662 
L 126.580148 87.880636 
L 126.991939 88.700306 
L 127.40373 88.971659 
L 127.815521 88.781377 
L 129.050894 85.613822 
L 129.462685 85.786417 
L 129.874475 86.267484 
L 130.286266 86.324476 
L 130.698057 85.765664 
L 131.109848 85.721747 
L 131.93343 83.369619 
L 132.757012 81.99355 
L 133.168803 82.047695 
L 133.992384 83.450131 
L 134.404175 83.962658 
L 134.815966 84.802593 
L 136.051339 86.206156 
L 136.46313 86.97601 
L 136.874921 88.142649 
L 137.286712 88.522212 
L 137.698503 88.124976 
L 138.110294 88.864061 
L 138.522084 88.402018 
L 138.933875 88.395466 
L 139.345666 87.955083 
L 139.757457 87.241843 
L 140.169248 86.783083 
L 140.581039 86.716474 
L 140.99283 86.906423 
L 141.816412 87.974398 
L 142.228203 88.895266 
L 142.639993 88.782532 
L 143.051784 89.667045 
L 143.463575 90.171807 
L 143.875366 91.100099 
L 144.698948 90.598519 
L 145.110739 90.810062 
L 145.934321 92.057867 
L 146.346112 92.730408 
L 146.757902 93.823196 
L 147.581484 97.634266 
L 147.993275 98.279895 
L 148.405066 99.680951 
L 148.816857 100.270118 
L 149.228648 101.984884 
L 149.640439 103.105253 
L 150.05223 103.173968 
L 150.464021 102.870559 
L 150.875811 103.164489 
L 151.287602 102.55454 
L 152.934766 97.577441 
L 153.346557 97.030303 
L 154.170139 97.086931 
L 154.58193 96.619992 
L 154.99372 96.686202 
L 155.817302 96.30276 
L 156.229093 96.110756 
L 157.052675 95.394647 
L 157.052675 95.394647 
" clip-path="url(#p1e286a53c7)" style="fill: none; stroke: #1e90ff; stroke-width: 0.5; stroke-linecap: square"/>
    </g>
    <g id="line2d_16">
     <path d="M 75.106286 92.224651 
L 75.518077 91.973346 
L 76.341658 93.686993 
L 76.753449 90.77139 
L 77.16524 91.254266 
L 77.577031 91.557696 
L 77.988822 91.508048 
L 78.400613 92.106796 
L 79.224195 94.742823 
L 79.635986 96.391618 
L 80.871358 98.769431 
L 81.283149 99.536009 
L 81.69494 99.231591 
L 82.106731 100.560612 
L 82.518522 100.44365 
L 82.930313 100.133617 
L 83.342104 98.357152 
L 83.753895 98.937857 
L 84.165685 99.139987 
L 84.989267 98.030267 
L 85.401058 97.209443 
L 85.812849 96.804202 
L 86.22464 97.208266 
L 86.636431 92.470146 
L 87.048222 92.313684 
L 87.871804 89.895332 
L 88.283594 87.312571 
L 88.695385 87.370616 
L 89.107176 87.964265 
L 89.518967 86.437486 
L 89.930758 80.776457 
L 90.342549 76.938046 
L 90.75434 74.39419 
L 91.577922 71.5626 
L 91.989713 71.100477 
L 92.401503 70.396796 
L 92.813294 71.33042 
L 93.225085 73.907457 
L 93.636876 73.533386 
L 94.048667 73.359941 
L 94.460458 72.840688 
L 94.872249 72.902147 
L 95.28404 72.35041 
L 96.107622 73.024063 
L 96.519412 71.950153 
L 96.931203 71.999249 
L 97.342994 71.562259 
L 98.578367 71.687421 
L 98.990158 72.457392 
L 99.401949 76.922698 
L 99.81374 77.5702 
L 100.225531 77.907284 
L 100.637321 80.177818 
L 101.049112 79.864581 
L 101.460903 80.825967 
L 101.872694 82.605961 
L 102.284485 82.810031 
L 102.696276 83.876923 
L 103.108067 84.435059 
L 103.519858 89.513851 
L 103.931649 90.949404 
L 104.34344 91.540016 
L 104.755231 92.988041 
L 105.167021 95.3476 
L 105.578812 95.544158 
L 105.990603 98.269028 
L 106.402394 102.046779 
L 106.814185 102.140068 
L 107.637767 101.154689 
L 108.049558 99.996302 
L 108.461349 100.21771 
L 108.87314 101.207265 
L 109.28493 101.025902 
L 109.696721 100.543361 
L 110.108512 99.713406 
L 110.520303 101.199928 
L 110.932094 100.425186 
L 111.343885 102.082386 
L 111.755676 102.758217 
L 112.167467 103.139073 
L 112.579258 104.819815 
L 112.991049 103.731683 
L 113.402839 104.720853 
L 113.81463 105.317008 
L 114.226421 105.369445 
L 115.050003 103.430293 
L 115.461794 103.976735 
L 115.873585 103.591826 
L 116.285376 100.958509 
L 116.697167 95.990584 
L 117.108958 95.970195 
L 117.520748 94.367103 
L 117.932539 95.031377 
L 118.34433 94.381688 
L 118.756121 94.233492 
L 119.167912 95.056503 
L 119.579703 94.109572 
L 119.991494 95.757387 
L 120.403285 95.414397 
L 121.226867 92.546518 
L 121.638657 91.874776 
L 122.050448 93.733031 
L 122.462239 93.686324 
L 123.285821 88.698112 
L 123.697612 88.79852 
L 124.109403 87.400812 
L 124.521194 87.971223 
L 125.344776 88.39232 
L 125.756566 90.294877 
L 126.580148 88.233941 
L 126.991939 89.273144 
L 127.40373 89.774201 
L 128.227312 91.651908 
L 128.639103 91.827539 
L 129.050894 91.447795 
L 129.874475 85.139968 
L 130.286266 84.051807 
L 130.698057 83.879553 
L 131.109848 83.895097 
L 131.521639 84.037744 
L 131.93343 83.519036 
L 132.345221 84.717992 
L 132.757012 84.500194 
L 133.580594 85.46158 
L 133.992384 84.851537 
L 134.404175 85.120501 
L 134.815966 85.224794 
L 135.227757 85.559801 
L 135.639548 86.120276 
L 136.051339 86.041507 
L 136.46313 85.07131 
L 136.874921 85.831467 
L 137.286712 85.423503 
L 137.698503 86.370986 
L 138.110294 86.36341 
L 138.522084 85.771178 
L 138.933875 88.31714 
L 139.345666 89.298291 
L 139.757457 89.106512 
L 140.169248 88.438242 
L 140.581039 88.563339 
L 140.99283 87.014101 
L 142.228203 88.843235 
L 142.639993 86.430789 
L 143.051784 87.79464 
L 143.463575 88.513074 
L 143.875366 88.230694 
L 144.287157 88.856782 
L 144.698948 90.297688 
L 145.110739 90.918373 
L 145.52253 94.16344 
L 145.934321 96.346656 
L 146.346112 94.204175 
L 146.757902 96.007959 
L 147.169693 96.273175 
L 147.993275 98.651772 
L 148.405066 99.073777 
L 148.816857 99.137553 
L 149.228648 99.801429 
L 149.640439 99.796809 
L 150.05223 100.746754 
L 150.464021 100.715941 
L 151.287602 101.07011 
L 151.699393 100.068853 
L 152.111184 100.485417 
L 152.522975 98.803266 
L 152.934766 98.791368 
L 153.346557 99.32793 
L 153.758348 98.371745 
L 154.170139 96.871109 
L 154.58193 97.312632 
L 154.99372 98.245203 
L 155.405511 98.322155 
L 155.817302 96.645321 
L 156.229093 93.125835 
L 156.640884 93.593115 
L 157.052675 91.881313 
L 157.052675 91.881313 
" clip-path="url(#p1e286a53c7)" style="fill: none; stroke: #ff0000; stroke-width: 0.5; stroke-linecap: square"/>
    </g>
    <g id="line2d_17">
     <path d="M 75.106286 76.487385 
L 75.567573 181 
M 78.339633 181 
L 78.400613 111.72578 
L 78.781502 -1 
M 80.66295 -1 
L 81.283149 49.106659 
L 81.69494 86.931548 
L 82.176033 181 
M 84.924065 181 
L 84.989267 118.237299 
L 85.371547 -1 
M 87.384178 -1 
L 87.871804 38.424148 
L 88.283594 74.940835 
L 88.817147 181 
M 91.485258 181 
L 91.577922 88.105684 
L 91.898735 -1 
M 94.10251 -1 
L 94.872249 61.974302 
L 95.506018 181 
M 98.064029 181 
L 98.166576 89.63013 
L 98.471687 -1 
M 100.693358 -1 
L 101.460903 69.519583 
L 102.010528 181 
M 104.68245 181 
L 104.755231 110.867576 
L 105.211978 -1 
M 106.757365 -1 
L 107.225976 26.950247 
L 108.049558 89.606966 
L 108.571739 181 
M 111.279162 181 
L 111.343885 126.754085 
L 111.669492 -1 
M 113.84539 -1 
L 114.638212 86.899384 
L 115.023447 181 
M 117.884896 181 
L 117.932539 120.709418 
L 118.223601 -1 
M 120.594801 -1 
L 121.226867 74.943849 
L 121.630037 181 
M 124.468467 181 
L 124.521194 108.919527 
L 124.850407 -1 
M 127.020264 -1 
L 127.815521 75.329818 
L 128.311362 181 
M 131.041432 181 
L 131.109848 108.32858 
L 131.392054 -1 
M 133.798054 -1 
L 134.404175 68.341939 
L 134.856843 181 
M 137.642406 181 
L 137.698503 111.345451 
L 137.984421 -1 
M 140.374406 -1 
L 140.99283 70.861687 
L 141.427951 181 
M 144.230049 181 
L 144.287157 107.137476 
L 144.67566 -1 
M 146.501343 -1 
L 147.169693 49.654633 
L 147.581484 86.339083 
L 148.095258 181 
M 150.814676 181 
L 150.875811 127.283812 
L 151.187571 -1 
M 153.490753 -1 
L 154.170139 80.421112 
L 154.560494 181 
L 154.560494 181 
" clip-path="url(#p1e286a53c7)" style="fill: none; stroke: #ffa500; stroke-width: 0.5; stroke-linecap: square"/>
    </g>
    <g id="patch_11">
     <path d="M 74.694495 108.672 
L 74.694495 67.776 
" style="fill: none; stroke: #000000; stroke-width: 0.8; stroke-linejoin: miter; stroke-linecap: square"/>
    </g>
    <g id="patch_12">
     <path d="M 157.464466 108.672 
L 157.464466 67.776 
" style="fill: none; stroke: #000000; stroke-width: 0.8; stroke-linejoin: miter; stroke-linecap: square"/>
    </g>
    <g id="patch_13">
     <path d="M 74.694495 108.672 
L 157.464466 108.672 
" style="fill: none; stroke: #000000; stroke-width: 0.8; stroke-linejoin: miter; stroke-linecap: square"/>
    </g>
    <g id="patch_14">
     <path d="M 74.694495 67.776 
L 157.464466 67.776 
" style="fill: none; stroke: #000000; stroke-width: 0.8; stroke-linejoin: miter; stroke-linecap: square"/>
    </g>
   </g>
   <g id="legend_1">
    <g id="patch_15">
     <path d="M 20.235014 158.292 
L 51.103139 158.292 
Q 51.703139 158.292 51.703139 157.692 
L 51.703139 144.781688 
Q 51.703139 144.181688 51.103139 144.181688 
L 20.235014 144.181688 
Q 19.635014 144.181688 19.635014 144.781688 
L 19.635014 157.692 
Q 19.635014 158.292 20.235014 158.292 
z
" style="fill: #ffffff; opacity: 0.8; stroke: #cccccc; stroke-linejoin: miter"/>
    </g>
    <g id="line2d_18">
     <path d="M 20.835014 146.611219 
L 23.835014 146.611219 
L 26.835014 146.611219 
" style="fill: none; stroke: #ffa500; stroke-width: 0.5; stroke-linecap: square"/>
    </g>
    <g id="text_15">
     <!-- Contaminated -->
     <g transform="translate(29.235014 147.661219) scale(0.03 -0.03)">
      <defs>
       <path id="DejaVuSans-43" d="M 4122 4306 
L 4122 3641 
Q 3803 3938 3442 4084 
Q 3081 4231 2675 4231 
Q 1875 4231 1450 3742 
Q 1025 3253 1025 2328 
Q 1025 1406 1450 917 
Q 1875 428 2675 428 
Q 3081 428 3442 575 
Q 3803 722 4122 1019 
L 4122 359 
Q 3791 134 3420 21 
Q 3050 -91 2638 -91 
Q 1578 -91 968 557 
Q 359 1206 359 2328 
Q 359 3453 968 4101 
Q 1578 4750 2638 4750 
Q 3056 4750 3426 4639 
Q 3797 4528 4122 4306 
z
" transform="scale(0.015625)"/>
      </defs>
      <use xlink:href="#DejaVuSans-43"/>
      <use xlink:href="#DejaVuSans-6f" x="69.824219"/>
      <use xlink:href="#DejaVuSans-6e" x="131.005859"/>
      <use xlink:href="#DejaVuSans-74" x="194.384766"/>
      <use xlink:href="#DejaVuSans-61" x="233.59375"/>
      <use xlink:href="#DejaVuSans-6d" x="294.873047"/>
      <use xlink:href="#DejaVuSans-69" x="392.285156"/>
      <use xlink:href="#DejaVuSans-6e" x="420.068359"/>
      <use xlink:href="#DejaVuSans-61" x="483.447266"/>
      <use xlink:href="#DejaVuSans-74" x="544.726562"/>
      <use xlink:href="#DejaVuSans-65" x="583.935547"/>
      <use xlink:href="#DejaVuSans-64" x="645.458984"/>
     </g>
    </g>
    <g id="line2d_19">
     <path d="M 20.835014 151.014656 
L 23.835014 151.014656 
L 26.835014 151.014656 
" style="fill: none; stroke: #1e90ff; stroke-width: 0.5; stroke-linecap: square"/>
    </g>
    <g id="text_16">
     <!-- Clean -->
     <g transform="translate(29.235014 152.064656) scale(0.03 -0.03)">
      <use xlink:href="#DejaVuSans-43"/>
      <use xlink:href="#DejaVuSans-6c" x="69.824219"/>
      <use xlink:href="#DejaVuSans-65" x="97.607422"/>
      <use xlink:href="#DejaVuSans-61" x="159.130859"/>
      <use xlink:href="#DejaVuSans-6e" x="220.410156"/>
     </g>
    </g>
    <g id="line2d_20">
     <path d="M 20.835014 155.418094 
L 23.835014 155.418094 
L 26.835014 155.418094 
" style="fill: none; stroke: #ff0000; stroke-width: 0.5; stroke-linecap: square"/>
    </g>
    <g id="text_17">
     <!-- SACed -->
     <g transform="translate(29.235014 156.468094) scale(0.03 -0.03)">
      <defs>
       <path id="DejaVuSans-53" d="M 3425 4513 
L 3425 3897 
Q 3066 4069 2747 4153 
Q 2428 4238 2131 4238 
Q 1616 4238 1336 4038 
Q 1056 3838 1056 3469 
Q 1056 3159 1242 3001 
Q 1428 2844 1947 2747 
L 2328 2669 
Q 3034 2534 3370 2195 
Q 3706 1856 3706 1288 
Q 3706 609 3251 259 
Q 2797 -91 1919 -91 
Q 1588 -91 1214 -16 
Q 841 59 441 206 
L 441 856 
Q 825 641 1194 531 
Q 1563 422 1919 422 
Q 2459 422 2753 634 
Q 3047 847 3047 1241 
Q 3047 1584 2836 1778 
Q 2625 1972 2144 2069 
L 1759 2144 
Q 1053 2284 737 2584 
Q 422 2884 422 3419 
Q 422 4038 858 4394 
Q 1294 4750 2059 4750 
Q 2388 4750 2728 4690 
Q 3069 4631 3425 4513 
z
" transform="scale(0.015625)"/>
      </defs>
      <use xlink:href="#DejaVuSans-53"/>
      <use xlink:href="#DejaVuSans-41" x="65.351562"/>
      <use xlink:href="#DejaVuSans-43" x="132.009766"/>
      <use xlink:href="#DejaVuSans-65" x="201.833984"/>
      <use xlink:href="#DejaVuSans-64" x="263.357422"/>
     </g>
    </g>
   </g>
  </g>
 </g>
 <defs>
  <clipPath id="p99f5d2c9a3">
   <rect x="59.52" y="26.88" width="137.949952" height="102.24"/>
  </clipPath>
  <clipPath id="p1e286a53c7">
   <rect x="74.694495" y="67.776" width="82.769971" height="40.896"/>
  </clipPath>
 </defs>
</svg>
