<?xml version="1.0" encoding="utf-8" standalone="no"?>
<!DOCTYPE svg PUBLIC "-//W3C//DTD SVG 1.1//EN"
  "http://www.w3.org/Graphics/SVG/1.1/DTD/svg11.dtd">
<svg xmlns:xlink="http://www.w3.org/1999/xlink" width="216pt" height="180pt" viewBox="0 0 216 180" xmlns="http://www.w3.org/2000/svg" version="1.1">
 <metadata>
  <rdf:RDF xmlns:dc="http://purl.org/dc/elements/1.1/" xmlns:cc="http://creativecommons.org/ns#" xmlns:rdf="http://www.w3.org/1999/02/22-rdf-syntax-ns#">
   <cc:Work>
    <dc:type rdf:resource="http://purl.org/dc/dcmitype/StillImage"/>
    <dc:date>2024-08-24T23:51:10.588953</dc:date>
    <dc:format>image/svg+xml</dc:format>
    <dc:creator>
     <cc:Agent>
      <dc:title>Matplotlib v3.9.1, https://matplotlib.org/</dc:title>
     </cc:Agent>
    </dc:creator>
   </cc:Work>
  </rdf:RDF>
 </metadata>
 <defs>
  <style type="text/css">*{stroke-linejoin: round; stroke-linecap: butt}</style>
 </defs>
 <g id="figure_1">
  <g id="patch_1">
   <path d="M 0 180 
L 216 180 
L 216 0 
L 0 0 
z
" style="fill: #ffffff"/>
  </g>
  <g id="axes_1">
   <g id="patch_2">
    <path d="M 59.52 129.12 
L 197.469952 129.12 
L 197.469952 26.88 
L 59.52 26.88 
z
" style="fill: #ffffff"/>
   </g>
   <g id="matplotlib.axis_1">
    <g id="xtick_1">
     <g id="line2d_1">
      <defs>
       <path id="m5e0ca6b82c" d="M 0 0 
L 0 3.5 
" style="stroke: #000000; stroke-width: 0.8"/>
      </defs>
      <g>
       <use xlink:href="#m5e0ca6b82c" x="62.106562" y="129.12" style="stroke: #000000; stroke-width: 0.8"/>
      </g>
     </g>
     <g id="text_1">
      <!-- 1.00 -->
      <g transform="translate(50.973749 143.718437) scale(0.1 -0.1)">
       <defs>
        <path id="DejaVuSans-31" d="M 794 531 
L 1825 531 
L 1825 4091 
L 703 3866 
L 703 4441 
L 1819 4666 
L 2450 4666 
L 2450 531 
L 3481 531 
L 3481 0 
L 794 0 
L 794 531 
z
" transform="scale(0.015625)"/>
        <path id="DejaVuSans-2e" d="M 684 794 
L 1344 794 
L 1344 0 
L 684 0 
L 684 794 
z
" transform="scale(0.015625)"/>
        <path id="DejaVuSans-30" d="M 2034 4250 
Q 1547 4250 1301 3770 
Q 1056 3291 1056 2328 
Q 1056 1369 1301 889 
Q 1547 409 2034 409 
Q 2525 409 2770 889 
Q 3016 1369 3016 2328 
Q 3016 3291 2770 3770 
Q 2525 4250 2034 4250 
z
M 2034 4750 
Q 2819 4750 3233 4129 
Q 3647 3509 3647 2328 
Q 3647 1150 3233 529 
Q 2819 -91 2034 -91 
Q 1250 -91 836 529 
Q 422 1150 422 2328 
Q 422 3509 836 4129 
Q 1250 4750 2034 4750 
z
" transform="scale(0.015625)"/>
       </defs>
       <use xlink:href="#DejaVuSans-31"/>
       <use xlink:href="#DejaVuSans-2e" x="63.623047"/>
       <use xlink:href="#DejaVuSans-30" x="95.410156"/>
       <use xlink:href="#DejaVuSans-30" x="159.033203"/>
      </g>
     </g>
    </g>
    <g id="xtick_2">
     <g id="line2d_2">
      <g>
       <use xlink:href="#m5e0ca6b82c" x="128.412073" y="129.12" style="stroke: #000000; stroke-width: 0.8"/>
      </g>
     </g>
     <g id="text_2">
      <!-- 1.25 -->
      <g transform="translate(117.279261 143.718437) scale(0.1 -0.1)">
       <defs>
        <path id="DejaVuSans-32" d="M 1228 531 
L 3431 531 
L 3431 0 
L 469 0 
L 469 531 
Q 828 903 1448 1529 
Q 2069 2156 2228 2338 
Q 2531 2678 2651 2914 
Q 2772 3150 2772 3378 
Q 2772 3750 2511 3984 
Q 2250 4219 1831 4219 
Q 1534 4219 1204 4116 
Q 875 4013 500 3803 
L 500 4441 
Q 881 4594 1212 4672 
Q 1544 4750 1819 4750 
Q 2544 4750 2975 4387 
Q 3406 4025 3406 3419 
Q 3406 3131 3298 2873 
Q 3191 2616 2906 2266 
Q 2828 2175 2409 1742 
Q 1991 1309 1228 531 
z
" transform="scale(0.015625)"/>
        <path id="DejaVuSans-35" d="M 691 4666 
L 3169 4666 
L 3169 4134 
L 1269 4134 
L 1269 2991 
Q 1406 3038 1543 3061 
Q 1681 3084 1819 3084 
Q 2600 3084 3056 2656 
Q 3513 2228 3513 1497 
Q 3513 744 3044 326 
Q 2575 -91 1722 -91 
Q 1428 -91 1123 -41 
Q 819 9 494 109 
L 494 744 
Q 775 591 1075 516 
Q 1375 441 1709 441 
Q 2250 441 2565 725 
Q 2881 1009 2881 1497 
Q 2881 1984 2565 2268 
Q 2250 2553 1709 2553 
Q 1456 2553 1204 2497 
Q 953 2441 691 2322 
L 691 4666 
z
" transform="scale(0.015625)"/>
       </defs>
       <use xlink:href="#DejaVuSans-31"/>
       <use xlink:href="#DejaVuSans-2e" x="63.623047"/>
       <use xlink:href="#DejaVuSans-32" x="95.410156"/>
       <use xlink:href="#DejaVuSans-35" x="159.033203"/>
      </g>
     </g>
    </g>
    <g id="xtick_3">
     <g id="line2d_3">
      <g>
       <use xlink:href="#m5e0ca6b82c" x="194.717585" y="129.12" style="stroke: #000000; stroke-width: 0.8"/>
      </g>
     </g>
     <g id="text_3">
      <!-- 1.50 -->
      <g transform="translate(183.584773 143.718437) scale(0.1 -0.1)">
       <use xlink:href="#DejaVuSans-31"/>
       <use xlink:href="#DejaVuSans-2e" x="63.623047"/>
       <use xlink:href="#DejaVuSans-35" x="95.410156"/>
       <use xlink:href="#DejaVuSans-30" x="159.033203"/>
      </g>
     </g>
    </g>
    <g id="text_4">
     <!-- Time (s) -->
     <g transform="translate(108.16607 157.396563) scale(0.1 -0.1)">
      <defs>
       <path id="DejaVuSans-54" d="M -19 4666 
L 3928 4666 
L 3928 4134 
L 2272 4134 
L 2272 0 
L 1638 0 
L 1638 4134 
L -19 4134 
L -19 4666 
z
" transform="scale(0.015625)"/>
       <path id="DejaVuSans-69" d="M 603 3500 
L 1178 3500 
L 1178 0 
L 603 0 
L 603 3500 
z
M 603 4863 
L 1178 4863 
L 1178 4134 
L 603 4134 
L 603 4863 
z
" transform="scale(0.015625)"/>
       <path id="DejaVuSans-6d" d="M 3328 2828 
Q 3544 3216 3844 3400 
Q 4144 3584 4550 3584 
Q 5097 3584 5394 3201 
Q 5691 2819 5691 2113 
L 5691 0 
L 5113 0 
L 5113 2094 
Q 5113 2597 4934 2840 
Q 4756 3084 4391 3084 
Q 3944 3084 3684 2787 
Q 3425 2491 3425 1978 
L 3425 0 
L 2847 0 
L 2847 2094 
Q 2847 2600 2669 2842 
Q 2491 3084 2119 3084 
Q 1678 3084 1418 2786 
Q 1159 2488 1159 1978 
L 1159 0 
L 581 0 
L 581 3500 
L 1159 3500 
L 1159 2956 
Q 1356 3278 1631 3431 
Q 1906 3584 2284 3584 
Q 2666 3584 2933 3390 
Q 3200 3197 3328 2828 
z
" transform="scale(0.015625)"/>
       <path id="DejaVuSans-65" d="M 3597 1894 
L 3597 1613 
L 953 1613 
Q 991 1019 1311 708 
Q 1631 397 2203 397 
Q 2534 397 2845 478 
Q 3156 559 3463 722 
L 3463 178 
Q 3153 47 2828 -22 
Q 2503 -91 2169 -91 
Q 1331 -91 842 396 
Q 353 884 353 1716 
Q 353 2575 817 3079 
Q 1281 3584 2069 3584 
Q 2775 3584 3186 3129 
Q 3597 2675 3597 1894 
z
M 3022 2063 
Q 3016 2534 2758 2815 
Q 2500 3097 2075 3097 
Q 1594 3097 1305 2825 
Q 1016 2553 972 2059 
L 3022 2063 
z
" transform="scale(0.015625)"/>
       <path id="DejaVuSans-20" transform="scale(0.015625)"/>
       <path id="DejaVuSans-28" d="M 1984 4856 
Q 1566 4138 1362 3434 
Q 1159 2731 1159 2009 
Q 1159 1288 1364 580 
Q 1569 -128 1984 -844 
L 1484 -844 
Q 1016 -109 783 600 
Q 550 1309 550 2009 
Q 550 2706 781 3412 
Q 1013 4119 1484 4856 
L 1984 4856 
z
" transform="scale(0.015625)"/>
       <path id="DejaVuSans-73" d="M 2834 3397 
L 2834 2853 
Q 2591 2978 2328 3040 
Q 2066 3103 1784 3103 
Q 1356 3103 1142 2972 
Q 928 2841 928 2578 
Q 928 2378 1081 2264 
Q 1234 2150 1697 2047 
L 1894 2003 
Q 2506 1872 2764 1633 
Q 3022 1394 3022 966 
Q 3022 478 2636 193 
Q 2250 -91 1575 -91 
Q 1294 -91 989 -36 
Q 684 19 347 128 
L 347 722 
Q 666 556 975 473 
Q 1284 391 1588 391 
Q 1994 391 2212 530 
Q 2431 669 2431 922 
Q 2431 1156 2273 1281 
Q 2116 1406 1581 1522 
L 1381 1569 
Q 847 1681 609 1914 
Q 372 2147 372 2553 
Q 372 3047 722 3315 
Q 1072 3584 1716 3584 
Q 2034 3584 2315 3537 
Q 2597 3491 2834 3397 
z
" transform="scale(0.015625)"/>
       <path id="DejaVuSans-29" d="M 513 4856 
L 1013 4856 
Q 1481 4119 1714 3412 
Q 1947 2706 1947 2009 
Q 1947 1309 1714 600 
Q 1481 -109 1013 -844 
L 513 -844 
Q 928 -128 1133 580 
Q 1338 1288 1338 2009 
Q 1338 2731 1133 3434 
Q 928 4138 513 4856 
z
" transform="scale(0.015625)"/>
      </defs>
      <use xlink:href="#DejaVuSans-54"/>
      <use xlink:href="#DejaVuSans-69" x="57.958984"/>
      <use xlink:href="#DejaVuSans-6d" x="85.742188"/>
      <use xlink:href="#DejaVuSans-65" x="183.154297"/>
      <use xlink:href="#DejaVuSans-20" x="244.677734"/>
      <use xlink:href="#DejaVuSans-28" x="276.464844"/>
      <use xlink:href="#DejaVuSans-73" x="315.478516"/>
      <use xlink:href="#DejaVuSans-29" x="367.578125"/>
     </g>
    </g>
   </g>
   <g id="matplotlib.axis_2">
    <g id="ytick_1">
     <g id="line2d_4">
      <defs>
       <path id="m8039e9dd5e" d="M 0 0 
L -3.5 0 
" style="stroke: #000000; stroke-width: 0.8"/>
      </defs>
      <g>
       <use xlink:href="#m8039e9dd5e" x="59.52" y="114.685171" style="stroke: #000000; stroke-width: 0.8"/>
      </g>
     </g>
     <g id="text_5">
      <!-- −40 -->
      <g transform="translate(31.415312 118.484389) scale(0.1 -0.1)">
       <defs>
        <path id="DejaVuSans-2212" d="M 678 2272 
L 4684 2272 
L 4684 1741 
L 678 1741 
L 678 2272 
z
" transform="scale(0.015625)"/>
        <path id="DejaVuSans-34" d="M 2419 4116 
L 825 1625 
L 2419 1625 
L 2419 4116 
z
M 2253 4666 
L 3047 4666 
L 3047 1625 
L 3713 1625 
L 3713 1100 
L 3047 1100 
L 3047 0 
L 2419 0 
L 2419 1100 
L 313 1100 
L 313 1709 
L 2253 4666 
z
" transform="scale(0.015625)"/>
       </defs>
       <use xlink:href="#DejaVuSans-2212"/>
       <use xlink:href="#DejaVuSans-34" x="83.789062"/>
       <use xlink:href="#DejaVuSans-30" x="147.412109"/>
      </g>
     </g>
    </g>
    <g id="ytick_2">
     <g id="line2d_5">
      <g>
       <use xlink:href="#m8039e9dd5e" x="59.52" y="86.004995" style="stroke: #000000; stroke-width: 0.8"/>
      </g>
     </g>
     <g id="text_6">
      <!-- −20 -->
      <g transform="translate(31.415312 89.804214) scale(0.1 -0.1)">
       <use xlink:href="#DejaVuSans-2212"/>
       <use xlink:href="#DejaVuSans-32" x="83.789062"/>
       <use xlink:href="#DejaVuSans-30" x="147.412109"/>
      </g>
     </g>
    </g>
    <g id="ytick_3">
     <g id="line2d_6">
      <g>
       <use xlink:href="#m8039e9dd5e" x="59.52" y="57.324819" style="stroke: #000000; stroke-width: 0.8"/>
      </g>
     </g>
     <g id="text_7">
      <!-- 0 -->
      <g transform="translate(46.1575 61.124038) scale(0.1 -0.1)">
       <use xlink:href="#DejaVuSans-30"/>
      </g>
     </g>
    </g>
    <g id="ytick_4">
     <g id="line2d_7">
      <g>
       <use xlink:href="#m8039e9dd5e" x="59.52" y="28.644643" style="stroke: #000000; stroke-width: 0.8"/>
      </g>
     </g>
     <g id="text_8">
      <!-- 20 -->
      <g transform="translate(39.795 32.443862) scale(0.1 -0.1)">
       <use xlink:href="#DejaVuSans-32"/>
       <use xlink:href="#DejaVuSans-30" x="63.623047"/>
      </g>
     </g>
    </g>
    <g id="text_9">
     <!-- Amplitude (mV) -->
     <g transform="translate(25.335625 117.403906) rotate(-90) scale(0.1 -0.1)">
      <defs>
       <path id="DejaVuSans-41" d="M 2188 4044 
L 1331 1722 
L 3047 1722 
L 2188 4044 
z
M 1831 4666 
L 2547 4666 
L 4325 0 
L 3669 0 
L 3244 1197 
L 1141 1197 
L 716 0 
L 50 0 
L 1831 4666 
z
" transform="scale(0.015625)"/>
       <path id="DejaVuSans-70" d="M 1159 525 
L 1159 -1331 
L 581 -1331 
L 581 3500 
L 1159 3500 
L 1159 2969 
Q 1341 3281 1617 3432 
Q 1894 3584 2278 3584 
Q 2916 3584 3314 3078 
Q 3713 2572 3713 1747 
Q 3713 922 3314 415 
Q 2916 -91 2278 -91 
Q 1894 -91 1617 61 
Q 1341 213 1159 525 
z
M 3116 1747 
Q 3116 2381 2855 2742 
Q 2594 3103 2138 3103 
Q 1681 3103 1420 2742 
Q 1159 2381 1159 1747 
Q 1159 1113 1420 752 
Q 1681 391 2138 391 
Q 2594 391 2855 752 
Q 3116 1113 3116 1747 
z
" transform="scale(0.015625)"/>
       <path id="DejaVuSans-6c" d="M 603 4863 
L 1178 4863 
L 1178 0 
L 603 0 
L 603 4863 
z
" transform="scale(0.015625)"/>
       <path id="DejaVuSans-74" d="M 1172 4494 
L 1172 3500 
L 2356 3500 
L 2356 3053 
L 1172 3053 
L 1172 1153 
Q 1172 725 1289 603 
Q 1406 481 1766 481 
L 2356 481 
L 2356 0 
L 1766 0 
Q 1100 0 847 248 
Q 594 497 594 1153 
L 594 3053 
L 172 3053 
L 172 3500 
L 594 3500 
L 594 4494 
L 1172 4494 
z
" transform="scale(0.015625)"/>
       <path id="DejaVuSans-75" d="M 544 1381 
L 544 3500 
L 1119 3500 
L 1119 1403 
Q 1119 906 1312 657 
Q 1506 409 1894 409 
Q 2359 409 2629 706 
Q 2900 1003 2900 1516 
L 2900 3500 
L 3475 3500 
L 3475 0 
L 2900 0 
L 2900 538 
Q 2691 219 2414 64 
Q 2138 -91 1772 -91 
Q 1169 -91 856 284 
Q 544 659 544 1381 
z
M 1991 3584 
L 1991 3584 
z
" transform="scale(0.015625)"/>
       <path id="DejaVuSans-64" d="M 2906 2969 
L 2906 4863 
L 3481 4863 
L 3481 0 
L 2906 0 
L 2906 525 
Q 2725 213 2448 61 
Q 2172 -91 1784 -91 
Q 1150 -91 751 415 
Q 353 922 353 1747 
Q 353 2572 751 3078 
Q 1150 3584 1784 3584 
Q 2172 3584 2448 3432 
Q 2725 3281 2906 2969 
z
M 947 1747 
Q 947 1113 1208 752 
Q 1469 391 1925 391 
Q 2381 391 2643 752 
Q 2906 1113 2906 1747 
Q 2906 2381 2643 2742 
Q 2381 3103 1925 3103 
Q 1469 3103 1208 2742 
Q 947 2381 947 1747 
z
" transform="scale(0.015625)"/>
       <path id="DejaVuSans-56" d="M 1831 0 
L 50 4666 
L 709 4666 
L 2188 738 
L 3669 4666 
L 4325 4666 
L 2547 0 
L 1831 0 
z
" transform="scale(0.015625)"/>
      </defs>
      <use xlink:href="#DejaVuSans-41"/>
      <use xlink:href="#DejaVuSans-6d" x="68.408203"/>
      <use xlink:href="#DejaVuSans-70" x="165.820312"/>
      <use xlink:href="#DejaVuSans-6c" x="229.296875"/>
      <use xlink:href="#DejaVuSans-69" x="257.080078"/>
      <use xlink:href="#DejaVuSans-74" x="284.863281"/>
      <use xlink:href="#DejaVuSans-75" x="324.072266"/>
      <use xlink:href="#DejaVuSans-64" x="387.451172"/>
      <use xlink:href="#DejaVuSans-65" x="450.927734"/>
      <use xlink:href="#DejaVuSans-20" x="512.451172"/>
      <use xlink:href="#DejaVuSans-28" x="544.238281"/>
      <use xlink:href="#DejaVuSans-6d" x="583.251953"/>
      <use xlink:href="#DejaVuSans-56" x="680.664062"/>
      <use xlink:href="#DejaVuSans-29" x="749.072266"/>
     </g>
    </g>
   </g>
   <g id="line2d_8">
    <path d="M 62.172884 58.128339 
L 62.438172 39.278025 
L 62.570816 39.994504 
L 62.836105 44.486583 
L 63.234037 56.290403 
L 64.029902 104.396623 
L 64.162546 105.769829 
L 64.427835 48.214929 
L 64.560479 43.417032 
L 64.693123 43.801676 
L 64.958412 47.208444 
L 65.356344 57.17561 
L 66.152209 98.663108 
L 66.284853 99.645836 
L 66.550142 45.74565 
L 66.682786 40.506316 
L 66.81543 40.923821 
L 67.080719 44.568874 
L 67.478651 55.044788 
L 68.274516 99.412059 
L 68.40716 100.544595 
L 68.672449 38.677917 
L 68.805093 31.527273 
L 68.937737 32.127664 
L 69.203025 37.333185 
L 69.600958 52.370199 
L 70.396823 115.628962 
L 70.529467 117.52063 
L 70.794756 41.933858 
L 70.9274 36.518819 
L 71.060044 37.200405 
L 71.325332 41.690892 
L 71.723265 54.023085 
L 72.51913 104.26577 
L 72.651774 105.794906 
L 72.917063 42.837435 
L 73.049707 36.833517 
L 73.182351 37.706079 
L 73.447639 42.85816 
L 73.845572 56.858959 
L 74.641437 113.342851 
L 74.774081 115.028548 
L 75.03937 48.939479 
L 75.172014 44.207573 
L 75.304658 44.775495 
L 75.569946 48.677734 
L 75.967879 59.177698 
L 76.763744 102.09465 
L 76.896388 103.283801 
L 77.161677 49.24726 
L 77.294321 44.00307 
L 77.426965 44.462168 
L 77.692253 48.137131 
L 78.090186 58.882522 
L 78.886051 104.909089 
L 79.018695 106.17063 
L 79.283983 43.720975 
L 79.416628 36.441637 
L 79.549272 37.088963 
L 79.81456 42.397358 
L 80.212493 57.29715 
L 81.008358 120.704348 
L 81.141002 122.436829 
L 81.40629 42.795193 
L 81.538935 35.929569 
L 81.671579 36.522603 
L 81.936867 41.419505 
L 82.3348 55.636786 
L 83.130665 115.755631 
L 83.263309 117.463515 
L 83.528597 44.280514 
L 83.661242 38.706956 
L 83.793886 39.373385 
L 84.059174 43.936356 
L 84.457107 56.722454 
L 85.252972 107.899284 
L 85.385616 109.313169 
L 85.650904 47.445819 
L 85.783549 42.277671 
L 85.916193 42.695172 
L 86.181481 46.3712 
L 86.579414 56.820404 
L 87.375279 101.452666 
L 87.507923 102.707883 
L 87.773211 44.552818 
L 87.905855 38.646 
L 88.0385 39.355305 
L 88.303788 44.033631 
L 88.701721 56.736198 
L 89.497586 110.245975 
L 89.63023 111.785203 
L 89.895518 47.2557 
L 90.028162 42.152842 
L 90.160807 42.703906 
L 90.426095 46.637991 
L 90.824028 57.879134 
L 91.619893 103.55719 
L 91.752537 104.682301 
L 92.017825 47.249192 
L 92.150469 41.836131 
L 92.283114 42.188401 
L 92.548402 45.73939 
L 92.946335 56.566954 
L 93.7422 102.166649 
L 93.874844 103.18323 
L 94.140132 45.491244 
L 94.272776 40.746848 
L 94.405421 41.224548 
L 94.670709 44.884425 
L 95.068641 55.147986 
L 95.864507 97.207468 
L 95.997151 98.326261 
L 96.262439 44.788776 
L 96.395083 39.78844 
L 96.527727 40.356314 
L 96.793016 44.389319 
L 97.190948 55.97369 
L 97.986814 102.46782 
L 98.119458 103.922281 
L 98.384746 48.733834 
L 98.51739 44.361724 
L 98.650034 44.997646 
L 98.915323 48.556514 
L 99.313255 58.171913 
L 100.10912 98.869718 
L 100.241765 100.005707 
L 100.507053 44.556041 
L 100.639697 37.955817 
L 100.772341 38.701376 
L 101.03763 43.809169 
L 101.435562 57.875614 
L 102.231427 116.946321 
L 102.364072 118.60156 
L 102.62936 42.731941 
L 102.762004 35.590331 
L 102.894648 36.256057 
L 103.159937 41.581687 
L 103.557869 56.567284 
L 104.353734 120.181462 
L 104.486379 121.889518 
L 104.751667 45.239267 
L 104.884311 39.586011 
L 105.016955 40.139656 
L 105.282244 44.402283 
L 105.680176 56.609521 
L 106.476041 106.747623 
L 106.608686 108.08723 
L 106.873974 42.762754 
L 107.006618 36.087411 
L 107.139262 36.664483 
L 107.404551 41.573972 
L 107.802483 55.844817 
L 108.598348 114.837725 
L 108.730992 116.505902 
L 108.996281 42.844087 
L 109.128925 36.057182 
L 109.261569 36.724784 
L 109.526858 41.714299 
L 109.92479 56.12056 
L 110.720655 116.602279 
L 110.853299 118.374661 
L 111.118588 47.547164 
L 111.251232 42.828062 
L 111.383876 43.360634 
L 111.649165 47.110088 
L 112.047097 57.814299 
L 112.842962 100.746916 
L 112.975606 101.889919 
L 113.240895 43.752096 
L 113.373539 36.617721 
L 113.506183 37.2049 
L 113.771471 42.218313 
L 114.169404 57.166677 
L 114.965269 119.467083 
L 115.097913 121.168703 
L 115.363202 43.731978 
L 115.495846 37.005438 
L 115.62849 37.473351 
L 115.893778 42.139384 
L 116.291711 55.677705 
L 117.087576 113.334553 
L 117.22022 114.842357 
L 117.485509 39.651066 
L 117.618153 32.289124 
L 117.750797 32.925085 
L 118.016085 38.24634 
L 118.414018 53.684467 
L 119.209883 118.149253 
L 119.342527 120.017799 
L 119.607816 42.009725 
L 119.74046 35.909302 
L 119.873104 36.398061 
L 120.138392 40.848147 
L 120.536325 53.778037 
L 121.33219 108.282181 
L 121.464834 110.018881 
L 121.730123 43.057487 
L 121.862767 37.098314 
L 121.995411 37.88198 
L 122.260699 42.805234 
L 122.658632 56.273508 
L 123.454497 111.905303 
L 123.587141 113.523876 
L 123.85243 48.114017 
L 123.985074 43.314439 
L 124.117718 43.850375 
L 124.383006 47.596278 
L 124.780939 57.750885 
L 125.576804 100.123164 
L 125.709448 101.281368 
L 125.974736 44.424792 
L 126.107381 38.447132 
L 126.240025 38.998294 
L 126.505313 43.444035 
L 126.903246 55.631034 
L 127.699111 108.158872 
L 127.831755 109.575 
L 128.097043 45.64621 
L 128.229688 40.892362 
L 128.362332 41.200779 
L 128.62762 44.464937 
L 129.025553 53.926421 
L 129.821418 94.946896 
L 129.954062 96.116881 
L 130.21935 42.889671 
L 130.351995 38.009238 
L 130.484639 38.626929 
L 130.749927 42.702518 
L 131.14786 53.788751 
L 131.943725 97.999023 
L 132.076369 99.275082 
L 132.341657 40.640387 
L 132.474301 34.065818 
L 132.606946 34.663471 
L 132.872234 39.921615 
L 133.270167 54.464134 
L 134.066032 113.954378 
L 134.198676 115.769481 
L 134.463964 41.830856 
L 134.596608 35.175854 
L 134.729253 36.090129 
L 134.994541 41.566965 
L 135.392474 56.198133 
L 136.188339 117.539062 
L 136.320983 119.42066 
L 136.586271 44.612148 
L 136.718915 38.286527 
L 136.85156 38.919392 
L 137.116848 43.677583 
L 137.514781 57.406854 
L 138.310646 114.638176 
L 138.44329 116.120789 
L 138.708578 46.114153 
L 138.841222 40.345023 
L 138.973867 40.532387 
L 139.239155 44.152085 
L 139.637087 55.27293 
L 140.432953 103.245465 
L 140.565597 104.529769 
L 140.830885 41.066193 
L 140.963529 34.692587 
L 141.096173 35.230677 
L 141.361462 39.9275 
L 141.759394 53.119817 
L 142.55526 108.091026 
L 142.687904 109.675281 
L 142.953192 41.241726 
L 143.085836 35.697067 
L 143.21848 36.465154 
L 143.483769 41.204928 
L 143.881701 54.348705 
L 144.677566 106.279137 
L 144.810211 107.698123 
L 145.075499 45.691495 
L 145.208143 40.940378 
L 145.340787 41.462272 
L 145.606076 45.319089 
L 146.004008 55.748399 
L 146.799873 98.198778 
L 146.932518 99.415267 
L 147.197806 40.424875 
L 147.33045 33.25371 
L 147.463094 34.089159 
L 147.728383 39.934705 
L 148.126315 55.954849 
L 148.92218 120.526322 
L 149.054825 122.299451 
L 149.320113 42.352587 
L 149.452757 35.540561 
L 149.585401 35.978182 
L 149.85069 40.602392 
L 150.248622 54.478154 
L 151.044487 113.216027 
L 151.177132 114.876993 
L 151.44242 39.688206 
L 151.575064 32.380337 
L 151.707708 33.209386 
L 151.972997 38.830026 
L 152.370929 54.517659 
L 153.166794 119.904793 
L 153.299438 121.760217 
L 153.564727 44.058432 
L 153.697371 38.867599 
L 153.830015 39.533236 
L 154.095304 43.837326 
L 154.493236 55.487074 
L 155.289101 103.15518 
L 155.421745 104.429599 
L 155.687034 46.173523 
L 155.819678 41.606601 
L 155.952322 42.026469 
L 156.217611 45.363039 
L 156.615543 55.121987 
L 157.411408 96.178975 
L 157.544052 97.399251 
L 157.809341 41.944015 
L 157.941985 35.202226 
L 158.074629 35.946294 
L 158.339917 41.224217 
L 158.73785 56.087067 
L 159.533715 116.599808 
L 159.666359 118.359396 
L 159.931648 41.631801 
L 160.064292 34.275465 
L 160.196936 34.967187 
L 160.462224 40.616964 
L 160.860157 56.270622 
L 161.656022 121.76774 
L 161.788666 123.591431 
L 162.053955 46.30884 
L 162.186599 41.124637 
L 162.319243 41.589537 
L 162.584531 45.345731 
L 162.982464 55.999184 
L 163.778329 100.738379 
L 163.910973 102.046132 
L 164.176262 40.455794 
L 164.308906 33.277678 
L 164.44155 34.121629 
L 164.706838 39.797658 
L 165.104771 55.599612 
L 165.900636 121.084539 
L 166.03328 123.037049 
L 166.298569 42.227386 
L 166.431213 35.451643 
L 166.563857 36.126151 
L 166.829145 41.195381 
L 167.227078 55.80032 
L 168.022943 116.436796 
L 168.155587 118.257906 
L 168.420876 47.10567 
L 168.55352 42.324941 
L 168.686164 43.021291 
L 168.951452 46.990128 
L 169.349385 57.690476 
L 170.14525 102.001252 
L 170.277894 103.317667 
L 170.543182 46.554046 
L 170.675827 41.177836 
L 170.808471 41.79182 
L 171.073759 45.982483 
L 171.471692 57.908229 
L 172.267557 106.801635 
L 172.400201 108.082333 
L 172.665489 47.213894 
L 172.798134 41.960013 
L 172.930778 42.320354 
L 173.196066 45.862766 
L 173.593999 56.553698 
L 174.389864 102.946862 
L 174.522508 104.143692 
L 174.787796 40.570428 
L 174.920441 33.056606 
L 175.053085 33.561619 
L 175.318373 38.845593 
L 175.716306 54.384869 
L 176.512171 119.983221 
L 176.644815 121.847134 
L 176.910103 42.091259 
L 177.042748 35.928552 
L 177.175392 36.647345 
L 177.44068 41.575611 
L 177.838613 55.036662 
L 178.634478 110.723077 
L 178.767122 112.379496 
L 179.03241 41.440548 
L 179.165054 34.431084 
L 179.297699 35.218375 
L 179.562987 40.832877 
L 179.96092 56.244694 
L 180.756785 119.689213 
L 180.889429 121.651945 
L 181.154717 42.368961 
L 181.287361 35.211142 
L 181.420006 36.078737 
L 181.685294 41.993894 
L 182.083227 57.809767 
L 182.879092 122.046934 
L 183.011736 123.777762 
L 183.277024 42.179272 
L 183.409668 34.810903 
L 183.542313 35.551938 
L 183.807601 41.11424 
L 184.205533 56.794803 
L 185.001399 122.676329 
L 185.134043 124.472727 
L 185.399331 45.504048 
L 185.531975 39.683717 
L 185.664619 40.194491 
L 185.929908 44.557327 
L 186.32784 56.516959 
L 187.123706 107.013743 
L 187.25635 108.287522 
L 187.521638 41.765341 
L 187.654282 34.735766 
L 187.786926 35.385422 
L 188.052215 40.440958 
L 188.450147 54.931057 
L 189.246012 115.983888 
L 189.378657 117.454955 
L 189.643945 40.183556 
L 189.776589 33.209857 
L 189.909233 33.854893 
L 190.174522 39.068159 
L 190.572454 54.156547 
L 191.368319 115.929316 
L 191.500964 117.677022 
L 191.766252 40.251069 
L 191.898896 33.299067 
L 192.03154 34.256425 
L 192.296829 40.205718 
L 192.694761 56.381202 
L 193.490626 120.604833 
L 193.623271 122.472701 
L 193.888559 44.381998 
L 194.021203 38.099707 
L 194.153847 38.900848 
L 194.419136 44.027297 
L 194.684424 52.763014 
L 194.684424 52.763014 
" clip-path="url(#p5bcd2e7d41)" style="fill: none; stroke: #808080; stroke-width: 0.7; stroke-linecap: square"/>
   </g>
   <g id="line2d_9">
    <path d="M 62.172884 56.137924 
L 63.366681 57.725872 
L 64.427835 58.927968 
L 65.621632 58.309821 
L 66.417498 57.362142 
L 66.682786 57.198865 
L 67.213363 56.71355 
L 67.478651 56.378062 
L 68.805093 54.714008 
L 69.33567 54.387799 
L 69.468314 54.370957 
L 69.733602 54.15751 
L 70.529467 54.193296 
L 71.192688 54.817063 
L 73.182351 57.469073 
L 73.978216 58.606219 
L 74.641437 59.223138 
L 75.835235 60.346691 
L 76.100523 60.534773 
L 76.763744 61.074553 
L 77.029032 61.088897 
L 77.559609 60.646764 
L 78.620763 60.01855 
L 79.151339 60.138444 
L 79.549272 59.882286 
L 79.81456 59.719996 
L 80.875714 58.344404 
L 81.804223 57.906893 
L 82.3348 57.407413 
L 82.732732 57.256879 
L 83.130665 56.895027 
L 83.395953 57.029629 
L 83.92653 57.383974 
L 84.987683 58.663074 
L 85.650904 58.813707 
L 86.048837 58.498347 
L 86.446769 58.23809 
L 86.977346 57.906498 
L 87.507923 57.942244 
L 87.905855 58.115054 
L 88.303788 58.380037 
L 89.364942 58.451733 
L 89.895518 58.723511 
L 90.293451 58.708539 
L 91.487248 59.646395 
L 91.619893 59.654762 
L 92.150469 58.9767 
L 93.609555 56.94359 
L 94.007488 56.225799 
L 94.405421 56.170416 
L 95.599218 56.454437 
L 95.864507 56.279153 
L 96.129795 56.255263 
L 96.660372 56.519369 
L 96.92566 56.819354 
L 97.588881 57.881396 
L 98.119458 58.576878 
L 98.650034 59.32411 
L 99.047967 59.413639 
L 99.313255 59.352082 
L 99.976476 59.509474 
L 100.241765 59.650575 
L 101.03763 59.930607 
L 101.302918 59.79115 
L 101.966139 59.092302 
L 102.364072 58.848912 
L 102.762004 58.901742 
L 103.292581 58.684288 
L 103.690513 58.37732 
L 104.353734 58.285389 
L 105.149599 57.993395 
L 105.414888 58.072695 
L 105.680176 58.081567 
L 106.078109 57.734931 
L 106.74133 57.746742 
L 107.271906 57.338754 
L 107.537195 57.422991 
L 108.730992 58.053205 
L 108.863637 58.009735 
L 108.996281 58.090615 
L 109.792146 57.855598 
L 110.190078 57.993256 
L 110.588011 58.178488 
L 111.118588 58.280422 
L 111.51652 58.440123 
L 111.781809 58.633308 
L 112.312385 59.27434 
L 112.577674 59.526467 
L 112.842962 59.656592 
L 113.373539 59.451528 
L 114.03676 58.988924 
L 114.699981 58.904655 
L 115.097913 58.805277 
L 115.893778 57.896764 
L 116.954932 56.702795 
L 118.14873 55.542981 
L 118.414018 55.572356 
L 119.209883 55.390473 
L 119.607816 55.589065 
L 120.138392 55.27562 
L 120.403681 55.307073 
L 120.668969 55.419011 
L 121.33219 56.296153 
L 121.862767 57.08202 
L 122.393343 57.696453 
L 122.658632 57.869655 
L 123.321853 58.77579 
L 124.51565 59.304993 
L 124.913583 58.881781 
L 125.44416 58.054926 
L 125.709448 57.839407 
L 126.372669 57.80306 
L 126.637957 57.606788 
L 127.168534 56.873932 
L 128.362332 56.10934 
L 128.892909 55.361888 
L 129.688774 54.144696 
L 130.351995 54.048061 
L 130.882571 54.718005 
L 131.14786 55.06981 
L 132.872234 55.802398 
L 133.137522 56.142828 
L 133.800743 56.456577 
L 134.463964 57.193643 
L 134.729253 57.567209 
L 134.994541 57.889276 
L 135.790406 58.125621 
L 136.188339 58.725433 
L 136.586271 59.14809 
L 136.85156 59.240545 
L 137.514781 59.080845 
L 137.647425 59.129089 
L 138.045357 58.992608 
L 138.575934 58.73756 
L 138.841222 58.347263 
L 139.371799 57.1814 
L 140.565597 55.362268 
L 141.228818 54.92535 
L 141.62675 54.823899 
L 141.892039 54.588014 
L 142.422615 54.118844 
L 142.687904 54.088604 
L 142.953192 54.22813 
L 143.616413 55.320535 
L 144.14699 56.188023 
L 144.677566 56.563057 
L 145.340787 56.617126 
L 145.73872 56.897318 
L 146.269297 56.984588 
L 146.534585 56.77462 
L 146.932518 56.726705 
L 147.33045 56.973344 
L 147.861027 57.564913 
L 148.126315 57.849393 
L 148.524248 57.831352 
L 149.187469 57.444554 
L 150.115978 56.184895 
L 150.911843 56.21525 
L 151.177132 56.170386 
L 151.575064 56.392491 
L 151.840352 56.546766 
L 152.503573 56.369772 
L 153.03415 56.06053 
L 153.299438 56.178505 
L 153.564727 56.226139 
L 153.962659 56.700104 
L 154.493236 56.888334 
L 154.891169 56.648566 
L 155.156457 56.649723 
L 155.819678 56.379202 
L 156.615543 56.301909 
L 157.278764 56.835747 
L 157.809341 57.212434 
L 158.074629 57.291448 
L 159.135783 58.175948 
L 159.401071 58.111483 
L 160.594869 58.33957 
L 161.390734 57.798056 
L 162.451887 57.545541 
L 163.115108 57.202691 
L 163.645685 56.883909 
L 165.104771 57.513613 
L 165.635348 57.434702 
L 165.900636 57.457779 
L 166.165924 57.584811 
L 166.563857 57.496283 
L 166.961789 57.456274 
L 167.227078 57.560724 
L 167.492366 57.582371 
L 168.022943 57.916035 
L 169.216741 59.135732 
L 169.482029 58.933684 
L 170.14525 58.798862 
L 170.941115 59.182343 
L 171.206403 59.203533 
L 171.604336 59.421146 
L 172.134913 59.327126 
L 172.930778 58.877433 
L 173.991931 57.62545 
L 174.389864 57.606351 
L 174.920441 57.105042 
L 175.318373 56.566462 
L 175.84895 56.165443 
L 176.114238 55.983779 
L 176.379527 55.983637 
L 176.644815 56.166343 
L 177.042748 56.09229 
L 177.838613 56.647189 
L 178.103901 56.78564 
L 180.093564 58.168228 
L 180.62414 58.174139 
L 182.083227 59.704098 
L 183.011736 59.00225 
L 183.940245 58.806828 
L 184.338178 58.702812 
L 184.73611 58.752687 
L 185.134043 58.657034 
L 185.797264 58.278435 
L 186.195196 58.133993 
L 186.593129 57.832999 
L 187.123706 57.614854 
L 187.654282 57.169722 
L 188.052215 56.972149 
L 188.84808 56.529142 
L 189.113368 56.512832 
L 189.246012 56.417612 
L 189.643945 55.791439 
L 190.041878 55.676398 
L 190.307166 55.710151 
L 190.837743 56.126436 
L 191.235675 56.10461 
L 191.766252 56.466479 
L 192.429473 57.729831 
L 192.827405 58.413947 
L 193.092694 58.530552 
L 193.888559 58.749655 
L 194.153847 58.986742 
L 194.684424 59.49071 
L 194.684424 59.49071 
" clip-path="url(#p5bcd2e7d41)" style="fill: none; stroke: #1e90ff; stroke-linecap: square"/>
   </g>
   <g id="line2d_10">
    <path d="M 62.172884 56.172881 
L 62.305528 56.093301 
L 62.70346 56.786834 
L 63.366681 57.846012 
L 63.63197 57.898371 
L 63.764614 57.917738 
L 64.029902 58.637566 
L 64.162546 58.585257 
L 64.295191 58.714072 
L 64.427835 58.634588 
L 64.560479 58.71472 
L 64.825767 58.482622 
L 64.958412 58.605116 
L 65.356344 58.127114 
L 65.886921 58.050925 
L 66.284853 57.303409 
L 66.417498 57.317793 
L 67.346007 56.36298 
L 67.876584 56.175725 
L 68.009228 56.166475 
L 68.274516 55.163338 
L 68.40716 54.673337 
L 68.539805 54.811074 
L 68.937737 54.292073 
L 69.070381 54.121008 
L 69.203025 54.259547 
L 69.33567 54.205043 
L 69.468314 54.286929 
L 69.733602 54.16999 
L 69.998891 54.217928 
L 70.529467 54.025561 
L 70.662112 54.237489 
L 70.794756 54.149063 
L 70.9274 54.314841 
L 71.060044 54.286863 
L 71.723265 55.507774 
L 71.988553 55.514295 
L 72.253842 55.889141 
L 72.51913 56.456128 
L 72.651774 56.47414 
L 72.784418 56.666982 
L 72.917063 56.626262 
L 73.314995 57.574978 
L 73.447639 57.646641 
L 73.845572 58.47936 
L 74.11086 58.491829 
L 74.376149 58.69433 
L 74.641437 59.367588 
L 74.774081 59.362753 
L 74.906725 59.578059 
L 75.03937 59.550778 
L 75.304658 59.827983 
L 75.569946 60.002045 
L 76.233167 60.359364 
L 76.498456 60.295636 
L 76.763744 60.937364 
L 76.896388 60.744484 
L 77.029032 60.969172 
L 77.161677 60.828133 
L 77.294321 60.996222 
L 77.559609 60.201899 
L 77.692253 60.405378 
L 77.957542 60.241118 
L 79.416628 59.952521 
L 79.681916 59.395215 
L 79.81456 59.389812 
L 80.079849 59.198388 
L 80.345137 59.190135 
L 80.610425 59.271166 
L 80.74307 59.102158 
L 81.008358 58.293973 
L 81.671579 57.691726 
L 81.804223 57.662656 
L 82.202156 57.327755 
L 82.3348 57.222177 
L 82.865376 57.349277 
L 83.130665 57.028801 
L 83.263309 56.89032 
L 83.395953 57.051638 
L 83.528597 56.956709 
L 84.059174 57.499107 
L 84.324463 57.694023 
L 84.589751 57.995899 
L 84.722395 58.010704 
L 85.252972 58.75908 
L 85.385616 58.639284 
L 85.51826 58.713813 
L 86.048837 58.318514 
L 86.181481 58.400675 
L 86.446769 58.229089 
L 87.773211 57.861615 
L 87.905855 58.019111 
L 88.0385 57.930757 
L 88.303788 58.292563 
L 88.436432 58.079533 
L 89.099653 58.467879 
L 89.364942 58.484905 
L 89.497586 58.549029 
L 89.63023 58.471887 
L 89.762874 58.613971 
L 89.895518 58.55144 
L 90.160807 58.765295 
L 90.293451 58.747319 
L 90.691383 59.031768 
L 91.619893 59.37072 
L 91.752537 59.22443 
L 91.885181 59.271472 
L 92.283114 58.73908 
L 92.415758 58.237352 
L 92.81369 58.076637 
L 93.078979 57.836154 
L 93.344267 57.70846 
L 94.140132 56.126099 
L 94.272776 56.146424 
L 94.405421 55.915209 
L 94.538065 56.184525 
L 94.935997 56.136248 
L 95.068641 56.169149 
L 95.201286 56.05835 
L 95.864507 56.329526 
L 95.997151 56.124842 
L 96.129795 56.215544 
L 96.262439 56.150168 
L 96.660372 56.557472 
L 96.793016 56.618486 
L 97.058304 56.868706 
L 97.323593 57.228264 
L 97.456237 57.174445 
L 97.721525 57.675434 
L 97.854169 58.363939 
L 98.384746 58.696168 
L 98.51739 59.046271 
L 98.650034 58.915196 
L 98.915323 59.253467 
L 99.313255 59.315204 
L 100.10912 59.619786 
L 100.241765 59.700637 
L 100.374409 59.62332 
L 100.639697 59.719319 
L 100.904986 59.536556 
L 101.700851 59.648409 
L 101.833495 59.640349 
L 101.966139 59.513031 
L 102.231427 58.922722 
L 102.62936 58.672632 
L 103.159937 58.510819 
L 103.425225 58.522646 
L 103.557869 58.379597 
L 103.955802 58.487932 
L 104.088446 58.461232 
L 104.353734 58.158456 
L 104.486379 58.06679 
L 104.619023 58.112074 
L 104.751667 57.991208 
L 104.884311 58.072066 
L 105.282244 57.705717 
L 105.81282 58.23841 
L 105.945465 58.16231 
L 106.078109 58.230094 
L 106.210753 58.15412 
L 106.476041 57.742221 
L 106.873974 57.463006 
L 107.006618 57.535698 
L 107.404551 57.270927 
L 107.935127 57.555778 
L 108.200416 57.636844 
L 108.33306 57.856117 
L 108.730992 57.751017 
L 108.863637 57.895167 
L 108.996281 57.719421 
L 109.261569 57.750472 
L 110.853299 58.077407 
L 110.985944 58.290155 
L 111.118588 58.232314 
L 111.51652 58.642672 
L 111.649165 58.456535 
L 112.047097 58.915479 
L 112.842962 59.570229 
L 112.975606 59.673663 
L 113.373539 59.415061 
L 113.638827 58.917132 
L 113.771471 58.785835 
L 114.03676 59.035016 
L 114.169404 58.901697 
L 114.699981 59.019647 
L 114.965269 58.687975 
L 116.291711 57.412437 
L 116.822288 57.242527 
L 117.087576 56.404475 
L 117.22022 56.082102 
L 117.352864 56.08005 
L 118.14873 55.318268 
L 118.281374 55.237517 
L 118.546662 55.496552 
L 118.679306 55.526195 
L 118.944595 55.707079 
L 119.209883 55.431112 
L 119.342527 55.319425 
L 119.475171 55.380001 
L 119.74046 55.223521 
L 120.005748 55.054885 
L 120.668969 55.455939 
L 120.801613 55.404155 
L 120.934257 55.492606 
L 121.33219 56.3093 
L 121.464834 56.327135 
L 121.597478 56.589644 
L 121.730123 56.509709 
L 122.128055 57.255712 
L 122.525988 57.771094 
L 122.791276 57.893485 
L 122.92392 57.840817 
L 123.189209 58.208914 
L 123.454497 58.865393 
L 123.587141 58.835084 
L 123.719785 59.039206 
L 123.85243 58.970518 
L 123.985074 59.089467 
L 124.250362 59.02676 
L 124.383006 59.089666 
L 124.51565 58.920077 
L 124.913583 58.951488 
L 125.178871 58.922566 
L 125.311516 58.683061 
L 125.576804 58.059062 
L 125.842092 57.827037 
L 126.372669 57.403758 
L 126.770602 57.397701 
L 127.03589 57.262169 
L 127.301178 57.209314 
L 127.699111 56.430811 
L 127.831755 56.231143 
L 127.964399 56.239257 
L 128.62762 55.336402 
L 128.892909 55.381998 
L 129.158197 54.98079 
L 129.290841 55.113722 
L 129.423485 55.076198 
L 129.688774 54.327469 
L 130.21935 53.98273 
L 130.484639 54.366899 
L 130.749927 54.304267 
L 131.015215 54.697129 
L 131.280504 54.985929 
L 131.413148 54.958441 
L 131.943725 55.51888 
L 132.076369 55.360817 
L 132.209013 55.452334 
L 132.341657 55.306441 
L 132.606946 55.554952 
L 132.73959 55.443088 
L 133.402811 56.299642 
L 133.535455 56.230311 
L 134.33132 56.990806 
L 134.463964 56.84111 
L 134.861897 57.587076 
L 136.586271 58.816616 
L 136.85156 58.856552 
L 137.647425 58.996935 
L 138.045357 59.029124 
L 138.310646 58.760556 
L 138.44329 58.574585 
L 138.575934 58.590467 
L 138.973867 57.769975 
L 139.106511 57.268204 
L 139.239155 57.208487 
L 139.504443 56.83081 
L 139.902376 56.644101 
L 140.03502 56.643478 
L 140.167664 56.434694 
L 140.432953 55.462155 
L 140.698241 55.102868 
L 140.830885 54.898583 
L 140.963529 54.930316 
L 141.096173 54.629629 
L 141.494106 54.642508 
L 141.759394 54.591774 
L 142.157327 54.695097 
L 142.687904 53.990312 
L 142.820548 54.145096 
L 142.953192 53.998419 
L 143.085836 54.362225 
L 143.21848 54.386381 
L 143.881701 55.690697 
L 144.14699 55.64401 
L 144.677566 56.355208 
L 144.810211 56.264283 
L 144.942855 56.429326 
L 145.075499 56.347348 
L 145.208143 56.507215 
L 145.340787 56.434165 
L 145.473432 56.700794 
L 145.871364 56.619932 
L 146.136653 56.811154 
L 146.269297 56.785718 
L 146.534585 57.135582 
L 146.799873 56.769769 
L 146.932518 56.602169 
L 147.861027 57.334559 
L 148.258959 57.72336 
L 148.656892 57.977556 
L 148.789536 57.557161 
L 148.92218 57.512025 
L 150.115978 56.038534 
L 150.381266 56.17211 
L 150.513911 56.119816 
L 150.779199 56.436767 
L 151.044487 56.161278 
L 151.177132 55.953878 
L 151.309776 56.142782 
L 151.44242 55.99946 
L 152.370929 56.330574 
L 152.768862 56.538532 
L 152.901506 56.455317 
L 153.166794 56.005836 
L 153.299438 55.964966 
L 153.432083 56.13592 
L 153.564727 56.025502 
L 153.697371 56.246622 
L 153.830015 56.223179 
L 153.962659 56.47707 
L 154.095304 56.370754 
L 154.62588 56.923747 
L 154.758525 56.877762 
L 154.891169 56.991324 
L 155.289101 56.388678 
L 155.421745 56.228556 
L 155.55439 56.291329 
L 155.952322 56.03358 
L 156.084966 56.228472 
L 156.482899 56.226487 
L 157.013476 56.388647 
L 157.411408 57.00295 
L 157.809341 56.89691 
L 158.472562 57.535481 
L 158.73785 57.47213 
L 159.003138 57.661848 
L 159.135783 57.724238 
L 159.268427 58.172321 
L 160.064292 58.032653 
L 160.462224 57.948834 
L 161.25809 58.43293 
L 161.656022 57.703923 
L 162.84982 57.259811 
L 163.513041 57.377961 
L 163.778329 56.997881 
L 163.910973 56.845057 
L 164.043617 56.996379 
L 164.176262 56.875488 
L 164.839483 57.187117 
L 165.104771 57.682945 
L 165.237415 57.606905 
L 165.635348 57.789018 
L 165.767992 57.417731 
L 166.165924 57.436976 
L 166.298569 57.280894 
L 166.563857 57.414135 
L 166.829145 57.18091 
L 167.227078 57.656554 
L 167.757655 57.702019 
L 168.022943 57.931232 
L 168.155587 57.977694 
L 168.288231 58.288705 
L 168.420876 58.214758 
L 168.686164 58.582354 
L 169.747317 58.994749 
L 170.012606 58.869109 
L 170.675827 59.01386 
L 170.808471 59.093408 
L 170.941115 59.003483 
L 172.002268 59.261495 
L 172.665489 58.877188 
L 172.930778 58.500072 
L 173.32871 58.165159 
L 174.124575 57.971272 
L 174.389864 57.495926 
L 174.522508 57.278309 
L 174.655152 57.365092 
L 175.318373 56.253301 
L 175.583661 56.356513 
L 175.84895 56.428796 
L 176.114238 56.558638 
L 176.246882 56.403988 
L 176.512171 55.936947 
L 176.644815 55.867576 
L 176.777459 56.047805 
L 176.910103 55.896564 
L 177.308036 56.273373 
L 177.44068 56.256045 
L 177.838613 56.592261 
L 178.236545 56.763584 
L 178.501834 57.065416 
L 178.634478 57.163871 
L 178.767122 57.068645 
L 178.899766 57.263411 
L 179.03241 57.179836 
L 179.297699 57.431891 
L 179.430343 57.494895 
L 179.695631 57.790483 
L 180.491496 58.497923 
L 180.756785 58.401693 
L 180.889429 58.398337 
L 181.022073 58.592214 
L 181.154717 58.570127 
L 181.55265 58.9602 
L 181.817938 59.212698 
L 182.083227 59.642655 
L 182.348515 59.67622 
L 182.481159 59.80271 
L 182.613803 59.762528 
L 182.879092 59.080177 
L 183.542313 58.62865 
L 184.338178 58.679755 
L 184.603466 58.812477 
L 184.73611 58.793662 
L 184.868754 58.55849 
L 185.001399 58.597627 
L 185.797264 58.143466 
L 186.858417 58.026727 
L 187.123706 57.519042 
L 187.25635 57.269953 
L 187.388994 57.271808 
L 187.521638 57.029406 
L 187.654282 57.052291 
L 187.786926 56.775593 
L 187.919571 56.815573 
L 188.184859 56.736806 
L 188.582792 56.769213 
L 188.980724 56.697224 
L 189.246012 56.106399 
L 189.378657 55.860312 
L 189.511301 55.88487 
L 189.776589 55.713157 
L 190.041878 55.685067 
L 190.43981 55.530057 
L 190.572454 55.800379 
L 190.837743 55.81047 
L 190.970387 55.959331 
L 191.103031 56.31294 
L 191.500964 56.069342 
L 191.633608 56.363166 
L 191.766252 56.280339 
L 192.429473 57.498255 
L 192.827405 58.083405 
L 193.092694 58.303552 
L 193.225338 58.589134 
L 193.623271 58.537703 
L 193.755915 58.680318 
L 193.888559 58.613315 
L 194.021203 58.822635 
L 194.153847 58.74686 
L 194.286491 59.058948 
L 194.419136 59.030995 
L 194.684424 59.477427 
L 194.684424 59.477427 
" clip-path="url(#p5bcd2e7d41)" style="fill: none; stroke: #ff0000; stroke-width: 0.8; stroke-linecap: square"/>
   </g>
   <g id="patch_3">
    <path d="M 59.52 129.12 
L 59.52 26.88 
" style="fill: none; stroke: #000000; stroke-width: 0.8; stroke-linejoin: miter; stroke-linecap: square"/>
   </g>
   <g id="patch_4">
    <path d="M 197.469952 129.12 
L 197.469952 26.88 
" style="fill: none; stroke: #000000; stroke-width: 0.8; stroke-linejoin: miter; stroke-linecap: square"/>
   </g>
   <g id="patch_5">
    <path d="M 59.52 129.12 
L 197.469952 129.12 
" style="fill: none; stroke: #000000; stroke-width: 0.8; stroke-linejoin: miter; stroke-linecap: square"/>
   </g>
   <g id="patch_6">
    <path d="M 59.52 26.88 
L 197.469952 26.88 
" style="fill: none; stroke: #000000; stroke-width: 0.8; stroke-linejoin: miter; stroke-linecap: square"/>
   </g>
   <g id="text_10">
    <!-- Time Domain Plot -->
    <g transform="translate(75.410913 20.88) scale(0.12 -0.12)">
     <defs>
      <path id="DejaVuSans-44" d="M 1259 4147 
L 1259 519 
L 2022 519 
Q 2988 519 3436 956 
Q 3884 1394 3884 2338 
Q 3884 3275 3436 3711 
Q 2988 4147 2022 4147 
L 1259 4147 
z
M 628 4666 
L 1925 4666 
Q 3281 4666 3915 4102 
Q 4550 3538 4550 2338 
Q 4550 1131 3912 565 
Q 3275 0 1925 0 
L 628 0 
L 628 4666 
z
" transform="scale(0.015625)"/>
      <path id="DejaVuSans-6f" d="M 1959 3097 
Q 1497 3097 1228 2736 
Q 959 2375 959 1747 
Q 959 1119 1226 758 
Q 1494 397 1959 397 
Q 2419 397 2687 759 
Q 2956 1122 2956 1747 
Q 2956 2369 2687 2733 
Q 2419 3097 1959 3097 
z
M 1959 3584 
Q 2709 3584 3137 3096 
Q 3566 2609 3566 1747 
Q 3566 888 3137 398 
Q 2709 -91 1959 -91 
Q 1206 -91 779 398 
Q 353 888 353 1747 
Q 353 2609 779 3096 
Q 1206 3584 1959 3584 
z
" transform="scale(0.015625)"/>
      <path id="DejaVuSans-61" d="M 2194 1759 
Q 1497 1759 1228 1600 
Q 959 1441 959 1056 
Q 959 750 1161 570 
Q 1363 391 1709 391 
Q 2188 391 2477 730 
Q 2766 1069 2766 1631 
L 2766 1759 
L 2194 1759 
z
M 3341 1997 
L 3341 0 
L 2766 0 
L 2766 531 
Q 2569 213 2275 61 
Q 1981 -91 1556 -91 
Q 1019 -91 701 211 
Q 384 513 384 1019 
Q 384 1609 779 1909 
Q 1175 2209 1959 2209 
L 2766 2209 
L 2766 2266 
Q 2766 2663 2505 2880 
Q 2244 3097 1772 3097 
Q 1472 3097 1187 3025 
Q 903 2953 641 2809 
L 641 3341 
Q 956 3463 1253 3523 
Q 1550 3584 1831 3584 
Q 2591 3584 2966 3190 
Q 3341 2797 3341 1997 
z
" transform="scale(0.015625)"/>
      <path id="DejaVuSans-6e" d="M 3513 2113 
L 3513 0 
L 2938 0 
L 2938 2094 
Q 2938 2591 2744 2837 
Q 2550 3084 2163 3084 
Q 1697 3084 1428 2787 
Q 1159 2491 1159 1978 
L 1159 0 
L 581 0 
L 581 3500 
L 1159 3500 
L 1159 2956 
Q 1366 3272 1645 3428 
Q 1925 3584 2291 3584 
Q 2894 3584 3203 3211 
Q 3513 2838 3513 2113 
z
" transform="scale(0.015625)"/>
      <path id="DejaVuSans-50" d="M 1259 4147 
L 1259 2394 
L 2053 2394 
Q 2494 2394 2734 2622 
Q 2975 2850 2975 3272 
Q 2975 3691 2734 3919 
Q 2494 4147 2053 4147 
L 1259 4147 
z
M 628 4666 
L 2053 4666 
Q 2838 4666 3239 4311 
Q 3641 3956 3641 3272 
Q 3641 2581 3239 2228 
Q 2838 1875 2053 1875 
L 1259 1875 
L 1259 0 
L 628 0 
L 628 4666 
z
" transform="scale(0.015625)"/>
     </defs>
     <use xlink:href="#DejaVuSans-54"/>
     <use xlink:href="#DejaVuSans-69" x="57.958984"/>
     <use xlink:href="#DejaVuSans-6d" x="85.742188"/>
     <use xlink:href="#DejaVuSans-65" x="183.154297"/>
     <use xlink:href="#DejaVuSans-20" x="244.677734"/>
     <use xlink:href="#DejaVuSans-44" x="276.464844"/>
     <use xlink:href="#DejaVuSans-6f" x="353.466797"/>
     <use xlink:href="#DejaVuSans-6d" x="414.648438"/>
     <use xlink:href="#DejaVuSans-61" x="512.060547"/>
     <use xlink:href="#DejaVuSans-69" x="573.339844"/>
     <use xlink:href="#DejaVuSans-6e" x="601.123047"/>
     <use xlink:href="#DejaVuSans-20" x="664.501953"/>
     <use xlink:href="#DejaVuSans-50" x="696.289062"/>
     <use xlink:href="#DejaVuSans-6c" x="756.591797"/>
     <use xlink:href="#DejaVuSans-6f" x="784.375"/>
     <use xlink:href="#DejaVuSans-74" x="845.556641"/>
    </g>
   </g>
   <g id="patch_7">
    <path d="M 140.439585 58.655061 
L 169.475397 58.655061 
L 169.475397 53.768181 
L 140.439585 53.768181 
L 140.439585 58.655061 
z
" clip-path="url(#p5bcd2e7d41)" style="fill: none; opacity: 0.8; stroke: #000000; stroke-width: 1.2; stroke-linejoin: miter"/>
   </g>
   <g id="patch_8">
    <path d="M 100.904986 67.776 
Q 120.672285 60.772091 140.439585 53.768181 
" style="fill: none; opacity: 0.8; stroke: #000000; stroke-linecap: round"/>
   </g>
   <g id="patch_9">
    <path d="M 183.674957 67.776 
Q 176.575177 60.772091 169.475397 53.768181 
" style="fill: none; opacity: 0.8; stroke: #000000; stroke-linecap: round"/>
   </g>
   <g id="axes_2">
    <g id="patch_10">
     <path d="M 100.904986 108.672 
L 183.674957 108.672 
L 183.674957 67.776 
L 100.904986 67.776 
z
" style="fill: #ffffff"/>
    </g>
    <g id="matplotlib.axis_3">
     <g id="xtick_4">
      <g id="line2d_11">
       <g>
        <use xlink:href="#m5e0ca6b82c" x="101.049112" y="108.672" style="stroke: #000000; stroke-width: 0.8"/>
       </g>
      </g>
      <g id="text_11">
       <!-- 1.3 -->
       <g transform="translate(93.09755 123.270437) scale(0.1 -0.1)">
        <defs>
         <path id="DejaVuSans-33" d="M 2597 2516 
Q 3050 2419 3304 2112 
Q 3559 1806 3559 1356 
Q 3559 666 3084 287 
Q 2609 -91 1734 -91 
Q 1441 -91 1130 -33 
Q 819 25 488 141 
L 488 750 
Q 750 597 1062 519 
Q 1375 441 1716 441 
Q 2309 441 2620 675 
Q 2931 909 2931 1356 
Q 2931 1769 2642 2001 
Q 2353 2234 1838 2234 
L 1294 2234 
L 1294 2753 
L 1863 2753 
Q 2328 2753 2575 2939 
Q 2822 3125 2822 3475 
Q 2822 3834 2567 4026 
Q 2313 4219 1838 4219 
Q 1578 4219 1281 4162 
Q 984 4106 628 3988 
L 628 4550 
Q 988 4650 1302 4700 
Q 1616 4750 1894 4750 
Q 2613 4750 3031 4423 
Q 3450 4097 3450 3541 
Q 3450 3153 3228 2886 
Q 3006 2619 2597 2516 
z
" transform="scale(0.015625)"/>
        </defs>
        <use xlink:href="#DejaVuSans-31"/>
        <use xlink:href="#DejaVuSans-2e" x="63.623047"/>
        <use xlink:href="#DejaVuSans-33" x="95.410156"/>
       </g>
      </g>
     </g>
     <g id="xtick_5">
      <g id="line2d_12">
       <g>
        <use xlink:href="#m5e0ca6b82c" x="183.386703" y="108.672" style="stroke: #000000; stroke-width: 0.8"/>
       </g>
      </g>
      <g id="text_12">
       <!-- 1.4 -->
       <g transform="translate(175.435141 123.270437) scale(0.1 -0.1)">
        <use xlink:href="#DejaVuSans-31"/>
        <use xlink:href="#DejaVuSans-2e" x="63.623047"/>
        <use xlink:href="#DejaVuSans-34" x="95.410156"/>
       </g>
      </g>
     </g>
    </g>
    <g id="matplotlib.axis_4">
     <g id="ytick_5">
      <g id="line2d_13">
       <g>
        <use xlink:href="#m8039e9dd5e" x="100.904986" y="97.299625" style="stroke: #000000; stroke-width: 0.8"/>
       </g>
      </g>
      <g id="text_13">
       <!-- 0 -->
       <g transform="translate(87.542486 101.098844) scale(0.1 -0.1)">
        <use xlink:href="#DejaVuSans-30"/>
       </g>
      </g>
     </g>
     <g id="ytick_6">
      <g id="line2d_14">
       <g>
        <use xlink:href="#m8039e9dd5e" x="100.904986" y="73.917394" style="stroke: #000000; stroke-width: 0.8"/>
       </g>
      </g>
      <g id="text_14">
       <!-- 2 -->
       <g transform="translate(87.542486 77.716613) scale(0.1 -0.1)">
        <use xlink:href="#DejaVuSans-32"/>
       </g>
      </g>
     </g>
    </g>
    <g id="line2d_15">
     <path d="M 101.316776 76.270464 
L 102.552149 72.498599 
L 102.96394 71.623651 
L 103.787522 70.610911 
L 104.611104 71.349125 
L 105.022895 72.053089 
L 106.670058 78.365798 
L 107.49364 83.160953 
L 108.317222 87.012108 
L 109.552595 89.777117 
L 109.964385 90.186109 
L 110.376176 91.08917 
L 110.787967 91.055484 
L 111.199758 90.742606 
L 111.611549 90.835363 
L 112.435131 91.529976 
L 113.258713 93.319191 
L 114.082294 94.186998 
L 114.494085 94.625425 
L 114.905876 94.516901 
L 115.317667 94.525805 
L 115.729458 93.321946 
L 116.55304 92.468538 
L 116.964831 92.190675 
L 117.376622 92.423349 
L 117.788413 92.805835 
L 119.023785 95.366245 
L 119.435576 96.92543 
L 120.259158 99.257048 
L 120.670949 100.665255 
L 121.08274 101.576346 
L 121.906322 101.715757 
L 122.318112 101.429262 
L 122.729903 100.910209 
L 123.141694 99.820402 
L 123.553485 99.105635 
L 123.965276 98.863733 
L 124.377067 98.275798 
L 125.200649 94.940546 
L 126.436021 90.099009 
L 126.847812 88.509572 
L 127.259603 88.006105 
L 127.671394 88.088513 
L 128.906767 87.696604 
L 129.318558 87.791111 
L 129.730349 88.253587 
L 130.14214 87.6656 
L 130.55393 87.887821 
L 130.965721 88.297409 
L 131.377512 89.288368 
L 131.789303 89.698584 
L 132.201094 90.506012 
L 132.612885 90.95635 
L 133.024676 90.77208 
L 133.436467 90.78416 
L 134.671839 89.513368 
L 135.08363 88.878423 
L 135.907212 86.903933 
L 136.319003 86.992193 
L 136.730794 87.706227 
L 137.142585 87.954014 
L 137.554376 87.855878 
L 137.966167 88.342359 
L 138.377958 89.85224 
L 139.201539 92.206481 
L 140.436912 93.790132 
L 140.848703 93.741073 
L 141.672285 91.937536 
L 142.084076 91.786304 
L 142.495867 91.916201 
L 142.907658 91.795733 
L 144.14303 89.925225 
L 144.554821 89.916897 
L 146.201985 88.526376 
L 146.613776 87.969198 
L 147.437357 88.960098 
L 147.849148 89.623513 
L 149.084521 92.378315 
L 150.731685 95.976285 
L 151.143476 96.383378 
L 151.555266 96.417803 
L 151.967057 97.027559 
L 152.378848 97.911457 
L 152.790639 98.289757 
L 154.026012 101.543891 
L 154.849594 104.358393 
L 155.261385 104.23867 
L 155.673175 103.525198 
L 156.496757 104.0063 
L 156.908548 104.710647 
L 157.320339 105.024853 
L 157.73213 105.557722 
L 158.143921 105.760009 
L 158.555712 105.429289 
L 158.967503 105.805528 
L 159.379294 105.790714 
L 159.791084 105.572634 
L 160.202875 104.690712 
L 160.614666 104.390044 
L 161.438248 101.937965 
L 161.850039 101.293907 
L 162.673621 100.992215 
L 163.085412 101.272282 
L 163.497203 101.214909 
L 164.320784 100.738324 
L 164.732575 99.672922 
L 165.967948 98.710466 
L 166.379739 98.042184 
L 166.79153 97.795791 
L 167.203321 97.230843 
L 168.026902 95.455075 
L 168.850484 94.082479 
L 169.262275 93.704996 
L 170.085857 94.694904 
L 170.497648 94.859959 
L 170.909439 95.269645 
L 171.32123 96.615462 
L 171.733021 97.556513 
L 172.144811 98.149503 
L 172.968393 98.658945 
L 173.380184 99.267793 
L 174.615557 97.859891 
L 175.439139 98.19547 
L 175.85093 97.994169 
L 176.262721 98.383616 
L 176.674511 99.45321 
L 177.086302 99.419277 
L 177.498093 98.839307 
L 177.909884 98.661291 
L 178.321675 98.697531 
L 178.733466 98.543318 
L 179.145257 98.209423 
L 179.557048 98.371348 
L 179.968839 99.300449 
L 180.79242 99.060776 
L 181.616002 99.851425 
L 182.027793 100.36189 
L 183.263166 103.309614 
L 183.263166 103.309614 
" clip-path="url(#p9c43f89fae)" style="fill: none; stroke: #1e90ff; stroke-linecap: square"/>
    </g>
    <g id="line2d_16">
     <path d="M 101.316776 75.017792 
L 101.728567 75.622078 
L 102.140358 75.435118 
L 102.552149 75.860156 
L 102.96394 74.425236 
L 103.375731 71.60253 
L 104.199313 70.114223 
L 104.611104 71.376136 
L 105.022895 70.180313 
L 105.434685 73.146338 
L 105.846476 73.343271 
L 106.258267 75.869411 
L 106.670058 77.26741 
L 107.905431 83.977031 
L 108.729013 83.596405 
L 109.964385 88.686849 
L 110.376176 89.394624 
L 110.787967 88.653338 
L 111.199758 89.998896 
L 111.611549 89.33055 
L 112.02334 90.633907 
L 112.435131 90.038344 
L 112.846922 92.2121 
L 113.258713 92.033663 
L 113.670504 92.742643 
L 114.082294 91.552852 
L 114.494085 92.483522 
L 114.905876 93.111844 
L 115.317667 92.90447 
L 115.729458 93.853791 
L 116.141249 95.756825 
L 116.55304 93.354673 
L 116.964831 92.774443 
L 117.376622 91.408043 
L 117.788413 92.192963 
L 118.200203 91.873494 
L 119.023785 93.454364 
L 119.435576 95.31392 
L 119.847367 95.641891 
L 121.08274 100.815832 
L 121.494531 100.54883 
L 122.318112 101.931121 
L 122.729903 102.62123 
L 123.141694 99.193849 
L 123.553485 98.825866 
L 123.965276 97.450218 
L 124.377067 96.530469 
L 124.788858 94.720963 
L 126.024231 91.100356 
L 126.436021 88.753749 
L 126.847812 87.590516 
L 127.259603 86.812867 
L 127.671394 87.584645 
L 128.083185 87.901877 
L 128.494976 87.475537 
L 128.906767 88.40386 
L 129.318558 90.059555 
L 129.730349 87.965413 
L 130.14214 87.813566 
L 130.55393 86.122681 
L 130.965721 87.662775 
L 131.377512 86.494299 
L 131.789303 86.760284 
L 133.024676 88.41861 
L 133.436467 87.995114 
L 133.848258 88.242039 
L 134.671839 89.90728 
L 135.495421 90.889224 
L 135.907212 90.210793 
L 136.319003 87.613321 
L 136.730794 86.546287 
L 137.142585 86.213086 
L 137.554376 87.606828 
L 137.966167 86.706617 
L 138.377958 88.509351 
L 138.789748 88.318231 
L 139.201539 90.388142 
L 139.61333 89.521372 
L 140.436912 92.344551 
L 140.848703 94.351697 
L 141.672285 93.654881 
L 142.084076 94.580722 
L 142.907658 90.677469 
L 143.319448 89.667497 
L 143.731239 88.362066 
L 144.14303 88.873841 
L 144.554821 88.067755 
L 144.966612 88.10778 
L 145.378403 86.772474 
L 145.790194 88.361379 
L 146.201985 88.139878 
L 146.613776 88.593567 
L 147.025567 88.345197 
L 147.437357 88.69705 
L 147.849148 88.58233 
L 148.260939 88.826474 
L 148.67273 89.667251 
L 149.084521 91.633756 
L 149.496312 92.771008 
L 149.908103 94.675508 
L 150.319894 94.144997 
L 150.731685 94.324666 
L 151.143476 93.810986 
L 152.378848 97.589085 
L 152.790639 97.745942 
L 153.20243 99.017097 
L 153.614221 98.675522 
L 154.026012 98.500617 
L 154.437803 99.66013 
L 155.261385 100.555991 
L 155.673175 104.209099 
L 156.084966 104.128609 
L 156.496757 103.769181 
L 156.908548 103.223999 
L 157.320339 103.933102 
L 157.73213 103.248055 
L 158.143921 103.070421 
L 158.555712 102.717337 
L 158.967503 102.805098 
L 159.379294 102.387065 
L 160.614666 104.792419 
L 161.026457 104.992197 
L 161.438248 105.401319 
L 161.850039 106.333777 
L 162.26183 104.113587 
L 162.673621 100.856453 
L 164.320784 98.932777 
L 164.732575 98.86996 
L 165.144366 98.109135 
L 165.556157 97.922831 
L 165.967948 97.472849 
L 166.379739 96.668441 
L 167.615112 96.908283 
L 168.438693 97.627249 
L 168.850484 97.732877 
L 169.262275 94.92866 
L 169.674066 94.634181 
L 170.085857 93.388242 
L 170.497648 94.621932 
L 170.909439 93.63634 
L 171.32123 94.191075 
L 171.733021 94.326798 
L 172.144811 95.223373 
L 172.556602 95.285166 
L 172.968393 96.17697 
L 173.791975 100.219336 
L 174.203766 99.5994 
L 174.615557 100.142398 
L 175.027348 100.895194 
L 175.439139 101.084123 
L 175.85093 98.057116 
L 176.262721 98.315828 
L 176.674511 97.696398 
L 177.086302 98.214011 
L 177.498093 96.941515 
L 177.909884 97.697169 
L 178.321675 98.027797 
L 178.733466 97.297204 
L 179.145257 96.12637 
L 179.968839 99.23456 
L 180.38063 100.004173 
L 180.79242 100.178741 
L 181.204211 100.193809 
L 181.616002 100.567793 
L 182.027793 100.374839 
L 182.439584 101.932709 
L 183.263166 102.622351 
L 183.263166 102.622351 
" clip-path="url(#p9c43f89fae)" style="fill: none; stroke: #ff0000; stroke-width: 0.8; stroke-linecap: square"/>
    </g>
    <g id="line2d_17">
     <path d="M 101.316776 63.017294 
L 101.87012 181 
M 104.524028 181 
L 104.611104 88.994944 
L 104.912847 -1 
M 107.10124 -1 
L 107.905431 73.036109 
L 108.440196 181 
M 111.122489 181 
L 111.199758 105.472489 
L 111.64829 -1 
M 113.249636 -1 
L 113.258713 -0.580093 
L 114.082294 52.803134 
L 114.494085 84.447466 
L 115.07254 181 
M 117.705064 181 
L 117.788413 115.159438 
L 118.095744 -1 
M 120.312099 -1 
L 121.08274 86.1306 
L 121.477927 181 
M 124.326479 181 
L 124.377067 118.532789 
L 124.720564 -1 
M 126.917518 -1 
L 127.671394 74.091471 
L 128.150594 181 
M 130.902384 181 
L 130.965721 110.926684 
L 131.258519 -1 
M 133.583879 -1 
L 134.260049 74.413545 
L 134.696493 181 
M 137.493501 181 
L 137.554376 104.389253 
L 137.930943 -1 
M 139.787644 -1 
L 140.436912 47.339322 
L 140.848703 82.316949 
L 141.386401 181 
M 144.058866 181 
L 144.14303 103.847059 
L 144.636508 -1 
M 146.182808 -1 
L 146.201985 -0.22178 
L 147.025567 49.312542 
L 147.437357 79.340484 
L 148.066667 181 
M 150.64555 181 
L 150.731685 116.722888 
L 151.066428 -1 
M 153.179515 -1 
L 153.614221 41.96283 
L 154.026012 87.208542 
L 154.440628 181 
M 157.27338 181 
L 157.320339 127.724751 
L 157.655055 -1 
M 159.801239 -1 
L 160.614666 88.705021 
L 160.998693 181 
M 163.857986 181 
L 163.908993 116.451771 
L 164.403493 -1 
M 165.954048 -1 
L 165.967948 -0.362889 
L 166.79153 54.131571 
L 167.203321 86.492051 
L 167.750409 181 
M 170.421667 181 
L 170.497648 117.443124 
L 170.806984 -1 
M 173.037459 -1 
L 173.791975 83.234443 
L 174.196952 181 
M 177.037475 181 
L 177.086302 120.190156 
L 177.428173 -1 
M 179.54635 -1 
L 179.968839 40.944309 
L 180.38063 84.870768 
L 180.809277 181 
L 180.809277 181 
" clip-path="url(#p9c43f89fae)" style="fill: none; stroke: #808080; stroke-width: 0.2; stroke-linecap: square"/>
    </g>
    <g id="patch_11">
     <path d="M 100.904986 108.672 
L 100.904986 67.776 
" style="fill: none; stroke: #000000; stroke-width: 0.8; stroke-linejoin: miter; stroke-linecap: square"/>
    </g>
    <g id="patch_12">
     <path d="M 183.674957 108.672 
L 183.674957 67.776 
" style="fill: none; stroke: #000000; stroke-width: 0.8; stroke-linejoin: miter; stroke-linecap: square"/>
    </g>
    <g id="patch_13">
     <path d="M 100.904986 108.672 
L 183.674957 108.672 
" style="fill: none; stroke: #000000; stroke-width: 0.8; stroke-linejoin: miter; stroke-linecap: square"/>
    </g>
    <g id="patch_14">
     <path d="M 100.904986 67.776 
L 183.674957 67.776 
" style="fill: none; stroke: #000000; stroke-width: 0.8; stroke-linejoin: miter; stroke-linecap: square"/>
    </g>
   </g>
   <g id="legend_1">
    <g id="patch_15">
     <path d="M 20.235014 158.292 
L 51.103139 158.292 
Q 51.703139 158.292 51.703139 157.692 
L 51.703139 144.781688 
Q 51.703139 144.181688 51.103139 144.181688 
L 20.235014 144.181688 
Q 19.635014 144.181688 19.635014 144.781688 
L 19.635014 157.692 
Q 19.635014 158.292 20.235014 158.292 
z
" style="fill: #ffffff; opacity: 0.8; stroke: #cccccc; stroke-linejoin: miter"/>
    </g>
    <g id="line2d_18">
     <path d="M 20.835014 146.611219 
L 23.835014 146.611219 
L 26.835014 146.611219 
" style="fill: none; stroke: #808080; stroke-width: 0.7; stroke-linecap: square"/>
    </g>
    <g id="text_15">
     <!-- Contaminated -->
     <g transform="translate(29.235014 147.661219) scale(0.03 -0.03)">
      <defs>
       <path id="DejaVuSans-43" d="M 4122 4306 
L 4122 3641 
Q 3803 3938 3442 4084 
Q 3081 4231 2675 4231 
Q 1875 4231 1450 3742 
Q 1025 3253 1025 2328 
Q 1025 1406 1450 917 
Q 1875 428 2675 428 
Q 3081 428 3442 575 
Q 3803 722 4122 1019 
L 4122 359 
Q 3791 134 3420 21 
Q 3050 -91 2638 -91 
Q 1578 -91 968 557 
Q 359 1206 359 2328 
Q 359 3453 968 4101 
Q 1578 4750 2638 4750 
Q 3056 4750 3426 4639 
Q 3797 4528 4122 4306 
z
" transform="scale(0.015625)"/>
      </defs>
      <use xlink:href="#DejaVuSans-43"/>
      <use xlink:href="#DejaVuSans-6f" x="69.824219"/>
      <use xlink:href="#DejaVuSans-6e" x="131.005859"/>
      <use xlink:href="#DejaVuSans-74" x="194.384766"/>
      <use xlink:href="#DejaVuSans-61" x="233.59375"/>
      <use xlink:href="#DejaVuSans-6d" x="294.873047"/>
      <use xlink:href="#DejaVuSans-69" x="392.285156"/>
      <use xlink:href="#DejaVuSans-6e" x="420.068359"/>
      <use xlink:href="#DejaVuSans-61" x="483.447266"/>
      <use xlink:href="#DejaVuSans-74" x="544.726562"/>
      <use xlink:href="#DejaVuSans-65" x="583.935547"/>
      <use xlink:href="#DejaVuSans-64" x="645.458984"/>
     </g>
    </g>
    <g id="line2d_19">
     <path d="M 20.835014 151.014656 
L 23.835014 151.014656 
L 26.835014 151.014656 
" style="fill: none; stroke: #1e90ff; stroke-linecap: square"/>
    </g>
    <g id="text_16">
     <!-- Clean -->
     <g transform="translate(29.235014 152.064656) scale(0.03 -0.03)">
      <use xlink:href="#DejaVuSans-43"/>
      <use xlink:href="#DejaVuSans-6c" x="69.824219"/>
      <use xlink:href="#DejaVuSans-65" x="97.607422"/>
      <use xlink:href="#DejaVuSans-61" x="159.130859"/>
      <use xlink:href="#DejaVuSans-6e" x="220.410156"/>
     </g>
    </g>
    <g id="line2d_20">
     <path d="M 20.835014 155.418094 
L 23.835014 155.418094 
L 26.835014 155.418094 
" style="fill: none; stroke: #ff0000; stroke-width: 0.8; stroke-linecap: square"/>
    </g>
    <g id="text_17">
     <!-- SACed -->
     <g transform="translate(29.235014 156.468094) scale(0.03 -0.03)">
      <defs>
       <path id="DejaVuSans-53" d="M 3425 4513 
L 3425 3897 
Q 3066 4069 2747 4153 
Q 2428 4238 2131 4238 
Q 1616 4238 1336 4038 
Q 1056 3838 1056 3469 
Q 1056 3159 1242 3001 
Q 1428 2844 1947 2747 
L 2328 2669 
Q 3034 2534 3370 2195 
Q 3706 1856 3706 1288 
Q 3706 609 3251 259 
Q 2797 -91 1919 -91 
Q 1588 -91 1214 -16 
Q 841 59 441 206 
L 441 856 
Q 825 641 1194 531 
Q 1563 422 1919 422 
Q 2459 422 2753 634 
Q 3047 847 3047 1241 
Q 3047 1584 2836 1778 
Q 2625 1972 2144 2069 
L 1759 2144 
Q 1053 2284 737 2584 
Q 422 2884 422 3419 
Q 422 4038 858 4394 
Q 1294 4750 2059 4750 
Q 2388 4750 2728 4690 
Q 3069 4631 3425 4513 
z
" transform="scale(0.015625)"/>
      </defs>
      <use xlink:href="#DejaVuSans-53"/>
      <use xlink:href="#DejaVuSans-41" x="65.351562"/>
      <use xlink:href="#DejaVuSans-43" x="132.009766"/>
      <use xlink:href="#DejaVuSans-65" x="201.833984"/>
      <use xlink:href="#DejaVuSans-64" x="263.357422"/>
     </g>
    </g>
   </g>
  </g>
 </g>
 <defs>
  <clipPath id="p5bcd2e7d41">
   <rect x="59.52" y="26.88" width="137.949952" height="102.24"/>
  </clipPath>
  <clipPath id="p9c43f89fae">
   <rect x="100.904986" y="67.776" width="82.769971" height="40.896"/>
  </clipPath>
 </defs>
</svg>
