<?xml version="1.0" encoding="utf-8" standalone="no"?>
<!DOCTYPE svg PUBLIC "-//W3C//DTD SVG 1.1//EN"
  "http://www.w3.org/Graphics/SVG/1.1/DTD/svg11.dtd">
<svg xmlns:xlink="http://www.w3.org/1999/xlink" width="216pt" height="180pt" viewBox="0 0 216 180" xmlns="http://www.w3.org/2000/svg" version="1.1">
 <metadata>
  <rdf:RDF xmlns:dc="http://purl.org/dc/elements/1.1/" xmlns:cc="http://creativecommons.org/ns#" xmlns:rdf="http://www.w3.org/1999/02/22-rdf-syntax-ns#">
   <cc:Work>
    <dc:type rdf:resource="http://purl.org/dc/dcmitype/StillImage"/>
    <dc:date>2024-08-23T22:04:29.337186</dc:date>
    <dc:format>image/svg+xml</dc:format>
    <dc:creator>
     <cc:Agent>
      <dc:title>Matplotlib v3.9.1, https://matplotlib.org/</dc:title>
     </cc:Agent>
    </dc:creator>
   </cc:Work>
  </rdf:RDF>
 </metadata>
 <defs>
  <style type="text/css">*{stroke-linejoin: round; stroke-linecap: butt}</style>
 </defs>
 <g id="figure_1">
  <g id="patch_1">
   <path d="M 0 180 
L 216 180 
L 216 0 
L 0 0 
z
" style="fill: #ffffff"/>
  </g>
  <g id="axes_1">
   <g id="patch_2">
    <path d="M 59.52 129.12 
L 198.454362 129.12 
L 198.454362 26.88 
L 59.52 26.88 
z
" style="fill: #ffffff"/>
   </g>
   <g id="matplotlib.axis_1">
    <g id="xtick_1">
     <g id="line2d_1">
      <defs>
       <path id="m3719ef1ee5" d="M 0 0 
L 0 3.5 
" style="stroke: #000000; stroke-width: 0.8"/>
      </defs>
      <g>
       <use xlink:href="#m3719ef1ee5" x="61.540047" y="129.12" style="stroke: #000000; stroke-width: 0.8"/>
      </g>
     </g>
     <g id="text_1">
      <!-- 0 -->
      <g transform="translate(58.358797 143.718437) scale(0.1 -0.1)">
       <defs>
        <path id="DejaVuSans-30" d="M 2034 4250 
Q 1547 4250 1301 3770 
Q 1056 3291 1056 2328 
Q 1056 1369 1301 889 
Q 1547 409 2034 409 
Q 2525 409 2770 889 
Q 3016 1369 3016 2328 
Q 3016 3291 2770 3770 
Q 2525 4250 2034 4250 
z
M 2034 4750 
Q 2819 4750 3233 4129 
Q 3647 3509 3647 2328 
Q 3647 1150 3233 529 
Q 2819 -91 2034 -91 
Q 1250 -91 836 529 
Q 422 1150 422 2328 
Q 422 3509 836 4129 
Q 1250 4750 2034 4750 
z
" transform="scale(0.015625)"/>
       </defs>
       <use xlink:href="#DejaVuSans-30"/>
      </g>
     </g>
    </g>
    <g id="xtick_2">
     <g id="line2d_2">
      <g>
       <use xlink:href="#m3719ef1ee5" x="128.874956" y="129.12" style="stroke: #000000; stroke-width: 0.8"/>
      </g>
     </g>
     <g id="text_2">
      <!-- 150 -->
      <g transform="translate(119.331206 143.718437) scale(0.1 -0.1)">
       <defs>
        <path id="DejaVuSans-31" d="M 794 531 
L 1825 531 
L 1825 4091 
L 703 3866 
L 703 4441 
L 1819 4666 
L 2450 4666 
L 2450 531 
L 3481 531 
L 3481 0 
L 794 0 
L 794 531 
z
" transform="scale(0.015625)"/>
        <path id="DejaVuSans-35" d="M 691 4666 
L 3169 4666 
L 3169 4134 
L 1269 4134 
L 1269 2991 
Q 1406 3038 1543 3061 
Q 1681 3084 1819 3084 
Q 2600 3084 3056 2656 
Q 3513 2228 3513 1497 
Q 3513 744 3044 326 
Q 2575 -91 1722 -91 
Q 1428 -91 1123 -41 
Q 819 9 494 109 
L 494 744 
Q 775 591 1075 516 
Q 1375 441 1709 441 
Q 2250 441 2565 725 
Q 2881 1009 2881 1497 
Q 2881 1984 2565 2268 
Q 2250 2553 1709 2553 
Q 1456 2553 1204 2497 
Q 953 2441 691 2322 
L 691 4666 
z
" transform="scale(0.015625)"/>
       </defs>
       <use xlink:href="#DejaVuSans-31"/>
       <use xlink:href="#DejaVuSans-35" x="63.623047"/>
       <use xlink:href="#DejaVuSans-30" x="127.246094"/>
      </g>
     </g>
    </g>
    <g id="xtick_3">
     <g id="line2d_3">
      <g>
       <use xlink:href="#m3719ef1ee5" x="196.209865" y="129.12" style="stroke: #000000; stroke-width: 0.8"/>
      </g>
     </g>
     <g id="text_3">
      <!-- 300 -->
      <g transform="translate(186.666115 143.718437) scale(0.1 -0.1)">
       <defs>
        <path id="DejaVuSans-33" d="M 2597 2516 
Q 3050 2419 3304 2112 
Q 3559 1806 3559 1356 
Q 3559 666 3084 287 
Q 2609 -91 1734 -91 
Q 1441 -91 1130 -33 
Q 819 25 488 141 
L 488 750 
Q 750 597 1062 519 
Q 1375 441 1716 441 
Q 2309 441 2620 675 
Q 2931 909 2931 1356 
Q 2931 1769 2642 2001 
Q 2353 2234 1838 2234 
L 1294 2234 
L 1294 2753 
L 1863 2753 
Q 2328 2753 2575 2939 
Q 2822 3125 2822 3475 
Q 2822 3834 2567 4026 
Q 2313 4219 1838 4219 
Q 1578 4219 1281 4162 
Q 984 4106 628 3988 
L 628 4550 
Q 988 4650 1302 4700 
Q 1616 4750 1894 4750 
Q 2613 4750 3031 4423 
Q 3450 4097 3450 3541 
Q 3450 3153 3228 2886 
Q 3006 2619 2597 2516 
z
" transform="scale(0.015625)"/>
       </defs>
       <use xlink:href="#DejaVuSans-33"/>
       <use xlink:href="#DejaVuSans-30" x="63.623047"/>
       <use xlink:href="#DejaVuSans-30" x="127.246094"/>
      </g>
     </g>
    </g>
    <g id="text_4">
     <!-- Frequency (Hz) -->
     <g transform="translate(91.282493 157.396563) scale(0.1 -0.1)">
      <defs>
       <path id="DejaVuSans-46" d="M 628 4666 
L 3309 4666 
L 3309 4134 
L 1259 4134 
L 1259 2759 
L 3109 2759 
L 3109 2228 
L 1259 2228 
L 1259 0 
L 628 0 
L 628 4666 
z
" transform="scale(0.015625)"/>
       <path id="DejaVuSans-72" d="M 2631 2963 
Q 2534 3019 2420 3045 
Q 2306 3072 2169 3072 
Q 1681 3072 1420 2755 
Q 1159 2438 1159 1844 
L 1159 0 
L 581 0 
L 581 3500 
L 1159 3500 
L 1159 2956 
Q 1341 3275 1631 3429 
Q 1922 3584 2338 3584 
Q 2397 3584 2469 3576 
Q 2541 3569 2628 3553 
L 2631 2963 
z
" transform="scale(0.015625)"/>
       <path id="DejaVuSans-65" d="M 3597 1894 
L 3597 1613 
L 953 1613 
Q 991 1019 1311 708 
Q 1631 397 2203 397 
Q 2534 397 2845 478 
Q 3156 559 3463 722 
L 3463 178 
Q 3153 47 2828 -22 
Q 2503 -91 2169 -91 
Q 1331 -91 842 396 
Q 353 884 353 1716 
Q 353 2575 817 3079 
Q 1281 3584 2069 3584 
Q 2775 3584 3186 3129 
Q 3597 2675 3597 1894 
z
M 3022 2063 
Q 3016 2534 2758 2815 
Q 2500 3097 2075 3097 
Q 1594 3097 1305 2825 
Q 1016 2553 972 2059 
L 3022 2063 
z
" transform="scale(0.015625)"/>
       <path id="DejaVuSans-71" d="M 947 1747 
Q 947 1113 1208 752 
Q 1469 391 1925 391 
Q 2381 391 2643 752 
Q 2906 1113 2906 1747 
Q 2906 2381 2643 2742 
Q 2381 3103 1925 3103 
Q 1469 3103 1208 2742 
Q 947 2381 947 1747 
z
M 2906 525 
Q 2725 213 2448 61 
Q 2172 -91 1784 -91 
Q 1150 -91 751 415 
Q 353 922 353 1747 
Q 353 2572 751 3078 
Q 1150 3584 1784 3584 
Q 2172 3584 2448 3432 
Q 2725 3281 2906 2969 
L 2906 3500 
L 3481 3500 
L 3481 -1331 
L 2906 -1331 
L 2906 525 
z
" transform="scale(0.015625)"/>
       <path id="DejaVuSans-75" d="M 544 1381 
L 544 3500 
L 1119 3500 
L 1119 1403 
Q 1119 906 1312 657 
Q 1506 409 1894 409 
Q 2359 409 2629 706 
Q 2900 1003 2900 1516 
L 2900 3500 
L 3475 3500 
L 3475 0 
L 2900 0 
L 2900 538 
Q 2691 219 2414 64 
Q 2138 -91 1772 -91 
Q 1169 -91 856 284 
Q 544 659 544 1381 
z
M 1991 3584 
L 1991 3584 
z
" transform="scale(0.015625)"/>
       <path id="DejaVuSans-6e" d="M 3513 2113 
L 3513 0 
L 2938 0 
L 2938 2094 
Q 2938 2591 2744 2837 
Q 2550 3084 2163 3084 
Q 1697 3084 1428 2787 
Q 1159 2491 1159 1978 
L 1159 0 
L 581 0 
L 581 3500 
L 1159 3500 
L 1159 2956 
Q 1366 3272 1645 3428 
Q 1925 3584 2291 3584 
Q 2894 3584 3203 3211 
Q 3513 2838 3513 2113 
z
" transform="scale(0.015625)"/>
       <path id="DejaVuSans-63" d="M 3122 3366 
L 3122 2828 
Q 2878 2963 2633 3030 
Q 2388 3097 2138 3097 
Q 1578 3097 1268 2742 
Q 959 2388 959 1747 
Q 959 1106 1268 751 
Q 1578 397 2138 397 
Q 2388 397 2633 464 
Q 2878 531 3122 666 
L 3122 134 
Q 2881 22 2623 -34 
Q 2366 -91 2075 -91 
Q 1284 -91 818 406 
Q 353 903 353 1747 
Q 353 2603 823 3093 
Q 1294 3584 2113 3584 
Q 2378 3584 2631 3529 
Q 2884 3475 3122 3366 
z
" transform="scale(0.015625)"/>
       <path id="DejaVuSans-79" d="M 2059 -325 
Q 1816 -950 1584 -1140 
Q 1353 -1331 966 -1331 
L 506 -1331 
L 506 -850 
L 844 -850 
Q 1081 -850 1212 -737 
Q 1344 -625 1503 -206 
L 1606 56 
L 191 3500 
L 800 3500 
L 1894 763 
L 2988 3500 
L 3597 3500 
L 2059 -325 
z
" transform="scale(0.015625)"/>
       <path id="DejaVuSans-20" transform="scale(0.015625)"/>
       <path id="DejaVuSans-28" d="M 1984 4856 
Q 1566 4138 1362 3434 
Q 1159 2731 1159 2009 
Q 1159 1288 1364 580 
Q 1569 -128 1984 -844 
L 1484 -844 
Q 1016 -109 783 600 
Q 550 1309 550 2009 
Q 550 2706 781 3412 
Q 1013 4119 1484 4856 
L 1984 4856 
z
" transform="scale(0.015625)"/>
       <path id="DejaVuSans-48" d="M 628 4666 
L 1259 4666 
L 1259 2753 
L 3553 2753 
L 3553 4666 
L 4184 4666 
L 4184 0 
L 3553 0 
L 3553 2222 
L 1259 2222 
L 1259 0 
L 628 0 
L 628 4666 
z
" transform="scale(0.015625)"/>
       <path id="DejaVuSans-7a" d="M 353 3500 
L 3084 3500 
L 3084 2975 
L 922 459 
L 3084 459 
L 3084 0 
L 275 0 
L 275 525 
L 2438 3041 
L 353 3041 
L 353 3500 
z
" transform="scale(0.015625)"/>
       <path id="DejaVuSans-29" d="M 513 4856 
L 1013 4856 
Q 1481 4119 1714 3412 
Q 1947 2706 1947 2009 
Q 1947 1309 1714 600 
Q 1481 -109 1013 -844 
L 513 -844 
Q 928 -128 1133 580 
Q 1338 1288 1338 2009 
Q 1338 2731 1133 3434 
Q 928 4138 513 4856 
z
" transform="scale(0.015625)"/>
      </defs>
      <use xlink:href="#DejaVuSans-46"/>
      <use xlink:href="#DejaVuSans-72" x="50.269531"/>
      <use xlink:href="#DejaVuSans-65" x="89.132812"/>
      <use xlink:href="#DejaVuSans-71" x="150.65625"/>
      <use xlink:href="#DejaVuSans-75" x="214.132812"/>
      <use xlink:href="#DejaVuSans-65" x="277.511719"/>
      <use xlink:href="#DejaVuSans-6e" x="339.035156"/>
      <use xlink:href="#DejaVuSans-63" x="402.414062"/>
      <use xlink:href="#DejaVuSans-79" x="457.394531"/>
      <use xlink:href="#DejaVuSans-20" x="516.574219"/>
      <use xlink:href="#DejaVuSans-28" x="548.361328"/>
      <use xlink:href="#DejaVuSans-48" x="587.375"/>
      <use xlink:href="#DejaVuSans-7a" x="662.570312"/>
      <use xlink:href="#DejaVuSans-29" x="715.060547"/>
     </g>
    </g>
   </g>
   <g id="matplotlib.axis_2">
    <g id="ytick_1">
     <g id="line2d_4">
      <defs>
       <path id="m00597b4d9a" d="M 0 0 
L -3.5 0 
" style="stroke: #000000; stroke-width: 0.8"/>
      </defs>
      <g>
       <use xlink:href="#m00597b4d9a" x="59.52" y="110.757192" style="stroke: #000000; stroke-width: 0.8"/>
      </g>
     </g>
     <g id="text_5">
      <!-- $\mathdefault{10^{-3}}$ -->
      <g transform="translate(29.02 114.556411) scale(0.1 -0.1)">
       <defs>
        <path id="DejaVuSans-2212" d="M 678 2272 
L 4684 2272 
L 4684 1741 
L 678 1741 
L 678 2272 
z
" transform="scale(0.015625)"/>
       </defs>
       <use xlink:href="#DejaVuSans-31" transform="translate(0 0.765625)"/>
       <use xlink:href="#DejaVuSans-30" transform="translate(63.623047 0.765625)"/>
       <use xlink:href="#DejaVuSans-2212" transform="translate(128.203125 39.046875) scale(0.7)"/>
       <use xlink:href="#DejaVuSans-33" transform="translate(186.855469 39.046875) scale(0.7)"/>
      </g>
     </g>
    </g>
    <g id="ytick_2">
     <g id="line2d_5">
      <g>
       <use xlink:href="#m00597b4d9a" x="59.52" y="83.571397" style="stroke: #000000; stroke-width: 0.8"/>
      </g>
     </g>
     <g id="text_6">
      <!-- $\mathdefault{10^{0}}$ -->
      <g transform="translate(34.92 87.370615) scale(0.1 -0.1)">
       <use xlink:href="#DejaVuSans-31" transform="translate(0 0.765625)"/>
       <use xlink:href="#DejaVuSans-30" transform="translate(63.623047 0.765625)"/>
       <use xlink:href="#DejaVuSans-30" transform="translate(128.203125 39.046875) scale(0.7)"/>
      </g>
     </g>
    </g>
    <g id="ytick_3">
     <g id="line2d_6">
      <g>
       <use xlink:href="#m00597b4d9a" x="59.52" y="56.385601" style="stroke: #000000; stroke-width: 0.8"/>
      </g>
     </g>
     <g id="text_7">
      <!-- $\mathdefault{10^{3}}$ -->
      <g transform="translate(34.92 60.18482) scale(0.1 -0.1)">
       <use xlink:href="#DejaVuSans-31" transform="translate(0 0.765625)"/>
       <use xlink:href="#DejaVuSans-30" transform="translate(63.623047 0.765625)"/>
       <use xlink:href="#DejaVuSans-33" transform="translate(128.203125 39.046875) scale(0.7)"/>
      </g>
     </g>
    </g>
    <g id="ytick_4">
     <g id="line2d_7">
      <g>
       <use xlink:href="#m00597b4d9a" x="59.52" y="29.199806" style="stroke: #000000; stroke-width: 0.8"/>
      </g>
     </g>
     <g id="text_8">
      <!-- $\mathdefault{10^{6}}$ -->
      <g transform="translate(34.92 32.999025) scale(0.1 -0.1)">
       <defs>
        <path id="DejaVuSans-36" d="M 2113 2584 
Q 1688 2584 1439 2293 
Q 1191 2003 1191 1497 
Q 1191 994 1439 701 
Q 1688 409 2113 409 
Q 2538 409 2786 701 
Q 3034 994 3034 1497 
Q 3034 2003 2786 2293 
Q 2538 2584 2113 2584 
z
M 3366 4563 
L 3366 3988 
Q 3128 4100 2886 4159 
Q 2644 4219 2406 4219 
Q 1781 4219 1451 3797 
Q 1122 3375 1075 2522 
Q 1259 2794 1537 2939 
Q 1816 3084 2150 3084 
Q 2853 3084 3261 2657 
Q 3669 2231 3669 1497 
Q 3669 778 3244 343 
Q 2819 -91 2113 -91 
Q 1303 -91 875 529 
Q 447 1150 447 2328 
Q 447 3434 972 4092 
Q 1497 4750 2381 4750 
Q 2619 4750 2861 4703 
Q 3103 4656 3366 4563 
z
" transform="scale(0.015625)"/>
       </defs>
       <use xlink:href="#DejaVuSans-31" transform="translate(0 0.765625)"/>
       <use xlink:href="#DejaVuSans-30" transform="translate(63.623047 0.765625)"/>
       <use xlink:href="#DejaVuSans-36" transform="translate(128.203125 39.046875) scale(0.7)"/>
      </g>
     </g>
    </g>
    <g id="text_9">
     <!-- Log power (dB/Hz) -->
     <g transform="translate(22.940312 124.139844) rotate(-90) scale(0.1 -0.1)">
      <defs>
       <path id="DejaVuSans-4c" d="M 628 4666 
L 1259 4666 
L 1259 531 
L 3531 531 
L 3531 0 
L 628 0 
L 628 4666 
z
" transform="scale(0.015625)"/>
       <path id="DejaVuSans-6f" d="M 1959 3097 
Q 1497 3097 1228 2736 
Q 959 2375 959 1747 
Q 959 1119 1226 758 
Q 1494 397 1959 397 
Q 2419 397 2687 759 
Q 2956 1122 2956 1747 
Q 2956 2369 2687 2733 
Q 2419 3097 1959 3097 
z
M 1959 3584 
Q 2709 3584 3137 3096 
Q 3566 2609 3566 1747 
Q 3566 888 3137 398 
Q 2709 -91 1959 -91 
Q 1206 -91 779 398 
Q 353 888 353 1747 
Q 353 2609 779 3096 
Q 1206 3584 1959 3584 
z
" transform="scale(0.015625)"/>
       <path id="DejaVuSans-67" d="M 2906 1791 
Q 2906 2416 2648 2759 
Q 2391 3103 1925 3103 
Q 1463 3103 1205 2759 
Q 947 2416 947 1791 
Q 947 1169 1205 825 
Q 1463 481 1925 481 
Q 2391 481 2648 825 
Q 2906 1169 2906 1791 
z
M 3481 434 
Q 3481 -459 3084 -895 
Q 2688 -1331 1869 -1331 
Q 1566 -1331 1297 -1286 
Q 1028 -1241 775 -1147 
L 775 -588 
Q 1028 -725 1275 -790 
Q 1522 -856 1778 -856 
Q 2344 -856 2625 -561 
Q 2906 -266 2906 331 
L 2906 616 
Q 2728 306 2450 153 
Q 2172 0 1784 0 
Q 1141 0 747 490 
Q 353 981 353 1791 
Q 353 2603 747 3093 
Q 1141 3584 1784 3584 
Q 2172 3584 2450 3431 
Q 2728 3278 2906 2969 
L 2906 3500 
L 3481 3500 
L 3481 434 
z
" transform="scale(0.015625)"/>
       <path id="DejaVuSans-70" d="M 1159 525 
L 1159 -1331 
L 581 -1331 
L 581 3500 
L 1159 3500 
L 1159 2969 
Q 1341 3281 1617 3432 
Q 1894 3584 2278 3584 
Q 2916 3584 3314 3078 
Q 3713 2572 3713 1747 
Q 3713 922 3314 415 
Q 2916 -91 2278 -91 
Q 1894 -91 1617 61 
Q 1341 213 1159 525 
z
M 3116 1747 
Q 3116 2381 2855 2742 
Q 2594 3103 2138 3103 
Q 1681 3103 1420 2742 
Q 1159 2381 1159 1747 
Q 1159 1113 1420 752 
Q 1681 391 2138 391 
Q 2594 391 2855 752 
Q 3116 1113 3116 1747 
z
" transform="scale(0.015625)"/>
       <path id="DejaVuSans-77" d="M 269 3500 
L 844 3500 
L 1563 769 
L 2278 3500 
L 2956 3500 
L 3675 769 
L 4391 3500 
L 4966 3500 
L 4050 0 
L 3372 0 
L 2619 2869 
L 1863 0 
L 1184 0 
L 269 3500 
z
" transform="scale(0.015625)"/>
       <path id="DejaVuSans-64" d="M 2906 2969 
L 2906 4863 
L 3481 4863 
L 3481 0 
L 2906 0 
L 2906 525 
Q 2725 213 2448 61 
Q 2172 -91 1784 -91 
Q 1150 -91 751 415 
Q 353 922 353 1747 
Q 353 2572 751 3078 
Q 1150 3584 1784 3584 
Q 2172 3584 2448 3432 
Q 2725 3281 2906 2969 
z
M 947 1747 
Q 947 1113 1208 752 
Q 1469 391 1925 391 
Q 2381 391 2643 752 
Q 2906 1113 2906 1747 
Q 2906 2381 2643 2742 
Q 2381 3103 1925 3103 
Q 1469 3103 1208 2742 
Q 947 2381 947 1747 
z
" transform="scale(0.015625)"/>
       <path id="DejaVuSans-42" d="M 1259 2228 
L 1259 519 
L 2272 519 
Q 2781 519 3026 730 
Q 3272 941 3272 1375 
Q 3272 1813 3026 2020 
Q 2781 2228 2272 2228 
L 1259 2228 
z
M 1259 4147 
L 1259 2741 
L 2194 2741 
Q 2656 2741 2882 2914 
Q 3109 3088 3109 3444 
Q 3109 3797 2882 3972 
Q 2656 4147 2194 4147 
L 1259 4147 
z
M 628 4666 
L 2241 4666 
Q 2963 4666 3353 4366 
Q 3744 4066 3744 3513 
Q 3744 3084 3544 2831 
Q 3344 2578 2956 2516 
Q 3422 2416 3680 2098 
Q 3938 1781 3938 1306 
Q 3938 681 3513 340 
Q 3088 0 2303 0 
L 628 0 
L 628 4666 
z
" transform="scale(0.015625)"/>
       <path id="DejaVuSans-2f" d="M 1625 4666 
L 2156 4666 
L 531 -594 
L 0 -594 
L 1625 4666 
z
" transform="scale(0.015625)"/>
      </defs>
      <use xlink:href="#DejaVuSans-4c"/>
      <use xlink:href="#DejaVuSans-6f" x="53.962891"/>
      <use xlink:href="#DejaVuSans-67" x="115.144531"/>
      <use xlink:href="#DejaVuSans-20" x="178.621094"/>
      <use xlink:href="#DejaVuSans-70" x="210.408203"/>
      <use xlink:href="#DejaVuSans-6f" x="273.884766"/>
      <use xlink:href="#DejaVuSans-77" x="335.066406"/>
      <use xlink:href="#DejaVuSans-65" x="416.853516"/>
      <use xlink:href="#DejaVuSans-72" x="478.376953"/>
      <use xlink:href="#DejaVuSans-20" x="519.490234"/>
      <use xlink:href="#DejaVuSans-28" x="551.277344"/>
      <use xlink:href="#DejaVuSans-64" x="590.291016"/>
      <use xlink:href="#DejaVuSans-42" x="653.767578"/>
      <use xlink:href="#DejaVuSans-2f" x="722.371094"/>
      <use xlink:href="#DejaVuSans-48" x="756.0625"/>
      <use xlink:href="#DejaVuSans-7a" x="831.257812"/>
      <use xlink:href="#DejaVuSans-29" x="883.748047"/>
     </g>
    </g>
   </g>
   <g id="line2d_8">
    <path d="M 61.764497 71.36779 
L 61.988947 76.988057 
L 62.213396 68.551996 
L 62.437846 65.916245 
L 62.662296 71.85891 
L 62.886745 70.703809 
L 63.111195 62.87028 
L 63.335645 74.087778 
L 63.560095 71.317879 
L 64.008994 68.490123 
L 64.233444 74.389929 
L 64.457893 71.805133 
L 64.682343 65.703709 
L 64.906793 75.417642 
L 65.131242 66.690979 
L 65.580142 68.102277 
L 65.804591 76.162443 
L 66.029041 67.870475 
L 66.253491 65.546396 
L 66.477941 67.887221 
L 66.70239 68.331514 
L 66.92684 63.911529 
L 67.15129 76.470338 
L 67.375739 75.858314 
L 67.600189 69.796394 
L 67.824639 74.932467 
L 68.049088 75.100935 
L 68.273538 72.978001 
L 68.722438 70.765746 
L 68.946887 62.602402 
L 69.171337 71.407009 
L 69.395787 71.358112 
L 69.620236 63.943531 
L 69.844686 77.414086 
L 70.293585 69.310176 
L 70.518035 68.496755 
L 70.742485 80.57317 
L 70.966935 64.151578 
L 71.191384 67.582177 
L 71.415834 83.291424 
L 71.640284 57.474296 
L 71.864733 68.860948 
L 72.089183 74.023254 
L 72.313633 70.947185 
L 72.538082 82.446043 
L 72.762532 77.351165 
L 72.986982 68.793791 
L 73.211431 69.353668 
L 73.435881 69.464233 
L 73.660331 78.063461 
L 73.884781 80.2771 
L 74.10923 67.05987 
L 74.33368 62.656404 
L 74.55813 78.08818 
L 74.782579 79.562721 
L 75.231479 69.957179 
L 75.455928 77.398659 
L 75.680378 64.746537 
L 75.904828 75.477149 
L 76.129278 73.386021 
L 76.353727 76.04611 
L 76.578177 67.211239 
L 77.027076 73.702353 
L 77.251526 65.985543 
L 77.475976 65.379005 
L 77.700425 74.278759 
L 77.924875 66.900759 
L 78.373774 73.687064 
L 78.598224 64.113867 
L 79.047124 72.366516 
L 79.271573 68.802117 
L 79.496023 76.448331 
L 79.720473 90.768247 
L 79.944922 71.800887 
L 80.169372 63.987931 
L 80.393822 67.546788 
L 80.842721 80.976611 
L 81.067171 67.919331 
L 81.291621 72.193691 
L 81.51607 67.380203 
L 81.74052 76.727318 
L 81.96497 69.625439 
L 82.189419 67.557952 
L 82.413869 67.662639 
L 82.638319 70.386377 
L 82.862768 70.665373 
L 83.087218 72.364742 
L 83.536117 67.719854 
L 83.760567 68.304396 
L 84.209467 73.49806 
L 84.433916 79.241865 
L 84.658366 71.665417 
L 84.882816 74.140688 
L 85.107265 65.914229 
L 85.331715 67.587648 
L 85.556165 77.79675 
L 85.780614 71.013233 
L 86.005064 78.492863 
L 86.229514 68.507151 
L 86.453964 67.598177 
L 86.678413 69.486916 
L 86.902863 68.105969 
L 87.127313 64.416611 
L 87.351762 74.025504 
L 87.576212 78.091845 
L 87.800662 67.891279 
L 88.025111 66.278562 
L 88.249561 68.070404 
L 88.474011 72.387042 
L 88.69846 64.20506 
L 89.14736 72.780623 
L 89.37181 72.717689 
L 89.596259 70.684889 
L 89.820709 73.228277 
L 90.045159 71.984277 
L 90.494058 64.038244 
L 90.718508 73.150952 
L 91.167407 65.811871 
L 91.391857 67.552037 
L 91.616307 77.798852 
L 91.840756 77.091164 
L 92.065206 64.169563 
L 92.289656 68.442962 
L 92.514105 68.533576 
L 92.738555 65.843687 
L 92.963005 69.548887 
L 93.187454 80.5597 
L 93.411904 70.899545 
L 93.636354 82.231441 
L 93.860804 66.244423 
L 94.085253 64.688073 
L 94.309703 76.15517 
L 94.534153 71.685552 
L 94.758602 75.835321 
L 94.983052 73.939057 
L 95.431951 66.091291 
L 95.656401 68.038845 
L 95.880851 68.481579 
L 96.1053 70.725003 
L 96.32975 71.496898 
L 96.5542 67.974283 
L 96.77865 67.083823 
L 97.003099 65.345556 
L 97.227549 68.405539 
L 97.451999 76.329381 
L 97.676448 65.234675 
L 97.900898 71.108787 
L 98.125348 66.669142 
L 98.349797 77.221823 
L 98.798697 65.312966 
L 99.023147 61.438633 
L 99.247596 68.654805 
L 99.472046 80.31613 
L 99.920945 67.531223 
L 100.145395 67.632214 
L 100.369845 67.377797 
L 100.594294 61.086028 
L 100.818744 69.7982 
L 101.043194 70.57969 
L 101.267643 64.404256 
L 101.492093 72.570644 
L 101.716543 64.360754 
L 101.940993 64.987405 
L 102.165442 74.557158 
L 102.389892 65.370227 
L 102.614342 65.061315 
L 102.838791 66.017793 
L 103.287691 70.679131 
L 103.51214 62.363912 
L 103.73659 81.761651 
L 103.96104 67.629951 
L 104.18549 70.702298 
L 104.409939 77.751087 
L 104.858839 61.020742 
L 105.083288 65.497733 
L 105.307738 73.09397 
L 105.756637 64.957115 
L 105.981087 65.63073 
L 106.205537 69.072449 
L 106.429986 74.921044 
L 106.654436 73.678533 
L 106.878886 69.422261 
L 107.103336 72.440332 
L 107.327785 67.607463 
L 108.001134 70.034404 
L 108.225584 64.320361 
L 108.450034 77.004697 
L 108.674483 63.391149 
L 108.898933 66.291555 
L 109.123383 74.565226 
L 109.347833 74.395682 
L 109.572282 63.276896 
L 109.796732 65.386108 
L 110.021182 70.893244 
L 110.245631 61.391891 
L 110.694531 77.329633 
L 110.91898 64.993749 
L 111.36788 76.432791 
L 111.592329 65.570845 
L 111.816779 70.891946 
L 112.041229 80.164062 
L 112.265679 65.2001 
L 112.490128 65.819093 
L 112.714578 67.779074 
L 112.939028 67.37614 
L 113.163477 62.688629 
L 113.612377 72.649548 
L 113.836826 65.990835 
L 114.061276 62.77729 
L 114.285726 76.733063 
L 114.510176 68.653205 
L 114.734625 68.758347 
L 114.959075 64.937731 
L 115.407974 73.132851 
L 115.632424 68.143295 
L 115.856874 76.395885 
L 116.081323 65.686966 
L 116.530223 80.276086 
L 116.754673 69.361747 
L 116.979122 70.962453 
L 117.203572 67.602705 
L 117.428022 82.16365 
L 117.652471 31.527273 
L 117.876921 80.914605 
L 118.101371 67.43593 
L 118.32582 71.034364 
L 118.55027 69.398989 
L 118.77472 80.812522 
L 119.223619 66.176183 
L 119.448069 76.136226 
L 119.672519 68.725683 
L 119.896968 73.968371 
L 120.345868 65.749339 
L 120.570317 69.048102 
L 120.794767 69.787732 
L 121.019217 76.841237 
L 121.243666 63.589982 
L 121.468116 66.860709 
L 121.692566 73.310645 
L 122.141465 63.752464 
L 122.365915 68.072741 
L 122.590365 69.20513 
L 122.814814 67.231641 
L 123.039264 66.606745 
L 123.263714 83.077314 
L 123.712613 66.934116 
L 123.937063 78.624801 
L 124.385962 66.468526 
L 124.610412 78.735825 
L 124.834862 72.800832 
L 125.059311 63.393042 
L 125.283761 72.773148 
L 125.508211 67.119258 
L 125.73266 65.579049 
L 125.95711 77.187835 
L 126.18156 76.74853 
L 126.406009 68.137262 
L 126.630459 65.398477 
L 126.854909 79.102107 
L 127.079359 66.463916 
L 127.303808 73.597346 
L 127.752708 70.333237 
L 127.977157 70.346453 
L 128.201607 75.144204 
L 128.426057 72.109402 
L 128.650506 76.519199 
L 128.874956 77.224602 
L 129.323855 68.815835 
L 129.548305 67.73277 
L 129.997205 75.57624 
L 130.446104 64.23014 
L 130.895003 82.698458 
L 131.119453 74.137966 
L 131.343903 71.089515 
L 131.568352 84.406478 
L 131.792802 65.908396 
L 132.017252 74.077492 
L 132.466151 69.42927 
L 132.690601 68.396307 
L 132.915051 68.870667 
L 133.1395 77.743365 
L 133.36395 68.762579 
L 133.5884 67.855154 
L 133.812849 74.832862 
L 134.037299 69.104988 
L 134.261749 74.610502 
L 134.486198 73.892151 
L 134.710648 65.511113 
L 134.935098 72.20509 
L 135.159548 72.721458 
L 135.383997 71.858347 
L 135.832897 85.4719 
L 136.281796 66.090922 
L 136.730695 75.443591 
L 136.955145 82.604181 
L 137.179595 71.758322 
L 137.404045 75.684069 
L 137.628494 70.242765 
L 137.852944 79.585906 
L 138.077394 73.748061 
L 138.301843 71.254127 
L 138.750743 73.732379 
L 138.975192 78.261269 
L 139.424092 74.038892 
L 139.648542 73.661519 
L 139.872991 72.965816 
L 140.54634 83.270456 
L 140.77079 77.032525 
L 140.99524 83.447646 
L 141.219689 70.78555 
L 141.444139 72.071694 
L 141.668589 85.658296 
L 141.893038 76.649136 
L 142.117488 85.735121 
L 142.341938 75.511452 
L 142.566388 72.492048 
L 142.790837 75.08093 
L 143.015287 74.667096 
L 143.239737 70.189538 
L 143.464186 82.340876 
L 143.688636 83.975265 
L 143.913086 73.116833 
L 144.137535 73.562174 
L 144.361985 75.288068 
L 144.586435 79.099115 
L 144.810885 71.364915 
L 145.259784 78.438616 
L 145.484234 81.490181 
L 145.708683 79.018443 
L 145.933133 80.32828 
L 146.157583 79.157296 
L 146.382032 76.485855 
L 146.606482 71.97468 
L 146.830932 80.34191 
L 147.055381 75.998367 
L 147.279831 74.492989 
L 147.504281 74.878189 
L 147.728731 85.21182 
L 147.95318 82.915391 
L 148.17763 72.186451 
L 148.40208 76.490787 
L 148.626529 77.173106 
L 148.850979 74.613033 
L 149.075429 77.937936 
L 149.299878 88.340665 
L 149.524328 78.987603 
L 149.748778 87.87932 
L 149.973228 75.049784 
L 150.197677 73.826295 
L 150.422127 85.343078 
L 150.646577 80.166511 
L 150.871026 87.565582 
L 151.095476 85.079766 
L 151.319926 79.672411 
L 151.544375 76.945341 
L 151.768825 77.196132 
L 151.993275 78.229489 
L 152.217724 80.749721 
L 152.442174 81.678628 
L 152.666624 78.410037 
L 152.891074 76.861188 
L 153.115523 76.258331 
L 153.339973 78.656028 
L 153.564423 83.737018 
L 153.788872 75.698642 
L 154.013322 80.771605 
L 154.237772 76.941248 
L 154.462221 86.380978 
L 155.135571 71.701586 
L 155.58447 89.193726 
L 156.033369 78.346405 
L 156.482269 78.628732 
L 156.706718 71.5349 
L 156.931168 80.343383 
L 157.155618 81.7184 
L 157.380067 75.369918 
L 157.604517 81.433912 
L 157.828967 74.575018 
L 158.053417 75.778385 
L 158.277866 84.188554 
L 158.502316 75.713469 
L 158.726766 75.271319 
L 159.175665 78.082014 
L 159.400115 81.00286 
L 159.624564 73.173444 
L 159.849014 90.850606 
L 160.073464 78.057078 
L 160.297914 81.369652 
L 160.522363 87.004707 
L 160.971263 71.382641 
L 161.420162 82.412829 
L 161.644612 80.312308 
L 161.869061 75.282987 
L 162.093511 76.042028 
L 162.317961 79.250979 
L 162.542411 85.186525 
L 162.76686 83.821272 
L 162.99131 80.42754 
L 163.21576 82.657683 
L 163.440209 77.932808 
L 163.664659 78.052447 
L 163.889109 79.633048 
L 164.113558 80.403415 
L 164.338008 74.309372 
L 164.562458 87.895117 
L 164.786907 73.315379 
L 165.011357 76.170071 
L 165.235807 84.938108 
L 165.460257 84.613492 
L 165.684706 73.202889 
L 165.909156 75.221929 
L 166.133606 80.357261 
L 166.358055 70.998601 
L 166.806955 86.237549 
L 167.031404 74.340372 
L 167.480304 86.208038 
L 167.704754 74.748862 
L 167.929203 80.483225 
L 168.153653 90.113852 
L 168.378103 74.446744 
L 168.602552 75.109071 
L 168.827002 76.761546 
L 169.051452 76.399255 
L 169.275901 71.75457 
L 169.724801 82.488781 
L 169.94925 75.256699 
L 170.1737 72.023837 
L 170.39815 84.788566 
L 170.6226 77.946302 
L 170.847049 77.291508 
L 171.071499 73.878303 
L 171.520398 81.4696 
L 171.744848 76.709757 
L 171.969298 83.430069 
L 172.193747 74.296604 
L 172.642647 88.631498 
L 172.867097 77.598334 
L 173.091546 78.870113 
L 173.315996 76.007573 
L 173.540446 89.325146 
L 173.764895 39.772643 
L 173.989345 89.32529 
L 174.213795 75.773567 
L 174.438244 78.504316 
L 174.662694 77.121533 
L 174.887144 89.985154 
L 175.336043 74.060084 
L 175.560493 84.780489 
L 175.784943 76.573404 
L 176.009392 80.787912 
L 176.458292 73.360919 
L 176.682741 76.817233 
L 176.907191 77.55305 
L 177.131641 84.49996 
L 177.35609 71.286982 
L 177.58054 74.578259 
L 177.80499 81.098274 
L 178.253889 71.210774 
L 178.478339 75.854271 
L 178.702789 76.593532 
L 178.927238 74.517006 
L 179.151688 73.706918 
L 179.376138 89.344749 
L 179.825037 74.006302 
L 180.049487 84.724031 
L 180.498386 73.593512 
L 180.722836 86.584259 
L 181.171735 69.948369 
L 181.396185 79.98069 
L 181.620635 74.272653 
L 181.845084 72.217737 
L 182.069534 84.15333 
L 182.293984 84.094904 
L 182.518433 74.941924 
L 182.742883 72.121422 
L 182.967333 86.585833 
L 183.191783 73.151999 
L 183.416232 79.628883 
L 184.089581 76.998748 
L 184.314031 81.797324 
L 184.538481 78.521871 
L 184.76293 82.756732 
L 184.98738 83.706821 
L 185.43628 75.05534 
L 185.660729 74.031954 
L 186.109629 81.861428 
L 186.558528 70.384833 
L 187.007427 86.616968 
L 187.231877 79.724718 
L 187.456327 77.014129 
L 187.680776 89.828476 
L 187.905226 71.90642 
L 188.129676 79.548705 
L 188.803025 74.299044 
L 189.027475 74.973775 
L 189.251924 82.997171 
L 189.476374 74.933346 
L 189.700824 73.601571 
L 189.925273 80.879783 
L 190.149723 74.519217 
L 190.374173 80.639965 
L 190.598623 79.784575 
L 190.823072 71.080767 
L 191.047522 77.971648 
L 191.271972 77.607113 
L 191.496421 77.796753 
L 191.945321 90.202607 
L 192.39422 71.618561 
L 192.843119 80.693835 
L 193.067569 86.989302 
L 193.292019 76.995145 
L 193.516469 81.288252 
L 193.740918 75.732893 
L 193.965368 84.047981 
L 194.189818 78.79488 
L 194.414267 76.675042 
L 194.863167 78.917087 
L 195.087616 82.386906 
L 195.312066 81.331098 
L 195.536516 79.206161 
L 195.760966 78.709635 
L 195.985415 77.731886 
L 195.985415 77.731886 
" clip-path="url(#pcf8c3f909b)" style="fill: none; stroke: #ffa500; stroke-width: 0.5; stroke-linecap: square"/>
   </g>
   <g id="line2d_9">
    <path d="M 61.764497 72.832381 
L 62.213396 68.705286 
L 62.437846 69.581128 
L 62.662296 71.597674 
L 62.886745 71.77465 
L 63.111195 65.936011 
L 63.335645 77.521823 
L 63.560095 69.122095 
L 63.784544 73.994107 
L 64.008994 67.090334 
L 64.233444 73.3696 
L 64.457893 68.255725 
L 64.682343 69.023518 
L 64.906793 77.807812 
L 65.131242 69.890936 
L 65.355692 74.040529 
L 65.580142 70.082413 
L 65.804591 74.10983 
L 66.029041 81.333709 
L 66.253491 67.973937 
L 66.477941 74.447555 
L 66.70239 75.62852 
L 66.92684 68.894377 
L 67.15129 79.144646 
L 67.375739 79.328678 
L 67.600189 95.943411 
L 67.824639 74.776313 
L 68.049088 79.222795 
L 68.497988 74.43509 
L 68.722438 76.470301 
L 68.946887 71.506367 
L 69.171337 73.833907 
L 69.395787 77.336744 
L 69.620236 71.446613 
L 69.844686 80.015677 
L 70.069136 78.870564 
L 70.293585 86.148653 
L 70.518035 73.619259 
L 70.742485 91.308054 
L 70.966935 70.265173 
L 71.415834 71.732996 
L 71.640284 56.651973 
L 71.864733 75.751191 
L 72.089183 82.309621 
L 72.313633 81.573707 
L 72.538082 82.016515 
L 72.762532 74.14682 
L 72.986982 75.630722 
L 73.211431 85.727849 
L 73.435881 80.662944 
L 73.660331 78.777263 
L 73.884781 79.228105 
L 74.10923 79.244314 
L 74.33368 75.097156 
L 74.55813 80.126854 
L 74.782579 82.305526 
L 75.007029 74.266593 
L 75.231479 87.320141 
L 75.455928 81.545783 
L 75.680378 82.484313 
L 75.904828 83.997626 
L 76.353727 72.874141 
L 76.578177 90.145555 
L 76.802627 78.906479 
L 77.027076 80.486635 
L 77.475976 75.896338 
L 77.700425 80.344938 
L 77.924875 80.710584 
L 78.149325 77.849729 
L 78.373774 84.640652 
L 78.822674 78.913841 
L 79.047124 79.561461 
L 79.271573 82.962681 
L 79.496023 81.843119 
L 79.720473 80.086757 
L 80.169372 86.212165 
L 80.393822 79.608758 
L 80.618271 92.28803 
L 80.842721 89.389435 
L 81.067171 82.00503 
L 81.291621 84.947584 
L 81.74052 86.100839 
L 81.96497 86.934531 
L 82.189419 97.26839 
L 82.413869 80.11336 
L 82.638319 92.117736 
L 82.862768 78.474017 
L 83.311668 87.050605 
L 83.536117 81.822068 
L 83.760567 90.942141 
L 83.985017 83.706105 
L 84.209467 82.784243 
L 84.433916 101.565996 
L 84.882816 78.266582 
L 85.107265 88.586953 
L 85.331715 84.067833 
L 85.556165 83.217276 
L 85.780614 84.920972 
L 86.005064 87.770111 
L 86.229514 82.867707 
L 86.453964 85.34697 
L 86.678413 94.108834 
L 86.902863 84.858834 
L 87.127313 91.719825 
L 87.351762 83.870689 
L 87.576212 92.420039 
L 87.800662 80.901369 
L 88.025111 85.736031 
L 88.249561 86.129117 
L 88.474011 91.575757 
L 88.69846 87.244774 
L 88.92291 91.871549 
L 89.14736 86.01822 
L 89.37181 91.059217 
L 89.596259 86.85988 
L 89.820709 100.283256 
L 90.045159 85.014227 
L 90.494058 90.838897 
L 90.718508 83.017517 
L 90.942957 84.341577 
L 91.391857 84.219267 
L 91.616307 90.677753 
L 91.840756 93.471901 
L 92.065206 86.370114 
L 92.514105 94.157072 
L 92.738555 92.217651 
L 92.963005 88.47351 
L 93.187454 98.707547 
L 93.411904 88.752952 
L 93.636354 89.965085 
L 93.860804 83.142214 
L 94.085253 89.932571 
L 94.309703 89.200772 
L 94.534153 92.96979 
L 94.758602 85.987627 
L 94.983052 89.485962 
L 95.207502 90.094464 
L 95.431951 83.335324 
L 95.656401 88.613033 
L 95.880851 104.209657 
L 96.1053 87.022499 
L 96.32975 91.472479 
L 96.5542 89.088699 
L 96.77865 89.899084 
L 97.003099 81.358228 
L 97.227549 96.145029 
L 97.451999 84.387398 
L 97.676448 84.584332 
L 97.900898 101.704245 
L 98.125348 104.827142 
L 98.349797 97.868091 
L 98.798697 91.073947 
L 99.023147 92.843038 
L 99.247596 90.494066 
L 99.472046 85.864021 
L 99.696496 95.742163 
L 99.920945 87.902505 
L 100.145395 93.413865 
L 100.369845 86.406316 
L 100.594294 101.937949 
L 100.818744 92.100249 
L 101.043194 94.168359 
L 101.492093 83.265098 
L 101.940993 90.234323 
L 102.165442 92.927905 
L 102.389892 93.664412 
L 102.614342 88.97392 
L 102.838791 101.925463 
L 103.063241 90.860696 
L 103.287691 87.883427 
L 103.51214 99.724191 
L 103.73659 91.960077 
L 103.96104 113.210403 
L 104.18549 96.428661 
L 104.409939 88.467457 
L 104.634389 106.112375 
L 104.858839 99.743157 
L 105.083288 105.787478 
L 105.307738 95.049758 
L 105.532188 96.284964 
L 105.756637 88.502152 
L 105.981087 92.047439 
L 106.205537 93.26933 
L 106.429986 95.961298 
L 106.654436 87.371964 
L 106.878886 101.77072 
L 107.103336 104.989161 
L 107.327785 94.668267 
L 107.552235 91.879658 
L 107.776685 95.959412 
L 108.001134 87.123788 
L 108.225584 85.97422 
L 108.450034 97.867237 
L 108.674483 91.338321 
L 109.123383 95.53474 
L 109.347833 92.622604 
L 109.572282 88.242896 
L 109.796732 94.804815 
L 110.021182 94.370817 
L 110.245631 92.902878 
L 110.470081 102.746498 
L 110.694531 104.191447 
L 110.91898 93.77892 
L 111.14343 106.991482 
L 111.592329 86.242046 
L 111.816779 99.989363 
L 112.041229 95.350582 
L 112.265679 104.668905 
L 112.714578 94.659587 
L 112.939028 95.206636 
L 113.163477 107.700673 
L 113.387927 90.611493 
L 113.612377 96.761415 
L 113.836826 98.710024 
L 114.061276 93.883605 
L 114.285726 96.137455 
L 114.510176 89.697778 
L 114.734625 91.572665 
L 114.959075 96.951662 
L 115.183525 88.388703 
L 115.407974 91.135597 
L 115.632424 104.293767 
L 115.856874 95.830487 
L 116.081323 92.367394 
L 116.305773 106.626471 
L 116.530223 95.109217 
L 116.754673 93.821758 
L 116.979122 91.647767 
L 117.203572 110.671951 
L 117.428022 93.198983 
L 117.876921 97.758883 
L 118.101371 92.350921 
L 118.32582 94.07581 
L 118.55027 92.654999 
L 118.77472 96.717547 
L 118.999169 90.945723 
L 119.223619 97.239662 
L 119.448069 95.687782 
L 119.672519 105.428371 
L 119.896968 96.012518 
L 120.121418 91.745698 
L 120.345868 99.893562 
L 120.570317 101.487203 
L 120.794767 99.140313 
L 121.019217 91.649272 
L 121.243666 89.705944 
L 121.468116 96.238294 
L 121.692566 98.874136 
L 121.917016 92.069981 
L 122.141465 104.632488 
L 122.365915 91.756687 
L 122.590365 95.728302 
L 122.814814 96.274931 
L 123.039264 99.288696 
L 123.263714 97.127209 
L 123.488163 99.397886 
L 123.712613 99.056457 
L 123.937063 99.943784 
L 124.161512 107.408544 
L 124.385962 105.512816 
L 124.610412 105.458777 
L 125.059311 88.832857 
L 125.283761 95.502727 
L 125.508211 96.629658 
L 125.73266 96.738168 
L 125.95711 102.334329 
L 126.18156 94.722313 
L 126.406009 100.034508 
L 126.630459 117.113423 
L 126.854909 104.436695 
L 127.303808 95.910077 
L 127.528258 102.972784 
L 127.752708 97.824322 
L 127.977157 95.412618 
L 128.426057 111.361678 
L 128.650506 94.828632 
L 128.874956 99.677486 
L 129.099406 107.291468 
L 129.323855 106.13118 
L 129.772755 102.629168 
L 129.997205 93.551827 
L 130.221654 98.364041 
L 130.446104 94.771677 
L 130.670554 100.052557 
L 130.895003 90.860218 
L 131.343903 105.412403 
L 131.568352 106.661548 
L 131.792802 104.80099 
L 132.017252 95.819609 
L 132.241702 105.57037 
L 132.466151 94.245597 
L 132.690601 97.124495 
L 132.915051 97.1061 
L 133.1395 108.250093 
L 133.36395 97.904934 
L 133.5884 101.156813 
L 134.037299 94.615439 
L 134.486198 108.160856 
L 134.710648 95.308867 
L 134.935098 109.238484 
L 135.159548 92.886073 
L 135.383997 97.056226 
L 135.608447 97.308986 
L 135.832897 94.392451 
L 136.057346 110.431464 
L 136.281796 101.323627 
L 136.506246 103.627985 
L 136.730695 98.319077 
L 136.955145 97.859006 
L 137.179595 109.057574 
L 137.404045 95.207797 
L 137.628494 108.53167 
L 138.077394 93.697908 
L 138.301843 103.913143 
L 138.526293 98.524965 
L 138.750743 107.653341 
L 138.975192 94.186871 
L 139.199642 100.126943 
L 139.424092 111.444996 
L 139.648542 100.572389 
L 139.872991 95.579346 
L 140.097441 101.377063 
L 140.321891 96.389244 
L 140.54634 100.989317 
L 140.77079 98.436066 
L 140.99524 98.207 
L 141.219689 98.176302 
L 141.444139 100.207909 
L 141.668589 97.720155 
L 141.893038 110.322894 
L 142.117488 96.255274 
L 142.566388 112.142282 
L 143.015287 107.066329 
L 143.239737 101.429565 
L 143.464186 100.901014 
L 143.688636 103.288886 
L 143.913086 97.388153 
L 144.137535 97.805858 
L 144.361985 103.034092 
L 144.586435 96.699249 
L 144.810885 98.695023 
L 145.035334 98.201137 
L 145.259784 99.986373 
L 145.484234 96.075347 
L 145.933133 101.990756 
L 146.157583 110.929328 
L 146.382032 102.857974 
L 146.606482 101.454136 
L 146.830932 102.160791 
L 147.279831 110.068829 
L 147.504281 103.440221 
L 147.728731 113.748227 
L 147.95318 96.783367 
L 148.17763 97.155469 
L 148.40208 98.004046 
L 148.850979 107.347234 
L 149.299878 105.914835 
L 149.524328 99.35049 
L 149.748778 99.137612 
L 149.973228 99.506591 
L 150.197677 99.137049 
L 150.422127 96.235694 
L 150.871026 113.504677 
L 151.095476 97.508134 
L 151.319926 99.457622 
L 151.544375 98.293152 
L 151.768825 105.700636 
L 151.993275 107.268091 
L 152.217724 98.235324 
L 152.442174 101.581335 
L 152.666624 98.042608 
L 152.891074 99.910694 
L 153.115523 103.838993 
L 153.339973 100.856115 
L 153.564423 108.904787 
L 153.788872 99.621553 
L 154.013322 101.599341 
L 154.237772 99.143479 
L 154.462221 100.85807 
L 154.686671 111.716296 
L 154.911121 106.575389 
L 155.135571 104.477683 
L 155.36002 107.164123 
L 155.58447 111.637561 
L 155.80892 100.370126 
L 156.033369 106.252256 
L 156.257819 102.84988 
L 156.482269 102.698643 
L 156.706718 104.834305 
L 156.931168 111.55564 
L 157.155618 104.646197 
L 157.380067 114.055441 
L 157.828967 100.058106 
L 158.277866 110.724219 
L 158.502316 107.434086 
L 158.951215 99.162901 
L 159.400115 105.121346 
L 159.624564 98.271572 
L 159.849014 109.205466 
L 160.073464 109.379586 
L 160.297914 106.494509 
L 160.522363 106.960421 
L 160.746813 98.082119 
L 161.195712 106.627394 
L 161.420162 101.904603 
L 161.644612 104.349024 
L 161.869061 105.206938 
L 162.093511 102.492474 
L 162.317961 101.13513 
L 162.76686 109.542204 
L 162.99131 98.358673 
L 163.21576 115.139431 
L 163.440209 114.15052 
L 163.889109 101.962199 
L 164.113558 103.079749 
L 164.338008 110.375081 
L 164.786907 101.391908 
L 165.011357 102.748667 
L 165.235807 111.38275 
L 165.684706 100.517935 
L 165.909156 105.169037 
L 166.133606 104.977585 
L 166.358055 106.296587 
L 166.582505 101.396003 
L 166.806955 108.854186 
L 167.031404 110.441933 
L 167.255854 113.71878 
L 167.704754 104.992249 
L 167.929203 104.947836 
L 168.378103 114.265042 
L 168.827002 99.149862 
L 169.051452 107.033237 
L 169.275901 110.468365 
L 169.500351 102.96388 
L 169.724801 99.645535 
L 169.94925 101.97736 
L 170.1737 102.043952 
L 170.39815 112.264773 
L 170.6226 111.737729 
L 170.847049 114.480651 
L 171.071499 114.695198 
L 171.295949 102.110989 
L 171.520398 108.877368 
L 171.969298 97.507154 
L 172.418197 112.649423 
L 172.642647 106.587261 
L 172.867097 107.434405 
L 173.091546 115.57548 
L 173.315996 102.71279 
L 173.764895 99.826638 
L 173.989345 111.064282 
L 174.438244 103.430695 
L 174.662694 105.164379 
L 174.887144 104.521142 
L 175.111593 106.183229 
L 175.336043 105.678912 
L 175.560493 103.650897 
L 175.784943 105.630138 
L 176.009392 99.260745 
L 176.233842 112.239555 
L 176.458292 103.159738 
L 176.682741 109.470155 
L 176.907191 107.212438 
L 177.131641 103.025972 
L 177.35609 106.077668 
L 177.58054 114.490525 
L 177.80499 107.205138 
L 178.02944 108.504266 
L 178.253889 118.822383 
L 178.478339 113.96317 
L 178.702789 103.203065 
L 178.927238 118.625858 
L 179.151688 108.652837 
L 179.376138 115.747603 
L 179.600587 107.331708 
L 179.825037 107.304516 
L 180.049487 101.461172 
L 180.273936 104.02284 
L 180.498386 109.513549 
L 180.722836 104.299075 
L 180.947286 104.923217 
L 181.171735 103.528877 
L 181.396185 107.533407 
L 181.620635 99.643187 
L 181.845084 108.55579 
L 182.069534 101.903309 
L 182.293984 106.973726 
L 182.518433 108.473332 
L 182.742883 99.318347 
L 182.967333 108.355533 
L 183.191783 102.527301 
L 183.640682 116.806754 
L 183.865132 115.886198 
L 184.314031 104.063026 
L 184.538481 120.332726 
L 184.76293 106.072733 
L 184.98738 106.365043 
L 185.21183 98.557437 
L 185.43628 111.07603 
L 185.660729 110.260765 
L 185.885179 108.49288 
L 186.109629 105.338932 
L 186.334078 109.605453 
L 186.558528 100.645549 
L 187.007427 111.131415 
L 187.231877 102.204748 
L 187.456327 106.018987 
L 187.680776 107.234151 
L 187.905226 120.558543 
L 188.354126 106.358445 
L 188.803025 110.597128 
L 189.027475 105.090599 
L 189.251924 103.288791 
L 189.476374 103.096541 
L 189.700824 102.673455 
L 189.925273 124.472727 
L 190.149723 104.212074 
L 190.374173 105.407105 
L 190.598623 105.005511 
L 190.823072 105.088494 
L 191.047522 106.201668 
L 191.496421 103.655134 
L 191.720871 104.379276 
L 192.16977 110.582763 
L 192.39422 117.785725 
L 192.61867 105.759368 
L 192.843119 113.903312 
L 193.067569 113.33799 
L 193.292019 103.195297 
L 193.516469 115.197901 
L 193.740918 106.028803 
L 193.965368 106.617748 
L 194.189818 112.391778 
L 194.414267 109.351891 
L 194.638717 110.005907 
L 194.863167 105.38824 
L 195.087616 109.611969 
L 195.312066 104.58239 
L 195.536516 106.115621 
L 195.760966 109.94748 
L 195.985415 108.025304 
L 195.985415 108.025304 
" clip-path="url(#pcf8c3f909b)" style="fill: none; stroke: #1e90ff; stroke-width: 0.5; stroke-linecap: square"/>
   </g>
   <g id="line2d_10">
    <path d="M 61.764497 72.579462 
L 62.213396 68.634903 
L 62.437846 69.26001 
L 62.662296 71.542601 
L 62.886745 71.561277 
L 63.111195 65.964559 
L 63.335645 78.07686 
L 63.560095 68.980157 
L 63.784544 73.790186 
L 64.008994 67.047151 
L 64.233444 73.10208 
L 64.457893 68.291175 
L 64.682343 69.147604 
L 64.906793 78.186156 
L 65.131242 69.622502 
L 65.355692 74.081062 
L 65.580142 70.066961 
L 65.804591 73.804173 
L 66.029041 81.287728 
L 66.253491 67.920831 
L 66.477941 74.526788 
L 66.70239 75.940407 
L 66.92684 68.913687 
L 67.15129 79.277717 
L 67.375739 79.388682 
L 67.600189 91.106951 
L 67.824639 75.044387 
L 68.049088 79.241546 
L 68.497988 74.614505 
L 68.722438 76.595097 
L 68.946887 71.421208 
L 69.395787 77.512758 
L 69.620236 71.314227 
L 69.844686 79.974432 
L 70.069136 78.594901 
L 70.293585 86.164923 
L 70.518035 73.598098 
L 70.742485 90.040776 
L 70.966935 70.348972 
L 71.415834 71.985009 
L 71.640284 56.781905 
L 71.864733 75.615317 
L 72.089183 82.371433 
L 72.313633 82.349745 
L 72.538082 82.133589 
L 72.762532 74.375048 
L 72.986982 75.764534 
L 73.211431 86.274584 
L 73.435881 80.207951 
L 73.660331 78.726448 
L 73.884781 79.54624 
L 74.10923 79.50403 
L 74.33368 75.641764 
L 74.55813 80.248726 
L 74.782579 81.310756 
L 75.007029 74.879434 
L 75.231479 85.459336 
L 75.455928 81.739084 
L 75.904828 84.717139 
L 76.353727 72.855441 
L 76.578177 92.063954 
L 76.802627 79.152688 
L 77.027076 80.519528 
L 77.251526 78.915905 
L 77.475976 76.22917 
L 77.700425 81.731572 
L 77.924875 81.712399 
L 78.149325 78.160826 
L 78.373774 85.188499 
L 78.822674 79.456499 
L 79.047124 79.568406 
L 79.271573 84.633424 
L 79.496023 83.548993 
L 79.720473 80.637877 
L 79.944922 82.916051 
L 80.169372 87.034023 
L 80.393822 79.571353 
L 80.618271 94.480044 
L 81.067171 82.398878 
L 81.51607 86.320222 
L 81.74052 85.371484 
L 81.96497 90.15866 
L 82.189419 102.431461 
L 82.413869 80.485418 
L 82.638319 90.109907 
L 82.862768 79.429493 
L 83.087218 83.01814 
L 83.311668 88.828799 
L 83.536117 82.269346 
L 83.760567 87.691901 
L 83.985017 84.818436 
L 84.209467 84.110054 
L 84.433916 95.354966 
L 84.882816 79.619741 
L 85.107265 90.249819 
L 85.331715 83.846788 
L 85.556165 83.902849 
L 86.005064 89.018485 
L 86.229514 83.632082 
L 86.453964 87.267937 
L 86.678413 96.285458 
L 86.902863 87.172214 
L 87.127313 94.071022 
L 87.351762 84.165328 
L 87.576212 95.875785 
L 87.800662 81.989674 
L 88.025111 88.254128 
L 88.249561 87.023068 
L 88.474011 93.406957 
L 88.69846 88.594843 
L 88.92291 90.986301 
L 89.14736 86.542118 
L 89.37181 90.153274 
L 89.596259 87.350903 
L 89.820709 101.787716 
L 90.045159 88.845432 
L 90.269608 87.053247 
L 90.494058 94.620532 
L 90.718508 84.095796 
L 90.942957 85.538567 
L 91.167407 86.055083 
L 91.391857 86.286094 
L 91.616307 91.342752 
L 91.840756 91.371374 
L 92.065206 88.2289 
L 92.514105 96.447651 
L 92.963005 90.3746 
L 93.187454 94.845957 
L 93.411904 89.142104 
L 93.636354 89.195218 
L 93.860804 83.821539 
L 94.085253 88.953641 
L 94.309703 88.276551 
L 94.534153 92.762926 
L 94.983052 88.385812 
L 95.207502 94.005451 
L 95.431951 83.349587 
L 95.656401 88.753682 
L 95.880851 100.579006 
L 96.1053 91.090165 
L 96.32975 95.073692 
L 96.5542 90.033508 
L 96.77865 90.12873 
L 97.003099 83.418662 
L 97.227549 105.604423 
L 97.451999 87.453872 
L 97.676448 86.844623 
L 98.125348 105.652835 
L 98.349797 104.769194 
L 98.798697 90.587022 
L 99.023147 93.556233 
L 99.247596 94.753386 
L 99.472046 89.334459 
L 99.696496 93.186064 
L 99.920945 94.625228 
L 100.145395 93.154555 
L 100.369845 90.504001 
L 100.594294 120.41536 
L 100.818744 93.819209 
L 101.267643 92.560324 
L 101.492093 85.617788 
L 101.716543 89.894967 
L 101.940993 89.693924 
L 102.165442 93.857319 
L 102.389892 103.108071 
L 102.614342 92.992994 
L 102.838791 101.363611 
L 103.287691 94.109703 
L 103.51214 108.030214 
L 103.73659 91.61335 
L 103.96104 111.570984 
L 104.409939 88.611993 
L 104.858839 112.757054 
L 105.083288 108.206759 
L 105.307738 97.930626 
L 105.532188 101.903928 
L 105.756637 90.829706 
L 105.981087 92.591069 
L 106.205537 97.730844 
L 106.429986 105.699302 
L 106.654436 89.699307 
L 106.878886 104.336312 
L 107.327785 98.481847 
L 107.552235 89.114992 
L 107.776685 96.889674 
L 108.001134 95.6182 
L 108.225584 89.912973 
L 108.450034 103.647939 
L 108.674483 95.469121 
L 108.898933 93.75701 
L 109.123383 98.528559 
L 109.347833 95.901313 
L 109.572282 99.599315 
L 109.796732 100.543288 
L 110.021182 102.674862 
L 110.245631 96.0196 
L 110.470081 95.715358 
L 110.694531 105.863615 
L 110.91898 99.125223 
L 111.14343 100.711334 
L 111.36788 99.471078 
L 111.592329 91.731175 
L 111.816779 98.505039 
L 112.041229 100.334726 
L 112.265679 106.405139 
L 112.714578 95.790641 
L 112.939028 94.682546 
L 113.163477 107.416036 
L 113.387927 90.160576 
L 113.612377 99.855868 
L 113.836826 99.048227 
L 114.061276 94.535224 
L 114.285726 94.528935 
L 114.510176 93.774136 
L 114.734625 97.393025 
L 114.959075 97.128854 
L 115.183525 92.171125 
L 115.407974 109.708027 
L 115.632424 105.955949 
L 115.856874 94.479038 
L 116.081323 105.898682 
L 116.305773 97.859652 
L 116.530223 101.607528 
L 116.754673 93.475518 
L 117.203572 103.276291 
L 117.428022 95.90696 
L 117.652471 72.479897 
L 117.876921 98.541159 
L 118.101371 98.536454 
L 118.55027 93.816486 
L 118.77472 105.326954 
L 118.999169 92.624715 
L 119.223619 100.436943 
L 119.448069 96.742056 
L 119.672519 109.622432 
L 119.896968 98.39362 
L 120.121418 95.76233 
L 120.345868 97.93934 
L 120.570317 94.617367 
L 120.794767 99.907109 
L 121.019217 92.449704 
L 121.468116 107.138905 
L 121.692566 96.492203 
L 121.917016 96.8001 
L 122.141465 98.911542 
L 122.365915 92.526146 
L 122.590365 113.557234 
L 122.814814 100.510572 
L 123.039264 109.790182 
L 123.263714 100.885171 
L 123.488163 110.82408 
L 123.712613 99.260636 
L 123.937063 96.235871 
L 124.161512 101.766063 
L 124.385962 100.99392 
L 124.610412 103.689824 
L 124.834862 103.380686 
L 125.059311 96.795051 
L 125.283761 100.067746 
L 125.508211 98.248353 
L 125.95711 105.039432 
L 126.18156 106.64272 
L 126.406009 96.107766 
L 126.630459 99.39904 
L 126.854909 114.066608 
L 127.079359 111.084212 
L 127.303808 95.975133 
L 127.528258 95.402012 
L 127.752708 82.285395 
L 127.977157 99.479558 
L 128.201607 103.701023 
L 128.426057 112.2097 
L 128.650506 95.721271 
L 128.874956 96.378119 
L 129.099406 97.468687 
L 129.323855 97.395299 
L 129.548305 102.775269 
L 129.772755 100.693984 
L 129.997205 101.127082 
L 130.221654 106.134225 
L 130.446104 95.608699 
L 130.670554 103.577715 
L 130.895003 96.697451 
L 131.119453 94.184482 
L 131.343903 98.483659 
L 131.568352 110.83099 
L 131.792802 102.588939 
L 132.017252 103.778731 
L 132.241702 100.583721 
L 132.466151 93.331288 
L 132.690601 109.224171 
L 132.915051 104.035312 
L 133.1395 107.098642 
L 133.36395 93.880189 
L 133.5884 100.065744 
L 133.812849 92.972861 
L 134.261749 100.502612 
L 134.486198 97.319247 
L 134.710648 99.073424 
L 134.935098 95.171925 
L 135.159548 95.113379 
L 135.383997 96.630605 
L 135.608447 92.961055 
L 135.832897 95.798069 
L 136.057346 102.353585 
L 136.506246 96.752189 
L 136.730695 100.672737 
L 136.955145 112.253537 
L 137.179595 98.789148 
L 137.404045 109.947683 
L 137.628494 94.439442 
L 137.852944 95.337381 
L 138.077394 98.174721 
L 138.301843 102.465863 
L 138.526293 98.598272 
L 138.750743 103.180029 
L 138.975192 104.924884 
L 139.199642 112.512103 
L 139.424092 100.061584 
L 139.648542 102.478959 
L 139.872991 95.810553 
L 140.097441 103.961635 
L 140.321891 97.557652 
L 140.54634 101.532764 
L 140.77079 102.261067 
L 140.99524 97.573289 
L 141.219689 108.496076 
L 141.444139 102.11658 
L 141.668589 112.551531 
L 141.893038 97.956416 
L 142.117488 98.093722 
L 142.341938 117.68405 
L 142.566388 101.637685 
L 142.790837 101.75663 
L 143.015287 103.409366 
L 143.239737 103.355294 
L 143.464186 101.685928 
L 143.688636 105.721758 
L 143.913086 102.455034 
L 144.137535 95.298548 
L 144.361985 104.515869 
L 144.586435 106.961998 
L 144.810885 100.728779 
L 145.259784 109.186315 
L 145.484234 109.599387 
L 145.708683 106.892743 
L 145.933133 99.195119 
L 146.157583 98.519471 
L 146.382032 101.815686 
L 146.606482 102.494848 
L 146.830932 106.478352 
L 147.055381 105.15328 
L 147.279831 99.558357 
L 147.504281 100.888837 
L 147.728731 100.753063 
L 147.95318 98.623217 
L 148.40208 102.387864 
L 148.626529 107.188512 
L 148.850979 101.309005 
L 149.075429 111.13632 
L 149.299878 99.350526 
L 149.524328 113.781031 
L 149.973228 102.277085 
L 150.197677 99.956144 
L 150.422127 100.561415 
L 150.646577 103.162084 
L 150.871026 101.606604 
L 151.095476 115.896693 
L 151.319926 101.463321 
L 151.544375 102.73273 
L 151.768825 102.46644 
L 151.993275 103.350197 
L 152.217724 97.950057 
L 152.442174 99.724996 
L 152.666624 104.965985 
L 152.891074 98.658023 
L 153.115523 99.990328 
L 153.339973 105.177718 
L 153.564423 105.187874 
L 153.788872 98.055386 
L 154.013322 99.820503 
L 154.237772 104.484893 
L 154.462221 100.845087 
L 154.686671 101.744049 
L 154.911121 100.766852 
L 155.135571 103.159354 
L 155.36002 100.242947 
L 155.80892 102.851452 
L 156.033369 102.155117 
L 156.482269 96.05901 
L 156.706718 103.31951 
L 156.931168 105.238957 
L 157.155618 102.804378 
L 157.380067 97.284944 
L 157.604517 98.243016 
L 157.828967 94.559744 
L 158.053417 99.852563 
L 158.277866 96.001211 
L 158.502316 114.952886 
L 158.726766 99.433243 
L 158.951215 95.227845 
L 159.175665 106.450993 
L 159.624564 98.975301 
L 159.849014 103.76269 
L 160.073464 103.56862 
L 160.297914 104.411085 
L 160.522363 99.10824 
L 160.971263 105.140425 
L 161.195712 106.459817 
L 161.420162 104.525964 
L 161.644612 98.815581 
L 162.093511 101.881039 
L 162.317961 99.788555 
L 162.542411 104.249253 
L 162.76686 99.991407 
L 162.99131 100.984584 
L 163.21576 100.62695 
L 163.440209 105.181445 
L 163.664659 86.295289 
L 163.889109 98.332374 
L 164.113558 97.129611 
L 164.562458 102.452748 
L 165.011357 100.48978 
L 165.235807 97.171416 
L 165.460257 99.602048 
L 165.684706 103.375049 
L 165.909156 102.922435 
L 166.133606 111.04317 
L 166.358055 101.734974 
L 166.582505 104.704082 
L 166.806955 103.482015 
L 167.031404 98.841808 
L 167.255854 101.103754 
L 167.480304 99.807293 
L 167.704754 105.276799 
L 167.929203 102.330742 
L 168.378103 115.598809 
L 168.602552 113.049319 
L 168.827002 105.932231 
L 169.051452 102.617886 
L 169.275901 110.892209 
L 169.500351 101.379754 
L 169.724801 101.153612 
L 170.1737 97.356018 
L 170.39815 98.481081 
L 170.6226 101.42756 
L 170.847049 101.871223 
L 171.071499 99.378713 
L 171.295949 113.166865 
L 171.520398 102.605746 
L 171.744848 114.060946 
L 172.193747 104.141197 
L 172.418197 109.771679 
L 172.642647 111.313201 
L 172.867097 96.946257 
L 173.315996 102.233486 
L 173.540446 99.501317 
L 173.764895 80.88814 
L 173.989345 106.454185 
L 174.213795 113.311143 
L 174.438244 101.405548 
L 174.662694 101.436437 
L 174.887144 108.854002 
L 175.111593 100.122605 
L 175.336043 97.080949 
L 175.560493 106.059057 
L 175.784943 108.090265 
L 176.009392 103.273209 
L 176.233842 103.406602 
L 176.682741 99.936104 
L 176.907191 103.552493 
L 177.131641 97.575632 
L 177.35609 102.756286 
L 177.80499 103.146169 
L 178.02944 107.358252 
L 178.253889 104.576485 
L 178.478339 100.05513 
L 178.702789 99.379746 
L 178.927238 103.540566 
L 179.151688 98.670482 
L 179.376138 106.107179 
L 179.600587 103.760444 
L 179.825037 111.885686 
L 180.049487 99.827281 
L 180.273936 107.798794 
L 180.498386 107.765562 
L 180.722836 104.33251 
L 180.947286 104.889708 
L 181.171735 97.880161 
L 181.396185 106.757018 
L 181.620635 102.047058 
L 181.845084 102.612079 
L 182.069534 107.211762 
L 182.293984 105.096081 
L 182.518433 104.220072 
L 182.742883 101.079071 
L 182.967333 104.696391 
L 183.191783 100.049978 
L 183.416232 97.931336 
L 183.640682 104.153789 
L 183.865132 87.456587 
L 184.089581 111.034032 
L 184.538481 101.504004 
L 184.76293 101.998401 
L 184.98738 99.570606 
L 185.21183 98.944655 
L 185.43628 111.47377 
L 185.660729 100.972174 
L 185.885179 104.164571 
L 186.109629 101.050601 
L 186.558528 109.873822 
L 186.782978 101.148033 
L 187.007427 98.796628 
L 187.231877 98.23232 
L 187.456327 102.753974 
L 187.680776 104.269585 
L 187.905226 101.678284 
L 188.129676 104.718829 
L 188.578575 101.668975 
L 189.027475 112.638847 
L 189.251924 101.233887 
L 189.476374 100.388377 
L 189.700824 101.176275 
L 189.925273 99.998115 
L 190.374173 108.421237 
L 190.598623 100.242495 
L 190.823072 105.385669 
L 191.271972 101.529976 
L 191.720871 110.119697 
L 191.945321 102.615128 
L 192.16977 105.476905 
L 192.39422 98.540129 
L 192.61867 106.842423 
L 192.843119 107.107648 
L 193.067569 102.454976 
L 193.292019 102.147341 
L 193.516469 104.245395 
L 193.740918 102.351806 
L 193.965368 101.728514 
L 194.189818 97.330295 
L 194.414267 107.610479 
L 194.863167 105.773491 
L 195.087616 108.632744 
L 195.312066 109.312791 
L 195.536516 110.95676 
L 195.985415 102.231723 
L 195.985415 102.231723 
" clip-path="url(#pcf8c3f909b)" style="fill: none; stroke: #ff0000; stroke-width: 0.5; stroke-linecap: square"/>
   </g>
   <g id="patch_3">
    <path d="M 59.52 129.12 
L 59.52 26.88 
" style="fill: none; stroke: #000000; stroke-width: 0.8; stroke-linejoin: miter; stroke-linecap: square"/>
   </g>
   <g id="patch_4">
    <path d="M 198.454362 129.12 
L 198.454362 26.88 
" style="fill: none; stroke: #000000; stroke-width: 0.8; stroke-linejoin: miter; stroke-linecap: square"/>
   </g>
   <g id="patch_5">
    <path d="M 59.52 129.12 
L 198.454362 129.12 
" style="fill: none; stroke: #000000; stroke-width: 0.8; stroke-linejoin: miter; stroke-linecap: square"/>
   </g>
   <g id="patch_6">
    <path d="M 59.52 26.88 
L 198.454362 26.88 
" style="fill: none; stroke: #000000; stroke-width: 0.8; stroke-linejoin: miter; stroke-linecap: square"/>
   </g>
   <g id="text_10">
    <!-- Frequency Domain Plot -->
    <g transform="translate(59.587806 20.88) scale(0.12 -0.12)">
     <defs>
      <path id="DejaVuSans-44" d="M 1259 4147 
L 1259 519 
L 2022 519 
Q 2988 519 3436 956 
Q 3884 1394 3884 2338 
Q 3884 3275 3436 3711 
Q 2988 4147 2022 4147 
L 1259 4147 
z
M 628 4666 
L 1925 4666 
Q 3281 4666 3915 4102 
Q 4550 3538 4550 2338 
Q 4550 1131 3912 565 
Q 3275 0 1925 0 
L 628 0 
L 628 4666 
z
" transform="scale(0.015625)"/>
      <path id="DejaVuSans-6d" d="M 3328 2828 
Q 3544 3216 3844 3400 
Q 4144 3584 4550 3584 
Q 5097 3584 5394 3201 
Q 5691 2819 5691 2113 
L 5691 0 
L 5113 0 
L 5113 2094 
Q 5113 2597 4934 2840 
Q 4756 3084 4391 3084 
Q 3944 3084 3684 2787 
Q 3425 2491 3425 1978 
L 3425 0 
L 2847 0 
L 2847 2094 
Q 2847 2600 2669 2842 
Q 2491 3084 2119 3084 
Q 1678 3084 1418 2786 
Q 1159 2488 1159 1978 
L 1159 0 
L 581 0 
L 581 3500 
L 1159 3500 
L 1159 2956 
Q 1356 3278 1631 3431 
Q 1906 3584 2284 3584 
Q 2666 3584 2933 3390 
Q 3200 3197 3328 2828 
z
" transform="scale(0.015625)"/>
      <path id="DejaVuSans-61" d="M 2194 1759 
Q 1497 1759 1228 1600 
Q 959 1441 959 1056 
Q 959 750 1161 570 
Q 1363 391 1709 391 
Q 2188 391 2477 730 
Q 2766 1069 2766 1631 
L 2766 1759 
L 2194 1759 
z
M 3341 1997 
L 3341 0 
L 2766 0 
L 2766 531 
Q 2569 213 2275 61 
Q 1981 -91 1556 -91 
Q 1019 -91 701 211 
Q 384 513 384 1019 
Q 384 1609 779 1909 
Q 1175 2209 1959 2209 
L 2766 2209 
L 2766 2266 
Q 2766 2663 2505 2880 
Q 2244 3097 1772 3097 
Q 1472 3097 1187 3025 
Q 903 2953 641 2809 
L 641 3341 
Q 956 3463 1253 3523 
Q 1550 3584 1831 3584 
Q 2591 3584 2966 3190 
Q 3341 2797 3341 1997 
z
" transform="scale(0.015625)"/>
      <path id="DejaVuSans-69" d="M 603 3500 
L 1178 3500 
L 1178 0 
L 603 0 
L 603 3500 
z
M 603 4863 
L 1178 4863 
L 1178 4134 
L 603 4134 
L 603 4863 
z
" transform="scale(0.015625)"/>
      <path id="DejaVuSans-50" d="M 1259 4147 
L 1259 2394 
L 2053 2394 
Q 2494 2394 2734 2622 
Q 2975 2850 2975 3272 
Q 2975 3691 2734 3919 
Q 2494 4147 2053 4147 
L 1259 4147 
z
M 628 4666 
L 2053 4666 
Q 2838 4666 3239 4311 
Q 3641 3956 3641 3272 
Q 3641 2581 3239 2228 
Q 2838 1875 2053 1875 
L 1259 1875 
L 1259 0 
L 628 0 
L 628 4666 
z
" transform="scale(0.015625)"/>
      <path id="DejaVuSans-6c" d="M 603 4863 
L 1178 4863 
L 1178 0 
L 603 0 
L 603 4863 
z
" transform="scale(0.015625)"/>
      <path id="DejaVuSans-74" d="M 1172 4494 
L 1172 3500 
L 2356 3500 
L 2356 3053 
L 1172 3053 
L 1172 1153 
Q 1172 725 1289 603 
Q 1406 481 1766 481 
L 2356 481 
L 2356 0 
L 1766 0 
Q 1100 0 847 248 
Q 594 497 594 1153 
L 594 3053 
L 172 3053 
L 172 3500 
L 594 3500 
L 594 4494 
L 1172 4494 
z
" transform="scale(0.015625)"/>
     </defs>
     <use xlink:href="#DejaVuSans-46"/>
     <use xlink:href="#DejaVuSans-72" x="50.269531"/>
     <use xlink:href="#DejaVuSans-65" x="89.132812"/>
     <use xlink:href="#DejaVuSans-71" x="150.65625"/>
     <use xlink:href="#DejaVuSans-75" x="214.132812"/>
     <use xlink:href="#DejaVuSans-65" x="277.511719"/>
     <use xlink:href="#DejaVuSans-6e" x="339.035156"/>
     <use xlink:href="#DejaVuSans-63" x="402.414062"/>
     <use xlink:href="#DejaVuSans-79" x="457.394531"/>
     <use xlink:href="#DejaVuSans-20" x="516.574219"/>
     <use xlink:href="#DejaVuSans-44" x="548.361328"/>
     <use xlink:href="#DejaVuSans-6f" x="625.363281"/>
     <use xlink:href="#DejaVuSans-6d" x="686.544922"/>
     <use xlink:href="#DejaVuSans-61" x="783.957031"/>
     <use xlink:href="#DejaVuSans-69" x="845.236328"/>
     <use xlink:href="#DejaVuSans-6e" x="873.019531"/>
     <use xlink:href="#DejaVuSans-20" x="936.398438"/>
     <use xlink:href="#DejaVuSans-50" x="968.185547"/>
     <use xlink:href="#DejaVuSans-6c" x="1028.488281"/>
     <use xlink:href="#DejaVuSans-6f" x="1056.271484"/>
     <use xlink:href="#DejaVuSans-74" x="1117.453125"/>
    </g>
   </g>
   <g id="legend_1">
    <g id="patch_7">
     <path d="M 19.939691 158.292 
L 50.807816 158.292 
Q 51.407816 158.292 51.407816 157.692 
L 51.407816 144.781688 
Q 51.407816 144.181688 50.807816 144.181688 
L 19.939691 144.181688 
Q 19.339691 144.181688 19.339691 144.781688 
L 19.339691 157.692 
Q 19.339691 158.292 19.939691 158.292 
z
" style="fill: #ffffff; opacity: 0.8; stroke: #cccccc; stroke-linejoin: miter"/>
    </g>
    <g id="line2d_11">
     <path d="M 20.539691 146.611219 
L 23.539691 146.611219 
L 26.539691 146.611219 
" style="fill: none; stroke: #ffa500; stroke-width: 0.5; stroke-linecap: square"/>
    </g>
    <g id="text_11">
     <!-- Contaminated -->
     <g transform="translate(28.939691 147.661219) scale(0.03 -0.03)">
      <defs>
       <path id="DejaVuSans-43" d="M 4122 4306 
L 4122 3641 
Q 3803 3938 3442 4084 
Q 3081 4231 2675 4231 
Q 1875 4231 1450 3742 
Q 1025 3253 1025 2328 
Q 1025 1406 1450 917 
Q 1875 428 2675 428 
Q 3081 428 3442 575 
Q 3803 722 4122 1019 
L 4122 359 
Q 3791 134 3420 21 
Q 3050 -91 2638 -91 
Q 1578 -91 968 557 
Q 359 1206 359 2328 
Q 359 3453 968 4101 
Q 1578 4750 2638 4750 
Q 3056 4750 3426 4639 
Q 3797 4528 4122 4306 
z
" transform="scale(0.015625)"/>
      </defs>
      <use xlink:href="#DejaVuSans-43"/>
      <use xlink:href="#DejaVuSans-6f" x="69.824219"/>
      <use xlink:href="#DejaVuSans-6e" x="131.005859"/>
      <use xlink:href="#DejaVuSans-74" x="194.384766"/>
      <use xlink:href="#DejaVuSans-61" x="233.59375"/>
      <use xlink:href="#DejaVuSans-6d" x="294.873047"/>
      <use xlink:href="#DejaVuSans-69" x="392.285156"/>
      <use xlink:href="#DejaVuSans-6e" x="420.068359"/>
      <use xlink:href="#DejaVuSans-61" x="483.447266"/>
      <use xlink:href="#DejaVuSans-74" x="544.726562"/>
      <use xlink:href="#DejaVuSans-65" x="583.935547"/>
      <use xlink:href="#DejaVuSans-64" x="645.458984"/>
     </g>
    </g>
    <g id="line2d_12">
     <path d="M 20.539691 151.014656 
L 23.539691 151.014656 
L 26.539691 151.014656 
" style="fill: none; stroke: #1e90ff; stroke-width: 0.5; stroke-linecap: square"/>
    </g>
    <g id="text_12">
     <!-- Clean -->
     <g transform="translate(28.939691 152.064656) scale(0.03 -0.03)">
      <use xlink:href="#DejaVuSans-43"/>
      <use xlink:href="#DejaVuSans-6c" x="69.824219"/>
      <use xlink:href="#DejaVuSans-65" x="97.607422"/>
      <use xlink:href="#DejaVuSans-61" x="159.130859"/>
      <use xlink:href="#DejaVuSans-6e" x="220.410156"/>
     </g>
    </g>
    <g id="line2d_13">
     <path d="M 20.539691 155.418094 
L 23.539691 155.418094 
L 26.539691 155.418094 
" style="fill: none; stroke: #ff0000; stroke-width: 0.5; stroke-linecap: square"/>
    </g>
    <g id="text_13">
     <!-- SACed -->
     <g transform="translate(28.939691 156.468094) scale(0.03 -0.03)">
      <defs>
       <path id="DejaVuSans-53" d="M 3425 4513 
L 3425 3897 
Q 3066 4069 2747 4153 
Q 2428 4238 2131 4238 
Q 1616 4238 1336 4038 
Q 1056 3838 1056 3469 
Q 1056 3159 1242 3001 
Q 1428 2844 1947 2747 
L 2328 2669 
Q 3034 2534 3370 2195 
Q 3706 1856 3706 1288 
Q 3706 609 3251 259 
Q 2797 -91 1919 -91 
Q 1588 -91 1214 -16 
Q 841 59 441 206 
L 441 856 
Q 825 641 1194 531 
Q 1563 422 1919 422 
Q 2459 422 2753 634 
Q 3047 847 3047 1241 
Q 3047 1584 2836 1778 
Q 2625 1972 2144 2069 
L 1759 2144 
Q 1053 2284 737 2584 
Q 422 2884 422 3419 
Q 422 4038 858 4394 
Q 1294 4750 2059 4750 
Q 2388 4750 2728 4690 
Q 3069 4631 3425 4513 
z
" transform="scale(0.015625)"/>
       <path id="DejaVuSans-41" d="M 2188 4044 
L 1331 1722 
L 3047 1722 
L 2188 4044 
z
M 1831 4666 
L 2547 4666 
L 4325 0 
L 3669 0 
L 3244 1197 
L 1141 1197 
L 716 0 
L 50 0 
L 1831 4666 
z
" transform="scale(0.015625)"/>
      </defs>
      <use xlink:href="#DejaVuSans-53"/>
      <use xlink:href="#DejaVuSans-41" x="65.351562"/>
      <use xlink:href="#DejaVuSans-43" x="132.009766"/>
      <use xlink:href="#DejaVuSans-65" x="201.833984"/>
      <use xlink:href="#DejaVuSans-64" x="263.357422"/>
     </g>
    </g>
   </g>
  </g>
 </g>
 <defs>
  <clipPath id="pcf8c3f909b">
   <rect x="59.52" y="26.88" width="138.934362" height="102.24"/>
  </clipPath>
 </defs>
</svg>
