<?xml version="1.0" encoding="utf-8" standalone="no"?>
<!DOCTYPE svg PUBLIC "-//W3C//DTD SVG 1.1//EN"
  "http://www.w3.org/Graphics/SVG/1.1/DTD/svg11.dtd">
<svg xmlns:xlink="http://www.w3.org/1999/xlink" width="216pt" height="180pt" viewBox="0 0 216 180" xmlns="http://www.w3.org/2000/svg" version="1.1">
 <metadata>
  <rdf:RDF xmlns:dc="http://purl.org/dc/elements/1.1/" xmlns:cc="http://creativecommons.org/ns#" xmlns:rdf="http://www.w3.org/1999/02/22-rdf-syntax-ns#">
   <cc:Work>
    <dc:type rdf:resource="http://purl.org/dc/dcmitype/StillImage"/>
    <dc:date>2024-09-24T18:15:19.926451</dc:date>
    <dc:format>image/svg+xml</dc:format>
    <dc:creator>
     <cc:Agent>
      <dc:title>Matplotlib v3.9.1, https://matplotlib.org/</dc:title>
     </cc:Agent>
    </dc:creator>
   </cc:Work>
  </rdf:RDF>
 </metadata>
 <defs>
  <style type="text/css">*{stroke-linejoin: round; stroke-linecap: butt}</style>
 </defs>
 <g id="figure_1">
  <g id="patch_1">
   <path d="M 0 180 
L 216 180 
L 216 0 
L 0 0 
z
" style="fill: #ffffff"/>
  </g>
  <g id="axes_1">
   <g id="patch_2">
    <path d="M 59.52 129.12 
L 191.149925 129.12 
L 191.149925 26.88 
L 59.52 26.88 
z
" style="fill: #ffffff"/>
   </g>
   <g id="matplotlib.axis_1">
    <g id="xtick_1">
     <g id="line2d_1">
      <defs>
       <path id="m31fb3d04a4" d="M 0 0 
L 0 3.5 
" style="stroke: #000000; stroke-width: 0.8"/>
      </defs>
      <g>
       <use xlink:href="#m31fb3d04a4" x="60.109388" y="129.12" style="stroke: #000000; stroke-width: 0.8"/>
      </g>
     </g>
     <g id="text_1">
      <!-- 0.20 -->
      <g transform="translate(48.976575 143.718437) scale(0.1 -0.1)">
       <defs>
        <path id="DejaVuSans-30" d="M 2034 4250 
Q 1547 4250 1301 3770 
Q 1056 3291 1056 2328 
Q 1056 1369 1301 889 
Q 1547 409 2034 409 
Q 2525 409 2770 889 
Q 3016 1369 3016 2328 
Q 3016 3291 2770 3770 
Q 2525 4250 2034 4250 
z
M 2034 4750 
Q 2819 4750 3233 4129 
Q 3647 3509 3647 2328 
Q 3647 1150 3233 529 
Q 2819 -91 2034 -91 
Q 1250 -91 836 529 
Q 422 1150 422 2328 
Q 422 3509 836 4129 
Q 1250 4750 2034 4750 
z
" transform="scale(0.015625)"/>
        <path id="DejaVuSans-2e" d="M 684 794 
L 1344 794 
L 1344 0 
L 684 0 
L 684 794 
z
" transform="scale(0.015625)"/>
        <path id="DejaVuSans-32" d="M 1228 531 
L 3431 531 
L 3431 0 
L 469 0 
L 469 531 
Q 828 903 1448 1529 
Q 2069 2156 2228 2338 
Q 2531 2678 2651 2914 
Q 2772 3150 2772 3378 
Q 2772 3750 2511 3984 
Q 2250 4219 1831 4219 
Q 1534 4219 1204 4116 
Q 875 4013 500 3803 
L 500 4441 
Q 881 4594 1212 4672 
Q 1544 4750 1819 4750 
Q 2544 4750 2975 4387 
Q 3406 4025 3406 3419 
Q 3406 3131 3298 2873 
Q 3191 2616 2906 2266 
Q 2828 2175 2409 1742 
Q 1991 1309 1228 531 
z
" transform="scale(0.015625)"/>
       </defs>
       <use xlink:href="#DejaVuSans-30"/>
       <use xlink:href="#DejaVuSans-2e" x="63.623047"/>
       <use xlink:href="#DejaVuSans-32" x="95.410156"/>
       <use xlink:href="#DejaVuSans-30" x="159.033203"/>
      </g>
     </g>
    </g>
    <g id="xtick_2">
     <g id="line2d_2">
      <g>
       <use xlink:href="#m31fb3d04a4" x="125.580541" y="129.12" style="stroke: #000000; stroke-width: 0.8"/>
      </g>
     </g>
     <g id="text_2">
      <!-- 0.25 -->
      <g transform="translate(114.447728 143.718437) scale(0.1 -0.1)">
       <defs>
        <path id="DejaVuSans-35" d="M 691 4666 
L 3169 4666 
L 3169 4134 
L 1269 4134 
L 1269 2991 
Q 1406 3038 1543 3061 
Q 1681 3084 1819 3084 
Q 2600 3084 3056 2656 
Q 3513 2228 3513 1497 
Q 3513 744 3044 326 
Q 2575 -91 1722 -91 
Q 1428 -91 1123 -41 
Q 819 9 494 109 
L 494 744 
Q 775 591 1075 516 
Q 1375 441 1709 441 
Q 2250 441 2565 725 
Q 2881 1009 2881 1497 
Q 2881 1984 2565 2268 
Q 2250 2553 1709 2553 
Q 1456 2553 1204 2497 
Q 953 2441 691 2322 
L 691 4666 
z
" transform="scale(0.015625)"/>
       </defs>
       <use xlink:href="#DejaVuSans-30"/>
       <use xlink:href="#DejaVuSans-2e" x="63.623047"/>
       <use xlink:href="#DejaVuSans-32" x="95.410156"/>
       <use xlink:href="#DejaVuSans-35" x="159.033203"/>
      </g>
     </g>
    </g>
    <g id="xtick_3">
     <g id="line2d_3">
      <g>
       <use xlink:href="#m31fb3d04a4" x="191.051694" y="129.12" style="stroke: #000000; stroke-width: 0.8"/>
      </g>
     </g>
     <g id="text_3">
      <!-- 0.30 -->
      <g transform="translate(179.918882 143.718437) scale(0.1 -0.1)">
       <defs>
        <path id="DejaVuSans-33" d="M 2597 2516 
Q 3050 2419 3304 2112 
Q 3559 1806 3559 1356 
Q 3559 666 3084 287 
Q 2609 -91 1734 -91 
Q 1441 -91 1130 -33 
Q 819 25 488 141 
L 488 750 
Q 750 597 1062 519 
Q 1375 441 1716 441 
Q 2309 441 2620 675 
Q 2931 909 2931 1356 
Q 2931 1769 2642 2001 
Q 2353 2234 1838 2234 
L 1294 2234 
L 1294 2753 
L 1863 2753 
Q 2328 2753 2575 2939 
Q 2822 3125 2822 3475 
Q 2822 3834 2567 4026 
Q 2313 4219 1838 4219 
Q 1578 4219 1281 4162 
Q 984 4106 628 3988 
L 628 4550 
Q 988 4650 1302 4700 
Q 1616 4750 1894 4750 
Q 2613 4750 3031 4423 
Q 3450 4097 3450 3541 
Q 3450 3153 3228 2886 
Q 3006 2619 2597 2516 
z
" transform="scale(0.015625)"/>
       </defs>
       <use xlink:href="#DejaVuSans-30"/>
       <use xlink:href="#DejaVuSans-2e" x="63.623047"/>
       <use xlink:href="#DejaVuSans-33" x="95.410156"/>
       <use xlink:href="#DejaVuSans-30" x="159.033203"/>
      </g>
     </g>
    </g>
    <g id="text_4">
     <!-- Time (s) -->
     <g transform="translate(105.006056 157.396563) scale(0.1 -0.1)">
      <defs>
       <path id="DejaVuSans-54" d="M -19 4666 
L 3928 4666 
L 3928 4134 
L 2272 4134 
L 2272 0 
L 1638 0 
L 1638 4134 
L -19 4134 
L -19 4666 
z
" transform="scale(0.015625)"/>
       <path id="DejaVuSans-69" d="M 603 3500 
L 1178 3500 
L 1178 0 
L 603 0 
L 603 3500 
z
M 603 4863 
L 1178 4863 
L 1178 4134 
L 603 4134 
L 603 4863 
z
" transform="scale(0.015625)"/>
       <path id="DejaVuSans-6d" d="M 3328 2828 
Q 3544 3216 3844 3400 
Q 4144 3584 4550 3584 
Q 5097 3584 5394 3201 
Q 5691 2819 5691 2113 
L 5691 0 
L 5113 0 
L 5113 2094 
Q 5113 2597 4934 2840 
Q 4756 3084 4391 3084 
Q 3944 3084 3684 2787 
Q 3425 2491 3425 1978 
L 3425 0 
L 2847 0 
L 2847 2094 
Q 2847 2600 2669 2842 
Q 2491 3084 2119 3084 
Q 1678 3084 1418 2786 
Q 1159 2488 1159 1978 
L 1159 0 
L 581 0 
L 581 3500 
L 1159 3500 
L 1159 2956 
Q 1356 3278 1631 3431 
Q 1906 3584 2284 3584 
Q 2666 3584 2933 3390 
Q 3200 3197 3328 2828 
z
" transform="scale(0.015625)"/>
       <path id="DejaVuSans-65" d="M 3597 1894 
L 3597 1613 
L 953 1613 
Q 991 1019 1311 708 
Q 1631 397 2203 397 
Q 2534 397 2845 478 
Q 3156 559 3463 722 
L 3463 178 
Q 3153 47 2828 -22 
Q 2503 -91 2169 -91 
Q 1331 -91 842 396 
Q 353 884 353 1716 
Q 353 2575 817 3079 
Q 1281 3584 2069 3584 
Q 2775 3584 3186 3129 
Q 3597 2675 3597 1894 
z
M 3022 2063 
Q 3016 2534 2758 2815 
Q 2500 3097 2075 3097 
Q 1594 3097 1305 2825 
Q 1016 2553 972 2059 
L 3022 2063 
z
" transform="scale(0.015625)"/>
       <path id="DejaVuSans-20" transform="scale(0.015625)"/>
       <path id="DejaVuSans-28" d="M 1984 4856 
Q 1566 4138 1362 3434 
Q 1159 2731 1159 2009 
Q 1159 1288 1364 580 
Q 1569 -128 1984 -844 
L 1484 -844 
Q 1016 -109 783 600 
Q 550 1309 550 2009 
Q 550 2706 781 3412 
Q 1013 4119 1484 4856 
L 1984 4856 
z
" transform="scale(0.015625)"/>
       <path id="DejaVuSans-73" d="M 2834 3397 
L 2834 2853 
Q 2591 2978 2328 3040 
Q 2066 3103 1784 3103 
Q 1356 3103 1142 2972 
Q 928 2841 928 2578 
Q 928 2378 1081 2264 
Q 1234 2150 1697 2047 
L 1894 2003 
Q 2506 1872 2764 1633 
Q 3022 1394 3022 966 
Q 3022 478 2636 193 
Q 2250 -91 1575 -91 
Q 1294 -91 989 -36 
Q 684 19 347 128 
L 347 722 
Q 666 556 975 473 
Q 1284 391 1588 391 
Q 1994 391 2212 530 
Q 2431 669 2431 922 
Q 2431 1156 2273 1281 
Q 2116 1406 1581 1522 
L 1381 1569 
Q 847 1681 609 1914 
Q 372 2147 372 2553 
Q 372 3047 722 3315 
Q 1072 3584 1716 3584 
Q 2034 3584 2315 3537 
Q 2597 3491 2834 3397 
z
" transform="scale(0.015625)"/>
       <path id="DejaVuSans-29" d="M 513 4856 
L 1013 4856 
Q 1481 4119 1714 3412 
Q 1947 2706 1947 2009 
Q 1947 1309 1714 600 
Q 1481 -109 1013 -844 
L 513 -844 
Q 928 -128 1133 580 
Q 1338 1288 1338 2009 
Q 1338 2731 1133 3434 
Q 928 4138 513 4856 
z
" transform="scale(0.015625)"/>
      </defs>
      <use xlink:href="#DejaVuSans-54"/>
      <use xlink:href="#DejaVuSans-69" x="57.958984"/>
      <use xlink:href="#DejaVuSans-6d" x="85.742188"/>
      <use xlink:href="#DejaVuSans-65" x="183.154297"/>
      <use xlink:href="#DejaVuSans-20" x="244.677734"/>
      <use xlink:href="#DejaVuSans-28" x="276.464844"/>
      <use xlink:href="#DejaVuSans-73" x="315.478516"/>
      <use xlink:href="#DejaVuSans-29" x="367.578125"/>
     </g>
    </g>
   </g>
   <g id="matplotlib.axis_2">
    <g id="ytick_1">
     <g id="line2d_4">
      <defs>
       <path id="m9530094f44" d="M 0 0 
L -3.5 0 
" style="stroke: #000000; stroke-width: 0.8"/>
      </defs>
      <g>
       <use xlink:href="#m9530094f44" x="59.52" y="126.356757" style="stroke: #000000; stroke-width: 0.8"/>
      </g>
     </g>
     <g id="text_5">
      <!-- −10 -->
      <g transform="translate(31.415312 130.155976) scale(0.1 -0.1)">
       <defs>
        <path id="DejaVuSans-2212" d="M 678 2272 
L 4684 2272 
L 4684 1741 
L 678 1741 
L 678 2272 
z
" transform="scale(0.015625)"/>
        <path id="DejaVuSans-31" d="M 794 531 
L 1825 531 
L 1825 4091 
L 703 3866 
L 703 4441 
L 1819 4666 
L 2450 4666 
L 2450 531 
L 3481 531 
L 3481 0 
L 794 0 
L 794 531 
z
" transform="scale(0.015625)"/>
       </defs>
       <use xlink:href="#DejaVuSans-2212"/>
       <use xlink:href="#DejaVuSans-31" x="83.789062"/>
       <use xlink:href="#DejaVuSans-30" x="147.412109"/>
      </g>
     </g>
    </g>
    <g id="ytick_2">
     <g id="line2d_5">
      <g>
       <use xlink:href="#m9530094f44" x="59.52" y="98.724324" style="stroke: #000000; stroke-width: 0.8"/>
      </g>
     </g>
     <g id="text_6">
      <!-- −5 -->
      <g transform="translate(37.777812 102.523543) scale(0.1 -0.1)">
       <use xlink:href="#DejaVuSans-2212"/>
       <use xlink:href="#DejaVuSans-35" x="83.789062"/>
      </g>
     </g>
    </g>
    <g id="ytick_3">
     <g id="line2d_6">
      <g>
       <use xlink:href="#m9530094f44" x="59.52" y="71.091892" style="stroke: #000000; stroke-width: 0.8"/>
      </g>
     </g>
     <g id="text_7">
      <!-- 0 -->
      <g transform="translate(46.1575 74.891111) scale(0.1 -0.1)">
       <use xlink:href="#DejaVuSans-30"/>
      </g>
     </g>
    </g>
    <g id="ytick_4">
     <g id="line2d_7">
      <g>
       <use xlink:href="#m9530094f44" x="59.52" y="43.459459" style="stroke: #000000; stroke-width: 0.8"/>
      </g>
     </g>
     <g id="text_8">
      <!-- 5 -->
      <g transform="translate(46.1575 47.258678) scale(0.1 -0.1)">
       <use xlink:href="#DejaVuSans-35"/>
      </g>
     </g>
    </g>
    <g id="text_9">
     <!-- Amplitude (mV) -->
     <g transform="translate(25.335625 117.403906) rotate(-90) scale(0.1 -0.1)">
      <defs>
       <path id="DejaVuSans-41" d="M 2188 4044 
L 1331 1722 
L 3047 1722 
L 2188 4044 
z
M 1831 4666 
L 2547 4666 
L 4325 0 
L 3669 0 
L 3244 1197 
L 1141 1197 
L 716 0 
L 50 0 
L 1831 4666 
z
" transform="scale(0.015625)"/>
       <path id="DejaVuSans-70" d="M 1159 525 
L 1159 -1331 
L 581 -1331 
L 581 3500 
L 1159 3500 
L 1159 2969 
Q 1341 3281 1617 3432 
Q 1894 3584 2278 3584 
Q 2916 3584 3314 3078 
Q 3713 2572 3713 1747 
Q 3713 922 3314 415 
Q 2916 -91 2278 -91 
Q 1894 -91 1617 61 
Q 1341 213 1159 525 
z
M 3116 1747 
Q 3116 2381 2855 2742 
Q 2594 3103 2138 3103 
Q 1681 3103 1420 2742 
Q 1159 2381 1159 1747 
Q 1159 1113 1420 752 
Q 1681 391 2138 391 
Q 2594 391 2855 752 
Q 3116 1113 3116 1747 
z
" transform="scale(0.015625)"/>
       <path id="DejaVuSans-6c" d="M 603 4863 
L 1178 4863 
L 1178 0 
L 603 0 
L 603 4863 
z
" transform="scale(0.015625)"/>
       <path id="DejaVuSans-74" d="M 1172 4494 
L 1172 3500 
L 2356 3500 
L 2356 3053 
L 1172 3053 
L 1172 1153 
Q 1172 725 1289 603 
Q 1406 481 1766 481 
L 2356 481 
L 2356 0 
L 1766 0 
Q 1100 0 847 248 
Q 594 497 594 1153 
L 594 3053 
L 172 3053 
L 172 3500 
L 594 3500 
L 594 4494 
L 1172 4494 
z
" transform="scale(0.015625)"/>
       <path id="DejaVuSans-75" d="M 544 1381 
L 544 3500 
L 1119 3500 
L 1119 1403 
Q 1119 906 1312 657 
Q 1506 409 1894 409 
Q 2359 409 2629 706 
Q 2900 1003 2900 1516 
L 2900 3500 
L 3475 3500 
L 3475 0 
L 2900 0 
L 2900 538 
Q 2691 219 2414 64 
Q 2138 -91 1772 -91 
Q 1169 -91 856 284 
Q 544 659 544 1381 
z
M 1991 3584 
L 1991 3584 
z
" transform="scale(0.015625)"/>
       <path id="DejaVuSans-64" d="M 2906 2969 
L 2906 4863 
L 3481 4863 
L 3481 0 
L 2906 0 
L 2906 525 
Q 2725 213 2448 61 
Q 2172 -91 1784 -91 
Q 1150 -91 751 415 
Q 353 922 353 1747 
Q 353 2572 751 3078 
Q 1150 3584 1784 3584 
Q 2172 3584 2448 3432 
Q 2725 3281 2906 2969 
z
M 947 1747 
Q 947 1113 1208 752 
Q 1469 391 1925 391 
Q 2381 391 2643 752 
Q 2906 1113 2906 1747 
Q 2906 2381 2643 2742 
Q 2381 3103 1925 3103 
Q 1469 3103 1208 2742 
Q 947 2381 947 1747 
z
" transform="scale(0.015625)"/>
       <path id="DejaVuSans-56" d="M 1831 0 
L 50 4666 
L 709 4666 
L 2188 738 
L 3669 4666 
L 4325 4666 
L 2547 0 
L 1831 0 
z
" transform="scale(0.015625)"/>
      </defs>
      <use xlink:href="#DejaVuSans-41"/>
      <use xlink:href="#DejaVuSans-6d" x="68.408203"/>
      <use xlink:href="#DejaVuSans-70" x="165.820312"/>
      <use xlink:href="#DejaVuSans-6c" x="229.296875"/>
      <use xlink:href="#DejaVuSans-69" x="257.080078"/>
      <use xlink:href="#DejaVuSans-74" x="284.863281"/>
      <use xlink:href="#DejaVuSans-75" x="324.072266"/>
      <use xlink:href="#DejaVuSans-64" x="387.451172"/>
      <use xlink:href="#DejaVuSans-65" x="450.927734"/>
      <use xlink:href="#DejaVuSans-20" x="512.451172"/>
      <use xlink:href="#DejaVuSans-28" x="544.238281"/>
      <use xlink:href="#DejaVuSans-6d" x="583.251953"/>
      <use xlink:href="#DejaVuSans-56" x="680.664062"/>
      <use xlink:href="#DejaVuSans-29" x="749.072266"/>
     </g>
    </g>
   </g>
   <g id="line2d_8">
    <path d="M 60.174875 82.257552 
L 61.484626 82.15499 
L 62.139501 81.684859 
L 63.449252 81.171772 
L 67.378503 77.63202 
L 68.033378 77.250386 
L 71.96263 74.202167 
L 73.27238 73.274885 
L 74.582131 72.402694 
L 77.201632 69.394026 
L 79.166258 67.195238 
L 80.476008 66.073957 
L 81.130883 65.38686 
L 82.440634 64.666741 
L 83.750384 63.687149 
L 85.71501 62.20107 
L 86.369885 62.066998 
L 87.679636 62.202955 
L 89.644262 61.786134 
L 90.954012 61.37178 
L 92.918638 61.279948 
L 94.228388 61.930566 
L 94.883264 62.241698 
L 95.538139 62.290558 
L 96.193014 62.167225 
L 96.847889 62.174111 
L 98.15764 62.323001 
L 98.812515 62.406262 
L 100.777141 63.212835 
L 102.086891 64.094411 
L 102.741767 64.309964 
L 104.706392 65.809709 
L 105.361268 65.856515 
L 106.016143 66.123253 
L 106.671018 66.533695 
L 107.325893 67.231381 
L 109.290519 68.095649 
L 111.91002 69.753587 
L 112.564895 69.810281 
L 113.874646 69.768076 
L 114.529521 69.862406 
L 115.184396 69.764079 
L 117.149022 68.659123 
L 117.803897 68.782046 
L 118.458773 68.764831 
L 119.113648 68.59359 
L 119.768523 68.996058 
L 123.042899 72.278484 
L 124.35265 73.322042 
L 125.007525 73.582406 
L 125.6624 73.97143 
L 126.317276 74.536804 
L 126.972151 74.806348 
L 130.246527 76.646953 
L 132.211153 77.227445 
L 134.175779 77.560342 
L 135.485529 78.022157 
L 138.10503 77.909386 
L 139.414781 77.818907 
L 142.034282 76.799424 
L 143.998907 75.30326 
L 145.308658 74.70808 
L 145.963533 74.553859 
L 147.273284 74.708423 
L 147.928159 74.868828 
L 148.583034 75.177215 
L 149.237909 75.06099 
L 149.892785 74.62093 
L 151.202535 73.328779 
L 154.476911 71.999084 
L 155.786662 70.887315 
L 157.751288 70.339171 
L 158.406163 69.833406 
L 160.370789 68.876736 
L 161.025664 68.412111 
L 161.680539 67.807678 
L 165.609791 65.136996 
L 167.574416 64.911705 
L 168.229292 64.615217 
L 168.884167 64.733959 
L 169.539042 64.7142 
L 170.848793 65.440133 
L 171.503668 65.96046 
L 172.158543 66.191178 
L 173.468294 67.252621 
L 174.123169 67.316725 
L 174.778044 67.151068 
L 175.432919 66.862276 
L 176.087795 66.88929 
L 178.05242 68.370829 
L 179.362171 69.535413 
L 180.017046 69.638839 
L 180.671921 69.488577 
L 181.326797 69.746097 
L 182.636547 69.696723 
L 183.946298 70.088209 
L 184.601173 70.03456 
L 185.256048 70.36034 
L 185.910923 70.5498 
L 186.565799 70.512263 
L 187.875549 71.434127 
L 189.1853 72.490448 
L 189.840175 72.77884 
L 190.49505 72.679748 
L 190.49505 72.679748 
" clip-path="url(#p86207e3850)" style="fill: none; stroke: #0000ff; stroke-linecap: square"/>
   </g>
   <g id="line2d_9">
    <path d="M 60.174875 102.656167 
L 60.829751 62.192304 
L 61.484626 45.626045 
L 62.139501 46.749424 
L 62.794376 51.491546 
L 64.759002 77.902571 
L 65.413877 90.272672 
L 66.068753 107.398463 
L 66.723628 114.627868 
L 67.378503 129.876912 
L 68.033378 136.930095 
L 68.688254 148.304877 
L 69.343129 152.312268 
L 69.998004 151.917143 
L 70.652879 96.519086 
L 71.307755 54.512057 
L 71.96263 39.203146 
L 72.617505 36.103017 
L 75.237006 69.562666 
L 75.891881 87.794728 
L 76.546757 98.570367 
L 77.856507 124.827445 
L 78.511382 133.148304 
L 79.821133 145.957475 
L 80.476008 148.280716 
L 81.130883 85.720126 
L 81.785759 42.179062 
L 82.440634 26.76323 
L 83.095509 26.130081 
L 83.750384 31.644264 
L 84.40526 39.97834 
L 86.369885 77.356903 
L 87.024761 87.866827 
L 87.679636 105.132886 
L 88.334511 119.193083 
L 88.989386 126.627792 
L 89.644262 136.315914 
L 90.299137 139.002483 
L 90.954012 140.302471 
L 91.608887 83.687207 
L 92.263763 39.554873 
L 92.918638 22.930663 
L 93.573513 28.090734 
L 94.228388 28.835557 
L 94.883264 37.337921 
L 95.538139 49.131852 
L 98.812515 121.730988 
L 99.46739 127.317871 
L 100.122266 137.266848 
L 101.432016 147.274763 
L 102.086891 82.93647 
L 102.741767 43.923756 
L 103.396642 24.423211 
L 104.706392 30.078151 
L 106.016143 53.561276 
L 109.945394 136.601738 
L 110.60027 146.440691 
L 111.255145 150.173041 
L 111.91002 155.004877 
L 112.564895 89.294802 
L 113.219771 48.815953 
L 113.874646 32.165475 
L 114.529521 32.004443 
L 115.184396 36.781731 
L 115.839272 43.275815 
L 116.494147 53.96332 
L 117.803897 81.024234 
L 118.458773 98.726579 
L 120.423398 136.41263 
L 121.078274 146.940079 
L 121.733149 152.0668 
L 122.388024 154.566222 
L 123.042899 90.827653 
L 123.697775 53.000589 
L 124.35265 36.278186 
L 125.007525 39.466578 
L 125.6624 41.95663 
L 126.972151 61.687238 
L 127.627026 76.936938 
L 128.936777 101.671812 
L 129.591652 119.858734 
L 130.246527 134.796378 
L 130.901402 137.752972 
L 132.211153 157.058731 
L 132.866028 154.757588 
L 133.520903 95.175781 
L 134.175779 55.660985 
L 134.830654 43.704108 
L 135.485529 43.32558 
L 136.140404 47.286888 
L 136.79528 53.775296 
L 137.450155 66.583383 
L 138.10503 75.576472 
L 138.759905 88.935554 
L 139.414781 105.895378 
L 140.069656 117.26587 
L 142.034282 145.870391 
L 142.689157 150.301897 
L 143.344032 151.479153 
L 143.998907 95.282615 
L 144.653783 52.099553 
L 145.308658 37.656566 
L 145.963533 42.117976 
L 146.618408 43.931106 
L 147.928159 62.204129 
L 148.583034 76.644203 
L 149.237909 84.712403 
L 149.892785 103.365096 
L 150.54766 111.559464 
L 151.202535 122.6317 
L 151.85741 130.910408 
L 153.167161 142.388873 
L 153.822036 143.027828 
L 154.476911 93.046889 
L 155.131787 52.173924 
L 155.786662 35.985479 
L 157.096412 42.292653 
L 157.751288 49.315241 
L 158.406163 58.558161 
L 161.025664 104.209838 
L 161.680539 116.855359 
L 162.335414 125.133834 
L 162.99029 131.499113 
L 163.645165 135.355115 
L 164.30004 136.580594 
L 164.954915 84.634824 
L 165.609791 45.116044 
L 166.264666 32.045693 
L 167.574416 37.767382 
L 168.229292 43.306996 
L 168.884167 55.281921 
L 169.539042 61.546667 
L 170.848793 88.460258 
L 171.503668 97.297854 
L 172.158543 113.242903 
L 173.468294 127.819842 
L 174.123169 133.13919 
L 174.778044 132.012761 
L 175.432919 80.635713 
L 176.087795 49.288922 
L 176.74267 35.028089 
L 177.397545 38.159232 
L 178.05242 43.379529 
L 179.362171 59.126348 
L 180.671921 81.02543 
L 181.326797 88.022817 
L 182.636547 115.210474 
L 183.291422 121.582743 
L 183.946298 121.996762 
L 184.601173 131.548884 
L 185.256048 134.598055 
L 185.910923 83.481837 
L 186.565799 57.202286 
L 187.220674 40.385552 
L 187.875549 41.863008 
L 188.530424 50.521636 
L 189.1853 54.413582 
L 190.49505 70.86953 
L 190.49505 70.86953 
" clip-path="url(#p86207e3850)" style="fill: none; stroke: #ff0000; stroke-width: 0.8; stroke-linecap: square"/>
   </g>
   <g id="line2d_10">
    <path d="M 60.174875 126.307226 
L 60.829751 36.039436 
L 61.483689 -1 
M 61.498103 -1 
L 62.139501 1.525396 
L 62.794376 12.671711 
L 64.104127 51.999373 
L 65.413877 105.000388 
L 66.068753 139.727058 
L 66.723628 163.079338 
L 67.104779 181 
M 70.33583 181 
L 70.652879 119.585588 
L 71.307755 28.765077 
L 71.85875 -1 
M 72.945625 -1 
L 73.927256 22.479632 
L 75.237006 68.409032 
L 75.891881 102.148206 
L 77.706383 181 
M 80.77145 181 
L 81.130883 108.267773 
L 81.785759 16.984327 
L 82.120292 -1 
M 83.923665 -1 
L 84.40526 11.899384 
L 86.369885 91.458215 
L 87.024761 118.888377 
L 88.348502 181 
M 91.216145 181 
L 91.608887 105.94541 
L 92.263763 15.103389 
L 92.555523 -1 
M 94.469768 -1 
L 94.883264 10.131402 
L 96.193014 62.34525 
L 96.847889 90.45574 
L 98.15764 152.961213 
L 98.78333 181 
M 101.709379 181 
L 102.086891 105.218247 
L 102.741767 20.43738 
L 103.104139 -1 
M 104.834705 -1 
L 106.016143 39.432175 
L 107.980769 126.995804 
L 108.635644 157.495862 
L 109.26741 181 
M 112.22071 181 
L 112.564895 112.251589 
L 113.219771 25.305357 
L 113.694144 -1 
M 115.042347 -1 
L 115.184396 1.369416 
L 115.839272 16.968808 
L 116.494147 39.927821 
L 117.803897 95.830611 
L 119.113648 158.296001 
L 119.664075 181 
M 122.708383 181 
L 123.042899 114.755927 
L 123.697775 28.785366 
L 124.225174 -1 
M 125.186695 -1 
L 125.6624 5.387952 
L 126.972151 47.305144 
L 129.868357 181 
M 133.208865 181 
L 133.520903 120.005841 
L 134.175779 30.532858 
L 134.803964 -1 
M 135.494465 -1 
L 136.140404 9.323107 
L 136.79528 25.719042 
L 138.759905 104.940808 
L 139.414781 139.430073 
L 140.431932 181 
M 143.688621 181 
L 143.998907 120.899919 
L 144.653783 25.992255 
L 145.144017 -1 
M 146.187716 -1 
L 146.618408 4.450853 
L 147.273284 23.265613 
L 147.928159 46.491937 
L 150.975933 181 
M 154.149416 181 
L 154.476911 119.416566 
L 155.131787 25.158839 
L 155.575195 -1 
M 156.940492 -1 
L 157.096412 1.339486 
L 157.751288 18.908657 
L 159.061038 69.155174 
L 159.715913 95.854039 
L 161.55175 181 
M 164.599913 181 
L 164.954915 111.793379 
L 165.609791 17.24988 
L 165.939862 -1 
M 167.712221 -1 
L 168.229292 11.950716 
L 170.193917 92.532847 
L 170.848793 125.34746 
L 171.503668 152.427983 
L 172.074711 181 
M 175.067383 181 
L 175.432919 108.67688 
L 176.087795 20.475291 
L 176.457118 -1 
M 178.010546 -1 
L 178.05242 -0.214628 
L 178.707296 18.971652 
L 179.362171 41.558452 
L 181.326797 126.049024 
L 182.456397 181 
M 185.569962 181 
L 185.910923 112.425353 
L 186.565799 27.552158 
L 187.018687 -1 
M 188.257178 -1 
L 189.1853 21.165838 
L 190.49505 70.506116 
L 190.49505 70.506116 
" clip-path="url(#p86207e3850)" style="fill: none; stroke: #808080; stroke-width: 0.5; stroke-linecap: square"/>
   </g>
   <g id="patch_3">
    <path d="M 59.52 129.12 
L 59.52 26.88 
" style="fill: none; stroke: #000000; stroke-width: 0.8; stroke-linejoin: miter; stroke-linecap: square"/>
   </g>
   <g id="patch_4">
    <path d="M 191.149925 129.12 
L 191.149925 26.88 
" style="fill: none; stroke: #000000; stroke-width: 0.8; stroke-linejoin: miter; stroke-linecap: square"/>
   </g>
   <g id="patch_5">
    <path d="M 59.52 129.12 
L 191.149925 129.12 
" style="fill: none; stroke: #000000; stroke-width: 0.8; stroke-linejoin: miter; stroke-linecap: square"/>
   </g>
   <g id="patch_6">
    <path d="M 59.52 26.88 
L 191.149925 26.88 
" style="fill: none; stroke: #000000; stroke-width: 0.8; stroke-linejoin: miter; stroke-linecap: square"/>
   </g>
   <g id="text_10">
    <!-- Zoom-in Time Domain Plot -->
    <g transform="translate(45.413088 20.88) scale(0.12 -0.12)">
     <defs>
      <path id="DejaVuSans-5a" d="M 359 4666 
L 4025 4666 
L 4025 4184 
L 1075 531 
L 4097 531 
L 4097 0 
L 288 0 
L 288 481 
L 3238 4134 
L 359 4134 
L 359 4666 
z
" transform="scale(0.015625)"/>
      <path id="DejaVuSans-6f" d="M 1959 3097 
Q 1497 3097 1228 2736 
Q 959 2375 959 1747 
Q 959 1119 1226 758 
Q 1494 397 1959 397 
Q 2419 397 2687 759 
Q 2956 1122 2956 1747 
Q 2956 2369 2687 2733 
Q 2419 3097 1959 3097 
z
M 1959 3584 
Q 2709 3584 3137 3096 
Q 3566 2609 3566 1747 
Q 3566 888 3137 398 
Q 2709 -91 1959 -91 
Q 1206 -91 779 398 
Q 353 888 353 1747 
Q 353 2609 779 3096 
Q 1206 3584 1959 3584 
z
" transform="scale(0.015625)"/>
      <path id="DejaVuSans-2d" d="M 313 2009 
L 1997 2009 
L 1997 1497 
L 313 1497 
L 313 2009 
z
" transform="scale(0.015625)"/>
      <path id="DejaVuSans-6e" d="M 3513 2113 
L 3513 0 
L 2938 0 
L 2938 2094 
Q 2938 2591 2744 2837 
Q 2550 3084 2163 3084 
Q 1697 3084 1428 2787 
Q 1159 2491 1159 1978 
L 1159 0 
L 581 0 
L 581 3500 
L 1159 3500 
L 1159 2956 
Q 1366 3272 1645 3428 
Q 1925 3584 2291 3584 
Q 2894 3584 3203 3211 
Q 3513 2838 3513 2113 
z
" transform="scale(0.015625)"/>
      <path id="DejaVuSans-44" d="M 1259 4147 
L 1259 519 
L 2022 519 
Q 2988 519 3436 956 
Q 3884 1394 3884 2338 
Q 3884 3275 3436 3711 
Q 2988 4147 2022 4147 
L 1259 4147 
z
M 628 4666 
L 1925 4666 
Q 3281 4666 3915 4102 
Q 4550 3538 4550 2338 
Q 4550 1131 3912 565 
Q 3275 0 1925 0 
L 628 0 
L 628 4666 
z
" transform="scale(0.015625)"/>
      <path id="DejaVuSans-61" d="M 2194 1759 
Q 1497 1759 1228 1600 
Q 959 1441 959 1056 
Q 959 750 1161 570 
Q 1363 391 1709 391 
Q 2188 391 2477 730 
Q 2766 1069 2766 1631 
L 2766 1759 
L 2194 1759 
z
M 3341 1997 
L 3341 0 
L 2766 0 
L 2766 531 
Q 2569 213 2275 61 
Q 1981 -91 1556 -91 
Q 1019 -91 701 211 
Q 384 513 384 1019 
Q 384 1609 779 1909 
Q 1175 2209 1959 2209 
L 2766 2209 
L 2766 2266 
Q 2766 2663 2505 2880 
Q 2244 3097 1772 3097 
Q 1472 3097 1187 3025 
Q 903 2953 641 2809 
L 641 3341 
Q 956 3463 1253 3523 
Q 1550 3584 1831 3584 
Q 2591 3584 2966 3190 
Q 3341 2797 3341 1997 
z
" transform="scale(0.015625)"/>
      <path id="DejaVuSans-50" d="M 1259 4147 
L 1259 2394 
L 2053 2394 
Q 2494 2394 2734 2622 
Q 2975 2850 2975 3272 
Q 2975 3691 2734 3919 
Q 2494 4147 2053 4147 
L 1259 4147 
z
M 628 4666 
L 2053 4666 
Q 2838 4666 3239 4311 
Q 3641 3956 3641 3272 
Q 3641 2581 3239 2228 
Q 2838 1875 2053 1875 
L 1259 1875 
L 1259 0 
L 628 0 
L 628 4666 
z
" transform="scale(0.015625)"/>
     </defs>
     <use xlink:href="#DejaVuSans-5a"/>
     <use xlink:href="#DejaVuSans-6f" x="68.505859"/>
     <use xlink:href="#DejaVuSans-6f" x="129.6875"/>
     <use xlink:href="#DejaVuSans-6d" x="190.869141"/>
     <use xlink:href="#DejaVuSans-2d" x="288.28125"/>
     <use xlink:href="#DejaVuSans-69" x="324.365234"/>
     <use xlink:href="#DejaVuSans-6e" x="352.148438"/>
     <use xlink:href="#DejaVuSans-20" x="415.527344"/>
     <use xlink:href="#DejaVuSans-54" x="447.314453"/>
     <use xlink:href="#DejaVuSans-69" x="505.273438"/>
     <use xlink:href="#DejaVuSans-6d" x="533.056641"/>
     <use xlink:href="#DejaVuSans-65" x="630.46875"/>
     <use xlink:href="#DejaVuSans-20" x="691.992188"/>
     <use xlink:href="#DejaVuSans-44" x="723.779297"/>
     <use xlink:href="#DejaVuSans-6f" x="800.78125"/>
     <use xlink:href="#DejaVuSans-6d" x="861.962891"/>
     <use xlink:href="#DejaVuSans-61" x="959.375"/>
     <use xlink:href="#DejaVuSans-69" x="1020.654297"/>
     <use xlink:href="#DejaVuSans-6e" x="1048.4375"/>
     <use xlink:href="#DejaVuSans-20" x="1111.816406"/>
     <use xlink:href="#DejaVuSans-50" x="1143.603516"/>
     <use xlink:href="#DejaVuSans-6c" x="1203.90625"/>
     <use xlink:href="#DejaVuSans-6f" x="1231.689453"/>
     <use xlink:href="#DejaVuSans-74" x="1292.871094"/>
    </g>
   </g>
   <g id="legend_1">
    <g id="patch_7">
     <path d="M 22.131022 158.292 
L 52.999147 158.292 
Q 53.599147 158.292 53.599147 157.692 
L 53.599147 144.781688 
Q 53.599147 144.181688 52.999147 144.181688 
L 22.131022 144.181688 
Q 21.531022 144.181688 21.531022 144.781688 
L 21.531022 157.692 
Q 21.531022 158.292 22.131022 158.292 
z
" style="fill: #ffffff; opacity: 0.8; stroke: #cccccc; stroke-linejoin: miter"/>
    </g>
    <g id="line2d_11">
     <path d="M 22.731022 146.611219 
L 25.731022 146.611219 
L 28.731022 146.611219 
" style="fill: none; stroke: #0000ff; stroke-linecap: square"/>
    </g>
    <g id="text_11">
     <!-- Clean -->
     <g transform="translate(31.131022 147.661219) scale(0.03 -0.03)">
      <defs>
       <path id="DejaVuSans-43" d="M 4122 4306 
L 4122 3641 
Q 3803 3938 3442 4084 
Q 3081 4231 2675 4231 
Q 1875 4231 1450 3742 
Q 1025 3253 1025 2328 
Q 1025 1406 1450 917 
Q 1875 428 2675 428 
Q 3081 428 3442 575 
Q 3803 722 4122 1019 
L 4122 359 
Q 3791 134 3420 21 
Q 3050 -91 2638 -91 
Q 1578 -91 968 557 
Q 359 1206 359 2328 
Q 359 3453 968 4101 
Q 1578 4750 2638 4750 
Q 3056 4750 3426 4639 
Q 3797 4528 4122 4306 
z
" transform="scale(0.015625)"/>
      </defs>
      <use xlink:href="#DejaVuSans-43"/>
      <use xlink:href="#DejaVuSans-6c" x="69.824219"/>
      <use xlink:href="#DejaVuSans-65" x="97.607422"/>
      <use xlink:href="#DejaVuSans-61" x="159.130859"/>
      <use xlink:href="#DejaVuSans-6e" x="220.410156"/>
     </g>
    </g>
    <g id="line2d_12">
     <path d="M 22.731022 151.014656 
L 25.731022 151.014656 
L 28.731022 151.014656 
" style="fill: none; stroke: #ff0000; stroke-width: 0.8; stroke-linecap: square"/>
    </g>
    <g id="text_12">
     <!-- SACed -->
     <g transform="translate(31.131022 152.064656) scale(0.03 -0.03)">
      <defs>
       <path id="DejaVuSans-53" d="M 3425 4513 
L 3425 3897 
Q 3066 4069 2747 4153 
Q 2428 4238 2131 4238 
Q 1616 4238 1336 4038 
Q 1056 3838 1056 3469 
Q 1056 3159 1242 3001 
Q 1428 2844 1947 2747 
L 2328 2669 
Q 3034 2534 3370 2195 
Q 3706 1856 3706 1288 
Q 3706 609 3251 259 
Q 2797 -91 1919 -91 
Q 1588 -91 1214 -16 
Q 841 59 441 206 
L 441 856 
Q 825 641 1194 531 
Q 1563 422 1919 422 
Q 2459 422 2753 634 
Q 3047 847 3047 1241 
Q 3047 1584 2836 1778 
Q 2625 1972 2144 2069 
L 1759 2144 
Q 1053 2284 737 2584 
Q 422 2884 422 3419 
Q 422 4038 858 4394 
Q 1294 4750 2059 4750 
Q 2388 4750 2728 4690 
Q 3069 4631 3425 4513 
z
" transform="scale(0.015625)"/>
      </defs>
      <use xlink:href="#DejaVuSans-53"/>
      <use xlink:href="#DejaVuSans-41" x="65.351562"/>
      <use xlink:href="#DejaVuSans-43" x="132.009766"/>
      <use xlink:href="#DejaVuSans-65" x="201.833984"/>
      <use xlink:href="#DejaVuSans-64" x="263.357422"/>
     </g>
    </g>
    <g id="line2d_13">
     <path d="M 22.731022 155.418094 
L 25.731022 155.418094 
L 28.731022 155.418094 
" style="fill: none; stroke: #808080; stroke-width: 0.5; stroke-linecap: square"/>
    </g>
    <g id="text_13">
     <!-- Contaminated -->
     <g transform="translate(31.131022 156.468094) scale(0.03 -0.03)">
      <use xlink:href="#DejaVuSans-43"/>
      <use xlink:href="#DejaVuSans-6f" x="69.824219"/>
      <use xlink:href="#DejaVuSans-6e" x="131.005859"/>
      <use xlink:href="#DejaVuSans-74" x="194.384766"/>
      <use xlink:href="#DejaVuSans-61" x="233.59375"/>
      <use xlink:href="#DejaVuSans-6d" x="294.873047"/>
      <use xlink:href="#DejaVuSans-69" x="392.285156"/>
      <use xlink:href="#DejaVuSans-6e" x="420.068359"/>
      <use xlink:href="#DejaVuSans-61" x="483.447266"/>
      <use xlink:href="#DejaVuSans-74" x="544.726562"/>
      <use xlink:href="#DejaVuSans-65" x="583.935547"/>
      <use xlink:href="#DejaVuSans-64" x="645.458984"/>
     </g>
    </g>
   </g>
  </g>
 </g>
 <defs>
  <clipPath id="p86207e3850">
   <rect x="59.52" y="26.88" width="131.629925" height="102.24"/>
  </clipPath>
 </defs>
</svg>
