<?xml version="1.0" encoding="utf-8" standalone="no"?>
<!DOCTYPE svg PUBLIC "-//W3C//DTD SVG 1.1//EN"
  "http://www.w3.org/Graphics/SVG/1.1/DTD/svg11.dtd">
<svg xmlns:xlink="http://www.w3.org/1999/xlink" width="216pt" height="180pt" viewBox="0 0 216 180" xmlns="http://www.w3.org/2000/svg" version="1.1">
 <metadata>
  <rdf:RDF xmlns:dc="http://purl.org/dc/elements/1.1/" xmlns:cc="http://creativecommons.org/ns#" xmlns:rdf="http://www.w3.org/1999/02/22-rdf-syntax-ns#">
   <cc:Work>
    <dc:type rdf:resource="http://purl.org/dc/dcmitype/StillImage"/>
    <dc:date>2024-09-24T16:32:13.521770</dc:date>
    <dc:format>image/svg+xml</dc:format>
    <dc:creator>
     <cc:Agent>
      <dc:title>Matplotlib v3.7.2, https://matplotlib.org/</dc:title>
     </cc:Agent>
    </dc:creator>
   </cc:Work>
  </rdf:RDF>
 </metadata>
 <defs>
  <style type="text/css">*{stroke-linejoin: round; stroke-linecap: butt}</style>
 </defs>
 <g id="figure_1">
  <g id="patch_1">
   <path d="M 0 180 
L 216 180 
L 216 0 
L 0 0 
z
" style="fill: #ffffff"/>
  </g>
  <g id="axes_1">
   <g id="patch_2">
    <path d="M 59.52 129.12 
L 195.615 129.12 
L 195.615 25.44 
L 59.52 25.44 
z
" style="fill: #ffffff"/>
   </g>
   <g id="matplotlib.axis_1">
    <g id="xtick_1">
     <g id="line2d_1">
      <defs>
       <path id="m941fc2278a" d="M 0 0 
L 0 3.5 
" style="stroke: #000000; stroke-width: 0.8"/>
      </defs>
      <g>
       <use xlink:href="#m941fc2278a" x="59.52" y="129.12" style="stroke: #000000; stroke-width: 0.8"/>
      </g>
     </g>
     <g id="text_1">
      <!-- 0 -->
      <g transform="translate(56.33875 143.718437) scale(0.1 -0.1)">
       <defs>
        <path id="DejaVuSans-30" d="M 2034 4250 
Q 1547 4250 1301 3770 
Q 1056 3291 1056 2328 
Q 1056 1369 1301 889 
Q 1547 409 2034 409 
Q 2525 409 2770 889 
Q 3016 1369 3016 2328 
Q 3016 3291 2770 3770 
Q 2525 4250 2034 4250 
z
M 2034 4750 
Q 2819 4750 3233 4129 
Q 3647 3509 3647 2328 
Q 3647 1150 3233 529 
Q 2819 -91 2034 -91 
Q 1250 -91 836 529 
Q 422 1150 422 2328 
Q 422 3509 836 4129 
Q 1250 4750 2034 4750 
z
" transform="scale(0.015625)"/>
       </defs>
       <use xlink:href="#DejaVuSans-30"/>
      </g>
     </g>
    </g>
    <g id="xtick_2">
     <g id="line2d_2">
      <g>
       <use xlink:href="#m941fc2278a" x="127.5675" y="129.12" style="stroke: #000000; stroke-width: 0.8"/>
      </g>
     </g>
     <g id="text_2">
      <!-- 150 -->
      <g transform="translate(118.02375 143.718437) scale(0.1 -0.1)">
       <defs>
        <path id="DejaVuSans-31" d="M 794 531 
L 1825 531 
L 1825 4091 
L 703 3866 
L 703 4441 
L 1819 4666 
L 2450 4666 
L 2450 531 
L 3481 531 
L 3481 0 
L 794 0 
L 794 531 
z
" transform="scale(0.015625)"/>
        <path id="DejaVuSans-35" d="M 691 4666 
L 3169 4666 
L 3169 4134 
L 1269 4134 
L 1269 2991 
Q 1406 3038 1543 3061 
Q 1681 3084 1819 3084 
Q 2600 3084 3056 2656 
Q 3513 2228 3513 1497 
Q 3513 744 3044 326 
Q 2575 -91 1722 -91 
Q 1428 -91 1123 -41 
Q 819 9 494 109 
L 494 744 
Q 775 591 1075 516 
Q 1375 441 1709 441 
Q 2250 441 2565 725 
Q 2881 1009 2881 1497 
Q 2881 1984 2565 2268 
Q 2250 2553 1709 2553 
Q 1456 2553 1204 2497 
Q 953 2441 691 2322 
L 691 4666 
z
" transform="scale(0.015625)"/>
       </defs>
       <use xlink:href="#DejaVuSans-31"/>
       <use xlink:href="#DejaVuSans-35" x="63.623047"/>
       <use xlink:href="#DejaVuSans-30" x="127.246094"/>
      </g>
     </g>
    </g>
    <g id="xtick_3">
     <g id="line2d_3">
      <g>
       <use xlink:href="#m941fc2278a" x="195.615" y="129.12" style="stroke: #000000; stroke-width: 0.8"/>
      </g>
     </g>
     <g id="text_3">
      <!-- 300 -->
      <g transform="translate(186.07125 143.718437) scale(0.1 -0.1)">
       <defs>
        <path id="DejaVuSans-33" d="M 2597 2516 
Q 3050 2419 3304 2112 
Q 3559 1806 3559 1356 
Q 3559 666 3084 287 
Q 2609 -91 1734 -91 
Q 1441 -91 1130 -33 
Q 819 25 488 141 
L 488 750 
Q 750 597 1062 519 
Q 1375 441 1716 441 
Q 2309 441 2620 675 
Q 2931 909 2931 1356 
Q 2931 1769 2642 2001 
Q 2353 2234 1838 2234 
L 1294 2234 
L 1294 2753 
L 1863 2753 
Q 2328 2753 2575 2939 
Q 2822 3125 2822 3475 
Q 2822 3834 2567 4026 
Q 2313 4219 1838 4219 
Q 1578 4219 1281 4162 
Q 984 4106 628 3988 
L 628 4550 
Q 988 4650 1302 4700 
Q 1616 4750 1894 4750 
Q 2613 4750 3031 4423 
Q 3450 4097 3450 3541 
Q 3450 3153 3228 2886 
Q 3006 2619 2597 2516 
z
" transform="scale(0.015625)"/>
       </defs>
       <use xlink:href="#DejaVuSans-33"/>
       <use xlink:href="#DejaVuSans-30" x="63.623047"/>
       <use xlink:href="#DejaVuSans-30" x="127.246094"/>
      </g>
     </g>
    </g>
    <g id="text_4">
     <!-- Frequency (Hz) -->
     <g transform="translate(89.862812 157.396563) scale(0.1 -0.1)">
      <defs>
       <path id="DejaVuSans-46" d="M 628 4666 
L 3309 4666 
L 3309 4134 
L 1259 4134 
L 1259 2759 
L 3109 2759 
L 3109 2228 
L 1259 2228 
L 1259 0 
L 628 0 
L 628 4666 
z
" transform="scale(0.015625)"/>
       <path id="DejaVuSans-72" d="M 2631 2963 
Q 2534 3019 2420 3045 
Q 2306 3072 2169 3072 
Q 1681 3072 1420 2755 
Q 1159 2438 1159 1844 
L 1159 0 
L 581 0 
L 581 3500 
L 1159 3500 
L 1159 2956 
Q 1341 3275 1631 3429 
Q 1922 3584 2338 3584 
Q 2397 3584 2469 3576 
Q 2541 3569 2628 3553 
L 2631 2963 
z
" transform="scale(0.015625)"/>
       <path id="DejaVuSans-65" d="M 3597 1894 
L 3597 1613 
L 953 1613 
Q 991 1019 1311 708 
Q 1631 397 2203 397 
Q 2534 397 2845 478 
Q 3156 559 3463 722 
L 3463 178 
Q 3153 47 2828 -22 
Q 2503 -91 2169 -91 
Q 1331 -91 842 396 
Q 353 884 353 1716 
Q 353 2575 817 3079 
Q 1281 3584 2069 3584 
Q 2775 3584 3186 3129 
Q 3597 2675 3597 1894 
z
M 3022 2063 
Q 3016 2534 2758 2815 
Q 2500 3097 2075 3097 
Q 1594 3097 1305 2825 
Q 1016 2553 972 2059 
L 3022 2063 
z
" transform="scale(0.015625)"/>
       <path id="DejaVuSans-71" d="M 947 1747 
Q 947 1113 1208 752 
Q 1469 391 1925 391 
Q 2381 391 2643 752 
Q 2906 1113 2906 1747 
Q 2906 2381 2643 2742 
Q 2381 3103 1925 3103 
Q 1469 3103 1208 2742 
Q 947 2381 947 1747 
z
M 2906 525 
Q 2725 213 2448 61 
Q 2172 -91 1784 -91 
Q 1150 -91 751 415 
Q 353 922 353 1747 
Q 353 2572 751 3078 
Q 1150 3584 1784 3584 
Q 2172 3584 2448 3432 
Q 2725 3281 2906 2969 
L 2906 3500 
L 3481 3500 
L 3481 -1331 
L 2906 -1331 
L 2906 525 
z
" transform="scale(0.015625)"/>
       <path id="DejaVuSans-75" d="M 544 1381 
L 544 3500 
L 1119 3500 
L 1119 1403 
Q 1119 906 1312 657 
Q 1506 409 1894 409 
Q 2359 409 2629 706 
Q 2900 1003 2900 1516 
L 2900 3500 
L 3475 3500 
L 3475 0 
L 2900 0 
L 2900 538 
Q 2691 219 2414 64 
Q 2138 -91 1772 -91 
Q 1169 -91 856 284 
Q 544 659 544 1381 
z
M 1991 3584 
L 1991 3584 
z
" transform="scale(0.015625)"/>
       <path id="DejaVuSans-6e" d="M 3513 2113 
L 3513 0 
L 2938 0 
L 2938 2094 
Q 2938 2591 2744 2837 
Q 2550 3084 2163 3084 
Q 1697 3084 1428 2787 
Q 1159 2491 1159 1978 
L 1159 0 
L 581 0 
L 581 3500 
L 1159 3500 
L 1159 2956 
Q 1366 3272 1645 3428 
Q 1925 3584 2291 3584 
Q 2894 3584 3203 3211 
Q 3513 2838 3513 2113 
z
" transform="scale(0.015625)"/>
       <path id="DejaVuSans-63" d="M 3122 3366 
L 3122 2828 
Q 2878 2963 2633 3030 
Q 2388 3097 2138 3097 
Q 1578 3097 1268 2742 
Q 959 2388 959 1747 
Q 959 1106 1268 751 
Q 1578 397 2138 397 
Q 2388 397 2633 464 
Q 2878 531 3122 666 
L 3122 134 
Q 2881 22 2623 -34 
Q 2366 -91 2075 -91 
Q 1284 -91 818 406 
Q 353 903 353 1747 
Q 353 2603 823 3093 
Q 1294 3584 2113 3584 
Q 2378 3584 2631 3529 
Q 2884 3475 3122 3366 
z
" transform="scale(0.015625)"/>
       <path id="DejaVuSans-79" d="M 2059 -325 
Q 1816 -950 1584 -1140 
Q 1353 -1331 966 -1331 
L 506 -1331 
L 506 -850 
L 844 -850 
Q 1081 -850 1212 -737 
Q 1344 -625 1503 -206 
L 1606 56 
L 191 3500 
L 800 3500 
L 1894 763 
L 2988 3500 
L 3597 3500 
L 2059 -325 
z
" transform="scale(0.015625)"/>
       <path id="DejaVuSans-20" transform="scale(0.015625)"/>
       <path id="DejaVuSans-28" d="M 1984 4856 
Q 1566 4138 1362 3434 
Q 1159 2731 1159 2009 
Q 1159 1288 1364 580 
Q 1569 -128 1984 -844 
L 1484 -844 
Q 1016 -109 783 600 
Q 550 1309 550 2009 
Q 550 2706 781 3412 
Q 1013 4119 1484 4856 
L 1984 4856 
z
" transform="scale(0.015625)"/>
       <path id="DejaVuSans-48" d="M 628 4666 
L 1259 4666 
L 1259 2753 
L 3553 2753 
L 3553 4666 
L 4184 4666 
L 4184 0 
L 3553 0 
L 3553 2222 
L 1259 2222 
L 1259 0 
L 628 0 
L 628 4666 
z
" transform="scale(0.015625)"/>
       <path id="DejaVuSans-7a" d="M 353 3500 
L 3084 3500 
L 3084 2975 
L 922 459 
L 3084 459 
L 3084 0 
L 275 0 
L 275 525 
L 2438 3041 
L 353 3041 
L 353 3500 
z
" transform="scale(0.015625)"/>
       <path id="DejaVuSans-29" d="M 513 4856 
L 1013 4856 
Q 1481 4119 1714 3412 
Q 1947 2706 1947 2009 
Q 1947 1309 1714 600 
Q 1481 -109 1013 -844 
L 513 -844 
Q 928 -128 1133 580 
Q 1338 1288 1338 2009 
Q 1338 2731 1133 3434 
Q 928 4138 513 4856 
z
" transform="scale(0.015625)"/>
      </defs>
      <use xlink:href="#DejaVuSans-46"/>
      <use xlink:href="#DejaVuSans-72" x="50.269531"/>
      <use xlink:href="#DejaVuSans-65" x="89.132812"/>
      <use xlink:href="#DejaVuSans-71" x="150.65625"/>
      <use xlink:href="#DejaVuSans-75" x="214.132812"/>
      <use xlink:href="#DejaVuSans-65" x="277.511719"/>
      <use xlink:href="#DejaVuSans-6e" x="339.035156"/>
      <use xlink:href="#DejaVuSans-63" x="402.414062"/>
      <use xlink:href="#DejaVuSans-79" x="457.394531"/>
      <use xlink:href="#DejaVuSans-20" x="516.574219"/>
      <use xlink:href="#DejaVuSans-28" x="548.361328"/>
      <use xlink:href="#DejaVuSans-48" x="587.375"/>
      <use xlink:href="#DejaVuSans-7a" x="662.570312"/>
      <use xlink:href="#DejaVuSans-29" x="715.060547"/>
     </g>
    </g>
   </g>
   <g id="matplotlib.axis_2">
    <g id="ytick_1">
     <g id="line2d_4">
      <defs>
       <path id="mcb9b775253" d="M 0 0 
L -3.5 0 
" style="stroke: #000000; stroke-width: 0.8"/>
      </defs>
      <g>
       <use xlink:href="#mcb9b775253" x="59.52" y="109.875843" style="stroke: #000000; stroke-width: 0.8"/>
      </g>
     </g>
     <g id="text_5">
      <!-- $\mathdefault{10^{-4}}$ -->
      <g transform="translate(29.02 113.675062) scale(0.1 -0.1)">
       <defs>
        <path id="DejaVuSans-2212" d="M 678 2272 
L 4684 2272 
L 4684 1741 
L 678 1741 
L 678 2272 
z
" transform="scale(0.015625)"/>
        <path id="DejaVuSans-34" d="M 2419 4116 
L 825 1625 
L 2419 1625 
L 2419 4116 
z
M 2253 4666 
L 3047 4666 
L 3047 1625 
L 3713 1625 
L 3713 1100 
L 3047 1100 
L 3047 0 
L 2419 0 
L 2419 1100 
L 313 1100 
L 313 1709 
L 2253 4666 
z
" transform="scale(0.015625)"/>
       </defs>
       <use xlink:href="#DejaVuSans-31" transform="translate(0 0.684375)"/>
       <use xlink:href="#DejaVuSans-30" transform="translate(63.623047 0.684375)"/>
       <use xlink:href="#DejaVuSans-2212" transform="translate(128.203125 38.965625) scale(0.7)"/>
       <use xlink:href="#DejaVuSans-34" transform="translate(186.855469 38.965625) scale(0.7)"/>
      </g>
     </g>
    </g>
    <g id="ytick_2">
     <g id="line2d_5">
      <g>
       <use xlink:href="#mcb9b775253" x="59.52" y="84.214722" style="stroke: #000000; stroke-width: 0.8"/>
      </g>
     </g>
     <g id="text_6">
      <!-- $\mathdefault{10^{-1}}$ -->
      <g transform="translate(29.02 88.013941) scale(0.1 -0.1)">
       <use xlink:href="#DejaVuSans-31" transform="translate(0 0.684375)"/>
       <use xlink:href="#DejaVuSans-30" transform="translate(63.623047 0.684375)"/>
       <use xlink:href="#DejaVuSans-2212" transform="translate(128.203125 38.965625) scale(0.7)"/>
       <use xlink:href="#DejaVuSans-31" transform="translate(186.855469 38.965625) scale(0.7)"/>
      </g>
     </g>
    </g>
    <g id="ytick_3">
     <g id="line2d_6">
      <g>
       <use xlink:href="#mcb9b775253" x="59.52" y="58.553601" style="stroke: #000000; stroke-width: 0.8"/>
      </g>
     </g>
     <g id="text_7">
      <!-- $\mathdefault{10^{2}}$ -->
      <g transform="translate(34.92 62.352819) scale(0.1 -0.1)">
       <defs>
        <path id="DejaVuSans-32" d="M 1228 531 
L 3431 531 
L 3431 0 
L 469 0 
L 469 531 
Q 828 903 1448 1529 
Q 2069 2156 2228 2338 
Q 2531 2678 2651 2914 
Q 2772 3150 2772 3378 
Q 2772 3750 2511 3984 
Q 2250 4219 1831 4219 
Q 1534 4219 1204 4116 
Q 875 4013 500 3803 
L 500 4441 
Q 881 4594 1212 4672 
Q 1544 4750 1819 4750 
Q 2544 4750 2975 4387 
Q 3406 4025 3406 3419 
Q 3406 3131 3298 2873 
Q 3191 2616 2906 2266 
Q 2828 2175 2409 1742 
Q 1991 1309 1228 531 
z
" transform="scale(0.015625)"/>
       </defs>
       <use xlink:href="#DejaVuSans-31" transform="translate(0 0.765625)"/>
       <use xlink:href="#DejaVuSans-30" transform="translate(63.623047 0.765625)"/>
       <use xlink:href="#DejaVuSans-32" transform="translate(128.203125 39.046875) scale(0.7)"/>
      </g>
     </g>
    </g>
    <g id="ytick_4">
     <g id="line2d_7">
      <g>
       <use xlink:href="#mcb9b775253" x="59.52" y="32.892479" style="stroke: #000000; stroke-width: 0.8"/>
      </g>
     </g>
     <g id="text_8">
      <!-- $\mathdefault{10^{5}}$ -->
      <g transform="translate(34.92 36.691698) scale(0.1 -0.1)">
       <use xlink:href="#DejaVuSans-31" transform="translate(0 0.684375)"/>
       <use xlink:href="#DejaVuSans-30" transform="translate(63.623047 0.684375)"/>
       <use xlink:href="#DejaVuSans-35" transform="translate(128.203125 38.965625) scale(0.7)"/>
      </g>
     </g>
    </g>
    <g id="text_9">
     <!-- Log power (dB/Hz) -->
     <g transform="translate(22.940312 123.419844) rotate(-90) scale(0.1 -0.1)">
      <defs>
       <path id="DejaVuSans-4c" d="M 628 4666 
L 1259 4666 
L 1259 531 
L 3531 531 
L 3531 0 
L 628 0 
L 628 4666 
z
" transform="scale(0.015625)"/>
       <path id="DejaVuSans-6f" d="M 1959 3097 
Q 1497 3097 1228 2736 
Q 959 2375 959 1747 
Q 959 1119 1226 758 
Q 1494 397 1959 397 
Q 2419 397 2687 759 
Q 2956 1122 2956 1747 
Q 2956 2369 2687 2733 
Q 2419 3097 1959 3097 
z
M 1959 3584 
Q 2709 3584 3137 3096 
Q 3566 2609 3566 1747 
Q 3566 888 3137 398 
Q 2709 -91 1959 -91 
Q 1206 -91 779 398 
Q 353 888 353 1747 
Q 353 2609 779 3096 
Q 1206 3584 1959 3584 
z
" transform="scale(0.015625)"/>
       <path id="DejaVuSans-67" d="M 2906 1791 
Q 2906 2416 2648 2759 
Q 2391 3103 1925 3103 
Q 1463 3103 1205 2759 
Q 947 2416 947 1791 
Q 947 1169 1205 825 
Q 1463 481 1925 481 
Q 2391 481 2648 825 
Q 2906 1169 2906 1791 
z
M 3481 434 
Q 3481 -459 3084 -895 
Q 2688 -1331 1869 -1331 
Q 1566 -1331 1297 -1286 
Q 1028 -1241 775 -1147 
L 775 -588 
Q 1028 -725 1275 -790 
Q 1522 -856 1778 -856 
Q 2344 -856 2625 -561 
Q 2906 -266 2906 331 
L 2906 616 
Q 2728 306 2450 153 
Q 2172 0 1784 0 
Q 1141 0 747 490 
Q 353 981 353 1791 
Q 353 2603 747 3093 
Q 1141 3584 1784 3584 
Q 2172 3584 2450 3431 
Q 2728 3278 2906 2969 
L 2906 3500 
L 3481 3500 
L 3481 434 
z
" transform="scale(0.015625)"/>
       <path id="DejaVuSans-70" d="M 1159 525 
L 1159 -1331 
L 581 -1331 
L 581 3500 
L 1159 3500 
L 1159 2969 
Q 1341 3281 1617 3432 
Q 1894 3584 2278 3584 
Q 2916 3584 3314 3078 
Q 3713 2572 3713 1747 
Q 3713 922 3314 415 
Q 2916 -91 2278 -91 
Q 1894 -91 1617 61 
Q 1341 213 1159 525 
z
M 3116 1747 
Q 3116 2381 2855 2742 
Q 2594 3103 2138 3103 
Q 1681 3103 1420 2742 
Q 1159 2381 1159 1747 
Q 1159 1113 1420 752 
Q 1681 391 2138 391 
Q 2594 391 2855 752 
Q 3116 1113 3116 1747 
z
" transform="scale(0.015625)"/>
       <path id="DejaVuSans-77" d="M 269 3500 
L 844 3500 
L 1563 769 
L 2278 3500 
L 2956 3500 
L 3675 769 
L 4391 3500 
L 4966 3500 
L 4050 0 
L 3372 0 
L 2619 2869 
L 1863 0 
L 1184 0 
L 269 3500 
z
" transform="scale(0.015625)"/>
       <path id="DejaVuSans-64" d="M 2906 2969 
L 2906 4863 
L 3481 4863 
L 3481 0 
L 2906 0 
L 2906 525 
Q 2725 213 2448 61 
Q 2172 -91 1784 -91 
Q 1150 -91 751 415 
Q 353 922 353 1747 
Q 353 2572 751 3078 
Q 1150 3584 1784 3584 
Q 2172 3584 2448 3432 
Q 2725 3281 2906 2969 
z
M 947 1747 
Q 947 1113 1208 752 
Q 1469 391 1925 391 
Q 2381 391 2643 752 
Q 2906 1113 2906 1747 
Q 2906 2381 2643 2742 
Q 2381 3103 1925 3103 
Q 1469 3103 1208 2742 
Q 947 2381 947 1747 
z
" transform="scale(0.015625)"/>
       <path id="DejaVuSans-42" d="M 1259 2228 
L 1259 519 
L 2272 519 
Q 2781 519 3026 730 
Q 3272 941 3272 1375 
Q 3272 1813 3026 2020 
Q 2781 2228 2272 2228 
L 1259 2228 
z
M 1259 4147 
L 1259 2741 
L 2194 2741 
Q 2656 2741 2882 2914 
Q 3109 3088 3109 3444 
Q 3109 3797 2882 3972 
Q 2656 4147 2194 4147 
L 1259 4147 
z
M 628 4666 
L 2241 4666 
Q 2963 4666 3353 4366 
Q 3744 4066 3744 3513 
Q 3744 3084 3544 2831 
Q 3344 2578 2956 2516 
Q 3422 2416 3680 2098 
Q 3938 1781 3938 1306 
Q 3938 681 3513 340 
Q 3088 0 2303 0 
L 628 0 
L 628 4666 
z
" transform="scale(0.015625)"/>
       <path id="DejaVuSans-2f" d="M 1625 4666 
L 2156 4666 
L 531 -594 
L 0 -594 
L 1625 4666 
z
" transform="scale(0.015625)"/>
      </defs>
      <use xlink:href="#DejaVuSans-4c"/>
      <use xlink:href="#DejaVuSans-6f" x="53.962891"/>
      <use xlink:href="#DejaVuSans-67" x="115.144531"/>
      <use xlink:href="#DejaVuSans-20" x="178.621094"/>
      <use xlink:href="#DejaVuSans-70" x="210.408203"/>
      <use xlink:href="#DejaVuSans-6f" x="273.884766"/>
      <use xlink:href="#DejaVuSans-77" x="335.066406"/>
      <use xlink:href="#DejaVuSans-65" x="416.853516"/>
      <use xlink:href="#DejaVuSans-72" x="478.376953"/>
      <use xlink:href="#DejaVuSans-20" x="519.490234"/>
      <use xlink:href="#DejaVuSans-28" x="551.277344"/>
      <use xlink:href="#DejaVuSans-64" x="590.291016"/>
      <use xlink:href="#DejaVuSans-42" x="653.767578"/>
      <use xlink:href="#DejaVuSans-2f" x="722.371094"/>
      <use xlink:href="#DejaVuSans-48" x="756.0625"/>
      <use xlink:href="#DejaVuSans-7a" x="831.257812"/>
      <use xlink:href="#DejaVuSans-29" x="883.748047"/>
     </g>
    </g>
   </g>
   <g id="line2d_8">
    <path d="M 59.746825 44.287224 
L 59.97365 45.689519 
L 60.200475 48.307302 
L 60.4273 54.385448 
L 60.654125 68.156355 
L 61.107775 53.245356 
L 61.3346 57.661986 
L 61.561425 57.629737 
L 61.78825 67.397837 
L 62.015075 56.428059 
L 62.2419 54.93829 
L 62.468725 56.746098 
L 62.922375 68.792082 
L 63.1492 65.882743 
L 63.376025 57.222394 
L 63.60285 59.389175 
L 63.829675 56.719522 
L 64.0565 65.28717 
L 64.283325 64.238754 
L 64.51015 61.626193 
L 64.736975 69.356214 
L 64.9638 60.913164 
L 65.41745 63.133848 
L 65.644275 65.388884 
L 65.8711 61.591114 
L 66.097925 72.477238 
L 66.32475 69.427297 
L 66.7784 60.134065 
L 67.005225 70.444226 
L 67.23205 65.597717 
L 67.458875 66.444017 
L 67.6857 70.512139 
L 67.912525 65.504527 
L 68.366175 73.834503 
L 68.593 70.946174 
L 68.819825 64.139457 
L 69.273475 61.378206 
L 69.5003 64.192512 
L 69.727125 68.942128 
L 70.180775 62.117664 
L 70.4076 69.083296 
L 70.634425 71.734838 
L 70.86125 72.878043 
L 71.088075 63.774095 
L 71.3149 64.295281 
L 71.76855 70.717524 
L 71.995375 65.789496 
L 72.2222 68.412211 
L 72.449025 72.568527 
L 72.67585 68.82788 
L 72.902675 67.991208 
L 73.1295 68.855693 
L 73.356325 62.422012 
L 73.58315 62.604615 
L 73.809975 60.610966 
L 74.0368 52.752134 
L 74.263625 53.26045 
L 74.49045 60.305703 
L 74.717275 61.754798 
L 74.9441 62.087181 
L 75.170925 67.784448 
L 75.39775 67.512487 
L 75.624575 76.846659 
L 75.8514 71.515564 
L 76.078225 69.6538 
L 76.30505 75.490632 
L 76.531875 74.346512 
L 76.985525 67.539993 
L 77.21235 68.009811 
L 77.439175 66.631621 
L 77.666 71.413481 
L 77.892825 72.522232 
L 78.11965 68.293291 
L 78.346475 69.153148 
L 78.5733 74.368865 
L 78.800125 75.06212 
L 79.02695 67.9837 
L 79.253775 68.328428 
L 79.4806 68.358454 
L 79.93425 73.672254 
L 80.614725 68.571967 
L 80.84155 68.842207 
L 81.068375 74.079527 
L 81.2952 69.927294 
L 81.522025 70.27489 
L 81.74885 71.86372 
L 81.975675 70.553931 
L 82.2025 77.690318 
L 82.429325 71.515428 
L 82.65615 68.425058 
L 82.882975 71.140396 
L 83.1098 72.11798 
L 83.336625 70.132672 
L 83.56345 74.863477 
L 83.790275 69.181859 
L 84.0171 69.647382 
L 84.243925 75.113823 
L 84.47075 75.946311 
L 84.697575 74.216712 
L 85.151225 68.185582 
L 85.37805 75.125272 
L 85.604875 95.546722 
L 86.058525 70.303538 
L 86.28535 67.353842 
L 86.739 81.445448 
L 86.965825 70.181016 
L 87.19265 67.479216 
L 87.419475 68.46608 
L 87.6463 78.719343 
L 87.873125 75.719967 
L 88.09995 75.994901 
L 88.326775 71.33751 
L 88.5536 71.356153 
L 88.780425 70.774493 
L 89.00725 77.037795 
L 89.234075 71.070449 
L 89.4609 69.140089 
L 89.91455 72.072865 
L 90.141375 78.694121 
L 90.595025 69.422858 
L 90.82185 68.97595 
L 91.2755 74.27745 
L 91.72915 68.526848 
L 91.955975 69.236629 
L 92.1828 73.057389 
L 92.409625 74.911589 
L 92.63645 70.324881 
L 93.0901 67.209652 
L 93.316925 67.458274 
L 93.54375 82.583643 
L 93.770575 69.913964 
L 93.9974 67.068738 
L 94.224225 67.60864 
L 94.45105 78.15999 
L 94.677875 82.59776 
L 94.9047 73.152543 
L 95.35835 67.30959 
L 95.585175 71.302962 
L 95.812 88.556345 
L 96.038825 73.248968 
L 96.26565 67.977903 
L 96.492475 67.706868 
L 96.7193 69.159622 
L 96.946125 78.300558 
L 97.17295 71.49782 
L 97.6266 65.560217 
L 98.08025 76.788313 
L 98.5339 67.780779 
L 98.760725 69.141892 
L 98.98755 71.501588 
L 99.214375 77.54417 
L 99.89485 66.172178 
L 100.3485 74.605021 
L 100.80215 65.699286 
L 101.2558 69.875956 
L 101.482625 80.346538 
L 101.70945 67.559981 
L 101.936275 65.311368 
L 102.1631 66.678646 
L 102.389925 68.903166 
L 102.61675 84.425729 
L 102.843575 69.717544 
L 103.0704 66.782513 
L 103.297225 66.455335 
L 103.52405 69.338241 
L 103.750875 82.488134 
L 103.9777 69.895646 
L 104.43135 64.922186 
L 104.658175 69.205661 
L 104.885 81.262612 
L 105.111825 68.131126 
L 105.33865 64.289364 
L 105.565475 65.10564 
L 105.7923 66.526406 
L 106.019125 79.605565 
L 106.24595 69.03185 
L 106.472775 63.696222 
L 106.6996 64.91505 
L 106.926425 67.445496 
L 107.15325 92.343061 
L 107.380075 67.024229 
L 107.6069 63.276704 
L 107.833725 63.377221 
L 108.06055 65.947808 
L 108.287375 80.345035 
L 108.5142 64.755833 
L 108.741025 62.868316 
L 108.96785 62.343544 
L 109.194675 64.830896 
L 109.4215 75.8811 
L 109.648325 64.887994 
L 109.87515 61.614894 
L 110.101975 61.870221 
L 110.3288 63.561532 
L 110.555625 77.725087 
L 110.78245 63.025321 
L 111.009275 59.863491 
L 111.2361 59.857797 
L 111.462925 63.181148 
L 111.68975 82.01663 
L 111.916575 62.676883 
L 112.1434 58.556164 
L 112.370225 58.685111 
L 112.59705 60.894137 
L 112.823875 80.434954 
L 113.0507 59.622377 
L 113.277525 55.854867 
L 113.50435 55.253351 
L 113.731175 58.076406 
L 113.958 77.689358 
L 114.184825 56.61122 
L 114.41165 52.620573 
L 114.638475 51.63643 
L 114.8653 53.530655 
L 115.092125 78.781402 
L 115.31895 50.70433 
L 115.7726 42.445173 
L 115.999425 40.524676 
L 116.22625 30.152727 
L 116.453075 40.574061 
L 116.6799 42.536778 
L 116.906725 45.543585 
L 117.13355 50.99828 
L 117.360375 79.680669 
L 117.5872 53.852717 
L 117.814025 51.770291 
L 118.04085 52.889389 
L 118.267675 56.638381 
L 118.4945 79.264195 
L 118.721325 58.606685 
L 118.94815 56.077786 
L 119.174975 56.754775 
L 119.4018 61.104676 
L 119.628625 87.41655 
L 119.85545 61.715161 
L 120.082275 59.319539 
L 120.3091 59.025068 
L 120.535925 63.18861 
L 120.76275 88.977332 
L 120.989575 63.418735 
L 121.2164 60.503675 
L 121.443225 61.391177 
L 121.67005 64.175758 
L 121.896875 79.878223 
L 122.1237 64.786015 
L 122.350525 62.570039 
L 122.57735 62.781659 
L 122.804175 64.946057 
L 123.031 81.916637 
L 123.257825 66.533863 
L 123.48465 64.570566 
L 123.711475 64.036842 
L 123.9383 67.988478 
L 124.165125 81.519873 
L 124.39195 68.002112 
L 124.618775 65.453497 
L 124.8456 64.753865 
L 125.072425 66.232057 
L 125.29925 84.547143 
L 125.526075 68.795626 
L 125.7529 66.038643 
L 125.979725 67.783612 
L 126.20655 71.238281 
L 126.433375 95.426623 
L 126.6602 71.19896 
L 126.887025 67.131173 
L 127.11385 66.77563 
L 127.340675 68.226607 
L 127.5675 86.973379 
L 127.794325 71.118125 
L 128.02115 69.836243 
L 128.247975 66.59039 
L 128.4748 69.21278 
L 128.701625 87.11874 
L 128.92845 71.327746 
L 129.155275 67.742655 
L 129.608925 72.958247 
L 129.83575 77.223401 
L 130.062575 70.870938 
L 130.516225 70.119204 
L 131.1967 78.454191 
L 131.423525 71.079642 
L 131.65035 70.780424 
L 131.877175 75.604828 
L 132.104 83.23468 
L 132.330825 73.795137 
L 132.784475 71.64551 
L 133.0113 73.930621 
L 133.238125 90.318726 
L 133.46495 75.193921 
L 133.691775 73.405542 
L 133.9186 73.2999 
L 134.145425 75.912194 
L 134.37225 84.251258 
L 134.599075 75.465901 
L 134.8259 73.422352 
L 135.052725 75.377868 
L 135.27955 74.696179 
L 135.506375 82.038663 
L 135.960025 73.021515 
L 136.18685 72.991688 
L 136.413675 78.2863 
L 136.6405 74.708136 
L 136.867325 74.612471 
L 137.09415 72.369959 
L 137.320975 71.823063 
L 137.5478 74.565865 
L 137.774625 80.024889 
L 138.00145 75.663483 
L 138.228275 76.166024 
L 138.4551 73.97574 
L 138.681925 82.505294 
L 138.90875 78.569719 
L 139.135575 77.010937 
L 139.3624 70.849727 
L 139.589225 73.189886 
L 139.81605 80.25906 
L 140.042875 82.137484 
L 140.72335 71.436298 
L 140.950175 77.074119 
L 141.177 87.773824 
L 141.403825 79.05361 
L 141.63065 77.599225 
L 141.857475 77.109734 
L 142.0843 73.574408 
L 142.311125 77.2458 
L 142.53795 76.145801 
L 142.764775 77.679017 
L 142.9916 77.451414 
L 143.218425 79.140299 
L 143.44525 83.410107 
L 143.672075 74.520664 
L 143.8989 79.357483 
L 144.125725 77.100366 
L 144.35255 84.234065 
L 144.579375 83.009803 
L 144.8062 77.574842 
L 145.033025 79.739183 
L 145.25985 79.433539 
L 145.486675 78.296071 
L 145.7135 78.93623 
L 145.940325 80.778052 
L 146.16715 75.241611 
L 146.393975 84.758267 
L 146.6208 79.456741 
L 146.847625 80.665677 
L 147.07445 89.019585 
L 147.301275 73.424802 
L 147.5281 84.136575 
L 147.754925 75.167857 
L 147.98175 97.659755 
L 148.208575 81.625564 
L 148.4354 79.052881 
L 148.662225 80.153933 
L 148.88905 77.71245 
L 149.115875 85.878884 
L 149.3427 80.93709 
L 149.569525 85.842146 
L 149.79635 76.875664 
L 150.023175 83.091299 
L 150.25 78.212249 
L 150.70365 76.724624 
L 150.930475 79.694466 
L 151.1573 76.02046 
L 151.384125 80.824534 
L 151.61095 81.098026 
L 151.837775 79.400036 
L 152.0646 83.874128 
L 152.291425 76.457247 
L 152.51825 75.761565 
L 152.745075 87.2693 
L 152.9719 81.382369 
L 153.198725 80.472083 
L 153.42555 83.793324 
L 153.652375 82.526472 
L 153.8792 77.943704 
L 154.106025 79.623923 
L 154.33285 76.330977 
L 154.559675 80.936029 
L 154.7865 81.942644 
L 155.013325 80.850507 
L 155.24015 82.861476 
L 155.466975 76.678148 
L 155.6938 84.393041 
L 155.920625 81.761889 
L 156.14745 88.139632 
L 156.374275 78.627646 
L 156.6011 80.103635 
L 156.827925 85.385131 
L 157.05475 80.923039 
L 157.5084 77.66686 
L 157.735225 82.247487 
L 157.96205 82.55131 
L 158.188875 83.26524 
L 158.642525 74.48344 
L 159.096175 88.02053 
L 159.323 90.437014 
L 159.549825 79.91307 
L 159.77665 83.045011 
L 160.003475 76.750297 
L 160.2303 79.727571 
L 160.457125 80.811496 
L 160.68395 78.700693 
L 160.910775 78.619411 
L 161.1376 76.081932 
L 161.59125 88.061716 
L 161.818075 89.910307 
L 162.0449 77.103937 
L 162.271725 75.415853 
L 162.725375 82.5616 
L 162.9522 77.309559 
L 163.179025 76.556958 
L 163.40585 77.089016 
L 163.632675 76.359173 
L 164.086325 82.937584 
L 164.539975 77.72332 
L 164.7668 92.905661 
L 164.993625 88.811018 
L 165.22045 80.061055 
L 165.6741 71.292964 
L 166.12775 79.110695 
L 166.354575 78.18023 
L 166.5814 74.046762 
L 167.03505 75.235952 
L 167.261875 80.759404 
L 167.4887 73.529648 
L 167.715525 70.166839 
L 167.94235 69.815989 
L 168.169175 69.997969 
L 168.396 82.566435 
L 168.622825 71.973802 
L 168.84965 68.311076 
L 169.076475 68.398632 
L 169.530125 75.484057 
L 170.2106 65.07669 
L 170.437425 67.025428 
L 170.66425 78.584887 
L 171.1179 61.316715 
L 171.344725 61.827083 
L 171.57155 63.0479 
L 171.798375 82.074299 
L 172.0252 60.398664 
L 172.47885 51.353558 
L 172.705675 49.450032 
L 172.9325 38.917504 
L 173.159325 49.347208 
L 173.38615 51.11036 
L 173.612975 54.274856 
L 173.8398 59.596837 
L 174.066625 90.195895 
L 174.29345 62.114412 
L 174.520275 59.883284 
L 174.7471 60.156248 
L 174.973925 65.516697 
L 175.20075 78.646735 
L 175.427575 66.5284 
L 175.6544 64.026472 
L 175.881225 64.068324 
L 176.10805 68.692443 
L 176.334875 86.273286 
L 176.5617 68.690014 
L 176.788525 66.632396 
L 177.01535 66.620213 
L 177.242175 69.944742 
L 177.469 83.332624 
L 177.695825 72.14014 
L 177.92265 68.34203 
L 178.149475 68.340919 
L 178.3763 73.065852 
L 178.603125 84.1668 
L 179.056775 66.946059 
L 179.2836 68.581609 
L 179.510425 71.075331 
L 179.73725 79.399064 
L 179.964075 76.564835 
L 180.1909 70.396226 
L 180.417725 70.078424 
L 180.64455 71.702649 
L 180.871375 87.131891 
L 181.0982 71.502969 
L 181.325025 69.383533 
L 181.55185 70.321225 
L 181.778675 72.196452 
L 182.0055 76.050807 
L 182.232325 73.481476 
L 182.45915 73.33545 
L 182.685975 72.909119 
L 182.9128 73.060688 
L 183.139625 86.827866 
L 183.36645 74.179579 
L 183.593275 75.789706 
L 183.8201 70.076216 
L 184.046925 83.399399 
L 184.27375 77.917777 
L 184.500575 77.29634 
L 184.7274 77.699069 
L 185.18105 69.860456 
L 185.407875 86.34007 
L 185.6347 73.773363 
L 185.861525 79.156708 
L 186.08835 72.187164 
L 186.315175 75.888704 
L 186.542 88.134539 
L 186.99565 73.052791 
L 187.222475 79.356339 
L 187.4493 78.494316 
L 187.676125 89.631741 
L 187.90295 86.940632 
L 188.129775 75.010157 
L 188.3566 77.939356 
L 188.583425 83.298937 
L 188.81025 84.265983 
L 189.2639 71.554386 
L 189.490725 74.669747 
L 189.71755 74.073315 
L 189.944375 100.320367 
L 190.1712 80.524653 
L 190.398025 74.151981 
L 190.62485 73.530391 
L 191.0785 83.532549 
L 191.53215 74.418001 
L 191.758975 78.490995 
L 191.9858 74.904039 
L 192.212625 81.234156 
L 192.43945 76.039009 
L 192.666275 76.769387 
L 192.8931 75.319634 
L 193.119925 82.600836 
L 193.34675 81.084787 
L 193.573575 80.583373 
L 193.8004 76.456601 
L 194.027225 76.703106 
L 194.25405 82.218141 
L 194.480875 78.259354 
L 194.7077 76.884871 
L 194.934525 77.622835 
L 195.16135 86.033571 
L 195.388175 80.989853 
L 195.388175 80.989853 
" clip-path="url(#pf6f3227f30)" style="fill: none; stroke: #808080; stroke-width: 0.5; stroke-linecap: square"/>
   </g>
   <g id="line2d_9">
    <path d="M 59.746825 62.488265 
L 59.97365 64.149506 
L 60.200475 70.152284 
L 60.4273 62.125573 
L 60.654125 67.766093 
L 60.88095 66.512316 
L 61.107775 63.752549 
L 61.3346 68.003891 
L 61.561425 66.231744 
L 61.78825 66.980212 
L 62.015075 61.173864 
L 62.2419 59.930653 
L 62.468725 65.6468 
L 62.69555 62.394983 
L 63.1492 73.068968 
L 63.376025 62.478899 
L 63.60285 63.952159 
L 63.829675 59.145389 
L 64.0565 64.736913 
L 64.283325 59.905736 
L 64.51015 69.056684 
L 64.9638 64.874967 
L 65.190625 61.737066 
L 65.644275 65.346984 
L 65.8711 69.983706 
L 66.097925 65.862082 
L 66.551575 70.401898 
L 66.7784 65.254413 
L 67.005225 67.358277 
L 67.23205 71.251238 
L 67.458875 67.464548 
L 67.6857 69.762516 
L 67.912525 65.775606 
L 68.13935 72.72293 
L 68.366175 70.715112 
L 68.819825 68.959755 
L 69.04665 68.617616 
L 69.273475 64.390552 
L 69.5003 69.009035 
L 69.727125 69.858216 
L 69.95395 66.774489 
L 70.180775 66.795421 
L 70.4076 72.05519 
L 70.634425 68.94162 
L 70.86125 71.634763 
L 71.088075 66.91332 
L 71.3149 69.815673 
L 71.541725 76.059577 
L 71.76855 76.915682 
L 71.995375 66.300823 
L 72.449025 70.514792 
L 72.67585 74.547599 
L 73.1295 69.316955 
L 73.356325 64.108824 
L 73.58315 66.996409 
L 73.809975 62.806769 
L 74.0368 53.400891 
L 74.263625 53.156766 
L 74.717275 66.00886 
L 74.9441 63.94095 
L 75.170925 73.107636 
L 75.39775 67.576664 
L 75.624575 73.527763 
L 75.8514 67.148081 
L 76.078225 75.07096 
L 76.30505 78.687607 
L 76.7587 72.587045 
L 76.985525 79.506305 
L 77.21235 77.646889 
L 77.439175 67.505997 
L 77.892825 78.745279 
L 78.11965 80.160026 
L 78.346475 88.237638 
L 78.5733 74.019648 
L 78.800125 78.157508 
L 79.02695 72.032403 
L 79.253775 82.408208 
L 79.93425 73.487288 
L 80.161075 82.593999 
L 80.3879 84.270106 
L 80.614725 83.654307 
L 80.84155 73.801891 
L 81.068375 83.464048 
L 81.2952 76.30612 
L 81.522025 78.823495 
L 81.74885 77.395035 
L 81.975675 72.823262 
L 82.2025 77.477189 
L 82.65615 78.491142 
L 82.882975 77.408079 
L 83.1098 84.537743 
L 83.336625 74.236172 
L 83.790275 87.535983 
L 84.243925 77.373692 
L 84.47075 77.332555 
L 84.697575 83.695724 
L 84.9244 80.236491 
L 85.151225 75.04884 
L 85.37805 81.829791 
L 85.604875 80.632113 
L 85.8317 77.896568 
L 86.058525 85.295892 
L 86.28535 80.296425 
L 86.512175 81.509919 
L 86.739 75.670795 
L 86.965825 79.339502 
L 87.19265 85.696372 
L 87.419475 76.647661 
L 87.6463 82.968331 
L 88.09995 76.367869 
L 88.326775 79.125246 
L 88.5536 78.072161 
L 88.780425 88.11908 
L 89.00725 104.27995 
L 89.234075 80.025115 
L 89.4609 82.968622 
L 89.91455 79.002848 
L 90.141375 78.353049 
L 90.3682 87.583214 
L 90.595025 79.900414 
L 90.82185 79.363863 
L 91.048675 79.40385 
L 91.502325 81.416801 
L 92.1828 87.53406 
L 92.409625 76.841501 
L 92.63645 81.64364 
L 92.863275 78.965581 
L 93.0901 82.87053 
L 93.316925 76.717138 
L 93.54375 88.348572 
L 93.770575 81.521198 
L 94.224225 90.847179 
L 94.45105 79.335514 
L 94.677875 78.734196 
L 94.9047 83.473805 
L 95.131525 79.320884 
L 95.35835 87.943256 
L 95.585175 84.783186 
L 95.812 86.472994 
L 96.038825 84.966969 
L 96.26565 85.892618 
L 96.492475 94.959664 
L 96.7193 81.19474 
L 96.946125 85.439325 
L 97.17295 80.434761 
L 97.399775 78.171646 
L 97.6266 82.632065 
L 97.853425 83.32532 
L 98.08025 79.618801 
L 98.307075 82.021292 
L 98.5339 90.749359 
L 98.98755 89.180626 
L 99.4412 79.88591 
L 99.668025 84.889692 
L 99.89485 79.863754 
L 100.3485 84.046776 
L 100.575325 85.666866 
L 100.80215 88.13795 
L 101.028975 88.270407 
L 101.2558 89.21944 
L 101.482625 86.650636 
L 101.70945 85.499132 
L 101.936275 85.888377 
L 102.1631 87.37697 
L 102.389925 85.349948 
L 102.61675 85.282222 
L 102.843575 107.088378 
L 103.0704 83.625653 
L 103.297225 88.148044 
L 103.52405 88.0678 
L 103.750875 88.763373 
L 104.204525 80.39684 
L 104.885 91.085125 
L 105.111825 85.881625 
L 105.33865 85.139465 
L 105.565475 89.516972 
L 105.7923 83.155608 
L 106.019125 87.150214 
L 106.24595 85.535659 
L 106.472775 86.977495 
L 106.6996 93.732815 
L 106.926425 90.036301 
L 107.380075 85.993862 
L 107.833725 95.304444 
L 108.06055 91.235982 
L 108.287375 93.813402 
L 108.5142 84.272087 
L 108.741025 85.165389 
L 108.96785 89.398037 
L 109.194675 89.303148 
L 109.4215 83.224329 
L 109.87515 93.596653 
L 110.101975 86.51796 
L 110.3288 87.07073 
L 110.555625 89.17756 
L 110.78245 81.296069 
L 111.009275 94.273937 
L 111.2361 86.411665 
L 111.462925 91.525032 
L 111.68975 88.467839 
L 111.916575 82.733934 
L 112.1434 87.271948 
L 112.370225 83.655931 
L 112.59705 90.581364 
L 112.823875 103.232959 
L 113.0507 93.570055 
L 113.277525 96.075012 
L 113.50435 93.359218 
L 113.731175 83.798523 
L 113.958 90.450821 
L 114.184825 86.098658 
L 114.41165 85.635564 
L 114.638475 86.457409 
L 115.092125 84.554699 
L 115.31895 84.671687 
L 115.545775 91.534692 
L 115.7726 88.070255 
L 115.999425 87.313389 
L 116.22625 87.522953 
L 116.453075 83.077922 
L 116.6799 94.664423 
L 116.906725 96.128486 
L 117.13355 92.36623 
L 117.360375 86.527071 
L 117.5872 107.50265 
L 117.814025 88.468119 
L 118.04085 90.066312 
L 118.267675 93.239008 
L 118.721325 84.803475 
L 118.94815 98.675931 
L 119.174975 95.097408 
L 119.4018 86.784944 
L 119.628625 97.820244 
L 119.85545 89.926706 
L 120.082275 94.085072 
L 120.3091 86.725541 
L 120.535925 92.673039 
L 120.76275 87.282879 
L 120.989575 84.817252 
L 121.2164 96.585436 
L 121.443225 87.087303 
L 121.896875 93.900706 
L 122.350525 90.730036 
L 122.57735 91.175572 
L 122.804175 97.347356 
L 123.031 95.465461 
L 123.48465 87.869977 
L 123.9383 92.257754 
L 124.165125 92.737268 
L 124.39195 91.084857 
L 124.618775 91.981747 
L 125.072425 84.703656 
L 125.29925 91.123513 
L 125.526075 92.866255 
L 125.7529 97.500653 
L 125.979725 93.077105 
L 126.20655 98.020682 
L 126.433375 90.946347 
L 126.6602 96.561453 
L 126.887025 95.420374 
L 127.11385 91.795176 
L 127.340675 93.523145 
L 127.5675 96.186431 
L 127.794325 96.22403 
L 128.247975 94.527634 
L 128.4748 88.087772 
L 128.701625 108.925806 
L 128.92845 94.880502 
L 129.155275 99.214266 
L 129.3821 94.646796 
L 129.608925 92.488784 
L 129.83575 95.426879 
L 130.062575 90.747002 
L 130.2894 89.539016 
L 130.516225 98.656801 
L 130.969875 89.966131 
L 131.1967 87.547632 
L 131.423525 89.764943 
L 131.65035 88.246425 
L 132.104 92.085141 
L 132.330825 89.301493 
L 132.55765 106.399499 
L 132.784475 99.458983 
L 133.0113 88.365454 
L 133.238125 97.803799 
L 133.46495 97.412723 
L 133.691775 105.370078 
L 133.9186 87.086813 
L 134.145425 93.446542 
L 134.37225 90.480751 
L 134.599075 93.583121 
L 134.8259 92.58072 
L 135.052725 98.570773 
L 135.27955 89.468384 
L 135.506375 96.077925 
L 135.960025 90.150125 
L 136.18685 105.107864 
L 136.413675 94.517177 
L 136.6405 93.920466 
L 136.867325 92.299793 
L 137.09415 99.936251 
L 137.320975 93.485721 
L 137.774625 92.597446 
L 138.00145 94.617068 
L 138.228275 88.837047 
L 138.4551 96.733822 
L 138.681925 92.745665 
L 138.90875 94.890861 
L 139.135575 92.064771 
L 139.3624 91.445101 
L 139.589225 92.705753 
L 139.81605 91.03919 
L 140.2697 97.507944 
L 140.496525 99.102945 
L 140.72335 88.93857 
L 141.177 100.55498 
L 141.403825 91.817655 
L 141.63065 90.874902 
L 141.857475 89.374173 
L 142.0843 98.78194 
L 142.53795 93.390796 
L 142.764775 97.381352 
L 143.218425 93.633213 
L 143.44525 106.089719 
L 143.672075 94.266272 
L 143.8989 91.94781 
L 144.125725 94.673075 
L 144.579375 89.80617 
L 144.8062 105.64674 
L 145.033025 93.188608 
L 145.25985 96.814275 
L 145.486675 103.470532 
L 145.7135 92.68802 
L 145.940325 94.338741 
L 146.16715 110.704072 
L 146.393975 93.307669 
L 146.847625 98.561779 
L 147.07445 103.683499 
L 147.301275 94.686163 
L 147.5281 94.673246 
L 147.754925 98.057508 
L 147.98175 93.548041 
L 148.208575 115.366319 
L 148.4354 95.421097 
L 148.662225 96.058326 
L 148.88905 102.629512 
L 149.115875 97.128354 
L 149.3427 95.759312 
L 149.569525 97.449047 
L 149.79635 94.009455 
L 150.023175 94.428456 
L 150.25 106.502284 
L 150.476825 101.655627 
L 150.70365 93.212107 
L 150.930475 97.43094 
L 151.1573 98.618806 
L 151.384125 98.902282 
L 151.61095 104.680484 
L 151.837775 104.191679 
L 152.291425 95.305758 
L 152.51825 96.934037 
L 152.9719 91.826453 
L 153.198725 101.819073 
L 153.42555 95.914312 
L 153.652375 96.356874 
L 153.8792 98.829289 
L 154.106025 91.960912 
L 154.33285 100.276719 
L 154.559675 96.243044 
L 154.7865 96.233667 
L 155.013325 92.305605 
L 155.24015 99.326446 
L 155.466975 96.130157 
L 155.6938 95.265067 
L 155.920625 105.225862 
L 156.14745 105.688567 
L 156.374275 96.327373 
L 156.6011 97.646658 
L 156.827925 99.726741 
L 157.05475 124.407273 
L 157.281575 103.710563 
L 157.5084 102.684831 
L 157.735225 108.783314 
L 157.96205 89.061278 
L 158.188875 98.124984 
L 158.4157 95.300915 
L 158.642525 89.076453 
L 159.096175 91.590556 
L 159.323 104.745624 
L 159.549825 95.162661 
L 159.77665 96.100815 
L 160.003475 92.776598 
L 160.2303 111.650931 
L 160.457125 93.56802 
L 160.68395 96.871842 
L 160.910775 97.937099 
L 161.1376 98.254532 
L 161.364425 92.904636 
L 161.59125 100.274597 
L 161.818075 99.392122 
L 162.0449 97.417722 
L 162.271725 106.613119 
L 162.49855 103.969723 
L 162.725375 103.218327 
L 163.179025 92.21139 
L 163.632675 97.531258 
L 163.8595 93.547805 
L 164.086325 95.044979 
L 164.31315 97.308428 
L 164.539975 102.603931 
L 164.7668 93.95554 
L 164.993625 97.584638 
L 165.22045 104.336639 
L 165.447275 99.666187 
L 165.6741 98.84752 
L 165.900925 97.339842 
L 166.12775 102.60215 
L 166.354575 100.698962 
L 166.5814 105.087991 
L 166.808225 96.941619 
L 167.03505 95.30169 
L 167.261875 97.024404 
L 167.4887 97.178032 
L 167.715525 97.76803 
L 167.94235 96.967049 
L 168.169175 97.627103 
L 168.396 93.763972 
L 168.84965 101.272637 
L 169.076475 99.013396 
L 169.3033 103.621048 
L 169.530125 98.816434 
L 169.75695 103.257821 
L 169.983775 96.460858 
L 170.437425 110.088592 
L 170.891075 99.045592 
L 171.1179 103.657964 
L 171.344725 99.041906 
L 171.57155 98.707512 
L 171.798375 95.55549 
L 172.0252 106.432694 
L 172.252025 99.723703 
L 172.47885 99.466999 
L 172.705675 103.256973 
L 172.9325 97.621414 
L 173.159325 98.207094 
L 173.38615 95.514887 
L 173.612975 100.666388 
L 173.8398 95.271883 
L 174.066625 101.950433 
L 174.29345 97.836255 
L 174.520275 95.789471 
L 174.7471 106.15225 
L 175.427575 91.800455 
L 175.6544 102.258872 
L 175.881225 103.039757 
L 176.10805 98.456163 
L 176.334875 98.168983 
L 176.5617 101.513469 
L 176.788525 95.289783 
L 177.01535 96.310698 
L 177.242175 100.079304 
L 177.469 94.99139 
L 177.695825 100.438689 
L 177.92265 101.012105 
L 178.149475 100.373133 
L 178.3763 109.83345 
L 178.603125 102.124231 
L 178.82995 108.985557 
L 179.056775 96.210059 
L 179.2836 94.515146 
L 179.510425 95.452016 
L 179.73725 103.623816 
L 179.964075 99.294171 
L 180.1909 101.089422 
L 180.417725 97.848683 
L 180.64455 105.634695 
L 180.871375 98.182646 
L 181.0982 97.838105 
L 181.325025 108.142115 
L 181.55185 100.499682 
L 181.778675 100.584729 
L 182.0055 98.47265 
L 182.232325 105.419061 
L 182.45915 95.292069 
L 182.685975 102.67957 
L 182.9128 95.130129 
L 183.139625 96.079299 
L 183.36645 103.605721 
L 183.8201 101.113451 
L 184.046925 94.872104 
L 184.500575 103.660558 
L 184.7274 102.655214 
L 184.954225 98.678695 
L 185.18105 98.613362 
L 185.407875 115.659785 
L 185.6347 112.204681 
L 185.861525 100.692589 
L 186.315175 98.887563 
L 186.542 112.754449 
L 186.99565 96.833086 
L 187.222475 110.031561 
L 187.676125 99.577426 
L 187.90295 96.828914 
L 188.3566 104.303331 
L 188.583425 96.89683 
L 189.037075 109.946727 
L 189.2639 100.156859 
L 189.490725 104.526204 
L 189.71755 95.508615 
L 189.944375 101.855142 
L 190.1712 101.745187 
L 190.398025 105.193368 
L 190.62485 94.265628 
L 190.851675 101.074338 
L 191.0785 116.652112 
L 191.305325 99.274716 
L 191.53215 108.528911 
L 191.758975 102.510053 
L 191.9858 101.512694 
L 192.212625 99.523964 
L 192.43945 99.273769 
L 192.666275 110.378603 
L 192.8931 103.20228 
L 193.119925 100.163306 
L 193.34675 100.892209 
L 193.573575 100.485191 
L 193.8004 96.92126 
L 194.027225 98.924063 
L 194.25405 104.93367 
L 194.480875 107.580085 
L 194.7077 103.542591 
L 194.934525 107.274687 
L 195.16135 99.599675 
L 195.388175 103.391686 
L 195.388175 103.391686 
" clip-path="url(#pf6f3227f30)" style="fill: none; stroke: #0000ff; stroke-width: 0.5; stroke-linecap: square"/>
   </g>
   <g id="patch_3">
    <path d="M 59.52 129.12 
L 59.52 25.44 
" style="fill: none; stroke: #000000; stroke-width: 0.8; stroke-linejoin: miter; stroke-linecap: square"/>
   </g>
   <g id="patch_4">
    <path d="M 195.615 129.12 
L 195.615 25.44 
" style="fill: none; stroke: #000000; stroke-width: 0.8; stroke-linejoin: miter; stroke-linecap: square"/>
   </g>
   <g id="patch_5">
    <path d="M 59.52 129.12 
L 195.615 129.12 
" style="fill: none; stroke: #000000; stroke-width: 0.8; stroke-linejoin: miter; stroke-linecap: square"/>
   </g>
   <g id="patch_6">
    <path d="M 59.52 25.44 
L 195.615 25.44 
" style="fill: none; stroke: #000000; stroke-width: 0.8; stroke-linejoin: miter; stroke-linecap: square"/>
   </g>
   <g id="text_10">
    <!-- Frequency Domain Plot -->
    <g transform="translate(58.168125 19.44) scale(0.12 -0.12)">
     <defs>
      <path id="DejaVuSans-44" d="M 1259 4147 
L 1259 519 
L 2022 519 
Q 2988 519 3436 956 
Q 3884 1394 3884 2338 
Q 3884 3275 3436 3711 
Q 2988 4147 2022 4147 
L 1259 4147 
z
M 628 4666 
L 1925 4666 
Q 3281 4666 3915 4102 
Q 4550 3538 4550 2338 
Q 4550 1131 3912 565 
Q 3275 0 1925 0 
L 628 0 
L 628 4666 
z
" transform="scale(0.015625)"/>
      <path id="DejaVuSans-6d" d="M 3328 2828 
Q 3544 3216 3844 3400 
Q 4144 3584 4550 3584 
Q 5097 3584 5394 3201 
Q 5691 2819 5691 2113 
L 5691 0 
L 5113 0 
L 5113 2094 
Q 5113 2597 4934 2840 
Q 4756 3084 4391 3084 
Q 3944 3084 3684 2787 
Q 3425 2491 3425 1978 
L 3425 0 
L 2847 0 
L 2847 2094 
Q 2847 2600 2669 2842 
Q 2491 3084 2119 3084 
Q 1678 3084 1418 2786 
Q 1159 2488 1159 1978 
L 1159 0 
L 581 0 
L 581 3500 
L 1159 3500 
L 1159 2956 
Q 1356 3278 1631 3431 
Q 1906 3584 2284 3584 
Q 2666 3584 2933 3390 
Q 3200 3197 3328 2828 
z
" transform="scale(0.015625)"/>
      <path id="DejaVuSans-61" d="M 2194 1759 
Q 1497 1759 1228 1600 
Q 959 1441 959 1056 
Q 959 750 1161 570 
Q 1363 391 1709 391 
Q 2188 391 2477 730 
Q 2766 1069 2766 1631 
L 2766 1759 
L 2194 1759 
z
M 3341 1997 
L 3341 0 
L 2766 0 
L 2766 531 
Q 2569 213 2275 61 
Q 1981 -91 1556 -91 
Q 1019 -91 701 211 
Q 384 513 384 1019 
Q 384 1609 779 1909 
Q 1175 2209 1959 2209 
L 2766 2209 
L 2766 2266 
Q 2766 2663 2505 2880 
Q 2244 3097 1772 3097 
Q 1472 3097 1187 3025 
Q 903 2953 641 2809 
L 641 3341 
Q 956 3463 1253 3523 
Q 1550 3584 1831 3584 
Q 2591 3584 2966 3190 
Q 3341 2797 3341 1997 
z
" transform="scale(0.015625)"/>
      <path id="DejaVuSans-69" d="M 603 3500 
L 1178 3500 
L 1178 0 
L 603 0 
L 603 3500 
z
M 603 4863 
L 1178 4863 
L 1178 4134 
L 603 4134 
L 603 4863 
z
" transform="scale(0.015625)"/>
      <path id="DejaVuSans-50" d="M 1259 4147 
L 1259 2394 
L 2053 2394 
Q 2494 2394 2734 2622 
Q 2975 2850 2975 3272 
Q 2975 3691 2734 3919 
Q 2494 4147 2053 4147 
L 1259 4147 
z
M 628 4666 
L 2053 4666 
Q 2838 4666 3239 4311 
Q 3641 3956 3641 3272 
Q 3641 2581 3239 2228 
Q 2838 1875 2053 1875 
L 1259 1875 
L 1259 0 
L 628 0 
L 628 4666 
z
" transform="scale(0.015625)"/>
      <path id="DejaVuSans-6c" d="M 603 4863 
L 1178 4863 
L 1178 0 
L 603 0 
L 603 4863 
z
" transform="scale(0.015625)"/>
      <path id="DejaVuSans-74" d="M 1172 4494 
L 1172 3500 
L 2356 3500 
L 2356 3053 
L 1172 3053 
L 1172 1153 
Q 1172 725 1289 603 
Q 1406 481 1766 481 
L 2356 481 
L 2356 0 
L 1766 0 
Q 1100 0 847 248 
Q 594 497 594 1153 
L 594 3053 
L 172 3053 
L 172 3500 
L 594 3500 
L 594 4494 
L 1172 4494 
z
" transform="scale(0.015625)"/>
     </defs>
     <use xlink:href="#DejaVuSans-46"/>
     <use xlink:href="#DejaVuSans-72" x="50.269531"/>
     <use xlink:href="#DejaVuSans-65" x="89.132812"/>
     <use xlink:href="#DejaVuSans-71" x="150.65625"/>
     <use xlink:href="#DejaVuSans-75" x="214.132812"/>
     <use xlink:href="#DejaVuSans-65" x="277.511719"/>
     <use xlink:href="#DejaVuSans-6e" x="339.035156"/>
     <use xlink:href="#DejaVuSans-63" x="402.414062"/>
     <use xlink:href="#DejaVuSans-79" x="457.394531"/>
     <use xlink:href="#DejaVuSans-20" x="516.574219"/>
     <use xlink:href="#DejaVuSans-44" x="548.361328"/>
     <use xlink:href="#DejaVuSans-6f" x="625.363281"/>
     <use xlink:href="#DejaVuSans-6d" x="686.544922"/>
     <use xlink:href="#DejaVuSans-61" x="783.957031"/>
     <use xlink:href="#DejaVuSans-69" x="845.236328"/>
     <use xlink:href="#DejaVuSans-6e" x="873.019531"/>
     <use xlink:href="#DejaVuSans-20" x="936.398438"/>
     <use xlink:href="#DejaVuSans-50" x="968.185547"/>
     <use xlink:href="#DejaVuSans-6c" x="1028.488281"/>
     <use xlink:href="#DejaVuSans-6f" x="1056.271484"/>
     <use xlink:href="#DejaVuSans-74" x="1117.453125"/>
    </g>
   </g>
   <g id="legend_1">
    <g id="patch_7">
     <path d="M 20.7915 158.724 
L 51.659625 158.724 
Q 52.259625 158.724 52.259625 158.124 
L 52.259625 149.617125 
Q 52.259625 149.017125 51.659625 149.017125 
L 20.7915 149.017125 
Q 20.1915 149.017125 20.1915 149.617125 
L 20.1915 158.124 
Q 20.1915 158.724 20.7915 158.724 
z
" style="fill: #ffffff; opacity: 0.8; stroke: #cccccc; stroke-linejoin: miter"/>
    </g>
    <g id="line2d_10">
     <path d="M 21.3915 151.446656 
L 24.3915 151.446656 
L 27.3915 151.446656 
" style="fill: none; stroke: #808080; stroke-width: 0.5; stroke-linecap: square"/>
    </g>
    <g id="text_11">
     <!-- Contaminated -->
     <g transform="translate(29.7915 152.496656) scale(0.03 -0.03)">
      <defs>
       <path id="DejaVuSans-43" d="M 4122 4306 
L 4122 3641 
Q 3803 3938 3442 4084 
Q 3081 4231 2675 4231 
Q 1875 4231 1450 3742 
Q 1025 3253 1025 2328 
Q 1025 1406 1450 917 
Q 1875 428 2675 428 
Q 3081 428 3442 575 
Q 3803 722 4122 1019 
L 4122 359 
Q 3791 134 3420 21 
Q 3050 -91 2638 -91 
Q 1578 -91 968 557 
Q 359 1206 359 2328 
Q 359 3453 968 4101 
Q 1578 4750 2638 4750 
Q 3056 4750 3426 4639 
Q 3797 4528 4122 4306 
z
" transform="scale(0.015625)"/>
      </defs>
      <use xlink:href="#DejaVuSans-43"/>
      <use xlink:href="#DejaVuSans-6f" x="69.824219"/>
      <use xlink:href="#DejaVuSans-6e" x="131.005859"/>
      <use xlink:href="#DejaVuSans-74" x="194.384766"/>
      <use xlink:href="#DejaVuSans-61" x="233.59375"/>
      <use xlink:href="#DejaVuSans-6d" x="294.873047"/>
      <use xlink:href="#DejaVuSans-69" x="392.285156"/>
      <use xlink:href="#DejaVuSans-6e" x="420.068359"/>
      <use xlink:href="#DejaVuSans-61" x="483.447266"/>
      <use xlink:href="#DejaVuSans-74" x="544.726562"/>
      <use xlink:href="#DejaVuSans-65" x="583.935547"/>
      <use xlink:href="#DejaVuSans-64" x="645.458984"/>
     </g>
    </g>
    <g id="line2d_11">
     <path d="M 21.3915 155.850094 
L 24.3915 155.850094 
L 27.3915 155.850094 
" style="fill: none; stroke: #0000ff; stroke-width: 0.5; stroke-linecap: square"/>
    </g>
    <g id="text_12">
     <!-- Clean -->
     <g transform="translate(29.7915 156.900094) scale(0.03 -0.03)">
      <use xlink:href="#DejaVuSans-43"/>
      <use xlink:href="#DejaVuSans-6c" x="69.824219"/>
      <use xlink:href="#DejaVuSans-65" x="97.607422"/>
      <use xlink:href="#DejaVuSans-61" x="159.130859"/>
      <use xlink:href="#DejaVuSans-6e" x="220.410156"/>
     </g>
    </g>
   </g>
  </g>
 </g>
 <defs>
  <clipPath id="pf6f3227f30">
   <rect x="59.52" y="25.44" width="136.095" height="103.68"/>
  </clipPath>
 </defs>
</svg>
