<?xml version="1.0" encoding="utf-8" standalone="no"?>
<!DOCTYPE svg PUBLIC "-//W3C//DTD SVG 1.1//EN"
  "http://www.w3.org/Graphics/SVG/1.1/DTD/svg11.dtd">
<svg xmlns:xlink="http://www.w3.org/1999/xlink" width="216pt" height="180pt" viewBox="0 0 216 180" xmlns="http://www.w3.org/2000/svg" version="1.1">
 <metadata>
  <rdf:RDF xmlns:dc="http://purl.org/dc/elements/1.1/" xmlns:cc="http://creativecommons.org/ns#" xmlns:rdf="http://www.w3.org/1999/02/22-rdf-syntax-ns#">
   <cc:Work>
    <dc:type rdf:resource="http://purl.org/dc/dcmitype/StillImage"/>
    <dc:date>2024-09-24T16:32:13.130165</dc:date>
    <dc:format>image/svg+xml</dc:format>
    <dc:creator>
     <cc:Agent>
      <dc:title>Matplotlib v3.7.2, https://matplotlib.org/</dc:title>
     </cc:Agent>
    </dc:creator>
   </cc:Work>
  </rdf:RDF>
 </metadata>
 <defs>
  <style type="text/css">*{stroke-linejoin: round; stroke-linecap: butt}</style>
 </defs>
 <g id="figure_1">
  <g id="patch_1">
   <path d="M 0 180 
L 216 180 
L 216 0 
L 0 0 
z
" style="fill: #ffffff"/>
  </g>
  <g id="axes_1">
   <g id="patch_2">
    <path d="M 53.03 138.04 
L 197.235 138.04 
L 197.235 25.44 
L 53.03 25.44 
z
" style="fill: #ffffff"/>
   </g>
   <g id="line2d_1">
    <path d="M 53.03 66.055824 
L 53.138181 68.917655 
L 53.174241 67.390389 
L 53.246362 64.858322 
L 53.318482 65.041647 
L 53.390603 64.867355 
L 53.534844 66.051294 
L 53.643025 63.056972 
L 53.679085 63.693302 
L 53.787266 68.49949 
L 53.823326 64.13744 
L 53.895446 65.954153 
L 53.967567 66.294096 
L 54.003627 64.757022 
L 54.039687 66.347457 
L 54.075748 68.722289 
L 54.147868 67.989174 
L 54.219989 64.786386 
L 54.256049 68.095736 
L 54.292109 68.964385 
L 54.32817 66.933645 
L 54.36423 69.361065 
L 54.40029 67.535855 
L 54.544531 69.287303 
L 54.580591 67.278451 
L 54.652712 68.604245 
L 54.688772 68.92126 
L 54.796953 67.799032 
L 54.833013 68.459475 
L 54.869074 71.620356 
L 54.941194 68.641319 
L 55.013315 67.057377 
L 55.121495 69.637363 
L 55.085435 66.705683 
L 55.157556 68.765243 
L 55.193616 68.491807 
L 55.337857 65.208312 
L 55.373917 67.350833 
L 55.409977 63.755252 
L 55.446038 65.211544 
L 55.482098 64.466004 
L 55.518158 66.374413 
L 55.554219 64.334228 
L 55.590279 64.342354 
L 55.626339 64.747953 
L 55.662399 64.194271 
L 55.69846 64.522395 
L 55.878761 62.300737 
L 55.914821 62.603425 
L 55.950881 61.450234 
L 56.023002 61.453268 
L 56.095123 60.662093 
L 56.131183 62.708433 
L 56.167243 61.226098 
L 56.203303 63.714483 
L 56.239364 65.008055 
L 56.275424 62.132919 
L 56.311484 63.959223 
L 56.455725 66.440809 
L 56.527846 64.261606 
L 56.599966 64.286893 
L 56.744207 66.125736 
L 56.780268 66.093637 
L 56.816328 67.658202 
L 56.852388 66.003495 
L 56.888448 65.476301 
L 56.924509 68.582932 
L 56.996629 65.458429 
L 57.032689 65.621734 
L 57.10481 65.08054 
L 57.17693 68.005154 
L 57.249051 65.721593 
L 57.285111 66.988446 
L 57.429352 64.449838 
L 57.501473 67.843763 
L 57.537533 66.003928 
L 57.609654 66.788015 
L 57.681774 63.584117 
L 57.789955 67.174526 
L 57.826015 66.118422 
L 57.970256 63.055432 
L 58.150558 66.415376 
L 58.186618 66.313516 
L 58.294799 63.940697 
L 58.330859 67.038512 
L 58.402979 65.248892 
L 58.4751 66.422679 
L 58.51116 68.572414 
L 58.547221 66.283332 
L 58.583281 64.830368 
L 58.619341 67.297615 
L 58.655401 66.712984 
L 58.691462 68.257458 
L 58.727522 66.41568 
L 58.763582 67.064005 
L 59.016004 69.629397 
L 59.052064 72.532244 
L 59.088125 68.070589 
L 59.124185 70.373558 
L 59.160245 69.393209 
L 59.196305 72.164877 
L 59.232366 69.182893 
L 59.268426 70.559804 
L 59.304486 70.512129 
L 59.340546 70.616581 
L 59.376607 71.6893 
L 59.412667 69.693018 
L 59.448727 69.07771 
L 59.484787 71.371869 
L 59.556908 70.431934 
L 59.592968 69.326513 
L 59.629029 72.033737 
L 59.701149 69.326461 
L 59.737209 71.040619 
L 59.77327 70.811304 
L 59.80933 68.839974 
L 59.84539 69.854481 
L 59.88145 71.09647 
L 59.917511 69.679337 
L 59.953571 68.37077 
L 60.025691 69.122605 
L 60.097812 70.138278 
L 60.133872 69.139345 
L 60.278113 66.076017 
L 60.314174 67.434788 
L 60.386294 66.785344 
L 60.494475 65.353632 
L 60.458415 67.45482 
L 60.530535 66.006168 
L 60.602656 70.018384 
L 60.638716 67.952421 
L 60.674776 67.010834 
L 60.710836 67.794299 
L 60.746897 68.825837 
L 60.782957 67.330773 
L 60.819017 68.733514 
L 60.855078 66.573661 
L 60.927198 67.000868 
L 60.999319 69.861168 
L 61.071439 68.920507 
L 61.107499 67.577903 
L 61.14356 70.185165 
L 61.17962 67.600663 
L 61.25174 69.616246 
L 61.323861 69.352724 
L 61.359921 68.20161 
L 61.432042 69.209581 
L 61.468102 69.927468 
L 61.504162 67.81073 
L 61.576283 68.933139 
L 61.648403 68.378795 
L 61.720524 69.955499 
L 62.117187 63.233389 
L 62.225368 65.493152 
L 62.261428 64.91013 
L 62.333548 62.895382 
L 62.441729 63.993692 
L 62.477789 64.537752 
L 62.51385 61.655152 
L 62.58597 64.354603 
L 62.658091 61.613684 
L 62.730211 62.176681 
L 62.802332 61.250656 
L 62.838392 64.385434 
L 62.874452 63.278104 
L 62.910513 64.171685 
L 62.946573 64.94132 
L 62.982633 63.424627 
L 63.018693 63.021111 
L 63.090814 65.409156 
L 63.126874 64.548736 
L 63.162934 64.033992 
L 63.198995 64.814267 
L 63.343236 65.930906 
L 63.379296 65.081976 
L 63.415356 66.651812 
L 63.487477 67.148945 
L 63.595658 64.323538 
L 63.631718 66.162859 
L 63.703838 66.003153 
L 63.88414 62.485757 
L 63.9202 63.197425 
L 63.95626 64.074775 
L 63.992321 61.936912 
L 64.064441 63.578574 
L 64.136562 62.348345 
L 64.208682 65.39287 
L 64.244742 62.700958 
L 64.280803 64.640153 
L 64.316863 62.903292 
L 64.352923 61.96768 
L 64.425044 62.200575 
L 64.497164 62.743736 
L 64.533225 62.507895 
L 64.605345 62.567559 
L 64.641405 61.338396 
L 64.677466 62.852827 
L 64.713526 61.760197 
L 64.749586 61.138029 
L 64.893827 63.439848 
L 65.074129 65.044269 
L 65.146249 65.56724 
L 65.21837 64.121808 
L 65.25443 67.607286 
L 65.32655 66.91121 
L 65.362611 66.765677 
L 65.398671 65.953657 
L 65.434731 66.023293 
L 65.506852 69.530948 
L 65.615033 68.474672 
L 65.687153 66.094403 
L 65.831394 69.88421 
L 65.867454 67.537359 
L 65.903515 70.087764 
L 65.939575 68.559609 
L 65.975635 69.707953 
L 66.047756 68.772884 
L 66.119876 69.727647 
L 66.191997 66.08515 
L 66.300178 69.194102 
L 66.444419 64.402965 
L 66.480479 64.724811 
L 66.552599 63.676093 
L 66.58866 64.136501 
L 66.62472 65.108736 
L 66.66078 65.085599 
L 66.69684 62.929103 
L 66.768961 65.175159 
L 66.805021 65.166855 
L 66.913202 62.976895 
L 66.949262 65.787142 
L 67.021383 64.628028 
L 67.057443 62.205438 
L 67.129564 64.151507 
L 67.273805 66.44 
L 67.345925 64.218977 
L 67.418046 67.737908 
L 67.454106 79.521921 
L 67.526227 43.533961 
L 67.598347 49.084983 
L 67.670468 60.004613 
L 67.99501 120.240873 
L 68.139251 47.529674 
L 68.319552 78.871094 
L 68.571974 118.329697 
L 68.680155 46.64313 
L 68.716215 46.752437 
L 68.968637 92.71844 
L 69.148938 116.495899 
L 69.29318 42.065278 
L 69.509541 84.978883 
L 69.725903 116.417202 
L 69.834084 44.199786 
L 69.870144 45.700428 
L 70.014385 67.45351 
L 70.302867 119.091159 
L 70.411048 46.336905 
L 70.447108 47.672189 
L 70.591349 69.473344 
L 70.879831 115.262379 
L 70.988012 40.953803 
L 71.060133 44.650183 
L 71.312554 96.38806 
L 71.456795 113.068182 
L 71.601037 40.046483 
L 71.745278 63.17844 
L 72.03376 115.523505 
L 72.14194 41.997038 
L 72.178001 44.72513 
L 72.250121 51.858902 
L 72.610724 118.434008 
L 72.754965 44.054866 
L 72.899206 67.535274 
L 73.151628 114.875671 
L 73.187688 114.458885 
L 73.331929 41.638643 
L 73.367989 45.183768 
L 73.764652 114.068608 
L 73.908893 41.845581 
L 74.089195 72.948152 
L 74.341617 117.77192 
L 74.485858 46.51971 
L 74.702219 88.036401 
L 74.882521 119.214314 
L 74.918581 120.095366 
L 75.026762 47.206241 
L 75.062822 48.051798 
L 75.207063 68.760551 
L 75.495545 118.402161 
L 75.603726 43.365269 
L 75.639786 46.147789 
L 75.675846 46.700477 
L 75.856148 82.519723 
L 76.036449 112.464226 
L 76.072509 111.345769 
L 76.21675 40.403579 
L 76.541293 104.635671 
L 76.649474 114.137026 
L 76.757654 40.839007 
L 76.793715 42.235844 
L 76.937956 64.597958 
L 77.226438 116.495333 
L 77.334619 44.839201 
L 77.370679 45.166472 
L 77.47886 58.602974 
L 77.767342 113.666565 
L 77.803402 114.119832 
L 77.947643 40.834934 
L 78.091884 63.862943 
L 78.380366 112.577755 
L 78.524607 42.889944 
L 78.596728 50.613174 
L 78.92127 114.743206 
L 78.957331 113.999384 
L 79.101572 42.628063 
L 79.534295 116.21619 
L 79.678536 43.316234 
L 79.822777 67.560373 
L 80.075199 116.423099 
L 80.111259 116.246463 
L 80.21944 43.533859 
L 80.29156 48.56324 
L 80.471862 85.450608 
L 80.652163 116.549395 
L 80.688223 115.651495 
L 80.796404 44.543924 
L 80.832464 46.389066 
L 80.868525 48.107789 
L 81.265188 119.762165 
L 81.373368 45.562386 
L 81.409429 46.916451 
L 81.62579 86.154068 
L 81.842152 117.54368 
L 81.950333 43.072023 
L 81.986393 44.758707 
L 82.383056 115.587782 
L 82.419116 114.760034 
L 82.563357 41.846393 
L 82.599417 46.632816 
L 82.707598 63.093244 
L 82.96002 113.110621 
L 82.99608 114.411752 
L 83.104261 43.955831 
L 83.176382 49.996421 
L 83.284562 69.656218 
L 83.536984 119.772155 
L 83.573045 118.861118 
L 83.717286 45.657734 
L 83.933647 84.705477 
L 84.113948 116.353116 
L 84.150009 116.881543 
L 84.25819 42.736512 
L 84.29425 44.175158 
L 84.474551 75.139419 
L 84.726973 115.914707 
L 84.835154 40.616178 
L 84.871214 43.780078 
L 84.943335 51.368501 
L 85.303937 117.473326 
L 85.412118 44.118786 
L 85.448178 44.441393 
L 85.62848 75.631203 
L 85.880901 116.079035 
L 85.989082 42.815742 
L 86.061203 46.240594 
L 86.277564 92.811738 
L 86.457866 116.091623 
L 86.602107 41.765346 
L 86.746348 64.800952 
L 87.03483 112.759265 
L 87.143011 40.891257 
L 87.215131 44.850314 
L 87.611794 116.131374 
L 87.719975 45.266603 
L 87.756035 45.46742 
L 87.792096 46.982528 
L 88.188758 118.948739 
L 88.296939 42.539916 
L 88.332999 48.7872 
L 88.40512 53.932001 
L 88.765723 116.791856 
L 88.873903 41.859826 
L 88.946024 47.780128 
L 89.090265 73.790155 
L 89.306627 113.84848 
L 89.342687 113.398429 
L 89.450868 39.770582 
L 89.486928 41.971992 
L 89.667229 74.562273 
L 89.919651 114.973776 
L 90.027832 43.790642 
L 90.063892 45.207986 
L 90.136013 55.02973 
L 90.460555 117.951229 
L 90.496615 114.645092 
L 90.604796 45.129079 
L 90.676917 49.053012 
L 90.857218 83.567595 
L 91.07358 116.151478 
L 91.18176 41.437398 
L 91.217821 44.544629 
L 91.253881 45.006086 
L 91.650544 113.989447 
L 91.758725 38.708888 
L 91.794785 39.649293 
L 92.047207 91.644692 
L 92.227508 115.486806 
L 92.335689 46.160989 
L 92.407809 50.465774 
L 92.804472 118.757016 
L 92.912653 45.483808 
L 92.984774 47.872442 
L 93.381437 115.605728 
L 93.489617 41.464156 
L 93.525678 42.693225 
L 93.669919 65.083022 
L 93.922341 112.645221 
L 93.958401 111.694571 
L 94.066582 40.926073 
L 94.102642 41.586326 
L 94.174762 50.168058 
L 94.535365 114.28602 
L 94.679606 42.598093 
L 94.715666 47.38547 
L 95.112329 115.570166 
L 95.22051 40.930066 
L 95.292631 46.221949 
L 95.472932 80.610384 
L 95.689294 113.186535 
L 95.833535 39.010973 
L 95.977776 62.724402 
L 96.266258 114.054168 
L 96.374439 42.819551 
L 96.410499 43.121504 
L 96.55474 64.773254 
L 96.843222 118.805509 
L 96.951403 44.83531 
L 96.987463 46.784941 
L 97.059584 53.900515 
L 97.384126 116.813675 
L 97.420186 116.124492 
L 97.528367 43.283885 
L 97.600488 46.568098 
L 97.96109 115.976509 
L 97.997151 112.435737 
L 98.141392 40.229709 
L 98.177452 45.848917 
L 98.321693 70.357857 
L 98.574115 113.408651 
L 98.682296 38.877212 
L 98.718356 41.300507 
L 98.934717 81.635698 
L 99.115019 114.609295 
L 99.151079 112.559659 
L 99.25926 42.423124 
L 99.33138 45.780357 
L 99.728043 116.133129 
L 99.836224 42.166467 
L 99.908345 45.984498 
L 100.268947 114.090795 
L 100.305008 112.050033 
L 100.413188 39.862605 
L 100.485309 44.47277 
L 100.59349 62.615905 
L 100.881972 112.678065 
L 100.990153 42.757195 
L 101.026213 43.462887 
L 101.206514 73.471217 
L 101.458936 116.678767 
L 101.567117 44.064477 
L 101.603177 44.738959 
L 101.783478 75.969617 
L 101.99984 115.746497 
L 102.0359 116.778577 
L 102.144081 44.328645 
L 102.180141 45.430164 
L 102.216202 46.336768 
L 102.360443 72.795707 
L 102.612864 115.850234 
L 102.721045 41.424652 
L 102.757106 43.115783 
L 102.901347 63.850139 
L 103.153768 114.689433 
L 103.189829 114.017826 
L 103.29801 42.85414 
L 103.33407 46.711645 
L 103.40619 52.973439 
L 103.730733 118.056037 
L 103.766793 118.018249 
L 103.874974 45.308214 
L 103.911034 47.721025 
L 104.019215 62.185047 
L 104.307697 116.069941 
L 104.343757 115.408372 
L 104.451938 43.415458 
L 104.524059 47.792245 
L 104.920721 113.638293 
L 105.028902 42.27504 
L 105.064962 42.690819 
L 105.173143 57.958635 
L 105.497686 115.443622 
L 105.605866 43.460285 
L 105.641927 47.329627 
L 105.677987 48.468933 
L 106.07465 116.588962 
L 106.182831 41.796862 
L 106.218891 44.777715 
L 106.363132 66.373632 
L 106.651614 115.214779 
L 106.759795 39.517623 
L 106.795855 40.99798 
L 106.831915 41.617239 
L 107.192518 110.126459 
L 107.228578 109.43037 
L 107.372819 39.199266 
L 107.481 54.464722 
L 107.769482 112.26382 
L 107.805543 110.097997 
L 107.913723 39.592766 
L 107.949784 41.841764 
L 108.238266 99.645548 
L 108.346447 116.346064 
L 108.382507 115.832077 
L 108.490688 42.908794 
L 108.526748 44.366363 
L 108.634929 58.840053 
L 108.923411 114.634757 
L 108.959471 113.731105 
L 109.103712 43.10568 
L 109.320074 82.697555 
L 109.536435 114.334895 
L 109.644616 39.345161 
L 109.680676 42.308928 
L 109.788857 57.867608 
L 110.1134 116.103909 
L 110.22158 43.298237 
L 110.293701 45.997211 
L 110.474002 84.963262 
L 110.690364 116.885425 
L 110.834605 45.703297 
L 110.870665 48.677559 
L 111.123087 99.533683 
L 111.195208 114.076577 
L 111.267328 113.284067 
L 111.375509 44.32808 
L 111.447629 45.171961 
L 111.59187 71.527694 
L 111.808232 111.748173 
L 111.844292 111.690081 
L 111.952473 41.112754 
L 112.024594 46.40663 
L 112.204895 83.568562 
L 112.421257 119.786977 
L 112.529437 45.749319 
L 112.601558 51.832284 
L 112.745799 80.442096 
L 112.998221 119.55251 
L 113.142462 48.000003 
L 113.250643 63.230657 
L 113.539125 117.067378 
L 113.575185 116.276904 
L 113.719426 44.002643 
L 113.755486 47.439678 
L 113.971848 92.279716 
L 114.152149 116.64912 
L 114.29639 47.31899 
L 114.332451 51.701318 
L 114.404571 61.609644 
L 114.693053 119.582829 
L 114.729114 119.086283 
L 114.837294 48.796169 
L 114.873355 50.858916 
L 114.981535 63.606667 
L 115.270018 121.557148 
L 115.306078 120.300974 
L 115.414259 47.150288 
L 115.486379 49.282142 
L 115.883042 115.194255 
L 115.991223 43.188841 
L 116.063343 47.752884 
L 116.171524 65.748064 
L 116.423946 114.167616 
L 116.460006 111.77232 
L 116.604247 43.791733 
L 116.640308 46.919699 
L 116.784549 74.899493 
L 117.03697 119.009201 
L 117.181212 45.737571 
L 117.289392 59.082511 
L 117.577874 116.255271 
L 117.613935 113.81473 
L 117.722116 43.532589 
L 117.794236 47.635997 
L 118.154839 113.907573 
L 118.190899 110.943666 
L 118.29908 41.111272 
L 118.3712 46.738055 
L 118.443321 58.015606 
L 118.767863 112.732283 
L 118.876044 41.378937 
L 118.912104 43.560284 
L 119.092406 73.743374 
L 119.344827 116.75714 
L 119.453008 45.062601 
L 119.489069 46.128297 
L 119.561189 51.862454 
L 119.921792 114.927248 
L 120.029972 44.122516 
L 120.102093 45.76681 
L 120.462696 113.408439 
L 120.498756 112.43873 
L 120.606937 40.280678 
L 120.642997 42.525359 
L 120.787238 65.230893 
L 121.07572 115.585937 
L 121.183901 43.714987 
L 121.219961 44.687917 
L 121.292082 51.487727 
L 121.616624 117.117519 
L 121.652684 116.787545 
L 121.760865 44.474037 
L 121.832986 47.79008 
L 122.229649 116.20751 
L 122.337829 41.626401 
L 122.37389 42.456245 
L 122.518131 63.423478 
L 122.806613 113.554691 
L 122.914794 38.643409 
L 122.950854 39.926031 
L 123.203276 88.893246 
L 123.383577 114.437829 
L 123.491758 42.682443 
L 123.563878 45.314655 
L 123.960541 116.580887 
L 124.068722 41.231989 
L 124.140843 48.36995 
L 124.537506 113.160294 
L 124.645686 40.465025 
L 124.717807 44.101358 
L 124.934169 89.126554 
L 125.11447 113.759373 
L 125.258711 35.376697 
L 125.294771 39.035486 
L 125.402952 62.596094 
L 125.691434 126.340092 
L 125.799615 35.027274 
L 125.871735 38.096467 
L 126.268398 126.118707 
L 126.376579 36.357345 
L 126.412639 38.395232 
L 126.52082 56.782728 
L 126.809302 126.623307 
L 126.845363 126.373955 
L 126.953543 35.766718 
L 126.989604 37.59833 
L 127.025664 39.140147 
L 127.422327 126.688265 
L 127.530508 36.405568 
L 127.566568 37.964277 
L 127.674749 56.241893 
L 127.999291 131.186878 
L 128.107472 39.465136 
L 128.143532 41.947729 
L 128.215653 51.619541 
L 128.540195 130.463232 
L 128.576255 129.384336 
L 128.684436 40.095274 
L 128.756557 46.935107 
L 128.864737 67.286627 
L 129.15322 126.809179 
L 129.297461 36.910358 
L 129.333521 40.660187 
L 129.513822 85.434833 
L 129.694124 123.647689 
L 129.730184 123.455009 
L 129.838365 34.353536 
L 129.910485 40.14852 
L 130.126847 97.213529 
L 130.307148 128.070427 
L 130.415329 38.353209 
L 130.451389 39.02176 
L 130.55957 58.021425 
L 130.884112 129.51917 
L 130.992293 38.260245 
L 131.028353 38.844754 
L 131.100474 48.657899 
L 131.461077 126.49427 
L 131.569257 36.216403 
L 131.641378 39.707085 
L 132.038041 124.386895 
L 132.146222 33.429874 
L 132.182282 34.337145 
L 132.290463 53.137457 
L 132.615005 125.423237 
L 132.759246 37.83348 
L 132.795306 41.080978 
L 132.975608 88.624308 
L 133.191969 130.602647 
L 133.30015 37.6189 
L 133.33621 39.499377 
L 133.552572 88.990359 
L 133.768933 127.787186 
L 133.877114 36.298766 
L 133.913175 36.964507 
L 134.093476 75.583561 
L 134.309837 126.593335 
L 134.345898 125.107959 
L 134.454079 35.047502 
L 134.526199 41.168903 
L 134.922862 130.321711 
L 135.031043 40.632384 
L 135.067103 41.436114 
L 135.175284 58.443803 
L 135.499826 129.013947 
L 135.644067 40.803027 
L 135.680128 43.398976 
L 136.07679 127.011253 
L 136.221032 35.811234 
L 136.401333 75.655192 
L 136.653755 125.561801 
L 136.761935 35.262911 
L 136.834056 40.72256 
L 137.050418 96.555173 
L 137.230719 127.435423 
L 137.3389 38.605084 
L 137.41102 42.43324 
L 137.627382 97.057759 
L 137.771623 125.418531 
L 137.807683 124.892142 
L 137.915864 33.656266 
L 137.987984 39.482868 
L 138.096165 60.97493 
L 138.348587 122.86406 
L 138.384647 122.385991 
L 138.492828 30.558182 
L 138.528888 34.244801 
L 138.601009 42.893799 
L 138.961612 124.815655 
L 139.069792 35.735382 
L 139.105853 39.018549 
L 139.250094 66.813375 
L 139.538576 129.162209 
L 139.682817 39.377699 
L 139.899179 90.854328 
L 140.07948 129.979577 
L 140.11554 129.129847 
L 140.223721 38.179769 
L 140.295841 43.706509 
L 140.440083 75.92333 
L 140.692504 126.166959 
L 140.800685 36.294093 
L 140.872806 41.42608 
L 141.125228 107.782236 
L 141.269469 127.648305 
L 141.41371 38.604217 
L 141.44977 42.767062 
L 141.846433 131.543351 
L 141.954614 39.016803 
L 141.990674 41.164802 
L 142.098855 59.240766 
L 142.387337 126.558492 
L 142.423397 125.670442 
L 142.531578 35.432037 
L 142.603698 40.104136 
L 142.85612 104.805473 
L 143.000361 122.792127 
L 143.144602 34.307319 
L 143.324904 74.489863 
L 143.577326 125.954894 
L 143.721567 37.037455 
L 144.15429 128.993501 
L 144.262471 39.13952 
L 144.298531 41.59525 
L 144.406712 55.736262 
L 144.731254 127.0447 
L 144.839435 34.900528 
L 144.911555 41.221641 
L 145.091857 84.648574 
L 145.308218 125.241382 
L 145.416399 34.498439 
L 145.452459 37.477311 
L 145.56064 55.0765 
L 145.885183 129.674952 
L 145.993363 37.370446 
L 146.029424 39.386121 
L 146.462147 130.588298 
L 146.570328 38.043274 
L 146.606388 39.731504 
L 146.750629 65.460144 
L 147.003051 124.064103 
L 147.039111 123.504347 
L 147.147292 34.686318 
L 147.183352 35.71821 
L 147.291533 53.110786 
L 147.616075 122.335545 
L 147.724256 32.786028 
L 147.760316 33.76557 
L 147.904557 63.553649 
L 148.19304 124.590376 
L 148.30122 36.388307 
L 148.373341 39.74092 
L 148.770004 128.356403 
L 148.878185 38.290915 
L 148.914245 38.737302 
L 149.022426 55.415363 
L 149.346968 126.761334 
L 149.455149 35.346272 
L 149.527269 39.262991 
L 149.707571 85.301767 
L 149.923932 124.217795 
L 150.068173 34.580269 
L 150.248475 76.263452 
L 150.500896 128.176026 
L 150.609077 39.204165 
L 150.645138 40.872471 
L 150.825439 79.688772 
L 151.0418 130.672403 
L 151.077861 130.117365 
L 151.222102 42.105762 
L 151.258162 45.566286 
L 151.474524 99.06244 
L 151.654825 128.860633 
L 151.763006 37.06836 
L 151.835126 40.578455 
L 152.231789 126.4468 
L 152.37603 36.629961 
L 152.520271 64.794176 
L 152.772693 129.127706 
L 152.808753 128.90237 
L 152.952994 39.966175 
L 153.097236 67.152289 
L 153.385718 127.632043 
L 153.493898 38.714514 
L 153.566019 43.511308 
L 153.854501 113.630769 
L 153.962682 125.227889 
L 154.070863 35.428412 
L 154.106923 35.625754 
L 154.539646 129.317264 
L 154.683887 39.243387 
L 154.828128 67.807472 
L 155.11661 132.109927 
L 155.224791 42.834728 
L 155.260851 44.025282 
L 155.296912 45.618504 
L 155.693575 131.112927 
L 155.801755 39.934114 
L 155.873876 42.998949 
L 156.054177 87.875032 
L 156.270539 127.442451 
L 156.37872 34.505976 
L 156.41478 39.280231 
L 156.45084 40.829879 
L 156.847503 130.4976 
L 156.955684 39.219385 
L 156.991744 42.153513 
L 157.099925 61.285078 
L 157.424467 130.009456 
L 157.532648 38.961045 
L 157.568708 39.063313 
L 157.74901 79.568638 
L 158.001432 127.176417 
L 158.109612 36.103031 
L 158.181733 41.621416 
L 158.398095 95.872223 
L 158.578396 124.656562 
L 158.722637 34.776851 
L 158.758697 38.853115 
L 159.15536 126.594847 
L 159.299601 36.631961 
L 159.443842 66.405997 
L 159.732324 127.474084 
L 159.840505 37.856567 
L 159.876565 37.981736 
L 160.165048 106.655581 
L 160.309289 126.524121 
L 160.417469 36.1441 
L 160.48959 39.530571 
L 160.705951 93.554891 
L 160.886253 125.838161 
L 160.994434 32.307635 
L 161.030494 34.653357 
L 161.138675 54.274826 
L 161.463217 126.421697 
L 161.571398 35.81728 
L 161.607458 39.500485 
L 161.679579 48.861213 
L 162.040181 130.385765 
L 162.148362 40.084759 
L 162.184422 42.113231 
L 162.256543 51.287386 
L 162.617146 130.09059 
L 162.725326 40.188862 
L 162.761387 40.877643 
L 162.905628 65.469264 
L 163.19411 127.776469 
L 163.302291 38.822998 
L 163.338351 39.985493 
L 163.410471 49.324969 
L 163.735014 130.644117 
L 163.771074 129.921342 
L 163.915315 39.873612 
L 163.951375 45.283277 
L 164.311978 130.368613 
L 164.348038 129.937497 
L 164.456219 39.687396 
L 164.492279 40.647037 
L 164.60046 60.206426 
L 164.925003 127.9824 
L 165.033183 37.295074 
L 165.105304 43.620387 
L 165.177424 58.127359 
L 165.501967 125.992905 
L 165.646208 36.63483 
L 165.826509 76.954761 
L 166.042871 129.224649 
L 166.078931 128.536859 
L 166.187112 38.92124 
L 166.223172 39.37222 
L 166.439534 89.979471 
L 166.619835 129.090709 
L 166.655895 128.453275 
L 166.764076 37.973271 
L 166.836197 42.682775 
L 167.088618 106.999567 
L 167.232859 129.283052 
L 167.34104 36.339962 
L 167.377101 36.389404 
L 167.629522 99.402711 
L 167.809824 126.378126 
L 167.954065 35.79644 
L 168.386788 130.2413 
L 168.494969 37.089501 
L 168.531029 40.617651 
L 168.63921 56.242952 
L 168.927692 127.463446 
L 168.963752 128.889203 
L 169.071933 38.318179 
L 169.144054 43.041905 
L 169.288295 76.363537 
L 169.504656 124.383341 
L 169.540716 126.680314 
L 169.648897 34.073088 
L 169.684957 36.896512 
L 169.829199 63.652209 
L 170.117681 124.46364 
L 170.225861 36.290385 
L 170.261922 37.630559 
L 170.334042 45.136956 
L 170.694645 129.926927 
L 170.838886 40.228082 
L 170.911007 50.866318 
L 171.271609 129.403309 
L 171.37979 39.213653 
L 171.41585 40.119293 
L 171.45191 41.571016 
L 171.632212 87.604509 
L 171.848573 126.931751 
L 171.956754 37.275892 
L 171.992814 37.671843 
L 172.137056 65.517365 
L 172.425538 126.970659 
L 172.569779 37.740529 
L 172.75008 77.421003 
L 173.002502 130.905312 
L 173.110683 41.143541 
L 173.146743 44.076003 
L 173.182803 45.370605 
L 173.327044 81.293147 
L 173.579466 128.49001 
L 173.687647 37.039678 
L 173.723707 38.88428 
L 173.831888 56.964529 
L 174.15643 126.259878 
L 174.300671 34.685012 
L 174.480973 74.45669 
L 174.733395 126.973029 
L 174.841575 36.395651 
L 174.877636 39.706025 
L 174.985816 59.74495 
L 175.274299 130.969113 
L 175.310359 129.134241 
L 175.41854 40.523413 
L 175.49066 47.727148 
L 175.634901 81.019185 
L 175.887323 129.095543 
L 175.995504 38.809004 
L 176.031564 39.825468 
L 176.103685 48.268371 
L 176.464287 125.661201 
L 176.572468 34.117851 
L 176.608528 35.436684 
L 176.716709 54.218815 
L 177.005191 126.886825 
L 177.041252 124.748417 
L 177.149432 34.710404 
L 177.221553 41.629854 
L 177.618216 130.019607 
L 177.726397 40.571985 
L 177.762457 42.236655 
L 177.870638 57.798468 
L 178.15912 127.402652 
L 178.19518 130.822616 
L 178.339421 39.763511 
L 178.591843 97.75591 
L 178.772144 130.06951 
L 178.916385 39.630498 
L 179.060626 67.506705 
L 179.313048 129.810706 
L 179.349109 129.635388 
L 179.457289 40.443413 
L 179.49335 43.248764 
L 179.60153 58.890772 
L 179.926073 132.921818 
L 180.034254 40.740361 
L 180.070314 42.8393 
L 180.106374 43.946245 
L 180.503037 129.433982 
L 180.611218 37.192984 
L 180.647278 39.129963 
L 180.719399 48.179487 
L 181.080001 127.748658 
L 181.188182 35.977682 
L 181.224242 37.382486 
L 181.440604 86.896154 
L 181.656965 128.992994 
L 181.765146 38.431899 
L 181.801207 41.772965 
L 181.873327 53.028871 
L 181.981508 79.352645 
L 182.23393 130.813501 
L 182.342111 40.290642 
L 182.378171 40.797686 
L 182.486352 59.052227 
L 182.810894 128.921107 
L 182.919075 64.582941 
L 182.955135 66.415506 
L 183.207557 62.527451 
L 183.243617 62.970076 
L 183.279677 64.978941 
L 183.315738 64.959801 
L 183.351798 61.364841 
L 183.423918 62.672829 
L 183.459979 62.509993 
L 183.496039 61.755802 
L 183.64028 65.002253 
L 183.67634 63.713872 
L 183.748461 64.688594 
L 183.856642 67.600733 
L 184.000883 65.416427 
L 184.145124 69.483381 
L 184.181184 69.48213 
L 184.217244 68.098331 
L 184.289365 69.24861 
L 184.361485 69.571233 
L 184.397546 66.608578 
L 184.469666 70.510148 
L 184.505726 65.612615 
L 184.541787 70.846638 
L 184.577847 69.667362 
L 184.613907 68.977611 
L 184.686028 69.586344 
L 184.722088 70.020562 
L 184.758148 67.225063 
L 184.866329 67.315306 
L 184.902389 67.641735 
L 184.97451 67.297196 
L 185.01057 66.929985 
L 185.04663 67.448505 
L 185.082691 67.410831 
L 185.226932 65.157779 
L 185.262992 67.489821 
L 185.299052 63.322467 
L 185.335113 65.993398 
L 185.371173 66.53926 
L 185.479354 64.110448 
L 185.515414 64.233589 
L 185.623595 66.738678 
L 185.659655 66.097481 
L 185.695715 64.992249 
L 185.803896 68.282111 
L 185.839956 64.381176 
L 185.912077 67.101756 
L 186.020258 68.317448 
L 186.128438 65.534373 
L 186.164499 67.701673 
L 186.200559 64.934381 
L 186.236619 65.166683 
L 186.30874 67.504032 
L 186.3448 66.107109 
L 186.38086 66.492813 
L 186.489041 70.553723 
L 186.525101 66.411969 
L 186.597222 67.304917 
L 186.669342 69.204709 
L 186.705403 67.114633 
L 186.741463 69.981282 
L 186.777523 68.505633 
L 186.885704 65.468315 
L 186.849644 69.34276 
L 186.921764 67.239906 
L 186.957824 67.250492 
L 186.993885 67.950119 
L 187.029945 67.346989 
L 187.210246 65.494235 
L 187.282367 65.685117 
L 187.318427 67.758152 
L 187.390548 66.302525 
L 187.426608 66.028163 
L 187.498728 68.840747 
L 187.534789 67.015248 
L 187.570849 65.788599 
L 187.606909 67.772998 
L 187.67903 66.297436 
L 187.71509 67.170772 
L 187.75115 67.415038 
L 187.787211 65.217393 
L 187.859331 66.244469 
L 187.895391 66.279861 
L 187.967512 63.931868 
L 188.003572 69.671466 
L 188.075693 66.748751 
L 188.147813 67.672122 
L 188.219934 67.373164 
L 188.292054 70.017753 
L 188.364175 68.357374 
L 188.400235 69.787209 
L 188.472356 69.916328 
L 188.508416 68.281505 
L 188.580536 68.892029 
L 188.652657 72.200297 
L 188.688717 71.487134 
L 188.724777 70.04149 
L 188.796898 70.98915 
L 188.832958 73.523699 
L 188.905079 71.505208 
L 188.977199 72.694389 
L 189.04932 68.248035 
L 189.08538 70.125085 
L 189.157501 71.979612 
L 189.193561 70.967043 
L 189.229621 70.537536 
L 189.265681 71.461612 
L 189.301742 70.656637 
L 189.337802 68.650415 
L 189.409922 68.97006 
L 189.445983 69.857004 
L 189.482043 68.741148 
L 189.518103 68.771448 
L 189.554164 68.486748 
L 189.662344 66.006262 
L 189.698405 66.695862 
L 189.770525 68.135188 
L 189.806585 67.24756 
L 189.914766 64.165245 
L 189.950826 64.859285 
L 190.022947 66.461018 
L 190.059007 65.331178 
L 190.095068 63.581274 
L 190.167188 64.313025 
L 190.275369 65.599001 
L 190.311429 64.985422 
L 190.347489 65.085136 
L 190.563851 69.185736 
L 190.599911 68.777034 
L 190.635971 70.996569 
L 190.708092 70.441711 
L 190.780213 69.985681 
L 190.888393 72.412661 
L 190.924454 70.493248 
L 190.960514 72.4818 
L 190.996574 71.995788 
L 191.032634 72.604141 
L 191.068695 71.713782 
L 191.104755 70.949538 
L 191.140815 73.520345 
L 191.212936 72.764592 
L 191.285056 71.502475 
L 191.321117 74.476793 
L 191.357177 72.802055 
L 191.429297 70.478568 
L 191.465358 72.558813 
L 191.537478 72.568388 
L 191.609599 69.607276 
L 191.645659 70.401115 
L 191.681719 69.566636 
L 191.75384 69.224679 
L 191.934141 66.31171 
L 191.970201 66.632401 
L 192.078382 68.712221 
L 192.186563 65.600722 
L 192.258683 66.313761 
L 192.294744 66.192401 
L 192.330804 65.263748 
L 192.366864 67.655082 
L 192.438985 66.764005 
L 192.475045 66.801185 
L 192.511105 65.908673 
L 192.547166 66.838807 
L 192.619286 68.460722 
L 192.691407 67.443462 
L 192.727467 66.849241 
L 192.763527 67.611366 
L 192.799587 67.870213 
L 192.835648 66.567634 
L 192.871708 67.97456 
L 192.907768 67.474396 
L 192.979889 66.281889 
L 193.08807 69.547348 
L 193.12413 69.016216 
L 193.16019 67.538442 
L 193.19625 67.719488 
L 193.232311 69.255483 
L 193.304431 68.770467 
L 193.340491 68.957416 
L 193.448672 66.642218 
L 193.484732 67.679868 
L 193.556853 70.147757 
L 193.592913 67.799452 
L 193.628973 68.561832 
L 193.665034 67.562165 
L 193.701094 66.985842 
L 193.737154 68.718618 
L 193.773215 67.84194 
L 193.917456 65.405127 
L 193.953516 66.740046 
L 193.989576 65.842788 
L 194.133817 62.508611 
L 194.169877 62.544482 
L 194.205938 64.865507 
L 194.278058 62.960907 
L 194.386239 64.581415 
L 194.422299 61.634802 
L 194.49442 64.34147 
L 194.56654 62.96872 
L 194.602601 63.615681 
L 194.638661 65.812008 
L 194.674721 63.179805 
L 194.710781 64.186973 
L 194.818962 67.690239 
L 194.927143 66.980199 
L 194.963203 66.302069 
L 194.999264 66.67423 
L 195.143505 70.324238 
L 195.179565 68.694793 
L 195.215625 71.389202 
L 195.251685 70.440129 
L 195.323806 71.102287 
L 195.359866 67.911832 
L 195.431987 72.734609 
L 195.504107 71.803509 
L 195.540168 71.593153 
L 195.576228 73.661917 
L 195.648348 71.788449 
L 195.720469 72.654125 
L 195.792589 70.611148 
L 195.82865 70.728289 
L 195.86471 68.721357 
L 195.93683 70.371664 
L 196.008951 68.622424 
L 196.081072 69.350723 
L 196.117132 70.657249 
L 196.153192 68.244409 
L 196.225313 66.613172 
L 196.297433 67.335486 
L 196.333493 67.225222 
L 196.369554 67.90105 
L 196.513795 65.431081 
L 196.658036 68.915141 
L 196.694096 68.718637 
L 196.730156 68.736481 
L 196.838337 66.459201 
L 196.910458 66.354845 
L 196.982578 68.603192 
L 197.054699 68.969812 
L 197.126819 66.491097 
L 197.19894 67.059797 
L 197.19894 67.059797 
" clip-path="url(#p12f842f45c)" style="fill: none; stroke: #808080; stroke-width: 0.3; stroke-linecap: square"/>
   </g>
   <g id="matplotlib.axis_1">
    <g id="xtick_1">
     <g id="line2d_2">
      <defs>
       <path id="mfa18d1c3e7" d="M 0 0 
L 0 3.5 
" style="stroke: #000000; stroke-width: 0.8"/>
      </defs>
      <g>
       <use xlink:href="#mfa18d1c3e7" x="53.03" y="138.04" style="stroke: #000000; stroke-width: 0.8"/>
      </g>
     </g>
     <g id="text_1">
      <!-- 0.0 -->
      <g transform="translate(45.078438 152.638438) scale(0.1 -0.1)">
       <defs>
        <path id="DejaVuSans-30" d="M 2034 4250 
Q 1547 4250 1301 3770 
Q 1056 3291 1056 2328 
Q 1056 1369 1301 889 
Q 1547 409 2034 409 
Q 2525 409 2770 889 
Q 3016 1369 3016 2328 
Q 3016 3291 2770 3770 
Q 2525 4250 2034 4250 
z
M 2034 4750 
Q 2819 4750 3233 4129 
Q 3647 3509 3647 2328 
Q 3647 1150 3233 529 
Q 2819 -91 2034 -91 
Q 1250 -91 836 529 
Q 422 1150 422 2328 
Q 422 3509 836 4129 
Q 1250 4750 2034 4750 
z
" transform="scale(0.015625)"/>
        <path id="DejaVuSans-2e" d="M 684 794 
L 1344 794 
L 1344 0 
L 684 0 
L 684 794 
z
" transform="scale(0.015625)"/>
       </defs>
       <use xlink:href="#DejaVuSans-30"/>
       <use xlink:href="#DejaVuSans-2e" x="63.623047"/>
       <use xlink:href="#DejaVuSans-30" x="95.410156"/>
      </g>
     </g>
    </g>
    <g id="xtick_2">
     <g id="line2d_3">
      <g>
       <use xlink:href="#mfa18d1c3e7" x="89.08125" y="138.04" style="stroke: #000000; stroke-width: 0.8"/>
      </g>
     </g>
     <g id="text_2">
      <!-- 0.5 -->
      <g transform="translate(81.129688 152.638438) scale(0.1 -0.1)">
       <defs>
        <path id="DejaVuSans-35" d="M 691 4666 
L 3169 4666 
L 3169 4134 
L 1269 4134 
L 1269 2991 
Q 1406 3038 1543 3061 
Q 1681 3084 1819 3084 
Q 2600 3084 3056 2656 
Q 3513 2228 3513 1497 
Q 3513 744 3044 326 
Q 2575 -91 1722 -91 
Q 1428 -91 1123 -41 
Q 819 9 494 109 
L 494 744 
Q 775 591 1075 516 
Q 1375 441 1709 441 
Q 2250 441 2565 725 
Q 2881 1009 2881 1497 
Q 2881 1984 2565 2268 
Q 2250 2553 1709 2553 
Q 1456 2553 1204 2497 
Q 953 2441 691 2322 
L 691 4666 
z
" transform="scale(0.015625)"/>
       </defs>
       <use xlink:href="#DejaVuSans-30"/>
       <use xlink:href="#DejaVuSans-2e" x="63.623047"/>
       <use xlink:href="#DejaVuSans-35" x="95.410156"/>
      </g>
     </g>
    </g>
    <g id="xtick_3">
     <g id="line2d_4">
      <g>
       <use xlink:href="#mfa18d1c3e7" x="125.1325" y="138.04" style="stroke: #000000; stroke-width: 0.8"/>
      </g>
     </g>
     <g id="text_3">
      <!-- 1.0 -->
      <g transform="translate(117.180937 152.638438) scale(0.1 -0.1)">
       <defs>
        <path id="DejaVuSans-31" d="M 794 531 
L 1825 531 
L 1825 4091 
L 703 3866 
L 703 4441 
L 1819 4666 
L 2450 4666 
L 2450 531 
L 3481 531 
L 3481 0 
L 794 0 
L 794 531 
z
" transform="scale(0.015625)"/>
       </defs>
       <use xlink:href="#DejaVuSans-31"/>
       <use xlink:href="#DejaVuSans-2e" x="63.623047"/>
       <use xlink:href="#DejaVuSans-30" x="95.410156"/>
      </g>
     </g>
    </g>
    <g id="xtick_4">
     <g id="line2d_5">
      <g>
       <use xlink:href="#mfa18d1c3e7" x="161.18375" y="138.04" style="stroke: #000000; stroke-width: 0.8"/>
      </g>
     </g>
     <g id="text_4">
      <!-- 1.5 -->
      <g transform="translate(153.232188 152.638438) scale(0.1 -0.1)">
       <use xlink:href="#DejaVuSans-31"/>
       <use xlink:href="#DejaVuSans-2e" x="63.623047"/>
       <use xlink:href="#DejaVuSans-35" x="95.410156"/>
      </g>
     </g>
    </g>
    <g id="xtick_5">
     <g id="line2d_6">
      <g>
       <use xlink:href="#mfa18d1c3e7" x="197.235" y="138.04" style="stroke: #000000; stroke-width: 0.8"/>
      </g>
     </g>
     <g id="text_5">
      <!-- 2.0 -->
      <g transform="translate(189.283437 152.638438) scale(0.1 -0.1)">
       <defs>
        <path id="DejaVuSans-32" d="M 1228 531 
L 3431 531 
L 3431 0 
L 469 0 
L 469 531 
Q 828 903 1448 1529 
Q 2069 2156 2228 2338 
Q 2531 2678 2651 2914 
Q 2772 3150 2772 3378 
Q 2772 3750 2511 3984 
Q 2250 4219 1831 4219 
Q 1534 4219 1204 4116 
Q 875 4013 500 3803 
L 500 4441 
Q 881 4594 1212 4672 
Q 1544 4750 1819 4750 
Q 2544 4750 2975 4387 
Q 3406 4025 3406 3419 
Q 3406 3131 3298 2873 
Q 3191 2616 2906 2266 
Q 2828 2175 2409 1742 
Q 1991 1309 1228 531 
z
" transform="scale(0.015625)"/>
       </defs>
       <use xlink:href="#DejaVuSans-32"/>
       <use xlink:href="#DejaVuSans-2e" x="63.623047"/>
       <use xlink:href="#DejaVuSans-30" x="95.410156"/>
      </g>
     </g>
    </g>
    <g id="text_6">
     <!-- Time (s) -->
     <g transform="translate(104.803594 166.316563) scale(0.1 -0.1)">
      <defs>
       <path id="DejaVuSans-54" d="M -19 4666 
L 3928 4666 
L 3928 4134 
L 2272 4134 
L 2272 0 
L 1638 0 
L 1638 4134 
L -19 4134 
L -19 4666 
z
" transform="scale(0.015625)"/>
       <path id="DejaVuSans-69" d="M 603 3500 
L 1178 3500 
L 1178 0 
L 603 0 
L 603 3500 
z
M 603 4863 
L 1178 4863 
L 1178 4134 
L 603 4134 
L 603 4863 
z
" transform="scale(0.015625)"/>
       <path id="DejaVuSans-6d" d="M 3328 2828 
Q 3544 3216 3844 3400 
Q 4144 3584 4550 3584 
Q 5097 3584 5394 3201 
Q 5691 2819 5691 2113 
L 5691 0 
L 5113 0 
L 5113 2094 
Q 5113 2597 4934 2840 
Q 4756 3084 4391 3084 
Q 3944 3084 3684 2787 
Q 3425 2491 3425 1978 
L 3425 0 
L 2847 0 
L 2847 2094 
Q 2847 2600 2669 2842 
Q 2491 3084 2119 3084 
Q 1678 3084 1418 2786 
Q 1159 2488 1159 1978 
L 1159 0 
L 581 0 
L 581 3500 
L 1159 3500 
L 1159 2956 
Q 1356 3278 1631 3431 
Q 1906 3584 2284 3584 
Q 2666 3584 2933 3390 
Q 3200 3197 3328 2828 
z
" transform="scale(0.015625)"/>
       <path id="DejaVuSans-65" d="M 3597 1894 
L 3597 1613 
L 953 1613 
Q 991 1019 1311 708 
Q 1631 397 2203 397 
Q 2534 397 2845 478 
Q 3156 559 3463 722 
L 3463 178 
Q 3153 47 2828 -22 
Q 2503 -91 2169 -91 
Q 1331 -91 842 396 
Q 353 884 353 1716 
Q 353 2575 817 3079 
Q 1281 3584 2069 3584 
Q 2775 3584 3186 3129 
Q 3597 2675 3597 1894 
z
M 3022 2063 
Q 3016 2534 2758 2815 
Q 2500 3097 2075 3097 
Q 1594 3097 1305 2825 
Q 1016 2553 972 2059 
L 3022 2063 
z
" transform="scale(0.015625)"/>
       <path id="DejaVuSans-20" transform="scale(0.015625)"/>
       <path id="DejaVuSans-28" d="M 1984 4856 
Q 1566 4138 1362 3434 
Q 1159 2731 1159 2009 
Q 1159 1288 1364 580 
Q 1569 -128 1984 -844 
L 1484 -844 
Q 1016 -109 783 600 
Q 550 1309 550 2009 
Q 550 2706 781 3412 
Q 1013 4119 1484 4856 
L 1984 4856 
z
" transform="scale(0.015625)"/>
       <path id="DejaVuSans-73" d="M 2834 3397 
L 2834 2853 
Q 2591 2978 2328 3040 
Q 2066 3103 1784 3103 
Q 1356 3103 1142 2972 
Q 928 2841 928 2578 
Q 928 2378 1081 2264 
Q 1234 2150 1697 2047 
L 1894 2003 
Q 2506 1872 2764 1633 
Q 3022 1394 3022 966 
Q 3022 478 2636 193 
Q 2250 -91 1575 -91 
Q 1294 -91 989 -36 
Q 684 19 347 128 
L 347 722 
Q 666 556 975 473 
Q 1284 391 1588 391 
Q 1994 391 2212 530 
Q 2431 669 2431 922 
Q 2431 1156 2273 1281 
Q 2116 1406 1581 1522 
L 1381 1569 
Q 847 1681 609 1914 
Q 372 2147 372 2553 
Q 372 3047 722 3315 
Q 1072 3584 1716 3584 
Q 2034 3584 2315 3537 
Q 2597 3491 2834 3397 
z
" transform="scale(0.015625)"/>
       <path id="DejaVuSans-29" d="M 513 4856 
L 1013 4856 
Q 1481 4119 1714 3412 
Q 1947 2706 1947 2009 
Q 1947 1309 1714 600 
Q 1481 -109 1013 -844 
L 513 -844 
Q 928 -128 1133 580 
Q 1338 1288 1338 2009 
Q 1338 2731 1133 3434 
Q 928 4138 513 4856 
z
" transform="scale(0.015625)"/>
      </defs>
      <use xlink:href="#DejaVuSans-54"/>
      <use xlink:href="#DejaVuSans-69" x="57.958984"/>
      <use xlink:href="#DejaVuSans-6d" x="85.742188"/>
      <use xlink:href="#DejaVuSans-65" x="183.154297"/>
      <use xlink:href="#DejaVuSans-20" x="244.677734"/>
      <use xlink:href="#DejaVuSans-28" x="276.464844"/>
      <use xlink:href="#DejaVuSans-73" x="315.478516"/>
      <use xlink:href="#DejaVuSans-29" x="367.578125"/>
     </g>
    </g>
   </g>
   <g id="matplotlib.axis_2">
    <g id="ytick_1">
     <g id="line2d_7">
      <defs>
       <path id="m3c32b5c102" d="M 0 0 
L -3.5 0 
" style="stroke: #000000; stroke-width: 0.8"/>
      </defs>
      <g>
       <use xlink:href="#m3c32b5c102" x="53.03" y="109.080154" style="stroke: #000000; stroke-width: 0.8"/>
      </g>
     </g>
     <g id="text_7">
      <!-- −20 -->
      <g transform="translate(24.925313 112.879373) scale(0.1 -0.1)">
       <defs>
        <path id="DejaVuSans-2212" d="M 678 2272 
L 4684 2272 
L 4684 1741 
L 678 1741 
L 678 2272 
z
" transform="scale(0.015625)"/>
       </defs>
       <use xlink:href="#DejaVuSans-2212"/>
       <use xlink:href="#DejaVuSans-32" x="83.789062"/>
       <use xlink:href="#DejaVuSans-30" x="147.412109"/>
      </g>
     </g>
    </g>
    <g id="ytick_2">
     <g id="line2d_8">
      <g>
       <use xlink:href="#m3c32b5c102" x="53.03" y="66.901541" style="stroke: #000000; stroke-width: 0.8"/>
      </g>
     </g>
     <g id="text_8">
      <!-- 0 -->
      <g transform="translate(39.6675 70.700759) scale(0.1 -0.1)">
       <use xlink:href="#DejaVuSans-30"/>
      </g>
     </g>
    </g>
    <g id="text_9">
     <!-- Amplitude (mV) -->
     <g transform="translate(18.845625 121.143906) rotate(-90) scale(0.1 -0.1)">
      <defs>
       <path id="DejaVuSans-41" d="M 2188 4044 
L 1331 1722 
L 3047 1722 
L 2188 4044 
z
M 1831 4666 
L 2547 4666 
L 4325 0 
L 3669 0 
L 3244 1197 
L 1141 1197 
L 716 0 
L 50 0 
L 1831 4666 
z
" transform="scale(0.015625)"/>
       <path id="DejaVuSans-70" d="M 1159 525 
L 1159 -1331 
L 581 -1331 
L 581 3500 
L 1159 3500 
L 1159 2969 
Q 1341 3281 1617 3432 
Q 1894 3584 2278 3584 
Q 2916 3584 3314 3078 
Q 3713 2572 3713 1747 
Q 3713 922 3314 415 
Q 2916 -91 2278 -91 
Q 1894 -91 1617 61 
Q 1341 213 1159 525 
z
M 3116 1747 
Q 3116 2381 2855 2742 
Q 2594 3103 2138 3103 
Q 1681 3103 1420 2742 
Q 1159 2381 1159 1747 
Q 1159 1113 1420 752 
Q 1681 391 2138 391 
Q 2594 391 2855 752 
Q 3116 1113 3116 1747 
z
" transform="scale(0.015625)"/>
       <path id="DejaVuSans-6c" d="M 603 4863 
L 1178 4863 
L 1178 0 
L 603 0 
L 603 4863 
z
" transform="scale(0.015625)"/>
       <path id="DejaVuSans-74" d="M 1172 4494 
L 1172 3500 
L 2356 3500 
L 2356 3053 
L 1172 3053 
L 1172 1153 
Q 1172 725 1289 603 
Q 1406 481 1766 481 
L 2356 481 
L 2356 0 
L 1766 0 
Q 1100 0 847 248 
Q 594 497 594 1153 
L 594 3053 
L 172 3053 
L 172 3500 
L 594 3500 
L 594 4494 
L 1172 4494 
z
" transform="scale(0.015625)"/>
       <path id="DejaVuSans-75" d="M 544 1381 
L 544 3500 
L 1119 3500 
L 1119 1403 
Q 1119 906 1312 657 
Q 1506 409 1894 409 
Q 2359 409 2629 706 
Q 2900 1003 2900 1516 
L 2900 3500 
L 3475 3500 
L 3475 0 
L 2900 0 
L 2900 538 
Q 2691 219 2414 64 
Q 2138 -91 1772 -91 
Q 1169 -91 856 284 
Q 544 659 544 1381 
z
M 1991 3584 
L 1991 3584 
z
" transform="scale(0.015625)"/>
       <path id="DejaVuSans-64" d="M 2906 2969 
L 2906 4863 
L 3481 4863 
L 3481 0 
L 2906 0 
L 2906 525 
Q 2725 213 2448 61 
Q 2172 -91 1784 -91 
Q 1150 -91 751 415 
Q 353 922 353 1747 
Q 353 2572 751 3078 
Q 1150 3584 1784 3584 
Q 2172 3584 2448 3432 
Q 2725 3281 2906 2969 
z
M 947 1747 
Q 947 1113 1208 752 
Q 1469 391 1925 391 
Q 2381 391 2643 752 
Q 2906 1113 2906 1747 
Q 2906 2381 2643 2742 
Q 2381 3103 1925 3103 
Q 1469 3103 1208 2742 
Q 947 2381 947 1747 
z
" transform="scale(0.015625)"/>
       <path id="DejaVuSans-56" d="M 1831 0 
L 50 4666 
L 709 4666 
L 2188 738 
L 3669 4666 
L 4325 4666 
L 2547 0 
L 1831 0 
z
" transform="scale(0.015625)"/>
      </defs>
      <use xlink:href="#DejaVuSans-41"/>
      <use xlink:href="#DejaVuSans-6d" x="68.408203"/>
      <use xlink:href="#DejaVuSans-70" x="165.820312"/>
      <use xlink:href="#DejaVuSans-6c" x="229.296875"/>
      <use xlink:href="#DejaVuSans-69" x="257.080078"/>
      <use xlink:href="#DejaVuSans-74" x="284.863281"/>
      <use xlink:href="#DejaVuSans-75" x="324.072266"/>
      <use xlink:href="#DejaVuSans-64" x="387.451172"/>
      <use xlink:href="#DejaVuSans-65" x="450.927734"/>
      <use xlink:href="#DejaVuSans-20" x="512.451172"/>
      <use xlink:href="#DejaVuSans-28" x="544.238281"/>
      <use xlink:href="#DejaVuSans-6d" x="583.251953"/>
      <use xlink:href="#DejaVuSans-56" x="680.664062"/>
      <use xlink:href="#DejaVuSans-29" x="749.072266"/>
     </g>
    </g>
   </g>
   <g id="line2d_9">
    <path d="M 53.03 66.987859 
L 53.570904 64.653421 
L 53.643025 64.709986 
L 53.859386 65.555016 
L 54.544531 68.65219 
L 54.724832 69.419826 
L 54.796953 69.224454 
L 54.941194 68.64291 
L 54.977254 68.708154 
L 55.121495 68.07424 
L 55.446038 65.59055 
L 55.73452 63.320518 
L 55.878761 62.814686 
L 56.059062 62.171066 
L 56.095123 62.188334 
L 56.203303 62.724434 
L 56.672087 65.518271 
L 56.780268 65.852484 
L 57.06875 66.603554 
L 57.357232 66.490664 
L 57.681774 65.703489 
L 57.753895 65.651374 
L 58.006317 64.932135 
L 58.114497 65.164818 
L 58.222678 65.583585 
L 58.547221 66.643363 
L 58.799642 68.181425 
L 59.160245 70.345879 
L 59.376607 71.22717 
L 59.412667 71.190884 
L 59.592968 70.767446 
L 60.458415 67.132419 
L 60.602656 67.369798 
L 60.927198 68.246372 
L 61.17962 68.501099 
L 61.395981 68.854137 
L 61.540223 68.745072 
L 61.576283 68.835538 
L 61.684464 68.995702 
L 61.936885 67.344282 
L 62.441729 62.990302 
L 62.54991 62.639237 
L 62.622031 62.758555 
L 63.343236 65.179553 
L 63.487477 65.922532 
L 63.559597 65.886949 
L 63.667778 65.649934 
L 64.208682 63.766184 
L 64.316863 63.678537 
L 64.677466 62.527562 
L 64.785646 62.667286 
L 64.857767 62.871542 
L 65.182309 65.258569 
L 65.506852 67.477682 
L 65.578972 67.571484 
L 65.651093 67.81066 
L 65.903515 69.012732 
L 66.011695 68.597076 
L 66.480479 65.4094 
L 66.69684 63.901042 
L 66.805021 63.753263 
L 66.841082 63.814804 
L 67.418046 66.439637 
L 67.95895 70.048354 
L 68.211372 70.651671 
L 68.644095 69.815266 
L 69.221059 66.709796 
L 69.29318 66.667168 
L 69.32924 66.718118 
L 69.617722 67.241257 
L 69.725903 67.419758 
L 69.906204 68.441092 
L 70.122566 69.498629 
L 70.158626 69.526985 
L 70.266807 69.833134 
L 70.302867 69.769243 
L 70.555289 68.966533 
L 71.168313 64.874479 
L 71.456795 63.956516 
L 71.564976 63.734407 
L 71.601037 63.766125 
L 71.673157 63.908265 
L 72.502543 67.242397 
L 72.574664 67.360152 
L 72.610724 67.323631 
L 72.682844 67.214737 
L 72.754965 67.276108 
L 73.007387 67.237647 
L 73.259809 66.266501 
L 73.548291 65.144044 
L 73.728592 65.0174 
L 73.908893 65.592388 
L 74.089195 67.036763 
L 74.485858 70.607213 
L 74.702219 71.625098 
L 74.77434 71.548471 
L 74.84646 71.477307 
L 74.954641 71.22674 
L 75.459485 68.589149 
L 76.10857 64.199277 
L 76.21675 63.916167 
L 76.288871 63.987116 
L 76.685534 65.219833 
L 76.901895 66.245779 
L 77.370679 67.253662 
L 77.442799 67.147549 
L 77.767342 65.081939 
L 77.983703 63.962454 
L 78.019764 63.912552 
L 78.091884 63.988866 
L 78.380366 64.617927 
L 78.416427 64.581826 
L 78.524607 64.477295 
L 78.632788 64.723192 
L 78.88521 65.936963 
L 79.209752 67.354387 
L 79.245813 67.457459 
L 79.281873 67.431578 
L 79.498235 66.998658 
L 79.642476 66.735193 
L 79.678536 66.842434 
L 80.111259 67.779794 
L 80.435801 67.746126 
L 80.616103 68.075712 
L 80.688223 68.039657 
L 80.760344 67.884356 
L 80.796404 67.935691 
L 81.012766 68.682575 
L 81.337308 70.145864 
L 81.373368 70.12944 
L 81.445489 70.005273 
L 81.733971 69.153563 
L 81.806092 68.99753 
L 82.094574 67.902368 
L 82.527297 65.818299 
L 82.707598 65.128462 
L 82.779719 65.196246 
L 82.92396 65.984977 
L 83.104261 67.830512 
L 83.392743 69.884102 
L 83.428803 69.969794 
L 83.464864 69.900002 
L 83.609105 69.734485 
L 83.753346 69.848739 
L 83.789406 69.718485 
L 83.933647 69.400351 
L 84.113948 68.3812 
L 84.582732 65.635111 
L 84.763033 65.458645 
L 85.159696 66.567023 
L 85.412118 67.602592 
L 85.448178 67.528651 
L 85.484239 67.499184 
L 85.520299 67.569793 
L 85.66454 67.818888 
L 85.844841 67.709293 
L 86.025143 67.94334 
L 86.205444 67.355024 
L 86.602107 65.463693 
L 87.03483 64.69384 
L 87.07089 64.791989 
L 87.467553 65.971845 
L 87.647854 67.59252 
L 87.864216 68.9042 
L 88.152698 69.247008 
L 88.36906 68.834112 
L 88.982084 66.325756 
L 89.090265 65.762518 
L 89.306627 65.105142 
L 89.414807 65.231264 
L 89.450868 65.187267 
L 89.486928 65.155033 
L 89.522988 65.197932 
L 89.847531 66.366224 
L 90.460555 68.887027 
L 90.676917 68.348675 
L 91.614484 63.5247 
L 91.686604 63.564702 
L 91.794785 63.652789 
L 92.119327 66.644745 
L 92.47993 70.003339 
L 92.588111 70.276178 
L 92.624171 70.248365 
L 93.020834 68.641139 
L 93.88628 64.058219 
L 94.066582 64.271346 
L 94.210823 64.991999 
L 94.535365 67.084123 
L 94.823847 68.273376 
L 94.932028 68.18404 
L 95.328691 65.853785 
L 95.653233 64.025862 
L 95.797474 63.590398 
L 95.833535 63.629941 
L 96.338378 65.392791 
L 96.879282 69.249043 
L 97.239885 69.237334 
L 97.564427 67.744027 
L 97.744729 66.623463 
L 98.141392 64.128495 
L 98.321693 63.815283 
L 98.538055 63.830943 
L 98.898657 64.99754 
L 99.151079 66.373974 
L 99.33138 66.819462 
L 99.439561 66.787255 
L 99.728043 67.417597 
L 99.764104 67.433194 
L 99.800164 67.347361 
L 99.908345 66.874183 
L 100.449249 63.56951 
L 100.70167 63.845265 
L 101.603177 68.717608 
L 101.711358 68.883345 
L 101.747418 68.768431 
L 102.432563 65.912361 
L 102.612864 65.311338 
L 102.757106 64.704966 
L 102.793166 64.728036 
L 102.901347 64.909297 
L 103.261949 66.932174 
L 103.694672 69.975212 
L 103.802853 70.045906 
L 104.307697 68.994293 
L 104.632239 67.474145 
L 105.028902 65.603697 
L 105.101023 65.759215 
L 105.533746 66.697474 
L 105.894349 68.172285 
L 105.930409 68.119889 
L 106.471313 65.556191 
L 107.120398 61.646654 
L 107.264639 61.633282 
L 107.697362 63.37313 
L 108.130085 66.084468 
L 108.418567 67.6292 
L 108.490688 67.783614 
L 108.562808 67.751939 
L 108.707049 67.635127 
L 109.031592 66.633281 
L 109.608556 65.071771 
L 109.860978 65.782751 
L 110.14946 67.02187 
L 110.510063 68.597385 
L 110.582183 68.476555 
L 111.231268 66.151628 
L 111.627931 63.918138 
L 111.700051 64.153062 
L 111.952473 65.534112 
L 112.745799 71.182891 
L 112.89004 71.539088 
L 113.142462 71.000085 
L 113.791547 67.920283 
L 113.899727 67.751548 
L 113.935788 67.783527 
L 114.080029 68.394008 
L 114.620933 71.449625 
L 115.053656 72.988972 
L 115.125776 72.868727 
L 115.306078 71.857411 
L 116.099404 65.093378 
L 116.387886 65.686027 
L 116.460006 65.727006 
L 116.856669 67.530858 
L 117.145151 69.14055 
L 117.181212 69.124393 
L 117.758176 67.803435 
L 117.830296 67.752716 
L 118.010598 66.677008 
L 118.226959 65.654558 
L 118.407261 65.355955 
L 118.479381 65.296883 
L 118.695743 64.97028 
L 118.876044 65.294803 
L 119.489069 67.779402 
L 119.525129 67.712713 
L 119.70543 66.974301 
L 120.029972 66.202073 
L 120.210274 65.890037 
L 120.534816 64.55153 
L 120.570876 64.612002 
L 120.931479 65.568262 
L 121.11178 66.668695 
L 121.436323 69.128836 
L 121.652684 69.940854 
L 121.724805 69.83116 
L 121.832986 69.429941 
L 122.193588 66.687445 
L 122.554191 64.106662 
L 122.806613 63.241607 
L 122.842673 63.24345 
L 123.455698 65.682471 
L 123.852361 67.611453 
L 123.960541 67.589897 
L 124.140843 67.255543 
L 124.573566 64.569596 
L 124.789927 63.819143 
L 124.934169 63.692029 
L 124.970229 63.81445 
L 125.15053 63.943252 
L 125.366892 63.689365 
L 125.439012 63.795897 
L 125.799615 64.206592 
L 126.232338 65.393502 
L 126.340519 65.686138 
L 126.376579 65.620391 
L 126.4487 65.510806 
L 126.52082 65.562016 
L 126.665061 65.65867 
L 126.773242 65.674822 
L 126.989604 65.803298 
L 127.097784 65.867335 
L 127.205965 66.010062 
L 127.242026 65.971679 
L 127.422327 66.20391 
L 127.81899 67.876177 
L 128.107472 69.422128 
L 128.540195 70.600029 
L 128.576255 70.572611 
L 128.720496 69.772794 
L 129.585943 64.376944 
L 129.658063 64.412374 
L 129.838365 64.623803 
L 129.874425 64.561683 
L 129.946545 64.426442 
L 130.307148 66.569518 
L 130.59563 68.155566 
L 130.667751 68.317508 
L 130.739871 68.260813 
L 130.775931 68.30253 
L 130.848052 68.232103 
L 130.956233 68.013183 
L 132.038041 62.782172 
L 132.110161 62.924418 
L 132.218342 63.253157 
L 132.867427 66.804231 
L 133.191969 67.711042 
L 133.33621 67.769536 
L 133.841054 66.166964 
L 134.093476 65.252979 
L 134.165596 65.161662 
L 134.237717 65.221658 
L 134.490139 66.530837 
L 135.067103 70.0567 
L 135.355585 69.003176 
L 135.391645 69.032517 
L 135.427706 69.150413 
L 135.499826 69.084383 
L 135.680128 68.267703 
L 136.365273 64.661586 
L 136.545574 64.302075 
L 136.581634 64.399103 
L 136.725875 65.047887 
L 137.122538 67.654446 
L 137.3389 67.435062 
L 137.591322 66.441764 
L 137.915864 63.834582 
L 138.348587 62.167451 
L 138.492828 62.049904 
L 138.637069 62.5117 
L 138.853431 63.745414 
L 139.214034 66.319861 
L 139.899179 70.102144 
L 139.971299 69.989467 
L 140.295841 67.879239 
L 140.548263 66.523368 
L 140.872806 66.093953 
L 141.089167 66.541291 
L 141.197348 67.059028 
L 141.48583 68.499846 
L 141.738252 69.728008 
L 141.882493 70.19884 
L 141.918553 70.184468 
L 142.026734 69.800353 
L 142.170975 68.817223 
L 142.711879 63.918079 
L 142.784 63.73134 
L 143.000361 63.119016 
L 143.144602 63.712787 
L 143.865808 67.71938 
L 144.15429 69.382046 
L 144.370651 68.91833 
L 144.587013 67.295143 
L 144.839435 65.187661 
L 145.127917 63.506057 
L 145.163977 63.518119 
L 145.452459 64.862105 
L 145.740941 66.712908 
L 145.957303 67.197595 
L 146.101544 68.11024 
L 146.281845 68.875575 
L 146.353966 68.987161 
L 146.390026 68.944029 
L 146.642448 67.525354 
L 147.003051 64.685094 
L 147.363653 62.704615 
L 147.580015 62.123669 
L 147.652136 62.23133 
L 147.796377 63.037695 
L 148.517582 68.007463 
L 148.733943 67.912985 
L 148.950305 67.206404 
L 149.59939 63.932234 
L 149.851812 63.21083 
L 149.887872 63.302428 
L 150.140294 64.289564 
L 150.356655 65.610114 
L 150.861499 70.060834 
L 151.00574 70.326874 
L 151.0418 70.322315 
L 151.294222 69.043795 
L 151.907247 65.350415 
L 151.943307 65.226638 
L 152.015428 65.371727 
L 152.33997 66.204553 
L 152.448151 66.63519 
L 153.025115 68.651263 
L 153.097236 68.772808 
L 153.169356 68.684806 
L 153.529959 67.657883 
L 153.926622 65.282967 
L 154.070863 65.135203 
L 154.251164 65.087998 
L 154.323285 65.328566 
L 154.864189 68.72818 
L 155.332972 70.653711 
L 155.477213 70.880047 
L 155.729635 69.725734 
L 156.342659 66.158517 
L 156.37872 66.166022 
L 156.45084 66.205581 
L 156.667202 67.034983 
L 157.063865 69.822652 
L 157.244166 70.255396 
L 157.352347 70.134097 
L 157.424467 69.938799 
L 158.109612 65.767189 
L 158.325974 64.53143 
L 158.470215 64.511526 
L 158.830818 63.945519 
L 158.902938 64.20805 
L 159.660204 67.07965 
L 159.948686 66.734127 
L 160.092927 66.505121 
L 160.633831 62.866675 
L 160.705951 62.948189 
L 160.994434 63.238908 
L 161.391097 64.751964 
L 162.148362 69.278568 
L 162.184422 69.163901 
L 162.328663 69.10559 
L 162.436844 69.195351 
L 162.581085 69.749884 
L 162.617146 69.681703 
L 162.869567 68.179976 
L 163.121989 66.995733 
L 163.23017 66.86872 
L 163.626833 68.852485 
L 163.915315 70.578228 
L 164.275918 70.025211 
L 164.672581 68.529077 
L 164.961063 67.671309 
L 165.465906 65.024632 
L 165.538027 64.982978 
L 165.754389 65.774037 
L 166.187112 67.980425 
L 166.619835 68.61105 
L 166.800136 67.906535 
L 167.160739 66.263524 
L 167.521342 65.22339 
L 167.809824 65.560648 
L 168.026185 66.407537 
L 168.494969 68.42499 
L 168.531029 68.481929 
L 168.60315 68.405488 
L 168.67527 68.212792 
L 168.747391 68.251327 
L 168.927692 68.206014 
L 169.252234 67.787556 
L 169.576777 65.704898 
L 169.97344 63.583153 
L 170.04556 63.759753 
L 170.947067 68.774356 
L 171.019187 68.825096 
L 171.055248 68.726186 
L 171.34373 67.645908 
L 171.704332 65.877267 
L 171.848573 65.568053 
L 171.956754 65.268051 
L 172.028875 65.28932 
L 172.425538 66.230254 
L 173.254924 70.48022 
L 173.290984 70.430271 
L 174.04825 65.568681 
L 174.336732 64.776068 
L 174.408852 64.92668 
L 174.589154 65.201907 
L 174.661274 65.346659 
L 174.841575 66.895475 
L 175.238238 70.338343 
L 175.310359 70.344016 
L 175.49066 70.626933 
L 175.52672 70.548103 
L 175.634901 70.206829 
L 175.959444 67.513416 
L 176.320046 64.631447 
L 176.536408 64.291223 
L 176.572468 64.318759 
L 176.86095 65.370056 
L 177.113372 66.946359 
L 177.293673 67.4306 
L 177.618216 69.554788 
L 177.798517 70.559675 
L 177.978818 69.989483 
L 178.591843 67.57502 
L 178.700024 67.607334 
L 178.736084 67.561926 
L 178.844265 67.505986 
L 179.168807 68.428556 
L 179.709711 71.068153 
L 179.745771 71.041491 
L 179.890013 70.935212 
L 180.106374 69.921826 
L 180.503037 67.637806 
L 180.647278 66.736286 
L 180.8997 65.661218 
L 181.404544 66.733233 
L 182.053628 69.854181 
L 182.161809 69.922989 
L 182.197869 69.872838 
L 182.342111 69.238665 
L 182.702713 67.346336 
L 182.846954 66.386766 
L 183.243617 62.934847 
L 183.351798 62.770414 
L 183.423918 62.888538 
L 183.496039 63.20228 
L 184.433606 69.178392 
L 184.613907 68.904939 
L 184.830269 68.130215 
L 185.407233 65.187382 
L 185.479354 65.237313 
L 185.623595 65.733073 
L 185.803896 66.169337 
L 186.200559 66.684671 
L 186.236619 66.663171 
L 186.272679 66.742496 
L 186.633282 67.648835 
L 186.885704 67.677891 
L 187.066005 67.727294 
L 187.534789 66.043993 
L 187.606909 66.075284 
L 187.75115 66.358476 
L 187.895391 66.337728 
L 188.147813 67.379517 
L 188.796898 71.237227 
L 188.869019 71.127207 
L 189.04932 70.836442 
L 189.337802 69.623513 
L 189.842646 66.24614 
L 190.022947 65.564313 
L 190.059007 65.602962 
L 190.38355 66.838318 
L 191.104755 72.487042 
L 191.176875 72.503276 
L 191.429297 71.6209 
L 191.609599 69.819899 
L 191.898081 67.644133 
L 192.186563 66.374597 
L 192.294744 66.575013 
L 192.511105 66.979837 
L 193.015949 68.198752 
L 193.232311 69.100883 
L 193.268371 69.039726 
L 193.556853 67.938756 
L 193.628973 67.983938 
L 193.701094 67.859047 
L 194.314119 63.364497 
L 194.386239 63.542313 
L 194.782902 65.951436 
L 195.612288 72.155305 
L 195.684409 71.964262 
L 195.972891 69.975096 
L 196.369554 67.186402 
L 196.585915 67.4599 
L 196.730156 67.748104 
L 196.766217 67.732169 
L 196.946518 67.909432 
L 196.982578 67.81246 
L 197.19894 67.157078 
L 197.19894 67.157078 
" clip-path="url(#p12f842f45c)" style="fill: none; stroke: #0000ff; stroke-width: 0.4; stroke-linecap: square"/>
   </g>
   <g id="patch_3">
    <path d="M 53.03 138.04 
L 53.03 25.44 
" style="fill: none; stroke: #000000; stroke-width: 0.8; stroke-linejoin: miter; stroke-linecap: square"/>
   </g>
   <g id="patch_4">
    <path d="M 197.235 138.04 
L 197.235 25.44 
" style="fill: none; stroke: #000000; stroke-width: 0.8; stroke-linejoin: miter; stroke-linecap: square"/>
   </g>
   <g id="patch_5">
    <path d="M 53.03 138.04 
L 197.235 138.04 
" style="fill: none; stroke: #000000; stroke-width: 0.8; stroke-linejoin: miter; stroke-linecap: square"/>
   </g>
   <g id="patch_6">
    <path d="M 53.03 25.44 
L 197.235 25.44 
" style="fill: none; stroke: #000000; stroke-width: 0.8; stroke-linejoin: miter; stroke-linecap: square"/>
   </g>
   <g id="text_10">
    <!-- Time Domain Plot -->
    <g transform="translate(72.048438 19.44) scale(0.12 -0.12)">
     <defs>
      <path id="DejaVuSans-44" d="M 1259 4147 
L 1259 519 
L 2022 519 
Q 2988 519 3436 956 
Q 3884 1394 3884 2338 
Q 3884 3275 3436 3711 
Q 2988 4147 2022 4147 
L 1259 4147 
z
M 628 4666 
L 1925 4666 
Q 3281 4666 3915 4102 
Q 4550 3538 4550 2338 
Q 4550 1131 3912 565 
Q 3275 0 1925 0 
L 628 0 
L 628 4666 
z
" transform="scale(0.015625)"/>
      <path id="DejaVuSans-6f" d="M 1959 3097 
Q 1497 3097 1228 2736 
Q 959 2375 959 1747 
Q 959 1119 1226 758 
Q 1494 397 1959 397 
Q 2419 397 2687 759 
Q 2956 1122 2956 1747 
Q 2956 2369 2687 2733 
Q 2419 3097 1959 3097 
z
M 1959 3584 
Q 2709 3584 3137 3096 
Q 3566 2609 3566 1747 
Q 3566 888 3137 398 
Q 2709 -91 1959 -91 
Q 1206 -91 779 398 
Q 353 888 353 1747 
Q 353 2609 779 3096 
Q 1206 3584 1959 3584 
z
" transform="scale(0.015625)"/>
      <path id="DejaVuSans-61" d="M 2194 1759 
Q 1497 1759 1228 1600 
Q 959 1441 959 1056 
Q 959 750 1161 570 
Q 1363 391 1709 391 
Q 2188 391 2477 730 
Q 2766 1069 2766 1631 
L 2766 1759 
L 2194 1759 
z
M 3341 1997 
L 3341 0 
L 2766 0 
L 2766 531 
Q 2569 213 2275 61 
Q 1981 -91 1556 -91 
Q 1019 -91 701 211 
Q 384 513 384 1019 
Q 384 1609 779 1909 
Q 1175 2209 1959 2209 
L 2766 2209 
L 2766 2266 
Q 2766 2663 2505 2880 
Q 2244 3097 1772 3097 
Q 1472 3097 1187 3025 
Q 903 2953 641 2809 
L 641 3341 
Q 956 3463 1253 3523 
Q 1550 3584 1831 3584 
Q 2591 3584 2966 3190 
Q 3341 2797 3341 1997 
z
" transform="scale(0.015625)"/>
      <path id="DejaVuSans-6e" d="M 3513 2113 
L 3513 0 
L 2938 0 
L 2938 2094 
Q 2938 2591 2744 2837 
Q 2550 3084 2163 3084 
Q 1697 3084 1428 2787 
Q 1159 2491 1159 1978 
L 1159 0 
L 581 0 
L 581 3500 
L 1159 3500 
L 1159 2956 
Q 1366 3272 1645 3428 
Q 1925 3584 2291 3584 
Q 2894 3584 3203 3211 
Q 3513 2838 3513 2113 
z
" transform="scale(0.015625)"/>
      <path id="DejaVuSans-50" d="M 1259 4147 
L 1259 2394 
L 2053 2394 
Q 2494 2394 2734 2622 
Q 2975 2850 2975 3272 
Q 2975 3691 2734 3919 
Q 2494 4147 2053 4147 
L 1259 4147 
z
M 628 4666 
L 2053 4666 
Q 2838 4666 3239 4311 
Q 3641 3956 3641 3272 
Q 3641 2581 3239 2228 
Q 2838 1875 2053 1875 
L 1259 1875 
L 1259 0 
L 628 0 
L 628 4666 
z
" transform="scale(0.015625)"/>
     </defs>
     <use xlink:href="#DejaVuSans-54"/>
     <use xlink:href="#DejaVuSans-69" x="57.958984"/>
     <use xlink:href="#DejaVuSans-6d" x="85.742188"/>
     <use xlink:href="#DejaVuSans-65" x="183.154297"/>
     <use xlink:href="#DejaVuSans-20" x="244.677734"/>
     <use xlink:href="#DejaVuSans-44" x="276.464844"/>
     <use xlink:href="#DejaVuSans-6f" x="353.466797"/>
     <use xlink:href="#DejaVuSans-6d" x="414.648438"/>
     <use xlink:href="#DejaVuSans-61" x="512.060547"/>
     <use xlink:href="#DejaVuSans-69" x="573.339844"/>
     <use xlink:href="#DejaVuSans-6e" x="601.123047"/>
     <use xlink:href="#DejaVuSans-20" x="664.501953"/>
     <use xlink:href="#DejaVuSans-50" x="696.289062"/>
     <use xlink:href="#DejaVuSans-6c" x="756.591797"/>
     <use xlink:href="#DejaVuSans-6f" x="784.375"/>
     <use xlink:href="#DejaVuSans-74" x="845.556641"/>
    </g>
   </g>
  </g>
 </g>
 <defs>
  <clipPath id="p12f842f45c">
   <rect x="53.03" y="25.44" width="144.205" height="112.6"/>
  </clipPath>
 </defs>
</svg>
