<?xml version="1.0" encoding="utf-8" standalone="no"?>
<!DOCTYPE svg PUBLIC "-//W3C//DTD SVG 1.1//EN"
  "http://www.w3.org/Graphics/SVG/1.1/DTD/svg11.dtd">
<svg xmlns:xlink="http://www.w3.org/1999/xlink" width="216pt" height="180pt" viewBox="0 0 216 180" xmlns="http://www.w3.org/2000/svg" version="1.1">
 <metadata>
  <rdf:RDF xmlns:dc="http://purl.org/dc/elements/1.1/" xmlns:cc="http://creativecommons.org/ns#" xmlns:rdf="http://www.w3.org/1999/02/22-rdf-syntax-ns#">
   <cc:Work>
    <dc:type rdf:resource="http://purl.org/dc/dcmitype/StillImage"/>
    <dc:date>2024-08-25T15:40:22.473430</dc:date>
    <dc:format>image/svg+xml</dc:format>
    <dc:creator>
     <cc:Agent>
      <dc:title>Matplotlib v3.9.1, https://matplotlib.org/</dc:title>
     </cc:Agent>
    </dc:creator>
   </cc:Work>
  </rdf:RDF>
 </metadata>
 <defs>
  <style type="text/css">*{stroke-linejoin: round; stroke-linecap: butt}</style>
 </defs>
 <g id="figure_1">
  <g id="patch_1">
   <path d="M 0 180 
L 216 180 
L 216 0 
L 0 0 
z
" style="fill: #ffffff"/>
  </g>
  <g id="axes_1">
   <g id="patch_2">
    <path d="M 59.52 129.12 
L 198.319362 129.12 
L 198.319362 25.44 
L 59.52 25.44 
z
" style="fill: #ffffff"/>
   </g>
   <g id="matplotlib.axis_1">
    <g id="xtick_1">
     <g id="line2d_1">
      <defs>
       <path id="m8c281b943e" d="M 0 0 
L 0 3.5 
" style="stroke: #000000; stroke-width: 0.8"/>
      </defs>
      <g>
       <use xlink:href="#m8c281b943e" x="61.538084" y="129.12" style="stroke: #000000; stroke-width: 0.8"/>
      </g>
     </g>
     <g id="text_1">
      <!-- 0 -->
      <g transform="translate(58.356834 143.718437) scale(0.1 -0.1)">
       <defs>
        <path id="DejaVuSans-30" d="M 2034 4250 
Q 1547 4250 1301 3770 
Q 1056 3291 1056 2328 
Q 1056 1369 1301 889 
Q 1547 409 2034 409 
Q 2525 409 2770 889 
Q 3016 1369 3016 2328 
Q 3016 3291 2770 3770 
Q 2525 4250 2034 4250 
z
M 2034 4750 
Q 2819 4750 3233 4129 
Q 3647 3509 3647 2328 
Q 3647 1150 3233 529 
Q 2819 -91 2034 -91 
Q 1250 -91 836 529 
Q 422 1150 422 2328 
Q 422 3509 836 4129 
Q 1250 4750 2034 4750 
z
" transform="scale(0.015625)"/>
       </defs>
       <use xlink:href="#DejaVuSans-30"/>
      </g>
     </g>
    </g>
    <g id="xtick_2">
     <g id="line2d_2">
      <g>
       <use xlink:href="#m8c281b943e" x="128.807565" y="129.12" style="stroke: #000000; stroke-width: 0.8"/>
      </g>
     </g>
     <g id="text_2">
      <!-- 150 -->
      <g transform="translate(119.263815 143.718437) scale(0.1 -0.1)">
       <defs>
        <path id="DejaVuSans-31" d="M 794 531 
L 1825 531 
L 1825 4091 
L 703 3866 
L 703 4441 
L 1819 4666 
L 2450 4666 
L 2450 531 
L 3481 531 
L 3481 0 
L 794 0 
L 794 531 
z
" transform="scale(0.015625)"/>
        <path id="DejaVuSans-35" d="M 691 4666 
L 3169 4666 
L 3169 4134 
L 1269 4134 
L 1269 2991 
Q 1406 3038 1543 3061 
Q 1681 3084 1819 3084 
Q 2600 3084 3056 2656 
Q 3513 2228 3513 1497 
Q 3513 744 3044 326 
Q 2575 -91 1722 -91 
Q 1428 -91 1123 -41 
Q 819 9 494 109 
L 494 744 
Q 775 591 1075 516 
Q 1375 441 1709 441 
Q 2250 441 2565 725 
Q 2881 1009 2881 1497 
Q 2881 1984 2565 2268 
Q 2250 2553 1709 2553 
Q 1456 2553 1204 2497 
Q 953 2441 691 2322 
L 691 4666 
z
" transform="scale(0.015625)"/>
       </defs>
       <use xlink:href="#DejaVuSans-31"/>
       <use xlink:href="#DejaVuSans-35" x="63.623047"/>
       <use xlink:href="#DejaVuSans-30" x="127.246094"/>
      </g>
     </g>
    </g>
    <g id="xtick_3">
     <g id="line2d_3">
      <g>
       <use xlink:href="#m8c281b943e" x="196.077046" y="129.12" style="stroke: #000000; stroke-width: 0.8"/>
      </g>
     </g>
     <g id="text_3">
      <!-- 300 -->
      <g transform="translate(186.533296 143.718437) scale(0.1 -0.1)">
       <defs>
        <path id="DejaVuSans-33" d="M 2597 2516 
Q 3050 2419 3304 2112 
Q 3559 1806 3559 1356 
Q 3559 666 3084 287 
Q 2609 -91 1734 -91 
Q 1441 -91 1130 -33 
Q 819 25 488 141 
L 488 750 
Q 750 597 1062 519 
Q 1375 441 1716 441 
Q 2309 441 2620 675 
Q 2931 909 2931 1356 
Q 2931 1769 2642 2001 
Q 2353 2234 1838 2234 
L 1294 2234 
L 1294 2753 
L 1863 2753 
Q 2328 2753 2575 2939 
Q 2822 3125 2822 3475 
Q 2822 3834 2567 4026 
Q 2313 4219 1838 4219 
Q 1578 4219 1281 4162 
Q 984 4106 628 3988 
L 628 4550 
Q 988 4650 1302 4700 
Q 1616 4750 1894 4750 
Q 2613 4750 3031 4423 
Q 3450 4097 3450 3541 
Q 3450 3153 3228 2886 
Q 3006 2619 2597 2516 
z
" transform="scale(0.015625)"/>
       </defs>
       <use xlink:href="#DejaVuSans-33"/>
       <use xlink:href="#DejaVuSans-30" x="63.623047"/>
       <use xlink:href="#DejaVuSans-30" x="127.246094"/>
      </g>
     </g>
    </g>
    <g id="text_4">
     <!-- Frequency (Hz) -->
     <g transform="translate(91.214993 157.396563) scale(0.1 -0.1)">
      <defs>
       <path id="DejaVuSans-46" d="M 628 4666 
L 3309 4666 
L 3309 4134 
L 1259 4134 
L 1259 2759 
L 3109 2759 
L 3109 2228 
L 1259 2228 
L 1259 0 
L 628 0 
L 628 4666 
z
" transform="scale(0.015625)"/>
       <path id="DejaVuSans-72" d="M 2631 2963 
Q 2534 3019 2420 3045 
Q 2306 3072 2169 3072 
Q 1681 3072 1420 2755 
Q 1159 2438 1159 1844 
L 1159 0 
L 581 0 
L 581 3500 
L 1159 3500 
L 1159 2956 
Q 1341 3275 1631 3429 
Q 1922 3584 2338 3584 
Q 2397 3584 2469 3576 
Q 2541 3569 2628 3553 
L 2631 2963 
z
" transform="scale(0.015625)"/>
       <path id="DejaVuSans-65" d="M 3597 1894 
L 3597 1613 
L 953 1613 
Q 991 1019 1311 708 
Q 1631 397 2203 397 
Q 2534 397 2845 478 
Q 3156 559 3463 722 
L 3463 178 
Q 3153 47 2828 -22 
Q 2503 -91 2169 -91 
Q 1331 -91 842 396 
Q 353 884 353 1716 
Q 353 2575 817 3079 
Q 1281 3584 2069 3584 
Q 2775 3584 3186 3129 
Q 3597 2675 3597 1894 
z
M 3022 2063 
Q 3016 2534 2758 2815 
Q 2500 3097 2075 3097 
Q 1594 3097 1305 2825 
Q 1016 2553 972 2059 
L 3022 2063 
z
" transform="scale(0.015625)"/>
       <path id="DejaVuSans-71" d="M 947 1747 
Q 947 1113 1208 752 
Q 1469 391 1925 391 
Q 2381 391 2643 752 
Q 2906 1113 2906 1747 
Q 2906 2381 2643 2742 
Q 2381 3103 1925 3103 
Q 1469 3103 1208 2742 
Q 947 2381 947 1747 
z
M 2906 525 
Q 2725 213 2448 61 
Q 2172 -91 1784 -91 
Q 1150 -91 751 415 
Q 353 922 353 1747 
Q 353 2572 751 3078 
Q 1150 3584 1784 3584 
Q 2172 3584 2448 3432 
Q 2725 3281 2906 2969 
L 2906 3500 
L 3481 3500 
L 3481 -1331 
L 2906 -1331 
L 2906 525 
z
" transform="scale(0.015625)"/>
       <path id="DejaVuSans-75" d="M 544 1381 
L 544 3500 
L 1119 3500 
L 1119 1403 
Q 1119 906 1312 657 
Q 1506 409 1894 409 
Q 2359 409 2629 706 
Q 2900 1003 2900 1516 
L 2900 3500 
L 3475 3500 
L 3475 0 
L 2900 0 
L 2900 538 
Q 2691 219 2414 64 
Q 2138 -91 1772 -91 
Q 1169 -91 856 284 
Q 544 659 544 1381 
z
M 1991 3584 
L 1991 3584 
z
" transform="scale(0.015625)"/>
       <path id="DejaVuSans-6e" d="M 3513 2113 
L 3513 0 
L 2938 0 
L 2938 2094 
Q 2938 2591 2744 2837 
Q 2550 3084 2163 3084 
Q 1697 3084 1428 2787 
Q 1159 2491 1159 1978 
L 1159 0 
L 581 0 
L 581 3500 
L 1159 3500 
L 1159 2956 
Q 1366 3272 1645 3428 
Q 1925 3584 2291 3584 
Q 2894 3584 3203 3211 
Q 3513 2838 3513 2113 
z
" transform="scale(0.015625)"/>
       <path id="DejaVuSans-63" d="M 3122 3366 
L 3122 2828 
Q 2878 2963 2633 3030 
Q 2388 3097 2138 3097 
Q 1578 3097 1268 2742 
Q 959 2388 959 1747 
Q 959 1106 1268 751 
Q 1578 397 2138 397 
Q 2388 397 2633 464 
Q 2878 531 3122 666 
L 3122 134 
Q 2881 22 2623 -34 
Q 2366 -91 2075 -91 
Q 1284 -91 818 406 
Q 353 903 353 1747 
Q 353 2603 823 3093 
Q 1294 3584 2113 3584 
Q 2378 3584 2631 3529 
Q 2884 3475 3122 3366 
z
" transform="scale(0.015625)"/>
       <path id="DejaVuSans-79" d="M 2059 -325 
Q 1816 -950 1584 -1140 
Q 1353 -1331 966 -1331 
L 506 -1331 
L 506 -850 
L 844 -850 
Q 1081 -850 1212 -737 
Q 1344 -625 1503 -206 
L 1606 56 
L 191 3500 
L 800 3500 
L 1894 763 
L 2988 3500 
L 3597 3500 
L 2059 -325 
z
" transform="scale(0.015625)"/>
       <path id="DejaVuSans-20" transform="scale(0.015625)"/>
       <path id="DejaVuSans-28" d="M 1984 4856 
Q 1566 4138 1362 3434 
Q 1159 2731 1159 2009 
Q 1159 1288 1364 580 
Q 1569 -128 1984 -844 
L 1484 -844 
Q 1016 -109 783 600 
Q 550 1309 550 2009 
Q 550 2706 781 3412 
Q 1013 4119 1484 4856 
L 1984 4856 
z
" transform="scale(0.015625)"/>
       <path id="DejaVuSans-48" d="M 628 4666 
L 1259 4666 
L 1259 2753 
L 3553 2753 
L 3553 4666 
L 4184 4666 
L 4184 0 
L 3553 0 
L 3553 2222 
L 1259 2222 
L 1259 0 
L 628 0 
L 628 4666 
z
" transform="scale(0.015625)"/>
       <path id="DejaVuSans-7a" d="M 353 3500 
L 3084 3500 
L 3084 2975 
L 922 459 
L 3084 459 
L 3084 0 
L 275 0 
L 275 525 
L 2438 3041 
L 353 3041 
L 353 3500 
z
" transform="scale(0.015625)"/>
       <path id="DejaVuSans-29" d="M 513 4856 
L 1013 4856 
Q 1481 4119 1714 3412 
Q 1947 2706 1947 2009 
Q 1947 1309 1714 600 
Q 1481 -109 1013 -844 
L 513 -844 
Q 928 -128 1133 580 
Q 1338 1288 1338 2009 
Q 1338 2731 1133 3434 
Q 928 4138 513 4856 
z
" transform="scale(0.015625)"/>
      </defs>
      <use xlink:href="#DejaVuSans-46"/>
      <use xlink:href="#DejaVuSans-72" x="50.269531"/>
      <use xlink:href="#DejaVuSans-65" x="89.132812"/>
      <use xlink:href="#DejaVuSans-71" x="150.65625"/>
      <use xlink:href="#DejaVuSans-75" x="214.132812"/>
      <use xlink:href="#DejaVuSans-65" x="277.511719"/>
      <use xlink:href="#DejaVuSans-6e" x="339.035156"/>
      <use xlink:href="#DejaVuSans-63" x="402.414062"/>
      <use xlink:href="#DejaVuSans-79" x="457.394531"/>
      <use xlink:href="#DejaVuSans-20" x="516.574219"/>
      <use xlink:href="#DejaVuSans-28" x="548.361328"/>
      <use xlink:href="#DejaVuSans-48" x="587.375"/>
      <use xlink:href="#DejaVuSans-7a" x="662.570312"/>
      <use xlink:href="#DejaVuSans-29" x="715.060547"/>
     </g>
    </g>
   </g>
   <g id="matplotlib.axis_2">
    <g id="ytick_1">
     <g id="line2d_4">
      <defs>
       <path id="m395af4771c" d="M 0 0 
L -3.5 0 
" style="stroke: #000000; stroke-width: 0.8"/>
      </defs>
      <g>
       <use xlink:href="#m395af4771c" x="59.52" y="105.105266" style="stroke: #000000; stroke-width: 0.8"/>
      </g>
     </g>
     <g id="text_5">
      <!-- $\mathdefault{10^{-3}}$ -->
      <g transform="translate(29.02 108.904484) scale(0.1 -0.1)">
       <defs>
        <path id="DejaVuSans-2212" d="M 678 2272 
L 4684 2272 
L 4684 1741 
L 678 1741 
L 678 2272 
z
" transform="scale(0.015625)"/>
       </defs>
       <use xlink:href="#DejaVuSans-31" transform="translate(0 0.765625)"/>
       <use xlink:href="#DejaVuSans-30" transform="translate(63.623047 0.765625)"/>
       <use xlink:href="#DejaVuSans-2212" transform="translate(128.203125 39.046875) scale(0.7)"/>
       <use xlink:href="#DejaVuSans-33" transform="translate(186.855469 39.046875) scale(0.7)"/>
      </g>
     </g>
    </g>
    <g id="ytick_2">
     <g id="line2d_5">
      <g>
       <use xlink:href="#m395af4771c" x="59.52" y="78.070095" style="stroke: #000000; stroke-width: 0.8"/>
      </g>
     </g>
     <g id="text_6">
      <!-- $\mathdefault{10^{0}}$ -->
      <g transform="translate(34.92 81.869314) scale(0.1 -0.1)">
       <use xlink:href="#DejaVuSans-31" transform="translate(0 0.765625)"/>
       <use xlink:href="#DejaVuSans-30" transform="translate(63.623047 0.765625)"/>
       <use xlink:href="#DejaVuSans-30" transform="translate(128.203125 39.046875) scale(0.7)"/>
      </g>
     </g>
    </g>
    <g id="ytick_3">
     <g id="line2d_6">
      <g>
       <use xlink:href="#m395af4771c" x="59.52" y="51.034925" style="stroke: #000000; stroke-width: 0.8"/>
      </g>
     </g>
     <g id="text_7">
      <!-- $\mathdefault{10^{3}}$ -->
      <g transform="translate(34.92 54.834144) scale(0.1 -0.1)">
       <use xlink:href="#DejaVuSans-31" transform="translate(0 0.765625)"/>
       <use xlink:href="#DejaVuSans-30" transform="translate(63.623047 0.765625)"/>
       <use xlink:href="#DejaVuSans-33" transform="translate(128.203125 39.046875) scale(0.7)"/>
      </g>
     </g>
    </g>
    <g id="text_8">
     <!-- Log power (dB/Hz) -->
     <g transform="translate(22.940312 123.419844) rotate(-90) scale(0.1 -0.1)">
      <defs>
       <path id="DejaVuSans-4c" d="M 628 4666 
L 1259 4666 
L 1259 531 
L 3531 531 
L 3531 0 
L 628 0 
L 628 4666 
z
" transform="scale(0.015625)"/>
       <path id="DejaVuSans-6f" d="M 1959 3097 
Q 1497 3097 1228 2736 
Q 959 2375 959 1747 
Q 959 1119 1226 758 
Q 1494 397 1959 397 
Q 2419 397 2687 759 
Q 2956 1122 2956 1747 
Q 2956 2369 2687 2733 
Q 2419 3097 1959 3097 
z
M 1959 3584 
Q 2709 3584 3137 3096 
Q 3566 2609 3566 1747 
Q 3566 888 3137 398 
Q 2709 -91 1959 -91 
Q 1206 -91 779 398 
Q 353 888 353 1747 
Q 353 2609 779 3096 
Q 1206 3584 1959 3584 
z
" transform="scale(0.015625)"/>
       <path id="DejaVuSans-67" d="M 2906 1791 
Q 2906 2416 2648 2759 
Q 2391 3103 1925 3103 
Q 1463 3103 1205 2759 
Q 947 2416 947 1791 
Q 947 1169 1205 825 
Q 1463 481 1925 481 
Q 2391 481 2648 825 
Q 2906 1169 2906 1791 
z
M 3481 434 
Q 3481 -459 3084 -895 
Q 2688 -1331 1869 -1331 
Q 1566 -1331 1297 -1286 
Q 1028 -1241 775 -1147 
L 775 -588 
Q 1028 -725 1275 -790 
Q 1522 -856 1778 -856 
Q 2344 -856 2625 -561 
Q 2906 -266 2906 331 
L 2906 616 
Q 2728 306 2450 153 
Q 2172 0 1784 0 
Q 1141 0 747 490 
Q 353 981 353 1791 
Q 353 2603 747 3093 
Q 1141 3584 1784 3584 
Q 2172 3584 2450 3431 
Q 2728 3278 2906 2969 
L 2906 3500 
L 3481 3500 
L 3481 434 
z
" transform="scale(0.015625)"/>
       <path id="DejaVuSans-70" d="M 1159 525 
L 1159 -1331 
L 581 -1331 
L 581 3500 
L 1159 3500 
L 1159 2969 
Q 1341 3281 1617 3432 
Q 1894 3584 2278 3584 
Q 2916 3584 3314 3078 
Q 3713 2572 3713 1747 
Q 3713 922 3314 415 
Q 2916 -91 2278 -91 
Q 1894 -91 1617 61 
Q 1341 213 1159 525 
z
M 3116 1747 
Q 3116 2381 2855 2742 
Q 2594 3103 2138 3103 
Q 1681 3103 1420 2742 
Q 1159 2381 1159 1747 
Q 1159 1113 1420 752 
Q 1681 391 2138 391 
Q 2594 391 2855 752 
Q 3116 1113 3116 1747 
z
" transform="scale(0.015625)"/>
       <path id="DejaVuSans-77" d="M 269 3500 
L 844 3500 
L 1563 769 
L 2278 3500 
L 2956 3500 
L 3675 769 
L 4391 3500 
L 4966 3500 
L 4050 0 
L 3372 0 
L 2619 2869 
L 1863 0 
L 1184 0 
L 269 3500 
z
" transform="scale(0.015625)"/>
       <path id="DejaVuSans-64" d="M 2906 2969 
L 2906 4863 
L 3481 4863 
L 3481 0 
L 2906 0 
L 2906 525 
Q 2725 213 2448 61 
Q 2172 -91 1784 -91 
Q 1150 -91 751 415 
Q 353 922 353 1747 
Q 353 2572 751 3078 
Q 1150 3584 1784 3584 
Q 2172 3584 2448 3432 
Q 2725 3281 2906 2969 
z
M 947 1747 
Q 947 1113 1208 752 
Q 1469 391 1925 391 
Q 2381 391 2643 752 
Q 2906 1113 2906 1747 
Q 2906 2381 2643 2742 
Q 2381 3103 1925 3103 
Q 1469 3103 1208 2742 
Q 947 2381 947 1747 
z
" transform="scale(0.015625)"/>
       <path id="DejaVuSans-42" d="M 1259 2228 
L 1259 519 
L 2272 519 
Q 2781 519 3026 730 
Q 3272 941 3272 1375 
Q 3272 1813 3026 2020 
Q 2781 2228 2272 2228 
L 1259 2228 
z
M 1259 4147 
L 1259 2741 
L 2194 2741 
Q 2656 2741 2882 2914 
Q 3109 3088 3109 3444 
Q 3109 3797 2882 3972 
Q 2656 4147 2194 4147 
L 1259 4147 
z
M 628 4666 
L 2241 4666 
Q 2963 4666 3353 4366 
Q 3744 4066 3744 3513 
Q 3744 3084 3544 2831 
Q 3344 2578 2956 2516 
Q 3422 2416 3680 2098 
Q 3938 1781 3938 1306 
Q 3938 681 3513 340 
Q 3088 0 2303 0 
L 628 0 
L 628 4666 
z
" transform="scale(0.015625)"/>
       <path id="DejaVuSans-2f" d="M 1625 4666 
L 2156 4666 
L 531 -594 
L 0 -594 
L 1625 4666 
z
" transform="scale(0.015625)"/>
      </defs>
      <use xlink:href="#DejaVuSans-4c"/>
      <use xlink:href="#DejaVuSans-6f" x="53.962891"/>
      <use xlink:href="#DejaVuSans-67" x="115.144531"/>
      <use xlink:href="#DejaVuSans-20" x="178.621094"/>
      <use xlink:href="#DejaVuSans-70" x="210.408203"/>
      <use xlink:href="#DejaVuSans-6f" x="273.884766"/>
      <use xlink:href="#DejaVuSans-77" x="335.066406"/>
      <use xlink:href="#DejaVuSans-65" x="416.853516"/>
      <use xlink:href="#DejaVuSans-72" x="478.376953"/>
      <use xlink:href="#DejaVuSans-20" x="519.490234"/>
      <use xlink:href="#DejaVuSans-28" x="551.277344"/>
      <use xlink:href="#DejaVuSans-64" x="590.291016"/>
      <use xlink:href="#DejaVuSans-42" x="653.767578"/>
      <use xlink:href="#DejaVuSans-2f" x="722.371094"/>
      <use xlink:href="#DejaVuSans-48" x="756.0625"/>
      <use xlink:href="#DejaVuSans-7a" x="831.257812"/>
      <use xlink:href="#DejaVuSans-29" x="883.748047"/>
     </g>
    </g>
   </g>
   <g id="line2d_7">
    <path d="M 61.762316 61.924218 
L 61.986548 62.774859 
L 62.210779 69.175861 
L 62.435011 61.672205 
L 62.659242 63.009471 
L 62.883474 58.808193 
L 63.107706 68.855856 
L 63.331937 58.49026 
L 63.7804 66.33543 
L 64.004632 60.914703 
L 64.453095 70.87461 
L 64.677327 62.543861 
L 64.901558 68.924922 
L 65.12579 70.388739 
L 65.350022 64.424146 
L 65.574253 69.402533 
L 65.798485 82.513588 
L 66.022716 63.786802 
L 66.246948 67.768254 
L 66.47118 62.068155 
L 66.695411 74.704029 
L 66.919643 67.640636 
L 67.143874 67.819308 
L 67.368106 70.876393 
L 67.592338 64.491396 
L 67.816569 64.131291 
L 68.040801 79.788073 
L 68.489264 65.832083 
L 68.713496 65.232688 
L 68.937727 66.520892 
L 69.161959 68.463321 
L 69.386191 64.480687 
L 69.610422 70.881228 
L 69.834654 68.279424 
L 70.058885 52.01397 
L 70.283117 70.193623 
L 70.507349 71.897743 
L 70.73158 65.849562 
L 70.955812 70.586343 
L 71.180043 62.208411 
L 71.404275 73.184951 
L 71.628507 66.71674 
L 71.852738 72.960979 
L 72.07697 64.523673 
L 72.525433 78.37752 
L 72.749665 74.197917 
L 72.973896 75.725225 
L 73.198128 68.999383 
L 73.422359 67.476063 
L 73.646591 65.151844 
L 73.870823 69.902325 
L 74.095054 68.811847 
L 74.319286 73.236134 
L 74.543517 64.096597 
L 74.767749 65.825228 
L 74.991981 73.285299 
L 75.216212 73.434441 
L 75.440444 76.044997 
L 75.664675 68.789817 
L 75.888907 75.0689 
L 76.113139 64.572014 
L 76.33737 69.329878 
L 76.561602 67.693201 
L 76.785833 72.680609 
L 77.010065 73.127074 
L 77.234297 73.226214 
L 77.458528 61.558707 
L 77.68276 74.52034 
L 77.906991 72.964583 
L 78.355455 66.357182 
L 78.803918 71.179834 
L 79.028149 70.531676 
L 79.252381 64.21888 
L 79.476613 81.336691 
L 79.700844 67.905986 
L 79.925076 61.670015 
L 80.149307 67.929095 
L 80.822002 62.771533 
L 81.046234 77.161833 
L 81.270465 64.203178 
L 81.494697 74.760752 
L 81.718929 65.591386 
L 81.94316 65.034765 
L 82.167392 73.080391 
L 82.391623 65.641256 
L 82.615855 66.888684 
L 82.840087 77.621278 
L 83.064318 72.758226 
L 83.28855 63.785354 
L 83.512781 70.169492 
L 83.737013 68.180895 
L 83.961245 77.234173 
L 84.185476 62.603121 
L 84.633939 68.982288 
L 84.858171 80.480066 
L 85.082403 65.408363 
L 85.530866 77.249146 
L 85.755097 78.758406 
L 85.979329 63.309478 
L 86.427792 66.982088 
L 86.652024 66.091081 
L 86.876255 83.817443 
L 87.100487 69.924167 
L 87.54895 64.445241 
L 87.773182 74.51563 
L 88.221645 63.927148 
L 88.445877 74.644835 
L 88.670108 70.010736 
L 88.89434 71.076042 
L 89.118572 67.436032 
L 89.342803 73.531119 
L 89.567035 72.461984 
L 89.791266 77.879668 
L 90.015498 68.496452 
L 90.23973 71.018037 
L 90.463961 68.2654 
L 90.688193 74.366978 
L 90.912424 61.789999 
L 91.136656 68.259601 
L 91.360888 81.311615 
L 91.585119 67.006054 
L 91.809351 65.500521 
L 92.033582 71.230657 
L 92.257814 80.475127 
L 92.482046 65.297552 
L 92.706277 67.228362 
L 92.930509 63.699463 
L 93.15474 63.082384 
L 93.603204 84.183764 
L 93.827435 69.473554 
L 94.051667 64.369101 
L 94.275898 70.177042 
L 94.50013 65.199826 
L 94.724362 63.19724 
L 94.948593 62.353595 
L 95.172825 72.072064 
L 95.397056 69.752459 
L 95.621288 73.933732 
L 95.84552 64.641793 
L 96.293983 78.138646 
L 96.518214 65.298766 
L 96.742446 67.197707 
L 96.966678 71.570716 
L 97.190909 63.811082 
L 97.415141 64.458723 
L 97.639372 70.220939 
L 97.863604 62.22454 
L 98.087836 73.141673 
L 98.312067 62.197972 
L 98.536299 64.964482 
L 98.76053 64.214847 
L 98.984762 66.285555 
L 99.208994 60.685974 
L 99.657457 81.179973 
L 99.881688 63.829543 
L 100.10592 71.13883 
L 100.330152 72.763931 
L 100.554383 64.533481 
L 100.778615 63.09831 
L 101.002846 70.407328 
L 101.227078 70.942913 
L 101.45131 76.464205 
L 101.675541 58.326439 
L 101.899773 69.564091 
L 102.124004 71.615825 
L 102.348236 70.107995 
L 102.572468 64.90069 
L 102.796699 73.25975 
L 103.020931 64.217025 
L 103.245162 78.268504 
L 103.469394 64.83754 
L 104.142089 77.392946 
L 104.36632 64.659633 
L 104.590552 63.462838 
L 104.814784 69.821056 
L 105.039015 72.06878 
L 105.263247 64.944559 
L 105.487478 67.548219 
L 105.71171 66.746789 
L 105.935942 73.70717 
L 106.384405 64.450228 
L 106.608637 66.224575 
L 106.832868 65.511027 
L 107.0571 64.09338 
L 107.281331 67.548383 
L 107.505563 65.999789 
L 107.729795 68.569812 
L 107.954026 58.499496 
L 108.178258 67.33221 
L 108.402489 70.3315 
L 108.626721 67.080109 
L 109.075184 65.357392 
L 109.299416 67.451847 
L 109.523647 74.452015 
L 109.747879 72.282109 
L 109.972111 67.869425 
L 110.196342 66.445609 
L 110.420574 66.261662 
L 110.869037 70.51385 
L 111.093269 71.219756 
L 111.541732 64.260325 
L 111.765963 76.687519 
L 111.990195 68.595837 
L 112.214427 65.106299 
L 112.438658 83.990248 
L 112.66289 66.397353 
L 112.887121 79.431158 
L 113.111353 63.090748 
L 113.335585 68.957281 
L 113.559816 65.641906 
L 113.784048 66.458164 
L 114.008279 73.457581 
L 114.232511 70.734578 
L 114.456743 75.653057 
L 114.680974 73.121112 
L 114.905206 65.227808 
L 115.129437 65.446499 
L 115.353669 67.681474 
L 115.802132 62.031081 
L 116.026364 67.835897 
L 116.250595 66.695714 
L 116.474827 67.406 
L 116.699059 76.106152 
L 116.92329 65.092199 
L 117.147522 60.873403 
L 117.371753 78.923937 
L 117.595985 30.152727 
L 117.820217 86.698768 
L 118.044448 61.126387 
L 118.26868 65.455128 
L 118.492911 80.425007 
L 118.717143 67.923955 
L 118.941375 67.811144 
L 119.165606 69.114834 
L 119.389838 62.28878 
L 119.838301 68.133221 
L 120.062533 65.765731 
L 120.286764 65.76734 
L 120.510996 72.322618 
L 120.735227 75.135949 
L 120.959459 71.427435 
L 121.183691 73.706879 
L 121.407922 66.558407 
L 121.632154 67.807886 
L 121.856385 70.385142 
L 122.080617 64.478119 
L 122.304849 80.388003 
L 122.52908 67.719261 
L 122.753312 88.731517 
L 122.977543 65.6162 
L 123.426007 75.997927 
L 123.650238 65.270938 
L 123.87447 68.228156 
L 124.098701 72.838421 
L 124.322933 72.299916 
L 124.547165 70.480216 
L 124.771396 67.21777 
L 124.995628 67.837781 
L 125.219859 69.333748 
L 125.444091 72.734351 
L 125.668323 77.996999 
L 125.892554 69.602202 
L 126.116786 67.445117 
L 126.565249 69.298526 
L 126.789481 72.463247 
L 127.013712 69.706659 
L 127.237944 60.587972 
L 127.462176 70.712846 
L 127.686407 68.494661 
L 127.910639 70.129604 
L 128.13487 67.306755 
L 128.359102 68.98788 
L 128.583334 68.649865 
L 128.807565 66.985422 
L 129.031797 74.493804 
L 129.256028 75.829145 
L 129.48026 69.58835 
L 129.704492 71.015635 
L 129.928723 69.342539 
L 130.152955 77.829956 
L 130.601418 66.211776 
L 130.82565 68.280919 
L 131.049881 76.879964 
L 131.274113 77.217818 
L 131.722576 67.824082 
L 131.946808 81.162974 
L 132.171039 67.367923 
L 132.395271 74.175642 
L 132.619502 68.453501 
L 132.843734 74.569582 
L 133.067966 75.415105 
L 133.292197 73.401308 
L 133.516429 62.163345 
L 133.74066 79.153117 
L 134.189124 73.054361 
L 134.413355 67.005726 
L 134.637587 69.520483 
L 134.861818 78.010434 
L 135.08605 75.552119 
L 135.310282 68.73175 
L 135.534513 81.945225 
L 135.758745 77.90784 
L 135.982976 65.244557 
L 136.207208 73.221719 
L 136.43144 68.455446 
L 136.655671 69.471842 
L 136.879903 67.498235 
L 137.104134 78.055896 
L 137.328366 67.305697 
L 137.552598 77.298085 
L 137.776829 71.208596 
L 138.001061 69.071453 
L 138.225292 77.2637 
L 138.449524 72.53182 
L 138.673756 71.625176 
L 138.897987 86.151076 
L 139.34645 70.521859 
L 139.570682 79.788498 
L 139.794914 75.070899 
L 140.019145 78.984873 
L 140.243377 68.260263 
L 140.467608 68.987192 
L 140.69184 71.382094 
L 140.916072 77.411074 
L 141.140303 70.757978 
L 141.364535 77.134638 
L 141.588766 89.548257 
L 141.812998 83.107774 
L 142.03723 69.432285 
L 142.485693 72.970793 
L 142.709924 71.606665 
L 142.934156 86.667454 
L 143.158388 77.007789 
L 143.382619 74.154777 
L 143.606851 72.797824 
L 143.831082 83.379519 
L 144.279546 69.698119 
L 144.503777 82.792255 
L 144.728009 77.520664 
L 144.952241 78.02805 
L 145.176472 76.306978 
L 145.400704 84.111566 
L 145.624935 78.335856 
L 145.849167 94.266157 
L 146.073399 79.319585 
L 146.29763 79.586772 
L 146.521862 78.181022 
L 146.746093 84.702633 
L 146.970325 71.978269 
L 147.418788 84.623402 
L 147.64302 75.075636 
L 147.867251 75.731356 
L 148.315715 88.340752 
L 148.539946 75.518316 
L 148.764178 76.284343 
L 148.988409 74.931663 
L 149.212641 72.623193 
L 149.436873 95.004982 
L 150.109567 75.981832 
L 150.333799 86.296357 
L 150.558031 76.984224 
L 150.782262 75.458712 
L 151.006494 75.702729 
L 151.230725 84.185174 
L 151.454957 80.901338 
L 151.679189 85.411979 
L 151.90342 77.93204 
L 152.127652 88.652188 
L 152.351883 92.330977 
L 152.576115 80.53246 
L 152.800347 81.14301 
L 153.024578 84.082871 
L 153.24881 77.932557 
L 153.473041 80.476714 
L 153.697273 85.691474 
L 153.921505 77.442483 
L 154.145736 95.042697 
L 154.369968 78.054616 
L 154.594199 80.14278 
L 154.818431 80.007365 
L 155.042663 85.552107 
L 155.266894 78.506321 
L 155.491126 92.122087 
L 155.715357 89.086809 
L 155.939589 82.441115 
L 156.388052 91.016719 
L 156.612284 81.068886 
L 156.836515 79.171591 
L 157.284979 92.791917 
L 157.50921 88.922457 
L 157.733442 75.05033 
L 157.957673 88.007877 
L 158.181905 87.141825 
L 158.406137 89.456279 
L 158.630368 82.666425 
L 158.8546 95.356538 
L 159.078831 81.38605 
L 159.303063 100.207481 
L 159.527295 82.702819 
L 159.975758 89.331795 
L 160.199989 89.613216 
L 160.424221 80.197784 
L 160.648453 80.674765 
L 161.096916 90.085698 
L 161.321147 82.743198 
L 161.545379 83.818739 
L 161.769611 82.503305 
L 161.993842 90.48917 
L 162.442305 79.268116 
L 162.666537 80.968935 
L 162.890769 80.863983 
L 163.115 79.56486 
L 163.339232 82.627815 
L 163.563464 80.767511 
L 163.787695 82.97245 
L 164.011927 73.045221 
L 164.46039 87.460713 
L 164.684622 79.920338 
L 164.908853 80.32685 
L 165.133085 80.393011 
L 165.357316 79.596842 
L 165.581548 86.840181 
L 165.80578 84.637519 
L 166.254243 78.465693 
L 166.478474 78.626057 
L 166.702706 83.335233 
L 166.926938 81.496059 
L 167.151169 83.298642 
L 167.599632 75.427187 
L 167.823864 85.287108 
L 168.272327 75.983554 
L 168.496559 100.552596 
L 168.72079 77.635958 
L 168.945022 90.653464 
L 169.169254 74.446688 
L 169.393485 80.296396 
L 169.617717 76.482068 
L 169.841948 76.000176 
L 170.06618 84.38849 
L 170.290412 82.183422 
L 170.514643 87.571101 
L 170.963106 76.137583 
L 171.187338 74.440268 
L 171.41157 78.645884 
L 171.860033 71.93513 
L 172.084264 77.386646 
L 172.308496 77.681487 
L 172.532728 76.928988 
L 172.756959 85.559021 
L 172.981191 74.814363 
L 173.205422 70.265212 
L 173.429654 88.610352 
L 173.653886 39.340866 
L 173.878117 89.685879 
L 174.102349 69.918827 
L 174.32658 74.729149 
L 174.550812 86.960049 
L 174.775044 76.600696 
L 174.999275 76.139763 
L 175.223507 76.88549 
L 175.447738 71.386807 
L 175.896202 77.136951 
L 176.120433 73.53629 
L 176.344665 73.999159 
L 176.793128 85.895489 
L 177.01736 79.793998 
L 177.241591 80.780029 
L 177.465823 74.509086 
L 177.690054 74.75747 
L 177.914286 77.933232 
L 178.138518 72.203672 
L 178.362749 92.544366 
L 178.586981 74.871405 
L 178.811212 91.86571 
L 179.035444 72.896112 
L 179.259676 76.798071 
L 179.483907 83.743763 
L 179.708139 72.366297 
L 179.93237 75.325993 
L 180.156602 80.52324 
L 180.380834 78.800877 
L 180.605065 78.006993 
L 180.829297 74.464139 
L 181.27776 76.50499 
L 181.726223 83.529934 
L 181.950455 75.39566 
L 182.174687 73.818483 
L 182.398918 75.371731 
L 182.62315 76.082623 
L 182.847381 79.92498 
L 183.071613 75.716388 
L 183.295845 67.110736 
L 183.520076 77.594263 
L 183.744308 74.670497 
L 183.968539 76.246519 
L 184.192771 73.293042 
L 184.641234 74.982076 
L 184.865466 73.234382 
L 185.313929 83.037413 
L 185.538161 75.568373 
L 185.762392 76.255691 
L 185.986624 74.453537 
L 186.210855 82.466176 
L 186.435087 78.912382 
L 186.659319 71.823409 
L 186.88355 73.613206 
L 187.107782 85.090806 
L 187.332013 82.85278 
L 187.780477 73.642137 
L 188.004708 88.189927 
L 188.22894 72.44224 
L 188.453171 81.821314 
L 188.677403 74.063689 
L 188.901635 78.535767 
L 189.125866 80.09015 
L 189.350098 78.971908 
L 189.574329 66.97738 
L 189.798561 84.504343 
L 190.247024 78.991999 
L 190.471256 71.764663 
L 190.695487 74.036066 
L 190.919719 82.414486 
L 191.143951 80.057974 
L 191.368182 73.490284 
L 191.592414 87.341764 
L 191.816645 82.870857 
L 192.040877 69.713799 
L 192.265109 77.64346 
L 192.48934 72.61576 
L 192.713572 73.962155 
L 192.937803 70.798346 
L 193.162035 84.162552 
L 193.386267 71.411877 
L 193.610498 80.947942 
L 193.83473 75.227233 
L 194.058961 73.074237 
L 194.283193 79.93568 
L 194.507425 76.747259 
L 194.731656 75.177051 
L 194.955888 89.617573 
L 195.404351 74.162997 
L 195.628583 82.031274 
L 195.852814 78.242282 
L 195.852814 78.242282 
" clip-path="url(#p3baf77f399)" style="fill: none; stroke: #808080; stroke-width: 0.8; stroke-linecap: square"/>
   </g>
   <g id="line2d_8">
    <path d="M 61.762316 62.302836 
L 61.986548 68.991883 
L 62.210779 66.400143 
L 62.435011 62.379773 
L 62.659242 65.083846 
L 62.883474 58.957209 
L 63.107706 70.525047 
L 63.331937 62.273139 
L 63.556169 66.204323 
L 63.7804 65.333352 
L 64.004632 63.952001 
L 64.228864 68.764733 
L 64.453095 70.309923 
L 64.677327 62.878562 
L 64.901558 72.084181 
L 65.350022 65.763533 
L 65.574253 74.780389 
L 65.798485 74.33491 
L 66.246948 67.953521 
L 66.47118 63.46005 
L 66.695411 73.689252 
L 66.919643 67.789389 
L 67.143874 74.227096 
L 67.368106 68.527053 
L 67.592338 69.489318 
L 67.816569 64.46509 
L 68.040801 72.084011 
L 68.265032 67.923647 
L 68.489264 68.353978 
L 68.937727 74.024769 
L 69.161959 72.921465 
L 69.386191 65.372865 
L 69.610422 74.186837 
L 69.834654 77.171933 
L 70.058885 51.142751 
L 70.283117 66.591145 
L 70.507349 73.436232 
L 70.73158 68.639088 
L 70.955812 72.289205 
L 71.180043 70.8438 
L 71.404275 74.064377 
L 71.628507 72.784802 
L 71.852738 66.645703 
L 72.07697 71.797196 
L 72.301201 83.406408 
L 72.525433 70.838241 
L 72.749665 70.858384 
L 72.973896 69.682919 
L 73.198128 67.491339 
L 73.422359 71.659769 
L 73.646591 70.213732 
L 73.870823 77.482071 
L 74.095054 70.014803 
L 74.319286 87.131739 
L 74.543517 75.6984 
L 74.767749 77.773593 
L 74.991981 75.113376 
L 75.216212 77.426727 
L 75.440444 76.174804 
L 75.664675 73.451788 
L 75.888907 72.63491 
L 76.113139 74.929523 
L 76.33737 69.551184 
L 76.561602 96.567696 
L 76.785833 79.490609 
L 77.010065 87.310243 
L 77.234297 77.82337 
L 77.68276 74.621236 
L 77.906991 76.737322 
L 78.131223 76.737067 
L 78.355455 79.430377 
L 78.579686 76.784472 
L 78.803918 75.645496 
L 79.028149 76.231501 
L 79.252381 74.618832 
L 79.476613 76.966695 
L 79.700844 71.575656 
L 79.925076 70.090347 
L 80.149307 74.494382 
L 80.373539 82.778879 
L 80.597771 74.801072 
L 80.822002 74.352892 
L 81.046234 86.364072 
L 81.270465 86.023599 
L 81.494697 84.404049 
L 81.718929 75.840825 
L 81.94316 74.710697 
L 82.167392 77.288338 
L 82.391623 73.072232 
L 82.615855 88.556218 
L 82.840087 81.169585 
L 83.064318 83.300175 
L 83.28855 75.314684 
L 83.512781 75.350093 
L 83.961245 81.802284 
L 84.185476 82.05175 
L 84.409708 76.223099 
L 84.633939 75.126618 
L 84.858171 76.853706 
L 85.082403 85.065295 
L 85.306634 83.640243 
L 85.530866 86.394784 
L 85.755097 87.067607 
L 85.979329 74.521816 
L 86.203561 89.697971 
L 86.427792 80.139018 
L 86.652024 82.620738 
L 86.876255 83.650077 
L 87.100487 86.09398 
L 87.324719 80.945461 
L 87.773182 78.183846 
L 87.997414 89.059011 
L 88.221645 79.343917 
L 88.445877 88.83266 
L 88.670108 90.096944 
L 88.89434 82.816454 
L 89.342803 79.764001 
L 89.567035 84.339285 
L 89.791266 82.026632 
L 90.015498 89.163451 
L 90.463961 83.262858 
L 90.688193 82.585094 
L 90.912424 77.960684 
L 91.136656 93.698174 
L 91.585119 75.464514 
L 91.809351 89.84979 
L 92.033582 83.068817 
L 92.482046 88.729822 
L 92.706277 77.67023 
L 92.930509 82.77282 
L 93.15474 80.163156 
L 93.378972 80.242315 
L 93.603204 77.746351 
L 93.827435 84.092329 
L 94.051667 83.117663 
L 94.275898 77.418364 
L 94.50013 83.46399 
L 94.948593 79.253937 
L 95.172825 86.504963 
L 95.397056 87.455517 
L 95.621288 81.571042 
L 95.84552 87.966246 
L 96.069751 85.29145 
L 96.293983 87.072531 
L 96.518214 84.082305 
L 96.742446 85.28053 
L 96.966678 81.025486 
L 97.190909 93.960303 
L 97.415141 78.462511 
L 97.639372 83.048776 
L 97.863604 83.255207 
L 98.087836 89.065059 
L 98.312067 84.910726 
L 98.536299 86.168829 
L 98.76053 82.445737 
L 98.984762 76.706425 
L 99.208994 92.019809 
L 99.433225 83.094451 
L 99.657457 86.09577 
L 99.881688 83.984977 
L 100.10592 88.197827 
L 100.330152 83.439186 
L 100.554383 86.967348 
L 100.778615 93.974136 
L 101.002846 84.771123 
L 101.227078 83.728953 
L 101.45131 85.523322 
L 101.675541 85.218824 
L 101.899773 105.244527 
L 102.124004 92.79732 
L 102.348236 90.067889 
L 102.572468 79.141913 
L 103.245162 89.555232 
L 103.469394 88.606924 
L 103.693626 81.195852 
L 103.917857 83.155025 
L 104.36632 94.435955 
L 104.590552 88.861151 
L 105.039015 86.20944 
L 105.263247 80.130313 
L 105.487478 98.624741 
L 105.71171 95.078412 
L 106.160173 85.810834 
L 106.384405 89.523918 
L 106.608637 87.234494 
L 106.832868 80.675825 
L 107.0571 82.431073 
L 107.281331 87.723222 
L 107.505563 96.622021 
L 107.729795 92.783467 
L 107.954026 98.710019 
L 108.178258 85.71521 
L 108.402489 84.925553 
L 108.626721 88.875884 
L 108.850953 89.771392 
L 109.075184 98.523615 
L 109.299416 90.327396 
L 109.523647 86.788952 
L 109.747879 87.863397 
L 109.972111 88.266848 
L 110.196342 89.276699 
L 110.420574 82.624793 
L 110.644805 89.343439 
L 110.869037 88.276935 
L 111.093269 94.800601 
L 111.3175 82.451447 
L 111.541732 83.451789 
L 111.990195 90.353261 
L 112.214427 81.706052 
L 112.438658 90.732007 
L 112.66289 86.567733 
L 112.887121 87.761919 
L 113.111353 87.638715 
L 113.335585 92.391647 
L 113.559816 85.595362 
L 113.784048 84.285997 
L 114.008279 89.569164 
L 114.456743 93.827826 
L 114.680974 84.817419 
L 114.905206 86.874702 
L 115.129437 81.066463 
L 115.577901 89.831301 
L 115.802132 83.042862 
L 116.026364 89.365953 
L 116.250595 84.695079 
L 116.474827 95.087739 
L 116.699059 92.647627 
L 116.92329 85.371753 
L 117.147522 101.573702 
L 117.371753 87.367398 
L 117.595985 82.349267 
L 117.820217 88.426385 
L 118.044448 88.932523 
L 118.26868 93.721659 
L 118.492911 85.825697 
L 118.717143 93.073352 
L 118.941375 94.174867 
L 119.165606 84.650383 
L 119.389838 84.684993 
L 119.614069 91.170037 
L 119.838301 91.603259 
L 120.062533 87.440821 
L 120.286764 89.206212 
L 120.510996 84.819277 
L 120.735227 86.772106 
L 120.959459 91.658131 
L 121.183691 101.036879 
L 121.632154 87.448826 
L 121.856385 95.419616 
L 122.080617 93.811918 
L 122.304849 89.827246 
L 122.52908 91.64265 
L 122.753312 97.234977 
L 122.977543 90.546505 
L 123.201775 89.785474 
L 123.426007 94.636782 
L 123.650238 91.441423 
L 123.87447 92.700203 
L 124.098701 91.73423 
L 124.322933 97.043848 
L 124.547165 96.762542 
L 124.995628 87.397361 
L 125.219859 91.180899 
L 125.444091 90.524243 
L 125.668323 100.175057 
L 125.892554 89.898708 
L 126.116786 96.715796 
L 126.341018 92.669937 
L 126.565249 97.152788 
L 126.789481 87.928999 
L 127.013712 88.107021 
L 127.237944 90.450492 
L 127.462176 103.651079 
L 127.686407 99.31601 
L 127.910639 92.717642 
L 128.13487 99.220359 
L 128.359102 94.348867 
L 128.583334 86.787072 
L 128.807565 92.503721 
L 129.031797 85.672356 
L 129.256028 89.013803 
L 129.48026 94.316743 
L 129.704492 87.040107 
L 129.928723 90.502696 
L 130.152955 89.329873 
L 130.377186 89.454578 
L 130.601418 103.181495 
L 130.82565 90.840261 
L 131.049881 87.324129 
L 131.274113 101.398848 
L 131.498344 92.786039 
L 131.722576 94.512449 
L 131.946808 92.052716 
L 132.171039 93.089004 
L 132.395271 86.718299 
L 132.619502 93.156803 
L 132.843734 89.163255 
L 133.067966 89.5859 
L 133.292197 110.32587 
L 133.516429 95.429047 
L 133.74066 91.418325 
L 133.964892 99.736696 
L 134.189124 90.36893 
L 134.413355 89.106944 
L 134.637587 90.363123 
L 134.861818 87.998632 
L 135.08605 99.680915 
L 135.534513 93.694887 
L 135.758745 102.375496 
L 135.982976 95.025153 
L 136.207208 92.784412 
L 136.43144 97.456967 
L 136.879903 85.361561 
L 137.328366 107.797619 
L 137.552598 103.528031 
L 137.776829 97.080933 
L 138.001061 103.749933 
L 138.225292 93.287899 
L 138.449524 96.20799 
L 138.673756 102.417652 
L 139.122219 94.835781 
L 139.34645 95.766135 
L 139.570682 93.595866 
L 139.794914 102.34564 
L 140.019145 102.030078 
L 140.243377 91.180151 
L 140.467608 89.661879 
L 140.69184 98.687256 
L 140.916072 92.65434 
L 141.364535 103.135215 
L 141.588766 92.878739 
L 141.812998 98.980634 
L 142.261461 94.090195 
L 142.485693 94.754923 
L 142.709924 89.860962 
L 143.158388 105.860121 
L 143.382619 87.428873 
L 143.606851 93.893544 
L 143.831082 93.970799 
L 144.055314 103.227244 
L 144.279546 87.741184 
L 144.728009 105.912758 
L 145.176472 94.800421 
L 145.400704 94.669648 
L 145.624935 87.821398 
L 145.849167 90.147145 
L 146.073399 86.666209 
L 146.521862 100.570382 
L 146.746093 92.592504 
L 146.970325 102.510705 
L 147.194557 92.868099 
L 147.418788 93.694704 
L 147.64302 102.201224 
L 147.867251 95.1222 
L 148.091483 98.320506 
L 148.315715 98.239189 
L 148.539946 97.437764 
L 148.764178 97.647376 
L 148.988409 95.853238 
L 149.212641 88.138778 
L 149.661104 97.603967 
L 149.885336 92.279157 
L 150.109567 95.404913 
L 150.333799 95.81791 
L 150.558031 98.774823 
L 150.782262 99.380987 
L 151.006494 91.926642 
L 151.230725 97.818432 
L 151.454957 95.105885 
L 151.679189 98.955639 
L 151.90342 97.659162 
L 152.127652 93.646711 
L 152.351883 99.838638 
L 152.576115 100.592089 
L 152.800347 95.918837 
L 153.024578 94.299361 
L 153.24881 96.013439 
L 153.473041 101.983728 
L 153.697273 99.423474 
L 153.921505 103.918886 
L 154.145736 94.360533 
L 154.369968 93.268632 
L 154.818431 97.233105 
L 155.042663 106.732338 
L 155.266894 89.465785 
L 155.491126 95.551679 
L 155.715357 90.1769 
L 155.939589 93.439876 
L 156.163821 101.188422 
L 156.388052 98.708699 
L 156.612284 94.968738 
L 156.836515 94.422352 
L 157.060747 100.50518 
L 157.50921 95.392607 
L 157.733442 94.706181 
L 157.957673 102.797122 
L 158.406137 94.347624 
L 158.630368 98.888696 
L 158.8546 91.425048 
L 159.078831 102.174435 
L 159.303063 92.889113 
L 159.751526 102.222344 
L 159.975758 94.85236 
L 160.199989 97.516071 
L 160.648453 92.456909 
L 160.872684 110.371693 
L 161.321147 98.790108 
L 161.545379 102.677719 
L 161.769611 98.48003 
L 162.218074 99.780279 
L 162.442305 94.530167 
L 162.666537 96.751878 
L 162.890769 106.904036 
L 163.115 94.535326 
L 163.339232 112.127339 
L 163.563464 99.090398 
L 163.787695 103.086645 
L 164.011927 93.120977 
L 164.236158 97.385136 
L 164.46039 95.316199 
L 164.684622 95.479709 
L 164.908853 97.883686 
L 165.133085 90.501943 
L 165.357316 97.414265 
L 165.581548 95.075508 
L 165.80578 105.41203 
L 166.030011 103.586654 
L 166.254243 94.594126 
L 166.478474 100.803289 
L 166.702706 90.916293 
L 166.926938 95.092597 
L 167.151169 110.227048 
L 167.375401 98.690558 
L 167.599632 97.506673 
L 167.823864 95.718226 
L 168.048096 96.735972 
L 168.496559 105.872543 
L 168.72079 100.808176 
L 168.945022 99.501063 
L 169.169254 111.681568 
L 169.393485 97.911629 
L 169.617717 94.190029 
L 170.06618 104.034234 
L 170.290412 92.445382 
L 170.514643 102.999422 
L 170.738875 104.426243 
L 170.963106 97.111723 
L 171.187338 96.685239 
L 171.41157 93.851237 
L 171.635801 106.003961 
L 171.860033 97.902231 
L 172.084264 98.952792 
L 172.308496 97.699434 
L 172.532728 115.07185 
L 172.756959 98.585406 
L 172.981191 97.082496 
L 173.205422 105.070609 
L 173.429654 94.71527 
L 173.653886 96.090442 
L 174.102349 102.831762 
L 174.32658 101.809317 
L 174.550812 103.481132 
L 174.999275 99.327304 
L 175.223507 106.354921 
L 175.447738 97.599349 
L 175.67197 99.861251 
L 175.896202 99.045446 
L 176.120433 106.732658 
L 176.344665 101.101345 
L 176.568896 98.743241 
L 176.793128 104.542044 
L 177.01736 96.103386 
L 177.241591 96.261491 
L 177.465823 97.716851 
L 177.690054 97.652318 
L 177.914286 112.324485 
L 178.138518 94.70816 
L 178.586981 104.141346 
L 178.811212 98.524648 
L 179.035444 105.380199 
L 179.259676 100.054906 
L 179.483907 107.644947 
L 179.708139 96.611904 
L 179.93237 102.628896 
L 180.156602 100.655382 
L 180.380834 95.937099 
L 180.829297 102.146153 
L 181.053528 97.121791 
L 181.27776 103.922322 
L 181.501992 103.817763 
L 181.726223 98.560826 
L 181.950455 97.922103 
L 182.174687 110.657314 
L 182.398918 94.431843 
L 182.847381 99.574626 
L 183.071613 99.17666 
L 183.295845 102.730914 
L 183.520076 96.159244 
L 183.744308 108.756702 
L 183.968539 99.455492 
L 184.192771 100.828579 
L 184.417003 95.097488 
L 185.089697 104.27624 
L 185.313929 124.407273 
L 185.538161 117.840608 
L 185.762392 103.511895 
L 185.986624 103.858211 
L 186.210855 98.129584 
L 186.435087 100.778657 
L 186.659319 112.75385 
L 187.107782 102.849448 
L 187.332013 110.982139 
L 187.556245 94.280044 
L 188.004708 100.782476 
L 188.22894 99.761551 
L 188.453171 95.1566 
L 188.677403 101.669984 
L 188.901635 95.128296 
L 189.125866 99.050353 
L 189.350098 98.007402 
L 189.574329 109.363789 
L 189.798561 100.208809 
L 190.022793 97.013844 
L 190.247024 102.311166 
L 190.471256 100.328366 
L 190.695487 108.58928 
L 190.919719 95.7689 
L 191.143951 99.117114 
L 191.368182 100.004743 
L 191.592414 96.692071 
L 191.816645 102.76099 
L 192.040877 102.250065 
L 192.48934 110.115913 
L 192.937803 98.153731 
L 193.162035 95.246602 
L 193.386267 102.200172 
L 193.610498 98.707794 
L 193.83473 104.629069 
L 194.058961 101.562 
L 194.283193 103.846949 
L 194.507425 112.366082 
L 194.955888 98.745386 
L 195.180119 99.918919 
L 195.404351 104.460365 
L 195.628583 97.606545 
L 195.852814 99.87809 
L 195.852814 99.87809 
" clip-path="url(#p3baf77f399)" style="fill: none; stroke: #1e90ff; stroke-width: 0.8; stroke-linecap: square"/>
   </g>
   <g id="line2d_9">
    <path d="M 61.762316 62.3497 
L 61.986548 68.963299 
L 62.210779 66.353917 
L 62.435011 62.277532 
L 62.659242 65.080085 
L 62.883474 58.986149 
L 63.107706 70.689023 
L 63.331937 62.389333 
L 63.556169 66.308522 
L 64.004632 63.947863 
L 64.228864 68.718487 
L 64.453095 70.337524 
L 64.677327 62.897276 
L 64.901558 72.183442 
L 65.12579 67.769781 
L 65.350022 65.636391 
L 65.574253 74.713087 
L 65.798485 74.587779 
L 66.47118 63.376084 
L 66.695411 73.68722 
L 66.919643 67.773486 
L 67.143874 73.771943 
L 67.368106 68.421813 
L 67.592338 69.632306 
L 67.816569 64.500634 
L 68.040801 71.991848 
L 68.265032 67.914392 
L 68.489264 68.384313 
L 68.937727 74.138602 
L 69.161959 72.70812 
L 69.386191 65.440792 
L 69.610422 74.383647 
L 69.834654 77.101189 
L 70.058885 51.151119 
L 70.283117 66.71559 
L 70.507349 73.415184 
L 70.73158 68.763515 
L 70.955812 72.193219 
L 71.180043 70.819636 
L 71.404275 74.120973 
L 71.628507 72.701464 
L 71.852738 66.6098 
L 72.07697 71.969528 
L 72.301201 82.628216 
L 72.525433 70.51963 
L 72.749665 70.861842 
L 72.973896 69.574313 
L 73.198128 67.561715 
L 73.422359 71.813431 
L 73.646591 69.984104 
L 73.870823 77.643145 
L 74.095054 69.971646 
L 74.319286 86.69482 
L 74.543517 75.460061 
L 74.767749 77.618597 
L 74.991981 75.029449 
L 75.216212 77.614948 
L 75.888907 72.43436 
L 76.113139 75.037075 
L 76.33737 69.415461 
L 76.561602 95.741937 
L 76.785833 78.953833 
L 77.010065 87.393615 
L 77.234297 77.80483 
L 77.68276 74.727125 
L 77.906991 76.391397 
L 78.131223 76.961159 
L 78.355455 79.076658 
L 78.579686 76.766986 
L 78.803918 75.677969 
L 79.028149 76.16127 
L 79.252381 74.547 
L 79.476613 76.833676 
L 79.700844 71.600917 
L 79.925076 70.081226 
L 80.149307 74.75201 
L 80.373539 83.308166 
L 80.597771 74.801116 
L 80.822002 74.664315 
L 81.046234 85.378505 
L 81.270465 85.611057 
L 81.494697 85.30183 
L 81.718929 75.786552 
L 81.94316 74.861089 
L 82.167392 77.430563 
L 82.391623 73.120176 
L 82.615855 89.277906 
L 82.840087 81.501629 
L 83.064318 83.229983 
L 83.28855 75.325503 
L 83.512781 75.381459 
L 83.961245 81.887997 
L 84.185476 81.628387 
L 84.409708 76.08365 
L 84.633939 75.043165 
L 84.858171 76.577826 
L 85.082403 86.205163 
L 85.306634 83.726402 
L 85.755097 88.34 
L 85.979329 74.842279 
L 86.203561 89.989307 
L 86.427792 80.044572 
L 86.876255 83.947352 
L 87.100487 85.316644 
L 87.324719 81.102154 
L 87.773182 78.079249 
L 87.997414 90.032115 
L 88.221645 79.380774 
L 88.445877 89.622584 
L 88.670108 90.55435 
L 88.89434 82.896466 
L 89.342803 79.915116 
L 89.567035 83.997819 
L 89.791266 81.505995 
L 90.015498 89.982896 
L 90.23973 85.51292 
L 90.688193 82.740732 
L 90.912424 78.101014 
L 91.136656 94.600329 
L 91.585119 75.231389 
L 91.809351 88.600111 
L 92.033582 83.21449 
L 92.482046 90.170139 
L 92.706277 77.792215 
L 92.930509 83.204401 
L 93.15474 80.501177 
L 93.378972 80.755078 
L 93.603204 78.153599 
L 93.827435 83.910569 
L 94.051667 82.311968 
L 94.275898 77.629681 
L 94.50013 83.345151 
L 94.948593 78.985731 
L 95.172825 85.886106 
L 95.397056 87.8881 
L 95.621288 81.736549 
L 95.84552 87.756645 
L 96.069751 85.545791 
L 96.293983 88.572553 
L 96.518214 84.727691 
L 96.742446 85.270645 
L 96.966678 81.614035 
L 97.190909 92.794257 
L 97.415141 78.315698 
L 97.639372 82.924555 
L 97.863604 83.789138 
L 98.087836 91.796554 
L 98.312067 84.706676 
L 98.536299 85.931397 
L 98.76053 83.228677 
L 98.984762 77.091762 
L 99.208994 91.508748 
L 99.433225 83.655728 
L 99.657457 86.192028 
L 99.881688 83.178059 
L 100.10592 92.183615 
L 100.330152 83.956523 
L 100.554383 86.052131 
L 100.778615 91.587897 
L 101.002846 86.249471 
L 101.227078 84.125049 
L 101.45131 84.800862 
L 101.675541 84.959452 
L 101.899773 107.444356 
L 102.124004 92.071128 
L 102.348236 93.510209 
L 102.572468 79.198787 
L 102.796699 83.195226 
L 103.020931 85.031843 
L 103.245162 88.440244 
L 103.469394 89.258026 
L 103.693626 82.434027 
L 103.917857 83.011444 
L 104.36632 92.431226 
L 104.590552 89.022549 
L 105.039015 85.816316 
L 105.263247 80.127712 
L 105.487478 98.372901 
L 105.71171 96.324971 
L 105.935942 87.994865 
L 106.160173 88.200316 
L 106.384405 92.079784 
L 106.608637 91.593158 
L 106.832868 82.01436 
L 107.0571 83.657209 
L 107.281331 87.015656 
L 107.505563 93.175983 
L 107.729795 91.517703 
L 107.954026 93.140384 
L 108.178258 93.50786 
L 108.402489 85.604957 
L 108.626721 87.459056 
L 108.850953 87.799726 
L 109.075184 99.103323 
L 109.299416 89.847395 
L 109.523647 88.485315 
L 109.747879 88.007176 
L 109.972111 86.333934 
L 110.196342 92.669482 
L 110.420574 82.476101 
L 110.644805 87.830118 
L 110.869037 87.314683 
L 111.093269 91.06014 
L 111.3175 83.423817 
L 111.541732 83.382031 
L 111.765963 85.612783 
L 111.990195 90.166067 
L 112.214427 82.10551 
L 112.438658 96.193914 
L 112.66289 90.27575 
L 112.887121 89.641115 
L 113.111353 86.290448 
L 113.335585 89.153721 
L 113.559816 84.945868 
L 113.784048 86.682891 
L 114.008279 89.65451 
L 114.232511 97.247882 
L 114.456743 97.934287 
L 114.680974 84.688307 
L 114.905206 86.32338 
L 115.129437 82.558672 
L 115.577901 94.698128 
L 115.802132 86.042992 
L 116.026364 92.151537 
L 116.250595 85.508907 
L 116.474827 98.368665 
L 116.699059 87.164326 
L 116.92329 86.242513 
L 117.147522 97.616339 
L 117.371753 88.112954 
L 117.595985 85.377502 
L 117.820217 87.030208 
L 118.044448 91.994715 
L 118.26868 100.755276 
L 118.492911 89.984157 
L 118.941375 96.207958 
L 119.165606 87.341577 
L 119.389838 89.350865 
L 119.614069 86.617142 
L 119.838301 88.325586 
L 120.062533 88.565964 
L 120.286764 87.908557 
L 120.510996 84.477513 
L 120.735227 88.979593 
L 120.959459 89.387246 
L 121.183691 95.909321 
L 121.407922 93.402083 
L 121.632154 87.416428 
L 121.856385 96.950697 
L 122.304849 93.078928 
L 122.52908 98.406204 
L 122.753312 91.184429 
L 123.201775 95.619022 
L 123.426007 104.181093 
L 123.650238 95.004371 
L 123.87447 96.938296 
L 124.098701 89.117775 
L 124.322933 97.456654 
L 124.547165 92.017417 
L 124.771396 93.011759 
L 124.995628 87.822453 
L 125.219859 93.182793 
L 125.444091 92.639751 
L 125.668323 94.293295 
L 125.892554 89.128112 
L 126.116786 100.365457 
L 126.341018 102.185834 
L 126.565249 99.027833 
L 126.789481 91.034861 
L 127.013712 90.371912 
L 127.237944 94.24415 
L 127.462176 95.365583 
L 127.686407 101.335153 
L 127.910639 97.889116 
L 128.13487 102.016653 
L 128.359102 89.270841 
L 128.807565 90.874087 
L 129.031797 84.871884 
L 129.48026 96.664931 
L 129.704492 88.926814 
L 129.928723 91.340839 
L 130.152955 89.666814 
L 130.377186 91.037209 
L 130.601418 95.368842 
L 130.82565 93.25995 
L 131.049881 87.13661 
L 131.274113 120.32578 
L 131.498344 97.741789 
L 131.946808 91.290377 
L 132.171039 93.789409 
L 132.395271 85.276774 
L 132.619502 93.450707 
L 132.843734 89.629859 
L 133.067966 89.780606 
L 133.292197 111.582593 
L 133.516429 96.706359 
L 133.74066 93.378655 
L 133.964892 112.914846 
L 134.189124 90.93862 
L 134.413355 88.939787 
L 134.637587 92.362767 
L 134.861818 88.596704 
L 135.08605 97.754604 
L 135.310282 99.6779 
L 135.534513 93.531517 
L 135.758745 103.794409 
L 135.982976 96.807584 
L 136.207208 94.063771 
L 136.43144 104.289746 
L 136.879903 86.141143 
L 137.104134 98.540072 
L 137.328366 118.176439 
L 137.552598 96.842601 
L 137.776829 95.641253 
L 138.001061 104.206764 
L 138.225292 98.622754 
L 138.449524 96.14373 
L 138.673756 98.313649 
L 138.897987 97.432238 
L 139.122219 96.071739 
L 139.34645 96.573774 
L 139.570682 95.609288 
L 139.794914 102.686654 
L 140.019145 101.192073 
L 140.243377 93.007804 
L 140.467608 91.7215 
L 140.69184 101.570208 
L 140.916072 92.794696 
L 141.140303 99.813635 
L 141.364535 101.950081 
L 141.588766 94.664423 
L 141.812998 100.552935 
L 142.03723 101.468763 
L 142.261461 94.057701 
L 142.485693 96.023149 
L 142.709924 91.859843 
L 142.934156 102.077253 
L 143.158388 104.909052 
L 143.382619 88.991616 
L 143.606851 92.619508 
L 143.831082 92.36563 
L 144.055314 102.805262 
L 144.279546 87.87106 
L 144.728009 110.251213 
L 144.952241 98.327237 
L 145.176472 96.408427 
L 145.400704 95.95142 
L 145.624935 89.348242 
L 145.849167 90.05524 
L 146.073399 87.229708 
L 146.29763 95.104994 
L 146.521862 98.597727 
L 146.746093 92.983293 
L 146.970325 109.995506 
L 147.194557 93.332178 
L 147.418788 94.263388 
L 147.64302 100.265266 
L 147.867251 95.570309 
L 148.091483 98.934286 
L 148.315715 100.394078 
L 148.539946 96.355234 
L 148.764178 99.651545 
L 148.988409 98.382886 
L 149.212641 89.606841 
L 149.436873 92.316238 
L 149.661104 97.841186 
L 149.885336 93.123686 
L 150.109567 95.62135 
L 150.333799 95.646041 
L 150.558031 99.23593 
L 150.782262 97.753139 
L 151.006494 91.510604 
L 151.230725 95.67522 
L 151.454957 94.682664 
L 151.679189 99.786374 
L 152.127652 95.309612 
L 152.351883 99.584561 
L 152.576115 99.220722 
L 152.800347 99.154333 
L 153.024578 94.905489 
L 153.473041 105.250753 
L 153.697273 98.525114 
L 153.921505 102.609642 
L 154.145736 94.345337 
L 154.594199 95.762356 
L 154.818431 99.204952 
L 155.042663 111.540654 
L 155.266894 90.199922 
L 155.491126 94.897953 
L 155.715357 91.388873 
L 156.163821 99.172838 
L 156.388052 99.245663 
L 156.612284 96.347853 
L 156.836515 96.377447 
L 157.060747 99.204653 
L 157.284979 98.119616 
L 157.50921 95.626487 
L 157.733442 96.028237 
L 157.957673 103.90695 
L 158.181905 96.201988 
L 158.406137 95.01096 
L 158.630368 98.137091 
L 158.8546 91.90171 
L 159.078831 101.49993 
L 159.303063 93.49213 
L 159.751526 102.365268 
L 159.975758 95.927374 
L 160.199989 98.670274 
L 160.648453 93.138558 
L 160.872684 108.562911 
L 161.096916 104.633699 
L 161.321147 97.687233 
L 161.545379 103.945373 
L 161.993842 98.683555 
L 162.218074 102.081128 
L 162.442305 95.023021 
L 162.666537 98.437194 
L 162.890769 104.423383 
L 163.115 94.380481 
L 163.339232 109.829115 
L 163.563464 99.739328 
L 163.787695 110.305389 
L 164.011927 92.661528 
L 164.236158 99.264543 
L 164.46039 96.749274 
L 164.684622 96.060784 
L 164.908853 102.012807 
L 165.133085 91.766836 
L 165.357316 98.197955 
L 165.581548 94.734347 
L 165.80578 111.609993 
L 166.030011 106.256647 
L 166.254243 96.015134 
L 166.478474 99.456438 
L 166.702706 93.243214 
L 166.926938 96.48599 
L 167.151169 110.126452 
L 167.375401 100.168286 
L 167.599632 96.273675 
L 167.823864 96.64677 
L 168.048096 98.03558 
L 168.272327 102.48794 
L 168.496559 104.507792 
L 168.72079 109.874314 
L 168.945022 102.909782 
L 169.169254 105.382769 
L 169.393485 98.148574 
L 169.617717 96.417881 
L 169.841948 98.29228 
L 170.06618 101.180469 
L 170.290412 95.924873 
L 170.514643 103.494426 
L 170.738875 102.162448 
L 170.963106 97.397526 
L 171.187338 97.409495 
L 171.41157 96.74003 
L 171.635801 101.711378 
L 171.860033 117.051264 
L 172.084264 97.203935 
L 172.308496 96.711038 
L 172.532728 111.953122 
L 172.756959 96.379565 
L 172.981191 96.325096 
L 173.205422 111.681766 
L 173.429654 98.018422 
L 173.653886 97.469542 
L 173.878117 104.811856 
L 174.102349 101.04851 
L 174.32658 105.233891 
L 174.550812 114.679388 
L 174.775044 101.031006 
L 174.999275 102.799698 
L 175.223507 107.318621 
L 175.447738 94.712676 
L 175.67197 99.803134 
L 175.896202 96.07577 
L 176.120433 99.083845 
L 176.344665 100.140874 
L 176.568896 98.56096 
L 176.793128 103.303624 
L 177.01736 97.158276 
L 177.465823 101.757182 
L 177.690054 97.007402 
L 177.914286 103.662598 
L 178.138518 96.503593 
L 178.362749 97.373419 
L 178.586981 99.710539 
L 178.811212 97.087201 
L 179.035444 98.771624 
L 179.259676 111.873524 
L 179.483907 108.679645 
L 179.708139 102.983108 
L 179.93237 107.497885 
L 180.156602 99.714888 
L 180.380834 98.830281 
L 180.605065 102.756822 
L 180.829297 100.180199 
L 181.053528 99.758808 
L 181.27776 100.832357 
L 181.501992 110.795725 
L 181.726223 98.705309 
L 181.950455 98.939083 
L 182.174687 104.783459 
L 182.398918 98.989364 
L 182.62315 98.102652 
L 182.847381 102.04641 
L 183.071613 97.955109 
L 183.295845 101.303251 
L 183.520076 98.021014 
L 183.744308 102.095629 
L 183.968539 99.11526 
L 184.192771 109.448818 
L 184.417003 96.605156 
L 184.865466 106.155051 
L 185.538161 117.874574 
L 185.762392 101.636004 
L 185.986624 101.225903 
L 186.210855 97.349378 
L 186.435087 98.683787 
L 186.659319 100.719965 
L 186.88355 108.707151 
L 187.107782 107.716603 
L 187.332013 112.75234 
L 187.556245 96.62768 
L 187.780477 97.892809 
L 188.004708 103.994091 
L 188.453171 97.328941 
L 188.677403 100.610693 
L 188.901635 97.731922 
L 189.125866 99.461035 
L 189.350098 97.393249 
L 189.574329 110.436862 
L 189.798561 98.331637 
L 190.247024 104.142699 
L 190.471256 102.967022 
L 190.695487 106.728212 
L 190.919719 96.116954 
L 191.143951 98.409637 
L 191.368182 103.23741 
L 191.592414 95.647927 
L 191.816645 100.197985 
L 192.040877 107.746872 
L 192.265109 102.554887 
L 192.48934 100.787721 
L 192.713572 103.847125 
L 192.937803 96.480479 
L 193.162035 96.079296 
L 193.610498 106.232965 
L 193.83473 102.917178 
L 194.058961 102.048527 
L 194.283193 97.060377 
L 194.507425 111.261768 
L 194.731656 107.636425 
L 194.955888 100.696519 
L 195.404351 105.939185 
L 195.628583 96.878903 
L 195.852814 98.424787 
L 195.852814 98.424787 
" clip-path="url(#p3baf77f399)" style="fill: none; stroke: #ff0000; stroke-width: 0.8; stroke-linecap: square"/>
   </g>
   <g id="patch_3">
    <path d="M 59.52 129.12 
L 59.52 25.44 
" style="fill: none; stroke: #000000; stroke-width: 0.8; stroke-linejoin: miter; stroke-linecap: square"/>
   </g>
   <g id="patch_4">
    <path d="M 198.319362 129.12 
L 198.319362 25.44 
" style="fill: none; stroke: #000000; stroke-width: 0.8; stroke-linejoin: miter; stroke-linecap: square"/>
   </g>
   <g id="patch_5">
    <path d="M 59.52 129.12 
L 198.319362 129.12 
" style="fill: none; stroke: #000000; stroke-width: 0.8; stroke-linejoin: miter; stroke-linecap: square"/>
   </g>
   <g id="patch_6">
    <path d="M 59.52 25.44 
L 198.319362 25.44 
" style="fill: none; stroke: #000000; stroke-width: 0.8; stroke-linejoin: miter; stroke-linecap: square"/>
   </g>
   <g id="text_9">
    <!-- Frequency Domain Plot -->
    <g transform="translate(59.520306 19.44) scale(0.12 -0.12)">
     <defs>
      <path id="DejaVuSans-44" d="M 1259 4147 
L 1259 519 
L 2022 519 
Q 2988 519 3436 956 
Q 3884 1394 3884 2338 
Q 3884 3275 3436 3711 
Q 2988 4147 2022 4147 
L 1259 4147 
z
M 628 4666 
L 1925 4666 
Q 3281 4666 3915 4102 
Q 4550 3538 4550 2338 
Q 4550 1131 3912 565 
Q 3275 0 1925 0 
L 628 0 
L 628 4666 
z
" transform="scale(0.015625)"/>
      <path id="DejaVuSans-6d" d="M 3328 2828 
Q 3544 3216 3844 3400 
Q 4144 3584 4550 3584 
Q 5097 3584 5394 3201 
Q 5691 2819 5691 2113 
L 5691 0 
L 5113 0 
L 5113 2094 
Q 5113 2597 4934 2840 
Q 4756 3084 4391 3084 
Q 3944 3084 3684 2787 
Q 3425 2491 3425 1978 
L 3425 0 
L 2847 0 
L 2847 2094 
Q 2847 2600 2669 2842 
Q 2491 3084 2119 3084 
Q 1678 3084 1418 2786 
Q 1159 2488 1159 1978 
L 1159 0 
L 581 0 
L 581 3500 
L 1159 3500 
L 1159 2956 
Q 1356 3278 1631 3431 
Q 1906 3584 2284 3584 
Q 2666 3584 2933 3390 
Q 3200 3197 3328 2828 
z
" transform="scale(0.015625)"/>
      <path id="DejaVuSans-61" d="M 2194 1759 
Q 1497 1759 1228 1600 
Q 959 1441 959 1056 
Q 959 750 1161 570 
Q 1363 391 1709 391 
Q 2188 391 2477 730 
Q 2766 1069 2766 1631 
L 2766 1759 
L 2194 1759 
z
M 3341 1997 
L 3341 0 
L 2766 0 
L 2766 531 
Q 2569 213 2275 61 
Q 1981 -91 1556 -91 
Q 1019 -91 701 211 
Q 384 513 384 1019 
Q 384 1609 779 1909 
Q 1175 2209 1959 2209 
L 2766 2209 
L 2766 2266 
Q 2766 2663 2505 2880 
Q 2244 3097 1772 3097 
Q 1472 3097 1187 3025 
Q 903 2953 641 2809 
L 641 3341 
Q 956 3463 1253 3523 
Q 1550 3584 1831 3584 
Q 2591 3584 2966 3190 
Q 3341 2797 3341 1997 
z
" transform="scale(0.015625)"/>
      <path id="DejaVuSans-69" d="M 603 3500 
L 1178 3500 
L 1178 0 
L 603 0 
L 603 3500 
z
M 603 4863 
L 1178 4863 
L 1178 4134 
L 603 4134 
L 603 4863 
z
" transform="scale(0.015625)"/>
      <path id="DejaVuSans-50" d="M 1259 4147 
L 1259 2394 
L 2053 2394 
Q 2494 2394 2734 2622 
Q 2975 2850 2975 3272 
Q 2975 3691 2734 3919 
Q 2494 4147 2053 4147 
L 1259 4147 
z
M 628 4666 
L 2053 4666 
Q 2838 4666 3239 4311 
Q 3641 3956 3641 3272 
Q 3641 2581 3239 2228 
Q 2838 1875 2053 1875 
L 1259 1875 
L 1259 0 
L 628 0 
L 628 4666 
z
" transform="scale(0.015625)"/>
      <path id="DejaVuSans-6c" d="M 603 4863 
L 1178 4863 
L 1178 0 
L 603 0 
L 603 4863 
z
" transform="scale(0.015625)"/>
      <path id="DejaVuSans-74" d="M 1172 4494 
L 1172 3500 
L 2356 3500 
L 2356 3053 
L 1172 3053 
L 1172 1153 
Q 1172 725 1289 603 
Q 1406 481 1766 481 
L 2356 481 
L 2356 0 
L 1766 0 
Q 1100 0 847 248 
Q 594 497 594 1153 
L 594 3053 
L 172 3053 
L 172 3500 
L 594 3500 
L 594 4494 
L 1172 4494 
z
" transform="scale(0.015625)"/>
     </defs>
     <use xlink:href="#DejaVuSans-46"/>
     <use xlink:href="#DejaVuSans-72" x="50.269531"/>
     <use xlink:href="#DejaVuSans-65" x="89.132812"/>
     <use xlink:href="#DejaVuSans-71" x="150.65625"/>
     <use xlink:href="#DejaVuSans-75" x="214.132812"/>
     <use xlink:href="#DejaVuSans-65" x="277.511719"/>
     <use xlink:href="#DejaVuSans-6e" x="339.035156"/>
     <use xlink:href="#DejaVuSans-63" x="402.414062"/>
     <use xlink:href="#DejaVuSans-79" x="457.394531"/>
     <use xlink:href="#DejaVuSans-20" x="516.574219"/>
     <use xlink:href="#DejaVuSans-44" x="548.361328"/>
     <use xlink:href="#DejaVuSans-6f" x="625.363281"/>
     <use xlink:href="#DejaVuSans-6d" x="686.544922"/>
     <use xlink:href="#DejaVuSans-61" x="783.957031"/>
     <use xlink:href="#DejaVuSans-69" x="845.236328"/>
     <use xlink:href="#DejaVuSans-6e" x="873.019531"/>
     <use xlink:href="#DejaVuSans-20" x="936.398438"/>
     <use xlink:href="#DejaVuSans-50" x="968.185547"/>
     <use xlink:href="#DejaVuSans-6c" x="1028.488281"/>
     <use xlink:href="#DejaVuSans-6f" x="1056.271484"/>
     <use xlink:href="#DejaVuSans-74" x="1117.453125"/>
    </g>
   </g>
   <g id="legend_1">
    <g id="patch_7">
     <path d="M 19.980191 158.724 
L 50.848316 158.724 
Q 51.448316 158.724 51.448316 158.124 
L 51.448316 145.213687 
Q 51.448316 144.613687 50.848316 144.613687 
L 19.980191 144.613687 
Q 19.380191 144.613687 19.380191 145.213687 
L 19.380191 158.124 
Q 19.380191 158.724 19.980191 158.724 
z
" style="fill: #ffffff; opacity: 0.8; stroke: #cccccc; stroke-linejoin: miter"/>
    </g>
    <g id="line2d_10">
     <path d="M 20.580191 147.043219 
L 23.580191 147.043219 
L 26.580191 147.043219 
" style="fill: none; stroke: #808080; stroke-width: 0.8; stroke-linecap: square"/>
    </g>
    <g id="text_10">
     <!-- Contaminated -->
     <g transform="translate(28.980191 148.093219) scale(0.03 -0.03)">
      <defs>
       <path id="DejaVuSans-43" d="M 4122 4306 
L 4122 3641 
Q 3803 3938 3442 4084 
Q 3081 4231 2675 4231 
Q 1875 4231 1450 3742 
Q 1025 3253 1025 2328 
Q 1025 1406 1450 917 
Q 1875 428 2675 428 
Q 3081 428 3442 575 
Q 3803 722 4122 1019 
L 4122 359 
Q 3791 134 3420 21 
Q 3050 -91 2638 -91 
Q 1578 -91 968 557 
Q 359 1206 359 2328 
Q 359 3453 968 4101 
Q 1578 4750 2638 4750 
Q 3056 4750 3426 4639 
Q 3797 4528 4122 4306 
z
" transform="scale(0.015625)"/>
      </defs>
      <use xlink:href="#DejaVuSans-43"/>
      <use xlink:href="#DejaVuSans-6f" x="69.824219"/>
      <use xlink:href="#DejaVuSans-6e" x="131.005859"/>
      <use xlink:href="#DejaVuSans-74" x="194.384766"/>
      <use xlink:href="#DejaVuSans-61" x="233.59375"/>
      <use xlink:href="#DejaVuSans-6d" x="294.873047"/>
      <use xlink:href="#DejaVuSans-69" x="392.285156"/>
      <use xlink:href="#DejaVuSans-6e" x="420.068359"/>
      <use xlink:href="#DejaVuSans-61" x="483.447266"/>
      <use xlink:href="#DejaVuSans-74" x="544.726562"/>
      <use xlink:href="#DejaVuSans-65" x="583.935547"/>
      <use xlink:href="#DejaVuSans-64" x="645.458984"/>
     </g>
    </g>
    <g id="line2d_11">
     <path d="M 20.580191 151.446656 
L 23.580191 151.446656 
L 26.580191 151.446656 
" style="fill: none; stroke: #1e90ff; stroke-width: 0.8; stroke-linecap: square"/>
    </g>
    <g id="text_11">
     <!-- Clean -->
     <g transform="translate(28.980191 152.496656) scale(0.03 -0.03)">
      <use xlink:href="#DejaVuSans-43"/>
      <use xlink:href="#DejaVuSans-6c" x="69.824219"/>
      <use xlink:href="#DejaVuSans-65" x="97.607422"/>
      <use xlink:href="#DejaVuSans-61" x="159.130859"/>
      <use xlink:href="#DejaVuSans-6e" x="220.410156"/>
     </g>
    </g>
    <g id="line2d_12">
     <path d="M 20.580191 155.850094 
L 23.580191 155.850094 
L 26.580191 155.850094 
" style="fill: none; stroke: #ff0000; stroke-width: 0.8; stroke-linecap: square"/>
    </g>
    <g id="text_12">
     <!-- SACed -->
     <g transform="translate(28.980191 156.900094) scale(0.03 -0.03)">
      <defs>
       <path id="DejaVuSans-53" d="M 3425 4513 
L 3425 3897 
Q 3066 4069 2747 4153 
Q 2428 4238 2131 4238 
Q 1616 4238 1336 4038 
Q 1056 3838 1056 3469 
Q 1056 3159 1242 3001 
Q 1428 2844 1947 2747 
L 2328 2669 
Q 3034 2534 3370 2195 
Q 3706 1856 3706 1288 
Q 3706 609 3251 259 
Q 2797 -91 1919 -91 
Q 1588 -91 1214 -16 
Q 841 59 441 206 
L 441 856 
Q 825 641 1194 531 
Q 1563 422 1919 422 
Q 2459 422 2753 634 
Q 3047 847 3047 1241 
Q 3047 1584 2836 1778 
Q 2625 1972 2144 2069 
L 1759 2144 
Q 1053 2284 737 2584 
Q 422 2884 422 3419 
Q 422 4038 858 4394 
Q 1294 4750 2059 4750 
Q 2388 4750 2728 4690 
Q 3069 4631 3425 4513 
z
" transform="scale(0.015625)"/>
       <path id="DejaVuSans-41" d="M 2188 4044 
L 1331 1722 
L 3047 1722 
L 2188 4044 
z
M 1831 4666 
L 2547 4666 
L 4325 0 
L 3669 0 
L 3244 1197 
L 1141 1197 
L 716 0 
L 50 0 
L 1831 4666 
z
" transform="scale(0.015625)"/>
      </defs>
      <use xlink:href="#DejaVuSans-53"/>
      <use xlink:href="#DejaVuSans-41" x="65.351562"/>
      <use xlink:href="#DejaVuSans-43" x="132.009766"/>
      <use xlink:href="#DejaVuSans-65" x="201.833984"/>
      <use xlink:href="#DejaVuSans-64" x="263.357422"/>
     </g>
    </g>
   </g>
  </g>
 </g>
 <defs>
  <clipPath id="p3baf77f399">
   <rect x="59.52" y="25.44" width="138.799362" height="103.68"/>
  </clipPath>
 </defs>
</svg>
