<?xml version="1.0" encoding="utf-8" standalone="no"?>
<!DOCTYPE svg PUBLIC "-//W3C//DTD SVG 1.1//EN"
  "http://www.w3.org/Graphics/SVG/1.1/DTD/svg11.dtd">
<svg xmlns:xlink="http://www.w3.org/1999/xlink" width="216pt" height="180pt" viewBox="0 0 216 180" xmlns="http://www.w3.org/2000/svg" version="1.1">
 <metadata>
  <rdf:RDF xmlns:dc="http://purl.org/dc/elements/1.1/" xmlns:cc="http://creativecommons.org/ns#" xmlns:rdf="http://www.w3.org/1999/02/22-rdf-syntax-ns#">
   <cc:Work>
    <dc:type rdf:resource="http://purl.org/dc/dcmitype/StillImage"/>
    <dc:date>2024-08-25T15:40:21.907228</dc:date>
    <dc:format>image/svg+xml</dc:format>
    <dc:creator>
     <cc:Agent>
      <dc:title>Matplotlib v3.9.1, https://matplotlib.org/</dc:title>
     </cc:Agent>
    </dc:creator>
   </cc:Work>
  </rdf:RDF>
 </metadata>
 <defs>
  <style type="text/css">*{stroke-linejoin: round; stroke-linecap: butt}</style>
 </defs>
 <g id="figure_1">
  <g id="patch_1">
   <path d="M 0 180 
L 216 180 
L 216 0 
L 0 0 
z
" style="fill: #ffffff"/>
  </g>
  <g id="axes_1">
   <g id="patch_2">
    <path d="M 59.52 129.12 
L 197.379952 129.12 
L 197.379952 25.44 
L 59.52 25.44 
z
" style="fill: #ffffff"/>
   </g>
   <g id="matplotlib.axis_1">
    <g id="xtick_1">
     <g id="line2d_1">
      <defs>
       <path id="mdceb23fd1a" d="M 0 0 
L 0 3.5 
" style="stroke: #000000; stroke-width: 0.8"/>
      </defs>
      <g>
       <use xlink:href="#mdceb23fd1a" x="62.104874" y="129.12" style="stroke: #000000; stroke-width: 0.8"/>
      </g>
     </g>
     <g id="text_1">
      <!-- 1.00 -->
      <g transform="translate(50.972062 143.718437) scale(0.1 -0.1)">
       <defs>
        <path id="DejaVuSans-31" d="M 794 531 
L 1825 531 
L 1825 4091 
L 703 3866 
L 703 4441 
L 1819 4666 
L 2450 4666 
L 2450 531 
L 3481 531 
L 3481 0 
L 794 0 
L 794 531 
z
" transform="scale(0.015625)"/>
        <path id="DejaVuSans-2e" d="M 684 794 
L 1344 794 
L 1344 0 
L 684 0 
L 684 794 
z
" transform="scale(0.015625)"/>
        <path id="DejaVuSans-30" d="M 2034 4250 
Q 1547 4250 1301 3770 
Q 1056 3291 1056 2328 
Q 1056 1369 1301 889 
Q 1547 409 2034 409 
Q 2525 409 2770 889 
Q 3016 1369 3016 2328 
Q 3016 3291 2770 3770 
Q 2525 4250 2034 4250 
z
M 2034 4750 
Q 2819 4750 3233 4129 
Q 3647 3509 3647 2328 
Q 3647 1150 3233 529 
Q 2819 -91 2034 -91 
Q 1250 -91 836 529 
Q 422 1150 422 2328 
Q 422 3509 836 4129 
Q 1250 4750 2034 4750 
z
" transform="scale(0.015625)"/>
       </defs>
       <use xlink:href="#DejaVuSans-31"/>
       <use xlink:href="#DejaVuSans-2e" x="63.623047"/>
       <use xlink:href="#DejaVuSans-30" x="95.410156"/>
       <use xlink:href="#DejaVuSans-30" x="159.033203"/>
      </g>
     </g>
    </g>
    <g id="xtick_2">
     <g id="line2d_2">
      <g>
       <use xlink:href="#mdceb23fd1a" x="128.367127" y="129.12" style="stroke: #000000; stroke-width: 0.8"/>
      </g>
     </g>
     <g id="text_2">
      <!-- 1.25 -->
      <g transform="translate(117.234315 143.718437) scale(0.1 -0.1)">
       <defs>
        <path id="DejaVuSans-32" d="M 1228 531 
L 3431 531 
L 3431 0 
L 469 0 
L 469 531 
Q 828 903 1448 1529 
Q 2069 2156 2228 2338 
Q 2531 2678 2651 2914 
Q 2772 3150 2772 3378 
Q 2772 3750 2511 3984 
Q 2250 4219 1831 4219 
Q 1534 4219 1204 4116 
Q 875 4013 500 3803 
L 500 4441 
Q 881 4594 1212 4672 
Q 1544 4750 1819 4750 
Q 2544 4750 2975 4387 
Q 3406 4025 3406 3419 
Q 3406 3131 3298 2873 
Q 3191 2616 2906 2266 
Q 2828 2175 2409 1742 
Q 1991 1309 1228 531 
z
" transform="scale(0.015625)"/>
        <path id="DejaVuSans-35" d="M 691 4666 
L 3169 4666 
L 3169 4134 
L 1269 4134 
L 1269 2991 
Q 1406 3038 1543 3061 
Q 1681 3084 1819 3084 
Q 2600 3084 3056 2656 
Q 3513 2228 3513 1497 
Q 3513 744 3044 326 
Q 2575 -91 1722 -91 
Q 1428 -91 1123 -41 
Q 819 9 494 109 
L 494 744 
Q 775 591 1075 516 
Q 1375 441 1709 441 
Q 2250 441 2565 725 
Q 2881 1009 2881 1497 
Q 2881 1984 2565 2268 
Q 2250 2553 1709 2553 
Q 1456 2553 1204 2497 
Q 953 2441 691 2322 
L 691 4666 
z
" transform="scale(0.015625)"/>
       </defs>
       <use xlink:href="#DejaVuSans-31"/>
       <use xlink:href="#DejaVuSans-2e" x="63.623047"/>
       <use xlink:href="#DejaVuSans-32" x="95.410156"/>
       <use xlink:href="#DejaVuSans-35" x="159.033203"/>
      </g>
     </g>
    </g>
    <g id="xtick_3">
     <g id="line2d_3">
      <g>
       <use xlink:href="#mdceb23fd1a" x="194.629381" y="129.12" style="stroke: #000000; stroke-width: 0.8"/>
      </g>
     </g>
     <g id="text_3">
      <!-- 1.50 -->
      <g transform="translate(183.496568 143.718437) scale(0.1 -0.1)">
       <use xlink:href="#DejaVuSans-31"/>
       <use xlink:href="#DejaVuSans-2e" x="63.623047"/>
       <use xlink:href="#DejaVuSans-35" x="95.410156"/>
       <use xlink:href="#DejaVuSans-30" x="159.033203"/>
      </g>
     </g>
    </g>
    <g id="text_4">
     <!-- Time (s) -->
     <g transform="translate(108.12107 157.396563) scale(0.1 -0.1)">
      <defs>
       <path id="DejaVuSans-54" d="M -19 4666 
L 3928 4666 
L 3928 4134 
L 2272 4134 
L 2272 0 
L 1638 0 
L 1638 4134 
L -19 4134 
L -19 4666 
z
" transform="scale(0.015625)"/>
       <path id="DejaVuSans-69" d="M 603 3500 
L 1178 3500 
L 1178 0 
L 603 0 
L 603 3500 
z
M 603 4863 
L 1178 4863 
L 1178 4134 
L 603 4134 
L 603 4863 
z
" transform="scale(0.015625)"/>
       <path id="DejaVuSans-6d" d="M 3328 2828 
Q 3544 3216 3844 3400 
Q 4144 3584 4550 3584 
Q 5097 3584 5394 3201 
Q 5691 2819 5691 2113 
L 5691 0 
L 5113 0 
L 5113 2094 
Q 5113 2597 4934 2840 
Q 4756 3084 4391 3084 
Q 3944 3084 3684 2787 
Q 3425 2491 3425 1978 
L 3425 0 
L 2847 0 
L 2847 2094 
Q 2847 2600 2669 2842 
Q 2491 3084 2119 3084 
Q 1678 3084 1418 2786 
Q 1159 2488 1159 1978 
L 1159 0 
L 581 0 
L 581 3500 
L 1159 3500 
L 1159 2956 
Q 1356 3278 1631 3431 
Q 1906 3584 2284 3584 
Q 2666 3584 2933 3390 
Q 3200 3197 3328 2828 
z
" transform="scale(0.015625)"/>
       <path id="DejaVuSans-65" d="M 3597 1894 
L 3597 1613 
L 953 1613 
Q 991 1019 1311 708 
Q 1631 397 2203 397 
Q 2534 397 2845 478 
Q 3156 559 3463 722 
L 3463 178 
Q 3153 47 2828 -22 
Q 2503 -91 2169 -91 
Q 1331 -91 842 396 
Q 353 884 353 1716 
Q 353 2575 817 3079 
Q 1281 3584 2069 3584 
Q 2775 3584 3186 3129 
Q 3597 2675 3597 1894 
z
M 3022 2063 
Q 3016 2534 2758 2815 
Q 2500 3097 2075 3097 
Q 1594 3097 1305 2825 
Q 1016 2553 972 2059 
L 3022 2063 
z
" transform="scale(0.015625)"/>
       <path id="DejaVuSans-20" transform="scale(0.015625)"/>
       <path id="DejaVuSans-28" d="M 1984 4856 
Q 1566 4138 1362 3434 
Q 1159 2731 1159 2009 
Q 1159 1288 1364 580 
Q 1569 -128 1984 -844 
L 1484 -844 
Q 1016 -109 783 600 
Q 550 1309 550 2009 
Q 550 2706 781 3412 
Q 1013 4119 1484 4856 
L 1984 4856 
z
" transform="scale(0.015625)"/>
       <path id="DejaVuSans-73" d="M 2834 3397 
L 2834 2853 
Q 2591 2978 2328 3040 
Q 2066 3103 1784 3103 
Q 1356 3103 1142 2972 
Q 928 2841 928 2578 
Q 928 2378 1081 2264 
Q 1234 2150 1697 2047 
L 1894 2003 
Q 2506 1872 2764 1633 
Q 3022 1394 3022 966 
Q 3022 478 2636 193 
Q 2250 -91 1575 -91 
Q 1294 -91 989 -36 
Q 684 19 347 128 
L 347 722 
Q 666 556 975 473 
Q 1284 391 1588 391 
Q 1994 391 2212 530 
Q 2431 669 2431 922 
Q 2431 1156 2273 1281 
Q 2116 1406 1581 1522 
L 1381 1569 
Q 847 1681 609 1914 
Q 372 2147 372 2553 
Q 372 3047 722 3315 
Q 1072 3584 1716 3584 
Q 2034 3584 2315 3537 
Q 2597 3491 2834 3397 
z
" transform="scale(0.015625)"/>
       <path id="DejaVuSans-29" d="M 513 4856 
L 1013 4856 
Q 1481 4119 1714 3412 
Q 1947 2706 1947 2009 
Q 1947 1309 1714 600 
Q 1481 -109 1013 -844 
L 513 -844 
Q 928 -128 1133 580 
Q 1338 1288 1338 2009 
Q 1338 2731 1133 3434 
Q 928 4138 513 4856 
z
" transform="scale(0.015625)"/>
      </defs>
      <use xlink:href="#DejaVuSans-54"/>
      <use xlink:href="#DejaVuSans-69" x="57.958984"/>
      <use xlink:href="#DejaVuSans-6d" x="85.742188"/>
      <use xlink:href="#DejaVuSans-65" x="183.154297"/>
      <use xlink:href="#DejaVuSans-20" x="244.677734"/>
      <use xlink:href="#DejaVuSans-28" x="276.464844"/>
      <use xlink:href="#DejaVuSans-73" x="315.478516"/>
      <use xlink:href="#DejaVuSans-29" x="367.578125"/>
     </g>
    </g>
   </g>
   <g id="matplotlib.axis_2">
    <g id="ytick_1">
     <g id="line2d_4">
      <defs>
       <path id="m7270258544" d="M 0 0 
L -3.5 0 
" style="stroke: #000000; stroke-width: 0.8"/>
      </defs>
      <g>
       <use xlink:href="#m7270258544" x="59.52" y="108.103303" style="stroke: #000000; stroke-width: 0.8"/>
      </g>
     </g>
     <g id="text_5">
      <!-- −20 -->
      <g transform="translate(31.415312 111.902522) scale(0.1 -0.1)">
       <defs>
        <path id="DejaVuSans-2212" d="M 678 2272 
L 4684 2272 
L 4684 1741 
L 678 1741 
L 678 2272 
z
" transform="scale(0.015625)"/>
       </defs>
       <use xlink:href="#DejaVuSans-2212"/>
       <use xlink:href="#DejaVuSans-32" x="83.789062"/>
       <use xlink:href="#DejaVuSans-30" x="147.412109"/>
      </g>
     </g>
    </g>
    <g id="ytick_2">
     <g id="line2d_5">
      <g>
       <use xlink:href="#m7270258544" x="59.52" y="85.16925" style="stroke: #000000; stroke-width: 0.8"/>
      </g>
     </g>
     <g id="text_6">
      <!-- −10 -->
      <g transform="translate(31.415312 88.968469) scale(0.1 -0.1)">
       <use xlink:href="#DejaVuSans-2212"/>
       <use xlink:href="#DejaVuSans-31" x="83.789062"/>
       <use xlink:href="#DejaVuSans-30" x="147.412109"/>
      </g>
     </g>
    </g>
    <g id="ytick_3">
     <g id="line2d_6">
      <g>
       <use xlink:href="#m7270258544" x="59.52" y="62.235197" style="stroke: #000000; stroke-width: 0.8"/>
      </g>
     </g>
     <g id="text_7">
      <!-- 0 -->
      <g transform="translate(46.1575 66.034415) scale(0.1 -0.1)">
       <use xlink:href="#DejaVuSans-30"/>
      </g>
     </g>
    </g>
    <g id="ytick_4">
     <g id="line2d_7">
      <g>
       <use xlink:href="#m7270258544" x="59.52" y="39.301143" style="stroke: #000000; stroke-width: 0.8"/>
      </g>
     </g>
     <g id="text_8">
      <!-- 10 -->
      <g transform="translate(39.795 43.100362) scale(0.1 -0.1)">
       <use xlink:href="#DejaVuSans-31"/>
       <use xlink:href="#DejaVuSans-30" x="63.623047"/>
      </g>
     </g>
    </g>
    <g id="text_9">
     <!-- Amplitude (mV) -->
     <g transform="translate(25.335625 116.683906) rotate(-90) scale(0.1 -0.1)">
      <defs>
       <path id="DejaVuSans-41" d="M 2188 4044 
L 1331 1722 
L 3047 1722 
L 2188 4044 
z
M 1831 4666 
L 2547 4666 
L 4325 0 
L 3669 0 
L 3244 1197 
L 1141 1197 
L 716 0 
L 50 0 
L 1831 4666 
z
" transform="scale(0.015625)"/>
       <path id="DejaVuSans-70" d="M 1159 525 
L 1159 -1331 
L 581 -1331 
L 581 3500 
L 1159 3500 
L 1159 2969 
Q 1341 3281 1617 3432 
Q 1894 3584 2278 3584 
Q 2916 3584 3314 3078 
Q 3713 2572 3713 1747 
Q 3713 922 3314 415 
Q 2916 -91 2278 -91 
Q 1894 -91 1617 61 
Q 1341 213 1159 525 
z
M 3116 1747 
Q 3116 2381 2855 2742 
Q 2594 3103 2138 3103 
Q 1681 3103 1420 2742 
Q 1159 2381 1159 1747 
Q 1159 1113 1420 752 
Q 1681 391 2138 391 
Q 2594 391 2855 752 
Q 3116 1113 3116 1747 
z
" transform="scale(0.015625)"/>
       <path id="DejaVuSans-6c" d="M 603 4863 
L 1178 4863 
L 1178 0 
L 603 0 
L 603 4863 
z
" transform="scale(0.015625)"/>
       <path id="DejaVuSans-74" d="M 1172 4494 
L 1172 3500 
L 2356 3500 
L 2356 3053 
L 1172 3053 
L 1172 1153 
Q 1172 725 1289 603 
Q 1406 481 1766 481 
L 2356 481 
L 2356 0 
L 1766 0 
Q 1100 0 847 248 
Q 594 497 594 1153 
L 594 3053 
L 172 3053 
L 172 3500 
L 594 3500 
L 594 4494 
L 1172 4494 
z
" transform="scale(0.015625)"/>
       <path id="DejaVuSans-75" d="M 544 1381 
L 544 3500 
L 1119 3500 
L 1119 1403 
Q 1119 906 1312 657 
Q 1506 409 1894 409 
Q 2359 409 2629 706 
Q 2900 1003 2900 1516 
L 2900 3500 
L 3475 3500 
L 3475 0 
L 2900 0 
L 2900 538 
Q 2691 219 2414 64 
Q 2138 -91 1772 -91 
Q 1169 -91 856 284 
Q 544 659 544 1381 
z
M 1991 3584 
L 1991 3584 
z
" transform="scale(0.015625)"/>
       <path id="DejaVuSans-64" d="M 2906 2969 
L 2906 4863 
L 3481 4863 
L 3481 0 
L 2906 0 
L 2906 525 
Q 2725 213 2448 61 
Q 2172 -91 1784 -91 
Q 1150 -91 751 415 
Q 353 922 353 1747 
Q 353 2572 751 3078 
Q 1150 3584 1784 3584 
Q 2172 3584 2448 3432 
Q 2725 3281 2906 2969 
z
M 947 1747 
Q 947 1113 1208 752 
Q 1469 391 1925 391 
Q 2381 391 2643 752 
Q 2906 1113 2906 1747 
Q 2906 2381 2643 2742 
Q 2381 3103 1925 3103 
Q 1469 3103 1208 2742 
Q 947 2381 947 1747 
z
" transform="scale(0.015625)"/>
       <path id="DejaVuSans-56" d="M 1831 0 
L 50 4666 
L 709 4666 
L 2188 738 
L 3669 4666 
L 4325 4666 
L 2547 0 
L 1831 0 
z
" transform="scale(0.015625)"/>
      </defs>
      <use xlink:href="#DejaVuSans-41"/>
      <use xlink:href="#DejaVuSans-6d" x="68.408203"/>
      <use xlink:href="#DejaVuSans-70" x="165.820312"/>
      <use xlink:href="#DejaVuSans-6c" x="229.296875"/>
      <use xlink:href="#DejaVuSans-69" x="257.080078"/>
      <use xlink:href="#DejaVuSans-74" x="284.863281"/>
      <use xlink:href="#DejaVuSans-75" x="324.072266"/>
      <use xlink:href="#DejaVuSans-64" x="387.451172"/>
      <use xlink:href="#DejaVuSans-65" x="450.927734"/>
      <use xlink:href="#DejaVuSans-20" x="512.451172"/>
      <use xlink:href="#DejaVuSans-28" x="544.238281"/>
      <use xlink:href="#DejaVuSans-6d" x="583.251953"/>
      <use xlink:href="#DejaVuSans-56" x="680.664062"/>
      <use xlink:href="#DejaVuSans-29" x="749.072266"/>
     </g>
    </g>
   </g>
   <g id="line2d_8">
    <path d="M 62.171153 69.410136 
L 62.436268 42.245332 
L 62.568826 43.199086 
L 62.833941 49.674252 
L 63.231614 66.952301 
L 63.761845 90.437624 
L 64.02696 96.044162 
L 64.159518 96.691679 
L 64.557191 37.294277 
L 64.689748 38.279737 
L 64.954863 45.890388 
L 65.352536 67.593558 
L 65.882767 98.349591 
L 66.147882 105.956113 
L 66.28044 106.879961 
L 66.545555 48.031028 
L 66.678113 37.861209 
L 66.810671 38.799213 
L 67.075786 46.604017 
L 67.606016 76.632529 
L 68.136247 102.97283 
L 68.401362 107.428099 
L 68.799035 36.052156 
L 68.931593 37.467074 
L 69.196708 46.680528 
L 69.726939 81.637313 
L 70.257169 111.502266 
L 70.522285 115.790993 
L 70.7874 49.306846 
L 70.919958 38.936118 
L 71.052515 40.11334 
L 71.317631 48.163353 
L 71.847861 79.078531 
L 72.378092 106.047352 
L 72.643207 109.934468 
L 72.908322 48.460751 
L 73.04088 37.378277 
L 73.173438 38.5769 
L 73.438553 47.175799 
L 73.968783 79.465768 
L 74.499014 108.070856 
L 74.764129 112.158055 
L 75.029245 47.012275 
L 75.161802 36.001416 
L 75.29436 37.060524 
L 75.559475 45.424913 
L 76.089706 77.078461 
L 76.619936 105.083991 
L 76.885052 109.002831 
L 77.282725 30.152727 
L 77.415282 31.536575 
L 77.680398 41.148401 
L 78.210628 78.121913 
L 78.740859 110.466528 
L 79.005974 115.109983 
L 79.271089 43.424388 
L 79.403647 32.305661 
L 79.536205 33.719923 
L 79.80132 42.52876 
L 80.198993 67.017908 
L 80.861781 106.236349 
L 81.126896 111.046425 
L 81.392012 49.637698 
L 81.524569 41.40373 
L 81.657127 42.201889 
L 81.922242 48.536702 
L 82.319915 65.797099 
L 82.982703 94.27424 
L 83.247819 97.41038 
L 83.645492 33.072142 
L 83.778049 34.222377 
L 84.043165 43.359215 
L 84.440837 68.998322 
L 84.971068 104.951921 
L 85.236183 114.414199 
L 85.368741 115.95588 
L 85.633856 50.92653 
L 85.766414 41.994283 
L 85.898972 43.133789 
L 86.164087 50.33593 
L 86.694317 77.905839 
L 87.224548 101.529512 
L 87.489663 105.102041 
L 87.754779 51.734194 
L 87.887336 42.389785 
L 88.019894 43.225641 
L 88.285009 49.952655 
L 88.81524 76.376376 
L 89.34547 99.063506 
L 89.610586 102.207008 
L 90.008259 33.683037 
L 90.140816 34.885886 
L 90.405932 43.586433 
L 90.803604 67.606042 
L 91.466393 107.23769 
L 91.731508 111.491636 
L 91.996623 43.19557 
L 92.129181 31.168149 
L 92.261739 32.188654 
L 92.526854 41.247097 
L 92.924527 66.917204 
L 93.587315 109.330449 
L 93.85243 114.574196 
L 94.117546 47.67661 
L 94.250103 37.672786 
L 94.382661 38.791945 
L 94.647776 46.2384 
L 95.178007 76.387971 
L 95.708237 103.045559 
L 95.973353 106.918402 
L 96.371026 34.573508 
L 96.503583 35.956058 
L 96.768699 44.983524 
L 97.298929 79.654193 
L 97.82916 110.669581 
L 98.094275 115.667114 
L 98.35939 50.576776 
L 98.491948 40.822073 
L 98.624506 42.125438 
L 98.889621 50.560498 
L 99.419851 81.521968 
L 99.950082 108.165393 
L 100.215197 112.043861 
L 100.61287 39.915107 
L 100.745428 41.123008 
L 101.010543 50.125421 
L 101.540774 84.643387 
L 102.071004 114.173816 
L 102.33612 118.65746 
L 102.601235 51.113488 
L 102.733793 39.73119 
L 102.86635 40.7861 
L 103.131466 49.265732 
L 103.661696 81.732245 
L 104.191927 110.307654 
L 104.457042 114.237182 
L 104.854715 34.026413 
L 104.987273 35.284937 
L 105.252388 44.904245 
L 105.782618 82.068307 
L 106.312849 114.642077 
L 106.577964 119.178762 
L 106.84308 49.271698 
L 106.975637 40.004137 
L 107.108195 40.928807 
L 107.37331 48.034012 
L 107.903541 76.103074 
L 108.433771 100.850034 
L 108.698887 104.506638 
L 109.09656 35.719907 
L 109.229117 37.057557 
L 109.494233 46.284181 
L 109.891906 72.374435 
L 110.554694 115.02931 
L 110.819809 120.107021 
L 111.084924 49.911646 
L 111.217482 37.70045 
L 111.35004 39.152507 
L 111.615155 48.755031 
L 112.012828 75.643484 
L 112.543058 113.138534 
L 112.808174 122.782452 
L 112.940731 124.086189 
L 113.205847 54.586137 
L 113.338404 44.456183 
L 113.470962 45.470098 
L 113.736077 53.256491 
L 114.266308 83.197494 
L 114.796538 109.397052 
L 115.061654 113.106934 
L 115.326769 54.52259 
L 115.459327 45.485226 
L 115.591884 46.088703 
L 115.857 52.313818 
L 116.38723 77.661293 
L 116.917461 99.722232 
L 117.182576 103.042077 
L 117.580249 39.210298 
L 117.712807 40.332777 
L 117.977922 48.654815 
L 118.508153 80.247894 
L 119.038383 107.416957 
L 119.303498 111.523669 
L 119.568614 48.831563 
L 119.701171 38.240304 
L 119.833729 39.250122 
L 120.098844 47.46144 
L 120.629075 78.586249 
L 121.159305 105.965218 
L 121.424421 110.274435 
L 121.689536 47.843856 
L 121.822094 36.480561 
L 121.954651 37.694579 
L 122.219767 46.428795 
L 122.749997 80.980918 
L 123.280228 111.017169 
L 123.545343 116.000222 
L 123.810458 49.393611 
L 123.943016 37.234941 
L 124.075574 38.763951 
L 124.340689 48.750102 
L 124.87092 86.718423 
L 125.40115 119.765683 
L 125.666265 124.407273 
L 125.931381 54.69824 
L 126.063938 45.214802 
L 126.196496 46.295611 
L 126.461611 53.664374 
L 126.991842 81.63647 
L 127.522072 105.837806 
L 127.787188 109.080012 
L 128.052303 53.022968 
L 128.184861 43.125923 
L 128.317418 43.957723 
L 128.582534 51.265983 
L 129.112764 80.261585 
L 129.642995 106.519986 
L 129.90811 110.443224 
L 130.173225 52.375472 
L 130.305783 42.40279 
L 130.438341 43.437012 
L 130.703456 51.077373 
L 131.233687 79.13983 
L 131.763917 104.129619 
L 132.029032 107.594426 
L 132.294148 49.892702 
L 132.426705 40.29157 
L 132.559263 41.089096 
L 132.824378 48.247377 
L 133.354609 76.72158 
L 133.884839 100.720331 
L 134.149955 104.25802 
L 134.547628 32.818359 
L 134.680185 34.087536 
L 134.945301 43.104587 
L 135.342974 69.034339 
L 136.005762 111.729487 
L 136.270877 116.97477 
L 136.535992 46.785022 
L 136.66855 35.715101 
L 136.801108 36.752484 
L 137.066223 45.237851 
L 137.596454 78.471974 
L 138.126684 107.761263 
L 138.391799 112.657999 
L 138.656915 52.568015 
L 138.789472 45.014497 
L 138.92203 46.099885 
L 139.187145 52.590956 
L 139.717376 77.53199 
L 140.247606 99.212658 
L 140.512722 102.577731 
L 140.910395 46.523778 
L 141.042952 47.425219 
L 141.308068 54.128831 
L 141.705741 73.6375 
L 142.368529 104.412856 
L 142.633644 107.406004 
L 142.898759 55.146455 
L 143.031317 46.606713 
L 143.163875 47.1259 
L 143.42899 53.111691 
L 143.959221 77.377353 
L 144.489451 98.338231 
L 144.754566 101.641532 
L 145.152239 40.301072 
L 145.284797 41.276515 
L 145.549912 48.945924 
L 146.080143 78.962284 
L 146.610373 105.055614 
L 146.875489 108.844077 
L 147.273162 33.581235 
L 147.405719 34.695316 
L 147.670835 44.14667 
L 148.201065 80.764294 
L 148.731296 113.301383 
L 148.996411 118.444871 
L 149.261526 46.972188 
L 149.394084 35.445945 
L 149.526642 36.614606 
L 149.791757 45.563522 
L 150.18943 70.486406 
L 150.719661 105.167168 
L 150.984776 113.956081 
L 151.117333 115.238439 
L 151.382449 51.797371 
L 151.515006 43.229072 
L 151.647564 44.26961 
L 151.912679 51.460915 
L 152.44291 77.880467 
L 152.97314 101.702039 
L 153.238256 105.399857 
L 153.503371 53.224233 
L 153.635929 43.912918 
L 153.768486 45.120127 
L 154.033602 52.308814 
L 154.431275 72.475961 
L 154.961505 100.589127 
L 155.22662 107.592916 
L 155.359178 108.32524 
L 155.756851 39.295317 
L 155.889409 40.525472 
L 156.154524 49.286557 
L 156.684755 82.388494 
L 157.214985 112.150201 
L 157.4801 116.700179 
L 157.877773 37.05865 
L 158.010331 38.195509 
L 158.275446 47.794203 
L 158.805677 85.020517 
L 159.335907 116.616462 
L 159.601023 120.771613 
L 159.866138 46.824481 
L 159.998696 33.891742 
L 160.131253 34.945922 
L 160.396369 44.060884 
L 160.794042 70.657006 
L 161.45683 113.871756 
L 161.721945 119.159222 
L 161.98706 46.925015 
L 162.119618 35.215281 
L 162.252176 36.225831 
L 162.517291 44.905642 
L 162.914964 69.461183 
L 163.577752 109.334303 
L 163.842867 113.972044 
L 164.107983 48.394686 
L 164.24054 38.430009 
L 164.373098 39.8578 
L 164.638213 48.331515 
L 165.168444 78.668443 
L 165.698675 105.534675 
L 165.96379 109.67176 
L 166.228905 49.497254 
L 166.361463 39.024633 
L 166.49402 40.392474 
L 166.759136 49.012581 
L 167.289366 81.293627 
L 167.819597 109.754578 
L 168.084712 114.447419 
L 168.349827 54.168042 
L 168.482385 44.66505 
L 168.614943 45.7068 
L 168.880058 53.181648 
L 169.410289 81.447779 
L 169.940519 106.599017 
L 170.205634 110.537915 
L 170.603307 38.147657 
L 170.735865 39.231604 
L 171.00098 48.22725 
L 171.398653 74.343275 
L 172.061442 116.987683 
L 172.326557 121.691995 
L 172.591672 48.175546 
L 172.72423 35.449374 
L 172.856787 36.592473 
L 173.121903 45.825466 
L 173.519576 72.092858 
L 174.049806 109.217617 
L 174.314922 118.414122 
L 174.447479 119.510833 
L 174.712594 46.61444 
L 174.845152 34.803776 
L 174.97771 35.875111 
L 175.242825 44.743761 
L 175.773056 78.472793 
L 176.303286 107.928965 
L 176.568401 112.278155 
L 176.833517 46.082422 
L 176.966074 35.957669 
L 177.098632 36.97145 
L 177.363747 44.412494 
L 177.893978 73.928873 
L 178.424209 100.011647 
L 178.689324 104.299471 
L 178.954439 47.833577 
L 179.086997 39.052926 
L 179.219554 40.471559 
L 179.48467 48.047638 
L 180.0149 75.548076 
L 180.545131 100.506702 
L 180.810246 104.458901 
L 181.075361 52.452535 
L 181.207919 44.352981 
L 181.340477 45.307011 
L 181.605592 51.523156 
L 182.003265 69.262127 
L 182.666053 98.077719 
L 182.931169 101.405035 
L 183.328841 43.13545 
L 183.461399 44.081405 
L 183.726514 51.293063 
L 184.256745 78.651656 
L 184.786976 101.938901 
L 185.052091 105.476103 
L 185.449764 35.456892 
L 185.582321 36.482575 
L 185.847437 45.421949 
L 186.24511 71.117899 
L 186.77534 106.450116 
L 187.040456 115.086793 
L 187.173013 116.085482 
L 187.438128 45.410628 
L 187.570686 33.098106 
L 187.703244 33.933746 
L 187.968359 42.798824 
L 188.49859 78.718525 
L 189.02882 109.746122 
L 189.293936 114.624376 
L 189.559051 48.668909 
L 189.691608 40.722633 
L 189.824166 41.710001 
L 190.089281 47.781774 
L 190.486954 65.227918 
L 191.017185 89.558435 
L 191.2823 95.833512 
L 191.414858 96.80097 
L 191.679973 48.123885 
L 191.812531 39.125034 
L 191.945088 40.072089 
L 192.210204 47.395986 
L 192.740434 74.828267 
L 193.270665 98.590802 
L 193.53578 101.98269 
L 193.933453 33.407436 
L 194.066011 34.79862 
L 194.331126 44.584985 
L 194.596241 61.388586 
L 194.596241 61.388586 
" clip-path="url(#pd2ce9842bd)" style="fill: none; stroke: #808080; stroke-width: 0.7; stroke-linecap: square"/>
   </g>
   <g id="line2d_9">
    <path d="M 62.171153 59.979077 
L 62.436268 60.020757 
L 63.099056 60.6924 
L 63.496729 60.958427 
L 63.629287 60.913694 
L 64.159518 60.054135 
L 64.424633 59.855962 
L 64.822306 59.804681 
L 65.352536 59.77937 
L 65.882767 60.501896 
L 66.015325 60.533153 
L 66.28044 60.341021 
L 66.545555 60.36885 
L 66.810671 60.167595 
L 67.075786 60.359015 
L 67.340901 60.503402 
L 67.738574 60.596042 
L 68.003689 60.640807 
L 68.268805 61.043841 
L 68.931593 62.316867 
L 69.594381 63.056171 
L 69.859496 63.011113 
L 70.7874 62.04024 
L 70.919958 62.0161 
L 71.450188 62.496835 
L 71.715303 62.610926 
L 73.04088 62.354254 
L 73.438553 62.537992 
L 73.703668 62.185727 
L 74.233899 61.235267 
L 74.366456 61.168759 
L 74.764129 60.679208 
L 75.029245 60.610324 
L 75.426918 60.641242 
L 75.559475 60.584894 
L 75.957148 59.802914 
L 76.354821 58.913312 
L 77.017609 58.06944 
L 77.282725 58.213466 
L 77.54784 58.387578 
L 77.945513 58.449705 
L 78.343186 57.929614 
L 78.608301 57.682527 
L 79.138532 57.1989 
L 79.403647 57.314449 
L 79.668762 57.77649 
L 80.994339 59.226491 
L 81.392012 59.819118 
L 81.922242 59.887605 
L 82.319915 59.410445 
L 82.717588 59.415949 
L 82.982703 59.472635 
L 83.645492 59.386247 
L 83.910607 59.416538 
L 84.175722 59.551399 
L 84.30828 59.618809 
L 84.971068 60.84387 
L 85.103626 60.962244 
L 85.633856 62.229676 
L 86.031529 62.822988 
L 86.694317 63.256055 
L 87.09199 63.199382 
L 87.357106 62.796671 
L 87.887336 62.988549 
L 88.285009 62.622517 
L 88.682682 61.991264 
L 89.610586 59.750184 
L 90.008259 59.462425 
L 90.273374 59.547624 
L 90.538489 59.229473 
L 90.803604 58.684369 
L 91.333835 58.582216 
L 91.466393 58.622476 
L 91.864066 58.091645 
L 92.261739 57.624563 
L 92.791969 57.541955 
L 93.189642 58.138444 
L 93.984988 59.978122 
L 94.382661 60.52136 
L 94.780334 60.179451 
L 95.443122 59.956319 
L 95.708237 60.160517 
L 96.10591 60.098633 
L 96.371026 60.362445 
L 96.768699 60.845751 
L 97.033814 61.10577 
L 97.564044 61.276076 
L 99.154736 65.088543 
L 99.684967 65.557733 
L 100.215197 65.260523 
L 100.61287 65.80227 
L 101.540774 66.132595 
L 101.673331 66.062788 
L 102.203562 65.217847 
L 102.33612 65.300531 
L 102.998908 64.647773 
L 103.264023 64.600159 
L 103.926811 63.290434 
L 104.191927 63.114252 
L 104.722157 62.245592 
L 105.252388 62.284954 
L 105.384946 62.292113 
L 105.650061 62.002067 
L 106.975637 60.680589 
L 107.37331 60.751658 
L 107.903541 61.318238 
L 108.168656 61.85249 
L 108.433771 61.858026 
L 108.566329 61.789878 
L 108.698887 61.889691 
L 109.09656 62.514365 
L 109.361675 62.808427 
L 109.62679 62.8248 
L 109.891906 63.101468 
L 110.289578 63.986922 
L 110.687251 64.726983 
L 111.615155 65.769648 
L 111.88027 65.811624 
L 112.410501 66.660549 
L 113.338404 67.318453 
L 114.001193 67.201834 
L 114.266308 66.849673 
L 114.531423 66.454145 
L 115.061654 65.98472 
L 115.857 64.226927 
L 116.122115 64.019536 
L 116.38723 63.811767 
L 116.784903 63.260076 
L 117.182576 63.121141 
L 117.447691 63.256873 
L 117.712807 63.439376 
L 118.11048 63.476481 
L 118.508153 62.956313 
L 119.170941 61.653402 
L 119.303498 61.681087 
L 119.568614 61.888974 
L 120.36396 61.89816 
L 120.629075 61.662798 
L 121.026748 61.49939 
L 121.291863 61.343337 
L 121.689536 61.783365 
L 121.822094 61.746697 
L 122.219767 61.969459 
L 122.61744 62.910187 
L 123.015112 62.893789 
L 123.412785 63.622229 
L 123.677901 64.342717 
L 124.075574 65.492802 
L 124.738362 66.548431 
L 125.136035 67.000622 
L 125.40115 67.013789 
L 125.533708 66.953839 
L 125.931381 66.432626 
L 126.196496 66.618878 
L 126.461611 66.746625 
L 126.726727 66.666181 
L 126.991842 66.427765 
L 127.389515 65.877232 
L 127.65463 65.479514 
L 127.919745 65.156707 
L 128.184861 65.191946 
L 128.715091 64.755312 
L 129.112764 64.483127 
L 129.245322 64.574969 
L 129.510437 64.867522 
L 129.90811 64.962181 
L 130.173225 64.682911 
L 130.703456 64.7985 
L 130.968571 64.199233 
L 131.366244 62.808318 
L 132.029032 61.614802 
L 132.426705 61.448486 
L 132.691821 61.21223 
L 132.824378 61.260547 
L 133.222051 61.624706 
L 133.487167 61.470624 
L 134.017397 60.677583 
L 134.149955 60.650768 
L 134.547628 60.320517 
L 134.680185 60.366521 
L 134.945301 60.02058 
L 135.342974 59.516454 
L 135.608089 59.364934 
L 135.740646 59.432016 
L 136.535992 60.405374 
L 137.066223 60.422698 
L 137.861569 60.991422 
L 138.126684 61.204878 
L 138.789472 62.58268 
L 139.849934 65.285505 
L 140.247606 66.082276 
L 141.042952 66.586042 
L 141.440625 66.432746 
L 141.705741 66.697715 
L 142.368529 66.597174 
L 142.766202 65.744657 
L 143.163875 64.790157 
L 143.561548 64.492294 
L 143.694105 64.559867 
L 144.622009 63.512273 
L 144.887124 63.475637 
L 145.815028 62.766809 
L 147.008046 61.345039 
L 147.273162 61.439903 
L 147.538277 61.242739 
L 147.670835 61.281943 
L 148.598738 60.745988 
L 148.731296 60.765029 
L 148.996411 61.024412 
L 150.18943 61.546742 
L 150.321988 61.728767 
L 150.587103 61.772234 
L 150.852218 61.838561 
L 151.117333 61.996504 
L 151.780122 63.316375 
L 152.045237 63.745605 
L 152.310352 63.852491 
L 152.44291 63.756167 
L 152.708025 63.998134 
L 153.768486 65.377928 
L 153.901044 65.43842 
L 154.431275 65.138866 
L 154.69639 65.318663 
L 155.22662 64.838308 
L 155.624293 64.384685 
L 155.756851 64.329227 
L 156.287082 64.695011 
L 156.419639 64.697289 
L 156.684755 64.487828 
L 156.94987 64.654155 
L 157.4801 65.101925 
L 158.275446 65.045813 
L 158.540562 65.181335 
L 158.673119 65.132708 
L 159.070792 64.539584 
L 159.866138 62.344128 
L 160.263811 61.567766 
L 160.794042 60.921761 
L 161.059157 60.841054 
L 161.45683 60.823297 
L 161.721945 61.17905 
L 161.98706 61.20255 
L 162.914964 60.505096 
L 163.842867 60.632297 
L 163.975425 60.728834 
L 164.770771 62.523767 
L 165.433559 62.12494 
L 165.698675 62.330661 
L 166.228905 62.550537 
L 166.361463 62.684435 
L 167.024251 64.020167 
L 168.482385 66.172416 
L 168.880058 66.410372 
L 169.675404 65.937123 
L 170.338192 66.263333 
L 170.603307 66.119975 
L 170.868423 65.715004 
L 171.398653 64.662678 
L 171.663769 64.42568 
L 171.796326 64.254761 
L 172.061442 64.237004 
L 172.856787 63.639694 
L 173.121903 63.235978 
L 173.519576 62.296728 
L 173.784691 62.066668 
L 174.447479 61.168047 
L 174.97771 60.706284 
L 175.110267 60.785835 
L 175.242825 60.727787 
L 175.905613 59.660537 
L 176.303286 58.922312 
L 176.568401 58.715541 
L 176.833517 58.298978 
L 176.966074 58.100856 
L 177.23119 58.104123 
L 177.363747 58.032299 
L 177.76142 58.174011 
L 178.026536 58.13583 
L 178.556766 58.411605 
L 179.086997 59.506787 
L 179.48467 60.628373 
L 180.147458 61.089859 
L 180.810246 62.300741 
L 181.340477 62.613316 
L 181.473034 62.711212 
L 181.73815 62.698239 
L 182.26838 63.374289 
L 182.798611 64.056944 
L 183.063726 64.030438 
L 183.328841 63.803511 
L 183.593957 63.908371 
L 183.99163 64.076399 
L 184.256745 63.872819 
L 184.389303 63.699691 
L 184.654418 63.048626 
L 185.317206 62.489123 
L 185.979994 61.781246 
L 186.642783 61.631771 
L 187.438128 60.499028 
L 187.570686 60.446672 
L 187.968359 59.620346 
L 188.631147 58.886216 
L 189.02882 58.171724 
L 189.161378 58.121077 
L 189.426493 58.395034 
L 189.824166 59.096267 
L 189.956724 59.124993 
L 190.354397 58.837198 
L 190.884627 59.080877 
L 191.149743 59.092504 
L 192.077646 59.474742 
L 192.607877 60.424756 
L 193.00555 60.499775 
L 193.270665 60.686498 
L 193.668338 60.527032 
L 194.331126 61.564016 
L 194.596241 61.724793 
L 194.596241 61.724793 
" clip-path="url(#pd2ce9842bd)" style="fill: none; stroke: #1e90ff; stroke-linecap: square"/>
   </g>
   <g id="line2d_10">
    <path d="M 62.171153 59.979581 
L 62.436268 60.010564 
L 63.099056 60.707722 
L 63.629287 60.969955 
L 64.292075 59.926367 
L 64.557191 59.890343 
L 65.352536 59.737483 
L 65.882767 60.458593 
L 66.015325 60.526815 
L 66.412998 60.354603 
L 66.545555 60.3381 
L 66.810671 60.09192 
L 67.075786 60.296691 
L 67.340901 60.497935 
L 67.738574 60.675376 
L 68.003689 60.775919 
L 68.401362 61.413693 
L 69.461823 63.010274 
L 69.726939 63.021145 
L 69.859496 62.9891 
L 70.654842 62.075633 
L 70.919958 62.043111 
L 71.317631 62.381253 
L 71.715303 62.595113 
L 72.908322 62.246681 
L 73.438553 62.515986 
L 73.703668 62.183958 
L 74.233899 61.237878 
L 74.366456 61.20506 
L 74.896687 60.66346 
L 75.161802 60.550859 
L 75.559475 60.526261 
L 75.957148 59.83003 
L 76.487379 58.825921 
L 76.885052 58.360166 
L 77.150167 58.044441 
L 77.415282 58.241987 
L 77.945513 58.444242 
L 78.343186 58.022197 
L 78.475743 57.969264 
L 79.005974 57.36309 
L 79.271089 57.210529 
L 79.403647 57.311394 
L 79.80132 57.896043 
L 79.933877 57.937139 
L 80.861781 59.194723 
L 81.126896 59.513367 
L 81.392012 59.801044 
L 81.657127 59.793703 
L 81.922242 59.879503 
L 82.319915 59.400036 
L 82.717588 59.456227 
L 82.982703 59.575132 
L 83.645492 59.40743 
L 83.910607 59.43025 
L 84.175722 59.555515 
L 84.30828 59.619513 
L 84.971068 60.904099 
L 85.103626 60.965064 
L 85.766414 62.46415 
L 86.164087 62.910932 
L 86.56176 63.354881 
L 86.826875 63.297586 
L 87.09199 63.368095 
L 87.357106 62.875623 
L 87.622221 63.012335 
L 87.754779 63.026567 
L 88.019894 62.767777 
L 88.550124 62.223707 
L 88.81524 61.75126 
L 89.875701 59.46117 
L 90.140816 59.515486 
L 90.273374 59.554508 
L 90.538489 59.232887 
L 90.803604 58.656258 
L 91.59895 58.43374 
L 92.261739 57.658757 
L 92.924527 57.695154 
L 93.189642 58.095985 
L 93.984988 60.015995 
L 94.382661 60.493259 
L 94.780334 60.149062 
L 95.045449 60.125919 
L 95.178007 60.139634 
L 95.443122 59.958682 
L 95.708237 60.208 
L 96.238468 60.164968 
L 97.166371 61.168163 
L 97.564044 61.289306 
L 99.154736 65.091717 
L 99.684967 65.582938 
L 100.215197 65.398762 
L 101.408216 66.249558 
L 101.673331 66.18732 
L 102.33612 65.262644 
L 103.131466 64.695447 
L 103.264023 64.613374 
L 103.926811 63.157538 
L 104.191927 62.996988 
L 104.722157 62.275428 
L 104.987273 62.324452 
L 105.384946 62.300539 
L 105.782618 61.805405 
L 106.312849 61.28638 
L 106.84308 60.710513 
L 107.505868 60.889846 
L 107.770983 61.200196 
L 107.903541 61.276563 
L 108.168656 61.826645 
L 108.433771 61.922114 
L 108.566329 61.86999 
L 108.831444 62.163947 
L 109.361675 62.82371 
L 109.62679 62.823278 
L 109.891906 63.09161 
L 110.289578 63.989117 
L 110.687251 64.78153 
L 111.747713 65.798351 
L 111.88027 65.820854 
L 112.410501 66.598591 
L 113.470962 67.309324 
L 114.13375 67.082821 
L 114.663981 66.349312 
L 115.061654 65.901198 
L 115.857 64.262902 
L 115.989557 64.19219 
L 116.784903 63.169256 
L 117.182576 63.123663 
L 117.712807 63.360769 
L 118.243037 63.308182 
L 118.508153 63.013575 
L 119.170941 61.804275 
L 119.436056 61.875405 
L 119.966287 61.854909 
L 120.231402 62.050663 
L 120.629075 61.70358 
L 121.026748 61.657848 
L 121.291863 61.407404 
L 121.556978 61.645792 
L 121.689536 61.744384 
L 121.822094 61.6573 
L 122.219767 61.920859 
L 122.61744 62.945326 
L 123.015112 63.029573 
L 123.280228 63.578176 
L 124.340689 65.874857 
L 124.605804 66.445116 
L 124.87092 66.770362 
L 125.136035 67.120346 
L 125.533708 67.040169 
L 126.063938 66.373618 
L 126.461611 66.714685 
L 126.859284 66.636213 
L 127.522072 65.911964 
L 128.052303 65.12793 
L 128.317418 64.897039 
L 128.582534 64.727901 
L 129.112764 64.568995 
L 129.245322 64.715188 
L 129.510437 65.078839 
L 129.90811 65.067814 
L 130.305783 64.639355 
L 130.703456 64.739313 
L 130.968571 64.181509 
L 131.366244 62.86103 
L 132.426705 61.353187 
L 132.691821 61.136922 
L 132.824378 61.203923 
L 133.222051 61.654154 
L 133.487167 61.589821 
L 134.149955 60.707964 
L 134.547628 60.295635 
L 134.680185 60.367918 
L 134.812743 60.2781 
L 135.342974 59.499592 
L 135.608089 59.368358 
L 135.873204 59.629292 
L 136.403435 60.379758 
L 137.198781 60.538706 
L 137.596454 60.81161 
L 138.126684 61.197997 
L 138.789472 62.626249 
L 140.380164 66.171527 
L 141.042952 66.642566 
L 141.440625 66.442694 
L 141.705741 66.666567 
L 142.368529 66.467003 
L 142.766202 65.690554 
L 143.42899 64.510711 
L 143.826663 64.346668 
L 144.356893 63.459575 
L 144.489451 63.317974 
L 145.019682 63.415252 
L 145.815028 62.773333 
L 146.875489 61.490324 
L 147.538277 61.136255 
L 147.670835 61.203153 
L 148.466181 60.840356 
L 148.863853 61.095804 
L 149.128969 61.162158 
L 149.526642 61.151611 
L 150.852218 62.139277 
L 151.117333 62.263941 
L 151.780122 63.158744 
L 152.045237 63.678014 
L 152.310352 63.906412 
L 152.44291 63.875114 
L 152.840583 64.426518 
L 153.105698 64.794253 
L 153.370813 64.903991 
L 153.503371 64.868289 
L 153.901044 65.373008 
L 154.166159 65.172691 
L 154.298717 65.087626 
L 154.563832 65.299854 
L 154.69639 65.392455 
L 154.961505 65.135169 
L 155.756851 64.291716 
L 156.287082 64.647742 
L 156.419639 64.669355 
L 156.684755 64.481131 
L 156.94987 64.671823 
L 157.612658 65.067115 
L 157.877773 65.096417 
L 158.010331 64.968706 
L 158.673119 65.142688 
L 159.070792 64.577651 
L 159.73358 62.604994 
L 160.528926 61.121863 
L 160.926599 60.892074 
L 161.191715 60.971521 
L 161.324272 60.856898 
L 161.45683 60.911863 
L 161.721945 61.26747 
L 161.98706 61.195459 
L 162.782406 60.42976 
L 163.180079 60.635264 
L 163.71031 60.578894 
L 164.107983 60.968992 
L 164.373098 61.654332 
L 164.770771 62.489711 
L 165.433559 62.222785 
L 165.698675 62.422162 
L 166.096347 62.501399 
L 166.361463 62.700052 
L 167.024251 64.000003 
L 167.421924 64.55979 
L 167.687039 64.857641 
L 168.482385 66.149721 
L 168.880058 66.380716 
L 169.675404 65.99832 
L 170.073077 66.266771 
L 170.338192 66.312377 
L 170.603307 66.0927 
L 170.868423 65.682119 
L 171.398653 64.659773 
L 171.663769 64.447204 
L 171.796326 64.270722 
L 172.061442 64.314221 
L 172.459114 63.972096 
L 172.72423 63.726531 
L 172.989345 63.475158 
L 173.917249 61.873859 
L 174.049806 61.843998 
L 174.580037 61.07045 
L 174.97771 60.68384 
L 175.110267 60.768986 
L 175.242825 60.717122 
L 176.038171 59.400671 
L 176.435844 58.805377 
L 176.700959 58.537828 
L 176.966074 58.188104 
L 177.23119 58.194316 
L 177.496305 58.123097 
L 177.76142 58.14625 
L 177.893978 58.029579 
L 178.424209 58.135999 
L 178.821881 58.859345 
L 179.086997 59.541672 
L 179.48467 60.663368 
L 180.147458 61.036822 
L 180.942804 62.324781 
L 181.473034 62.745129 
L 181.73815 62.709123 
L 182.26838 63.328797 
L 182.931169 63.98845 
L 183.726514 64.042582 
L 183.859072 64.147468 
L 184.256745 63.819623 
L 184.389303 63.631799 
L 184.786976 62.822895 
L 185.317206 62.553206 
L 185.847437 62.035322 
L 186.112552 61.753416 
L 186.24511 61.782609 
L 186.77534 61.289973 
L 187.173013 60.680772 
L 187.570686 60.306844 
L 187.835801 59.652099 
L 188.233474 59.383878 
L 188.366032 59.403656 
L 188.631147 59.0496 
L 189.02882 58.498929 
L 189.161378 58.413421 
L 189.691608 58.73115 
L 189.956724 58.978214 
L 190.221839 58.801727 
L 190.486954 58.973 
L 190.75207 59.283383 
L 191.149743 59.301363 
L 191.414858 59.265881 
L 191.812531 59.190253 
L 191.945088 59.257304 
L 192.210204 59.752649 
L 192.607877 60.424612 
L 193.00555 60.473168 
L 193.270665 60.699762 
L 193.53578 60.636263 
L 193.800895 60.668682 
L 194.596241 61.712574 
L 194.596241 61.712574 
" clip-path="url(#pd2ce9842bd)" style="fill: none; stroke: #ff0000; stroke-width: 0.8; stroke-linecap: square"/>
   </g>
   <g id="patch_3">
    <path d="M 59.52 129.12 
L 59.52 25.44 
" style="fill: none; stroke: #000000; stroke-width: 0.8; stroke-linejoin: miter; stroke-linecap: square"/>
   </g>
   <g id="patch_4">
    <path d="M 197.379952 129.12 
L 197.379952 25.44 
" style="fill: none; stroke: #000000; stroke-width: 0.8; stroke-linejoin: miter; stroke-linecap: square"/>
   </g>
   <g id="patch_5">
    <path d="M 59.52 129.12 
L 197.379952 129.12 
" style="fill: none; stroke: #000000; stroke-width: 0.8; stroke-linejoin: miter; stroke-linecap: square"/>
   </g>
   <g id="patch_6">
    <path d="M 59.52 25.44 
L 197.379952 25.44 
" style="fill: none; stroke: #000000; stroke-width: 0.8; stroke-linejoin: miter; stroke-linecap: square"/>
   </g>
   <g id="text_10">
    <!-- Time Domain Plot -->
    <g transform="translate(75.365913 19.44) scale(0.12 -0.12)">
     <defs>
      <path id="DejaVuSans-44" d="M 1259 4147 
L 1259 519 
L 2022 519 
Q 2988 519 3436 956 
Q 3884 1394 3884 2338 
Q 3884 3275 3436 3711 
Q 2988 4147 2022 4147 
L 1259 4147 
z
M 628 4666 
L 1925 4666 
Q 3281 4666 3915 4102 
Q 4550 3538 4550 2338 
Q 4550 1131 3912 565 
Q 3275 0 1925 0 
L 628 0 
L 628 4666 
z
" transform="scale(0.015625)"/>
      <path id="DejaVuSans-6f" d="M 1959 3097 
Q 1497 3097 1228 2736 
Q 959 2375 959 1747 
Q 959 1119 1226 758 
Q 1494 397 1959 397 
Q 2419 397 2687 759 
Q 2956 1122 2956 1747 
Q 2956 2369 2687 2733 
Q 2419 3097 1959 3097 
z
M 1959 3584 
Q 2709 3584 3137 3096 
Q 3566 2609 3566 1747 
Q 3566 888 3137 398 
Q 2709 -91 1959 -91 
Q 1206 -91 779 398 
Q 353 888 353 1747 
Q 353 2609 779 3096 
Q 1206 3584 1959 3584 
z
" transform="scale(0.015625)"/>
      <path id="DejaVuSans-61" d="M 2194 1759 
Q 1497 1759 1228 1600 
Q 959 1441 959 1056 
Q 959 750 1161 570 
Q 1363 391 1709 391 
Q 2188 391 2477 730 
Q 2766 1069 2766 1631 
L 2766 1759 
L 2194 1759 
z
M 3341 1997 
L 3341 0 
L 2766 0 
L 2766 531 
Q 2569 213 2275 61 
Q 1981 -91 1556 -91 
Q 1019 -91 701 211 
Q 384 513 384 1019 
Q 384 1609 779 1909 
Q 1175 2209 1959 2209 
L 2766 2209 
L 2766 2266 
Q 2766 2663 2505 2880 
Q 2244 3097 1772 3097 
Q 1472 3097 1187 3025 
Q 903 2953 641 2809 
L 641 3341 
Q 956 3463 1253 3523 
Q 1550 3584 1831 3584 
Q 2591 3584 2966 3190 
Q 3341 2797 3341 1997 
z
" transform="scale(0.015625)"/>
      <path id="DejaVuSans-6e" d="M 3513 2113 
L 3513 0 
L 2938 0 
L 2938 2094 
Q 2938 2591 2744 2837 
Q 2550 3084 2163 3084 
Q 1697 3084 1428 2787 
Q 1159 2491 1159 1978 
L 1159 0 
L 581 0 
L 581 3500 
L 1159 3500 
L 1159 2956 
Q 1366 3272 1645 3428 
Q 1925 3584 2291 3584 
Q 2894 3584 3203 3211 
Q 3513 2838 3513 2113 
z
" transform="scale(0.015625)"/>
      <path id="DejaVuSans-50" d="M 1259 4147 
L 1259 2394 
L 2053 2394 
Q 2494 2394 2734 2622 
Q 2975 2850 2975 3272 
Q 2975 3691 2734 3919 
Q 2494 4147 2053 4147 
L 1259 4147 
z
M 628 4666 
L 2053 4666 
Q 2838 4666 3239 4311 
Q 3641 3956 3641 3272 
Q 3641 2581 3239 2228 
Q 2838 1875 2053 1875 
L 1259 1875 
L 1259 0 
L 628 0 
L 628 4666 
z
" transform="scale(0.015625)"/>
     </defs>
     <use xlink:href="#DejaVuSans-54"/>
     <use xlink:href="#DejaVuSans-69" x="57.958984"/>
     <use xlink:href="#DejaVuSans-6d" x="85.742188"/>
     <use xlink:href="#DejaVuSans-65" x="183.154297"/>
     <use xlink:href="#DejaVuSans-20" x="244.677734"/>
     <use xlink:href="#DejaVuSans-44" x="276.464844"/>
     <use xlink:href="#DejaVuSans-6f" x="353.466797"/>
     <use xlink:href="#DejaVuSans-6d" x="414.648438"/>
     <use xlink:href="#DejaVuSans-61" x="512.060547"/>
     <use xlink:href="#DejaVuSans-69" x="573.339844"/>
     <use xlink:href="#DejaVuSans-6e" x="601.123047"/>
     <use xlink:href="#DejaVuSans-20" x="664.501953"/>
     <use xlink:href="#DejaVuSans-50" x="696.289062"/>
     <use xlink:href="#DejaVuSans-6c" x="756.591797"/>
     <use xlink:href="#DejaVuSans-6f" x="784.375"/>
     <use xlink:href="#DejaVuSans-74" x="845.556641"/>
    </g>
   </g>
   <g id="patch_7">
    <path d="M 140.386792 67.0391 
L 169.403661 67.0391 
L 169.403661 60.109177 
L 140.386792 60.109177 
L 140.386792 67.0391 
z
" clip-path="url(#pd2ce9842bd)" style="fill: none; opacity: 0.8; stroke: #000000; stroke-width: 1.2; stroke-linejoin: miter"/>
   </g>
   <g id="patch_8">
    <path d="M 100.877986 66.912 
Q 120.632389 63.510588 140.386792 60.109177 
" style="fill: none; opacity: 0.8; stroke: #000000; stroke-linecap: round"/>
   </g>
   <g id="patch_9">
    <path d="M 183.593957 66.912 
Q 176.498809 63.510588 169.403661 60.109177 
" style="fill: none; opacity: 0.8; stroke: #000000; stroke-linecap: round"/>
   </g>
   <g id="axes_2">
    <g id="patch_10">
     <path d="M 100.877986 108.384 
L 183.593957 108.384 
L 183.593957 66.912 
L 100.877986 66.912 
z
" style="fill: #ffffff"/>
    </g>
    <g id="matplotlib.axis_3">
     <g id="xtick_4">
      <g id="line2d_11">
       <g>
        <use xlink:href="#mdceb23fd1a" x="101.022018" y="108.384" style="stroke: #000000; stroke-width: 0.8"/>
       </g>
      </g>
      <g id="text_11">
       <!-- 1.3 -->
       <g transform="translate(93.070456 122.982438) scale(0.1 -0.1)">
        <defs>
         <path id="DejaVuSans-33" d="M 2597 2516 
Q 3050 2419 3304 2112 
Q 3559 1806 3559 1356 
Q 3559 666 3084 287 
Q 2609 -91 1734 -91 
Q 1441 -91 1130 -33 
Q 819 25 488 141 
L 488 750 
Q 750 597 1062 519 
Q 1375 441 1716 441 
Q 2309 441 2620 675 
Q 2931 909 2931 1356 
Q 2931 1769 2642 2001 
Q 2353 2234 1838 2234 
L 1294 2234 
L 1294 2753 
L 1863 2753 
Q 2328 2753 2575 2939 
Q 2822 3125 2822 3475 
Q 2822 3834 2567 4026 
Q 2313 4219 1838 4219 
Q 1578 4219 1281 4162 
Q 984 4106 628 3988 
L 628 4550 
Q 988 4650 1302 4700 
Q 1616 4750 1894 4750 
Q 2613 4750 3031 4423 
Q 3450 4097 3450 3541 
Q 3450 3153 3228 2886 
Q 3006 2619 2597 2516 
z
" transform="scale(0.015625)"/>
        </defs>
        <use xlink:href="#DejaVuSans-31"/>
        <use xlink:href="#DejaVuSans-2e" x="63.623047"/>
        <use xlink:href="#DejaVuSans-33" x="95.410156"/>
       </g>
      </g>
     </g>
     <g id="xtick_5">
      <g id="line2d_12">
       <g>
        <use xlink:href="#mdceb23fd1a" x="183.305891" y="108.384" style="stroke: #000000; stroke-width: 0.8"/>
       </g>
      </g>
      <g id="text_12">
       <!-- 1.4 -->
       <g transform="translate(175.354329 122.982438) scale(0.1 -0.1)">
        <defs>
         <path id="DejaVuSans-34" d="M 2419 4116 
L 825 1625 
L 2419 1625 
L 2419 4116 
z
M 2253 4666 
L 3047 4666 
L 3047 1625 
L 3713 1625 
L 3713 1100 
L 3047 1100 
L 3047 0 
L 2419 0 
L 2419 1100 
L 313 1100 
L 313 1709 
L 2253 4666 
z
" transform="scale(0.015625)"/>
        </defs>
        <use xlink:href="#DejaVuSans-31"/>
        <use xlink:href="#DejaVuSans-2e" x="63.623047"/>
        <use xlink:href="#DejaVuSans-34" x="95.410156"/>
       </g>
      </g>
     </g>
    </g>
    <g id="matplotlib.axis_4">
     <g id="ytick_5">
      <g id="line2d_13">
       <g>
        <use xlink:href="#m7270258544" x="100.877986" y="106.3109" style="stroke: #000000; stroke-width: 0.8"/>
       </g>
      </g>
      <g id="text_13">
       <!-- −2 -->
       <g transform="translate(79.135798 110.110119) scale(0.1 -0.1)">
        <use xlink:href="#DejaVuSans-2212"/>
        <use xlink:href="#DejaVuSans-32" x="83.789062"/>
       </g>
      </g>
     </g>
     <g id="ytick_6">
      <g id="line2d_14">
       <g>
        <use xlink:href="#m7270258544" x="100.877986" y="79.954174" style="stroke: #000000; stroke-width: 0.8"/>
       </g>
      </g>
      <g id="text_14">
       <!-- 0 -->
       <g transform="translate(87.515486 83.753393) scale(0.1 -0.1)">
        <use xlink:href="#DejaVuSans-30"/>
       </g>
      </g>
     </g>
    </g>
    <g id="line2d_15">
     <path d="M 101.289508 105.596694 
L 101.70103 105.543756 
L 102.112552 105.164646 
L 102.524075 105.642926 
L 102.935597 105.748327 
L 103.347119 105.018965 
L 103.758641 103.753494 
L 104.581686 100.120234 
L 104.993208 97.826955 
L 105.816253 94.635483 
L 106.227775 94.047546 
L 106.639297 92.86656 
L 107.050819 92.923906 
L 107.462341 93.312194 
L 107.873864 92.334403 
L 108.696908 89.955775 
L 109.10843 89.431446 
L 109.519953 87.691735 
L 109.931475 87.085016 
L 110.754519 87.443038 
L 111.166042 87.081991 
L 112.812131 85.145899 
L 113.635175 84.524049 
L 114.046697 83.008927 
L 114.45822 82.091707 
L 114.869742 81.646569 
L 115.281264 80.775771 
L 116.104309 77.662882 
L 117.750398 74.83915 
L 118.16192 75.4163 
L 118.573442 75.384257 
L 118.984964 74.666273 
L 119.396487 74.251316 
L 119.808009 74.476592 
L 120.219531 73.980431 
L 120.631053 73.690702 
L 121.042576 73.033788 
L 121.454098 71.958738 
L 122.277142 70.888976 
L 122.688665 71.396883 
L 123.100187 71.506296 
L 123.511709 72.475719 
L 123.923231 72.996762 
L 124.334754 73.322158 
L 124.746276 74.141012 
L 125.157798 74.450019 
L 125.56932 74.563778 
L 126.392365 75.452921 
L 126.803887 75.264112 
L 127.215409 75.545648 
L 127.626931 75.998178 
L 128.038454 77.044129 
L 128.449976 76.938381 
L 128.861498 77.293897 
L 129.27302 77.845777 
L 129.684543 77.675026 
L 130.096065 77.815507 
L 130.507587 78.582601 
L 131.742154 84.244128 
L 132.565198 86.166838 
L 132.976721 87.856251 
L 133.388243 88.633283 
L 133.799765 89.026106 
L 134.211287 89.247467 
L 134.62281 88.69397 
L 135.034332 89.17097 
L 135.857376 91.144395 
L 136.268899 92.69271 
L 136.680421 93.210102 
L 137.091943 94.042088 
L 137.503465 94.590423 
L 137.914988 95.386296 
L 138.32651 96.494226 
L 138.738032 98.012931 
L 139.149554 98.36053 
L 139.561077 97.846255 
L 139.972599 96.900928 
L 140.384121 96.404744 
L 140.795643 96.639238 
L 141.207166 97.310165 
L 141.618688 97.672384 
L 142.03021 97.135004 
L 142.441732 96.141297 
L 143.264777 94.91217 
L 144.087821 92.654702 
L 144.910866 91.986889 
L 146.145432 94.027683 
L 146.968477 94.101847 
L 147.791521 92.898242 
L 148.203044 93.101818 
L 149.849133 96.226001 
L 150.260655 96.426965 
L 151.083699 96.294561 
L 151.495222 96.452999 
L 151.906744 95.817574 
L 152.318266 95.901007 
L 152.729788 96.104535 
L 153.141311 96.640613 
L 153.552833 96.88327 
L 153.964355 96.60385 
L 154.375877 95.638699 
L 154.7874 95.089528 
L 155.198922 93.195644 
L 156.433489 86.148669 
L 157.668055 80.580114 
L 158.079578 78.728894 
L 158.4911 77.59732 
L 159.314144 74.943433 
L 159.725667 73.674302 
L 160.548711 72.406914 
L 160.960233 71.973702 
L 161.783278 71.913038 
L 162.1948 71.281127 
L 162.606322 71.84112 
L 163.429367 73.885345 
L 163.840889 74.131738 
L 164.252411 74.020384 
L 165.075456 72.590356 
L 165.486978 72.359898 
L 165.8985 71.840332 
L 166.310022 70.373376 
L 166.721545 69.547673 
L 167.133067 70.012673 
L 167.544589 70.078186 
L 167.956111 70.490586 
L 168.779156 70.081138 
L 169.6022 70.297198 
L 170.425245 71.298317 
L 171.248289 74.810063 
L 172.071334 79.298042 
L 172.482856 81.033044 
L 172.894378 81.612358 
L 173.717423 80.562677 
L 174.540467 79.897525 
L 174.95199 79.320617 
L 175.363512 80.120657 
L 176.598079 81.195567 
L 177.421123 81.766184 
L 177.832645 82.535586 
L 179.067212 87.596773 
L 179.478734 88.620585 
L 180.301779 91.421661 
L 181.536346 93.950058 
L 181.947868 95.098536 
L 183.182434 99.756652 
L 183.182434 99.756652 
" clip-path="url(#p15a3cc9e45)" style="fill: none; stroke: #1e90ff; stroke-linecap: square"/>
    </g>
    <g id="line2d_16">
     <path d="M 101.289508 105.417707 
L 101.70103 105.184886 
L 102.112552 104.575281 
L 102.524075 105.018982 
L 102.935597 105.060046 
L 103.347119 104.270973 
L 104.170164 101.55709 
L 104.993208 98.159618 
L 105.40473 96.951618 
L 105.816253 95.005058 
L 106.227775 94.387973 
L 106.639297 93.029732 
L 107.050819 92.87328 
L 107.462341 93.205031 
L 107.873864 92.087107 
L 108.696908 89.473548 
L 109.10843 89.015301 
L 109.519953 86.989698 
L 109.931475 86.176029 
L 110.342997 86.32967 
L 110.754519 86.942758 
L 111.166042 86.959293 
L 111.577564 86.735008 
L 111.989086 86.192346 
L 112.400608 85.920835 
L 113.223653 84.961538 
L 113.635175 84.685847 
L 114.046697 83.046413 
L 114.45822 81.988659 
L 114.869742 81.554053 
L 115.281264 80.579701 
L 116.104309 77.207783 
L 117.338875 75.673988 
L 117.750398 75.136747 
L 118.16192 74.877802 
L 119.396487 73.639434 
L 119.808009 74.023846 
L 120.219531 73.676778 
L 120.631053 73.608035 
L 121.042576 73.245747 
L 121.454098 72.441917 
L 122.277142 71.939141 
L 122.688665 72.718996 
L 123.100187 72.591895 
L 123.923231 73.979303 
L 124.746276 73.665029 
L 125.157798 73.566696 
L 125.56932 73.727673 
L 126.392365 74.981855 
L 126.803887 74.970111 
L 127.215409 75.535234 
L 127.626931 76.325198 
L 128.038454 77.698425 
L 128.449976 77.789193 
L 128.861498 78.453015 
L 129.27302 79.42969 
L 129.684543 79.403 
L 130.096065 79.605974 
L 130.507587 80.119345 
L 131.330632 82.059415 
L 132.565198 85.261062 
L 132.976721 87.154263 
L 133.388243 88.24489 
L 134.211287 89.557308 
L 134.62281 89.377464 
L 135.857376 92.545945 
L 136.268899 94.42729 
L 136.680421 94.659023 
L 137.091943 95.181742 
L 137.503465 95.2896 
L 137.914988 95.084447 
L 138.32651 95.993774 
L 138.738032 97.530421 
L 139.149554 97.984661 
L 139.561077 97.683697 
L 139.972599 96.8336 
L 140.384121 96.344803 
L 140.795643 96.693179 
L 141.207166 97.564306 
L 141.618688 98.096409 
L 142.03021 97.705607 
L 142.853255 95.719097 
L 143.264777 95.195957 
L 144.087821 92.912767 
L 144.910866 91.771344 
L 145.322388 92.375179 
L 145.73391 93.240086 
L 146.145432 93.729521 
L 146.968477 93.941334 
L 147.791521 92.859761 
L 148.203044 93.149212 
L 148.614566 93.955514 
L 149.026088 94.498164 
L 149.43761 95.459686 
L 149.849133 96.115455 
L 150.260655 96.560604 
L 150.672177 96.226939 
L 151.495222 96.395318 
L 151.906744 95.66146 
L 152.729788 96.053372 
L 153.141311 96.632129 
L 153.552833 96.909568 
L 153.964355 96.661196 
L 154.375877 95.627317 
L 154.7874 95.186887 
L 155.198922 93.414384 
L 156.433489 86.363988 
L 157.668055 80.432833 
L 158.079578 78.409876 
L 158.4911 77.382486 
L 159.314144 74.803601 
L 159.725667 73.55674 
L 160.548711 72.446798 
L 160.960233 72.236324 
L 161.783278 72.692841 
L 162.1948 72.034195 
L 162.606322 72.350036 
L 163.429367 74.393423 
L 163.840889 74.371254 
L 164.252411 73.979636 
L 165.075456 72.45156 
L 165.486978 72.222785 
L 165.8985 71.751673 
L 166.310022 70.351664 
L 166.721545 69.579778 
L 167.133067 70.168848 
L 167.544589 70.198074 
L 167.956111 70.760641 
L 168.367634 70.647177 
L 168.779156 70.315795 
L 169.6022 70.43673 
L 170.425245 71.871108 
L 170.836767 72.678312 
L 171.248289 74.114809 
L 172.071334 78.839704 
L 172.482856 80.713169 
L 172.894378 81.416665 
L 173.717423 80.7149 
L 174.540467 80.501841 
L 174.95199 79.882857 
L 175.363512 80.786397 
L 175.775034 81.028512 
L 176.186556 80.983113 
L 176.598079 81.486323 
L 177.009601 81.483827 
L 177.421123 81.913741 
L 177.832645 82.625328 
L 179.067212 87.612454 
L 179.478734 88.533571 
L 180.301779 91.359997 
L 181.947868 95.023258 
L 182.35939 96.393478 
L 182.770912 98.499082 
L 183.182434 99.756798 
L 183.182434 99.756798 
" clip-path="url(#p15a3cc9e45)" style="fill: none; stroke: #ff0000; stroke-width: 0.8; stroke-linecap: square"/>
    </g>
    <g id="line2d_17">
     <path d="M 101.289508 145.474078 
L 101.633798 181 
M 104.526558 181 
L 104.581686 156.48071 
L 104.993208 39.220854 
L 105.33051 -1 
M 105.997632 -1 
L 106.227775 6.444118 
L 106.639297 27.528695 
L 107.462341 92.018419 
L 108.44147 181 
M 111.100264 181 
L 111.678827 -1 
M 113.15456 -1 
L 113.223653 3.591371 
L 114.046697 81.400612 
L 114.913419 181 
M 117.703934 181 
L 118.133555 -1 
M 120.02439 -1 
L 120.631053 71.741009 
L 121.415593 181 
M 124.287306 181 
L 124.334754 152.075429 
L 124.728895 -1 
M 126.54207 -1 
L 127.215409 73.737842 
L 128.022369 181 
M 130.85101 181 
L 130.919109 140.64234 
L 131.505958 -1 
M 132.669162 -1 
L 133.388243 50.167814 
L 134.734292 181 
M 137.45037 181 
L 137.914988 28.175384 
L 138.139385 -1 
M 139.167732 -1 
L 139.561077 22.915204 
L 140.384121 94.921011 
L 141.176308 181 
M 144.05968 181 
L 144.58788 -1 
M 146.057527 -1 
L 146.145432 5.548717 
L 146.968477 92.34985 
L 147.675967 181 
M 150.674227 181 
L 151.131517 -1 
M 152.748302 -1 
L 153.552833 94.920346 
L 154.165671 181 
M 157.234514 181 
L 157.256533 167.697418 
L 157.650318 -1 
M 159.536908 -1 
L 160.137189 71.061875 
L 160.914662 181 
M 163.795576 181 
L 163.840889 153.029689 
L 164.234471 -1 
M 166.092035 -1 
L 166.721545 67.736542 
L 167.579768 181 
M 170.355777 181 
L 170.425245 141.14497 
L 170.847 -1 
M 172.467971 -1 
L 172.894378 36.998576 
L 174.187117 181 
M 176.95286 181 
L 177.421123 6.759421 
L 177.474185 -1 
M 178.998696 -1 
L 179.067212 3.974398 
L 179.890257 88.555138 
L 180.644968 181 
L 180.644968 181 
" clip-path="url(#p15a3cc9e45)" style="fill: none; stroke: #808080; stroke-width: 0.2; stroke-linecap: square"/>
    </g>
    <g id="patch_11">
     <path d="M 100.877986 108.384 
L 100.877986 66.912 
" style="fill: none; stroke: #000000; stroke-width: 0.8; stroke-linejoin: miter; stroke-linecap: square"/>
    </g>
    <g id="patch_12">
     <path d="M 183.593957 108.384 
L 183.593957 66.912 
" style="fill: none; stroke: #000000; stroke-width: 0.8; stroke-linejoin: miter; stroke-linecap: square"/>
    </g>
    <g id="patch_13">
     <path d="M 100.877986 108.384 
L 183.593957 108.384 
" style="fill: none; stroke: #000000; stroke-width: 0.8; stroke-linejoin: miter; stroke-linecap: square"/>
    </g>
    <g id="patch_14">
     <path d="M 100.877986 66.912 
L 183.593957 66.912 
" style="fill: none; stroke: #000000; stroke-width: 0.8; stroke-linejoin: miter; stroke-linecap: square"/>
    </g>
   </g>
   <g id="legend_1">
    <g id="patch_15">
     <path d="M 20.262014 158.724 
L 51.130139 158.724 
Q 51.730139 158.724 51.730139 158.124 
L 51.730139 145.213687 
Q 51.730139 144.613687 51.130139 144.613687 
L 20.262014 144.613687 
Q 19.662014 144.613687 19.662014 145.213687 
L 19.662014 158.124 
Q 19.662014 158.724 20.262014 158.724 
z
" style="fill: #ffffff; opacity: 0.8; stroke: #cccccc; stroke-linejoin: miter"/>
    </g>
    <g id="line2d_18">
     <path d="M 20.862014 147.043219 
L 23.862014 147.043219 
L 26.862014 147.043219 
" style="fill: none; stroke: #808080; stroke-width: 0.7; stroke-linecap: square"/>
    </g>
    <g id="text_15">
     <!-- Contaminated -->
     <g transform="translate(29.262014 148.093219) scale(0.03 -0.03)">
      <defs>
       <path id="DejaVuSans-43" d="M 4122 4306 
L 4122 3641 
Q 3803 3938 3442 4084 
Q 3081 4231 2675 4231 
Q 1875 4231 1450 3742 
Q 1025 3253 1025 2328 
Q 1025 1406 1450 917 
Q 1875 428 2675 428 
Q 3081 428 3442 575 
Q 3803 722 4122 1019 
L 4122 359 
Q 3791 134 3420 21 
Q 3050 -91 2638 -91 
Q 1578 -91 968 557 
Q 359 1206 359 2328 
Q 359 3453 968 4101 
Q 1578 4750 2638 4750 
Q 3056 4750 3426 4639 
Q 3797 4528 4122 4306 
z
" transform="scale(0.015625)"/>
      </defs>
      <use xlink:href="#DejaVuSans-43"/>
      <use xlink:href="#DejaVuSans-6f" x="69.824219"/>
      <use xlink:href="#DejaVuSans-6e" x="131.005859"/>
      <use xlink:href="#DejaVuSans-74" x="194.384766"/>
      <use xlink:href="#DejaVuSans-61" x="233.59375"/>
      <use xlink:href="#DejaVuSans-6d" x="294.873047"/>
      <use xlink:href="#DejaVuSans-69" x="392.285156"/>
      <use xlink:href="#DejaVuSans-6e" x="420.068359"/>
      <use xlink:href="#DejaVuSans-61" x="483.447266"/>
      <use xlink:href="#DejaVuSans-74" x="544.726562"/>
      <use xlink:href="#DejaVuSans-65" x="583.935547"/>
      <use xlink:href="#DejaVuSans-64" x="645.458984"/>
     </g>
    </g>
    <g id="line2d_19">
     <path d="M 20.862014 151.446656 
L 23.862014 151.446656 
L 26.862014 151.446656 
" style="fill: none; stroke: #1e90ff; stroke-linecap: square"/>
    </g>
    <g id="text_16">
     <!-- Clean -->
     <g transform="translate(29.262014 152.496656) scale(0.03 -0.03)">
      <use xlink:href="#DejaVuSans-43"/>
      <use xlink:href="#DejaVuSans-6c" x="69.824219"/>
      <use xlink:href="#DejaVuSans-65" x="97.607422"/>
      <use xlink:href="#DejaVuSans-61" x="159.130859"/>
      <use xlink:href="#DejaVuSans-6e" x="220.410156"/>
     </g>
    </g>
    <g id="line2d_20">
     <path d="M 20.862014 155.850094 
L 23.862014 155.850094 
L 26.862014 155.850094 
" style="fill: none; stroke: #ff0000; stroke-width: 0.8; stroke-linecap: square"/>
    </g>
    <g id="text_17">
     <!-- SACed -->
     <g transform="translate(29.262014 156.900094) scale(0.03 -0.03)">
      <defs>
       <path id="DejaVuSans-53" d="M 3425 4513 
L 3425 3897 
Q 3066 4069 2747 4153 
Q 2428 4238 2131 4238 
Q 1616 4238 1336 4038 
Q 1056 3838 1056 3469 
Q 1056 3159 1242 3001 
Q 1428 2844 1947 2747 
L 2328 2669 
Q 3034 2534 3370 2195 
Q 3706 1856 3706 1288 
Q 3706 609 3251 259 
Q 2797 -91 1919 -91 
Q 1588 -91 1214 -16 
Q 841 59 441 206 
L 441 856 
Q 825 641 1194 531 
Q 1563 422 1919 422 
Q 2459 422 2753 634 
Q 3047 847 3047 1241 
Q 3047 1584 2836 1778 
Q 2625 1972 2144 2069 
L 1759 2144 
Q 1053 2284 737 2584 
Q 422 2884 422 3419 
Q 422 4038 858 4394 
Q 1294 4750 2059 4750 
Q 2388 4750 2728 4690 
Q 3069 4631 3425 4513 
z
" transform="scale(0.015625)"/>
      </defs>
      <use xlink:href="#DejaVuSans-53"/>
      <use xlink:href="#DejaVuSans-41" x="65.351562"/>
      <use xlink:href="#DejaVuSans-43" x="132.009766"/>
      <use xlink:href="#DejaVuSans-65" x="201.833984"/>
      <use xlink:href="#DejaVuSans-64" x="263.357422"/>
     </g>
    </g>
   </g>
  </g>
 </g>
 <defs>
  <clipPath id="pd2ce9842bd">
   <rect x="59.52" y="25.44" width="137.859952" height="103.68"/>
  </clipPath>
  <clipPath id="p15a3cc9e45">
   <rect x="100.877986" y="66.912" width="82.715971" height="41.472"/>
  </clipPath>
 </defs>
</svg>
